<?xml version="1.0" encoding="utf-8" standalone="no"?>
<!DOCTYPE svg PUBLIC "-//W3C//DTD SVG 1.1//EN"
  "http://www.w3.org/Graphics/SVG/1.1/DTD/svg11.dtd">
<!-- Created with matplotlib (http://matplotlib.org/) -->
<svg height="345.6pt" version="1.1" viewBox="0 0 460.8 345.6" width="460.8pt" xmlns="http://www.w3.org/2000/svg" xmlns:xlink="http://www.w3.org/1999/xlink">
 <defs>
  <style type="text/css">
*{stroke-linecap:butt;stroke-linejoin:round;}
  </style>
 </defs>
 <g id="figure_1">
  <g id="patch_1">
   <path d="M 0 345.6 
L 460.8 345.6 
L 460.8 0 
L 0 0 
z
" style="fill:#ffffff;"/>
  </g>
  <g id="axes_1">
   <g id="patch_2">
    <path d="M 57.6 307.584 
L 414.72 307.584 
L 414.72 41.472 
L 57.6 41.472 
z
" style="fill:#ffffff;"/>
   </g>
   <g id="matplotlib.axis_1">
    <g id="xtick_1">
     <g id="line2d_1">
      <path clip-path="url(#pbe14773fa1)" d="M 70.555248 307.584 
L 70.555248 41.472 
" style="fill:none;stroke:#b0b0b0;stroke-linecap:square;stroke-width:0.8;"/>
     </g>
     <g id="line2d_2">
      <defs>
       <path d="M 0 0 
L 0 3.5 
" id="mb6e613fd53" style="stroke:#000000;stroke-width:0.8;"/>
      </defs>
      <g>
       <use style="stroke:#000000;stroke-width:0.8;" x="70.555248" xlink:href="#mb6e613fd53" y="307.584"/>
      </g>
     </g>
     <g id="text_1">
      <!-- 0 -->
      <defs>
       <path d="M 31.78125 66.40625 
Q 24.171875 66.40625 20.328125 58.90625 
Q 16.5 51.421875 16.5 36.375 
Q 16.5 21.390625 20.328125 13.890625 
Q 24.171875 6.390625 31.78125 6.390625 
Q 39.453125 6.390625 43.28125 13.890625 
Q 47.125 21.390625 47.125 36.375 
Q 47.125 51.421875 43.28125 58.90625 
Q 39.453125 66.40625 31.78125 66.40625 
z
M 31.78125 74.21875 
Q 44.046875 74.21875 50.515625 64.515625 
Q 56.984375 54.828125 56.984375 36.375 
Q 56.984375 17.96875 50.515625 8.265625 
Q 44.046875 -1.421875 31.78125 -1.421875 
Q 19.53125 -1.421875 13.0625 8.265625 
Q 6.59375 17.96875 6.59375 36.375 
Q 6.59375 54.828125 13.0625 64.515625 
Q 19.53125 74.21875 31.78125 74.21875 
z
" id="DejaVuSans-30"/>
      </defs>
      <g transform="translate(67.373998 322.182437)scale(0.1 -0.1)">
       <use xlink:href="#DejaVuSans-30"/>
      </g>
     </g>
    </g>
    <g id="xtick_2">
     <g id="line2d_3">
      <path clip-path="url(#pbe14773fa1)" d="M 139.776886 307.584 
L 139.776886 41.472 
" style="fill:none;stroke:#b0b0b0;stroke-linecap:square;stroke-width:0.8;"/>
     </g>
     <g id="line2d_4">
      <g>
       <use style="stroke:#000000;stroke-width:0.8;" x="139.776886" xlink:href="#mb6e613fd53" y="307.584"/>
      </g>
     </g>
     <g id="text_2">
      <!-- 10 -->
      <defs>
       <path d="M 12.40625 8.296875 
L 28.515625 8.296875 
L 28.515625 63.921875 
L 10.984375 60.40625 
L 10.984375 69.390625 
L 28.421875 72.90625 
L 38.28125 72.90625 
L 38.28125 8.296875 
L 54.390625 8.296875 
L 54.390625 0 
L 12.40625 0 
z
" id="DejaVuSans-31"/>
      </defs>
      <g transform="translate(133.414386 322.182437)scale(0.1 -0.1)">
       <use xlink:href="#DejaVuSans-31"/>
       <use x="63.623047" xlink:href="#DejaVuSans-30"/>
      </g>
     </g>
    </g>
    <g id="xtick_3">
     <g id="line2d_5">
      <path clip-path="url(#pbe14773fa1)" d="M 208.998523 307.584 
L 208.998523 41.472 
" style="fill:none;stroke:#b0b0b0;stroke-linecap:square;stroke-width:0.8;"/>
     </g>
     <g id="line2d_6">
      <g>
       <use style="stroke:#000000;stroke-width:0.8;" x="208.998523" xlink:href="#mb6e613fd53" y="307.584"/>
      </g>
     </g>
     <g id="text_3">
      <!-- 20 -->
      <defs>
       <path d="M 19.1875 8.296875 
L 53.609375 8.296875 
L 53.609375 0 
L 7.328125 0 
L 7.328125 8.296875 
Q 12.9375 14.109375 22.625 23.890625 
Q 32.328125 33.6875 34.8125 36.53125 
Q 39.546875 41.84375 41.421875 45.53125 
Q 43.3125 49.21875 43.3125 52.78125 
Q 43.3125 58.59375 39.234375 62.25 
Q 35.15625 65.921875 28.609375 65.921875 
Q 23.96875 65.921875 18.8125 64.3125 
Q 13.671875 62.703125 7.8125 59.421875 
L 7.8125 69.390625 
Q 13.765625 71.78125 18.9375 73 
Q 24.125 74.21875 28.421875 74.21875 
Q 39.75 74.21875 46.484375 68.546875 
Q 53.21875 62.890625 53.21875 53.421875 
Q 53.21875 48.921875 51.53125 44.890625 
Q 49.859375 40.875 45.40625 35.40625 
Q 44.1875 33.984375 37.640625 27.21875 
Q 31.109375 20.453125 19.1875 8.296875 
z
" id="DejaVuSans-32"/>
      </defs>
      <g transform="translate(202.636023 322.182437)scale(0.1 -0.1)">
       <use xlink:href="#DejaVuSans-32"/>
       <use x="63.623047" xlink:href="#DejaVuSans-30"/>
      </g>
     </g>
    </g>
    <g id="xtick_4">
     <g id="line2d_7">
      <path clip-path="url(#pbe14773fa1)" d="M 278.220161 307.584 
L 278.220161 41.472 
" style="fill:none;stroke:#b0b0b0;stroke-linecap:square;stroke-width:0.8;"/>
     </g>
     <g id="line2d_8">
      <g>
       <use style="stroke:#000000;stroke-width:0.8;" x="278.220161" xlink:href="#mb6e613fd53" y="307.584"/>
      </g>
     </g>
     <g id="text_4">
      <!-- 30 -->
      <defs>
       <path d="M 40.578125 39.3125 
Q 47.65625 37.796875 51.625 33 
Q 55.609375 28.21875 55.609375 21.1875 
Q 55.609375 10.40625 48.1875 4.484375 
Q 40.765625 -1.421875 27.09375 -1.421875 
Q 22.515625 -1.421875 17.65625 -0.515625 
Q 12.796875 0.390625 7.625 2.203125 
L 7.625 11.71875 
Q 11.71875 9.328125 16.59375 8.109375 
Q 21.484375 6.890625 26.8125 6.890625 
Q 36.078125 6.890625 40.9375 10.546875 
Q 45.796875 14.203125 45.796875 21.1875 
Q 45.796875 27.640625 41.28125 31.265625 
Q 36.765625 34.90625 28.71875 34.90625 
L 20.21875 34.90625 
L 20.21875 43.015625 
L 29.109375 43.015625 
Q 36.375 43.015625 40.234375 45.921875 
Q 44.09375 48.828125 44.09375 54.296875 
Q 44.09375 59.90625 40.109375 62.90625 
Q 36.140625 65.921875 28.71875 65.921875 
Q 24.65625 65.921875 20.015625 65.03125 
Q 15.375 64.15625 9.8125 62.3125 
L 9.8125 71.09375 
Q 15.4375 72.65625 20.34375 73.4375 
Q 25.25 74.21875 29.59375 74.21875 
Q 40.828125 74.21875 47.359375 69.109375 
Q 53.90625 64.015625 53.90625 55.328125 
Q 53.90625 49.265625 50.4375 45.09375 
Q 46.96875 40.921875 40.578125 39.3125 
z
" id="DejaVuSans-33"/>
      </defs>
      <g transform="translate(271.857661 322.182437)scale(0.1 -0.1)">
       <use xlink:href="#DejaVuSans-33"/>
       <use x="63.623047" xlink:href="#DejaVuSans-30"/>
      </g>
     </g>
    </g>
    <g id="xtick_5">
     <g id="line2d_9">
      <path clip-path="url(#pbe14773fa1)" d="M 347.441799 307.584 
L 347.441799 41.472 
" style="fill:none;stroke:#b0b0b0;stroke-linecap:square;stroke-width:0.8;"/>
     </g>
     <g id="line2d_10">
      <g>
       <use style="stroke:#000000;stroke-width:0.8;" x="347.441799" xlink:href="#mb6e613fd53" y="307.584"/>
      </g>
     </g>
     <g id="text_5">
      <!-- 40 -->
      <defs>
       <path d="M 37.796875 64.3125 
L 12.890625 25.390625 
L 37.796875 25.390625 
z
M 35.203125 72.90625 
L 47.609375 72.90625 
L 47.609375 25.390625 
L 58.015625 25.390625 
L 58.015625 17.1875 
L 47.609375 17.1875 
L 47.609375 0 
L 37.796875 0 
L 37.796875 17.1875 
L 4.890625 17.1875 
L 4.890625 26.703125 
z
" id="DejaVuSans-34"/>
      </defs>
      <g transform="translate(341.079299 322.182437)scale(0.1 -0.1)">
       <use xlink:href="#DejaVuSans-34"/>
       <use x="63.623047" xlink:href="#DejaVuSans-30"/>
      </g>
     </g>
    </g>
    <g id="xtick_6">
     <g id="line2d_11">
      <path clip-path="url(#pbe14773fa1)" d="M 84.399575 307.584 
L 84.399575 41.472 
" style="fill:none;stroke:#b0b0b0;stroke-linecap:square;stroke-width:0.8;"/>
     </g>
     <g id="line2d_12">
      <defs>
       <path d="M 0 0 
L 0 2 
" id="m51ea100be1" style="stroke:#000000;stroke-width:0.6;"/>
      </defs>
      <g>
       <use style="stroke:#000000;stroke-width:0.6;" x="84.399575" xlink:href="#m51ea100be1" y="307.584"/>
      </g>
     </g>
    </g>
    <g id="xtick_7">
     <g id="line2d_13">
      <path clip-path="url(#pbe14773fa1)" d="M 98.243903 307.584 
L 98.243903 41.472 
" style="fill:none;stroke:#b0b0b0;stroke-linecap:square;stroke-width:0.8;"/>
     </g>
     <g id="line2d_14">
      <g>
       <use style="stroke:#000000;stroke-width:0.6;" x="98.243903" xlink:href="#m51ea100be1" y="307.584"/>
      </g>
     </g>
    </g>
    <g id="xtick_8">
     <g id="line2d_15">
      <path clip-path="url(#pbe14773fa1)" d="M 112.08823 307.584 
L 112.08823 41.472 
" style="fill:none;stroke:#b0b0b0;stroke-linecap:square;stroke-width:0.8;"/>
     </g>
     <g id="line2d_16">
      <g>
       <use style="stroke:#000000;stroke-width:0.6;" x="112.08823" xlink:href="#m51ea100be1" y="307.584"/>
      </g>
     </g>
    </g>
    <g id="xtick_9">
     <g id="line2d_17">
      <path clip-path="url(#pbe14773fa1)" d="M 125.932558 307.584 
L 125.932558 41.472 
" style="fill:none;stroke:#b0b0b0;stroke-linecap:square;stroke-width:0.8;"/>
     </g>
     <g id="line2d_18">
      <g>
       <use style="stroke:#000000;stroke-width:0.6;" x="125.932558" xlink:href="#m51ea100be1" y="307.584"/>
      </g>
     </g>
    </g>
    <g id="xtick_10">
     <g id="line2d_19">
      <path clip-path="url(#pbe14773fa1)" d="M 153.621213 307.584 
L 153.621213 41.472 
" style="fill:none;stroke:#b0b0b0;stroke-linecap:square;stroke-width:0.8;"/>
     </g>
     <g id="line2d_20">
      <g>
       <use style="stroke:#000000;stroke-width:0.6;" x="153.621213" xlink:href="#m51ea100be1" y="307.584"/>
      </g>
     </g>
    </g>
    <g id="xtick_11">
     <g id="line2d_21">
      <path clip-path="url(#pbe14773fa1)" d="M 167.465541 307.584 
L 167.465541 41.472 
" style="fill:none;stroke:#b0b0b0;stroke-linecap:square;stroke-width:0.8;"/>
     </g>
     <g id="line2d_22">
      <g>
       <use style="stroke:#000000;stroke-width:0.6;" x="167.465541" xlink:href="#m51ea100be1" y="307.584"/>
      </g>
     </g>
    </g>
    <g id="xtick_12">
     <g id="line2d_23">
      <path clip-path="url(#pbe14773fa1)" d="M 181.309868 307.584 
L 181.309868 41.472 
" style="fill:none;stroke:#b0b0b0;stroke-linecap:square;stroke-width:0.8;"/>
     </g>
     <g id="line2d_24">
      <g>
       <use style="stroke:#000000;stroke-width:0.6;" x="181.309868" xlink:href="#m51ea100be1" y="307.584"/>
      </g>
     </g>
    </g>
    <g id="xtick_13">
     <g id="line2d_25">
      <path clip-path="url(#pbe14773fa1)" d="M 195.154196 307.584 
L 195.154196 41.472 
" style="fill:none;stroke:#b0b0b0;stroke-linecap:square;stroke-width:0.8;"/>
     </g>
     <g id="line2d_26">
      <g>
       <use style="stroke:#000000;stroke-width:0.6;" x="195.154196" xlink:href="#m51ea100be1" y="307.584"/>
      </g>
     </g>
    </g>
    <g id="xtick_14">
     <g id="line2d_27">
      <path clip-path="url(#pbe14773fa1)" d="M 222.842851 307.584 
L 222.842851 41.472 
" style="fill:none;stroke:#b0b0b0;stroke-linecap:square;stroke-width:0.8;"/>
     </g>
     <g id="line2d_28">
      <g>
       <use style="stroke:#000000;stroke-width:0.6;" x="222.842851" xlink:href="#m51ea100be1" y="307.584"/>
      </g>
     </g>
    </g>
    <g id="xtick_15">
     <g id="line2d_29">
      <path clip-path="url(#pbe14773fa1)" d="M 236.687178 307.584 
L 236.687178 41.472 
" style="fill:none;stroke:#b0b0b0;stroke-linecap:square;stroke-width:0.8;"/>
     </g>
     <g id="line2d_30">
      <g>
       <use style="stroke:#000000;stroke-width:0.6;" x="236.687178" xlink:href="#m51ea100be1" y="307.584"/>
      </g>
     </g>
    </g>
    <g id="xtick_16">
     <g id="line2d_31">
      <path clip-path="url(#pbe14773fa1)" d="M 250.531506 307.584 
L 250.531506 41.472 
" style="fill:none;stroke:#b0b0b0;stroke-linecap:square;stroke-width:0.8;"/>
     </g>
     <g id="line2d_32">
      <g>
       <use style="stroke:#000000;stroke-width:0.6;" x="250.531506" xlink:href="#m51ea100be1" y="307.584"/>
      </g>
     </g>
    </g>
    <g id="xtick_17">
     <g id="line2d_33">
      <path clip-path="url(#pbe14773fa1)" d="M 264.375834 307.584 
L 264.375834 41.472 
" style="fill:none;stroke:#b0b0b0;stroke-linecap:square;stroke-width:0.8;"/>
     </g>
     <g id="line2d_34">
      <g>
       <use style="stroke:#000000;stroke-width:0.6;" x="264.375834" xlink:href="#m51ea100be1" y="307.584"/>
      </g>
     </g>
    </g>
    <g id="xtick_18">
     <g id="line2d_35">
      <path clip-path="url(#pbe14773fa1)" d="M 292.064489 307.584 
L 292.064489 41.472 
" style="fill:none;stroke:#b0b0b0;stroke-linecap:square;stroke-width:0.8;"/>
     </g>
     <g id="line2d_36">
      <g>
       <use style="stroke:#000000;stroke-width:0.6;" x="292.064489" xlink:href="#m51ea100be1" y="307.584"/>
      </g>
     </g>
    </g>
    <g id="xtick_19">
     <g id="line2d_37">
      <path clip-path="url(#pbe14773fa1)" d="M 305.908816 307.584 
L 305.908816 41.472 
" style="fill:none;stroke:#b0b0b0;stroke-linecap:square;stroke-width:0.8;"/>
     </g>
     <g id="line2d_38">
      <g>
       <use style="stroke:#000000;stroke-width:0.6;" x="305.908816" xlink:href="#m51ea100be1" y="307.584"/>
      </g>
     </g>
    </g>
    <g id="xtick_20">
     <g id="line2d_39">
      <path clip-path="url(#pbe14773fa1)" d="M 319.753144 307.584 
L 319.753144 41.472 
" style="fill:none;stroke:#b0b0b0;stroke-linecap:square;stroke-width:0.8;"/>
     </g>
     <g id="line2d_40">
      <g>
       <use style="stroke:#000000;stroke-width:0.6;" x="319.753144" xlink:href="#m51ea100be1" y="307.584"/>
      </g>
     </g>
    </g>
    <g id="xtick_21">
     <g id="line2d_41">
      <path clip-path="url(#pbe14773fa1)" d="M 333.597471 307.584 
L 333.597471 41.472 
" style="fill:none;stroke:#b0b0b0;stroke-linecap:square;stroke-width:0.8;"/>
     </g>
     <g id="line2d_42">
      <g>
       <use style="stroke:#000000;stroke-width:0.6;" x="333.597471" xlink:href="#m51ea100be1" y="307.584"/>
      </g>
     </g>
    </g>
    <g id="xtick_22">
     <g id="line2d_43">
      <path clip-path="url(#pbe14773fa1)" d="M 361.286127 307.584 
L 361.286127 41.472 
" style="fill:none;stroke:#b0b0b0;stroke-linecap:square;stroke-width:0.8;"/>
     </g>
     <g id="line2d_44">
      <g>
       <use style="stroke:#000000;stroke-width:0.6;" x="361.286127" xlink:href="#m51ea100be1" y="307.584"/>
      </g>
     </g>
    </g>
    <g id="xtick_23">
     <g id="line2d_45">
      <path clip-path="url(#pbe14773fa1)" d="M 375.130454 307.584 
L 375.130454 41.472 
" style="fill:none;stroke:#b0b0b0;stroke-linecap:square;stroke-width:0.8;"/>
     </g>
     <g id="line2d_46">
      <g>
       <use style="stroke:#000000;stroke-width:0.6;" x="375.130454" xlink:href="#m51ea100be1" y="307.584"/>
      </g>
     </g>
    </g>
    <g id="xtick_24">
     <g id="line2d_47">
      <path clip-path="url(#pbe14773fa1)" d="M 388.974782 307.584 
L 388.974782 41.472 
" style="fill:none;stroke:#b0b0b0;stroke-linecap:square;stroke-width:0.8;"/>
     </g>
     <g id="line2d_48">
      <g>
       <use style="stroke:#000000;stroke-width:0.6;" x="388.974782" xlink:href="#m51ea100be1" y="307.584"/>
      </g>
     </g>
    </g>
    <g id="xtick_25">
     <g id="line2d_49">
      <path clip-path="url(#pbe14773fa1)" d="M 402.819109 307.584 
L 402.819109 41.472 
" style="fill:none;stroke:#b0b0b0;stroke-linecap:square;stroke-width:0.8;"/>
     </g>
     <g id="line2d_50">
      <g>
       <use style="stroke:#000000;stroke-width:0.6;" x="402.819109" xlink:href="#m51ea100be1" y="307.584"/>
      </g>
     </g>
    </g>
    <g id="text_6">
     <!-- frame # [] -->
     <defs>
      <path d="M 37.109375 75.984375 
L 37.109375 68.5 
L 28.515625 68.5 
Q 23.6875 68.5 21.796875 66.546875 
Q 19.921875 64.59375 19.921875 59.515625 
L 19.921875 54.6875 
L 34.71875 54.6875 
L 34.71875 47.703125 
L 19.921875 47.703125 
L 19.921875 0 
L 10.890625 0 
L 10.890625 47.703125 
L 2.296875 47.703125 
L 2.296875 54.6875 
L 10.890625 54.6875 
L 10.890625 58.5 
Q 10.890625 67.625 15.140625 71.796875 
Q 19.390625 75.984375 28.609375 75.984375 
z
" id="DejaVuSans-66"/>
      <path d="M 41.109375 46.296875 
Q 39.59375 47.171875 37.8125 47.578125 
Q 36.03125 48 33.890625 48 
Q 26.265625 48 22.1875 43.046875 
Q 18.109375 38.09375 18.109375 28.8125 
L 18.109375 0 
L 9.078125 0 
L 9.078125 54.6875 
L 18.109375 54.6875 
L 18.109375 46.1875 
Q 20.953125 51.171875 25.484375 53.578125 
Q 30.03125 56 36.53125 56 
Q 37.453125 56 38.578125 55.875 
Q 39.703125 55.765625 41.0625 55.515625 
z
" id="DejaVuSans-72"/>
      <path d="M 34.28125 27.484375 
Q 23.390625 27.484375 19.1875 25 
Q 14.984375 22.515625 14.984375 16.5 
Q 14.984375 11.71875 18.140625 8.90625 
Q 21.296875 6.109375 26.703125 6.109375 
Q 34.1875 6.109375 38.703125 11.40625 
Q 43.21875 16.703125 43.21875 25.484375 
L 43.21875 27.484375 
z
M 52.203125 31.203125 
L 52.203125 0 
L 43.21875 0 
L 43.21875 8.296875 
Q 40.140625 3.328125 35.546875 0.953125 
Q 30.953125 -1.421875 24.3125 -1.421875 
Q 15.921875 -1.421875 10.953125 3.296875 
Q 6 8.015625 6 15.921875 
Q 6 25.140625 12.171875 29.828125 
Q 18.359375 34.515625 30.609375 34.515625 
L 43.21875 34.515625 
L 43.21875 35.40625 
Q 43.21875 41.609375 39.140625 45 
Q 35.0625 48.390625 27.6875 48.390625 
Q 23 48.390625 18.546875 47.265625 
Q 14.109375 46.140625 10.015625 43.890625 
L 10.015625 52.203125 
Q 14.9375 54.109375 19.578125 55.046875 
Q 24.21875 56 28.609375 56 
Q 40.484375 56 46.34375 49.84375 
Q 52.203125 43.703125 52.203125 31.203125 
z
" id="DejaVuSans-61"/>
      <path d="M 52 44.1875 
Q 55.375 50.25 60.0625 53.125 
Q 64.75 56 71.09375 56 
Q 79.640625 56 84.28125 50.015625 
Q 88.921875 44.046875 88.921875 33.015625 
L 88.921875 0 
L 79.890625 0 
L 79.890625 32.71875 
Q 79.890625 40.578125 77.09375 44.375 
Q 74.3125 48.1875 68.609375 48.1875 
Q 61.625 48.1875 57.5625 43.546875 
Q 53.515625 38.921875 53.515625 30.90625 
L 53.515625 0 
L 44.484375 0 
L 44.484375 32.71875 
Q 44.484375 40.625 41.703125 44.40625 
Q 38.921875 48.1875 33.109375 48.1875 
Q 26.21875 48.1875 22.15625 43.53125 
Q 18.109375 38.875 18.109375 30.90625 
L 18.109375 0 
L 9.078125 0 
L 9.078125 54.6875 
L 18.109375 54.6875 
L 18.109375 46.1875 
Q 21.1875 51.21875 25.484375 53.609375 
Q 29.78125 56 35.6875 56 
Q 41.65625 56 45.828125 52.96875 
Q 50 49.953125 52 44.1875 
z
" id="DejaVuSans-6d"/>
      <path d="M 56.203125 29.59375 
L 56.203125 25.203125 
L 14.890625 25.203125 
Q 15.484375 15.921875 20.484375 11.0625 
Q 25.484375 6.203125 34.421875 6.203125 
Q 39.59375 6.203125 44.453125 7.46875 
Q 49.3125 8.734375 54.109375 11.28125 
L 54.109375 2.78125 
Q 49.265625 0.734375 44.1875 -0.34375 
Q 39.109375 -1.421875 33.890625 -1.421875 
Q 20.796875 -1.421875 13.15625 6.1875 
Q 5.515625 13.8125 5.515625 26.8125 
Q 5.515625 40.234375 12.765625 48.109375 
Q 20.015625 56 32.328125 56 
Q 43.359375 56 49.78125 48.890625 
Q 56.203125 41.796875 56.203125 29.59375 
z
M 47.21875 32.234375 
Q 47.125 39.59375 43.09375 43.984375 
Q 39.0625 48.390625 32.421875 48.390625 
Q 24.90625 48.390625 20.390625 44.140625 
Q 15.875 39.890625 15.1875 32.171875 
z
" id="DejaVuSans-65"/>
      <path id="DejaVuSans-20"/>
      <path d="M 51.125 44 
L 36.921875 44 
L 32.8125 27.6875 
L 47.125 27.6875 
z
M 43.796875 71.78125 
L 38.71875 51.515625 
L 52.984375 51.515625 
L 58.109375 71.78125 
L 65.921875 71.78125 
L 60.890625 51.515625 
L 76.125 51.515625 
L 76.125 44 
L 58.984375 44 
L 54.984375 27.6875 
L 70.515625 27.6875 
L 70.515625 20.21875 
L 53.078125 20.21875 
L 48 0 
L 40.1875 0 
L 45.21875 20.21875 
L 30.90625 20.21875 
L 25.875 0 
L 18.015625 0 
L 23.09375 20.21875 
L 7.71875 20.21875 
L 7.71875 27.6875 
L 24.90625 27.6875 
L 29 44 
L 13.28125 44 
L 13.28125 51.515625 
L 30.90625 51.515625 
L 35.890625 71.78125 
z
" id="DejaVuSans-23"/>
      <path d="M 8.59375 75.984375 
L 29.296875 75.984375 
L 29.296875 69 
L 17.578125 69 
L 17.578125 -6.203125 
L 29.296875 -6.203125 
L 29.296875 -13.1875 
L 8.59375 -13.1875 
z
" id="DejaVuSans-5b"/>
      <path d="M 30.421875 75.984375 
L 30.421875 -13.1875 
L 9.71875 -13.1875 
L 9.71875 -6.203125 
L 21.390625 -6.203125 
L 21.390625 69 
L 9.71875 69 
L 9.71875 75.984375 
z
" id="DejaVuSans-5d"/>
     </defs>
     <g transform="translate(210.063906 335.860562)scale(0.1 -0.1)">
      <use xlink:href="#DejaVuSans-66"/>
      <use x="35.205078" xlink:href="#DejaVuSans-72"/>
      <use x="76.318359" xlink:href="#DejaVuSans-61"/>
      <use x="137.597656" xlink:href="#DejaVuSans-6d"/>
      <use x="235.009766" xlink:href="#DejaVuSans-65"/>
      <use x="296.533203" xlink:href="#DejaVuSans-20"/>
      <use x="328.320312" xlink:href="#DejaVuSans-23"/>
      <use x="412.109375" xlink:href="#DejaVuSans-20"/>
      <use x="443.896484" xlink:href="#DejaVuSans-5b"/>
      <use x="482.910156" xlink:href="#DejaVuSans-5d"/>
     </g>
    </g>
   </g>
   <g id="matplotlib.axis_2">
    <g id="ytick_1">
     <g id="line2d_51">
      <path clip-path="url(#pbe14773fa1)" d="M 57.6 297.794244 
L 414.72 297.794244 
" style="fill:none;stroke:#b0b0b0;stroke-linecap:square;stroke-width:0.8;"/>
     </g>
     <g id="line2d_52">
      <defs>
       <path d="M 0 0 
L -3.5 0 
" id="mb5ee3b2212" style="stroke:#000000;stroke-width:0.8;"/>
      </defs>
      <g>
       <use style="stroke:#000000;stroke-width:0.8;" x="57.6" xlink:href="#mb5ee3b2212" y="297.794244"/>
      </g>
     </g>
     <g id="text_7">
      <!-- −0.15 -->
      <defs>
       <path d="M 10.59375 35.5 
L 73.1875 35.5 
L 73.1875 27.203125 
L 10.59375 27.203125 
z
" id="DejaVuSans-2212"/>
       <path d="M 10.6875 12.40625 
L 21 12.40625 
L 21 0 
L 10.6875 0 
z
" id="DejaVuSans-2e"/>
       <path d="M 10.796875 72.90625 
L 49.515625 72.90625 
L 49.515625 64.59375 
L 19.828125 64.59375 
L 19.828125 46.734375 
Q 21.96875 47.46875 24.109375 47.828125 
Q 26.265625 48.1875 28.421875 48.1875 
Q 40.625 48.1875 47.75 41.5 
Q 54.890625 34.8125 54.890625 23.390625 
Q 54.890625 11.625 47.5625 5.09375 
Q 40.234375 -1.421875 26.90625 -1.421875 
Q 22.3125 -1.421875 17.546875 -0.640625 
Q 12.796875 0.140625 7.71875 1.703125 
L 7.71875 11.625 
Q 12.109375 9.234375 16.796875 8.0625 
Q 21.484375 6.890625 26.703125 6.890625 
Q 35.15625 6.890625 40.078125 11.328125 
Q 45.015625 15.765625 45.015625 23.390625 
Q 45.015625 31 40.078125 35.4375 
Q 35.15625 39.890625 26.703125 39.890625 
Q 22.75 39.890625 18.8125 39.015625 
Q 14.890625 38.140625 10.796875 36.28125 
z
" id="DejaVuSans-35"/>
      </defs>
      <g transform="translate(19.954687 301.593463)scale(0.1 -0.1)">
       <use xlink:href="#DejaVuSans-2212"/>
       <use x="83.789062" xlink:href="#DejaVuSans-30"/>
       <use x="147.412109" xlink:href="#DejaVuSans-2e"/>
       <use x="179.199219" xlink:href="#DejaVuSans-31"/>
       <use x="242.822266" xlink:href="#DejaVuSans-35"/>
      </g>
     </g>
    </g>
    <g id="ytick_2">
     <g id="line2d_53">
      <path clip-path="url(#pbe14773fa1)" d="M 57.6 258.288698 
L 414.72 258.288698 
" style="fill:none;stroke:#b0b0b0;stroke-linecap:square;stroke-width:0.8;"/>
     </g>
     <g id="line2d_54">
      <g>
       <use style="stroke:#000000;stroke-width:0.8;" x="57.6" xlink:href="#mb5ee3b2212" y="258.288698"/>
      </g>
     </g>
     <g id="text_8">
      <!-- −0.10 -->
      <g transform="translate(19.954687 262.087917)scale(0.1 -0.1)">
       <use xlink:href="#DejaVuSans-2212"/>
       <use x="83.789062" xlink:href="#DejaVuSans-30"/>
       <use x="147.412109" xlink:href="#DejaVuSans-2e"/>
       <use x="179.199219" xlink:href="#DejaVuSans-31"/>
       <use x="242.822266" xlink:href="#DejaVuSans-30"/>
      </g>
     </g>
    </g>
    <g id="ytick_3">
     <g id="line2d_55">
      <path clip-path="url(#pbe14773fa1)" d="M 57.6 218.783153 
L 414.72 218.783153 
" style="fill:none;stroke:#b0b0b0;stroke-linecap:square;stroke-width:0.8;"/>
     </g>
     <g id="line2d_56">
      <g>
       <use style="stroke:#000000;stroke-width:0.8;" x="57.6" xlink:href="#mb5ee3b2212" y="218.783153"/>
      </g>
     </g>
     <g id="text_9">
      <!-- −0.05 -->
      <g transform="translate(19.954687 222.582372)scale(0.1 -0.1)">
       <use xlink:href="#DejaVuSans-2212"/>
       <use x="83.789062" xlink:href="#DejaVuSans-30"/>
       <use x="147.412109" xlink:href="#DejaVuSans-2e"/>
       <use x="179.199219" xlink:href="#DejaVuSans-30"/>
       <use x="242.822266" xlink:href="#DejaVuSans-35"/>
      </g>
     </g>
    </g>
    <g id="ytick_4">
     <g id="line2d_57">
      <path clip-path="url(#pbe14773fa1)" d="M 57.6 179.277608 
L 414.72 179.277608 
" style="fill:none;stroke:#b0b0b0;stroke-linecap:square;stroke-width:0.8;"/>
     </g>
     <g id="line2d_58">
      <g>
       <use style="stroke:#000000;stroke-width:0.8;" x="57.6" xlink:href="#mb5ee3b2212" y="179.277608"/>
      </g>
     </g>
     <g id="text_10">
      <!-- 0.00 -->
      <g transform="translate(28.334375 183.076826)scale(0.1 -0.1)">
       <use xlink:href="#DejaVuSans-30"/>
       <use x="63.623047" xlink:href="#DejaVuSans-2e"/>
       <use x="95.410156" xlink:href="#DejaVuSans-30"/>
       <use x="159.033203" xlink:href="#DejaVuSans-30"/>
      </g>
     </g>
    </g>
    <g id="ytick_5">
     <g id="line2d_59">
      <path clip-path="url(#pbe14773fa1)" d="M 57.6 139.772062 
L 414.72 139.772062 
" style="fill:none;stroke:#b0b0b0;stroke-linecap:square;stroke-width:0.8;"/>
     </g>
     <g id="line2d_60">
      <g>
       <use style="stroke:#000000;stroke-width:0.8;" x="57.6" xlink:href="#mb5ee3b2212" y="139.772062"/>
      </g>
     </g>
     <g id="text_11">
      <!-- 0.05 -->
      <g transform="translate(28.334375 143.571281)scale(0.1 -0.1)">
       <use xlink:href="#DejaVuSans-30"/>
       <use x="63.623047" xlink:href="#DejaVuSans-2e"/>
       <use x="95.410156" xlink:href="#DejaVuSans-30"/>
       <use x="159.033203" xlink:href="#DejaVuSans-35"/>
      </g>
     </g>
    </g>
    <g id="ytick_6">
     <g id="line2d_61">
      <path clip-path="url(#pbe14773fa1)" d="M 57.6 100.266517 
L 414.72 100.266517 
" style="fill:none;stroke:#b0b0b0;stroke-linecap:square;stroke-width:0.8;"/>
     </g>
     <g id="line2d_62">
      <g>
       <use style="stroke:#000000;stroke-width:0.8;" x="57.6" xlink:href="#mb5ee3b2212" y="100.266517"/>
      </g>
     </g>
     <g id="text_12">
      <!-- 0.10 -->
      <g transform="translate(28.334375 104.065735)scale(0.1 -0.1)">
       <use xlink:href="#DejaVuSans-30"/>
       <use x="63.623047" xlink:href="#DejaVuSans-2e"/>
       <use x="95.410156" xlink:href="#DejaVuSans-31"/>
       <use x="159.033203" xlink:href="#DejaVuSans-30"/>
      </g>
     </g>
    </g>
    <g id="ytick_7">
     <g id="line2d_63">
      <path clip-path="url(#pbe14773fa1)" d="M 57.6 60.760971 
L 414.72 60.760971 
" style="fill:none;stroke:#b0b0b0;stroke-linecap:square;stroke-width:0.8;"/>
     </g>
     <g id="line2d_64">
      <g>
       <use style="stroke:#000000;stroke-width:0.8;" x="57.6" xlink:href="#mb5ee3b2212" y="60.760971"/>
      </g>
     </g>
     <g id="text_13">
      <!-- 0.15 -->
      <g transform="translate(28.334375 64.56019)scale(0.1 -0.1)">
       <use xlink:href="#DejaVuSans-30"/>
       <use x="63.623047" xlink:href="#DejaVuSans-2e"/>
       <use x="95.410156" xlink:href="#DejaVuSans-31"/>
       <use x="159.033203" xlink:href="#DejaVuSans-35"/>
      </g>
     </g>
    </g>
    <g id="ytick_8">
     <g id="line2d_65">
      <path clip-path="url(#pbe14773fa1)" d="M 57.6 305.695353 
L 414.72 305.695353 
" style="fill:none;stroke:#b0b0b0;stroke-linecap:square;stroke-width:0.8;"/>
     </g>
     <g id="line2d_66">
      <defs>
       <path d="M 0 0 
L -2 0 
" id="m8dfa7e99d3" style="stroke:#000000;stroke-width:0.6;"/>
      </defs>
      <g>
       <use style="stroke:#000000;stroke-width:0.6;" x="57.6" xlink:href="#m8dfa7e99d3" y="305.695353"/>
      </g>
     </g>
    </g>
    <g id="ytick_9">
     <g id="line2d_67">
      <path clip-path="url(#pbe14773fa1)" d="M 57.6 289.893135 
L 414.72 289.893135 
" style="fill:none;stroke:#b0b0b0;stroke-linecap:square;stroke-width:0.8;"/>
     </g>
     <g id="line2d_68">
      <g>
       <use style="stroke:#000000;stroke-width:0.6;" x="57.6" xlink:href="#m8dfa7e99d3" y="289.893135"/>
      </g>
     </g>
    </g>
    <g id="ytick_10">
     <g id="line2d_69">
      <path clip-path="url(#pbe14773fa1)" d="M 57.6 281.992026 
L 414.72 281.992026 
" style="fill:none;stroke:#b0b0b0;stroke-linecap:square;stroke-width:0.8;"/>
     </g>
     <g id="line2d_70">
      <g>
       <use style="stroke:#000000;stroke-width:0.6;" x="57.6" xlink:href="#m8dfa7e99d3" y="281.992026"/>
      </g>
     </g>
    </g>
    <g id="ytick_11">
     <g id="line2d_71">
      <path clip-path="url(#pbe14773fa1)" d="M 57.6 274.090917 
L 414.72 274.090917 
" style="fill:none;stroke:#b0b0b0;stroke-linecap:square;stroke-width:0.8;"/>
     </g>
     <g id="line2d_72">
      <g>
       <use style="stroke:#000000;stroke-width:0.6;" x="57.6" xlink:href="#m8dfa7e99d3" y="274.090917"/>
      </g>
     </g>
    </g>
    <g id="ytick_12">
     <g id="line2d_73">
      <path clip-path="url(#pbe14773fa1)" d="M 57.6 266.189808 
L 414.72 266.189808 
" style="fill:none;stroke:#b0b0b0;stroke-linecap:square;stroke-width:0.8;"/>
     </g>
     <g id="line2d_74">
      <g>
       <use style="stroke:#000000;stroke-width:0.6;" x="57.6" xlink:href="#m8dfa7e99d3" y="266.189808"/>
      </g>
     </g>
    </g>
    <g id="ytick_13">
     <g id="line2d_75">
      <path clip-path="url(#pbe14773fa1)" d="M 57.6 258.288698 
L 414.72 258.288698 
" style="fill:none;stroke:#b0b0b0;stroke-linecap:square;stroke-width:0.8;"/>
     </g>
     <g id="line2d_76">
      <g>
       <use style="stroke:#000000;stroke-width:0.6;" x="57.6" xlink:href="#m8dfa7e99d3" y="258.288698"/>
      </g>
     </g>
    </g>
    <g id="ytick_14">
     <g id="line2d_77">
      <path clip-path="url(#pbe14773fa1)" d="M 57.6 250.387589 
L 414.72 250.387589 
" style="fill:none;stroke:#b0b0b0;stroke-linecap:square;stroke-width:0.8;"/>
     </g>
     <g id="line2d_78">
      <g>
       <use style="stroke:#000000;stroke-width:0.6;" x="57.6" xlink:href="#m8dfa7e99d3" y="250.387589"/>
      </g>
     </g>
    </g>
    <g id="ytick_15">
     <g id="line2d_79">
      <path clip-path="url(#pbe14773fa1)" d="M 57.6 242.48648 
L 414.72 242.48648 
" style="fill:none;stroke:#b0b0b0;stroke-linecap:square;stroke-width:0.8;"/>
     </g>
     <g id="line2d_80">
      <g>
       <use style="stroke:#000000;stroke-width:0.6;" x="57.6" xlink:href="#m8dfa7e99d3" y="242.48648"/>
      </g>
     </g>
    </g>
    <g id="ytick_16">
     <g id="line2d_81">
      <path clip-path="url(#pbe14773fa1)" d="M 57.6 234.585371 
L 414.72 234.585371 
" style="fill:none;stroke:#b0b0b0;stroke-linecap:square;stroke-width:0.8;"/>
     </g>
     <g id="line2d_82">
      <g>
       <use style="stroke:#000000;stroke-width:0.6;" x="57.6" xlink:href="#m8dfa7e99d3" y="234.585371"/>
      </g>
     </g>
    </g>
    <g id="ytick_17">
     <g id="line2d_83">
      <path clip-path="url(#pbe14773fa1)" d="M 57.6 226.684262 
L 414.72 226.684262 
" style="fill:none;stroke:#b0b0b0;stroke-linecap:square;stroke-width:0.8;"/>
     </g>
     <g id="line2d_84">
      <g>
       <use style="stroke:#000000;stroke-width:0.6;" x="57.6" xlink:href="#m8dfa7e99d3" y="226.684262"/>
      </g>
     </g>
    </g>
    <g id="ytick_18">
     <g id="line2d_85">
      <path clip-path="url(#pbe14773fa1)" d="M 57.6 218.783153 
L 414.72 218.783153 
" style="fill:none;stroke:#b0b0b0;stroke-linecap:square;stroke-width:0.8;"/>
     </g>
     <g id="line2d_86">
      <g>
       <use style="stroke:#000000;stroke-width:0.6;" x="57.6" xlink:href="#m8dfa7e99d3" y="218.783153"/>
      </g>
     </g>
    </g>
    <g id="ytick_19">
     <g id="line2d_87">
      <path clip-path="url(#pbe14773fa1)" d="M 57.6 210.882044 
L 414.72 210.882044 
" style="fill:none;stroke:#b0b0b0;stroke-linecap:square;stroke-width:0.8;"/>
     </g>
     <g id="line2d_88">
      <g>
       <use style="stroke:#000000;stroke-width:0.6;" x="57.6" xlink:href="#m8dfa7e99d3" y="210.882044"/>
      </g>
     </g>
    </g>
    <g id="ytick_20">
     <g id="line2d_89">
      <path clip-path="url(#pbe14773fa1)" d="M 57.6 202.980935 
L 414.72 202.980935 
" style="fill:none;stroke:#b0b0b0;stroke-linecap:square;stroke-width:0.8;"/>
     </g>
     <g id="line2d_90">
      <g>
       <use style="stroke:#000000;stroke-width:0.6;" x="57.6" xlink:href="#m8dfa7e99d3" y="202.980935"/>
      </g>
     </g>
    </g>
    <g id="ytick_21">
     <g id="line2d_91">
      <path clip-path="url(#pbe14773fa1)" d="M 57.6 195.079826 
L 414.72 195.079826 
" style="fill:none;stroke:#b0b0b0;stroke-linecap:square;stroke-width:0.8;"/>
     </g>
     <g id="line2d_92">
      <g>
       <use style="stroke:#000000;stroke-width:0.6;" x="57.6" xlink:href="#m8dfa7e99d3" y="195.079826"/>
      </g>
     </g>
    </g>
    <g id="ytick_22">
     <g id="line2d_93">
      <path clip-path="url(#pbe14773fa1)" d="M 57.6 187.178717 
L 414.72 187.178717 
" style="fill:none;stroke:#b0b0b0;stroke-linecap:square;stroke-width:0.8;"/>
     </g>
     <g id="line2d_94">
      <g>
       <use style="stroke:#000000;stroke-width:0.6;" x="57.6" xlink:href="#m8dfa7e99d3" y="187.178717"/>
      </g>
     </g>
    </g>
    <g id="ytick_23">
     <g id="line2d_95">
      <path clip-path="url(#pbe14773fa1)" d="M 57.6 179.277608 
L 414.72 179.277608 
" style="fill:none;stroke:#b0b0b0;stroke-linecap:square;stroke-width:0.8;"/>
     </g>
     <g id="line2d_96">
      <g>
       <use style="stroke:#000000;stroke-width:0.6;" x="57.6" xlink:href="#m8dfa7e99d3" y="179.277608"/>
      </g>
     </g>
    </g>
    <g id="ytick_24">
     <g id="line2d_97">
      <path clip-path="url(#pbe14773fa1)" d="M 57.6 171.376498 
L 414.72 171.376498 
" style="fill:none;stroke:#b0b0b0;stroke-linecap:square;stroke-width:0.8;"/>
     </g>
     <g id="line2d_98">
      <g>
       <use style="stroke:#000000;stroke-width:0.6;" x="57.6" xlink:href="#m8dfa7e99d3" y="171.376498"/>
      </g>
     </g>
    </g>
    <g id="ytick_25">
     <g id="line2d_99">
      <path clip-path="url(#pbe14773fa1)" d="M 57.6 163.475389 
L 414.72 163.475389 
" style="fill:none;stroke:#b0b0b0;stroke-linecap:square;stroke-width:0.8;"/>
     </g>
     <g id="line2d_100">
      <g>
       <use style="stroke:#000000;stroke-width:0.6;" x="57.6" xlink:href="#m8dfa7e99d3" y="163.475389"/>
      </g>
     </g>
    </g>
    <g id="ytick_26">
     <g id="line2d_101">
      <path clip-path="url(#pbe14773fa1)" d="M 57.6 155.57428 
L 414.72 155.57428 
" style="fill:none;stroke:#b0b0b0;stroke-linecap:square;stroke-width:0.8;"/>
     </g>
     <g id="line2d_102">
      <g>
       <use style="stroke:#000000;stroke-width:0.6;" x="57.6" xlink:href="#m8dfa7e99d3" y="155.57428"/>
      </g>
     </g>
    </g>
    <g id="ytick_27">
     <g id="line2d_103">
      <path clip-path="url(#pbe14773fa1)" d="M 57.6 147.673171 
L 414.72 147.673171 
" style="fill:none;stroke:#b0b0b0;stroke-linecap:square;stroke-width:0.8;"/>
     </g>
     <g id="line2d_104">
      <g>
       <use style="stroke:#000000;stroke-width:0.6;" x="57.6" xlink:href="#m8dfa7e99d3" y="147.673171"/>
      </g>
     </g>
    </g>
    <g id="ytick_28">
     <g id="line2d_105">
      <path clip-path="url(#pbe14773fa1)" d="M 57.6 139.772062 
L 414.72 139.772062 
" style="fill:none;stroke:#b0b0b0;stroke-linecap:square;stroke-width:0.8;"/>
     </g>
     <g id="line2d_106">
      <g>
       <use style="stroke:#000000;stroke-width:0.6;" x="57.6" xlink:href="#m8dfa7e99d3" y="139.772062"/>
      </g>
     </g>
    </g>
    <g id="ytick_29">
     <g id="line2d_107">
      <path clip-path="url(#pbe14773fa1)" d="M 57.6 131.870953 
L 414.72 131.870953 
" style="fill:none;stroke:#b0b0b0;stroke-linecap:square;stroke-width:0.8;"/>
     </g>
     <g id="line2d_108">
      <g>
       <use style="stroke:#000000;stroke-width:0.6;" x="57.6" xlink:href="#m8dfa7e99d3" y="131.870953"/>
      </g>
     </g>
    </g>
    <g id="ytick_30">
     <g id="line2d_109">
      <path clip-path="url(#pbe14773fa1)" d="M 57.6 123.969844 
L 414.72 123.969844 
" style="fill:none;stroke:#b0b0b0;stroke-linecap:square;stroke-width:0.8;"/>
     </g>
     <g id="line2d_110">
      <g>
       <use style="stroke:#000000;stroke-width:0.6;" x="57.6" xlink:href="#m8dfa7e99d3" y="123.969844"/>
      </g>
     </g>
    </g>
    <g id="ytick_31">
     <g id="line2d_111">
      <path clip-path="url(#pbe14773fa1)" d="M 57.6 116.068735 
L 414.72 116.068735 
" style="fill:none;stroke:#b0b0b0;stroke-linecap:square;stroke-width:0.8;"/>
     </g>
     <g id="line2d_112">
      <g>
       <use style="stroke:#000000;stroke-width:0.6;" x="57.6" xlink:href="#m8dfa7e99d3" y="116.068735"/>
      </g>
     </g>
    </g>
    <g id="ytick_32">
     <g id="line2d_113">
      <path clip-path="url(#pbe14773fa1)" d="M 57.6 108.167626 
L 414.72 108.167626 
" style="fill:none;stroke:#b0b0b0;stroke-linecap:square;stroke-width:0.8;"/>
     </g>
     <g id="line2d_114">
      <g>
       <use style="stroke:#000000;stroke-width:0.6;" x="57.6" xlink:href="#m8dfa7e99d3" y="108.167626"/>
      </g>
     </g>
    </g>
    <g id="ytick_33">
     <g id="line2d_115">
      <path clip-path="url(#pbe14773fa1)" d="M 57.6 100.266517 
L 414.72 100.266517 
" style="fill:none;stroke:#b0b0b0;stroke-linecap:square;stroke-width:0.8;"/>
     </g>
     <g id="line2d_116">
      <g>
       <use style="stroke:#000000;stroke-width:0.6;" x="57.6" xlink:href="#m8dfa7e99d3" y="100.266517"/>
      </g>
     </g>
    </g>
    <g id="ytick_34">
     <g id="line2d_117">
      <path clip-path="url(#pbe14773fa1)" d="M 57.6 92.365408 
L 414.72 92.365408 
" style="fill:none;stroke:#b0b0b0;stroke-linecap:square;stroke-width:0.8;"/>
     </g>
     <g id="line2d_118">
      <g>
       <use style="stroke:#000000;stroke-width:0.6;" x="57.6" xlink:href="#m8dfa7e99d3" y="92.365408"/>
      </g>
     </g>
    </g>
    <g id="ytick_35">
     <g id="line2d_119">
      <path clip-path="url(#pbe14773fa1)" d="M 57.6 84.464298 
L 414.72 84.464298 
" style="fill:none;stroke:#b0b0b0;stroke-linecap:square;stroke-width:0.8;"/>
     </g>
     <g id="line2d_120">
      <g>
       <use style="stroke:#000000;stroke-width:0.6;" x="57.6" xlink:href="#m8dfa7e99d3" y="84.464298"/>
      </g>
     </g>
    </g>
    <g id="ytick_36">
     <g id="line2d_121">
      <path clip-path="url(#pbe14773fa1)" d="M 57.6 76.563189 
L 414.72 76.563189 
" style="fill:none;stroke:#b0b0b0;stroke-linecap:square;stroke-width:0.8;"/>
     </g>
     <g id="line2d_122">
      <g>
       <use style="stroke:#000000;stroke-width:0.6;" x="57.6" xlink:href="#m8dfa7e99d3" y="76.563189"/>
      </g>
     </g>
    </g>
    <g id="ytick_37">
     <g id="line2d_123">
      <path clip-path="url(#pbe14773fa1)" d="M 57.6 68.66208 
L 414.72 68.66208 
" style="fill:none;stroke:#b0b0b0;stroke-linecap:square;stroke-width:0.8;"/>
     </g>
     <g id="line2d_124">
      <g>
       <use style="stroke:#000000;stroke-width:0.6;" x="57.6" xlink:href="#m8dfa7e99d3" y="68.66208"/>
      </g>
     </g>
    </g>
    <g id="ytick_38">
     <g id="line2d_125">
      <path clip-path="url(#pbe14773fa1)" d="M 57.6 60.760971 
L 414.72 60.760971 
" style="fill:none;stroke:#b0b0b0;stroke-linecap:square;stroke-width:0.8;"/>
     </g>
     <g id="line2d_126">
      <g>
       <use style="stroke:#000000;stroke-width:0.6;" x="57.6" xlink:href="#m8dfa7e99d3" y="60.760971"/>
      </g>
     </g>
    </g>
    <g id="ytick_39">
     <g id="line2d_127">
      <path clip-path="url(#pbe14773fa1)" d="M 57.6 52.859862 
L 414.72 52.859862 
" style="fill:none;stroke:#b0b0b0;stroke-linecap:square;stroke-width:0.8;"/>
     </g>
     <g id="line2d_128">
      <g>
       <use style="stroke:#000000;stroke-width:0.6;" x="57.6" xlink:href="#m8dfa7e99d3" y="52.859862"/>
      </g>
     </g>
    </g>
    <g id="ytick_40">
     <g id="line2d_129">
      <path clip-path="url(#pbe14773fa1)" d="M 57.6 44.958753 
L 414.72 44.958753 
" style="fill:none;stroke:#b0b0b0;stroke-linecap:square;stroke-width:0.8;"/>
     </g>
     <g id="line2d_130">
      <g>
       <use style="stroke:#000000;stroke-width:0.6;" x="57.6" xlink:href="#m8dfa7e99d3" y="44.958753"/>
      </g>
     </g>
    </g>
    <g id="text_14">
     <!-- trans y -->
     <defs>
      <path d="M 18.3125 70.21875 
L 18.3125 54.6875 
L 36.8125 54.6875 
L 36.8125 47.703125 
L 18.3125 47.703125 
L 18.3125 18.015625 
Q 18.3125 11.328125 20.140625 9.421875 
Q 21.96875 7.515625 27.59375 7.515625 
L 36.8125 7.515625 
L 36.8125 0 
L 27.59375 0 
Q 17.1875 0 13.234375 3.875 
Q 9.28125 7.765625 9.28125 18.015625 
L 9.28125 47.703125 
L 2.6875 47.703125 
L 2.6875 54.6875 
L 9.28125 54.6875 
L 9.28125 70.21875 
z
" id="DejaVuSans-74"/>
      <path d="M 54.890625 33.015625 
L 54.890625 0 
L 45.90625 0 
L 45.90625 32.71875 
Q 45.90625 40.484375 42.875 44.328125 
Q 39.84375 48.1875 33.796875 48.1875 
Q 26.515625 48.1875 22.3125 43.546875 
Q 18.109375 38.921875 18.109375 30.90625 
L 18.109375 0 
L 9.078125 0 
L 9.078125 54.6875 
L 18.109375 54.6875 
L 18.109375 46.1875 
Q 21.34375 51.125 25.703125 53.5625 
Q 30.078125 56 35.796875 56 
Q 45.21875 56 50.046875 50.171875 
Q 54.890625 44.34375 54.890625 33.015625 
z
" id="DejaVuSans-6e"/>
      <path d="M 44.28125 53.078125 
L 44.28125 44.578125 
Q 40.484375 46.53125 36.375 47.5 
Q 32.28125 48.484375 27.875 48.484375 
Q 21.1875 48.484375 17.84375 46.4375 
Q 14.5 44.390625 14.5 40.28125 
Q 14.5 37.15625 16.890625 35.375 
Q 19.28125 33.59375 26.515625 31.984375 
L 29.59375 31.296875 
Q 39.15625 29.25 43.1875 25.515625 
Q 47.21875 21.78125 47.21875 15.09375 
Q 47.21875 7.46875 41.1875 3.015625 
Q 35.15625 -1.421875 24.609375 -1.421875 
Q 20.21875 -1.421875 15.453125 -0.5625 
Q 10.6875 0.296875 5.421875 2 
L 5.421875 11.28125 
Q 10.40625 8.6875 15.234375 7.390625 
Q 20.0625 6.109375 24.8125 6.109375 
Q 31.15625 6.109375 34.5625 8.28125 
Q 37.984375 10.453125 37.984375 14.40625 
Q 37.984375 18.0625 35.515625 20.015625 
Q 33.0625 21.96875 24.703125 23.78125 
L 21.578125 24.515625 
Q 13.234375 26.265625 9.515625 29.90625 
Q 5.8125 33.546875 5.8125 39.890625 
Q 5.8125 47.609375 11.28125 51.796875 
Q 16.75 56 26.8125 56 
Q 31.78125 56 36.171875 55.265625 
Q 40.578125 54.546875 44.28125 53.078125 
z
" id="DejaVuSans-73"/>
      <path d="M 32.171875 -5.078125 
Q 28.375 -14.84375 24.75 -17.8125 
Q 21.140625 -20.796875 15.09375 -20.796875 
L 7.90625 -20.796875 
L 7.90625 -13.28125 
L 13.1875 -13.28125 
Q 16.890625 -13.28125 18.9375 -11.515625 
Q 21 -9.765625 23.484375 -3.21875 
L 25.09375 0.875 
L 2.984375 54.6875 
L 12.5 54.6875 
L 29.59375 11.921875 
L 46.6875 54.6875 
L 56.203125 54.6875 
z
" id="DejaVuSans-79"/>
     </defs>
     <g transform="translate(13.875 191.929563)rotate(-90)scale(0.1 -0.1)">
      <use xlink:href="#DejaVuSans-74"/>
      <use x="39.208984" xlink:href="#DejaVuSans-72"/>
      <use x="80.322266" xlink:href="#DejaVuSans-61"/>
      <use x="141.601562" xlink:href="#DejaVuSans-6e"/>
      <use x="204.980469" xlink:href="#DejaVuSans-73"/>
      <use x="257.080078" xlink:href="#DejaVuSans-20"/>
      <use x="288.867188" xlink:href="#DejaVuSans-79"/>
     </g>
    </g>
   </g>
   <g id="line2d_131">
    <path clip-path="url(#pbe14773fa1)" d="M 73.832727 165.840059 
L 74.524971 156.206609 
L 75.217208 166.524273 
L 75.90628 180.034128 
L 77.290754 164.309719 
L 77.982991 161.034289 
L 78.6751 159.450531 
L 79.367337 174.216974 
L 80.059581 181.166789 
L 81.446481 159.763853 
L 82.138725 155.994872 
L 82.830962 155.707341 
L 83.523199 163.621367 
L 84.216653 176.730677 
L 84.908883 165.468443 
L 85.601147 165.357561 
L 86.293364 158.817734 
L 86.985656 159.608146 
L 87.675135 177.058003 
L 88.367373 178.796245 
L 89.05961 190.187378 
L 89.751847 174.467704 
L 90.441987 169.628981 
L 91.13423 151.58472 
L 91.826467 140.399993 
L 92.518705 125.63461 
L 93.209773 129.487675 
L 93.902011 145.864365 
L 94.594254 154.858893 
L 95.286491 181.723624 
L 95.979336 218.908497 
L 96.671581 248.478851 
L 97.363819 247.556225 
L 98.056056 238.957793 
L 99.44205 209.414171 
L 100.133837 164.306928 
L 101.516997 91.947637 
L 102.209241 82.474651 
L 102.901478 84.662418 
L 103.593715 91.235763 
L 104.284797 107.647948 
L 106.361509 177.415989 
L 107.05535 207.278655 
L 107.747587 247.233988 
L 108.439825 252.292198 
L 109.132062 277.542402 
L 109.824962 274.75293 
L 110.517208 262.014849 
L 111.209437 241.692097 
L 111.901674 214.463096 
L 112.593675 170.259421 
L 113.978149 120.261012 
L 115.361972 90.304271 
L 116.054209 106.392764 
L 116.746446 114.433082 
L 117.438683 126.108315 
L 118.130907 169.483704 
L 119.515395 219.096107 
L 120.207625 223.904758 
L 120.899869 255.369258 
L 121.594579 256.361723 
L 122.286816 242.987254 
L 122.97906 213.642035 
L 125.056146 98.262018 
L 125.748383 75.856711 
L 126.44062 76.772329 
L 127.129632 108.895437 
L 127.82187 125.804726 
L 128.514107 155.652022 
L 129.206344 196.735456 
L 130.591908 254.273223 
L 131.284145 267.363875 
L 132.670814 238.848683 
L 133.363058 208.258814 
L 134.055295 172.317934 
L 136.130039 107.68844 
L 136.822277 91.673628 
L 137.514514 86.44592 
L 138.204709 95.057218 
L 138.896947 112.02393 
L 139.589184 125.250169 
L 140.281421 157.490367 
L 141.668336 230.618439 
L 142.360573 264.373863 
L 143.05281 277.730531 
L 143.744756 264.423172 
L 144.436993 256.761685 
L 145.129236 231.055414 
L 145.821474 165.891738 
L 146.511257 152.530416 
L 147.203494 118.792558 
L 147.895731 120.45882 
L 148.588378 96.530034 
L 149.281455 172.642708 
L 149.973692 180.166869 
L 150.665929 222.704136 
L 151.358166 253.631065 
L 152.05041 265.103559 
L 153.435969 243.600115 
L 154.820443 166.264023 
L 155.510224 122.679038 
L 156.20247 98.544485 
L 156.894699 104.27639 
L 157.586944 96.165187 
L 158.279343 121.694527 
L 158.97158 160.968841 
L 159.663852 193.178285 
L 161.051271 263.859637 
L 161.743508 275.38232 
L 162.435745 266.799682 
L 163.127989 251.578242 
L 163.818557 221.007774 
L 164.510795 238.375278 
L 165.203032 133.228338 
L 165.895269 109.753505 
L 166.586145 124.27664 
L 167.278382 125.127279 
L 167.970626 127.871152 
L 168.662863 154.118716 
L 170.048694 229.523559 
L 171.433168 262.949161 
L 172.125831 249.428843 
L 172.818048 232.351769 
L 173.510286 202.809285 
L 174.202529 158.365733 
L 174.892987 122.216278 
L 175.585225 98.380347 
L 176.277462 94.825587 
L 176.969699 98.993225 
L 177.662487 135.20333 
L 178.354724 162.349732 
L 179.046962 175.062154 
L 179.739205 235.055965 
L 180.434067 242.973595 
L 181.126297 271.375052 
L 181.818534 259.669142 
L 183.892876 174.989373 
L 184.585113 121.591182 
L 185.2776 105.56842 
L 185.969588 120.330168 
L 186.661455 119.893702 
L 188.045929 224.398425 
L 188.738167 260.562887 
M 191.509762 198.125503 
L 192.199235 111.280923 
L 192.891481 124.730146 
L 193.583718 104.781997 
L 194.967935 144.213781 
L 195.660172 174.984118 
L 196.352409 185.424332 
L 197.044646 224.385362 
L 197.738917 241.710067 
L 198.431154 251.286532 
L 199.123391 251.607316 
L 199.815628 245.683529 
L 200.508823 214.847789 
L 201.20106 166.736938 
L 201.893304 149.974672 
L 202.585541 111.174278 
L 203.275538 88.818397 
L 203.967776 83.212435 
L 204.660013 104.993669 
L 205.35225 112.351869 
L 207.429146 241.264004 
L 208.121383 256.339183 
L 208.815873 255.914558 
L 209.50811 240.497144 
L 210.200348 203.364375 
L 210.892585 191.3435 
L 211.583861 151.819559 
L 212.276099 125.697511 
L 212.968342 139.803401 
L 213.66058 145.336651 
L 214.351919 135.712961 
L 215.044156 169.591466 
L 215.736393 195.585837 
L 217.120874 262.884688 
L 218.507232 278.465413 
L 219.199469 260.42929 
L 219.891706 231.676179 
L 220.58497 191.488629 
L 221.277214 141.517503 
L 221.969824 111.882734 
L 222.661681 131.5949 
L 223.354881 117.163872 
L 224.047124 108.126953 
L 224.739362 115.032746 
L 225.431599 123.824067 
L 226.123329 162.657983 
L 226.815566 171.757444 
L 227.507804 200.308978 
L 228.200041 220.845031 
L 228.892598 235.807379 
L 230.277072 295.488 
L 230.96931 279.809612 
L 231.661953 279.037374 
L 232.35419 273.942914 
L 234.434318 189.410261 
L 235.126562 153.179659 
L 237.205725 69.913193 
L 237.897963 53.851253 
L 238.5902 54.214813 
L 239.966295 95.075923 
L 240.658539 104.842051 
L 242.043013 157.823909 
L 242.735331 189.531274 
L 244.119806 272.780008 
L 244.812043 289.081464 
L 245.504977 279.759694 
L 246.197214 262.822428 
L 246.889449 262.634849 
L 247.581686 247.845472 
L 248.274878 241.485293 
L 248.967115 227.291898 
L 249.659352 200.212628 
L 250.351589 183.468655 
L 251.043826 142.104612 
L 251.736771 115.863701 
L 252.429009 102.113893 
L 253.81349 82.004564 
L 254.500718 165.029594 
L 255.192947 93.4438 
L 255.885192 95.128124 
L 256.577429 123.940878 
L 257.269926 146.442172 
L 257.962163 158.771133 
L 259.346637 200.240781 
L 260.040695 212.20059 
L 260.732932 217.959797 
L 261.425169 232.466387 
L 262.117406 252.51025 
L 262.80931 258.386127 
L 263.501547 267.679461 
L 264.193784 257.409275 
L 264.886021 225.561934 
L 265.576308 232.792165 
L 266.268553 183.952156 
L 266.960791 236.033323 
L 267.653028 111.704227 
L 268.344813 179.255069 
L 269.03705 180.146517 
L 269.729287 209.582254 
L 271.116285 143.350345 
L 271.808522 137.599806 
L 272.500759 155.143814 
L 273.192996 128.793021 
L 273.886626 164.182312 
L 274.578864 162.666844 
M 279.422083 221.326604 
L 280.11432 196.190549 
L 280.806557 200.513232 
M 282.885262 219.554857 
L 283.576905 116.109978 
L 284.269143 133.310723 
L 284.961386 126.75324 
L 285.652297 139.023699 
M 287.036771 153.591897 
L 287.729008 192.036054 
M 291.190092 215.793983 
L 291.882329 221.863334 
M 297.420548 259.101531 
L 298.112785 250.641605 
L 298.805022 238.459348 
M 305.72952 195.353758 
L 306.421757 183.684128 
L 307.114493 229.532463 
L 307.804746 243.219827 
L 308.496983 253.078046 
L 309.18922 188.579937 
M 315.42021 213.842707 
L 316.112447 236.354927 
L 316.803859 243.083178 
L 317.496096 278.683715 
L 318.880571 201.618621 
M 320.961058 166.404906 
L 321.653295 172.626312 
M 323.034614 199.653903 
L 323.726858 146.820916 
L 324.419095 145.496062 
L 325.112821 137.56271 
L 325.805058 152.22695 
L 326.497302 163.799767 
M 327.884744 214.116102 
L 328.576974 221.624169 
L 329.269218 219.66592 
L 329.961455 215.333352 
L 330.653469 204.160048 
L 331.346218 214.551632 
L 332.037944 204.719976 
L 332.730181 186.891776 
L 333.422638 187.95429 
L 334.114875 160.128665 
L 334.807119 155.394034 
M 337.575094 200.618946 
L 338.267337 178.33933 
L 338.959426 216.217032 
L 339.651661 207.894677 
L 340.343899 189.296361 
L 341.036136 178.952546 
L 341.726718 191.847688 
L 343.111192 203.920443 
L 343.803429 191.4722 
L 344.492933 203.057586 
L 345.18517 174.616111 
L 345.877414 135.615876 
L 346.569651 189.901137 
L 347.262064 185.565819 
L 347.953989 197.24166 
L 348.646226 178.624573 
M 351.414505 182.049267 
L 352.106742 183.518319 
L 352.798979 233.534615 
L 353.491776 222.420388 
L 354.184019 248.938841 
L 354.87625 250.842735 
L 355.569124 227.155189 
M 358.33989 151.387899 
L 359.029714 153.032343 
L 359.721951 161.424147 
M 361.799274 158.861993 
L 362.491511 175.476944 
L 363.183748 183.723461 
L 363.875985 202.707786 
M 365.952863 203.26793 
L 366.6451 186.838068 
L 367.338052 193.13666 
L 368.030296 185.001176 
L 368.722533 202.379886 
L 369.41477 210.215221 
L 370.107983 215.409978 
L 370.80022 214.180268 
L 371.492457 192.970589 
M 372.877912 139.144656 
L 373.570157 156.503328 
L 374.262395 152.84713 
L 374.95463 160.568985 
M 377.032291 152.12117 
L 377.724534 170.726274 
M 380.492239 190.792743 
L 381.184476 162.702514 
M 382.568336 143.419397 
L 384.644637 175.776112 
L 385.336874 159.905042 
L 386.029111 181.562491 
L 386.721348 183.350868 
M 388.104412 166.443659 
L 388.796657 164.591344 
L 389.488894 151.726875 
L 390.179932 161.715816 
L 390.872169 173.937026 
L 391.564426 161.660245 
M 395.717867 166.679531 
L 396.410104 167.673149 
L 396.410104 167.673149 
" style="fill:none;stroke:#ff0000;stroke-linecap:square;"/>
   </g>
   <g id="line2d_132">
    <path clip-path="url(#pbe14773fa1)" d="M 73.832727 161.216185 
L 74.524971 158.666248 
L 75.217208 160.442471 
L 75.90628 172.638941 
L 76.598517 172.159135 
L 77.290754 162.973448 
L 77.982991 158.752375 
L 78.6751 158.155558 
L 79.367337 165.466462 
L 80.059581 179.918665 
L 80.751818 171.573376 
L 81.446481 158.953696 
L 82.138725 152.975886 
L 82.830962 155.167783 
L 83.523199 160.507466 
L 84.216653 175.296889 
L 84.908883 169.210554 
L 85.601147 165.135714 
L 86.293364 162.897852 
L 86.985656 164.370703 
L 88.367373 180.246793 
L 89.05961 180.007134 
L 89.751847 176.653951 
L 90.441987 172.254882 
L 91.13423 156.873091 
L 91.826467 144.820996 
L 92.518705 129.336907 
L 93.209773 125.473529 
L 93.902011 135.826066 
L 94.594254 155.320814 
L 95.286491 183.573054 
L 95.979336 223.225706 
L 96.671581 247.396258 
L 97.363819 248.774154 
L 98.056056 243.697889 
L 98.749362 229.646678 
L 99.44205 207.647873 
L 100.133837 174.017977 
L 101.516997 99.009819 
L 102.209241 82.4657 
L 102.901478 81.511454 
L 103.593715 90.866233 
L 104.977035 124.366843 
L 105.669272 144.425224 
L 107.747587 224.842602 
L 108.439825 256.751766 
L 109.132062 274.94872 
L 109.824962 276.829117 
L 110.517208 262.547235 
L 111.209437 242.971494 
L 111.901674 214.979828 
L 113.285912 146.184261 
L 114.670387 97.74005 
L 115.361972 87.419202 
L 116.054209 97.248437 
L 116.746446 115.556308 
L 117.438683 139.61992 
L 118.823151 201.101068 
L 119.515395 225.004278 
L 120.899869 251.293664 
L 121.594579 256.223941 
L 122.286816 241.623367 
L 122.97906 209.440658 
L 125.056146 94.658453 
L 125.748383 74.506766 
L 126.44062 77.678344 
L 127.129632 96.803925 
L 127.82187 122.016107 
L 129.89967 226.257073 
L 130.591908 251.127246 
L 131.284145 265.479991 
L 131.976389 253.954573 
L 132.670814 236.955902 
L 133.363058 214.662925 
L 134.747532 152.410239 
L 136.822277 92.644999 
L 137.514514 86.317531 
L 138.204709 94.600186 
L 139.589184 126.014178 
L 140.281421 154.376838 
L 141.668336 230.941834 
L 142.360573 265.058847 
L 143.05281 282.595931 
L 143.744756 278.69551 
L 144.436993 256.110321 
L 145.129236 217.273456 
L 145.821474 172.065971 
L 146.511257 135.654004 
L 147.203494 112.242666 
L 147.895731 101.18484 
L 148.588378 111.673665 
L 149.281455 145.26489 
L 150.665929 222.508497 
L 151.358166 254.082216 
L 152.05041 262.826717 
L 152.743731 253.820771 
L 153.435969 239.028461 
L 154.128206 212.04691 
L 155.510224 133.254808 
L 156.20247 102.037127 
L 156.894699 88.662044 
L 157.586944 93.748097 
L 158.279343 111.74787 
L 158.97158 151.584301 
L 159.663852 198.155782 
L 160.356055 235.664175 
L 161.051271 262.108836 
L 161.743508 273.585433 
L 162.435745 267.825013 
L 163.127989 245.842915 
L 163.818557 216.290465 
L 165.203032 136.807962 
L 165.895269 108.390248 
L 166.586145 102.517521 
L 167.278382 109.845712 
L 167.970626 128.921726 
L 170.048694 228.272182 
L 171.433168 260.108577 
L 172.125831 252.955738 
L 172.818048 232.284468 
L 173.510286 203.145947 
L 174.892987 123.419758 
L 175.585225 97.044868 
L 176.277462 86.384001 
L 176.969699 93.242672 
L 177.662487 117.729935 
L 178.354724 152.136034 
L 179.046962 196.839766 
L 179.739205 232.482831 
L 180.434067 258.933105 
L 181.126297 272.185596 
L 181.818534 260.002977 
L 183.200632 208.054982 
L 184.585113 124.482062 
L 185.2776 107.248235 
L 185.969588 105.629824 
L 186.661455 130.849705 
L 188.738167 260.781377 
M 191.509762 204.26211 
L 192.199235 161.357097 
L 192.891481 125.838943 
L 193.583718 106.095981 
L 194.275953 97.429626 
L 194.967935 110.246798 
L 195.660172 137.513218 
L 197.044646 220.197995 
L 197.738917 246.348046 
L 198.431154 251.27959 
L 199.123391 254.834527 
L 199.815628 244.238402 
L 200.508823 215.271432 
L 201.893304 139.170438 
L 202.585541 108.919074 
L 203.275538 87.286467 
L 203.967776 80.768053 
L 204.660013 90.962781 
L 205.35225 121.395851 
L 207.429146 232.457959 
L 208.121383 253.14864 
L 208.815873 257.323594 
L 209.50811 241.671763 
L 212.276099 132.827205 
L 212.968342 120.287227 
L 213.66058 120.573989 
L 214.351919 133.951976 
L 215.736393 191.956343 
L 217.120874 257.468805 
L 217.814995 270.107826 
L 218.507232 273.286758 
L 219.199469 258.031672 
L 219.891706 231.226396 
L 221.969824 126.141557 
L 222.661681 109.079664 
L 223.354881 107.050695 
L 224.047124 109.103711 
L 224.739362 114.692241 
L 225.431599 122.436164 
L 226.123329 140.890442 
L 228.200041 217.150657 
L 228.892598 240.7563 
L 229.584835 270.2236 
L 230.277072 283.90551 
L 230.96931 283.123151 
L 232.35419 264.771541 
L 233.046427 248.048306 
L 233.738664 222.612498 
L 235.126562 157.530051 
L 236.511036 99.378419 
L 237.205725 68.457 
L 237.897963 53.568 
L 238.5902 55.266602 
L 239.282437 76.558896 
L 239.966295 92.412061 
L 240.658539 103.026041 
L 242.043013 150.188583 
L 242.735331 183.212757 
L 244.119806 262.816767 
L 244.812043 285.806267 
L 245.504977 286.860577 
L 247.581686 247.140837 
L 248.274878 241.484135 
L 248.967115 227.933077 
L 250.351589 182.83436 
L 252.429009 101.105844 
L 253.81349 78.939203 
L 254.500718 78.699454 
L 255.192947 87.271156 
L 255.885192 97.444901 
L 256.577429 110.754351 
L 257.269926 139.650591 
L 258.6544 181.15647 
L 259.346637 194.423791 
L 260.040695 204.160526 
L 260.732932 215.542851 
L 262.117406 248.884377 
L 262.80931 259.020237 
L 263.501547 258.227264 
L 264.193784 252.121106 
L 264.886021 240.213357 
L 265.576308 216.111025 
L 266.268553 196.002315 
L 266.960791 184.593564 
L 268.344813 179.436331 
L 269.03705 175.81797 
L 269.729287 174.28468 
L 270.421524 163.85561 
L 271.116285 161.701829 
L 271.808522 167.250547 
L 272.500759 168.544783 
L 273.192996 162.07203 
L 273.886626 156.67174 
L 274.578864 164.615097 
M 279.422083 211.43981 
L 280.11432 213.125825 
L 280.806557 216.641893 
M 282.885262 185.701775 
L 283.576905 150.847095 
L 284.269143 131.412968 
L 284.961386 131.185161 
L 285.652297 140.300926 
M 287.036771 160.966314 
L 287.729008 176.487757 
M 291.190092 208.620712 
L 291.882329 221.690146 
M 297.420548 243.937766 
L 298.112785 257.288185 
L 298.805022 251.153641 
M 305.72952 203.657121 
L 306.421757 214.76298 
L 307.114493 223.773289 
L 307.804746 231.161951 
L 308.496983 222.733492 
L 309.18922 199.938676 
M 315.42021 229.827127 
L 316.112447 249.313684 
L 316.803859 261.317481 
L 317.496096 257.041587 
L 318.880571 202.634837 
M 320.961058 170.650292 
L 321.653295 171.854572 
M 323.034614 162.231128 
L 323.726858 156.16228 
L 325.112821 146.751379 
L 325.805058 152.129109 
L 326.497302 162.751026 
M 327.884744 214.318007 
L 328.576974 224.683534 
L 329.269218 226.191561 
L 330.653469 212.203425 
L 331.346218 207.705563 
L 332.037944 201.664478 
L 332.730181 193.197887 
L 333.422638 186.711342 
L 334.114875 168.219897 
L 334.807119 159.9473 
M 337.575094 206.899731 
L 338.267337 208.482976 
L 338.959426 202.661429 
L 339.651661 199.00409 
L 340.343899 192.003491 
L 341.036136 182.852573 
L 341.726718 181.316312 
L 342.418955 182.850321 
L 343.111192 183.055004 
L 343.803429 190.262482 
L 344.492933 193.415709 
L 345.18517 192.731122 
L 345.877414 193.569299 
L 346.569651 190.016712 
L 348.646226 161.146914 
M 351.414505 176.465974 
L 352.106742 186.836313 
L 353.491776 236.187247 
L 354.184019 245.546816 
L 354.87625 240.11979 
L 355.569124 213.827578 
M 358.33989 148.292334 
L 359.029714 145.551242 
L 359.721951 149.030447 
M 361.799274 168.541086 
L 362.491511 177.605684 
L 363.875985 216.108093 
M 365.952863 202.509278 
L 366.6451 192.320676 
L 367.338052 188.73456 
L 368.030296 192.204092 
L 368.722533 200.717587 
L 369.41477 205.490537 
L 370.107983 206.491782 
L 371.492457 180.557295 
M 372.877912 147.980599 
L 373.570157 150.247543 
L 374.262395 154.290012 
L 374.95463 156.410143 
M 377.032291 182.301942 
L 377.724534 191.436175 
M 380.492239 184.327325 
L 381.184476 165.035983 
M 382.568336 149.567876 
L 383.260573 155.204493 
L 383.952811 163.897367 
L 384.644637 170.503016 
L 385.336874 181.931856 
L 386.029111 188.079266 
L 386.721348 183.867205 
M 388.104412 169.128463 
L 388.796657 158.139945 
L 389.488894 153.422398 
L 390.179932 155.551356 
L 390.872169 164.178732 
L 391.564426 167.742983 
M 395.717867 164.564862 
L 396.410104 169.593155 
L 396.410104 169.593155 
" style="fill:none;stroke:#0000ff;stroke-linecap:square;"/>
   </g>
   <g id="line2d_133">
    <path clip-path="url(#pbe14773fa1)" d="M 275.271101 183.014099 
L 275.963338 197.547812 
L 276.655785 209.732593 
M 278.040266 219.145874 
L 278.732503 213.761148 
M 281.498794 217.048199 
L 282.192431 211.241099 
M 288.421904 183.59513 
L 289.114148 189.511294 
M 292.574566 223.021078 
L 293.961207 186.040624 
L 294.653451 171.360084 
L 295.345682 161.793673 
M 300.885099 176.271198 
L 301.577343 169.567338 
M 302.959621 172.74242 
L 303.651864 178.940979 
M 309.881458 177.608132 
L 310.575802 162.956995 
L 311.268039 158.868896 
L 311.960277 159.378053 
L 312.65252 169.651797 
L 313.343492 184.981401 
L 314.035729 193.339402 
L 314.727973 207.708764 
M 319.576584 183.038303 
L 320.268821 171.824146 
M 335.499356 165.384939 
L 336.882856 196.783821 
M 349.338463 150.588424 
L 350.0307 155.021073 
L 350.722267 169.607002 
M 356.26317 189.298203 
L 356.955416 170.834281 
L 357.647653 158.405437 
M 360.414189 155.70651 
L 361.106426 161.023989 
M 364.568397 221.568894 
L 365.260626 213.997119 
M 375.647823 165.106023 
L 376.34006 178.323809 
M 392.256643 176.738015 
L 392.948735 171.83483 
L 393.640972 163.324233 
L 394.333209 162.229822 
L 395.025447 164.317469 
M 397.102341 174.547996 
L 397.794578 178.135716 
L 398.487273 178.148937 
L 398.487273 178.148937 
" style="fill:none;stroke:#008000;stroke-linecap:square;"/>
   </g>
   <g id="patch_3">
    <path d="M 57.6 307.584 
L 57.6 41.472 
" style="fill:none;stroke:#000000;stroke-linecap:square;stroke-linejoin:miter;stroke-width:0.8;"/>
   </g>
   <g id="patch_4">
    <path d="M 414.72 307.584 
L 414.72 41.472 
" style="fill:none;stroke:#000000;stroke-linecap:square;stroke-linejoin:miter;stroke-width:0.8;"/>
   </g>
   <g id="patch_5">
    <path d="M 57.6 307.584 
L 414.72 307.584 
" style="fill:none;stroke:#000000;stroke-linecap:square;stroke-linejoin:miter;stroke-width:0.8;"/>
   </g>
   <g id="patch_6">
    <path d="M 57.6 41.472 
L 414.72 41.472 
" style="fill:none;stroke:#000000;stroke-linecap:square;stroke-linejoin:miter;stroke-width:0.8;"/>
   </g>
   <g id="text_15">
    <!-- Rel Gt Trans Y Plot -->
    <defs>
     <path d="M 44.390625 34.1875 
Q 47.5625 33.109375 50.5625 29.59375 
Q 53.5625 26.078125 56.59375 19.921875 
L 66.609375 0 
L 56 0 
L 46.6875 18.703125 
Q 43.0625 26.03125 39.671875 28.421875 
Q 36.28125 30.8125 30.421875 30.8125 
L 19.671875 30.8125 
L 19.671875 0 
L 9.8125 0 
L 9.8125 72.90625 
L 32.078125 72.90625 
Q 44.578125 72.90625 50.734375 67.671875 
Q 56.890625 62.453125 56.890625 51.90625 
Q 56.890625 45.015625 53.6875 40.46875 
Q 50.484375 35.9375 44.390625 34.1875 
z
M 19.671875 64.796875 
L 19.671875 38.921875 
L 32.078125 38.921875 
Q 39.203125 38.921875 42.84375 42.21875 
Q 46.484375 45.515625 46.484375 51.90625 
Q 46.484375 58.296875 42.84375 61.546875 
Q 39.203125 64.796875 32.078125 64.796875 
z
" id="DejaVuSans-52"/>
     <path d="M 9.421875 75.984375 
L 18.40625 75.984375 
L 18.40625 0 
L 9.421875 0 
z
" id="DejaVuSans-6c"/>
     <path d="M 59.515625 10.40625 
L 59.515625 29.984375 
L 43.40625 29.984375 
L 43.40625 38.09375 
L 69.28125 38.09375 
L 69.28125 6.78125 
Q 63.578125 2.734375 56.6875 0.65625 
Q 49.8125 -1.421875 42 -1.421875 
Q 24.90625 -1.421875 15.25 8.5625 
Q 5.609375 18.5625 5.609375 36.375 
Q 5.609375 54.25 15.25 64.234375 
Q 24.90625 74.21875 42 74.21875 
Q 49.125 74.21875 55.546875 72.453125 
Q 61.96875 70.703125 67.390625 67.28125 
L 67.390625 56.78125 
Q 61.921875 61.421875 55.765625 63.765625 
Q 49.609375 66.109375 42.828125 66.109375 
Q 29.4375 66.109375 22.71875 58.640625 
Q 16.015625 51.171875 16.015625 36.375 
Q 16.015625 21.625 22.71875 14.15625 
Q 29.4375 6.6875 42.828125 6.6875 
Q 48.046875 6.6875 52.140625 7.59375 
Q 56.25 8.5 59.515625 10.40625 
z
" id="DejaVuSans-47"/>
     <path d="M -0.296875 72.90625 
L 61.375 72.90625 
L 61.375 64.59375 
L 35.5 64.59375 
L 35.5 0 
L 25.59375 0 
L 25.59375 64.59375 
L -0.296875 64.59375 
z
" id="DejaVuSans-54"/>
     <path d="M -0.203125 72.90625 
L 10.40625 72.90625 
L 30.609375 42.921875 
L 50.6875 72.90625 
L 61.28125 72.90625 
L 35.5 34.71875 
L 35.5 0 
L 25.59375 0 
L 25.59375 34.71875 
z
" id="DejaVuSans-59"/>
     <path d="M 19.671875 64.796875 
L 19.671875 37.40625 
L 32.078125 37.40625 
Q 38.96875 37.40625 42.71875 40.96875 
Q 46.484375 44.53125 46.484375 51.125 
Q 46.484375 57.671875 42.71875 61.234375 
Q 38.96875 64.796875 32.078125 64.796875 
z
M 9.8125 72.90625 
L 32.078125 72.90625 
Q 44.34375 72.90625 50.609375 67.359375 
Q 56.890625 61.8125 56.890625 51.125 
Q 56.890625 40.328125 50.609375 34.8125 
Q 44.34375 29.296875 32.078125 29.296875 
L 19.671875 29.296875 
L 19.671875 0 
L 9.8125 0 
z
" id="DejaVuSans-50"/>
     <path d="M 30.609375 48.390625 
Q 23.390625 48.390625 19.1875 42.75 
Q 14.984375 37.109375 14.984375 27.296875 
Q 14.984375 17.484375 19.15625 11.84375 
Q 23.34375 6.203125 30.609375 6.203125 
Q 37.796875 6.203125 41.984375 11.859375 
Q 46.1875 17.53125 46.1875 27.296875 
Q 46.1875 37.015625 41.984375 42.703125 
Q 37.796875 48.390625 30.609375 48.390625 
z
M 30.609375 56 
Q 42.328125 56 49.015625 48.375 
Q 55.71875 40.765625 55.71875 27.296875 
Q 55.71875 13.875 49.015625 6.21875 
Q 42.328125 -1.421875 30.609375 -1.421875 
Q 18.84375 -1.421875 12.171875 6.21875 
Q 5.515625 13.875 5.515625 27.296875 
Q 5.515625 40.765625 12.171875 48.375 
Q 18.84375 56 30.609375 56 
z
" id="DejaVuSans-6f"/>
    </defs>
    <g transform="translate(180.31125 35.472)scale(0.12 -0.12)">
     <use xlink:href="#DejaVuSans-52"/>
     <use x="69.419922" xlink:href="#DejaVuSans-65"/>
     <use x="130.943359" xlink:href="#DejaVuSans-6c"/>
     <use x="158.726562" xlink:href="#DejaVuSans-20"/>
     <use x="190.513672" xlink:href="#DejaVuSans-47"/>
     <use x="268.003906" xlink:href="#DejaVuSans-74"/>
     <use x="307.212891" xlink:href="#DejaVuSans-20"/>
     <use x="339" xlink:href="#DejaVuSans-54"/>
     <use x="399.865234" xlink:href="#DejaVuSans-72"/>
     <use x="440.978516" xlink:href="#DejaVuSans-61"/>
     <use x="502.257812" xlink:href="#DejaVuSans-6e"/>
     <use x="565.636719" xlink:href="#DejaVuSans-73"/>
     <use x="617.736328" xlink:href="#DejaVuSans-20"/>
     <use x="649.523438" xlink:href="#DejaVuSans-59"/>
     <use x="710.607422" xlink:href="#DejaVuSans-20"/>
     <use x="742.394531" xlink:href="#DejaVuSans-50"/>
     <use x="802.697266" xlink:href="#DejaVuSans-6c"/>
     <use x="830.480469" xlink:href="#DejaVuSans-6f"/>
     <use x="891.662109" xlink:href="#DejaVuSans-74"/>
    </g>
   </g>
  </g>
 </g>
 <defs>
  <clipPath id="pbe14773fa1">
   <rect height="266.112" width="357.12" x="57.6" y="41.472"/>
  </clipPath>
 </defs>
</svg>
