<?xml version="1.0" encoding="utf-8" standalone="no"?>
<!DOCTYPE svg PUBLIC "-//W3C//DTD SVG 1.1//EN"
  "http://www.w3.org/Graphics/SVG/1.1/DTD/svg11.dtd">
<!-- Created with matplotlib (http://matplotlib.org/) -->
<svg height="345.6pt" version="1.1" viewBox="0 0 460.8 345.6" width="460.8pt" xmlns="http://www.w3.org/2000/svg" xmlns:xlink="http://www.w3.org/1999/xlink">
 <defs>
  <style type="text/css">
*{stroke-linecap:butt;stroke-linejoin:round;}
  </style>
 </defs>
 <g id="figure_1">
  <g id="patch_1">
   <path d="M 0 345.6 
L 460.8 345.6 
L 460.8 0 
L 0 0 
z
" style="fill:#ffffff;"/>
  </g>
  <g id="axes_1">
   <g id="patch_2">
    <path d="M 57.6 307.584 
L 414.72 307.584 
L 414.72 41.472 
L 57.6 41.472 
z
" style="fill:#ffffff;"/>
   </g>
   <g id="matplotlib.axis_1">
    <g id="xtick_1">
     <g id="line2d_1">
      <path clip-path="url(#pa959040fbd)" d="M 70.555248 307.584 
L 70.555248 41.472 
" style="fill:none;stroke:#b0b0b0;stroke-linecap:square;stroke-width:0.8;"/>
     </g>
     <g id="line2d_2">
      <defs>
       <path d="M 0 0 
L 0 3.5 
" id="me3fac026d1" style="stroke:#000000;stroke-width:0.8;"/>
      </defs>
      <g>
       <use style="stroke:#000000;stroke-width:0.8;" x="70.555248" xlink:href="#me3fac026d1" y="307.584"/>
      </g>
     </g>
     <g id="text_1">
      <!-- 0 -->
      <defs>
       <path d="M 31.78125 66.40625 
Q 24.171875 66.40625 20.328125 58.90625 
Q 16.5 51.421875 16.5 36.375 
Q 16.5 21.390625 20.328125 13.890625 
Q 24.171875 6.390625 31.78125 6.390625 
Q 39.453125 6.390625 43.28125 13.890625 
Q 47.125 21.390625 47.125 36.375 
Q 47.125 51.421875 43.28125 58.90625 
Q 39.453125 66.40625 31.78125 66.40625 
z
M 31.78125 74.21875 
Q 44.046875 74.21875 50.515625 64.515625 
Q 56.984375 54.828125 56.984375 36.375 
Q 56.984375 17.96875 50.515625 8.265625 
Q 44.046875 -1.421875 31.78125 -1.421875 
Q 19.53125 -1.421875 13.0625 8.265625 
Q 6.59375 17.96875 6.59375 36.375 
Q 6.59375 54.828125 13.0625 64.515625 
Q 19.53125 74.21875 31.78125 74.21875 
z
" id="DejaVuSans-30"/>
      </defs>
      <g transform="translate(67.373998 322.182437)scale(0.1 -0.1)">
       <use xlink:href="#DejaVuSans-30"/>
      </g>
     </g>
    </g>
    <g id="xtick_2">
     <g id="line2d_3">
      <path clip-path="url(#pa959040fbd)" d="M 139.776886 307.584 
L 139.776886 41.472 
" style="fill:none;stroke:#b0b0b0;stroke-linecap:square;stroke-width:0.8;"/>
     </g>
     <g id="line2d_4">
      <g>
       <use style="stroke:#000000;stroke-width:0.8;" x="139.776886" xlink:href="#me3fac026d1" y="307.584"/>
      </g>
     </g>
     <g id="text_2">
      <!-- 10 -->
      <defs>
       <path d="M 12.40625 8.296875 
L 28.515625 8.296875 
L 28.515625 63.921875 
L 10.984375 60.40625 
L 10.984375 69.390625 
L 28.421875 72.90625 
L 38.28125 72.90625 
L 38.28125 8.296875 
L 54.390625 8.296875 
L 54.390625 0 
L 12.40625 0 
z
" id="DejaVuSans-31"/>
      </defs>
      <g transform="translate(133.414386 322.182437)scale(0.1 -0.1)">
       <use xlink:href="#DejaVuSans-31"/>
       <use x="63.623047" xlink:href="#DejaVuSans-30"/>
      </g>
     </g>
    </g>
    <g id="xtick_3">
     <g id="line2d_5">
      <path clip-path="url(#pa959040fbd)" d="M 208.998523 307.584 
L 208.998523 41.472 
" style="fill:none;stroke:#b0b0b0;stroke-linecap:square;stroke-width:0.8;"/>
     </g>
     <g id="line2d_6">
      <g>
       <use style="stroke:#000000;stroke-width:0.8;" x="208.998523" xlink:href="#me3fac026d1" y="307.584"/>
      </g>
     </g>
     <g id="text_3">
      <!-- 20 -->
      <defs>
       <path d="M 19.1875 8.296875 
L 53.609375 8.296875 
L 53.609375 0 
L 7.328125 0 
L 7.328125 8.296875 
Q 12.9375 14.109375 22.625 23.890625 
Q 32.328125 33.6875 34.8125 36.53125 
Q 39.546875 41.84375 41.421875 45.53125 
Q 43.3125 49.21875 43.3125 52.78125 
Q 43.3125 58.59375 39.234375 62.25 
Q 35.15625 65.921875 28.609375 65.921875 
Q 23.96875 65.921875 18.8125 64.3125 
Q 13.671875 62.703125 7.8125 59.421875 
L 7.8125 69.390625 
Q 13.765625 71.78125 18.9375 73 
Q 24.125 74.21875 28.421875 74.21875 
Q 39.75 74.21875 46.484375 68.546875 
Q 53.21875 62.890625 53.21875 53.421875 
Q 53.21875 48.921875 51.53125 44.890625 
Q 49.859375 40.875 45.40625 35.40625 
Q 44.1875 33.984375 37.640625 27.21875 
Q 31.109375 20.453125 19.1875 8.296875 
z
" id="DejaVuSans-32"/>
      </defs>
      <g transform="translate(202.636023 322.182437)scale(0.1 -0.1)">
       <use xlink:href="#DejaVuSans-32"/>
       <use x="63.623047" xlink:href="#DejaVuSans-30"/>
      </g>
     </g>
    </g>
    <g id="xtick_4">
     <g id="line2d_7">
      <path clip-path="url(#pa959040fbd)" d="M 278.220161 307.584 
L 278.220161 41.472 
" style="fill:none;stroke:#b0b0b0;stroke-linecap:square;stroke-width:0.8;"/>
     </g>
     <g id="line2d_8">
      <g>
       <use style="stroke:#000000;stroke-width:0.8;" x="278.220161" xlink:href="#me3fac026d1" y="307.584"/>
      </g>
     </g>
     <g id="text_4">
      <!-- 30 -->
      <defs>
       <path d="M 40.578125 39.3125 
Q 47.65625 37.796875 51.625 33 
Q 55.609375 28.21875 55.609375 21.1875 
Q 55.609375 10.40625 48.1875 4.484375 
Q 40.765625 -1.421875 27.09375 -1.421875 
Q 22.515625 -1.421875 17.65625 -0.515625 
Q 12.796875 0.390625 7.625 2.203125 
L 7.625 11.71875 
Q 11.71875 9.328125 16.59375 8.109375 
Q 21.484375 6.890625 26.8125 6.890625 
Q 36.078125 6.890625 40.9375 10.546875 
Q 45.796875 14.203125 45.796875 21.1875 
Q 45.796875 27.640625 41.28125 31.265625 
Q 36.765625 34.90625 28.71875 34.90625 
L 20.21875 34.90625 
L 20.21875 43.015625 
L 29.109375 43.015625 
Q 36.375 43.015625 40.234375 45.921875 
Q 44.09375 48.828125 44.09375 54.296875 
Q 44.09375 59.90625 40.109375 62.90625 
Q 36.140625 65.921875 28.71875 65.921875 
Q 24.65625 65.921875 20.015625 65.03125 
Q 15.375 64.15625 9.8125 62.3125 
L 9.8125 71.09375 
Q 15.4375 72.65625 20.34375 73.4375 
Q 25.25 74.21875 29.59375 74.21875 
Q 40.828125 74.21875 47.359375 69.109375 
Q 53.90625 64.015625 53.90625 55.328125 
Q 53.90625 49.265625 50.4375 45.09375 
Q 46.96875 40.921875 40.578125 39.3125 
z
" id="DejaVuSans-33"/>
      </defs>
      <g transform="translate(271.857661 322.182437)scale(0.1 -0.1)">
       <use xlink:href="#DejaVuSans-33"/>
       <use x="63.623047" xlink:href="#DejaVuSans-30"/>
      </g>
     </g>
    </g>
    <g id="xtick_5">
     <g id="line2d_9">
      <path clip-path="url(#pa959040fbd)" d="M 347.441799 307.584 
L 347.441799 41.472 
" style="fill:none;stroke:#b0b0b0;stroke-linecap:square;stroke-width:0.8;"/>
     </g>
     <g id="line2d_10">
      <g>
       <use style="stroke:#000000;stroke-width:0.8;" x="347.441799" xlink:href="#me3fac026d1" y="307.584"/>
      </g>
     </g>
     <g id="text_5">
      <!-- 40 -->
      <defs>
       <path d="M 37.796875 64.3125 
L 12.890625 25.390625 
L 37.796875 25.390625 
z
M 35.203125 72.90625 
L 47.609375 72.90625 
L 47.609375 25.390625 
L 58.015625 25.390625 
L 58.015625 17.1875 
L 47.609375 17.1875 
L 47.609375 0 
L 37.796875 0 
L 37.796875 17.1875 
L 4.890625 17.1875 
L 4.890625 26.703125 
z
" id="DejaVuSans-34"/>
      </defs>
      <g transform="translate(341.079299 322.182437)scale(0.1 -0.1)">
       <use xlink:href="#DejaVuSans-34"/>
       <use x="63.623047" xlink:href="#DejaVuSans-30"/>
      </g>
     </g>
    </g>
    <g id="xtick_6">
     <g id="line2d_11">
      <path clip-path="url(#pa959040fbd)" d="M 84.399575 307.584 
L 84.399575 41.472 
" style="fill:none;stroke:#b0b0b0;stroke-linecap:square;stroke-width:0.8;"/>
     </g>
     <g id="line2d_12">
      <defs>
       <path d="M 0 0 
L 0 2 
" id="m0297442fb8" style="stroke:#000000;stroke-width:0.6;"/>
      </defs>
      <g>
       <use style="stroke:#000000;stroke-width:0.6;" x="84.399575" xlink:href="#m0297442fb8" y="307.584"/>
      </g>
     </g>
    </g>
    <g id="xtick_7">
     <g id="line2d_13">
      <path clip-path="url(#pa959040fbd)" d="M 98.243903 307.584 
L 98.243903 41.472 
" style="fill:none;stroke:#b0b0b0;stroke-linecap:square;stroke-width:0.8;"/>
     </g>
     <g id="line2d_14">
      <g>
       <use style="stroke:#000000;stroke-width:0.6;" x="98.243903" xlink:href="#m0297442fb8" y="307.584"/>
      </g>
     </g>
    </g>
    <g id="xtick_8">
     <g id="line2d_15">
      <path clip-path="url(#pa959040fbd)" d="M 112.08823 307.584 
L 112.08823 41.472 
" style="fill:none;stroke:#b0b0b0;stroke-linecap:square;stroke-width:0.8;"/>
     </g>
     <g id="line2d_16">
      <g>
       <use style="stroke:#000000;stroke-width:0.6;" x="112.08823" xlink:href="#m0297442fb8" y="307.584"/>
      </g>
     </g>
    </g>
    <g id="xtick_9">
     <g id="line2d_17">
      <path clip-path="url(#pa959040fbd)" d="M 125.932558 307.584 
L 125.932558 41.472 
" style="fill:none;stroke:#b0b0b0;stroke-linecap:square;stroke-width:0.8;"/>
     </g>
     <g id="line2d_18">
      <g>
       <use style="stroke:#000000;stroke-width:0.6;" x="125.932558" xlink:href="#m0297442fb8" y="307.584"/>
      </g>
     </g>
    </g>
    <g id="xtick_10">
     <g id="line2d_19">
      <path clip-path="url(#pa959040fbd)" d="M 153.621213 307.584 
L 153.621213 41.472 
" style="fill:none;stroke:#b0b0b0;stroke-linecap:square;stroke-width:0.8;"/>
     </g>
     <g id="line2d_20">
      <g>
       <use style="stroke:#000000;stroke-width:0.6;" x="153.621213" xlink:href="#m0297442fb8" y="307.584"/>
      </g>
     </g>
    </g>
    <g id="xtick_11">
     <g id="line2d_21">
      <path clip-path="url(#pa959040fbd)" d="M 167.465541 307.584 
L 167.465541 41.472 
" style="fill:none;stroke:#b0b0b0;stroke-linecap:square;stroke-width:0.8;"/>
     </g>
     <g id="line2d_22">
      <g>
       <use style="stroke:#000000;stroke-width:0.6;" x="167.465541" xlink:href="#m0297442fb8" y="307.584"/>
      </g>
     </g>
    </g>
    <g id="xtick_12">
     <g id="line2d_23">
      <path clip-path="url(#pa959040fbd)" d="M 181.309868 307.584 
L 181.309868 41.472 
" style="fill:none;stroke:#b0b0b0;stroke-linecap:square;stroke-width:0.8;"/>
     </g>
     <g id="line2d_24">
      <g>
       <use style="stroke:#000000;stroke-width:0.6;" x="181.309868" xlink:href="#m0297442fb8" y="307.584"/>
      </g>
     </g>
    </g>
    <g id="xtick_13">
     <g id="line2d_25">
      <path clip-path="url(#pa959040fbd)" d="M 195.154196 307.584 
L 195.154196 41.472 
" style="fill:none;stroke:#b0b0b0;stroke-linecap:square;stroke-width:0.8;"/>
     </g>
     <g id="line2d_26">
      <g>
       <use style="stroke:#000000;stroke-width:0.6;" x="195.154196" xlink:href="#m0297442fb8" y="307.584"/>
      </g>
     </g>
    </g>
    <g id="xtick_14">
     <g id="line2d_27">
      <path clip-path="url(#pa959040fbd)" d="M 222.842851 307.584 
L 222.842851 41.472 
" style="fill:none;stroke:#b0b0b0;stroke-linecap:square;stroke-width:0.8;"/>
     </g>
     <g id="line2d_28">
      <g>
       <use style="stroke:#000000;stroke-width:0.6;" x="222.842851" xlink:href="#m0297442fb8" y="307.584"/>
      </g>
     </g>
    </g>
    <g id="xtick_15">
     <g id="line2d_29">
      <path clip-path="url(#pa959040fbd)" d="M 236.687178 307.584 
L 236.687178 41.472 
" style="fill:none;stroke:#b0b0b0;stroke-linecap:square;stroke-width:0.8;"/>
     </g>
     <g id="line2d_30">
      <g>
       <use style="stroke:#000000;stroke-width:0.6;" x="236.687178" xlink:href="#m0297442fb8" y="307.584"/>
      </g>
     </g>
    </g>
    <g id="xtick_16">
     <g id="line2d_31">
      <path clip-path="url(#pa959040fbd)" d="M 250.531506 307.584 
L 250.531506 41.472 
" style="fill:none;stroke:#b0b0b0;stroke-linecap:square;stroke-width:0.8;"/>
     </g>
     <g id="line2d_32">
      <g>
       <use style="stroke:#000000;stroke-width:0.6;" x="250.531506" xlink:href="#m0297442fb8" y="307.584"/>
      </g>
     </g>
    </g>
    <g id="xtick_17">
     <g id="line2d_33">
      <path clip-path="url(#pa959040fbd)" d="M 264.375834 307.584 
L 264.375834 41.472 
" style="fill:none;stroke:#b0b0b0;stroke-linecap:square;stroke-width:0.8;"/>
     </g>
     <g id="line2d_34">
      <g>
       <use style="stroke:#000000;stroke-width:0.6;" x="264.375834" xlink:href="#m0297442fb8" y="307.584"/>
      </g>
     </g>
    </g>
    <g id="xtick_18">
     <g id="line2d_35">
      <path clip-path="url(#pa959040fbd)" d="M 292.064489 307.584 
L 292.064489 41.472 
" style="fill:none;stroke:#b0b0b0;stroke-linecap:square;stroke-width:0.8;"/>
     </g>
     <g id="line2d_36">
      <g>
       <use style="stroke:#000000;stroke-width:0.6;" x="292.064489" xlink:href="#m0297442fb8" y="307.584"/>
      </g>
     </g>
    </g>
    <g id="xtick_19">
     <g id="line2d_37">
      <path clip-path="url(#pa959040fbd)" d="M 305.908816 307.584 
L 305.908816 41.472 
" style="fill:none;stroke:#b0b0b0;stroke-linecap:square;stroke-width:0.8;"/>
     </g>
     <g id="line2d_38">
      <g>
       <use style="stroke:#000000;stroke-width:0.6;" x="305.908816" xlink:href="#m0297442fb8" y="307.584"/>
      </g>
     </g>
    </g>
    <g id="xtick_20">
     <g id="line2d_39">
      <path clip-path="url(#pa959040fbd)" d="M 319.753144 307.584 
L 319.753144 41.472 
" style="fill:none;stroke:#b0b0b0;stroke-linecap:square;stroke-width:0.8;"/>
     </g>
     <g id="line2d_40">
      <g>
       <use style="stroke:#000000;stroke-width:0.6;" x="319.753144" xlink:href="#m0297442fb8" y="307.584"/>
      </g>
     </g>
    </g>
    <g id="xtick_21">
     <g id="line2d_41">
      <path clip-path="url(#pa959040fbd)" d="M 333.597471 307.584 
L 333.597471 41.472 
" style="fill:none;stroke:#b0b0b0;stroke-linecap:square;stroke-width:0.8;"/>
     </g>
     <g id="line2d_42">
      <g>
       <use style="stroke:#000000;stroke-width:0.6;" x="333.597471" xlink:href="#m0297442fb8" y="307.584"/>
      </g>
     </g>
    </g>
    <g id="xtick_22">
     <g id="line2d_43">
      <path clip-path="url(#pa959040fbd)" d="M 361.286127 307.584 
L 361.286127 41.472 
" style="fill:none;stroke:#b0b0b0;stroke-linecap:square;stroke-width:0.8;"/>
     </g>
     <g id="line2d_44">
      <g>
       <use style="stroke:#000000;stroke-width:0.6;" x="361.286127" xlink:href="#m0297442fb8" y="307.584"/>
      </g>
     </g>
    </g>
    <g id="xtick_23">
     <g id="line2d_45">
      <path clip-path="url(#pa959040fbd)" d="M 375.130454 307.584 
L 375.130454 41.472 
" style="fill:none;stroke:#b0b0b0;stroke-linecap:square;stroke-width:0.8;"/>
     </g>
     <g id="line2d_46">
      <g>
       <use style="stroke:#000000;stroke-width:0.6;" x="375.130454" xlink:href="#m0297442fb8" y="307.584"/>
      </g>
     </g>
    </g>
    <g id="xtick_24">
     <g id="line2d_47">
      <path clip-path="url(#pa959040fbd)" d="M 388.974782 307.584 
L 388.974782 41.472 
" style="fill:none;stroke:#b0b0b0;stroke-linecap:square;stroke-width:0.8;"/>
     </g>
     <g id="line2d_48">
      <g>
       <use style="stroke:#000000;stroke-width:0.6;" x="388.974782" xlink:href="#m0297442fb8" y="307.584"/>
      </g>
     </g>
    </g>
    <g id="xtick_25">
     <g id="line2d_49">
      <path clip-path="url(#pa959040fbd)" d="M 402.819109 307.584 
L 402.819109 41.472 
" style="fill:none;stroke:#b0b0b0;stroke-linecap:square;stroke-width:0.8;"/>
     </g>
     <g id="line2d_50">
      <g>
       <use style="stroke:#000000;stroke-width:0.6;" x="402.819109" xlink:href="#m0297442fb8" y="307.584"/>
      </g>
     </g>
    </g>
    <g id="text_6">
     <!-- frame # [] -->
     <defs>
      <path d="M 37.109375 75.984375 
L 37.109375 68.5 
L 28.515625 68.5 
Q 23.6875 68.5 21.796875 66.546875 
Q 19.921875 64.59375 19.921875 59.515625 
L 19.921875 54.6875 
L 34.71875 54.6875 
L 34.71875 47.703125 
L 19.921875 47.703125 
L 19.921875 0 
L 10.890625 0 
L 10.890625 47.703125 
L 2.296875 47.703125 
L 2.296875 54.6875 
L 10.890625 54.6875 
L 10.890625 58.5 
Q 10.890625 67.625 15.140625 71.796875 
Q 19.390625 75.984375 28.609375 75.984375 
z
" id="DejaVuSans-66"/>
      <path d="M 41.109375 46.296875 
Q 39.59375 47.171875 37.8125 47.578125 
Q 36.03125 48 33.890625 48 
Q 26.265625 48 22.1875 43.046875 
Q 18.109375 38.09375 18.109375 28.8125 
L 18.109375 0 
L 9.078125 0 
L 9.078125 54.6875 
L 18.109375 54.6875 
L 18.109375 46.1875 
Q 20.953125 51.171875 25.484375 53.578125 
Q 30.03125 56 36.53125 56 
Q 37.453125 56 38.578125 55.875 
Q 39.703125 55.765625 41.0625 55.515625 
z
" id="DejaVuSans-72"/>
      <path d="M 34.28125 27.484375 
Q 23.390625 27.484375 19.1875 25 
Q 14.984375 22.515625 14.984375 16.5 
Q 14.984375 11.71875 18.140625 8.90625 
Q 21.296875 6.109375 26.703125 6.109375 
Q 34.1875 6.109375 38.703125 11.40625 
Q 43.21875 16.703125 43.21875 25.484375 
L 43.21875 27.484375 
z
M 52.203125 31.203125 
L 52.203125 0 
L 43.21875 0 
L 43.21875 8.296875 
Q 40.140625 3.328125 35.546875 0.953125 
Q 30.953125 -1.421875 24.3125 -1.421875 
Q 15.921875 -1.421875 10.953125 3.296875 
Q 6 8.015625 6 15.921875 
Q 6 25.140625 12.171875 29.828125 
Q 18.359375 34.515625 30.609375 34.515625 
L 43.21875 34.515625 
L 43.21875 35.40625 
Q 43.21875 41.609375 39.140625 45 
Q 35.0625 48.390625 27.6875 48.390625 
Q 23 48.390625 18.546875 47.265625 
Q 14.109375 46.140625 10.015625 43.890625 
L 10.015625 52.203125 
Q 14.9375 54.109375 19.578125 55.046875 
Q 24.21875 56 28.609375 56 
Q 40.484375 56 46.34375 49.84375 
Q 52.203125 43.703125 52.203125 31.203125 
z
" id="DejaVuSans-61"/>
      <path d="M 52 44.1875 
Q 55.375 50.25 60.0625 53.125 
Q 64.75 56 71.09375 56 
Q 79.640625 56 84.28125 50.015625 
Q 88.921875 44.046875 88.921875 33.015625 
L 88.921875 0 
L 79.890625 0 
L 79.890625 32.71875 
Q 79.890625 40.578125 77.09375 44.375 
Q 74.3125 48.1875 68.609375 48.1875 
Q 61.625 48.1875 57.5625 43.546875 
Q 53.515625 38.921875 53.515625 30.90625 
L 53.515625 0 
L 44.484375 0 
L 44.484375 32.71875 
Q 44.484375 40.625 41.703125 44.40625 
Q 38.921875 48.1875 33.109375 48.1875 
Q 26.21875 48.1875 22.15625 43.53125 
Q 18.109375 38.875 18.109375 30.90625 
L 18.109375 0 
L 9.078125 0 
L 9.078125 54.6875 
L 18.109375 54.6875 
L 18.109375 46.1875 
Q 21.1875 51.21875 25.484375 53.609375 
Q 29.78125 56 35.6875 56 
Q 41.65625 56 45.828125 52.96875 
Q 50 49.953125 52 44.1875 
z
" id="DejaVuSans-6d"/>
      <path d="M 56.203125 29.59375 
L 56.203125 25.203125 
L 14.890625 25.203125 
Q 15.484375 15.921875 20.484375 11.0625 
Q 25.484375 6.203125 34.421875 6.203125 
Q 39.59375 6.203125 44.453125 7.46875 
Q 49.3125 8.734375 54.109375 11.28125 
L 54.109375 2.78125 
Q 49.265625 0.734375 44.1875 -0.34375 
Q 39.109375 -1.421875 33.890625 -1.421875 
Q 20.796875 -1.421875 13.15625 6.1875 
Q 5.515625 13.8125 5.515625 26.8125 
Q 5.515625 40.234375 12.765625 48.109375 
Q 20.015625 56 32.328125 56 
Q 43.359375 56 49.78125 48.890625 
Q 56.203125 41.796875 56.203125 29.59375 
z
M 47.21875 32.234375 
Q 47.125 39.59375 43.09375 43.984375 
Q 39.0625 48.390625 32.421875 48.390625 
Q 24.90625 48.390625 20.390625 44.140625 
Q 15.875 39.890625 15.1875 32.171875 
z
" id="DejaVuSans-65"/>
      <path id="DejaVuSans-20"/>
      <path d="M 51.125 44 
L 36.921875 44 
L 32.8125 27.6875 
L 47.125 27.6875 
z
M 43.796875 71.78125 
L 38.71875 51.515625 
L 52.984375 51.515625 
L 58.109375 71.78125 
L 65.921875 71.78125 
L 60.890625 51.515625 
L 76.125 51.515625 
L 76.125 44 
L 58.984375 44 
L 54.984375 27.6875 
L 70.515625 27.6875 
L 70.515625 20.21875 
L 53.078125 20.21875 
L 48 0 
L 40.1875 0 
L 45.21875 20.21875 
L 30.90625 20.21875 
L 25.875 0 
L 18.015625 0 
L 23.09375 20.21875 
L 7.71875 20.21875 
L 7.71875 27.6875 
L 24.90625 27.6875 
L 29 44 
L 13.28125 44 
L 13.28125 51.515625 
L 30.90625 51.515625 
L 35.890625 71.78125 
z
" id="DejaVuSans-23"/>
      <path d="M 8.59375 75.984375 
L 29.296875 75.984375 
L 29.296875 69 
L 17.578125 69 
L 17.578125 -6.203125 
L 29.296875 -6.203125 
L 29.296875 -13.1875 
L 8.59375 -13.1875 
z
" id="DejaVuSans-5b"/>
      <path d="M 30.421875 75.984375 
L 30.421875 -13.1875 
L 9.71875 -13.1875 
L 9.71875 -6.203125 
L 21.390625 -6.203125 
L 21.390625 69 
L 9.71875 69 
L 9.71875 75.984375 
z
" id="DejaVuSans-5d"/>
     </defs>
     <g transform="translate(210.063906 335.860562)scale(0.1 -0.1)">
      <use xlink:href="#DejaVuSans-66"/>
      <use x="35.205078" xlink:href="#DejaVuSans-72"/>
      <use x="76.318359" xlink:href="#DejaVuSans-61"/>
      <use x="137.597656" xlink:href="#DejaVuSans-6d"/>
      <use x="235.009766" xlink:href="#DejaVuSans-65"/>
      <use x="296.533203" xlink:href="#DejaVuSans-20"/>
      <use x="328.320312" xlink:href="#DejaVuSans-23"/>
      <use x="412.109375" xlink:href="#DejaVuSans-20"/>
      <use x="443.896484" xlink:href="#DejaVuSans-5b"/>
      <use x="482.910156" xlink:href="#DejaVuSans-5d"/>
     </g>
    </g>
   </g>
   <g id="matplotlib.axis_2">
    <g id="ytick_1">
     <g id="line2d_51">
      <path clip-path="url(#pa959040fbd)" d="M 57.6 277.199429 
L 414.72 277.199429 
" style="fill:none;stroke:#b0b0b0;stroke-linecap:square;stroke-width:0.8;"/>
     </g>
     <g id="line2d_52">
      <defs>
       <path d="M 0 0 
L -3.5 0 
" id="m2d68ef6701" style="stroke:#000000;stroke-width:0.8;"/>
      </defs>
      <g>
       <use style="stroke:#000000;stroke-width:0.8;" x="57.6" xlink:href="#m2d68ef6701" y="277.199429"/>
      </g>
     </g>
     <g id="text_7">
      <!-- −0.3 -->
      <defs>
       <path d="M 10.59375 35.5 
L 73.1875 35.5 
L 73.1875 27.203125 
L 10.59375 27.203125 
z
" id="DejaVuSans-2212"/>
       <path d="M 10.6875 12.40625 
L 21 12.40625 
L 21 0 
L 10.6875 0 
z
" id="DejaVuSans-2e"/>
      </defs>
      <g transform="translate(26.317187 280.998648)scale(0.1 -0.1)">
       <use xlink:href="#DejaVuSans-2212"/>
       <use x="83.789062" xlink:href="#DejaVuSans-30"/>
       <use x="147.412109" xlink:href="#DejaVuSans-2e"/>
       <use x="179.199219" xlink:href="#DejaVuSans-33"/>
      </g>
     </g>
    </g>
    <g id="ytick_2">
     <g id="line2d_53">
      <path clip-path="url(#pa959040fbd)" d="M 57.6 241.70165 
L 414.72 241.70165 
" style="fill:none;stroke:#b0b0b0;stroke-linecap:square;stroke-width:0.8;"/>
     </g>
     <g id="line2d_54">
      <g>
       <use style="stroke:#000000;stroke-width:0.8;" x="57.6" xlink:href="#m2d68ef6701" y="241.70165"/>
      </g>
     </g>
     <g id="text_8">
      <!-- −0.2 -->
      <g transform="translate(26.317187 245.500869)scale(0.1 -0.1)">
       <use xlink:href="#DejaVuSans-2212"/>
       <use x="83.789062" xlink:href="#DejaVuSans-30"/>
       <use x="147.412109" xlink:href="#DejaVuSans-2e"/>
       <use x="179.199219" xlink:href="#DejaVuSans-32"/>
      </g>
     </g>
    </g>
    <g id="ytick_3">
     <g id="line2d_55">
      <path clip-path="url(#pa959040fbd)" d="M 57.6 206.203872 
L 414.72 206.203872 
" style="fill:none;stroke:#b0b0b0;stroke-linecap:square;stroke-width:0.8;"/>
     </g>
     <g id="line2d_56">
      <g>
       <use style="stroke:#000000;stroke-width:0.8;" x="57.6" xlink:href="#m2d68ef6701" y="206.203872"/>
      </g>
     </g>
     <g id="text_9">
      <!-- −0.1 -->
      <g transform="translate(26.317187 210.00309)scale(0.1 -0.1)">
       <use xlink:href="#DejaVuSans-2212"/>
       <use x="83.789062" xlink:href="#DejaVuSans-30"/>
       <use x="147.412109" xlink:href="#DejaVuSans-2e"/>
       <use x="179.199219" xlink:href="#DejaVuSans-31"/>
      </g>
     </g>
    </g>
    <g id="ytick_4">
     <g id="line2d_57">
      <path clip-path="url(#pa959040fbd)" d="M 57.6 170.706093 
L 414.72 170.706093 
" style="fill:none;stroke:#b0b0b0;stroke-linecap:square;stroke-width:0.8;"/>
     </g>
     <g id="line2d_58">
      <g>
       <use style="stroke:#000000;stroke-width:0.8;" x="57.6" xlink:href="#m2d68ef6701" y="170.706093"/>
      </g>
     </g>
     <g id="text_10">
      <!-- 0.0 -->
      <g transform="translate(34.696875 174.505311)scale(0.1 -0.1)">
       <use xlink:href="#DejaVuSans-30"/>
       <use x="63.623047" xlink:href="#DejaVuSans-2e"/>
       <use x="95.410156" xlink:href="#DejaVuSans-30"/>
      </g>
     </g>
    </g>
    <g id="ytick_5">
     <g id="line2d_59">
      <path clip-path="url(#pa959040fbd)" d="M 57.6 135.208314 
L 414.72 135.208314 
" style="fill:none;stroke:#b0b0b0;stroke-linecap:square;stroke-width:0.8;"/>
     </g>
     <g id="line2d_60">
      <g>
       <use style="stroke:#000000;stroke-width:0.8;" x="57.6" xlink:href="#m2d68ef6701" y="135.208314"/>
      </g>
     </g>
     <g id="text_11">
      <!-- 0.1 -->
      <g transform="translate(34.696875 139.007533)scale(0.1 -0.1)">
       <use xlink:href="#DejaVuSans-30"/>
       <use x="63.623047" xlink:href="#DejaVuSans-2e"/>
       <use x="95.410156" xlink:href="#DejaVuSans-31"/>
      </g>
     </g>
    </g>
    <g id="ytick_6">
     <g id="line2d_61">
      <path clip-path="url(#pa959040fbd)" d="M 57.6 99.710535 
L 414.72 99.710535 
" style="fill:none;stroke:#b0b0b0;stroke-linecap:square;stroke-width:0.8;"/>
     </g>
     <g id="line2d_62">
      <g>
       <use style="stroke:#000000;stroke-width:0.8;" x="57.6" xlink:href="#m2d68ef6701" y="99.710535"/>
      </g>
     </g>
     <g id="text_12">
      <!-- 0.2 -->
      <g transform="translate(34.696875 103.509754)scale(0.1 -0.1)">
       <use xlink:href="#DejaVuSans-30"/>
       <use x="63.623047" xlink:href="#DejaVuSans-2e"/>
       <use x="95.410156" xlink:href="#DejaVuSans-32"/>
      </g>
     </g>
    </g>
    <g id="ytick_7">
     <g id="line2d_63">
      <path clip-path="url(#pa959040fbd)" d="M 57.6 64.212756 
L 414.72 64.212756 
" style="fill:none;stroke:#b0b0b0;stroke-linecap:square;stroke-width:0.8;"/>
     </g>
     <g id="line2d_64">
      <g>
       <use style="stroke:#000000;stroke-width:0.8;" x="57.6" xlink:href="#m2d68ef6701" y="64.212756"/>
      </g>
     </g>
     <g id="text_13">
      <!-- 0.3 -->
      <g transform="translate(34.696875 68.011975)scale(0.1 -0.1)">
       <use xlink:href="#DejaVuSans-30"/>
       <use x="63.623047" xlink:href="#DejaVuSans-2e"/>
       <use x="95.410156" xlink:href="#DejaVuSans-33"/>
      </g>
     </g>
    </g>
    <g id="ytick_8">
     <g id="line2d_65">
      <path clip-path="url(#pa959040fbd)" d="M 57.6 305.597652 
L 414.72 305.597652 
" style="fill:none;stroke:#b0b0b0;stroke-linecap:square;stroke-width:0.8;"/>
     </g>
     <g id="line2d_66">
      <defs>
       <path d="M 0 0 
L -2 0 
" id="m43c6e5f6ff" style="stroke:#000000;stroke-width:0.6;"/>
      </defs>
      <g>
       <use style="stroke:#000000;stroke-width:0.6;" x="57.6" xlink:href="#m43c6e5f6ff" y="305.597652"/>
      </g>
     </g>
    </g>
    <g id="ytick_9">
     <g id="line2d_67">
      <path clip-path="url(#pa959040fbd)" d="M 57.6 298.498097 
L 414.72 298.498097 
" style="fill:none;stroke:#b0b0b0;stroke-linecap:square;stroke-width:0.8;"/>
     </g>
     <g id="line2d_68">
      <g>
       <use style="stroke:#000000;stroke-width:0.6;" x="57.6" xlink:href="#m43c6e5f6ff" y="298.498097"/>
      </g>
     </g>
    </g>
    <g id="ytick_10">
     <g id="line2d_69">
      <path clip-path="url(#pa959040fbd)" d="M 57.6 291.398541 
L 414.72 291.398541 
" style="fill:none;stroke:#b0b0b0;stroke-linecap:square;stroke-width:0.8;"/>
     </g>
     <g id="line2d_70">
      <g>
       <use style="stroke:#000000;stroke-width:0.6;" x="57.6" xlink:href="#m43c6e5f6ff" y="291.398541"/>
      </g>
     </g>
    </g>
    <g id="ytick_11">
     <g id="line2d_71">
      <path clip-path="url(#pa959040fbd)" d="M 57.6 284.298985 
L 414.72 284.298985 
" style="fill:none;stroke:#b0b0b0;stroke-linecap:square;stroke-width:0.8;"/>
     </g>
     <g id="line2d_72">
      <g>
       <use style="stroke:#000000;stroke-width:0.6;" x="57.6" xlink:href="#m43c6e5f6ff" y="284.298985"/>
      </g>
     </g>
    </g>
    <g id="ytick_12">
     <g id="line2d_73">
      <path clip-path="url(#pa959040fbd)" d="M 57.6 270.099874 
L 414.72 270.099874 
" style="fill:none;stroke:#b0b0b0;stroke-linecap:square;stroke-width:0.8;"/>
     </g>
     <g id="line2d_74">
      <g>
       <use style="stroke:#000000;stroke-width:0.6;" x="57.6" xlink:href="#m43c6e5f6ff" y="270.099874"/>
      </g>
     </g>
    </g>
    <g id="ytick_13">
     <g id="line2d_75">
      <path clip-path="url(#pa959040fbd)" d="M 57.6 263.000318 
L 414.72 263.000318 
" style="fill:none;stroke:#b0b0b0;stroke-linecap:square;stroke-width:0.8;"/>
     </g>
     <g id="line2d_76">
      <g>
       <use style="stroke:#000000;stroke-width:0.6;" x="57.6" xlink:href="#m43c6e5f6ff" y="263.000318"/>
      </g>
     </g>
    </g>
    <g id="ytick_14">
     <g id="line2d_77">
      <path clip-path="url(#pa959040fbd)" d="M 57.6 255.900762 
L 414.72 255.900762 
" style="fill:none;stroke:#b0b0b0;stroke-linecap:square;stroke-width:0.8;"/>
     </g>
     <g id="line2d_78">
      <g>
       <use style="stroke:#000000;stroke-width:0.6;" x="57.6" xlink:href="#m43c6e5f6ff" y="255.900762"/>
      </g>
     </g>
    </g>
    <g id="ytick_15">
     <g id="line2d_79">
      <path clip-path="url(#pa959040fbd)" d="M 57.6 248.801206 
L 414.72 248.801206 
" style="fill:none;stroke:#b0b0b0;stroke-linecap:square;stroke-width:0.8;"/>
     </g>
     <g id="line2d_80">
      <g>
       <use style="stroke:#000000;stroke-width:0.6;" x="57.6" xlink:href="#m43c6e5f6ff" y="248.801206"/>
      </g>
     </g>
    </g>
    <g id="ytick_16">
     <g id="line2d_81">
      <path clip-path="url(#pa959040fbd)" d="M 57.6 234.602095 
L 414.72 234.602095 
" style="fill:none;stroke:#b0b0b0;stroke-linecap:square;stroke-width:0.8;"/>
     </g>
     <g id="line2d_82">
      <g>
       <use style="stroke:#000000;stroke-width:0.6;" x="57.6" xlink:href="#m43c6e5f6ff" y="234.602095"/>
      </g>
     </g>
    </g>
    <g id="ytick_17">
     <g id="line2d_83">
      <path clip-path="url(#pa959040fbd)" d="M 57.6 227.502539 
L 414.72 227.502539 
" style="fill:none;stroke:#b0b0b0;stroke-linecap:square;stroke-width:0.8;"/>
     </g>
     <g id="line2d_84">
      <g>
       <use style="stroke:#000000;stroke-width:0.6;" x="57.6" xlink:href="#m43c6e5f6ff" y="227.502539"/>
      </g>
     </g>
    </g>
    <g id="ytick_18">
     <g id="line2d_85">
      <path clip-path="url(#pa959040fbd)" d="M 57.6 220.402983 
L 414.72 220.402983 
" style="fill:none;stroke:#b0b0b0;stroke-linecap:square;stroke-width:0.8;"/>
     </g>
     <g id="line2d_86">
      <g>
       <use style="stroke:#000000;stroke-width:0.6;" x="57.6" xlink:href="#m43c6e5f6ff" y="220.402983"/>
      </g>
     </g>
    </g>
    <g id="ytick_19">
     <g id="line2d_87">
      <path clip-path="url(#pa959040fbd)" d="M 57.6 213.303427 
L 414.72 213.303427 
" style="fill:none;stroke:#b0b0b0;stroke-linecap:square;stroke-width:0.8;"/>
     </g>
     <g id="line2d_88">
      <g>
       <use style="stroke:#000000;stroke-width:0.6;" x="57.6" xlink:href="#m43c6e5f6ff" y="213.303427"/>
      </g>
     </g>
    </g>
    <g id="ytick_20">
     <g id="line2d_89">
      <path clip-path="url(#pa959040fbd)" d="M 57.6 199.104316 
L 414.72 199.104316 
" style="fill:none;stroke:#b0b0b0;stroke-linecap:square;stroke-width:0.8;"/>
     </g>
     <g id="line2d_90">
      <g>
       <use style="stroke:#000000;stroke-width:0.6;" x="57.6" xlink:href="#m43c6e5f6ff" y="199.104316"/>
      </g>
     </g>
    </g>
    <g id="ytick_21">
     <g id="line2d_91">
      <path clip-path="url(#pa959040fbd)" d="M 57.6 192.00476 
L 414.72 192.00476 
" style="fill:none;stroke:#b0b0b0;stroke-linecap:square;stroke-width:0.8;"/>
     </g>
     <g id="line2d_92">
      <g>
       <use style="stroke:#000000;stroke-width:0.6;" x="57.6" xlink:href="#m43c6e5f6ff" y="192.00476"/>
      </g>
     </g>
    </g>
    <g id="ytick_22">
     <g id="line2d_93">
      <path clip-path="url(#pa959040fbd)" d="M 57.6 184.905204 
L 414.72 184.905204 
" style="fill:none;stroke:#b0b0b0;stroke-linecap:square;stroke-width:0.8;"/>
     </g>
     <g id="line2d_94">
      <g>
       <use style="stroke:#000000;stroke-width:0.6;" x="57.6" xlink:href="#m43c6e5f6ff" y="184.905204"/>
      </g>
     </g>
    </g>
    <g id="ytick_23">
     <g id="line2d_95">
      <path clip-path="url(#pa959040fbd)" d="M 57.6 177.805648 
L 414.72 177.805648 
" style="fill:none;stroke:#b0b0b0;stroke-linecap:square;stroke-width:0.8;"/>
     </g>
     <g id="line2d_96">
      <g>
       <use style="stroke:#000000;stroke-width:0.6;" x="57.6" xlink:href="#m43c6e5f6ff" y="177.805648"/>
      </g>
     </g>
    </g>
    <g id="ytick_24">
     <g id="line2d_97">
      <path clip-path="url(#pa959040fbd)" d="M 57.6 163.606537 
L 414.72 163.606537 
" style="fill:none;stroke:#b0b0b0;stroke-linecap:square;stroke-width:0.8;"/>
     </g>
     <g id="line2d_98">
      <g>
       <use style="stroke:#000000;stroke-width:0.6;" x="57.6" xlink:href="#m43c6e5f6ff" y="163.606537"/>
      </g>
     </g>
    </g>
    <g id="ytick_25">
     <g id="line2d_99">
      <path clip-path="url(#pa959040fbd)" d="M 57.6 156.506981 
L 414.72 156.506981 
" style="fill:none;stroke:#b0b0b0;stroke-linecap:square;stroke-width:0.8;"/>
     </g>
     <g id="line2d_100">
      <g>
       <use style="stroke:#000000;stroke-width:0.6;" x="57.6" xlink:href="#m43c6e5f6ff" y="156.506981"/>
      </g>
     </g>
    </g>
    <g id="ytick_26">
     <g id="line2d_101">
      <path clip-path="url(#pa959040fbd)" d="M 57.6 149.407425 
L 414.72 149.407425 
" style="fill:none;stroke:#b0b0b0;stroke-linecap:square;stroke-width:0.8;"/>
     </g>
     <g id="line2d_102">
      <g>
       <use style="stroke:#000000;stroke-width:0.6;" x="57.6" xlink:href="#m43c6e5f6ff" y="149.407425"/>
      </g>
     </g>
    </g>
    <g id="ytick_27">
     <g id="line2d_103">
      <path clip-path="url(#pa959040fbd)" d="M 57.6 142.30787 
L 414.72 142.30787 
" style="fill:none;stroke:#b0b0b0;stroke-linecap:square;stroke-width:0.8;"/>
     </g>
     <g id="line2d_104">
      <g>
       <use style="stroke:#000000;stroke-width:0.6;" x="57.6" xlink:href="#m43c6e5f6ff" y="142.30787"/>
      </g>
     </g>
    </g>
    <g id="ytick_28">
     <g id="line2d_105">
      <path clip-path="url(#pa959040fbd)" d="M 57.6 128.108758 
L 414.72 128.108758 
" style="fill:none;stroke:#b0b0b0;stroke-linecap:square;stroke-width:0.8;"/>
     </g>
     <g id="line2d_106">
      <g>
       <use style="stroke:#000000;stroke-width:0.6;" x="57.6" xlink:href="#m43c6e5f6ff" y="128.108758"/>
      </g>
     </g>
    </g>
    <g id="ytick_29">
     <g id="line2d_107">
      <path clip-path="url(#pa959040fbd)" d="M 57.6 121.009202 
L 414.72 121.009202 
" style="fill:none;stroke:#b0b0b0;stroke-linecap:square;stroke-width:0.8;"/>
     </g>
     <g id="line2d_108">
      <g>
       <use style="stroke:#000000;stroke-width:0.6;" x="57.6" xlink:href="#m43c6e5f6ff" y="121.009202"/>
      </g>
     </g>
    </g>
    <g id="ytick_30">
     <g id="line2d_109">
      <path clip-path="url(#pa959040fbd)" d="M 57.6 113.909646 
L 414.72 113.909646 
" style="fill:none;stroke:#b0b0b0;stroke-linecap:square;stroke-width:0.8;"/>
     </g>
     <g id="line2d_110">
      <g>
       <use style="stroke:#000000;stroke-width:0.6;" x="57.6" xlink:href="#m43c6e5f6ff" y="113.909646"/>
      </g>
     </g>
    </g>
    <g id="ytick_31">
     <g id="line2d_111">
      <path clip-path="url(#pa959040fbd)" d="M 57.6 106.810091 
L 414.72 106.810091 
" style="fill:none;stroke:#b0b0b0;stroke-linecap:square;stroke-width:0.8;"/>
     </g>
     <g id="line2d_112">
      <g>
       <use style="stroke:#000000;stroke-width:0.6;" x="57.6" xlink:href="#m43c6e5f6ff" y="106.810091"/>
      </g>
     </g>
    </g>
    <g id="ytick_32">
     <g id="line2d_113">
      <path clip-path="url(#pa959040fbd)" d="M 57.6 92.610979 
L 414.72 92.610979 
" style="fill:none;stroke:#b0b0b0;stroke-linecap:square;stroke-width:0.8;"/>
     </g>
     <g id="line2d_114">
      <g>
       <use style="stroke:#000000;stroke-width:0.6;" x="57.6" xlink:href="#m43c6e5f6ff" y="92.610979"/>
      </g>
     </g>
    </g>
    <g id="ytick_33">
     <g id="line2d_115">
      <path clip-path="url(#pa959040fbd)" d="M 57.6 85.511423 
L 414.72 85.511423 
" style="fill:none;stroke:#b0b0b0;stroke-linecap:square;stroke-width:0.8;"/>
     </g>
     <g id="line2d_116">
      <g>
       <use style="stroke:#000000;stroke-width:0.6;" x="57.6" xlink:href="#m43c6e5f6ff" y="85.511423"/>
      </g>
     </g>
    </g>
    <g id="ytick_34">
     <g id="line2d_117">
      <path clip-path="url(#pa959040fbd)" d="M 57.6 78.411868 
L 414.72 78.411868 
" style="fill:none;stroke:#b0b0b0;stroke-linecap:square;stroke-width:0.8;"/>
     </g>
     <g id="line2d_118">
      <g>
       <use style="stroke:#000000;stroke-width:0.6;" x="57.6" xlink:href="#m43c6e5f6ff" y="78.411868"/>
      </g>
     </g>
    </g>
    <g id="ytick_35">
     <g id="line2d_119">
      <path clip-path="url(#pa959040fbd)" d="M 57.6 71.312312 
L 414.72 71.312312 
" style="fill:none;stroke:#b0b0b0;stroke-linecap:square;stroke-width:0.8;"/>
     </g>
     <g id="line2d_120">
      <g>
       <use style="stroke:#000000;stroke-width:0.6;" x="57.6" xlink:href="#m43c6e5f6ff" y="71.312312"/>
      </g>
     </g>
    </g>
    <g id="ytick_36">
     <g id="line2d_121">
      <path clip-path="url(#pa959040fbd)" d="M 57.6 57.1132 
L 414.72 57.1132 
" style="fill:none;stroke:#b0b0b0;stroke-linecap:square;stroke-width:0.8;"/>
     </g>
     <g id="line2d_122">
      <g>
       <use style="stroke:#000000;stroke-width:0.6;" x="57.6" xlink:href="#m43c6e5f6ff" y="57.1132"/>
      </g>
     </g>
    </g>
    <g id="ytick_37">
     <g id="line2d_123">
      <path clip-path="url(#pa959040fbd)" d="M 57.6 50.013644 
L 414.72 50.013644 
" style="fill:none;stroke:#b0b0b0;stroke-linecap:square;stroke-width:0.8;"/>
     </g>
     <g id="line2d_124">
      <g>
       <use style="stroke:#000000;stroke-width:0.6;" x="57.6" xlink:href="#m43c6e5f6ff" y="50.013644"/>
      </g>
     </g>
    </g>
    <g id="ytick_38">
     <g id="line2d_125">
      <path clip-path="url(#pa959040fbd)" d="M 57.6 42.914089 
L 414.72 42.914089 
" style="fill:none;stroke:#b0b0b0;stroke-linecap:square;stroke-width:0.8;"/>
     </g>
     <g id="line2d_126">
      <g>
       <use style="stroke:#000000;stroke-width:0.6;" x="57.6" xlink:href="#m43c6e5f6ff" y="42.914089"/>
      </g>
     </g>
    </g>
    <g id="text_14">
     <!-- rot y -->
     <defs>
      <path d="M 30.609375 48.390625 
Q 23.390625 48.390625 19.1875 42.75 
Q 14.984375 37.109375 14.984375 27.296875 
Q 14.984375 17.484375 19.15625 11.84375 
Q 23.34375 6.203125 30.609375 6.203125 
Q 37.796875 6.203125 41.984375 11.859375 
Q 46.1875 17.53125 46.1875 27.296875 
Q 46.1875 37.015625 41.984375 42.703125 
Q 37.796875 48.390625 30.609375 48.390625 
z
M 30.609375 56 
Q 42.328125 56 49.015625 48.375 
Q 55.71875 40.765625 55.71875 27.296875 
Q 55.71875 13.875 49.015625 6.21875 
Q 42.328125 -1.421875 30.609375 -1.421875 
Q 18.84375 -1.421875 12.171875 6.21875 
Q 5.515625 13.875 5.515625 27.296875 
Q 5.515625 40.765625 12.171875 48.375 
Q 18.84375 56 30.609375 56 
z
" id="DejaVuSans-6f"/>
      <path d="M 18.3125 70.21875 
L 18.3125 54.6875 
L 36.8125 54.6875 
L 36.8125 47.703125 
L 18.3125 47.703125 
L 18.3125 18.015625 
Q 18.3125 11.328125 20.140625 9.421875 
Q 21.96875 7.515625 27.59375 7.515625 
L 36.8125 7.515625 
L 36.8125 0 
L 27.59375 0 
Q 17.1875 0 13.234375 3.875 
Q 9.28125 7.765625 9.28125 18.015625 
L 9.28125 47.703125 
L 2.6875 47.703125 
L 2.6875 54.6875 
L 9.28125 54.6875 
L 9.28125 70.21875 
z
" id="DejaVuSans-74"/>
      <path d="M 32.171875 -5.078125 
Q 28.375 -14.84375 24.75 -17.8125 
Q 21.140625 -20.796875 15.09375 -20.796875 
L 7.90625 -20.796875 
L 7.90625 -13.28125 
L 13.1875 -13.28125 
Q 16.890625 -13.28125 18.9375 -11.515625 
Q 21 -9.765625 23.484375 -3.21875 
L 25.09375 0.875 
L 2.984375 54.6875 
L 12.5 54.6875 
L 29.59375 11.921875 
L 46.6875 54.6875 
L 56.203125 54.6875 
z
" id="DejaVuSans-79"/>
     </defs>
     <g transform="translate(20.2375 186.149875)rotate(-90)scale(0.1 -0.1)">
      <use xlink:href="#DejaVuSans-72"/>
      <use x="41.082031" xlink:href="#DejaVuSans-6f"/>
      <use x="102.263672" xlink:href="#DejaVuSans-74"/>
      <use x="141.472656" xlink:href="#DejaVuSans-20"/>
      <use x="173.259766" xlink:href="#DejaVuSans-79"/>
     </g>
    </g>
   </g>
   <g id="line2d_127">
    <path clip-path="url(#pa959040fbd)" d="M 73.832727 145.026864 
L 75.217208 156.572349 
L 75.90628 159.339392 
L 76.598517 161.452476 
L 77.982991 153.342994 
L 78.6751 151.973449 
L 79.367337 155.255869 
L 80.059581 157.43654 
L 80.751818 151.965991 
L 81.446481 154.029943 
L 82.830962 169.135025 
L 83.523199 173.809308 
L 84.216653 173.446705 
L 84.908883 167.590115 
L 85.601147 168.493109 
L 86.985656 156.184847 
L 87.675135 161.487219 
L 88.367373 163.010733 
L 89.05961 165.441185 
L 90.441987 183.43301 
L 91.13423 176.07208 
L 91.826467 176.964843 
L 92.518705 170.496187 
L 93.209773 159.344647 
L 93.902011 150.589478 
L 94.594254 134.775307 
L 95.286491 126.764203 
L 95.979336 130.16584 
L 96.671581 155.171401 
L 97.363819 166.813134 
L 98.749362 197.561084 
L 99.44205 207.694096 
L 100.133837 201.577792 
L 100.826074 198.483504 
L 101.516997 199.560653 
L 102.209241 190.688832 
L 102.901478 179.876341 
L 103.593715 174.398645 
L 104.284797 164.165627 
L 104.977035 145.46418 
L 105.669272 137.238719 
L 106.361509 141.597771 
L 107.05535 149.629122 
L 107.747587 135.618148 
L 108.439825 147.841262 
L 109.132062 162.166036 
L 109.824962 172.629498 
L 110.517208 177.266008 
L 111.209437 177.151634 
L 111.901674 178.375804 
L 112.593675 176.861595 
L 113.285912 175.006537 
L 113.978149 180.498339 
L 114.670387 188.237416 
L 115.361972 192.607171 
L 116.054209 201.227591 
L 116.746446 216.644964 
L 117.438683 222.229524 
L 118.130907 215.767432 
L 118.823151 220.974501 
L 119.515395 211.911626 
L 120.207625 193.442931 
L 121.594579 165.371777 
L 122.286816 140.716716 
L 122.97906 123.074316 
L 123.67129 132.236641 
L 124.363909 145.059688 
L 125.056146 147.900596 
L 125.748383 160.086247 
L 126.44062 194.457568 
L 128.514107 217.846022 
L 129.206344 218.130519 
L 130.591908 201.467743 
L 131.284145 178.281294 
L 131.976389 159.429247 
L 132.670814 148.640942 
L 134.055295 130.330357 
L 134.747532 137.641052 
L 135.437802 148.583081 
L 136.130039 151.038028 
L 136.822277 154.844021 
L 137.514514 161.639332 
L 138.204709 172.206534 
L 138.896947 180.725759 
L 139.589184 191.253848 
L 140.281421 206.17513 
L 140.976101 212.35881 
L 141.668336 202.034152 
L 142.360573 183.471844 
L 143.05281 168.296298 
L 143.744756 163.927655 
L 145.129236 141.934467 
L 145.821474 131.987508 
L 146.511257 133.716997 
L 147.203494 132.453065 
L 147.895731 142.556683 
L 148.588378 141.734636 
L 149.281455 134.390755 
L 149.973692 130.367948 
L 150.665929 133.46068 
L 151.358166 149.202048 
L 152.05041 160.094119 
L 153.435969 199.694198 
L 154.128206 200.726624 
L 154.820443 199.076192 
L 155.510224 204.521885 
L 156.20247 203.644363 
L 156.894699 203.023648 
L 157.586944 203.531254 
L 158.279343 205.953933 
L 159.663852 212.560128 
L 160.356055 217.063729 
L 161.051271 204.056007 
L 162.435745 159.922719 
L 163.127989 142.77674 
L 163.818557 135.765444 
L 164.510795 132.16316 
L 165.203032 132.560804 
L 165.895269 139.567651 
L 166.586145 141.343648 
L 167.278382 134.974128 
L 167.970626 133.16843 
L 168.662863 120.607352 
L 169.356457 122.981215 
L 170.048694 137.130803 
L 170.740931 156.774822 
L 172.125831 168.685307 
L 173.510286 193.891458 
L 174.202529 193.762604 
L 174.892987 198.204975 
L 175.585225 207.588434 
L 176.277462 211.538899 
L 176.969699 208.863014 
L 178.354724 215.998392 
L 179.046962 207.192345 
L 179.739205 202.7765 
L 180.434067 196.594527 
L 181.126297 181.380871 
L 181.818534 171.835314 
L 182.510778 153.952392 
L 183.892876 132.281676 
L 184.585113 126.168746 
L 185.2776 122.089446 
L 185.969588 115.755597 
L 186.661455 125.138166 
L 187.353692 132.598372 
L 188.045929 137.704282 
L 188.738167 146.24342 
M 191.509762 184.084371 
L 192.199235 200.383298 
L 192.891481 207.366763 
L 193.583718 212.933463 
L 194.275953 217.356437 
L 194.967935 209.662821 
L 195.660172 212.515196 
L 196.352409 231.194405 
L 197.044646 227.604639 
L 197.738917 226.315333 
L 199.815628 140.59534 
L 200.508823 129.337989 
L 201.20106 128.639268 
L 201.893304 123.39991 
L 202.585541 131.700504 
L 203.275538 145.919927 
L 204.660013 201.642474 
L 205.35225 218.216918 
L 206.044672 218.948928 
L 206.736909 230.33673 
L 207.429146 221.624433 
L 208.121383 195.233228 
L 208.815873 160.154985 
L 209.50811 137.807308 
L 210.892585 123.417029 
L 211.583861 123.209923 
L 212.276099 126.988713 
L 212.968342 127.533477 
L 213.66058 123.83765 
L 215.044156 118.673461 
L 216.428631 140.703183 
L 217.120874 143.255925 
L 217.814995 149.917487 
L 218.507232 160.44353 
L 219.199469 181.161775 
L 219.891706 192.920123 
L 220.58497 201.784491 
L 221.277214 212.156839 
L 221.969824 218.315843 
L 222.661681 215.569537 
L 223.354881 203.6363 
L 224.739362 170.67367 
L 225.431599 160.126043 
L 226.123329 144.685786 
L 226.815566 134.848991 
L 227.507804 131.377271 
L 228.200041 140.170499 
L 228.892598 141.432027 
L 229.584835 144.581101 
L 230.277072 154.743706 
L 230.96931 153.896316 
L 231.661953 159.514071 
L 233.046427 182.004911 
L 233.738664 190.52282 
L 235.126562 199.998453 
L 235.818799 198.745703 
L 236.511036 193.258063 
L 237.205725 182.263618 
L 237.897963 174.923467 
L 238.5902 178.737507 
L 239.282437 183.945043 
L 239.966295 188.219605 
L 240.658539 189.189753 
L 241.350776 193.388883 
L 242.043013 200.476585 
L 242.735331 202.613001 
L 243.427569 202.476317 
L 244.119806 197.912189 
L 244.812043 192.168306 
L 245.504977 194.985328 
L 246.197214 186.933035 
L 246.889449 177.397956 
L 247.581686 172.270046 
L 248.274878 165.793845 
L 248.967115 148.227847 
L 249.659352 138.424031 
L 250.351589 133.794797 
L 251.043826 127.744879 
L 251.736771 132.247602 
L 253.121246 143.881431 
L 254.500718 160.416663 
L 255.192947 175.675041 
L 255.885192 184.125126 
L 256.577429 173.90591 
L 257.269926 183.415878 
L 257.962163 200.164338 
L 258.6544 201.789928 
L 259.346637 215.396347 
L 260.040695 219.426294 
L 261.425169 188.06301 
L 262.80931 155.388453 
L 263.501547 144.801954 
L 264.193784 145.226575 
L 264.886021 142.774335 
L 265.576308 129.243889 
L 266.268553 127.525305 
L 266.960791 122.088517 
L 267.653028 133.329633 
L 268.344813 128.371518 
L 269.03705 130.805228 
L 269.729287 143.476243 
L 270.421524 165.65193 
L 271.116285 168.774912 
L 271.808522 165.087878 
L 272.500759 181.568469 
L 273.192996 180.411769 
L 273.886626 184.587203 
L 274.578864 175.220761 
M 279.422083 138.807446 
L 280.11432 154.610333 
L 280.806557 161.49673 
M 282.885262 195.036396 
L 283.576905 194.309918 
L 284.269143 199.286609 
L 284.961386 191.055338 
L 285.652297 172.349054 
M 287.036771 150.236375 
L 287.729008 140.296941 
M 291.190092 159.335213 
L 291.882329 166.979684 
M 297.420548 250.945183 
L 298.112785 218.846787 
L 298.805022 170.655712 
M 305.72952 260.911847 
L 306.421757 280.95249 
L 307.114493 292.702613 
L 307.804746 261.998052 
L 308.496983 209.530974 
L 309.18922 131.533369 
M 315.42021 265.845721 
L 316.112447 276.235355 
L 316.803859 259.044602 
L 317.496096 227.662951 
L 318.188333 180.420304 
L 318.880571 119.882584 
M 320.961058 59.959807 
L 321.653295 73.048913 
M 323.034614 93.962938 
L 324.419095 166.379972 
L 325.805058 224.517074 
L 326.497302 244.688012 
M 327.884744 217.821848 
L 329.269218 135.871668 
L 329.961455 82.193962 
L 330.653469 77.237676 
L 331.346218 85.765524 
L 332.037944 102.037289 
L 333.422638 185.107837 
L 334.114875 200.422624 
L 334.807119 237.451666 
M 337.575094 173.24277 
L 338.267337 117.930602 
L 338.959426 74.969459 
L 339.651661 69.819838 
L 340.343899 94.257013 
L 341.036136 128.222588 
L 341.726718 173.166803 
L 343.803429 266.826934 
L 344.492933 265.147588 
L 345.18517 255.432993 
L 346.569651 171.912384 
L 347.262064 119.559717 
L 347.953989 82.82579 
L 348.646226 77.740148 
M 351.414505 222.055523 
L 352.106742 242.018963 
L 352.798979 255.618044 
L 353.491776 257.786822 
L 354.184019 224.191693 
L 355.569124 137.806423 
M 358.33989 143.136716 
L 359.721951 161.554938 
M 361.799274 184.606497 
L 362.491511 184.271047 
L 363.183748 194.649589 
L 363.875985 179.596654 
M 365.952863 145.323228 
L 366.6451 141.27294 
L 367.338052 158.345664 
L 368.030296 158.705268 
L 368.722533 155.073889 
L 369.41477 149.809442 
L 370.107983 154.711419 
L 371.492457 190.335291 
M 372.877912 183.686923 
L 373.570157 180.098561 
L 374.95463 156.982727 
M 377.032291 139.417999 
L 377.724534 153.492064 
M 380.492239 193.719041 
L 381.184476 189.697934 
M 382.568336 195.248738 
L 383.260573 182.042516 
L 383.952811 164.607447 
L 384.644637 171.931217 
L 385.336874 167.288572 
L 386.029111 165.952424 
L 386.721348 150.725259 
M 388.104412 166.953337 
L 388.796657 173.089482 
L 389.488894 182.697627 
L 390.179932 186.014712 
L 390.872169 173.193634 
L 391.564426 170.691963 
M 395.717867 166.105615 
L 396.410104 166.876403 
L 396.410104 166.876403 
" style="fill:none;stroke:#ff0000;stroke-linecap:square;"/>
   </g>
   <g id="line2d_128">
    <path clip-path="url(#pa959040fbd)" d="M 73.832727 145.840719 
L 74.524971 145.407113 
L 75.217208 160.985067 
L 75.90628 160.099116 
L 76.598517 160.130324 
L 77.290754 159.059948 
L 77.982991 153.84214 
L 78.6751 150.586375 
L 79.367337 155.459906 
L 80.059581 158.813186 
L 80.751818 149.956711 
L 81.446481 153.2792 
L 82.830962 168.958433 
L 83.523199 172.297234 
L 84.216653 174.797013 
L 84.908883 168.756032 
L 85.601147 167.259823 
L 86.293364 162.146994 
L 86.985656 158.852412 
L 87.675135 160.883378 
L 88.367373 162.075707 
L 89.05961 164.457295 
L 89.751847 173.067318 
L 90.441987 184.939388 
L 91.13423 176.289958 
L 91.826467 177.171205 
L 93.209773 160.41642 
L 93.902011 151.022316 
L 94.594254 137.347892 
L 95.286491 126.852023 
L 95.979336 127.613965 
L 96.671581 151.118154 
L 97.363819 163.687778 
L 98.056056 179.73189 
L 98.749362 200.770901 
L 99.44205 209.909798 
L 100.133837 205.286898 
L 100.826074 203.414933 
L 101.516997 199.005865 
L 102.209241 192.083797 
L 102.901478 181.066749 
L 103.593715 175.116496 
L 104.284797 164.993964 
L 104.977035 146.299731 
L 105.669272 133.893648 
L 106.361509 141.783531 
L 107.05535 148.198587 
L 107.747587 138.112037 
L 108.439825 143.125424 
L 109.132062 162.170428 
L 109.824962 174.522092 
L 110.517208 178.647504 
L 111.209437 174.832606 
L 111.901674 177.505088 
L 112.593675 178.8731 
L 113.285912 172.627824 
L 114.670387 188.143142 
L 115.361972 192.634319 
L 116.054209 199.787213 
L 116.746446 218.177054 
L 117.438683 222.495031 
L 118.130907 215.492886 
L 118.823151 221.06775 
L 119.515395 215.273235 
L 120.207625 195.728678 
L 121.594579 166.924686 
L 122.97906 121.4665 
L 123.67129 127.94523 
L 124.363909 141.461339 
L 125.056146 145.018424 
L 125.748383 157.143097 
L 126.44062 190.863394 
L 127.129632 199.052975 
L 128.514107 218.99215 
L 129.206344 219.394998 
L 130.591908 203.021097 
L 131.284145 180.095887 
L 131.976389 162.122217 
L 132.670814 149.694399 
L 133.363058 139.366495 
L 134.055295 132.218892 
L 134.747532 134.680466 
L 135.437802 148.377049 
L 136.130039 153.845372 
L 136.822277 154.007855 
L 137.514514 159.454068 
L 138.204709 171.495009 
L 139.589184 189.007432 
L 140.281421 204.074912 
L 140.976101 213.146227 
L 141.668336 204.001596 
L 142.360573 185.210027 
L 143.05281 172.016531 
L 145.821474 133.572489 
L 146.511257 130.814761 
L 147.203494 136.218838 
L 147.895731 140.244401 
L 148.588378 140.016424 
L 149.281455 130.191466 
L 149.973692 132.449179 
L 150.665929 134.297086 
L 152.05041 158.032592 
L 153.435969 197.193052 
L 154.128206 201.579378 
L 154.820443 199.771059 
L 155.510224 203.08268 
L 156.20247 203.196055 
L 156.894699 203.91608 
L 157.586944 203.946088 
L 158.279343 207.152424 
L 158.97158 212.740601 
L 159.663852 213.337473 
L 160.356055 220.46518 
L 161.051271 208.33554 
L 162.435745 162.393429 
L 163.127989 146.016603 
L 163.818557 134.929219 
L 164.510795 134.38486 
L 165.203032 130.77109 
L 165.895269 136.675134 
L 166.586145 140.923401 
L 167.278382 134.346172 
L 167.970626 133.006608 
L 168.662863 120.675308 
L 169.356457 122.31829 
L 170.048694 133.80221 
L 170.740931 151.667968 
L 171.433168 161.936932 
L 172.125831 168.876607 
L 172.818048 180.705464 
L 173.510286 196.570985 
L 174.202529 192.837696 
L 174.892987 197.312481 
L 175.585225 206.933032 
L 176.277462 209.961186 
L 176.969699 210.31368 
L 177.662487 215.656895 
L 178.354724 219.037977 
L 179.046962 208.892438 
L 179.739205 202.532019 
L 180.434067 200.905845 
L 181.126297 185.027285 
L 181.818534 174.266471 
L 182.510778 156.719206 
L 183.200632 142.391563 
L 183.892876 136.642575 
L 184.585113 125.74854 
L 185.2776 124.0402 
L 185.969588 118.757512 
L 186.661455 124.910133 
L 187.353692 127.583263 
L 188.045929 138.185947 
L 188.738167 142.669597 
M 191.509762 186.262711 
L 192.199235 194.054828 
L 192.891481 207.221231 
L 193.583718 212.933922 
L 194.275953 220.684964 
L 194.967935 211.731008 
L 195.660172 213.590771 
L 196.352409 228.080415 
L 197.044646 229.12075 
L 197.738917 228.31254 
L 198.431154 201.959875 
L 199.123391 165.108574 
L 199.815628 142.399018 
L 200.508823 127.514412 
L 201.20106 124.069797 
L 201.893304 124.449349 
L 202.585541 130.433796 
L 203.275538 144.407162 
L 205.35225 218.580779 
L 206.044672 221.229901 
L 206.736909 231.732654 
L 207.429146 224.142358 
L 208.121383 198.533408 
L 208.815873 164.56061 
L 209.50811 140.293798 
L 210.200348 130.344599 
L 210.892585 124.706574 
L 211.583861 122.647028 
L 212.276099 127.659558 
L 212.968342 127.311892 
L 213.66058 123.017525 
L 214.351919 120.9092 
L 215.044156 116.220284 
L 216.428631 139.908813 
L 217.120874 143.181824 
L 217.814995 148.114844 
L 219.199469 177.810299 
L 219.891706 192.889957 
L 220.58497 200.185384 
L 221.277214 212.471488 
L 221.969824 219.512401 
L 222.661681 217.828318 
L 223.354881 208.010766 
L 224.047124 190.245965 
L 224.739362 169.585763 
L 225.431599 161.213352 
L 226.815566 135.332397 
L 227.507804 129.289926 
L 228.200041 138.585689 
L 228.892598 141.399498 
L 229.584835 145.283314 
L 230.277072 154.180588 
L 231.661953 158.271237 
L 233.046427 182.43258 
L 233.738664 189.444148 
L 234.434318 194.584385 
L 235.126562 200.606448 
L 235.818799 198.270859 
L 236.511036 194.598059 
L 237.897963 175.900646 
L 238.5902 176.038086 
L 239.282437 182.194495 
L 239.966295 184.814801 
L 240.658539 189.53922 
L 241.350776 192.495953 
L 242.043013 199.048129 
L 242.735331 204.462488 
L 243.427569 203.94285 
L 244.119806 201.182848 
L 244.812043 192.165585 
L 245.504977 196.224115 
L 246.197214 189.804022 
L 246.889449 177.909224 
L 247.581686 173.142151 
L 248.274878 165.915534 
L 248.967115 149.505164 
L 249.659352 138.824253 
L 251.043826 126.631424 
L 251.736771 129.520149 
L 252.429009 136.083106 
L 253.121246 141.351891 
L 253.81349 150.819449 
L 255.192947 175.564091 
L 255.885192 182.040949 
L 256.577429 174.277229 
L 257.269926 183.354457 
L 257.962163 199.027841 
L 258.6544 205.36766 
L 259.346637 214.465119 
L 260.040695 219.699153 
L 260.732932 207.232932 
L 262.117406 174.514647 
L 262.80931 158.268992 
L 263.501547 144.945588 
L 264.193784 144.701752 
L 264.886021 140.769202 
L 265.576308 129.430121 
L 266.268553 129.078851 
L 266.960791 129.647987 
L 267.653028 132.570617 
L 268.344813 136.355523 
L 269.03705 132.310613 
L 269.729287 143.001742 
L 270.421524 162.998082 
L 271.116285 170.57694 
L 271.808522 172.918472 
L 273.192996 185.765077 
L 273.886626 187.644546 
L 274.578864 177.377837 
M 279.422083 136.412514 
L 280.11432 151.320398 
L 280.806557 159.885099 
M 282.885262 195.711775 
L 283.576905 202.305344 
L 284.269143 196.997091 
L 284.961386 195.128208 
L 285.652297 176.676926 
M 287.036771 152.210247 
L 287.729008 150.523504 
M 291.190092 157.865504 
L 291.882329 165.45841 
M 297.420548 248.357703 
L 298.112785 221.436519 
L 298.805022 178.248666 
M 305.72952 257.926048 
L 306.421757 289.921926 
L 307.114493 295.488 
L 307.804746 262.980195 
L 308.496983 213.369969 
L 309.18922 139.982585 
M 315.42021 271.701175 
L 316.112447 280.425456 
L 316.803859 265.438396 
L 317.496096 229.637392 
L 318.188333 186.506594 
L 318.880571 126.417575 
M 320.961058 55.503455 
L 321.653295 73.105119 
M 323.034614 90.469309 
L 325.805058 223.429503 
L 326.497302 244.282366 
M 327.884744 224.233908 
L 329.269218 141.56135 
L 329.961455 85.314092 
L 330.653469 76.047058 
L 331.346218 83.023875 
L 332.037944 95.913931 
L 333.422638 180.90741 
L 334.114875 198.948563 
L 334.807119 233.822668 
M 337.575094 182.335604 
L 338.267337 124.953186 
L 338.959426 77.874135 
L 339.651661 65.835872 
L 340.343899 91.010633 
L 341.036136 121.839682 
L 341.726718 166.826671 
L 343.803429 264.679111 
L 344.492933 281.161539 
L 345.18517 264.825814 
L 345.877414 225.405664 
L 347.953989 82.74316 
L 348.646226 71.89906 
M 351.414505 218.644954 
L 352.798979 253.574915 
L 353.491776 257.686604 
L 354.184019 230.955617 
L 355.569124 145.738496 
M 358.33989 140.4036 
L 359.721951 158.325114 
M 361.799274 175.555252 
L 362.491511 182.280115 
L 363.183748 191.758685 
L 363.875985 182.590767 
M 365.952863 143.986267 
L 366.6451 143.027101 
L 367.338052 154.877142 
L 368.030296 159.643165 
L 368.722533 155.787741 
L 369.41477 150.606988 
L 370.107983 152.249142 
L 371.492457 186.915596 
M 372.877912 186.075309 
L 373.570157 180.566038 
L 374.262395 169.941138 
L 374.95463 157.561465 
M 377.032291 140.793128 
L 377.724534 149.991752 
M 380.492239 183.008333 
L 381.184476 187.796453 
M 382.568336 192.992765 
L 383.260573 187.173069 
L 383.952811 164.689273 
L 384.644637 171.826976 
L 385.336874 172.90213 
L 386.029111 161.48751 
L 386.721348 154.509003 
M 388.104412 166.242104 
L 388.796657 170.495686 
L 389.488894 182.478583 
L 390.179932 185.071967 
L 390.872169 175.159401 
L 391.564426 170.337748 
M 395.717867 166.074925 
L 396.410104 165.772547 
L 396.410104 165.772547 
" style="fill:none;stroke:#0000ff;stroke-linecap:square;"/>
   </g>
   <g id="line2d_129">
    <path clip-path="url(#pa959040fbd)" d="M 275.271101 167.284756 
L 275.963338 152.691105 
L 276.655785 154.760263 
M 278.040266 131.043261 
L 278.732503 132.500146 
M 281.498794 162.726618 
L 282.192431 182.115824 
M 288.421904 139.559929 
L 289.114148 144.366109 
M 292.574566 163.79587 
L 293.266803 170.06042 
L 294.653451 196.527161 
L 295.345682 204.466091 
M 300.885099 98.392074 
L 301.577343 71.63808 
M 302.959621 77.997063 
L 303.651864 110.830335 
M 309.881458 87.204234 
L 310.575802 57.860094 
L 311.268039 53.568 
L 311.960277 70.010343 
L 314.727973 233.878785 
M 319.576584 94.333167 
L 320.268821 61.176342 
M 335.499356 268.225295 
L 336.190619 268.094606 
L 336.882856 236.764091 
M 349.338463 101.883288 
L 350.722267 183.470608 
M 356.26317 113.981035 
L 356.955416 106.466396 
L 357.647653 117.979835 
M 360.414189 161.564549 
L 361.106426 166.395484 
M 364.568397 168.331526 
L 365.260626 153.01519 
M 375.647823 151.812233 
L 376.34006 138.611016 
M 392.256643 170.169801 
L 392.948735 166.450298 
L 393.640972 159.465065 
L 394.333209 163.46035 
L 395.025447 163.505869 
M 397.102341 169.207945 
L 397.794578 167.136832 
L 398.487273 166.045845 
L 398.487273 166.045845 
" style="fill:none;stroke:#008000;stroke-linecap:square;"/>
   </g>
   <g id="patch_3">
    <path d="M 57.6 307.584 
L 57.6 41.472 
" style="fill:none;stroke:#000000;stroke-linecap:square;stroke-linejoin:miter;stroke-width:0.8;"/>
   </g>
   <g id="patch_4">
    <path d="M 414.72 307.584 
L 414.72 41.472 
" style="fill:none;stroke:#000000;stroke-linecap:square;stroke-linejoin:miter;stroke-width:0.8;"/>
   </g>
   <g id="patch_5">
    <path d="M 57.6 307.584 
L 414.72 307.584 
" style="fill:none;stroke:#000000;stroke-linecap:square;stroke-linejoin:miter;stroke-width:0.8;"/>
   </g>
   <g id="patch_6">
    <path d="M 57.6 41.472 
L 414.72 41.472 
" style="fill:none;stroke:#000000;stroke-linecap:square;stroke-linejoin:miter;stroke-width:0.8;"/>
   </g>
   <g id="text_15">
    <!-- Rel Gt Rot Y Plot -->
    <defs>
     <path d="M 44.390625 34.1875 
Q 47.5625 33.109375 50.5625 29.59375 
Q 53.5625 26.078125 56.59375 19.921875 
L 66.609375 0 
L 56 0 
L 46.6875 18.703125 
Q 43.0625 26.03125 39.671875 28.421875 
Q 36.28125 30.8125 30.421875 30.8125 
L 19.671875 30.8125 
L 19.671875 0 
L 9.8125 0 
L 9.8125 72.90625 
L 32.078125 72.90625 
Q 44.578125 72.90625 50.734375 67.671875 
Q 56.890625 62.453125 56.890625 51.90625 
Q 56.890625 45.015625 53.6875 40.46875 
Q 50.484375 35.9375 44.390625 34.1875 
z
M 19.671875 64.796875 
L 19.671875 38.921875 
L 32.078125 38.921875 
Q 39.203125 38.921875 42.84375 42.21875 
Q 46.484375 45.515625 46.484375 51.90625 
Q 46.484375 58.296875 42.84375 61.546875 
Q 39.203125 64.796875 32.078125 64.796875 
z
" id="DejaVuSans-52"/>
     <path d="M 9.421875 75.984375 
L 18.40625 75.984375 
L 18.40625 0 
L 9.421875 0 
z
" id="DejaVuSans-6c"/>
     <path d="M 59.515625 10.40625 
L 59.515625 29.984375 
L 43.40625 29.984375 
L 43.40625 38.09375 
L 69.28125 38.09375 
L 69.28125 6.78125 
Q 63.578125 2.734375 56.6875 0.65625 
Q 49.8125 -1.421875 42 -1.421875 
Q 24.90625 -1.421875 15.25 8.5625 
Q 5.609375 18.5625 5.609375 36.375 
Q 5.609375 54.25 15.25 64.234375 
Q 24.90625 74.21875 42 74.21875 
Q 49.125 74.21875 55.546875 72.453125 
Q 61.96875 70.703125 67.390625 67.28125 
L 67.390625 56.78125 
Q 61.921875 61.421875 55.765625 63.765625 
Q 49.609375 66.109375 42.828125 66.109375 
Q 29.4375 66.109375 22.71875 58.640625 
Q 16.015625 51.171875 16.015625 36.375 
Q 16.015625 21.625 22.71875 14.15625 
Q 29.4375 6.6875 42.828125 6.6875 
Q 48.046875 6.6875 52.140625 7.59375 
Q 56.25 8.5 59.515625 10.40625 
z
" id="DejaVuSans-47"/>
     <path d="M -0.203125 72.90625 
L 10.40625 72.90625 
L 30.609375 42.921875 
L 50.6875 72.90625 
L 61.28125 72.90625 
L 35.5 34.71875 
L 35.5 0 
L 25.59375 0 
L 25.59375 34.71875 
z
" id="DejaVuSans-59"/>
     <path d="M 19.671875 64.796875 
L 19.671875 37.40625 
L 32.078125 37.40625 
Q 38.96875 37.40625 42.71875 40.96875 
Q 46.484375 44.53125 46.484375 51.125 
Q 46.484375 57.671875 42.71875 61.234375 
Q 38.96875 64.796875 32.078125 64.796875 
z
M 9.8125 72.90625 
L 32.078125 72.90625 
Q 44.34375 72.90625 50.609375 67.359375 
Q 56.890625 61.8125 56.890625 51.125 
Q 56.890625 40.328125 50.609375 34.8125 
Q 44.34375 29.296875 32.078125 29.296875 
L 19.671875 29.296875 
L 19.671875 0 
L 9.8125 0 
z
" id="DejaVuSans-50"/>
    </defs>
    <g transform="translate(186.845625 35.472)scale(0.12 -0.12)">
     <use xlink:href="#DejaVuSans-52"/>
     <use x="69.419922" xlink:href="#DejaVuSans-65"/>
     <use x="130.943359" xlink:href="#DejaVuSans-6c"/>
     <use x="158.726562" xlink:href="#DejaVuSans-20"/>
     <use x="190.513672" xlink:href="#DejaVuSans-47"/>
     <use x="268.003906" xlink:href="#DejaVuSans-74"/>
     <use x="307.212891" xlink:href="#DejaVuSans-20"/>
     <use x="339" xlink:href="#DejaVuSans-52"/>
     <use x="408.419922" xlink:href="#DejaVuSans-6f"/>
     <use x="469.601562" xlink:href="#DejaVuSans-74"/>
     <use x="508.810547" xlink:href="#DejaVuSans-20"/>
     <use x="540.597656" xlink:href="#DejaVuSans-59"/>
     <use x="601.681641" xlink:href="#DejaVuSans-20"/>
     <use x="633.46875" xlink:href="#DejaVuSans-50"/>
     <use x="693.771484" xlink:href="#DejaVuSans-6c"/>
     <use x="721.554688" xlink:href="#DejaVuSans-6f"/>
     <use x="782.736328" xlink:href="#DejaVuSans-74"/>
    </g>
   </g>
  </g>
 </g>
 <defs>
  <clipPath id="pa959040fbd">
   <rect height="266.112" width="357.12" x="57.6" y="41.472"/>
  </clipPath>
 </defs>
</svg>
