<?xml version="1.0" encoding="utf-8" standalone="no"?>
<!DOCTYPE svg PUBLIC "-//W3C//DTD SVG 1.1//EN"
  "http://www.w3.org/Graphics/SVG/1.1/DTD/svg11.dtd">
<!-- Created with matplotlib (http://matplotlib.org/) -->
<svg height="345.6pt" version="1.1" viewBox="0 0 460.8 345.6" width="460.8pt" xmlns="http://www.w3.org/2000/svg" xmlns:xlink="http://www.w3.org/1999/xlink">
 <defs>
  <style type="text/css">
*{stroke-linecap:butt;stroke-linejoin:round;}
  </style>
 </defs>
 <g id="figure_1">
  <g id="patch_1">
   <path d="M 0 345.6 
L 460.8 345.6 
L 460.8 0 
L 0 0 
z
" style="fill:#ffffff;"/>
  </g>
  <g id="axes_1">
   <g id="patch_2">
    <path d="M 57.6 307.584 
L 414.72 307.584 
L 414.72 41.472 
L 57.6 41.472 
z
" style="fill:#ffffff;"/>
   </g>
   <g id="matplotlib.axis_1">
    <g id="xtick_1">
     <g id="line2d_1">
      <path clip-path="url(#pa405246eb6)" d="M 70.555248 307.584 
L 70.555248 41.472 
" style="fill:none;stroke:#b0b0b0;stroke-linecap:square;stroke-width:0.8;"/>
     </g>
     <g id="line2d_2">
      <defs>
       <path d="M 0 0 
L 0 3.5 
" id="mb6e372103e" style="stroke:#000000;stroke-width:0.8;"/>
      </defs>
      <g>
       <use style="stroke:#000000;stroke-width:0.8;" x="70.555248" xlink:href="#mb6e372103e" y="307.584"/>
      </g>
     </g>
     <g id="text_1">
      <!-- 0 -->
      <defs>
       <path d="M 31.78125 66.40625 
Q 24.171875 66.40625 20.328125 58.90625 
Q 16.5 51.421875 16.5 36.375 
Q 16.5 21.390625 20.328125 13.890625 
Q 24.171875 6.390625 31.78125 6.390625 
Q 39.453125 6.390625 43.28125 13.890625 
Q 47.125 21.390625 47.125 36.375 
Q 47.125 51.421875 43.28125 58.90625 
Q 39.453125 66.40625 31.78125 66.40625 
z
M 31.78125 74.21875 
Q 44.046875 74.21875 50.515625 64.515625 
Q 56.984375 54.828125 56.984375 36.375 
Q 56.984375 17.96875 50.515625 8.265625 
Q 44.046875 -1.421875 31.78125 -1.421875 
Q 19.53125 -1.421875 13.0625 8.265625 
Q 6.59375 17.96875 6.59375 36.375 
Q 6.59375 54.828125 13.0625 64.515625 
Q 19.53125 74.21875 31.78125 74.21875 
z
" id="DejaVuSans-30"/>
      </defs>
      <g transform="translate(67.373998 322.182437)scale(0.1 -0.1)">
       <use xlink:href="#DejaVuSans-30"/>
      </g>
     </g>
    </g>
    <g id="xtick_2">
     <g id="line2d_3">
      <path clip-path="url(#pa405246eb6)" d="M 139.776886 307.584 
L 139.776886 41.472 
" style="fill:none;stroke:#b0b0b0;stroke-linecap:square;stroke-width:0.8;"/>
     </g>
     <g id="line2d_4">
      <g>
       <use style="stroke:#000000;stroke-width:0.8;" x="139.776886" xlink:href="#mb6e372103e" y="307.584"/>
      </g>
     </g>
     <g id="text_2">
      <!-- 10 -->
      <defs>
       <path d="M 12.40625 8.296875 
L 28.515625 8.296875 
L 28.515625 63.921875 
L 10.984375 60.40625 
L 10.984375 69.390625 
L 28.421875 72.90625 
L 38.28125 72.90625 
L 38.28125 8.296875 
L 54.390625 8.296875 
L 54.390625 0 
L 12.40625 0 
z
" id="DejaVuSans-31"/>
      </defs>
      <g transform="translate(133.414386 322.182437)scale(0.1 -0.1)">
       <use xlink:href="#DejaVuSans-31"/>
       <use x="63.623047" xlink:href="#DejaVuSans-30"/>
      </g>
     </g>
    </g>
    <g id="xtick_3">
     <g id="line2d_5">
      <path clip-path="url(#pa405246eb6)" d="M 208.998523 307.584 
L 208.998523 41.472 
" style="fill:none;stroke:#b0b0b0;stroke-linecap:square;stroke-width:0.8;"/>
     </g>
     <g id="line2d_6">
      <g>
       <use style="stroke:#000000;stroke-width:0.8;" x="208.998523" xlink:href="#mb6e372103e" y="307.584"/>
      </g>
     </g>
     <g id="text_3">
      <!-- 20 -->
      <defs>
       <path d="M 19.1875 8.296875 
L 53.609375 8.296875 
L 53.609375 0 
L 7.328125 0 
L 7.328125 8.296875 
Q 12.9375 14.109375 22.625 23.890625 
Q 32.328125 33.6875 34.8125 36.53125 
Q 39.546875 41.84375 41.421875 45.53125 
Q 43.3125 49.21875 43.3125 52.78125 
Q 43.3125 58.59375 39.234375 62.25 
Q 35.15625 65.921875 28.609375 65.921875 
Q 23.96875 65.921875 18.8125 64.3125 
Q 13.671875 62.703125 7.8125 59.421875 
L 7.8125 69.390625 
Q 13.765625 71.78125 18.9375 73 
Q 24.125 74.21875 28.421875 74.21875 
Q 39.75 74.21875 46.484375 68.546875 
Q 53.21875 62.890625 53.21875 53.421875 
Q 53.21875 48.921875 51.53125 44.890625 
Q 49.859375 40.875 45.40625 35.40625 
Q 44.1875 33.984375 37.640625 27.21875 
Q 31.109375 20.453125 19.1875 8.296875 
z
" id="DejaVuSans-32"/>
      </defs>
      <g transform="translate(202.636023 322.182437)scale(0.1 -0.1)">
       <use xlink:href="#DejaVuSans-32"/>
       <use x="63.623047" xlink:href="#DejaVuSans-30"/>
      </g>
     </g>
    </g>
    <g id="xtick_4">
     <g id="line2d_7">
      <path clip-path="url(#pa405246eb6)" d="M 278.220161 307.584 
L 278.220161 41.472 
" style="fill:none;stroke:#b0b0b0;stroke-linecap:square;stroke-width:0.8;"/>
     </g>
     <g id="line2d_8">
      <g>
       <use style="stroke:#000000;stroke-width:0.8;" x="278.220161" xlink:href="#mb6e372103e" y="307.584"/>
      </g>
     </g>
     <g id="text_4">
      <!-- 30 -->
      <defs>
       <path d="M 40.578125 39.3125 
Q 47.65625 37.796875 51.625 33 
Q 55.609375 28.21875 55.609375 21.1875 
Q 55.609375 10.40625 48.1875 4.484375 
Q 40.765625 -1.421875 27.09375 -1.421875 
Q 22.515625 -1.421875 17.65625 -0.515625 
Q 12.796875 0.390625 7.625 2.203125 
L 7.625 11.71875 
Q 11.71875 9.328125 16.59375 8.109375 
Q 21.484375 6.890625 26.8125 6.890625 
Q 36.078125 6.890625 40.9375 10.546875 
Q 45.796875 14.203125 45.796875 21.1875 
Q 45.796875 27.640625 41.28125 31.265625 
Q 36.765625 34.90625 28.71875 34.90625 
L 20.21875 34.90625 
L 20.21875 43.015625 
L 29.109375 43.015625 
Q 36.375 43.015625 40.234375 45.921875 
Q 44.09375 48.828125 44.09375 54.296875 
Q 44.09375 59.90625 40.109375 62.90625 
Q 36.140625 65.921875 28.71875 65.921875 
Q 24.65625 65.921875 20.015625 65.03125 
Q 15.375 64.15625 9.8125 62.3125 
L 9.8125 71.09375 
Q 15.4375 72.65625 20.34375 73.4375 
Q 25.25 74.21875 29.59375 74.21875 
Q 40.828125 74.21875 47.359375 69.109375 
Q 53.90625 64.015625 53.90625 55.328125 
Q 53.90625 49.265625 50.4375 45.09375 
Q 46.96875 40.921875 40.578125 39.3125 
z
" id="DejaVuSans-33"/>
      </defs>
      <g transform="translate(271.857661 322.182437)scale(0.1 -0.1)">
       <use xlink:href="#DejaVuSans-33"/>
       <use x="63.623047" xlink:href="#DejaVuSans-30"/>
      </g>
     </g>
    </g>
    <g id="xtick_5">
     <g id="line2d_9">
      <path clip-path="url(#pa405246eb6)" d="M 347.441799 307.584 
L 347.441799 41.472 
" style="fill:none;stroke:#b0b0b0;stroke-linecap:square;stroke-width:0.8;"/>
     </g>
     <g id="line2d_10">
      <g>
       <use style="stroke:#000000;stroke-width:0.8;" x="347.441799" xlink:href="#mb6e372103e" y="307.584"/>
      </g>
     </g>
     <g id="text_5">
      <!-- 40 -->
      <defs>
       <path d="M 37.796875 64.3125 
L 12.890625 25.390625 
L 37.796875 25.390625 
z
M 35.203125 72.90625 
L 47.609375 72.90625 
L 47.609375 25.390625 
L 58.015625 25.390625 
L 58.015625 17.1875 
L 47.609375 17.1875 
L 47.609375 0 
L 37.796875 0 
L 37.796875 17.1875 
L 4.890625 17.1875 
L 4.890625 26.703125 
z
" id="DejaVuSans-34"/>
      </defs>
      <g transform="translate(341.079299 322.182437)scale(0.1 -0.1)">
       <use xlink:href="#DejaVuSans-34"/>
       <use x="63.623047" xlink:href="#DejaVuSans-30"/>
      </g>
     </g>
    </g>
    <g id="xtick_6">
     <g id="line2d_11">
      <path clip-path="url(#pa405246eb6)" d="M 84.399575 307.584 
L 84.399575 41.472 
" style="fill:none;stroke:#b0b0b0;stroke-linecap:square;stroke-width:0.8;"/>
     </g>
     <g id="line2d_12">
      <defs>
       <path d="M 0 0 
L 0 2 
" id="m684f79be50" style="stroke:#000000;stroke-width:0.6;"/>
      </defs>
      <g>
       <use style="stroke:#000000;stroke-width:0.6;" x="84.399575" xlink:href="#m684f79be50" y="307.584"/>
      </g>
     </g>
    </g>
    <g id="xtick_7">
     <g id="line2d_13">
      <path clip-path="url(#pa405246eb6)" d="M 98.243903 307.584 
L 98.243903 41.472 
" style="fill:none;stroke:#b0b0b0;stroke-linecap:square;stroke-width:0.8;"/>
     </g>
     <g id="line2d_14">
      <g>
       <use style="stroke:#000000;stroke-width:0.6;" x="98.243903" xlink:href="#m684f79be50" y="307.584"/>
      </g>
     </g>
    </g>
    <g id="xtick_8">
     <g id="line2d_15">
      <path clip-path="url(#pa405246eb6)" d="M 112.08823 307.584 
L 112.08823 41.472 
" style="fill:none;stroke:#b0b0b0;stroke-linecap:square;stroke-width:0.8;"/>
     </g>
     <g id="line2d_16">
      <g>
       <use style="stroke:#000000;stroke-width:0.6;" x="112.08823" xlink:href="#m684f79be50" y="307.584"/>
      </g>
     </g>
    </g>
    <g id="xtick_9">
     <g id="line2d_17">
      <path clip-path="url(#pa405246eb6)" d="M 125.932558 307.584 
L 125.932558 41.472 
" style="fill:none;stroke:#b0b0b0;stroke-linecap:square;stroke-width:0.8;"/>
     </g>
     <g id="line2d_18">
      <g>
       <use style="stroke:#000000;stroke-width:0.6;" x="125.932558" xlink:href="#m684f79be50" y="307.584"/>
      </g>
     </g>
    </g>
    <g id="xtick_10">
     <g id="line2d_19">
      <path clip-path="url(#pa405246eb6)" d="M 153.621213 307.584 
L 153.621213 41.472 
" style="fill:none;stroke:#b0b0b0;stroke-linecap:square;stroke-width:0.8;"/>
     </g>
     <g id="line2d_20">
      <g>
       <use style="stroke:#000000;stroke-width:0.6;" x="153.621213" xlink:href="#m684f79be50" y="307.584"/>
      </g>
     </g>
    </g>
    <g id="xtick_11">
     <g id="line2d_21">
      <path clip-path="url(#pa405246eb6)" d="M 167.465541 307.584 
L 167.465541 41.472 
" style="fill:none;stroke:#b0b0b0;stroke-linecap:square;stroke-width:0.8;"/>
     </g>
     <g id="line2d_22">
      <g>
       <use style="stroke:#000000;stroke-width:0.6;" x="167.465541" xlink:href="#m684f79be50" y="307.584"/>
      </g>
     </g>
    </g>
    <g id="xtick_12">
     <g id="line2d_23">
      <path clip-path="url(#pa405246eb6)" d="M 181.309868 307.584 
L 181.309868 41.472 
" style="fill:none;stroke:#b0b0b0;stroke-linecap:square;stroke-width:0.8;"/>
     </g>
     <g id="line2d_24">
      <g>
       <use style="stroke:#000000;stroke-width:0.6;" x="181.309868" xlink:href="#m684f79be50" y="307.584"/>
      </g>
     </g>
    </g>
    <g id="xtick_13">
     <g id="line2d_25">
      <path clip-path="url(#pa405246eb6)" d="M 195.154196 307.584 
L 195.154196 41.472 
" style="fill:none;stroke:#b0b0b0;stroke-linecap:square;stroke-width:0.8;"/>
     </g>
     <g id="line2d_26">
      <g>
       <use style="stroke:#000000;stroke-width:0.6;" x="195.154196" xlink:href="#m684f79be50" y="307.584"/>
      </g>
     </g>
    </g>
    <g id="xtick_14">
     <g id="line2d_27">
      <path clip-path="url(#pa405246eb6)" d="M 222.842851 307.584 
L 222.842851 41.472 
" style="fill:none;stroke:#b0b0b0;stroke-linecap:square;stroke-width:0.8;"/>
     </g>
     <g id="line2d_28">
      <g>
       <use style="stroke:#000000;stroke-width:0.6;" x="222.842851" xlink:href="#m684f79be50" y="307.584"/>
      </g>
     </g>
    </g>
    <g id="xtick_15">
     <g id="line2d_29">
      <path clip-path="url(#pa405246eb6)" d="M 236.687178 307.584 
L 236.687178 41.472 
" style="fill:none;stroke:#b0b0b0;stroke-linecap:square;stroke-width:0.8;"/>
     </g>
     <g id="line2d_30">
      <g>
       <use style="stroke:#000000;stroke-width:0.6;" x="236.687178" xlink:href="#m684f79be50" y="307.584"/>
      </g>
     </g>
    </g>
    <g id="xtick_16">
     <g id="line2d_31">
      <path clip-path="url(#pa405246eb6)" d="M 250.531506 307.584 
L 250.531506 41.472 
" style="fill:none;stroke:#b0b0b0;stroke-linecap:square;stroke-width:0.8;"/>
     </g>
     <g id="line2d_32">
      <g>
       <use style="stroke:#000000;stroke-width:0.6;" x="250.531506" xlink:href="#m684f79be50" y="307.584"/>
      </g>
     </g>
    </g>
    <g id="xtick_17">
     <g id="line2d_33">
      <path clip-path="url(#pa405246eb6)" d="M 264.375834 307.584 
L 264.375834 41.472 
" style="fill:none;stroke:#b0b0b0;stroke-linecap:square;stroke-width:0.8;"/>
     </g>
     <g id="line2d_34">
      <g>
       <use style="stroke:#000000;stroke-width:0.6;" x="264.375834" xlink:href="#m684f79be50" y="307.584"/>
      </g>
     </g>
    </g>
    <g id="xtick_18">
     <g id="line2d_35">
      <path clip-path="url(#pa405246eb6)" d="M 292.064489 307.584 
L 292.064489 41.472 
" style="fill:none;stroke:#b0b0b0;stroke-linecap:square;stroke-width:0.8;"/>
     </g>
     <g id="line2d_36">
      <g>
       <use style="stroke:#000000;stroke-width:0.6;" x="292.064489" xlink:href="#m684f79be50" y="307.584"/>
      </g>
     </g>
    </g>
    <g id="xtick_19">
     <g id="line2d_37">
      <path clip-path="url(#pa405246eb6)" d="M 305.908816 307.584 
L 305.908816 41.472 
" style="fill:none;stroke:#b0b0b0;stroke-linecap:square;stroke-width:0.8;"/>
     </g>
     <g id="line2d_38">
      <g>
       <use style="stroke:#000000;stroke-width:0.6;" x="305.908816" xlink:href="#m684f79be50" y="307.584"/>
      </g>
     </g>
    </g>
    <g id="xtick_20">
     <g id="line2d_39">
      <path clip-path="url(#pa405246eb6)" d="M 319.753144 307.584 
L 319.753144 41.472 
" style="fill:none;stroke:#b0b0b0;stroke-linecap:square;stroke-width:0.8;"/>
     </g>
     <g id="line2d_40">
      <g>
       <use style="stroke:#000000;stroke-width:0.6;" x="319.753144" xlink:href="#m684f79be50" y="307.584"/>
      </g>
     </g>
    </g>
    <g id="xtick_21">
     <g id="line2d_41">
      <path clip-path="url(#pa405246eb6)" d="M 333.597471 307.584 
L 333.597471 41.472 
" style="fill:none;stroke:#b0b0b0;stroke-linecap:square;stroke-width:0.8;"/>
     </g>
     <g id="line2d_42">
      <g>
       <use style="stroke:#000000;stroke-width:0.6;" x="333.597471" xlink:href="#m684f79be50" y="307.584"/>
      </g>
     </g>
    </g>
    <g id="xtick_22">
     <g id="line2d_43">
      <path clip-path="url(#pa405246eb6)" d="M 361.286127 307.584 
L 361.286127 41.472 
" style="fill:none;stroke:#b0b0b0;stroke-linecap:square;stroke-width:0.8;"/>
     </g>
     <g id="line2d_44">
      <g>
       <use style="stroke:#000000;stroke-width:0.6;" x="361.286127" xlink:href="#m684f79be50" y="307.584"/>
      </g>
     </g>
    </g>
    <g id="xtick_23">
     <g id="line2d_45">
      <path clip-path="url(#pa405246eb6)" d="M 375.130454 307.584 
L 375.130454 41.472 
" style="fill:none;stroke:#b0b0b0;stroke-linecap:square;stroke-width:0.8;"/>
     </g>
     <g id="line2d_46">
      <g>
       <use style="stroke:#000000;stroke-width:0.6;" x="375.130454" xlink:href="#m684f79be50" y="307.584"/>
      </g>
     </g>
    </g>
    <g id="xtick_24">
     <g id="line2d_47">
      <path clip-path="url(#pa405246eb6)" d="M 388.974782 307.584 
L 388.974782 41.472 
" style="fill:none;stroke:#b0b0b0;stroke-linecap:square;stroke-width:0.8;"/>
     </g>
     <g id="line2d_48">
      <g>
       <use style="stroke:#000000;stroke-width:0.6;" x="388.974782" xlink:href="#m684f79be50" y="307.584"/>
      </g>
     </g>
    </g>
    <g id="xtick_25">
     <g id="line2d_49">
      <path clip-path="url(#pa405246eb6)" d="M 402.819109 307.584 
L 402.819109 41.472 
" style="fill:none;stroke:#b0b0b0;stroke-linecap:square;stroke-width:0.8;"/>
     </g>
     <g id="line2d_50">
      <g>
       <use style="stroke:#000000;stroke-width:0.6;" x="402.819109" xlink:href="#m684f79be50" y="307.584"/>
      </g>
     </g>
    </g>
    <g id="text_6">
     <!-- frame # [] -->
     <defs>
      <path d="M 37.109375 75.984375 
L 37.109375 68.5 
L 28.515625 68.5 
Q 23.6875 68.5 21.796875 66.546875 
Q 19.921875 64.59375 19.921875 59.515625 
L 19.921875 54.6875 
L 34.71875 54.6875 
L 34.71875 47.703125 
L 19.921875 47.703125 
L 19.921875 0 
L 10.890625 0 
L 10.890625 47.703125 
L 2.296875 47.703125 
L 2.296875 54.6875 
L 10.890625 54.6875 
L 10.890625 58.5 
Q 10.890625 67.625 15.140625 71.796875 
Q 19.390625 75.984375 28.609375 75.984375 
z
" id="DejaVuSans-66"/>
      <path d="M 41.109375 46.296875 
Q 39.59375 47.171875 37.8125 47.578125 
Q 36.03125 48 33.890625 48 
Q 26.265625 48 22.1875 43.046875 
Q 18.109375 38.09375 18.109375 28.8125 
L 18.109375 0 
L 9.078125 0 
L 9.078125 54.6875 
L 18.109375 54.6875 
L 18.109375 46.1875 
Q 20.953125 51.171875 25.484375 53.578125 
Q 30.03125 56 36.53125 56 
Q 37.453125 56 38.578125 55.875 
Q 39.703125 55.765625 41.0625 55.515625 
z
" id="DejaVuSans-72"/>
      <path d="M 34.28125 27.484375 
Q 23.390625 27.484375 19.1875 25 
Q 14.984375 22.515625 14.984375 16.5 
Q 14.984375 11.71875 18.140625 8.90625 
Q 21.296875 6.109375 26.703125 6.109375 
Q 34.1875 6.109375 38.703125 11.40625 
Q 43.21875 16.703125 43.21875 25.484375 
L 43.21875 27.484375 
z
M 52.203125 31.203125 
L 52.203125 0 
L 43.21875 0 
L 43.21875 8.296875 
Q 40.140625 3.328125 35.546875 0.953125 
Q 30.953125 -1.421875 24.3125 -1.421875 
Q 15.921875 -1.421875 10.953125 3.296875 
Q 6 8.015625 6 15.921875 
Q 6 25.140625 12.171875 29.828125 
Q 18.359375 34.515625 30.609375 34.515625 
L 43.21875 34.515625 
L 43.21875 35.40625 
Q 43.21875 41.609375 39.140625 45 
Q 35.0625 48.390625 27.6875 48.390625 
Q 23 48.390625 18.546875 47.265625 
Q 14.109375 46.140625 10.015625 43.890625 
L 10.015625 52.203125 
Q 14.9375 54.109375 19.578125 55.046875 
Q 24.21875 56 28.609375 56 
Q 40.484375 56 46.34375 49.84375 
Q 52.203125 43.703125 52.203125 31.203125 
z
" id="DejaVuSans-61"/>
      <path d="M 52 44.1875 
Q 55.375 50.25 60.0625 53.125 
Q 64.75 56 71.09375 56 
Q 79.640625 56 84.28125 50.015625 
Q 88.921875 44.046875 88.921875 33.015625 
L 88.921875 0 
L 79.890625 0 
L 79.890625 32.71875 
Q 79.890625 40.578125 77.09375 44.375 
Q 74.3125 48.1875 68.609375 48.1875 
Q 61.625 48.1875 57.5625 43.546875 
Q 53.515625 38.921875 53.515625 30.90625 
L 53.515625 0 
L 44.484375 0 
L 44.484375 32.71875 
Q 44.484375 40.625 41.703125 44.40625 
Q 38.921875 48.1875 33.109375 48.1875 
Q 26.21875 48.1875 22.15625 43.53125 
Q 18.109375 38.875 18.109375 30.90625 
L 18.109375 0 
L 9.078125 0 
L 9.078125 54.6875 
L 18.109375 54.6875 
L 18.109375 46.1875 
Q 21.1875 51.21875 25.484375 53.609375 
Q 29.78125 56 35.6875 56 
Q 41.65625 56 45.828125 52.96875 
Q 50 49.953125 52 44.1875 
z
" id="DejaVuSans-6d"/>
      <path d="M 56.203125 29.59375 
L 56.203125 25.203125 
L 14.890625 25.203125 
Q 15.484375 15.921875 20.484375 11.0625 
Q 25.484375 6.203125 34.421875 6.203125 
Q 39.59375 6.203125 44.453125 7.46875 
Q 49.3125 8.734375 54.109375 11.28125 
L 54.109375 2.78125 
Q 49.265625 0.734375 44.1875 -0.34375 
Q 39.109375 -1.421875 33.890625 -1.421875 
Q 20.796875 -1.421875 13.15625 6.1875 
Q 5.515625 13.8125 5.515625 26.8125 
Q 5.515625 40.234375 12.765625 48.109375 
Q 20.015625 56 32.328125 56 
Q 43.359375 56 49.78125 48.890625 
Q 56.203125 41.796875 56.203125 29.59375 
z
M 47.21875 32.234375 
Q 47.125 39.59375 43.09375 43.984375 
Q 39.0625 48.390625 32.421875 48.390625 
Q 24.90625 48.390625 20.390625 44.140625 
Q 15.875 39.890625 15.1875 32.171875 
z
" id="DejaVuSans-65"/>
      <path id="DejaVuSans-20"/>
      <path d="M 51.125 44 
L 36.921875 44 
L 32.8125 27.6875 
L 47.125 27.6875 
z
M 43.796875 71.78125 
L 38.71875 51.515625 
L 52.984375 51.515625 
L 58.109375 71.78125 
L 65.921875 71.78125 
L 60.890625 51.515625 
L 76.125 51.515625 
L 76.125 44 
L 58.984375 44 
L 54.984375 27.6875 
L 70.515625 27.6875 
L 70.515625 20.21875 
L 53.078125 20.21875 
L 48 0 
L 40.1875 0 
L 45.21875 20.21875 
L 30.90625 20.21875 
L 25.875 0 
L 18.015625 0 
L 23.09375 20.21875 
L 7.71875 20.21875 
L 7.71875 27.6875 
L 24.90625 27.6875 
L 29 44 
L 13.28125 44 
L 13.28125 51.515625 
L 30.90625 51.515625 
L 35.890625 71.78125 
z
" id="DejaVuSans-23"/>
      <path d="M 8.59375 75.984375 
L 29.296875 75.984375 
L 29.296875 69 
L 17.578125 69 
L 17.578125 -6.203125 
L 29.296875 -6.203125 
L 29.296875 -13.1875 
L 8.59375 -13.1875 
z
" id="DejaVuSans-5b"/>
      <path d="M 30.421875 75.984375 
L 30.421875 -13.1875 
L 9.71875 -13.1875 
L 9.71875 -6.203125 
L 21.390625 -6.203125 
L 21.390625 69 
L 9.71875 69 
L 9.71875 75.984375 
z
" id="DejaVuSans-5d"/>
     </defs>
     <g transform="translate(210.063906 335.860562)scale(0.1 -0.1)">
      <use xlink:href="#DejaVuSans-66"/>
      <use x="35.205078" xlink:href="#DejaVuSans-72"/>
      <use x="76.318359" xlink:href="#DejaVuSans-61"/>
      <use x="137.597656" xlink:href="#DejaVuSans-6d"/>
      <use x="235.009766" xlink:href="#DejaVuSans-65"/>
      <use x="296.533203" xlink:href="#DejaVuSans-20"/>
      <use x="328.320312" xlink:href="#DejaVuSans-23"/>
      <use x="412.109375" xlink:href="#DejaVuSans-20"/>
      <use x="443.896484" xlink:href="#DejaVuSans-5b"/>
      <use x="482.910156" xlink:href="#DejaVuSans-5d"/>
     </g>
    </g>
   </g>
   <g id="matplotlib.axis_2">
    <g id="ytick_1">
     <g id="line2d_51">
      <path clip-path="url(#pa405246eb6)" d="M 57.6 284.235954 
L 414.72 284.235954 
" style="fill:none;stroke:#b0b0b0;stroke-linecap:square;stroke-width:0.8;"/>
     </g>
     <g id="line2d_52">
      <defs>
       <path d="M 0 0 
L -3.5 0 
" id="m4d8a43db43" style="stroke:#000000;stroke-width:0.8;"/>
      </defs>
      <g>
       <use style="stroke:#000000;stroke-width:0.8;" x="57.6" xlink:href="#m4d8a43db43" y="284.235954"/>
      </g>
     </g>
     <g id="text_7">
      <!-- −0.15 -->
      <defs>
       <path d="M 10.59375 35.5 
L 73.1875 35.5 
L 73.1875 27.203125 
L 10.59375 27.203125 
z
" id="DejaVuSans-2212"/>
       <path d="M 10.6875 12.40625 
L 21 12.40625 
L 21 0 
L 10.6875 0 
z
" id="DejaVuSans-2e"/>
       <path d="M 10.796875 72.90625 
L 49.515625 72.90625 
L 49.515625 64.59375 
L 19.828125 64.59375 
L 19.828125 46.734375 
Q 21.96875 47.46875 24.109375 47.828125 
Q 26.265625 48.1875 28.421875 48.1875 
Q 40.625 48.1875 47.75 41.5 
Q 54.890625 34.8125 54.890625 23.390625 
Q 54.890625 11.625 47.5625 5.09375 
Q 40.234375 -1.421875 26.90625 -1.421875 
Q 22.3125 -1.421875 17.546875 -0.640625 
Q 12.796875 0.140625 7.71875 1.703125 
L 7.71875 11.625 
Q 12.109375 9.234375 16.796875 8.0625 
Q 21.484375 6.890625 26.703125 6.890625 
Q 35.15625 6.890625 40.078125 11.328125 
Q 45.015625 15.765625 45.015625 23.390625 
Q 45.015625 31 40.078125 35.4375 
Q 35.15625 39.890625 26.703125 39.890625 
Q 22.75 39.890625 18.8125 39.015625 
Q 14.890625 38.140625 10.796875 36.28125 
z
" id="DejaVuSans-35"/>
      </defs>
      <g transform="translate(19.954687 288.035172)scale(0.1 -0.1)">
       <use xlink:href="#DejaVuSans-2212"/>
       <use x="83.789062" xlink:href="#DejaVuSans-30"/>
       <use x="147.412109" xlink:href="#DejaVuSans-2e"/>
       <use x="179.199219" xlink:href="#DejaVuSans-31"/>
       <use x="242.822266" xlink:href="#DejaVuSans-35"/>
      </g>
     </g>
    </g>
    <g id="ytick_2">
     <g id="line2d_53">
      <path clip-path="url(#pa405246eb6)" d="M 57.6 251.392247 
L 414.72 251.392247 
" style="fill:none;stroke:#b0b0b0;stroke-linecap:square;stroke-width:0.8;"/>
     </g>
     <g id="line2d_54">
      <g>
       <use style="stroke:#000000;stroke-width:0.8;" x="57.6" xlink:href="#m4d8a43db43" y="251.392247"/>
      </g>
     </g>
     <g id="text_8">
      <!-- −0.10 -->
      <g transform="translate(19.954687 255.191466)scale(0.1 -0.1)">
       <use xlink:href="#DejaVuSans-2212"/>
       <use x="83.789062" xlink:href="#DejaVuSans-30"/>
       <use x="147.412109" xlink:href="#DejaVuSans-2e"/>
       <use x="179.199219" xlink:href="#DejaVuSans-31"/>
       <use x="242.822266" xlink:href="#DejaVuSans-30"/>
      </g>
     </g>
    </g>
    <g id="ytick_3">
     <g id="line2d_55">
      <path clip-path="url(#pa405246eb6)" d="M 57.6 218.54854 
L 414.72 218.54854 
" style="fill:none;stroke:#b0b0b0;stroke-linecap:square;stroke-width:0.8;"/>
     </g>
     <g id="line2d_56">
      <g>
       <use style="stroke:#000000;stroke-width:0.8;" x="57.6" xlink:href="#m4d8a43db43" y="218.54854"/>
      </g>
     </g>
     <g id="text_9">
      <!-- −0.05 -->
      <g transform="translate(19.954687 222.347759)scale(0.1 -0.1)">
       <use xlink:href="#DejaVuSans-2212"/>
       <use x="83.789062" xlink:href="#DejaVuSans-30"/>
       <use x="147.412109" xlink:href="#DejaVuSans-2e"/>
       <use x="179.199219" xlink:href="#DejaVuSans-30"/>
       <use x="242.822266" xlink:href="#DejaVuSans-35"/>
      </g>
     </g>
    </g>
    <g id="ytick_4">
     <g id="line2d_57">
      <path clip-path="url(#pa405246eb6)" d="M 57.6 185.704833 
L 414.72 185.704833 
" style="fill:none;stroke:#b0b0b0;stroke-linecap:square;stroke-width:0.8;"/>
     </g>
     <g id="line2d_58">
      <g>
       <use style="stroke:#000000;stroke-width:0.8;" x="57.6" xlink:href="#m4d8a43db43" y="185.704833"/>
      </g>
     </g>
     <g id="text_10">
      <!-- 0.00 -->
      <g transform="translate(28.334375 189.504052)scale(0.1 -0.1)">
       <use xlink:href="#DejaVuSans-30"/>
       <use x="63.623047" xlink:href="#DejaVuSans-2e"/>
       <use x="95.410156" xlink:href="#DejaVuSans-30"/>
       <use x="159.033203" xlink:href="#DejaVuSans-30"/>
      </g>
     </g>
    </g>
    <g id="ytick_5">
     <g id="line2d_59">
      <path clip-path="url(#pa405246eb6)" d="M 57.6 152.861126 
L 414.72 152.861126 
" style="fill:none;stroke:#b0b0b0;stroke-linecap:square;stroke-width:0.8;"/>
     </g>
     <g id="line2d_60">
      <g>
       <use style="stroke:#000000;stroke-width:0.8;" x="57.6" xlink:href="#m4d8a43db43" y="152.861126"/>
      </g>
     </g>
     <g id="text_11">
      <!-- 0.05 -->
      <g transform="translate(28.334375 156.660345)scale(0.1 -0.1)">
       <use xlink:href="#DejaVuSans-30"/>
       <use x="63.623047" xlink:href="#DejaVuSans-2e"/>
       <use x="95.410156" xlink:href="#DejaVuSans-30"/>
       <use x="159.033203" xlink:href="#DejaVuSans-35"/>
      </g>
     </g>
    </g>
    <g id="ytick_6">
     <g id="line2d_61">
      <path clip-path="url(#pa405246eb6)" d="M 57.6 120.01742 
L 414.72 120.01742 
" style="fill:none;stroke:#b0b0b0;stroke-linecap:square;stroke-width:0.8;"/>
     </g>
     <g id="line2d_62">
      <g>
       <use style="stroke:#000000;stroke-width:0.8;" x="57.6" xlink:href="#m4d8a43db43" y="120.01742"/>
      </g>
     </g>
     <g id="text_12">
      <!-- 0.10 -->
      <g transform="translate(28.334375 123.816638)scale(0.1 -0.1)">
       <use xlink:href="#DejaVuSans-30"/>
       <use x="63.623047" xlink:href="#DejaVuSans-2e"/>
       <use x="95.410156" xlink:href="#DejaVuSans-31"/>
       <use x="159.033203" xlink:href="#DejaVuSans-30"/>
      </g>
     </g>
    </g>
    <g id="ytick_7">
     <g id="line2d_63">
      <path clip-path="url(#pa405246eb6)" d="M 57.6 87.173713 
L 414.72 87.173713 
" style="fill:none;stroke:#b0b0b0;stroke-linecap:square;stroke-width:0.8;"/>
     </g>
     <g id="line2d_64">
      <g>
       <use style="stroke:#000000;stroke-width:0.8;" x="57.6" xlink:href="#m4d8a43db43" y="87.173713"/>
      </g>
     </g>
     <g id="text_13">
      <!-- 0.15 -->
      <g transform="translate(28.334375 90.972932)scale(0.1 -0.1)">
       <use xlink:href="#DejaVuSans-30"/>
       <use x="63.623047" xlink:href="#DejaVuSans-2e"/>
       <use x="95.410156" xlink:href="#DejaVuSans-31"/>
       <use x="159.033203" xlink:href="#DejaVuSans-35"/>
      </g>
     </g>
    </g>
    <g id="ytick_8">
     <g id="line2d_65">
      <path clip-path="url(#pa405246eb6)" d="M 57.6 54.330006 
L 414.72 54.330006 
" style="fill:none;stroke:#b0b0b0;stroke-linecap:square;stroke-width:0.8;"/>
     </g>
     <g id="line2d_66">
      <g>
       <use style="stroke:#000000;stroke-width:0.8;" x="57.6" xlink:href="#m4d8a43db43" y="54.330006"/>
      </g>
     </g>
     <g id="text_14">
      <!-- 0.20 -->
      <g transform="translate(28.334375 58.129225)scale(0.1 -0.1)">
       <use xlink:href="#DejaVuSans-30"/>
       <use x="63.623047" xlink:href="#DejaVuSans-2e"/>
       <use x="95.410156" xlink:href="#DejaVuSans-32"/>
       <use x="159.033203" xlink:href="#DejaVuSans-30"/>
      </g>
     </g>
    </g>
    <g id="ytick_9">
     <g id="line2d_67">
      <path clip-path="url(#pa405246eb6)" d="M 57.6 303.942178 
L 414.72 303.942178 
" style="fill:none;stroke:#b0b0b0;stroke-linecap:square;stroke-width:0.8;"/>
     </g>
     <g id="line2d_68">
      <defs>
       <path d="M 0 0 
L -2 0 
" id="mebd73c3613" style="stroke:#000000;stroke-width:0.6;"/>
      </defs>
      <g>
       <use style="stroke:#000000;stroke-width:0.6;" x="57.6" xlink:href="#mebd73c3613" y="303.942178"/>
      </g>
     </g>
    </g>
    <g id="ytick_10">
     <g id="line2d_69">
      <path clip-path="url(#pa405246eb6)" d="M 57.6 297.373436 
L 414.72 297.373436 
" style="fill:none;stroke:#b0b0b0;stroke-linecap:square;stroke-width:0.8;"/>
     </g>
     <g id="line2d_70">
      <g>
       <use style="stroke:#000000;stroke-width:0.6;" x="57.6" xlink:href="#mebd73c3613" y="297.373436"/>
      </g>
     </g>
    </g>
    <g id="ytick_11">
     <g id="line2d_71">
      <path clip-path="url(#pa405246eb6)" d="M 57.6 290.804695 
L 414.72 290.804695 
" style="fill:none;stroke:#b0b0b0;stroke-linecap:square;stroke-width:0.8;"/>
     </g>
     <g id="line2d_72">
      <g>
       <use style="stroke:#000000;stroke-width:0.6;" x="57.6" xlink:href="#mebd73c3613" y="290.804695"/>
      </g>
     </g>
    </g>
    <g id="ytick_12">
     <g id="line2d_73">
      <path clip-path="url(#pa405246eb6)" d="M 57.6 277.667212 
L 414.72 277.667212 
" style="fill:none;stroke:#b0b0b0;stroke-linecap:square;stroke-width:0.8;"/>
     </g>
     <g id="line2d_74">
      <g>
       <use style="stroke:#000000;stroke-width:0.6;" x="57.6" xlink:href="#mebd73c3613" y="277.667212"/>
      </g>
     </g>
    </g>
    <g id="ytick_13">
     <g id="line2d_75">
      <path clip-path="url(#pa405246eb6)" d="M 57.6 271.098471 
L 414.72 271.098471 
" style="fill:none;stroke:#b0b0b0;stroke-linecap:square;stroke-width:0.8;"/>
     </g>
     <g id="line2d_76">
      <g>
       <use style="stroke:#000000;stroke-width:0.6;" x="57.6" xlink:href="#mebd73c3613" y="271.098471"/>
      </g>
     </g>
    </g>
    <g id="ytick_14">
     <g id="line2d_77">
      <path clip-path="url(#pa405246eb6)" d="M 57.6 264.52973 
L 414.72 264.52973 
" style="fill:none;stroke:#b0b0b0;stroke-linecap:square;stroke-width:0.8;"/>
     </g>
     <g id="line2d_78">
      <g>
       <use style="stroke:#000000;stroke-width:0.6;" x="57.6" xlink:href="#mebd73c3613" y="264.52973"/>
      </g>
     </g>
    </g>
    <g id="ytick_15">
     <g id="line2d_79">
      <path clip-path="url(#pa405246eb6)" d="M 57.6 257.960988 
L 414.72 257.960988 
" style="fill:none;stroke:#b0b0b0;stroke-linecap:square;stroke-width:0.8;"/>
     </g>
     <g id="line2d_80">
      <g>
       <use style="stroke:#000000;stroke-width:0.6;" x="57.6" xlink:href="#mebd73c3613" y="257.960988"/>
      </g>
     </g>
    </g>
    <g id="ytick_16">
     <g id="line2d_81">
      <path clip-path="url(#pa405246eb6)" d="M 57.6 244.823505 
L 414.72 244.823505 
" style="fill:none;stroke:#b0b0b0;stroke-linecap:square;stroke-width:0.8;"/>
     </g>
     <g id="line2d_82">
      <g>
       <use style="stroke:#000000;stroke-width:0.6;" x="57.6" xlink:href="#mebd73c3613" y="244.823505"/>
      </g>
     </g>
    </g>
    <g id="ytick_17">
     <g id="line2d_83">
      <path clip-path="url(#pa405246eb6)" d="M 57.6 238.254764 
L 414.72 238.254764 
" style="fill:none;stroke:#b0b0b0;stroke-linecap:square;stroke-width:0.8;"/>
     </g>
     <g id="line2d_84">
      <g>
       <use style="stroke:#000000;stroke-width:0.6;" x="57.6" xlink:href="#mebd73c3613" y="238.254764"/>
      </g>
     </g>
    </g>
    <g id="ytick_18">
     <g id="line2d_85">
      <path clip-path="url(#pa405246eb6)" d="M 57.6 231.686023 
L 414.72 231.686023 
" style="fill:none;stroke:#b0b0b0;stroke-linecap:square;stroke-width:0.8;"/>
     </g>
     <g id="line2d_86">
      <g>
       <use style="stroke:#000000;stroke-width:0.6;" x="57.6" xlink:href="#mebd73c3613" y="231.686023"/>
      </g>
     </g>
    </g>
    <g id="ytick_19">
     <g id="line2d_87">
      <path clip-path="url(#pa405246eb6)" d="M 57.6 225.117281 
L 414.72 225.117281 
" style="fill:none;stroke:#b0b0b0;stroke-linecap:square;stroke-width:0.8;"/>
     </g>
     <g id="line2d_88">
      <g>
       <use style="stroke:#000000;stroke-width:0.6;" x="57.6" xlink:href="#mebd73c3613" y="225.117281"/>
      </g>
     </g>
    </g>
    <g id="ytick_20">
     <g id="line2d_89">
      <path clip-path="url(#pa405246eb6)" d="M 57.6 211.979799 
L 414.72 211.979799 
" style="fill:none;stroke:#b0b0b0;stroke-linecap:square;stroke-width:0.8;"/>
     </g>
     <g id="line2d_90">
      <g>
       <use style="stroke:#000000;stroke-width:0.6;" x="57.6" xlink:href="#mebd73c3613" y="211.979799"/>
      </g>
     </g>
    </g>
    <g id="ytick_21">
     <g id="line2d_91">
      <path clip-path="url(#pa405246eb6)" d="M 57.6 205.411057 
L 414.72 205.411057 
" style="fill:none;stroke:#b0b0b0;stroke-linecap:square;stroke-width:0.8;"/>
     </g>
     <g id="line2d_92">
      <g>
       <use style="stroke:#000000;stroke-width:0.6;" x="57.6" xlink:href="#mebd73c3613" y="205.411057"/>
      </g>
     </g>
    </g>
    <g id="ytick_22">
     <g id="line2d_93">
      <path clip-path="url(#pa405246eb6)" d="M 57.6 198.842316 
L 414.72 198.842316 
" style="fill:none;stroke:#b0b0b0;stroke-linecap:square;stroke-width:0.8;"/>
     </g>
     <g id="line2d_94">
      <g>
       <use style="stroke:#000000;stroke-width:0.6;" x="57.6" xlink:href="#mebd73c3613" y="198.842316"/>
      </g>
     </g>
    </g>
    <g id="ytick_23">
     <g id="line2d_95">
      <path clip-path="url(#pa405246eb6)" d="M 57.6 192.273575 
L 414.72 192.273575 
" style="fill:none;stroke:#b0b0b0;stroke-linecap:square;stroke-width:0.8;"/>
     </g>
     <g id="line2d_96">
      <g>
       <use style="stroke:#000000;stroke-width:0.6;" x="57.6" xlink:href="#mebd73c3613" y="192.273575"/>
      </g>
     </g>
    </g>
    <g id="ytick_24">
     <g id="line2d_97">
      <path clip-path="url(#pa405246eb6)" d="M 57.6 179.136092 
L 414.72 179.136092 
" style="fill:none;stroke:#b0b0b0;stroke-linecap:square;stroke-width:0.8;"/>
     </g>
     <g id="line2d_98">
      <g>
       <use style="stroke:#000000;stroke-width:0.6;" x="57.6" xlink:href="#mebd73c3613" y="179.136092"/>
      </g>
     </g>
    </g>
    <g id="ytick_25">
     <g id="line2d_99">
      <path clip-path="url(#pa405246eb6)" d="M 57.6 172.567351 
L 414.72 172.567351 
" style="fill:none;stroke:#b0b0b0;stroke-linecap:square;stroke-width:0.8;"/>
     </g>
     <g id="line2d_100">
      <g>
       <use style="stroke:#000000;stroke-width:0.6;" x="57.6" xlink:href="#mebd73c3613" y="172.567351"/>
      </g>
     </g>
    </g>
    <g id="ytick_26">
     <g id="line2d_101">
      <path clip-path="url(#pa405246eb6)" d="M 57.6 165.998609 
L 414.72 165.998609 
" style="fill:none;stroke:#b0b0b0;stroke-linecap:square;stroke-width:0.8;"/>
     </g>
     <g id="line2d_102">
      <g>
       <use style="stroke:#000000;stroke-width:0.6;" x="57.6" xlink:href="#mebd73c3613" y="165.998609"/>
      </g>
     </g>
    </g>
    <g id="ytick_27">
     <g id="line2d_103">
      <path clip-path="url(#pa405246eb6)" d="M 57.6 159.429868 
L 414.72 159.429868 
" style="fill:none;stroke:#b0b0b0;stroke-linecap:square;stroke-width:0.8;"/>
     </g>
     <g id="line2d_104">
      <g>
       <use style="stroke:#000000;stroke-width:0.6;" x="57.6" xlink:href="#mebd73c3613" y="159.429868"/>
      </g>
     </g>
    </g>
    <g id="ytick_28">
     <g id="line2d_105">
      <path clip-path="url(#pa405246eb6)" d="M 57.6 146.292385 
L 414.72 146.292385 
" style="fill:none;stroke:#b0b0b0;stroke-linecap:square;stroke-width:0.8;"/>
     </g>
     <g id="line2d_106">
      <g>
       <use style="stroke:#000000;stroke-width:0.6;" x="57.6" xlink:href="#mebd73c3613" y="146.292385"/>
      </g>
     </g>
    </g>
    <g id="ytick_29">
     <g id="line2d_107">
      <path clip-path="url(#pa405246eb6)" d="M 57.6 139.723644 
L 414.72 139.723644 
" style="fill:none;stroke:#b0b0b0;stroke-linecap:square;stroke-width:0.8;"/>
     </g>
     <g id="line2d_108">
      <g>
       <use style="stroke:#000000;stroke-width:0.6;" x="57.6" xlink:href="#mebd73c3613" y="139.723644"/>
      </g>
     </g>
    </g>
    <g id="ytick_30">
     <g id="line2d_109">
      <path clip-path="url(#pa405246eb6)" d="M 57.6 133.154902 
L 414.72 133.154902 
" style="fill:none;stroke:#b0b0b0;stroke-linecap:square;stroke-width:0.8;"/>
     </g>
     <g id="line2d_110">
      <g>
       <use style="stroke:#000000;stroke-width:0.6;" x="57.6" xlink:href="#mebd73c3613" y="133.154902"/>
      </g>
     </g>
    </g>
    <g id="ytick_31">
     <g id="line2d_111">
      <path clip-path="url(#pa405246eb6)" d="M 57.6 126.586161 
L 414.72 126.586161 
" style="fill:none;stroke:#b0b0b0;stroke-linecap:square;stroke-width:0.8;"/>
     </g>
     <g id="line2d_112">
      <g>
       <use style="stroke:#000000;stroke-width:0.6;" x="57.6" xlink:href="#mebd73c3613" y="126.586161"/>
      </g>
     </g>
    </g>
    <g id="ytick_32">
     <g id="line2d_113">
      <path clip-path="url(#pa405246eb6)" d="M 57.6 113.448678 
L 414.72 113.448678 
" style="fill:none;stroke:#b0b0b0;stroke-linecap:square;stroke-width:0.8;"/>
     </g>
     <g id="line2d_114">
      <g>
       <use style="stroke:#000000;stroke-width:0.6;" x="57.6" xlink:href="#mebd73c3613" y="113.448678"/>
      </g>
     </g>
    </g>
    <g id="ytick_33">
     <g id="line2d_115">
      <path clip-path="url(#pa405246eb6)" d="M 57.6 106.879937 
L 414.72 106.879937 
" style="fill:none;stroke:#b0b0b0;stroke-linecap:square;stroke-width:0.8;"/>
     </g>
     <g id="line2d_116">
      <g>
       <use style="stroke:#000000;stroke-width:0.6;" x="57.6" xlink:href="#mebd73c3613" y="106.879937"/>
      </g>
     </g>
    </g>
    <g id="ytick_34">
     <g id="line2d_117">
      <path clip-path="url(#pa405246eb6)" d="M 57.6 100.311196 
L 414.72 100.311196 
" style="fill:none;stroke:#b0b0b0;stroke-linecap:square;stroke-width:0.8;"/>
     </g>
     <g id="line2d_118">
      <g>
       <use style="stroke:#000000;stroke-width:0.6;" x="57.6" xlink:href="#mebd73c3613" y="100.311196"/>
      </g>
     </g>
    </g>
    <g id="ytick_35">
     <g id="line2d_119">
      <path clip-path="url(#pa405246eb6)" d="M 57.6 93.742454 
L 414.72 93.742454 
" style="fill:none;stroke:#b0b0b0;stroke-linecap:square;stroke-width:0.8;"/>
     </g>
     <g id="line2d_120">
      <g>
       <use style="stroke:#000000;stroke-width:0.6;" x="57.6" xlink:href="#mebd73c3613" y="93.742454"/>
      </g>
     </g>
    </g>
    <g id="ytick_36">
     <g id="line2d_121">
      <path clip-path="url(#pa405246eb6)" d="M 57.6 80.604972 
L 414.72 80.604972 
" style="fill:none;stroke:#b0b0b0;stroke-linecap:square;stroke-width:0.8;"/>
     </g>
     <g id="line2d_122">
      <g>
       <use style="stroke:#000000;stroke-width:0.6;" x="57.6" xlink:href="#mebd73c3613" y="80.604972"/>
      </g>
     </g>
    </g>
    <g id="ytick_37">
     <g id="line2d_123">
      <path clip-path="url(#pa405246eb6)" d="M 57.6 74.03623 
L 414.72 74.03623 
" style="fill:none;stroke:#b0b0b0;stroke-linecap:square;stroke-width:0.8;"/>
     </g>
     <g id="line2d_124">
      <g>
       <use style="stroke:#000000;stroke-width:0.6;" x="57.6" xlink:href="#mebd73c3613" y="74.03623"/>
      </g>
     </g>
    </g>
    <g id="ytick_38">
     <g id="line2d_125">
      <path clip-path="url(#pa405246eb6)" d="M 57.6 67.467489 
L 414.72 67.467489 
" style="fill:none;stroke:#b0b0b0;stroke-linecap:square;stroke-width:0.8;"/>
     </g>
     <g id="line2d_126">
      <g>
       <use style="stroke:#000000;stroke-width:0.6;" x="57.6" xlink:href="#mebd73c3613" y="67.467489"/>
      </g>
     </g>
    </g>
    <g id="ytick_39">
     <g id="line2d_127">
      <path clip-path="url(#pa405246eb6)" d="M 57.6 60.898747 
L 414.72 60.898747 
" style="fill:none;stroke:#b0b0b0;stroke-linecap:square;stroke-width:0.8;"/>
     </g>
     <g id="line2d_128">
      <g>
       <use style="stroke:#000000;stroke-width:0.6;" x="57.6" xlink:href="#mebd73c3613" y="60.898747"/>
      </g>
     </g>
    </g>
    <g id="ytick_40">
     <g id="line2d_129">
      <path clip-path="url(#pa405246eb6)" d="M 57.6 47.761265 
L 414.72 47.761265 
" style="fill:none;stroke:#b0b0b0;stroke-linecap:square;stroke-width:0.8;"/>
     </g>
     <g id="line2d_130">
      <g>
       <use style="stroke:#000000;stroke-width:0.6;" x="57.6" xlink:href="#mebd73c3613" y="47.761265"/>
      </g>
     </g>
    </g>
    <g id="text_15">
     <!-- trans x -->
     <defs>
      <path d="M 18.3125 70.21875 
L 18.3125 54.6875 
L 36.8125 54.6875 
L 36.8125 47.703125 
L 18.3125 47.703125 
L 18.3125 18.015625 
Q 18.3125 11.328125 20.140625 9.421875 
Q 21.96875 7.515625 27.59375 7.515625 
L 36.8125 7.515625 
L 36.8125 0 
L 27.59375 0 
Q 17.1875 0 13.234375 3.875 
Q 9.28125 7.765625 9.28125 18.015625 
L 9.28125 47.703125 
L 2.6875 47.703125 
L 2.6875 54.6875 
L 9.28125 54.6875 
L 9.28125 70.21875 
z
" id="DejaVuSans-74"/>
      <path d="M 54.890625 33.015625 
L 54.890625 0 
L 45.90625 0 
L 45.90625 32.71875 
Q 45.90625 40.484375 42.875 44.328125 
Q 39.84375 48.1875 33.796875 48.1875 
Q 26.515625 48.1875 22.3125 43.546875 
Q 18.109375 38.921875 18.109375 30.90625 
L 18.109375 0 
L 9.078125 0 
L 9.078125 54.6875 
L 18.109375 54.6875 
L 18.109375 46.1875 
Q 21.34375 51.125 25.703125 53.5625 
Q 30.078125 56 35.796875 56 
Q 45.21875 56 50.046875 50.171875 
Q 54.890625 44.34375 54.890625 33.015625 
z
" id="DejaVuSans-6e"/>
      <path d="M 44.28125 53.078125 
L 44.28125 44.578125 
Q 40.484375 46.53125 36.375 47.5 
Q 32.28125 48.484375 27.875 48.484375 
Q 21.1875 48.484375 17.84375 46.4375 
Q 14.5 44.390625 14.5 40.28125 
Q 14.5 37.15625 16.890625 35.375 
Q 19.28125 33.59375 26.515625 31.984375 
L 29.59375 31.296875 
Q 39.15625 29.25 43.1875 25.515625 
Q 47.21875 21.78125 47.21875 15.09375 
Q 47.21875 7.46875 41.1875 3.015625 
Q 35.15625 -1.421875 24.609375 -1.421875 
Q 20.21875 -1.421875 15.453125 -0.5625 
Q 10.6875 0.296875 5.421875 2 
L 5.421875 11.28125 
Q 10.40625 8.6875 15.234375 7.390625 
Q 20.0625 6.109375 24.8125 6.109375 
Q 31.15625 6.109375 34.5625 8.28125 
Q 37.984375 10.453125 37.984375 14.40625 
Q 37.984375 18.0625 35.515625 20.015625 
Q 33.0625 21.96875 24.703125 23.78125 
L 21.578125 24.515625 
Q 13.234375 26.265625 9.515625 29.90625 
Q 5.8125 33.546875 5.8125 39.890625 
Q 5.8125 47.609375 11.28125 51.796875 
Q 16.75 56 26.8125 56 
Q 31.78125 56 36.171875 55.265625 
Q 40.578125 54.546875 44.28125 53.078125 
z
" id="DejaVuSans-73"/>
      <path d="M 54.890625 54.6875 
L 35.109375 28.078125 
L 55.90625 0 
L 45.3125 0 
L 29.390625 21.484375 
L 13.484375 0 
L 2.875 0 
L 24.125 28.609375 
L 4.6875 54.6875 
L 15.28125 54.6875 
L 29.78125 35.203125 
L 44.28125 54.6875 
z
" id="DejaVuSans-78"/>
     </defs>
     <g transform="translate(13.875 191.929563)rotate(-90)scale(0.1 -0.1)">
      <use xlink:href="#DejaVuSans-74"/>
      <use x="39.208984" xlink:href="#DejaVuSans-72"/>
      <use x="80.322266" xlink:href="#DejaVuSans-61"/>
      <use x="141.601562" xlink:href="#DejaVuSans-6e"/>
      <use x="204.980469" xlink:href="#DejaVuSans-73"/>
      <use x="257.080078" xlink:href="#DejaVuSans-20"/>
      <use x="288.867188" xlink:href="#DejaVuSans-78"/>
     </g>
    </g>
   </g>
   <g id="line2d_131">
    <path clip-path="url(#pa405246eb6)" d="M 73.832727 165.69417 
L 74.524971 162.305863 
L 75.217208 162.530306 
L 75.90628 162.319023 
L 76.598517 153.803305 
L 77.290754 154.833188 
L 77.982991 149.587011 
L 78.6751 152.803977 
L 79.367337 147.70945 
L 80.059581 141.379391 
L 81.446481 142.937671 
L 82.138725 145.912954 
L 82.830962 143.426711 
L 83.523199 136.671371 
L 84.216653 142.682915 
L 84.908883 143.470622 
L 85.601147 137.142599 
L 86.293364 135.320931 
L 86.985656 137.409762 
L 88.367373 129.483321 
L 89.751847 130.405338 
L 90.441987 141.741671 
L 91.13423 132.850123 
L 91.826467 132.696788 
L 92.518705 124.42301 
L 93.902011 90.157206 
L 95.286491 81.246608 
L 95.979336 86.513781 
L 96.671581 110.451972 
L 97.363819 130.152039 
L 98.056056 160.271616 
L 98.749362 198.391982 
L 99.44205 207.467445 
L 100.133837 222.281815 
L 100.826074 229.034628 
L 101.516997 204.787236 
L 102.209241 198.25667 
L 102.901478 180.657188 
L 103.593715 167.697926 
L 104.284797 150.478395 
L 105.669272 101.309853 
L 106.361509 86.375417 
L 107.05535 91.572618 
L 107.747587 109.860816 
L 108.439825 122.220076 
L 109.132062 175.002065 
L 109.824962 206.241493 
L 110.517208 223.790254 
L 111.209437 249.269802 
L 111.901674 264.495178 
L 112.593675 269.682129 
L 113.285912 261.018845 
L 113.978149 258.850489 
L 114.670387 258.143723 
L 115.361972 260.019666 
L 116.746446 275.266685 
L 117.438683 272.152452 
L 118.130907 274.140203 
L 118.823151 273.551951 
L 119.515395 267.834487 
L 120.207625 251.369314 
L 120.899869 227.879937 
L 121.594579 200.148565 
L 122.97906 154.984237 
L 123.67129 152.893985 
L 124.363909 157.100401 
L 125.056146 162.520044 
L 125.748383 207.744743 
L 126.44062 228.644704 
L 127.129632 265.3894 
L 127.82187 272.4922 
L 128.514107 286.691102 
L 129.206344 292.144735 
L 129.89967 281.90926 
L 131.284145 233.506927 
L 133.363058 156.206364 
L 134.055295 158.022464 
L 134.747532 149.19866 
L 135.437802 161.088441 
L 136.130039 189.175702 
L 136.822277 172.461504 
L 137.514514 183.721321 
L 138.204709 196.890562 
L 138.896947 212.875899 
L 139.589184 216.463719 
L 140.281421 228.732827 
L 140.976101 227.388321 
L 141.668336 215.070509 
L 143.05281 171.36248 
L 143.744756 124.046489 
L 144.436993 122.884571 
L 145.821474 97.455914 
L 146.511257 96.540414 
L 147.203494 97.784452 
L 147.895731 92.72797 
L 148.588378 106.451054 
L 149.281455 83.25953 
L 149.973692 81.987573 
L 150.665929 95.333534 
L 151.358166 113.748295 
L 152.743731 167.871825 
L 153.435969 199.573491 
L 154.128206 219.708111 
L 154.820443 217.367715 
L 155.510224 212.747058 
L 156.20247 231.158981 
L 156.894699 244.627884 
L 157.586944 240.701615 
L 158.97158 245.749228 
L 159.663852 234.534879 
L 160.356055 227.335792 
L 161.051271 193.769891 
L 161.743508 173.977452 
L 162.435745 142.976651 
L 163.127989 129.805662 
L 163.818557 112.892748 
L 164.510795 122.909113 
L 165.203032 104.223611 
L 165.895269 104.476192 
L 166.586145 94.364073 
L 167.278382 90.847895 
L 167.970626 88.895108 
L 168.662863 80.352913 
L 169.356457 80.196673 
L 170.048694 88.971209 
L 170.740931 105.64192 
L 173.510286 207.590835 
L 174.202529 210.108714 
L 174.892987 218.902138 
L 175.585225 225.77911 
L 176.277462 237.131955 
L 176.969699 231.875154 
L 177.662487 240.160436 
L 178.354724 229.516271 
L 179.046962 224.669603 
L 179.739205 209.114966 
L 180.434067 209.383818 
L 181.126297 189.274108 
L 181.818534 161.908434 
L 182.510778 143.191113 
L 183.200632 132.38621 
L 183.892876 119.188284 
L 184.585113 108.535907 
L 185.2776 131.288754 
L 185.969588 99.602968 
L 186.661455 123.73682 
L 187.353692 117.845422 
L 188.045929 138.818693 
L 188.738167 164.72083 
M 191.509762 263.858953 
L 192.199235 231.010145 
L 192.891481 267.166426 
L 193.583718 264.645877 
L 194.275953 295.488 
L 194.967935 294.497442 
L 195.660172 294.738853 
L 196.352409 282.974076 
L 197.044646 278.238464 
L 197.738917 264.511157 
L 199.123391 211.518047 
L 199.815628 178.775528 
L 200.508823 158.503738 
L 201.20106 143.876718 
L 201.893304 156.375228 
L 202.585541 161.626962 
L 203.275538 198.725326 
L 203.967776 197.995643 
L 204.660013 247.262582 
L 205.35225 257.855221 
L 206.044672 275.674587 
L 206.736909 275.114569 
L 207.429146 261.829588 
L 208.121383 238.822226 
L 208.815873 220.284773 
L 209.50811 193.245644 
L 210.200348 158.195304 
L 210.892585 147.905252 
L 211.583861 133.623241 
L 212.276099 128.181758 
L 212.968342 108.800628 
L 213.66058 81.217541 
L 215.044156 53.568 
L 215.736393 54.407422 
L 216.428631 71.956795 
L 217.814995 133.002047 
L 218.507232 188.978189 
L 219.199469 211.349298 
L 219.891706 243.711418 
L 220.58497 264.58661 
L 221.277214 273.036758 
L 221.969824 268.568035 
L 222.661681 276.470809 
L 223.354881 255.323806 
L 226.123329 115.316964 
L 227.507804 68.495837 
L 228.200041 65.137463 
L 228.892598 78.067892 
L 229.584835 101.290448 
L 230.96931 163.816368 
L 231.661953 180.99126 
L 232.35419 208.55519 
L 233.046427 220.581163 
L 233.738664 222.471864 
L 234.434318 233.386084 
L 235.126562 238.736938 
L 235.818799 235.493913 
L 236.511036 225.263707 
L 237.205725 220.218367 
L 238.5902 183.354771 
L 239.282437 196.943497 
L 239.966295 168.008602 
L 240.658539 214.058547 
L 241.350776 233.355476 
L 242.043013 256.996401 
L 242.735331 275.958071 
L 243.427569 283.692308 
L 244.119806 281.093089 
L 244.812043 262.19175 
L 246.197214 234.445556 
L 246.889449 208.950937 
L 248.967115 159.307012 
L 250.351589 144.627973 
L 251.043826 155.040487 
L 251.736771 157.556403 
L 252.429009 169.785985 
L 253.121246 186.317818 
L 253.81349 214.809043 
L 254.500718 277.651493 
L 255.192947 242.837567 
L 255.885192 244.405211 
L 256.577429 262.216294 
L 257.269926 268.439654 
L 257.962163 278.359629 
L 258.6544 285.59235 
L 259.346637 282.307712 
L 260.040695 271.30275 
L 261.425169 242.650945 
L 262.80931 197.802338 
L 263.501547 170.719518 
L 264.193784 163.160399 
L 264.886021 125.688201 
L 265.576308 132.995452 
L 266.268553 111.261056 
L 266.960791 117.543939 
L 267.653028 120.337973 
L 269.03705 90.194065 
L 270.421524 105.641081 
L 271.116285 132.467116 
L 271.808522 171.446557 
L 272.500759 138.89297 
L 273.192996 169.230179 
L 273.886626 172.588495 
L 274.578864 174.336424 
M 279.422083 167.223868 
L 280.11432 146.722074 
L 280.806557 138.782281 
M 282.885262 155.252782 
L 283.576905 173.102973 
L 284.269143 148.55277 
L 284.961386 172.751985 
L 285.652297 182.498301 
M 287.036771 172.354221 
L 287.729008 203.266382 
M 291.190092 176.022508 
L 291.882329 158.862034 
M 297.420548 204.313609 
L 298.112785 241.698058 
L 298.805022 234.710007 
M 305.72952 233.700308 
L 306.421757 254.254103 
L 307.114493 251.637725 
L 307.804746 231.834323 
L 308.496983 195.656113 
L 309.18922 229.930936 
M 315.42021 249.023718 
L 316.112447 251.996998 
L 316.803859 257.859927 
L 317.496096 232.382589 
L 318.188333 212.425807 
L 318.880571 221.216478 
M 320.961058 150.923911 
L 321.653295 130.123582 
M 323.034614 104.552506 
L 323.726858 103.740774 
L 324.419095 113.754274 
L 325.112821 130.840296 
L 326.497302 178.168412 
M 327.884744 184.217414 
L 328.576974 171.818854 
L 329.269218 143.395461 
L 329.961455 132.11937 
L 330.653469 124.725629 
L 331.346218 127.718324 
L 332.037944 124.021159 
L 332.730181 126.120772 
L 333.422638 136.048167 
L 334.114875 149.954327 
L 334.807119 166.667729 
M 337.575094 188.002181 
L 338.267337 145.746478 
L 338.959426 152.103124 
L 339.651661 149.115 
L 340.343899 164.449402 
L 341.036136 173.500386 
L 342.418955 215.741737 
L 343.803429 241.15638 
L 345.18517 243.074536 
L 345.877414 221.574889 
L 346.569651 196.559721 
L 347.262064 208.538609 
L 347.953989 178.781194 
L 348.646226 173.364149 
M 351.414505 226.816271 
L 352.106742 223.839845 
L 352.798979 227.476431 
L 354.184019 239.235203 
L 354.87625 220.748141 
L 355.569124 238.928949 
M 358.33989 195.507737 
L 359.029714 179.379518 
L 359.721951 178.64176 
M 361.799274 151.09312 
L 362.491511 192.366549 
L 363.183748 186.892052 
L 363.875985 211.658713 
M 365.952863 198.241155 
L 366.6451 204.89758 
L 367.338052 184.921934 
L 368.030296 182.335989 
L 368.722533 163.555269 
L 369.41477 148.206609 
L 370.107983 136.253302 
L 370.80022 135.996287 
L 371.492457 135.355907 
M 372.877912 161.426616 
L 373.570157 156.340281 
L 374.262395 165.642327 
L 374.95463 157.896215 
M 377.032291 148.574369 
L 377.724534 141.400034 
M 380.492239 144.312068 
L 381.184476 131.826181 
M 382.568336 158.110443 
L 383.260573 178.969668 
L 383.952811 177.899272 
L 384.644637 171.661427 
L 385.336874 192.736459 
L 386.029111 155.905297 
L 386.721348 199.338799 
M 388.104412 191.734807 
L 388.796657 190.852812 
L 389.488894 209.797433 
L 390.179932 205.646463 
L 390.872169 202.648424 
L 391.564426 203.572856 
M 395.717867 196.397177 
L 396.410104 192.585567 
L 396.410104 192.585567 
" style="fill:none;stroke:#ff0000;stroke-linecap:square;"/>
   </g>
   <g id="line2d_132">
    <path clip-path="url(#pa405246eb6)" d="M 73.832727 161.457367 
L 74.524971 161.977787 
L 75.217208 161.655612 
L 75.90628 158.141616 
L 76.598517 156.672866 
L 77.982991 151.542487 
L 78.6751 150.79492 
L 79.367337 148.617843 
L 80.059581 145.347752 
L 80.751818 144.764336 
L 82.138725 145.169659 
L 82.830962 144.880164 
L 83.523199 142.870393 
L 84.216653 143.970419 
L 84.908883 142.507143 
L 85.601147 140.267996 
L 86.293364 136.605726 
L 86.985656 133.997551 
L 87.675135 133.578347 
L 88.367373 132.396312 
L 89.05961 132.776109 
L 89.751847 131.883306 
L 90.441987 133.928529 
L 91.13423 132.565474 
L 91.826467 133.201682 
L 92.518705 124.154598 
L 93.902011 93.30122 
L 94.594254 85.469492 
L 95.286491 80.910295 
L 95.979336 89.149491 
L 97.363819 134.410821 
L 99.44205 197.555336 
L 100.133837 211.395687 
L 100.826074 214.665326 
L 101.516997 206.405284 
L 102.901478 178.701708 
L 104.284797 150.252438 
L 104.977035 129.517802 
L 105.669272 105.370033 
L 106.361509 90.269746 
L 107.05535 89.91234 
L 107.747587 98.870967 
L 108.439825 125.992706 
L 109.824962 196.561481 
L 111.209437 246.659156 
L 111.901674 264.440327 
L 112.593675 269.906002 
L 113.285912 262.704045 
L 113.978149 259.179181 
L 114.670387 258.168436 
L 115.361972 257.928495 
L 116.054209 263.215878 
L 116.746446 271.135683 
L 117.438683 274.111123 
L 118.130907 271.204145 
L 118.823151 270.888243 
L 119.515395 265.845697 
L 120.207625 251.903688 
L 121.594579 210.780541 
L 122.286816 185.290661 
L 122.97906 168.352886 
L 123.67129 163.825226 
L 124.363909 166.939803 
L 125.056146 180.142288 
L 125.748383 202.237164 
L 126.44062 229.535018 
L 127.82187 270.295708 
L 128.514107 286.074281 
L 129.206344 291.235302 
L 129.89967 281.011115 
L 130.591908 262.670367 
L 132.670814 184.422917 
L 133.363058 167.592481 
L 134.055295 157.220872 
L 134.747532 155.197544 
L 135.437802 161.806793 
L 137.514514 185.677494 
L 138.204709 198.045979 
L 140.281421 228.652341 
L 140.976101 229.189389 
L 141.668336 215.619551 
L 143.05281 171.447686 
L 144.436993 121.308589 
L 145.129236 104.004587 
L 145.821474 95.708477 
L 146.511257 95.798215 
L 147.203494 100.472051 
L 147.895731 102.708541 
L 148.588378 96.376863 
L 149.281455 86.736967 
L 149.973692 82.806593 
L 150.665929 91.122277 
L 151.358166 111.736248 
L 152.743731 168.403272 
L 153.435969 195.89188 
L 154.128206 211.816607 
L 154.820443 220.550487 
L 155.510224 224.630451 
L 156.20247 225.983411 
L 156.894699 226.634591 
L 157.586944 229.905041 
L 158.279343 235.121444 
L 158.97158 237.217638 
L 159.663852 233.161387 
L 160.356055 219.617173 
L 162.435745 144.861631 
L 163.127989 124.891421 
L 163.818557 111.168877 
L 164.510795 106.099899 
L 165.203032 103.632526 
L 165.895269 105.47014 
L 166.586145 105.983275 
L 168.662863 79.1756 
L 169.356457 80.145334 
L 170.048694 89.919378 
L 170.740931 106.281392 
L 173.510286 200.952639 
L 174.202529 211.972401 
L 174.892987 220.020438 
L 175.585225 224.839064 
L 176.277462 226.170674 
L 176.969699 225.307623 
L 177.662487 224.028761 
L 178.354724 224.372162 
L 179.046962 221.967563 
L 179.739205 212.983835 
L 182.510778 143.593087 
L 183.892876 119.332694 
L 184.585113 111.467593 
L 185.2776 110.024253 
L 185.969588 105.619266 
L 186.661455 109.697935 
L 187.353692 118.324431 
L 188.738167 154.587359 
M 191.509762 262.260996 
L 192.199235 262.571753 
L 192.891481 264.06892 
L 193.583718 267.809884 
L 194.275953 276.329562 
L 195.660172 286.729586 
L 196.352409 288.151668 
L 197.044646 279.074892 
L 197.738917 261.81184 
L 198.431154 239.223625 
L 199.815628 187.916503 
L 200.508823 168.726665 
L 201.20106 160.597447 
L 201.893304 159.162445 
L 202.585541 167.429459 
L 203.275538 181.914938 
L 203.967776 204.40134 
L 205.35225 259.908532 
L 206.044672 275.000975 
L 206.736909 278.184415 
L 207.429146 267.227089 
L 208.121383 243.811489 
L 209.50811 190.228624 
L 210.892585 146.704435 
L 211.583861 132.174626 
L 212.276099 122.510901 
L 212.968342 108.883445 
L 215.044156 54.491324 
L 215.736393 54.661262 
L 216.428631 71.354471 
L 217.120874 98.323087 
L 217.814995 131.038451 
L 219.891706 243.832288 
L 220.58497 265.77243 
L 221.277214 274.25667 
L 221.969824 273.476224 
L 222.661681 265.027692 
L 223.354881 247.021606 
L 224.739362 185.453869 
L 226.815566 90.680966 
L 227.507804 68.050666 
L 228.200041 64.058621 
L 228.892598 78.491275 
L 229.584835 99.705385 
L 231.661953 175.508896 
L 232.35419 196.04706 
L 233.046427 211.319048 
L 233.738664 222.162457 
L 235.126562 238.858363 
L 235.818799 238.916096 
L 236.511036 229.817158 
L 237.897963 202.359017 
L 238.5902 196.260625 
L 239.282437 196.798992 
L 239.966295 200.30081 
L 240.658539 211.68317 
L 241.350776 230.667231 
L 242.735331 276.661435 
L 243.427569 286.12796 
L 244.119806 281.525693 
L 245.504977 246.412738 
L 247.581686 193.238793 
L 248.967115 164.568817 
L 249.659352 155.439559 
L 250.351589 150.733755 
L 251.043826 150.710774 
L 251.736771 159.690117 
L 253.81349 210.898518 
L 255.192947 233.440142 
L 256.577429 252.933914 
L 257.962163 278.269092 
L 258.6544 284.70081 
L 259.346637 282.603953 
L 260.040695 273.146582 
L 261.425169 238.938573 
L 263.501547 179.215776 
L 265.576308 128.147793 
L 266.268553 112.594035 
L 266.960791 102.873012 
L 267.653028 97.296743 
L 268.344813 93.383511 
L 269.03705 90.167095 
L 269.729287 94.723971 
L 271.116285 121.169134 
L 271.808522 130.010399 
L 273.192996 152.625116 
L 273.886626 166.202948 
L 274.578864 172.203987 
M 279.422083 156.978165 
L 280.11432 156.280464 
L 280.806557 148.602202 
M 282.885262 129.75251 
L 283.576905 137.596598 
L 285.652297 174.008062 
M 287.036771 168.440497 
L 287.729008 163.172903 
M 291.190092 168.949128 
L 291.882329 163.998399 
M 297.420548 233.563209 
L 298.112785 236.373221 
L 298.805022 234.13384 
M 305.72952 231.308438 
L 306.421757 247.903633 
L 307.114493 253.961075 
L 307.804746 247.994941 
L 308.496983 241.013572 
L 309.18922 226.923428 
M 315.42021 241.4402 
L 316.112447 246.989678 
L 316.803859 246.62448 
L 317.496096 242.153298 
L 318.188333 234.789048 
L 318.880571 218.042559 
M 320.961058 148.541347 
L 321.653295 128.40211 
M 323.034614 101.409878 
L 323.726858 101.812146 
L 324.419095 111.138673 
L 325.112821 125.993944 
L 325.805058 149.104421 
L 326.497302 167.393119 
M 327.884744 175.324959 
L 329.269218 150.928651 
L 329.961455 134.660387 
L 330.653469 128.284659 
L 331.346218 126.627391 
L 332.037944 124.566972 
L 332.730181 129.172691 
L 333.422638 138.214089 
L 334.114875 145.414571 
L 334.807119 165.369973 
M 337.575094 165.954894 
L 338.267337 151.354283 
L 338.959426 146.526199 
L 339.651661 151.294423 
L 341.036136 175.418699 
L 341.726718 197.294117 
L 342.418955 215.042668 
L 343.111192 228.073355 
L 343.803429 235.208062 
L 344.492933 237.109481 
L 345.18517 228.470885 
L 346.569651 201.893675 
L 347.262064 191.474329 
L 347.953989 186.792085 
L 348.646226 187.442787 
M 351.414505 225.81349 
L 352.106742 234.462593 
L 352.798979 240.736063 
L 353.491776 240.603838 
L 354.184019 236.001701 
L 354.87625 237.29499 
L 355.569124 238.966501 
M 358.33989 197.275074 
L 359.029714 185.444679 
L 359.721951 179.22678 
M 361.799274 184.213012 
L 362.491511 189.31988 
L 363.875985 204.342492 
M 365.952863 209.489688 
L 366.6451 198.13861 
L 367.338052 190.07569 
L 368.030296 179.388556 
L 370.107983 134.465948 
L 370.80022 129.98126 
L 371.492457 134.789124 
M 372.877912 151.41542 
L 373.570157 160.174925 
L 374.262395 163.898217 
L 374.95463 160.875946 
M 377.032291 142.492195 
L 377.724534 143.946062 
M 380.492239 129.062653 
L 381.184476 137.095853 
M 382.568336 165.319888 
L 383.260573 175.325351 
L 383.952811 176.181347 
L 384.644637 178.176871 
L 385.336874 176.948385 
L 386.029111 180.049989 
L 386.721348 187.929102 
M 388.104412 192.285907 
L 388.796657 194.110444 
L 390.179932 205.095626 
L 390.872169 205.398459 
L 391.564426 204.27475 
M 395.717867 195.830171 
L 396.410104 194.459297 
L 396.410104 194.459297 
" style="fill:none;stroke:#0000ff;stroke-linecap:square;"/>
   </g>
   <g id="line2d_133">
    <path clip-path="url(#pa405246eb6)" d="M 275.271101 174.192984 
L 275.963338 170.832868 
L 276.655785 165.93837 
M 278.040266 156.373487 
L 278.732503 155.665469 
M 281.498794 138.422936 
L 282.192431 133.588712 
M 288.421904 162.489649 
L 289.114148 170.556519 
M 292.574566 152.186058 
L 293.266803 143.228651 
L 293.961207 146.466047 
L 294.653451 155.034149 
L 295.345682 171.857221 
M 300.885099 214.166172 
L 301.577343 194.07679 
M 302.959621 163.353468 
L 303.651864 167.894164 
M 309.881458 215.284465 
L 311.268039 182.151157 
L 311.960277 173.859597 
L 312.65252 178.570765 
L 314.035729 204.938284 
L 314.727973 225.734073 
M 319.576584 202.152831 
L 320.268821 173.980386 
M 335.499356 181.073625 
L 336.190619 187.950162 
L 336.882856 181.959546 
M 349.338463 192.040131 
L 350.0307 201.689274 
L 350.722267 214.340829 
M 356.26317 233.723033 
L 356.955416 223.535369 
L 357.647653 210.323957 
M 360.414189 178.150412 
L 361.106426 178.948084 
M 364.568397 211.696349 
L 365.260626 215.782702 
M 375.647823 150.053686 
L 376.34006 141.406898 
M 392.256643 202.81922 
L 392.948735 200.192335 
L 393.640972 196.030689 
L 394.333209 196.405268 
L 395.025447 196.358023 
M 397.102341 193.440365 
L 397.794578 190.113619 
L 398.487273 187.718907 
L 398.487273 187.718907 
" style="fill:none;stroke:#008000;stroke-linecap:square;"/>
   </g>
   <g id="patch_3">
    <path d="M 57.6 307.584 
L 57.6 41.472 
" style="fill:none;stroke:#000000;stroke-linecap:square;stroke-linejoin:miter;stroke-width:0.8;"/>
   </g>
   <g id="patch_4">
    <path d="M 414.72 307.584 
L 414.72 41.472 
" style="fill:none;stroke:#000000;stroke-linecap:square;stroke-linejoin:miter;stroke-width:0.8;"/>
   </g>
   <g id="patch_5">
    <path d="M 57.6 307.584 
L 414.72 307.584 
" style="fill:none;stroke:#000000;stroke-linecap:square;stroke-linejoin:miter;stroke-width:0.8;"/>
   </g>
   <g id="patch_6">
    <path d="M 57.6 41.472 
L 414.72 41.472 
" style="fill:none;stroke:#000000;stroke-linecap:square;stroke-linejoin:miter;stroke-width:0.8;"/>
   </g>
   <g id="text_16">
    <!-- Rel Gt Trans X Plot -->
    <defs>
     <path d="M 44.390625 34.1875 
Q 47.5625 33.109375 50.5625 29.59375 
Q 53.5625 26.078125 56.59375 19.921875 
L 66.609375 0 
L 56 0 
L 46.6875 18.703125 
Q 43.0625 26.03125 39.671875 28.421875 
Q 36.28125 30.8125 30.421875 30.8125 
L 19.671875 30.8125 
L 19.671875 0 
L 9.8125 0 
L 9.8125 72.90625 
L 32.078125 72.90625 
Q 44.578125 72.90625 50.734375 67.671875 
Q 56.890625 62.453125 56.890625 51.90625 
Q 56.890625 45.015625 53.6875 40.46875 
Q 50.484375 35.9375 44.390625 34.1875 
z
M 19.671875 64.796875 
L 19.671875 38.921875 
L 32.078125 38.921875 
Q 39.203125 38.921875 42.84375 42.21875 
Q 46.484375 45.515625 46.484375 51.90625 
Q 46.484375 58.296875 42.84375 61.546875 
Q 39.203125 64.796875 32.078125 64.796875 
z
" id="DejaVuSans-52"/>
     <path d="M 9.421875 75.984375 
L 18.40625 75.984375 
L 18.40625 0 
L 9.421875 0 
z
" id="DejaVuSans-6c"/>
     <path d="M 59.515625 10.40625 
L 59.515625 29.984375 
L 43.40625 29.984375 
L 43.40625 38.09375 
L 69.28125 38.09375 
L 69.28125 6.78125 
Q 63.578125 2.734375 56.6875 0.65625 
Q 49.8125 -1.421875 42 -1.421875 
Q 24.90625 -1.421875 15.25 8.5625 
Q 5.609375 18.5625 5.609375 36.375 
Q 5.609375 54.25 15.25 64.234375 
Q 24.90625 74.21875 42 74.21875 
Q 49.125 74.21875 55.546875 72.453125 
Q 61.96875 70.703125 67.390625 67.28125 
L 67.390625 56.78125 
Q 61.921875 61.421875 55.765625 63.765625 
Q 49.609375 66.109375 42.828125 66.109375 
Q 29.4375 66.109375 22.71875 58.640625 
Q 16.015625 51.171875 16.015625 36.375 
Q 16.015625 21.625 22.71875 14.15625 
Q 29.4375 6.6875 42.828125 6.6875 
Q 48.046875 6.6875 52.140625 7.59375 
Q 56.25 8.5 59.515625 10.40625 
z
" id="DejaVuSans-47"/>
     <path d="M -0.296875 72.90625 
L 61.375 72.90625 
L 61.375 64.59375 
L 35.5 64.59375 
L 35.5 0 
L 25.59375 0 
L 25.59375 64.59375 
L -0.296875 64.59375 
z
" id="DejaVuSans-54"/>
     <path d="M 6.296875 72.90625 
L 16.890625 72.90625 
L 35.015625 45.796875 
L 53.21875 72.90625 
L 63.8125 72.90625 
L 40.375 37.890625 
L 65.375 0 
L 54.78125 0 
L 34.28125 31 
L 13.625 0 
L 2.984375 0 
L 29 38.921875 
z
" id="DejaVuSans-58"/>
     <path d="M 19.671875 64.796875 
L 19.671875 37.40625 
L 32.078125 37.40625 
Q 38.96875 37.40625 42.71875 40.96875 
Q 46.484375 44.53125 46.484375 51.125 
Q 46.484375 57.671875 42.71875 61.234375 
Q 38.96875 64.796875 32.078125 64.796875 
z
M 9.8125 72.90625 
L 32.078125 72.90625 
Q 44.34375 72.90625 50.609375 67.359375 
Q 56.890625 61.8125 56.890625 51.125 
Q 56.890625 40.328125 50.609375 34.8125 
Q 44.34375 29.296875 32.078125 29.296875 
L 19.671875 29.296875 
L 19.671875 0 
L 9.8125 0 
z
" id="DejaVuSans-50"/>
     <path d="M 30.609375 48.390625 
Q 23.390625 48.390625 19.1875 42.75 
Q 14.984375 37.109375 14.984375 27.296875 
Q 14.984375 17.484375 19.15625 11.84375 
Q 23.34375 6.203125 30.609375 6.203125 
Q 37.796875 6.203125 41.984375 11.859375 
Q 46.1875 17.53125 46.1875 27.296875 
Q 46.1875 37.015625 41.984375 42.703125 
Q 37.796875 48.390625 30.609375 48.390625 
z
M 30.609375 56 
Q 42.328125 56 49.015625 48.375 
Q 55.71875 40.765625 55.71875 27.296875 
Q 55.71875 13.875 49.015625 6.21875 
Q 42.328125 -1.421875 30.609375 -1.421875 
Q 18.84375 -1.421875 12.171875 6.21875 
Q 5.515625 13.875 5.515625 27.296875 
Q 5.515625 40.765625 12.171875 48.375 
Q 18.84375 56 30.609375 56 
z
" id="DejaVuSans-6f"/>
    </defs>
    <g transform="translate(179.865938 35.472)scale(0.12 -0.12)">
     <use xlink:href="#DejaVuSans-52"/>
     <use x="69.419922" xlink:href="#DejaVuSans-65"/>
     <use x="130.943359" xlink:href="#DejaVuSans-6c"/>
     <use x="158.726562" xlink:href="#DejaVuSans-20"/>
     <use x="190.513672" xlink:href="#DejaVuSans-47"/>
     <use x="268.003906" xlink:href="#DejaVuSans-74"/>
     <use x="307.212891" xlink:href="#DejaVuSans-20"/>
     <use x="339" xlink:href="#DejaVuSans-54"/>
     <use x="399.865234" xlink:href="#DejaVuSans-72"/>
     <use x="440.978516" xlink:href="#DejaVuSans-61"/>
     <use x="502.257812" xlink:href="#DejaVuSans-6e"/>
     <use x="565.636719" xlink:href="#DejaVuSans-73"/>
     <use x="617.736328" xlink:href="#DejaVuSans-20"/>
     <use x="649.523438" xlink:href="#DejaVuSans-58"/>
     <use x="718.029297" xlink:href="#DejaVuSans-20"/>
     <use x="749.816406" xlink:href="#DejaVuSans-50"/>
     <use x="810.119141" xlink:href="#DejaVuSans-6c"/>
     <use x="837.902344" xlink:href="#DejaVuSans-6f"/>
     <use x="899.083984" xlink:href="#DejaVuSans-74"/>
    </g>
   </g>
  </g>
 </g>
 <defs>
  <clipPath id="pa405246eb6">
   <rect height="266.112" width="357.12" x="57.6" y="41.472"/>
  </clipPath>
 </defs>
</svg>
