<?xml version="1.0" encoding="utf-8" standalone="no"?>
<!DOCTYPE svg PUBLIC "-//W3C//DTD SVG 1.1//EN"
  "http://www.w3.org/Graphics/SVG/1.1/DTD/svg11.dtd">
<!-- Created with matplotlib (http://matplotlib.org/) -->
<svg height="345.6pt" version="1.1" viewBox="0 0 460.8 345.6" width="460.8pt" xmlns="http://www.w3.org/2000/svg" xmlns:xlink="http://www.w3.org/1999/xlink">
 <defs>
  <style type="text/css">
*{stroke-linecap:butt;stroke-linejoin:round;}
  </style>
 </defs>
 <g id="figure_1">
  <g id="patch_1">
   <path d="M 0 345.6 
L 460.8 345.6 
L 460.8 0 
L 0 0 
z
" style="fill:#ffffff;"/>
  </g>
  <g id="axes_1">
   <g id="patch_2">
    <path d="M 57.6 307.584 
L 414.72 307.584 
L 414.72 41.472 
L 57.6 41.472 
z
" style="fill:#ffffff;"/>
   </g>
   <g id="matplotlib.axis_1">
    <g id="xtick_1">
     <g id="line2d_1">
      <path clip-path="url(#pbc1a21740b)" d="M 70.555248 307.584 
L 70.555248 41.472 
" style="fill:none;stroke:#b0b0b0;stroke-linecap:square;stroke-width:0.8;"/>
     </g>
     <g id="line2d_2">
      <defs>
       <path d="M 0 0 
L 0 3.5 
" id="m45e59e21b7" style="stroke:#000000;stroke-width:0.8;"/>
      </defs>
      <g>
       <use style="stroke:#000000;stroke-width:0.8;" x="70.555248" xlink:href="#m45e59e21b7" y="307.584"/>
      </g>
     </g>
     <g id="text_1">
      <!-- 0 -->
      <defs>
       <path d="M 31.78125 66.40625 
Q 24.171875 66.40625 20.328125 58.90625 
Q 16.5 51.421875 16.5 36.375 
Q 16.5 21.390625 20.328125 13.890625 
Q 24.171875 6.390625 31.78125 6.390625 
Q 39.453125 6.390625 43.28125 13.890625 
Q 47.125 21.390625 47.125 36.375 
Q 47.125 51.421875 43.28125 58.90625 
Q 39.453125 66.40625 31.78125 66.40625 
z
M 31.78125 74.21875 
Q 44.046875 74.21875 50.515625 64.515625 
Q 56.984375 54.828125 56.984375 36.375 
Q 56.984375 17.96875 50.515625 8.265625 
Q 44.046875 -1.421875 31.78125 -1.421875 
Q 19.53125 -1.421875 13.0625 8.265625 
Q 6.59375 17.96875 6.59375 36.375 
Q 6.59375 54.828125 13.0625 64.515625 
Q 19.53125 74.21875 31.78125 74.21875 
z
" id="DejaVuSans-30"/>
      </defs>
      <g transform="translate(67.373998 322.182437)scale(0.1 -0.1)">
       <use xlink:href="#DejaVuSans-30"/>
      </g>
     </g>
    </g>
    <g id="xtick_2">
     <g id="line2d_3">
      <path clip-path="url(#pbc1a21740b)" d="M 139.776886 307.584 
L 139.776886 41.472 
" style="fill:none;stroke:#b0b0b0;stroke-linecap:square;stroke-width:0.8;"/>
     </g>
     <g id="line2d_4">
      <g>
       <use style="stroke:#000000;stroke-width:0.8;" x="139.776886" xlink:href="#m45e59e21b7" y="307.584"/>
      </g>
     </g>
     <g id="text_2">
      <!-- 10 -->
      <defs>
       <path d="M 12.40625 8.296875 
L 28.515625 8.296875 
L 28.515625 63.921875 
L 10.984375 60.40625 
L 10.984375 69.390625 
L 28.421875 72.90625 
L 38.28125 72.90625 
L 38.28125 8.296875 
L 54.390625 8.296875 
L 54.390625 0 
L 12.40625 0 
z
" id="DejaVuSans-31"/>
      </defs>
      <g transform="translate(133.414386 322.182437)scale(0.1 -0.1)">
       <use xlink:href="#DejaVuSans-31"/>
       <use x="63.623047" xlink:href="#DejaVuSans-30"/>
      </g>
     </g>
    </g>
    <g id="xtick_3">
     <g id="line2d_5">
      <path clip-path="url(#pbc1a21740b)" d="M 208.998523 307.584 
L 208.998523 41.472 
" style="fill:none;stroke:#b0b0b0;stroke-linecap:square;stroke-width:0.8;"/>
     </g>
     <g id="line2d_6">
      <g>
       <use style="stroke:#000000;stroke-width:0.8;" x="208.998523" xlink:href="#m45e59e21b7" y="307.584"/>
      </g>
     </g>
     <g id="text_3">
      <!-- 20 -->
      <defs>
       <path d="M 19.1875 8.296875 
L 53.609375 8.296875 
L 53.609375 0 
L 7.328125 0 
L 7.328125 8.296875 
Q 12.9375 14.109375 22.625 23.890625 
Q 32.328125 33.6875 34.8125 36.53125 
Q 39.546875 41.84375 41.421875 45.53125 
Q 43.3125 49.21875 43.3125 52.78125 
Q 43.3125 58.59375 39.234375 62.25 
Q 35.15625 65.921875 28.609375 65.921875 
Q 23.96875 65.921875 18.8125 64.3125 
Q 13.671875 62.703125 7.8125 59.421875 
L 7.8125 69.390625 
Q 13.765625 71.78125 18.9375 73 
Q 24.125 74.21875 28.421875 74.21875 
Q 39.75 74.21875 46.484375 68.546875 
Q 53.21875 62.890625 53.21875 53.421875 
Q 53.21875 48.921875 51.53125 44.890625 
Q 49.859375 40.875 45.40625 35.40625 
Q 44.1875 33.984375 37.640625 27.21875 
Q 31.109375 20.453125 19.1875 8.296875 
z
" id="DejaVuSans-32"/>
      </defs>
      <g transform="translate(202.636023 322.182437)scale(0.1 -0.1)">
       <use xlink:href="#DejaVuSans-32"/>
       <use x="63.623047" xlink:href="#DejaVuSans-30"/>
      </g>
     </g>
    </g>
    <g id="xtick_4">
     <g id="line2d_7">
      <path clip-path="url(#pbc1a21740b)" d="M 278.220161 307.584 
L 278.220161 41.472 
" style="fill:none;stroke:#b0b0b0;stroke-linecap:square;stroke-width:0.8;"/>
     </g>
     <g id="line2d_8">
      <g>
       <use style="stroke:#000000;stroke-width:0.8;" x="278.220161" xlink:href="#m45e59e21b7" y="307.584"/>
      </g>
     </g>
     <g id="text_4">
      <!-- 30 -->
      <defs>
       <path d="M 40.578125 39.3125 
Q 47.65625 37.796875 51.625 33 
Q 55.609375 28.21875 55.609375 21.1875 
Q 55.609375 10.40625 48.1875 4.484375 
Q 40.765625 -1.421875 27.09375 -1.421875 
Q 22.515625 -1.421875 17.65625 -0.515625 
Q 12.796875 0.390625 7.625 2.203125 
L 7.625 11.71875 
Q 11.71875 9.328125 16.59375 8.109375 
Q 21.484375 6.890625 26.8125 6.890625 
Q 36.078125 6.890625 40.9375 10.546875 
Q 45.796875 14.203125 45.796875 21.1875 
Q 45.796875 27.640625 41.28125 31.265625 
Q 36.765625 34.90625 28.71875 34.90625 
L 20.21875 34.90625 
L 20.21875 43.015625 
L 29.109375 43.015625 
Q 36.375 43.015625 40.234375 45.921875 
Q 44.09375 48.828125 44.09375 54.296875 
Q 44.09375 59.90625 40.109375 62.90625 
Q 36.140625 65.921875 28.71875 65.921875 
Q 24.65625 65.921875 20.015625 65.03125 
Q 15.375 64.15625 9.8125 62.3125 
L 9.8125 71.09375 
Q 15.4375 72.65625 20.34375 73.4375 
Q 25.25 74.21875 29.59375 74.21875 
Q 40.828125 74.21875 47.359375 69.109375 
Q 53.90625 64.015625 53.90625 55.328125 
Q 53.90625 49.265625 50.4375 45.09375 
Q 46.96875 40.921875 40.578125 39.3125 
z
" id="DejaVuSans-33"/>
      </defs>
      <g transform="translate(271.857661 322.182437)scale(0.1 -0.1)">
       <use xlink:href="#DejaVuSans-33"/>
       <use x="63.623047" xlink:href="#DejaVuSans-30"/>
      </g>
     </g>
    </g>
    <g id="xtick_5">
     <g id="line2d_9">
      <path clip-path="url(#pbc1a21740b)" d="M 347.441799 307.584 
L 347.441799 41.472 
" style="fill:none;stroke:#b0b0b0;stroke-linecap:square;stroke-width:0.8;"/>
     </g>
     <g id="line2d_10">
      <g>
       <use style="stroke:#000000;stroke-width:0.8;" x="347.441799" xlink:href="#m45e59e21b7" y="307.584"/>
      </g>
     </g>
     <g id="text_5">
      <!-- 40 -->
      <defs>
       <path d="M 37.796875 64.3125 
L 12.890625 25.390625 
L 37.796875 25.390625 
z
M 35.203125 72.90625 
L 47.609375 72.90625 
L 47.609375 25.390625 
L 58.015625 25.390625 
L 58.015625 17.1875 
L 47.609375 17.1875 
L 47.609375 0 
L 37.796875 0 
L 37.796875 17.1875 
L 4.890625 17.1875 
L 4.890625 26.703125 
z
" id="DejaVuSans-34"/>
      </defs>
      <g transform="translate(341.079299 322.182437)scale(0.1 -0.1)">
       <use xlink:href="#DejaVuSans-34"/>
       <use x="63.623047" xlink:href="#DejaVuSans-30"/>
      </g>
     </g>
    </g>
    <g id="xtick_6">
     <g id="line2d_11">
      <path clip-path="url(#pbc1a21740b)" d="M 84.399575 307.584 
L 84.399575 41.472 
" style="fill:none;stroke:#b0b0b0;stroke-linecap:square;stroke-width:0.8;"/>
     </g>
     <g id="line2d_12">
      <defs>
       <path d="M 0 0 
L 0 2 
" id="m19d1f45584" style="stroke:#000000;stroke-width:0.6;"/>
      </defs>
      <g>
       <use style="stroke:#000000;stroke-width:0.6;" x="84.399575" xlink:href="#m19d1f45584" y="307.584"/>
      </g>
     </g>
    </g>
    <g id="xtick_7">
     <g id="line2d_13">
      <path clip-path="url(#pbc1a21740b)" d="M 98.243903 307.584 
L 98.243903 41.472 
" style="fill:none;stroke:#b0b0b0;stroke-linecap:square;stroke-width:0.8;"/>
     </g>
     <g id="line2d_14">
      <g>
       <use style="stroke:#000000;stroke-width:0.6;" x="98.243903" xlink:href="#m19d1f45584" y="307.584"/>
      </g>
     </g>
    </g>
    <g id="xtick_8">
     <g id="line2d_15">
      <path clip-path="url(#pbc1a21740b)" d="M 112.08823 307.584 
L 112.08823 41.472 
" style="fill:none;stroke:#b0b0b0;stroke-linecap:square;stroke-width:0.8;"/>
     </g>
     <g id="line2d_16">
      <g>
       <use style="stroke:#000000;stroke-width:0.6;" x="112.08823" xlink:href="#m19d1f45584" y="307.584"/>
      </g>
     </g>
    </g>
    <g id="xtick_9">
     <g id="line2d_17">
      <path clip-path="url(#pbc1a21740b)" d="M 125.932558 307.584 
L 125.932558 41.472 
" style="fill:none;stroke:#b0b0b0;stroke-linecap:square;stroke-width:0.8;"/>
     </g>
     <g id="line2d_18">
      <g>
       <use style="stroke:#000000;stroke-width:0.6;" x="125.932558" xlink:href="#m19d1f45584" y="307.584"/>
      </g>
     </g>
    </g>
    <g id="xtick_10">
     <g id="line2d_19">
      <path clip-path="url(#pbc1a21740b)" d="M 153.621213 307.584 
L 153.621213 41.472 
" style="fill:none;stroke:#b0b0b0;stroke-linecap:square;stroke-width:0.8;"/>
     </g>
     <g id="line2d_20">
      <g>
       <use style="stroke:#000000;stroke-width:0.6;" x="153.621213" xlink:href="#m19d1f45584" y="307.584"/>
      </g>
     </g>
    </g>
    <g id="xtick_11">
     <g id="line2d_21">
      <path clip-path="url(#pbc1a21740b)" d="M 167.465541 307.584 
L 167.465541 41.472 
" style="fill:none;stroke:#b0b0b0;stroke-linecap:square;stroke-width:0.8;"/>
     </g>
     <g id="line2d_22">
      <g>
       <use style="stroke:#000000;stroke-width:0.6;" x="167.465541" xlink:href="#m19d1f45584" y="307.584"/>
      </g>
     </g>
    </g>
    <g id="xtick_12">
     <g id="line2d_23">
      <path clip-path="url(#pbc1a21740b)" d="M 181.309868 307.584 
L 181.309868 41.472 
" style="fill:none;stroke:#b0b0b0;stroke-linecap:square;stroke-width:0.8;"/>
     </g>
     <g id="line2d_24">
      <g>
       <use style="stroke:#000000;stroke-width:0.6;" x="181.309868" xlink:href="#m19d1f45584" y="307.584"/>
      </g>
     </g>
    </g>
    <g id="xtick_13">
     <g id="line2d_25">
      <path clip-path="url(#pbc1a21740b)" d="M 195.154196 307.584 
L 195.154196 41.472 
" style="fill:none;stroke:#b0b0b0;stroke-linecap:square;stroke-width:0.8;"/>
     </g>
     <g id="line2d_26">
      <g>
       <use style="stroke:#000000;stroke-width:0.6;" x="195.154196" xlink:href="#m19d1f45584" y="307.584"/>
      </g>
     </g>
    </g>
    <g id="xtick_14">
     <g id="line2d_27">
      <path clip-path="url(#pbc1a21740b)" d="M 222.842851 307.584 
L 222.842851 41.472 
" style="fill:none;stroke:#b0b0b0;stroke-linecap:square;stroke-width:0.8;"/>
     </g>
     <g id="line2d_28">
      <g>
       <use style="stroke:#000000;stroke-width:0.6;" x="222.842851" xlink:href="#m19d1f45584" y="307.584"/>
      </g>
     </g>
    </g>
    <g id="xtick_15">
     <g id="line2d_29">
      <path clip-path="url(#pbc1a21740b)" d="M 236.687178 307.584 
L 236.687178 41.472 
" style="fill:none;stroke:#b0b0b0;stroke-linecap:square;stroke-width:0.8;"/>
     </g>
     <g id="line2d_30">
      <g>
       <use style="stroke:#000000;stroke-width:0.6;" x="236.687178" xlink:href="#m19d1f45584" y="307.584"/>
      </g>
     </g>
    </g>
    <g id="xtick_16">
     <g id="line2d_31">
      <path clip-path="url(#pbc1a21740b)" d="M 250.531506 307.584 
L 250.531506 41.472 
" style="fill:none;stroke:#b0b0b0;stroke-linecap:square;stroke-width:0.8;"/>
     </g>
     <g id="line2d_32">
      <g>
       <use style="stroke:#000000;stroke-width:0.6;" x="250.531506" xlink:href="#m19d1f45584" y="307.584"/>
      </g>
     </g>
    </g>
    <g id="xtick_17">
     <g id="line2d_33">
      <path clip-path="url(#pbc1a21740b)" d="M 264.375834 307.584 
L 264.375834 41.472 
" style="fill:none;stroke:#b0b0b0;stroke-linecap:square;stroke-width:0.8;"/>
     </g>
     <g id="line2d_34">
      <g>
       <use style="stroke:#000000;stroke-width:0.6;" x="264.375834" xlink:href="#m19d1f45584" y="307.584"/>
      </g>
     </g>
    </g>
    <g id="xtick_18">
     <g id="line2d_35">
      <path clip-path="url(#pbc1a21740b)" d="M 292.064489 307.584 
L 292.064489 41.472 
" style="fill:none;stroke:#b0b0b0;stroke-linecap:square;stroke-width:0.8;"/>
     </g>
     <g id="line2d_36">
      <g>
       <use style="stroke:#000000;stroke-width:0.6;" x="292.064489" xlink:href="#m19d1f45584" y="307.584"/>
      </g>
     </g>
    </g>
    <g id="xtick_19">
     <g id="line2d_37">
      <path clip-path="url(#pbc1a21740b)" d="M 305.908816 307.584 
L 305.908816 41.472 
" style="fill:none;stroke:#b0b0b0;stroke-linecap:square;stroke-width:0.8;"/>
     </g>
     <g id="line2d_38">
      <g>
       <use style="stroke:#000000;stroke-width:0.6;" x="305.908816" xlink:href="#m19d1f45584" y="307.584"/>
      </g>
     </g>
    </g>
    <g id="xtick_20">
     <g id="line2d_39">
      <path clip-path="url(#pbc1a21740b)" d="M 319.753144 307.584 
L 319.753144 41.472 
" style="fill:none;stroke:#b0b0b0;stroke-linecap:square;stroke-width:0.8;"/>
     </g>
     <g id="line2d_40">
      <g>
       <use style="stroke:#000000;stroke-width:0.6;" x="319.753144" xlink:href="#m19d1f45584" y="307.584"/>
      </g>
     </g>
    </g>
    <g id="xtick_21">
     <g id="line2d_41">
      <path clip-path="url(#pbc1a21740b)" d="M 333.597471 307.584 
L 333.597471 41.472 
" style="fill:none;stroke:#b0b0b0;stroke-linecap:square;stroke-width:0.8;"/>
     </g>
     <g id="line2d_42">
      <g>
       <use style="stroke:#000000;stroke-width:0.6;" x="333.597471" xlink:href="#m19d1f45584" y="307.584"/>
      </g>
     </g>
    </g>
    <g id="xtick_22">
     <g id="line2d_43">
      <path clip-path="url(#pbc1a21740b)" d="M 361.286127 307.584 
L 361.286127 41.472 
" style="fill:none;stroke:#b0b0b0;stroke-linecap:square;stroke-width:0.8;"/>
     </g>
     <g id="line2d_44">
      <g>
       <use style="stroke:#000000;stroke-width:0.6;" x="361.286127" xlink:href="#m19d1f45584" y="307.584"/>
      </g>
     </g>
    </g>
    <g id="xtick_23">
     <g id="line2d_45">
      <path clip-path="url(#pbc1a21740b)" d="M 375.130454 307.584 
L 375.130454 41.472 
" style="fill:none;stroke:#b0b0b0;stroke-linecap:square;stroke-width:0.8;"/>
     </g>
     <g id="line2d_46">
      <g>
       <use style="stroke:#000000;stroke-width:0.6;" x="375.130454" xlink:href="#m19d1f45584" y="307.584"/>
      </g>
     </g>
    </g>
    <g id="xtick_24">
     <g id="line2d_47">
      <path clip-path="url(#pbc1a21740b)" d="M 388.974782 307.584 
L 388.974782 41.472 
" style="fill:none;stroke:#b0b0b0;stroke-linecap:square;stroke-width:0.8;"/>
     </g>
     <g id="line2d_48">
      <g>
       <use style="stroke:#000000;stroke-width:0.6;" x="388.974782" xlink:href="#m19d1f45584" y="307.584"/>
      </g>
     </g>
    </g>
    <g id="xtick_25">
     <g id="line2d_49">
      <path clip-path="url(#pbc1a21740b)" d="M 402.819109 307.584 
L 402.819109 41.472 
" style="fill:none;stroke:#b0b0b0;stroke-linecap:square;stroke-width:0.8;"/>
     </g>
     <g id="line2d_50">
      <g>
       <use style="stroke:#000000;stroke-width:0.6;" x="402.819109" xlink:href="#m19d1f45584" y="307.584"/>
      </g>
     </g>
    </g>
    <g id="text_6">
     <!-- frame # [] -->
     <defs>
      <path d="M 37.109375 75.984375 
L 37.109375 68.5 
L 28.515625 68.5 
Q 23.6875 68.5 21.796875 66.546875 
Q 19.921875 64.59375 19.921875 59.515625 
L 19.921875 54.6875 
L 34.71875 54.6875 
L 34.71875 47.703125 
L 19.921875 47.703125 
L 19.921875 0 
L 10.890625 0 
L 10.890625 47.703125 
L 2.296875 47.703125 
L 2.296875 54.6875 
L 10.890625 54.6875 
L 10.890625 58.5 
Q 10.890625 67.625 15.140625 71.796875 
Q 19.390625 75.984375 28.609375 75.984375 
z
" id="DejaVuSans-66"/>
      <path d="M 41.109375 46.296875 
Q 39.59375 47.171875 37.8125 47.578125 
Q 36.03125 48 33.890625 48 
Q 26.265625 48 22.1875 43.046875 
Q 18.109375 38.09375 18.109375 28.8125 
L 18.109375 0 
L 9.078125 0 
L 9.078125 54.6875 
L 18.109375 54.6875 
L 18.109375 46.1875 
Q 20.953125 51.171875 25.484375 53.578125 
Q 30.03125 56 36.53125 56 
Q 37.453125 56 38.578125 55.875 
Q 39.703125 55.765625 41.0625 55.515625 
z
" id="DejaVuSans-72"/>
      <path d="M 34.28125 27.484375 
Q 23.390625 27.484375 19.1875 25 
Q 14.984375 22.515625 14.984375 16.5 
Q 14.984375 11.71875 18.140625 8.90625 
Q 21.296875 6.109375 26.703125 6.109375 
Q 34.1875 6.109375 38.703125 11.40625 
Q 43.21875 16.703125 43.21875 25.484375 
L 43.21875 27.484375 
z
M 52.203125 31.203125 
L 52.203125 0 
L 43.21875 0 
L 43.21875 8.296875 
Q 40.140625 3.328125 35.546875 0.953125 
Q 30.953125 -1.421875 24.3125 -1.421875 
Q 15.921875 -1.421875 10.953125 3.296875 
Q 6 8.015625 6 15.921875 
Q 6 25.140625 12.171875 29.828125 
Q 18.359375 34.515625 30.609375 34.515625 
L 43.21875 34.515625 
L 43.21875 35.40625 
Q 43.21875 41.609375 39.140625 45 
Q 35.0625 48.390625 27.6875 48.390625 
Q 23 48.390625 18.546875 47.265625 
Q 14.109375 46.140625 10.015625 43.890625 
L 10.015625 52.203125 
Q 14.9375 54.109375 19.578125 55.046875 
Q 24.21875 56 28.609375 56 
Q 40.484375 56 46.34375 49.84375 
Q 52.203125 43.703125 52.203125 31.203125 
z
" id="DejaVuSans-61"/>
      <path d="M 52 44.1875 
Q 55.375 50.25 60.0625 53.125 
Q 64.75 56 71.09375 56 
Q 79.640625 56 84.28125 50.015625 
Q 88.921875 44.046875 88.921875 33.015625 
L 88.921875 0 
L 79.890625 0 
L 79.890625 32.71875 
Q 79.890625 40.578125 77.09375 44.375 
Q 74.3125 48.1875 68.609375 48.1875 
Q 61.625 48.1875 57.5625 43.546875 
Q 53.515625 38.921875 53.515625 30.90625 
L 53.515625 0 
L 44.484375 0 
L 44.484375 32.71875 
Q 44.484375 40.625 41.703125 44.40625 
Q 38.921875 48.1875 33.109375 48.1875 
Q 26.21875 48.1875 22.15625 43.53125 
Q 18.109375 38.875 18.109375 30.90625 
L 18.109375 0 
L 9.078125 0 
L 9.078125 54.6875 
L 18.109375 54.6875 
L 18.109375 46.1875 
Q 21.1875 51.21875 25.484375 53.609375 
Q 29.78125 56 35.6875 56 
Q 41.65625 56 45.828125 52.96875 
Q 50 49.953125 52 44.1875 
z
" id="DejaVuSans-6d"/>
      <path d="M 56.203125 29.59375 
L 56.203125 25.203125 
L 14.890625 25.203125 
Q 15.484375 15.921875 20.484375 11.0625 
Q 25.484375 6.203125 34.421875 6.203125 
Q 39.59375 6.203125 44.453125 7.46875 
Q 49.3125 8.734375 54.109375 11.28125 
L 54.109375 2.78125 
Q 49.265625 0.734375 44.1875 -0.34375 
Q 39.109375 -1.421875 33.890625 -1.421875 
Q 20.796875 -1.421875 13.15625 6.1875 
Q 5.515625 13.8125 5.515625 26.8125 
Q 5.515625 40.234375 12.765625 48.109375 
Q 20.015625 56 32.328125 56 
Q 43.359375 56 49.78125 48.890625 
Q 56.203125 41.796875 56.203125 29.59375 
z
M 47.21875 32.234375 
Q 47.125 39.59375 43.09375 43.984375 
Q 39.0625 48.390625 32.421875 48.390625 
Q 24.90625 48.390625 20.390625 44.140625 
Q 15.875 39.890625 15.1875 32.171875 
z
" id="DejaVuSans-65"/>
      <path id="DejaVuSans-20"/>
      <path d="M 51.125 44 
L 36.921875 44 
L 32.8125 27.6875 
L 47.125 27.6875 
z
M 43.796875 71.78125 
L 38.71875 51.515625 
L 52.984375 51.515625 
L 58.109375 71.78125 
L 65.921875 71.78125 
L 60.890625 51.515625 
L 76.125 51.515625 
L 76.125 44 
L 58.984375 44 
L 54.984375 27.6875 
L 70.515625 27.6875 
L 70.515625 20.21875 
L 53.078125 20.21875 
L 48 0 
L 40.1875 0 
L 45.21875 20.21875 
L 30.90625 20.21875 
L 25.875 0 
L 18.015625 0 
L 23.09375 20.21875 
L 7.71875 20.21875 
L 7.71875 27.6875 
L 24.90625 27.6875 
L 29 44 
L 13.28125 44 
L 13.28125 51.515625 
L 30.90625 51.515625 
L 35.890625 71.78125 
z
" id="DejaVuSans-23"/>
      <path d="M 8.59375 75.984375 
L 29.296875 75.984375 
L 29.296875 69 
L 17.578125 69 
L 17.578125 -6.203125 
L 29.296875 -6.203125 
L 29.296875 -13.1875 
L 8.59375 -13.1875 
z
" id="DejaVuSans-5b"/>
      <path d="M 30.421875 75.984375 
L 30.421875 -13.1875 
L 9.71875 -13.1875 
L 9.71875 -6.203125 
L 21.390625 -6.203125 
L 21.390625 69 
L 9.71875 69 
L 9.71875 75.984375 
z
" id="DejaVuSans-5d"/>
     </defs>
     <g transform="translate(210.063906 335.860562)scale(0.1 -0.1)">
      <use xlink:href="#DejaVuSans-66"/>
      <use x="35.205078" xlink:href="#DejaVuSans-72"/>
      <use x="76.318359" xlink:href="#DejaVuSans-61"/>
      <use x="137.597656" xlink:href="#DejaVuSans-6d"/>
      <use x="235.009766" xlink:href="#DejaVuSans-65"/>
      <use x="296.533203" xlink:href="#DejaVuSans-20"/>
      <use x="328.320312" xlink:href="#DejaVuSans-23"/>
      <use x="412.109375" xlink:href="#DejaVuSans-20"/>
      <use x="443.896484" xlink:href="#DejaVuSans-5b"/>
      <use x="482.910156" xlink:href="#DejaVuSans-5d"/>
     </g>
    </g>
   </g>
   <g id="matplotlib.axis_2">
    <g id="ytick_1">
     <g id="line2d_51">
      <path clip-path="url(#pbc1a21740b)" d="M 57.6 307.284534 
L 414.72 307.284534 
" style="fill:none;stroke:#b0b0b0;stroke-linecap:square;stroke-width:0.8;"/>
     </g>
     <g id="line2d_52">
      <defs>
       <path d="M 0 0 
L -3.5 0 
" id="m1bf7896bb6" style="stroke:#000000;stroke-width:0.8;"/>
      </defs>
      <g>
       <use style="stroke:#000000;stroke-width:0.8;" x="57.6" xlink:href="#m1bf7896bb6" y="307.284534"/>
      </g>
     </g>
     <g id="text_7">
      <!-- −0.10 -->
      <defs>
       <path d="M 10.59375 35.5 
L 73.1875 35.5 
L 73.1875 27.203125 
L 10.59375 27.203125 
z
" id="DejaVuSans-2212"/>
       <path d="M 10.6875 12.40625 
L 21 12.40625 
L 21 0 
L 10.6875 0 
z
" id="DejaVuSans-2e"/>
      </defs>
      <g transform="translate(19.954687 311.083752)scale(0.1 -0.1)">
       <use xlink:href="#DejaVuSans-2212"/>
       <use x="83.789062" xlink:href="#DejaVuSans-30"/>
       <use x="147.412109" xlink:href="#DejaVuSans-2e"/>
       <use x="179.199219" xlink:href="#DejaVuSans-31"/>
       <use x="242.822266" xlink:href="#DejaVuSans-30"/>
      </g>
     </g>
    </g>
    <g id="ytick_2">
     <g id="line2d_53">
      <path clip-path="url(#pbc1a21740b)" d="M 57.6 250.313333 
L 414.72 250.313333 
" style="fill:none;stroke:#b0b0b0;stroke-linecap:square;stroke-width:0.8;"/>
     </g>
     <g id="line2d_54">
      <g>
       <use style="stroke:#000000;stroke-width:0.8;" x="57.6" xlink:href="#m1bf7896bb6" y="250.313333"/>
      </g>
     </g>
     <g id="text_8">
      <!-- −0.05 -->
      <defs>
       <path d="M 10.796875 72.90625 
L 49.515625 72.90625 
L 49.515625 64.59375 
L 19.828125 64.59375 
L 19.828125 46.734375 
Q 21.96875 47.46875 24.109375 47.828125 
Q 26.265625 48.1875 28.421875 48.1875 
Q 40.625 48.1875 47.75 41.5 
Q 54.890625 34.8125 54.890625 23.390625 
Q 54.890625 11.625 47.5625 5.09375 
Q 40.234375 -1.421875 26.90625 -1.421875 
Q 22.3125 -1.421875 17.546875 -0.640625 
Q 12.796875 0.140625 7.71875 1.703125 
L 7.71875 11.625 
Q 12.109375 9.234375 16.796875 8.0625 
Q 21.484375 6.890625 26.703125 6.890625 
Q 35.15625 6.890625 40.078125 11.328125 
Q 45.015625 15.765625 45.015625 23.390625 
Q 45.015625 31 40.078125 35.4375 
Q 35.15625 39.890625 26.703125 39.890625 
Q 22.75 39.890625 18.8125 39.015625 
Q 14.890625 38.140625 10.796875 36.28125 
z
" id="DejaVuSans-35"/>
      </defs>
      <g transform="translate(19.954687 254.112552)scale(0.1 -0.1)">
       <use xlink:href="#DejaVuSans-2212"/>
       <use x="83.789062" xlink:href="#DejaVuSans-30"/>
       <use x="147.412109" xlink:href="#DejaVuSans-2e"/>
       <use x="179.199219" xlink:href="#DejaVuSans-30"/>
       <use x="242.822266" xlink:href="#DejaVuSans-35"/>
      </g>
     </g>
    </g>
    <g id="ytick_3">
     <g id="line2d_55">
      <path clip-path="url(#pbc1a21740b)" d="M 57.6 193.342133 
L 414.72 193.342133 
" style="fill:none;stroke:#b0b0b0;stroke-linecap:square;stroke-width:0.8;"/>
     </g>
     <g id="line2d_56">
      <g>
       <use style="stroke:#000000;stroke-width:0.8;" x="57.6" xlink:href="#m1bf7896bb6" y="193.342133"/>
      </g>
     </g>
     <g id="text_9">
      <!-- 0.00 -->
      <g transform="translate(28.334375 197.141352)scale(0.1 -0.1)">
       <use xlink:href="#DejaVuSans-30"/>
       <use x="63.623047" xlink:href="#DejaVuSans-2e"/>
       <use x="95.410156" xlink:href="#DejaVuSans-30"/>
       <use x="159.033203" xlink:href="#DejaVuSans-30"/>
      </g>
     </g>
    </g>
    <g id="ytick_4">
     <g id="line2d_57">
      <path clip-path="url(#pbc1a21740b)" d="M 57.6 136.370933 
L 414.72 136.370933 
" style="fill:none;stroke:#b0b0b0;stroke-linecap:square;stroke-width:0.8;"/>
     </g>
     <g id="line2d_58">
      <g>
       <use style="stroke:#000000;stroke-width:0.8;" x="57.6" xlink:href="#m1bf7896bb6" y="136.370933"/>
      </g>
     </g>
     <g id="text_10">
      <!-- 0.05 -->
      <g transform="translate(28.334375 140.170151)scale(0.1 -0.1)">
       <use xlink:href="#DejaVuSans-30"/>
       <use x="63.623047" xlink:href="#DejaVuSans-2e"/>
       <use x="95.410156" xlink:href="#DejaVuSans-30"/>
       <use x="159.033203" xlink:href="#DejaVuSans-35"/>
      </g>
     </g>
    </g>
    <g id="ytick_5">
     <g id="line2d_59">
      <path clip-path="url(#pbc1a21740b)" d="M 57.6 79.399732 
L 414.72 79.399732 
" style="fill:none;stroke:#b0b0b0;stroke-linecap:square;stroke-width:0.8;"/>
     </g>
     <g id="line2d_60">
      <g>
       <use style="stroke:#000000;stroke-width:0.8;" x="57.6" xlink:href="#m1bf7896bb6" y="79.399732"/>
      </g>
     </g>
     <g id="text_11">
      <!-- 0.10 -->
      <g transform="translate(28.334375 83.198951)scale(0.1 -0.1)">
       <use xlink:href="#DejaVuSans-30"/>
       <use x="63.623047" xlink:href="#DejaVuSans-2e"/>
       <use x="95.410156" xlink:href="#DejaVuSans-31"/>
       <use x="159.033203" xlink:href="#DejaVuSans-30"/>
      </g>
     </g>
    </g>
    <g id="ytick_6">
     <g id="line2d_61">
      <path clip-path="url(#pbc1a21740b)" d="M 57.6 295.890294 
L 414.72 295.890294 
" style="fill:none;stroke:#b0b0b0;stroke-linecap:square;stroke-width:0.8;"/>
     </g>
     <g id="line2d_62">
      <defs>
       <path d="M 0 0 
L -2 0 
" id="mca604ea9c6" style="stroke:#000000;stroke-width:0.6;"/>
      </defs>
      <g>
       <use style="stroke:#000000;stroke-width:0.6;" x="57.6" xlink:href="#mca604ea9c6" y="295.890294"/>
      </g>
     </g>
    </g>
    <g id="ytick_7">
     <g id="line2d_63">
      <path clip-path="url(#pbc1a21740b)" d="M 57.6 284.496053 
L 414.72 284.496053 
" style="fill:none;stroke:#b0b0b0;stroke-linecap:square;stroke-width:0.8;"/>
     </g>
     <g id="line2d_64">
      <g>
       <use style="stroke:#000000;stroke-width:0.6;" x="57.6" xlink:href="#mca604ea9c6" y="284.496053"/>
      </g>
     </g>
    </g>
    <g id="ytick_8">
     <g id="line2d_65">
      <path clip-path="url(#pbc1a21740b)" d="M 57.6 273.101813 
L 414.72 273.101813 
" style="fill:none;stroke:#b0b0b0;stroke-linecap:square;stroke-width:0.8;"/>
     </g>
     <g id="line2d_66">
      <g>
       <use style="stroke:#000000;stroke-width:0.6;" x="57.6" xlink:href="#mca604ea9c6" y="273.101813"/>
      </g>
     </g>
    </g>
    <g id="ytick_9">
     <g id="line2d_67">
      <path clip-path="url(#pbc1a21740b)" d="M 57.6 261.707573 
L 414.72 261.707573 
" style="fill:none;stroke:#b0b0b0;stroke-linecap:square;stroke-width:0.8;"/>
     </g>
     <g id="line2d_68">
      <g>
       <use style="stroke:#000000;stroke-width:0.6;" x="57.6" xlink:href="#mca604ea9c6" y="261.707573"/>
      </g>
     </g>
    </g>
    <g id="ytick_10">
     <g id="line2d_69">
      <path clip-path="url(#pbc1a21740b)" d="M 57.6 238.919093 
L 414.72 238.919093 
" style="fill:none;stroke:#b0b0b0;stroke-linecap:square;stroke-width:0.8;"/>
     </g>
     <g id="line2d_70">
      <g>
       <use style="stroke:#000000;stroke-width:0.6;" x="57.6" xlink:href="#mca604ea9c6" y="238.919093"/>
      </g>
     </g>
    </g>
    <g id="ytick_11">
     <g id="line2d_71">
      <path clip-path="url(#pbc1a21740b)" d="M 57.6 227.524853 
L 414.72 227.524853 
" style="fill:none;stroke:#b0b0b0;stroke-linecap:square;stroke-width:0.8;"/>
     </g>
     <g id="line2d_72">
      <g>
       <use style="stroke:#000000;stroke-width:0.6;" x="57.6" xlink:href="#mca604ea9c6" y="227.524853"/>
      </g>
     </g>
    </g>
    <g id="ytick_12">
     <g id="line2d_73">
      <path clip-path="url(#pbc1a21740b)" d="M 57.6 216.130613 
L 414.72 216.130613 
" style="fill:none;stroke:#b0b0b0;stroke-linecap:square;stroke-width:0.8;"/>
     </g>
     <g id="line2d_74">
      <g>
       <use style="stroke:#000000;stroke-width:0.6;" x="57.6" xlink:href="#mca604ea9c6" y="216.130613"/>
      </g>
     </g>
    </g>
    <g id="ytick_13">
     <g id="line2d_75">
      <path clip-path="url(#pbc1a21740b)" d="M 57.6 204.736373 
L 414.72 204.736373 
" style="fill:none;stroke:#b0b0b0;stroke-linecap:square;stroke-width:0.8;"/>
     </g>
     <g id="line2d_76">
      <g>
       <use style="stroke:#000000;stroke-width:0.6;" x="57.6" xlink:href="#mca604ea9c6" y="204.736373"/>
      </g>
     </g>
    </g>
    <g id="ytick_14">
     <g id="line2d_77">
      <path clip-path="url(#pbc1a21740b)" d="M 57.6 181.947893 
L 414.72 181.947893 
" style="fill:none;stroke:#b0b0b0;stroke-linecap:square;stroke-width:0.8;"/>
     </g>
     <g id="line2d_78">
      <g>
       <use style="stroke:#000000;stroke-width:0.6;" x="57.6" xlink:href="#mca604ea9c6" y="181.947893"/>
      </g>
     </g>
    </g>
    <g id="ytick_15">
     <g id="line2d_79">
      <path clip-path="url(#pbc1a21740b)" d="M 57.6 170.553653 
L 414.72 170.553653 
" style="fill:none;stroke:#b0b0b0;stroke-linecap:square;stroke-width:0.8;"/>
     </g>
     <g id="line2d_80">
      <g>
       <use style="stroke:#000000;stroke-width:0.6;" x="57.6" xlink:href="#mca604ea9c6" y="170.553653"/>
      </g>
     </g>
    </g>
    <g id="ytick_16">
     <g id="line2d_81">
      <path clip-path="url(#pbc1a21740b)" d="M 57.6 159.159413 
L 414.72 159.159413 
" style="fill:none;stroke:#b0b0b0;stroke-linecap:square;stroke-width:0.8;"/>
     </g>
     <g id="line2d_82">
      <g>
       <use style="stroke:#000000;stroke-width:0.6;" x="57.6" xlink:href="#mca604ea9c6" y="159.159413"/>
      </g>
     </g>
    </g>
    <g id="ytick_17">
     <g id="line2d_83">
      <path clip-path="url(#pbc1a21740b)" d="M 57.6 147.765173 
L 414.72 147.765173 
" style="fill:none;stroke:#b0b0b0;stroke-linecap:square;stroke-width:0.8;"/>
     </g>
     <g id="line2d_84">
      <g>
       <use style="stroke:#000000;stroke-width:0.6;" x="57.6" xlink:href="#mca604ea9c6" y="147.765173"/>
      </g>
     </g>
    </g>
    <g id="ytick_18">
     <g id="line2d_85">
      <path clip-path="url(#pbc1a21740b)" d="M 57.6 124.976693 
L 414.72 124.976693 
" style="fill:none;stroke:#b0b0b0;stroke-linecap:square;stroke-width:0.8;"/>
     </g>
     <g id="line2d_86">
      <g>
       <use style="stroke:#000000;stroke-width:0.6;" x="57.6" xlink:href="#mca604ea9c6" y="124.976693"/>
      </g>
     </g>
    </g>
    <g id="ytick_19">
     <g id="line2d_87">
      <path clip-path="url(#pbc1a21740b)" d="M 57.6 113.582453 
L 414.72 113.582453 
" style="fill:none;stroke:#b0b0b0;stroke-linecap:square;stroke-width:0.8;"/>
     </g>
     <g id="line2d_88">
      <g>
       <use style="stroke:#000000;stroke-width:0.6;" x="57.6" xlink:href="#mca604ea9c6" y="113.582453"/>
      </g>
     </g>
    </g>
    <g id="ytick_20">
     <g id="line2d_89">
      <path clip-path="url(#pbc1a21740b)" d="M 57.6 102.188212 
L 414.72 102.188212 
" style="fill:none;stroke:#b0b0b0;stroke-linecap:square;stroke-width:0.8;"/>
     </g>
     <g id="line2d_90">
      <g>
       <use style="stroke:#000000;stroke-width:0.6;" x="57.6" xlink:href="#mca604ea9c6" y="102.188212"/>
      </g>
     </g>
    </g>
    <g id="ytick_21">
     <g id="line2d_91">
      <path clip-path="url(#pbc1a21740b)" d="M 57.6 90.793972 
L 414.72 90.793972 
" style="fill:none;stroke:#b0b0b0;stroke-linecap:square;stroke-width:0.8;"/>
     </g>
     <g id="line2d_92">
      <g>
       <use style="stroke:#000000;stroke-width:0.6;" x="57.6" xlink:href="#mca604ea9c6" y="90.793972"/>
      </g>
     </g>
    </g>
    <g id="ytick_22">
     <g id="line2d_93">
      <path clip-path="url(#pbc1a21740b)" d="M 57.6 68.005492 
L 414.72 68.005492 
" style="fill:none;stroke:#b0b0b0;stroke-linecap:square;stroke-width:0.8;"/>
     </g>
     <g id="line2d_94">
      <g>
       <use style="stroke:#000000;stroke-width:0.6;" x="57.6" xlink:href="#mca604ea9c6" y="68.005492"/>
      </g>
     </g>
    </g>
    <g id="ytick_23">
     <g id="line2d_95">
      <path clip-path="url(#pbc1a21740b)" d="M 57.6 56.611252 
L 414.72 56.611252 
" style="fill:none;stroke:#b0b0b0;stroke-linecap:square;stroke-width:0.8;"/>
     </g>
     <g id="line2d_96">
      <g>
       <use style="stroke:#000000;stroke-width:0.6;" x="57.6" xlink:href="#mca604ea9c6" y="56.611252"/>
      </g>
     </g>
    </g>
    <g id="ytick_24">
     <g id="line2d_97">
      <path clip-path="url(#pbc1a21740b)" d="M 57.6 45.217012 
L 414.72 45.217012 
" style="fill:none;stroke:#b0b0b0;stroke-linecap:square;stroke-width:0.8;"/>
     </g>
     <g id="line2d_98">
      <g>
       <use style="stroke:#000000;stroke-width:0.6;" x="57.6" xlink:href="#mca604ea9c6" y="45.217012"/>
      </g>
     </g>
    </g>
    <g id="text_12">
     <!-- trans z -->
     <defs>
      <path d="M 18.3125 70.21875 
L 18.3125 54.6875 
L 36.8125 54.6875 
L 36.8125 47.703125 
L 18.3125 47.703125 
L 18.3125 18.015625 
Q 18.3125 11.328125 20.140625 9.421875 
Q 21.96875 7.515625 27.59375 7.515625 
L 36.8125 7.515625 
L 36.8125 0 
L 27.59375 0 
Q 17.1875 0 13.234375 3.875 
Q 9.28125 7.765625 9.28125 18.015625 
L 9.28125 47.703125 
L 2.6875 47.703125 
L 2.6875 54.6875 
L 9.28125 54.6875 
L 9.28125 70.21875 
z
" id="DejaVuSans-74"/>
      <path d="M 54.890625 33.015625 
L 54.890625 0 
L 45.90625 0 
L 45.90625 32.71875 
Q 45.90625 40.484375 42.875 44.328125 
Q 39.84375 48.1875 33.796875 48.1875 
Q 26.515625 48.1875 22.3125 43.546875 
Q 18.109375 38.921875 18.109375 30.90625 
L 18.109375 0 
L 9.078125 0 
L 9.078125 54.6875 
L 18.109375 54.6875 
L 18.109375 46.1875 
Q 21.34375 51.125 25.703125 53.5625 
Q 30.078125 56 35.796875 56 
Q 45.21875 56 50.046875 50.171875 
Q 54.890625 44.34375 54.890625 33.015625 
z
" id="DejaVuSans-6e"/>
      <path d="M 44.28125 53.078125 
L 44.28125 44.578125 
Q 40.484375 46.53125 36.375 47.5 
Q 32.28125 48.484375 27.875 48.484375 
Q 21.1875 48.484375 17.84375 46.4375 
Q 14.5 44.390625 14.5 40.28125 
Q 14.5 37.15625 16.890625 35.375 
Q 19.28125 33.59375 26.515625 31.984375 
L 29.59375 31.296875 
Q 39.15625 29.25 43.1875 25.515625 
Q 47.21875 21.78125 47.21875 15.09375 
Q 47.21875 7.46875 41.1875 3.015625 
Q 35.15625 -1.421875 24.609375 -1.421875 
Q 20.21875 -1.421875 15.453125 -0.5625 
Q 10.6875 0.296875 5.421875 2 
L 5.421875 11.28125 
Q 10.40625 8.6875 15.234375 7.390625 
Q 20.0625 6.109375 24.8125 6.109375 
Q 31.15625 6.109375 34.5625 8.28125 
Q 37.984375 10.453125 37.984375 14.40625 
Q 37.984375 18.0625 35.515625 20.015625 
Q 33.0625 21.96875 24.703125 23.78125 
L 21.578125 24.515625 
Q 13.234375 26.265625 9.515625 29.90625 
Q 5.8125 33.546875 5.8125 39.890625 
Q 5.8125 47.609375 11.28125 51.796875 
Q 16.75 56 26.8125 56 
Q 31.78125 56 36.171875 55.265625 
Q 40.578125 54.546875 44.28125 53.078125 
z
" id="DejaVuSans-73"/>
      <path d="M 5.515625 54.6875 
L 48.1875 54.6875 
L 48.1875 46.484375 
L 14.40625 7.171875 
L 48.1875 7.171875 
L 48.1875 0 
L 4.296875 0 
L 4.296875 8.203125 
L 38.09375 47.515625 
L 5.515625 47.515625 
z
" id="DejaVuSans-7a"/>
     </defs>
     <g transform="translate(13.875 191.594406)rotate(-90)scale(0.1 -0.1)">
      <use xlink:href="#DejaVuSans-74"/>
      <use x="39.208984" xlink:href="#DejaVuSans-72"/>
      <use x="80.322266" xlink:href="#DejaVuSans-61"/>
      <use x="141.601562" xlink:href="#DejaVuSans-6e"/>
      <use x="204.980469" xlink:href="#DejaVuSans-73"/>
      <use x="257.080078" xlink:href="#DejaVuSans-20"/>
      <use x="288.867188" xlink:href="#DejaVuSans-7a"/>
     </g>
    </g>
   </g>
   <g id="line2d_99">
    <path clip-path="url(#pbc1a21740b)" d="M 73.832727 63.76021 
L 74.524971 71.678148 
L 75.217208 85.192265 
L 75.90628 84.826844 
L 76.598517 97.5615 
L 77.290754 92.166558 
L 78.6751 75.921804 
L 79.367337 75.153837 
L 80.059581 80.265145 
L 80.751818 88.623281 
L 81.446481 86.542214 
L 82.138725 75.497246 
L 82.830962 82.134208 
L 83.523199 86.282577 
L 84.216653 83.045854 
L 84.908883 89.945389 
L 85.601147 93.679143 
L 86.293364 85.87578 
L 86.985656 81.688463 
L 87.675135 91.023231 
L 88.367373 102.815353 
L 89.05961 97.326763 
L 89.751847 89.696097 
L 90.441987 90.945216 
L 91.13423 129.592446 
L 92.518705 191.311678 
L 93.209773 169.667001 
L 93.902011 185.684389 
L 94.594254 206.875631 
L 95.286491 167.888138 
L 95.979336 165.358356 
L 96.671581 135.760902 
L 98.056056 58.869746 
L 98.749362 53.568 
L 99.44205 59.948164 
L 100.133837 79.779419 
L 101.516997 197.93894 
L 102.209241 188.7797 
L 102.901478 231.91921 
L 103.593715 243.729293 
L 104.284797 272.661552 
L 104.977035 289.965639 
L 105.669272 291.694531 
L 106.361509 274.66206 
L 107.05535 273.69859 
L 107.747587 242.632975 
L 108.439825 181.59949 
L 109.132062 171.966548 
L 109.824962 164.758106 
L 110.517208 159.353272 
L 111.209437 194.419123 
L 111.901674 204.637643 
L 112.593675 206.179342 
L 113.285912 233.504419 
L 113.978149 246.410659 
L 114.670387 273.182947 
L 115.361972 266.558139 
L 116.054209 273.28859 
L 116.746446 252.20993 
L 117.438683 259.956711 
L 118.130907 253.681809 
L 118.823151 234.312612 
L 119.515395 211.05479 
L 120.207625 129.305734 
L 120.899869 127.664421 
L 121.594579 86.471217 
L 122.286816 78.08628 
L 122.97906 81.248882 
L 123.67129 97.131996 
L 124.363909 122.299058 
L 125.056146 159.551286 
L 126.44062 214.904159 
L 127.129632 218.947578 
L 127.82187 259.048493 
L 128.514107 246.503916 
L 129.206344 204.009644 
L 129.89967 189.545898 
L 130.591908 153.012658 
L 131.976389 97.711944 
L 132.670814 81.817228 
L 133.363058 71.838055 
L 134.055295 68.101052 
L 135.437802 106.023627 
L 136.130039 141.649098 
L 136.822277 186.617456 
L 137.514514 202.440124 
L 138.204709 175.368938 
L 138.896947 211.55023 
L 139.589184 228.68591 
L 140.281421 227.869085 
L 140.976101 220.355682 
L 141.668336 206.876216 
L 142.360573 168.342348 
L 143.05281 137.301138 
L 143.744756 193.433886 
L 144.436993 157.347391 
L 145.129236 174.88835 
L 145.821474 219.395606 
L 146.511257 247.24351 
L 147.203494 174.721241 
L 147.895731 179.023068 
L 148.588378 212.654753 
L 149.281455 172.06049 
L 149.973692 171.773052 
L 150.665929 126.861503 
L 152.05041 120.402842 
L 152.743731 120.062639 
L 153.435969 156.361393 
L 154.128206 180.461978 
L 154.820443 212.895472 
L 155.510224 225.406239 
L 156.20247 195.224545 
L 156.894699 250.993171 
L 157.586944 229.079817 
L 158.279343 257.042715 
L 158.97158 235.046707 
L 159.663852 238.507552 
L 160.356055 212.299152 
L 161.051271 198.981244 
L 161.743508 211.658354 
L 162.435745 193.511692 
L 163.127989 202.439514 
L 163.818557 198.841061 
L 164.510795 203.564389 
L 165.203032 189.808682 
L 165.895269 211.617681 
L 166.586145 177.169951 
L 167.278382 223.419683 
L 167.970626 223.488534 
L 168.662863 181.747502 
L 169.356457 173.610219 
L 170.048694 168.077726 
L 170.740931 137.231336 
L 171.433168 114.213096 
L 172.125831 100.178476 
L 172.818048 127.284947 
L 173.510286 169.266224 
L 174.202529 191.144529 
L 174.892987 190.725989 
L 175.585225 220.134508 
L 176.277462 215.789004 
L 176.969699 218.294996 
L 177.662487 203.593074 
L 178.354724 216.489138 
L 179.046962 213.213683 
L 179.739205 198.806854 
L 180.434067 134.219593 
L 181.126297 164.513489 
L 181.818534 173.723535 
L 182.510778 175.974171 
L 183.200632 211.063969 
L 183.892876 235.037605 
L 184.585113 215.770502 
L 185.2776 293.496655 
L 185.969588 244.541584 
L 186.661455 258.413445 
L 187.353692 204.996803 
L 188.045929 189.314123 
L 188.738167 150.818725 
M 191.509762 211.153625 
L 192.199235 259.524728 
L 192.891481 231.787118 
L 193.583718 264.339192 
L 194.275953 204.773981 
L 194.967935 236.430331 
L 195.660172 211.084424 
L 196.352409 260.191213 
L 197.044646 190.514635 
L 197.738917 198.82742 
L 199.123391 112.882408 
L 199.815628 97.536191 
L 200.508823 102.725416 
L 201.20106 142.670469 
L 201.893304 134.658666 
L 202.585541 176.269762 
L 203.275538 204.859889 
L 203.967776 239.864767 
L 204.660013 234.304713 
L 205.35225 225.496582 
L 206.044672 223.174831 
L 206.736909 238.989449 
L 207.429146 172.201955 
L 208.121383 153.888325 
L 208.815873 152.715187 
L 209.50811 148.448781 
L 210.200348 170.99754 
L 210.892585 203.491576 
L 211.583861 223.854102 
L 212.276099 250.784829 
L 212.968342 282.564292 
L 213.66058 250.43978 
L 214.351919 229.298596 
L 215.044156 238.077874 
L 217.814995 140.83919 
L 218.507232 146.733727 
L 219.199469 156.811573 
L 219.891706 204.077126 
L 220.58497 232.909744 
L 221.277214 232.994275 
L 221.969824 260.549108 
L 222.661681 270.454385 
L 223.354881 266.968814 
L 224.047124 261.941312 
L 224.739362 259.060404 
L 226.815566 217.848961 
L 228.200041 164.118821 
L 229.584835 104.051104 
L 230.277072 116.180511 
L 230.96931 78.645879 
L 232.35419 131.810525 
L 233.046427 119.747987 
L 233.738664 127.338481 
L 234.434318 160.597662 
L 235.126562 169.323541 
L 235.818799 165.398991 
L 236.511036 177.3484 
L 237.205725 184.344267 
L 237.897963 162.427308 
L 239.282437 167.531336 
L 239.966295 163.35935 
L 240.658539 207.18563 
L 241.350776 210.377963 
L 242.043013 198.474145 
L 243.427569 150.934769 
L 244.119806 161.820979 
L 244.812043 111.634753 
L 245.504977 96.038042 
L 246.197214 91.707999 
L 246.889449 106.347006 
L 247.581686 101.580842 
L 248.274878 102.370513 
L 249.659352 114.495223 
L 250.351589 131.970778 
L 251.043826 137.427932 
L 251.736771 197.795132 
L 252.429009 173.669753 
L 253.121246 169.069079 
L 253.81349 228.139543 
L 254.500718 218.229424 
L 255.192947 221.758701 
L 255.885192 195.581032 
L 256.577429 194.951692 
L 257.962163 211.60252 
L 258.6544 192.592806 
L 259.346637 202.994771 
L 260.040695 194.553727 
L 260.732932 165.605325 
L 261.425169 128.481676 
L 262.117406 100.520635 
L 262.80931 83.388691 
L 263.501547 105.849772 
L 264.193784 106.82418 
L 265.576308 178.901435 
L 266.268553 176.947082 
L 266.960791 196.860316 
L 267.653028 229.119703 
L 268.344813 274.222706 
L 269.03705 212.18767 
L 269.729287 203.633555 
L 270.421524 210.505786 
L 271.116285 248.564643 
L 271.808522 275.460165 
L 272.500759 212.477898 
L 273.192996 205.322772 
L 273.886626 255.503446 
L 274.578864 235.525335 
M 279.422083 183.939603 
L 280.11432 201.805868 
L 280.806557 174.848605 
M 282.885262 121.788175 
L 283.576905 214.004183 
L 284.269143 173.895587 
L 284.961386 172.635214 
L 285.652297 217.111642 
M 287.036771 180.674167 
L 287.729008 165.764645 
M 291.190092 201.209428 
L 291.882329 193.561509 
M 297.420548 150.948701 
L 298.112785 218.091686 
L 298.805022 121.29258 
M 305.72952 185.973068 
L 306.421757 203.309363 
L 307.114493 169.114718 
L 307.804746 118.764202 
L 308.496983 103.097377 
L 309.18922 103.929825 
M 315.42021 207.434099 
L 316.112447 146.246781 
L 316.803859 130.858418 
L 317.496096 148.99869 
L 318.188333 86.548435 
L 318.880571 117.171618 
M 320.961058 211.704793 
L 321.653295 225.183039 
M 323.034614 234.991399 
L 323.726858 211.353726 
L 324.419095 228.91715 
L 325.112821 239.006958 
L 325.805058 256.35764 
L 326.497302 254.82732 
M 327.884744 174.551849 
L 328.576974 150.297644 
L 329.269218 189.496365 
L 329.961455 170.963059 
L 330.653469 163.217512 
L 331.346218 151.530325 
L 332.037944 134.013306 
L 332.730181 119.609247 
L 333.422638 117.745212 
L 334.114875 124.484717 
L 334.807119 154.149873 
M 337.575094 116.285733 
L 338.267337 113.419158 
L 338.959426 109.187909 
L 339.651661 110.968336 
L 340.343899 103.835144 
L 341.036136 108.208786 
L 341.726718 114.088387 
L 342.418955 128.272582 
L 343.803429 148.972271 
L 344.492933 149.550107 
L 345.18517 154.141779 
L 345.877414 146.06391 
L 346.569651 98.520362 
L 347.262064 102.713439 
L 347.953989 103.91799 
L 348.646226 118.747725 
M 351.414505 194.994299 
L 352.106742 248.284214 
L 352.798979 172.372332 
L 353.491776 116.807635 
L 354.184019 191.848663 
L 354.87625 122.878327 
L 355.569124 219.470318 
M 358.33989 239.588505 
L 359.721951 251.092955 
M 361.799274 227.351636 
L 362.491511 269.507921 
L 363.183748 273.469268 
L 363.875985 262.270393 
M 365.952863 254.309577 
L 366.6451 242.961837 
L 367.338052 247.737241 
L 368.030296 249.923008 
L 368.722533 238.67463 
L 369.41477 223.108297 
L 370.107983 211.456805 
L 370.80022 172.230694 
L 371.492457 208.990164 
M 372.877912 216.965749 
L 373.570157 185.540557 
L 374.262395 172.742789 
L 374.95463 172.761992 
M 377.032291 172.048621 
L 377.724534 200.884365 
M 380.492239 271.846878 
L 381.184476 193.256688 
M 382.568336 190.260424 
L 383.260573 143.192445 
L 383.952811 126.601738 
L 384.644637 124.714342 
L 385.336874 138.227345 
L 386.029111 171.196728 
L 386.721348 151.174339 
M 388.104412 149.152432 
L 388.796657 143.007219 
L 389.488894 177.52265 
L 390.179932 153.199419 
L 390.872169 153.983296 
L 391.564426 176.764679 
M 395.717867 203.949922 
L 396.410104 198.193252 
L 396.410104 198.193252 
" style="fill:none;stroke:#ff0000;stroke-linecap:square;"/>
   </g>
   <g id="line2d_100">
    <path clip-path="url(#pbc1a21740b)" d="M 73.832727 67.153272 
L 74.524971 70.938035 
L 75.217208 87.649301 
L 75.90628 88.249648 
L 76.598517 94.890512 
L 77.290754 93.294823 
L 77.982991 82.765653 
L 78.6751 78.155277 
L 79.367337 75.738239 
L 80.059581 75.849951 
L 80.751818 85.392106 
L 81.446481 84.522854 
L 82.138725 77.598734 
L 82.830962 80.75046 
L 83.523199 79.530988 
L 84.216653 81.653666 
L 84.908883 90.245268 
L 85.601147 89.40065 
L 86.293364 82.680293 
L 86.985656 84.800627 
L 88.367373 97.666576 
L 89.05961 91.415199 
L 89.751847 87.224848 
L 90.441987 102.092337 
L 91.826467 148.841533 
L 92.518705 166.818839 
L 93.209773 174.127251 
L 94.594254 182.020684 
L 95.286491 173.086015 
L 95.979336 153.500451 
L 98.056056 66.256473 
L 98.749362 55.528398 
L 99.44205 55.461574 
L 100.133837 69.453464 
L 102.209241 175.529648 
L 104.284797 271.098889 
L 104.977035 290.67404 
L 105.669272 295.488 
L 106.361509 286.811377 
L 107.05535 274.176345 
L 109.132062 177.163537 
L 109.824962 163.311797 
L 110.517208 161.300049 
L 111.209437 167.98066 
L 111.901674 184.293241 
L 112.593675 208.252478 
L 113.978149 245.891715 
L 114.670387 258.58501 
L 115.361972 265.477203 
L 116.054209 267.682932 
L 116.746446 270.451769 
L 117.438683 270.926157 
L 118.130907 265.599565 
L 118.823151 243.301928 
L 120.207625 168.652982 
L 120.899869 126.358339 
L 121.594579 92.341539 
L 122.286816 75.777416 
L 122.97906 70.611014 
L 123.67129 88.523697 
L 124.363909 118.967903 
L 125.056146 155.574661 
L 126.44062 218.171898 
L 127.129632 248.150224 
L 127.82187 260.990715 
L 128.514107 250.513177 
L 129.89967 194.09131 
L 131.284145 125.052238 
L 131.976389 98.263453 
L 132.670814 79.605963 
L 133.363058 68.696717 
L 134.055295 68.341536 
L 134.747532 80.432437 
L 135.437802 102.930369 
L 136.822277 167.764604 
L 138.204709 202.259304 
L 138.896947 216.033261 
L 139.589184 224.270186 
L 140.281421 223.515187 
L 140.976101 214.28442 
L 141.668336 197.12371 
L 142.360573 175.18192 
L 143.05281 160.024383 
L 143.744756 156.988494 
L 144.436993 163.290847 
L 145.821474 194.563742 
L 146.511257 199.039387 
L 147.203494 195.470027 
L 147.895731 194.873581 
L 148.588378 192.008232 
L 152.05041 118.847508 
L 152.743731 119.461256 
L 154.128206 164.457302 
L 155.510224 223.764306 
L 156.20247 243.135681 
L 156.894699 251.20754 
L 157.586944 253.742667 
L 158.279343 257.676889 
L 158.97158 254.239078 
L 159.663852 239.152118 
L 160.356055 226.911895 
L 161.743508 211.569845 
L 162.435745 203.352044 
L 163.127989 196.666464 
L 163.818557 199.682275 
L 165.203032 212.903781 
L 165.895269 213.893497 
L 166.586145 209.967415 
L 167.278382 207.728529 
L 167.970626 202.737155 
L 168.662863 196.321144 
L 169.356457 182.324411 
L 170.048694 155.289275 
L 171.433168 113.262893 
L 172.125831 109.207004 
L 172.818048 128.417767 
L 173.510286 157.456258 
L 174.892987 201.15161 
L 175.585225 215.475531 
L 176.277462 213.654565 
L 176.969699 211.456181 
L 177.662487 221.081327 
L 178.354724 222.964548 
L 179.046962 213.397121 
L 180.434067 183.047513 
L 181.126297 175.402294 
L 181.818534 178.734633 
L 182.510778 188.357096 
L 183.200632 207.087233 
L 183.892876 231.787376 
L 184.585113 243.505746 
L 185.2776 240.444347 
L 185.969588 232.868822 
L 186.661455 222.850076 
L 187.353692 210.191527 
L 188.045929 193.481439 
L 188.738167 180.993804 
M 191.509762 215.80989 
L 192.199235 234.86482 
L 192.891481 250.057364 
L 193.583718 255.861527 
L 194.275953 255.637654 
L 195.660172 235.753901 
L 196.352409 231.060265 
L 197.738917 187.001343 
L 199.815628 94.856541 
L 200.508823 95.837423 
L 201.20106 114.232955 
L 202.585541 173.824408 
L 203.275538 197.723504 
L 204.660013 234.140278 
L 205.35225 243.143075 
L 206.044672 233.148165 
L 206.736909 216.772382 
L 207.429146 192.290576 
L 208.121383 163.544278 
L 208.815873 147.394026 
L 209.50811 150.61174 
L 210.200348 171.636467 
L 211.583861 224.727028 
L 212.276099 245.526168 
L 212.968342 256.607361 
L 213.66058 259.535613 
L 214.351919 255.831495 
L 215.044156 241.200766 
L 216.428631 202.585917 
L 217.120874 169.928243 
L 217.814995 144.842599 
L 218.507232 133.339117 
L 219.199469 145.471376 
L 221.277214 248.974724 
L 221.969824 268.025472 
L 222.661681 272.629584 
L 223.354881 269.974178 
L 224.047124 265.965905 
L 224.739362 258.506187 
L 225.431599 249.441607 
L 226.123329 233.419005 
L 226.815566 213.17126 
L 227.507804 186.916544 
L 228.200041 167.290188 
L 229.584835 114.884895 
L 230.277072 102.026353 
L 230.96931 94.008992 
L 231.661953 96.130492 
L 232.35419 101.303896 
L 233.046427 113.944629 
L 234.434318 150.21052 
L 235.126562 162.177673 
L 235.818799 165.440211 
L 236.511036 170.122134 
L 237.205725 173.627932 
L 237.897963 168.58736 
L 238.5902 161.255147 
L 239.282437 161.791464 
L 239.966295 177.423854 
L 240.658539 196.845752 
L 241.350776 206.739653 
L 242.043013 200.771421 
L 242.735331 179.178397 
L 243.427569 150.721856 
L 244.119806 126.836335 
L 244.812043 110.815475 
L 245.504977 108.692496 
L 246.197214 104.669862 
L 246.889449 101.484003 
L 247.581686 100.704894 
L 248.274878 101.497095 
L 248.967115 104.564142 
L 249.659352 113.866935 
L 250.351589 121.406894 
L 251.043826 131.401293 
L 251.736771 148.06988 
L 253.121246 192.210898 
L 253.81349 217.636516 
L 254.500718 230.063734 
L 255.192947 231.94836 
L 255.885192 227.284537 
L 256.577429 218.258396 
L 257.269926 213.253207 
L 257.962163 218.190636 
L 258.6544 216.386538 
L 259.346637 212.257904 
L 260.040695 196.654219 
L 262.117406 92.612604 
L 262.80931 84.165162 
L 263.501547 86.102593 
L 264.193784 98.668242 
L 266.268553 175.385806 
L 266.960791 194.553076 
L 267.653028 203.36079 
L 268.344813 206.769902 
L 269.03705 210.999724 
L 269.729287 212.959828 
L 271.116285 226.648102 
L 271.808522 230.620241 
L 273.192996 241.672882 
L 273.886626 244.88069 
L 274.578864 235.139902 
M 279.422083 180.689681 
L 280.11432 177.358527 
L 280.806557 164.155481 
M 282.885262 150.726084 
L 283.576905 169.878675 
L 284.269143 180.159284 
L 284.961386 178.012529 
L 285.652297 173.418164 
M 287.036771 171.674506 
L 287.729008 171.422503 
M 291.190092 171.322304 
L 291.882329 165.483725 
M 297.420548 216.799532 
L 298.112785 176.624533 
L 298.805022 149.703922 
M 305.72952 187.216616 
L 306.421757 186.495387 
L 307.114493 165.046445 
L 308.496983 111.338619 
L 309.18922 103.582774 
M 315.42021 183.581552 
L 316.112447 166.849454 
L 317.496096 110.222103 
L 318.188333 103.064068 
L 318.880571 113.66222 
M 320.961058 197.41335 
L 321.653295 213.469113 
M 323.034614 213.856993 
L 323.726858 214.580126 
L 324.419095 223.673729 
L 325.112821 236.165619 
L 325.805058 245.516369 
L 326.497302 246.937638 
M 327.884744 191.286217 
L 328.576974 172.792226 
L 329.269218 169.366829 
L 329.961455 167.05454 
L 330.653469 158.637032 
L 331.346218 145.60303 
L 332.730181 114.488148 
L 333.422638 113.424515 
L 334.114875 128.385994 
L 334.807119 150.999764 
M 337.575094 129.114486 
L 338.267337 116.513573 
L 338.959426 106.395054 
L 339.651661 103.018436 
L 340.343899 106.03661 
L 341.036136 107.613667 
L 341.726718 112.585709 
L 342.418955 122.28743 
L 343.111192 129.692325 
L 343.803429 130.87559 
L 344.492933 127.416326 
L 346.569651 100.827626 
L 347.262064 94.638669 
L 347.953989 100.339932 
L 348.646226 120.311471 
M 351.414505 177.911345 
L 352.106742 180.643054 
L 352.798979 177.412049 
L 353.491776 165.715313 
L 354.87625 133.283285 
L 355.569124 138.781456 
M 358.33989 233.947934 
L 359.029714 236.961651 
L 359.721951 239.464268 
M 361.799274 266.365243 
L 362.491511 270.269092 
L 363.183748 267.671631 
L 363.875985 257.021194 
M 365.952863 244.085016 
L 366.6451 246.857676 
L 367.338052 249.169714 
L 368.030296 246.605447 
L 368.722533 241.995929 
L 370.107983 224.205909 
L 370.80022 218.080264 
L 371.492457 214.737151 
M 372.877912 203.731044 
L 374.262395 174.387056 
L 374.95463 170.235035 
M 377.032291 170.866712 
L 377.724534 169.669282 
M 380.492239 149.261686 
L 381.184476 151.338075 
M 382.568336 150.022006 
L 383.260573 144.322358 
L 383.952811 127.550306 
L 384.644637 122.640196 
L 385.336874 132.404715 
L 386.029111 139.490187 
L 386.721348 145.282054 
M 388.104412 147.953153 
L 388.796657 149.520721 
L 389.488894 153.611485 
L 390.872169 164.51189 
L 391.564426 169.537853 
M 395.717867 198.627833 
L 396.410104 197.857682 
L 396.410104 197.857682 
" style="fill:none;stroke:#0000ff;stroke-linecap:square;"/>
   </g>
   <g id="line2d_101">
    <path clip-path="url(#pbc1a21740b)" d="M 275.271101 221.55069 
L 275.963338 207.82721 
L 276.655785 200.274485 
M 278.040266 189.38878 
L 278.732503 185.882364 
M 281.498794 148.70391 
L 282.192431 143.168879 
M 288.421904 172.393519 
L 289.114148 170.803275 
M 292.574566 153.999723 
L 293.266803 164.117397 
L 293.961207 183.286454 
L 295.345682 232.086073 
M 300.885099 179.081432 
L 301.577343 192.809376 
M 302.959621 192.906464 
L 303.651864 180.592356 
M 309.881458 119.501466 
L 311.268039 170.748181 
L 311.960277 184.352297 
L 312.65252 185.738069 
L 313.343492 179.875651 
L 314.035729 182.412861 
L 314.727973 185.498201 
M 319.576584 140.178389 
L 320.268821 168.187052 
M 335.499356 164.366095 
L 336.190619 158.480339 
L 336.882856 143.798223 
M 349.338463 148.126293 
L 350.0307 163.002481 
L 350.722267 169.902321 
M 356.26317 154.532441 
L 357.647653 214.33194 
M 360.414189 247.619102 
L 361.106426 259.739887 
M 364.568397 248.027035 
L 365.260626 246.872265 
M 375.647823 171.341301 
L 376.34006 170.257623 
M 392.256643 172.269383 
L 392.948735 181.135544 
L 394.333209 193.689526 
L 395.025447 196.180691 
M 397.102341 196.817473 
L 397.794578 192.035645 
L 398.487273 189.06196 
L 398.487273 189.06196 
" style="fill:none;stroke:#008000;stroke-linecap:square;"/>
   </g>
   <g id="patch_3">
    <path d="M 57.6 307.584 
L 57.6 41.472 
" style="fill:none;stroke:#000000;stroke-linecap:square;stroke-linejoin:miter;stroke-width:0.8;"/>
   </g>
   <g id="patch_4">
    <path d="M 414.72 307.584 
L 414.72 41.472 
" style="fill:none;stroke:#000000;stroke-linecap:square;stroke-linejoin:miter;stroke-width:0.8;"/>
   </g>
   <g id="patch_5">
    <path d="M 57.6 307.584 
L 414.72 307.584 
" style="fill:none;stroke:#000000;stroke-linecap:square;stroke-linejoin:miter;stroke-width:0.8;"/>
   </g>
   <g id="patch_6">
    <path d="M 57.6 41.472 
L 414.72 41.472 
" style="fill:none;stroke:#000000;stroke-linecap:square;stroke-linejoin:miter;stroke-width:0.8;"/>
   </g>
   <g id="text_13">
    <!-- Rel Gt Trans Z Plot -->
    <defs>
     <path d="M 44.390625 34.1875 
Q 47.5625 33.109375 50.5625 29.59375 
Q 53.5625 26.078125 56.59375 19.921875 
L 66.609375 0 
L 56 0 
L 46.6875 18.703125 
Q 43.0625 26.03125 39.671875 28.421875 
Q 36.28125 30.8125 30.421875 30.8125 
L 19.671875 30.8125 
L 19.671875 0 
L 9.8125 0 
L 9.8125 72.90625 
L 32.078125 72.90625 
Q 44.578125 72.90625 50.734375 67.671875 
Q 56.890625 62.453125 56.890625 51.90625 
Q 56.890625 45.015625 53.6875 40.46875 
Q 50.484375 35.9375 44.390625 34.1875 
z
M 19.671875 64.796875 
L 19.671875 38.921875 
L 32.078125 38.921875 
Q 39.203125 38.921875 42.84375 42.21875 
Q 46.484375 45.515625 46.484375 51.90625 
Q 46.484375 58.296875 42.84375 61.546875 
Q 39.203125 64.796875 32.078125 64.796875 
z
" id="DejaVuSans-52"/>
     <path d="M 9.421875 75.984375 
L 18.40625 75.984375 
L 18.40625 0 
L 9.421875 0 
z
" id="DejaVuSans-6c"/>
     <path d="M 59.515625 10.40625 
L 59.515625 29.984375 
L 43.40625 29.984375 
L 43.40625 38.09375 
L 69.28125 38.09375 
L 69.28125 6.78125 
Q 63.578125 2.734375 56.6875 0.65625 
Q 49.8125 -1.421875 42 -1.421875 
Q 24.90625 -1.421875 15.25 8.5625 
Q 5.609375 18.5625 5.609375 36.375 
Q 5.609375 54.25 15.25 64.234375 
Q 24.90625 74.21875 42 74.21875 
Q 49.125 74.21875 55.546875 72.453125 
Q 61.96875 70.703125 67.390625 67.28125 
L 67.390625 56.78125 
Q 61.921875 61.421875 55.765625 63.765625 
Q 49.609375 66.109375 42.828125 66.109375 
Q 29.4375 66.109375 22.71875 58.640625 
Q 16.015625 51.171875 16.015625 36.375 
Q 16.015625 21.625 22.71875 14.15625 
Q 29.4375 6.6875 42.828125 6.6875 
Q 48.046875 6.6875 52.140625 7.59375 
Q 56.25 8.5 59.515625 10.40625 
z
" id="DejaVuSans-47"/>
     <path d="M -0.296875 72.90625 
L 61.375 72.90625 
L 61.375 64.59375 
L 35.5 64.59375 
L 35.5 0 
L 25.59375 0 
L 25.59375 64.59375 
L -0.296875 64.59375 
z
" id="DejaVuSans-54"/>
     <path d="M 5.609375 72.90625 
L 62.890625 72.90625 
L 62.890625 65.375 
L 16.796875 8.296875 
L 64.015625 8.296875 
L 64.015625 0 
L 4.5 0 
L 4.5 7.515625 
L 50.59375 64.59375 
L 5.609375 64.59375 
z
" id="DejaVuSans-5a"/>
     <path d="M 19.671875 64.796875 
L 19.671875 37.40625 
L 32.078125 37.40625 
Q 38.96875 37.40625 42.71875 40.96875 
Q 46.484375 44.53125 46.484375 51.125 
Q 46.484375 57.671875 42.71875 61.234375 
Q 38.96875 64.796875 32.078125 64.796875 
z
M 9.8125 72.90625 
L 32.078125 72.90625 
Q 44.34375 72.90625 50.609375 67.359375 
Q 56.890625 61.8125 56.890625 51.125 
Q 56.890625 40.328125 50.609375 34.8125 
Q 44.34375 29.296875 32.078125 29.296875 
L 19.671875 29.296875 
L 19.671875 0 
L 9.8125 0 
z
" id="DejaVuSans-50"/>
     <path d="M 30.609375 48.390625 
Q 23.390625 48.390625 19.1875 42.75 
Q 14.984375 37.109375 14.984375 27.296875 
Q 14.984375 17.484375 19.15625 11.84375 
Q 23.34375 6.203125 30.609375 6.203125 
Q 37.796875 6.203125 41.984375 11.859375 
Q 46.1875 17.53125 46.1875 27.296875 
Q 46.1875 37.015625 41.984375 42.703125 
Q 37.796875 48.390625 30.609375 48.390625 
z
M 30.609375 56 
Q 42.328125 56 49.015625 48.375 
Q 55.71875 40.765625 55.71875 27.296875 
Q 55.71875 13.875 49.015625 6.21875 
Q 42.328125 -1.421875 30.609375 -1.421875 
Q 18.84375 -1.421875 12.171875 6.21875 
Q 5.515625 13.875 5.515625 27.296875 
Q 5.515625 40.765625 12.171875 48.375 
Q 18.84375 56 30.609375 56 
z
" id="DejaVuSans-6f"/>
    </defs>
    <g transform="translate(179.865938 35.472)scale(0.12 -0.12)">
     <use xlink:href="#DejaVuSans-52"/>
     <use x="69.419922" xlink:href="#DejaVuSans-65"/>
     <use x="130.943359" xlink:href="#DejaVuSans-6c"/>
     <use x="158.726562" xlink:href="#DejaVuSans-20"/>
     <use x="190.513672" xlink:href="#DejaVuSans-47"/>
     <use x="268.003906" xlink:href="#DejaVuSans-74"/>
     <use x="307.212891" xlink:href="#DejaVuSans-20"/>
     <use x="339" xlink:href="#DejaVuSans-54"/>
     <use x="399.865234" xlink:href="#DejaVuSans-72"/>
     <use x="440.978516" xlink:href="#DejaVuSans-61"/>
     <use x="502.257812" xlink:href="#DejaVuSans-6e"/>
     <use x="565.636719" xlink:href="#DejaVuSans-73"/>
     <use x="617.736328" xlink:href="#DejaVuSans-20"/>
     <use x="649.523438" xlink:href="#DejaVuSans-5a"/>
     <use x="718.029297" xlink:href="#DejaVuSans-20"/>
     <use x="749.816406" xlink:href="#DejaVuSans-50"/>
     <use x="810.119141" xlink:href="#DejaVuSans-6c"/>
     <use x="837.902344" xlink:href="#DejaVuSans-6f"/>
     <use x="899.083984" xlink:href="#DejaVuSans-74"/>
    </g>
   </g>
  </g>
 </g>
 <defs>
  <clipPath id="pbc1a21740b">
   <rect height="266.112" width="357.12" x="57.6" y="41.472"/>
  </clipPath>
 </defs>
</svg>
