<?xml version="1.0" encoding="utf-8" standalone="no"?>
<!DOCTYPE svg PUBLIC "-//W3C//DTD SVG 1.1//EN"
  "http://www.w3.org/Graphics/SVG/1.1/DTD/svg11.dtd">
<!-- Created with matplotlib (http://matplotlib.org/) -->
<svg height="345.6pt" version="1.1" viewBox="0 0 460.8 345.6" width="460.8pt" xmlns="http://www.w3.org/2000/svg" xmlns:xlink="http://www.w3.org/1999/xlink">
 <defs>
  <style type="text/css">
*{stroke-linecap:butt;stroke-linejoin:round;}
  </style>
 </defs>
 <g id="figure_1">
  <g id="patch_1">
   <path d="M 0 345.6 
L 460.8 345.6 
L 460.8 0 
L 0 0 
z
" style="fill:#ffffff;"/>
  </g>
  <g id="axes_1">
   <g id="patch_2">
    <path d="M 57.6 307.584 
L 414.72 307.584 
L 414.72 41.472 
L 57.6 41.472 
z
" style="fill:#ffffff;"/>
   </g>
   <g id="matplotlib.axis_1">
    <g id="xtick_1">
     <g id="line2d_1">
      <path clip-path="url(#pf1d0a91e34)" d="M 70.555248 307.584 
L 70.555248 41.472 
" style="fill:none;stroke:#b0b0b0;stroke-linecap:square;stroke-width:0.8;"/>
     </g>
     <g id="line2d_2">
      <defs>
       <path d="M 0 0 
L 0 3.5 
" id="m5ccdea6941" style="stroke:#000000;stroke-width:0.8;"/>
      </defs>
      <g>
       <use style="stroke:#000000;stroke-width:0.8;" x="70.555248" xlink:href="#m5ccdea6941" y="307.584"/>
      </g>
     </g>
     <g id="text_1">
      <!-- 0 -->
      <defs>
       <path d="M 31.78125 66.40625 
Q 24.171875 66.40625 20.328125 58.90625 
Q 16.5 51.421875 16.5 36.375 
Q 16.5 21.390625 20.328125 13.890625 
Q 24.171875 6.390625 31.78125 6.390625 
Q 39.453125 6.390625 43.28125 13.890625 
Q 47.125 21.390625 47.125 36.375 
Q 47.125 51.421875 43.28125 58.90625 
Q 39.453125 66.40625 31.78125 66.40625 
z
M 31.78125 74.21875 
Q 44.046875 74.21875 50.515625 64.515625 
Q 56.984375 54.828125 56.984375 36.375 
Q 56.984375 17.96875 50.515625 8.265625 
Q 44.046875 -1.421875 31.78125 -1.421875 
Q 19.53125 -1.421875 13.0625 8.265625 
Q 6.59375 17.96875 6.59375 36.375 
Q 6.59375 54.828125 13.0625 64.515625 
Q 19.53125 74.21875 31.78125 74.21875 
z
" id="DejaVuSans-30"/>
      </defs>
      <g transform="translate(67.373998 322.182437)scale(0.1 -0.1)">
       <use xlink:href="#DejaVuSans-30"/>
      </g>
     </g>
    </g>
    <g id="xtick_2">
     <g id="line2d_3">
      <path clip-path="url(#pf1d0a91e34)" d="M 139.776886 307.584 
L 139.776886 41.472 
" style="fill:none;stroke:#b0b0b0;stroke-linecap:square;stroke-width:0.8;"/>
     </g>
     <g id="line2d_4">
      <g>
       <use style="stroke:#000000;stroke-width:0.8;" x="139.776886" xlink:href="#m5ccdea6941" y="307.584"/>
      </g>
     </g>
     <g id="text_2">
      <!-- 10 -->
      <defs>
       <path d="M 12.40625 8.296875 
L 28.515625 8.296875 
L 28.515625 63.921875 
L 10.984375 60.40625 
L 10.984375 69.390625 
L 28.421875 72.90625 
L 38.28125 72.90625 
L 38.28125 8.296875 
L 54.390625 8.296875 
L 54.390625 0 
L 12.40625 0 
z
" id="DejaVuSans-31"/>
      </defs>
      <g transform="translate(133.414386 322.182437)scale(0.1 -0.1)">
       <use xlink:href="#DejaVuSans-31"/>
       <use x="63.623047" xlink:href="#DejaVuSans-30"/>
      </g>
     </g>
    </g>
    <g id="xtick_3">
     <g id="line2d_5">
      <path clip-path="url(#pf1d0a91e34)" d="M 208.998523 307.584 
L 208.998523 41.472 
" style="fill:none;stroke:#b0b0b0;stroke-linecap:square;stroke-width:0.8;"/>
     </g>
     <g id="line2d_6">
      <g>
       <use style="stroke:#000000;stroke-width:0.8;" x="208.998523" xlink:href="#m5ccdea6941" y="307.584"/>
      </g>
     </g>
     <g id="text_3">
      <!-- 20 -->
      <defs>
       <path d="M 19.1875 8.296875 
L 53.609375 8.296875 
L 53.609375 0 
L 7.328125 0 
L 7.328125 8.296875 
Q 12.9375 14.109375 22.625 23.890625 
Q 32.328125 33.6875 34.8125 36.53125 
Q 39.546875 41.84375 41.421875 45.53125 
Q 43.3125 49.21875 43.3125 52.78125 
Q 43.3125 58.59375 39.234375 62.25 
Q 35.15625 65.921875 28.609375 65.921875 
Q 23.96875 65.921875 18.8125 64.3125 
Q 13.671875 62.703125 7.8125 59.421875 
L 7.8125 69.390625 
Q 13.765625 71.78125 18.9375 73 
Q 24.125 74.21875 28.421875 74.21875 
Q 39.75 74.21875 46.484375 68.546875 
Q 53.21875 62.890625 53.21875 53.421875 
Q 53.21875 48.921875 51.53125 44.890625 
Q 49.859375 40.875 45.40625 35.40625 
Q 44.1875 33.984375 37.640625 27.21875 
Q 31.109375 20.453125 19.1875 8.296875 
z
" id="DejaVuSans-32"/>
      </defs>
      <g transform="translate(202.636023 322.182437)scale(0.1 -0.1)">
       <use xlink:href="#DejaVuSans-32"/>
       <use x="63.623047" xlink:href="#DejaVuSans-30"/>
      </g>
     </g>
    </g>
    <g id="xtick_4">
     <g id="line2d_7">
      <path clip-path="url(#pf1d0a91e34)" d="M 278.220161 307.584 
L 278.220161 41.472 
" style="fill:none;stroke:#b0b0b0;stroke-linecap:square;stroke-width:0.8;"/>
     </g>
     <g id="line2d_8">
      <g>
       <use style="stroke:#000000;stroke-width:0.8;" x="278.220161" xlink:href="#m5ccdea6941" y="307.584"/>
      </g>
     </g>
     <g id="text_4">
      <!-- 30 -->
      <defs>
       <path d="M 40.578125 39.3125 
Q 47.65625 37.796875 51.625 33 
Q 55.609375 28.21875 55.609375 21.1875 
Q 55.609375 10.40625 48.1875 4.484375 
Q 40.765625 -1.421875 27.09375 -1.421875 
Q 22.515625 -1.421875 17.65625 -0.515625 
Q 12.796875 0.390625 7.625 2.203125 
L 7.625 11.71875 
Q 11.71875 9.328125 16.59375 8.109375 
Q 21.484375 6.890625 26.8125 6.890625 
Q 36.078125 6.890625 40.9375 10.546875 
Q 45.796875 14.203125 45.796875 21.1875 
Q 45.796875 27.640625 41.28125 31.265625 
Q 36.765625 34.90625 28.71875 34.90625 
L 20.21875 34.90625 
L 20.21875 43.015625 
L 29.109375 43.015625 
Q 36.375 43.015625 40.234375 45.921875 
Q 44.09375 48.828125 44.09375 54.296875 
Q 44.09375 59.90625 40.109375 62.90625 
Q 36.140625 65.921875 28.71875 65.921875 
Q 24.65625 65.921875 20.015625 65.03125 
Q 15.375 64.15625 9.8125 62.3125 
L 9.8125 71.09375 
Q 15.4375 72.65625 20.34375 73.4375 
Q 25.25 74.21875 29.59375 74.21875 
Q 40.828125 74.21875 47.359375 69.109375 
Q 53.90625 64.015625 53.90625 55.328125 
Q 53.90625 49.265625 50.4375 45.09375 
Q 46.96875 40.921875 40.578125 39.3125 
z
" id="DejaVuSans-33"/>
      </defs>
      <g transform="translate(271.857661 322.182437)scale(0.1 -0.1)">
       <use xlink:href="#DejaVuSans-33"/>
       <use x="63.623047" xlink:href="#DejaVuSans-30"/>
      </g>
     </g>
    </g>
    <g id="xtick_5">
     <g id="line2d_9">
      <path clip-path="url(#pf1d0a91e34)" d="M 347.441799 307.584 
L 347.441799 41.472 
" style="fill:none;stroke:#b0b0b0;stroke-linecap:square;stroke-width:0.8;"/>
     </g>
     <g id="line2d_10">
      <g>
       <use style="stroke:#000000;stroke-width:0.8;" x="347.441799" xlink:href="#m5ccdea6941" y="307.584"/>
      </g>
     </g>
     <g id="text_5">
      <!-- 40 -->
      <defs>
       <path d="M 37.796875 64.3125 
L 12.890625 25.390625 
L 37.796875 25.390625 
z
M 35.203125 72.90625 
L 47.609375 72.90625 
L 47.609375 25.390625 
L 58.015625 25.390625 
L 58.015625 17.1875 
L 47.609375 17.1875 
L 47.609375 0 
L 37.796875 0 
L 37.796875 17.1875 
L 4.890625 17.1875 
L 4.890625 26.703125 
z
" id="DejaVuSans-34"/>
      </defs>
      <g transform="translate(341.079299 322.182437)scale(0.1 -0.1)">
       <use xlink:href="#DejaVuSans-34"/>
       <use x="63.623047" xlink:href="#DejaVuSans-30"/>
      </g>
     </g>
    </g>
    <g id="xtick_6">
     <g id="line2d_11">
      <path clip-path="url(#pf1d0a91e34)" d="M 84.399575 307.584 
L 84.399575 41.472 
" style="fill:none;stroke:#b0b0b0;stroke-linecap:square;stroke-width:0.8;"/>
     </g>
     <g id="line2d_12">
      <defs>
       <path d="M 0 0 
L 0 2 
" id="m2485cd7758" style="stroke:#000000;stroke-width:0.6;"/>
      </defs>
      <g>
       <use style="stroke:#000000;stroke-width:0.6;" x="84.399575" xlink:href="#m2485cd7758" y="307.584"/>
      </g>
     </g>
    </g>
    <g id="xtick_7">
     <g id="line2d_13">
      <path clip-path="url(#pf1d0a91e34)" d="M 98.243903 307.584 
L 98.243903 41.472 
" style="fill:none;stroke:#b0b0b0;stroke-linecap:square;stroke-width:0.8;"/>
     </g>
     <g id="line2d_14">
      <g>
       <use style="stroke:#000000;stroke-width:0.6;" x="98.243903" xlink:href="#m2485cd7758" y="307.584"/>
      </g>
     </g>
    </g>
    <g id="xtick_8">
     <g id="line2d_15">
      <path clip-path="url(#pf1d0a91e34)" d="M 112.08823 307.584 
L 112.08823 41.472 
" style="fill:none;stroke:#b0b0b0;stroke-linecap:square;stroke-width:0.8;"/>
     </g>
     <g id="line2d_16">
      <g>
       <use style="stroke:#000000;stroke-width:0.6;" x="112.08823" xlink:href="#m2485cd7758" y="307.584"/>
      </g>
     </g>
    </g>
    <g id="xtick_9">
     <g id="line2d_17">
      <path clip-path="url(#pf1d0a91e34)" d="M 125.932558 307.584 
L 125.932558 41.472 
" style="fill:none;stroke:#b0b0b0;stroke-linecap:square;stroke-width:0.8;"/>
     </g>
     <g id="line2d_18">
      <g>
       <use style="stroke:#000000;stroke-width:0.6;" x="125.932558" xlink:href="#m2485cd7758" y="307.584"/>
      </g>
     </g>
    </g>
    <g id="xtick_10">
     <g id="line2d_19">
      <path clip-path="url(#pf1d0a91e34)" d="M 153.621213 307.584 
L 153.621213 41.472 
" style="fill:none;stroke:#b0b0b0;stroke-linecap:square;stroke-width:0.8;"/>
     </g>
     <g id="line2d_20">
      <g>
       <use style="stroke:#000000;stroke-width:0.6;" x="153.621213" xlink:href="#m2485cd7758" y="307.584"/>
      </g>
     </g>
    </g>
    <g id="xtick_11">
     <g id="line2d_21">
      <path clip-path="url(#pf1d0a91e34)" d="M 167.465541 307.584 
L 167.465541 41.472 
" style="fill:none;stroke:#b0b0b0;stroke-linecap:square;stroke-width:0.8;"/>
     </g>
     <g id="line2d_22">
      <g>
       <use style="stroke:#000000;stroke-width:0.6;" x="167.465541" xlink:href="#m2485cd7758" y="307.584"/>
      </g>
     </g>
    </g>
    <g id="xtick_12">
     <g id="line2d_23">
      <path clip-path="url(#pf1d0a91e34)" d="M 181.309868 307.584 
L 181.309868 41.472 
" style="fill:none;stroke:#b0b0b0;stroke-linecap:square;stroke-width:0.8;"/>
     </g>
     <g id="line2d_24">
      <g>
       <use style="stroke:#000000;stroke-width:0.6;" x="181.309868" xlink:href="#m2485cd7758" y="307.584"/>
      </g>
     </g>
    </g>
    <g id="xtick_13">
     <g id="line2d_25">
      <path clip-path="url(#pf1d0a91e34)" d="M 195.154196 307.584 
L 195.154196 41.472 
" style="fill:none;stroke:#b0b0b0;stroke-linecap:square;stroke-width:0.8;"/>
     </g>
     <g id="line2d_26">
      <g>
       <use style="stroke:#000000;stroke-width:0.6;" x="195.154196" xlink:href="#m2485cd7758" y="307.584"/>
      </g>
     </g>
    </g>
    <g id="xtick_14">
     <g id="line2d_27">
      <path clip-path="url(#pf1d0a91e34)" d="M 222.842851 307.584 
L 222.842851 41.472 
" style="fill:none;stroke:#b0b0b0;stroke-linecap:square;stroke-width:0.8;"/>
     </g>
     <g id="line2d_28">
      <g>
       <use style="stroke:#000000;stroke-width:0.6;" x="222.842851" xlink:href="#m2485cd7758" y="307.584"/>
      </g>
     </g>
    </g>
    <g id="xtick_15">
     <g id="line2d_29">
      <path clip-path="url(#pf1d0a91e34)" d="M 236.687178 307.584 
L 236.687178 41.472 
" style="fill:none;stroke:#b0b0b0;stroke-linecap:square;stroke-width:0.8;"/>
     </g>
     <g id="line2d_30">
      <g>
       <use style="stroke:#000000;stroke-width:0.6;" x="236.687178" xlink:href="#m2485cd7758" y="307.584"/>
      </g>
     </g>
    </g>
    <g id="xtick_16">
     <g id="line2d_31">
      <path clip-path="url(#pf1d0a91e34)" d="M 250.531506 307.584 
L 250.531506 41.472 
" style="fill:none;stroke:#b0b0b0;stroke-linecap:square;stroke-width:0.8;"/>
     </g>
     <g id="line2d_32">
      <g>
       <use style="stroke:#000000;stroke-width:0.6;" x="250.531506" xlink:href="#m2485cd7758" y="307.584"/>
      </g>
     </g>
    </g>
    <g id="xtick_17">
     <g id="line2d_33">
      <path clip-path="url(#pf1d0a91e34)" d="M 264.375834 307.584 
L 264.375834 41.472 
" style="fill:none;stroke:#b0b0b0;stroke-linecap:square;stroke-width:0.8;"/>
     </g>
     <g id="line2d_34">
      <g>
       <use style="stroke:#000000;stroke-width:0.6;" x="264.375834" xlink:href="#m2485cd7758" y="307.584"/>
      </g>
     </g>
    </g>
    <g id="xtick_18">
     <g id="line2d_35">
      <path clip-path="url(#pf1d0a91e34)" d="M 292.064489 307.584 
L 292.064489 41.472 
" style="fill:none;stroke:#b0b0b0;stroke-linecap:square;stroke-width:0.8;"/>
     </g>
     <g id="line2d_36">
      <g>
       <use style="stroke:#000000;stroke-width:0.6;" x="292.064489" xlink:href="#m2485cd7758" y="307.584"/>
      </g>
     </g>
    </g>
    <g id="xtick_19">
     <g id="line2d_37">
      <path clip-path="url(#pf1d0a91e34)" d="M 305.908816 307.584 
L 305.908816 41.472 
" style="fill:none;stroke:#b0b0b0;stroke-linecap:square;stroke-width:0.8;"/>
     </g>
     <g id="line2d_38">
      <g>
       <use style="stroke:#000000;stroke-width:0.6;" x="305.908816" xlink:href="#m2485cd7758" y="307.584"/>
      </g>
     </g>
    </g>
    <g id="xtick_20">
     <g id="line2d_39">
      <path clip-path="url(#pf1d0a91e34)" d="M 319.753144 307.584 
L 319.753144 41.472 
" style="fill:none;stroke:#b0b0b0;stroke-linecap:square;stroke-width:0.8;"/>
     </g>
     <g id="line2d_40">
      <g>
       <use style="stroke:#000000;stroke-width:0.6;" x="319.753144" xlink:href="#m2485cd7758" y="307.584"/>
      </g>
     </g>
    </g>
    <g id="xtick_21">
     <g id="line2d_41">
      <path clip-path="url(#pf1d0a91e34)" d="M 333.597471 307.584 
L 333.597471 41.472 
" style="fill:none;stroke:#b0b0b0;stroke-linecap:square;stroke-width:0.8;"/>
     </g>
     <g id="line2d_42">
      <g>
       <use style="stroke:#000000;stroke-width:0.6;" x="333.597471" xlink:href="#m2485cd7758" y="307.584"/>
      </g>
     </g>
    </g>
    <g id="xtick_22">
     <g id="line2d_43">
      <path clip-path="url(#pf1d0a91e34)" d="M 361.286127 307.584 
L 361.286127 41.472 
" style="fill:none;stroke:#b0b0b0;stroke-linecap:square;stroke-width:0.8;"/>
     </g>
     <g id="line2d_44">
      <g>
       <use style="stroke:#000000;stroke-width:0.6;" x="361.286127" xlink:href="#m2485cd7758" y="307.584"/>
      </g>
     </g>
    </g>
    <g id="xtick_23">
     <g id="line2d_45">
      <path clip-path="url(#pf1d0a91e34)" d="M 375.130454 307.584 
L 375.130454 41.472 
" style="fill:none;stroke:#b0b0b0;stroke-linecap:square;stroke-width:0.8;"/>
     </g>
     <g id="line2d_46">
      <g>
       <use style="stroke:#000000;stroke-width:0.6;" x="375.130454" xlink:href="#m2485cd7758" y="307.584"/>
      </g>
     </g>
    </g>
    <g id="xtick_24">
     <g id="line2d_47">
      <path clip-path="url(#pf1d0a91e34)" d="M 388.974782 307.584 
L 388.974782 41.472 
" style="fill:none;stroke:#b0b0b0;stroke-linecap:square;stroke-width:0.8;"/>
     </g>
     <g id="line2d_48">
      <g>
       <use style="stroke:#000000;stroke-width:0.6;" x="388.974782" xlink:href="#m2485cd7758" y="307.584"/>
      </g>
     </g>
    </g>
    <g id="xtick_25">
     <g id="line2d_49">
      <path clip-path="url(#pf1d0a91e34)" d="M 402.819109 307.584 
L 402.819109 41.472 
" style="fill:none;stroke:#b0b0b0;stroke-linecap:square;stroke-width:0.8;"/>
     </g>
     <g id="line2d_50">
      <g>
       <use style="stroke:#000000;stroke-width:0.6;" x="402.819109" xlink:href="#m2485cd7758" y="307.584"/>
      </g>
     </g>
    </g>
    <g id="text_6">
     <!-- frame # [] -->
     <defs>
      <path d="M 37.109375 75.984375 
L 37.109375 68.5 
L 28.515625 68.5 
Q 23.6875 68.5 21.796875 66.546875 
Q 19.921875 64.59375 19.921875 59.515625 
L 19.921875 54.6875 
L 34.71875 54.6875 
L 34.71875 47.703125 
L 19.921875 47.703125 
L 19.921875 0 
L 10.890625 0 
L 10.890625 47.703125 
L 2.296875 47.703125 
L 2.296875 54.6875 
L 10.890625 54.6875 
L 10.890625 58.5 
Q 10.890625 67.625 15.140625 71.796875 
Q 19.390625 75.984375 28.609375 75.984375 
z
" id="DejaVuSans-66"/>
      <path d="M 41.109375 46.296875 
Q 39.59375 47.171875 37.8125 47.578125 
Q 36.03125 48 33.890625 48 
Q 26.265625 48 22.1875 43.046875 
Q 18.109375 38.09375 18.109375 28.8125 
L 18.109375 0 
L 9.078125 0 
L 9.078125 54.6875 
L 18.109375 54.6875 
L 18.109375 46.1875 
Q 20.953125 51.171875 25.484375 53.578125 
Q 30.03125 56 36.53125 56 
Q 37.453125 56 38.578125 55.875 
Q 39.703125 55.765625 41.0625 55.515625 
z
" id="DejaVuSans-72"/>
      <path d="M 34.28125 27.484375 
Q 23.390625 27.484375 19.1875 25 
Q 14.984375 22.515625 14.984375 16.5 
Q 14.984375 11.71875 18.140625 8.90625 
Q 21.296875 6.109375 26.703125 6.109375 
Q 34.1875 6.109375 38.703125 11.40625 
Q 43.21875 16.703125 43.21875 25.484375 
L 43.21875 27.484375 
z
M 52.203125 31.203125 
L 52.203125 0 
L 43.21875 0 
L 43.21875 8.296875 
Q 40.140625 3.328125 35.546875 0.953125 
Q 30.953125 -1.421875 24.3125 -1.421875 
Q 15.921875 -1.421875 10.953125 3.296875 
Q 6 8.015625 6 15.921875 
Q 6 25.140625 12.171875 29.828125 
Q 18.359375 34.515625 30.609375 34.515625 
L 43.21875 34.515625 
L 43.21875 35.40625 
Q 43.21875 41.609375 39.140625 45 
Q 35.0625 48.390625 27.6875 48.390625 
Q 23 48.390625 18.546875 47.265625 
Q 14.109375 46.140625 10.015625 43.890625 
L 10.015625 52.203125 
Q 14.9375 54.109375 19.578125 55.046875 
Q 24.21875 56 28.609375 56 
Q 40.484375 56 46.34375 49.84375 
Q 52.203125 43.703125 52.203125 31.203125 
z
" id="DejaVuSans-61"/>
      <path d="M 52 44.1875 
Q 55.375 50.25 60.0625 53.125 
Q 64.75 56 71.09375 56 
Q 79.640625 56 84.28125 50.015625 
Q 88.921875 44.046875 88.921875 33.015625 
L 88.921875 0 
L 79.890625 0 
L 79.890625 32.71875 
Q 79.890625 40.578125 77.09375 44.375 
Q 74.3125 48.1875 68.609375 48.1875 
Q 61.625 48.1875 57.5625 43.546875 
Q 53.515625 38.921875 53.515625 30.90625 
L 53.515625 0 
L 44.484375 0 
L 44.484375 32.71875 
Q 44.484375 40.625 41.703125 44.40625 
Q 38.921875 48.1875 33.109375 48.1875 
Q 26.21875 48.1875 22.15625 43.53125 
Q 18.109375 38.875 18.109375 30.90625 
L 18.109375 0 
L 9.078125 0 
L 9.078125 54.6875 
L 18.109375 54.6875 
L 18.109375 46.1875 
Q 21.1875 51.21875 25.484375 53.609375 
Q 29.78125 56 35.6875 56 
Q 41.65625 56 45.828125 52.96875 
Q 50 49.953125 52 44.1875 
z
" id="DejaVuSans-6d"/>
      <path d="M 56.203125 29.59375 
L 56.203125 25.203125 
L 14.890625 25.203125 
Q 15.484375 15.921875 20.484375 11.0625 
Q 25.484375 6.203125 34.421875 6.203125 
Q 39.59375 6.203125 44.453125 7.46875 
Q 49.3125 8.734375 54.109375 11.28125 
L 54.109375 2.78125 
Q 49.265625 0.734375 44.1875 -0.34375 
Q 39.109375 -1.421875 33.890625 -1.421875 
Q 20.796875 -1.421875 13.15625 6.1875 
Q 5.515625 13.8125 5.515625 26.8125 
Q 5.515625 40.234375 12.765625 48.109375 
Q 20.015625 56 32.328125 56 
Q 43.359375 56 49.78125 48.890625 
Q 56.203125 41.796875 56.203125 29.59375 
z
M 47.21875 32.234375 
Q 47.125 39.59375 43.09375 43.984375 
Q 39.0625 48.390625 32.421875 48.390625 
Q 24.90625 48.390625 20.390625 44.140625 
Q 15.875 39.890625 15.1875 32.171875 
z
" id="DejaVuSans-65"/>
      <path id="DejaVuSans-20"/>
      <path d="M 51.125 44 
L 36.921875 44 
L 32.8125 27.6875 
L 47.125 27.6875 
z
M 43.796875 71.78125 
L 38.71875 51.515625 
L 52.984375 51.515625 
L 58.109375 71.78125 
L 65.921875 71.78125 
L 60.890625 51.515625 
L 76.125 51.515625 
L 76.125 44 
L 58.984375 44 
L 54.984375 27.6875 
L 70.515625 27.6875 
L 70.515625 20.21875 
L 53.078125 20.21875 
L 48 0 
L 40.1875 0 
L 45.21875 20.21875 
L 30.90625 20.21875 
L 25.875 0 
L 18.015625 0 
L 23.09375 20.21875 
L 7.71875 20.21875 
L 7.71875 27.6875 
L 24.90625 27.6875 
L 29 44 
L 13.28125 44 
L 13.28125 51.515625 
L 30.90625 51.515625 
L 35.890625 71.78125 
z
" id="DejaVuSans-23"/>
      <path d="M 8.59375 75.984375 
L 29.296875 75.984375 
L 29.296875 69 
L 17.578125 69 
L 17.578125 -6.203125 
L 29.296875 -6.203125 
L 29.296875 -13.1875 
L 8.59375 -13.1875 
z
" id="DejaVuSans-5b"/>
      <path d="M 30.421875 75.984375 
L 30.421875 -13.1875 
L 9.71875 -13.1875 
L 9.71875 -6.203125 
L 21.390625 -6.203125 
L 21.390625 69 
L 9.71875 69 
L 9.71875 75.984375 
z
" id="DejaVuSans-5d"/>
     </defs>
     <g transform="translate(210.063906 335.860562)scale(0.1 -0.1)">
      <use xlink:href="#DejaVuSans-66"/>
      <use x="35.205078" xlink:href="#DejaVuSans-72"/>
      <use x="76.318359" xlink:href="#DejaVuSans-61"/>
      <use x="137.597656" xlink:href="#DejaVuSans-6d"/>
      <use x="235.009766" xlink:href="#DejaVuSans-65"/>
      <use x="296.533203" xlink:href="#DejaVuSans-20"/>
      <use x="328.320312" xlink:href="#DejaVuSans-23"/>
      <use x="412.109375" xlink:href="#DejaVuSans-20"/>
      <use x="443.896484" xlink:href="#DejaVuSans-5b"/>
      <use x="482.910156" xlink:href="#DejaVuSans-5d"/>
     </g>
    </g>
   </g>
   <g id="matplotlib.axis_2">
    <g id="ytick_1">
     <g id="line2d_51">
      <path clip-path="url(#pf1d0a91e34)" d="M 57.6 268.055256 
L 414.72 268.055256 
" style="fill:none;stroke:#b0b0b0;stroke-linecap:square;stroke-width:0.8;"/>
     </g>
     <g id="line2d_52">
      <defs>
       <path d="M 0 0 
L -3.5 0 
" id="mbb07a56f1f" style="stroke:#000000;stroke-width:0.8;"/>
      </defs>
      <g>
       <use style="stroke:#000000;stroke-width:0.8;" x="57.6" xlink:href="#mbb07a56f1f" y="268.055256"/>
      </g>
     </g>
     <g id="text_7">
      <!-- −0.1 -->
      <defs>
       <path d="M 10.59375 35.5 
L 73.1875 35.5 
L 73.1875 27.203125 
L 10.59375 27.203125 
z
" id="DejaVuSans-2212"/>
       <path d="M 10.6875 12.40625 
L 21 12.40625 
L 21 0 
L 10.6875 0 
z
" id="DejaVuSans-2e"/>
      </defs>
      <g transform="translate(26.317187 271.854475)scale(0.1 -0.1)">
       <use xlink:href="#DejaVuSans-2212"/>
       <use x="83.789062" xlink:href="#DejaVuSans-30"/>
       <use x="147.412109" xlink:href="#DejaVuSans-2e"/>
       <use x="179.199219" xlink:href="#DejaVuSans-31"/>
      </g>
     </g>
    </g>
    <g id="ytick_2">
     <g id="line2d_53">
      <path clip-path="url(#pf1d0a91e34)" d="M 57.6 211.081603 
L 414.72 211.081603 
" style="fill:none;stroke:#b0b0b0;stroke-linecap:square;stroke-width:0.8;"/>
     </g>
     <g id="line2d_54">
      <g>
       <use style="stroke:#000000;stroke-width:0.8;" x="57.6" xlink:href="#mbb07a56f1f" y="211.081603"/>
      </g>
     </g>
     <g id="text_8">
      <!-- 0.0 -->
      <g transform="translate(34.696875 214.880822)scale(0.1 -0.1)">
       <use xlink:href="#DejaVuSans-30"/>
       <use x="63.623047" xlink:href="#DejaVuSans-2e"/>
       <use x="95.410156" xlink:href="#DejaVuSans-30"/>
      </g>
     </g>
    </g>
    <g id="ytick_3">
     <g id="line2d_55">
      <path clip-path="url(#pf1d0a91e34)" d="M 57.6 154.10795 
L 414.72 154.10795 
" style="fill:none;stroke:#b0b0b0;stroke-linecap:square;stroke-width:0.8;"/>
     </g>
     <g id="line2d_56">
      <g>
       <use style="stroke:#000000;stroke-width:0.8;" x="57.6" xlink:href="#mbb07a56f1f" y="154.10795"/>
      </g>
     </g>
     <g id="text_9">
      <!-- 0.1 -->
      <g transform="translate(34.696875 157.907169)scale(0.1 -0.1)">
       <use xlink:href="#DejaVuSans-30"/>
       <use x="63.623047" xlink:href="#DejaVuSans-2e"/>
       <use x="95.410156" xlink:href="#DejaVuSans-31"/>
      </g>
     </g>
    </g>
    <g id="ytick_4">
     <g id="line2d_57">
      <path clip-path="url(#pf1d0a91e34)" d="M 57.6 97.134297 
L 414.72 97.134297 
" style="fill:none;stroke:#b0b0b0;stroke-linecap:square;stroke-width:0.8;"/>
     </g>
     <g id="line2d_58">
      <g>
       <use style="stroke:#000000;stroke-width:0.8;" x="57.6" xlink:href="#mbb07a56f1f" y="97.134297"/>
      </g>
     </g>
     <g id="text_10">
      <!-- 0.2 -->
      <g transform="translate(34.696875 100.933516)scale(0.1 -0.1)">
       <use xlink:href="#DejaVuSans-30"/>
       <use x="63.623047" xlink:href="#DejaVuSans-2e"/>
       <use x="95.410156" xlink:href="#DejaVuSans-32"/>
      </g>
     </g>
    </g>
    <g id="ytick_5">
     <g id="line2d_59">
      <path clip-path="url(#pf1d0a91e34)" d="M 57.6 302.239448 
L 414.72 302.239448 
" style="fill:none;stroke:#b0b0b0;stroke-linecap:square;stroke-width:0.8;"/>
     </g>
     <g id="line2d_60">
      <defs>
       <path d="M 0 0 
L -2 0 
" id="m6d401288ad" style="stroke:#000000;stroke-width:0.6;"/>
      </defs>
      <g>
       <use style="stroke:#000000;stroke-width:0.6;" x="57.6" xlink:href="#m6d401288ad" y="302.239448"/>
      </g>
     </g>
    </g>
    <g id="ytick_6">
     <g id="line2d_61">
      <path clip-path="url(#pf1d0a91e34)" d="M 57.6 290.844717 
L 414.72 290.844717 
" style="fill:none;stroke:#b0b0b0;stroke-linecap:square;stroke-width:0.8;"/>
     </g>
     <g id="line2d_62">
      <g>
       <use style="stroke:#000000;stroke-width:0.6;" x="57.6" xlink:href="#m6d401288ad" y="290.844717"/>
      </g>
     </g>
    </g>
    <g id="ytick_7">
     <g id="line2d_63">
      <path clip-path="url(#pf1d0a91e34)" d="M 57.6 279.449987 
L 414.72 279.449987 
" style="fill:none;stroke:#b0b0b0;stroke-linecap:square;stroke-width:0.8;"/>
     </g>
     <g id="line2d_64">
      <g>
       <use style="stroke:#000000;stroke-width:0.6;" x="57.6" xlink:href="#m6d401288ad" y="279.449987"/>
      </g>
     </g>
    </g>
    <g id="ytick_8">
     <g id="line2d_65">
      <path clip-path="url(#pf1d0a91e34)" d="M 57.6 268.055256 
L 414.72 268.055256 
" style="fill:none;stroke:#b0b0b0;stroke-linecap:square;stroke-width:0.8;"/>
     </g>
     <g id="line2d_66">
      <g>
       <use style="stroke:#000000;stroke-width:0.6;" x="57.6" xlink:href="#m6d401288ad" y="268.055256"/>
      </g>
     </g>
    </g>
    <g id="ytick_9">
     <g id="line2d_67">
      <path clip-path="url(#pf1d0a91e34)" d="M 57.6 256.660526 
L 414.72 256.660526 
" style="fill:none;stroke:#b0b0b0;stroke-linecap:square;stroke-width:0.8;"/>
     </g>
     <g id="line2d_68">
      <g>
       <use style="stroke:#000000;stroke-width:0.6;" x="57.6" xlink:href="#m6d401288ad" y="256.660526"/>
      </g>
     </g>
    </g>
    <g id="ytick_10">
     <g id="line2d_69">
      <path clip-path="url(#pf1d0a91e34)" d="M 57.6 245.265795 
L 414.72 245.265795 
" style="fill:none;stroke:#b0b0b0;stroke-linecap:square;stroke-width:0.8;"/>
     </g>
     <g id="line2d_70">
      <g>
       <use style="stroke:#000000;stroke-width:0.6;" x="57.6" xlink:href="#m6d401288ad" y="245.265795"/>
      </g>
     </g>
    </g>
    <g id="ytick_11">
     <g id="line2d_71">
      <path clip-path="url(#pf1d0a91e34)" d="M 57.6 233.871064 
L 414.72 233.871064 
" style="fill:none;stroke:#b0b0b0;stroke-linecap:square;stroke-width:0.8;"/>
     </g>
     <g id="line2d_72">
      <g>
       <use style="stroke:#000000;stroke-width:0.6;" x="57.6" xlink:href="#m6d401288ad" y="233.871064"/>
      </g>
     </g>
    </g>
    <g id="ytick_12">
     <g id="line2d_73">
      <path clip-path="url(#pf1d0a91e34)" d="M 57.6 222.476334 
L 414.72 222.476334 
" style="fill:none;stroke:#b0b0b0;stroke-linecap:square;stroke-width:0.8;"/>
     </g>
     <g id="line2d_74">
      <g>
       <use style="stroke:#000000;stroke-width:0.6;" x="57.6" xlink:href="#m6d401288ad" y="222.476334"/>
      </g>
     </g>
    </g>
    <g id="ytick_13">
     <g id="line2d_75">
      <path clip-path="url(#pf1d0a91e34)" d="M 57.6 211.081603 
L 414.72 211.081603 
" style="fill:none;stroke:#b0b0b0;stroke-linecap:square;stroke-width:0.8;"/>
     </g>
     <g id="line2d_76">
      <g>
       <use style="stroke:#000000;stroke-width:0.6;" x="57.6" xlink:href="#m6d401288ad" y="211.081603"/>
      </g>
     </g>
    </g>
    <g id="ytick_14">
     <g id="line2d_77">
      <path clip-path="url(#pf1d0a91e34)" d="M 57.6 199.686873 
L 414.72 199.686873 
" style="fill:none;stroke:#b0b0b0;stroke-linecap:square;stroke-width:0.8;"/>
     </g>
     <g id="line2d_78">
      <g>
       <use style="stroke:#000000;stroke-width:0.6;" x="57.6" xlink:href="#m6d401288ad" y="199.686873"/>
      </g>
     </g>
    </g>
    <g id="ytick_15">
     <g id="line2d_79">
      <path clip-path="url(#pf1d0a91e34)" d="M 57.6 188.292142 
L 414.72 188.292142 
" style="fill:none;stroke:#b0b0b0;stroke-linecap:square;stroke-width:0.8;"/>
     </g>
     <g id="line2d_80">
      <g>
       <use style="stroke:#000000;stroke-width:0.6;" x="57.6" xlink:href="#m6d401288ad" y="188.292142"/>
      </g>
     </g>
    </g>
    <g id="ytick_16">
     <g id="line2d_81">
      <path clip-path="url(#pf1d0a91e34)" d="M 57.6 176.897411 
L 414.72 176.897411 
" style="fill:none;stroke:#b0b0b0;stroke-linecap:square;stroke-width:0.8;"/>
     </g>
     <g id="line2d_82">
      <g>
       <use style="stroke:#000000;stroke-width:0.6;" x="57.6" xlink:href="#m6d401288ad" y="176.897411"/>
      </g>
     </g>
    </g>
    <g id="ytick_17">
     <g id="line2d_83">
      <path clip-path="url(#pf1d0a91e34)" d="M 57.6 165.502681 
L 414.72 165.502681 
" style="fill:none;stroke:#b0b0b0;stroke-linecap:square;stroke-width:0.8;"/>
     </g>
     <g id="line2d_84">
      <g>
       <use style="stroke:#000000;stroke-width:0.6;" x="57.6" xlink:href="#m6d401288ad" y="165.502681"/>
      </g>
     </g>
    </g>
    <g id="ytick_18">
     <g id="line2d_85">
      <path clip-path="url(#pf1d0a91e34)" d="M 57.6 154.10795 
L 414.72 154.10795 
" style="fill:none;stroke:#b0b0b0;stroke-linecap:square;stroke-width:0.8;"/>
     </g>
     <g id="line2d_86">
      <g>
       <use style="stroke:#000000;stroke-width:0.6;" x="57.6" xlink:href="#m6d401288ad" y="154.10795"/>
      </g>
     </g>
    </g>
    <g id="ytick_19">
     <g id="line2d_87">
      <path clip-path="url(#pf1d0a91e34)" d="M 57.6 142.71322 
L 414.72 142.71322 
" style="fill:none;stroke:#b0b0b0;stroke-linecap:square;stroke-width:0.8;"/>
     </g>
     <g id="line2d_88">
      <g>
       <use style="stroke:#000000;stroke-width:0.6;" x="57.6" xlink:href="#m6d401288ad" y="142.71322"/>
      </g>
     </g>
    </g>
    <g id="ytick_20">
     <g id="line2d_89">
      <path clip-path="url(#pf1d0a91e34)" d="M 57.6 131.318489 
L 414.72 131.318489 
" style="fill:none;stroke:#b0b0b0;stroke-linecap:square;stroke-width:0.8;"/>
     </g>
     <g id="line2d_90">
      <g>
       <use style="stroke:#000000;stroke-width:0.6;" x="57.6" xlink:href="#m6d401288ad" y="131.318489"/>
      </g>
     </g>
    </g>
    <g id="ytick_21">
     <g id="line2d_91">
      <path clip-path="url(#pf1d0a91e34)" d="M 57.6 119.923758 
L 414.72 119.923758 
" style="fill:none;stroke:#b0b0b0;stroke-linecap:square;stroke-width:0.8;"/>
     </g>
     <g id="line2d_92">
      <g>
       <use style="stroke:#000000;stroke-width:0.6;" x="57.6" xlink:href="#m6d401288ad" y="119.923758"/>
      </g>
     </g>
    </g>
    <g id="ytick_22">
     <g id="line2d_93">
      <path clip-path="url(#pf1d0a91e34)" d="M 57.6 108.529028 
L 414.72 108.529028 
" style="fill:none;stroke:#b0b0b0;stroke-linecap:square;stroke-width:0.8;"/>
     </g>
     <g id="line2d_94">
      <g>
       <use style="stroke:#000000;stroke-width:0.6;" x="57.6" xlink:href="#m6d401288ad" y="108.529028"/>
      </g>
     </g>
    </g>
    <g id="ytick_23">
     <g id="line2d_95">
      <path clip-path="url(#pf1d0a91e34)" d="M 57.6 97.134297 
L 414.72 97.134297 
" style="fill:none;stroke:#b0b0b0;stroke-linecap:square;stroke-width:0.8;"/>
     </g>
     <g id="line2d_96">
      <g>
       <use style="stroke:#000000;stroke-width:0.6;" x="57.6" xlink:href="#m6d401288ad" y="97.134297"/>
      </g>
     </g>
    </g>
    <g id="ytick_24">
     <g id="line2d_97">
      <path clip-path="url(#pf1d0a91e34)" d="M 57.6 85.739567 
L 414.72 85.739567 
" style="fill:none;stroke:#b0b0b0;stroke-linecap:square;stroke-width:0.8;"/>
     </g>
     <g id="line2d_98">
      <g>
       <use style="stroke:#000000;stroke-width:0.6;" x="57.6" xlink:href="#m6d401288ad" y="85.739567"/>
      </g>
     </g>
    </g>
    <g id="ytick_25">
     <g id="line2d_99">
      <path clip-path="url(#pf1d0a91e34)" d="M 57.6 74.344836 
L 414.72 74.344836 
" style="fill:none;stroke:#b0b0b0;stroke-linecap:square;stroke-width:0.8;"/>
     </g>
     <g id="line2d_100">
      <g>
       <use style="stroke:#000000;stroke-width:0.6;" x="57.6" xlink:href="#m6d401288ad" y="74.344836"/>
      </g>
     </g>
    </g>
    <g id="ytick_26">
     <g id="line2d_101">
      <path clip-path="url(#pf1d0a91e34)" d="M 57.6 62.950105 
L 414.72 62.950105 
" style="fill:none;stroke:#b0b0b0;stroke-linecap:square;stroke-width:0.8;"/>
     </g>
     <g id="line2d_102">
      <g>
       <use style="stroke:#000000;stroke-width:0.6;" x="57.6" xlink:href="#m6d401288ad" y="62.950105"/>
      </g>
     </g>
    </g>
    <g id="ytick_27">
     <g id="line2d_103">
      <path clip-path="url(#pf1d0a91e34)" d="M 57.6 51.555375 
L 414.72 51.555375 
" style="fill:none;stroke:#b0b0b0;stroke-linecap:square;stroke-width:0.8;"/>
     </g>
     <g id="line2d_104">
      <g>
       <use style="stroke:#000000;stroke-width:0.6;" x="57.6" xlink:href="#m6d401288ad" y="51.555375"/>
      </g>
     </g>
    </g>
    <g id="text_11">
     <!-- rot x -->
     <defs>
      <path d="M 30.609375 48.390625 
Q 23.390625 48.390625 19.1875 42.75 
Q 14.984375 37.109375 14.984375 27.296875 
Q 14.984375 17.484375 19.15625 11.84375 
Q 23.34375 6.203125 30.609375 6.203125 
Q 37.796875 6.203125 41.984375 11.859375 
Q 46.1875 17.53125 46.1875 27.296875 
Q 46.1875 37.015625 41.984375 42.703125 
Q 37.796875 48.390625 30.609375 48.390625 
z
M 30.609375 56 
Q 42.328125 56 49.015625 48.375 
Q 55.71875 40.765625 55.71875 27.296875 
Q 55.71875 13.875 49.015625 6.21875 
Q 42.328125 -1.421875 30.609375 -1.421875 
Q 18.84375 -1.421875 12.171875 6.21875 
Q 5.515625 13.875 5.515625 27.296875 
Q 5.515625 40.765625 12.171875 48.375 
Q 18.84375 56 30.609375 56 
z
" id="DejaVuSans-6f"/>
      <path d="M 18.3125 70.21875 
L 18.3125 54.6875 
L 36.8125 54.6875 
L 36.8125 47.703125 
L 18.3125 47.703125 
L 18.3125 18.015625 
Q 18.3125 11.328125 20.140625 9.421875 
Q 21.96875 7.515625 27.59375 7.515625 
L 36.8125 7.515625 
L 36.8125 0 
L 27.59375 0 
Q 17.1875 0 13.234375 3.875 
Q 9.28125 7.765625 9.28125 18.015625 
L 9.28125 47.703125 
L 2.6875 47.703125 
L 2.6875 54.6875 
L 9.28125 54.6875 
L 9.28125 70.21875 
z
" id="DejaVuSans-74"/>
      <path d="M 54.890625 54.6875 
L 35.109375 28.078125 
L 55.90625 0 
L 45.3125 0 
L 29.390625 21.484375 
L 13.484375 0 
L 2.875 0 
L 24.125 28.609375 
L 4.6875 54.6875 
L 15.28125 54.6875 
L 29.78125 35.203125 
L 44.28125 54.6875 
z
" id="DejaVuSans-78"/>
     </defs>
     <g transform="translate(20.2375 186.149875)rotate(-90)scale(0.1 -0.1)">
      <use xlink:href="#DejaVuSans-72"/>
      <use x="41.082031" xlink:href="#DejaVuSans-6f"/>
      <use x="102.263672" xlink:href="#DejaVuSans-74"/>
      <use x="141.472656" xlink:href="#DejaVuSans-20"/>
      <use x="173.259766" xlink:href="#DejaVuSans-78"/>
     </g>
    </g>
   </g>
   <g id="line2d_105">
    <path clip-path="url(#pf1d0a91e34)" d="M 73.832727 189.485189 
L 74.524971 199.58439 
L 75.217208 232.48088 
L 75.90628 199.914819 
L 76.598517 215.558832 
L 77.290754 212.30062 
L 77.982991 199.681913 
L 78.6751 205.466684 
L 79.367337 221.209584 
L 80.059581 189.007221 
L 80.751818 219.946214 
L 81.446481 215.170878 
L 82.138725 199.043485 
L 82.830962 216.469195 
L 83.523199 230.019212 
L 84.216653 198.904221 
L 84.908883 217.450632 
L 85.601147 206.026862 
L 86.293364 198.635154 
L 87.675135 213.470872 
L 88.367373 210.179254 
L 89.05961 203.937431 
L 89.751847 183.532903 
L 90.441987 188.480769 
L 91.13423 231.773228 
L 91.826467 235.477748 
L 92.518705 251.649072 
L 93.209773 244.931429 
L 93.902011 228.750337 
L 94.594254 224.698489 
L 95.286491 232.595189 
L 95.979336 194.986815 
L 96.671581 185.94916 
L 97.363819 170.295387 
L 98.056056 145.690847 
L 98.749362 138.077453 
L 99.44205 142.120751 
L 100.133837 157.368079 
L 101.516997 250.51168 
L 102.209241 242.144277 
L 102.901478 250.133106 
L 103.593715 246.486071 
L 104.284797 248.987373 
L 104.977035 265.204686 
L 105.669272 251.517668 
L 106.361509 223.673299 
L 107.05535 233.738481 
L 107.747587 215.135328 
L 108.439825 171.308746 
L 109.132062 143.518797 
L 109.824962 133.707572 
L 113.285912 244.625308 
L 113.978149 256.760788 
L 114.670387 271.910987 
L 115.361972 257.52381 
L 116.054209 247.248594 
L 116.746446 243.114931 
L 117.438683 238.114695 
L 118.130907 237.255253 
L 119.515395 210.682136 
L 120.207625 189.677217 
L 120.899869 157.642743 
L 121.594579 132.555806 
L 122.286816 131.523164 
L 124.363909 205.798263 
L 125.056146 241.136084 
L 125.748383 263.739447 
L 126.44062 240.775214 
L 127.129632 278.982088 
L 127.82187 277.44631 
L 128.514107 242.883437 
L 129.206344 215.79234 
L 130.591908 178.607694 
L 131.284145 149.916423 
L 131.976389 167.410815 
L 132.670814 152.471388 
L 133.363058 145.532953 
L 134.055295 170.077457 
L 134.747532 203.757585 
L 135.437802 203.917715 
L 136.130039 214.399326 
L 136.822277 261.154344 
L 137.514514 272.57845 
L 138.204709 271.725583 
L 138.896947 254.264511 
L 139.589184 245.962627 
L 140.281421 233.60192 
L 141.668336 184.594099 
L 142.360573 147.047749 
L 143.05281 133.821282 
L 143.744756 128.636553 
L 144.436993 151.080427 
L 145.821474 239.188391 
L 146.511257 255.368743 
L 147.203494 248.490611 
L 147.895731 252.033529 
L 148.588378 243.134892 
L 149.281455 232.60281 
L 149.973692 195.449685 
L 150.665929 168.778213 
L 151.358166 137.590246 
L 152.05041 139.069109 
L 152.743731 164.924208 
L 153.435969 168.171047 
L 154.128206 191.188358 
L 154.820443 229.684728 
L 155.510224 261.741004 
L 156.20247 288.009827 
L 156.894699 295.488 
L 157.586944 275.121029 
L 158.279343 272.656169 
L 158.97158 244.535064 
L 160.356055 168.002078 
L 161.051271 161.795873 
L 161.743508 144.131386 
L 163.127989 161.572483 
L 163.818557 176.686962 
L 164.510795 227.872343 
L 165.895269 256.05168 
L 166.586145 261.681401 
L 167.278382 254.603872 
L 169.356457 211.311997 
L 170.048694 173.162701 
L 170.740931 157.278313 
L 171.433168 119.813165 
L 172.125831 145.28662 
L 172.818048 193.218288 
L 173.510286 208.641945 
L 174.202529 217.873093 
L 174.892987 243.587771 
L 175.585225 264.642992 
L 176.277462 280.914374 
L 176.969699 269.077809 
L 177.662487 255.2684 
L 178.354724 258.666434 
L 179.046962 201.819707 
L 179.739205 169.877241 
L 180.434067 143.896727 
L 181.126297 128.773236 
L 181.818534 163.82532 
L 182.510778 180.731159 
L 183.200632 179.506146 
L 184.585113 283.493763 
L 185.2776 275.024937 
L 185.969588 274.410632 
L 186.661455 244.705972 
L 187.353692 209.574527 
L 188.045929 163.537139 
L 188.738167 133.564521 
M 191.509762 208.984486 
L 192.199235 226.468868 
L 192.891481 234.445221 
L 193.583718 252.546112 
L 194.275953 286.978131 
L 194.967935 278.222603 
L 196.352409 230.460542 
L 197.044646 197.167171 
L 197.738917 199.664388 
L 198.431154 201.287936 
L 199.123391 153.141582 
L 199.815628 114.979872 
L 200.508823 124.413063 
L 201.20106 167.059007 
L 201.893304 224.018057 
L 203.275538 258.036933 
L 203.967776 261.417541 
L 204.660013 269.758103 
L 205.35225 264.880874 
L 206.044672 246.928224 
L 206.736909 200.08207 
L 207.429146 174.317141 
L 208.121383 144.149284 
L 208.815873 131.538414 
L 209.50811 150.32831 
L 211.583861 219.282431 
L 212.276099 253.536299 
L 212.968342 270.580646 
L 213.66058 265.461296 
L 215.044156 229.974428 
L 215.736393 210.597395 
L 216.428631 185.253804 
L 217.120874 148.575845 
L 217.814995 139.570951 
L 218.507232 120.648592 
L 219.199469 148.425992 
L 219.891706 194.844376 
L 220.58497 216.634251 
L 221.277214 230.988403 
L 221.969824 265.710946 
L 222.661681 281.870013 
L 223.354881 268.928501 
L 224.047124 265.505005 
L 224.739362 256.027362 
L 226.123329 243.899781 
L 227.507804 188.695782 
L 228.200041 182.35918 
L 228.892598 174.320713 
L 229.584835 148.710368 
L 230.277072 155.308298 
L 231.661953 192.457193 
L 232.35419 179.209215 
L 233.046427 192.545093 
L 234.434318 225.694628 
L 235.126562 225.011192 
L 235.818799 212.310098 
L 236.511036 224.251827 
L 237.205725 255.383006 
L 237.897963 271.032537 
L 238.5902 265.126098 
L 239.282437 228.072846 
L 239.966295 228.148631 
L 240.658539 238.714352 
L 241.350776 242.03351 
L 242.043013 242.498584 
L 242.735331 199.76576 
L 243.427569 177.71621 
L 244.119806 174.417519 
L 244.812043 170.245703 
L 246.197214 179.30209 
L 246.889449 192.785535 
L 247.581686 190.120626 
L 248.274878 181.912331 
L 248.967115 189.644267 
L 249.659352 190.983885 
L 250.351589 187.331904 
L 251.043826 199.28991 
L 252.429009 227.76906 
L 253.121246 226.138155 
L 253.81349 237.585362 
L 254.500718 269.340474 
L 255.192947 246.650024 
L 255.885192 252.69619 
L 256.577429 247.581833 
L 257.269926 220.867475 
L 257.962163 213.449487 
L 258.6544 201.96453 
L 259.346637 205.700189 
L 260.040695 222.51289 
L 260.732932 209.602916 
L 261.425169 168.020976 
L 262.117406 148.447161 
L 262.80931 141.904775 
L 263.501547 165.809477 
L 264.193784 167.942751 
L 264.886021 162.685641 
L 265.576308 199.118045 
L 266.268553 220.322011 
L 266.960791 269.58654 
L 267.653028 249.757705 
L 268.344813 254.979879 
L 269.03705 241.213281 
L 269.729287 218.228027 
L 270.421524 220.436475 
L 271.116285 215.360109 
L 271.808522 181.177066 
L 272.500759 180.260794 
L 273.192996 196.906627 
L 273.886626 216.44948 
L 274.578864 195.125499 
M 279.422083 260.301699 
L 280.11432 229.485334 
L 280.806557 180.842443 
M 282.885262 163.972962 
L 283.576905 218.499354 
L 284.269143 249.661698 
L 284.961386 205.940637 
L 285.652297 185.753354 
M 287.036771 159.845828 
L 287.729008 194.086208 
M 291.190092 256.211506 
L 291.882329 184.511259 
M 297.420548 96.62255 
L 298.112785 91.267406 
L 298.805022 93.903838 
M 305.72952 110.077266 
L 306.421757 150.608735 
L 307.114493 170.871029 
L 307.804746 144.034341 
L 308.496983 137.739168 
L 309.18922 148.092497 
M 315.42021 145.316327 
L 316.112447 136.308866 
L 316.803859 92.220443 
L 317.496096 67.649948 
L 318.188333 106.246193 
L 318.880571 134.971442 
M 320.961058 189.730362 
L 321.653295 197.503326 
M 323.034614 226.13956 
L 324.419095 184.274192 
L 325.112821 190.866144 
L 325.805058 209.318718 
L 326.497302 215.288302 
M 327.884744 77.500057 
L 328.576974 57.746851 
L 329.269218 109.113248 
L 329.961455 186.62971 
L 330.653469 218.322914 
L 331.346218 220.138031 
L 332.037944 202.350405 
L 332.730181 172.024304 
L 333.422638 128.822381 
L 334.114875 147.523583 
L 334.807119 180.157337 
M 337.575094 108.212897 
L 338.267337 146.199952 
L 338.959426 194.505204 
L 339.651661 195.138357 
L 340.343899 180.698017 
L 341.036136 159.84072 
L 341.726718 121.676982 
L 342.418955 106.756126 
L 343.111192 140.168467 
L 343.803429 144.290524 
L 344.492933 173.582018 
L 345.18517 179.245477 
L 345.877414 145.00187 
L 346.569651 158.266649 
L 347.262064 159.344433 
L 347.953989 164.601474 
L 348.646226 181.435083 
M 351.414505 139.759069 
L 352.106742 169.138658 
L 352.798979 160.831644 
L 353.491776 127.337076 
L 354.184019 118.950617 
L 354.87625 143.214098 
L 355.569124 202.721637 
M 358.33989 211.869469 
L 359.029714 199.431781 
L 359.721951 171.490784 
M 361.799274 217.54833 
L 362.491511 207.049921 
L 363.183748 166.101639 
L 363.875985 162.1934 
M 365.952863 212.878238 
L 366.6451 234.871106 
L 367.338052 225.770651 
L 368.030296 204.561658 
L 368.722533 199.22495 
L 369.41477 198.222745 
L 370.107983 187.60175 
L 370.80022 194.524238 
L 371.492457 191.711489 
M 372.877912 238.876329 
L 373.570157 196.807935 
L 374.262395 175.652941 
L 374.95463 184.953911 
M 377.032291 228.897511 
L 377.724534 213.976721 
M 380.492239 202.850458 
L 381.184476 199.159274 
M 382.568336 198.410897 
L 383.260573 197.39955 
L 383.952811 180.496892 
L 384.644637 175.704601 
L 385.336874 172.001104 
L 386.029111 197.530345 
L 386.721348 206.829318 
M 388.104412 197.052356 
L 388.796657 193.284331 
L 389.488894 198.375115 
L 390.179932 224.306556 
L 390.872169 239.265799 
L 391.564426 237.636885 
M 395.717867 221.309466 
L 396.410104 218.56065 
L 396.410104 218.56065 
" style="fill:none;stroke:#ff0000;stroke-linecap:square;"/>
   </g>
   <g id="line2d_106">
    <path clip-path="url(#pf1d0a91e34)" d="M 73.832727 190.929843 
L 74.524971 190.823363 
L 75.217208 222.194598 
L 75.90628 203.076813 
L 76.598517 212.565931 
L 77.290754 219.470061 
L 77.982991 206.514246 
L 78.6751 202.076956 
L 79.367337 221.819743 
L 80.059581 188.568181 
L 80.751818 216.331027 
L 81.446481 217.103494 
L 82.138725 198.220338 
L 82.830962 211.927669 
L 83.523199 233.984624 
L 84.216653 197.357797 
L 84.908883 217.856664 
L 85.601147 207.054975 
L 86.293364 198.910743 
L 86.985656 205.307544 
L 87.675135 217.554155 
L 88.367373 207.750443 
L 89.05961 205.21156 
L 89.751847 184.686969 
L 90.441987 182.568723 
L 91.13423 227.594683 
L 91.826467 236.940878 
L 92.518705 254.4046 
L 93.209773 246.506405 
L 93.902011 226.766802 
L 94.594254 222.784914 
L 95.286491 233.819276 
L 95.979336 199.848175 
L 96.671581 183.53225 
L 97.363819 172.123144 
L 98.056056 146.857779 
L 98.749362 139.124342 
L 99.44205 142.537464 
L 100.133837 152.784516 
L 101.516997 247.919017 
L 102.209241 246.215415 
L 102.901478 245.089293 
L 103.593715 251.468349 
L 104.284797 250.306324 
L 104.977035 267.360016 
L 105.669272 257.141081 
L 106.361509 219.888953 
L 107.05535 223.951177 
L 107.747587 215.198156 
L 109.132062 140.638003 
L 109.824962 130.745614 
L 111.209437 176.481716 
L 111.901674 193.759412 
L 112.593675 222.59628 
L 113.285912 235.977112 
L 113.978149 255.757708 
L 114.670387 269.751532 
L 115.361972 264.889876 
L 116.054209 248.327747 
L 116.746446 245.510367 
L 117.438683 241.047947 
L 118.130907 235.787015 
L 118.823151 231.461933 
L 119.515395 215.290286 
L 120.207625 194.31078 
L 120.899869 160.57534 
L 121.594579 132.693314 
L 122.286816 128.750948 
L 124.363909 199.301001 
L 125.748383 262.932949 
L 126.44062 242.178897 
L 127.129632 266.106615 
L 127.82187 277.599816 
L 129.206344 218.78255 
L 130.591908 181.505647 
L 131.284145 152.622516 
L 131.976389 163.672904 
L 132.670814 152.515436 
L 133.363058 144.898092 
L 134.055295 169.059803 
L 134.747532 200.475122 
L 135.437802 200.791845 
L 136.130039 210.886215 
L 136.822277 257.382443 
L 137.514514 274.335532 
L 138.204709 269.4711 
L 138.896947 253.921643 
L 140.281421 236.611886 
L 140.976101 211.26914 
L 141.668336 195.855192 
L 142.360573 147.935036 
L 143.05281 130.084186 
L 143.744756 136.704247 
L 144.436993 144.984733 
L 145.129236 182.465137 
L 145.821474 236.539339 
L 146.511257 260.432253 
L 147.203494 244.085004 
L 147.895731 242.443659 
L 148.588378 252.455268 
L 149.973692 201.222922 
L 150.665929 173.407255 
L 151.358166 136.890864 
L 152.05041 133.933567 
L 152.743731 156.627957 
L 154.128206 190.460148 
L 154.820443 229.082691 
L 156.20247 279.98584 
L 156.894699 289.408557 
L 157.586944 271.052785 
L 158.279343 270.168193 
L 158.97158 245.164057 
L 160.356055 173.462436 
L 161.051271 153.115238 
L 161.743508 143.652044 
L 162.435745 149.010863 
L 163.818557 171.886474 
L 165.203032 241.397786 
L 165.895269 254.064072 
L 166.586145 249.883581 
L 167.278382 251.943813 
L 167.970626 248.457751 
L 168.662863 228.1711 
L 169.356457 216.982585 
L 170.048694 175.848614 
L 170.740931 156.533859 
L 171.433168 122.907108 
L 172.125831 141.133216 
L 172.818048 191.148678 
L 173.510286 207.914896 
L 174.202529 217.692954 
L 174.892987 238.081921 
L 175.585225 267.390202 
L 176.277462 276.477499 
L 176.969699 270.607575 
L 177.662487 257.431622 
L 178.354724 253.971679 
L 179.046962 217.289528 
L 179.739205 172.435517 
L 180.434067 141.619193 
L 181.126297 129.343753 
L 181.818534 158.431054 
L 182.510778 180.173127 
L 183.200632 172.525139 
L 184.585113 281.069191 
L 185.2776 277.729164 
L 185.969588 266.893446 
L 186.661455 250.839589 
L 187.353692 216.901642 
L 188.045929 169.02514 
L 188.738167 139.677548 
M 191.509762 204.470256 
L 192.199235 221.803815 
L 193.583718 249.617907 
L 194.275953 273.811941 
L 194.967935 268.729309 
L 195.660172 247.722798 
L 196.352409 231.480371 
L 197.044646 200.144047 
L 197.738917 197.48544 
L 198.431154 204.100676 
L 199.815628 115.918345 
L 200.508823 121.170926 
L 201.20106 161.879866 
L 201.893304 215.275185 
L 202.585541 239.424243 
L 203.275538 254.283526 
L 203.967776 263.221498 
L 205.35225 268.930894 
L 206.044672 253.591893 
L 206.736909 203.834637 
L 208.121383 147.753652 
L 208.815873 131.062116 
L 209.50811 143.930909 
L 210.200348 171.942182 
L 211.583861 219.631009 
L 212.276099 250.051016 
L 212.968342 268.372183 
L 214.351919 249.368776 
L 215.736393 213.530485 
L 216.428631 189.17209 
L 217.120874 148.011644 
L 217.814995 141.776613 
L 218.507232 120.312015 
L 219.199469 145.568244 
L 219.891706 193.067895 
L 221.277214 233.76592 
L 221.969824 265.818702 
L 222.661681 276.307527 
L 223.354881 270.009992 
L 224.047124 267.582702 
L 224.739362 256.488777 
L 225.431599 250.521913 
L 226.123329 240.812586 
L 226.815566 220.487067 
L 227.507804 192.329173 
L 228.200041 183.350824 
L 228.892598 177.804133 
L 229.584835 151.030258 
L 230.277072 152.08335 
L 231.661953 192.631207 
L 232.35419 182.260022 
L 233.046427 190.107417 
L 233.738664 203.806728 
L 234.434318 222.981384 
L 235.126562 226.979258 
L 235.818799 213.210223 
L 236.511036 221.473799 
L 237.205725 252.033964 
L 237.897963 272.287835 
L 238.5902 268.985925 
L 239.282437 230.407151 
L 239.966295 227.198478 
L 240.658539 242.559719 
L 241.350776 241.01489 
L 242.043013 246.261784 
L 242.735331 202.105576 
L 243.427569 176.871505 
L 244.119806 170.774732 
L 244.812043 169.242127 
L 245.504977 170.963797 
L 246.197214 180.907773 
L 246.889449 192.548138 
L 247.581686 190.674614 
L 248.274878 179.882887 
L 249.659352 193.011823 
L 250.351589 184.502663 
L 251.043826 199.430785 
L 251.736771 220.515192 
L 252.429009 225.078945 
L 253.121246 220.636232 
L 253.81349 235.252628 
L 254.500718 242.924669 
L 255.192947 245.908267 
L 255.885192 246.113955 
L 256.577429 245.104318 
L 257.269926 220.446378 
L 257.962163 215.892174 
L 258.6544 205.980512 
L 259.346637 203.071641 
L 260.040695 218.864641 
L 260.732932 210.021696 
L 261.425169 176.166656 
L 262.117406 149.326399 
L 262.80931 140.914222 
L 263.501547 155.446011 
L 264.193784 167.031765 
L 264.886021 163.695821 
L 265.576308 187.726359 
L 266.268553 216.460736 
L 266.960791 251.134392 
L 267.653028 267.651872 
L 268.344813 258.132235 
L 269.03705 246.846962 
L 269.729287 213.201867 
L 270.421524 215.214534 
L 271.116285 217.835086 
L 271.808522 192.999971 
L 272.500759 179.767225 
L 273.192996 193.441027 
L 273.886626 216.476846 
L 274.578864 199.15947 
M 279.422083 254.507762 
L 280.11432 237.381798 
L 280.806557 191.039225 
M 282.885262 147.18943 
L 283.576905 221.964232 
L 284.269143 252.175839 
L 285.652297 179.914305 
M 287.036771 163.374654 
L 287.729008 177.984787 
M 291.190092 251.71873 
L 291.882329 195.913257 
M 297.420548 90.586337 
L 298.112785 84.254501 
L 298.805022 94.286724 
M 305.72952 105.578443 
L 306.421757 154.376159 
L 307.114493 168.74811 
L 307.804746 143.590814 
L 308.496983 131.259544 
L 309.18922 147.644342 
M 315.42021 147.313294 
L 316.112447 142.679222 
L 317.496096 62.1728 
L 318.880571 131.276301 
M 320.961058 193.52663 
L 321.653295 196.218502 
M 323.034614 214.444053 
L 323.726858 208.642735 
L 324.419095 188.255532 
L 325.112821 196.963021 
L 325.805058 209.192007 
L 326.497302 216.555887 
M 327.884744 81.043404 
L 328.576974 53.568 
L 329.269218 103.421255 
L 329.961455 180.301588 
L 330.653469 219.289852 
L 331.346218 218.511552 
L 332.037944 204.534436 
L 332.730181 177.81307 
L 333.422638 129.272292 
L 334.114875 142.533792 
L 334.807119 178.555515 
M 337.575094 111.418921 
L 338.267337 140.192658 
L 338.959426 189.143957 
L 339.651661 193.667598 
L 340.343899 182.903917 
L 341.036136 162.286173 
L 341.726718 120.692775 
L 342.418955 103.534685 
L 343.111192 132.656822 
L 343.803429 144.870948 
L 344.492933 167.009117 
L 345.18517 183.825046 
L 345.877414 166.392544 
L 346.569651 157.254718 
L 347.262064 156.393647 
L 347.953989 157.34918 
L 348.646226 167.988215 
M 351.414505 132.409054 
L 352.106742 174.74357 
L 352.798979 157.399799 
L 353.491776 131.17445 
L 354.184019 117.602836 
L 354.87625 135.385985 
L 355.569124 178.191969 
M 358.33989 210.546387 
L 359.029714 200.553323 
L 359.721951 174.000176 
M 361.799274 208.744756 
L 362.491511 208.629035 
L 363.183748 175.240716 
L 363.875985 163.598073 
M 365.952863 211.466491 
L 366.6451 233.387093 
L 367.338052 226.62976 
L 368.030296 207.37793 
L 368.722533 198.115532 
L 369.41477 198.878081 
L 370.107983 185.313974 
L 370.80022 186.788547 
L 371.492457 187.048807 
M 372.877912 246.121065 
L 373.570157 199.891701 
L 374.262395 175.65403 
L 374.95463 183.599059 
M 377.032291 231.27406 
L 377.724534 226.474237 
M 380.492239 203.996718 
L 381.184476 200.732687 
M 382.568336 204.31101 
L 383.260573 199.042066 
L 383.952811 181.09952 
L 384.644637 176.534643 
L 385.336874 179.410866 
L 386.721348 209.957896 
M 388.104412 198.887409 
L 388.796657 189.473989 
L 389.488894 197.390623 
L 390.872169 234.87363 
L 391.564426 242.536696 
M 395.717867 221.043097 
L 396.410104 218.658202 
L 396.410104 218.658202 
" style="fill:none;stroke:#0000ff;stroke-linecap:square;"/>
   </g>
   <g id="line2d_107">
    <path clip-path="url(#pf1d0a91e34)" d="M 275.271101 166.540574 
L 275.963338 153.817132 
L 276.655785 158.158522 
M 278.040266 203.583215 
L 278.732503 237.860355 
M 281.498794 141.62819 
L 282.192431 111.482976 
M 288.421904 241.455818 
L 289.114148 264.285919 
M 292.574566 135.700728 
L 293.266803 154.345899 
L 293.961207 168.144525 
L 294.653451 164.257185 
L 295.345682 177.043435 
M 300.885099 187.643085 
L 301.577343 176.476368 
M 302.959621 193.981398 
L 303.651864 153.999208 
M 309.881458 150.74823 
L 310.575802 150.504306 
L 311.268039 168.580078 
L 311.960277 193.226948 
L 312.65252 169.563013 
L 313.343492 110.784914 
L 314.035729 106.947315 
L 314.727973 132.970229 
M 319.576584 155.759236 
L 320.268821 182.84016 
M 335.499356 175.788688 
L 336.190619 145.611906 
L 336.882856 122.071495 
M 349.338463 203.629209 
L 350.0307 198.080866 
L 350.722267 138.884818 
M 356.26317 167.28553 
L 356.955416 161.975039 
L 357.647653 184.203755 
M 360.414189 167.139073 
L 361.106426 189.076892 
M 364.568397 189.629899 
L 365.260626 201.672411 
M 375.647823 183.474199 
L 376.34006 189.52543 
M 392.256643 196.917025 
L 392.948735 206.494041 
L 393.640972 225.339384 
L 394.333209 227.706161 
L 395.025447 219.845904 
M 397.102341 214.516631 
L 397.794578 210.786073 
L 398.487273 211.863037 
L 398.487273 211.863037 
" style="fill:none;stroke:#008000;stroke-linecap:square;"/>
   </g>
   <g id="patch_3">
    <path d="M 57.6 307.584 
L 57.6 41.472 
" style="fill:none;stroke:#000000;stroke-linecap:square;stroke-linejoin:miter;stroke-width:0.8;"/>
   </g>
   <g id="patch_4">
    <path d="M 414.72 307.584 
L 414.72 41.472 
" style="fill:none;stroke:#000000;stroke-linecap:square;stroke-linejoin:miter;stroke-width:0.8;"/>
   </g>
   <g id="patch_5">
    <path d="M 57.6 307.584 
L 414.72 307.584 
" style="fill:none;stroke:#000000;stroke-linecap:square;stroke-linejoin:miter;stroke-width:0.8;"/>
   </g>
   <g id="patch_6">
    <path d="M 57.6 41.472 
L 414.72 41.472 
" style="fill:none;stroke:#000000;stroke-linecap:square;stroke-linejoin:miter;stroke-width:0.8;"/>
   </g>
   <g id="text_12">
    <!-- Rel Gt Rot X Plot -->
    <defs>
     <path d="M 44.390625 34.1875 
Q 47.5625 33.109375 50.5625 29.59375 
Q 53.5625 26.078125 56.59375 19.921875 
L 66.609375 0 
L 56 0 
L 46.6875 18.703125 
Q 43.0625 26.03125 39.671875 28.421875 
Q 36.28125 30.8125 30.421875 30.8125 
L 19.671875 30.8125 
L 19.671875 0 
L 9.8125 0 
L 9.8125 72.90625 
L 32.078125 72.90625 
Q 44.578125 72.90625 50.734375 67.671875 
Q 56.890625 62.453125 56.890625 51.90625 
Q 56.890625 45.015625 53.6875 40.46875 
Q 50.484375 35.9375 44.390625 34.1875 
z
M 19.671875 64.796875 
L 19.671875 38.921875 
L 32.078125 38.921875 
Q 39.203125 38.921875 42.84375 42.21875 
Q 46.484375 45.515625 46.484375 51.90625 
Q 46.484375 58.296875 42.84375 61.546875 
Q 39.203125 64.796875 32.078125 64.796875 
z
" id="DejaVuSans-52"/>
     <path d="M 9.421875 75.984375 
L 18.40625 75.984375 
L 18.40625 0 
L 9.421875 0 
z
" id="DejaVuSans-6c"/>
     <path d="M 59.515625 10.40625 
L 59.515625 29.984375 
L 43.40625 29.984375 
L 43.40625 38.09375 
L 69.28125 38.09375 
L 69.28125 6.78125 
Q 63.578125 2.734375 56.6875 0.65625 
Q 49.8125 -1.421875 42 -1.421875 
Q 24.90625 -1.421875 15.25 8.5625 
Q 5.609375 18.5625 5.609375 36.375 
Q 5.609375 54.25 15.25 64.234375 
Q 24.90625 74.21875 42 74.21875 
Q 49.125 74.21875 55.546875 72.453125 
Q 61.96875 70.703125 67.390625 67.28125 
L 67.390625 56.78125 
Q 61.921875 61.421875 55.765625 63.765625 
Q 49.609375 66.109375 42.828125 66.109375 
Q 29.4375 66.109375 22.71875 58.640625 
Q 16.015625 51.171875 16.015625 36.375 
Q 16.015625 21.625 22.71875 14.15625 
Q 29.4375 6.6875 42.828125 6.6875 
Q 48.046875 6.6875 52.140625 7.59375 
Q 56.25 8.5 59.515625 10.40625 
z
" id="DejaVuSans-47"/>
     <path d="M 6.296875 72.90625 
L 16.890625 72.90625 
L 35.015625 45.796875 
L 53.21875 72.90625 
L 63.8125 72.90625 
L 40.375 37.890625 
L 65.375 0 
L 54.78125 0 
L 34.28125 31 
L 13.625 0 
L 2.984375 0 
L 29 38.921875 
z
" id="DejaVuSans-58"/>
     <path d="M 19.671875 64.796875 
L 19.671875 37.40625 
L 32.078125 37.40625 
Q 38.96875 37.40625 42.71875 40.96875 
Q 46.484375 44.53125 46.484375 51.125 
Q 46.484375 57.671875 42.71875 61.234375 
Q 38.96875 64.796875 32.078125 64.796875 
z
M 9.8125 72.90625 
L 32.078125 72.90625 
Q 44.34375 72.90625 50.609375 67.359375 
Q 56.890625 61.8125 56.890625 51.125 
Q 56.890625 40.328125 50.609375 34.8125 
Q 44.34375 29.296875 32.078125 29.296875 
L 19.671875 29.296875 
L 19.671875 0 
L 9.8125 0 
z
" id="DejaVuSans-50"/>
    </defs>
    <g transform="translate(186.400312 35.472)scale(0.12 -0.12)">
     <use xlink:href="#DejaVuSans-52"/>
     <use x="69.419922" xlink:href="#DejaVuSans-65"/>
     <use x="130.943359" xlink:href="#DejaVuSans-6c"/>
     <use x="158.726562" xlink:href="#DejaVuSans-20"/>
     <use x="190.513672" xlink:href="#DejaVuSans-47"/>
     <use x="268.003906" xlink:href="#DejaVuSans-74"/>
     <use x="307.212891" xlink:href="#DejaVuSans-20"/>
     <use x="339" xlink:href="#DejaVuSans-52"/>
     <use x="408.419922" xlink:href="#DejaVuSans-6f"/>
     <use x="469.601562" xlink:href="#DejaVuSans-74"/>
     <use x="508.810547" xlink:href="#DejaVuSans-20"/>
     <use x="540.597656" xlink:href="#DejaVuSans-58"/>
     <use x="609.103516" xlink:href="#DejaVuSans-20"/>
     <use x="640.890625" xlink:href="#DejaVuSans-50"/>
     <use x="701.193359" xlink:href="#DejaVuSans-6c"/>
     <use x="728.976562" xlink:href="#DejaVuSans-6f"/>
     <use x="790.158203" xlink:href="#DejaVuSans-74"/>
    </g>
   </g>
  </g>
 </g>
 <defs>
  <clipPath id="pf1d0a91e34">
   <rect height="266.112" width="357.12" x="57.6" y="41.472"/>
  </clipPath>
 </defs>
</svg>
