<?xml version="1.0" encoding="utf-8" standalone="no"?>
<!DOCTYPE svg PUBLIC "-//W3C//DTD SVG 1.1//EN"
  "http://www.w3.org/Graphics/SVG/1.1/DTD/svg11.dtd">
<!-- Created with matplotlib (http://matplotlib.org/) -->
<svg height="345.6pt" version="1.1" viewBox="0 0 460.8 345.6" width="460.8pt" xmlns="http://www.w3.org/2000/svg" xmlns:xlink="http://www.w3.org/1999/xlink">
 <defs>
  <style type="text/css">
*{stroke-linecap:butt;stroke-linejoin:round;}
  </style>
 </defs>
 <g id="figure_1">
  <g id="patch_1">
   <path d="M 0 345.6 
L 460.8 345.6 
L 460.8 0 
L 0 0 
z
" style="fill:#ffffff;"/>
  </g>
  <g id="axes_1">
   <g id="patch_2">
    <path d="M 57.6 307.584 
L 414.72 307.584 
L 414.72 41.472 
L 57.6 41.472 
z
" style="fill:#ffffff;"/>
   </g>
   <g id="matplotlib.axis_1">
    <g id="xtick_1">
     <g id="line2d_1">
      <path clip-path="url(#pdd19cfb258)" d="M 70.907601 307.584 
L 70.907601 41.472 
" style="fill:none;stroke:#b0b0b0;stroke-linecap:square;stroke-width:0.8;"/>
     </g>
     <g id="line2d_2">
      <defs>
       <path d="M 0 0 
L 0 3.5 
" id="m9eec4eb730" style="stroke:#000000;stroke-width:0.8;"/>
      </defs>
      <g>
       <use style="stroke:#000000;stroke-width:0.8;" x="70.907601" xlink:href="#m9eec4eb730" y="307.584"/>
      </g>
     </g>
     <g id="text_1">
      <!-- 0 -->
      <defs>
       <path d="M 31.78125 66.40625 
Q 24.171875 66.40625 20.328125 58.90625 
Q 16.5 51.421875 16.5 36.375 
Q 16.5 21.390625 20.328125 13.890625 
Q 24.171875 6.390625 31.78125 6.390625 
Q 39.453125 6.390625 43.28125 13.890625 
Q 47.125 21.390625 47.125 36.375 
Q 47.125 51.421875 43.28125 58.90625 
Q 39.453125 66.40625 31.78125 66.40625 
z
M 31.78125 74.21875 
Q 44.046875 74.21875 50.515625 64.515625 
Q 56.984375 54.828125 56.984375 36.375 
Q 56.984375 17.96875 50.515625 8.265625 
Q 44.046875 -1.421875 31.78125 -1.421875 
Q 19.53125 -1.421875 13.0625 8.265625 
Q 6.59375 17.96875 6.59375 36.375 
Q 6.59375 54.828125 13.0625 64.515625 
Q 19.53125 74.21875 31.78125 74.21875 
z
" id="DejaVuSans-30"/>
      </defs>
      <g transform="translate(67.726351 322.182437)scale(0.1 -0.1)">
       <use xlink:href="#DejaVuSans-30"/>
      </g>
     </g>
    </g>
    <g id="xtick_2">
     <g id="line2d_3">
      <path clip-path="url(#pdd19cfb258)" d="M 139.981955 307.584 
L 139.981955 41.472 
" style="fill:none;stroke:#b0b0b0;stroke-linecap:square;stroke-width:0.8;"/>
     </g>
     <g id="line2d_4">
      <g>
       <use style="stroke:#000000;stroke-width:0.8;" x="139.981955" xlink:href="#m9eec4eb730" y="307.584"/>
      </g>
     </g>
     <g id="text_2">
      <!-- 10 -->
      <defs>
       <path d="M 12.40625 8.296875 
L 28.515625 8.296875 
L 28.515625 63.921875 
L 10.984375 60.40625 
L 10.984375 69.390625 
L 28.421875 72.90625 
L 38.28125 72.90625 
L 38.28125 8.296875 
L 54.390625 8.296875 
L 54.390625 0 
L 12.40625 0 
z
" id="DejaVuSans-31"/>
      </defs>
      <g transform="translate(133.619455 322.182437)scale(0.1 -0.1)">
       <use xlink:href="#DejaVuSans-31"/>
       <use x="63.623047" xlink:href="#DejaVuSans-30"/>
      </g>
     </g>
    </g>
    <g id="xtick_3">
     <g id="line2d_5">
      <path clip-path="url(#pdd19cfb258)" d="M 209.056309 307.584 
L 209.056309 41.472 
" style="fill:none;stroke:#b0b0b0;stroke-linecap:square;stroke-width:0.8;"/>
     </g>
     <g id="line2d_6">
      <g>
       <use style="stroke:#000000;stroke-width:0.8;" x="209.056309" xlink:href="#m9eec4eb730" y="307.584"/>
      </g>
     </g>
     <g id="text_3">
      <!-- 20 -->
      <defs>
       <path d="M 19.1875 8.296875 
L 53.609375 8.296875 
L 53.609375 0 
L 7.328125 0 
L 7.328125 8.296875 
Q 12.9375 14.109375 22.625 23.890625 
Q 32.328125 33.6875 34.8125 36.53125 
Q 39.546875 41.84375 41.421875 45.53125 
Q 43.3125 49.21875 43.3125 52.78125 
Q 43.3125 58.59375 39.234375 62.25 
Q 35.15625 65.921875 28.609375 65.921875 
Q 23.96875 65.921875 18.8125 64.3125 
Q 13.671875 62.703125 7.8125 59.421875 
L 7.8125 69.390625 
Q 13.765625 71.78125 18.9375 73 
Q 24.125 74.21875 28.421875 74.21875 
Q 39.75 74.21875 46.484375 68.546875 
Q 53.21875 62.890625 53.21875 53.421875 
Q 53.21875 48.921875 51.53125 44.890625 
Q 49.859375 40.875 45.40625 35.40625 
Q 44.1875 33.984375 37.640625 27.21875 
Q 31.109375 20.453125 19.1875 8.296875 
z
" id="DejaVuSans-32"/>
      </defs>
      <g transform="translate(202.693809 322.182437)scale(0.1 -0.1)">
       <use xlink:href="#DejaVuSans-32"/>
       <use x="63.623047" xlink:href="#DejaVuSans-30"/>
      </g>
     </g>
    </g>
    <g id="xtick_4">
     <g id="line2d_7">
      <path clip-path="url(#pdd19cfb258)" d="M 278.130663 307.584 
L 278.130663 41.472 
" style="fill:none;stroke:#b0b0b0;stroke-linecap:square;stroke-width:0.8;"/>
     </g>
     <g id="line2d_8">
      <g>
       <use style="stroke:#000000;stroke-width:0.8;" x="278.130663" xlink:href="#m9eec4eb730" y="307.584"/>
      </g>
     </g>
     <g id="text_4">
      <!-- 30 -->
      <defs>
       <path d="M 40.578125 39.3125 
Q 47.65625 37.796875 51.625 33 
Q 55.609375 28.21875 55.609375 21.1875 
Q 55.609375 10.40625 48.1875 4.484375 
Q 40.765625 -1.421875 27.09375 -1.421875 
Q 22.515625 -1.421875 17.65625 -0.515625 
Q 12.796875 0.390625 7.625 2.203125 
L 7.625 11.71875 
Q 11.71875 9.328125 16.59375 8.109375 
Q 21.484375 6.890625 26.8125 6.890625 
Q 36.078125 6.890625 40.9375 10.546875 
Q 45.796875 14.203125 45.796875 21.1875 
Q 45.796875 27.640625 41.28125 31.265625 
Q 36.765625 34.90625 28.71875 34.90625 
L 20.21875 34.90625 
L 20.21875 43.015625 
L 29.109375 43.015625 
Q 36.375 43.015625 40.234375 45.921875 
Q 44.09375 48.828125 44.09375 54.296875 
Q 44.09375 59.90625 40.109375 62.90625 
Q 36.140625 65.921875 28.71875 65.921875 
Q 24.65625 65.921875 20.015625 65.03125 
Q 15.375 64.15625 9.8125 62.3125 
L 9.8125 71.09375 
Q 15.4375 72.65625 20.34375 73.4375 
Q 25.25 74.21875 29.59375 74.21875 
Q 40.828125 74.21875 47.359375 69.109375 
Q 53.90625 64.015625 53.90625 55.328125 
Q 53.90625 49.265625 50.4375 45.09375 
Q 46.96875 40.921875 40.578125 39.3125 
z
" id="DejaVuSans-33"/>
      </defs>
      <g transform="translate(271.768163 322.182437)scale(0.1 -0.1)">
       <use xlink:href="#DejaVuSans-33"/>
       <use x="63.623047" xlink:href="#DejaVuSans-30"/>
      </g>
     </g>
    </g>
    <g id="xtick_5">
     <g id="line2d_9">
      <path clip-path="url(#pdd19cfb258)" d="M 347.205016 307.584 
L 347.205016 41.472 
" style="fill:none;stroke:#b0b0b0;stroke-linecap:square;stroke-width:0.8;"/>
     </g>
     <g id="line2d_10">
      <g>
       <use style="stroke:#000000;stroke-width:0.8;" x="347.205016" xlink:href="#m9eec4eb730" y="307.584"/>
      </g>
     </g>
     <g id="text_5">
      <!-- 40 -->
      <defs>
       <path d="M 37.796875 64.3125 
L 12.890625 25.390625 
L 37.796875 25.390625 
z
M 35.203125 72.90625 
L 47.609375 72.90625 
L 47.609375 25.390625 
L 58.015625 25.390625 
L 58.015625 17.1875 
L 47.609375 17.1875 
L 47.609375 0 
L 37.796875 0 
L 37.796875 17.1875 
L 4.890625 17.1875 
L 4.890625 26.703125 
z
" id="DejaVuSans-34"/>
      </defs>
      <g transform="translate(340.842516 322.182437)scale(0.1 -0.1)">
       <use xlink:href="#DejaVuSans-34"/>
       <use x="63.623047" xlink:href="#DejaVuSans-30"/>
      </g>
     </g>
    </g>
    <g id="xtick_6">
     <g id="line2d_11">
      <path clip-path="url(#pdd19cfb258)" d="M 84.722472 307.584 
L 84.722472 41.472 
" style="fill:none;stroke:#b0b0b0;stroke-linecap:square;stroke-width:0.8;"/>
     </g>
     <g id="line2d_12">
      <defs>
       <path d="M 0 0 
L 0 2 
" id="ma60f96e56b" style="stroke:#000000;stroke-width:0.6;"/>
      </defs>
      <g>
       <use style="stroke:#000000;stroke-width:0.6;" x="84.722472" xlink:href="#ma60f96e56b" y="307.584"/>
      </g>
     </g>
    </g>
    <g id="xtick_7">
     <g id="line2d_13">
      <path clip-path="url(#pdd19cfb258)" d="M 98.537342 307.584 
L 98.537342 41.472 
" style="fill:none;stroke:#b0b0b0;stroke-linecap:square;stroke-width:0.8;"/>
     </g>
     <g id="line2d_14">
      <g>
       <use style="stroke:#000000;stroke-width:0.6;" x="98.537342" xlink:href="#ma60f96e56b" y="307.584"/>
      </g>
     </g>
    </g>
    <g id="xtick_8">
     <g id="line2d_15">
      <path clip-path="url(#pdd19cfb258)" d="M 112.352213 307.584 
L 112.352213 41.472 
" style="fill:none;stroke:#b0b0b0;stroke-linecap:square;stroke-width:0.8;"/>
     </g>
     <g id="line2d_16">
      <g>
       <use style="stroke:#000000;stroke-width:0.6;" x="112.352213" xlink:href="#ma60f96e56b" y="307.584"/>
      </g>
     </g>
    </g>
    <g id="xtick_9">
     <g id="line2d_17">
      <path clip-path="url(#pdd19cfb258)" d="M 126.167084 307.584 
L 126.167084 41.472 
" style="fill:none;stroke:#b0b0b0;stroke-linecap:square;stroke-width:0.8;"/>
     </g>
     <g id="line2d_18">
      <g>
       <use style="stroke:#000000;stroke-width:0.6;" x="126.167084" xlink:href="#ma60f96e56b" y="307.584"/>
      </g>
     </g>
    </g>
    <g id="xtick_10">
     <g id="line2d_19">
      <path clip-path="url(#pdd19cfb258)" d="M 153.796826 307.584 
L 153.796826 41.472 
" style="fill:none;stroke:#b0b0b0;stroke-linecap:square;stroke-width:0.8;"/>
     </g>
     <g id="line2d_20">
      <g>
       <use style="stroke:#000000;stroke-width:0.6;" x="153.796826" xlink:href="#ma60f96e56b" y="307.584"/>
      </g>
     </g>
    </g>
    <g id="xtick_11">
     <g id="line2d_21">
      <path clip-path="url(#pdd19cfb258)" d="M 167.611696 307.584 
L 167.611696 41.472 
" style="fill:none;stroke:#b0b0b0;stroke-linecap:square;stroke-width:0.8;"/>
     </g>
     <g id="line2d_22">
      <g>
       <use style="stroke:#000000;stroke-width:0.6;" x="167.611696" xlink:href="#ma60f96e56b" y="307.584"/>
      </g>
     </g>
    </g>
    <g id="xtick_12">
     <g id="line2d_23">
      <path clip-path="url(#pdd19cfb258)" d="M 181.426567 307.584 
L 181.426567 41.472 
" style="fill:none;stroke:#b0b0b0;stroke-linecap:square;stroke-width:0.8;"/>
     </g>
     <g id="line2d_24">
      <g>
       <use style="stroke:#000000;stroke-width:0.6;" x="181.426567" xlink:href="#ma60f96e56b" y="307.584"/>
      </g>
     </g>
    </g>
    <g id="xtick_13">
     <g id="line2d_25">
      <path clip-path="url(#pdd19cfb258)" d="M 195.241438 307.584 
L 195.241438 41.472 
" style="fill:none;stroke:#b0b0b0;stroke-linecap:square;stroke-width:0.8;"/>
     </g>
     <g id="line2d_26">
      <g>
       <use style="stroke:#000000;stroke-width:0.6;" x="195.241438" xlink:href="#ma60f96e56b" y="307.584"/>
      </g>
     </g>
    </g>
    <g id="xtick_14">
     <g id="line2d_27">
      <path clip-path="url(#pdd19cfb258)" d="M 222.871179 307.584 
L 222.871179 41.472 
" style="fill:none;stroke:#b0b0b0;stroke-linecap:square;stroke-width:0.8;"/>
     </g>
     <g id="line2d_28">
      <g>
       <use style="stroke:#000000;stroke-width:0.6;" x="222.871179" xlink:href="#ma60f96e56b" y="307.584"/>
      </g>
     </g>
    </g>
    <g id="xtick_15">
     <g id="line2d_29">
      <path clip-path="url(#pdd19cfb258)" d="M 236.68605 307.584 
L 236.68605 41.472 
" style="fill:none;stroke:#b0b0b0;stroke-linecap:square;stroke-width:0.8;"/>
     </g>
     <g id="line2d_30">
      <g>
       <use style="stroke:#000000;stroke-width:0.6;" x="236.68605" xlink:href="#ma60f96e56b" y="307.584"/>
      </g>
     </g>
    </g>
    <g id="xtick_16">
     <g id="line2d_31">
      <path clip-path="url(#pdd19cfb258)" d="M 250.500921 307.584 
L 250.500921 41.472 
" style="fill:none;stroke:#b0b0b0;stroke-linecap:square;stroke-width:0.8;"/>
     </g>
     <g id="line2d_32">
      <g>
       <use style="stroke:#000000;stroke-width:0.6;" x="250.500921" xlink:href="#ma60f96e56b" y="307.584"/>
      </g>
     </g>
    </g>
    <g id="xtick_17">
     <g id="line2d_33">
      <path clip-path="url(#pdd19cfb258)" d="M 264.315792 307.584 
L 264.315792 41.472 
" style="fill:none;stroke:#b0b0b0;stroke-linecap:square;stroke-width:0.8;"/>
     </g>
     <g id="line2d_34">
      <g>
       <use style="stroke:#000000;stroke-width:0.6;" x="264.315792" xlink:href="#ma60f96e56b" y="307.584"/>
      </g>
     </g>
    </g>
    <g id="xtick_18">
     <g id="line2d_35">
      <path clip-path="url(#pdd19cfb258)" d="M 291.945533 307.584 
L 291.945533 41.472 
" style="fill:none;stroke:#b0b0b0;stroke-linecap:square;stroke-width:0.8;"/>
     </g>
     <g id="line2d_36">
      <g>
       <use style="stroke:#000000;stroke-width:0.6;" x="291.945533" xlink:href="#ma60f96e56b" y="307.584"/>
      </g>
     </g>
    </g>
    <g id="xtick_19">
     <g id="line2d_37">
      <path clip-path="url(#pdd19cfb258)" d="M 305.760404 307.584 
L 305.760404 41.472 
" style="fill:none;stroke:#b0b0b0;stroke-linecap:square;stroke-width:0.8;"/>
     </g>
     <g id="line2d_38">
      <g>
       <use style="stroke:#000000;stroke-width:0.6;" x="305.760404" xlink:href="#ma60f96e56b" y="307.584"/>
      </g>
     </g>
    </g>
    <g id="xtick_20">
     <g id="line2d_39">
      <path clip-path="url(#pdd19cfb258)" d="M 319.575275 307.584 
L 319.575275 41.472 
" style="fill:none;stroke:#b0b0b0;stroke-linecap:square;stroke-width:0.8;"/>
     </g>
     <g id="line2d_40">
      <g>
       <use style="stroke:#000000;stroke-width:0.6;" x="319.575275" xlink:href="#ma60f96e56b" y="307.584"/>
      </g>
     </g>
    </g>
    <g id="xtick_21">
     <g id="line2d_41">
      <path clip-path="url(#pdd19cfb258)" d="M 333.390146 307.584 
L 333.390146 41.472 
" style="fill:none;stroke:#b0b0b0;stroke-linecap:square;stroke-width:0.8;"/>
     </g>
     <g id="line2d_42">
      <g>
       <use style="stroke:#000000;stroke-width:0.6;" x="333.390146" xlink:href="#ma60f96e56b" y="307.584"/>
      </g>
     </g>
    </g>
    <g id="xtick_22">
     <g id="line2d_43">
      <path clip-path="url(#pdd19cfb258)" d="M 361.019887 307.584 
L 361.019887 41.472 
" style="fill:none;stroke:#b0b0b0;stroke-linecap:square;stroke-width:0.8;"/>
     </g>
     <g id="line2d_44">
      <g>
       <use style="stroke:#000000;stroke-width:0.6;" x="361.019887" xlink:href="#ma60f96e56b" y="307.584"/>
      </g>
     </g>
    </g>
    <g id="xtick_23">
     <g id="line2d_45">
      <path clip-path="url(#pdd19cfb258)" d="M 374.834758 307.584 
L 374.834758 41.472 
" style="fill:none;stroke:#b0b0b0;stroke-linecap:square;stroke-width:0.8;"/>
     </g>
     <g id="line2d_46">
      <g>
       <use style="stroke:#000000;stroke-width:0.6;" x="374.834758" xlink:href="#ma60f96e56b" y="307.584"/>
      </g>
     </g>
    </g>
    <g id="xtick_24">
     <g id="line2d_47">
      <path clip-path="url(#pdd19cfb258)" d="M 388.649629 307.584 
L 388.649629 41.472 
" style="fill:none;stroke:#b0b0b0;stroke-linecap:square;stroke-width:0.8;"/>
     </g>
     <g id="line2d_48">
      <g>
       <use style="stroke:#000000;stroke-width:0.6;" x="388.649629" xlink:href="#ma60f96e56b" y="307.584"/>
      </g>
     </g>
    </g>
    <g id="xtick_25">
     <g id="line2d_49">
      <path clip-path="url(#pdd19cfb258)" d="M 402.4645 307.584 
L 402.4645 41.472 
" style="fill:none;stroke:#b0b0b0;stroke-linecap:square;stroke-width:0.8;"/>
     </g>
     <g id="line2d_50">
      <g>
       <use style="stroke:#000000;stroke-width:0.6;" x="402.4645" xlink:href="#ma60f96e56b" y="307.584"/>
      </g>
     </g>
    </g>
    <g id="text_6">
     <!-- frame # [] -->
     <defs>
      <path d="M 37.109375 75.984375 
L 37.109375 68.5 
L 28.515625 68.5 
Q 23.6875 68.5 21.796875 66.546875 
Q 19.921875 64.59375 19.921875 59.515625 
L 19.921875 54.6875 
L 34.71875 54.6875 
L 34.71875 47.703125 
L 19.921875 47.703125 
L 19.921875 0 
L 10.890625 0 
L 10.890625 47.703125 
L 2.296875 47.703125 
L 2.296875 54.6875 
L 10.890625 54.6875 
L 10.890625 58.5 
Q 10.890625 67.625 15.140625 71.796875 
Q 19.390625 75.984375 28.609375 75.984375 
z
" id="DejaVuSans-66"/>
      <path d="M 41.109375 46.296875 
Q 39.59375 47.171875 37.8125 47.578125 
Q 36.03125 48 33.890625 48 
Q 26.265625 48 22.1875 43.046875 
Q 18.109375 38.09375 18.109375 28.8125 
L 18.109375 0 
L 9.078125 0 
L 9.078125 54.6875 
L 18.109375 54.6875 
L 18.109375 46.1875 
Q 20.953125 51.171875 25.484375 53.578125 
Q 30.03125 56 36.53125 56 
Q 37.453125 56 38.578125 55.875 
Q 39.703125 55.765625 41.0625 55.515625 
z
" id="DejaVuSans-72"/>
      <path d="M 34.28125 27.484375 
Q 23.390625 27.484375 19.1875 25 
Q 14.984375 22.515625 14.984375 16.5 
Q 14.984375 11.71875 18.140625 8.90625 
Q 21.296875 6.109375 26.703125 6.109375 
Q 34.1875 6.109375 38.703125 11.40625 
Q 43.21875 16.703125 43.21875 25.484375 
L 43.21875 27.484375 
z
M 52.203125 31.203125 
L 52.203125 0 
L 43.21875 0 
L 43.21875 8.296875 
Q 40.140625 3.328125 35.546875 0.953125 
Q 30.953125 -1.421875 24.3125 -1.421875 
Q 15.921875 -1.421875 10.953125 3.296875 
Q 6 8.015625 6 15.921875 
Q 6 25.140625 12.171875 29.828125 
Q 18.359375 34.515625 30.609375 34.515625 
L 43.21875 34.515625 
L 43.21875 35.40625 
Q 43.21875 41.609375 39.140625 45 
Q 35.0625 48.390625 27.6875 48.390625 
Q 23 48.390625 18.546875 47.265625 
Q 14.109375 46.140625 10.015625 43.890625 
L 10.015625 52.203125 
Q 14.9375 54.109375 19.578125 55.046875 
Q 24.21875 56 28.609375 56 
Q 40.484375 56 46.34375 49.84375 
Q 52.203125 43.703125 52.203125 31.203125 
z
" id="DejaVuSans-61"/>
      <path d="M 52 44.1875 
Q 55.375 50.25 60.0625 53.125 
Q 64.75 56 71.09375 56 
Q 79.640625 56 84.28125 50.015625 
Q 88.921875 44.046875 88.921875 33.015625 
L 88.921875 0 
L 79.890625 0 
L 79.890625 32.71875 
Q 79.890625 40.578125 77.09375 44.375 
Q 74.3125 48.1875 68.609375 48.1875 
Q 61.625 48.1875 57.5625 43.546875 
Q 53.515625 38.921875 53.515625 30.90625 
L 53.515625 0 
L 44.484375 0 
L 44.484375 32.71875 
Q 44.484375 40.625 41.703125 44.40625 
Q 38.921875 48.1875 33.109375 48.1875 
Q 26.21875 48.1875 22.15625 43.53125 
Q 18.109375 38.875 18.109375 30.90625 
L 18.109375 0 
L 9.078125 0 
L 9.078125 54.6875 
L 18.109375 54.6875 
L 18.109375 46.1875 
Q 21.1875 51.21875 25.484375 53.609375 
Q 29.78125 56 35.6875 56 
Q 41.65625 56 45.828125 52.96875 
Q 50 49.953125 52 44.1875 
z
" id="DejaVuSans-6d"/>
      <path d="M 56.203125 29.59375 
L 56.203125 25.203125 
L 14.890625 25.203125 
Q 15.484375 15.921875 20.484375 11.0625 
Q 25.484375 6.203125 34.421875 6.203125 
Q 39.59375 6.203125 44.453125 7.46875 
Q 49.3125 8.734375 54.109375 11.28125 
L 54.109375 2.78125 
Q 49.265625 0.734375 44.1875 -0.34375 
Q 39.109375 -1.421875 33.890625 -1.421875 
Q 20.796875 -1.421875 13.15625 6.1875 
Q 5.515625 13.8125 5.515625 26.8125 
Q 5.515625 40.234375 12.765625 48.109375 
Q 20.015625 56 32.328125 56 
Q 43.359375 56 49.78125 48.890625 
Q 56.203125 41.796875 56.203125 29.59375 
z
M 47.21875 32.234375 
Q 47.125 39.59375 43.09375 43.984375 
Q 39.0625 48.390625 32.421875 48.390625 
Q 24.90625 48.390625 20.390625 44.140625 
Q 15.875 39.890625 15.1875 32.171875 
z
" id="DejaVuSans-65"/>
      <path id="DejaVuSans-20"/>
      <path d="M 51.125 44 
L 36.921875 44 
L 32.8125 27.6875 
L 47.125 27.6875 
z
M 43.796875 71.78125 
L 38.71875 51.515625 
L 52.984375 51.515625 
L 58.109375 71.78125 
L 65.921875 71.78125 
L 60.890625 51.515625 
L 76.125 51.515625 
L 76.125 44 
L 58.984375 44 
L 54.984375 27.6875 
L 70.515625 27.6875 
L 70.515625 20.21875 
L 53.078125 20.21875 
L 48 0 
L 40.1875 0 
L 45.21875 20.21875 
L 30.90625 20.21875 
L 25.875 0 
L 18.015625 0 
L 23.09375 20.21875 
L 7.71875 20.21875 
L 7.71875 27.6875 
L 24.90625 27.6875 
L 29 44 
L 13.28125 44 
L 13.28125 51.515625 
L 30.90625 51.515625 
L 35.890625 71.78125 
z
" id="DejaVuSans-23"/>
      <path d="M 8.59375 75.984375 
L 29.296875 75.984375 
L 29.296875 69 
L 17.578125 69 
L 17.578125 -6.203125 
L 29.296875 -6.203125 
L 29.296875 -13.1875 
L 8.59375 -13.1875 
z
" id="DejaVuSans-5b"/>
      <path d="M 30.421875 75.984375 
L 30.421875 -13.1875 
L 9.71875 -13.1875 
L 9.71875 -6.203125 
L 21.390625 -6.203125 
L 21.390625 69 
L 9.71875 69 
L 9.71875 75.984375 
z
" id="DejaVuSans-5d"/>
     </defs>
     <g transform="translate(210.063906 335.860562)scale(0.1 -0.1)">
      <use xlink:href="#DejaVuSans-66"/>
      <use x="35.205078" xlink:href="#DejaVuSans-72"/>
      <use x="76.318359" xlink:href="#DejaVuSans-61"/>
      <use x="137.597656" xlink:href="#DejaVuSans-6d"/>
      <use x="235.009766" xlink:href="#DejaVuSans-65"/>
      <use x="296.533203" xlink:href="#DejaVuSans-20"/>
      <use x="328.320312" xlink:href="#DejaVuSans-23"/>
      <use x="412.109375" xlink:href="#DejaVuSans-20"/>
      <use x="443.896484" xlink:href="#DejaVuSans-5b"/>
      <use x="482.910156" xlink:href="#DejaVuSans-5d"/>
     </g>
    </g>
   </g>
   <g id="matplotlib.axis_2">
    <g id="ytick_1">
     <g id="line2d_51">
      <path clip-path="url(#pdd19cfb258)" d="M 57.6 287.512679 
L 414.72 287.512679 
" style="fill:none;stroke:#b0b0b0;stroke-linecap:square;stroke-width:0.8;"/>
     </g>
     <g id="line2d_52">
      <defs>
       <path d="M 0 0 
L -3.5 0 
" id="m912627abbe" style="stroke:#000000;stroke-width:0.8;"/>
      </defs>
      <g>
       <use style="stroke:#000000;stroke-width:0.8;" x="57.6" xlink:href="#m912627abbe" y="287.512679"/>
      </g>
     </g>
     <g id="text_7">
      <!-- −0.10 -->
      <defs>
       <path d="M 10.59375 35.5 
L 73.1875 35.5 
L 73.1875 27.203125 
L 10.59375 27.203125 
z
" id="DejaVuSans-2212"/>
       <path d="M 10.6875 12.40625 
L 21 12.40625 
L 21 0 
L 10.6875 0 
z
" id="DejaVuSans-2e"/>
      </defs>
      <g transform="translate(19.954687 291.311898)scale(0.1 -0.1)">
       <use xlink:href="#DejaVuSans-2212"/>
       <use x="83.789062" xlink:href="#DejaVuSans-30"/>
       <use x="147.412109" xlink:href="#DejaVuSans-2e"/>
       <use x="179.199219" xlink:href="#DejaVuSans-31"/>
       <use x="242.822266" xlink:href="#DejaVuSans-30"/>
      </g>
     </g>
    </g>
    <g id="ytick_2">
     <g id="line2d_53">
      <path clip-path="url(#pdd19cfb258)" d="M 57.6 234.858956 
L 414.72 234.858956 
" style="fill:none;stroke:#b0b0b0;stroke-linecap:square;stroke-width:0.8;"/>
     </g>
     <g id="line2d_54">
      <g>
       <use style="stroke:#000000;stroke-width:0.8;" x="57.6" xlink:href="#m912627abbe" y="234.858956"/>
      </g>
     </g>
     <g id="text_8">
      <!-- −0.05 -->
      <defs>
       <path d="M 10.796875 72.90625 
L 49.515625 72.90625 
L 49.515625 64.59375 
L 19.828125 64.59375 
L 19.828125 46.734375 
Q 21.96875 47.46875 24.109375 47.828125 
Q 26.265625 48.1875 28.421875 48.1875 
Q 40.625 48.1875 47.75 41.5 
Q 54.890625 34.8125 54.890625 23.390625 
Q 54.890625 11.625 47.5625 5.09375 
Q 40.234375 -1.421875 26.90625 -1.421875 
Q 22.3125 -1.421875 17.546875 -0.640625 
Q 12.796875 0.140625 7.71875 1.703125 
L 7.71875 11.625 
Q 12.109375 9.234375 16.796875 8.0625 
Q 21.484375 6.890625 26.703125 6.890625 
Q 35.15625 6.890625 40.078125 11.328125 
Q 45.015625 15.765625 45.015625 23.390625 
Q 45.015625 31 40.078125 35.4375 
Q 35.15625 39.890625 26.703125 39.890625 
Q 22.75 39.890625 18.8125 39.015625 
Q 14.890625 38.140625 10.796875 36.28125 
z
" id="DejaVuSans-35"/>
      </defs>
      <g transform="translate(19.954687 238.658175)scale(0.1 -0.1)">
       <use xlink:href="#DejaVuSans-2212"/>
       <use x="83.789062" xlink:href="#DejaVuSans-30"/>
       <use x="147.412109" xlink:href="#DejaVuSans-2e"/>
       <use x="179.199219" xlink:href="#DejaVuSans-30"/>
       <use x="242.822266" xlink:href="#DejaVuSans-35"/>
      </g>
     </g>
    </g>
    <g id="ytick_3">
     <g id="line2d_55">
      <path clip-path="url(#pdd19cfb258)" d="M 57.6 182.205233 
L 414.72 182.205233 
" style="fill:none;stroke:#b0b0b0;stroke-linecap:square;stroke-width:0.8;"/>
     </g>
     <g id="line2d_56">
      <g>
       <use style="stroke:#000000;stroke-width:0.8;" x="57.6" xlink:href="#m912627abbe" y="182.205233"/>
      </g>
     </g>
     <g id="text_9">
      <!-- 0.00 -->
      <g transform="translate(28.334375 186.004452)scale(0.1 -0.1)">
       <use xlink:href="#DejaVuSans-30"/>
       <use x="63.623047" xlink:href="#DejaVuSans-2e"/>
       <use x="95.410156" xlink:href="#DejaVuSans-30"/>
       <use x="159.033203" xlink:href="#DejaVuSans-30"/>
      </g>
     </g>
    </g>
    <g id="ytick_4">
     <g id="line2d_57">
      <path clip-path="url(#pdd19cfb258)" d="M 57.6 129.55151 
L 414.72 129.55151 
" style="fill:none;stroke:#b0b0b0;stroke-linecap:square;stroke-width:0.8;"/>
     </g>
     <g id="line2d_58">
      <g>
       <use style="stroke:#000000;stroke-width:0.8;" x="57.6" xlink:href="#m912627abbe" y="129.55151"/>
      </g>
     </g>
     <g id="text_10">
      <!-- 0.05 -->
      <g transform="translate(28.334375 133.350729)scale(0.1 -0.1)">
       <use xlink:href="#DejaVuSans-30"/>
       <use x="63.623047" xlink:href="#DejaVuSans-2e"/>
       <use x="95.410156" xlink:href="#DejaVuSans-30"/>
       <use x="159.033203" xlink:href="#DejaVuSans-35"/>
      </g>
     </g>
    </g>
    <g id="ytick_5">
     <g id="line2d_59">
      <path clip-path="url(#pdd19cfb258)" d="M 57.6 76.897787 
L 414.72 76.897787 
" style="fill:none;stroke:#b0b0b0;stroke-linecap:square;stroke-width:0.8;"/>
     </g>
     <g id="line2d_60">
      <g>
       <use style="stroke:#000000;stroke-width:0.8;" x="57.6" xlink:href="#m912627abbe" y="76.897787"/>
      </g>
     </g>
     <g id="text_11">
      <!-- 0.10 -->
      <g transform="translate(28.334375 80.697006)scale(0.1 -0.1)">
       <use xlink:href="#DejaVuSans-30"/>
       <use x="63.623047" xlink:href="#DejaVuSans-2e"/>
       <use x="95.410156" xlink:href="#DejaVuSans-31"/>
       <use x="159.033203" xlink:href="#DejaVuSans-30"/>
      </g>
     </g>
    </g>
    <g id="ytick_6">
     <g id="line2d_61">
      <path clip-path="url(#pdd19cfb258)" d="M 57.6 298.043423 
L 414.72 298.043423 
" style="fill:none;stroke:#b0b0b0;stroke-linecap:square;stroke-width:0.8;"/>
     </g>
     <g id="line2d_62">
      <defs>
       <path d="M 0 0 
L -2 0 
" id="m4681af08f1" style="stroke:#000000;stroke-width:0.6;"/>
      </defs>
      <g>
       <use style="stroke:#000000;stroke-width:0.6;" x="57.6" xlink:href="#m4681af08f1" y="298.043423"/>
      </g>
     </g>
    </g>
    <g id="ytick_7">
     <g id="line2d_63">
      <path clip-path="url(#pdd19cfb258)" d="M 57.6 276.981934 
L 414.72 276.981934 
" style="fill:none;stroke:#b0b0b0;stroke-linecap:square;stroke-width:0.8;"/>
     </g>
     <g id="line2d_64">
      <g>
       <use style="stroke:#000000;stroke-width:0.6;" x="57.6" xlink:href="#m4681af08f1" y="276.981934"/>
      </g>
     </g>
    </g>
    <g id="ytick_8">
     <g id="line2d_65">
      <path clip-path="url(#pdd19cfb258)" d="M 57.6 266.45119 
L 414.72 266.45119 
" style="fill:none;stroke:#b0b0b0;stroke-linecap:square;stroke-width:0.8;"/>
     </g>
     <g id="line2d_66">
      <g>
       <use style="stroke:#000000;stroke-width:0.6;" x="57.6" xlink:href="#m4681af08f1" y="266.45119"/>
      </g>
     </g>
    </g>
    <g id="ytick_9">
     <g id="line2d_67">
      <path clip-path="url(#pdd19cfb258)" d="M 57.6 255.920445 
L 414.72 255.920445 
" style="fill:none;stroke:#b0b0b0;stroke-linecap:square;stroke-width:0.8;"/>
     </g>
     <g id="line2d_68">
      <g>
       <use style="stroke:#000000;stroke-width:0.6;" x="57.6" xlink:href="#m4681af08f1" y="255.920445"/>
      </g>
     </g>
    </g>
    <g id="ytick_10">
     <g id="line2d_69">
      <path clip-path="url(#pdd19cfb258)" d="M 57.6 245.3897 
L 414.72 245.3897 
" style="fill:none;stroke:#b0b0b0;stroke-linecap:square;stroke-width:0.8;"/>
     </g>
     <g id="line2d_70">
      <g>
       <use style="stroke:#000000;stroke-width:0.6;" x="57.6" xlink:href="#m4681af08f1" y="245.3897"/>
      </g>
     </g>
    </g>
    <g id="ytick_11">
     <g id="line2d_71">
      <path clip-path="url(#pdd19cfb258)" d="M 57.6 224.328211 
L 414.72 224.328211 
" style="fill:none;stroke:#b0b0b0;stroke-linecap:square;stroke-width:0.8;"/>
     </g>
     <g id="line2d_72">
      <g>
       <use style="stroke:#000000;stroke-width:0.6;" x="57.6" xlink:href="#m4681af08f1" y="224.328211"/>
      </g>
     </g>
    </g>
    <g id="ytick_12">
     <g id="line2d_73">
      <path clip-path="url(#pdd19cfb258)" d="M 57.6 213.797467 
L 414.72 213.797467 
" style="fill:none;stroke:#b0b0b0;stroke-linecap:square;stroke-width:0.8;"/>
     </g>
     <g id="line2d_74">
      <g>
       <use style="stroke:#000000;stroke-width:0.6;" x="57.6" xlink:href="#m4681af08f1" y="213.797467"/>
      </g>
     </g>
    </g>
    <g id="ytick_13">
     <g id="line2d_75">
      <path clip-path="url(#pdd19cfb258)" d="M 57.6 203.266722 
L 414.72 203.266722 
" style="fill:none;stroke:#b0b0b0;stroke-linecap:square;stroke-width:0.8;"/>
     </g>
     <g id="line2d_76">
      <g>
       <use style="stroke:#000000;stroke-width:0.6;" x="57.6" xlink:href="#m4681af08f1" y="203.266722"/>
      </g>
     </g>
    </g>
    <g id="ytick_14">
     <g id="line2d_77">
      <path clip-path="url(#pdd19cfb258)" d="M 57.6 192.735978 
L 414.72 192.735978 
" style="fill:none;stroke:#b0b0b0;stroke-linecap:square;stroke-width:0.8;"/>
     </g>
     <g id="line2d_78">
      <g>
       <use style="stroke:#000000;stroke-width:0.6;" x="57.6" xlink:href="#m4681af08f1" y="192.735978"/>
      </g>
     </g>
    </g>
    <g id="ytick_15">
     <g id="line2d_79">
      <path clip-path="url(#pdd19cfb258)" d="M 57.6 171.674488 
L 414.72 171.674488 
" style="fill:none;stroke:#b0b0b0;stroke-linecap:square;stroke-width:0.8;"/>
     </g>
     <g id="line2d_80">
      <g>
       <use style="stroke:#000000;stroke-width:0.6;" x="57.6" xlink:href="#m4681af08f1" y="171.674488"/>
      </g>
     </g>
    </g>
    <g id="ytick_16">
     <g id="line2d_81">
      <path clip-path="url(#pdd19cfb258)" d="M 57.6 161.143744 
L 414.72 161.143744 
" style="fill:none;stroke:#b0b0b0;stroke-linecap:square;stroke-width:0.8;"/>
     </g>
     <g id="line2d_82">
      <g>
       <use style="stroke:#000000;stroke-width:0.6;" x="57.6" xlink:href="#m4681af08f1" y="161.143744"/>
      </g>
     </g>
    </g>
    <g id="ytick_17">
     <g id="line2d_83">
      <path clip-path="url(#pdd19cfb258)" d="M 57.6 150.612999 
L 414.72 150.612999 
" style="fill:none;stroke:#b0b0b0;stroke-linecap:square;stroke-width:0.8;"/>
     </g>
     <g id="line2d_84">
      <g>
       <use style="stroke:#000000;stroke-width:0.6;" x="57.6" xlink:href="#m4681af08f1" y="150.612999"/>
      </g>
     </g>
    </g>
    <g id="ytick_18">
     <g id="line2d_85">
      <path clip-path="url(#pdd19cfb258)" d="M 57.6 140.082255 
L 414.72 140.082255 
" style="fill:none;stroke:#b0b0b0;stroke-linecap:square;stroke-width:0.8;"/>
     </g>
     <g id="line2d_86">
      <g>
       <use style="stroke:#000000;stroke-width:0.6;" x="57.6" xlink:href="#m4681af08f1" y="140.082255"/>
      </g>
     </g>
    </g>
    <g id="ytick_19">
     <g id="line2d_87">
      <path clip-path="url(#pdd19cfb258)" d="M 57.6 119.020766 
L 414.72 119.020766 
" style="fill:none;stroke:#b0b0b0;stroke-linecap:square;stroke-width:0.8;"/>
     </g>
     <g id="line2d_88">
      <g>
       <use style="stroke:#000000;stroke-width:0.6;" x="57.6" xlink:href="#m4681af08f1" y="119.020766"/>
      </g>
     </g>
    </g>
    <g id="ytick_20">
     <g id="line2d_89">
      <path clip-path="url(#pdd19cfb258)" d="M 57.6 108.490021 
L 414.72 108.490021 
" style="fill:none;stroke:#b0b0b0;stroke-linecap:square;stroke-width:0.8;"/>
     </g>
     <g id="line2d_90">
      <g>
       <use style="stroke:#000000;stroke-width:0.6;" x="57.6" xlink:href="#m4681af08f1" y="108.490021"/>
      </g>
     </g>
    </g>
    <g id="ytick_21">
     <g id="line2d_91">
      <path clip-path="url(#pdd19cfb258)" d="M 57.6 97.959276 
L 414.72 97.959276 
" style="fill:none;stroke:#b0b0b0;stroke-linecap:square;stroke-width:0.8;"/>
     </g>
     <g id="line2d_92">
      <g>
       <use style="stroke:#000000;stroke-width:0.6;" x="57.6" xlink:href="#m4681af08f1" y="97.959276"/>
      </g>
     </g>
    </g>
    <g id="ytick_22">
     <g id="line2d_93">
      <path clip-path="url(#pdd19cfb258)" d="M 57.6 87.428532 
L 414.72 87.428532 
" style="fill:none;stroke:#b0b0b0;stroke-linecap:square;stroke-width:0.8;"/>
     </g>
     <g id="line2d_94">
      <g>
       <use style="stroke:#000000;stroke-width:0.6;" x="57.6" xlink:href="#m4681af08f1" y="87.428532"/>
      </g>
     </g>
    </g>
    <g id="ytick_23">
     <g id="line2d_95">
      <path clip-path="url(#pdd19cfb258)" d="M 57.6 66.367043 
L 414.72 66.367043 
" style="fill:none;stroke:#b0b0b0;stroke-linecap:square;stroke-width:0.8;"/>
     </g>
     <g id="line2d_96">
      <g>
       <use style="stroke:#000000;stroke-width:0.6;" x="57.6" xlink:href="#m4681af08f1" y="66.367043"/>
      </g>
     </g>
    </g>
    <g id="ytick_24">
     <g id="line2d_97">
      <path clip-path="url(#pdd19cfb258)" d="M 57.6 55.836298 
L 414.72 55.836298 
" style="fill:none;stroke:#b0b0b0;stroke-linecap:square;stroke-width:0.8;"/>
     </g>
     <g id="line2d_98">
      <g>
       <use style="stroke:#000000;stroke-width:0.6;" x="57.6" xlink:href="#m4681af08f1" y="55.836298"/>
      </g>
     </g>
    </g>
    <g id="ytick_25">
     <g id="line2d_99">
      <path clip-path="url(#pdd19cfb258)" d="M 57.6 45.305554 
L 414.72 45.305554 
" style="fill:none;stroke:#b0b0b0;stroke-linecap:square;stroke-width:0.8;"/>
     </g>
     <g id="line2d_100">
      <g>
       <use style="stroke:#000000;stroke-width:0.6;" x="57.6" xlink:href="#m4681af08f1" y="45.305554"/>
      </g>
     </g>
    </g>
    <g id="text_12">
     <!-- trans z -->
     <defs>
      <path d="M 18.3125 70.21875 
L 18.3125 54.6875 
L 36.8125 54.6875 
L 36.8125 47.703125 
L 18.3125 47.703125 
L 18.3125 18.015625 
Q 18.3125 11.328125 20.140625 9.421875 
Q 21.96875 7.515625 27.59375 7.515625 
L 36.8125 7.515625 
L 36.8125 0 
L 27.59375 0 
Q 17.1875 0 13.234375 3.875 
Q 9.28125 7.765625 9.28125 18.015625 
L 9.28125 47.703125 
L 2.6875 47.703125 
L 2.6875 54.6875 
L 9.28125 54.6875 
L 9.28125 70.21875 
z
" id="DejaVuSans-74"/>
      <path d="M 54.890625 33.015625 
L 54.890625 0 
L 45.90625 0 
L 45.90625 32.71875 
Q 45.90625 40.484375 42.875 44.328125 
Q 39.84375 48.1875 33.796875 48.1875 
Q 26.515625 48.1875 22.3125 43.546875 
Q 18.109375 38.921875 18.109375 30.90625 
L 18.109375 0 
L 9.078125 0 
L 9.078125 54.6875 
L 18.109375 54.6875 
L 18.109375 46.1875 
Q 21.34375 51.125 25.703125 53.5625 
Q 30.078125 56 35.796875 56 
Q 45.21875 56 50.046875 50.171875 
Q 54.890625 44.34375 54.890625 33.015625 
z
" id="DejaVuSans-6e"/>
      <path d="M 44.28125 53.078125 
L 44.28125 44.578125 
Q 40.484375 46.53125 36.375 47.5 
Q 32.28125 48.484375 27.875 48.484375 
Q 21.1875 48.484375 17.84375 46.4375 
Q 14.5 44.390625 14.5 40.28125 
Q 14.5 37.15625 16.890625 35.375 
Q 19.28125 33.59375 26.515625 31.984375 
L 29.59375 31.296875 
Q 39.15625 29.25 43.1875 25.515625 
Q 47.21875 21.78125 47.21875 15.09375 
Q 47.21875 7.46875 41.1875 3.015625 
Q 35.15625 -1.421875 24.609375 -1.421875 
Q 20.21875 -1.421875 15.453125 -0.5625 
Q 10.6875 0.296875 5.421875 2 
L 5.421875 11.28125 
Q 10.40625 8.6875 15.234375 7.390625 
Q 20.0625 6.109375 24.8125 6.109375 
Q 31.15625 6.109375 34.5625 8.28125 
Q 37.984375 10.453125 37.984375 14.40625 
Q 37.984375 18.0625 35.515625 20.015625 
Q 33.0625 21.96875 24.703125 23.78125 
L 21.578125 24.515625 
Q 13.234375 26.265625 9.515625 29.90625 
Q 5.8125 33.546875 5.8125 39.890625 
Q 5.8125 47.609375 11.28125 51.796875 
Q 16.75 56 26.8125 56 
Q 31.78125 56 36.171875 55.265625 
Q 40.578125 54.546875 44.28125 53.078125 
z
" id="DejaVuSans-73"/>
      <path d="M 5.515625 54.6875 
L 48.1875 54.6875 
L 48.1875 46.484375 
L 14.40625 7.171875 
L 48.1875 7.171875 
L 48.1875 0 
L 4.296875 0 
L 4.296875 8.203125 
L 38.09375 47.515625 
L 5.515625 47.515625 
z
" id="DejaVuSans-7a"/>
     </defs>
     <g transform="translate(13.875 191.594406)rotate(-90)scale(0.1 -0.1)">
      <use xlink:href="#DejaVuSans-74"/>
      <use x="39.208984" xlink:href="#DejaVuSans-72"/>
      <use x="80.322266" xlink:href="#DejaVuSans-61"/>
      <use x="141.601562" xlink:href="#DejaVuSans-6e"/>
      <use x="204.980469" xlink:href="#DejaVuSans-73"/>
      <use x="257.080078" xlink:href="#DejaVuSans-20"/>
      <use x="288.867188" xlink:href="#DejaVuSans-7a"/>
     </g>
    </g>
   </g>
   <g id="line2d_101">
    <path clip-path="url(#pdd19cfb258)" d="M 73.832727 65.314177 
L 74.523492 68.253766 
L 75.214926 78.584473 
L 77.283397 90.799048 
L 77.974161 81.958369 
L 78.664925 75.823642 
L 79.355563 72.724511 
L 80.737091 78.762411 
L 81.427856 83.944329 
L 82.121046 76.569099 
L 82.81181 75.382794 
L 83.502574 79.349358 
L 84.193339 74.809463 
L 84.885317 86.152085 
L 85.576087 87.525862 
L 86.957609 80.904734 
L 87.645678 93.717337 
L 88.336449 99.743249 
L 89.027213 87.135268 
L 89.717977 85.784136 
M 91.097413 108.632896 
L 91.788177 128.218529 
L 92.478941 159.726577 
M 93.85931 142.776416 
L 94.550073 177.599949 
L 95.240837 175.301242 
M 97.313745 88.418824 
L 98.004515 62.59245 
L 98.69634 58.371785 
L 99.387113 56.095229 
M 103.530388 153.399054 
L 104.221159 247.723701 
L 104.91077 273.492889 
M 109.747719 154.290577 
L 110.439147 102.0756 
M 113.201961 223.905624 
L 113.892725 214.160641 
L 114.583489 214.081576 
L 115.274253 253.122284 
L 115.964375 253.213901 
L 116.65514 240.741985 
L 117.345904 240.559301 
L 118.036668 222.410963 
L 118.727419 244.176578 
L 119.418184 228.081841 
L 120.108955 194.394494 
L 121.492955 64.569863 
L 122.183719 94.961998 
L 122.874484 57.902723 
L 123.565263 79.269087 
L 124.256745 121.297162 
L 124.94715 140.421808 
L 126.328679 199.380807 
M 128.39776 243.414502 
L 129.088525 242.366972 
L 130.471135 133.939965 
M 131.85267 122.431473 
L 132.545623 87.293899 
M 133.927152 61.703967 
L 134.617916 79.603672 
L 135.997483 108.833887 
L 136.688248 156.785429 
M 139.449273 216.829069 
L 140.140037 204.105981 
L 140.830801 208.49639 
M 142.214761 162.872752 
L 142.905525 157.044875 
L 143.596289 161.427411 
L 144.286767 145.108667 
L 144.977531 176.716131 
L 145.668295 166.112393 
L 146.35906 188.171206 
M 150.502452 87.969941 
L 151.193216 130.582902 
M 152.575826 108.629136 
L 153.266591 117.952212 
L 153.957362 129.426614 
L 154.648118 160.45622 
M 157.408739 245.898084 
L 158.099666 295.488 
L 158.790424 236.310792 
L 159.481195 226.884254 
L 160.171959 231.193356 
M 162.247225 179.393039 
L 162.937989 184.555223 
M 164.317851 203.268556 
L 165.008615 218.706698 
M 168.461086 210.148548 
L 169.151851 170.987757 
M 172.607436 104.172821 
L 173.298795 131.430735 
M 178.823097 213.376631 
L 179.513862 190.621804 
L 180.204626 175.394366 
M 181.588771 160.64627 
L 182.279529 176.019555 
L 182.9703 184.014527 
M 194.710193 238.020326 
L 196.091715 177.25348 
L 196.78248 191.192631 
L 197.47528 158.902329 
L 198.166037 145.487271 
L 198.856808 119.19721 
L 200.238337 81.996692 
L 200.930058 114.815497 
L 201.620822 132.549009 
L 202.311586 180.801016 
L 203.002357 166.069331 
M 204.381644 208.099372 
L 205.072415 235.872066 
M 206.45412 198.537781 
L 207.835649 169.18406 
L 208.52642 121.774555 
L 209.219434 105.979316 
L 209.910833 156.234653 
L 210.600962 189.994039 
L 211.291726 207.63246 
L 211.981532 206.495443 
M 213.363061 237.0722 
L 214.053825 213.840087 
L 214.743692 225.100422 
L 215.434456 208.262796 
L 216.125229 83.256087 
M 221.654251 262.556112 
L 222.345016 215.869565 
L 223.036742 263.268602 
L 223.727506 260.138187 
L 224.41827 244.319818 
L 225.109035 237.941251 
L 225.799292 233.546626 
L 227.871591 163.569485 
L 228.562668 134.733406 
L 229.253439 152.098253 
L 229.944197 89.19776 
L 230.634968 105.375884 
L 231.326137 93.149987 
L 232.016901 89.429067 
L 232.707666 103.323378 
L 233.39843 113.001293 
L 234.089354 134.862194 
M 235.474132 169.173996 
L 236.164896 177.155908 
L 236.85566 177.509711 
L 237.548874 144.486116 
L 238.239644 155.659835 
L 238.930409 151.743224 
L 239.621173 156.628512 
M 241.685105 197.998569 
L 242.375876 178.359545 
L 243.757478 107.625186 
L 244.448243 105.513037 
L 245.139014 118.79607 
L 245.830465 87.615414 
L 247.211993 98.46536 
L 247.902757 96.595351 
L 248.594472 96.162604 
L 249.285244 103.264853 
L 249.976007 119.831623 
L 250.666771 120.07889 
M 252.739764 190.705859 
L 253.430537 226.085286 
M 256.188594 212.370305 
L 256.879617 194.003089 
L 257.570381 202.946814 
L 258.26116 159.2744 
L 258.95191 181.402306 
M 260.335263 167.719231 
L 261.026026 126.201215 
L 261.71679 104.168607 
L 262.407215 86.638599 
L 263.097979 83.358413 
L 263.788744 94.475554 
L 264.479508 102.665535 
M 315.59694 159.309946 
L 316.286879 140.767706 
M 330.107021 162.126611 
L 330.797792 133.606824 
L 331.488556 123.018995 
M 368.095087 223.597595 
L 368.785851 214.912108 
M 383.292963 141.296696 
L 383.983311 114.738844 
L 384.674075 123.418059 
M 391.579121 159.830834 
" style="fill:none;stroke:#ff0000;stroke-linecap:square;"/>
   </g>
   <g id="line2d_102">
    <path clip-path="url(#pdd19cfb258)" d="M 73.832727 67.344357 
L 74.523492 66.746999 
L 75.214926 78.043668 
L 76.592626 91.829426 
L 77.283397 92.750222 
L 77.974161 82.016614 
L 78.664925 75.232442 
L 79.355563 75.97408 
L 80.046327 71.576974 
L 80.737091 78.520806 
L 81.427856 84.050209 
L 82.121046 77.760627 
L 82.81181 75.571826 
L 83.502574 79.082679 
L 84.193339 75.984131 
L 84.885317 84.002872 
L 85.576087 87.173344 
L 86.266845 82.827317 
L 86.957609 79.66959 
L 87.645678 84.088986 
L 88.336449 93.015515 
L 89.027213 91.658282 
L 89.717977 84.582594 
M 91.097413 110.47001 
L 91.788177 128.769637 
L 92.478941 150.952982 
M 93.85931 166.640258 
L 94.550073 169.972945 
L 95.240837 170.546537 
M 97.313745 102.186625 
L 98.004515 74.272237 
L 98.69634 58.302148 
L 99.387113 53.568 
M 103.530388 209.147816 
L 104.91077 265.364985 
M 109.747719 159.542793 
L 110.439147 152.633659 
M 113.201961 205.655115 
L 114.583489 237.525106 
L 115.274253 246.305036 
L 115.964375 249.711944 
L 116.65514 251.416512 
L 117.345904 254.863436 
L 118.036668 252.645507 
L 118.727419 239.901478 
L 119.418184 212.602675 
L 120.108955 178.96987 
L 121.492955 102.271055 
L 122.183719 80.022651 
L 122.874484 68.847407 
L 123.565263 74.517323 
L 124.256745 99.039826 
L 126.328679 189.513039 
M 128.39776 241.776384 
L 129.088525 224.065294 
L 130.471135 168.638962 
M 131.85267 105.600185 
L 132.545623 84.752174 
M 133.927152 64.785528 
L 134.617916 71.277759 
L 135.306719 87.171021 
L 135.997483 112.299038 
L 136.688248 145.153095 
M 139.449273 207.285377 
L 140.140037 211.833144 
L 140.830801 206.361745 
M 142.214761 175.653192 
L 142.905525 157.075573 
L 143.596289 149.187006 
L 144.286767 150.168165 
L 144.977531 160.545756 
L 145.668295 176.475481 
L 146.35906 186.925805 
M 150.502452 148.196209 
L 151.193216 132.380704 
M 152.575826 110.414595 
L 153.266591 123.406785 
L 153.957362 142.961501 
L 154.648118 169.827843 
M 157.408739 237.632546 
L 158.099666 239.235398 
L 158.790424 242.713922 
L 159.481195 231.880908 
L 160.171959 218.119766 
M 162.247225 195.378294 
L 162.937989 188.205986 
M 164.317851 191.502338 
L 165.008615 197.424126 
M 168.461086 188.206896 
L 169.151851 180.217382 
M 172.607436 111.05429 
L 173.298795 135.353892 
M 178.823097 207.273745 
L 179.513862 192.289685 
L 180.204626 180.307897 
M 181.588771 166.204305 
L 182.279529 171.271624 
L 182.9703 186.060325 
M 194.710193 236.439999 
L 195.400951 223.980784 
L 196.091715 221.339137 
L 196.78248 208.245356 
L 197.47528 187.480018 
L 198.166037 163.325709 
L 199.547572 101.087217 
L 200.238337 88.111621 
L 200.930058 99.069574 
L 201.620822 122.749234 
L 203.002357 176.065808 
M 204.381644 212.308759 
L 205.072415 226.127157 
M 206.45412 212.515438 
L 207.144912 193.855164 
L 207.835649 167.337777 
L 208.52642 145.657528 
L 209.219434 138.610273 
L 209.910833 151.118684 
L 211.981532 222.534778 
M 213.363061 241.992588 
L 214.053825 242.92072 
L 214.743692 234.733913 
L 216.125229 201.953737 
M 221.654251 244.369272 
L 222.345016 254.736679 
L 223.036742 255.018154 
L 223.727506 250.902174 
L 224.41827 245.937198 
L 225.109035 239.23354 
L 225.799292 227.440756 
L 226.490056 210.469439 
L 229.944197 101.591966 
L 230.634968 94.168294 
L 231.326137 89.428507 
L 232.016901 93.729172 
L 232.707666 103.089852 
L 233.39843 115.805901 
L 234.089354 134.533166 
M 235.474132 154.7986 
L 236.164896 157.684622 
L 236.85566 162.905573 
L 237.548874 162.995082 
L 238.239644 155.570035 
L 238.930409 151.249594 
L 239.621173 157.852166 
M 241.685105 194.559827 
L 242.375876 179.864689 
L 243.757478 132.357494 
L 244.448243 111.196222 
L 245.139014 103.510816 
L 245.830465 102.240049 
L 246.521229 98.273847 
L 247.902757 96.099909 
L 248.594472 98.746439 
L 249.285244 103.668 
L 249.976007 112.958985 
L 250.666771 119.330655 
M 252.739764 170.277677 
L 253.430537 193.156374 
M 256.188594 209.763033 
L 256.879617 200.934896 
L 258.26116 204.892324 
L 258.95191 201.374944 
M 260.335263 170.553897 
L 261.026026 131.931335 
L 261.71679 100.330603 
L 262.407215 83.091526 
L 263.097979 81.360799 
L 263.788744 87.641616 
L 264.479508 105.076962 
M 315.59694 166.991411 
L 316.286879 146.247426 
M 330.107021 154.101255 
L 330.797792 145.062558 
L 331.488556 131.258565 
M 368.095087 229.736797 
L 368.785851 223.793489 
M 383.292963 129.342173 
L 383.983311 117.490717 
L 384.674075 120.215523 
M 391.579121 161.005447 
" style="fill:none;stroke:#0000ff;stroke-linecap:square;"/>
   </g>
   <g id="line2d_103">
    <path clip-path="url(#pdd19cfb258)" d="M 95.932216 155.056699 
L 96.622987 132.60187 
M 100.077877 58.586743 
L 100.768641 83.558374 
L 102.148859 152.43809 
L 102.839623 179.163651 
M 105.601534 276.851872 
L 106.292299 274.118968 
L 106.983069 264.162667 
L 107.67542 243.448879 
L 109.056955 178.651286 
M 111.129911 154.813255 
L 111.820676 164.702843 
L 112.51144 184.733775 
M 127.016225 220.687483 
L 127.706996 241.998477 
M 147.047377 186.060022 
L 147.738141 182.943973 
M 149.11967 174.13282 
L 149.811687 160.943643 
M 155.33644 198.310752 
L 156.027204 220.506763 
L 156.717968 233.138981 
M 160.865696 209.214803 
L 161.55646 202.194848 
M 165.69938 201.372759 
L 166.388793 200.28974 
L 167.079558 195.681844 
L 167.770322 194.37976 
M 169.843973 160.992654 
L 170.534753 135.734394 
L 171.225502 116.919029 
L 171.916266 103.890986 
M 176.750248 198.260107 
L 177.441019 202.001887 
L 178.132333 210.263424 
M 185.040221 227.415298 
L 185.730986 222.844541 
L 186.421381 213.419851 
M 187.80291 190.496419 
L 188.49368 175.128235 
L 191.259374 192.811207 
L 192.638151 229.008004 
L 193.328915 237.903733 
L 194.01968 241.223537 
M 216.815991 174.403888 
L 217.508636 148.825304 
L 218.199407 130.425738 
M 219.580936 151.659907 
L 220.272716 188.993866 
L 220.963487 219.763295 
M 240.303576 177.130207 
L 240.99434 191.053561 
M 251.358236 131.802496 
L 252.049 149.576676 
M 254.116301 212.723143 
L 254.807065 217.410529 
L 255.49783 216.898497 
M 265.168327 130.509093 
L 265.859098 155.516822 
L 266.549862 175.445316 
L 267.240627 188.591876 
L 267.931391 193.676674 
L 268.621706 196.224024 
L 269.31247 199.641292 
L 270.003241 202.244176 
L 270.694702 210.3528 
L 272.078052 219.081279 
L 272.768816 225.006427 
L 273.45958 228.643981 
L 274.151726 226.045078 
L 274.842491 215.141565 
L 275.533255 201.273087 
L 276.224019 191.161106 
L 276.914999 187.851032 
L 277.60577 183.357623 
L 278.296528 176.62584 
L 279.675411 168.911188 
M 281.056933 145.990273 
L 281.747704 137.463401 
L 282.439865 137.244516 
L 283.821394 167.278607 
L 284.512158 169.271857 
L 285.2016 165.543259 
L 285.892364 163.872777 
L 286.583128 162.502019 
L 287.273899 162.202784 
L 287.965319 162.971665 
L 288.656083 161.538692 
L 289.346848 160.406249 
L 290.037619 158.821906 
L 290.727619 161.808109 
L 291.418383 160.269707 
L 292.109147 149.656541 
L 292.799912 148.261674 
L 293.492838 163.299751 
L 294.183602 182.725794 
L 294.874897 206.907669 
L 295.565129 224.661882 
L 296.254046 230.777832 
L 296.94481 214.528091 
L 297.635575 188.651065 
L 298.326347 152.662259 
L 299.017111 135.29145 
L 299.711232 141.14612 
L 300.401996 160.370392 
L 301.09276 175.917039 
L 301.783525 185.122131 
L 302.472105 186.078081 
L 303.16287 176.537642 
L 303.853634 164.502214 
L 304.544398 162.046208 
L 305.236103 172.643961 
L 305.926867 178.624828 
L 306.617631 167.85025 
L 307.997679 116.96367 
L 308.688444 99.564373 
L 309.379215 103.978023 
L 311.453609 168.684454 
L 312.144373 176.228518 
L 312.835137 172.328042 
L 313.524639 169.757341 
L 314.215403 173.945011 
L 314.906175 175.584507 
M 316.977643 117.582688 
L 317.668408 99.543836 
L 318.359172 101.544049 
L 319.054195 119.97657 
L 319.74447 145.891733 
M 321.126005 195.966536 
L 321.813621 202.753468 
L 323.195149 201.080197 
L 323.885914 205.409011 
L 325.268928 226.311321 
M 326.650469 225.509005 
L 328.034952 167.623894 
M 332.179321 115.704411 
L 332.870085 105.90367 
L 333.56107 114.116687 
L 334.942599 151.454177 
L 335.633363 155.029113 
L 338.395455 106.151316 
L 339.086069 99.48873 
L 339.776834 99.953269 
L 340.467598 101.788444 
L 341.158369 104.78293 
L 341.847481 111.502657 
L 342.538237 121.465406 
L 343.229568 123.672269 
M 344.607811 117.746198 
L 345.98934 100.085455 
L 346.680104 93.678423 
L 347.370732 91.271205 
L 348.061496 103.843961 
L 348.752267 128.513875 
L 349.443031 148.074276 
L 350.133119 157.961949 
L 350.82389 163.584692 
L 351.514654 170.823204 
L 352.205412 168.937921 
L 352.896742 162.856499 
L 353.587498 150.241135 
L 354.278297 131.753652 
L 354.969035 127.252733 
L 355.66224 138.039696 
L 356.353004 159.332473 
L 357.734533 212.784155 
L 358.422891 222.711948 
L 359.113662 222.734182 
L 359.804426 227.953401 
L 361.186558 247.248245 
L 361.877322 252.564851 
L 362.568093 252.930695 
L 363.258857 246.217146 
L 363.949877 236.129797 
L 364.640546 232.374517 
L 365.331316 229.60987 
L 366.022081 230.050369 
L 366.712845 233.100917 
L 367.404322 232.905545 
M 369.476615 212.923014 
L 370.168351 208.637576 
L 370.859122 202.705059 
L 371.549886 200.205799 
L 372.240651 195.797607 
L 372.932395 184.823562 
L 373.623159 171.140755 
M 375.004694 161.756237 
L 375.696405 160.369363 
L 376.38717 161.743627 
L 377.077934 161.134159 
L 377.768698 160.929891 
L 379.839748 139.942721 
L 380.530512 143.569349 
L 381.220664 142.976569 
L 381.911435 142.899312 
L 382.602199 140.833786 
M 385.364839 129.397994 
L 386.055604 135.916652 
L 387.435732 140.446793 
L 388.126497 140.252429 
L 388.817261 143.308774 
L 390.197614 153.026524 
L 390.888363 157.922723 
M 392.269747 166.213631 
L 392.960511 174.395927 
L 394.34204 184.420732 
L 395.03298 185.513798 
L 395.723745 187.237993 
L 396.414509 185.91961 
L 397.105273 183.605631 
L 397.796044 179.472737 
L 398.487273 177.781748 
L 398.487273 177.781748 
" style="fill:none;stroke:#008000;stroke-linecap:square;"/>
   </g>
   <g id="patch_3">
    <path d="M 57.6 307.584 
L 57.6 41.472 
" style="fill:none;stroke:#000000;stroke-linecap:square;stroke-linejoin:miter;stroke-width:0.8;"/>
   </g>
   <g id="patch_4">
    <path d="M 414.72 307.584 
L 414.72 41.472 
" style="fill:none;stroke:#000000;stroke-linecap:square;stroke-linejoin:miter;stroke-width:0.8;"/>
   </g>
   <g id="patch_5">
    <path d="M 57.6 307.584 
L 414.72 307.584 
" style="fill:none;stroke:#000000;stroke-linecap:square;stroke-linejoin:miter;stroke-width:0.8;"/>
   </g>
   <g id="patch_6">
    <path d="M 57.6 41.472 
L 414.72 41.472 
" style="fill:none;stroke:#000000;stroke-linecap:square;stroke-linejoin:miter;stroke-width:0.8;"/>
   </g>
   <g id="text_13">
    <!-- Rel Gt Trans Z Plot -->
    <defs>
     <path d="M 44.390625 34.1875 
Q 47.5625 33.109375 50.5625 29.59375 
Q 53.5625 26.078125 56.59375 19.921875 
L 66.609375 0 
L 56 0 
L 46.6875 18.703125 
Q 43.0625 26.03125 39.671875 28.421875 
Q 36.28125 30.8125 30.421875 30.8125 
L 19.671875 30.8125 
L 19.671875 0 
L 9.8125 0 
L 9.8125 72.90625 
L 32.078125 72.90625 
Q 44.578125 72.90625 50.734375 67.671875 
Q 56.890625 62.453125 56.890625 51.90625 
Q 56.890625 45.015625 53.6875 40.46875 
Q 50.484375 35.9375 44.390625 34.1875 
z
M 19.671875 64.796875 
L 19.671875 38.921875 
L 32.078125 38.921875 
Q 39.203125 38.921875 42.84375 42.21875 
Q 46.484375 45.515625 46.484375 51.90625 
Q 46.484375 58.296875 42.84375 61.546875 
Q 39.203125 64.796875 32.078125 64.796875 
z
" id="DejaVuSans-52"/>
     <path d="M 9.421875 75.984375 
L 18.40625 75.984375 
L 18.40625 0 
L 9.421875 0 
z
" id="DejaVuSans-6c"/>
     <path d="M 59.515625 10.40625 
L 59.515625 29.984375 
L 43.40625 29.984375 
L 43.40625 38.09375 
L 69.28125 38.09375 
L 69.28125 6.78125 
Q 63.578125 2.734375 56.6875 0.65625 
Q 49.8125 -1.421875 42 -1.421875 
Q 24.90625 -1.421875 15.25 8.5625 
Q 5.609375 18.5625 5.609375 36.375 
Q 5.609375 54.25 15.25 64.234375 
Q 24.90625 74.21875 42 74.21875 
Q 49.125 74.21875 55.546875 72.453125 
Q 61.96875 70.703125 67.390625 67.28125 
L 67.390625 56.78125 
Q 61.921875 61.421875 55.765625 63.765625 
Q 49.609375 66.109375 42.828125 66.109375 
Q 29.4375 66.109375 22.71875 58.640625 
Q 16.015625 51.171875 16.015625 36.375 
Q 16.015625 21.625 22.71875 14.15625 
Q 29.4375 6.6875 42.828125 6.6875 
Q 48.046875 6.6875 52.140625 7.59375 
Q 56.25 8.5 59.515625 10.40625 
z
" id="DejaVuSans-47"/>
     <path d="M -0.296875 72.90625 
L 61.375 72.90625 
L 61.375 64.59375 
L 35.5 64.59375 
L 35.5 0 
L 25.59375 0 
L 25.59375 64.59375 
L -0.296875 64.59375 
z
" id="DejaVuSans-54"/>
     <path d="M 5.609375 72.90625 
L 62.890625 72.90625 
L 62.890625 65.375 
L 16.796875 8.296875 
L 64.015625 8.296875 
L 64.015625 0 
L 4.5 0 
L 4.5 7.515625 
L 50.59375 64.59375 
L 5.609375 64.59375 
z
" id="DejaVuSans-5a"/>
     <path d="M 19.671875 64.796875 
L 19.671875 37.40625 
L 32.078125 37.40625 
Q 38.96875 37.40625 42.71875 40.96875 
Q 46.484375 44.53125 46.484375 51.125 
Q 46.484375 57.671875 42.71875 61.234375 
Q 38.96875 64.796875 32.078125 64.796875 
z
M 9.8125 72.90625 
L 32.078125 72.90625 
Q 44.34375 72.90625 50.609375 67.359375 
Q 56.890625 61.8125 56.890625 51.125 
Q 56.890625 40.328125 50.609375 34.8125 
Q 44.34375 29.296875 32.078125 29.296875 
L 19.671875 29.296875 
L 19.671875 0 
L 9.8125 0 
z
" id="DejaVuSans-50"/>
     <path d="M 30.609375 48.390625 
Q 23.390625 48.390625 19.1875 42.75 
Q 14.984375 37.109375 14.984375 27.296875 
Q 14.984375 17.484375 19.15625 11.84375 
Q 23.34375 6.203125 30.609375 6.203125 
Q 37.796875 6.203125 41.984375 11.859375 
Q 46.1875 17.53125 46.1875 27.296875 
Q 46.1875 37.015625 41.984375 42.703125 
Q 37.796875 48.390625 30.609375 48.390625 
z
M 30.609375 56 
Q 42.328125 56 49.015625 48.375 
Q 55.71875 40.765625 55.71875 27.296875 
Q 55.71875 13.875 49.015625 6.21875 
Q 42.328125 -1.421875 30.609375 -1.421875 
Q 18.84375 -1.421875 12.171875 6.21875 
Q 5.515625 13.875 5.515625 27.296875 
Q 5.515625 40.765625 12.171875 48.375 
Q 18.84375 56 30.609375 56 
z
" id="DejaVuSans-6f"/>
    </defs>
    <g transform="translate(179.865938 35.472)scale(0.12 -0.12)">
     <use xlink:href="#DejaVuSans-52"/>
     <use x="69.419922" xlink:href="#DejaVuSans-65"/>
     <use x="130.943359" xlink:href="#DejaVuSans-6c"/>
     <use x="158.726562" xlink:href="#DejaVuSans-20"/>
     <use x="190.513672" xlink:href="#DejaVuSans-47"/>
     <use x="268.003906" xlink:href="#DejaVuSans-74"/>
     <use x="307.212891" xlink:href="#DejaVuSans-20"/>
     <use x="339" xlink:href="#DejaVuSans-54"/>
     <use x="399.865234" xlink:href="#DejaVuSans-72"/>
     <use x="440.978516" xlink:href="#DejaVuSans-61"/>
     <use x="502.257812" xlink:href="#DejaVuSans-6e"/>
     <use x="565.636719" xlink:href="#DejaVuSans-73"/>
     <use x="617.736328" xlink:href="#DejaVuSans-20"/>
     <use x="649.523438" xlink:href="#DejaVuSans-5a"/>
     <use x="718.029297" xlink:href="#DejaVuSans-20"/>
     <use x="749.816406" xlink:href="#DejaVuSans-50"/>
     <use x="810.119141" xlink:href="#DejaVuSans-6c"/>
     <use x="837.902344" xlink:href="#DejaVuSans-6f"/>
     <use x="899.083984" xlink:href="#DejaVuSans-74"/>
    </g>
   </g>
  </g>
 </g>
 <defs>
  <clipPath id="pdd19cfb258">
   <rect height="266.112" width="357.12" x="57.6" y="41.472"/>
  </clipPath>
 </defs>
</svg>
