<?xml version="1.0" encoding="utf-8" standalone="no"?>
<!DOCTYPE svg PUBLIC "-//W3C//DTD SVG 1.1//EN"
  "http://www.w3.org/Graphics/SVG/1.1/DTD/svg11.dtd">
<!-- Created with matplotlib (http://matplotlib.org/) -->
<svg height="345.6pt" version="1.1" viewBox="0 0 460.8 345.6" width="460.8pt" xmlns="http://www.w3.org/2000/svg" xmlns:xlink="http://www.w3.org/1999/xlink">
 <defs>
  <style type="text/css">
*{stroke-linecap:butt;stroke-linejoin:round;}
  </style>
 </defs>
 <g id="figure_1">
  <g id="patch_1">
   <path d="M 0 345.6 
L 460.8 345.6 
L 460.8 0 
L 0 0 
z
" style="fill:#ffffff;"/>
  </g>
  <g id="axes_1">
   <g id="patch_2">
    <path d="M 57.6 307.584 
L 414.72 307.584 
L 414.72 41.472 
L 57.6 41.472 
z
" style="fill:#ffffff;"/>
   </g>
   <g id="matplotlib.axis_1">
    <g id="xtick_1">
     <g id="line2d_1">
      <path clip-path="url(#p4c8defd58d)" d="M 70.907601 307.584 
L 70.907601 41.472 
" style="fill:none;stroke:#b0b0b0;stroke-linecap:square;stroke-width:0.8;"/>
     </g>
     <g id="line2d_2">
      <defs>
       <path d="M 0 0 
L 0 3.5 
" id="mc97e787e22" style="stroke:#000000;stroke-width:0.8;"/>
      </defs>
      <g>
       <use style="stroke:#000000;stroke-width:0.8;" x="70.907601" xlink:href="#mc97e787e22" y="307.584"/>
      </g>
     </g>
     <g id="text_1">
      <!-- 0 -->
      <defs>
       <path d="M 31.78125 66.40625 
Q 24.171875 66.40625 20.328125 58.90625 
Q 16.5 51.421875 16.5 36.375 
Q 16.5 21.390625 20.328125 13.890625 
Q 24.171875 6.390625 31.78125 6.390625 
Q 39.453125 6.390625 43.28125 13.890625 
Q 47.125 21.390625 47.125 36.375 
Q 47.125 51.421875 43.28125 58.90625 
Q 39.453125 66.40625 31.78125 66.40625 
z
M 31.78125 74.21875 
Q 44.046875 74.21875 50.515625 64.515625 
Q 56.984375 54.828125 56.984375 36.375 
Q 56.984375 17.96875 50.515625 8.265625 
Q 44.046875 -1.421875 31.78125 -1.421875 
Q 19.53125 -1.421875 13.0625 8.265625 
Q 6.59375 17.96875 6.59375 36.375 
Q 6.59375 54.828125 13.0625 64.515625 
Q 19.53125 74.21875 31.78125 74.21875 
z
" id="DejaVuSans-30"/>
      </defs>
      <g transform="translate(67.726351 322.182437)scale(0.1 -0.1)">
       <use xlink:href="#DejaVuSans-30"/>
      </g>
     </g>
    </g>
    <g id="xtick_2">
     <g id="line2d_3">
      <path clip-path="url(#p4c8defd58d)" d="M 139.981955 307.584 
L 139.981955 41.472 
" style="fill:none;stroke:#b0b0b0;stroke-linecap:square;stroke-width:0.8;"/>
     </g>
     <g id="line2d_4">
      <g>
       <use style="stroke:#000000;stroke-width:0.8;" x="139.981955" xlink:href="#mc97e787e22" y="307.584"/>
      </g>
     </g>
     <g id="text_2">
      <!-- 10 -->
      <defs>
       <path d="M 12.40625 8.296875 
L 28.515625 8.296875 
L 28.515625 63.921875 
L 10.984375 60.40625 
L 10.984375 69.390625 
L 28.421875 72.90625 
L 38.28125 72.90625 
L 38.28125 8.296875 
L 54.390625 8.296875 
L 54.390625 0 
L 12.40625 0 
z
" id="DejaVuSans-31"/>
      </defs>
      <g transform="translate(133.619455 322.182437)scale(0.1 -0.1)">
       <use xlink:href="#DejaVuSans-31"/>
       <use x="63.623047" xlink:href="#DejaVuSans-30"/>
      </g>
     </g>
    </g>
    <g id="xtick_3">
     <g id="line2d_5">
      <path clip-path="url(#p4c8defd58d)" d="M 209.056309 307.584 
L 209.056309 41.472 
" style="fill:none;stroke:#b0b0b0;stroke-linecap:square;stroke-width:0.8;"/>
     </g>
     <g id="line2d_6">
      <g>
       <use style="stroke:#000000;stroke-width:0.8;" x="209.056309" xlink:href="#mc97e787e22" y="307.584"/>
      </g>
     </g>
     <g id="text_3">
      <!-- 20 -->
      <defs>
       <path d="M 19.1875 8.296875 
L 53.609375 8.296875 
L 53.609375 0 
L 7.328125 0 
L 7.328125 8.296875 
Q 12.9375 14.109375 22.625 23.890625 
Q 32.328125 33.6875 34.8125 36.53125 
Q 39.546875 41.84375 41.421875 45.53125 
Q 43.3125 49.21875 43.3125 52.78125 
Q 43.3125 58.59375 39.234375 62.25 
Q 35.15625 65.921875 28.609375 65.921875 
Q 23.96875 65.921875 18.8125 64.3125 
Q 13.671875 62.703125 7.8125 59.421875 
L 7.8125 69.390625 
Q 13.765625 71.78125 18.9375 73 
Q 24.125 74.21875 28.421875 74.21875 
Q 39.75 74.21875 46.484375 68.546875 
Q 53.21875 62.890625 53.21875 53.421875 
Q 53.21875 48.921875 51.53125 44.890625 
Q 49.859375 40.875 45.40625 35.40625 
Q 44.1875 33.984375 37.640625 27.21875 
Q 31.109375 20.453125 19.1875 8.296875 
z
" id="DejaVuSans-32"/>
      </defs>
      <g transform="translate(202.693809 322.182437)scale(0.1 -0.1)">
       <use xlink:href="#DejaVuSans-32"/>
       <use x="63.623047" xlink:href="#DejaVuSans-30"/>
      </g>
     </g>
    </g>
    <g id="xtick_4">
     <g id="line2d_7">
      <path clip-path="url(#p4c8defd58d)" d="M 278.130663 307.584 
L 278.130663 41.472 
" style="fill:none;stroke:#b0b0b0;stroke-linecap:square;stroke-width:0.8;"/>
     </g>
     <g id="line2d_8">
      <g>
       <use style="stroke:#000000;stroke-width:0.8;" x="278.130663" xlink:href="#mc97e787e22" y="307.584"/>
      </g>
     </g>
     <g id="text_4">
      <!-- 30 -->
      <defs>
       <path d="M 40.578125 39.3125 
Q 47.65625 37.796875 51.625 33 
Q 55.609375 28.21875 55.609375 21.1875 
Q 55.609375 10.40625 48.1875 4.484375 
Q 40.765625 -1.421875 27.09375 -1.421875 
Q 22.515625 -1.421875 17.65625 -0.515625 
Q 12.796875 0.390625 7.625 2.203125 
L 7.625 11.71875 
Q 11.71875 9.328125 16.59375 8.109375 
Q 21.484375 6.890625 26.8125 6.890625 
Q 36.078125 6.890625 40.9375 10.546875 
Q 45.796875 14.203125 45.796875 21.1875 
Q 45.796875 27.640625 41.28125 31.265625 
Q 36.765625 34.90625 28.71875 34.90625 
L 20.21875 34.90625 
L 20.21875 43.015625 
L 29.109375 43.015625 
Q 36.375 43.015625 40.234375 45.921875 
Q 44.09375 48.828125 44.09375 54.296875 
Q 44.09375 59.90625 40.109375 62.90625 
Q 36.140625 65.921875 28.71875 65.921875 
Q 24.65625 65.921875 20.015625 65.03125 
Q 15.375 64.15625 9.8125 62.3125 
L 9.8125 71.09375 
Q 15.4375 72.65625 20.34375 73.4375 
Q 25.25 74.21875 29.59375 74.21875 
Q 40.828125 74.21875 47.359375 69.109375 
Q 53.90625 64.015625 53.90625 55.328125 
Q 53.90625 49.265625 50.4375 45.09375 
Q 46.96875 40.921875 40.578125 39.3125 
z
" id="DejaVuSans-33"/>
      </defs>
      <g transform="translate(271.768163 322.182437)scale(0.1 -0.1)">
       <use xlink:href="#DejaVuSans-33"/>
       <use x="63.623047" xlink:href="#DejaVuSans-30"/>
      </g>
     </g>
    </g>
    <g id="xtick_5">
     <g id="line2d_9">
      <path clip-path="url(#p4c8defd58d)" d="M 347.205016 307.584 
L 347.205016 41.472 
" style="fill:none;stroke:#b0b0b0;stroke-linecap:square;stroke-width:0.8;"/>
     </g>
     <g id="line2d_10">
      <g>
       <use style="stroke:#000000;stroke-width:0.8;" x="347.205016" xlink:href="#mc97e787e22" y="307.584"/>
      </g>
     </g>
     <g id="text_5">
      <!-- 40 -->
      <defs>
       <path d="M 37.796875 64.3125 
L 12.890625 25.390625 
L 37.796875 25.390625 
z
M 35.203125 72.90625 
L 47.609375 72.90625 
L 47.609375 25.390625 
L 58.015625 25.390625 
L 58.015625 17.1875 
L 47.609375 17.1875 
L 47.609375 0 
L 37.796875 0 
L 37.796875 17.1875 
L 4.890625 17.1875 
L 4.890625 26.703125 
z
" id="DejaVuSans-34"/>
      </defs>
      <g transform="translate(340.842516 322.182437)scale(0.1 -0.1)">
       <use xlink:href="#DejaVuSans-34"/>
       <use x="63.623047" xlink:href="#DejaVuSans-30"/>
      </g>
     </g>
    </g>
    <g id="xtick_6">
     <g id="line2d_11">
      <path clip-path="url(#p4c8defd58d)" d="M 84.722472 307.584 
L 84.722472 41.472 
" style="fill:none;stroke:#b0b0b0;stroke-linecap:square;stroke-width:0.8;"/>
     </g>
     <g id="line2d_12">
      <defs>
       <path d="M 0 0 
L 0 2 
" id="m8fee8a3430" style="stroke:#000000;stroke-width:0.6;"/>
      </defs>
      <g>
       <use style="stroke:#000000;stroke-width:0.6;" x="84.722472" xlink:href="#m8fee8a3430" y="307.584"/>
      </g>
     </g>
    </g>
    <g id="xtick_7">
     <g id="line2d_13">
      <path clip-path="url(#p4c8defd58d)" d="M 98.537342 307.584 
L 98.537342 41.472 
" style="fill:none;stroke:#b0b0b0;stroke-linecap:square;stroke-width:0.8;"/>
     </g>
     <g id="line2d_14">
      <g>
       <use style="stroke:#000000;stroke-width:0.6;" x="98.537342" xlink:href="#m8fee8a3430" y="307.584"/>
      </g>
     </g>
    </g>
    <g id="xtick_8">
     <g id="line2d_15">
      <path clip-path="url(#p4c8defd58d)" d="M 112.352213 307.584 
L 112.352213 41.472 
" style="fill:none;stroke:#b0b0b0;stroke-linecap:square;stroke-width:0.8;"/>
     </g>
     <g id="line2d_16">
      <g>
       <use style="stroke:#000000;stroke-width:0.6;" x="112.352213" xlink:href="#m8fee8a3430" y="307.584"/>
      </g>
     </g>
    </g>
    <g id="xtick_9">
     <g id="line2d_17">
      <path clip-path="url(#p4c8defd58d)" d="M 126.167084 307.584 
L 126.167084 41.472 
" style="fill:none;stroke:#b0b0b0;stroke-linecap:square;stroke-width:0.8;"/>
     </g>
     <g id="line2d_18">
      <g>
       <use style="stroke:#000000;stroke-width:0.6;" x="126.167084" xlink:href="#m8fee8a3430" y="307.584"/>
      </g>
     </g>
    </g>
    <g id="xtick_10">
     <g id="line2d_19">
      <path clip-path="url(#p4c8defd58d)" d="M 153.796826 307.584 
L 153.796826 41.472 
" style="fill:none;stroke:#b0b0b0;stroke-linecap:square;stroke-width:0.8;"/>
     </g>
     <g id="line2d_20">
      <g>
       <use style="stroke:#000000;stroke-width:0.6;" x="153.796826" xlink:href="#m8fee8a3430" y="307.584"/>
      </g>
     </g>
    </g>
    <g id="xtick_11">
     <g id="line2d_21">
      <path clip-path="url(#p4c8defd58d)" d="M 167.611696 307.584 
L 167.611696 41.472 
" style="fill:none;stroke:#b0b0b0;stroke-linecap:square;stroke-width:0.8;"/>
     </g>
     <g id="line2d_22">
      <g>
       <use style="stroke:#000000;stroke-width:0.6;" x="167.611696" xlink:href="#m8fee8a3430" y="307.584"/>
      </g>
     </g>
    </g>
    <g id="xtick_12">
     <g id="line2d_23">
      <path clip-path="url(#p4c8defd58d)" d="M 181.426567 307.584 
L 181.426567 41.472 
" style="fill:none;stroke:#b0b0b0;stroke-linecap:square;stroke-width:0.8;"/>
     </g>
     <g id="line2d_24">
      <g>
       <use style="stroke:#000000;stroke-width:0.6;" x="181.426567" xlink:href="#m8fee8a3430" y="307.584"/>
      </g>
     </g>
    </g>
    <g id="xtick_13">
     <g id="line2d_25">
      <path clip-path="url(#p4c8defd58d)" d="M 195.241438 307.584 
L 195.241438 41.472 
" style="fill:none;stroke:#b0b0b0;stroke-linecap:square;stroke-width:0.8;"/>
     </g>
     <g id="line2d_26">
      <g>
       <use style="stroke:#000000;stroke-width:0.6;" x="195.241438" xlink:href="#m8fee8a3430" y="307.584"/>
      </g>
     </g>
    </g>
    <g id="xtick_14">
     <g id="line2d_27">
      <path clip-path="url(#p4c8defd58d)" d="M 222.871179 307.584 
L 222.871179 41.472 
" style="fill:none;stroke:#b0b0b0;stroke-linecap:square;stroke-width:0.8;"/>
     </g>
     <g id="line2d_28">
      <g>
       <use style="stroke:#000000;stroke-width:0.6;" x="222.871179" xlink:href="#m8fee8a3430" y="307.584"/>
      </g>
     </g>
    </g>
    <g id="xtick_15">
     <g id="line2d_29">
      <path clip-path="url(#p4c8defd58d)" d="M 236.68605 307.584 
L 236.68605 41.472 
" style="fill:none;stroke:#b0b0b0;stroke-linecap:square;stroke-width:0.8;"/>
     </g>
     <g id="line2d_30">
      <g>
       <use style="stroke:#000000;stroke-width:0.6;" x="236.68605" xlink:href="#m8fee8a3430" y="307.584"/>
      </g>
     </g>
    </g>
    <g id="xtick_16">
     <g id="line2d_31">
      <path clip-path="url(#p4c8defd58d)" d="M 250.500921 307.584 
L 250.500921 41.472 
" style="fill:none;stroke:#b0b0b0;stroke-linecap:square;stroke-width:0.8;"/>
     </g>
     <g id="line2d_32">
      <g>
       <use style="stroke:#000000;stroke-width:0.6;" x="250.500921" xlink:href="#m8fee8a3430" y="307.584"/>
      </g>
     </g>
    </g>
    <g id="xtick_17">
     <g id="line2d_33">
      <path clip-path="url(#p4c8defd58d)" d="M 264.315792 307.584 
L 264.315792 41.472 
" style="fill:none;stroke:#b0b0b0;stroke-linecap:square;stroke-width:0.8;"/>
     </g>
     <g id="line2d_34">
      <g>
       <use style="stroke:#000000;stroke-width:0.6;" x="264.315792" xlink:href="#m8fee8a3430" y="307.584"/>
      </g>
     </g>
    </g>
    <g id="xtick_18">
     <g id="line2d_35">
      <path clip-path="url(#p4c8defd58d)" d="M 291.945533 307.584 
L 291.945533 41.472 
" style="fill:none;stroke:#b0b0b0;stroke-linecap:square;stroke-width:0.8;"/>
     </g>
     <g id="line2d_36">
      <g>
       <use style="stroke:#000000;stroke-width:0.6;" x="291.945533" xlink:href="#m8fee8a3430" y="307.584"/>
      </g>
     </g>
    </g>
    <g id="xtick_19">
     <g id="line2d_37">
      <path clip-path="url(#p4c8defd58d)" d="M 305.760404 307.584 
L 305.760404 41.472 
" style="fill:none;stroke:#b0b0b0;stroke-linecap:square;stroke-width:0.8;"/>
     </g>
     <g id="line2d_38">
      <g>
       <use style="stroke:#000000;stroke-width:0.6;" x="305.760404" xlink:href="#m8fee8a3430" y="307.584"/>
      </g>
     </g>
    </g>
    <g id="xtick_20">
     <g id="line2d_39">
      <path clip-path="url(#p4c8defd58d)" d="M 319.575275 307.584 
L 319.575275 41.472 
" style="fill:none;stroke:#b0b0b0;stroke-linecap:square;stroke-width:0.8;"/>
     </g>
     <g id="line2d_40">
      <g>
       <use style="stroke:#000000;stroke-width:0.6;" x="319.575275" xlink:href="#m8fee8a3430" y="307.584"/>
      </g>
     </g>
    </g>
    <g id="xtick_21">
     <g id="line2d_41">
      <path clip-path="url(#p4c8defd58d)" d="M 333.390146 307.584 
L 333.390146 41.472 
" style="fill:none;stroke:#b0b0b0;stroke-linecap:square;stroke-width:0.8;"/>
     </g>
     <g id="line2d_42">
      <g>
       <use style="stroke:#000000;stroke-width:0.6;" x="333.390146" xlink:href="#m8fee8a3430" y="307.584"/>
      </g>
     </g>
    </g>
    <g id="xtick_22">
     <g id="line2d_43">
      <path clip-path="url(#p4c8defd58d)" d="M 361.019887 307.584 
L 361.019887 41.472 
" style="fill:none;stroke:#b0b0b0;stroke-linecap:square;stroke-width:0.8;"/>
     </g>
     <g id="line2d_44">
      <g>
       <use style="stroke:#000000;stroke-width:0.6;" x="361.019887" xlink:href="#m8fee8a3430" y="307.584"/>
      </g>
     </g>
    </g>
    <g id="xtick_23">
     <g id="line2d_45">
      <path clip-path="url(#p4c8defd58d)" d="M 374.834758 307.584 
L 374.834758 41.472 
" style="fill:none;stroke:#b0b0b0;stroke-linecap:square;stroke-width:0.8;"/>
     </g>
     <g id="line2d_46">
      <g>
       <use style="stroke:#000000;stroke-width:0.6;" x="374.834758" xlink:href="#m8fee8a3430" y="307.584"/>
      </g>
     </g>
    </g>
    <g id="xtick_24">
     <g id="line2d_47">
      <path clip-path="url(#p4c8defd58d)" d="M 388.649629 307.584 
L 388.649629 41.472 
" style="fill:none;stroke:#b0b0b0;stroke-linecap:square;stroke-width:0.8;"/>
     </g>
     <g id="line2d_48">
      <g>
       <use style="stroke:#000000;stroke-width:0.6;" x="388.649629" xlink:href="#m8fee8a3430" y="307.584"/>
      </g>
     </g>
    </g>
    <g id="xtick_25">
     <g id="line2d_49">
      <path clip-path="url(#p4c8defd58d)" d="M 402.4645 307.584 
L 402.4645 41.472 
" style="fill:none;stroke:#b0b0b0;stroke-linecap:square;stroke-width:0.8;"/>
     </g>
     <g id="line2d_50">
      <g>
       <use style="stroke:#000000;stroke-width:0.6;" x="402.4645" xlink:href="#m8fee8a3430" y="307.584"/>
      </g>
     </g>
    </g>
    <g id="text_6">
     <!-- frame # [] -->
     <defs>
      <path d="M 37.109375 75.984375 
L 37.109375 68.5 
L 28.515625 68.5 
Q 23.6875 68.5 21.796875 66.546875 
Q 19.921875 64.59375 19.921875 59.515625 
L 19.921875 54.6875 
L 34.71875 54.6875 
L 34.71875 47.703125 
L 19.921875 47.703125 
L 19.921875 0 
L 10.890625 0 
L 10.890625 47.703125 
L 2.296875 47.703125 
L 2.296875 54.6875 
L 10.890625 54.6875 
L 10.890625 58.5 
Q 10.890625 67.625 15.140625 71.796875 
Q 19.390625 75.984375 28.609375 75.984375 
z
" id="DejaVuSans-66"/>
      <path d="M 41.109375 46.296875 
Q 39.59375 47.171875 37.8125 47.578125 
Q 36.03125 48 33.890625 48 
Q 26.265625 48 22.1875 43.046875 
Q 18.109375 38.09375 18.109375 28.8125 
L 18.109375 0 
L 9.078125 0 
L 9.078125 54.6875 
L 18.109375 54.6875 
L 18.109375 46.1875 
Q 20.953125 51.171875 25.484375 53.578125 
Q 30.03125 56 36.53125 56 
Q 37.453125 56 38.578125 55.875 
Q 39.703125 55.765625 41.0625 55.515625 
z
" id="DejaVuSans-72"/>
      <path d="M 34.28125 27.484375 
Q 23.390625 27.484375 19.1875 25 
Q 14.984375 22.515625 14.984375 16.5 
Q 14.984375 11.71875 18.140625 8.90625 
Q 21.296875 6.109375 26.703125 6.109375 
Q 34.1875 6.109375 38.703125 11.40625 
Q 43.21875 16.703125 43.21875 25.484375 
L 43.21875 27.484375 
z
M 52.203125 31.203125 
L 52.203125 0 
L 43.21875 0 
L 43.21875 8.296875 
Q 40.140625 3.328125 35.546875 0.953125 
Q 30.953125 -1.421875 24.3125 -1.421875 
Q 15.921875 -1.421875 10.953125 3.296875 
Q 6 8.015625 6 15.921875 
Q 6 25.140625 12.171875 29.828125 
Q 18.359375 34.515625 30.609375 34.515625 
L 43.21875 34.515625 
L 43.21875 35.40625 
Q 43.21875 41.609375 39.140625 45 
Q 35.0625 48.390625 27.6875 48.390625 
Q 23 48.390625 18.546875 47.265625 
Q 14.109375 46.140625 10.015625 43.890625 
L 10.015625 52.203125 
Q 14.9375 54.109375 19.578125 55.046875 
Q 24.21875 56 28.609375 56 
Q 40.484375 56 46.34375 49.84375 
Q 52.203125 43.703125 52.203125 31.203125 
z
" id="DejaVuSans-61"/>
      <path d="M 52 44.1875 
Q 55.375 50.25 60.0625 53.125 
Q 64.75 56 71.09375 56 
Q 79.640625 56 84.28125 50.015625 
Q 88.921875 44.046875 88.921875 33.015625 
L 88.921875 0 
L 79.890625 0 
L 79.890625 32.71875 
Q 79.890625 40.578125 77.09375 44.375 
Q 74.3125 48.1875 68.609375 48.1875 
Q 61.625 48.1875 57.5625 43.546875 
Q 53.515625 38.921875 53.515625 30.90625 
L 53.515625 0 
L 44.484375 0 
L 44.484375 32.71875 
Q 44.484375 40.625 41.703125 44.40625 
Q 38.921875 48.1875 33.109375 48.1875 
Q 26.21875 48.1875 22.15625 43.53125 
Q 18.109375 38.875 18.109375 30.90625 
L 18.109375 0 
L 9.078125 0 
L 9.078125 54.6875 
L 18.109375 54.6875 
L 18.109375 46.1875 
Q 21.1875 51.21875 25.484375 53.609375 
Q 29.78125 56 35.6875 56 
Q 41.65625 56 45.828125 52.96875 
Q 50 49.953125 52 44.1875 
z
" id="DejaVuSans-6d"/>
      <path d="M 56.203125 29.59375 
L 56.203125 25.203125 
L 14.890625 25.203125 
Q 15.484375 15.921875 20.484375 11.0625 
Q 25.484375 6.203125 34.421875 6.203125 
Q 39.59375 6.203125 44.453125 7.46875 
Q 49.3125 8.734375 54.109375 11.28125 
L 54.109375 2.78125 
Q 49.265625 0.734375 44.1875 -0.34375 
Q 39.109375 -1.421875 33.890625 -1.421875 
Q 20.796875 -1.421875 13.15625 6.1875 
Q 5.515625 13.8125 5.515625 26.8125 
Q 5.515625 40.234375 12.765625 48.109375 
Q 20.015625 56 32.328125 56 
Q 43.359375 56 49.78125 48.890625 
Q 56.203125 41.796875 56.203125 29.59375 
z
M 47.21875 32.234375 
Q 47.125 39.59375 43.09375 43.984375 
Q 39.0625 48.390625 32.421875 48.390625 
Q 24.90625 48.390625 20.390625 44.140625 
Q 15.875 39.890625 15.1875 32.171875 
z
" id="DejaVuSans-65"/>
      <path id="DejaVuSans-20"/>
      <path d="M 51.125 44 
L 36.921875 44 
L 32.8125 27.6875 
L 47.125 27.6875 
z
M 43.796875 71.78125 
L 38.71875 51.515625 
L 52.984375 51.515625 
L 58.109375 71.78125 
L 65.921875 71.78125 
L 60.890625 51.515625 
L 76.125 51.515625 
L 76.125 44 
L 58.984375 44 
L 54.984375 27.6875 
L 70.515625 27.6875 
L 70.515625 20.21875 
L 53.078125 20.21875 
L 48 0 
L 40.1875 0 
L 45.21875 20.21875 
L 30.90625 20.21875 
L 25.875 0 
L 18.015625 0 
L 23.09375 20.21875 
L 7.71875 20.21875 
L 7.71875 27.6875 
L 24.90625 27.6875 
L 29 44 
L 13.28125 44 
L 13.28125 51.515625 
L 30.90625 51.515625 
L 35.890625 71.78125 
z
" id="DejaVuSans-23"/>
      <path d="M 8.59375 75.984375 
L 29.296875 75.984375 
L 29.296875 69 
L 17.578125 69 
L 17.578125 -6.203125 
L 29.296875 -6.203125 
L 29.296875 -13.1875 
L 8.59375 -13.1875 
z
" id="DejaVuSans-5b"/>
      <path d="M 30.421875 75.984375 
L 30.421875 -13.1875 
L 9.71875 -13.1875 
L 9.71875 -6.203125 
L 21.390625 -6.203125 
L 21.390625 69 
L 9.71875 69 
L 9.71875 75.984375 
z
" id="DejaVuSans-5d"/>
     </defs>
     <g transform="translate(210.063906 335.860562)scale(0.1 -0.1)">
      <use xlink:href="#DejaVuSans-66"/>
      <use x="35.205078" xlink:href="#DejaVuSans-72"/>
      <use x="76.318359" xlink:href="#DejaVuSans-61"/>
      <use x="137.597656" xlink:href="#DejaVuSans-6d"/>
      <use x="235.009766" xlink:href="#DejaVuSans-65"/>
      <use x="296.533203" xlink:href="#DejaVuSans-20"/>
      <use x="328.320312" xlink:href="#DejaVuSans-23"/>
      <use x="412.109375" xlink:href="#DejaVuSans-20"/>
      <use x="443.896484" xlink:href="#DejaVuSans-5b"/>
      <use x="482.910156" xlink:href="#DejaVuSans-5d"/>
     </g>
    </g>
   </g>
   <g id="matplotlib.axis_2">
    <g id="ytick_1">
     <g id="line2d_51">
      <path clip-path="url(#p4c8defd58d)" d="M 57.6 276.037658 
L 414.72 276.037658 
" style="fill:none;stroke:#b0b0b0;stroke-linecap:square;stroke-width:0.8;"/>
     </g>
     <g id="line2d_52">
      <defs>
       <path d="M 0 0 
L -3.5 0 
" id="medfe74c7a4" style="stroke:#000000;stroke-width:0.8;"/>
      </defs>
      <g>
       <use style="stroke:#000000;stroke-width:0.8;" x="57.6" xlink:href="#medfe74c7a4" y="276.037658"/>
      </g>
     </g>
     <g id="text_7">
      <!-- −0.3 -->
      <defs>
       <path d="M 10.59375 35.5 
L 73.1875 35.5 
L 73.1875 27.203125 
L 10.59375 27.203125 
z
" id="DejaVuSans-2212"/>
       <path d="M 10.6875 12.40625 
L 21 12.40625 
L 21 0 
L 10.6875 0 
z
" id="DejaVuSans-2e"/>
      </defs>
      <g transform="translate(26.317187 279.836877)scale(0.1 -0.1)">
       <use xlink:href="#DejaVuSans-2212"/>
       <use x="83.789062" xlink:href="#DejaVuSans-30"/>
       <use x="147.412109" xlink:href="#DejaVuSans-2e"/>
       <use x="179.199219" xlink:href="#DejaVuSans-33"/>
      </g>
     </g>
    </g>
    <g id="ytick_2">
     <g id="line2d_53">
      <path clip-path="url(#p4c8defd58d)" d="M 57.6 240.955467 
L 414.72 240.955467 
" style="fill:none;stroke:#b0b0b0;stroke-linecap:square;stroke-width:0.8;"/>
     </g>
     <g id="line2d_54">
      <g>
       <use style="stroke:#000000;stroke-width:0.8;" x="57.6" xlink:href="#medfe74c7a4" y="240.955467"/>
      </g>
     </g>
     <g id="text_8">
      <!-- −0.2 -->
      <g transform="translate(26.317187 244.754686)scale(0.1 -0.1)">
       <use xlink:href="#DejaVuSans-2212"/>
       <use x="83.789062" xlink:href="#DejaVuSans-30"/>
       <use x="147.412109" xlink:href="#DejaVuSans-2e"/>
       <use x="179.199219" xlink:href="#DejaVuSans-32"/>
      </g>
     </g>
    </g>
    <g id="ytick_3">
     <g id="line2d_55">
      <path clip-path="url(#p4c8defd58d)" d="M 57.6 205.873276 
L 414.72 205.873276 
" style="fill:none;stroke:#b0b0b0;stroke-linecap:square;stroke-width:0.8;"/>
     </g>
     <g id="line2d_56">
      <g>
       <use style="stroke:#000000;stroke-width:0.8;" x="57.6" xlink:href="#medfe74c7a4" y="205.873276"/>
      </g>
     </g>
     <g id="text_9">
      <!-- −0.1 -->
      <g transform="translate(26.317187 209.672495)scale(0.1 -0.1)">
       <use xlink:href="#DejaVuSans-2212"/>
       <use x="83.789062" xlink:href="#DejaVuSans-30"/>
       <use x="147.412109" xlink:href="#DejaVuSans-2e"/>
       <use x="179.199219" xlink:href="#DejaVuSans-31"/>
      </g>
     </g>
    </g>
    <g id="ytick_4">
     <g id="line2d_57">
      <path clip-path="url(#p4c8defd58d)" d="M 57.6 170.791085 
L 414.72 170.791085 
" style="fill:none;stroke:#b0b0b0;stroke-linecap:square;stroke-width:0.8;"/>
     </g>
     <g id="line2d_58">
      <g>
       <use style="stroke:#000000;stroke-width:0.8;" x="57.6" xlink:href="#medfe74c7a4" y="170.791085"/>
      </g>
     </g>
     <g id="text_10">
      <!-- 0.0 -->
      <g transform="translate(34.696875 174.590304)scale(0.1 -0.1)">
       <use xlink:href="#DejaVuSans-30"/>
       <use x="63.623047" xlink:href="#DejaVuSans-2e"/>
       <use x="95.410156" xlink:href="#DejaVuSans-30"/>
      </g>
     </g>
    </g>
    <g id="ytick_5">
     <g id="line2d_59">
      <path clip-path="url(#p4c8defd58d)" d="M 57.6 135.708894 
L 414.72 135.708894 
" style="fill:none;stroke:#b0b0b0;stroke-linecap:square;stroke-width:0.8;"/>
     </g>
     <g id="line2d_60">
      <g>
       <use style="stroke:#000000;stroke-width:0.8;" x="57.6" xlink:href="#medfe74c7a4" y="135.708894"/>
      </g>
     </g>
     <g id="text_11">
      <!-- 0.1 -->
      <g transform="translate(34.696875 139.508113)scale(0.1 -0.1)">
       <use xlink:href="#DejaVuSans-30"/>
       <use x="63.623047" xlink:href="#DejaVuSans-2e"/>
       <use x="95.410156" xlink:href="#DejaVuSans-31"/>
      </g>
     </g>
    </g>
    <g id="ytick_6">
     <g id="line2d_61">
      <path clip-path="url(#p4c8defd58d)" d="M 57.6 100.626703 
L 414.72 100.626703 
" style="fill:none;stroke:#b0b0b0;stroke-linecap:square;stroke-width:0.8;"/>
     </g>
     <g id="line2d_62">
      <g>
       <use style="stroke:#000000;stroke-width:0.8;" x="57.6" xlink:href="#medfe74c7a4" y="100.626703"/>
      </g>
     </g>
     <g id="text_12">
      <!-- 0.2 -->
      <g transform="translate(34.696875 104.425922)scale(0.1 -0.1)">
       <use xlink:href="#DejaVuSans-30"/>
       <use x="63.623047" xlink:href="#DejaVuSans-2e"/>
       <use x="95.410156" xlink:href="#DejaVuSans-32"/>
      </g>
     </g>
    </g>
    <g id="ytick_7">
     <g id="line2d_63">
      <path clip-path="url(#p4c8defd58d)" d="M 57.6 65.544512 
L 414.72 65.544512 
" style="fill:none;stroke:#b0b0b0;stroke-linecap:square;stroke-width:0.8;"/>
     </g>
     <g id="line2d_64">
      <g>
       <use style="stroke:#000000;stroke-width:0.8;" x="57.6" xlink:href="#medfe74c7a4" y="65.544512"/>
      </g>
     </g>
     <g id="text_13">
      <!-- 0.3 -->
      <g transform="translate(34.696875 69.343731)scale(0.1 -0.1)">
       <use xlink:href="#DejaVuSans-30"/>
       <use x="63.623047" xlink:href="#DejaVuSans-2e"/>
       <use x="95.410156" xlink:href="#DejaVuSans-33"/>
      </g>
     </g>
    </g>
    <g id="ytick_8">
     <g id="line2d_65">
      <path clip-path="url(#p4c8defd58d)" d="M 57.6 304.103411 
L 414.72 304.103411 
" style="fill:none;stroke:#b0b0b0;stroke-linecap:square;stroke-width:0.8;"/>
     </g>
     <g id="line2d_66">
      <defs>
       <path d="M 0 0 
L -2 0 
" id="m918488081c" style="stroke:#000000;stroke-width:0.6;"/>
      </defs>
      <g>
       <use style="stroke:#000000;stroke-width:0.6;" x="57.6" xlink:href="#m918488081c" y="304.103411"/>
      </g>
     </g>
    </g>
    <g id="ytick_9">
     <g id="line2d_67">
      <path clip-path="url(#p4c8defd58d)" d="M 57.6 297.086973 
L 414.72 297.086973 
" style="fill:none;stroke:#b0b0b0;stroke-linecap:square;stroke-width:0.8;"/>
     </g>
     <g id="line2d_68">
      <g>
       <use style="stroke:#000000;stroke-width:0.6;" x="57.6" xlink:href="#m918488081c" y="297.086973"/>
      </g>
     </g>
    </g>
    <g id="ytick_10">
     <g id="line2d_69">
      <path clip-path="url(#p4c8defd58d)" d="M 57.6 290.070535 
L 414.72 290.070535 
" style="fill:none;stroke:#b0b0b0;stroke-linecap:square;stroke-width:0.8;"/>
     </g>
     <g id="line2d_70">
      <g>
       <use style="stroke:#000000;stroke-width:0.6;" x="57.6" xlink:href="#m918488081c" y="290.070535"/>
      </g>
     </g>
    </g>
    <g id="ytick_11">
     <g id="line2d_71">
      <path clip-path="url(#p4c8defd58d)" d="M 57.6 283.054097 
L 414.72 283.054097 
" style="fill:none;stroke:#b0b0b0;stroke-linecap:square;stroke-width:0.8;"/>
     </g>
     <g id="line2d_72">
      <g>
       <use style="stroke:#000000;stroke-width:0.6;" x="57.6" xlink:href="#m918488081c" y="283.054097"/>
      </g>
     </g>
    </g>
    <g id="ytick_12">
     <g id="line2d_73">
      <path clip-path="url(#p4c8defd58d)" d="M 57.6 269.02122 
L 414.72 269.02122 
" style="fill:none;stroke:#b0b0b0;stroke-linecap:square;stroke-width:0.8;"/>
     </g>
     <g id="line2d_74">
      <g>
       <use style="stroke:#000000;stroke-width:0.6;" x="57.6" xlink:href="#m918488081c" y="269.02122"/>
      </g>
     </g>
    </g>
    <g id="ytick_13">
     <g id="line2d_75">
      <path clip-path="url(#p4c8defd58d)" d="M 57.6 262.004782 
L 414.72 262.004782 
" style="fill:none;stroke:#b0b0b0;stroke-linecap:square;stroke-width:0.8;"/>
     </g>
     <g id="line2d_76">
      <g>
       <use style="stroke:#000000;stroke-width:0.6;" x="57.6" xlink:href="#m918488081c" y="262.004782"/>
      </g>
     </g>
    </g>
    <g id="ytick_14">
     <g id="line2d_77">
      <path clip-path="url(#p4c8defd58d)" d="M 57.6 254.988344 
L 414.72 254.988344 
" style="fill:none;stroke:#b0b0b0;stroke-linecap:square;stroke-width:0.8;"/>
     </g>
     <g id="line2d_78">
      <g>
       <use style="stroke:#000000;stroke-width:0.6;" x="57.6" xlink:href="#m918488081c" y="254.988344"/>
      </g>
     </g>
    </g>
    <g id="ytick_15">
     <g id="line2d_79">
      <path clip-path="url(#p4c8defd58d)" d="M 57.6 247.971906 
L 414.72 247.971906 
" style="fill:none;stroke:#b0b0b0;stroke-linecap:square;stroke-width:0.8;"/>
     </g>
     <g id="line2d_80">
      <g>
       <use style="stroke:#000000;stroke-width:0.6;" x="57.6" xlink:href="#m918488081c" y="247.971906"/>
      </g>
     </g>
    </g>
    <g id="ytick_16">
     <g id="line2d_81">
      <path clip-path="url(#p4c8defd58d)" d="M 57.6 233.939029 
L 414.72 233.939029 
" style="fill:none;stroke:#b0b0b0;stroke-linecap:square;stroke-width:0.8;"/>
     </g>
     <g id="line2d_82">
      <g>
       <use style="stroke:#000000;stroke-width:0.6;" x="57.6" xlink:href="#m918488081c" y="233.939029"/>
      </g>
     </g>
    </g>
    <g id="ytick_17">
     <g id="line2d_83">
      <path clip-path="url(#p4c8defd58d)" d="M 57.6 226.922591 
L 414.72 226.922591 
" style="fill:none;stroke:#b0b0b0;stroke-linecap:square;stroke-width:0.8;"/>
     </g>
     <g id="line2d_84">
      <g>
       <use style="stroke:#000000;stroke-width:0.6;" x="57.6" xlink:href="#m918488081c" y="226.922591"/>
      </g>
     </g>
    </g>
    <g id="ytick_18">
     <g id="line2d_85">
      <path clip-path="url(#p4c8defd58d)" d="M 57.6 219.906153 
L 414.72 219.906153 
" style="fill:none;stroke:#b0b0b0;stroke-linecap:square;stroke-width:0.8;"/>
     </g>
     <g id="line2d_86">
      <g>
       <use style="stroke:#000000;stroke-width:0.6;" x="57.6" xlink:href="#m918488081c" y="219.906153"/>
      </g>
     </g>
    </g>
    <g id="ytick_19">
     <g id="line2d_87">
      <path clip-path="url(#p4c8defd58d)" d="M 57.6 212.889715 
L 414.72 212.889715 
" style="fill:none;stroke:#b0b0b0;stroke-linecap:square;stroke-width:0.8;"/>
     </g>
     <g id="line2d_88">
      <g>
       <use style="stroke:#000000;stroke-width:0.6;" x="57.6" xlink:href="#m918488081c" y="212.889715"/>
      </g>
     </g>
    </g>
    <g id="ytick_20">
     <g id="line2d_89">
      <path clip-path="url(#p4c8defd58d)" d="M 57.6 198.856838 
L 414.72 198.856838 
" style="fill:none;stroke:#b0b0b0;stroke-linecap:square;stroke-width:0.8;"/>
     </g>
     <g id="line2d_90">
      <g>
       <use style="stroke:#000000;stroke-width:0.6;" x="57.6" xlink:href="#m918488081c" y="198.856838"/>
      </g>
     </g>
    </g>
    <g id="ytick_21">
     <g id="line2d_91">
      <path clip-path="url(#p4c8defd58d)" d="M 57.6 191.8404 
L 414.72 191.8404 
" style="fill:none;stroke:#b0b0b0;stroke-linecap:square;stroke-width:0.8;"/>
     </g>
     <g id="line2d_92">
      <g>
       <use style="stroke:#000000;stroke-width:0.6;" x="57.6" xlink:href="#m918488081c" y="191.8404"/>
      </g>
     </g>
    </g>
    <g id="ytick_22">
     <g id="line2d_93">
      <path clip-path="url(#p4c8defd58d)" d="M 57.6 184.823962 
L 414.72 184.823962 
" style="fill:none;stroke:#b0b0b0;stroke-linecap:square;stroke-width:0.8;"/>
     </g>
     <g id="line2d_94">
      <g>
       <use style="stroke:#000000;stroke-width:0.6;" x="57.6" xlink:href="#m918488081c" y="184.823962"/>
      </g>
     </g>
    </g>
    <g id="ytick_23">
     <g id="line2d_95">
      <path clip-path="url(#p4c8defd58d)" d="M 57.6 177.807524 
L 414.72 177.807524 
" style="fill:none;stroke:#b0b0b0;stroke-linecap:square;stroke-width:0.8;"/>
     </g>
     <g id="line2d_96">
      <g>
       <use style="stroke:#000000;stroke-width:0.6;" x="57.6" xlink:href="#m918488081c" y="177.807524"/>
      </g>
     </g>
    </g>
    <g id="ytick_24">
     <g id="line2d_97">
      <path clip-path="url(#p4c8defd58d)" d="M 57.6 163.774647 
L 414.72 163.774647 
" style="fill:none;stroke:#b0b0b0;stroke-linecap:square;stroke-width:0.8;"/>
     </g>
     <g id="line2d_98">
      <g>
       <use style="stroke:#000000;stroke-width:0.6;" x="57.6" xlink:href="#m918488081c" y="163.774647"/>
      </g>
     </g>
    </g>
    <g id="ytick_25">
     <g id="line2d_99">
      <path clip-path="url(#p4c8defd58d)" d="M 57.6 156.758209 
L 414.72 156.758209 
" style="fill:none;stroke:#b0b0b0;stroke-linecap:square;stroke-width:0.8;"/>
     </g>
     <g id="line2d_100">
      <g>
       <use style="stroke:#000000;stroke-width:0.6;" x="57.6" xlink:href="#m918488081c" y="156.758209"/>
      </g>
     </g>
    </g>
    <g id="ytick_26">
     <g id="line2d_101">
      <path clip-path="url(#p4c8defd58d)" d="M 57.6 149.741771 
L 414.72 149.741771 
" style="fill:none;stroke:#b0b0b0;stroke-linecap:square;stroke-width:0.8;"/>
     </g>
     <g id="line2d_102">
      <g>
       <use style="stroke:#000000;stroke-width:0.6;" x="57.6" xlink:href="#m918488081c" y="149.741771"/>
      </g>
     </g>
    </g>
    <g id="ytick_27">
     <g id="line2d_103">
      <path clip-path="url(#p4c8defd58d)" d="M 57.6 142.725333 
L 414.72 142.725333 
" style="fill:none;stroke:#b0b0b0;stroke-linecap:square;stroke-width:0.8;"/>
     </g>
     <g id="line2d_104">
      <g>
       <use style="stroke:#000000;stroke-width:0.6;" x="57.6" xlink:href="#m918488081c" y="142.725333"/>
      </g>
     </g>
    </g>
    <g id="ytick_28">
     <g id="line2d_105">
      <path clip-path="url(#p4c8defd58d)" d="M 57.6 128.692456 
L 414.72 128.692456 
" style="fill:none;stroke:#b0b0b0;stroke-linecap:square;stroke-width:0.8;"/>
     </g>
     <g id="line2d_106">
      <g>
       <use style="stroke:#000000;stroke-width:0.6;" x="57.6" xlink:href="#m918488081c" y="128.692456"/>
      </g>
     </g>
    </g>
    <g id="ytick_29">
     <g id="line2d_107">
      <path clip-path="url(#p4c8defd58d)" d="M 57.6 121.676018 
L 414.72 121.676018 
" style="fill:none;stroke:#b0b0b0;stroke-linecap:square;stroke-width:0.8;"/>
     </g>
     <g id="line2d_108">
      <g>
       <use style="stroke:#000000;stroke-width:0.6;" x="57.6" xlink:href="#m918488081c" y="121.676018"/>
      </g>
     </g>
    </g>
    <g id="ytick_30">
     <g id="line2d_109">
      <path clip-path="url(#p4c8defd58d)" d="M 57.6 114.65958 
L 414.72 114.65958 
" style="fill:none;stroke:#b0b0b0;stroke-linecap:square;stroke-width:0.8;"/>
     </g>
     <g id="line2d_110">
      <g>
       <use style="stroke:#000000;stroke-width:0.6;" x="57.6" xlink:href="#m918488081c" y="114.65958"/>
      </g>
     </g>
    </g>
    <g id="ytick_31">
     <g id="line2d_111">
      <path clip-path="url(#p4c8defd58d)" d="M 57.6 107.643142 
L 414.72 107.643142 
" style="fill:none;stroke:#b0b0b0;stroke-linecap:square;stroke-width:0.8;"/>
     </g>
     <g id="line2d_112">
      <g>
       <use style="stroke:#000000;stroke-width:0.6;" x="57.6" xlink:href="#m918488081c" y="107.643142"/>
      </g>
     </g>
    </g>
    <g id="ytick_32">
     <g id="line2d_113">
      <path clip-path="url(#p4c8defd58d)" d="M 57.6 93.610265 
L 414.72 93.610265 
" style="fill:none;stroke:#b0b0b0;stroke-linecap:square;stroke-width:0.8;"/>
     </g>
     <g id="line2d_114">
      <g>
       <use style="stroke:#000000;stroke-width:0.6;" x="57.6" xlink:href="#m918488081c" y="93.610265"/>
      </g>
     </g>
    </g>
    <g id="ytick_33">
     <g id="line2d_115">
      <path clip-path="url(#p4c8defd58d)" d="M 57.6 86.593827 
L 414.72 86.593827 
" style="fill:none;stroke:#b0b0b0;stroke-linecap:square;stroke-width:0.8;"/>
     </g>
     <g id="line2d_116">
      <g>
       <use style="stroke:#000000;stroke-width:0.6;" x="57.6" xlink:href="#m918488081c" y="86.593827"/>
      </g>
     </g>
    </g>
    <g id="ytick_34">
     <g id="line2d_117">
      <path clip-path="url(#p4c8defd58d)" d="M 57.6 79.577389 
L 414.72 79.577389 
" style="fill:none;stroke:#b0b0b0;stroke-linecap:square;stroke-width:0.8;"/>
     </g>
     <g id="line2d_118">
      <g>
       <use style="stroke:#000000;stroke-width:0.6;" x="57.6" xlink:href="#m918488081c" y="79.577389"/>
      </g>
     </g>
    </g>
    <g id="ytick_35">
     <g id="line2d_119">
      <path clip-path="url(#p4c8defd58d)" d="M 57.6 72.560951 
L 414.72 72.560951 
" style="fill:none;stroke:#b0b0b0;stroke-linecap:square;stroke-width:0.8;"/>
     </g>
     <g id="line2d_120">
      <g>
       <use style="stroke:#000000;stroke-width:0.6;" x="57.6" xlink:href="#m918488081c" y="72.560951"/>
      </g>
     </g>
    </g>
    <g id="ytick_36">
     <g id="line2d_121">
      <path clip-path="url(#p4c8defd58d)" d="M 57.6 58.528074 
L 414.72 58.528074 
" style="fill:none;stroke:#b0b0b0;stroke-linecap:square;stroke-width:0.8;"/>
     </g>
     <g id="line2d_122">
      <g>
       <use style="stroke:#000000;stroke-width:0.6;" x="57.6" xlink:href="#m918488081c" y="58.528074"/>
      </g>
     </g>
    </g>
    <g id="ytick_37">
     <g id="line2d_123">
      <path clip-path="url(#p4c8defd58d)" d="M 57.6 51.511636 
L 414.72 51.511636 
" style="fill:none;stroke:#b0b0b0;stroke-linecap:square;stroke-width:0.8;"/>
     </g>
     <g id="line2d_124">
      <g>
       <use style="stroke:#000000;stroke-width:0.6;" x="57.6" xlink:href="#m918488081c" y="51.511636"/>
      </g>
     </g>
    </g>
    <g id="ytick_38">
     <g id="line2d_125">
      <path clip-path="url(#p4c8defd58d)" d="M 57.6 44.495198 
L 414.72 44.495198 
" style="fill:none;stroke:#b0b0b0;stroke-linecap:square;stroke-width:0.8;"/>
     </g>
     <g id="line2d_126">
      <g>
       <use style="stroke:#000000;stroke-width:0.6;" x="57.6" xlink:href="#m918488081c" y="44.495198"/>
      </g>
     </g>
    </g>
    <g id="text_14">
     <!-- rot y -->
     <defs>
      <path d="M 30.609375 48.390625 
Q 23.390625 48.390625 19.1875 42.75 
Q 14.984375 37.109375 14.984375 27.296875 
Q 14.984375 17.484375 19.15625 11.84375 
Q 23.34375 6.203125 30.609375 6.203125 
Q 37.796875 6.203125 41.984375 11.859375 
Q 46.1875 17.53125 46.1875 27.296875 
Q 46.1875 37.015625 41.984375 42.703125 
Q 37.796875 48.390625 30.609375 48.390625 
z
M 30.609375 56 
Q 42.328125 56 49.015625 48.375 
Q 55.71875 40.765625 55.71875 27.296875 
Q 55.71875 13.875 49.015625 6.21875 
Q 42.328125 -1.421875 30.609375 -1.421875 
Q 18.84375 -1.421875 12.171875 6.21875 
Q 5.515625 13.875 5.515625 27.296875 
Q 5.515625 40.765625 12.171875 48.375 
Q 18.84375 56 30.609375 56 
z
" id="DejaVuSans-6f"/>
      <path d="M 18.3125 70.21875 
L 18.3125 54.6875 
L 36.8125 54.6875 
L 36.8125 47.703125 
L 18.3125 47.703125 
L 18.3125 18.015625 
Q 18.3125 11.328125 20.140625 9.421875 
Q 21.96875 7.515625 27.59375 7.515625 
L 36.8125 7.515625 
L 36.8125 0 
L 27.59375 0 
Q 17.1875 0 13.234375 3.875 
Q 9.28125 7.765625 9.28125 18.015625 
L 9.28125 47.703125 
L 2.6875 47.703125 
L 2.6875 54.6875 
L 9.28125 54.6875 
L 9.28125 70.21875 
z
" id="DejaVuSans-74"/>
      <path d="M 32.171875 -5.078125 
Q 28.375 -14.84375 24.75 -17.8125 
Q 21.140625 -20.796875 15.09375 -20.796875 
L 7.90625 -20.796875 
L 7.90625 -13.28125 
L 13.1875 -13.28125 
Q 16.890625 -13.28125 18.9375 -11.515625 
Q 21 -9.765625 23.484375 -3.21875 
L 25.09375 0.875 
L 2.984375 54.6875 
L 12.5 54.6875 
L 29.59375 11.921875 
L 46.6875 54.6875 
L 56.203125 54.6875 
z
" id="DejaVuSans-79"/>
     </defs>
     <g transform="translate(20.2375 186.149875)rotate(-90)scale(0.1 -0.1)">
      <use xlink:href="#DejaVuSans-72"/>
      <use x="41.082031" xlink:href="#DejaVuSans-6f"/>
      <use x="102.263672" xlink:href="#DejaVuSans-74"/>
      <use x="141.472656" xlink:href="#DejaVuSans-20"/>
      <use x="173.259766" xlink:href="#DejaVuSans-79"/>
     </g>
    </g>
   </g>
   <g id="line2d_127">
    <path clip-path="url(#p4c8defd58d)" d="M 73.832727 143.288191 
L 74.523492 149.615404 
L 75.214926 153.270153 
L 75.90502 160.189566 
L 76.592626 156.882693 
L 77.283397 160.853474 
L 78.664925 151.339255 
L 79.355563 153.242034 
L 80.046327 158.85125 
L 80.737091 153.814078 
L 81.427856 151.046669 
L 82.81181 165.814415 
L 83.502574 170.87831 
L 84.193339 175.078236 
L 84.885317 170.243617 
L 85.576087 168.057567 
L 86.266845 165.049005 
L 86.957609 160.614493 
L 87.645678 159.283578 
L 88.336449 162.102791 
L 89.027213 162.519617 
L 89.717977 169.100504 
M 91.097413 181.1613 
L 91.788177 177.358484 
L 92.478941 172.768105 
M 93.85931 155.861191 
L 95.240837 131.320343 
M 97.313745 160.015426 
L 98.004515 170.730814 
L 98.69634 192.567953 
L 99.387113 207.897263 
M 103.530388 176.789075 
L 104.221159 170.530586 
L 104.91077 153.566518 
M 109.747719 174.941341 
L 110.439147 178.654086 
M 113.201961 179.152782 
L 113.892725 176.690202 
L 114.583489 184.014378 
L 115.274253 187.467502 
L 115.964375 197.824892 
L 116.65514 210.310099 
L 117.345904 219.06599 
L 118.036668 216.495531 
L 118.727419 218.563866 
L 119.418184 219.122753 
L 120.108955 204.369999 
L 120.799719 185.319729 
L 121.492955 174.866676 
L 122.183719 155.56179 
L 122.874484 124.809822 
L 123.565263 125.068796 
L 124.256745 140.022304 
L 124.94715 148.290062 
L 125.637915 149.164454 
L 126.328679 177.964268 
M 128.39776 213.610455 
L 129.088525 223.498349 
L 129.780371 212.122678 
L 130.471135 209.364671 
M 131.85267 169.385031 
L 132.545623 154.879602 
M 133.927152 134.511556 
L 134.617916 133.612461 
L 135.306719 142.442986 
L 135.997483 154.061586 
L 136.688248 152.883974 
M 139.449273 185.204982 
L 140.140037 196.916971 
L 140.830801 211.159485 
M 142.214761 193.411884 
L 142.905525 176.229306 
L 143.596289 169.425093 
L 144.977531 146.147497 
L 146.35906 129.836777 
M 150.502452 131.737349 
L 151.193216 140.847683 
M 152.575826 167.313022 
L 153.266591 191.190074 
L 153.957362 204.386289 
L 154.648118 200.598782 
M 157.408739 205.300002 
L 158.099666 207.844746 
L 158.790424 209.021954 
L 159.481195 211.046651 
L 160.171959 219.638344 
M 162.247225 170.458878 
L 162.937989 152.972407 
M 164.317851 138.170326 
L 165.008615 132.647045 
M 168.461086 123.916457 
L 169.151851 121.384381 
M 172.607436 173.224513 
L 173.298795 189.578165 
M 178.823097 213.634236 
L 179.513862 203.706735 
L 180.204626 202.489425 
M 181.588771 176.798412 
L 182.279529 164.288796 
L 182.9703 147.730639 
M 194.710193 216.87274 
L 195.400951 208.459308 
L 196.091715 221.783738 
L 197.47528 228.78164 
L 198.166037 214.711444 
L 198.856808 178.091362 
L 199.547572 150.108689 
L 200.238337 131.122764 
L 200.930058 130.88125 
L 201.620822 125.393064 
L 202.311586 129.26065 
L 203.002357 137.533014 
M 204.381644 185.352913 
L 205.072415 215.17451 
M 206.45412 226.035111 
L 207.144912 228.227779 
L 207.835649 208.512903 
L 209.219434 148.874733 
L 209.910833 132.778984 
L 211.291726 123.920727 
L 211.981532 125.081998 
M 213.363061 125.626966 
L 214.053825 121.030046 
L 214.743692 118.309583 
L 215.434456 124.099233 
L 216.125229 133.548829 
M 221.654251 220.080521 
L 222.345016 221.603042 
L 223.036742 212.8643 
L 225.109035 164.401819 
L 225.799292 153.385191 
L 226.490056 139.483982 
L 227.180827 130.631332 
L 227.871591 134.324628 
L 228.562668 143.397073 
L 229.253439 140.468359 
L 229.944197 153.601668 
L 230.634968 157.328732 
L 231.326137 156.074388 
L 232.016901 165.238587 
L 233.39843 190.101067 
L 234.089354 190.532356 
M 235.474132 199.109407 
L 236.164896 195.604323 
L 237.548874 179.995904 
L 238.239644 173.609183 
L 238.930409 180.701051 
L 239.621173 184.658584 
M 241.685105 194.999656 
L 242.375876 203.908239 
L 243.757478 201.758085 
L 245.139014 192.158586 
L 245.830465 195.551353 
L 246.521229 180.367825 
L 247.211993 175.510246 
L 247.902757 168.93643 
L 248.594472 156.67102 
L 249.285244 142.408933 
L 249.976007 136.794141 
L 250.666771 127.560181 
M 252.739764 138.891085 
L 253.430537 147.491958 
M 256.188594 177.949517 
L 256.879617 177.079524 
L 257.570381 193.554697 
L 258.26116 204.832939 
L 258.95191 207.618274 
M 260.335263 212.201102 
L 261.026026 198.538746 
L 261.71679 179.262894 
L 262.407215 163.440848 
L 263.097979 150.9852 
L 263.788744 142.175046 
L 264.479508 144.394765 
M 315.59694 279.410948 
L 316.286879 272.040249 
M 330.107021 75.315384 
L 331.488556 87.233655 
M 368.095087 157.953362 
L 368.785851 153.832097 
M 383.292963 173.002796 
L 383.983311 166.130059 
L 384.674075 172.844455 
M 391.579121 170.651323 
" style="fill:none;stroke:#ff0000;stroke-linecap:square;"/>
   </g>
   <g id="line2d_128">
    <path clip-path="url(#p4c8defd58d)" d="M 73.832727 144.733148 
L 75.214926 153.066395 
L 75.90502 159.978555 
L 76.592626 162.977667 
L 77.283397 165.043083 
L 77.974161 148.244135 
L 78.664925 150.121804 
L 79.355563 152.891006 
L 80.046327 159.649813 
L 81.427856 151.020608 
L 83.502574 171.002548 
L 84.193339 175.47674 
L 85.576087 167.142254 
L 86.266845 165.740146 
L 86.957609 161.1717 
L 87.645678 158.535908 
L 88.336449 162.06745 
L 89.027213 162.736956 
L 89.717977 168.618428 
M 91.097413 182.037488 
L 91.788177 176.222807 
L 92.478941 173.057837 
M 93.85931 157.678434 
L 95.240837 132.702439 
M 97.313745 160.371259 
L 98.004515 169.683944 
L 98.69634 190.211536 
L 99.387113 206.820694 
M 103.530388 178.607165 
L 104.221159 170.269489 
L 104.91077 158.024915 
M 109.747719 170.247802 
L 110.439147 177.454791 
M 113.201961 175.200947 
L 113.892725 176.92032 
L 114.583489 184.921243 
L 115.274253 189.728672 
L 115.964375 196.405703 
L 116.65514 207.780898 
L 117.345904 221.824591 
L 118.727419 216.524181 
L 119.418184 218.707978 
L 120.108955 206.248849 
L 120.799719 187.345688 
L 121.492955 175.152779 
L 122.183719 157.669963 
L 122.874484 128.170706 
L 123.565263 123.918312 
L 124.94715 146.598968 
L 125.637915 147.730652 
L 126.328679 173.368353 
M 128.39776 215.021674 
L 129.088525 221.017948 
L 129.780371 212.898517 
L 130.471135 208.65823 
M 131.85267 170.197597 
L 132.545623 155.579052 
M 133.927152 135.550618 
L 134.617916 132.84853 
L 135.306719 142.13507 
L 135.997483 153.023383 
L 136.688248 152.106402 
M 139.449273 183.444811 
L 140.830801 210.503075 
M 142.214761 194.684823 
L 142.905525 178.485525 
L 143.596289 166.568637 
L 144.286767 160.013906 
L 144.977531 146.709851 
L 145.668295 137.57048 
L 146.35906 129.987687 
M 150.502452 134.281286 
L 151.193216 138.703708 
M 152.575826 166.37914 
L 153.266591 189.074633 
L 153.957362 200.719192 
L 154.648118 200.425742 
M 157.408739 203.246523 
L 158.099666 203.818621 
L 158.790424 211.188526 
L 159.481195 211.101107 
L 160.171959 217.632433 
M 162.247225 173.513249 
L 162.937989 154.250884 
M 164.317851 136.058437 
L 165.008615 132.536198 
M 168.461086 127.996706 
L 169.151851 119.57628 
M 172.607436 172.232115 
L 173.298795 190.29012 
M 178.823097 214.699144 
L 179.513862 203.353368 
L 180.204626 202.224886 
M 181.588771 179.481892 
L 182.279529 165.898995 
L 182.9703 149.172687 
M 194.710193 217.960906 
L 195.400951 208.736622 
L 196.091715 222.729543 
L 196.78248 228.331869 
L 197.47528 228.331674 
L 198.166037 219.587854 
L 198.856808 182.393147 
L 199.547572 152.778707 
L 200.238337 132.995389 
L 200.930058 126.616423 
L 201.620822 123.606051 
L 202.311586 127.666002 
L 203.002357 135.732615 
M 204.381644 182.040964 
L 205.072415 212.058017 
M 206.45412 226.507087 
L 207.144912 230.824453 
L 207.835649 211.592281 
L 209.219434 151.37237 
L 209.910833 134.032794 
L 211.291726 123.496463 
L 211.981532 125.934764 
M 213.363061 126.398742 
L 214.053825 123.379748 
L 214.743692 118.768468 
L 215.434456 122.114907 
L 216.125229 135.721451 
M 221.654251 217.739506 
L 222.345016 218.81567 
L 223.036742 213.444708 
L 223.727506 198.905751 
L 224.41827 178.572983 
L 226.490056 140.634654 
L 227.180827 132.5081 
L 227.871591 131.395011 
L 228.562668 142.084945 
L 229.253439 143.343835 
L 229.944197 149.426639 
L 230.634968 157.921927 
L 231.326137 155.413721 
L 232.016901 162.952901 
L 232.707666 178.582618 
L 233.39843 187.565007 
L 234.089354 190.617916 
M 235.474132 199.294629 
L 236.164896 197.662738 
L 237.548874 179.720713 
L 238.239644 173.890305 
L 238.930409 180.023945 
L 239.621173 183.389865 
M 241.685105 194.790422 
L 242.375876 204.055117 
L 243.066714 202.141005 
L 243.757478 202.980997 
L 244.448243 198.348426 
L 245.139014 191.468189 
L 245.830465 195.577145 
L 246.521229 182.200377 
L 247.902757 169.431637 
L 248.594472 159.156441 
L 249.285244 143.427902 
L 249.976007 136.582707 
L 250.666771 128.158457 
M 252.739764 138.975581 
L 253.430537 146.051762 
M 256.188594 178.310832 
L 256.879617 176.286147 
L 258.26116 203.837612 
L 258.95191 207.385752 
M 260.335263 214.214162 
L 261.026026 200.023236 
L 262.407215 165.88241 
L 263.788744 141.400434 
L 264.479508 145.315013 
M 315.59694 279.010226 
L 316.286879 273.478604 
M 330.107021 75.897036 
L 331.488556 88.032414 
M 368.095087 158.065043 
L 368.785851 154.229626 
M 383.292963 175.021083 
L 383.983311 166.981813 
L 384.674075 174.110668 
M 391.579121 170.22401 
" style="fill:none;stroke:#0000ff;stroke-linecap:square;"/>
   </g>
   <g id="line2d_129">
    <path clip-path="url(#p4c8defd58d)" d="M 95.932216 123.882848 
L 96.622987 138.672965 
M 100.077877 208.203304 
L 101.458095 201.107832 
L 102.148859 194.727322 
L 102.839623 186.927373 
M 105.601534 139.531867 
L 106.292299 134.760476 
L 106.983069 146.66496 
L 107.67542 144.08539 
L 108.366184 138.296111 
L 109.056955 151.998981 
M 111.129911 177.819579 
L 111.820676 175.78125 
L 112.51144 177.638027 
M 127.016225 197.569394 
L 127.706996 203.746526 
M 147.047377 135.768892 
L 147.738141 137.810171 
M 149.11967 133.620966 
L 149.811687 132.143879 
M 155.33644 201.509443 
L 156.027204 202.065706 
L 156.717968 204.051238 
M 160.865696 216.590193 
L 161.55646 196.509763 
M 165.69938 133.255947 
L 166.388793 140.024501 
L 167.079558 138.971962 
L 167.770322 134.651516 
M 169.843973 128.078037 
L 170.534753 141.961369 
L 171.225502 159.10737 
L 171.916266 166.314921 
M 176.750248 209.925766 
L 177.441019 210.305279 
L 178.132333 219.281754 
M 185.040221 124.113452 
L 185.730986 123.101155 
L 186.421381 119.935079 
M 187.80291 131.979995 
L 188.49368 142.082394 
L 191.259374 187.107952 
L 191.94738 188.131593 
L 192.638151 201.083254 
L 194.01968 217.168496 
M 216.815991 140.648379 
L 218.199407 154.820617 
M 219.580936 184.433449 
L 220.272716 198.280475 
L 220.963487 204.567806 
M 240.303576 186.355688 
L 240.99434 190.940366 
M 251.358236 128.59444 
L 252.049 133.611593 
M 254.116301 156.996006 
L 255.49783 181.173848 
M 265.168327 135.812463 
L 265.859098 128.434628 
L 266.549862 129.859874 
L 267.240627 131.905364 
L 267.931391 134.858034 
L 268.621706 135.897444 
L 269.31247 134.129322 
L 270.003241 153.84393 
L 270.694702 169.257425 
L 271.387287 171.61996 
L 272.078052 175.684649 
L 272.768816 182.844169 
L 273.45958 186.724059 
L 274.151726 183.96277 
L 275.533255 159.70156 
L 276.224019 152.283296 
L 276.914999 154.733022 
L 277.60577 138.271874 
L 278.296528 131.942139 
L 278.987299 133.333164 
L 279.675411 143.362185 
M 281.056933 159.937937 
L 281.747704 171.610144 
L 282.439865 189.690766 
L 283.130629 201.020956 
L 283.821394 198.614288 
L 284.512158 197.471571 
L 285.2016 187.190098 
L 285.892364 165.923737 
L 286.583128 154.049031 
L 287.273899 153.124972 
L 287.965319 145.540123 
L 288.656083 139.404596 
L 289.346848 147.802527 
L 290.037619 149.213717 
L 290.727619 153.242631 
L 291.418383 162.884848 
L 292.109147 165.97789 
L 292.799912 164.260077 
L 293.492838 175.651295 
L 294.183602 190.301774 
L 294.874897 202.568714 
L 295.565129 205.606235 
L 296.254046 227.941458 
L 296.94481 241.424781 
L 297.635575 243.222896 
L 299.017111 157.066498 
L 299.711232 122.152007 
L 300.401996 108.299448 
L 301.09276 85.035305 
L 301.783525 66.519874 
L 302.472105 70.549116 
L 303.16287 93.032244 
L 303.853634 132.693701 
L 305.926867 274.946565 
L 306.617631 295.488 
L 307.308396 281.892725 
L 307.997679 242.305231 
L 309.379215 109.456483 
L 310.069979 72.604209 
L 310.762845 54.107892 
L 311.453609 59.333204 
L 312.144373 88.922885 
L 312.835137 134.114783 
L 313.524639 170.364791 
L 314.906175 253.180818 
M 316.977643 248.894725 
L 317.668408 209.340284 
L 319.054195 108.107515 
L 319.74447 79.237257 
M 321.126005 66.263635 
L 321.813621 80.286924 
L 322.504385 81.663181 
L 323.195149 106.729561 
L 324.578163 176.453567 
L 325.268928 205.137413 
M 326.650469 250.454636 
L 327.344188 243.55479 
L 328.034952 201.633795 
M 332.179321 113.860513 
L 332.870085 160.725865 
L 333.56107 191.921322 
L 334.251834 214.400682 
L 334.942599 250.738682 
L 335.633363 273.27863 
L 336.323154 254.94016 
L 337.013926 209.642943 
L 338.395455 98.113491 
L 339.086069 68.390302 
L 339.776834 78.17774 
L 340.467598 105.280218 
L 341.847481 185.380731 
L 343.229568 251.629737 
M 344.607811 276.350852 
L 345.298576 245.943883 
L 346.680104 151.964255 
L 347.370732 101.692228 
L 348.061496 73.043532 
L 348.752267 85.087715 
L 349.443031 120.227558 
L 350.82389 202.706593 
L 351.514654 228.577639 
L 352.896742 257.986245 
L 353.587498 248.432351 
L 355.66224 128.435155 
L 356.353004 109.548914 
L 357.043769 108.643469 
L 357.734533 131.128488 
L 358.422891 146.554436 
L 359.113662 154.531741 
L 359.804426 161.12217 
L 360.495191 162.426197 
L 361.877322 180.0315 
L 362.568093 187.782952 
L 363.258857 189.573264 
L 365.331316 148.376006 
L 366.022081 141.95432 
L 366.712845 148.683679 
L 367.404322 159.079151 
M 369.476615 148.628216 
L 370.168351 161.379222 
L 370.859122 179.064702 
L 371.549886 190.957523 
L 372.932395 183.331539 
L 373.623159 175.363416 
M 375.004694 155.242285 
L 375.696405 144.331198 
L 376.38717 137.500042 
L 377.768698 155.001955 
L 379.839748 165.18523 
L 380.530512 191.358668 
L 381.220664 185.443411 
L 381.911435 189.841545 
L 382.602199 192.676224 
M 385.364839 167.303924 
L 386.055604 158.548695 
L 386.744968 153.006259 
L 387.435732 164.521938 
L 388.126497 166.966689 
L 389.506835 185.717932 
L 390.197614 181.341722 
L 390.888363 170.890275 
M 392.269747 168.368454 
L 392.960511 163.187156 
L 393.651275 160.658264 
L 394.34204 164.901055 
L 395.03298 163.737889 
L 396.414509 168.377715 
L 397.105273 168.347507 
L 397.796044 166.423055 
L 398.487273 167.777228 
L 398.487273 167.777228 
" style="fill:none;stroke:#008000;stroke-linecap:square;"/>
   </g>
   <g id="patch_3">
    <path d="M 57.6 307.584 
L 57.6 41.472 
" style="fill:none;stroke:#000000;stroke-linecap:square;stroke-linejoin:miter;stroke-width:0.8;"/>
   </g>
   <g id="patch_4">
    <path d="M 414.72 307.584 
L 414.72 41.472 
" style="fill:none;stroke:#000000;stroke-linecap:square;stroke-linejoin:miter;stroke-width:0.8;"/>
   </g>
   <g id="patch_5">
    <path d="M 57.6 307.584 
L 414.72 307.584 
" style="fill:none;stroke:#000000;stroke-linecap:square;stroke-linejoin:miter;stroke-width:0.8;"/>
   </g>
   <g id="patch_6">
    <path d="M 57.6 41.472 
L 414.72 41.472 
" style="fill:none;stroke:#000000;stroke-linecap:square;stroke-linejoin:miter;stroke-width:0.8;"/>
   </g>
   <g id="text_15">
    <!-- Rel Gt Rot Y Plot -->
    <defs>
     <path d="M 44.390625 34.1875 
Q 47.5625 33.109375 50.5625 29.59375 
Q 53.5625 26.078125 56.59375 19.921875 
L 66.609375 0 
L 56 0 
L 46.6875 18.703125 
Q 43.0625 26.03125 39.671875 28.421875 
Q 36.28125 30.8125 30.421875 30.8125 
L 19.671875 30.8125 
L 19.671875 0 
L 9.8125 0 
L 9.8125 72.90625 
L 32.078125 72.90625 
Q 44.578125 72.90625 50.734375 67.671875 
Q 56.890625 62.453125 56.890625 51.90625 
Q 56.890625 45.015625 53.6875 40.46875 
Q 50.484375 35.9375 44.390625 34.1875 
z
M 19.671875 64.796875 
L 19.671875 38.921875 
L 32.078125 38.921875 
Q 39.203125 38.921875 42.84375 42.21875 
Q 46.484375 45.515625 46.484375 51.90625 
Q 46.484375 58.296875 42.84375 61.546875 
Q 39.203125 64.796875 32.078125 64.796875 
z
" id="DejaVuSans-52"/>
     <path d="M 9.421875 75.984375 
L 18.40625 75.984375 
L 18.40625 0 
L 9.421875 0 
z
" id="DejaVuSans-6c"/>
     <path d="M 59.515625 10.40625 
L 59.515625 29.984375 
L 43.40625 29.984375 
L 43.40625 38.09375 
L 69.28125 38.09375 
L 69.28125 6.78125 
Q 63.578125 2.734375 56.6875 0.65625 
Q 49.8125 -1.421875 42 -1.421875 
Q 24.90625 -1.421875 15.25 8.5625 
Q 5.609375 18.5625 5.609375 36.375 
Q 5.609375 54.25 15.25 64.234375 
Q 24.90625 74.21875 42 74.21875 
Q 49.125 74.21875 55.546875 72.453125 
Q 61.96875 70.703125 67.390625 67.28125 
L 67.390625 56.78125 
Q 61.921875 61.421875 55.765625 63.765625 
Q 49.609375 66.109375 42.828125 66.109375 
Q 29.4375 66.109375 22.71875 58.640625 
Q 16.015625 51.171875 16.015625 36.375 
Q 16.015625 21.625 22.71875 14.15625 
Q 29.4375 6.6875 42.828125 6.6875 
Q 48.046875 6.6875 52.140625 7.59375 
Q 56.25 8.5 59.515625 10.40625 
z
" id="DejaVuSans-47"/>
     <path d="M -0.203125 72.90625 
L 10.40625 72.90625 
L 30.609375 42.921875 
L 50.6875 72.90625 
L 61.28125 72.90625 
L 35.5 34.71875 
L 35.5 0 
L 25.59375 0 
L 25.59375 34.71875 
z
" id="DejaVuSans-59"/>
     <path d="M 19.671875 64.796875 
L 19.671875 37.40625 
L 32.078125 37.40625 
Q 38.96875 37.40625 42.71875 40.96875 
Q 46.484375 44.53125 46.484375 51.125 
Q 46.484375 57.671875 42.71875 61.234375 
Q 38.96875 64.796875 32.078125 64.796875 
z
M 9.8125 72.90625 
L 32.078125 72.90625 
Q 44.34375 72.90625 50.609375 67.359375 
Q 56.890625 61.8125 56.890625 51.125 
Q 56.890625 40.328125 50.609375 34.8125 
Q 44.34375 29.296875 32.078125 29.296875 
L 19.671875 29.296875 
L 19.671875 0 
L 9.8125 0 
z
" id="DejaVuSans-50"/>
    </defs>
    <g transform="translate(186.845625 35.472)scale(0.12 -0.12)">
     <use xlink:href="#DejaVuSans-52"/>
     <use x="69.419922" xlink:href="#DejaVuSans-65"/>
     <use x="130.943359" xlink:href="#DejaVuSans-6c"/>
     <use x="158.726562" xlink:href="#DejaVuSans-20"/>
     <use x="190.513672" xlink:href="#DejaVuSans-47"/>
     <use x="268.003906" xlink:href="#DejaVuSans-74"/>
     <use x="307.212891" xlink:href="#DejaVuSans-20"/>
     <use x="339" xlink:href="#DejaVuSans-52"/>
     <use x="408.419922" xlink:href="#DejaVuSans-6f"/>
     <use x="469.601562" xlink:href="#DejaVuSans-74"/>
     <use x="508.810547" xlink:href="#DejaVuSans-20"/>
     <use x="540.597656" xlink:href="#DejaVuSans-59"/>
     <use x="601.681641" xlink:href="#DejaVuSans-20"/>
     <use x="633.46875" xlink:href="#DejaVuSans-50"/>
     <use x="693.771484" xlink:href="#DejaVuSans-6c"/>
     <use x="721.554688" xlink:href="#DejaVuSans-6f"/>
     <use x="782.736328" xlink:href="#DejaVuSans-74"/>
    </g>
   </g>
  </g>
 </g>
 <defs>
  <clipPath id="p4c8defd58d">
   <rect height="266.112" width="357.12" x="57.6" y="41.472"/>
  </clipPath>
 </defs>
</svg>
