<?xml version="1.0" encoding="utf-8" standalone="no"?>
<!DOCTYPE svg PUBLIC "-//W3C//DTD SVG 1.1//EN"
  "http://www.w3.org/Graphics/SVG/1.1/DTD/svg11.dtd">
<!-- Created with matplotlib (http://matplotlib.org/) -->
<svg height="345.6pt" version="1.1" viewBox="0 0 460.8 345.6" width="460.8pt" xmlns="http://www.w3.org/2000/svg" xmlns:xlink="http://www.w3.org/1999/xlink">
 <defs>
  <style type="text/css">
*{stroke-linecap:butt;stroke-linejoin:round;}
  </style>
 </defs>
 <g id="figure_1">
  <g id="patch_1">
   <path d="M 0 345.6 
L 460.8 345.6 
L 460.8 0 
L 0 0 
z
" style="fill:#ffffff;"/>
  </g>
  <g id="axes_1">
   <g id="patch_2">
    <path d="M 57.6 307.584 
L 414.72 307.584 
L 414.72 41.472 
L 57.6 41.472 
z
" style="fill:#ffffff;"/>
   </g>
   <g id="matplotlib.axis_1">
    <g id="xtick_1">
     <g id="line2d_1">
      <path clip-path="url(#p2d09bd9a62)" d="M 70.907601 307.584 
L 70.907601 41.472 
" style="fill:none;stroke:#b0b0b0;stroke-linecap:square;stroke-width:0.8;"/>
     </g>
     <g id="line2d_2">
      <defs>
       <path d="M 0 0 
L 0 3.5 
" id="m0852077216" style="stroke:#000000;stroke-width:0.8;"/>
      </defs>
      <g>
       <use style="stroke:#000000;stroke-width:0.8;" x="70.907601" xlink:href="#m0852077216" y="307.584"/>
      </g>
     </g>
     <g id="text_1">
      <!-- 0 -->
      <defs>
       <path d="M 31.78125 66.40625 
Q 24.171875 66.40625 20.328125 58.90625 
Q 16.5 51.421875 16.5 36.375 
Q 16.5 21.390625 20.328125 13.890625 
Q 24.171875 6.390625 31.78125 6.390625 
Q 39.453125 6.390625 43.28125 13.890625 
Q 47.125 21.390625 47.125 36.375 
Q 47.125 51.421875 43.28125 58.90625 
Q 39.453125 66.40625 31.78125 66.40625 
z
M 31.78125 74.21875 
Q 44.046875 74.21875 50.515625 64.515625 
Q 56.984375 54.828125 56.984375 36.375 
Q 56.984375 17.96875 50.515625 8.265625 
Q 44.046875 -1.421875 31.78125 -1.421875 
Q 19.53125 -1.421875 13.0625 8.265625 
Q 6.59375 17.96875 6.59375 36.375 
Q 6.59375 54.828125 13.0625 64.515625 
Q 19.53125 74.21875 31.78125 74.21875 
z
" id="DejaVuSans-30"/>
      </defs>
      <g transform="translate(67.726351 322.182437)scale(0.1 -0.1)">
       <use xlink:href="#DejaVuSans-30"/>
      </g>
     </g>
    </g>
    <g id="xtick_2">
     <g id="line2d_3">
      <path clip-path="url(#p2d09bd9a62)" d="M 139.981955 307.584 
L 139.981955 41.472 
" style="fill:none;stroke:#b0b0b0;stroke-linecap:square;stroke-width:0.8;"/>
     </g>
     <g id="line2d_4">
      <g>
       <use style="stroke:#000000;stroke-width:0.8;" x="139.981955" xlink:href="#m0852077216" y="307.584"/>
      </g>
     </g>
     <g id="text_2">
      <!-- 10 -->
      <defs>
       <path d="M 12.40625 8.296875 
L 28.515625 8.296875 
L 28.515625 63.921875 
L 10.984375 60.40625 
L 10.984375 69.390625 
L 28.421875 72.90625 
L 38.28125 72.90625 
L 38.28125 8.296875 
L 54.390625 8.296875 
L 54.390625 0 
L 12.40625 0 
z
" id="DejaVuSans-31"/>
      </defs>
      <g transform="translate(133.619455 322.182437)scale(0.1 -0.1)">
       <use xlink:href="#DejaVuSans-31"/>
       <use x="63.623047" xlink:href="#DejaVuSans-30"/>
      </g>
     </g>
    </g>
    <g id="xtick_3">
     <g id="line2d_5">
      <path clip-path="url(#p2d09bd9a62)" d="M 209.056309 307.584 
L 209.056309 41.472 
" style="fill:none;stroke:#b0b0b0;stroke-linecap:square;stroke-width:0.8;"/>
     </g>
     <g id="line2d_6">
      <g>
       <use style="stroke:#000000;stroke-width:0.8;" x="209.056309" xlink:href="#m0852077216" y="307.584"/>
      </g>
     </g>
     <g id="text_3">
      <!-- 20 -->
      <defs>
       <path d="M 19.1875 8.296875 
L 53.609375 8.296875 
L 53.609375 0 
L 7.328125 0 
L 7.328125 8.296875 
Q 12.9375 14.109375 22.625 23.890625 
Q 32.328125 33.6875 34.8125 36.53125 
Q 39.546875 41.84375 41.421875 45.53125 
Q 43.3125 49.21875 43.3125 52.78125 
Q 43.3125 58.59375 39.234375 62.25 
Q 35.15625 65.921875 28.609375 65.921875 
Q 23.96875 65.921875 18.8125 64.3125 
Q 13.671875 62.703125 7.8125 59.421875 
L 7.8125 69.390625 
Q 13.765625 71.78125 18.9375 73 
Q 24.125 74.21875 28.421875 74.21875 
Q 39.75 74.21875 46.484375 68.546875 
Q 53.21875 62.890625 53.21875 53.421875 
Q 53.21875 48.921875 51.53125 44.890625 
Q 49.859375 40.875 45.40625 35.40625 
Q 44.1875 33.984375 37.640625 27.21875 
Q 31.109375 20.453125 19.1875 8.296875 
z
" id="DejaVuSans-32"/>
      </defs>
      <g transform="translate(202.693809 322.182437)scale(0.1 -0.1)">
       <use xlink:href="#DejaVuSans-32"/>
       <use x="63.623047" xlink:href="#DejaVuSans-30"/>
      </g>
     </g>
    </g>
    <g id="xtick_4">
     <g id="line2d_7">
      <path clip-path="url(#p2d09bd9a62)" d="M 278.130663 307.584 
L 278.130663 41.472 
" style="fill:none;stroke:#b0b0b0;stroke-linecap:square;stroke-width:0.8;"/>
     </g>
     <g id="line2d_8">
      <g>
       <use style="stroke:#000000;stroke-width:0.8;" x="278.130663" xlink:href="#m0852077216" y="307.584"/>
      </g>
     </g>
     <g id="text_4">
      <!-- 30 -->
      <defs>
       <path d="M 40.578125 39.3125 
Q 47.65625 37.796875 51.625 33 
Q 55.609375 28.21875 55.609375 21.1875 
Q 55.609375 10.40625 48.1875 4.484375 
Q 40.765625 -1.421875 27.09375 -1.421875 
Q 22.515625 -1.421875 17.65625 -0.515625 
Q 12.796875 0.390625 7.625 2.203125 
L 7.625 11.71875 
Q 11.71875 9.328125 16.59375 8.109375 
Q 21.484375 6.890625 26.8125 6.890625 
Q 36.078125 6.890625 40.9375 10.546875 
Q 45.796875 14.203125 45.796875 21.1875 
Q 45.796875 27.640625 41.28125 31.265625 
Q 36.765625 34.90625 28.71875 34.90625 
L 20.21875 34.90625 
L 20.21875 43.015625 
L 29.109375 43.015625 
Q 36.375 43.015625 40.234375 45.921875 
Q 44.09375 48.828125 44.09375 54.296875 
Q 44.09375 59.90625 40.109375 62.90625 
Q 36.140625 65.921875 28.71875 65.921875 
Q 24.65625 65.921875 20.015625 65.03125 
Q 15.375 64.15625 9.8125 62.3125 
L 9.8125 71.09375 
Q 15.4375 72.65625 20.34375 73.4375 
Q 25.25 74.21875 29.59375 74.21875 
Q 40.828125 74.21875 47.359375 69.109375 
Q 53.90625 64.015625 53.90625 55.328125 
Q 53.90625 49.265625 50.4375 45.09375 
Q 46.96875 40.921875 40.578125 39.3125 
z
" id="DejaVuSans-33"/>
      </defs>
      <g transform="translate(271.768163 322.182437)scale(0.1 -0.1)">
       <use xlink:href="#DejaVuSans-33"/>
       <use x="63.623047" xlink:href="#DejaVuSans-30"/>
      </g>
     </g>
    </g>
    <g id="xtick_5">
     <g id="line2d_9">
      <path clip-path="url(#p2d09bd9a62)" d="M 347.205016 307.584 
L 347.205016 41.472 
" style="fill:none;stroke:#b0b0b0;stroke-linecap:square;stroke-width:0.8;"/>
     </g>
     <g id="line2d_10">
      <g>
       <use style="stroke:#000000;stroke-width:0.8;" x="347.205016" xlink:href="#m0852077216" y="307.584"/>
      </g>
     </g>
     <g id="text_5">
      <!-- 40 -->
      <defs>
       <path d="M 37.796875 64.3125 
L 12.890625 25.390625 
L 37.796875 25.390625 
z
M 35.203125 72.90625 
L 47.609375 72.90625 
L 47.609375 25.390625 
L 58.015625 25.390625 
L 58.015625 17.1875 
L 47.609375 17.1875 
L 47.609375 0 
L 37.796875 0 
L 37.796875 17.1875 
L 4.890625 17.1875 
L 4.890625 26.703125 
z
" id="DejaVuSans-34"/>
      </defs>
      <g transform="translate(340.842516 322.182437)scale(0.1 -0.1)">
       <use xlink:href="#DejaVuSans-34"/>
       <use x="63.623047" xlink:href="#DejaVuSans-30"/>
      </g>
     </g>
    </g>
    <g id="xtick_6">
     <g id="line2d_11">
      <path clip-path="url(#p2d09bd9a62)" d="M 84.722472 307.584 
L 84.722472 41.472 
" style="fill:none;stroke:#b0b0b0;stroke-linecap:square;stroke-width:0.8;"/>
     </g>
     <g id="line2d_12">
      <defs>
       <path d="M 0 0 
L 0 2 
" id="mbca22d2038" style="stroke:#000000;stroke-width:0.6;"/>
      </defs>
      <g>
       <use style="stroke:#000000;stroke-width:0.6;" x="84.722472" xlink:href="#mbca22d2038" y="307.584"/>
      </g>
     </g>
    </g>
    <g id="xtick_7">
     <g id="line2d_13">
      <path clip-path="url(#p2d09bd9a62)" d="M 98.537342 307.584 
L 98.537342 41.472 
" style="fill:none;stroke:#b0b0b0;stroke-linecap:square;stroke-width:0.8;"/>
     </g>
     <g id="line2d_14">
      <g>
       <use style="stroke:#000000;stroke-width:0.6;" x="98.537342" xlink:href="#mbca22d2038" y="307.584"/>
      </g>
     </g>
    </g>
    <g id="xtick_8">
     <g id="line2d_15">
      <path clip-path="url(#p2d09bd9a62)" d="M 112.352213 307.584 
L 112.352213 41.472 
" style="fill:none;stroke:#b0b0b0;stroke-linecap:square;stroke-width:0.8;"/>
     </g>
     <g id="line2d_16">
      <g>
       <use style="stroke:#000000;stroke-width:0.6;" x="112.352213" xlink:href="#mbca22d2038" y="307.584"/>
      </g>
     </g>
    </g>
    <g id="xtick_9">
     <g id="line2d_17">
      <path clip-path="url(#p2d09bd9a62)" d="M 126.167084 307.584 
L 126.167084 41.472 
" style="fill:none;stroke:#b0b0b0;stroke-linecap:square;stroke-width:0.8;"/>
     </g>
     <g id="line2d_18">
      <g>
       <use style="stroke:#000000;stroke-width:0.6;" x="126.167084" xlink:href="#mbca22d2038" y="307.584"/>
      </g>
     </g>
    </g>
    <g id="xtick_10">
     <g id="line2d_19">
      <path clip-path="url(#p2d09bd9a62)" d="M 153.796826 307.584 
L 153.796826 41.472 
" style="fill:none;stroke:#b0b0b0;stroke-linecap:square;stroke-width:0.8;"/>
     </g>
     <g id="line2d_20">
      <g>
       <use style="stroke:#000000;stroke-width:0.6;" x="153.796826" xlink:href="#mbca22d2038" y="307.584"/>
      </g>
     </g>
    </g>
    <g id="xtick_11">
     <g id="line2d_21">
      <path clip-path="url(#p2d09bd9a62)" d="M 167.611696 307.584 
L 167.611696 41.472 
" style="fill:none;stroke:#b0b0b0;stroke-linecap:square;stroke-width:0.8;"/>
     </g>
     <g id="line2d_22">
      <g>
       <use style="stroke:#000000;stroke-width:0.6;" x="167.611696" xlink:href="#mbca22d2038" y="307.584"/>
      </g>
     </g>
    </g>
    <g id="xtick_12">
     <g id="line2d_23">
      <path clip-path="url(#p2d09bd9a62)" d="M 181.426567 307.584 
L 181.426567 41.472 
" style="fill:none;stroke:#b0b0b0;stroke-linecap:square;stroke-width:0.8;"/>
     </g>
     <g id="line2d_24">
      <g>
       <use style="stroke:#000000;stroke-width:0.6;" x="181.426567" xlink:href="#mbca22d2038" y="307.584"/>
      </g>
     </g>
    </g>
    <g id="xtick_13">
     <g id="line2d_25">
      <path clip-path="url(#p2d09bd9a62)" d="M 195.241438 307.584 
L 195.241438 41.472 
" style="fill:none;stroke:#b0b0b0;stroke-linecap:square;stroke-width:0.8;"/>
     </g>
     <g id="line2d_26">
      <g>
       <use style="stroke:#000000;stroke-width:0.6;" x="195.241438" xlink:href="#mbca22d2038" y="307.584"/>
      </g>
     </g>
    </g>
    <g id="xtick_14">
     <g id="line2d_27">
      <path clip-path="url(#p2d09bd9a62)" d="M 222.871179 307.584 
L 222.871179 41.472 
" style="fill:none;stroke:#b0b0b0;stroke-linecap:square;stroke-width:0.8;"/>
     </g>
     <g id="line2d_28">
      <g>
       <use style="stroke:#000000;stroke-width:0.6;" x="222.871179" xlink:href="#mbca22d2038" y="307.584"/>
      </g>
     </g>
    </g>
    <g id="xtick_15">
     <g id="line2d_29">
      <path clip-path="url(#p2d09bd9a62)" d="M 236.68605 307.584 
L 236.68605 41.472 
" style="fill:none;stroke:#b0b0b0;stroke-linecap:square;stroke-width:0.8;"/>
     </g>
     <g id="line2d_30">
      <g>
       <use style="stroke:#000000;stroke-width:0.6;" x="236.68605" xlink:href="#mbca22d2038" y="307.584"/>
      </g>
     </g>
    </g>
    <g id="xtick_16">
     <g id="line2d_31">
      <path clip-path="url(#p2d09bd9a62)" d="M 250.500921 307.584 
L 250.500921 41.472 
" style="fill:none;stroke:#b0b0b0;stroke-linecap:square;stroke-width:0.8;"/>
     </g>
     <g id="line2d_32">
      <g>
       <use style="stroke:#000000;stroke-width:0.6;" x="250.500921" xlink:href="#mbca22d2038" y="307.584"/>
      </g>
     </g>
    </g>
    <g id="xtick_17">
     <g id="line2d_33">
      <path clip-path="url(#p2d09bd9a62)" d="M 264.315792 307.584 
L 264.315792 41.472 
" style="fill:none;stroke:#b0b0b0;stroke-linecap:square;stroke-width:0.8;"/>
     </g>
     <g id="line2d_34">
      <g>
       <use style="stroke:#000000;stroke-width:0.6;" x="264.315792" xlink:href="#mbca22d2038" y="307.584"/>
      </g>
     </g>
    </g>
    <g id="xtick_18">
     <g id="line2d_35">
      <path clip-path="url(#p2d09bd9a62)" d="M 291.945533 307.584 
L 291.945533 41.472 
" style="fill:none;stroke:#b0b0b0;stroke-linecap:square;stroke-width:0.8;"/>
     </g>
     <g id="line2d_36">
      <g>
       <use style="stroke:#000000;stroke-width:0.6;" x="291.945533" xlink:href="#mbca22d2038" y="307.584"/>
      </g>
     </g>
    </g>
    <g id="xtick_19">
     <g id="line2d_37">
      <path clip-path="url(#p2d09bd9a62)" d="M 305.760404 307.584 
L 305.760404 41.472 
" style="fill:none;stroke:#b0b0b0;stroke-linecap:square;stroke-width:0.8;"/>
     </g>
     <g id="line2d_38">
      <g>
       <use style="stroke:#000000;stroke-width:0.6;" x="305.760404" xlink:href="#mbca22d2038" y="307.584"/>
      </g>
     </g>
    </g>
    <g id="xtick_20">
     <g id="line2d_39">
      <path clip-path="url(#p2d09bd9a62)" d="M 319.575275 307.584 
L 319.575275 41.472 
" style="fill:none;stroke:#b0b0b0;stroke-linecap:square;stroke-width:0.8;"/>
     </g>
     <g id="line2d_40">
      <g>
       <use style="stroke:#000000;stroke-width:0.6;" x="319.575275" xlink:href="#mbca22d2038" y="307.584"/>
      </g>
     </g>
    </g>
    <g id="xtick_21">
     <g id="line2d_41">
      <path clip-path="url(#p2d09bd9a62)" d="M 333.390146 307.584 
L 333.390146 41.472 
" style="fill:none;stroke:#b0b0b0;stroke-linecap:square;stroke-width:0.8;"/>
     </g>
     <g id="line2d_42">
      <g>
       <use style="stroke:#000000;stroke-width:0.6;" x="333.390146" xlink:href="#mbca22d2038" y="307.584"/>
      </g>
     </g>
    </g>
    <g id="xtick_22">
     <g id="line2d_43">
      <path clip-path="url(#p2d09bd9a62)" d="M 361.019887 307.584 
L 361.019887 41.472 
" style="fill:none;stroke:#b0b0b0;stroke-linecap:square;stroke-width:0.8;"/>
     </g>
     <g id="line2d_44">
      <g>
       <use style="stroke:#000000;stroke-width:0.6;" x="361.019887" xlink:href="#mbca22d2038" y="307.584"/>
      </g>
     </g>
    </g>
    <g id="xtick_23">
     <g id="line2d_45">
      <path clip-path="url(#p2d09bd9a62)" d="M 374.834758 307.584 
L 374.834758 41.472 
" style="fill:none;stroke:#b0b0b0;stroke-linecap:square;stroke-width:0.8;"/>
     </g>
     <g id="line2d_46">
      <g>
       <use style="stroke:#000000;stroke-width:0.6;" x="374.834758" xlink:href="#mbca22d2038" y="307.584"/>
      </g>
     </g>
    </g>
    <g id="xtick_24">
     <g id="line2d_47">
      <path clip-path="url(#p2d09bd9a62)" d="M 388.649629 307.584 
L 388.649629 41.472 
" style="fill:none;stroke:#b0b0b0;stroke-linecap:square;stroke-width:0.8;"/>
     </g>
     <g id="line2d_48">
      <g>
       <use style="stroke:#000000;stroke-width:0.6;" x="388.649629" xlink:href="#mbca22d2038" y="307.584"/>
      </g>
     </g>
    </g>
    <g id="xtick_25">
     <g id="line2d_49">
      <path clip-path="url(#p2d09bd9a62)" d="M 402.4645 307.584 
L 402.4645 41.472 
" style="fill:none;stroke:#b0b0b0;stroke-linecap:square;stroke-width:0.8;"/>
     </g>
     <g id="line2d_50">
      <g>
       <use style="stroke:#000000;stroke-width:0.6;" x="402.4645" xlink:href="#mbca22d2038" y="307.584"/>
      </g>
     </g>
    </g>
    <g id="text_6">
     <!-- frame # [] -->
     <defs>
      <path d="M 37.109375 75.984375 
L 37.109375 68.5 
L 28.515625 68.5 
Q 23.6875 68.5 21.796875 66.546875 
Q 19.921875 64.59375 19.921875 59.515625 
L 19.921875 54.6875 
L 34.71875 54.6875 
L 34.71875 47.703125 
L 19.921875 47.703125 
L 19.921875 0 
L 10.890625 0 
L 10.890625 47.703125 
L 2.296875 47.703125 
L 2.296875 54.6875 
L 10.890625 54.6875 
L 10.890625 58.5 
Q 10.890625 67.625 15.140625 71.796875 
Q 19.390625 75.984375 28.609375 75.984375 
z
" id="DejaVuSans-66"/>
      <path d="M 41.109375 46.296875 
Q 39.59375 47.171875 37.8125 47.578125 
Q 36.03125 48 33.890625 48 
Q 26.265625 48 22.1875 43.046875 
Q 18.109375 38.09375 18.109375 28.8125 
L 18.109375 0 
L 9.078125 0 
L 9.078125 54.6875 
L 18.109375 54.6875 
L 18.109375 46.1875 
Q 20.953125 51.171875 25.484375 53.578125 
Q 30.03125 56 36.53125 56 
Q 37.453125 56 38.578125 55.875 
Q 39.703125 55.765625 41.0625 55.515625 
z
" id="DejaVuSans-72"/>
      <path d="M 34.28125 27.484375 
Q 23.390625 27.484375 19.1875 25 
Q 14.984375 22.515625 14.984375 16.5 
Q 14.984375 11.71875 18.140625 8.90625 
Q 21.296875 6.109375 26.703125 6.109375 
Q 34.1875 6.109375 38.703125 11.40625 
Q 43.21875 16.703125 43.21875 25.484375 
L 43.21875 27.484375 
z
M 52.203125 31.203125 
L 52.203125 0 
L 43.21875 0 
L 43.21875 8.296875 
Q 40.140625 3.328125 35.546875 0.953125 
Q 30.953125 -1.421875 24.3125 -1.421875 
Q 15.921875 -1.421875 10.953125 3.296875 
Q 6 8.015625 6 15.921875 
Q 6 25.140625 12.171875 29.828125 
Q 18.359375 34.515625 30.609375 34.515625 
L 43.21875 34.515625 
L 43.21875 35.40625 
Q 43.21875 41.609375 39.140625 45 
Q 35.0625 48.390625 27.6875 48.390625 
Q 23 48.390625 18.546875 47.265625 
Q 14.109375 46.140625 10.015625 43.890625 
L 10.015625 52.203125 
Q 14.9375 54.109375 19.578125 55.046875 
Q 24.21875 56 28.609375 56 
Q 40.484375 56 46.34375 49.84375 
Q 52.203125 43.703125 52.203125 31.203125 
z
" id="DejaVuSans-61"/>
      <path d="M 52 44.1875 
Q 55.375 50.25 60.0625 53.125 
Q 64.75 56 71.09375 56 
Q 79.640625 56 84.28125 50.015625 
Q 88.921875 44.046875 88.921875 33.015625 
L 88.921875 0 
L 79.890625 0 
L 79.890625 32.71875 
Q 79.890625 40.578125 77.09375 44.375 
Q 74.3125 48.1875 68.609375 48.1875 
Q 61.625 48.1875 57.5625 43.546875 
Q 53.515625 38.921875 53.515625 30.90625 
L 53.515625 0 
L 44.484375 0 
L 44.484375 32.71875 
Q 44.484375 40.625 41.703125 44.40625 
Q 38.921875 48.1875 33.109375 48.1875 
Q 26.21875 48.1875 22.15625 43.53125 
Q 18.109375 38.875 18.109375 30.90625 
L 18.109375 0 
L 9.078125 0 
L 9.078125 54.6875 
L 18.109375 54.6875 
L 18.109375 46.1875 
Q 21.1875 51.21875 25.484375 53.609375 
Q 29.78125 56 35.6875 56 
Q 41.65625 56 45.828125 52.96875 
Q 50 49.953125 52 44.1875 
z
" id="DejaVuSans-6d"/>
      <path d="M 56.203125 29.59375 
L 56.203125 25.203125 
L 14.890625 25.203125 
Q 15.484375 15.921875 20.484375 11.0625 
Q 25.484375 6.203125 34.421875 6.203125 
Q 39.59375 6.203125 44.453125 7.46875 
Q 49.3125 8.734375 54.109375 11.28125 
L 54.109375 2.78125 
Q 49.265625 0.734375 44.1875 -0.34375 
Q 39.109375 -1.421875 33.890625 -1.421875 
Q 20.796875 -1.421875 13.15625 6.1875 
Q 5.515625 13.8125 5.515625 26.8125 
Q 5.515625 40.234375 12.765625 48.109375 
Q 20.015625 56 32.328125 56 
Q 43.359375 56 49.78125 48.890625 
Q 56.203125 41.796875 56.203125 29.59375 
z
M 47.21875 32.234375 
Q 47.125 39.59375 43.09375 43.984375 
Q 39.0625 48.390625 32.421875 48.390625 
Q 24.90625 48.390625 20.390625 44.140625 
Q 15.875 39.890625 15.1875 32.171875 
z
" id="DejaVuSans-65"/>
      <path id="DejaVuSans-20"/>
      <path d="M 51.125 44 
L 36.921875 44 
L 32.8125 27.6875 
L 47.125 27.6875 
z
M 43.796875 71.78125 
L 38.71875 51.515625 
L 52.984375 51.515625 
L 58.109375 71.78125 
L 65.921875 71.78125 
L 60.890625 51.515625 
L 76.125 51.515625 
L 76.125 44 
L 58.984375 44 
L 54.984375 27.6875 
L 70.515625 27.6875 
L 70.515625 20.21875 
L 53.078125 20.21875 
L 48 0 
L 40.1875 0 
L 45.21875 20.21875 
L 30.90625 20.21875 
L 25.875 0 
L 18.015625 0 
L 23.09375 20.21875 
L 7.71875 20.21875 
L 7.71875 27.6875 
L 24.90625 27.6875 
L 29 44 
L 13.28125 44 
L 13.28125 51.515625 
L 30.90625 51.515625 
L 35.890625 71.78125 
z
" id="DejaVuSans-23"/>
      <path d="M 8.59375 75.984375 
L 29.296875 75.984375 
L 29.296875 69 
L 17.578125 69 
L 17.578125 -6.203125 
L 29.296875 -6.203125 
L 29.296875 -13.1875 
L 8.59375 -13.1875 
z
" id="DejaVuSans-5b"/>
      <path d="M 30.421875 75.984375 
L 30.421875 -13.1875 
L 9.71875 -13.1875 
L 9.71875 -6.203125 
L 21.390625 -6.203125 
L 21.390625 69 
L 9.71875 69 
L 9.71875 75.984375 
z
" id="DejaVuSans-5d"/>
     </defs>
     <g transform="translate(210.063906 335.860562)scale(0.1 -0.1)">
      <use xlink:href="#DejaVuSans-66"/>
      <use x="35.205078" xlink:href="#DejaVuSans-72"/>
      <use x="76.318359" xlink:href="#DejaVuSans-61"/>
      <use x="137.597656" xlink:href="#DejaVuSans-6d"/>
      <use x="235.009766" xlink:href="#DejaVuSans-65"/>
      <use x="296.533203" xlink:href="#DejaVuSans-20"/>
      <use x="328.320312" xlink:href="#DejaVuSans-23"/>
      <use x="412.109375" xlink:href="#DejaVuSans-20"/>
      <use x="443.896484" xlink:href="#DejaVuSans-5b"/>
      <use x="482.910156" xlink:href="#DejaVuSans-5d"/>
     </g>
    </g>
   </g>
   <g id="matplotlib.axis_2">
    <g id="ytick_1">
     <g id="line2d_51">
      <path clip-path="url(#p2d09bd9a62)" d="M 57.6 271.280692 
L 414.72 271.280692 
" style="fill:none;stroke:#b0b0b0;stroke-linecap:square;stroke-width:0.8;"/>
     </g>
     <g id="line2d_52">
      <defs>
       <path d="M 0 0 
L -3.5 0 
" id="m3c90b8fc0c" style="stroke:#000000;stroke-width:0.8;"/>
      </defs>
      <g>
       <use style="stroke:#000000;stroke-width:0.8;" x="57.6" xlink:href="#m3c90b8fc0c" y="271.280692"/>
      </g>
     </g>
     <g id="text_7">
      <!-- −0.1 -->
      <defs>
       <path d="M 10.59375 35.5 
L 73.1875 35.5 
L 73.1875 27.203125 
L 10.59375 27.203125 
z
" id="DejaVuSans-2212"/>
       <path d="M 10.6875 12.40625 
L 21 12.40625 
L 21 0 
L 10.6875 0 
z
" id="DejaVuSans-2e"/>
      </defs>
      <g transform="translate(26.317187 275.079911)scale(0.1 -0.1)">
       <use xlink:href="#DejaVuSans-2212"/>
       <use x="83.789062" xlink:href="#DejaVuSans-30"/>
       <use x="147.412109" xlink:href="#DejaVuSans-2e"/>
       <use x="179.199219" xlink:href="#DejaVuSans-31"/>
      </g>
     </g>
    </g>
    <g id="ytick_2">
     <g id="line2d_53">
      <path clip-path="url(#p2d09bd9a62)" d="M 57.6 212.438699 
L 414.72 212.438699 
" style="fill:none;stroke:#b0b0b0;stroke-linecap:square;stroke-width:0.8;"/>
     </g>
     <g id="line2d_54">
      <g>
       <use style="stroke:#000000;stroke-width:0.8;" x="57.6" xlink:href="#m3c90b8fc0c" y="212.438699"/>
      </g>
     </g>
     <g id="text_8">
      <!-- 0.0 -->
      <g transform="translate(34.696875 216.237917)scale(0.1 -0.1)">
       <use xlink:href="#DejaVuSans-30"/>
       <use x="63.623047" xlink:href="#DejaVuSans-2e"/>
       <use x="95.410156" xlink:href="#DejaVuSans-30"/>
      </g>
     </g>
    </g>
    <g id="ytick_3">
     <g id="line2d_55">
      <path clip-path="url(#p2d09bd9a62)" d="M 57.6 153.596705 
L 414.72 153.596705 
" style="fill:none;stroke:#b0b0b0;stroke-linecap:square;stroke-width:0.8;"/>
     </g>
     <g id="line2d_56">
      <g>
       <use style="stroke:#000000;stroke-width:0.8;" x="57.6" xlink:href="#m3c90b8fc0c" y="153.596705"/>
      </g>
     </g>
     <g id="text_9">
      <!-- 0.1 -->
      <g transform="translate(34.696875 157.395924)scale(0.1 -0.1)">
       <use xlink:href="#DejaVuSans-30"/>
       <use x="63.623047" xlink:href="#DejaVuSans-2e"/>
       <use x="95.410156" xlink:href="#DejaVuSans-31"/>
      </g>
     </g>
    </g>
    <g id="ytick_4">
     <g id="line2d_57">
      <path clip-path="url(#p2d09bd9a62)" d="M 57.6 94.754712 
L 414.72 94.754712 
" style="fill:none;stroke:#b0b0b0;stroke-linecap:square;stroke-width:0.8;"/>
     </g>
     <g id="line2d_58">
      <g>
       <use style="stroke:#000000;stroke-width:0.8;" x="57.6" xlink:href="#m3c90b8fc0c" y="94.754712"/>
      </g>
     </g>
     <g id="text_10">
      <!-- 0.2 -->
      <g transform="translate(34.696875 98.55393)scale(0.1 -0.1)">
       <use xlink:href="#DejaVuSans-30"/>
       <use x="63.623047" xlink:href="#DejaVuSans-2e"/>
       <use x="95.410156" xlink:href="#DejaVuSans-32"/>
      </g>
     </g>
    </g>
    <g id="ytick_5">
     <g id="line2d_59">
      <path clip-path="url(#p2d09bd9a62)" d="M 57.6 306.585888 
L 414.72 306.585888 
" style="fill:none;stroke:#b0b0b0;stroke-linecap:square;stroke-width:0.8;"/>
     </g>
     <g id="line2d_60">
      <defs>
       <path d="M 0 0 
L -2 0 
" id="mc81a11219b" style="stroke:#000000;stroke-width:0.6;"/>
      </defs>
      <g>
       <use style="stroke:#000000;stroke-width:0.6;" x="57.6" xlink:href="#mc81a11219b" y="306.585888"/>
      </g>
     </g>
    </g>
    <g id="ytick_6">
     <g id="line2d_61">
      <path clip-path="url(#p2d09bd9a62)" d="M 57.6 294.81749 
L 414.72 294.81749 
" style="fill:none;stroke:#b0b0b0;stroke-linecap:square;stroke-width:0.8;"/>
     </g>
     <g id="line2d_62">
      <g>
       <use style="stroke:#000000;stroke-width:0.6;" x="57.6" xlink:href="#mc81a11219b" y="294.81749"/>
      </g>
     </g>
    </g>
    <g id="ytick_7">
     <g id="line2d_63">
      <path clip-path="url(#p2d09bd9a62)" d="M 57.6 283.049091 
L 414.72 283.049091 
" style="fill:none;stroke:#b0b0b0;stroke-linecap:square;stroke-width:0.8;"/>
     </g>
     <g id="line2d_64">
      <g>
       <use style="stroke:#000000;stroke-width:0.6;" x="57.6" xlink:href="#mc81a11219b" y="283.049091"/>
      </g>
     </g>
    </g>
    <g id="ytick_8">
     <g id="line2d_65">
      <path clip-path="url(#p2d09bd9a62)" d="M 57.6 271.280692 
L 414.72 271.280692 
" style="fill:none;stroke:#b0b0b0;stroke-linecap:square;stroke-width:0.8;"/>
     </g>
     <g id="line2d_66">
      <g>
       <use style="stroke:#000000;stroke-width:0.6;" x="57.6" xlink:href="#mc81a11219b" y="271.280692"/>
      </g>
     </g>
    </g>
    <g id="ytick_9">
     <g id="line2d_67">
      <path clip-path="url(#p2d09bd9a62)" d="M 57.6 259.512294 
L 414.72 259.512294 
" style="fill:none;stroke:#b0b0b0;stroke-linecap:square;stroke-width:0.8;"/>
     </g>
     <g id="line2d_68">
      <g>
       <use style="stroke:#000000;stroke-width:0.6;" x="57.6" xlink:href="#mc81a11219b" y="259.512294"/>
      </g>
     </g>
    </g>
    <g id="ytick_10">
     <g id="line2d_69">
      <path clip-path="url(#p2d09bd9a62)" d="M 57.6 247.743895 
L 414.72 247.743895 
" style="fill:none;stroke:#b0b0b0;stroke-linecap:square;stroke-width:0.8;"/>
     </g>
     <g id="line2d_70">
      <g>
       <use style="stroke:#000000;stroke-width:0.6;" x="57.6" xlink:href="#mc81a11219b" y="247.743895"/>
      </g>
     </g>
    </g>
    <g id="ytick_11">
     <g id="line2d_71">
      <path clip-path="url(#p2d09bd9a62)" d="M 57.6 235.975496 
L 414.72 235.975496 
" style="fill:none;stroke:#b0b0b0;stroke-linecap:square;stroke-width:0.8;"/>
     </g>
     <g id="line2d_72">
      <g>
       <use style="stroke:#000000;stroke-width:0.6;" x="57.6" xlink:href="#mc81a11219b" y="235.975496"/>
      </g>
     </g>
    </g>
    <g id="ytick_12">
     <g id="line2d_73">
      <path clip-path="url(#p2d09bd9a62)" d="M 57.6 224.207097 
L 414.72 224.207097 
" style="fill:none;stroke:#b0b0b0;stroke-linecap:square;stroke-width:0.8;"/>
     </g>
     <g id="line2d_74">
      <g>
       <use style="stroke:#000000;stroke-width:0.6;" x="57.6" xlink:href="#mc81a11219b" y="224.207097"/>
      </g>
     </g>
    </g>
    <g id="ytick_13">
     <g id="line2d_75">
      <path clip-path="url(#p2d09bd9a62)" d="M 57.6 212.438699 
L 414.72 212.438699 
" style="fill:none;stroke:#b0b0b0;stroke-linecap:square;stroke-width:0.8;"/>
     </g>
     <g id="line2d_76">
      <g>
       <use style="stroke:#000000;stroke-width:0.6;" x="57.6" xlink:href="#mc81a11219b" y="212.438699"/>
      </g>
     </g>
    </g>
    <g id="ytick_14">
     <g id="line2d_77">
      <path clip-path="url(#p2d09bd9a62)" d="M 57.6 200.6703 
L 414.72 200.6703 
" style="fill:none;stroke:#b0b0b0;stroke-linecap:square;stroke-width:0.8;"/>
     </g>
     <g id="line2d_78">
      <g>
       <use style="stroke:#000000;stroke-width:0.6;" x="57.6" xlink:href="#mc81a11219b" y="200.6703"/>
      </g>
     </g>
    </g>
    <g id="ytick_15">
     <g id="line2d_79">
      <path clip-path="url(#p2d09bd9a62)" d="M 57.6 188.901901 
L 414.72 188.901901 
" style="fill:none;stroke:#b0b0b0;stroke-linecap:square;stroke-width:0.8;"/>
     </g>
     <g id="line2d_80">
      <g>
       <use style="stroke:#000000;stroke-width:0.6;" x="57.6" xlink:href="#mc81a11219b" y="188.901901"/>
      </g>
     </g>
    </g>
    <g id="ytick_16">
     <g id="line2d_81">
      <path clip-path="url(#p2d09bd9a62)" d="M 57.6 177.133503 
L 414.72 177.133503 
" style="fill:none;stroke:#b0b0b0;stroke-linecap:square;stroke-width:0.8;"/>
     </g>
     <g id="line2d_82">
      <g>
       <use style="stroke:#000000;stroke-width:0.6;" x="57.6" xlink:href="#mc81a11219b" y="177.133503"/>
      </g>
     </g>
    </g>
    <g id="ytick_17">
     <g id="line2d_83">
      <path clip-path="url(#p2d09bd9a62)" d="M 57.6 165.365104 
L 414.72 165.365104 
" style="fill:none;stroke:#b0b0b0;stroke-linecap:square;stroke-width:0.8;"/>
     </g>
     <g id="line2d_84">
      <g>
       <use style="stroke:#000000;stroke-width:0.6;" x="57.6" xlink:href="#mc81a11219b" y="165.365104"/>
      </g>
     </g>
    </g>
    <g id="ytick_18">
     <g id="line2d_85">
      <path clip-path="url(#p2d09bd9a62)" d="M 57.6 153.596705 
L 414.72 153.596705 
" style="fill:none;stroke:#b0b0b0;stroke-linecap:square;stroke-width:0.8;"/>
     </g>
     <g id="line2d_86">
      <g>
       <use style="stroke:#000000;stroke-width:0.6;" x="57.6" xlink:href="#mc81a11219b" y="153.596705"/>
      </g>
     </g>
    </g>
    <g id="ytick_19">
     <g id="line2d_87">
      <path clip-path="url(#p2d09bd9a62)" d="M 57.6 141.828307 
L 414.72 141.828307 
" style="fill:none;stroke:#b0b0b0;stroke-linecap:square;stroke-width:0.8;"/>
     </g>
     <g id="line2d_88">
      <g>
       <use style="stroke:#000000;stroke-width:0.6;" x="57.6" xlink:href="#mc81a11219b" y="141.828307"/>
      </g>
     </g>
    </g>
    <g id="ytick_20">
     <g id="line2d_89">
      <path clip-path="url(#p2d09bd9a62)" d="M 57.6 130.059908 
L 414.72 130.059908 
" style="fill:none;stroke:#b0b0b0;stroke-linecap:square;stroke-width:0.8;"/>
     </g>
     <g id="line2d_90">
      <g>
       <use style="stroke:#000000;stroke-width:0.6;" x="57.6" xlink:href="#mc81a11219b" y="130.059908"/>
      </g>
     </g>
    </g>
    <g id="ytick_21">
     <g id="line2d_91">
      <path clip-path="url(#p2d09bd9a62)" d="M 57.6 118.291509 
L 414.72 118.291509 
" style="fill:none;stroke:#b0b0b0;stroke-linecap:square;stroke-width:0.8;"/>
     </g>
     <g id="line2d_92">
      <g>
       <use style="stroke:#000000;stroke-width:0.6;" x="57.6" xlink:href="#mc81a11219b" y="118.291509"/>
      </g>
     </g>
    </g>
    <g id="ytick_22">
     <g id="line2d_93">
      <path clip-path="url(#p2d09bd9a62)" d="M 57.6 106.52311 
L 414.72 106.52311 
" style="fill:none;stroke:#b0b0b0;stroke-linecap:square;stroke-width:0.8;"/>
     </g>
     <g id="line2d_94">
      <g>
       <use style="stroke:#000000;stroke-width:0.6;" x="57.6" xlink:href="#mc81a11219b" y="106.52311"/>
      </g>
     </g>
    </g>
    <g id="ytick_23">
     <g id="line2d_95">
      <path clip-path="url(#p2d09bd9a62)" d="M 57.6 94.754712 
L 414.72 94.754712 
" style="fill:none;stroke:#b0b0b0;stroke-linecap:square;stroke-width:0.8;"/>
     </g>
     <g id="line2d_96">
      <g>
       <use style="stroke:#000000;stroke-width:0.6;" x="57.6" xlink:href="#mc81a11219b" y="94.754712"/>
      </g>
     </g>
    </g>
    <g id="ytick_24">
     <g id="line2d_97">
      <path clip-path="url(#p2d09bd9a62)" d="M 57.6 82.986313 
L 414.72 82.986313 
" style="fill:none;stroke:#b0b0b0;stroke-linecap:square;stroke-width:0.8;"/>
     </g>
     <g id="line2d_98">
      <g>
       <use style="stroke:#000000;stroke-width:0.6;" x="57.6" xlink:href="#mc81a11219b" y="82.986313"/>
      </g>
     </g>
    </g>
    <g id="ytick_25">
     <g id="line2d_99">
      <path clip-path="url(#p2d09bd9a62)" d="M 57.6 71.217914 
L 414.72 71.217914 
" style="fill:none;stroke:#b0b0b0;stroke-linecap:square;stroke-width:0.8;"/>
     </g>
     <g id="line2d_100">
      <g>
       <use style="stroke:#000000;stroke-width:0.6;" x="57.6" xlink:href="#mc81a11219b" y="71.217914"/>
      </g>
     </g>
    </g>
    <g id="ytick_26">
     <g id="line2d_101">
      <path clip-path="url(#p2d09bd9a62)" d="M 57.6 59.449516 
L 414.72 59.449516 
" style="fill:none;stroke:#b0b0b0;stroke-linecap:square;stroke-width:0.8;"/>
     </g>
     <g id="line2d_102">
      <g>
       <use style="stroke:#000000;stroke-width:0.6;" x="57.6" xlink:href="#mc81a11219b" y="59.449516"/>
      </g>
     </g>
    </g>
    <g id="ytick_27">
     <g id="line2d_103">
      <path clip-path="url(#p2d09bd9a62)" d="M 57.6 47.681117 
L 414.72 47.681117 
" style="fill:none;stroke:#b0b0b0;stroke-linecap:square;stroke-width:0.8;"/>
     </g>
     <g id="line2d_104">
      <g>
       <use style="stroke:#000000;stroke-width:0.6;" x="57.6" xlink:href="#mc81a11219b" y="47.681117"/>
      </g>
     </g>
    </g>
    <g id="text_11">
     <!-- rot x -->
     <defs>
      <path d="M 30.609375 48.390625 
Q 23.390625 48.390625 19.1875 42.75 
Q 14.984375 37.109375 14.984375 27.296875 
Q 14.984375 17.484375 19.15625 11.84375 
Q 23.34375 6.203125 30.609375 6.203125 
Q 37.796875 6.203125 41.984375 11.859375 
Q 46.1875 17.53125 46.1875 27.296875 
Q 46.1875 37.015625 41.984375 42.703125 
Q 37.796875 48.390625 30.609375 48.390625 
z
M 30.609375 56 
Q 42.328125 56 49.015625 48.375 
Q 55.71875 40.765625 55.71875 27.296875 
Q 55.71875 13.875 49.015625 6.21875 
Q 42.328125 -1.421875 30.609375 -1.421875 
Q 18.84375 -1.421875 12.171875 6.21875 
Q 5.515625 13.875 5.515625 27.296875 
Q 5.515625 40.765625 12.171875 48.375 
Q 18.84375 56 30.609375 56 
z
" id="DejaVuSans-6f"/>
      <path d="M 18.3125 70.21875 
L 18.3125 54.6875 
L 36.8125 54.6875 
L 36.8125 47.703125 
L 18.3125 47.703125 
L 18.3125 18.015625 
Q 18.3125 11.328125 20.140625 9.421875 
Q 21.96875 7.515625 27.59375 7.515625 
L 36.8125 7.515625 
L 36.8125 0 
L 27.59375 0 
Q 17.1875 0 13.234375 3.875 
Q 9.28125 7.765625 9.28125 18.015625 
L 9.28125 47.703125 
L 2.6875 47.703125 
L 2.6875 54.6875 
L 9.28125 54.6875 
L 9.28125 70.21875 
z
" id="DejaVuSans-74"/>
      <path d="M 54.890625 54.6875 
L 35.109375 28.078125 
L 55.90625 0 
L 45.3125 0 
L 29.390625 21.484375 
L 13.484375 0 
L 2.875 0 
L 24.125 28.609375 
L 4.6875 54.6875 
L 15.28125 54.6875 
L 29.78125 35.203125 
L 44.28125 54.6875 
z
" id="DejaVuSans-78"/>
     </defs>
     <g transform="translate(20.2375 186.149875)rotate(-90)scale(0.1 -0.1)">
      <use xlink:href="#DejaVuSans-72"/>
      <use x="41.082031" xlink:href="#DejaVuSans-6f"/>
      <use x="102.263672" xlink:href="#DejaVuSans-74"/>
      <use x="141.472656" xlink:href="#DejaVuSans-20"/>
      <use x="173.259766" xlink:href="#DejaVuSans-78"/>
     </g>
    </g>
   </g>
   <g id="line2d_105">
    <path clip-path="url(#p2d09bd9a62)" d="M 73.832727 196.659427 
L 74.523492 191.333729 
L 75.214926 218.226055 
L 75.90502 224.153689 
L 76.592626 193.936785 
L 77.283397 225.152068 
L 77.974161 202.890935 
L 78.664925 201.421819 
L 79.355563 219.241735 
L 80.046327 199.273175 
L 80.737091 203.090951 
L 81.427856 225.912744 
L 82.121046 203.5082 
L 82.81181 202.701657 
L 83.502574 234.499999 
L 84.193339 210.104448 
L 84.885317 209.397429 
L 85.576087 215.620181 
L 86.266845 200.806308 
L 86.957609 201.146095 
L 87.645678 219.973095 
L 88.336449 205.040951 
L 89.027213 215.491986 
L 89.717977 188.981225 
M 91.097413 208.458598 
L 91.788177 242.403919 
L 92.478941 248.040057 
M 93.85931 238.972044 
L 94.550073 224.147728 
L 95.240837 240.881207 
M 97.313745 175.893315 
L 98.004515 152.111455 
L 98.69634 139.058363 
L 99.387113 142.432962 
M 103.530388 266.174001 
L 104.221159 245.063242 
L 104.91077 267.434844 
M 109.747719 129.042335 
L 110.439147 130.025573 
M 113.201961 232.810336 
L 113.892725 246.639426 
L 114.583489 265.299501 
L 115.274253 275.930682 
L 115.964375 250.472434 
L 116.65514 250.748069 
L 117.345904 262.458849 
L 118.036668 243.326447 
L 118.727419 236.917365 
L 120.108955 204.170163 
L 120.799719 175.922615 
L 121.492955 134.549116 
L 122.183719 129.346118 
L 122.874484 136.016207 
L 123.565263 169.662296 
L 124.256745 188.655799 
L 124.94715 216.808264 
L 125.637915 258.500933 
L 126.328679 251.322522 
M 128.39776 258.768771 
L 129.088525 229.286678 
L 129.780371 207.435455 
L 130.471135 192.486482 
M 131.85267 158.012971 
L 132.545623 163.927093 
M 133.927152 155.232993 
L 134.617916 183.380293 
L 135.306719 201.926229 
L 135.997483 206.095987 
L 136.688248 238.890307 
M 139.449273 248.10087 
L 140.140037 247.49546 
L 140.830801 219.083157 
M 142.214761 160.851155 
L 142.905525 137.299147 
L 143.596289 131.586938 
L 144.286767 139.170851 
L 144.977531 164.919787 
L 146.35906 260.151937 
M 150.502452 190.745081 
L 151.193216 147.644305 
M 152.575826 149.201175 
L 153.266591 168.649231 
L 153.957362 178.819952 
L 154.648118 223.203401 
M 157.408739 280.640681 
L 158.099666 292.648606 
L 158.790424 265.492534 
L 159.481195 227.329967 
L 160.171959 181.837919 
M 162.247225 138.731062 
L 162.937989 160.039801 
M 164.317851 186.849236 
L 165.008615 225.341996 
M 168.461086 244.612688 
L 169.151851 227.136129 
M 172.607436 172.259721 
L 173.298795 201.827612 
M 178.823097 242.911274 
L 179.513862 189.286236 
L 180.204626 157.789835 
M 181.588771 144.731046 
L 182.279529 179.732397 
L 182.9703 175.549382 
M 194.710193 281.969845 
L 196.091715 240.908977 
L 196.78248 219.782053 
L 197.47528 191.98774 
L 198.166037 210.457518 
L 198.856808 180.471273 
L 199.547572 126.667243 
L 200.238337 108.481495 
L 200.930058 148.689564 
L 201.620822 198.902216 
L 203.002357 252.135922 
M 204.381644 272.295391 
L 205.072415 267.084912 
M 206.45412 223.263718 
L 207.144912 186.230086 
L 207.835649 157.623182 
L 208.52642 133.960516 
L 209.219434 141.108482 
L 211.291726 207.666745 
L 211.981532 238.22079 
M 213.363061 264.462961 
L 214.053825 274.933919 
L 214.743692 247.283924 
L 216.125229 204.118581 
M 221.654251 258.070664 
L 222.345016 295.488 
L 223.036742 283.565734 
L 223.727506 268.137055 
L 224.41827 265.805994 
L 225.109035 255.066885 
L 225.799292 249.835391 
L 226.490056 229.092287 
L 227.871591 179.268216 
L 228.562668 184.656001 
L 229.253439 157.932237 
L 229.944197 150.495035 
L 230.634968 165.874572 
L 231.326137 185.978965 
L 232.016901 188.186749 
L 232.707666 183.255598 
L 234.089354 218.030996 
M 235.474132 216.911833 
L 236.164896 213.624256 
L 237.548874 271.504833 
L 238.239644 274.854549 
L 238.930409 251.228825 
L 239.621173 220.938306 
M 241.685105 251.456742 
L 243.066714 187.16559 
L 243.757478 169.681086 
L 244.448243 166.466425 
L 245.139014 167.168756 
L 245.830465 179.940418 
L 246.521229 189.486314 
L 247.211993 192.519321 
L 247.902757 184.213177 
L 248.594472 180.539685 
L 249.285244 195.510272 
L 249.976007 186.252508 
L 250.666771 192.831565 
M 252.739764 222.538254 
L 253.430537 227.849656 
M 256.188594 251.205702 
L 257.570381 216.324245 
L 258.26116 213.936784 
L 258.95191 203.653235 
M 260.335263 220.077671 
L 261.026026 191.756497 
L 261.71679 157.487359 
L 262.407215 141.67147 
L 263.097979 147.677338 
L 263.788744 168.224877 
L 264.479508 160.393815 
M 315.59694 147.739123 
L 316.286879 118.486165 
M 330.107021 213.188316 
L 330.797792 226.158319 
L 331.488556 218.936482 
M 368.095087 203.682971 
L 368.785851 201.204273 
M 383.292963 187.907604 
L 383.983311 178.547301 
L 384.674075 172.807587 
M 391.579121 216.391618 
" style="fill:none;stroke:#ff0000;stroke-linecap:square;"/>
   </g>
   <g id="line2d_106">
    <path clip-path="url(#p2d09bd9a62)" d="M 73.832727 203.466424 
L 74.523492 181.283642 
L 75.214926 208.3072 
L 75.90502 224.861608 
L 76.592626 211.482659 
L 77.283397 225.673223 
L 77.974161 209.90045 
L 78.664925 190.579864 
L 79.355563 216.923653 
L 80.046327 208.533837 
L 80.737091 198.198762 
L 81.427856 226.137198 
L 82.121046 207.202072 
L 82.81181 199.91707 
L 83.502574 232.352852 
L 84.193339 215.108153 
L 84.885317 208.195095 
L 85.576087 216.655247 
L 86.266845 200.925188 
L 86.957609 201.266336 
L 87.645678 217.424819 
L 88.336449 208.582549 
L 89.027213 215.103637 
L 89.717977 190.163114 
M 91.097413 202.522315 
L 91.788177 241.865876 
L 92.478941 244.09945 
M 93.85931 238.285272 
L 94.550073 222.592028 
L 95.240837 234.644309 
M 97.313745 180.845477 
L 98.004515 161.676465 
L 98.69634 136.706766 
L 99.387113 139.536179 
M 103.530388 258.105658 
L 104.221159 243.217373 
L 104.91077 267.794805 
M 109.747719 131.136647 
L 110.439147 138.809372 
M 113.201961 230.283888 
L 113.892725 251.550317 
L 114.583489 266.055681 
L 115.274253 275.171203 
L 115.964375 256.559489 
L 116.65514 248.718779 
L 117.345904 248.21412 
L 118.036668 237.579296 
L 118.727419 238.407194 
L 119.418184 222.16217 
L 120.108955 211.162761 
L 121.492955 141.516738 
L 122.183719 127.408641 
L 122.874484 135.110914 
L 123.565263 168.488996 
L 124.94715 212.344064 
L 125.637915 256.911077 
L 126.328679 258.042117 
M 128.39776 265.913538 
L 129.780371 208.288064 
L 130.471135 194.437 
M 131.85267 151.990827 
L 132.545623 164.247678 
M 133.927152 153.543353 
L 134.617916 185.124616 
L 135.306719 206.616012 
L 135.997483 202.319762 
L 136.688248 232.945143 
M 139.449273 247.793827 
L 140.140037 247.640934 
L 140.830801 223.293159 
M 142.214761 171.713335 
L 142.905525 132.550362 
L 143.596289 132.311566 
L 144.286767 137.865053 
L 144.977531 158.980584 
L 145.668295 213.150689 
L 146.35906 256.282234 
M 150.502452 189.743039 
L 151.193216 153.873746 
M 152.575826 142.084366 
L 153.266591 172.675559 
L 153.957362 173.834336 
L 154.648118 211.874205 
M 157.408739 284.450868 
L 158.099666 272.732619 
L 158.790424 265.454214 
L 160.171959 189.991327 
M 162.247225 143.069507 
L 162.937989 154.912198 
M 164.317851 186.9502 
L 165.008615 223.645432 
M 168.461086 241.619967 
L 169.151851 224.834407 
M 172.607436 167.631095 
L 173.298795 202.636027 
M 178.823097 246.044357 
L 179.513862 188.490154 
L 180.204626 160.104716 
M 181.588771 137.447694 
L 182.279529 174.612295 
L 182.9703 175.832694 
M 194.710193 282.485161 
L 195.400951 256.497958 
L 196.091715 243.619268 
L 196.78248 220.468271 
L 197.47528 191.579421 
L 198.166037 208.191111 
L 198.856808 187.092098 
L 199.547572 132.37812 
L 200.238337 107.700364 
L 200.930058 138.209751 
L 201.620822 191.412823 
L 202.311586 231.951695 
L 203.002357 250.568946 
M 204.381644 271.162385 
L 205.072415 267.108644 
M 206.45412 229.961429 
L 207.144912 188.57514 
L 208.52642 136.151115 
L 209.219434 131.741469 
L 210.600962 185.699911 
L 211.291726 203.826542 
L 211.981532 237.892903 
M 213.363061 266.723825 
L 214.053825 259.41038 
L 214.743692 243.011829 
L 216.125229 206.41836 
M 221.654251 253.522127 
L 222.345016 278.561872 
L 223.036742 278.257039 
L 223.727506 270.77687 
L 224.41827 265.768283 
L 225.109035 255.541378 
L 225.799292 251.529892 
L 227.180827 208.52498 
L 227.871591 181.139248 
L 228.562668 188.206153 
L 229.253439 162.891815 
L 229.944197 146.668528 
L 231.326137 182.430311 
L 232.016901 188.359393 
L 232.707666 187.776774 
L 233.39843 197.05457 
L 234.089354 215.303761 
M 235.474132 219.65781 
L 236.164896 214.256492 
L 236.85566 237.961226 
L 237.548874 267.988797 
L 238.239644 278.635576 
L 238.930409 255.381583 
L 239.621173 218.72766 
M 241.685105 252.542768 
L 242.375876 225.957036 
L 243.066714 185.742434 
L 243.757478 175.081282 
L 244.448243 169.057766 
L 245.139014 166.1432 
L 245.830465 178.09976 
L 246.521229 187.894444 
L 247.211993 194.698895 
L 247.902757 185.404782 
L 248.594472 179.500194 
L 249.285244 194.648555 
L 249.976007 188.046632 
L 250.666771 189.941298 
M 252.739764 224.813708 
L 253.430537 227.094404 
M 256.188594 249.511496 
L 256.879617 235.935536 
L 257.570381 217.988027 
L 258.26116 212.320425 
L 258.95191 202.769052 
M 260.335263 221.473917 
L 261.026026 193.916837 
L 261.71679 161.330279 
L 262.407215 140.989182 
L 263.097979 145.660003 
L 263.788744 164.106326 
L 264.479508 163.011188 
M 315.59694 147.387246 
L 316.286879 123.533955 
M 330.107021 207.592354 
L 330.797792 222.830563 
L 331.488556 215.851978 
M 368.095087 203.056467 
L 368.785851 200.716612 
M 383.292963 192.427941 
L 383.983311 177.514422 
L 384.674075 175.763349 
M 391.579121 224.196682 
" style="fill:none;stroke:#0000ff;stroke-linecap:square;"/>
   </g>
   <g id="line2d_107">
    <path clip-path="url(#p2d09bd9a62)" d="M 95.932216 219.924829 
L 96.622987 188.158274 
M 100.077877 142.750855 
L 100.768641 175.552716 
L 101.458095 230.469402 
L 102.148859 254.488777 
L 102.839623 243.478138 
M 105.601534 268.298793 
L 106.983069 218.797427 
L 107.67542 227.367105 
L 108.366184 196.705743 
L 109.056955 156.750324 
M 111.129911 165.445462 
L 111.820676 184.759668 
L 112.51144 209.038148 
M 127.016225 249.07621 
L 127.706996 284.536484 
M 147.047377 258.063825 
L 147.738141 240.614252 
M 149.11967 242.980826 
L 149.811687 217.88077 
M 155.33644 245.560905 
L 156.027204 272.082366 
L 156.717968 290.96752 
M 160.865696 161.796793 
L 161.55646 146.734454 
M 165.69938 255.908802 
L 166.388793 255.598219 
L 167.079558 251.416617 
L 167.770322 256.234049 
M 169.843973 201.943728 
L 170.534753 163.189102 
L 171.225502 136.591314 
L 171.916266 122.205961 
M 176.750248 278.385024 
L 177.441019 263.354848 
L 178.132333 258.544883 
M 185.040221 285.649725 
L 185.730986 275.962516 
L 186.421381 262.054365 
M 187.80291 195.36534 
L 188.49368 146.214969 
L 191.94738 212.256385 
L 192.638151 231.795343 
L 193.328915 241.022393 
L 194.01968 265.079125 
M 216.815991 163.383199 
L 217.508636 147.566016 
L 218.199407 127.629239 
M 219.580936 168.399458 
L 220.272716 210.899857 
L 220.963487 222.095986 
M 240.303576 245.769346 
L 240.99434 238.93373 
M 251.358236 211.578207 
L 252.049 227.310747 
M 254.116301 243.90955 
L 254.807065 244.197425 
L 255.49783 251.57345 
M 265.168327 172.637466 
L 267.240627 266.634953 
L 267.931391 267.101444 
L 268.621706 255.506385 
L 269.31247 233.789411 
L 270.003241 208.274269 
L 270.694702 222.043953 
L 271.387287 209.327761 
L 272.078052 181.446898 
L 272.768816 189.042737 
L 273.45958 206.474233 
L 274.151726 211.703711 
L 275.533255 155.120872 
L 276.224019 152.123258 
L 276.914999 169.023787 
L 278.296528 219.686304 
L 278.987299 253.424657 
L 279.675411 250.652028 
M 281.056933 158.767059 
L 281.747704 124.458145 
L 282.439865 117.536079 
L 283.821394 251.906445 
L 284.512158 235.264958 
L 285.2016 194.313874 
L 286.583128 157.848991 
L 287.273899 168.979726 
L 287.965319 207.509217 
L 288.656083 262.798129 
L 289.346848 261.631603 
L 290.037619 250.421958 
L 290.727619 258.193614 
L 291.418383 234.56042 
L 292.109147 153.919469 
L 292.799912 142.444375 
L 293.492838 161.92621 
L 294.183602 163.918019 
L 294.874897 167.284479 
L 295.565129 175.224503 
L 296.94481 99.34833 
L 297.635575 83.25953 
L 298.326347 89.350066 
L 299.017111 99.661947 
L 299.711232 156.115074 
L 300.401996 189.887711 
L 301.09276 181.200288 
L 301.783525 182.430698 
L 302.472105 198.531175 
L 303.16287 183.355744 
L 303.853634 110.829506 
L 304.544398 53.568 
L 305.236103 75.539548 
L 305.926867 131.280688 
L 306.617631 168.523724 
L 307.308396 157.714416 
L 307.997679 128.541656 
L 308.688444 141.734446 
L 309.379215 144.474766 
L 310.069979 153.80025 
L 310.762845 153.593234 
L 311.453609 184.998427 
L 312.144373 191.18325 
L 312.835137 136.478056 
L 313.524639 96.914534 
L 314.906175 141.767671 
M 316.977643 71.430388 
L 317.668408 68.79191 
L 318.359172 117.255067 
L 319.054195 140.463754 
L 319.74447 171.481137 
M 321.126005 197.174782 
L 321.813621 196.520354 
L 323.195149 218.353742 
L 323.885914 197.324102 
L 324.578163 190.933667 
L 325.268928 204.096846 
M 326.650469 194.501581 
L 327.344188 110.791054 
L 328.034952 54.345873 
M 332.179321 194.358234 
L 332.870085 150.807022 
L 333.56107 127.049744 
L 334.251834 163.16576 
L 334.942599 182.170271 
L 335.633363 163.092879 
L 336.323154 129.242252 
L 337.013926 113.956552 
L 337.704691 114.176013 
L 338.395455 171.103219 
L 339.086069 195.940154 
L 339.776834 190.156205 
L 340.467598 173.434529 
L 341.158369 142.33725 
L 341.847481 101.350459 
L 342.538237 117.58349 
L 343.229568 138.380449 
M 344.607811 181.183716 
L 345.298576 177.121158 
L 345.98934 159.6401 
L 346.680104 155.703481 
L 347.370732 155.014099 
L 348.061496 159.863304 
L 348.752267 186.703173 
L 349.443031 208.693462 
L 350.133119 172.735631 
L 350.82389 118.964777 
L 351.514654 159.692651 
L 352.205412 169.249703 
L 352.896742 143.507737 
L 353.587498 122.148078 
L 354.278297 118.043712 
L 354.969035 159.020078 
L 355.66224 180.067053 
L 356.353004 158.816047 
L 357.043769 169.583733 
L 357.734533 201.643401 
L 358.422891 211.530445 
L 359.804426 165.856572 
L 360.495191 175.67944 
L 361.186558 202.333409 
L 361.877322 214.455934 
L 362.568093 195.707088 
L 363.258857 159.953638 
L 363.949877 176.824679 
L 364.640546 201.296297 
L 365.331316 204.093034 
L 366.022081 224.978613 
L 366.712845 235.826401 
L 367.404322 217.768809 
M 369.476615 191.717428 
L 370.168351 185.718665 
L 370.859122 186.726047 
L 371.549886 194.165103 
L 372.240651 240.72732 
L 372.932395 227.247386 
L 373.623159 184.464333 
M 375.004694 187.369545 
L 375.696405 175.368477 
L 376.38717 218.237712 
L 377.077934 235.186069 
L 377.768698 226.886493 
L 379.839748 198.750379 
L 380.530512 203.234751 
L 381.220664 210.566905 
L 381.911435 215.598473 
L 382.602199 201.239402 
M 385.364839 185.552731 
L 386.055604 207.064949 
L 386.744968 207.688558 
L 387.435732 202.71642 
L 388.126497 195.178241 
L 388.817261 191.172735 
L 390.888363 245.587102 
M 392.269747 192.876786 
L 392.960511 221.11597 
L 393.651275 228.277285 
L 394.34204 228.234297 
L 395.03298 219.776391 
L 395.723745 222.932849 
L 396.414509 216.103566 
L 397.105273 214.717145 
L 397.796044 214.166994 
L 398.487273 210.440513 
L 398.487273 210.440513 
" style="fill:none;stroke:#008000;stroke-linecap:square;"/>
   </g>
   <g id="patch_3">
    <path d="M 57.6 307.584 
L 57.6 41.472 
" style="fill:none;stroke:#000000;stroke-linecap:square;stroke-linejoin:miter;stroke-width:0.8;"/>
   </g>
   <g id="patch_4">
    <path d="M 414.72 307.584 
L 414.72 41.472 
" style="fill:none;stroke:#000000;stroke-linecap:square;stroke-linejoin:miter;stroke-width:0.8;"/>
   </g>
   <g id="patch_5">
    <path d="M 57.6 307.584 
L 414.72 307.584 
" style="fill:none;stroke:#000000;stroke-linecap:square;stroke-linejoin:miter;stroke-width:0.8;"/>
   </g>
   <g id="patch_6">
    <path d="M 57.6 41.472 
L 414.72 41.472 
" style="fill:none;stroke:#000000;stroke-linecap:square;stroke-linejoin:miter;stroke-width:0.8;"/>
   </g>
   <g id="text_12">
    <!-- Rel Gt Rot X Plot -->
    <defs>
     <path d="M 44.390625 34.1875 
Q 47.5625 33.109375 50.5625 29.59375 
Q 53.5625 26.078125 56.59375 19.921875 
L 66.609375 0 
L 56 0 
L 46.6875 18.703125 
Q 43.0625 26.03125 39.671875 28.421875 
Q 36.28125 30.8125 30.421875 30.8125 
L 19.671875 30.8125 
L 19.671875 0 
L 9.8125 0 
L 9.8125 72.90625 
L 32.078125 72.90625 
Q 44.578125 72.90625 50.734375 67.671875 
Q 56.890625 62.453125 56.890625 51.90625 
Q 56.890625 45.015625 53.6875 40.46875 
Q 50.484375 35.9375 44.390625 34.1875 
z
M 19.671875 64.796875 
L 19.671875 38.921875 
L 32.078125 38.921875 
Q 39.203125 38.921875 42.84375 42.21875 
Q 46.484375 45.515625 46.484375 51.90625 
Q 46.484375 58.296875 42.84375 61.546875 
Q 39.203125 64.796875 32.078125 64.796875 
z
" id="DejaVuSans-52"/>
     <path d="M 9.421875 75.984375 
L 18.40625 75.984375 
L 18.40625 0 
L 9.421875 0 
z
" id="DejaVuSans-6c"/>
     <path d="M 59.515625 10.40625 
L 59.515625 29.984375 
L 43.40625 29.984375 
L 43.40625 38.09375 
L 69.28125 38.09375 
L 69.28125 6.78125 
Q 63.578125 2.734375 56.6875 0.65625 
Q 49.8125 -1.421875 42 -1.421875 
Q 24.90625 -1.421875 15.25 8.5625 
Q 5.609375 18.5625 5.609375 36.375 
Q 5.609375 54.25 15.25 64.234375 
Q 24.90625 74.21875 42 74.21875 
Q 49.125 74.21875 55.546875 72.453125 
Q 61.96875 70.703125 67.390625 67.28125 
L 67.390625 56.78125 
Q 61.921875 61.421875 55.765625 63.765625 
Q 49.609375 66.109375 42.828125 66.109375 
Q 29.4375 66.109375 22.71875 58.640625 
Q 16.015625 51.171875 16.015625 36.375 
Q 16.015625 21.625 22.71875 14.15625 
Q 29.4375 6.6875 42.828125 6.6875 
Q 48.046875 6.6875 52.140625 7.59375 
Q 56.25 8.5 59.515625 10.40625 
z
" id="DejaVuSans-47"/>
     <path d="M 6.296875 72.90625 
L 16.890625 72.90625 
L 35.015625 45.796875 
L 53.21875 72.90625 
L 63.8125 72.90625 
L 40.375 37.890625 
L 65.375 0 
L 54.78125 0 
L 34.28125 31 
L 13.625 0 
L 2.984375 0 
L 29 38.921875 
z
" id="DejaVuSans-58"/>
     <path d="M 19.671875 64.796875 
L 19.671875 37.40625 
L 32.078125 37.40625 
Q 38.96875 37.40625 42.71875 40.96875 
Q 46.484375 44.53125 46.484375 51.125 
Q 46.484375 57.671875 42.71875 61.234375 
Q 38.96875 64.796875 32.078125 64.796875 
z
M 9.8125 72.90625 
L 32.078125 72.90625 
Q 44.34375 72.90625 50.609375 67.359375 
Q 56.890625 61.8125 56.890625 51.125 
Q 56.890625 40.328125 50.609375 34.8125 
Q 44.34375 29.296875 32.078125 29.296875 
L 19.671875 29.296875 
L 19.671875 0 
L 9.8125 0 
z
" id="DejaVuSans-50"/>
    </defs>
    <g transform="translate(186.400312 35.472)scale(0.12 -0.12)">
     <use xlink:href="#DejaVuSans-52"/>
     <use x="69.419922" xlink:href="#DejaVuSans-65"/>
     <use x="130.943359" xlink:href="#DejaVuSans-6c"/>
     <use x="158.726562" xlink:href="#DejaVuSans-20"/>
     <use x="190.513672" xlink:href="#DejaVuSans-47"/>
     <use x="268.003906" xlink:href="#DejaVuSans-74"/>
     <use x="307.212891" xlink:href="#DejaVuSans-20"/>
     <use x="339" xlink:href="#DejaVuSans-52"/>
     <use x="408.419922" xlink:href="#DejaVuSans-6f"/>
     <use x="469.601562" xlink:href="#DejaVuSans-74"/>
     <use x="508.810547" xlink:href="#DejaVuSans-20"/>
     <use x="540.597656" xlink:href="#DejaVuSans-58"/>
     <use x="609.103516" xlink:href="#DejaVuSans-20"/>
     <use x="640.890625" xlink:href="#DejaVuSans-50"/>
     <use x="701.193359" xlink:href="#DejaVuSans-6c"/>
     <use x="728.976562" xlink:href="#DejaVuSans-6f"/>
     <use x="790.158203" xlink:href="#DejaVuSans-74"/>
    </g>
   </g>
  </g>
 </g>
 <defs>
  <clipPath id="p2d09bd9a62">
   <rect height="266.112" width="357.12" x="57.6" y="41.472"/>
  </clipPath>
 </defs>
</svg>
