<?xml version="1.0" encoding="utf-8" standalone="no"?>
<!DOCTYPE svg PUBLIC "-//W3C//DTD SVG 1.1//EN"
  "http://www.w3.org/Graphics/SVG/1.1/DTD/svg11.dtd">
<!-- Created with matplotlib (http://matplotlib.org/) -->
<svg height="345.6pt" version="1.1" viewBox="0 0 460.8 345.6" width="460.8pt" xmlns="http://www.w3.org/2000/svg" xmlns:xlink="http://www.w3.org/1999/xlink">
 <defs>
  <style type="text/css">
*{stroke-linecap:butt;stroke-linejoin:round;}
  </style>
 </defs>
 <g id="figure_1">
  <g id="patch_1">
   <path d="M 0 345.6 
L 460.8 345.6 
L 460.8 0 
L 0 0 
z
" style="fill:#ffffff;"/>
  </g>
  <g id="axes_1">
   <g id="patch_2">
    <path d="M 57.6 307.584 
L 414.72 307.584 
L 414.72 41.472 
L 57.6 41.472 
z
" style="fill:#ffffff;"/>
   </g>
   <g id="matplotlib.axis_1">
    <g id="xtick_1">
     <g id="line2d_1">
      <path clip-path="url(#p298e869a84)" d="M 70.555248 307.584 
L 70.555248 41.472 
" style="fill:none;stroke:#b0b0b0;stroke-linecap:square;stroke-width:0.8;"/>
     </g>
     <g id="line2d_2">
      <defs>
       <path d="M 0 0 
L 0 3.5 
" id="m7128da0ecd" style="stroke:#000000;stroke-width:0.8;"/>
      </defs>
      <g>
       <use style="stroke:#000000;stroke-width:0.8;" x="70.555248" xlink:href="#m7128da0ecd" y="307.584"/>
      </g>
     </g>
     <g id="text_1">
      <!-- 0 -->
      <defs>
       <path d="M 31.78125 66.40625 
Q 24.171875 66.40625 20.328125 58.90625 
Q 16.5 51.421875 16.5 36.375 
Q 16.5 21.390625 20.328125 13.890625 
Q 24.171875 6.390625 31.78125 6.390625 
Q 39.453125 6.390625 43.28125 13.890625 
Q 47.125 21.390625 47.125 36.375 
Q 47.125 51.421875 43.28125 58.90625 
Q 39.453125 66.40625 31.78125 66.40625 
z
M 31.78125 74.21875 
Q 44.046875 74.21875 50.515625 64.515625 
Q 56.984375 54.828125 56.984375 36.375 
Q 56.984375 17.96875 50.515625 8.265625 
Q 44.046875 -1.421875 31.78125 -1.421875 
Q 19.53125 -1.421875 13.0625 8.265625 
Q 6.59375 17.96875 6.59375 36.375 
Q 6.59375 54.828125 13.0625 64.515625 
Q 19.53125 74.21875 31.78125 74.21875 
z
" id="DejaVuSans-30"/>
      </defs>
      <g transform="translate(67.373998 322.182437)scale(0.1 -0.1)">
       <use xlink:href="#DejaVuSans-30"/>
      </g>
     </g>
    </g>
    <g id="xtick_2">
     <g id="line2d_3">
      <path clip-path="url(#p298e869a84)" d="M 139.776886 307.584 
L 139.776886 41.472 
" style="fill:none;stroke:#b0b0b0;stroke-linecap:square;stroke-width:0.8;"/>
     </g>
     <g id="line2d_4">
      <g>
       <use style="stroke:#000000;stroke-width:0.8;" x="139.776886" xlink:href="#m7128da0ecd" y="307.584"/>
      </g>
     </g>
     <g id="text_2">
      <!-- 10 -->
      <defs>
       <path d="M 12.40625 8.296875 
L 28.515625 8.296875 
L 28.515625 63.921875 
L 10.984375 60.40625 
L 10.984375 69.390625 
L 28.421875 72.90625 
L 38.28125 72.90625 
L 38.28125 8.296875 
L 54.390625 8.296875 
L 54.390625 0 
L 12.40625 0 
z
" id="DejaVuSans-31"/>
      </defs>
      <g transform="translate(133.414386 322.182437)scale(0.1 -0.1)">
       <use xlink:href="#DejaVuSans-31"/>
       <use x="63.623047" xlink:href="#DejaVuSans-30"/>
      </g>
     </g>
    </g>
    <g id="xtick_3">
     <g id="line2d_5">
      <path clip-path="url(#p298e869a84)" d="M 208.998523 307.584 
L 208.998523 41.472 
" style="fill:none;stroke:#b0b0b0;stroke-linecap:square;stroke-width:0.8;"/>
     </g>
     <g id="line2d_6">
      <g>
       <use style="stroke:#000000;stroke-width:0.8;" x="208.998523" xlink:href="#m7128da0ecd" y="307.584"/>
      </g>
     </g>
     <g id="text_3">
      <!-- 20 -->
      <defs>
       <path d="M 19.1875 8.296875 
L 53.609375 8.296875 
L 53.609375 0 
L 7.328125 0 
L 7.328125 8.296875 
Q 12.9375 14.109375 22.625 23.890625 
Q 32.328125 33.6875 34.8125 36.53125 
Q 39.546875 41.84375 41.421875 45.53125 
Q 43.3125 49.21875 43.3125 52.78125 
Q 43.3125 58.59375 39.234375 62.25 
Q 35.15625 65.921875 28.609375 65.921875 
Q 23.96875 65.921875 18.8125 64.3125 
Q 13.671875 62.703125 7.8125 59.421875 
L 7.8125 69.390625 
Q 13.765625 71.78125 18.9375 73 
Q 24.125 74.21875 28.421875 74.21875 
Q 39.75 74.21875 46.484375 68.546875 
Q 53.21875 62.890625 53.21875 53.421875 
Q 53.21875 48.921875 51.53125 44.890625 
Q 49.859375 40.875 45.40625 35.40625 
Q 44.1875 33.984375 37.640625 27.21875 
Q 31.109375 20.453125 19.1875 8.296875 
z
" id="DejaVuSans-32"/>
      </defs>
      <g transform="translate(202.636023 322.182437)scale(0.1 -0.1)">
       <use xlink:href="#DejaVuSans-32"/>
       <use x="63.623047" xlink:href="#DejaVuSans-30"/>
      </g>
     </g>
    </g>
    <g id="xtick_4">
     <g id="line2d_7">
      <path clip-path="url(#p298e869a84)" d="M 278.220161 307.584 
L 278.220161 41.472 
" style="fill:none;stroke:#b0b0b0;stroke-linecap:square;stroke-width:0.8;"/>
     </g>
     <g id="line2d_8">
      <g>
       <use style="stroke:#000000;stroke-width:0.8;" x="278.220161" xlink:href="#m7128da0ecd" y="307.584"/>
      </g>
     </g>
     <g id="text_4">
      <!-- 30 -->
      <defs>
       <path d="M 40.578125 39.3125 
Q 47.65625 37.796875 51.625 33 
Q 55.609375 28.21875 55.609375 21.1875 
Q 55.609375 10.40625 48.1875 4.484375 
Q 40.765625 -1.421875 27.09375 -1.421875 
Q 22.515625 -1.421875 17.65625 -0.515625 
Q 12.796875 0.390625 7.625 2.203125 
L 7.625 11.71875 
Q 11.71875 9.328125 16.59375 8.109375 
Q 21.484375 6.890625 26.8125 6.890625 
Q 36.078125 6.890625 40.9375 10.546875 
Q 45.796875 14.203125 45.796875 21.1875 
Q 45.796875 27.640625 41.28125 31.265625 
Q 36.765625 34.90625 28.71875 34.90625 
L 20.21875 34.90625 
L 20.21875 43.015625 
L 29.109375 43.015625 
Q 36.375 43.015625 40.234375 45.921875 
Q 44.09375 48.828125 44.09375 54.296875 
Q 44.09375 59.90625 40.109375 62.90625 
Q 36.140625 65.921875 28.71875 65.921875 
Q 24.65625 65.921875 20.015625 65.03125 
Q 15.375 64.15625 9.8125 62.3125 
L 9.8125 71.09375 
Q 15.4375 72.65625 20.34375 73.4375 
Q 25.25 74.21875 29.59375 74.21875 
Q 40.828125 74.21875 47.359375 69.109375 
Q 53.90625 64.015625 53.90625 55.328125 
Q 53.90625 49.265625 50.4375 45.09375 
Q 46.96875 40.921875 40.578125 39.3125 
z
" id="DejaVuSans-33"/>
      </defs>
      <g transform="translate(271.857661 322.182437)scale(0.1 -0.1)">
       <use xlink:href="#DejaVuSans-33"/>
       <use x="63.623047" xlink:href="#DejaVuSans-30"/>
      </g>
     </g>
    </g>
    <g id="xtick_5">
     <g id="line2d_9">
      <path clip-path="url(#p298e869a84)" d="M 347.441799 307.584 
L 347.441799 41.472 
" style="fill:none;stroke:#b0b0b0;stroke-linecap:square;stroke-width:0.8;"/>
     </g>
     <g id="line2d_10">
      <g>
       <use style="stroke:#000000;stroke-width:0.8;" x="347.441799" xlink:href="#m7128da0ecd" y="307.584"/>
      </g>
     </g>
     <g id="text_5">
      <!-- 40 -->
      <defs>
       <path d="M 37.796875 64.3125 
L 12.890625 25.390625 
L 37.796875 25.390625 
z
M 35.203125 72.90625 
L 47.609375 72.90625 
L 47.609375 25.390625 
L 58.015625 25.390625 
L 58.015625 17.1875 
L 47.609375 17.1875 
L 47.609375 0 
L 37.796875 0 
L 37.796875 17.1875 
L 4.890625 17.1875 
L 4.890625 26.703125 
z
" id="DejaVuSans-34"/>
      </defs>
      <g transform="translate(341.079299 322.182437)scale(0.1 -0.1)">
       <use xlink:href="#DejaVuSans-34"/>
       <use x="63.623047" xlink:href="#DejaVuSans-30"/>
      </g>
     </g>
    </g>
    <g id="xtick_6">
     <g id="line2d_11">
      <path clip-path="url(#p298e869a84)" d="M 84.399575 307.584 
L 84.399575 41.472 
" style="fill:none;stroke:#b0b0b0;stroke-linecap:square;stroke-width:0.8;"/>
     </g>
     <g id="line2d_12">
      <defs>
       <path d="M 0 0 
L 0 2 
" id="m4fba569482" style="stroke:#000000;stroke-width:0.6;"/>
      </defs>
      <g>
       <use style="stroke:#000000;stroke-width:0.6;" x="84.399575" xlink:href="#m4fba569482" y="307.584"/>
      </g>
     </g>
    </g>
    <g id="xtick_7">
     <g id="line2d_13">
      <path clip-path="url(#p298e869a84)" d="M 98.243903 307.584 
L 98.243903 41.472 
" style="fill:none;stroke:#b0b0b0;stroke-linecap:square;stroke-width:0.8;"/>
     </g>
     <g id="line2d_14">
      <g>
       <use style="stroke:#000000;stroke-width:0.6;" x="98.243903" xlink:href="#m4fba569482" y="307.584"/>
      </g>
     </g>
    </g>
    <g id="xtick_8">
     <g id="line2d_15">
      <path clip-path="url(#p298e869a84)" d="M 112.08823 307.584 
L 112.08823 41.472 
" style="fill:none;stroke:#b0b0b0;stroke-linecap:square;stroke-width:0.8;"/>
     </g>
     <g id="line2d_16">
      <g>
       <use style="stroke:#000000;stroke-width:0.6;" x="112.08823" xlink:href="#m4fba569482" y="307.584"/>
      </g>
     </g>
    </g>
    <g id="xtick_9">
     <g id="line2d_17">
      <path clip-path="url(#p298e869a84)" d="M 125.932558 307.584 
L 125.932558 41.472 
" style="fill:none;stroke:#b0b0b0;stroke-linecap:square;stroke-width:0.8;"/>
     </g>
     <g id="line2d_18">
      <g>
       <use style="stroke:#000000;stroke-width:0.6;" x="125.932558" xlink:href="#m4fba569482" y="307.584"/>
      </g>
     </g>
    </g>
    <g id="xtick_10">
     <g id="line2d_19">
      <path clip-path="url(#p298e869a84)" d="M 153.621213 307.584 
L 153.621213 41.472 
" style="fill:none;stroke:#b0b0b0;stroke-linecap:square;stroke-width:0.8;"/>
     </g>
     <g id="line2d_20">
      <g>
       <use style="stroke:#000000;stroke-width:0.6;" x="153.621213" xlink:href="#m4fba569482" y="307.584"/>
      </g>
     </g>
    </g>
    <g id="xtick_11">
     <g id="line2d_21">
      <path clip-path="url(#p298e869a84)" d="M 167.465541 307.584 
L 167.465541 41.472 
" style="fill:none;stroke:#b0b0b0;stroke-linecap:square;stroke-width:0.8;"/>
     </g>
     <g id="line2d_22">
      <g>
       <use style="stroke:#000000;stroke-width:0.6;" x="167.465541" xlink:href="#m4fba569482" y="307.584"/>
      </g>
     </g>
    </g>
    <g id="xtick_12">
     <g id="line2d_23">
      <path clip-path="url(#p298e869a84)" d="M 181.309868 307.584 
L 181.309868 41.472 
" style="fill:none;stroke:#b0b0b0;stroke-linecap:square;stroke-width:0.8;"/>
     </g>
     <g id="line2d_24">
      <g>
       <use style="stroke:#000000;stroke-width:0.6;" x="181.309868" xlink:href="#m4fba569482" y="307.584"/>
      </g>
     </g>
    </g>
    <g id="xtick_13">
     <g id="line2d_25">
      <path clip-path="url(#p298e869a84)" d="M 195.154196 307.584 
L 195.154196 41.472 
" style="fill:none;stroke:#b0b0b0;stroke-linecap:square;stroke-width:0.8;"/>
     </g>
     <g id="line2d_26">
      <g>
       <use style="stroke:#000000;stroke-width:0.6;" x="195.154196" xlink:href="#m4fba569482" y="307.584"/>
      </g>
     </g>
    </g>
    <g id="xtick_14">
     <g id="line2d_27">
      <path clip-path="url(#p298e869a84)" d="M 222.842851 307.584 
L 222.842851 41.472 
" style="fill:none;stroke:#b0b0b0;stroke-linecap:square;stroke-width:0.8;"/>
     </g>
     <g id="line2d_28">
      <g>
       <use style="stroke:#000000;stroke-width:0.6;" x="222.842851" xlink:href="#m4fba569482" y="307.584"/>
      </g>
     </g>
    </g>
    <g id="xtick_15">
     <g id="line2d_29">
      <path clip-path="url(#p298e869a84)" d="M 236.687178 307.584 
L 236.687178 41.472 
" style="fill:none;stroke:#b0b0b0;stroke-linecap:square;stroke-width:0.8;"/>
     </g>
     <g id="line2d_30">
      <g>
       <use style="stroke:#000000;stroke-width:0.6;" x="236.687178" xlink:href="#m4fba569482" y="307.584"/>
      </g>
     </g>
    </g>
    <g id="xtick_16">
     <g id="line2d_31">
      <path clip-path="url(#p298e869a84)" d="M 250.531506 307.584 
L 250.531506 41.472 
" style="fill:none;stroke:#b0b0b0;stroke-linecap:square;stroke-width:0.8;"/>
     </g>
     <g id="line2d_32">
      <g>
       <use style="stroke:#000000;stroke-width:0.6;" x="250.531506" xlink:href="#m4fba569482" y="307.584"/>
      </g>
     </g>
    </g>
    <g id="xtick_17">
     <g id="line2d_33">
      <path clip-path="url(#p298e869a84)" d="M 264.375834 307.584 
L 264.375834 41.472 
" style="fill:none;stroke:#b0b0b0;stroke-linecap:square;stroke-width:0.8;"/>
     </g>
     <g id="line2d_34">
      <g>
       <use style="stroke:#000000;stroke-width:0.6;" x="264.375834" xlink:href="#m4fba569482" y="307.584"/>
      </g>
     </g>
    </g>
    <g id="xtick_18">
     <g id="line2d_35">
      <path clip-path="url(#p298e869a84)" d="M 292.064489 307.584 
L 292.064489 41.472 
" style="fill:none;stroke:#b0b0b0;stroke-linecap:square;stroke-width:0.8;"/>
     </g>
     <g id="line2d_36">
      <g>
       <use style="stroke:#000000;stroke-width:0.6;" x="292.064489" xlink:href="#m4fba569482" y="307.584"/>
      </g>
     </g>
    </g>
    <g id="xtick_19">
     <g id="line2d_37">
      <path clip-path="url(#p298e869a84)" d="M 305.908816 307.584 
L 305.908816 41.472 
" style="fill:none;stroke:#b0b0b0;stroke-linecap:square;stroke-width:0.8;"/>
     </g>
     <g id="line2d_38">
      <g>
       <use style="stroke:#000000;stroke-width:0.6;" x="305.908816" xlink:href="#m4fba569482" y="307.584"/>
      </g>
     </g>
    </g>
    <g id="xtick_20">
     <g id="line2d_39">
      <path clip-path="url(#p298e869a84)" d="M 319.753144 307.584 
L 319.753144 41.472 
" style="fill:none;stroke:#b0b0b0;stroke-linecap:square;stroke-width:0.8;"/>
     </g>
     <g id="line2d_40">
      <g>
       <use style="stroke:#000000;stroke-width:0.6;" x="319.753144" xlink:href="#m4fba569482" y="307.584"/>
      </g>
     </g>
    </g>
    <g id="xtick_21">
     <g id="line2d_41">
      <path clip-path="url(#p298e869a84)" d="M 333.597471 307.584 
L 333.597471 41.472 
" style="fill:none;stroke:#b0b0b0;stroke-linecap:square;stroke-width:0.8;"/>
     </g>
     <g id="line2d_42">
      <g>
       <use style="stroke:#000000;stroke-width:0.6;" x="333.597471" xlink:href="#m4fba569482" y="307.584"/>
      </g>
     </g>
    </g>
    <g id="xtick_22">
     <g id="line2d_43">
      <path clip-path="url(#p298e869a84)" d="M 361.286127 307.584 
L 361.286127 41.472 
" style="fill:none;stroke:#b0b0b0;stroke-linecap:square;stroke-width:0.8;"/>
     </g>
     <g id="line2d_44">
      <g>
       <use style="stroke:#000000;stroke-width:0.6;" x="361.286127" xlink:href="#m4fba569482" y="307.584"/>
      </g>
     </g>
    </g>
    <g id="xtick_23">
     <g id="line2d_45">
      <path clip-path="url(#p298e869a84)" d="M 375.130454 307.584 
L 375.130454 41.472 
" style="fill:none;stroke:#b0b0b0;stroke-linecap:square;stroke-width:0.8;"/>
     </g>
     <g id="line2d_46">
      <g>
       <use style="stroke:#000000;stroke-width:0.6;" x="375.130454" xlink:href="#m4fba569482" y="307.584"/>
      </g>
     </g>
    </g>
    <g id="xtick_24">
     <g id="line2d_47">
      <path clip-path="url(#p298e869a84)" d="M 388.974782 307.584 
L 388.974782 41.472 
" style="fill:none;stroke:#b0b0b0;stroke-linecap:square;stroke-width:0.8;"/>
     </g>
     <g id="line2d_48">
      <g>
       <use style="stroke:#000000;stroke-width:0.6;" x="388.974782" xlink:href="#m4fba569482" y="307.584"/>
      </g>
     </g>
    </g>
    <g id="xtick_25">
     <g id="line2d_49">
      <path clip-path="url(#p298e869a84)" d="M 402.819109 307.584 
L 402.819109 41.472 
" style="fill:none;stroke:#b0b0b0;stroke-linecap:square;stroke-width:0.8;"/>
     </g>
     <g id="line2d_50">
      <g>
       <use style="stroke:#000000;stroke-width:0.6;" x="402.819109" xlink:href="#m4fba569482" y="307.584"/>
      </g>
     </g>
    </g>
    <g id="text_6">
     <!-- frame # [] -->
     <defs>
      <path d="M 37.109375 75.984375 
L 37.109375 68.5 
L 28.515625 68.5 
Q 23.6875 68.5 21.796875 66.546875 
Q 19.921875 64.59375 19.921875 59.515625 
L 19.921875 54.6875 
L 34.71875 54.6875 
L 34.71875 47.703125 
L 19.921875 47.703125 
L 19.921875 0 
L 10.890625 0 
L 10.890625 47.703125 
L 2.296875 47.703125 
L 2.296875 54.6875 
L 10.890625 54.6875 
L 10.890625 58.5 
Q 10.890625 67.625 15.140625 71.796875 
Q 19.390625 75.984375 28.609375 75.984375 
z
" id="DejaVuSans-66"/>
      <path d="M 41.109375 46.296875 
Q 39.59375 47.171875 37.8125 47.578125 
Q 36.03125 48 33.890625 48 
Q 26.265625 48 22.1875 43.046875 
Q 18.109375 38.09375 18.109375 28.8125 
L 18.109375 0 
L 9.078125 0 
L 9.078125 54.6875 
L 18.109375 54.6875 
L 18.109375 46.1875 
Q 20.953125 51.171875 25.484375 53.578125 
Q 30.03125 56 36.53125 56 
Q 37.453125 56 38.578125 55.875 
Q 39.703125 55.765625 41.0625 55.515625 
z
" id="DejaVuSans-72"/>
      <path d="M 34.28125 27.484375 
Q 23.390625 27.484375 19.1875 25 
Q 14.984375 22.515625 14.984375 16.5 
Q 14.984375 11.71875 18.140625 8.90625 
Q 21.296875 6.109375 26.703125 6.109375 
Q 34.1875 6.109375 38.703125 11.40625 
Q 43.21875 16.703125 43.21875 25.484375 
L 43.21875 27.484375 
z
M 52.203125 31.203125 
L 52.203125 0 
L 43.21875 0 
L 43.21875 8.296875 
Q 40.140625 3.328125 35.546875 0.953125 
Q 30.953125 -1.421875 24.3125 -1.421875 
Q 15.921875 -1.421875 10.953125 3.296875 
Q 6 8.015625 6 15.921875 
Q 6 25.140625 12.171875 29.828125 
Q 18.359375 34.515625 30.609375 34.515625 
L 43.21875 34.515625 
L 43.21875 35.40625 
Q 43.21875 41.609375 39.140625 45 
Q 35.0625 48.390625 27.6875 48.390625 
Q 23 48.390625 18.546875 47.265625 
Q 14.109375 46.140625 10.015625 43.890625 
L 10.015625 52.203125 
Q 14.9375 54.109375 19.578125 55.046875 
Q 24.21875 56 28.609375 56 
Q 40.484375 56 46.34375 49.84375 
Q 52.203125 43.703125 52.203125 31.203125 
z
" id="DejaVuSans-61"/>
      <path d="M 52 44.1875 
Q 55.375 50.25 60.0625 53.125 
Q 64.75 56 71.09375 56 
Q 79.640625 56 84.28125 50.015625 
Q 88.921875 44.046875 88.921875 33.015625 
L 88.921875 0 
L 79.890625 0 
L 79.890625 32.71875 
Q 79.890625 40.578125 77.09375 44.375 
Q 74.3125 48.1875 68.609375 48.1875 
Q 61.625 48.1875 57.5625 43.546875 
Q 53.515625 38.921875 53.515625 30.90625 
L 53.515625 0 
L 44.484375 0 
L 44.484375 32.71875 
Q 44.484375 40.625 41.703125 44.40625 
Q 38.921875 48.1875 33.109375 48.1875 
Q 26.21875 48.1875 22.15625 43.53125 
Q 18.109375 38.875 18.109375 30.90625 
L 18.109375 0 
L 9.078125 0 
L 9.078125 54.6875 
L 18.109375 54.6875 
L 18.109375 46.1875 
Q 21.1875 51.21875 25.484375 53.609375 
Q 29.78125 56 35.6875 56 
Q 41.65625 56 45.828125 52.96875 
Q 50 49.953125 52 44.1875 
z
" id="DejaVuSans-6d"/>
      <path d="M 56.203125 29.59375 
L 56.203125 25.203125 
L 14.890625 25.203125 
Q 15.484375 15.921875 20.484375 11.0625 
Q 25.484375 6.203125 34.421875 6.203125 
Q 39.59375 6.203125 44.453125 7.46875 
Q 49.3125 8.734375 54.109375 11.28125 
L 54.109375 2.78125 
Q 49.265625 0.734375 44.1875 -0.34375 
Q 39.109375 -1.421875 33.890625 -1.421875 
Q 20.796875 -1.421875 13.15625 6.1875 
Q 5.515625 13.8125 5.515625 26.8125 
Q 5.515625 40.234375 12.765625 48.109375 
Q 20.015625 56 32.328125 56 
Q 43.359375 56 49.78125 48.890625 
Q 56.203125 41.796875 56.203125 29.59375 
z
M 47.21875 32.234375 
Q 47.125 39.59375 43.09375 43.984375 
Q 39.0625 48.390625 32.421875 48.390625 
Q 24.90625 48.390625 20.390625 44.140625 
Q 15.875 39.890625 15.1875 32.171875 
z
" id="DejaVuSans-65"/>
      <path id="DejaVuSans-20"/>
      <path d="M 51.125 44 
L 36.921875 44 
L 32.8125 27.6875 
L 47.125 27.6875 
z
M 43.796875 71.78125 
L 38.71875 51.515625 
L 52.984375 51.515625 
L 58.109375 71.78125 
L 65.921875 71.78125 
L 60.890625 51.515625 
L 76.125 51.515625 
L 76.125 44 
L 58.984375 44 
L 54.984375 27.6875 
L 70.515625 27.6875 
L 70.515625 20.21875 
L 53.078125 20.21875 
L 48 0 
L 40.1875 0 
L 45.21875 20.21875 
L 30.90625 20.21875 
L 25.875 0 
L 18.015625 0 
L 23.09375 20.21875 
L 7.71875 20.21875 
L 7.71875 27.6875 
L 24.90625 27.6875 
L 29 44 
L 13.28125 44 
L 13.28125 51.515625 
L 30.90625 51.515625 
L 35.890625 71.78125 
z
" id="DejaVuSans-23"/>
      <path d="M 8.59375 75.984375 
L 29.296875 75.984375 
L 29.296875 69 
L 17.578125 69 
L 17.578125 -6.203125 
L 29.296875 -6.203125 
L 29.296875 -13.1875 
L 8.59375 -13.1875 
z
" id="DejaVuSans-5b"/>
      <path d="M 30.421875 75.984375 
L 30.421875 -13.1875 
L 9.71875 -13.1875 
L 9.71875 -6.203125 
L 21.390625 -6.203125 
L 21.390625 69 
L 9.71875 69 
L 9.71875 75.984375 
z
" id="DejaVuSans-5d"/>
     </defs>
     <g transform="translate(210.063906 335.860562)scale(0.1 -0.1)">
      <use xlink:href="#DejaVuSans-66"/>
      <use x="35.205078" xlink:href="#DejaVuSans-72"/>
      <use x="76.318359" xlink:href="#DejaVuSans-61"/>
      <use x="137.597656" xlink:href="#DejaVuSans-6d"/>
      <use x="235.009766" xlink:href="#DejaVuSans-65"/>
      <use x="296.533203" xlink:href="#DejaVuSans-20"/>
      <use x="328.320312" xlink:href="#DejaVuSans-23"/>
      <use x="412.109375" xlink:href="#DejaVuSans-20"/>
      <use x="443.896484" xlink:href="#DejaVuSans-5b"/>
      <use x="482.910156" xlink:href="#DejaVuSans-5d"/>
     </g>
    </g>
   </g>
   <g id="matplotlib.axis_2">
    <g id="ytick_1">
     <g id="line2d_51">
      <path clip-path="url(#p298e869a84)" d="M 57.6 299.857068 
L 414.72 299.857068 
" style="fill:none;stroke:#b0b0b0;stroke-linecap:square;stroke-width:0.8;"/>
     </g>
     <g id="line2d_52">
      <defs>
       <path d="M 0 0 
L -3.5 0 
" id="m20832b7bc0" style="stroke:#000000;stroke-width:0.8;"/>
      </defs>
      <g>
       <use style="stroke:#000000;stroke-width:0.8;" x="57.6" xlink:href="#m20832b7bc0" y="299.857068"/>
      </g>
     </g>
     <g id="text_7">
      <!-- −0.20 -->
      <defs>
       <path d="M 10.59375 35.5 
L 73.1875 35.5 
L 73.1875 27.203125 
L 10.59375 27.203125 
z
" id="DejaVuSans-2212"/>
       <path d="M 10.6875 12.40625 
L 21 12.40625 
L 21 0 
L 10.6875 0 
z
" id="DejaVuSans-2e"/>
      </defs>
      <g transform="translate(19.954687 303.656287)scale(0.1 -0.1)">
       <use xlink:href="#DejaVuSans-2212"/>
       <use x="83.789062" xlink:href="#DejaVuSans-30"/>
       <use x="147.412109" xlink:href="#DejaVuSans-2e"/>
       <use x="179.199219" xlink:href="#DejaVuSans-32"/>
       <use x="242.822266" xlink:href="#DejaVuSans-30"/>
      </g>
     </g>
    </g>
    <g id="ytick_2">
     <g id="line2d_53">
      <path clip-path="url(#p298e869a84)" d="M 57.6 266.202598 
L 414.72 266.202598 
" style="fill:none;stroke:#b0b0b0;stroke-linecap:square;stroke-width:0.8;"/>
     </g>
     <g id="line2d_54">
      <g>
       <use style="stroke:#000000;stroke-width:0.8;" x="57.6" xlink:href="#m20832b7bc0" y="266.202598"/>
      </g>
     </g>
     <g id="text_8">
      <!-- −0.15 -->
      <defs>
       <path d="M 10.796875 72.90625 
L 49.515625 72.90625 
L 49.515625 64.59375 
L 19.828125 64.59375 
L 19.828125 46.734375 
Q 21.96875 47.46875 24.109375 47.828125 
Q 26.265625 48.1875 28.421875 48.1875 
Q 40.625 48.1875 47.75 41.5 
Q 54.890625 34.8125 54.890625 23.390625 
Q 54.890625 11.625 47.5625 5.09375 
Q 40.234375 -1.421875 26.90625 -1.421875 
Q 22.3125 -1.421875 17.546875 -0.640625 
Q 12.796875 0.140625 7.71875 1.703125 
L 7.71875 11.625 
Q 12.109375 9.234375 16.796875 8.0625 
Q 21.484375 6.890625 26.703125 6.890625 
Q 35.15625 6.890625 40.078125 11.328125 
Q 45.015625 15.765625 45.015625 23.390625 
Q 45.015625 31 40.078125 35.4375 
Q 35.15625 39.890625 26.703125 39.890625 
Q 22.75 39.890625 18.8125 39.015625 
Q 14.890625 38.140625 10.796875 36.28125 
z
" id="DejaVuSans-35"/>
      </defs>
      <g transform="translate(19.954687 270.001817)scale(0.1 -0.1)">
       <use xlink:href="#DejaVuSans-2212"/>
       <use x="83.789062" xlink:href="#DejaVuSans-30"/>
       <use x="147.412109" xlink:href="#DejaVuSans-2e"/>
       <use x="179.199219" xlink:href="#DejaVuSans-31"/>
       <use x="242.822266" xlink:href="#DejaVuSans-35"/>
      </g>
     </g>
    </g>
    <g id="ytick_3">
     <g id="line2d_55">
      <path clip-path="url(#p298e869a84)" d="M 57.6 232.548129 
L 414.72 232.548129 
" style="fill:none;stroke:#b0b0b0;stroke-linecap:square;stroke-width:0.8;"/>
     </g>
     <g id="line2d_56">
      <g>
       <use style="stroke:#000000;stroke-width:0.8;" x="57.6" xlink:href="#m20832b7bc0" y="232.548129"/>
      </g>
     </g>
     <g id="text_9">
      <!-- −0.10 -->
      <g transform="translate(19.954687 236.347347)scale(0.1 -0.1)">
       <use xlink:href="#DejaVuSans-2212"/>
       <use x="83.789062" xlink:href="#DejaVuSans-30"/>
       <use x="147.412109" xlink:href="#DejaVuSans-2e"/>
       <use x="179.199219" xlink:href="#DejaVuSans-31"/>
       <use x="242.822266" xlink:href="#DejaVuSans-30"/>
      </g>
     </g>
    </g>
    <g id="ytick_4">
     <g id="line2d_57">
      <path clip-path="url(#p298e869a84)" d="M 57.6 198.893659 
L 414.72 198.893659 
" style="fill:none;stroke:#b0b0b0;stroke-linecap:square;stroke-width:0.8;"/>
     </g>
     <g id="line2d_58">
      <g>
       <use style="stroke:#000000;stroke-width:0.8;" x="57.6" xlink:href="#m20832b7bc0" y="198.893659"/>
      </g>
     </g>
     <g id="text_10">
      <!-- −0.05 -->
      <g transform="translate(19.954687 202.692878)scale(0.1 -0.1)">
       <use xlink:href="#DejaVuSans-2212"/>
       <use x="83.789062" xlink:href="#DejaVuSans-30"/>
       <use x="147.412109" xlink:href="#DejaVuSans-2e"/>
       <use x="179.199219" xlink:href="#DejaVuSans-30"/>
       <use x="242.822266" xlink:href="#DejaVuSans-35"/>
      </g>
     </g>
    </g>
    <g id="ytick_5">
     <g id="line2d_59">
      <path clip-path="url(#p298e869a84)" d="M 57.6 165.23919 
L 414.72 165.23919 
" style="fill:none;stroke:#b0b0b0;stroke-linecap:square;stroke-width:0.8;"/>
     </g>
     <g id="line2d_60">
      <g>
       <use style="stroke:#000000;stroke-width:0.8;" x="57.6" xlink:href="#m20832b7bc0" y="165.23919"/>
      </g>
     </g>
     <g id="text_11">
      <!-- 0.00 -->
      <g transform="translate(28.334375 169.038408)scale(0.1 -0.1)">
       <use xlink:href="#DejaVuSans-30"/>
       <use x="63.623047" xlink:href="#DejaVuSans-2e"/>
       <use x="95.410156" xlink:href="#DejaVuSans-30"/>
       <use x="159.033203" xlink:href="#DejaVuSans-30"/>
      </g>
     </g>
    </g>
    <g id="ytick_6">
     <g id="line2d_61">
      <path clip-path="url(#p298e869a84)" d="M 57.6 131.58472 
L 414.72 131.58472 
" style="fill:none;stroke:#b0b0b0;stroke-linecap:square;stroke-width:0.8;"/>
     </g>
     <g id="line2d_62">
      <g>
       <use style="stroke:#000000;stroke-width:0.8;" x="57.6" xlink:href="#m20832b7bc0" y="131.58472"/>
      </g>
     </g>
     <g id="text_12">
      <!-- 0.05 -->
      <g transform="translate(28.334375 135.383939)scale(0.1 -0.1)">
       <use xlink:href="#DejaVuSans-30"/>
       <use x="63.623047" xlink:href="#DejaVuSans-2e"/>
       <use x="95.410156" xlink:href="#DejaVuSans-30"/>
       <use x="159.033203" xlink:href="#DejaVuSans-35"/>
      </g>
     </g>
    </g>
    <g id="ytick_7">
     <g id="line2d_63">
      <path clip-path="url(#p298e869a84)" d="M 57.6 97.93025 
L 414.72 97.93025 
" style="fill:none;stroke:#b0b0b0;stroke-linecap:square;stroke-width:0.8;"/>
     </g>
     <g id="line2d_64">
      <g>
       <use style="stroke:#000000;stroke-width:0.8;" x="57.6" xlink:href="#m20832b7bc0" y="97.93025"/>
      </g>
     </g>
     <g id="text_13">
      <!-- 0.10 -->
      <g transform="translate(28.334375 101.729469)scale(0.1 -0.1)">
       <use xlink:href="#DejaVuSans-30"/>
       <use x="63.623047" xlink:href="#DejaVuSans-2e"/>
       <use x="95.410156" xlink:href="#DejaVuSans-31"/>
       <use x="159.033203" xlink:href="#DejaVuSans-30"/>
      </g>
     </g>
    </g>
    <g id="ytick_8">
     <g id="line2d_65">
      <path clip-path="url(#p298e869a84)" d="M 57.6 64.275781 
L 414.72 64.275781 
" style="fill:none;stroke:#b0b0b0;stroke-linecap:square;stroke-width:0.8;"/>
     </g>
     <g id="line2d_66">
      <g>
       <use style="stroke:#000000;stroke-width:0.8;" x="57.6" xlink:href="#m20832b7bc0" y="64.275781"/>
      </g>
     </g>
     <g id="text_14">
      <!-- 0.15 -->
      <g transform="translate(28.334375 68.075)scale(0.1 -0.1)">
       <use xlink:href="#DejaVuSans-30"/>
       <use x="63.623047" xlink:href="#DejaVuSans-2e"/>
       <use x="95.410156" xlink:href="#DejaVuSans-31"/>
       <use x="159.033203" xlink:href="#DejaVuSans-35"/>
      </g>
     </g>
    </g>
    <g id="ytick_9">
     <g id="line2d_67">
      <path clip-path="url(#p298e869a84)" d="M 57.6 306.587962 
L 414.72 306.587962 
" style="fill:none;stroke:#b0b0b0;stroke-linecap:square;stroke-width:0.8;"/>
     </g>
     <g id="line2d_68">
      <defs>
       <path d="M 0 0 
L -2 0 
" id="mceafb167a1" style="stroke:#000000;stroke-width:0.6;"/>
      </defs>
      <g>
       <use style="stroke:#000000;stroke-width:0.6;" x="57.6" xlink:href="#mceafb167a1" y="306.587962"/>
      </g>
     </g>
    </g>
    <g id="ytick_10">
     <g id="line2d_69">
      <path clip-path="url(#p298e869a84)" d="M 57.6 293.126174 
L 414.72 293.126174 
" style="fill:none;stroke:#b0b0b0;stroke-linecap:square;stroke-width:0.8;"/>
     </g>
     <g id="line2d_70">
      <g>
       <use style="stroke:#000000;stroke-width:0.6;" x="57.6" xlink:href="#mceafb167a1" y="293.126174"/>
      </g>
     </g>
    </g>
    <g id="ytick_11">
     <g id="line2d_71">
      <path clip-path="url(#p298e869a84)" d="M 57.6 286.39528 
L 414.72 286.39528 
" style="fill:none;stroke:#b0b0b0;stroke-linecap:square;stroke-width:0.8;"/>
     </g>
     <g id="line2d_72">
      <g>
       <use style="stroke:#000000;stroke-width:0.6;" x="57.6" xlink:href="#mceafb167a1" y="286.39528"/>
      </g>
     </g>
    </g>
    <g id="ytick_12">
     <g id="line2d_73">
      <path clip-path="url(#p298e869a84)" d="M 57.6 279.664386 
L 414.72 279.664386 
" style="fill:none;stroke:#b0b0b0;stroke-linecap:square;stroke-width:0.8;"/>
     </g>
     <g id="line2d_74">
      <g>
       <use style="stroke:#000000;stroke-width:0.6;" x="57.6" xlink:href="#mceafb167a1" y="279.664386"/>
      </g>
     </g>
    </g>
    <g id="ytick_13">
     <g id="line2d_75">
      <path clip-path="url(#p298e869a84)" d="M 57.6 272.933492 
L 414.72 272.933492 
" style="fill:none;stroke:#b0b0b0;stroke-linecap:square;stroke-width:0.8;"/>
     </g>
     <g id="line2d_76">
      <g>
       <use style="stroke:#000000;stroke-width:0.6;" x="57.6" xlink:href="#mceafb167a1" y="272.933492"/>
      </g>
     </g>
    </g>
    <g id="ytick_14">
     <g id="line2d_77">
      <path clip-path="url(#p298e869a84)" d="M 57.6 259.471704 
L 414.72 259.471704 
" style="fill:none;stroke:#b0b0b0;stroke-linecap:square;stroke-width:0.8;"/>
     </g>
     <g id="line2d_78">
      <g>
       <use style="stroke:#000000;stroke-width:0.6;" x="57.6" xlink:href="#mceafb167a1" y="259.471704"/>
      </g>
     </g>
    </g>
    <g id="ytick_15">
     <g id="line2d_79">
      <path clip-path="url(#p298e869a84)" d="M 57.6 252.74081 
L 414.72 252.74081 
" style="fill:none;stroke:#b0b0b0;stroke-linecap:square;stroke-width:0.8;"/>
     </g>
     <g id="line2d_80">
      <g>
       <use style="stroke:#000000;stroke-width:0.6;" x="57.6" xlink:href="#mceafb167a1" y="252.74081"/>
      </g>
     </g>
    </g>
    <g id="ytick_16">
     <g id="line2d_81">
      <path clip-path="url(#p298e869a84)" d="M 57.6 246.009917 
L 414.72 246.009917 
" style="fill:none;stroke:#b0b0b0;stroke-linecap:square;stroke-width:0.8;"/>
     </g>
     <g id="line2d_82">
      <g>
       <use style="stroke:#000000;stroke-width:0.6;" x="57.6" xlink:href="#mceafb167a1" y="246.009917"/>
      </g>
     </g>
    </g>
    <g id="ytick_17">
     <g id="line2d_83">
      <path clip-path="url(#p298e869a84)" d="M 57.6 239.279023 
L 414.72 239.279023 
" style="fill:none;stroke:#b0b0b0;stroke-linecap:square;stroke-width:0.8;"/>
     </g>
     <g id="line2d_84">
      <g>
       <use style="stroke:#000000;stroke-width:0.6;" x="57.6" xlink:href="#mceafb167a1" y="239.279023"/>
      </g>
     </g>
    </g>
    <g id="ytick_18">
     <g id="line2d_85">
      <path clip-path="url(#p298e869a84)" d="M 57.6 232.548129 
L 414.72 232.548129 
" style="fill:none;stroke:#b0b0b0;stroke-linecap:square;stroke-width:0.8;"/>
     </g>
     <g id="line2d_86">
      <g>
       <use style="stroke:#000000;stroke-width:0.6;" x="57.6" xlink:href="#mceafb167a1" y="232.548129"/>
      </g>
     </g>
    </g>
    <g id="ytick_19">
     <g id="line2d_87">
      <path clip-path="url(#p298e869a84)" d="M 57.6 225.817235 
L 414.72 225.817235 
" style="fill:none;stroke:#b0b0b0;stroke-linecap:square;stroke-width:0.8;"/>
     </g>
     <g id="line2d_88">
      <g>
       <use style="stroke:#000000;stroke-width:0.6;" x="57.6" xlink:href="#mceafb167a1" y="225.817235"/>
      </g>
     </g>
    </g>
    <g id="ytick_20">
     <g id="line2d_89">
      <path clip-path="url(#p298e869a84)" d="M 57.6 219.086341 
L 414.72 219.086341 
" style="fill:none;stroke:#b0b0b0;stroke-linecap:square;stroke-width:0.8;"/>
     </g>
     <g id="line2d_90">
      <g>
       <use style="stroke:#000000;stroke-width:0.6;" x="57.6" xlink:href="#mceafb167a1" y="219.086341"/>
      </g>
     </g>
    </g>
    <g id="ytick_21">
     <g id="line2d_91">
      <path clip-path="url(#p298e869a84)" d="M 57.6 212.355447 
L 414.72 212.355447 
" style="fill:none;stroke:#b0b0b0;stroke-linecap:square;stroke-width:0.8;"/>
     </g>
     <g id="line2d_92">
      <g>
       <use style="stroke:#000000;stroke-width:0.6;" x="57.6" xlink:href="#mceafb167a1" y="212.355447"/>
      </g>
     </g>
    </g>
    <g id="ytick_22">
     <g id="line2d_93">
      <path clip-path="url(#p298e869a84)" d="M 57.6 205.624553 
L 414.72 205.624553 
" style="fill:none;stroke:#b0b0b0;stroke-linecap:square;stroke-width:0.8;"/>
     </g>
     <g id="line2d_94">
      <g>
       <use style="stroke:#000000;stroke-width:0.6;" x="57.6" xlink:href="#mceafb167a1" y="205.624553"/>
      </g>
     </g>
    </g>
    <g id="ytick_23">
     <g id="line2d_95">
      <path clip-path="url(#p298e869a84)" d="M 57.6 198.893659 
L 414.72 198.893659 
" style="fill:none;stroke:#b0b0b0;stroke-linecap:square;stroke-width:0.8;"/>
     </g>
     <g id="line2d_96">
      <g>
       <use style="stroke:#000000;stroke-width:0.6;" x="57.6" xlink:href="#mceafb167a1" y="198.893659"/>
      </g>
     </g>
    </g>
    <g id="ytick_24">
     <g id="line2d_97">
      <path clip-path="url(#p298e869a84)" d="M 57.6 192.162765 
L 414.72 192.162765 
" style="fill:none;stroke:#b0b0b0;stroke-linecap:square;stroke-width:0.8;"/>
     </g>
     <g id="line2d_98">
      <g>
       <use style="stroke:#000000;stroke-width:0.6;" x="57.6" xlink:href="#mceafb167a1" y="192.162765"/>
      </g>
     </g>
    </g>
    <g id="ytick_25">
     <g id="line2d_99">
      <path clip-path="url(#p298e869a84)" d="M 57.6 185.431871 
L 414.72 185.431871 
" style="fill:none;stroke:#b0b0b0;stroke-linecap:square;stroke-width:0.8;"/>
     </g>
     <g id="line2d_100">
      <g>
       <use style="stroke:#000000;stroke-width:0.6;" x="57.6" xlink:href="#mceafb167a1" y="185.431871"/>
      </g>
     </g>
    </g>
    <g id="ytick_26">
     <g id="line2d_101">
      <path clip-path="url(#p298e869a84)" d="M 57.6 178.700977 
L 414.72 178.700977 
" style="fill:none;stroke:#b0b0b0;stroke-linecap:square;stroke-width:0.8;"/>
     </g>
     <g id="line2d_102">
      <g>
       <use style="stroke:#000000;stroke-width:0.6;" x="57.6" xlink:href="#mceafb167a1" y="178.700977"/>
      </g>
     </g>
    </g>
    <g id="ytick_27">
     <g id="line2d_103">
      <path clip-path="url(#p298e869a84)" d="M 57.6 171.970084 
L 414.72 171.970084 
" style="fill:none;stroke:#b0b0b0;stroke-linecap:square;stroke-width:0.8;"/>
     </g>
     <g id="line2d_104">
      <g>
       <use style="stroke:#000000;stroke-width:0.6;" x="57.6" xlink:href="#mceafb167a1" y="171.970084"/>
      </g>
     </g>
    </g>
    <g id="ytick_28">
     <g id="line2d_105">
      <path clip-path="url(#p298e869a84)" d="M 57.6 165.23919 
L 414.72 165.23919 
" style="fill:none;stroke:#b0b0b0;stroke-linecap:square;stroke-width:0.8;"/>
     </g>
     <g id="line2d_106">
      <g>
       <use style="stroke:#000000;stroke-width:0.6;" x="57.6" xlink:href="#mceafb167a1" y="165.23919"/>
      </g>
     </g>
    </g>
    <g id="ytick_29">
     <g id="line2d_107">
      <path clip-path="url(#p298e869a84)" d="M 57.6 158.508296 
L 414.72 158.508296 
" style="fill:none;stroke:#b0b0b0;stroke-linecap:square;stroke-width:0.8;"/>
     </g>
     <g id="line2d_108">
      <g>
       <use style="stroke:#000000;stroke-width:0.6;" x="57.6" xlink:href="#mceafb167a1" y="158.508296"/>
      </g>
     </g>
    </g>
    <g id="ytick_30">
     <g id="line2d_109">
      <path clip-path="url(#p298e869a84)" d="M 57.6 151.777402 
L 414.72 151.777402 
" style="fill:none;stroke:#b0b0b0;stroke-linecap:square;stroke-width:0.8;"/>
     </g>
     <g id="line2d_110">
      <g>
       <use style="stroke:#000000;stroke-width:0.6;" x="57.6" xlink:href="#mceafb167a1" y="151.777402"/>
      </g>
     </g>
    </g>
    <g id="ytick_31">
     <g id="line2d_111">
      <path clip-path="url(#p298e869a84)" d="M 57.6 145.046508 
L 414.72 145.046508 
" style="fill:none;stroke:#b0b0b0;stroke-linecap:square;stroke-width:0.8;"/>
     </g>
     <g id="line2d_112">
      <g>
       <use style="stroke:#000000;stroke-width:0.6;" x="57.6" xlink:href="#mceafb167a1" y="145.046508"/>
      </g>
     </g>
    </g>
    <g id="ytick_32">
     <g id="line2d_113">
      <path clip-path="url(#p298e869a84)" d="M 57.6 138.315614 
L 414.72 138.315614 
" style="fill:none;stroke:#b0b0b0;stroke-linecap:square;stroke-width:0.8;"/>
     </g>
     <g id="line2d_114">
      <g>
       <use style="stroke:#000000;stroke-width:0.6;" x="57.6" xlink:href="#mceafb167a1" y="138.315614"/>
      </g>
     </g>
    </g>
    <g id="ytick_33">
     <g id="line2d_115">
      <path clip-path="url(#p298e869a84)" d="M 57.6 131.58472 
L 414.72 131.58472 
" style="fill:none;stroke:#b0b0b0;stroke-linecap:square;stroke-width:0.8;"/>
     </g>
     <g id="line2d_116">
      <g>
       <use style="stroke:#000000;stroke-width:0.6;" x="57.6" xlink:href="#mceafb167a1" y="131.58472"/>
      </g>
     </g>
    </g>
    <g id="ytick_34">
     <g id="line2d_117">
      <path clip-path="url(#p298e869a84)" d="M 57.6 124.853826 
L 414.72 124.853826 
" style="fill:none;stroke:#b0b0b0;stroke-linecap:square;stroke-width:0.8;"/>
     </g>
     <g id="line2d_118">
      <g>
       <use style="stroke:#000000;stroke-width:0.6;" x="57.6" xlink:href="#mceafb167a1" y="124.853826"/>
      </g>
     </g>
    </g>
    <g id="ytick_35">
     <g id="line2d_119">
      <path clip-path="url(#p298e869a84)" d="M 57.6 118.122932 
L 414.72 118.122932 
" style="fill:none;stroke:#b0b0b0;stroke-linecap:square;stroke-width:0.8;"/>
     </g>
     <g id="line2d_120">
      <g>
       <use style="stroke:#000000;stroke-width:0.6;" x="57.6" xlink:href="#mceafb167a1" y="118.122932"/>
      </g>
     </g>
    </g>
    <g id="ytick_36">
     <g id="line2d_121">
      <path clip-path="url(#p298e869a84)" d="M 57.6 111.392038 
L 414.72 111.392038 
" style="fill:none;stroke:#b0b0b0;stroke-linecap:square;stroke-width:0.8;"/>
     </g>
     <g id="line2d_122">
      <g>
       <use style="stroke:#000000;stroke-width:0.6;" x="57.6" xlink:href="#mceafb167a1" y="111.392038"/>
      </g>
     </g>
    </g>
    <g id="ytick_37">
     <g id="line2d_123">
      <path clip-path="url(#p298e869a84)" d="M 57.6 104.661144 
L 414.72 104.661144 
" style="fill:none;stroke:#b0b0b0;stroke-linecap:square;stroke-width:0.8;"/>
     </g>
     <g id="line2d_124">
      <g>
       <use style="stroke:#000000;stroke-width:0.6;" x="57.6" xlink:href="#mceafb167a1" y="104.661144"/>
      </g>
     </g>
    </g>
    <g id="ytick_38">
     <g id="line2d_125">
      <path clip-path="url(#p298e869a84)" d="M 57.6 97.93025 
L 414.72 97.93025 
" style="fill:none;stroke:#b0b0b0;stroke-linecap:square;stroke-width:0.8;"/>
     </g>
     <g id="line2d_126">
      <g>
       <use style="stroke:#000000;stroke-width:0.6;" x="57.6" xlink:href="#mceafb167a1" y="97.93025"/>
      </g>
     </g>
    </g>
    <g id="ytick_39">
     <g id="line2d_127">
      <path clip-path="url(#p298e869a84)" d="M 57.6 91.199357 
L 414.72 91.199357 
" style="fill:none;stroke:#b0b0b0;stroke-linecap:square;stroke-width:0.8;"/>
     </g>
     <g id="line2d_128">
      <g>
       <use style="stroke:#000000;stroke-width:0.6;" x="57.6" xlink:href="#mceafb167a1" y="91.199357"/>
      </g>
     </g>
    </g>
    <g id="ytick_40">
     <g id="line2d_129">
      <path clip-path="url(#p298e869a84)" d="M 57.6 84.468463 
L 414.72 84.468463 
" style="fill:none;stroke:#b0b0b0;stroke-linecap:square;stroke-width:0.8;"/>
     </g>
     <g id="line2d_130">
      <g>
       <use style="stroke:#000000;stroke-width:0.6;" x="57.6" xlink:href="#mceafb167a1" y="84.468463"/>
      </g>
     </g>
    </g>
    <g id="ytick_41">
     <g id="line2d_131">
      <path clip-path="url(#p298e869a84)" d="M 57.6 77.737569 
L 414.72 77.737569 
" style="fill:none;stroke:#b0b0b0;stroke-linecap:square;stroke-width:0.8;"/>
     </g>
     <g id="line2d_132">
      <g>
       <use style="stroke:#000000;stroke-width:0.6;" x="57.6" xlink:href="#mceafb167a1" y="77.737569"/>
      </g>
     </g>
    </g>
    <g id="ytick_42">
     <g id="line2d_133">
      <path clip-path="url(#p298e869a84)" d="M 57.6 71.006675 
L 414.72 71.006675 
" style="fill:none;stroke:#b0b0b0;stroke-linecap:square;stroke-width:0.8;"/>
     </g>
     <g id="line2d_134">
      <g>
       <use style="stroke:#000000;stroke-width:0.6;" x="57.6" xlink:href="#mceafb167a1" y="71.006675"/>
      </g>
     </g>
    </g>
    <g id="ytick_43">
     <g id="line2d_135">
      <path clip-path="url(#p298e869a84)" d="M 57.6 64.275781 
L 414.72 64.275781 
" style="fill:none;stroke:#b0b0b0;stroke-linecap:square;stroke-width:0.8;"/>
     </g>
     <g id="line2d_136">
      <g>
       <use style="stroke:#000000;stroke-width:0.6;" x="57.6" xlink:href="#mceafb167a1" y="64.275781"/>
      </g>
     </g>
    </g>
    <g id="ytick_44">
     <g id="line2d_137">
      <path clip-path="url(#p298e869a84)" d="M 57.6 57.544887 
L 414.72 57.544887 
" style="fill:none;stroke:#b0b0b0;stroke-linecap:square;stroke-width:0.8;"/>
     </g>
     <g id="line2d_138">
      <g>
       <use style="stroke:#000000;stroke-width:0.6;" x="57.6" xlink:href="#mceafb167a1" y="57.544887"/>
      </g>
     </g>
    </g>
    <g id="ytick_45">
     <g id="line2d_139">
      <path clip-path="url(#p298e869a84)" d="M 57.6 50.813993 
L 414.72 50.813993 
" style="fill:none;stroke:#b0b0b0;stroke-linecap:square;stroke-width:0.8;"/>
     </g>
     <g id="line2d_140">
      <g>
       <use style="stroke:#000000;stroke-width:0.6;" x="57.6" xlink:href="#mceafb167a1" y="50.813993"/>
      </g>
     </g>
    </g>
    <g id="ytick_46">
     <g id="line2d_141">
      <path clip-path="url(#p298e869a84)" d="M 57.6 44.083099 
L 414.72 44.083099 
" style="fill:none;stroke:#b0b0b0;stroke-linecap:square;stroke-width:0.8;"/>
     </g>
     <g id="line2d_142">
      <g>
       <use style="stroke:#000000;stroke-width:0.6;" x="57.6" xlink:href="#mceafb167a1" y="44.083099"/>
      </g>
     </g>
    </g>
    <g id="text_15">
     <!-- trans z -->
     <defs>
      <path d="M 18.3125 70.21875 
L 18.3125 54.6875 
L 36.8125 54.6875 
L 36.8125 47.703125 
L 18.3125 47.703125 
L 18.3125 18.015625 
Q 18.3125 11.328125 20.140625 9.421875 
Q 21.96875 7.515625 27.59375 7.515625 
L 36.8125 7.515625 
L 36.8125 0 
L 27.59375 0 
Q 17.1875 0 13.234375 3.875 
Q 9.28125 7.765625 9.28125 18.015625 
L 9.28125 47.703125 
L 2.6875 47.703125 
L 2.6875 54.6875 
L 9.28125 54.6875 
L 9.28125 70.21875 
z
" id="DejaVuSans-74"/>
      <path d="M 54.890625 33.015625 
L 54.890625 0 
L 45.90625 0 
L 45.90625 32.71875 
Q 45.90625 40.484375 42.875 44.328125 
Q 39.84375 48.1875 33.796875 48.1875 
Q 26.515625 48.1875 22.3125 43.546875 
Q 18.109375 38.921875 18.109375 30.90625 
L 18.109375 0 
L 9.078125 0 
L 9.078125 54.6875 
L 18.109375 54.6875 
L 18.109375 46.1875 
Q 21.34375 51.125 25.703125 53.5625 
Q 30.078125 56 35.796875 56 
Q 45.21875 56 50.046875 50.171875 
Q 54.890625 44.34375 54.890625 33.015625 
z
" id="DejaVuSans-6e"/>
      <path d="M 44.28125 53.078125 
L 44.28125 44.578125 
Q 40.484375 46.53125 36.375 47.5 
Q 32.28125 48.484375 27.875 48.484375 
Q 21.1875 48.484375 17.84375 46.4375 
Q 14.5 44.390625 14.5 40.28125 
Q 14.5 37.15625 16.890625 35.375 
Q 19.28125 33.59375 26.515625 31.984375 
L 29.59375 31.296875 
Q 39.15625 29.25 43.1875 25.515625 
Q 47.21875 21.78125 47.21875 15.09375 
Q 47.21875 7.46875 41.1875 3.015625 
Q 35.15625 -1.421875 24.609375 -1.421875 
Q 20.21875 -1.421875 15.453125 -0.5625 
Q 10.6875 0.296875 5.421875 2 
L 5.421875 11.28125 
Q 10.40625 8.6875 15.234375 7.390625 
Q 20.0625 6.109375 24.8125 6.109375 
Q 31.15625 6.109375 34.5625 8.28125 
Q 37.984375 10.453125 37.984375 14.40625 
Q 37.984375 18.0625 35.515625 20.015625 
Q 33.0625 21.96875 24.703125 23.78125 
L 21.578125 24.515625 
Q 13.234375 26.265625 9.515625 29.90625 
Q 5.8125 33.546875 5.8125 39.890625 
Q 5.8125 47.609375 11.28125 51.796875 
Q 16.75 56 26.8125 56 
Q 31.78125 56 36.171875 55.265625 
Q 40.578125 54.546875 44.28125 53.078125 
z
" id="DejaVuSans-73"/>
      <path d="M 5.515625 54.6875 
L 48.1875 54.6875 
L 48.1875 46.484375 
L 14.40625 7.171875 
L 48.1875 7.171875 
L 48.1875 0 
L 4.296875 0 
L 4.296875 8.203125 
L 38.09375 47.515625 
L 5.515625 47.515625 
z
" id="DejaVuSans-7a"/>
     </defs>
     <g transform="translate(13.875 191.594406)rotate(-90)scale(0.1 -0.1)">
      <use xlink:href="#DejaVuSans-74"/>
      <use x="39.208984" xlink:href="#DejaVuSans-72"/>
      <use x="80.322266" xlink:href="#DejaVuSans-61"/>
      <use x="141.601562" xlink:href="#DejaVuSans-6e"/>
      <use x="204.980469" xlink:href="#DejaVuSans-73"/>
      <use x="257.080078" xlink:href="#DejaVuSans-20"/>
      <use x="288.867188" xlink:href="#DejaVuSans-7a"/>
     </g>
    </g>
   </g>
   <g id="line2d_143">
    <path clip-path="url(#p298e869a84)" d="M 73.832727 101.449377 
L 74.524971 132.55625 
L 75.217208 139.474026 
L 75.90628 105.870371 
L 76.598517 110.222505 
L 77.290754 96.712781 
L 77.982991 95.159258 
L 78.6751 114.836733 
L 79.367337 123.074304 
L 80.059581 93.672961 
L 80.751818 119.73863 
L 81.446481 98.764375 
L 82.138725 135.788765 
L 82.830962 117.076428 
L 83.523199 88.864658 
L 84.216653 89.768265 
L 84.908883 112.469232 
L 85.601147 92.824624 
L 86.293364 87.800364 
L 86.985656 93.539926 
L 87.675135 115.716945 
L 88.367373 107.295189 
L 89.05961 93.284931 
L 89.751847 170.301073 
L 90.441987 105.100322 
L 91.13423 134.345021 
L 91.826467 105.477517 
L 92.518705 217.860877 
L 93.209773 99.035278 
L 93.902011 117.886816 
L 94.594254 154.313889 
L 95.286491 131.795431 
L 95.979336 128.109016 
L 96.671581 103.24627 
L 97.363819 233.724861 
L 98.056056 112.185456 
L 98.749362 133.34665 
L 100.133837 88.27203 
L 100.826074 121.455841 
M 104.284797 227.184656 
L 104.977035 243.002298 
L 105.669272 255.618543 
M 108.439825 248.666016 
L 109.132062 148.237823 
L 109.824962 159.527272 
L 110.517208 141.617674 
M 113.285912 206.271847 
L 113.978149 200.404009 
L 114.670387 256.78573 
L 115.361972 261.779976 
L 116.054209 132.508487 
L 116.746446 265.851198 
L 117.438683 240.098969 
M 118.823151 229.685232 
L 119.515395 79.94566 
L 120.207625 218.783302 
L 120.899869 83.569504 
L 121.594579 74.028812 
L 122.286816 94.916961 
L 122.97906 103.197492 
L 123.67129 185.885154 
L 124.363909 108.645347 
M 127.129632 261.139965 
L 127.82187 259.977225 
L 128.514107 252.357597 
L 129.206344 74.35238 
L 129.89967 195.849081 
L 130.591908 134.823947 
L 131.284145 171.992646 
L 131.976389 90.617119 
L 132.670814 99.405264 
L 133.363058 111.617831 
L 134.055295 88.010633 
L 134.747532 90.71125 
L 135.437802 100.466043 
L 136.130039 117.769012 
L 136.822277 155.381933 
M 138.204709 185.689607 
L 138.896947 225.691656 
L 139.589184 200.886014 
L 140.281421 206.541417 
L 140.976101 174.024944 
L 141.668336 169.731943 
L 142.360573 97.290158 
L 143.05281 254.854289 
M 152.05041 140.027283 
L 152.743731 115.435661 
L 153.435969 119.683706 
M 154.820443 194.645374 
L 155.510224 212.411955 
M 159.663852 219.79941 
L 160.356055 227.632141 
L 161.051271 213.774747 
L 162.435745 168.340906 
L 163.127989 165.964447 
M 167.970626 266.098803 
L 169.356457 137.212945 
M 170.740931 150.867433 
L 171.433168 168.522479 
L 172.125831 102.693371 
M 173.510286 142.541274 
L 174.202529 134.744256 
L 174.892987 173.475593 
L 175.585225 190.254692 
L 176.277462 225.823335 
L 176.969699 188.296329 
L 177.662487 223.858204 
L 178.354724 209.73145 
L 179.046962 174.53153 
L 179.739205 124.27588 
M 181.126297 88.039112 
L 182.510778 198.500923 
L 183.200632 212.9754 
L 183.892876 122.61923 
L 184.585113 258.464525 
M 185.969588 267.437271 
L 186.661455 165.431876 
L 187.353692 205.948264 
M 191.509762 225.241021 
L 192.199235 115.75444 
L 192.891481 194.021208 
L 193.583718 160.398055 
L 194.275953 273.009524 
L 195.660172 174.633586 
L 196.352409 75.527788 
L 197.044646 105.716293 
L 197.738917 220.657156 
M 199.123391 104.853681 
L 199.815628 157.943213 
L 200.508823 117.011611 
L 201.893304 145.912691 
M 204.660013 205.490143 
L 205.35225 258.711451 
L 206.044672 136.072234 
L 206.736909 244.537925 
L 207.429146 205.215173 
L 208.121383 199.369343 
L 208.815873 108.240041 
L 210.200348 202.15288 
L 210.892585 184.057122 
L 211.583861 186.36089 
L 212.276099 191.548958 
L 212.968342 165.833237 
L 213.66058 155.061236 
L 214.351919 256.098063 
L 215.044156 295.488 
L 215.736393 292.030155 
L 216.428631 189.330951 
L 217.814995 112.048308 
L 218.507232 137.661664 
L 219.199469 176.35862 
L 219.891706 97.6602 
L 220.58497 150.319545 
L 221.277214 233.881724 
L 221.969824 195.352378 
L 222.661681 272.413406 
L 223.354881 208.77888 
L 224.047124 156.296571 
L 224.739362 206.011837 
L 225.431599 164.284452 
L 226.123329 225.41506 
L 226.815566 195.308843 
L 227.507804 58.333751 
L 228.200041 141.481298 
L 228.892598 53.568 
L 229.584835 119.180283 
L 230.277072 121.970896 
L 230.96931 56.481064 
L 231.661953 91.854011 
L 232.35419 118.319985 
L 233.046427 88.261751 
L 233.738664 135.730464 
L 234.434318 120.798709 
L 235.126562 124.19982 
L 235.818799 99.183573 
L 236.511036 126.690945 
L 237.205725 88.190081 
L 237.897963 82.153305 
L 238.5902 97.646643 
L 239.282437 81.620605 
L 239.966295 131.1677 
M 241.350776 201.883009 
L 242.043013 90.999736 
L 242.735331 90.853294 
L 243.427569 78.608007 
L 244.119806 63.334996 
L 244.812043 276.964668 
L 245.504977 144.0557 
L 246.197214 69.938706 
L 246.889449 111.807698 
L 247.581686 87.745868 
L 248.274878 108.627247 
L 248.967115 107.271398 
L 250.351589 116.240397 
L 251.043826 115.357935 
M 253.121246 156.271521 
L 253.81349 102.526589 
M 256.577429 229.297348 
L 257.269926 244.159342 
L 257.962163 190.87404 
L 258.6544 238.61127 
M 260.040695 242.818607 
L 260.732932 98.516754 
L 261.425169 105.291944 
L 262.117406 80.744611 
L 262.80931 121.88951 
M 313.343492 156.755375 
L 314.035729 180.240408 
M 315.42021 116.368049 
L 316.112447 84.9709 
M 317.496096 160.566946 
L 318.188333 89.998718 
L 318.880571 110.977834 
M 324.419095 244.250064 
L 325.805058 181.395305 
L 326.497302 200.201651 
M 329.269218 117.38836 
L 329.961455 181.924199 
L 330.653469 102.704946 
L 331.346218 114.870478 
L 332.037944 139.675168 
L 332.730181 198.400525 
L 333.422638 98.102657 
L 334.114875 111.189829 
M 340.343899 152.313779 
L 341.036136 120.974266 
L 341.726718 139.674986 
M 346.569651 123.800105 
L 347.262064 112.179446 
M 367.338052 199.34613 
L 368.030296 199.109606 
L 368.722533 204.724651 
L 369.41477 213.773142 
L 370.107983 177.819087 
M 373.570157 179.209261 
L 374.262395 144.777122 
L 374.95463 145.145237 
L 375.647823 129.127639 
M 383.952811 126.146095 
L 384.644637 128.703374 
M 386.721348 147.509112 
L 387.412183 142.814564 
L 388.104412 155.365933 
L 388.796657 138.660452 
L 389.488894 146.101826 
L 390.179932 139.182896 
L 390.872169 139.193477 
L 391.564426 172.66239 
M 393.640972 150.177773 
" style="fill:none;stroke:#ff0000;stroke-linecap:square;"/>
   </g>
   <g id="line2d_144">
    <path clip-path="url(#p298e869a84)" d="M 73.832727 90.695927 
L 74.524971 92.931691 
L 75.217208 102.8035 
L 75.90628 103.158141 
L 76.598517 107.081084 
L 77.290754 106.138466 
L 77.982991 99.918593 
L 78.6751 97.195116 
L 79.367337 95.767305 
L 80.059581 95.833296 
L 80.751818 101.470112 
L 81.446481 100.956621 
L 82.138725 96.866351 
L 82.830962 98.728163 
L 83.523199 98.007787 
L 84.216653 99.261711 
L 84.908883 104.33701 
L 85.601147 103.83807 
L 86.293364 99.868169 
L 86.985656 101.120709 
L 88.367373 108.720982 
L 89.05961 105.02812 
L 89.751847 102.552764 
L 90.441987 111.335402 
L 91.826467 138.95145 
L 92.518705 149.571143 
L 93.209773 153.888426 
L 94.594254 158.551295 
L 95.286491 153.273338 
L 95.979336 141.703602 
L 98.056056 90.166162 
L 98.749362 83.82879 
L 99.44205 83.789316 
L 100.133837 92.054714 
L 100.826074 113.905318 
M 104.284797 211.172264 
L 104.977035 222.735849 
L 105.669272 225.579589 
M 108.439825 172.253815 
L 109.132062 155.682044 
L 109.824962 147.499436 
L 110.517208 146.311041 
M 113.285912 185.266706 
L 113.978149 196.281686 
L 114.670387 203.779968 
L 115.361972 207.851378 
L 116.054209 209.154363 
L 116.746446 210.789992 
L 117.438683 211.070226 
M 118.823151 194.751828 
L 120.207625 150.654623 
L 120.899869 125.670003 
L 121.594579 105.575335 
L 122.286816 95.790448 
L 122.97906 92.738511 
L 123.67129 103.32003 
L 124.363909 121.304267 
M 127.129632 197.61585 
L 127.82187 205.201085 
L 128.514107 199.011713 
L 129.89967 165.681749 
L 131.284145 124.898453 
L 131.976389 109.073574 
L 132.670814 98.052076 
L 133.363058 91.607682 
L 134.055295 91.397867 
L 134.747532 98.540298 
L 135.437802 111.830451 
L 136.822277 150.129833 
M 138.204709 170.50681 
L 138.896947 178.643469 
L 139.589184 183.509249 
L 140.281421 183.06325 
L 140.976101 177.61038 
L 141.668336 167.473072 
L 142.360573 154.511447 
L 143.05281 145.55747 
M 152.05041 121.233147 
L 152.743731 121.595705 
L 153.435969 133.92038 
M 154.820443 166.73705 
L 155.510224 183.210412 
M 159.663852 192.30042 
L 160.356055 185.06978 
L 161.743508 176.006805 
L 162.435745 171.152322 
L 163.127989 167.202964 
M 167.970626 170.78909 
L 168.662863 166.998974 
L 169.356457 158.730715 
M 170.740931 129.713623 
L 171.433168 117.934159 
L 172.125831 115.538233 
M 173.510286 144.040407 
L 174.892987 169.852464 
L 175.585225 178.314002 
L 176.277462 177.238307 
L 176.969699 175.939661 
L 177.662487 181.625502 
L 178.354724 182.737972 
L 179.046962 177.086228 
L 179.739205 168.067507 
M 181.126297 154.641628 
L 181.818534 156.610134 
L 182.510778 162.29439 
L 183.200632 173.358802 
L 183.892876 187.949862 
L 184.585113 194.872228 
M 185.969588 188.588702 
L 186.661455 182.670351 
L 187.353692 175.192594 
M 191.509762 178.511517 
L 192.199235 189.767794 
L 192.891481 198.742451 
L 193.583718 202.171131 
L 194.275953 202.038883 
L 195.660172 190.292998 
L 196.352409 187.520337 
L 197.738917 161.493509 
M 199.123391 122.164206 
L 199.815628 107.061016 
L 200.508823 107.640451 
L 201.20106 118.507202 
L 201.893304 136.600784 
M 204.660013 189.339786 
L 205.35225 194.657989 
L 206.044672 188.753718 
L 206.736909 179.080088 
L 207.429146 164.618006 
L 208.121383 147.63677 
L 208.815873 138.096367 
L 209.50811 139.99716 
L 210.200348 152.41705 
L 211.583861 183.779118 
L 212.276099 196.065748 
L 212.968342 202.611716 
L 213.66058 204.341516 
L 214.351919 202.153391 
L 215.044156 193.510612 
L 216.428631 170.699749 
L 217.120874 151.407955 
L 217.814995 136.589169 
L 218.507232 129.793742 
L 219.199469 136.960604 
L 221.277214 198.102906 
L 221.969824 209.356711 
L 222.661681 212.076488 
L 223.354881 210.507866 
L 224.047124 208.140068 
L 224.739362 203.733406 
L 225.431599 198.378706 
L 226.123329 188.91371 
L 226.815566 176.952805 
L 227.507804 161.443416 
L 228.200041 149.849582 
L 229.584835 118.892321 
L 230.277072 111.296424 
L 230.96931 106.560345 
L 231.661953 107.813575 
L 232.35419 110.869648 
L 233.046427 118.33688 
L 234.434318 139.760148 
L 235.126562 146.829478 
L 235.818799 148.756749 
L 236.511036 151.522491 
L 237.205725 153.593464 
L 237.897963 150.615858 
L 238.5902 146.284516 
L 239.282437 146.601333 
L 239.966295 155.83582 
M 241.350776 173.153477 
L 242.043013 169.627876 
L 242.735331 156.872277 
L 244.119806 125.952369 
L 244.812043 116.488402 
L 245.504977 115.234299 
L 246.197214 112.858018 
L 246.889449 110.976042 
L 247.581686 110.515801 
L 248.274878 110.983776 
L 248.967115 112.795566 
L 249.659352 118.290984 
L 250.351589 122.745047 
L 251.043826 128.649016 
M 253.121246 164.570938 
L 253.81349 179.590556 
M 256.577429 179.957918 
L 257.269926 177.001214 
L 257.962163 179.91789 
L 258.6544 178.85216 
M 260.040695 167.195731 
L 262.117406 105.73546 
L 262.80931 100.745322 
M 313.343492 157.29686 
L 314.035729 158.782716 
M 315.42021 159.473343 
L 316.112447 149.589228 
M 317.496096 116.137881 
L 318.188333 111.90943 
L 318.880571 118.170053 
M 324.419095 183.156905 
L 325.112821 190.536212 
L 325.805058 196.059959 
L 326.497302 196.899542 
M 329.269218 151.076312 
L 329.961455 149.710379 
L 330.653469 144.737923 
L 331.346218 137.038376 
L 332.730181 118.657951 
L 333.422638 118.029634 
L 334.114875 126.867795 
M 340.343899 113.665394 
L 341.036136 114.597005 
L 341.726718 117.534128 
M 346.569651 110.588302 
L 347.262064 106.932313 
M 367.338052 198.218092 
L 368.030296 196.703308 
L 368.722533 193.980337 
L 370.107983 183.471279 
M 373.570157 162.463651 
L 374.262395 154.0419 
L 374.95463 151.589185 
L 375.647823 152.216769 
M 383.952811 126.374131 
L 384.644637 123.473593 
M 386.721348 136.848767 
L 387.412183 137.979671 
L 388.104412 138.426659 
L 388.796657 139.352665 
L 389.488894 141.769193 
L 390.872169 148.208365 
L 391.564426 151.177341 
M 393.640972 161.80831 
" style="fill:none;stroke:#0000ff;stroke-linecap:square;"/>
   </g>
   <g id="line2d_145">
    <path clip-path="url(#p298e869a84)" d="M 101.516997 136.861111 
L 103.593715 191.964647 
M 106.361509 220.452162 
L 107.05535 212.86074 
L 107.747587 193.82359 
M 111.209437 150.257775 
L 111.901674 159.894057 
L 112.593675 174.048299 
M 146.511257 168.617477 
L 147.203494 166.496104 
L 147.895731 166.143819 
L 148.588378 164.45347 
L 151.358166 128.721974 
M 156.20247 194.652576 
L 156.894699 199.421237 
L 157.586944 200.917964 
L 158.279343 203.233487 
L 158.97158 201.2114 
M 163.818557 168.988596 
L 165.203032 176.794474 
M 166.586145 175.082208 
L 167.278382 173.737384 
M 188.045929 165.321349 
L 188.738167 157.944821 
M 202.585541 153.710142 
L 203.275538 167.820869 
L 203.967776 179.447729 
M 251.736771 138.528551 
L 252.429009 150.614897 
M 254.500718 187.075157 
L 255.192947 188.044521 
L 255.885192 185.288865 
M 264.886021 124.109047 
L 266.268553 154.632556 
L 266.960791 165.954699 
L 267.653028 171.157341 
L 268.344813 173.176376 
M 269.729287 176.827674 
L 271.116285 184.84732 
L 271.808522 187.259776 
L 273.192996 193.788583 
L 273.886626 195.623196 
L 274.578864 189.929431 
L 275.963338 173.795927 
L 276.655785 169.334323 
L 277.348022 168.211846 
L 278.040266 162.903834 
L 278.732503 160.832497 
L 279.422083 157.740713 
L 280.11432 155.797507 
M 281.498794 138.870152 
L 282.192431 135.600455 
L 282.885262 140.090824 
L 283.576905 151.361961 
L 284.269143 157.451927 
L 284.961386 156.183869 
L 285.652297 153.449494 
M 287.036771 152.439924 
L 287.729008 152.291177 
L 288.421904 152.864262 
L 289.114148 151.92486 
L 289.806385 150.234945 
L 290.498622 151.064294 
L 291.190092 152.217659 
L 291.882329 148.782896 
L 292.574566 141.998536 
L 293.266803 147.975327 
L 293.961207 159.299021 
L 295.345682 188.126311 
L 296.037925 195.036591 
L 296.728311 192.383279 
M 299.500625 135.577236 
L 300.192862 144.94669 
L 300.885099 156.814998 
L 301.577343 164.924475 
M 304.344095 151.670525 
L 305.037283 155.572158 
L 305.72952 161.620711 
L 306.421757 161.194751 
L 307.114493 148.528651 
M 308.496983 116.798758 
L 309.18922 112.217471 
L 309.881458 121.619458 
L 311.268039 151.892315 
L 311.960277 159.928644 
L 312.65252 160.747258 
M 319.576584 133.83389 
L 320.961058 167.644287 
M 322.342377 178.234172 
L 323.034614 177.357452 
L 323.726858 177.784489 
M 334.807119 140.227711 
L 335.499356 148.122239 
M 336.882856 135.972227 
L 338.267337 119.856113 
M 342.418955 123.266648 
L 343.111192 127.640781 
L 343.803429 128.339659 
L 344.492933 126.153979 
L 345.877414 115.596123 
M 347.953989 110.27549 
L 348.646226 122.09954 
L 349.338463 138.528938 
L 350.0307 147.316715 
L 351.414505 156.124125 
L 352.106742 157.737631 
L 352.798979 155.82908 
L 353.491776 148.930545 
L 354.87625 129.761456 
L 355.569124 133.042022 
L 356.26317 142.313227 
L 357.647653 177.638451 
M 360.414189 197.302102 
L 361.106426 204.462186 
L 361.799274 208.338869 
L 362.491511 210.680644 
L 363.183748 209.146376 
L 363.875985 202.854899 
M 365.260626 196.860925 
L 365.952863 195.213451 
L 366.6451 196.851357 
M 370.80022 179.852142 
L 371.492457 177.877453 
L 372.184694 175.153405 
L 372.877912 171.362822 
M 376.34006 151.602529 
L 377.032291 151.9626 
M 380.492239 139.200474 
L 381.184476 140.426986 
L 381.876099 140.301775 
M 385.336874 129.242996 
L 386.029111 133.428315 
M 392.256643 152.790931 
L 392.948735 158.028418 
M 394.333209 165.444404 
L 395.717867 168.360787 
L 396.410104 167.906575 
L 397.102341 167.29217 
L 397.794578 164.467411 
L 398.487273 162.710773 
L 398.487273 162.710773 
" style="fill:none;stroke:#008000;stroke-linecap:square;"/>
   </g>
   <g id="patch_3">
    <path d="M 57.6 307.584 
L 57.6 41.472 
" style="fill:none;stroke:#000000;stroke-linecap:square;stroke-linejoin:miter;stroke-width:0.8;"/>
   </g>
   <g id="patch_4">
    <path d="M 414.72 307.584 
L 414.72 41.472 
" style="fill:none;stroke:#000000;stroke-linecap:square;stroke-linejoin:miter;stroke-width:0.8;"/>
   </g>
   <g id="patch_5">
    <path d="M 57.6 307.584 
L 414.72 307.584 
" style="fill:none;stroke:#000000;stroke-linecap:square;stroke-linejoin:miter;stroke-width:0.8;"/>
   </g>
   <g id="patch_6">
    <path d="M 57.6 41.472 
L 414.72 41.472 
" style="fill:none;stroke:#000000;stroke-linecap:square;stroke-linejoin:miter;stroke-width:0.8;"/>
   </g>
   <g id="text_16">
    <!-- Rel Gt Trans Z Plot -->
    <defs>
     <path d="M 44.390625 34.1875 
Q 47.5625 33.109375 50.5625 29.59375 
Q 53.5625 26.078125 56.59375 19.921875 
L 66.609375 0 
L 56 0 
L 46.6875 18.703125 
Q 43.0625 26.03125 39.671875 28.421875 
Q 36.28125 30.8125 30.421875 30.8125 
L 19.671875 30.8125 
L 19.671875 0 
L 9.8125 0 
L 9.8125 72.90625 
L 32.078125 72.90625 
Q 44.578125 72.90625 50.734375 67.671875 
Q 56.890625 62.453125 56.890625 51.90625 
Q 56.890625 45.015625 53.6875 40.46875 
Q 50.484375 35.9375 44.390625 34.1875 
z
M 19.671875 64.796875 
L 19.671875 38.921875 
L 32.078125 38.921875 
Q 39.203125 38.921875 42.84375 42.21875 
Q 46.484375 45.515625 46.484375 51.90625 
Q 46.484375 58.296875 42.84375 61.546875 
Q 39.203125 64.796875 32.078125 64.796875 
z
" id="DejaVuSans-52"/>
     <path d="M 9.421875 75.984375 
L 18.40625 75.984375 
L 18.40625 0 
L 9.421875 0 
z
" id="DejaVuSans-6c"/>
     <path d="M 59.515625 10.40625 
L 59.515625 29.984375 
L 43.40625 29.984375 
L 43.40625 38.09375 
L 69.28125 38.09375 
L 69.28125 6.78125 
Q 63.578125 2.734375 56.6875 0.65625 
Q 49.8125 -1.421875 42 -1.421875 
Q 24.90625 -1.421875 15.25 8.5625 
Q 5.609375 18.5625 5.609375 36.375 
Q 5.609375 54.25 15.25 64.234375 
Q 24.90625 74.21875 42 74.21875 
Q 49.125 74.21875 55.546875 72.453125 
Q 61.96875 70.703125 67.390625 67.28125 
L 67.390625 56.78125 
Q 61.921875 61.421875 55.765625 63.765625 
Q 49.609375 66.109375 42.828125 66.109375 
Q 29.4375 66.109375 22.71875 58.640625 
Q 16.015625 51.171875 16.015625 36.375 
Q 16.015625 21.625 22.71875 14.15625 
Q 29.4375 6.6875 42.828125 6.6875 
Q 48.046875 6.6875 52.140625 7.59375 
Q 56.25 8.5 59.515625 10.40625 
z
" id="DejaVuSans-47"/>
     <path d="M -0.296875 72.90625 
L 61.375 72.90625 
L 61.375 64.59375 
L 35.5 64.59375 
L 35.5 0 
L 25.59375 0 
L 25.59375 64.59375 
L -0.296875 64.59375 
z
" id="DejaVuSans-54"/>
     <path d="M 5.609375 72.90625 
L 62.890625 72.90625 
L 62.890625 65.375 
L 16.796875 8.296875 
L 64.015625 8.296875 
L 64.015625 0 
L 4.5 0 
L 4.5 7.515625 
L 50.59375 64.59375 
L 5.609375 64.59375 
z
" id="DejaVuSans-5a"/>
     <path d="M 19.671875 64.796875 
L 19.671875 37.40625 
L 32.078125 37.40625 
Q 38.96875 37.40625 42.71875 40.96875 
Q 46.484375 44.53125 46.484375 51.125 
Q 46.484375 57.671875 42.71875 61.234375 
Q 38.96875 64.796875 32.078125 64.796875 
z
M 9.8125 72.90625 
L 32.078125 72.90625 
Q 44.34375 72.90625 50.609375 67.359375 
Q 56.890625 61.8125 56.890625 51.125 
Q 56.890625 40.328125 50.609375 34.8125 
Q 44.34375 29.296875 32.078125 29.296875 
L 19.671875 29.296875 
L 19.671875 0 
L 9.8125 0 
z
" id="DejaVuSans-50"/>
     <path d="M 30.609375 48.390625 
Q 23.390625 48.390625 19.1875 42.75 
Q 14.984375 37.109375 14.984375 27.296875 
Q 14.984375 17.484375 19.15625 11.84375 
Q 23.34375 6.203125 30.609375 6.203125 
Q 37.796875 6.203125 41.984375 11.859375 
Q 46.1875 17.53125 46.1875 27.296875 
Q 46.1875 37.015625 41.984375 42.703125 
Q 37.796875 48.390625 30.609375 48.390625 
z
M 30.609375 56 
Q 42.328125 56 49.015625 48.375 
Q 55.71875 40.765625 55.71875 27.296875 
Q 55.71875 13.875 49.015625 6.21875 
Q 42.328125 -1.421875 30.609375 -1.421875 
Q 18.84375 -1.421875 12.171875 6.21875 
Q 5.515625 13.875 5.515625 27.296875 
Q 5.515625 40.765625 12.171875 48.375 
Q 18.84375 56 30.609375 56 
z
" id="DejaVuSans-6f"/>
    </defs>
    <g transform="translate(179.865938 35.472)scale(0.12 -0.12)">
     <use xlink:href="#DejaVuSans-52"/>
     <use x="69.419922" xlink:href="#DejaVuSans-65"/>
     <use x="130.943359" xlink:href="#DejaVuSans-6c"/>
     <use x="158.726562" xlink:href="#DejaVuSans-20"/>
     <use x="190.513672" xlink:href="#DejaVuSans-47"/>
     <use x="268.003906" xlink:href="#DejaVuSans-74"/>
     <use x="307.212891" xlink:href="#DejaVuSans-20"/>
     <use x="339" xlink:href="#DejaVuSans-54"/>
     <use x="399.865234" xlink:href="#DejaVuSans-72"/>
     <use x="440.978516" xlink:href="#DejaVuSans-61"/>
     <use x="502.257812" xlink:href="#DejaVuSans-6e"/>
     <use x="565.636719" xlink:href="#DejaVuSans-73"/>
     <use x="617.736328" xlink:href="#DejaVuSans-20"/>
     <use x="649.523438" xlink:href="#DejaVuSans-5a"/>
     <use x="718.029297" xlink:href="#DejaVuSans-20"/>
     <use x="749.816406" xlink:href="#DejaVuSans-50"/>
     <use x="810.119141" xlink:href="#DejaVuSans-6c"/>
     <use x="837.902344" xlink:href="#DejaVuSans-6f"/>
     <use x="899.083984" xlink:href="#DejaVuSans-74"/>
    </g>
   </g>
  </g>
 </g>
 <defs>
  <clipPath id="p298e869a84">
   <rect height="266.112" width="357.12" x="57.6" y="41.472"/>
  </clipPath>
 </defs>
</svg>
