<?xml version="1.0" encoding="utf-8" standalone="no"?>
<!DOCTYPE svg PUBLIC "-//W3C//DTD SVG 1.1//EN"
  "http://www.w3.org/Graphics/SVG/1.1/DTD/svg11.dtd">
<!-- Created with matplotlib (http://matplotlib.org/) -->
<svg height="345.6pt" version="1.1" viewBox="0 0 460.8 345.6" width="460.8pt" xmlns="http://www.w3.org/2000/svg" xmlns:xlink="http://www.w3.org/1999/xlink">
 <defs>
  <style type="text/css">
*{stroke-linecap:butt;stroke-linejoin:round;}
  </style>
 </defs>
 <g id="figure_1">
  <g id="patch_1">
   <path d="M 0 345.6 
L 460.8 345.6 
L 460.8 0 
L 0 0 
z
" style="fill:#ffffff;"/>
  </g>
  <g id="axes_1">
   <g id="patch_2">
    <path d="M 57.6 307.584 
L 414.72 307.584 
L 414.72 41.472 
L 57.6 41.472 
z
" style="fill:#ffffff;"/>
   </g>
   <g id="matplotlib.axis_1">
    <g id="xtick_1">
     <g id="line2d_1">
      <path clip-path="url(#p986115183c)" d="M 70.555248 307.584 
L 70.555248 41.472 
" style="fill:none;stroke:#b0b0b0;stroke-linecap:square;stroke-width:0.8;"/>
     </g>
     <g id="line2d_2">
      <defs>
       <path d="M 0 0 
L 0 3.5 
" id="m7f7393d8f8" style="stroke:#000000;stroke-width:0.8;"/>
      </defs>
      <g>
       <use style="stroke:#000000;stroke-width:0.8;" x="70.555248" xlink:href="#m7f7393d8f8" y="307.584"/>
      </g>
     </g>
     <g id="text_1">
      <!-- 0 -->
      <defs>
       <path d="M 31.78125 66.40625 
Q 24.171875 66.40625 20.328125 58.90625 
Q 16.5 51.421875 16.5 36.375 
Q 16.5 21.390625 20.328125 13.890625 
Q 24.171875 6.390625 31.78125 6.390625 
Q 39.453125 6.390625 43.28125 13.890625 
Q 47.125 21.390625 47.125 36.375 
Q 47.125 51.421875 43.28125 58.90625 
Q 39.453125 66.40625 31.78125 66.40625 
z
M 31.78125 74.21875 
Q 44.046875 74.21875 50.515625 64.515625 
Q 56.984375 54.828125 56.984375 36.375 
Q 56.984375 17.96875 50.515625 8.265625 
Q 44.046875 -1.421875 31.78125 -1.421875 
Q 19.53125 -1.421875 13.0625 8.265625 
Q 6.59375 17.96875 6.59375 36.375 
Q 6.59375 54.828125 13.0625 64.515625 
Q 19.53125 74.21875 31.78125 74.21875 
z
" id="DejaVuSans-30"/>
      </defs>
      <g transform="translate(67.373998 322.182437)scale(0.1 -0.1)">
       <use xlink:href="#DejaVuSans-30"/>
      </g>
     </g>
    </g>
    <g id="xtick_2">
     <g id="line2d_3">
      <path clip-path="url(#p986115183c)" d="M 139.776886 307.584 
L 139.776886 41.472 
" style="fill:none;stroke:#b0b0b0;stroke-linecap:square;stroke-width:0.8;"/>
     </g>
     <g id="line2d_4">
      <g>
       <use style="stroke:#000000;stroke-width:0.8;" x="139.776886" xlink:href="#m7f7393d8f8" y="307.584"/>
      </g>
     </g>
     <g id="text_2">
      <!-- 10 -->
      <defs>
       <path d="M 12.40625 8.296875 
L 28.515625 8.296875 
L 28.515625 63.921875 
L 10.984375 60.40625 
L 10.984375 69.390625 
L 28.421875 72.90625 
L 38.28125 72.90625 
L 38.28125 8.296875 
L 54.390625 8.296875 
L 54.390625 0 
L 12.40625 0 
z
" id="DejaVuSans-31"/>
      </defs>
      <g transform="translate(133.414386 322.182437)scale(0.1 -0.1)">
       <use xlink:href="#DejaVuSans-31"/>
       <use x="63.623047" xlink:href="#DejaVuSans-30"/>
      </g>
     </g>
    </g>
    <g id="xtick_3">
     <g id="line2d_5">
      <path clip-path="url(#p986115183c)" d="M 208.998523 307.584 
L 208.998523 41.472 
" style="fill:none;stroke:#b0b0b0;stroke-linecap:square;stroke-width:0.8;"/>
     </g>
     <g id="line2d_6">
      <g>
       <use style="stroke:#000000;stroke-width:0.8;" x="208.998523" xlink:href="#m7f7393d8f8" y="307.584"/>
      </g>
     </g>
     <g id="text_3">
      <!-- 20 -->
      <defs>
       <path d="M 19.1875 8.296875 
L 53.609375 8.296875 
L 53.609375 0 
L 7.328125 0 
L 7.328125 8.296875 
Q 12.9375 14.109375 22.625 23.890625 
Q 32.328125 33.6875 34.8125 36.53125 
Q 39.546875 41.84375 41.421875 45.53125 
Q 43.3125 49.21875 43.3125 52.78125 
Q 43.3125 58.59375 39.234375 62.25 
Q 35.15625 65.921875 28.609375 65.921875 
Q 23.96875 65.921875 18.8125 64.3125 
Q 13.671875 62.703125 7.8125 59.421875 
L 7.8125 69.390625 
Q 13.765625 71.78125 18.9375 73 
Q 24.125 74.21875 28.421875 74.21875 
Q 39.75 74.21875 46.484375 68.546875 
Q 53.21875 62.890625 53.21875 53.421875 
Q 53.21875 48.921875 51.53125 44.890625 
Q 49.859375 40.875 45.40625 35.40625 
Q 44.1875 33.984375 37.640625 27.21875 
Q 31.109375 20.453125 19.1875 8.296875 
z
" id="DejaVuSans-32"/>
      </defs>
      <g transform="translate(202.636023 322.182437)scale(0.1 -0.1)">
       <use xlink:href="#DejaVuSans-32"/>
       <use x="63.623047" xlink:href="#DejaVuSans-30"/>
      </g>
     </g>
    </g>
    <g id="xtick_4">
     <g id="line2d_7">
      <path clip-path="url(#p986115183c)" d="M 278.220161 307.584 
L 278.220161 41.472 
" style="fill:none;stroke:#b0b0b0;stroke-linecap:square;stroke-width:0.8;"/>
     </g>
     <g id="line2d_8">
      <g>
       <use style="stroke:#000000;stroke-width:0.8;" x="278.220161" xlink:href="#m7f7393d8f8" y="307.584"/>
      </g>
     </g>
     <g id="text_4">
      <!-- 30 -->
      <defs>
       <path d="M 40.578125 39.3125 
Q 47.65625 37.796875 51.625 33 
Q 55.609375 28.21875 55.609375 21.1875 
Q 55.609375 10.40625 48.1875 4.484375 
Q 40.765625 -1.421875 27.09375 -1.421875 
Q 22.515625 -1.421875 17.65625 -0.515625 
Q 12.796875 0.390625 7.625 2.203125 
L 7.625 11.71875 
Q 11.71875 9.328125 16.59375 8.109375 
Q 21.484375 6.890625 26.8125 6.890625 
Q 36.078125 6.890625 40.9375 10.546875 
Q 45.796875 14.203125 45.796875 21.1875 
Q 45.796875 27.640625 41.28125 31.265625 
Q 36.765625 34.90625 28.71875 34.90625 
L 20.21875 34.90625 
L 20.21875 43.015625 
L 29.109375 43.015625 
Q 36.375 43.015625 40.234375 45.921875 
Q 44.09375 48.828125 44.09375 54.296875 
Q 44.09375 59.90625 40.109375 62.90625 
Q 36.140625 65.921875 28.71875 65.921875 
Q 24.65625 65.921875 20.015625 65.03125 
Q 15.375 64.15625 9.8125 62.3125 
L 9.8125 71.09375 
Q 15.4375 72.65625 20.34375 73.4375 
Q 25.25 74.21875 29.59375 74.21875 
Q 40.828125 74.21875 47.359375 69.109375 
Q 53.90625 64.015625 53.90625 55.328125 
Q 53.90625 49.265625 50.4375 45.09375 
Q 46.96875 40.921875 40.578125 39.3125 
z
" id="DejaVuSans-33"/>
      </defs>
      <g transform="translate(271.857661 322.182437)scale(0.1 -0.1)">
       <use xlink:href="#DejaVuSans-33"/>
       <use x="63.623047" xlink:href="#DejaVuSans-30"/>
      </g>
     </g>
    </g>
    <g id="xtick_5">
     <g id="line2d_9">
      <path clip-path="url(#p986115183c)" d="M 347.441799 307.584 
L 347.441799 41.472 
" style="fill:none;stroke:#b0b0b0;stroke-linecap:square;stroke-width:0.8;"/>
     </g>
     <g id="line2d_10">
      <g>
       <use style="stroke:#000000;stroke-width:0.8;" x="347.441799" xlink:href="#m7f7393d8f8" y="307.584"/>
      </g>
     </g>
     <g id="text_5">
      <!-- 40 -->
      <defs>
       <path d="M 37.796875 64.3125 
L 12.890625 25.390625 
L 37.796875 25.390625 
z
M 35.203125 72.90625 
L 47.609375 72.90625 
L 47.609375 25.390625 
L 58.015625 25.390625 
L 58.015625 17.1875 
L 47.609375 17.1875 
L 47.609375 0 
L 37.796875 0 
L 37.796875 17.1875 
L 4.890625 17.1875 
L 4.890625 26.703125 
z
" id="DejaVuSans-34"/>
      </defs>
      <g transform="translate(341.079299 322.182437)scale(0.1 -0.1)">
       <use xlink:href="#DejaVuSans-34"/>
       <use x="63.623047" xlink:href="#DejaVuSans-30"/>
      </g>
     </g>
    </g>
    <g id="xtick_6">
     <g id="line2d_11">
      <path clip-path="url(#p986115183c)" d="M 84.399575 307.584 
L 84.399575 41.472 
" style="fill:none;stroke:#b0b0b0;stroke-linecap:square;stroke-width:0.8;"/>
     </g>
     <g id="line2d_12">
      <defs>
       <path d="M 0 0 
L 0 2 
" id="m79df7ea71d" style="stroke:#000000;stroke-width:0.6;"/>
      </defs>
      <g>
       <use style="stroke:#000000;stroke-width:0.6;" x="84.399575" xlink:href="#m79df7ea71d" y="307.584"/>
      </g>
     </g>
    </g>
    <g id="xtick_7">
     <g id="line2d_13">
      <path clip-path="url(#p986115183c)" d="M 98.243903 307.584 
L 98.243903 41.472 
" style="fill:none;stroke:#b0b0b0;stroke-linecap:square;stroke-width:0.8;"/>
     </g>
     <g id="line2d_14">
      <g>
       <use style="stroke:#000000;stroke-width:0.6;" x="98.243903" xlink:href="#m79df7ea71d" y="307.584"/>
      </g>
     </g>
    </g>
    <g id="xtick_8">
     <g id="line2d_15">
      <path clip-path="url(#p986115183c)" d="M 112.08823 307.584 
L 112.08823 41.472 
" style="fill:none;stroke:#b0b0b0;stroke-linecap:square;stroke-width:0.8;"/>
     </g>
     <g id="line2d_16">
      <g>
       <use style="stroke:#000000;stroke-width:0.6;" x="112.08823" xlink:href="#m79df7ea71d" y="307.584"/>
      </g>
     </g>
    </g>
    <g id="xtick_9">
     <g id="line2d_17">
      <path clip-path="url(#p986115183c)" d="M 125.932558 307.584 
L 125.932558 41.472 
" style="fill:none;stroke:#b0b0b0;stroke-linecap:square;stroke-width:0.8;"/>
     </g>
     <g id="line2d_18">
      <g>
       <use style="stroke:#000000;stroke-width:0.6;" x="125.932558" xlink:href="#m79df7ea71d" y="307.584"/>
      </g>
     </g>
    </g>
    <g id="xtick_10">
     <g id="line2d_19">
      <path clip-path="url(#p986115183c)" d="M 153.621213 307.584 
L 153.621213 41.472 
" style="fill:none;stroke:#b0b0b0;stroke-linecap:square;stroke-width:0.8;"/>
     </g>
     <g id="line2d_20">
      <g>
       <use style="stroke:#000000;stroke-width:0.6;" x="153.621213" xlink:href="#m79df7ea71d" y="307.584"/>
      </g>
     </g>
    </g>
    <g id="xtick_11">
     <g id="line2d_21">
      <path clip-path="url(#p986115183c)" d="M 167.465541 307.584 
L 167.465541 41.472 
" style="fill:none;stroke:#b0b0b0;stroke-linecap:square;stroke-width:0.8;"/>
     </g>
     <g id="line2d_22">
      <g>
       <use style="stroke:#000000;stroke-width:0.6;" x="167.465541" xlink:href="#m79df7ea71d" y="307.584"/>
      </g>
     </g>
    </g>
    <g id="xtick_12">
     <g id="line2d_23">
      <path clip-path="url(#p986115183c)" d="M 181.309868 307.584 
L 181.309868 41.472 
" style="fill:none;stroke:#b0b0b0;stroke-linecap:square;stroke-width:0.8;"/>
     </g>
     <g id="line2d_24">
      <g>
       <use style="stroke:#000000;stroke-width:0.6;" x="181.309868" xlink:href="#m79df7ea71d" y="307.584"/>
      </g>
     </g>
    </g>
    <g id="xtick_13">
     <g id="line2d_25">
      <path clip-path="url(#p986115183c)" d="M 195.154196 307.584 
L 195.154196 41.472 
" style="fill:none;stroke:#b0b0b0;stroke-linecap:square;stroke-width:0.8;"/>
     </g>
     <g id="line2d_26">
      <g>
       <use style="stroke:#000000;stroke-width:0.6;" x="195.154196" xlink:href="#m79df7ea71d" y="307.584"/>
      </g>
     </g>
    </g>
    <g id="xtick_14">
     <g id="line2d_27">
      <path clip-path="url(#p986115183c)" d="M 222.842851 307.584 
L 222.842851 41.472 
" style="fill:none;stroke:#b0b0b0;stroke-linecap:square;stroke-width:0.8;"/>
     </g>
     <g id="line2d_28">
      <g>
       <use style="stroke:#000000;stroke-width:0.6;" x="222.842851" xlink:href="#m79df7ea71d" y="307.584"/>
      </g>
     </g>
    </g>
    <g id="xtick_15">
     <g id="line2d_29">
      <path clip-path="url(#p986115183c)" d="M 236.687178 307.584 
L 236.687178 41.472 
" style="fill:none;stroke:#b0b0b0;stroke-linecap:square;stroke-width:0.8;"/>
     </g>
     <g id="line2d_30">
      <g>
       <use style="stroke:#000000;stroke-width:0.6;" x="236.687178" xlink:href="#m79df7ea71d" y="307.584"/>
      </g>
     </g>
    </g>
    <g id="xtick_16">
     <g id="line2d_31">
      <path clip-path="url(#p986115183c)" d="M 250.531506 307.584 
L 250.531506 41.472 
" style="fill:none;stroke:#b0b0b0;stroke-linecap:square;stroke-width:0.8;"/>
     </g>
     <g id="line2d_32">
      <g>
       <use style="stroke:#000000;stroke-width:0.6;" x="250.531506" xlink:href="#m79df7ea71d" y="307.584"/>
      </g>
     </g>
    </g>
    <g id="xtick_17">
     <g id="line2d_33">
      <path clip-path="url(#p986115183c)" d="M 264.375834 307.584 
L 264.375834 41.472 
" style="fill:none;stroke:#b0b0b0;stroke-linecap:square;stroke-width:0.8;"/>
     </g>
     <g id="line2d_34">
      <g>
       <use style="stroke:#000000;stroke-width:0.6;" x="264.375834" xlink:href="#m79df7ea71d" y="307.584"/>
      </g>
     </g>
    </g>
    <g id="xtick_18">
     <g id="line2d_35">
      <path clip-path="url(#p986115183c)" d="M 292.064489 307.584 
L 292.064489 41.472 
" style="fill:none;stroke:#b0b0b0;stroke-linecap:square;stroke-width:0.8;"/>
     </g>
     <g id="line2d_36">
      <g>
       <use style="stroke:#000000;stroke-width:0.6;" x="292.064489" xlink:href="#m79df7ea71d" y="307.584"/>
      </g>
     </g>
    </g>
    <g id="xtick_19">
     <g id="line2d_37">
      <path clip-path="url(#p986115183c)" d="M 305.908816 307.584 
L 305.908816 41.472 
" style="fill:none;stroke:#b0b0b0;stroke-linecap:square;stroke-width:0.8;"/>
     </g>
     <g id="line2d_38">
      <g>
       <use style="stroke:#000000;stroke-width:0.6;" x="305.908816" xlink:href="#m79df7ea71d" y="307.584"/>
      </g>
     </g>
    </g>
    <g id="xtick_20">
     <g id="line2d_39">
      <path clip-path="url(#p986115183c)" d="M 319.753144 307.584 
L 319.753144 41.472 
" style="fill:none;stroke:#b0b0b0;stroke-linecap:square;stroke-width:0.8;"/>
     </g>
     <g id="line2d_40">
      <g>
       <use style="stroke:#000000;stroke-width:0.6;" x="319.753144" xlink:href="#m79df7ea71d" y="307.584"/>
      </g>
     </g>
    </g>
    <g id="xtick_21">
     <g id="line2d_41">
      <path clip-path="url(#p986115183c)" d="M 333.597471 307.584 
L 333.597471 41.472 
" style="fill:none;stroke:#b0b0b0;stroke-linecap:square;stroke-width:0.8;"/>
     </g>
     <g id="line2d_42">
      <g>
       <use style="stroke:#000000;stroke-width:0.6;" x="333.597471" xlink:href="#m79df7ea71d" y="307.584"/>
      </g>
     </g>
    </g>
    <g id="xtick_22">
     <g id="line2d_43">
      <path clip-path="url(#p986115183c)" d="M 361.286127 307.584 
L 361.286127 41.472 
" style="fill:none;stroke:#b0b0b0;stroke-linecap:square;stroke-width:0.8;"/>
     </g>
     <g id="line2d_44">
      <g>
       <use style="stroke:#000000;stroke-width:0.6;" x="361.286127" xlink:href="#m79df7ea71d" y="307.584"/>
      </g>
     </g>
    </g>
    <g id="xtick_23">
     <g id="line2d_45">
      <path clip-path="url(#p986115183c)" d="M 375.130454 307.584 
L 375.130454 41.472 
" style="fill:none;stroke:#b0b0b0;stroke-linecap:square;stroke-width:0.8;"/>
     </g>
     <g id="line2d_46">
      <g>
       <use style="stroke:#000000;stroke-width:0.6;" x="375.130454" xlink:href="#m79df7ea71d" y="307.584"/>
      </g>
     </g>
    </g>
    <g id="xtick_24">
     <g id="line2d_47">
      <path clip-path="url(#p986115183c)" d="M 388.974782 307.584 
L 388.974782 41.472 
" style="fill:none;stroke:#b0b0b0;stroke-linecap:square;stroke-width:0.8;"/>
     </g>
     <g id="line2d_48">
      <g>
       <use style="stroke:#000000;stroke-width:0.6;" x="388.974782" xlink:href="#m79df7ea71d" y="307.584"/>
      </g>
     </g>
    </g>
    <g id="xtick_25">
     <g id="line2d_49">
      <path clip-path="url(#p986115183c)" d="M 402.819109 307.584 
L 402.819109 41.472 
" style="fill:none;stroke:#b0b0b0;stroke-linecap:square;stroke-width:0.8;"/>
     </g>
     <g id="line2d_50">
      <g>
       <use style="stroke:#000000;stroke-width:0.6;" x="402.819109" xlink:href="#m79df7ea71d" y="307.584"/>
      </g>
     </g>
    </g>
    <g id="text_6">
     <!-- frame # [] -->
     <defs>
      <path d="M 37.109375 75.984375 
L 37.109375 68.5 
L 28.515625 68.5 
Q 23.6875 68.5 21.796875 66.546875 
Q 19.921875 64.59375 19.921875 59.515625 
L 19.921875 54.6875 
L 34.71875 54.6875 
L 34.71875 47.703125 
L 19.921875 47.703125 
L 19.921875 0 
L 10.890625 0 
L 10.890625 47.703125 
L 2.296875 47.703125 
L 2.296875 54.6875 
L 10.890625 54.6875 
L 10.890625 58.5 
Q 10.890625 67.625 15.140625 71.796875 
Q 19.390625 75.984375 28.609375 75.984375 
z
" id="DejaVuSans-66"/>
      <path d="M 41.109375 46.296875 
Q 39.59375 47.171875 37.8125 47.578125 
Q 36.03125 48 33.890625 48 
Q 26.265625 48 22.1875 43.046875 
Q 18.109375 38.09375 18.109375 28.8125 
L 18.109375 0 
L 9.078125 0 
L 9.078125 54.6875 
L 18.109375 54.6875 
L 18.109375 46.1875 
Q 20.953125 51.171875 25.484375 53.578125 
Q 30.03125 56 36.53125 56 
Q 37.453125 56 38.578125 55.875 
Q 39.703125 55.765625 41.0625 55.515625 
z
" id="DejaVuSans-72"/>
      <path d="M 34.28125 27.484375 
Q 23.390625 27.484375 19.1875 25 
Q 14.984375 22.515625 14.984375 16.5 
Q 14.984375 11.71875 18.140625 8.90625 
Q 21.296875 6.109375 26.703125 6.109375 
Q 34.1875 6.109375 38.703125 11.40625 
Q 43.21875 16.703125 43.21875 25.484375 
L 43.21875 27.484375 
z
M 52.203125 31.203125 
L 52.203125 0 
L 43.21875 0 
L 43.21875 8.296875 
Q 40.140625 3.328125 35.546875 0.953125 
Q 30.953125 -1.421875 24.3125 -1.421875 
Q 15.921875 -1.421875 10.953125 3.296875 
Q 6 8.015625 6 15.921875 
Q 6 25.140625 12.171875 29.828125 
Q 18.359375 34.515625 30.609375 34.515625 
L 43.21875 34.515625 
L 43.21875 35.40625 
Q 43.21875 41.609375 39.140625 45 
Q 35.0625 48.390625 27.6875 48.390625 
Q 23 48.390625 18.546875 47.265625 
Q 14.109375 46.140625 10.015625 43.890625 
L 10.015625 52.203125 
Q 14.9375 54.109375 19.578125 55.046875 
Q 24.21875 56 28.609375 56 
Q 40.484375 56 46.34375 49.84375 
Q 52.203125 43.703125 52.203125 31.203125 
z
" id="DejaVuSans-61"/>
      <path d="M 52 44.1875 
Q 55.375 50.25 60.0625 53.125 
Q 64.75 56 71.09375 56 
Q 79.640625 56 84.28125 50.015625 
Q 88.921875 44.046875 88.921875 33.015625 
L 88.921875 0 
L 79.890625 0 
L 79.890625 32.71875 
Q 79.890625 40.578125 77.09375 44.375 
Q 74.3125 48.1875 68.609375 48.1875 
Q 61.625 48.1875 57.5625 43.546875 
Q 53.515625 38.921875 53.515625 30.90625 
L 53.515625 0 
L 44.484375 0 
L 44.484375 32.71875 
Q 44.484375 40.625 41.703125 44.40625 
Q 38.921875 48.1875 33.109375 48.1875 
Q 26.21875 48.1875 22.15625 43.53125 
Q 18.109375 38.875 18.109375 30.90625 
L 18.109375 0 
L 9.078125 0 
L 9.078125 54.6875 
L 18.109375 54.6875 
L 18.109375 46.1875 
Q 21.1875 51.21875 25.484375 53.609375 
Q 29.78125 56 35.6875 56 
Q 41.65625 56 45.828125 52.96875 
Q 50 49.953125 52 44.1875 
z
" id="DejaVuSans-6d"/>
      <path d="M 56.203125 29.59375 
L 56.203125 25.203125 
L 14.890625 25.203125 
Q 15.484375 15.921875 20.484375 11.0625 
Q 25.484375 6.203125 34.421875 6.203125 
Q 39.59375 6.203125 44.453125 7.46875 
Q 49.3125 8.734375 54.109375 11.28125 
L 54.109375 2.78125 
Q 49.265625 0.734375 44.1875 -0.34375 
Q 39.109375 -1.421875 33.890625 -1.421875 
Q 20.796875 -1.421875 13.15625 6.1875 
Q 5.515625 13.8125 5.515625 26.8125 
Q 5.515625 40.234375 12.765625 48.109375 
Q 20.015625 56 32.328125 56 
Q 43.359375 56 49.78125 48.890625 
Q 56.203125 41.796875 56.203125 29.59375 
z
M 47.21875 32.234375 
Q 47.125 39.59375 43.09375 43.984375 
Q 39.0625 48.390625 32.421875 48.390625 
Q 24.90625 48.390625 20.390625 44.140625 
Q 15.875 39.890625 15.1875 32.171875 
z
" id="DejaVuSans-65"/>
      <path id="DejaVuSans-20"/>
      <path d="M 51.125 44 
L 36.921875 44 
L 32.8125 27.6875 
L 47.125 27.6875 
z
M 43.796875 71.78125 
L 38.71875 51.515625 
L 52.984375 51.515625 
L 58.109375 71.78125 
L 65.921875 71.78125 
L 60.890625 51.515625 
L 76.125 51.515625 
L 76.125 44 
L 58.984375 44 
L 54.984375 27.6875 
L 70.515625 27.6875 
L 70.515625 20.21875 
L 53.078125 20.21875 
L 48 0 
L 40.1875 0 
L 45.21875 20.21875 
L 30.90625 20.21875 
L 25.875 0 
L 18.015625 0 
L 23.09375 20.21875 
L 7.71875 20.21875 
L 7.71875 27.6875 
L 24.90625 27.6875 
L 29 44 
L 13.28125 44 
L 13.28125 51.515625 
L 30.90625 51.515625 
L 35.890625 71.78125 
z
" id="DejaVuSans-23"/>
      <path d="M 8.59375 75.984375 
L 29.296875 75.984375 
L 29.296875 69 
L 17.578125 69 
L 17.578125 -6.203125 
L 29.296875 -6.203125 
L 29.296875 -13.1875 
L 8.59375 -13.1875 
z
" id="DejaVuSans-5b"/>
      <path d="M 30.421875 75.984375 
L 30.421875 -13.1875 
L 9.71875 -13.1875 
L 9.71875 -6.203125 
L 21.390625 -6.203125 
L 21.390625 69 
L 9.71875 69 
L 9.71875 75.984375 
z
" id="DejaVuSans-5d"/>
     </defs>
     <g transform="translate(210.063906 335.860562)scale(0.1 -0.1)">
      <use xlink:href="#DejaVuSans-66"/>
      <use x="35.205078" xlink:href="#DejaVuSans-72"/>
      <use x="76.318359" xlink:href="#DejaVuSans-61"/>
      <use x="137.597656" xlink:href="#DejaVuSans-6d"/>
      <use x="235.009766" xlink:href="#DejaVuSans-65"/>
      <use x="296.533203" xlink:href="#DejaVuSans-20"/>
      <use x="328.320312" xlink:href="#DejaVuSans-23"/>
      <use x="412.109375" xlink:href="#DejaVuSans-20"/>
      <use x="443.896484" xlink:href="#DejaVuSans-5b"/>
      <use x="482.910156" xlink:href="#DejaVuSans-5d"/>
     </g>
    </g>
   </g>
   <g id="matplotlib.axis_2">
    <g id="ytick_1">
     <g id="line2d_51">
      <path clip-path="url(#p986115183c)" d="M 57.6 277.28641 
L 414.72 277.28641 
" style="fill:none;stroke:#b0b0b0;stroke-linecap:square;stroke-width:0.8;"/>
     </g>
     <g id="line2d_52">
      <defs>
       <path d="M 0 0 
L -3.5 0 
" id="m527b703e6c" style="stroke:#000000;stroke-width:0.8;"/>
      </defs>
      <g>
       <use style="stroke:#000000;stroke-width:0.8;" x="57.6" xlink:href="#m527b703e6c" y="277.28641"/>
      </g>
     </g>
     <g id="text_7">
      <!-- −0.3 -->
      <defs>
       <path d="M 10.59375 35.5 
L 73.1875 35.5 
L 73.1875 27.203125 
L 10.59375 27.203125 
z
" id="DejaVuSans-2212"/>
       <path d="M 10.6875 12.40625 
L 21 12.40625 
L 21 0 
L 10.6875 0 
z
" id="DejaVuSans-2e"/>
      </defs>
      <g transform="translate(26.317187 281.085629)scale(0.1 -0.1)">
       <use xlink:href="#DejaVuSans-2212"/>
       <use x="83.789062" xlink:href="#DejaVuSans-30"/>
       <use x="147.412109" xlink:href="#DejaVuSans-2e"/>
       <use x="179.199219" xlink:href="#DejaVuSans-33"/>
      </g>
     </g>
    </g>
    <g id="ytick_2">
     <g id="line2d_53">
      <path clip-path="url(#p986115183c)" d="M 57.6 241.774824 
L 414.72 241.774824 
" style="fill:none;stroke:#b0b0b0;stroke-linecap:square;stroke-width:0.8;"/>
     </g>
     <g id="line2d_54">
      <g>
       <use style="stroke:#000000;stroke-width:0.8;" x="57.6" xlink:href="#m527b703e6c" y="241.774824"/>
      </g>
     </g>
     <g id="text_8">
      <!-- −0.2 -->
      <g transform="translate(26.317187 245.574043)scale(0.1 -0.1)">
       <use xlink:href="#DejaVuSans-2212"/>
       <use x="83.789062" xlink:href="#DejaVuSans-30"/>
       <use x="147.412109" xlink:href="#DejaVuSans-2e"/>
       <use x="179.199219" xlink:href="#DejaVuSans-32"/>
      </g>
     </g>
    </g>
    <g id="ytick_3">
     <g id="line2d_55">
      <path clip-path="url(#p986115183c)" d="M 57.6 206.263239 
L 414.72 206.263239 
" style="fill:none;stroke:#b0b0b0;stroke-linecap:square;stroke-width:0.8;"/>
     </g>
     <g id="line2d_56">
      <g>
       <use style="stroke:#000000;stroke-width:0.8;" x="57.6" xlink:href="#m527b703e6c" y="206.263239"/>
      </g>
     </g>
     <g id="text_9">
      <!-- −0.1 -->
      <g transform="translate(26.317187 210.062457)scale(0.1 -0.1)">
       <use xlink:href="#DejaVuSans-2212"/>
       <use x="83.789062" xlink:href="#DejaVuSans-30"/>
       <use x="147.412109" xlink:href="#DejaVuSans-2e"/>
       <use x="179.199219" xlink:href="#DejaVuSans-31"/>
      </g>
     </g>
    </g>
    <g id="ytick_4">
     <g id="line2d_57">
      <path clip-path="url(#p986115183c)" d="M 57.6 170.751653 
L 414.72 170.751653 
" style="fill:none;stroke:#b0b0b0;stroke-linecap:square;stroke-width:0.8;"/>
     </g>
     <g id="line2d_58">
      <g>
       <use style="stroke:#000000;stroke-width:0.8;" x="57.6" xlink:href="#m527b703e6c" y="170.751653"/>
      </g>
     </g>
     <g id="text_10">
      <!-- 0.0 -->
      <g transform="translate(34.696875 174.550872)scale(0.1 -0.1)">
       <use xlink:href="#DejaVuSans-30"/>
       <use x="63.623047" xlink:href="#DejaVuSans-2e"/>
       <use x="95.410156" xlink:href="#DejaVuSans-30"/>
      </g>
     </g>
    </g>
    <g id="ytick_5">
     <g id="line2d_59">
      <path clip-path="url(#p986115183c)" d="M 57.6 135.240067 
L 414.72 135.240067 
" style="fill:none;stroke:#b0b0b0;stroke-linecap:square;stroke-width:0.8;"/>
     </g>
     <g id="line2d_60">
      <g>
       <use style="stroke:#000000;stroke-width:0.8;" x="57.6" xlink:href="#m527b703e6c" y="135.240067"/>
      </g>
     </g>
     <g id="text_11">
      <!-- 0.1 -->
      <g transform="translate(34.696875 139.039286)scale(0.1 -0.1)">
       <use xlink:href="#DejaVuSans-30"/>
       <use x="63.623047" xlink:href="#DejaVuSans-2e"/>
       <use x="95.410156" xlink:href="#DejaVuSans-31"/>
      </g>
     </g>
    </g>
    <g id="ytick_6">
     <g id="line2d_61">
      <path clip-path="url(#p986115183c)" d="M 57.6 99.728482 
L 414.72 99.728482 
" style="fill:none;stroke:#b0b0b0;stroke-linecap:square;stroke-width:0.8;"/>
     </g>
     <g id="line2d_62">
      <g>
       <use style="stroke:#000000;stroke-width:0.8;" x="57.6" xlink:href="#m527b703e6c" y="99.728482"/>
      </g>
     </g>
     <g id="text_12">
      <!-- 0.2 -->
      <g transform="translate(34.696875 103.527701)scale(0.1 -0.1)">
       <use xlink:href="#DejaVuSans-30"/>
       <use x="63.623047" xlink:href="#DejaVuSans-2e"/>
       <use x="95.410156" xlink:href="#DejaVuSans-32"/>
      </g>
     </g>
    </g>
    <g id="ytick_7">
     <g id="line2d_63">
      <path clip-path="url(#p986115183c)" d="M 57.6 64.216896 
L 414.72 64.216896 
" style="fill:none;stroke:#b0b0b0;stroke-linecap:square;stroke-width:0.8;"/>
     </g>
     <g id="line2d_64">
      <g>
       <use style="stroke:#000000;stroke-width:0.8;" x="57.6" xlink:href="#m527b703e6c" y="64.216896"/>
      </g>
     </g>
     <g id="text_13">
      <!-- 0.3 -->
      <g transform="translate(34.696875 68.016115)scale(0.1 -0.1)">
       <use xlink:href="#DejaVuSans-30"/>
       <use x="63.623047" xlink:href="#DejaVuSans-2e"/>
       <use x="95.410156" xlink:href="#DejaVuSans-33"/>
      </g>
     </g>
    </g>
    <g id="ytick_8">
     <g id="line2d_65">
      <path clip-path="url(#p986115183c)" d="M 57.6 305.695678 
L 414.72 305.695678 
" style="fill:none;stroke:#b0b0b0;stroke-linecap:square;stroke-width:0.8;"/>
     </g>
     <g id="line2d_66">
      <defs>
       <path d="M 0 0 
L -2 0 
" id="mb45ff44cdb" style="stroke:#000000;stroke-width:0.6;"/>
      </defs>
      <g>
       <use style="stroke:#000000;stroke-width:0.6;" x="57.6" xlink:href="#mb45ff44cdb" y="305.695678"/>
      </g>
     </g>
    </g>
    <g id="ytick_9">
     <g id="line2d_67">
      <path clip-path="url(#p986115183c)" d="M 57.6 298.593361 
L 414.72 298.593361 
" style="fill:none;stroke:#b0b0b0;stroke-linecap:square;stroke-width:0.8;"/>
     </g>
     <g id="line2d_68">
      <g>
       <use style="stroke:#000000;stroke-width:0.6;" x="57.6" xlink:href="#mb45ff44cdb" y="298.593361"/>
      </g>
     </g>
    </g>
    <g id="ytick_10">
     <g id="line2d_69">
      <path clip-path="url(#p986115183c)" d="M 57.6 291.491044 
L 414.72 291.491044 
" style="fill:none;stroke:#b0b0b0;stroke-linecap:square;stroke-width:0.8;"/>
     </g>
     <g id="line2d_70">
      <g>
       <use style="stroke:#000000;stroke-width:0.6;" x="57.6" xlink:href="#mb45ff44cdb" y="291.491044"/>
      </g>
     </g>
    </g>
    <g id="ytick_11">
     <g id="line2d_71">
      <path clip-path="url(#p986115183c)" d="M 57.6 284.388727 
L 414.72 284.388727 
" style="fill:none;stroke:#b0b0b0;stroke-linecap:square;stroke-width:0.8;"/>
     </g>
     <g id="line2d_72">
      <g>
       <use style="stroke:#000000;stroke-width:0.6;" x="57.6" xlink:href="#mb45ff44cdb" y="284.388727"/>
      </g>
     </g>
    </g>
    <g id="ytick_12">
     <g id="line2d_73">
      <path clip-path="url(#p986115183c)" d="M 57.6 270.184093 
L 414.72 270.184093 
" style="fill:none;stroke:#b0b0b0;stroke-linecap:square;stroke-width:0.8;"/>
     </g>
     <g id="line2d_74">
      <g>
       <use style="stroke:#000000;stroke-width:0.6;" x="57.6" xlink:href="#mb45ff44cdb" y="270.184093"/>
      </g>
     </g>
    </g>
    <g id="ytick_13">
     <g id="line2d_75">
      <path clip-path="url(#p986115183c)" d="M 57.6 263.081776 
L 414.72 263.081776 
" style="fill:none;stroke:#b0b0b0;stroke-linecap:square;stroke-width:0.8;"/>
     </g>
     <g id="line2d_76">
      <g>
       <use style="stroke:#000000;stroke-width:0.6;" x="57.6" xlink:href="#mb45ff44cdb" y="263.081776"/>
      </g>
     </g>
    </g>
    <g id="ytick_14">
     <g id="line2d_77">
      <path clip-path="url(#p986115183c)" d="M 57.6 255.979459 
L 414.72 255.979459 
" style="fill:none;stroke:#b0b0b0;stroke-linecap:square;stroke-width:0.8;"/>
     </g>
     <g id="line2d_78">
      <g>
       <use style="stroke:#000000;stroke-width:0.6;" x="57.6" xlink:href="#mb45ff44cdb" y="255.979459"/>
      </g>
     </g>
    </g>
    <g id="ytick_15">
     <g id="line2d_79">
      <path clip-path="url(#p986115183c)" d="M 57.6 248.877141 
L 414.72 248.877141 
" style="fill:none;stroke:#b0b0b0;stroke-linecap:square;stroke-width:0.8;"/>
     </g>
     <g id="line2d_80">
      <g>
       <use style="stroke:#000000;stroke-width:0.6;" x="57.6" xlink:href="#mb45ff44cdb" y="248.877141"/>
      </g>
     </g>
    </g>
    <g id="ytick_16">
     <g id="line2d_81">
      <path clip-path="url(#p986115183c)" d="M 57.6 234.672507 
L 414.72 234.672507 
" style="fill:none;stroke:#b0b0b0;stroke-linecap:square;stroke-width:0.8;"/>
     </g>
     <g id="line2d_82">
      <g>
       <use style="stroke:#000000;stroke-width:0.6;" x="57.6" xlink:href="#mb45ff44cdb" y="234.672507"/>
      </g>
     </g>
    </g>
    <g id="ytick_17">
     <g id="line2d_83">
      <path clip-path="url(#p986115183c)" d="M 57.6 227.57019 
L 414.72 227.57019 
" style="fill:none;stroke:#b0b0b0;stroke-linecap:square;stroke-width:0.8;"/>
     </g>
     <g id="line2d_84">
      <g>
       <use style="stroke:#000000;stroke-width:0.6;" x="57.6" xlink:href="#mb45ff44cdb" y="227.57019"/>
      </g>
     </g>
    </g>
    <g id="ytick_18">
     <g id="line2d_85">
      <path clip-path="url(#p986115183c)" d="M 57.6 220.467873 
L 414.72 220.467873 
" style="fill:none;stroke:#b0b0b0;stroke-linecap:square;stroke-width:0.8;"/>
     </g>
     <g id="line2d_86">
      <g>
       <use style="stroke:#000000;stroke-width:0.6;" x="57.6" xlink:href="#mb45ff44cdb" y="220.467873"/>
      </g>
     </g>
    </g>
    <g id="ytick_19">
     <g id="line2d_87">
      <path clip-path="url(#p986115183c)" d="M 57.6 213.365556 
L 414.72 213.365556 
" style="fill:none;stroke:#b0b0b0;stroke-linecap:square;stroke-width:0.8;"/>
     </g>
     <g id="line2d_88">
      <g>
       <use style="stroke:#000000;stroke-width:0.6;" x="57.6" xlink:href="#mb45ff44cdb" y="213.365556"/>
      </g>
     </g>
    </g>
    <g id="ytick_20">
     <g id="line2d_89">
      <path clip-path="url(#p986115183c)" d="M 57.6 199.160922 
L 414.72 199.160922 
" style="fill:none;stroke:#b0b0b0;stroke-linecap:square;stroke-width:0.8;"/>
     </g>
     <g id="line2d_90">
      <g>
       <use style="stroke:#000000;stroke-width:0.6;" x="57.6" xlink:href="#mb45ff44cdb" y="199.160922"/>
      </g>
     </g>
    </g>
    <g id="ytick_21">
     <g id="line2d_91">
      <path clip-path="url(#p986115183c)" d="M 57.6 192.058604 
L 414.72 192.058604 
" style="fill:none;stroke:#b0b0b0;stroke-linecap:square;stroke-width:0.8;"/>
     </g>
     <g id="line2d_92">
      <g>
       <use style="stroke:#000000;stroke-width:0.6;" x="57.6" xlink:href="#mb45ff44cdb" y="192.058604"/>
      </g>
     </g>
    </g>
    <g id="ytick_22">
     <g id="line2d_93">
      <path clip-path="url(#p986115183c)" d="M 57.6 184.956287 
L 414.72 184.956287 
" style="fill:none;stroke:#b0b0b0;stroke-linecap:square;stroke-width:0.8;"/>
     </g>
     <g id="line2d_94">
      <g>
       <use style="stroke:#000000;stroke-width:0.6;" x="57.6" xlink:href="#mb45ff44cdb" y="184.956287"/>
      </g>
     </g>
    </g>
    <g id="ytick_23">
     <g id="line2d_95">
      <path clip-path="url(#p986115183c)" d="M 57.6 177.85397 
L 414.72 177.85397 
" style="fill:none;stroke:#b0b0b0;stroke-linecap:square;stroke-width:0.8;"/>
     </g>
     <g id="line2d_96">
      <g>
       <use style="stroke:#000000;stroke-width:0.6;" x="57.6" xlink:href="#mb45ff44cdb" y="177.85397"/>
      </g>
     </g>
    </g>
    <g id="ytick_24">
     <g id="line2d_97">
      <path clip-path="url(#p986115183c)" d="M 57.6 163.649336 
L 414.72 163.649336 
" style="fill:none;stroke:#b0b0b0;stroke-linecap:square;stroke-width:0.8;"/>
     </g>
     <g id="line2d_98">
      <g>
       <use style="stroke:#000000;stroke-width:0.6;" x="57.6" xlink:href="#mb45ff44cdb" y="163.649336"/>
      </g>
     </g>
    </g>
    <g id="ytick_25">
     <g id="line2d_99">
      <path clip-path="url(#p986115183c)" d="M 57.6 156.547019 
L 414.72 156.547019 
" style="fill:none;stroke:#b0b0b0;stroke-linecap:square;stroke-width:0.8;"/>
     </g>
     <g id="line2d_100">
      <g>
       <use style="stroke:#000000;stroke-width:0.6;" x="57.6" xlink:href="#mb45ff44cdb" y="156.547019"/>
      </g>
     </g>
    </g>
    <g id="ytick_26">
     <g id="line2d_101">
      <path clip-path="url(#p986115183c)" d="M 57.6 149.444702 
L 414.72 149.444702 
" style="fill:none;stroke:#b0b0b0;stroke-linecap:square;stroke-width:0.8;"/>
     </g>
     <g id="line2d_102">
      <g>
       <use style="stroke:#000000;stroke-width:0.6;" x="57.6" xlink:href="#mb45ff44cdb" y="149.444702"/>
      </g>
     </g>
    </g>
    <g id="ytick_27">
     <g id="line2d_103">
      <path clip-path="url(#p986115183c)" d="M 57.6 142.342385 
L 414.72 142.342385 
" style="fill:none;stroke:#b0b0b0;stroke-linecap:square;stroke-width:0.8;"/>
     </g>
     <g id="line2d_104">
      <g>
       <use style="stroke:#000000;stroke-width:0.6;" x="57.6" xlink:href="#mb45ff44cdb" y="142.342385"/>
      </g>
     </g>
    </g>
    <g id="ytick_28">
     <g id="line2d_105">
      <path clip-path="url(#p986115183c)" d="M 57.6 128.13775 
L 414.72 128.13775 
" style="fill:none;stroke:#b0b0b0;stroke-linecap:square;stroke-width:0.8;"/>
     </g>
     <g id="line2d_106">
      <g>
       <use style="stroke:#000000;stroke-width:0.6;" x="57.6" xlink:href="#mb45ff44cdb" y="128.13775"/>
      </g>
     </g>
    </g>
    <g id="ytick_29">
     <g id="line2d_107">
      <path clip-path="url(#p986115183c)" d="M 57.6 121.035433 
L 414.72 121.035433 
" style="fill:none;stroke:#b0b0b0;stroke-linecap:square;stroke-width:0.8;"/>
     </g>
     <g id="line2d_108">
      <g>
       <use style="stroke:#000000;stroke-width:0.6;" x="57.6" xlink:href="#mb45ff44cdb" y="121.035433"/>
      </g>
     </g>
    </g>
    <g id="ytick_30">
     <g id="line2d_109">
      <path clip-path="url(#p986115183c)" d="M 57.6 113.933116 
L 414.72 113.933116 
" style="fill:none;stroke:#b0b0b0;stroke-linecap:square;stroke-width:0.8;"/>
     </g>
     <g id="line2d_110">
      <g>
       <use style="stroke:#000000;stroke-width:0.6;" x="57.6" xlink:href="#mb45ff44cdb" y="113.933116"/>
      </g>
     </g>
    </g>
    <g id="ytick_31">
     <g id="line2d_111">
      <path clip-path="url(#p986115183c)" d="M 57.6 106.830799 
L 414.72 106.830799 
" style="fill:none;stroke:#b0b0b0;stroke-linecap:square;stroke-width:0.8;"/>
     </g>
     <g id="line2d_112">
      <g>
       <use style="stroke:#000000;stroke-width:0.6;" x="57.6" xlink:href="#mb45ff44cdb" y="106.830799"/>
      </g>
     </g>
    </g>
    <g id="ytick_32">
     <g id="line2d_113">
      <path clip-path="url(#p986115183c)" d="M 57.6 92.626165 
L 414.72 92.626165 
" style="fill:none;stroke:#b0b0b0;stroke-linecap:square;stroke-width:0.8;"/>
     </g>
     <g id="line2d_114">
      <g>
       <use style="stroke:#000000;stroke-width:0.6;" x="57.6" xlink:href="#mb45ff44cdb" y="92.626165"/>
      </g>
     </g>
    </g>
    <g id="ytick_33">
     <g id="line2d_115">
      <path clip-path="url(#p986115183c)" d="M 57.6 85.523848 
L 414.72 85.523848 
" style="fill:none;stroke:#b0b0b0;stroke-linecap:square;stroke-width:0.8;"/>
     </g>
     <g id="line2d_116">
      <g>
       <use style="stroke:#000000;stroke-width:0.6;" x="57.6" xlink:href="#mb45ff44cdb" y="85.523848"/>
      </g>
     </g>
    </g>
    <g id="ytick_34">
     <g id="line2d_117">
      <path clip-path="url(#p986115183c)" d="M 57.6 78.42153 
L 414.72 78.42153 
" style="fill:none;stroke:#b0b0b0;stroke-linecap:square;stroke-width:0.8;"/>
     </g>
     <g id="line2d_118">
      <g>
       <use style="stroke:#000000;stroke-width:0.6;" x="57.6" xlink:href="#mb45ff44cdb" y="78.42153"/>
      </g>
     </g>
    </g>
    <g id="ytick_35">
     <g id="line2d_119">
      <path clip-path="url(#p986115183c)" d="M 57.6 71.319213 
L 414.72 71.319213 
" style="fill:none;stroke:#b0b0b0;stroke-linecap:square;stroke-width:0.8;"/>
     </g>
     <g id="line2d_120">
      <g>
       <use style="stroke:#000000;stroke-width:0.6;" x="57.6" xlink:href="#mb45ff44cdb" y="71.319213"/>
      </g>
     </g>
    </g>
    <g id="ytick_36">
     <g id="line2d_121">
      <path clip-path="url(#p986115183c)" d="M 57.6 57.114579 
L 414.72 57.114579 
" style="fill:none;stroke:#b0b0b0;stroke-linecap:square;stroke-width:0.8;"/>
     </g>
     <g id="line2d_122">
      <g>
       <use style="stroke:#000000;stroke-width:0.6;" x="57.6" xlink:href="#mb45ff44cdb" y="57.114579"/>
      </g>
     </g>
    </g>
    <g id="ytick_37">
     <g id="line2d_123">
      <path clip-path="url(#p986115183c)" d="M 57.6 50.012262 
L 414.72 50.012262 
" style="fill:none;stroke:#b0b0b0;stroke-linecap:square;stroke-width:0.8;"/>
     </g>
     <g id="line2d_124">
      <g>
       <use style="stroke:#000000;stroke-width:0.6;" x="57.6" xlink:href="#mb45ff44cdb" y="50.012262"/>
      </g>
     </g>
    </g>
    <g id="ytick_38">
     <g id="line2d_125">
      <path clip-path="url(#p986115183c)" d="M 57.6 42.909945 
L 414.72 42.909945 
" style="fill:none;stroke:#b0b0b0;stroke-linecap:square;stroke-width:0.8;"/>
     </g>
     <g id="line2d_126">
      <g>
       <use style="stroke:#000000;stroke-width:0.6;" x="57.6" xlink:href="#mb45ff44cdb" y="42.909945"/>
      </g>
     </g>
    </g>
    <g id="text_14">
     <!-- rot y -->
     <defs>
      <path d="M 30.609375 48.390625 
Q 23.390625 48.390625 19.1875 42.75 
Q 14.984375 37.109375 14.984375 27.296875 
Q 14.984375 17.484375 19.15625 11.84375 
Q 23.34375 6.203125 30.609375 6.203125 
Q 37.796875 6.203125 41.984375 11.859375 
Q 46.1875 17.53125 46.1875 27.296875 
Q 46.1875 37.015625 41.984375 42.703125 
Q 37.796875 48.390625 30.609375 48.390625 
z
M 30.609375 56 
Q 42.328125 56 49.015625 48.375 
Q 55.71875 40.765625 55.71875 27.296875 
Q 55.71875 13.875 49.015625 6.21875 
Q 42.328125 -1.421875 30.609375 -1.421875 
Q 18.84375 -1.421875 12.171875 6.21875 
Q 5.515625 13.875 5.515625 27.296875 
Q 5.515625 40.765625 12.171875 48.375 
Q 18.84375 56 30.609375 56 
z
" id="DejaVuSans-6f"/>
      <path d="M 18.3125 70.21875 
L 18.3125 54.6875 
L 36.8125 54.6875 
L 36.8125 47.703125 
L 18.3125 47.703125 
L 18.3125 18.015625 
Q 18.3125 11.328125 20.140625 9.421875 
Q 21.96875 7.515625 27.59375 7.515625 
L 36.8125 7.515625 
L 36.8125 0 
L 27.59375 0 
Q 17.1875 0 13.234375 3.875 
Q 9.28125 7.765625 9.28125 18.015625 
L 9.28125 47.703125 
L 2.6875 47.703125 
L 2.6875 54.6875 
L 9.28125 54.6875 
L 9.28125 70.21875 
z
" id="DejaVuSans-74"/>
      <path d="M 32.171875 -5.078125 
Q 28.375 -14.84375 24.75 -17.8125 
Q 21.140625 -20.796875 15.09375 -20.796875 
L 7.90625 -20.796875 
L 7.90625 -13.28125 
L 13.1875 -13.28125 
Q 16.890625 -13.28125 18.9375 -11.515625 
Q 21 -9.765625 23.484375 -3.21875 
L 25.09375 0.875 
L 2.984375 54.6875 
L 12.5 54.6875 
L 29.59375 11.921875 
L 46.6875 54.6875 
L 56.203125 54.6875 
z
" id="DejaVuSans-79"/>
     </defs>
     <g transform="translate(20.2375 186.149875)rotate(-90)scale(0.1 -0.1)">
      <use xlink:href="#DejaVuSans-72"/>
      <use x="41.082031" xlink:href="#DejaVuSans-6f"/>
      <use x="102.263672" xlink:href="#DejaVuSans-74"/>
      <use x="141.472656" xlink:href="#DejaVuSans-20"/>
      <use x="173.259766" xlink:href="#DejaVuSans-79"/>
     </g>
    </g>
   </g>
   <g id="line2d_127">
    <path clip-path="url(#p986115183c)" d="M 73.832727 141.766029 
L 74.524971 148.70841 
L 75.217208 159.759062 
L 75.90628 160.279579 
L 76.598517 160.027943 
L 77.290754 155.297263 
L 77.982991 148.974739 
L 78.6751 125.2035 
L 79.367337 154.040468 
L 80.059581 154.82812 
L 80.751818 142.219507 
L 81.446481 148.401923 
L 82.138725 164.706327 
L 82.830962 160.581576 
L 83.523199 158.411206 
L 84.908883 172.116826 
L 85.601147 156.536209 
L 86.293364 150.937442 
L 86.985656 153.382693 
L 87.675135 157.016133 
L 88.367373 154.846813 
L 89.05961 154.543984 
L 89.751847 161.130131 
L 90.441987 183.560323 
L 91.13423 177.862104 
L 91.826467 163.339085 
L 92.518705 162.532287 
L 93.209773 134.436201 
L 93.902011 125.163026 
L 94.594254 133.405639 
L 95.286491 121.877857 
L 95.979336 133.379031 
L 96.671581 158.131627 
L 97.363819 146.126753 
L 98.056056 161.131498 
L 98.749362 223.698874 
L 99.44205 202.103949 
L 100.133837 206.321752 
L 100.826074 159.416358 
M 104.284797 162.546275 
L 104.977035 139.401958 
L 105.669272 124.902338 
M 108.439825 132.674123 
L 109.132062 164.034667 
L 109.824962 173.858646 
L 110.517208 176.027112 
M 113.285912 174.895194 
L 113.978149 182.872593 
L 114.670387 198.532205 
L 115.361972 202.383111 
L 116.054209 200.413827 
L 116.746446 235.484745 
L 117.438683 228.406947 
M 118.823151 230.618603 
L 119.515395 224.315758 
L 120.899869 188.273107 
L 121.594579 160.989889 
L 122.97906 122.245182 
L 123.67129 126.145934 
L 124.363909 138.435908 
M 127.129632 216.425949 
L 127.82187 223.818457 
L 128.514107 235.906497 
L 129.206344 237.918916 
L 129.89967 210.349007 
L 130.591908 202.739368 
L 131.284145 198.261383 
L 131.976389 158.849708 
L 133.363058 138.766779 
L 134.055295 127.046826 
L 134.747532 131.6722 
L 135.437802 154.853077 
L 136.130039 157.392908 
L 136.822277 174.101337 
M 138.204709 172.554989 
L 138.896947 187.847846 
L 139.589184 194.452581 
L 140.281421 212.699671 
L 140.976101 209.244732 
L 141.668336 201.625905 
L 142.360573 184.250164 
L 143.05281 191.583169 
M 152.05041 159.105803 
L 152.743731 180.280218 
L 153.435969 174.315359 
M 154.820443 213.466282 
L 155.510224 209.087302 
M 159.663852 226.087166 
L 160.356055 248.45096 
L 161.051271 250.143315 
L 162.435745 160.80515 
L 163.127989 144.233067 
M 167.970626 110.649988 
L 168.662863 112.887825 
L 169.356457 122.462004 
M 170.740931 152.262393 
L 171.433168 189.691291 
L 172.125831 166.460683 
M 173.510286 193.006863 
L 174.202529 189.896645 
L 174.892987 198.287255 
L 175.585225 209.259543 
L 176.277462 214.617068 
L 176.969699 206.405474 
L 177.662487 221.869676 
L 178.354724 228.424027 
L 179.046962 204.317008 
L 179.739205 202.151005 
M 181.126297 172.792292 
L 181.818534 169.163843 
L 182.510778 156.134388 
L 183.200632 134.998465 
L 183.892876 128.877863 
L 184.585113 110.423721 
M 185.969588 103.609103 
L 186.661455 127.580972 
L 187.353692 123.738213 
M 191.509762 196.689351 
L 192.199235 226.612119 
L 192.891481 199.422629 
L 193.583718 215.501293 
L 194.275953 246.060012 
L 194.967935 214.123438 
L 195.660172 210.292706 
L 196.352409 243.835848 
L 197.044646 226.076292 
L 197.738917 226.408612 
M 199.123391 164.118755 
L 199.815628 139.444608 
L 201.20106 116.015251 
L 201.893304 182.849317 
M 204.660013 201.277473 
L 205.35225 241.914295 
L 206.044672 197.889842 
L 206.736909 258.591449 
L 207.429146 226.718612 
L 208.121383 208.978974 
L 208.815873 162.066462 
L 209.50811 176.47014 
L 210.200348 128.885752 
L 210.892585 124.158511 
L 211.583861 123.274086 
L 212.276099 127.954969 
L 212.968342 69.968455 
L 213.66058 124.521524 
L 214.351919 112.630124 
L 215.044156 91.868159 
L 215.736393 101.725949 
L 216.428631 136.126657 
L 217.120874 145.974402 
L 217.814995 153.096732 
L 218.507232 153.869287 
L 219.199469 108.564482 
L 219.891706 191.531749 
L 220.58497 198.039076 
L 221.277214 221.053177 
L 221.969824 210.466476 
L 222.661681 227.971533 
L 223.354881 203.345338 
L 224.047124 188.420519 
L 224.739362 169.824308 
L 225.431599 156.412172 
L 226.123329 135.930323 
L 226.815566 132.031799 
L 227.507804 115.648751 
L 228.200041 144.496125 
L 228.892598 118.37954 
L 230.277072 178.111654 
L 230.96931 148.244251 
L 231.661953 156.724736 
L 233.046427 185.897365 
L 233.738664 190.272158 
L 235.126562 207.342413 
L 235.818799 208.348447 
L 236.511036 189.432636 
L 237.205725 189.84029 
L 237.897963 195.925312 
L 238.5902 172.808365 
L 239.966295 202.649481 
M 241.350776 199.201068 
L 242.043013 214.366858 
L 243.427569 220.684994 
L 244.119806 225.631427 
L 244.812043 189.657653 
L 245.504977 197.732941 
L 246.197214 192.467917 
L 246.889449 176.480667 
L 247.581686 175.596258 
L 248.274878 163.579734 
L 248.967115 146.740085 
L 249.659352 144.520542 
L 250.351589 127.717278 
L 251.043826 137.919477 
M 253.121246 145.08612 
L 253.81349 158.89657 
M 256.577429 183.15578 
L 257.269926 204.630046 
L 257.962163 201.570439 
L 258.6544 257.180182 
M 260.040695 246.233761 
L 260.732932 207.296212 
L 261.425169 189.784106 
L 262.117406 180.998947 
L 262.80931 174.861048 
M 313.343492 152.697468 
L 314.035729 208.542852 
M 315.42021 282.574456 
L 316.112447 291.535064 
M 317.496096 60.110307 
L 318.188333 182.351327 
L 318.880571 119.992829 
M 324.419095 147.822074 
L 325.805058 226.051208 
L 326.497302 249.819832 
M 329.269218 135.970928 
L 329.961455 82.174458 
L 330.653469 64.541173 
L 331.346218 84.812897 
L 334.114875 199.177632 
M 340.343899 107.507075 
L 341.036136 127.758997 
L 341.726718 168.025093 
M 346.569651 172.768175 
L 347.262064 117.469803 
M 367.338052 152.901417 
L 368.030296 158.466872 
L 368.722533 151.270046 
L 369.41477 151.179983 
L 370.107983 152.009194 
M 373.570157 175.081796 
L 374.262395 164.582538 
L 375.647823 148.562993 
M 383.952811 165.084461 
L 384.644637 170.432235 
M 386.721348 156.545445 
L 387.412183 159.318511 
L 388.104412 164.906878 
L 388.796657 174.06354 
L 390.179932 188.230808 
L 390.872169 172.556503 
L 391.564426 171.653751 
M 393.640972 162.858518 
" style="fill:none;stroke:#ff0000;stroke-linecap:square;"/>
   </g>
   <g id="line2d_128">
    <path clip-path="url(#p986115183c)" d="M 73.832727 145.876608 
L 74.524971 145.442833 
L 75.217208 161.026847 
L 75.90628 160.140551 
L 76.598517 160.171771 
L 77.290754 159.100978 
L 77.982991 153.881142 
L 78.6751 150.62411 
L 79.367337 155.499537 
L 80.059581 158.854121 
L 80.751818 149.994202 
L 81.446481 153.317982 
L 82.830962 169.003314 
L 83.523199 172.343413 
L 84.216653 174.844164 
L 84.908883 168.800834 
L 85.601147 167.304043 
L 86.293364 162.189226 
L 86.985656 158.893362 
L 87.675135 160.925118 
L 88.367373 162.11791 
L 89.05961 164.500425 
L 89.751847 173.113797 
L 90.441987 184.990484 
L 91.13423 176.33769 
L 91.826467 177.21928 
L 93.209773 160.457979 
L 93.902011 151.06022 
L 94.594254 137.380478 
L 95.286491 126.880526 
L 95.979336 127.642765 
L 96.671581 151.156096 
L 97.363819 163.730609 
L 98.056056 179.780961 
L 98.749362 200.828155 
L 99.44205 209.970606 
L 100.133837 205.345909 
L 100.826074 203.473215 
M 104.284797 165.037302 
L 104.977035 146.335799 
L 105.669272 133.924891 
M 108.439825 143.160257 
L 109.132062 162.212668 
L 109.824962 174.569137 
L 110.517208 178.696153 
M 113.285912 172.674132 
L 114.670387 188.195485 
L 115.361972 192.688409 
L 116.054209 199.844085 
L 116.746446 218.241079 
L 117.438683 222.560734 
M 118.823151 221.132898 
L 119.515395 215.336129 
L 120.207625 195.783971 
L 121.594579 166.968775 
L 122.97906 121.492909 
L 123.67129 127.974159 
L 124.363909 141.495525 
M 127.129632 199.109561 
L 128.514107 219.056491 
L 129.206344 219.459496 
L 130.591908 203.079227 
L 131.284145 180.1451 
L 131.976389 162.164438 
L 132.670814 149.731787 
L 133.363058 139.399866 
L 134.055295 132.249483 
L 134.747532 134.712015 
L 135.437802 148.413925 
L 136.130039 153.884375 
L 136.822277 154.04692 
M 138.204709 171.540877 
L 139.589184 189.060111 
L 140.281421 204.133451 
L 140.976101 213.208295 
L 141.668336 204.060107 
L 142.360573 185.261229 
L 143.05281 172.062601 
M 152.05041 158.073223 
L 153.435969 197.248914 
M 154.820443 199.827924 
L 155.510224 203.140833 
M 159.663852 213.399615 
L 160.356055 220.530094 
L 161.051271 208.395736 
L 162.435745 162.435756 
L 163.127989 146.052561 
M 167.970626 133.037505 
L 168.662863 120.701409 
L 169.356457 122.34503 
M 170.740931 151.706124 
L 171.433168 161.979082 
L 172.125831 168.921456 
M 173.510286 196.626606 
L 174.202529 192.891865 
L 174.892987 197.36839 
L 175.585225 206.992682 
L 176.277462 210.022014 
L 176.969699 210.374646 
L 177.662487 215.719939 
L 178.354724 219.102336 
L 179.046962 208.952851 
L 179.739205 202.589958 
M 181.126297 185.078415 
L 181.818534 174.313417 
L 182.510778 156.759326 
L 183.200632 142.426111 
L 183.892876 136.674886 
L 184.585113 125.776614 
M 185.969588 118.782867 
L 186.661455 124.937882 
L 187.353692 127.612051 
M 191.509762 186.314323 
L 192.199235 194.10947 
L 192.891481 207.280994 
L 193.583718 212.995907 
L 194.275953 220.749964 
L 194.967935 211.792525 
L 195.660172 213.653011 
L 196.352409 228.148291 
L 197.044646 229.189031 
L 197.738917 228.380506 
M 199.123391 165.151958 
L 199.815628 142.433569 
L 200.508823 127.543173 
L 201.20106 124.097219 
L 201.893304 124.476918 
M 204.660013 198.295754 
L 205.35225 218.64496 
L 206.044672 221.295112 
L 206.736909 231.801951 
L 207.429146 224.208702 
L 208.121383 198.589792 
L 208.815873 164.60378 
L 209.50811 140.32753 
L 210.200348 130.374461 
L 210.892585 124.734243 
L 211.583861 122.673896 
L 212.276099 127.688375 
L 212.968342 127.340574 
L 213.66058 123.044538 
L 214.351919 120.935392 
L 215.044156 116.244652 
L 216.428631 139.942395 
L 217.120874 143.216679 
L 217.814995 148.151618 
L 219.199469 177.858623 
L 219.891706 192.944145 
L 220.58497 200.24241 
L 221.277214 212.533293 
L 221.969824 219.576945 
L 222.661681 217.892207 
L 223.354881 208.070836 
L 224.047124 190.299125 
L 224.739362 169.630887 
L 225.431599 161.25522 
L 226.815566 135.364199 
L 227.507804 129.319378 
L 228.200041 138.618756 
L 228.892598 141.43366 
L 229.584835 145.318986 
L 230.277072 154.219721 
L 231.661953 158.311961 
L 233.046427 182.482701 
L 233.738664 189.496996 
L 234.434318 194.639233 
L 235.126562 200.663638 
L 235.818799 198.32714 
L 236.511036 194.652912 
L 237.897963 175.948227 
L 238.5902 176.08572 
L 239.282437 182.244524 
L 239.966295 184.865849 
M 241.350776 192.549989 
L 242.043013 199.104713 
L 242.735331 204.521178 
L 243.427569 204.001338 
L 244.119806 201.240262 
L 244.812043 192.219492 
L 245.504977 196.279601 
L 246.197214 189.85701 
L 246.889449 177.957586 
L 247.581686 173.188659 
L 248.274878 165.959231 
L 248.967115 149.542478 
L 249.659352 138.857413 
L 251.043826 126.659841 
M 253.121246 141.386034 
L 253.81349 150.857274 
M 256.577429 174.324179 
L 257.269926 183.404937 
L 257.962163 199.084417 
L 258.6544 205.426702 
M 260.040695 219.763769 
L 260.732932 207.2927 
L 262.117406 174.561689 
L 262.80931 158.309715 
M 313.343492 152.831177 
L 314.035729 191.245645 
M 315.42021 271.786017 
L 316.112447 280.513692 
M 317.496096 229.705874 
L 318.188333 186.5583 
L 318.880571 126.44591 
M 324.419095 160.841587 
L 325.805058 223.49557 
L 326.497302 244.356543 
M 329.269218 141.595575 
L 329.961455 85.32644 
L 330.653469 76.055801 
L 331.346218 83.035332 
L 332.037944 95.930402 
L 333.422638 180.956938 
L 334.114875 199.005108 
M 340.343899 91.025196 
L 341.036136 121.866236 
L 341.726718 166.870722 
M 346.569651 176.54613 
L 347.262064 124.56325 
M 367.338052 154.916546 
L 368.030296 159.684423 
L 368.722533 155.827499 
L 369.41477 150.644731 
L 370.107983 152.287524 
M 373.570157 180.615434 
L 374.262395 169.986401 
L 374.95463 157.601913 
L 375.647823 151.812315 
M 383.952811 164.732493 
L 384.644637 171.872972 
M 386.721348 154.548264 
L 387.412183 158.21823 
L 388.104412 166.285928 
L 388.796657 170.541165 
L 389.488894 182.528722 
L 390.179932 185.123115 
L 390.872169 175.206694 
L 391.564426 170.383166 
M 393.640972 159.506087 
" style="fill:none;stroke:#0000ff;stroke-linecap:square;"/>
   </g>
   <g id="line2d_129">
    <path clip-path="url(#p986115183c)" d="M 101.516997 199.11147 
L 102.209241 192.136497 
L 102.901478 181.115528 
L 103.593715 175.163342 
M 106.361509 141.818697 
L 107.05535 148.300505 
L 107.747587 138.145545 
M 111.209437 174.879608 
L 111.901674 177.553103 
L 112.593675 178.924422 
M 146.511257 130.711794 
L 147.203494 136.251991 
L 147.895731 140.279014 
L 148.588378 140.070125 
L 149.281455 130.249364 
L 149.973692 132.480969 
L 150.665929 134.329618 
L 151.358166 146.652479 
M 156.20247 203.252686 
L 156.894699 203.973961 
L 157.586944 204.003157 
L 158.279343 207.202954 
L 158.97158 212.801186 
M 163.818557 134.88069 
L 164.510795 134.417342 
L 165.203032 130.802377 
M 166.586145 140.891361 
L 167.278382 134.37863 
M 188.045929 138.220008 
L 188.738167 142.705086 
M 202.585541 130.465015 
L 203.275538 144.327723 
L 203.967776 169.404886 
M 251.736771 129.596365 
L 252.429009 136.116379 
M 254.500718 162.765365 
L 255.192947 175.611604 
L 255.885192 182.090262 
M 264.886021 140.803831 
L 265.576308 129.36136 
L 266.268553 129.110024 
L 266.960791 129.678787 
L 267.653028 132.602488 
L 268.344813 136.369475 
M 269.729287 143.038037 
L 270.421524 163.041239 
L 271.116285 170.64412 
L 271.808522 172.964895 
L 273.192996 185.816295 
L 273.886626 187.661378 
L 275.271101 167.328985 
L 275.963338 152.729659 
L 276.655785 154.799621 
L 277.348022 148.074034 
L 278.040266 131.073395 
L 278.732503 132.530846 
L 279.422083 136.298258 
L 280.11432 151.359202 
M 281.498794 162.769075 
L 282.192431 182.165822 
L 282.885262 195.753747 
L 283.576905 202.388353 
L 284.269143 197.052044 
L 284.961386 195.181743 
L 285.652297 176.765327 
M 287.036771 152.24884 
L 287.729008 150.56177 
L 288.421904 139.593376 
L 289.806385 148.83454 
L 290.498622 149.470698 
L 291.882329 165.502204 
L 292.574566 163.838743 
L 293.266803 170.105729 
L 294.653451 196.582764 
L 295.345682 204.524783 
L 296.037925 214.267559 
L 296.728311 236.431655 
M 299.500625 135.468327 
L 300.192862 113.553502 
L 300.885099 98.409509 
L 301.577343 71.645109 
M 304.344095 156.133794 
L 305.72952 258.003397 
L 306.421757 290.010668 
L 307.114493 295.488 
M 308.496983 213.429442 
L 309.18922 140.016383 
L 309.881458 87.217317 
L 310.575802 57.861763 
L 311.268039 53.568 
L 311.960277 70.016739 
L 312.65252 109.480479 
M 319.576584 94.349022 
L 320.268821 61.179301 
L 320.961058 55.507875 
M 322.342377 79.531605 
L 323.034614 90.48654 
L 323.726858 123.211056 
M 334.807119 233.891028 
L 335.499356 268.308785 
M 336.882856 236.835344 
L 338.267337 124.981535 
M 342.418955 200.5498 
L 343.803429 264.758304 
L 344.492933 281.721083 
L 345.18517 264.904611 
L 345.877414 225.46958 
M 347.953989 82.724252 
L 348.646226 71.909578 
L 349.338463 101.90208 
L 351.414505 218.708091 
L 352.798979 253.650285 
L 353.491776 257.693602 
L 354.184019 231.021469 
L 355.569124 145.791132 
L 356.26317 114.004533 
L 356.955416 106.48697 
L 357.647653 118.004888 
M 360.414189 161.606554 
L 361.106426 166.439368 
L 361.799274 175.608797 
L 362.491511 182.329807 
L 363.183748 191.811759 
L 363.875985 182.640256 
M 365.260626 153.053869 
L 365.952863 144.021983 
L 366.6451 143.062791 
M 370.80022 170.515392 
L 371.492457 186.967214 
L 372.184694 188.949038 
L 372.877912 186.092078 
M 376.34006 138.644093 
L 377.032291 140.827811 
M 380.492239 183.058905 
L 381.184476 187.847861 
L 381.876099 187.701538 
M 385.336874 172.948355 
L 386.029111 161.529386 
M 392.256643 170.215153 
L 392.948735 166.494203 
M 394.333209 163.503092 
L 395.025447 163.548629 
L 395.717867 166.12019 
L 396.410104 165.81635 
L 397.102341 169.252923 
L 397.794578 167.181004 
L 398.487273 166.089593 
L 398.487273 166.089593 
" style="fill:none;stroke:#008000;stroke-linecap:square;"/>
   </g>
   <g id="patch_3">
    <path d="M 57.6 307.584 
L 57.6 41.472 
" style="fill:none;stroke:#000000;stroke-linecap:square;stroke-linejoin:miter;stroke-width:0.8;"/>
   </g>
   <g id="patch_4">
    <path d="M 414.72 307.584 
L 414.72 41.472 
" style="fill:none;stroke:#000000;stroke-linecap:square;stroke-linejoin:miter;stroke-width:0.8;"/>
   </g>
   <g id="patch_5">
    <path d="M 57.6 307.584 
L 414.72 307.584 
" style="fill:none;stroke:#000000;stroke-linecap:square;stroke-linejoin:miter;stroke-width:0.8;"/>
   </g>
   <g id="patch_6">
    <path d="M 57.6 41.472 
L 414.72 41.472 
" style="fill:none;stroke:#000000;stroke-linecap:square;stroke-linejoin:miter;stroke-width:0.8;"/>
   </g>
   <g id="text_15">
    <!-- Rel Gt Rot Y Plot -->
    <defs>
     <path d="M 44.390625 34.1875 
Q 47.5625 33.109375 50.5625 29.59375 
Q 53.5625 26.078125 56.59375 19.921875 
L 66.609375 0 
L 56 0 
L 46.6875 18.703125 
Q 43.0625 26.03125 39.671875 28.421875 
Q 36.28125 30.8125 30.421875 30.8125 
L 19.671875 30.8125 
L 19.671875 0 
L 9.8125 0 
L 9.8125 72.90625 
L 32.078125 72.90625 
Q 44.578125 72.90625 50.734375 67.671875 
Q 56.890625 62.453125 56.890625 51.90625 
Q 56.890625 45.015625 53.6875 40.46875 
Q 50.484375 35.9375 44.390625 34.1875 
z
M 19.671875 64.796875 
L 19.671875 38.921875 
L 32.078125 38.921875 
Q 39.203125 38.921875 42.84375 42.21875 
Q 46.484375 45.515625 46.484375 51.90625 
Q 46.484375 58.296875 42.84375 61.546875 
Q 39.203125 64.796875 32.078125 64.796875 
z
" id="DejaVuSans-52"/>
     <path d="M 9.421875 75.984375 
L 18.40625 75.984375 
L 18.40625 0 
L 9.421875 0 
z
" id="DejaVuSans-6c"/>
     <path d="M 59.515625 10.40625 
L 59.515625 29.984375 
L 43.40625 29.984375 
L 43.40625 38.09375 
L 69.28125 38.09375 
L 69.28125 6.78125 
Q 63.578125 2.734375 56.6875 0.65625 
Q 49.8125 -1.421875 42 -1.421875 
Q 24.90625 -1.421875 15.25 8.5625 
Q 5.609375 18.5625 5.609375 36.375 
Q 5.609375 54.25 15.25 64.234375 
Q 24.90625 74.21875 42 74.21875 
Q 49.125 74.21875 55.546875 72.453125 
Q 61.96875 70.703125 67.390625 67.28125 
L 67.390625 56.78125 
Q 61.921875 61.421875 55.765625 63.765625 
Q 49.609375 66.109375 42.828125 66.109375 
Q 29.4375 66.109375 22.71875 58.640625 
Q 16.015625 51.171875 16.015625 36.375 
Q 16.015625 21.625 22.71875 14.15625 
Q 29.4375 6.6875 42.828125 6.6875 
Q 48.046875 6.6875 52.140625 7.59375 
Q 56.25 8.5 59.515625 10.40625 
z
" id="DejaVuSans-47"/>
     <path d="M -0.203125 72.90625 
L 10.40625 72.90625 
L 30.609375 42.921875 
L 50.6875 72.90625 
L 61.28125 72.90625 
L 35.5 34.71875 
L 35.5 0 
L 25.59375 0 
L 25.59375 34.71875 
z
" id="DejaVuSans-59"/>
     <path d="M 19.671875 64.796875 
L 19.671875 37.40625 
L 32.078125 37.40625 
Q 38.96875 37.40625 42.71875 40.96875 
Q 46.484375 44.53125 46.484375 51.125 
Q 46.484375 57.671875 42.71875 61.234375 
Q 38.96875 64.796875 32.078125 64.796875 
z
M 9.8125 72.90625 
L 32.078125 72.90625 
Q 44.34375 72.90625 50.609375 67.359375 
Q 56.890625 61.8125 56.890625 51.125 
Q 56.890625 40.328125 50.609375 34.8125 
Q 44.34375 29.296875 32.078125 29.296875 
L 19.671875 29.296875 
L 19.671875 0 
L 9.8125 0 
z
" id="DejaVuSans-50"/>
    </defs>
    <g transform="translate(186.845625 35.472)scale(0.12 -0.12)">
     <use xlink:href="#DejaVuSans-52"/>
     <use x="69.419922" xlink:href="#DejaVuSans-65"/>
     <use x="130.943359" xlink:href="#DejaVuSans-6c"/>
     <use x="158.726562" xlink:href="#DejaVuSans-20"/>
     <use x="190.513672" xlink:href="#DejaVuSans-47"/>
     <use x="268.003906" xlink:href="#DejaVuSans-74"/>
     <use x="307.212891" xlink:href="#DejaVuSans-20"/>
     <use x="339" xlink:href="#DejaVuSans-52"/>
     <use x="408.419922" xlink:href="#DejaVuSans-6f"/>
     <use x="469.601562" xlink:href="#DejaVuSans-74"/>
     <use x="508.810547" xlink:href="#DejaVuSans-20"/>
     <use x="540.597656" xlink:href="#DejaVuSans-59"/>
     <use x="601.681641" xlink:href="#DejaVuSans-20"/>
     <use x="633.46875" xlink:href="#DejaVuSans-50"/>
     <use x="693.771484" xlink:href="#DejaVuSans-6c"/>
     <use x="721.554688" xlink:href="#DejaVuSans-6f"/>
     <use x="782.736328" xlink:href="#DejaVuSans-74"/>
    </g>
   </g>
  </g>
 </g>
 <defs>
  <clipPath id="p986115183c">
   <rect height="266.112" width="357.12" x="57.6" y="41.472"/>
  </clipPath>
 </defs>
</svg>
