<?xml version="1.0" encoding="utf-8" standalone="no"?>
<!DOCTYPE svg PUBLIC "-//W3C//DTD SVG 1.1//EN"
  "http://www.w3.org/Graphics/SVG/1.1/DTD/svg11.dtd">
<!-- Created with matplotlib (http://matplotlib.org/) -->
<svg height="345.6pt" version="1.1" viewBox="0 0 460.8 345.6" width="460.8pt" xmlns="http://www.w3.org/2000/svg" xmlns:xlink="http://www.w3.org/1999/xlink">
 <defs>
  <style type="text/css">
*{stroke-linecap:butt;stroke-linejoin:round;}
  </style>
 </defs>
 <g id="figure_1">
  <g id="patch_1">
   <path d="M 0 345.6 
L 460.8 345.6 
L 460.8 0 
L 0 0 
z
" style="fill:#ffffff;"/>
  </g>
  <g id="axes_1">
   <g id="patch_2">
    <path d="M 57.6 307.584 
L 414.72 307.584 
L 414.72 41.472 
L 57.6 41.472 
z
" style="fill:#ffffff;"/>
   </g>
   <g id="matplotlib.axis_1">
    <g id="xtick_1">
     <g id="line2d_1">
      <path clip-path="url(#p0d1a3e2745)" d="M 70.555248 307.584 
L 70.555248 41.472 
" style="fill:none;stroke:#b0b0b0;stroke-linecap:square;stroke-width:0.8;"/>
     </g>
     <g id="line2d_2">
      <defs>
       <path d="M 0 0 
L 0 3.5 
" id="ma6e03ab0e2" style="stroke:#000000;stroke-width:0.8;"/>
      </defs>
      <g>
       <use style="stroke:#000000;stroke-width:0.8;" x="70.555248" xlink:href="#ma6e03ab0e2" y="307.584"/>
      </g>
     </g>
     <g id="text_1">
      <!-- 0 -->
      <defs>
       <path d="M 31.78125 66.40625 
Q 24.171875 66.40625 20.328125 58.90625 
Q 16.5 51.421875 16.5 36.375 
Q 16.5 21.390625 20.328125 13.890625 
Q 24.171875 6.390625 31.78125 6.390625 
Q 39.453125 6.390625 43.28125 13.890625 
Q 47.125 21.390625 47.125 36.375 
Q 47.125 51.421875 43.28125 58.90625 
Q 39.453125 66.40625 31.78125 66.40625 
z
M 31.78125 74.21875 
Q 44.046875 74.21875 50.515625 64.515625 
Q 56.984375 54.828125 56.984375 36.375 
Q 56.984375 17.96875 50.515625 8.265625 
Q 44.046875 -1.421875 31.78125 -1.421875 
Q 19.53125 -1.421875 13.0625 8.265625 
Q 6.59375 17.96875 6.59375 36.375 
Q 6.59375 54.828125 13.0625 64.515625 
Q 19.53125 74.21875 31.78125 74.21875 
z
" id="DejaVuSans-30"/>
      </defs>
      <g transform="translate(67.373998 322.182437)scale(0.1 -0.1)">
       <use xlink:href="#DejaVuSans-30"/>
      </g>
     </g>
    </g>
    <g id="xtick_2">
     <g id="line2d_3">
      <path clip-path="url(#p0d1a3e2745)" d="M 139.776886 307.584 
L 139.776886 41.472 
" style="fill:none;stroke:#b0b0b0;stroke-linecap:square;stroke-width:0.8;"/>
     </g>
     <g id="line2d_4">
      <g>
       <use style="stroke:#000000;stroke-width:0.8;" x="139.776886" xlink:href="#ma6e03ab0e2" y="307.584"/>
      </g>
     </g>
     <g id="text_2">
      <!-- 10 -->
      <defs>
       <path d="M 12.40625 8.296875 
L 28.515625 8.296875 
L 28.515625 63.921875 
L 10.984375 60.40625 
L 10.984375 69.390625 
L 28.421875 72.90625 
L 38.28125 72.90625 
L 38.28125 8.296875 
L 54.390625 8.296875 
L 54.390625 0 
L 12.40625 0 
z
" id="DejaVuSans-31"/>
      </defs>
      <g transform="translate(133.414386 322.182437)scale(0.1 -0.1)">
       <use xlink:href="#DejaVuSans-31"/>
       <use x="63.623047" xlink:href="#DejaVuSans-30"/>
      </g>
     </g>
    </g>
    <g id="xtick_3">
     <g id="line2d_5">
      <path clip-path="url(#p0d1a3e2745)" d="M 208.998523 307.584 
L 208.998523 41.472 
" style="fill:none;stroke:#b0b0b0;stroke-linecap:square;stroke-width:0.8;"/>
     </g>
     <g id="line2d_6">
      <g>
       <use style="stroke:#000000;stroke-width:0.8;" x="208.998523" xlink:href="#ma6e03ab0e2" y="307.584"/>
      </g>
     </g>
     <g id="text_3">
      <!-- 20 -->
      <defs>
       <path d="M 19.1875 8.296875 
L 53.609375 8.296875 
L 53.609375 0 
L 7.328125 0 
L 7.328125 8.296875 
Q 12.9375 14.109375 22.625 23.890625 
Q 32.328125 33.6875 34.8125 36.53125 
Q 39.546875 41.84375 41.421875 45.53125 
Q 43.3125 49.21875 43.3125 52.78125 
Q 43.3125 58.59375 39.234375 62.25 
Q 35.15625 65.921875 28.609375 65.921875 
Q 23.96875 65.921875 18.8125 64.3125 
Q 13.671875 62.703125 7.8125 59.421875 
L 7.8125 69.390625 
Q 13.765625 71.78125 18.9375 73 
Q 24.125 74.21875 28.421875 74.21875 
Q 39.75 74.21875 46.484375 68.546875 
Q 53.21875 62.890625 53.21875 53.421875 
Q 53.21875 48.921875 51.53125 44.890625 
Q 49.859375 40.875 45.40625 35.40625 
Q 44.1875 33.984375 37.640625 27.21875 
Q 31.109375 20.453125 19.1875 8.296875 
z
" id="DejaVuSans-32"/>
      </defs>
      <g transform="translate(202.636023 322.182437)scale(0.1 -0.1)">
       <use xlink:href="#DejaVuSans-32"/>
       <use x="63.623047" xlink:href="#DejaVuSans-30"/>
      </g>
     </g>
    </g>
    <g id="xtick_4">
     <g id="line2d_7">
      <path clip-path="url(#p0d1a3e2745)" d="M 278.220161 307.584 
L 278.220161 41.472 
" style="fill:none;stroke:#b0b0b0;stroke-linecap:square;stroke-width:0.8;"/>
     </g>
     <g id="line2d_8">
      <g>
       <use style="stroke:#000000;stroke-width:0.8;" x="278.220161" xlink:href="#ma6e03ab0e2" y="307.584"/>
      </g>
     </g>
     <g id="text_4">
      <!-- 30 -->
      <defs>
       <path d="M 40.578125 39.3125 
Q 47.65625 37.796875 51.625 33 
Q 55.609375 28.21875 55.609375 21.1875 
Q 55.609375 10.40625 48.1875 4.484375 
Q 40.765625 -1.421875 27.09375 -1.421875 
Q 22.515625 -1.421875 17.65625 -0.515625 
Q 12.796875 0.390625 7.625 2.203125 
L 7.625 11.71875 
Q 11.71875 9.328125 16.59375 8.109375 
Q 21.484375 6.890625 26.8125 6.890625 
Q 36.078125 6.890625 40.9375 10.546875 
Q 45.796875 14.203125 45.796875 21.1875 
Q 45.796875 27.640625 41.28125 31.265625 
Q 36.765625 34.90625 28.71875 34.90625 
L 20.21875 34.90625 
L 20.21875 43.015625 
L 29.109375 43.015625 
Q 36.375 43.015625 40.234375 45.921875 
Q 44.09375 48.828125 44.09375 54.296875 
Q 44.09375 59.90625 40.109375 62.90625 
Q 36.140625 65.921875 28.71875 65.921875 
Q 24.65625 65.921875 20.015625 65.03125 
Q 15.375 64.15625 9.8125 62.3125 
L 9.8125 71.09375 
Q 15.4375 72.65625 20.34375 73.4375 
Q 25.25 74.21875 29.59375 74.21875 
Q 40.828125 74.21875 47.359375 69.109375 
Q 53.90625 64.015625 53.90625 55.328125 
Q 53.90625 49.265625 50.4375 45.09375 
Q 46.96875 40.921875 40.578125 39.3125 
z
" id="DejaVuSans-33"/>
      </defs>
      <g transform="translate(271.857661 322.182437)scale(0.1 -0.1)">
       <use xlink:href="#DejaVuSans-33"/>
       <use x="63.623047" xlink:href="#DejaVuSans-30"/>
      </g>
     </g>
    </g>
    <g id="xtick_5">
     <g id="line2d_9">
      <path clip-path="url(#p0d1a3e2745)" d="M 347.441799 307.584 
L 347.441799 41.472 
" style="fill:none;stroke:#b0b0b0;stroke-linecap:square;stroke-width:0.8;"/>
     </g>
     <g id="line2d_10">
      <g>
       <use style="stroke:#000000;stroke-width:0.8;" x="347.441799" xlink:href="#ma6e03ab0e2" y="307.584"/>
      </g>
     </g>
     <g id="text_5">
      <!-- 40 -->
      <defs>
       <path d="M 37.796875 64.3125 
L 12.890625 25.390625 
L 37.796875 25.390625 
z
M 35.203125 72.90625 
L 47.609375 72.90625 
L 47.609375 25.390625 
L 58.015625 25.390625 
L 58.015625 17.1875 
L 47.609375 17.1875 
L 47.609375 0 
L 37.796875 0 
L 37.796875 17.1875 
L 4.890625 17.1875 
L 4.890625 26.703125 
z
" id="DejaVuSans-34"/>
      </defs>
      <g transform="translate(341.079299 322.182437)scale(0.1 -0.1)">
       <use xlink:href="#DejaVuSans-34"/>
       <use x="63.623047" xlink:href="#DejaVuSans-30"/>
      </g>
     </g>
    </g>
    <g id="xtick_6">
     <g id="line2d_11">
      <path clip-path="url(#p0d1a3e2745)" d="M 84.399575 307.584 
L 84.399575 41.472 
" style="fill:none;stroke:#b0b0b0;stroke-linecap:square;stroke-width:0.8;"/>
     </g>
     <g id="line2d_12">
      <defs>
       <path d="M 0 0 
L 0 2 
" id="m7793517c21" style="stroke:#000000;stroke-width:0.6;"/>
      </defs>
      <g>
       <use style="stroke:#000000;stroke-width:0.6;" x="84.399575" xlink:href="#m7793517c21" y="307.584"/>
      </g>
     </g>
    </g>
    <g id="xtick_7">
     <g id="line2d_13">
      <path clip-path="url(#p0d1a3e2745)" d="M 98.243903 307.584 
L 98.243903 41.472 
" style="fill:none;stroke:#b0b0b0;stroke-linecap:square;stroke-width:0.8;"/>
     </g>
     <g id="line2d_14">
      <g>
       <use style="stroke:#000000;stroke-width:0.6;" x="98.243903" xlink:href="#m7793517c21" y="307.584"/>
      </g>
     </g>
    </g>
    <g id="xtick_8">
     <g id="line2d_15">
      <path clip-path="url(#p0d1a3e2745)" d="M 112.08823 307.584 
L 112.08823 41.472 
" style="fill:none;stroke:#b0b0b0;stroke-linecap:square;stroke-width:0.8;"/>
     </g>
     <g id="line2d_16">
      <g>
       <use style="stroke:#000000;stroke-width:0.6;" x="112.08823" xlink:href="#m7793517c21" y="307.584"/>
      </g>
     </g>
    </g>
    <g id="xtick_9">
     <g id="line2d_17">
      <path clip-path="url(#p0d1a3e2745)" d="M 125.932558 307.584 
L 125.932558 41.472 
" style="fill:none;stroke:#b0b0b0;stroke-linecap:square;stroke-width:0.8;"/>
     </g>
     <g id="line2d_18">
      <g>
       <use style="stroke:#000000;stroke-width:0.6;" x="125.932558" xlink:href="#m7793517c21" y="307.584"/>
      </g>
     </g>
    </g>
    <g id="xtick_10">
     <g id="line2d_19">
      <path clip-path="url(#p0d1a3e2745)" d="M 153.621213 307.584 
L 153.621213 41.472 
" style="fill:none;stroke:#b0b0b0;stroke-linecap:square;stroke-width:0.8;"/>
     </g>
     <g id="line2d_20">
      <g>
       <use style="stroke:#000000;stroke-width:0.6;" x="153.621213" xlink:href="#m7793517c21" y="307.584"/>
      </g>
     </g>
    </g>
    <g id="xtick_11">
     <g id="line2d_21">
      <path clip-path="url(#p0d1a3e2745)" d="M 167.465541 307.584 
L 167.465541 41.472 
" style="fill:none;stroke:#b0b0b0;stroke-linecap:square;stroke-width:0.8;"/>
     </g>
     <g id="line2d_22">
      <g>
       <use style="stroke:#000000;stroke-width:0.6;" x="167.465541" xlink:href="#m7793517c21" y="307.584"/>
      </g>
     </g>
    </g>
    <g id="xtick_12">
     <g id="line2d_23">
      <path clip-path="url(#p0d1a3e2745)" d="M 181.309868 307.584 
L 181.309868 41.472 
" style="fill:none;stroke:#b0b0b0;stroke-linecap:square;stroke-width:0.8;"/>
     </g>
     <g id="line2d_24">
      <g>
       <use style="stroke:#000000;stroke-width:0.6;" x="181.309868" xlink:href="#m7793517c21" y="307.584"/>
      </g>
     </g>
    </g>
    <g id="xtick_13">
     <g id="line2d_25">
      <path clip-path="url(#p0d1a3e2745)" d="M 195.154196 307.584 
L 195.154196 41.472 
" style="fill:none;stroke:#b0b0b0;stroke-linecap:square;stroke-width:0.8;"/>
     </g>
     <g id="line2d_26">
      <g>
       <use style="stroke:#000000;stroke-width:0.6;" x="195.154196" xlink:href="#m7793517c21" y="307.584"/>
      </g>
     </g>
    </g>
    <g id="xtick_14">
     <g id="line2d_27">
      <path clip-path="url(#p0d1a3e2745)" d="M 222.842851 307.584 
L 222.842851 41.472 
" style="fill:none;stroke:#b0b0b0;stroke-linecap:square;stroke-width:0.8;"/>
     </g>
     <g id="line2d_28">
      <g>
       <use style="stroke:#000000;stroke-width:0.6;" x="222.842851" xlink:href="#m7793517c21" y="307.584"/>
      </g>
     </g>
    </g>
    <g id="xtick_15">
     <g id="line2d_29">
      <path clip-path="url(#p0d1a3e2745)" d="M 236.687178 307.584 
L 236.687178 41.472 
" style="fill:none;stroke:#b0b0b0;stroke-linecap:square;stroke-width:0.8;"/>
     </g>
     <g id="line2d_30">
      <g>
       <use style="stroke:#000000;stroke-width:0.6;" x="236.687178" xlink:href="#m7793517c21" y="307.584"/>
      </g>
     </g>
    </g>
    <g id="xtick_16">
     <g id="line2d_31">
      <path clip-path="url(#p0d1a3e2745)" d="M 250.531506 307.584 
L 250.531506 41.472 
" style="fill:none;stroke:#b0b0b0;stroke-linecap:square;stroke-width:0.8;"/>
     </g>
     <g id="line2d_32">
      <g>
       <use style="stroke:#000000;stroke-width:0.6;" x="250.531506" xlink:href="#m7793517c21" y="307.584"/>
      </g>
     </g>
    </g>
    <g id="xtick_17">
     <g id="line2d_33">
      <path clip-path="url(#p0d1a3e2745)" d="M 264.375834 307.584 
L 264.375834 41.472 
" style="fill:none;stroke:#b0b0b0;stroke-linecap:square;stroke-width:0.8;"/>
     </g>
     <g id="line2d_34">
      <g>
       <use style="stroke:#000000;stroke-width:0.6;" x="264.375834" xlink:href="#m7793517c21" y="307.584"/>
      </g>
     </g>
    </g>
    <g id="xtick_18">
     <g id="line2d_35">
      <path clip-path="url(#p0d1a3e2745)" d="M 292.064489 307.584 
L 292.064489 41.472 
" style="fill:none;stroke:#b0b0b0;stroke-linecap:square;stroke-width:0.8;"/>
     </g>
     <g id="line2d_36">
      <g>
       <use style="stroke:#000000;stroke-width:0.6;" x="292.064489" xlink:href="#m7793517c21" y="307.584"/>
      </g>
     </g>
    </g>
    <g id="xtick_19">
     <g id="line2d_37">
      <path clip-path="url(#p0d1a3e2745)" d="M 305.908816 307.584 
L 305.908816 41.472 
" style="fill:none;stroke:#b0b0b0;stroke-linecap:square;stroke-width:0.8;"/>
     </g>
     <g id="line2d_38">
      <g>
       <use style="stroke:#000000;stroke-width:0.6;" x="305.908816" xlink:href="#m7793517c21" y="307.584"/>
      </g>
     </g>
    </g>
    <g id="xtick_20">
     <g id="line2d_39">
      <path clip-path="url(#p0d1a3e2745)" d="M 319.753144 307.584 
L 319.753144 41.472 
" style="fill:none;stroke:#b0b0b0;stroke-linecap:square;stroke-width:0.8;"/>
     </g>
     <g id="line2d_40">
      <g>
       <use style="stroke:#000000;stroke-width:0.6;" x="319.753144" xlink:href="#m7793517c21" y="307.584"/>
      </g>
     </g>
    </g>
    <g id="xtick_21">
     <g id="line2d_41">
      <path clip-path="url(#p0d1a3e2745)" d="M 333.597471 307.584 
L 333.597471 41.472 
" style="fill:none;stroke:#b0b0b0;stroke-linecap:square;stroke-width:0.8;"/>
     </g>
     <g id="line2d_42">
      <g>
       <use style="stroke:#000000;stroke-width:0.6;" x="333.597471" xlink:href="#m7793517c21" y="307.584"/>
      </g>
     </g>
    </g>
    <g id="xtick_22">
     <g id="line2d_43">
      <path clip-path="url(#p0d1a3e2745)" d="M 361.286127 307.584 
L 361.286127 41.472 
" style="fill:none;stroke:#b0b0b0;stroke-linecap:square;stroke-width:0.8;"/>
     </g>
     <g id="line2d_44">
      <g>
       <use style="stroke:#000000;stroke-width:0.6;" x="361.286127" xlink:href="#m7793517c21" y="307.584"/>
      </g>
     </g>
    </g>
    <g id="xtick_23">
     <g id="line2d_45">
      <path clip-path="url(#p0d1a3e2745)" d="M 375.130454 307.584 
L 375.130454 41.472 
" style="fill:none;stroke:#b0b0b0;stroke-linecap:square;stroke-width:0.8;"/>
     </g>
     <g id="line2d_46">
      <g>
       <use style="stroke:#000000;stroke-width:0.6;" x="375.130454" xlink:href="#m7793517c21" y="307.584"/>
      </g>
     </g>
    </g>
    <g id="xtick_24">
     <g id="line2d_47">
      <path clip-path="url(#p0d1a3e2745)" d="M 388.974782 307.584 
L 388.974782 41.472 
" style="fill:none;stroke:#b0b0b0;stroke-linecap:square;stroke-width:0.8;"/>
     </g>
     <g id="line2d_48">
      <g>
       <use style="stroke:#000000;stroke-width:0.6;" x="388.974782" xlink:href="#m7793517c21" y="307.584"/>
      </g>
     </g>
    </g>
    <g id="xtick_25">
     <g id="line2d_49">
      <path clip-path="url(#p0d1a3e2745)" d="M 402.819109 307.584 
L 402.819109 41.472 
" style="fill:none;stroke:#b0b0b0;stroke-linecap:square;stroke-width:0.8;"/>
     </g>
     <g id="line2d_50">
      <g>
       <use style="stroke:#000000;stroke-width:0.6;" x="402.819109" xlink:href="#m7793517c21" y="307.584"/>
      </g>
     </g>
    </g>
    <g id="text_6">
     <!-- frame # [] -->
     <defs>
      <path d="M 37.109375 75.984375 
L 37.109375 68.5 
L 28.515625 68.5 
Q 23.6875 68.5 21.796875 66.546875 
Q 19.921875 64.59375 19.921875 59.515625 
L 19.921875 54.6875 
L 34.71875 54.6875 
L 34.71875 47.703125 
L 19.921875 47.703125 
L 19.921875 0 
L 10.890625 0 
L 10.890625 47.703125 
L 2.296875 47.703125 
L 2.296875 54.6875 
L 10.890625 54.6875 
L 10.890625 58.5 
Q 10.890625 67.625 15.140625 71.796875 
Q 19.390625 75.984375 28.609375 75.984375 
z
" id="DejaVuSans-66"/>
      <path d="M 41.109375 46.296875 
Q 39.59375 47.171875 37.8125 47.578125 
Q 36.03125 48 33.890625 48 
Q 26.265625 48 22.1875 43.046875 
Q 18.109375 38.09375 18.109375 28.8125 
L 18.109375 0 
L 9.078125 0 
L 9.078125 54.6875 
L 18.109375 54.6875 
L 18.109375 46.1875 
Q 20.953125 51.171875 25.484375 53.578125 
Q 30.03125 56 36.53125 56 
Q 37.453125 56 38.578125 55.875 
Q 39.703125 55.765625 41.0625 55.515625 
z
" id="DejaVuSans-72"/>
      <path d="M 34.28125 27.484375 
Q 23.390625 27.484375 19.1875 25 
Q 14.984375 22.515625 14.984375 16.5 
Q 14.984375 11.71875 18.140625 8.90625 
Q 21.296875 6.109375 26.703125 6.109375 
Q 34.1875 6.109375 38.703125 11.40625 
Q 43.21875 16.703125 43.21875 25.484375 
L 43.21875 27.484375 
z
M 52.203125 31.203125 
L 52.203125 0 
L 43.21875 0 
L 43.21875 8.296875 
Q 40.140625 3.328125 35.546875 0.953125 
Q 30.953125 -1.421875 24.3125 -1.421875 
Q 15.921875 -1.421875 10.953125 3.296875 
Q 6 8.015625 6 15.921875 
Q 6 25.140625 12.171875 29.828125 
Q 18.359375 34.515625 30.609375 34.515625 
L 43.21875 34.515625 
L 43.21875 35.40625 
Q 43.21875 41.609375 39.140625 45 
Q 35.0625 48.390625 27.6875 48.390625 
Q 23 48.390625 18.546875 47.265625 
Q 14.109375 46.140625 10.015625 43.890625 
L 10.015625 52.203125 
Q 14.9375 54.109375 19.578125 55.046875 
Q 24.21875 56 28.609375 56 
Q 40.484375 56 46.34375 49.84375 
Q 52.203125 43.703125 52.203125 31.203125 
z
" id="DejaVuSans-61"/>
      <path d="M 52 44.1875 
Q 55.375 50.25 60.0625 53.125 
Q 64.75 56 71.09375 56 
Q 79.640625 56 84.28125 50.015625 
Q 88.921875 44.046875 88.921875 33.015625 
L 88.921875 0 
L 79.890625 0 
L 79.890625 32.71875 
Q 79.890625 40.578125 77.09375 44.375 
Q 74.3125 48.1875 68.609375 48.1875 
Q 61.625 48.1875 57.5625 43.546875 
Q 53.515625 38.921875 53.515625 30.90625 
L 53.515625 0 
L 44.484375 0 
L 44.484375 32.71875 
Q 44.484375 40.625 41.703125 44.40625 
Q 38.921875 48.1875 33.109375 48.1875 
Q 26.21875 48.1875 22.15625 43.53125 
Q 18.109375 38.875 18.109375 30.90625 
L 18.109375 0 
L 9.078125 0 
L 9.078125 54.6875 
L 18.109375 54.6875 
L 18.109375 46.1875 
Q 21.1875 51.21875 25.484375 53.609375 
Q 29.78125 56 35.6875 56 
Q 41.65625 56 45.828125 52.96875 
Q 50 49.953125 52 44.1875 
z
" id="DejaVuSans-6d"/>
      <path d="M 56.203125 29.59375 
L 56.203125 25.203125 
L 14.890625 25.203125 
Q 15.484375 15.921875 20.484375 11.0625 
Q 25.484375 6.203125 34.421875 6.203125 
Q 39.59375 6.203125 44.453125 7.46875 
Q 49.3125 8.734375 54.109375 11.28125 
L 54.109375 2.78125 
Q 49.265625 0.734375 44.1875 -0.34375 
Q 39.109375 -1.421875 33.890625 -1.421875 
Q 20.796875 -1.421875 13.15625 6.1875 
Q 5.515625 13.8125 5.515625 26.8125 
Q 5.515625 40.234375 12.765625 48.109375 
Q 20.015625 56 32.328125 56 
Q 43.359375 56 49.78125 48.890625 
Q 56.203125 41.796875 56.203125 29.59375 
z
M 47.21875 32.234375 
Q 47.125 39.59375 43.09375 43.984375 
Q 39.0625 48.390625 32.421875 48.390625 
Q 24.90625 48.390625 20.390625 44.140625 
Q 15.875 39.890625 15.1875 32.171875 
z
" id="DejaVuSans-65"/>
      <path id="DejaVuSans-20"/>
      <path d="M 51.125 44 
L 36.921875 44 
L 32.8125 27.6875 
L 47.125 27.6875 
z
M 43.796875 71.78125 
L 38.71875 51.515625 
L 52.984375 51.515625 
L 58.109375 71.78125 
L 65.921875 71.78125 
L 60.890625 51.515625 
L 76.125 51.515625 
L 76.125 44 
L 58.984375 44 
L 54.984375 27.6875 
L 70.515625 27.6875 
L 70.515625 20.21875 
L 53.078125 20.21875 
L 48 0 
L 40.1875 0 
L 45.21875 20.21875 
L 30.90625 20.21875 
L 25.875 0 
L 18.015625 0 
L 23.09375 20.21875 
L 7.71875 20.21875 
L 7.71875 27.6875 
L 24.90625 27.6875 
L 29 44 
L 13.28125 44 
L 13.28125 51.515625 
L 30.90625 51.515625 
L 35.890625 71.78125 
z
" id="DejaVuSans-23"/>
      <path d="M 8.59375 75.984375 
L 29.296875 75.984375 
L 29.296875 69 
L 17.578125 69 
L 17.578125 -6.203125 
L 29.296875 -6.203125 
L 29.296875 -13.1875 
L 8.59375 -13.1875 
z
" id="DejaVuSans-5b"/>
      <path d="M 30.421875 75.984375 
L 30.421875 -13.1875 
L 9.71875 -13.1875 
L 9.71875 -6.203125 
L 21.390625 -6.203125 
L 21.390625 69 
L 9.71875 69 
L 9.71875 75.984375 
z
" id="DejaVuSans-5d"/>
     </defs>
     <g transform="translate(210.063906 335.860562)scale(0.1 -0.1)">
      <use xlink:href="#DejaVuSans-66"/>
      <use x="35.205078" xlink:href="#DejaVuSans-72"/>
      <use x="76.318359" xlink:href="#DejaVuSans-61"/>
      <use x="137.597656" xlink:href="#DejaVuSans-6d"/>
      <use x="235.009766" xlink:href="#DejaVuSans-65"/>
      <use x="296.533203" xlink:href="#DejaVuSans-20"/>
      <use x="328.320312" xlink:href="#DejaVuSans-23"/>
      <use x="412.109375" xlink:href="#DejaVuSans-20"/>
      <use x="443.896484" xlink:href="#DejaVuSans-5b"/>
      <use x="482.910156" xlink:href="#DejaVuSans-5d"/>
     </g>
    </g>
   </g>
   <g id="matplotlib.axis_2">
    <g id="ytick_1">
     <g id="line2d_51">
      <path clip-path="url(#p0d1a3e2745)" d="M 57.6 285.450184 
L 414.72 285.450184 
" style="fill:none;stroke:#b0b0b0;stroke-linecap:square;stroke-width:0.8;"/>
     </g>
     <g id="line2d_52">
      <defs>
       <path d="M 0 0 
L -3.5 0 
" id="m752b76ab0e" style="stroke:#000000;stroke-width:0.8;"/>
      </defs>
      <g>
       <use style="stroke:#000000;stroke-width:0.8;" x="57.6" xlink:href="#m752b76ab0e" y="285.450184"/>
      </g>
     </g>
     <g id="text_7">
      <!-- −0.4 -->
      <defs>
       <path d="M 10.59375 35.5 
L 73.1875 35.5 
L 73.1875 27.203125 
L 10.59375 27.203125 
z
" id="DejaVuSans-2212"/>
       <path d="M 10.6875 12.40625 
L 21 12.40625 
L 21 0 
L 10.6875 0 
z
" id="DejaVuSans-2e"/>
      </defs>
      <g transform="translate(26.317187 289.249403)scale(0.1 -0.1)">
       <use xlink:href="#DejaVuSans-2212"/>
       <use x="83.789062" xlink:href="#DejaVuSans-30"/>
       <use x="147.412109" xlink:href="#DejaVuSans-2e"/>
       <use x="179.199219" xlink:href="#DejaVuSans-34"/>
      </g>
     </g>
    </g>
    <g id="ytick_2">
     <g id="line2d_53">
      <path clip-path="url(#p0d1a3e2745)" d="M 57.6 230.925 
L 414.72 230.925 
" style="fill:none;stroke:#b0b0b0;stroke-linecap:square;stroke-width:0.8;"/>
     </g>
     <g id="line2d_54">
      <g>
       <use style="stroke:#000000;stroke-width:0.8;" x="57.6" xlink:href="#m752b76ab0e" y="230.925"/>
      </g>
     </g>
     <g id="text_8">
      <!-- −0.2 -->
      <g transform="translate(26.317187 234.724219)scale(0.1 -0.1)">
       <use xlink:href="#DejaVuSans-2212"/>
       <use x="83.789062" xlink:href="#DejaVuSans-30"/>
       <use x="147.412109" xlink:href="#DejaVuSans-2e"/>
       <use x="179.199219" xlink:href="#DejaVuSans-32"/>
      </g>
     </g>
    </g>
    <g id="ytick_3">
     <g id="line2d_55">
      <path clip-path="url(#p0d1a3e2745)" d="M 57.6 176.399816 
L 414.72 176.399816 
" style="fill:none;stroke:#b0b0b0;stroke-linecap:square;stroke-width:0.8;"/>
     </g>
     <g id="line2d_56">
      <g>
       <use style="stroke:#000000;stroke-width:0.8;" x="57.6" xlink:href="#m752b76ab0e" y="176.399816"/>
      </g>
     </g>
     <g id="text_9">
      <!-- 0.0 -->
      <g transform="translate(34.696875 180.199034)scale(0.1 -0.1)">
       <use xlink:href="#DejaVuSans-30"/>
       <use x="63.623047" xlink:href="#DejaVuSans-2e"/>
       <use x="95.410156" xlink:href="#DejaVuSans-30"/>
      </g>
     </g>
    </g>
    <g id="ytick_4">
     <g id="line2d_57">
      <path clip-path="url(#p0d1a3e2745)" d="M 57.6 121.874631 
L 414.72 121.874631 
" style="fill:none;stroke:#b0b0b0;stroke-linecap:square;stroke-width:0.8;"/>
     </g>
     <g id="line2d_58">
      <g>
       <use style="stroke:#000000;stroke-width:0.8;" x="57.6" xlink:href="#m752b76ab0e" y="121.874631"/>
      </g>
     </g>
     <g id="text_10">
      <!-- 0.2 -->
      <g transform="translate(34.696875 125.67385)scale(0.1 -0.1)">
       <use xlink:href="#DejaVuSans-30"/>
       <use x="63.623047" xlink:href="#DejaVuSans-2e"/>
       <use x="95.410156" xlink:href="#DejaVuSans-32"/>
      </g>
     </g>
    </g>
    <g id="ytick_5">
     <g id="line2d_59">
      <path clip-path="url(#p0d1a3e2745)" d="M 57.6 67.349447 
L 414.72 67.349447 
" style="fill:none;stroke:#b0b0b0;stroke-linecap:square;stroke-width:0.8;"/>
     </g>
     <g id="line2d_60">
      <g>
       <use style="stroke:#000000;stroke-width:0.8;" x="57.6" xlink:href="#m752b76ab0e" y="67.349447"/>
      </g>
     </g>
     <g id="text_11">
      <!-- 0.4 -->
      <g transform="translate(34.696875 71.148666)scale(0.1 -0.1)">
       <use xlink:href="#DejaVuSans-30"/>
       <use x="63.623047" xlink:href="#DejaVuSans-2e"/>
       <use x="95.410156" xlink:href="#DejaVuSans-34"/>
      </g>
     </g>
    </g>
    <g id="ytick_6">
     <g id="line2d_61">
      <path clip-path="url(#p0d1a3e2745)" d="M 57.6 299.08148 
L 414.72 299.08148 
" style="fill:none;stroke:#b0b0b0;stroke-linecap:square;stroke-width:0.8;"/>
     </g>
     <g id="line2d_62">
      <defs>
       <path d="M 0 0 
L -2 0 
" id="m7443be1283" style="stroke:#000000;stroke-width:0.6;"/>
      </defs>
      <g>
       <use style="stroke:#000000;stroke-width:0.6;" x="57.6" xlink:href="#m7443be1283" y="299.08148"/>
      </g>
     </g>
    </g>
    <g id="ytick_7">
     <g id="line2d_63">
      <path clip-path="url(#p0d1a3e2745)" d="M 57.6 271.818888 
L 414.72 271.818888 
" style="fill:none;stroke:#b0b0b0;stroke-linecap:square;stroke-width:0.8;"/>
     </g>
     <g id="line2d_64">
      <g>
       <use style="stroke:#000000;stroke-width:0.6;" x="57.6" xlink:href="#m7443be1283" y="271.818888"/>
      </g>
     </g>
    </g>
    <g id="ytick_8">
     <g id="line2d_65">
      <path clip-path="url(#p0d1a3e2745)" d="M 57.6 258.187592 
L 414.72 258.187592 
" style="fill:none;stroke:#b0b0b0;stroke-linecap:square;stroke-width:0.8;"/>
     </g>
     <g id="line2d_66">
      <g>
       <use style="stroke:#000000;stroke-width:0.6;" x="57.6" xlink:href="#m7443be1283" y="258.187592"/>
      </g>
     </g>
    </g>
    <g id="ytick_9">
     <g id="line2d_67">
      <path clip-path="url(#p0d1a3e2745)" d="M 57.6 244.556296 
L 414.72 244.556296 
" style="fill:none;stroke:#b0b0b0;stroke-linecap:square;stroke-width:0.8;"/>
     </g>
     <g id="line2d_68">
      <g>
       <use style="stroke:#000000;stroke-width:0.6;" x="57.6" xlink:href="#m7443be1283" y="244.556296"/>
      </g>
     </g>
    </g>
    <g id="ytick_10">
     <g id="line2d_69">
      <path clip-path="url(#p0d1a3e2745)" d="M 57.6 230.925 
L 414.72 230.925 
" style="fill:none;stroke:#b0b0b0;stroke-linecap:square;stroke-width:0.8;"/>
     </g>
     <g id="line2d_70">
      <g>
       <use style="stroke:#000000;stroke-width:0.6;" x="57.6" xlink:href="#m7443be1283" y="230.925"/>
      </g>
     </g>
    </g>
    <g id="ytick_11">
     <g id="line2d_71">
      <path clip-path="url(#p0d1a3e2745)" d="M 57.6 217.293704 
L 414.72 217.293704 
" style="fill:none;stroke:#b0b0b0;stroke-linecap:square;stroke-width:0.8;"/>
     </g>
     <g id="line2d_72">
      <g>
       <use style="stroke:#000000;stroke-width:0.6;" x="57.6" xlink:href="#m7443be1283" y="217.293704"/>
      </g>
     </g>
    </g>
    <g id="ytick_12">
     <g id="line2d_73">
      <path clip-path="url(#p0d1a3e2745)" d="M 57.6 203.662408 
L 414.72 203.662408 
" style="fill:none;stroke:#b0b0b0;stroke-linecap:square;stroke-width:0.8;"/>
     </g>
     <g id="line2d_74">
      <g>
       <use style="stroke:#000000;stroke-width:0.6;" x="57.6" xlink:href="#m7443be1283" y="203.662408"/>
      </g>
     </g>
    </g>
    <g id="ytick_13">
     <g id="line2d_75">
      <path clip-path="url(#p0d1a3e2745)" d="M 57.6 190.031112 
L 414.72 190.031112 
" style="fill:none;stroke:#b0b0b0;stroke-linecap:square;stroke-width:0.8;"/>
     </g>
     <g id="line2d_76">
      <g>
       <use style="stroke:#000000;stroke-width:0.6;" x="57.6" xlink:href="#m7443be1283" y="190.031112"/>
      </g>
     </g>
    </g>
    <g id="ytick_14">
     <g id="line2d_77">
      <path clip-path="url(#p0d1a3e2745)" d="M 57.6 176.399816 
L 414.72 176.399816 
" style="fill:none;stroke:#b0b0b0;stroke-linecap:square;stroke-width:0.8;"/>
     </g>
     <g id="line2d_78">
      <g>
       <use style="stroke:#000000;stroke-width:0.6;" x="57.6" xlink:href="#m7443be1283" y="176.399816"/>
      </g>
     </g>
    </g>
    <g id="ytick_15">
     <g id="line2d_79">
      <path clip-path="url(#p0d1a3e2745)" d="M 57.6 162.768519 
L 414.72 162.768519 
" style="fill:none;stroke:#b0b0b0;stroke-linecap:square;stroke-width:0.8;"/>
     </g>
     <g id="line2d_80">
      <g>
       <use style="stroke:#000000;stroke-width:0.6;" x="57.6" xlink:href="#m7443be1283" y="162.768519"/>
      </g>
     </g>
    </g>
    <g id="ytick_16">
     <g id="line2d_81">
      <path clip-path="url(#p0d1a3e2745)" d="M 57.6 149.137223 
L 414.72 149.137223 
" style="fill:none;stroke:#b0b0b0;stroke-linecap:square;stroke-width:0.8;"/>
     </g>
     <g id="line2d_82">
      <g>
       <use style="stroke:#000000;stroke-width:0.6;" x="57.6" xlink:href="#m7443be1283" y="149.137223"/>
      </g>
     </g>
    </g>
    <g id="ytick_17">
     <g id="line2d_83">
      <path clip-path="url(#p0d1a3e2745)" d="M 57.6 135.505927 
L 414.72 135.505927 
" style="fill:none;stroke:#b0b0b0;stroke-linecap:square;stroke-width:0.8;"/>
     </g>
     <g id="line2d_84">
      <g>
       <use style="stroke:#000000;stroke-width:0.6;" x="57.6" xlink:href="#m7443be1283" y="135.505927"/>
      </g>
     </g>
    </g>
    <g id="ytick_18">
     <g id="line2d_85">
      <path clip-path="url(#p0d1a3e2745)" d="M 57.6 121.874631 
L 414.72 121.874631 
" style="fill:none;stroke:#b0b0b0;stroke-linecap:square;stroke-width:0.8;"/>
     </g>
     <g id="line2d_86">
      <g>
       <use style="stroke:#000000;stroke-width:0.6;" x="57.6" xlink:href="#m7443be1283" y="121.874631"/>
      </g>
     </g>
    </g>
    <g id="ytick_19">
     <g id="line2d_87">
      <path clip-path="url(#p0d1a3e2745)" d="M 57.6 108.243335 
L 414.72 108.243335 
" style="fill:none;stroke:#b0b0b0;stroke-linecap:square;stroke-width:0.8;"/>
     </g>
     <g id="line2d_88">
      <g>
       <use style="stroke:#000000;stroke-width:0.6;" x="57.6" xlink:href="#m7443be1283" y="108.243335"/>
      </g>
     </g>
    </g>
    <g id="ytick_20">
     <g id="line2d_89">
      <path clip-path="url(#p0d1a3e2745)" d="M 57.6 94.612039 
L 414.72 94.612039 
" style="fill:none;stroke:#b0b0b0;stroke-linecap:square;stroke-width:0.8;"/>
     </g>
     <g id="line2d_90">
      <g>
       <use style="stroke:#000000;stroke-width:0.6;" x="57.6" xlink:href="#m7443be1283" y="94.612039"/>
      </g>
     </g>
    </g>
    <g id="ytick_21">
     <g id="line2d_91">
      <path clip-path="url(#p0d1a3e2745)" d="M 57.6 80.980743 
L 414.72 80.980743 
" style="fill:none;stroke:#b0b0b0;stroke-linecap:square;stroke-width:0.8;"/>
     </g>
     <g id="line2d_92">
      <g>
       <use style="stroke:#000000;stroke-width:0.6;" x="57.6" xlink:href="#m7443be1283" y="80.980743"/>
      </g>
     </g>
    </g>
    <g id="ytick_22">
     <g id="line2d_93">
      <path clip-path="url(#p0d1a3e2745)" d="M 57.6 67.349447 
L 414.72 67.349447 
" style="fill:none;stroke:#b0b0b0;stroke-linecap:square;stroke-width:0.8;"/>
     </g>
     <g id="line2d_94">
      <g>
       <use style="stroke:#000000;stroke-width:0.6;" x="57.6" xlink:href="#m7443be1283" y="67.349447"/>
      </g>
     </g>
    </g>
    <g id="ytick_23">
     <g id="line2d_95">
      <path clip-path="url(#p0d1a3e2745)" d="M 57.6 53.718151 
L 414.72 53.718151 
" style="fill:none;stroke:#b0b0b0;stroke-linecap:square;stroke-width:0.8;"/>
     </g>
     <g id="line2d_96">
      <g>
       <use style="stroke:#000000;stroke-width:0.6;" x="57.6" xlink:href="#m7443be1283" y="53.718151"/>
      </g>
     </g>
    </g>
    <g id="text_12">
     <!-- rot z -->
     <defs>
      <path d="M 30.609375 48.390625 
Q 23.390625 48.390625 19.1875 42.75 
Q 14.984375 37.109375 14.984375 27.296875 
Q 14.984375 17.484375 19.15625 11.84375 
Q 23.34375 6.203125 30.609375 6.203125 
Q 37.796875 6.203125 41.984375 11.859375 
Q 46.1875 17.53125 46.1875 27.296875 
Q 46.1875 37.015625 41.984375 42.703125 
Q 37.796875 48.390625 30.609375 48.390625 
z
M 30.609375 56 
Q 42.328125 56 49.015625 48.375 
Q 55.71875 40.765625 55.71875 27.296875 
Q 55.71875 13.875 49.015625 6.21875 
Q 42.328125 -1.421875 30.609375 -1.421875 
Q 18.84375 -1.421875 12.171875 6.21875 
Q 5.515625 13.875 5.515625 27.296875 
Q 5.515625 40.765625 12.171875 48.375 
Q 18.84375 56 30.609375 56 
z
" id="DejaVuSans-6f"/>
      <path d="M 18.3125 70.21875 
L 18.3125 54.6875 
L 36.8125 54.6875 
L 36.8125 47.703125 
L 18.3125 47.703125 
L 18.3125 18.015625 
Q 18.3125 11.328125 20.140625 9.421875 
Q 21.96875 7.515625 27.59375 7.515625 
L 36.8125 7.515625 
L 36.8125 0 
L 27.59375 0 
Q 17.1875 0 13.234375 3.875 
Q 9.28125 7.765625 9.28125 18.015625 
L 9.28125 47.703125 
L 2.6875 47.703125 
L 2.6875 54.6875 
L 9.28125 54.6875 
L 9.28125 70.21875 
z
" id="DejaVuSans-74"/>
      <path d="M 5.515625 54.6875 
L 48.1875 54.6875 
L 48.1875 46.484375 
L 14.40625 7.171875 
L 48.1875 7.171875 
L 48.1875 0 
L 4.296875 0 
L 4.296875 8.203125 
L 38.09375 47.515625 
L 5.515625 47.515625 
z
" id="DejaVuSans-7a"/>
     </defs>
     <g transform="translate(20.2375 185.814719)rotate(-90)scale(0.1 -0.1)">
      <use xlink:href="#DejaVuSans-72"/>
      <use x="41.082031" xlink:href="#DejaVuSans-6f"/>
      <use x="102.263672" xlink:href="#DejaVuSans-74"/>
      <use x="141.472656" xlink:href="#DejaVuSans-20"/>
      <use x="173.259766" xlink:href="#DejaVuSans-7a"/>
     </g>
    </g>
   </g>
   <g id="line2d_97">
    <path clip-path="url(#p0d1a3e2745)" d="M 73.832727 183.548065 
L 74.524971 170.496342 
L 75.217208 182.556853 
L 75.90628 178.171464 
L 76.598517 180.717643 
L 77.290754 182.832664 
L 77.982991 179.601413 
L 78.6751 182.291765 
L 79.367337 187.350489 
L 80.751818 178.086921 
L 81.446481 177.278078 
L 82.138725 175.727096 
L 82.830962 176.101799 
L 83.523199 184.580428 
L 84.216653 173.993094 
L 84.908883 175.991501 
L 85.601147 173.545937 
L 86.293364 174.803424 
L 87.675135 189.305502 
L 88.367373 179.310548 
L 89.05961 175.731778 
L 89.751847 177.842413 
L 90.441987 182.869646 
L 91.13423 173.48219 
L 91.826467 168.771956 
L 92.518705 169.406035 
L 93.209773 169.37543 
L 94.594254 189.007159 
L 95.286491 194.601499 
L 95.979336 188.376183 
L 96.671581 188.550851 
L 97.363819 187.616323 
L 98.056056 199.705298 
L 98.749362 164.492591 
L 99.44205 172.008049 
L 100.133837 152.579816 
L 100.826074 174.99013 
M 104.284797 178.468516 
L 104.977035 176.76214 
L 105.669272 181.525181 
M 108.439825 187.576319 
L 109.132062 175.250721 
L 109.824962 166.389632 
L 110.517208 159.327875 
M 113.285912 173.940126 
L 113.978149 176.438635 
L 114.670387 192.319673 
L 115.361972 188.657017 
L 116.054209 178.743976 
L 116.746446 165.907757 
L 117.438683 167.244545 
M 118.823151 169.621277 
L 119.515395 162.107465 
L 120.207625 146.083417 
L 120.899869 170.799968 
L 121.594579 156.406014 
L 122.286816 186.813937 
L 122.97906 189.9499 
L 123.67129 196.515796 
L 124.363909 209.801573 
M 127.129632 177.927837 
L 127.82187 170.047743 
L 128.514107 171.800518 
L 129.206344 162.656548 
L 129.89967 161.957858 
L 130.591908 156.952759 
L 131.284145 132.899821 
L 131.976389 171.992427 
L 132.670814 177.624789 
L 133.363058 184.65016 
L 134.055295 195.219118 
L 134.747532 194.325706 
L 135.437802 199.545283 
L 136.130039 194.617499 
L 136.822277 171.775703 
M 138.204709 178.651417 
L 138.896947 177.329927 
L 139.589184 188.453669 
L 140.281421 180.575445 
L 141.668336 166.861564 
L 142.360573 170.220875 
L 143.05281 160.815092 
M 152.05041 178.214419 
L 152.743731 167.542519 
L 153.435969 148.59131 
M 154.820443 161.10971 
L 155.510224 164.634195 
M 159.663852 168.555853 
L 160.356055 164.559447 
L 161.051271 158.983522 
L 161.743508 174.464687 
L 162.435745 167.962226 
L 163.127989 185.60235 
M 167.970626 197.187248 
L 168.662863 184.529293 
L 169.356457 179.224456 
M 170.740931 193.601075 
L 171.433168 182.933702 
L 172.125831 177.899356 
M 173.510286 163.605218 
L 174.202529 159.404201 
L 174.892987 169.771169 
L 175.585225 168.905769 
L 176.277462 171.236803 
L 176.969699 164.237675 
L 177.662487 160.45643 
L 178.354724 170.814648 
L 179.046962 168.928954 
L 179.739205 175.972792 
M 181.126297 161.432535 
L 181.818534 169.352967 
L 182.510778 178.709496 
L 183.892876 194.251152 
L 184.585113 186.297548 
M 185.969588 207.304123 
L 186.661455 188.496684 
L 187.353692 189.3359 
M 191.509762 147.038014 
L 192.199235 164.336336 
L 192.891481 178.785588 
L 193.583718 179.522837 
L 194.275953 172.718779 
L 194.967935 159.377945 
L 195.660172 162.369383 
L 196.352409 162.760511 
L 197.044646 161.84403 
L 197.738917 175.587056 
M 199.123391 156.103252 
L 199.815628 184.919673 
L 200.508823 193.121917 
L 201.20106 184.983838 
L 201.893304 203.811274 
M 204.660013 192.621461 
L 205.35225 162.94293 
L 206.044672 166.214276 
L 206.736909 161.520866 
L 207.429146 167.944509 
L 208.121383 168.617521 
L 208.815873 168.149856 
L 209.50811 140.040626 
L 210.200348 181.945139 
L 210.892585 193.311824 
L 211.583861 199.515483 
L 212.276099 192.306543 
L 212.968342 157.75162 
L 213.66058 192.180272 
L 215.044156 183.363599 
L 215.736393 196.741217 
L 216.428631 195.751831 
L 217.120874 188.597401 
L 217.814995 177.559286 
L 218.507232 174.593414 
L 219.199469 184.344405 
L 219.891706 154.093049 
L 220.58497 149.690157 
L 221.277214 149.061971 
L 221.969824 161.445387 
L 222.661681 155.690194 
L 223.354881 158.644042 
L 224.047124 170.487878 
L 224.739362 174.119095 
L 225.431599 180.256996 
L 226.123329 176.9272 
L 226.815566 181.883168 
L 227.507804 194.730839 
L 228.200041 188.936291 
L 228.892598 211.08104 
L 229.584835 189.298855 
L 230.277072 175.198334 
L 230.96931 173.944603 
L 231.661953 167.087181 
L 232.35419 169.498789 
L 233.046427 169.784514 
L 233.738664 177.935581 
L 234.434318 174.597698 
L 235.126562 159.749953 
L 235.818799 163.512733 
L 236.511036 163.921173 
L 237.205725 162.462197 
L 237.897963 165.672515 
L 238.5902 182.504803 
L 239.282437 172.053952 
L 239.966295 194.930533 
M 241.350776 180.214558 
L 242.043013 179.779213 
L 242.735331 176.575284 
L 243.427569 171.278751 
L 244.119806 170.075591 
L 244.812043 142.227088 
L 245.504977 162.397665 
L 246.197214 173.5133 
L 246.889449 176.48339 
L 247.581686 178.662791 
L 248.274878 178.081043 
L 250.351589 195.277857 
L 251.043826 197.896279 
M 253.121246 181.446968 
L 253.81349 186.063874 
M 256.577429 180.126653 
L 257.269926 173.085497 
L 257.962163 168.513983 
L 258.6544 179.311566 
M 260.040695 152.237121 
L 260.732932 173.07789 
L 261.425169 152.045528 
L 262.80931 171.854954 
M 313.343492 257.7287 
L 314.035729 262.019447 
M 315.42021 209.927486 
L 316.112447 164.101328 
M 317.496096 131.278587 
L 318.188333 98.963067 
L 318.880571 107.636697 
M 324.419095 242.898129 
L 325.112821 227.652309 
L 326.497302 175.507292 
M 329.269218 119.071617 
L 329.961455 141.789118 
L 330.653469 183.691781 
L 331.346218 206.824221 
L 332.730181 242.510153 
L 333.422638 231.996444 
L 334.114875 249.046404 
M 340.343899 222.579122 
L 341.036136 240.827442 
L 341.726718 244.402056 
M 346.569651 88.590741 
L 347.262064 108.951863 
M 367.338052 96.860303 
L 368.030296 118.72992 
L 368.722533 154.078961 
L 369.41477 216.648674 
L 370.107983 249.354531 
M 373.570157 223.861563 
L 374.262395 180.57186 
L 374.95463 126.01665 
L 375.647823 106.950663 
M 383.952811 154.936454 
L 384.644637 111.955636 
M 386.721348 104.151962 
L 387.412183 125.263169 
L 388.104412 152.768506 
L 388.796657 195.092125 
L 389.488894 200.948074 
L 390.179932 190.948905 
L 390.872169 172.566579 
L 391.564426 175.159725 
M 393.640972 188.743385 
" style="fill:none;stroke:#ff0000;stroke-linecap:square;"/>
   </g>
   <g id="line2d_98">
    <path clip-path="url(#p0d1a3e2745)" d="M 73.832727 180.992616 
L 74.524971 180.433483 
L 75.217208 186.034508 
L 75.90628 178.20777 
L 76.598517 179.919425 
L 77.290754 180.231012 
L 77.982991 175.610788 
L 79.367337 187.596806 
L 80.059581 184.517578 
L 80.751818 174.258187 
L 81.446481 176.487363 
L 82.138725 179.270384 
L 82.830962 173.509958 
L 83.523199 176.401406 
L 84.216653 175.039268 
L 84.908883 176.530533 
L 85.601147 176.742097 
L 86.293364 174.671784 
L 86.985656 178.196267 
L 87.675135 180.646387 
L 88.367373 175.987434 
L 89.05961 169.816435 
L 89.751847 178.585618 
L 90.441987 182.477121 
L 91.13423 176.982082 
L 91.826467 169.195317 
L 92.518705 174.091495 
L 93.209773 172.599127 
L 93.902011 172.100646 
L 94.594254 187.906262 
L 95.286491 195.058664 
L 95.979336 188.774742 
L 96.671581 188.087935 
L 97.363819 188.640758 
L 98.056056 185.979004 
L 98.749362 171.778434 
L 99.44205 166.071586 
L 100.826074 147.623781 
M 104.284797 178.733931 
L 104.977035 174.272062 
L 105.669272 173.6423 
M 108.439825 182.453778 
L 109.132062 177.51932 
L 109.824962 166.377112 
L 110.517208 162.018265 
M 113.285912 171.512483 
L 114.670387 179.004653 
L 115.361972 186.771339 
L 116.054209 182.782802 
L 116.746446 176.590617 
L 117.438683 172.834204 
M 118.823151 173.97512 
L 119.515395 160.916282 
L 120.207625 154.514781 
L 120.899869 154.40442 
L 121.594579 162.218657 
L 122.286816 182.408057 
L 122.97906 193.139697 
L 123.67129 196.225012 
L 124.363909 207.802851 
M 127.129632 181.715444 
L 127.82187 173.79613 
L 128.514107 174.989453 
L 129.206344 166.001431 
L 129.89967 162.491777 
L 130.591908 160.604693 
L 131.284145 152.339565 
L 131.976389 166.75776 
L 132.670814 178.474671 
L 133.363058 183.698309 
L 134.055295 191.888936 
L 134.747532 195.412869 
L 135.437802 192.226938 
L 136.130039 187.78321 
L 136.822277 190.210351 
M 138.204709 178.474344 
L 138.896947 179.597781 
L 139.589184 187.845145 
L 140.281421 186.052565 
L 140.976101 171.335985 
L 141.668336 166.581542 
L 142.360573 163.554904 
L 143.05281 156.984162 
M 152.05041 177.65212 
L 152.743731 167.349311 
L 153.435969 158.791072 
M 154.820443 164.815707 
L 155.510224 169.330124 
M 159.663852 169.544757 
L 160.356055 174.153562 
L 161.051271 176.892179 
L 161.743508 173.820483 
L 162.435745 168.606246 
L 163.127989 184.049456 
M 167.970626 191.68079 
L 168.662863 183.568838 
L 169.356457 178.862092 
M 170.740931 196.371488 
L 171.433168 180.982814 
L 172.125831 178.179504 
M 173.510286 160.204335 
L 174.202529 159.97367 
L 174.892987 168.952113 
L 175.585225 169.343377 
L 176.277462 173.78592 
L 176.969699 164.158455 
L 177.662487 164.371692 
L 178.354724 173.281097 
L 179.046962 168.706583 
L 179.739205 177.235542 
M 181.126297 163.08699 
L 181.818534 164.425298 
L 182.510778 176.27707 
L 183.200632 175.665928 
L 183.892876 190.386848 
L 184.585113 191.597625 
M 185.969588 195.836674 
L 186.661455 190.341063 
L 187.353692 189.364448 
M 191.509762 157.037605 
L 192.199235 172.076392 
L 192.891481 177.042389 
L 193.583718 178.968652 
L 194.275953 178.60004 
L 194.967935 163.848747 
L 195.660172 164.641486 
L 196.352409 170.491625 
L 197.044646 163.950174 
L 197.738917 160.671507 
M 199.123391 157.334466 
L 199.815628 178.016908 
L 200.508823 192.807849 
L 201.20106 195.882289 
L 201.893304 195.850049 
M 204.660013 193.334146 
L 205.35225 173.274612 
L 206.044672 168.70643 
L 206.736909 176.136453 
L 207.429146 169.900233 
L 208.121383 168.857086 
L 208.815873 171.311969 
L 209.50811 170.694734 
L 210.892585 191.191559 
L 211.583861 198.475529 
L 212.276099 194.610345 
L 212.968342 187.29665 
L 213.66058 183.381523 
L 214.351919 186.106497 
L 215.044156 181.003403 
L 215.736393 192.875503 
L 216.428631 197.728334 
L 220.58497 146.416498 
L 222.661681 163.755496 
L 223.354881 165.450379 
L 224.047124 167.822953 
L 224.739362 171.155921 
L 225.431599 179.798893 
L 226.123329 174.770437 
L 226.815566 177.163879 
L 227.507804 180.792122 
L 228.200041 187.969546 
L 228.892598 188.693278 
L 229.584835 184.757858 
L 230.96931 171.545577 
L 231.661953 166.406591 
L 232.35419 167.224073 
L 233.046427 171.905733 
L 234.434318 178.926482 
L 235.126562 168.793717 
L 235.818799 163.107505 
L 236.511036 162.511461 
L 237.205725 168.549341 
L 237.897963 177.218551 
L 238.5902 177.872277 
L 239.282437 173.063686 
L 239.966295 183.923638 
M 241.350776 182.905776 
L 242.043013 178.937477 
L 242.735331 180.155609 
L 243.427569 171.858726 
L 244.812043 163.178528 
L 245.504977 162.615313 
L 246.197214 172.034567 
L 246.889449 174.898797 
L 247.581686 178.408975 
L 248.274878 175.700358 
L 248.967115 182.319335 
L 249.659352 186.08186 
L 250.351589 191.86593 
L 251.043826 194.374397 
M 253.121246 186.409773 
L 253.81349 184.309296 
M 256.577429 184.249851 
L 257.269926 174.045673 
L 257.962163 171.244208 
L 258.6544 161.62853 
M 260.040695 170.261103 
L 260.732932 175.162657 
L 261.425169 170.14961 
L 262.117406 172.428569 
L 262.80931 170.636287 
M 313.343492 256.311598 
L 314.035729 266.079245 
M 315.42021 215.179915 
L 316.112447 178.429051 
M 317.496096 118.849805 
L 318.188333 103.021582 
L 318.880571 107.632053 
M 324.419095 234.591932 
L 325.112821 224.247023 
L 326.497302 179.276275 
M 329.269218 114.93534 
L 329.961455 136.996868 
L 330.653469 174.687591 
L 332.037944 225.909882 
L 332.730181 235.087407 
L 333.422638 231.602933 
L 334.114875 246.483645 
M 340.343899 212.53981 
L 341.036136 241.586813 
L 341.726718 242.388124 
M 346.569651 93.12753 
L 347.262064 104.148016 
M 367.338052 95.612961 
L 368.030296 116.407629 
L 368.722533 147.835921 
L 369.41477 200.858949 
L 370.107983 244.352243 
M 373.570157 228.307963 
L 374.262395 185.048613 
L 374.95463 127.954946 
L 375.647823 103.218176 
M 383.952811 161.520455 
L 384.644637 124.044372 
M 386.721348 102.187262 
L 387.412183 121.228167 
L 388.104412 147.683919 
L 388.796657 190.89787 
L 389.488894 201.97925 
L 390.179932 193.482817 
L 390.872169 175.67285 
L 391.564426 174.576254 
M 393.640972 185.617883 
" style="fill:none;stroke:#0000ff;stroke-linecap:square;"/>
   </g>
   <g id="line2d_99">
    <path clip-path="url(#p0d1a3e2745)" d="M 101.516997 147.552109 
L 102.209241 158.758196 
L 102.901478 164.323772 
L 103.593715 171.317496 
M 106.361509 190.100212 
L 107.05535 193.796855 
L 107.747587 194.045907 
M 111.209437 152.053481 
L 111.901674 145.812856 
L 112.593675 153.739165 
M 146.511257 189.994835 
L 147.203494 192.708244 
L 147.895731 186.551119 
L 148.588378 184.69282 
L 149.281455 181.552807 
L 149.973692 186.705397 
L 150.665929 189.5371 
L 151.358166 184.241888 
M 156.20247 171.642358 
L 156.894699 177.192703 
L 157.586944 177.086386 
L 158.279343 174.787995 
L 158.97158 173.918832 
M 163.818557 187.459125 
L 164.510795 186.312884 
L 165.203032 188.770698 
M 166.586145 178.880584 
L 167.278382 187.866776 
M 188.045929 191.828971 
L 188.738167 198.309022 
M 202.585541 193.011588 
L 203.275538 195.366041 
L 203.967776 195.622366 
M 251.736771 199.011674 
L 252.429009 192.423615 
M 254.500718 177.790423 
L 255.192947 174.372913 
L 255.885192 182.683126 
M 264.886021 176.593788 
L 265.576308 163.618947 
L 266.268553 165.007736 
L 266.960791 145.645416 
L 267.653028 143.311127 
L 268.344813 155.651872 
M 269.729287 238.254356 
L 270.421524 262.800391 
L 271.116285 265.922311 
L 271.808522 271.379339 
L 272.500759 259.026784 
L 273.192996 256.95548 
L 273.886626 243.063047 
L 274.578864 206.510994 
L 275.963338 77.346087 
L 276.655785 53.568 
L 277.348022 60.598081 
L 278.040266 74.772965 
L 278.732503 101.47516 
L 279.422083 112.154465 
L 280.11432 137.883577 
M 281.498794 262.245846 
L 282.192431 284.015116 
L 282.885262 288.600519 
L 284.269143 265.514884 
L 284.961386 253.938583 
L 285.652297 208.549837 
M 287.036771 93.724349 
L 287.729008 75.835236 
L 288.421904 63.470622 
L 289.114148 58.425027 
L 289.806385 70.417755 
L 290.498622 85.214535 
L 291.190092 132.140226 
L 291.882329 206.116488 
L 292.574566 267.143523 
L 293.266803 293.212126 
L 293.961207 290.019502 
L 294.653451 290.428419 
L 295.345682 285.205735 
L 296.037925 267.591505 
L 296.728311 208.07919 
M 299.500625 85.628859 
L 300.192862 106.645212 
L 300.885099 110.833072 
L 301.577343 132.667825 
M 304.344095 254.183338 
L 305.037283 258.972999 
L 306.421757 208.285283 
L 307.114493 171.617629 
M 308.496983 92.871874 
L 309.18922 80.210177 
L 309.881458 86.585056 
L 311.268039 177.134781 
L 311.960277 216.097609 
L 312.65252 241.606459 
M 319.576584 115.721485 
L 320.961058 175.267616 
M 322.342377 215.917903 
L 323.034614 226.857973 
L 323.726858 235.973253 
M 334.807119 227.329766 
L 335.499356 200.222252 
M 336.882856 99.824949 
L 337.575094 81.569552 
L 338.267337 94.405182 
M 342.418955 231.674109 
L 343.111192 218.6328 
L 343.803429 194.449436 
L 345.18517 127.904351 
L 345.877414 105.926487 
M 347.953989 135.372944 
L 348.646226 180.638499 
L 349.338463 233.591061 
L 350.0307 255.266703 
L 350.722267 257.514687 
L 351.414505 254.34614 
L 352.106742 233.598438 
L 353.491776 178.423045 
L 354.184019 139.481951 
L 354.87625 84.38511 
L 355.569124 67.326638 
L 356.26317 76.297028 
L 356.955416 83.556938 
L 357.647653 97.863923 
M 360.414189 287.65688 
L 361.106426 295.488 
L 362.491511 264.862771 
L 363.183748 239.112906 
L 363.875985 176.417124 
M 365.260626 89.061367 
L 365.952863 82.978777 
L 366.6451 89.000047 
M 370.80022 269.056956 
L 371.492457 274.604757 
L 372.877912 251.719179 
M 376.34006 97.068402 
L 377.032291 99.269345 
M 380.492239 276.455613 
L 381.184476 276.446407 
L 381.876099 264.397917 
M 385.336874 105.742855 
L 386.029111 93.692578 
M 392.256643 179.111897 
L 392.948735 182.699454 
M 394.333209 180.007669 
L 395.025447 178.590908 
L 395.717867 179.735508 
L 396.410104 174.901902 
L 397.102341 172.992516 
L 397.794578 173.69102 
L 398.487273 176.357824 
L 398.487273 176.357824 
" style="fill:none;stroke:#008000;stroke-linecap:square;"/>
   </g>
   <g id="patch_3">
    <path d="M 57.6 307.584 
L 57.6 41.472 
" style="fill:none;stroke:#000000;stroke-linecap:square;stroke-linejoin:miter;stroke-width:0.8;"/>
   </g>
   <g id="patch_4">
    <path d="M 414.72 307.584 
L 414.72 41.472 
" style="fill:none;stroke:#000000;stroke-linecap:square;stroke-linejoin:miter;stroke-width:0.8;"/>
   </g>
   <g id="patch_5">
    <path d="M 57.6 307.584 
L 414.72 307.584 
" style="fill:none;stroke:#000000;stroke-linecap:square;stroke-linejoin:miter;stroke-width:0.8;"/>
   </g>
   <g id="patch_6">
    <path d="M 57.6 41.472 
L 414.72 41.472 
" style="fill:none;stroke:#000000;stroke-linecap:square;stroke-linejoin:miter;stroke-width:0.8;"/>
   </g>
   <g id="text_13">
    <!-- Rel Gt Rot Z Plot -->
    <defs>
     <path d="M 44.390625 34.1875 
Q 47.5625 33.109375 50.5625 29.59375 
Q 53.5625 26.078125 56.59375 19.921875 
L 66.609375 0 
L 56 0 
L 46.6875 18.703125 
Q 43.0625 26.03125 39.671875 28.421875 
Q 36.28125 30.8125 30.421875 30.8125 
L 19.671875 30.8125 
L 19.671875 0 
L 9.8125 0 
L 9.8125 72.90625 
L 32.078125 72.90625 
Q 44.578125 72.90625 50.734375 67.671875 
Q 56.890625 62.453125 56.890625 51.90625 
Q 56.890625 45.015625 53.6875 40.46875 
Q 50.484375 35.9375 44.390625 34.1875 
z
M 19.671875 64.796875 
L 19.671875 38.921875 
L 32.078125 38.921875 
Q 39.203125 38.921875 42.84375 42.21875 
Q 46.484375 45.515625 46.484375 51.90625 
Q 46.484375 58.296875 42.84375 61.546875 
Q 39.203125 64.796875 32.078125 64.796875 
z
" id="DejaVuSans-52"/>
     <path d="M 9.421875 75.984375 
L 18.40625 75.984375 
L 18.40625 0 
L 9.421875 0 
z
" id="DejaVuSans-6c"/>
     <path d="M 59.515625 10.40625 
L 59.515625 29.984375 
L 43.40625 29.984375 
L 43.40625 38.09375 
L 69.28125 38.09375 
L 69.28125 6.78125 
Q 63.578125 2.734375 56.6875 0.65625 
Q 49.8125 -1.421875 42 -1.421875 
Q 24.90625 -1.421875 15.25 8.5625 
Q 5.609375 18.5625 5.609375 36.375 
Q 5.609375 54.25 15.25 64.234375 
Q 24.90625 74.21875 42 74.21875 
Q 49.125 74.21875 55.546875 72.453125 
Q 61.96875 70.703125 67.390625 67.28125 
L 67.390625 56.78125 
Q 61.921875 61.421875 55.765625 63.765625 
Q 49.609375 66.109375 42.828125 66.109375 
Q 29.4375 66.109375 22.71875 58.640625 
Q 16.015625 51.171875 16.015625 36.375 
Q 16.015625 21.625 22.71875 14.15625 
Q 29.4375 6.6875 42.828125 6.6875 
Q 48.046875 6.6875 52.140625 7.59375 
Q 56.25 8.5 59.515625 10.40625 
z
" id="DejaVuSans-47"/>
     <path d="M 5.609375 72.90625 
L 62.890625 72.90625 
L 62.890625 65.375 
L 16.796875 8.296875 
L 64.015625 8.296875 
L 64.015625 0 
L 4.5 0 
L 4.5 7.515625 
L 50.59375 64.59375 
L 5.609375 64.59375 
z
" id="DejaVuSans-5a"/>
     <path d="M 19.671875 64.796875 
L 19.671875 37.40625 
L 32.078125 37.40625 
Q 38.96875 37.40625 42.71875 40.96875 
Q 46.484375 44.53125 46.484375 51.125 
Q 46.484375 57.671875 42.71875 61.234375 
Q 38.96875 64.796875 32.078125 64.796875 
z
M 9.8125 72.90625 
L 32.078125 72.90625 
Q 44.34375 72.90625 50.609375 67.359375 
Q 56.890625 61.8125 56.890625 51.125 
Q 56.890625 40.328125 50.609375 34.8125 
Q 44.34375 29.296875 32.078125 29.296875 
L 19.671875 29.296875 
L 19.671875 0 
L 9.8125 0 
z
" id="DejaVuSans-50"/>
    </defs>
    <g transform="translate(186.400312 35.472)scale(0.12 -0.12)">
     <use xlink:href="#DejaVuSans-52"/>
     <use x="69.419922" xlink:href="#DejaVuSans-65"/>
     <use x="130.943359" xlink:href="#DejaVuSans-6c"/>
     <use x="158.726562" xlink:href="#DejaVuSans-20"/>
     <use x="190.513672" xlink:href="#DejaVuSans-47"/>
     <use x="268.003906" xlink:href="#DejaVuSans-74"/>
     <use x="307.212891" xlink:href="#DejaVuSans-20"/>
     <use x="339" xlink:href="#DejaVuSans-52"/>
     <use x="408.419922" xlink:href="#DejaVuSans-6f"/>
     <use x="469.601562" xlink:href="#DejaVuSans-74"/>
     <use x="508.810547" xlink:href="#DejaVuSans-20"/>
     <use x="540.597656" xlink:href="#DejaVuSans-5a"/>
     <use x="609.103516" xlink:href="#DejaVuSans-20"/>
     <use x="640.890625" xlink:href="#DejaVuSans-50"/>
     <use x="701.193359" xlink:href="#DejaVuSans-6c"/>
     <use x="728.976562" xlink:href="#DejaVuSans-6f"/>
     <use x="790.158203" xlink:href="#DejaVuSans-74"/>
    </g>
   </g>
  </g>
 </g>
 <defs>
  <clipPath id="p0d1a3e2745">
   <rect height="266.112" width="357.12" x="57.6" y="41.472"/>
  </clipPath>
 </defs>
</svg>
