<?xml version="1.0" encoding="utf-8" standalone="no"?>
<!DOCTYPE svg PUBLIC "-//W3C//DTD SVG 1.1//EN"
  "http://www.w3.org/Graphics/SVG/1.1/DTD/svg11.dtd">
<!-- Created with matplotlib (http://matplotlib.org/) -->
<svg height="345.6pt" version="1.1" viewBox="0 0 460.8 345.6" width="460.8pt" xmlns="http://www.w3.org/2000/svg" xmlns:xlink="http://www.w3.org/1999/xlink">
 <defs>
  <style type="text/css">
*{stroke-linecap:butt;stroke-linejoin:round;}
  </style>
 </defs>
 <g id="figure_1">
  <g id="patch_1">
   <path d="M 0 345.6 
L 460.8 345.6 
L 460.8 0 
L 0 0 
z
" style="fill:#ffffff;"/>
  </g>
  <g id="axes_1">
   <g id="patch_2">
    <path d="M 57.6 307.584 
L 414.72 307.584 
L 414.72 41.472 
L 57.6 41.472 
z
" style="fill:#ffffff;"/>
   </g>
   <g id="matplotlib.axis_1">
    <g id="xtick_1">
     <g id="line2d_1">
      <path clip-path="url(#p668e446590)" d="M 70.555248 307.584 
L 70.555248 41.472 
" style="fill:none;stroke:#b0b0b0;stroke-linecap:square;stroke-width:0.8;"/>
     </g>
     <g id="line2d_2">
      <defs>
       <path d="M 0 0 
L 0 3.5 
" id="m59a1f477d7" style="stroke:#000000;stroke-width:0.8;"/>
      </defs>
      <g>
       <use style="stroke:#000000;stroke-width:0.8;" x="70.555248" xlink:href="#m59a1f477d7" y="307.584"/>
      </g>
     </g>
     <g id="text_1">
      <!-- 0 -->
      <defs>
       <path d="M 31.78125 66.40625 
Q 24.171875 66.40625 20.328125 58.90625 
Q 16.5 51.421875 16.5 36.375 
Q 16.5 21.390625 20.328125 13.890625 
Q 24.171875 6.390625 31.78125 6.390625 
Q 39.453125 6.390625 43.28125 13.890625 
Q 47.125 21.390625 47.125 36.375 
Q 47.125 51.421875 43.28125 58.90625 
Q 39.453125 66.40625 31.78125 66.40625 
z
M 31.78125 74.21875 
Q 44.046875 74.21875 50.515625 64.515625 
Q 56.984375 54.828125 56.984375 36.375 
Q 56.984375 17.96875 50.515625 8.265625 
Q 44.046875 -1.421875 31.78125 -1.421875 
Q 19.53125 -1.421875 13.0625 8.265625 
Q 6.59375 17.96875 6.59375 36.375 
Q 6.59375 54.828125 13.0625 64.515625 
Q 19.53125 74.21875 31.78125 74.21875 
z
" id="DejaVuSans-30"/>
      </defs>
      <g transform="translate(67.373998 322.182437)scale(0.1 -0.1)">
       <use xlink:href="#DejaVuSans-30"/>
      </g>
     </g>
    </g>
    <g id="xtick_2">
     <g id="line2d_3">
      <path clip-path="url(#p668e446590)" d="M 139.776886 307.584 
L 139.776886 41.472 
" style="fill:none;stroke:#b0b0b0;stroke-linecap:square;stroke-width:0.8;"/>
     </g>
     <g id="line2d_4">
      <g>
       <use style="stroke:#000000;stroke-width:0.8;" x="139.776886" xlink:href="#m59a1f477d7" y="307.584"/>
      </g>
     </g>
     <g id="text_2">
      <!-- 10 -->
      <defs>
       <path d="M 12.40625 8.296875 
L 28.515625 8.296875 
L 28.515625 63.921875 
L 10.984375 60.40625 
L 10.984375 69.390625 
L 28.421875 72.90625 
L 38.28125 72.90625 
L 38.28125 8.296875 
L 54.390625 8.296875 
L 54.390625 0 
L 12.40625 0 
z
" id="DejaVuSans-31"/>
      </defs>
      <g transform="translate(133.414386 322.182437)scale(0.1 -0.1)">
       <use xlink:href="#DejaVuSans-31"/>
       <use x="63.623047" xlink:href="#DejaVuSans-30"/>
      </g>
     </g>
    </g>
    <g id="xtick_3">
     <g id="line2d_5">
      <path clip-path="url(#p668e446590)" d="M 208.998523 307.584 
L 208.998523 41.472 
" style="fill:none;stroke:#b0b0b0;stroke-linecap:square;stroke-width:0.8;"/>
     </g>
     <g id="line2d_6">
      <g>
       <use style="stroke:#000000;stroke-width:0.8;" x="208.998523" xlink:href="#m59a1f477d7" y="307.584"/>
      </g>
     </g>
     <g id="text_3">
      <!-- 20 -->
      <defs>
       <path d="M 19.1875 8.296875 
L 53.609375 8.296875 
L 53.609375 0 
L 7.328125 0 
L 7.328125 8.296875 
Q 12.9375 14.109375 22.625 23.890625 
Q 32.328125 33.6875 34.8125 36.53125 
Q 39.546875 41.84375 41.421875 45.53125 
Q 43.3125 49.21875 43.3125 52.78125 
Q 43.3125 58.59375 39.234375 62.25 
Q 35.15625 65.921875 28.609375 65.921875 
Q 23.96875 65.921875 18.8125 64.3125 
Q 13.671875 62.703125 7.8125 59.421875 
L 7.8125 69.390625 
Q 13.765625 71.78125 18.9375 73 
Q 24.125 74.21875 28.421875 74.21875 
Q 39.75 74.21875 46.484375 68.546875 
Q 53.21875 62.890625 53.21875 53.421875 
Q 53.21875 48.921875 51.53125 44.890625 
Q 49.859375 40.875 45.40625 35.40625 
Q 44.1875 33.984375 37.640625 27.21875 
Q 31.109375 20.453125 19.1875 8.296875 
z
" id="DejaVuSans-32"/>
      </defs>
      <g transform="translate(202.636023 322.182437)scale(0.1 -0.1)">
       <use xlink:href="#DejaVuSans-32"/>
       <use x="63.623047" xlink:href="#DejaVuSans-30"/>
      </g>
     </g>
    </g>
    <g id="xtick_4">
     <g id="line2d_7">
      <path clip-path="url(#p668e446590)" d="M 278.220161 307.584 
L 278.220161 41.472 
" style="fill:none;stroke:#b0b0b0;stroke-linecap:square;stroke-width:0.8;"/>
     </g>
     <g id="line2d_8">
      <g>
       <use style="stroke:#000000;stroke-width:0.8;" x="278.220161" xlink:href="#m59a1f477d7" y="307.584"/>
      </g>
     </g>
     <g id="text_4">
      <!-- 30 -->
      <defs>
       <path d="M 40.578125 39.3125 
Q 47.65625 37.796875 51.625 33 
Q 55.609375 28.21875 55.609375 21.1875 
Q 55.609375 10.40625 48.1875 4.484375 
Q 40.765625 -1.421875 27.09375 -1.421875 
Q 22.515625 -1.421875 17.65625 -0.515625 
Q 12.796875 0.390625 7.625 2.203125 
L 7.625 11.71875 
Q 11.71875 9.328125 16.59375 8.109375 
Q 21.484375 6.890625 26.8125 6.890625 
Q 36.078125 6.890625 40.9375 10.546875 
Q 45.796875 14.203125 45.796875 21.1875 
Q 45.796875 27.640625 41.28125 31.265625 
Q 36.765625 34.90625 28.71875 34.90625 
L 20.21875 34.90625 
L 20.21875 43.015625 
L 29.109375 43.015625 
Q 36.375 43.015625 40.234375 45.921875 
Q 44.09375 48.828125 44.09375 54.296875 
Q 44.09375 59.90625 40.109375 62.90625 
Q 36.140625 65.921875 28.71875 65.921875 
Q 24.65625 65.921875 20.015625 65.03125 
Q 15.375 64.15625 9.8125 62.3125 
L 9.8125 71.09375 
Q 15.4375 72.65625 20.34375 73.4375 
Q 25.25 74.21875 29.59375 74.21875 
Q 40.828125 74.21875 47.359375 69.109375 
Q 53.90625 64.015625 53.90625 55.328125 
Q 53.90625 49.265625 50.4375 45.09375 
Q 46.96875 40.921875 40.578125 39.3125 
z
" id="DejaVuSans-33"/>
      </defs>
      <g transform="translate(271.857661 322.182437)scale(0.1 -0.1)">
       <use xlink:href="#DejaVuSans-33"/>
       <use x="63.623047" xlink:href="#DejaVuSans-30"/>
      </g>
     </g>
    </g>
    <g id="xtick_5">
     <g id="line2d_9">
      <path clip-path="url(#p668e446590)" d="M 347.441799 307.584 
L 347.441799 41.472 
" style="fill:none;stroke:#b0b0b0;stroke-linecap:square;stroke-width:0.8;"/>
     </g>
     <g id="line2d_10">
      <g>
       <use style="stroke:#000000;stroke-width:0.8;" x="347.441799" xlink:href="#m59a1f477d7" y="307.584"/>
      </g>
     </g>
     <g id="text_5">
      <!-- 40 -->
      <defs>
       <path d="M 37.796875 64.3125 
L 12.890625 25.390625 
L 37.796875 25.390625 
z
M 35.203125 72.90625 
L 47.609375 72.90625 
L 47.609375 25.390625 
L 58.015625 25.390625 
L 58.015625 17.1875 
L 47.609375 17.1875 
L 47.609375 0 
L 37.796875 0 
L 37.796875 17.1875 
L 4.890625 17.1875 
L 4.890625 26.703125 
z
" id="DejaVuSans-34"/>
      </defs>
      <g transform="translate(341.079299 322.182437)scale(0.1 -0.1)">
       <use xlink:href="#DejaVuSans-34"/>
       <use x="63.623047" xlink:href="#DejaVuSans-30"/>
      </g>
     </g>
    </g>
    <g id="xtick_6">
     <g id="line2d_11">
      <path clip-path="url(#p668e446590)" d="M 84.399575 307.584 
L 84.399575 41.472 
" style="fill:none;stroke:#b0b0b0;stroke-linecap:square;stroke-width:0.8;"/>
     </g>
     <g id="line2d_12">
      <defs>
       <path d="M 0 0 
L 0 2 
" id="md29d6deb62" style="stroke:#000000;stroke-width:0.6;"/>
      </defs>
      <g>
       <use style="stroke:#000000;stroke-width:0.6;" x="84.399575" xlink:href="#md29d6deb62" y="307.584"/>
      </g>
     </g>
    </g>
    <g id="xtick_7">
     <g id="line2d_13">
      <path clip-path="url(#p668e446590)" d="M 98.243903 307.584 
L 98.243903 41.472 
" style="fill:none;stroke:#b0b0b0;stroke-linecap:square;stroke-width:0.8;"/>
     </g>
     <g id="line2d_14">
      <g>
       <use style="stroke:#000000;stroke-width:0.6;" x="98.243903" xlink:href="#md29d6deb62" y="307.584"/>
      </g>
     </g>
    </g>
    <g id="xtick_8">
     <g id="line2d_15">
      <path clip-path="url(#p668e446590)" d="M 112.08823 307.584 
L 112.08823 41.472 
" style="fill:none;stroke:#b0b0b0;stroke-linecap:square;stroke-width:0.8;"/>
     </g>
     <g id="line2d_16">
      <g>
       <use style="stroke:#000000;stroke-width:0.6;" x="112.08823" xlink:href="#md29d6deb62" y="307.584"/>
      </g>
     </g>
    </g>
    <g id="xtick_9">
     <g id="line2d_17">
      <path clip-path="url(#p668e446590)" d="M 125.932558 307.584 
L 125.932558 41.472 
" style="fill:none;stroke:#b0b0b0;stroke-linecap:square;stroke-width:0.8;"/>
     </g>
     <g id="line2d_18">
      <g>
       <use style="stroke:#000000;stroke-width:0.6;" x="125.932558" xlink:href="#md29d6deb62" y="307.584"/>
      </g>
     </g>
    </g>
    <g id="xtick_10">
     <g id="line2d_19">
      <path clip-path="url(#p668e446590)" d="M 153.621213 307.584 
L 153.621213 41.472 
" style="fill:none;stroke:#b0b0b0;stroke-linecap:square;stroke-width:0.8;"/>
     </g>
     <g id="line2d_20">
      <g>
       <use style="stroke:#000000;stroke-width:0.6;" x="153.621213" xlink:href="#md29d6deb62" y="307.584"/>
      </g>
     </g>
    </g>
    <g id="xtick_11">
     <g id="line2d_21">
      <path clip-path="url(#p668e446590)" d="M 167.465541 307.584 
L 167.465541 41.472 
" style="fill:none;stroke:#b0b0b0;stroke-linecap:square;stroke-width:0.8;"/>
     </g>
     <g id="line2d_22">
      <g>
       <use style="stroke:#000000;stroke-width:0.6;" x="167.465541" xlink:href="#md29d6deb62" y="307.584"/>
      </g>
     </g>
    </g>
    <g id="xtick_12">
     <g id="line2d_23">
      <path clip-path="url(#p668e446590)" d="M 181.309868 307.584 
L 181.309868 41.472 
" style="fill:none;stroke:#b0b0b0;stroke-linecap:square;stroke-width:0.8;"/>
     </g>
     <g id="line2d_24">
      <g>
       <use style="stroke:#000000;stroke-width:0.6;" x="181.309868" xlink:href="#md29d6deb62" y="307.584"/>
      </g>
     </g>
    </g>
    <g id="xtick_13">
     <g id="line2d_25">
      <path clip-path="url(#p668e446590)" d="M 195.154196 307.584 
L 195.154196 41.472 
" style="fill:none;stroke:#b0b0b0;stroke-linecap:square;stroke-width:0.8;"/>
     </g>
     <g id="line2d_26">
      <g>
       <use style="stroke:#000000;stroke-width:0.6;" x="195.154196" xlink:href="#md29d6deb62" y="307.584"/>
      </g>
     </g>
    </g>
    <g id="xtick_14">
     <g id="line2d_27">
      <path clip-path="url(#p668e446590)" d="M 222.842851 307.584 
L 222.842851 41.472 
" style="fill:none;stroke:#b0b0b0;stroke-linecap:square;stroke-width:0.8;"/>
     </g>
     <g id="line2d_28">
      <g>
       <use style="stroke:#000000;stroke-width:0.6;" x="222.842851" xlink:href="#md29d6deb62" y="307.584"/>
      </g>
     </g>
    </g>
    <g id="xtick_15">
     <g id="line2d_29">
      <path clip-path="url(#p668e446590)" d="M 236.687178 307.584 
L 236.687178 41.472 
" style="fill:none;stroke:#b0b0b0;stroke-linecap:square;stroke-width:0.8;"/>
     </g>
     <g id="line2d_30">
      <g>
       <use style="stroke:#000000;stroke-width:0.6;" x="236.687178" xlink:href="#md29d6deb62" y="307.584"/>
      </g>
     </g>
    </g>
    <g id="xtick_16">
     <g id="line2d_31">
      <path clip-path="url(#p668e446590)" d="M 250.531506 307.584 
L 250.531506 41.472 
" style="fill:none;stroke:#b0b0b0;stroke-linecap:square;stroke-width:0.8;"/>
     </g>
     <g id="line2d_32">
      <g>
       <use style="stroke:#000000;stroke-width:0.6;" x="250.531506" xlink:href="#md29d6deb62" y="307.584"/>
      </g>
     </g>
    </g>
    <g id="xtick_17">
     <g id="line2d_33">
      <path clip-path="url(#p668e446590)" d="M 264.375834 307.584 
L 264.375834 41.472 
" style="fill:none;stroke:#b0b0b0;stroke-linecap:square;stroke-width:0.8;"/>
     </g>
     <g id="line2d_34">
      <g>
       <use style="stroke:#000000;stroke-width:0.6;" x="264.375834" xlink:href="#md29d6deb62" y="307.584"/>
      </g>
     </g>
    </g>
    <g id="xtick_18">
     <g id="line2d_35">
      <path clip-path="url(#p668e446590)" d="M 292.064489 307.584 
L 292.064489 41.472 
" style="fill:none;stroke:#b0b0b0;stroke-linecap:square;stroke-width:0.8;"/>
     </g>
     <g id="line2d_36">
      <g>
       <use style="stroke:#000000;stroke-width:0.6;" x="292.064489" xlink:href="#md29d6deb62" y="307.584"/>
      </g>
     </g>
    </g>
    <g id="xtick_19">
     <g id="line2d_37">
      <path clip-path="url(#p668e446590)" d="M 305.908816 307.584 
L 305.908816 41.472 
" style="fill:none;stroke:#b0b0b0;stroke-linecap:square;stroke-width:0.8;"/>
     </g>
     <g id="line2d_38">
      <g>
       <use style="stroke:#000000;stroke-width:0.6;" x="305.908816" xlink:href="#md29d6deb62" y="307.584"/>
      </g>
     </g>
    </g>
    <g id="xtick_20">
     <g id="line2d_39">
      <path clip-path="url(#p668e446590)" d="M 319.753144 307.584 
L 319.753144 41.472 
" style="fill:none;stroke:#b0b0b0;stroke-linecap:square;stroke-width:0.8;"/>
     </g>
     <g id="line2d_40">
      <g>
       <use style="stroke:#000000;stroke-width:0.6;" x="319.753144" xlink:href="#md29d6deb62" y="307.584"/>
      </g>
     </g>
    </g>
    <g id="xtick_21">
     <g id="line2d_41">
      <path clip-path="url(#p668e446590)" d="M 333.597471 307.584 
L 333.597471 41.472 
" style="fill:none;stroke:#b0b0b0;stroke-linecap:square;stroke-width:0.8;"/>
     </g>
     <g id="line2d_42">
      <g>
       <use style="stroke:#000000;stroke-width:0.6;" x="333.597471" xlink:href="#md29d6deb62" y="307.584"/>
      </g>
     </g>
    </g>
    <g id="xtick_22">
     <g id="line2d_43">
      <path clip-path="url(#p668e446590)" d="M 361.286127 307.584 
L 361.286127 41.472 
" style="fill:none;stroke:#b0b0b0;stroke-linecap:square;stroke-width:0.8;"/>
     </g>
     <g id="line2d_44">
      <g>
       <use style="stroke:#000000;stroke-width:0.6;" x="361.286127" xlink:href="#md29d6deb62" y="307.584"/>
      </g>
     </g>
    </g>
    <g id="xtick_23">
     <g id="line2d_45">
      <path clip-path="url(#p668e446590)" d="M 375.130454 307.584 
L 375.130454 41.472 
" style="fill:none;stroke:#b0b0b0;stroke-linecap:square;stroke-width:0.8;"/>
     </g>
     <g id="line2d_46">
      <g>
       <use style="stroke:#000000;stroke-width:0.6;" x="375.130454" xlink:href="#md29d6deb62" y="307.584"/>
      </g>
     </g>
    </g>
    <g id="xtick_24">
     <g id="line2d_47">
      <path clip-path="url(#p668e446590)" d="M 388.974782 307.584 
L 388.974782 41.472 
" style="fill:none;stroke:#b0b0b0;stroke-linecap:square;stroke-width:0.8;"/>
     </g>
     <g id="line2d_48">
      <g>
       <use style="stroke:#000000;stroke-width:0.6;" x="388.974782" xlink:href="#md29d6deb62" y="307.584"/>
      </g>
     </g>
    </g>
    <g id="xtick_25">
     <g id="line2d_49">
      <path clip-path="url(#p668e446590)" d="M 402.819109 307.584 
L 402.819109 41.472 
" style="fill:none;stroke:#b0b0b0;stroke-linecap:square;stroke-width:0.8;"/>
     </g>
     <g id="line2d_50">
      <g>
       <use style="stroke:#000000;stroke-width:0.6;" x="402.819109" xlink:href="#md29d6deb62" y="307.584"/>
      </g>
     </g>
    </g>
    <g id="text_6">
     <!-- frame # [] -->
     <defs>
      <path d="M 37.109375 75.984375 
L 37.109375 68.5 
L 28.515625 68.5 
Q 23.6875 68.5 21.796875 66.546875 
Q 19.921875 64.59375 19.921875 59.515625 
L 19.921875 54.6875 
L 34.71875 54.6875 
L 34.71875 47.703125 
L 19.921875 47.703125 
L 19.921875 0 
L 10.890625 0 
L 10.890625 47.703125 
L 2.296875 47.703125 
L 2.296875 54.6875 
L 10.890625 54.6875 
L 10.890625 58.5 
Q 10.890625 67.625 15.140625 71.796875 
Q 19.390625 75.984375 28.609375 75.984375 
z
" id="DejaVuSans-66"/>
      <path d="M 41.109375 46.296875 
Q 39.59375 47.171875 37.8125 47.578125 
Q 36.03125 48 33.890625 48 
Q 26.265625 48 22.1875 43.046875 
Q 18.109375 38.09375 18.109375 28.8125 
L 18.109375 0 
L 9.078125 0 
L 9.078125 54.6875 
L 18.109375 54.6875 
L 18.109375 46.1875 
Q 20.953125 51.171875 25.484375 53.578125 
Q 30.03125 56 36.53125 56 
Q 37.453125 56 38.578125 55.875 
Q 39.703125 55.765625 41.0625 55.515625 
z
" id="DejaVuSans-72"/>
      <path d="M 34.28125 27.484375 
Q 23.390625 27.484375 19.1875 25 
Q 14.984375 22.515625 14.984375 16.5 
Q 14.984375 11.71875 18.140625 8.90625 
Q 21.296875 6.109375 26.703125 6.109375 
Q 34.1875 6.109375 38.703125 11.40625 
Q 43.21875 16.703125 43.21875 25.484375 
L 43.21875 27.484375 
z
M 52.203125 31.203125 
L 52.203125 0 
L 43.21875 0 
L 43.21875 8.296875 
Q 40.140625 3.328125 35.546875 0.953125 
Q 30.953125 -1.421875 24.3125 -1.421875 
Q 15.921875 -1.421875 10.953125 3.296875 
Q 6 8.015625 6 15.921875 
Q 6 25.140625 12.171875 29.828125 
Q 18.359375 34.515625 30.609375 34.515625 
L 43.21875 34.515625 
L 43.21875 35.40625 
Q 43.21875 41.609375 39.140625 45 
Q 35.0625 48.390625 27.6875 48.390625 
Q 23 48.390625 18.546875 47.265625 
Q 14.109375 46.140625 10.015625 43.890625 
L 10.015625 52.203125 
Q 14.9375 54.109375 19.578125 55.046875 
Q 24.21875 56 28.609375 56 
Q 40.484375 56 46.34375 49.84375 
Q 52.203125 43.703125 52.203125 31.203125 
z
" id="DejaVuSans-61"/>
      <path d="M 52 44.1875 
Q 55.375 50.25 60.0625 53.125 
Q 64.75 56 71.09375 56 
Q 79.640625 56 84.28125 50.015625 
Q 88.921875 44.046875 88.921875 33.015625 
L 88.921875 0 
L 79.890625 0 
L 79.890625 32.71875 
Q 79.890625 40.578125 77.09375 44.375 
Q 74.3125 48.1875 68.609375 48.1875 
Q 61.625 48.1875 57.5625 43.546875 
Q 53.515625 38.921875 53.515625 30.90625 
L 53.515625 0 
L 44.484375 0 
L 44.484375 32.71875 
Q 44.484375 40.625 41.703125 44.40625 
Q 38.921875 48.1875 33.109375 48.1875 
Q 26.21875 48.1875 22.15625 43.53125 
Q 18.109375 38.875 18.109375 30.90625 
L 18.109375 0 
L 9.078125 0 
L 9.078125 54.6875 
L 18.109375 54.6875 
L 18.109375 46.1875 
Q 21.1875 51.21875 25.484375 53.609375 
Q 29.78125 56 35.6875 56 
Q 41.65625 56 45.828125 52.96875 
Q 50 49.953125 52 44.1875 
z
" id="DejaVuSans-6d"/>
      <path d="M 56.203125 29.59375 
L 56.203125 25.203125 
L 14.890625 25.203125 
Q 15.484375 15.921875 20.484375 11.0625 
Q 25.484375 6.203125 34.421875 6.203125 
Q 39.59375 6.203125 44.453125 7.46875 
Q 49.3125 8.734375 54.109375 11.28125 
L 54.109375 2.78125 
Q 49.265625 0.734375 44.1875 -0.34375 
Q 39.109375 -1.421875 33.890625 -1.421875 
Q 20.796875 -1.421875 13.15625 6.1875 
Q 5.515625 13.8125 5.515625 26.8125 
Q 5.515625 40.234375 12.765625 48.109375 
Q 20.015625 56 32.328125 56 
Q 43.359375 56 49.78125 48.890625 
Q 56.203125 41.796875 56.203125 29.59375 
z
M 47.21875 32.234375 
Q 47.125 39.59375 43.09375 43.984375 
Q 39.0625 48.390625 32.421875 48.390625 
Q 24.90625 48.390625 20.390625 44.140625 
Q 15.875 39.890625 15.1875 32.171875 
z
" id="DejaVuSans-65"/>
      <path id="DejaVuSans-20"/>
      <path d="M 51.125 44 
L 36.921875 44 
L 32.8125 27.6875 
L 47.125 27.6875 
z
M 43.796875 71.78125 
L 38.71875 51.515625 
L 52.984375 51.515625 
L 58.109375 71.78125 
L 65.921875 71.78125 
L 60.890625 51.515625 
L 76.125 51.515625 
L 76.125 44 
L 58.984375 44 
L 54.984375 27.6875 
L 70.515625 27.6875 
L 70.515625 20.21875 
L 53.078125 20.21875 
L 48 0 
L 40.1875 0 
L 45.21875 20.21875 
L 30.90625 20.21875 
L 25.875 0 
L 18.015625 0 
L 23.09375 20.21875 
L 7.71875 20.21875 
L 7.71875 27.6875 
L 24.90625 27.6875 
L 29 44 
L 13.28125 44 
L 13.28125 51.515625 
L 30.90625 51.515625 
L 35.890625 71.78125 
z
" id="DejaVuSans-23"/>
      <path d="M 8.59375 75.984375 
L 29.296875 75.984375 
L 29.296875 69 
L 17.578125 69 
L 17.578125 -6.203125 
L 29.296875 -6.203125 
L 29.296875 -13.1875 
L 8.59375 -13.1875 
z
" id="DejaVuSans-5b"/>
      <path d="M 30.421875 75.984375 
L 30.421875 -13.1875 
L 9.71875 -13.1875 
L 9.71875 -6.203125 
L 21.390625 -6.203125 
L 21.390625 69 
L 9.71875 69 
L 9.71875 75.984375 
z
" id="DejaVuSans-5d"/>
     </defs>
     <g transform="translate(210.063906 335.860562)scale(0.1 -0.1)">
      <use xlink:href="#DejaVuSans-66"/>
      <use x="35.205078" xlink:href="#DejaVuSans-72"/>
      <use x="76.318359" xlink:href="#DejaVuSans-61"/>
      <use x="137.597656" xlink:href="#DejaVuSans-6d"/>
      <use x="235.009766" xlink:href="#DejaVuSans-65"/>
      <use x="296.533203" xlink:href="#DejaVuSans-20"/>
      <use x="328.320312" xlink:href="#DejaVuSans-23"/>
      <use x="412.109375" xlink:href="#DejaVuSans-20"/>
      <use x="443.896484" xlink:href="#DejaVuSans-5b"/>
      <use x="482.910156" xlink:href="#DejaVuSans-5d"/>
     </g>
    </g>
   </g>
   <g id="matplotlib.axis_2">
    <g id="ytick_1">
     <g id="line2d_51">
      <path clip-path="url(#p668e446590)" d="M 57.6 295.213633 
L 414.72 295.213633 
" style="fill:none;stroke:#b0b0b0;stroke-linecap:square;stroke-width:0.8;"/>
     </g>
     <g id="line2d_52">
      <defs>
       <path d="M 0 0 
L -3.5 0 
" id="md8b19fd784" style="stroke:#000000;stroke-width:0.8;"/>
      </defs>
      <g>
       <use style="stroke:#000000;stroke-width:0.8;" x="57.6" xlink:href="#md8b19fd784" y="295.213633"/>
      </g>
     </g>
     <g id="text_7">
      <!-- −0.2 -->
      <defs>
       <path d="M 10.59375 35.5 
L 73.1875 35.5 
L 73.1875 27.203125 
L 10.59375 27.203125 
z
" id="DejaVuSans-2212"/>
       <path d="M 10.6875 12.40625 
L 21 12.40625 
L 21 0 
L 10.6875 0 
z
" id="DejaVuSans-2e"/>
      </defs>
      <g transform="translate(26.317187 299.012852)scale(0.1 -0.1)">
       <use xlink:href="#DejaVuSans-2212"/>
       <use x="83.789062" xlink:href="#DejaVuSans-30"/>
       <use x="147.412109" xlink:href="#DejaVuSans-2e"/>
       <use x="179.199219" xlink:href="#DejaVuSans-32"/>
      </g>
     </g>
    </g>
    <g id="ytick_2">
     <g id="line2d_53">
      <path clip-path="url(#p668e446590)" d="M 57.6 242.380303 
L 414.72 242.380303 
" style="fill:none;stroke:#b0b0b0;stroke-linecap:square;stroke-width:0.8;"/>
     </g>
     <g id="line2d_54">
      <g>
       <use style="stroke:#000000;stroke-width:0.8;" x="57.6" xlink:href="#md8b19fd784" y="242.380303"/>
      </g>
     </g>
     <g id="text_8">
      <!-- 0.0 -->
      <g transform="translate(34.696875 246.179521)scale(0.1 -0.1)">
       <use xlink:href="#DejaVuSans-30"/>
       <use x="63.623047" xlink:href="#DejaVuSans-2e"/>
       <use x="95.410156" xlink:href="#DejaVuSans-30"/>
      </g>
     </g>
    </g>
    <g id="ytick_3">
     <g id="line2d_55">
      <path clip-path="url(#p668e446590)" d="M 57.6 189.546972 
L 414.72 189.546972 
" style="fill:none;stroke:#b0b0b0;stroke-linecap:square;stroke-width:0.8;"/>
     </g>
     <g id="line2d_56">
      <g>
       <use style="stroke:#000000;stroke-width:0.8;" x="57.6" xlink:href="#md8b19fd784" y="189.546972"/>
      </g>
     </g>
     <g id="text_9">
      <!-- 0.2 -->
      <g transform="translate(34.696875 193.346191)scale(0.1 -0.1)">
       <use xlink:href="#DejaVuSans-30"/>
       <use x="63.623047" xlink:href="#DejaVuSans-2e"/>
       <use x="95.410156" xlink:href="#DejaVuSans-32"/>
      </g>
     </g>
    </g>
    <g id="ytick_4">
     <g id="line2d_57">
      <path clip-path="url(#p668e446590)" d="M 57.6 136.713641 
L 414.72 136.713641 
" style="fill:none;stroke:#b0b0b0;stroke-linecap:square;stroke-width:0.8;"/>
     </g>
     <g id="line2d_58">
      <g>
       <use style="stroke:#000000;stroke-width:0.8;" x="57.6" xlink:href="#md8b19fd784" y="136.713641"/>
      </g>
     </g>
     <g id="text_10">
      <!-- 0.4 -->
      <g transform="translate(34.696875 140.51286)scale(0.1 -0.1)">
       <use xlink:href="#DejaVuSans-30"/>
       <use x="63.623047" xlink:href="#DejaVuSans-2e"/>
       <use x="95.410156" xlink:href="#DejaVuSans-34"/>
      </g>
     </g>
    </g>
    <g id="ytick_5">
     <g id="line2d_59">
      <path clip-path="url(#p668e446590)" d="M 57.6 83.88031 
L 414.72 83.88031 
" style="fill:none;stroke:#b0b0b0;stroke-linecap:square;stroke-width:0.8;"/>
     </g>
     <g id="line2d_60">
      <g>
       <use style="stroke:#000000;stroke-width:0.8;" x="57.6" xlink:href="#md8b19fd784" y="83.88031"/>
      </g>
     </g>
     <g id="text_11">
      <!-- 0.6 -->
      <defs>
       <path d="M 33.015625 40.375 
Q 26.375 40.375 22.484375 35.828125 
Q 18.609375 31.296875 18.609375 23.390625 
Q 18.609375 15.53125 22.484375 10.953125 
Q 26.375 6.390625 33.015625 6.390625 
Q 39.65625 6.390625 43.53125 10.953125 
Q 47.40625 15.53125 47.40625 23.390625 
Q 47.40625 31.296875 43.53125 35.828125 
Q 39.65625 40.375 33.015625 40.375 
z
M 52.59375 71.296875 
L 52.59375 62.3125 
Q 48.875 64.0625 45.09375 64.984375 
Q 41.3125 65.921875 37.59375 65.921875 
Q 27.828125 65.921875 22.671875 59.328125 
Q 17.53125 52.734375 16.796875 39.40625 
Q 19.671875 43.65625 24.015625 45.921875 
Q 28.375 48.1875 33.59375 48.1875 
Q 44.578125 48.1875 50.953125 41.515625 
Q 57.328125 34.859375 57.328125 23.390625 
Q 57.328125 12.15625 50.6875 5.359375 
Q 44.046875 -1.421875 33.015625 -1.421875 
Q 20.359375 -1.421875 13.671875 8.265625 
Q 6.984375 17.96875 6.984375 36.375 
Q 6.984375 53.65625 15.1875 63.9375 
Q 23.390625 74.21875 37.203125 74.21875 
Q 40.921875 74.21875 44.703125 73.484375 
Q 48.484375 72.75 52.59375 71.296875 
z
" id="DejaVuSans-36"/>
      </defs>
      <g transform="translate(34.696875 87.679529)scale(0.1 -0.1)">
       <use xlink:href="#DejaVuSans-30"/>
       <use x="63.623047" xlink:href="#DejaVuSans-2e"/>
       <use x="95.410156" xlink:href="#DejaVuSans-36"/>
      </g>
     </g>
    </g>
    <g id="ytick_6">
     <g id="line2d_61">
      <path clip-path="url(#p668e446590)" d="M 57.6 282.005301 
L 414.72 282.005301 
" style="fill:none;stroke:#b0b0b0;stroke-linecap:square;stroke-width:0.8;"/>
     </g>
     <g id="line2d_62">
      <defs>
       <path d="M 0 0 
L -2 0 
" id="mafbd36e33b" style="stroke:#000000;stroke-width:0.6;"/>
      </defs>
      <g>
       <use style="stroke:#000000;stroke-width:0.6;" x="57.6" xlink:href="#mafbd36e33b" y="282.005301"/>
      </g>
     </g>
    </g>
    <g id="ytick_7">
     <g id="line2d_63">
      <path clip-path="url(#p668e446590)" d="M 57.6 268.796968 
L 414.72 268.796968 
" style="fill:none;stroke:#b0b0b0;stroke-linecap:square;stroke-width:0.8;"/>
     </g>
     <g id="line2d_64">
      <g>
       <use style="stroke:#000000;stroke-width:0.6;" x="57.6" xlink:href="#mafbd36e33b" y="268.796968"/>
      </g>
     </g>
    </g>
    <g id="ytick_8">
     <g id="line2d_65">
      <path clip-path="url(#p668e446590)" d="M 57.6 255.588635 
L 414.72 255.588635 
" style="fill:none;stroke:#b0b0b0;stroke-linecap:square;stroke-width:0.8;"/>
     </g>
     <g id="line2d_66">
      <g>
       <use style="stroke:#000000;stroke-width:0.6;" x="57.6" xlink:href="#mafbd36e33b" y="255.588635"/>
      </g>
     </g>
    </g>
    <g id="ytick_9">
     <g id="line2d_67">
      <path clip-path="url(#p668e446590)" d="M 57.6 242.380303 
L 414.72 242.380303 
" style="fill:none;stroke:#b0b0b0;stroke-linecap:square;stroke-width:0.8;"/>
     </g>
     <g id="line2d_68">
      <g>
       <use style="stroke:#000000;stroke-width:0.6;" x="57.6" xlink:href="#mafbd36e33b" y="242.380303"/>
      </g>
     </g>
    </g>
    <g id="ytick_10">
     <g id="line2d_69">
      <path clip-path="url(#p668e446590)" d="M 57.6 229.17197 
L 414.72 229.17197 
" style="fill:none;stroke:#b0b0b0;stroke-linecap:square;stroke-width:0.8;"/>
     </g>
     <g id="line2d_70">
      <g>
       <use style="stroke:#000000;stroke-width:0.6;" x="57.6" xlink:href="#mafbd36e33b" y="229.17197"/>
      </g>
     </g>
    </g>
    <g id="ytick_11">
     <g id="line2d_71">
      <path clip-path="url(#p668e446590)" d="M 57.6 215.963637 
L 414.72 215.963637 
" style="fill:none;stroke:#b0b0b0;stroke-linecap:square;stroke-width:0.8;"/>
     </g>
     <g id="line2d_72">
      <g>
       <use style="stroke:#000000;stroke-width:0.6;" x="57.6" xlink:href="#mafbd36e33b" y="215.963637"/>
      </g>
     </g>
    </g>
    <g id="ytick_12">
     <g id="line2d_73">
      <path clip-path="url(#p668e446590)" d="M 57.6 202.755305 
L 414.72 202.755305 
" style="fill:none;stroke:#b0b0b0;stroke-linecap:square;stroke-width:0.8;"/>
     </g>
     <g id="line2d_74">
      <g>
       <use style="stroke:#000000;stroke-width:0.6;" x="57.6" xlink:href="#mafbd36e33b" y="202.755305"/>
      </g>
     </g>
    </g>
    <g id="ytick_13">
     <g id="line2d_75">
      <path clip-path="url(#p668e446590)" d="M 57.6 189.546972 
L 414.72 189.546972 
" style="fill:none;stroke:#b0b0b0;stroke-linecap:square;stroke-width:0.8;"/>
     </g>
     <g id="line2d_76">
      <g>
       <use style="stroke:#000000;stroke-width:0.6;" x="57.6" xlink:href="#mafbd36e33b" y="189.546972"/>
      </g>
     </g>
    </g>
    <g id="ytick_14">
     <g id="line2d_77">
      <path clip-path="url(#p668e446590)" d="M 57.6 176.338639 
L 414.72 176.338639 
" style="fill:none;stroke:#b0b0b0;stroke-linecap:square;stroke-width:0.8;"/>
     </g>
     <g id="line2d_78">
      <g>
       <use style="stroke:#000000;stroke-width:0.6;" x="57.6" xlink:href="#mafbd36e33b" y="176.338639"/>
      </g>
     </g>
    </g>
    <g id="ytick_15">
     <g id="line2d_79">
      <path clip-path="url(#p668e446590)" d="M 57.6 163.130307 
L 414.72 163.130307 
" style="fill:none;stroke:#b0b0b0;stroke-linecap:square;stroke-width:0.8;"/>
     </g>
     <g id="line2d_80">
      <g>
       <use style="stroke:#000000;stroke-width:0.6;" x="57.6" xlink:href="#mafbd36e33b" y="163.130307"/>
      </g>
     </g>
    </g>
    <g id="ytick_16">
     <g id="line2d_81">
      <path clip-path="url(#p668e446590)" d="M 57.6 149.921974 
L 414.72 149.921974 
" style="fill:none;stroke:#b0b0b0;stroke-linecap:square;stroke-width:0.8;"/>
     </g>
     <g id="line2d_82">
      <g>
       <use style="stroke:#000000;stroke-width:0.6;" x="57.6" xlink:href="#mafbd36e33b" y="149.921974"/>
      </g>
     </g>
    </g>
    <g id="ytick_17">
     <g id="line2d_83">
      <path clip-path="url(#p668e446590)" d="M 57.6 136.713641 
L 414.72 136.713641 
" style="fill:none;stroke:#b0b0b0;stroke-linecap:square;stroke-width:0.8;"/>
     </g>
     <g id="line2d_84">
      <g>
       <use style="stroke:#000000;stroke-width:0.6;" x="57.6" xlink:href="#mafbd36e33b" y="136.713641"/>
      </g>
     </g>
    </g>
    <g id="ytick_18">
     <g id="line2d_85">
      <path clip-path="url(#p668e446590)" d="M 57.6 123.505309 
L 414.72 123.505309 
" style="fill:none;stroke:#b0b0b0;stroke-linecap:square;stroke-width:0.8;"/>
     </g>
     <g id="line2d_86">
      <g>
       <use style="stroke:#000000;stroke-width:0.6;" x="57.6" xlink:href="#mafbd36e33b" y="123.505309"/>
      </g>
     </g>
    </g>
    <g id="ytick_19">
     <g id="line2d_87">
      <path clip-path="url(#p668e446590)" d="M 57.6 110.296976 
L 414.72 110.296976 
" style="fill:none;stroke:#b0b0b0;stroke-linecap:square;stroke-width:0.8;"/>
     </g>
     <g id="line2d_88">
      <g>
       <use style="stroke:#000000;stroke-width:0.6;" x="57.6" xlink:href="#mafbd36e33b" y="110.296976"/>
      </g>
     </g>
    </g>
    <g id="ytick_20">
     <g id="line2d_89">
      <path clip-path="url(#p668e446590)" d="M 57.6 97.088643 
L 414.72 97.088643 
" style="fill:none;stroke:#b0b0b0;stroke-linecap:square;stroke-width:0.8;"/>
     </g>
     <g id="line2d_90">
      <g>
       <use style="stroke:#000000;stroke-width:0.6;" x="57.6" xlink:href="#mafbd36e33b" y="97.088643"/>
      </g>
     </g>
    </g>
    <g id="ytick_21">
     <g id="line2d_91">
      <path clip-path="url(#p668e446590)" d="M 57.6 83.88031 
L 414.72 83.88031 
" style="fill:none;stroke:#b0b0b0;stroke-linecap:square;stroke-width:0.8;"/>
     </g>
     <g id="line2d_92">
      <g>
       <use style="stroke:#000000;stroke-width:0.6;" x="57.6" xlink:href="#mafbd36e33b" y="83.88031"/>
      </g>
     </g>
    </g>
    <g id="ytick_22">
     <g id="line2d_93">
      <path clip-path="url(#p668e446590)" d="M 57.6 70.671978 
L 414.72 70.671978 
" style="fill:none;stroke:#b0b0b0;stroke-linecap:square;stroke-width:0.8;"/>
     </g>
     <g id="line2d_94">
      <g>
       <use style="stroke:#000000;stroke-width:0.6;" x="57.6" xlink:href="#mafbd36e33b" y="70.671978"/>
      </g>
     </g>
    </g>
    <g id="ytick_23">
     <g id="line2d_95">
      <path clip-path="url(#p668e446590)" d="M 57.6 57.463645 
L 414.72 57.463645 
" style="fill:none;stroke:#b0b0b0;stroke-linecap:square;stroke-width:0.8;"/>
     </g>
     <g id="line2d_96">
      <g>
       <use style="stroke:#000000;stroke-width:0.6;" x="57.6" xlink:href="#mafbd36e33b" y="57.463645"/>
      </g>
     </g>
    </g>
    <g id="ytick_24">
     <g id="line2d_97">
      <path clip-path="url(#p668e446590)" d="M 57.6 44.255312 
L 414.72 44.255312 
" style="fill:none;stroke:#b0b0b0;stroke-linecap:square;stroke-width:0.8;"/>
     </g>
     <g id="line2d_98">
      <g>
       <use style="stroke:#000000;stroke-width:0.6;" x="57.6" xlink:href="#mafbd36e33b" y="44.255312"/>
      </g>
     </g>
    </g>
    <g id="text_12">
     <!-- rot x -->
     <defs>
      <path d="M 30.609375 48.390625 
Q 23.390625 48.390625 19.1875 42.75 
Q 14.984375 37.109375 14.984375 27.296875 
Q 14.984375 17.484375 19.15625 11.84375 
Q 23.34375 6.203125 30.609375 6.203125 
Q 37.796875 6.203125 41.984375 11.859375 
Q 46.1875 17.53125 46.1875 27.296875 
Q 46.1875 37.015625 41.984375 42.703125 
Q 37.796875 48.390625 30.609375 48.390625 
z
M 30.609375 56 
Q 42.328125 56 49.015625 48.375 
Q 55.71875 40.765625 55.71875 27.296875 
Q 55.71875 13.875 49.015625 6.21875 
Q 42.328125 -1.421875 30.609375 -1.421875 
Q 18.84375 -1.421875 12.171875 6.21875 
Q 5.515625 13.875 5.515625 27.296875 
Q 5.515625 40.765625 12.171875 48.375 
Q 18.84375 56 30.609375 56 
z
" id="DejaVuSans-6f"/>
      <path d="M 18.3125 70.21875 
L 18.3125 54.6875 
L 36.8125 54.6875 
L 36.8125 47.703125 
L 18.3125 47.703125 
L 18.3125 18.015625 
Q 18.3125 11.328125 20.140625 9.421875 
Q 21.96875 7.515625 27.59375 7.515625 
L 36.8125 7.515625 
L 36.8125 0 
L 27.59375 0 
Q 17.1875 0 13.234375 3.875 
Q 9.28125 7.765625 9.28125 18.015625 
L 9.28125 47.703125 
L 2.6875 47.703125 
L 2.6875 54.6875 
L 9.28125 54.6875 
L 9.28125 70.21875 
z
" id="DejaVuSans-74"/>
      <path d="M 54.890625 54.6875 
L 35.109375 28.078125 
L 55.90625 0 
L 45.3125 0 
L 29.390625 21.484375 
L 13.484375 0 
L 2.875 0 
L 24.125 28.609375 
L 4.6875 54.6875 
L 15.28125 54.6875 
L 29.78125 35.203125 
L 44.28125 54.6875 
z
" id="DejaVuSans-78"/>
     </defs>
     <g transform="translate(20.2375 186.149875)rotate(-90)scale(0.1 -0.1)">
      <use xlink:href="#DejaVuSans-72"/>
      <use x="41.082031" xlink:href="#DejaVuSans-6f"/>
      <use x="102.263672" xlink:href="#DejaVuSans-74"/>
      <use x="141.472656" xlink:href="#DejaVuSans-20"/>
      <use x="173.259766" xlink:href="#DejaVuSans-78"/>
     </g>
    </g>
   </g>
   <g id="line2d_99">
    <path clip-path="url(#p668e446590)" d="M 73.832727 227.165304 
L 74.524971 233.219061 
L 75.217208 256.154467 
L 75.90628 234.484289 
L 76.598517 245.529115 
L 77.290754 244.290212 
L 78.6751 239.13992 
L 79.367337 250.039211 
L 80.059581 230.933955 
L 80.751818 243.448633 
L 81.446481 244.764669 
L 82.138725 244.986134 
L 82.830962 237.406966 
L 83.523199 248.754212 
L 84.216653 238.961385 
L 84.908883 249.615541 
L 85.601147 240.724983 
L 86.293364 235.253217 
L 86.985656 246.015982 
L 87.675135 250.197115 
L 88.367373 245.512111 
L 89.05961 233.286739 
L 89.751847 219.068866 
L 90.441987 232.449503 
L 91.13423 252.967961 
L 91.826467 256.248769 
L 92.518705 258.35363 
L 93.209773 258.080545 
L 93.902011 238.117525 
L 94.594254 248.964827 
L 95.286491 252.799124 
L 95.979336 236.920062 
L 96.671581 235.200638 
L 97.363819 224.978694 
L 98.056056 225.173777 
L 98.749362 217.480653 
L 99.44205 213.033034 
L 100.133837 222.858713 
L 100.826074 280.77477 
M 104.284797 262.707329 
L 104.977035 270.220908 
L 105.669272 261.557508 
M 108.439825 206.989845 
L 109.132062 210.211894 
L 109.824962 204.883746 
L 110.517208 220.53754 
M 113.285912 260.550622 
L 113.978149 263.416884 
L 114.670387 275.294479 
L 115.361972 272.1216 
L 116.054209 264.553334 
L 116.746446 286.814615 
L 117.438683 236.689755 
M 118.823151 239.917953 
L 119.515395 235.153583 
L 120.207625 227.448706 
L 120.899869 214.061074 
L 121.594579 198.253272 
L 122.286816 196.508488 
L 122.97906 218.676303 
L 124.363909 248.187379 
M 127.129632 277.461584 
L 127.82187 272.817244 
L 128.514107 255.255725 
L 129.206344 241.252741 
L 129.89967 234.008859 
L 130.591908 232.280134 
L 131.284145 222.336894 
L 131.976389 222.586345 
L 132.670814 216.127235 
L 133.363058 214.653901 
L 134.055295 223.432066 
L 134.747532 244.220148 
L 135.437802 248.000186 
L 136.130039 253.721982 
L 136.822277 273.823195 
M 138.204709 269.408909 
L 138.896947 270.355278 
L 139.589184 259.538896 
L 140.281421 258.806658 
L 140.976101 238.05526 
L 141.668336 230.753002 
L 142.360573 198.946578 
L 143.05281 180.775628 
M 152.05041 206.072038 
L 152.743731 219.780811 
L 153.435969 214.31134 
M 154.820443 255.005059 
L 155.510224 271.01589 
M 159.663852 236.262039 
L 160.356055 204.114019 
L 161.051271 228.194818 
L 161.743508 212.928277 
L 162.435745 214.707777 
L 163.127989 219.469685 
M 167.970626 267.277672 
L 168.662863 251.836075 
L 169.356457 242.473023 
M 170.740931 213.292405 
L 171.433168 198.222812 
L 172.125831 210.517972 
M 173.510286 237.335816 
L 174.202529 263.854139 
L 174.892987 258.209491 
L 175.585225 273.349987 
L 176.277462 279.692055 
L 176.969699 260.074661 
L 177.662487 266.794471 
L 178.354724 262.27532 
L 179.739205 222.432524 
M 181.126297 194.601211 
L 181.818534 220.777381 
L 182.510778 224.133046 
L 183.200632 224.303941 
L 183.892876 261.423625 
L 184.585113 279.436932 
M 185.969588 280.541503 
L 187.353692 240.718636 
M 191.509762 234.802791 
L 192.199235 256.722181 
L 192.891481 255.404337 
L 193.583718 263.721837 
L 194.275953 287.003791 
L 194.967935 267.85343 
L 195.660172 267.997537 
L 197.044646 236.8589 
L 197.738917 251.233476 
M 199.123391 207.670065 
L 199.815628 191.957404 
L 200.508823 201.400163 
L 201.20106 227.132287 
L 201.893304 241.271476 
M 204.660013 268.6904 
L 205.35225 278.226903 
L 206.044672 269.407503 
L 206.736909 242.296642 
L 207.429146 221.355147 
L 208.121383 211.911867 
L 208.815873 211.851626 
L 209.50811 231.531327 
L 210.200348 219.475583 
L 210.892585 235.076321 
L 211.583861 246.621923 
L 212.276099 262.634216 
L 212.968342 255.333498 
L 213.66058 288.563471 
L 214.351919 258.718479 
L 215.044156 251.026201 
L 215.736393 240.683304 
L 217.120874 213.016576 
L 217.814995 208.596492 
L 218.507232 203.007094 
L 219.199469 220.210211 
L 220.58497 246.549815 
L 221.277214 254.028551 
L 222.661681 282.507649 
L 223.354881 283.62193 
L 224.047124 272.519384 
L 224.739362 264.139671 
L 225.431599 259.719293 
L 226.123329 271.265727 
L 226.815566 244.463699 
L 227.507804 230.92392 
L 228.200041 229.68136 
L 228.892598 205.117104 
L 229.584835 219.819041 
L 230.277072 239.143212 
L 230.96931 216.395034 
L 231.661953 232.208759 
L 233.046427 226.60319 
L 233.738664 240.545809 
L 234.434318 247.968001 
L 235.126562 253.734498 
L 235.818799 248.618955 
L 236.511036 255.869006 
L 237.205725 272.687829 
L 237.897963 295.488 
L 238.5902 277.742978 
L 239.282437 264.418448 
L 239.966295 261.982193 
M 241.350776 262.584625 
L 242.043013 262.365971 
L 242.735331 235.565583 
L 243.427569 224.165086 
L 244.119806 206.514625 
L 244.812043 212.749559 
L 245.504977 223.123618 
L 246.197214 222.734681 
L 246.889449 233.215671 
L 247.581686 224.271971 
L 248.967115 232.062814 
L 249.659352 239.915621 
L 250.351589 234.920786 
L 251.043826 244.12386 
M 253.121246 249.932423 
L 253.81349 271.184145 
M 256.577429 258.566252 
L 257.269926 248.828932 
L 257.962163 240.750809 
L 258.6544 219.848141 
M 260.040695 242.720277 
L 260.732932 242.351331 
L 261.425169 208.171245 
L 262.117406 198.45511 
L 262.80931 197.224359 
M 313.343492 192.173741 
L 314.035729 177.322765 
M 315.42021 211.576303 
L 316.112447 204.059728 
M 317.496096 53.568 
L 318.188333 191.346281 
L 318.880571 206.958596 
M 324.419095 233.946416 
L 325.112821 231.071979 
L 326.497302 246.610319 
M 329.269218 193.194791 
L 329.961455 229.392078 
L 330.653469 240.462189 
L 331.346218 247.9439 
L 332.037944 238.542965 
L 332.730181 218.034173 
L 333.422638 204.599479 
L 334.114875 214.588788 
M 340.343899 213.05493 
L 341.036136 221.465223 
L 341.726718 194.019775 
M 346.569651 211.407644 
L 347.262064 217.228832 
M 367.338052 245.987618 
L 368.030296 236.676057 
L 368.722533 233.009104 
L 369.41477 234.624821 
L 370.107983 232.982491 
M 373.570157 232.294065 
L 374.262395 227.927301 
L 374.95463 230.113953 
L 375.647823 226.196393 
M 383.952811 227.882088 
L 384.644637 235.121228 
M 386.721348 240.492136 
L 387.412183 236.768839 
L 388.104412 232.20431 
L 388.796657 232.817542 
L 389.488894 239.265142 
L 390.872169 257.379002 
L 391.564426 253.590994 
M 393.640972 253.323311 
" style="fill:none;stroke:#ff0000;stroke-linecap:square;"/>
   </g>
   <g id="line2d_100">
    <path clip-path="url(#p668e446590)" d="M 73.832727 233.036645 
L 74.524971 232.987274 
L 75.217208 247.533005 
L 75.90628 238.668765 
L 76.598517 243.068533 
L 77.290754 246.269734 
L 77.982991 240.262581 
L 78.6751 238.205167 
L 79.367337 247.359198 
L 80.059581 231.941626 
L 80.751818 244.814275 
L 81.446481 245.17244 
L 82.138725 236.41699 
L 82.830962 242.772593 
L 83.523199 252.999622 
L 84.216653 236.01706 
L 84.908883 245.521659 
L 85.601147 240.513298 
L 86.293364 236.737106 
L 86.985656 239.703076 
L 87.675135 245.381396 
L 88.367373 240.835762 
L 89.05961 239.658571 
L 89.751847 230.142045 
L 90.441987 229.15989 
L 91.13423 250.036833 
L 91.826467 254.370333 
L 92.518705 262.467642 
L 93.209773 258.805529 
L 93.902011 249.652974 
L 94.594254 247.806714 
L 95.286491 252.922956 
L 95.979336 237.17176 
L 96.671581 229.606643 
L 97.363819 224.316645 
L 98.056056 212.60199 
L 98.749362 209.016269 
L 99.44205 210.598812 
L 100.133837 215.350008 
L 100.826074 238.152682 
M 104.284797 260.567417 
L 104.977035 268.47461 
L 105.669272 263.736452 
M 108.439825 226.627995 
L 109.132062 209.7181 
L 109.824962 205.131349 
L 110.517208 215.878922 
M 113.285912 253.923468 
L 113.978149 263.09503 
L 114.670387 269.583471 
L 115.361972 267.329294 
L 116.054209 259.650021 
L 116.746446 258.343701 
L 117.438683 256.274635 
M 118.823151 251.82994 
L 119.515395 244.33172 
L 120.207625 234.604266 
L 120.899869 218.962337 
L 121.594579 206.034429 
L 122.286816 204.206493 
L 124.363909 236.918055 
M 127.129632 267.893452 
L 127.82187 273.222443 
L 129.206344 245.950959 
L 130.591908 228.666979 
L 131.284145 215.274894 
L 131.976389 220.398568 
L 132.670814 215.225245 
L 133.363058 211.693352 
L 134.055295 222.896282 
L 134.747532 237.462453 
L 135.437802 237.609306 
L 136.130039 242.289708 
L 136.822277 263.848362 
M 138.204709 269.453445 
L 138.896947 262.243712 
L 140.281421 254.217791 
L 140.976101 242.467257 
L 141.668336 235.320355 
L 142.360573 213.101476 
L 143.05281 204.824669 
M 152.05041 206.60949 
L 152.743731 217.132075 
L 153.435969 224.410824 
M 154.820443 250.72677 
L 155.510224 262.853238 
M 159.663852 241.337762 
L 160.356055 224.937627 
L 161.051271 215.503352 
L 161.743508 211.115604 
L 162.435745 213.600299 
L 163.127989 218.529187 
M 167.970626 259.710299 
L 168.662863 250.304097 
L 169.356457 245.116379 
M 170.740931 217.088445 
L 171.433168 201.496912 
L 172.125831 209.947713 
M 173.510286 240.912013 
L 174.202529 245.445752 
L 174.892987 254.899394 
L 175.585225 268.488606 
L 176.277462 272.702064 
L 176.969699 269.980388 
L 177.662487 263.871165 
L 178.354724 262.266912 
L 179.046962 245.258698 
L 179.739205 224.461481 
M 181.126297 204.481356 
L 181.818534 217.968107 
L 182.510778 228.049137 
L 183.200632 224.503036 
L 184.585113 274.831069 
M 185.969588 268.258278 
L 186.661455 260.814673 
L 187.353692 245.078848 
M 191.509762 239.314855 
L 192.199235 247.351813 
L 193.583718 260.248222 
L 194.275953 271.466139 
L 194.967935 269.109502 
L 195.660172 259.369527 
L 196.352409 251.838489 
L 197.044646 237.308945 
L 197.738917 236.076243 
M 199.123391 218.243668 
L 199.815628 198.25647 
L 200.508823 200.691905 
L 201.20106 219.567199 
L 201.893304 244.324718 
M 204.660013 267.922123 
L 205.35225 269.20297 
L 206.044672 262.090819 
L 206.736909 239.020141 
L 208.121383 213.017374 
L 208.815873 205.2781 
L 209.50811 211.244904 
L 210.200348 224.232739 
L 211.583861 246.344359 
L 212.276099 260.44904 
L 212.968342 268.943916 
L 214.351919 260.132709 
L 215.736393 243.515763 
L 216.428631 232.221637 
L 217.120874 213.136996 
L 217.814995 210.246033 
L 218.507232 200.293659 
L 219.199469 212.004078 
L 219.891706 234.027984 
L 221.277214 252.898217 
L 221.969824 267.759957 
L 222.661681 272.623254 
L 223.354881 269.70331 
L 224.047124 268.577862 
L 224.739362 263.434001 
L 225.431599 260.667378 
L 226.123329 256.165506 
L 226.815566 246.741283 
L 227.507804 233.685465 
L 228.200041 229.522522 
L 228.892598 226.950718 
L 229.584835 214.53662 
L 230.277072 215.024902 
L 231.661953 233.825507 
L 232.35419 229.016756 
L 233.046427 232.655315 
L 233.738664 239.007201 
L 234.434318 247.89781 
L 235.126562 249.751482 
L 235.818799 243.367268 
L 236.511036 247.198796 
L 237.205725 261.368462 
L 237.897963 270.759465 
L 238.5902 269.228486 
L 239.282437 251.340875 
L 239.966295 249.853127 
M 241.350776 256.259308 
L 242.043013 258.692107 
L 242.735331 238.218437 
L 243.427569 226.518292 
L 244.119806 223.691434 
L 244.812043 222.980819 
L 245.504977 223.779097 
L 246.197214 228.389766 
L 246.889449 233.786991 
L 247.581686 232.918305 
L 248.274878 227.914563 
L 249.659352 234.001986 
L 250.351589 230.056589 
L 251.043826 236.978231 
M 253.121246 246.810446 
L 253.81349 253.587551 
M 256.577429 258.155431 
L 257.269926 246.722417 
L 257.962163 244.610794 
L 258.6544 240.015107 
M 260.040695 245.989022 
L 260.732932 241.888861 
L 261.425169 226.191478 
L 262.117406 213.746601 
L 262.80931 209.846173 
M 313.343492 195.939857 
L 314.035729 194.095331 
M 315.42021 212.813196 
L 316.112447 210.664541 
M 317.496096 173.336564 
L 318.880571 205.37741 
M 324.419095 231.796662 
L 325.112821 235.834016 
L 325.805058 241.504164 
L 326.497302 244.918534 
M 329.269218 192.462012 
L 329.961455 228.108699 
L 330.653469 246.186177 
L 331.346218 245.825307 
L 332.037944 239.344613 
L 332.730181 226.954862 
L 333.422638 204.448222 
L 334.114875 210.59711 
M 340.343899 229.315307 
L 341.036136 219.75559 
L 341.726718 200.470204 
M 346.569651 217.422682 
L 347.262064 217.023434 
M 367.338052 249.589433 
L 368.030296 240.66304 
L 368.722533 236.368395 
L 369.41477 236.721962 
L 370.107983 230.432766 
M 373.570157 237.191942 
L 374.262395 225.953792 
L 374.95463 229.63762 
L 375.647823 229.548702 
M 383.952811 228.478672 
L 384.644637 226.362101 
M 386.721348 241.859279 
L 387.412183 238.819501 
L 388.104412 236.726287 
L 388.796657 232.361617 
L 389.488894 236.03228 
L 390.872169 253.411823 
L 391.564426 256.964916 
M 393.640972 248.991423 
" style="fill:none;stroke:#0000ff;stroke-linecap:square;"/>
   </g>
   <g id="line2d_101">
    <path clip-path="url(#p668e446590)" d="M 101.516997 259.479116 
L 102.209241 258.669434 
L 102.901478 258.147844 
L 103.593715 261.105197 
M 106.361509 246.463349 
L 107.05535 248.322729 
L 107.747587 244.288573 
M 111.209437 226.338013 
L 111.901674 234.348755 
L 112.593675 247.720985 
M 146.511257 265.322811 
L 147.203494 257.682134 
L 147.895731 256.921354 
L 148.588378 261.55812 
L 149.973692 237.809157 
L 150.665929 224.91236 
L 151.358166 207.981491 
M 156.20247 274.32774 
L 156.894699 278.697029 
L 157.586944 270.185511 
L 158.279343 269.768757 
L 158.97158 258.182148 
M 163.818557 224.15622 
L 165.203032 256.436578 
M 166.586145 260.407805 
L 167.278382 261.326141 
M 188.045929 222.880453 
L 188.738167 209.273623 
M 202.585541 255.521511 
L 203.275538 262.483442 
L 203.967776 266.555182 
M 251.736771 246.748345 
L 252.429009 248.869945 
M 254.500718 257.244095 
L 255.192947 258.52788 
L 255.885192 258.622685 
M 264.886021 220.409875 
L 265.576308 231.494454 
L 266.268553 244.874543 
L 266.960791 260.951252 
L 267.653028 268.609044 
L 268.344813 264.214261 
M 269.729287 243.363572 
L 270.421524 244.296742 
L 271.116285 245.485853 
L 271.808522 233.996504 
L 272.500759 227.861514 
L 273.192996 234.201196 
L 273.886626 244.889592 
L 274.578864 236.852482 
L 275.271101 221.728205 
L 275.963338 215.828795 
L 276.655785 217.841744 
L 278.040266 238.903566 
L 278.732503 254.796662 
L 279.422083 262.587829 
L 280.11432 254.574367 
M 281.498794 210.177215 
L 282.192431 196.199946 
L 282.885262 212.795724 
L 283.576905 247.412719 
L 284.269143 261.433491 
L 285.652297 227.906949 
M 287.036771 220.261097 
L 287.729008 227.035323 
L 288.421904 256.46375 
L 289.114148 267.04926 
L 289.806385 259.741472 
L 290.498622 261.539903 
L 291.190092 261.24232 
L 292.574566 207.42886 
L 293.266803 216.073966 
L 293.961207 222.4719 
L 294.653451 220.669478 
L 295.345682 226.59801 
L 296.037925 218.806137 
L 296.728311 198.269162 
M 299.500625 203.92266 
L 300.192862 227.646052 
L 300.885099 231.512692 
L 301.577343 226.335081 
M 304.344095 179.487312 
L 305.037283 172.650075 
L 306.421757 216.089248 
L 307.114493 222.759936 
M 308.496983 205.371141 
L 309.18922 212.967398 
L 309.881458 214.405854 
L 310.575802 214.292755 
L 311.268039 222.673851 
L 311.960277 234.101732 
L 312.65252 223.129603 
M 319.576584 216.72928 
L 320.268821 229.285746 
L 320.961058 234.240927 
M 322.342377 236.019975 
L 323.034614 243.939388 
L 323.726858 241.249245 
M 334.807119 227.300165 
L 335.499356 226.016228 
M 336.882856 201.109467 
L 337.575094 196.171474 
L 338.267337 209.513386 
M 342.418955 192.516337 
L 343.111192 206.019058 
L 343.803429 211.681956 
L 344.492933 221.840875 
L 345.18517 229.742896 
L 345.877414 221.66042 
M 347.953989 217.456096 
L 348.646226 222.399965 
L 349.338463 238.924891 
L 350.0307 236.352321 
L 350.722267 208.90521 
L 351.414505 205.903825 
L 352.106742 225.532223 
L 352.798979 217.490506 
L 353.491776 205.355474 
L 354.184019 199.039508 
L 354.87625 207.283774 
L 355.569124 227.146325 
L 356.26317 222.073614 
L 356.955416 219.611328 
L 357.647653 229.917996 
M 360.414189 222.005708 
L 361.799274 241.298361 
L 362.491511 241.242944 
L 363.183748 225.762701 
L 363.875985 220.364659 
M 365.260626 238.017594 
L 365.952863 242.558868 
L 366.6451 252.722409 
M 370.80022 231.116773 
L 371.492457 231.237615 
L 372.184694 242.747921 
L 372.877912 258.601644 
M 376.34006 232.385469 
L 377.032291 251.742683 
M 380.492239 239.095476 
L 381.184476 237.581994 
L 381.876099 245.206798 
M 385.336874 227.696238 
L 386.029111 235.085853 
M 392.256643 235.812689 
L 392.948735 240.253213 
M 394.333209 250.088522 
L 395.025447 246.443999 
L 395.717867 246.997931 
L 396.410104 245.893236 
L 397.794578 242.243276 
L 398.487273 242.742626 
L 398.487273 242.742626 
" style="fill:none;stroke:#008000;stroke-linecap:square;"/>
   </g>
   <g id="patch_3">
    <path d="M 57.6 307.584 
L 57.6 41.472 
" style="fill:none;stroke:#000000;stroke-linecap:square;stroke-linejoin:miter;stroke-width:0.8;"/>
   </g>
   <g id="patch_4">
    <path d="M 414.72 307.584 
L 414.72 41.472 
" style="fill:none;stroke:#000000;stroke-linecap:square;stroke-linejoin:miter;stroke-width:0.8;"/>
   </g>
   <g id="patch_5">
    <path d="M 57.6 307.584 
L 414.72 307.584 
" style="fill:none;stroke:#000000;stroke-linecap:square;stroke-linejoin:miter;stroke-width:0.8;"/>
   </g>
   <g id="patch_6">
    <path d="M 57.6 41.472 
L 414.72 41.472 
" style="fill:none;stroke:#000000;stroke-linecap:square;stroke-linejoin:miter;stroke-width:0.8;"/>
   </g>
   <g id="text_13">
    <!-- Rel Gt Rot X Plot -->
    <defs>
     <path d="M 44.390625 34.1875 
Q 47.5625 33.109375 50.5625 29.59375 
Q 53.5625 26.078125 56.59375 19.921875 
L 66.609375 0 
L 56 0 
L 46.6875 18.703125 
Q 43.0625 26.03125 39.671875 28.421875 
Q 36.28125 30.8125 30.421875 30.8125 
L 19.671875 30.8125 
L 19.671875 0 
L 9.8125 0 
L 9.8125 72.90625 
L 32.078125 72.90625 
Q 44.578125 72.90625 50.734375 67.671875 
Q 56.890625 62.453125 56.890625 51.90625 
Q 56.890625 45.015625 53.6875 40.46875 
Q 50.484375 35.9375 44.390625 34.1875 
z
M 19.671875 64.796875 
L 19.671875 38.921875 
L 32.078125 38.921875 
Q 39.203125 38.921875 42.84375 42.21875 
Q 46.484375 45.515625 46.484375 51.90625 
Q 46.484375 58.296875 42.84375 61.546875 
Q 39.203125 64.796875 32.078125 64.796875 
z
" id="DejaVuSans-52"/>
     <path d="M 9.421875 75.984375 
L 18.40625 75.984375 
L 18.40625 0 
L 9.421875 0 
z
" id="DejaVuSans-6c"/>
     <path d="M 59.515625 10.40625 
L 59.515625 29.984375 
L 43.40625 29.984375 
L 43.40625 38.09375 
L 69.28125 38.09375 
L 69.28125 6.78125 
Q 63.578125 2.734375 56.6875 0.65625 
Q 49.8125 -1.421875 42 -1.421875 
Q 24.90625 -1.421875 15.25 8.5625 
Q 5.609375 18.5625 5.609375 36.375 
Q 5.609375 54.25 15.25 64.234375 
Q 24.90625 74.21875 42 74.21875 
Q 49.125 74.21875 55.546875 72.453125 
Q 61.96875 70.703125 67.390625 67.28125 
L 67.390625 56.78125 
Q 61.921875 61.421875 55.765625 63.765625 
Q 49.609375 66.109375 42.828125 66.109375 
Q 29.4375 66.109375 22.71875 58.640625 
Q 16.015625 51.171875 16.015625 36.375 
Q 16.015625 21.625 22.71875 14.15625 
Q 29.4375 6.6875 42.828125 6.6875 
Q 48.046875 6.6875 52.140625 7.59375 
Q 56.25 8.5 59.515625 10.40625 
z
" id="DejaVuSans-47"/>
     <path d="M 6.296875 72.90625 
L 16.890625 72.90625 
L 35.015625 45.796875 
L 53.21875 72.90625 
L 63.8125 72.90625 
L 40.375 37.890625 
L 65.375 0 
L 54.78125 0 
L 34.28125 31 
L 13.625 0 
L 2.984375 0 
L 29 38.921875 
z
" id="DejaVuSans-58"/>
     <path d="M 19.671875 64.796875 
L 19.671875 37.40625 
L 32.078125 37.40625 
Q 38.96875 37.40625 42.71875 40.96875 
Q 46.484375 44.53125 46.484375 51.125 
Q 46.484375 57.671875 42.71875 61.234375 
Q 38.96875 64.796875 32.078125 64.796875 
z
M 9.8125 72.90625 
L 32.078125 72.90625 
Q 44.34375 72.90625 50.609375 67.359375 
Q 56.890625 61.8125 56.890625 51.125 
Q 56.890625 40.328125 50.609375 34.8125 
Q 44.34375 29.296875 32.078125 29.296875 
L 19.671875 29.296875 
L 19.671875 0 
L 9.8125 0 
z
" id="DejaVuSans-50"/>
    </defs>
    <g transform="translate(186.400312 35.472)scale(0.12 -0.12)">
     <use xlink:href="#DejaVuSans-52"/>
     <use x="69.419922" xlink:href="#DejaVuSans-65"/>
     <use x="130.943359" xlink:href="#DejaVuSans-6c"/>
     <use x="158.726562" xlink:href="#DejaVuSans-20"/>
     <use x="190.513672" xlink:href="#DejaVuSans-47"/>
     <use x="268.003906" xlink:href="#DejaVuSans-74"/>
     <use x="307.212891" xlink:href="#DejaVuSans-20"/>
     <use x="339" xlink:href="#DejaVuSans-52"/>
     <use x="408.419922" xlink:href="#DejaVuSans-6f"/>
     <use x="469.601562" xlink:href="#DejaVuSans-74"/>
     <use x="508.810547" xlink:href="#DejaVuSans-20"/>
     <use x="540.597656" xlink:href="#DejaVuSans-58"/>
     <use x="609.103516" xlink:href="#DejaVuSans-20"/>
     <use x="640.890625" xlink:href="#DejaVuSans-50"/>
     <use x="701.193359" xlink:href="#DejaVuSans-6c"/>
     <use x="728.976562" xlink:href="#DejaVuSans-6f"/>
     <use x="790.158203" xlink:href="#DejaVuSans-74"/>
    </g>
   </g>
  </g>
 </g>
 <defs>
  <clipPath id="p668e446590">
   <rect height="266.112" width="357.12" x="57.6" y="41.472"/>
  </clipPath>
 </defs>
</svg>
