<?xml version="1.0" encoding="utf-8" standalone="no"?>
<!DOCTYPE svg PUBLIC "-//W3C//DTD SVG 1.1//EN"
  "http://www.w3.org/Graphics/SVG/1.1/DTD/svg11.dtd">
<!-- Created with matplotlib (http://matplotlib.org/) -->
<svg height="345.6pt" version="1.1" viewBox="0 0 460.8 345.6" width="460.8pt" xmlns="http://www.w3.org/2000/svg" xmlns:xlink="http://www.w3.org/1999/xlink">
 <defs>
  <style type="text/css">
*{stroke-linecap:butt;stroke-linejoin:round;}
  </style>
 </defs>
 <g id="figure_1">
  <g id="patch_1">
   <path d="M 0 345.6 
L 460.8 345.6 
L 460.8 0 
L 0 0 
z
" style="fill:#ffffff;"/>
  </g>
  <g id="axes_1">
   <g id="patch_2">
    <path d="M 57.6 307.584 
L 414.72 307.584 
L 414.72 41.472 
L 57.6 41.472 
z
" style="fill:#ffffff;"/>
   </g>
   <g id="matplotlib.axis_1">
    <g id="xtick_1">
     <g id="line2d_1">
      <path clip-path="url(#p41d821b989)" d="M 70.907601 307.584 
L 70.907601 41.472 
" style="fill:none;stroke:#b0b0b0;stroke-linecap:square;stroke-width:0.8;"/>
     </g>
     <g id="line2d_2">
      <defs>
       <path d="M 0 0 
L 0 3.5 
" id="m0ddc794ebb" style="stroke:#000000;stroke-width:0.8;"/>
      </defs>
      <g>
       <use style="stroke:#000000;stroke-width:0.8;" x="70.907601" xlink:href="#m0ddc794ebb" y="307.584"/>
      </g>
     </g>
     <g id="text_1">
      <!-- 0 -->
      <defs>
       <path d="M 31.78125 66.40625 
Q 24.171875 66.40625 20.328125 58.90625 
Q 16.5 51.421875 16.5 36.375 
Q 16.5 21.390625 20.328125 13.890625 
Q 24.171875 6.390625 31.78125 6.390625 
Q 39.453125 6.390625 43.28125 13.890625 
Q 47.125 21.390625 47.125 36.375 
Q 47.125 51.421875 43.28125 58.90625 
Q 39.453125 66.40625 31.78125 66.40625 
z
M 31.78125 74.21875 
Q 44.046875 74.21875 50.515625 64.515625 
Q 56.984375 54.828125 56.984375 36.375 
Q 56.984375 17.96875 50.515625 8.265625 
Q 44.046875 -1.421875 31.78125 -1.421875 
Q 19.53125 -1.421875 13.0625 8.265625 
Q 6.59375 17.96875 6.59375 36.375 
Q 6.59375 54.828125 13.0625 64.515625 
Q 19.53125 74.21875 31.78125 74.21875 
z
" id="DejaVuSans-30"/>
      </defs>
      <g transform="translate(67.726351 322.182437)scale(0.1 -0.1)">
       <use xlink:href="#DejaVuSans-30"/>
      </g>
     </g>
    </g>
    <g id="xtick_2">
     <g id="line2d_3">
      <path clip-path="url(#p41d821b989)" d="M 139.981955 307.584 
L 139.981955 41.472 
" style="fill:none;stroke:#b0b0b0;stroke-linecap:square;stroke-width:0.8;"/>
     </g>
     <g id="line2d_4">
      <g>
       <use style="stroke:#000000;stroke-width:0.8;" x="139.981955" xlink:href="#m0ddc794ebb" y="307.584"/>
      </g>
     </g>
     <g id="text_2">
      <!-- 10 -->
      <defs>
       <path d="M 12.40625 8.296875 
L 28.515625 8.296875 
L 28.515625 63.921875 
L 10.984375 60.40625 
L 10.984375 69.390625 
L 28.421875 72.90625 
L 38.28125 72.90625 
L 38.28125 8.296875 
L 54.390625 8.296875 
L 54.390625 0 
L 12.40625 0 
z
" id="DejaVuSans-31"/>
      </defs>
      <g transform="translate(133.619455 322.182437)scale(0.1 -0.1)">
       <use xlink:href="#DejaVuSans-31"/>
       <use x="63.623047" xlink:href="#DejaVuSans-30"/>
      </g>
     </g>
    </g>
    <g id="xtick_3">
     <g id="line2d_5">
      <path clip-path="url(#p41d821b989)" d="M 209.056309 307.584 
L 209.056309 41.472 
" style="fill:none;stroke:#b0b0b0;stroke-linecap:square;stroke-width:0.8;"/>
     </g>
     <g id="line2d_6">
      <g>
       <use style="stroke:#000000;stroke-width:0.8;" x="209.056309" xlink:href="#m0ddc794ebb" y="307.584"/>
      </g>
     </g>
     <g id="text_3">
      <!-- 20 -->
      <defs>
       <path d="M 19.1875 8.296875 
L 53.609375 8.296875 
L 53.609375 0 
L 7.328125 0 
L 7.328125 8.296875 
Q 12.9375 14.109375 22.625 23.890625 
Q 32.328125 33.6875 34.8125 36.53125 
Q 39.546875 41.84375 41.421875 45.53125 
Q 43.3125 49.21875 43.3125 52.78125 
Q 43.3125 58.59375 39.234375 62.25 
Q 35.15625 65.921875 28.609375 65.921875 
Q 23.96875 65.921875 18.8125 64.3125 
Q 13.671875 62.703125 7.8125 59.421875 
L 7.8125 69.390625 
Q 13.765625 71.78125 18.9375 73 
Q 24.125 74.21875 28.421875 74.21875 
Q 39.75 74.21875 46.484375 68.546875 
Q 53.21875 62.890625 53.21875 53.421875 
Q 53.21875 48.921875 51.53125 44.890625 
Q 49.859375 40.875 45.40625 35.40625 
Q 44.1875 33.984375 37.640625 27.21875 
Q 31.109375 20.453125 19.1875 8.296875 
z
" id="DejaVuSans-32"/>
      </defs>
      <g transform="translate(202.693809 322.182437)scale(0.1 -0.1)">
       <use xlink:href="#DejaVuSans-32"/>
       <use x="63.623047" xlink:href="#DejaVuSans-30"/>
      </g>
     </g>
    </g>
    <g id="xtick_4">
     <g id="line2d_7">
      <path clip-path="url(#p41d821b989)" d="M 278.130663 307.584 
L 278.130663 41.472 
" style="fill:none;stroke:#b0b0b0;stroke-linecap:square;stroke-width:0.8;"/>
     </g>
     <g id="line2d_8">
      <g>
       <use style="stroke:#000000;stroke-width:0.8;" x="278.130663" xlink:href="#m0ddc794ebb" y="307.584"/>
      </g>
     </g>
     <g id="text_4">
      <!-- 30 -->
      <defs>
       <path d="M 40.578125 39.3125 
Q 47.65625 37.796875 51.625 33 
Q 55.609375 28.21875 55.609375 21.1875 
Q 55.609375 10.40625 48.1875 4.484375 
Q 40.765625 -1.421875 27.09375 -1.421875 
Q 22.515625 -1.421875 17.65625 -0.515625 
Q 12.796875 0.390625 7.625 2.203125 
L 7.625 11.71875 
Q 11.71875 9.328125 16.59375 8.109375 
Q 21.484375 6.890625 26.8125 6.890625 
Q 36.078125 6.890625 40.9375 10.546875 
Q 45.796875 14.203125 45.796875 21.1875 
Q 45.796875 27.640625 41.28125 31.265625 
Q 36.765625 34.90625 28.71875 34.90625 
L 20.21875 34.90625 
L 20.21875 43.015625 
L 29.109375 43.015625 
Q 36.375 43.015625 40.234375 45.921875 
Q 44.09375 48.828125 44.09375 54.296875 
Q 44.09375 59.90625 40.109375 62.90625 
Q 36.140625 65.921875 28.71875 65.921875 
Q 24.65625 65.921875 20.015625 65.03125 
Q 15.375 64.15625 9.8125 62.3125 
L 9.8125 71.09375 
Q 15.4375 72.65625 20.34375 73.4375 
Q 25.25 74.21875 29.59375 74.21875 
Q 40.828125 74.21875 47.359375 69.109375 
Q 53.90625 64.015625 53.90625 55.328125 
Q 53.90625 49.265625 50.4375 45.09375 
Q 46.96875 40.921875 40.578125 39.3125 
z
" id="DejaVuSans-33"/>
      </defs>
      <g transform="translate(271.768163 322.182437)scale(0.1 -0.1)">
       <use xlink:href="#DejaVuSans-33"/>
       <use x="63.623047" xlink:href="#DejaVuSans-30"/>
      </g>
     </g>
    </g>
    <g id="xtick_5">
     <g id="line2d_9">
      <path clip-path="url(#p41d821b989)" d="M 347.205016 307.584 
L 347.205016 41.472 
" style="fill:none;stroke:#b0b0b0;stroke-linecap:square;stroke-width:0.8;"/>
     </g>
     <g id="line2d_10">
      <g>
       <use style="stroke:#000000;stroke-width:0.8;" x="347.205016" xlink:href="#m0ddc794ebb" y="307.584"/>
      </g>
     </g>
     <g id="text_5">
      <!-- 40 -->
      <defs>
       <path d="M 37.796875 64.3125 
L 12.890625 25.390625 
L 37.796875 25.390625 
z
M 35.203125 72.90625 
L 47.609375 72.90625 
L 47.609375 25.390625 
L 58.015625 25.390625 
L 58.015625 17.1875 
L 47.609375 17.1875 
L 47.609375 0 
L 37.796875 0 
L 37.796875 17.1875 
L 4.890625 17.1875 
L 4.890625 26.703125 
z
" id="DejaVuSans-34"/>
      </defs>
      <g transform="translate(340.842516 322.182437)scale(0.1 -0.1)">
       <use xlink:href="#DejaVuSans-34"/>
       <use x="63.623047" xlink:href="#DejaVuSans-30"/>
      </g>
     </g>
    </g>
    <g id="xtick_6">
     <g id="line2d_11">
      <path clip-path="url(#p41d821b989)" d="M 84.722472 307.584 
L 84.722472 41.472 
" style="fill:none;stroke:#b0b0b0;stroke-linecap:square;stroke-width:0.8;"/>
     </g>
     <g id="line2d_12">
      <defs>
       <path d="M 0 0 
L 0 2 
" id="mab5e8cb9aa" style="stroke:#000000;stroke-width:0.6;"/>
      </defs>
      <g>
       <use style="stroke:#000000;stroke-width:0.6;" x="84.722472" xlink:href="#mab5e8cb9aa" y="307.584"/>
      </g>
     </g>
    </g>
    <g id="xtick_7">
     <g id="line2d_13">
      <path clip-path="url(#p41d821b989)" d="M 98.537342 307.584 
L 98.537342 41.472 
" style="fill:none;stroke:#b0b0b0;stroke-linecap:square;stroke-width:0.8;"/>
     </g>
     <g id="line2d_14">
      <g>
       <use style="stroke:#000000;stroke-width:0.6;" x="98.537342" xlink:href="#mab5e8cb9aa" y="307.584"/>
      </g>
     </g>
    </g>
    <g id="xtick_8">
     <g id="line2d_15">
      <path clip-path="url(#p41d821b989)" d="M 112.352213 307.584 
L 112.352213 41.472 
" style="fill:none;stroke:#b0b0b0;stroke-linecap:square;stroke-width:0.8;"/>
     </g>
     <g id="line2d_16">
      <g>
       <use style="stroke:#000000;stroke-width:0.6;" x="112.352213" xlink:href="#mab5e8cb9aa" y="307.584"/>
      </g>
     </g>
    </g>
    <g id="xtick_9">
     <g id="line2d_17">
      <path clip-path="url(#p41d821b989)" d="M 126.167084 307.584 
L 126.167084 41.472 
" style="fill:none;stroke:#b0b0b0;stroke-linecap:square;stroke-width:0.8;"/>
     </g>
     <g id="line2d_18">
      <g>
       <use style="stroke:#000000;stroke-width:0.6;" x="126.167084" xlink:href="#mab5e8cb9aa" y="307.584"/>
      </g>
     </g>
    </g>
    <g id="xtick_10">
     <g id="line2d_19">
      <path clip-path="url(#p41d821b989)" d="M 153.796826 307.584 
L 153.796826 41.472 
" style="fill:none;stroke:#b0b0b0;stroke-linecap:square;stroke-width:0.8;"/>
     </g>
     <g id="line2d_20">
      <g>
       <use style="stroke:#000000;stroke-width:0.6;" x="153.796826" xlink:href="#mab5e8cb9aa" y="307.584"/>
      </g>
     </g>
    </g>
    <g id="xtick_11">
     <g id="line2d_21">
      <path clip-path="url(#p41d821b989)" d="M 167.611696 307.584 
L 167.611696 41.472 
" style="fill:none;stroke:#b0b0b0;stroke-linecap:square;stroke-width:0.8;"/>
     </g>
     <g id="line2d_22">
      <g>
       <use style="stroke:#000000;stroke-width:0.6;" x="167.611696" xlink:href="#mab5e8cb9aa" y="307.584"/>
      </g>
     </g>
    </g>
    <g id="xtick_12">
     <g id="line2d_23">
      <path clip-path="url(#p41d821b989)" d="M 181.426567 307.584 
L 181.426567 41.472 
" style="fill:none;stroke:#b0b0b0;stroke-linecap:square;stroke-width:0.8;"/>
     </g>
     <g id="line2d_24">
      <g>
       <use style="stroke:#000000;stroke-width:0.6;" x="181.426567" xlink:href="#mab5e8cb9aa" y="307.584"/>
      </g>
     </g>
    </g>
    <g id="xtick_13">
     <g id="line2d_25">
      <path clip-path="url(#p41d821b989)" d="M 195.241438 307.584 
L 195.241438 41.472 
" style="fill:none;stroke:#b0b0b0;stroke-linecap:square;stroke-width:0.8;"/>
     </g>
     <g id="line2d_26">
      <g>
       <use style="stroke:#000000;stroke-width:0.6;" x="195.241438" xlink:href="#mab5e8cb9aa" y="307.584"/>
      </g>
     </g>
    </g>
    <g id="xtick_14">
     <g id="line2d_27">
      <path clip-path="url(#p41d821b989)" d="M 222.871179 307.584 
L 222.871179 41.472 
" style="fill:none;stroke:#b0b0b0;stroke-linecap:square;stroke-width:0.8;"/>
     </g>
     <g id="line2d_28">
      <g>
       <use style="stroke:#000000;stroke-width:0.6;" x="222.871179" xlink:href="#mab5e8cb9aa" y="307.584"/>
      </g>
     </g>
    </g>
    <g id="xtick_15">
     <g id="line2d_29">
      <path clip-path="url(#p41d821b989)" d="M 236.68605 307.584 
L 236.68605 41.472 
" style="fill:none;stroke:#b0b0b0;stroke-linecap:square;stroke-width:0.8;"/>
     </g>
     <g id="line2d_30">
      <g>
       <use style="stroke:#000000;stroke-width:0.6;" x="236.68605" xlink:href="#mab5e8cb9aa" y="307.584"/>
      </g>
     </g>
    </g>
    <g id="xtick_16">
     <g id="line2d_31">
      <path clip-path="url(#p41d821b989)" d="M 250.500921 307.584 
L 250.500921 41.472 
" style="fill:none;stroke:#b0b0b0;stroke-linecap:square;stroke-width:0.8;"/>
     </g>
     <g id="line2d_32">
      <g>
       <use style="stroke:#000000;stroke-width:0.6;" x="250.500921" xlink:href="#mab5e8cb9aa" y="307.584"/>
      </g>
     </g>
    </g>
    <g id="xtick_17">
     <g id="line2d_33">
      <path clip-path="url(#p41d821b989)" d="M 264.315792 307.584 
L 264.315792 41.472 
" style="fill:none;stroke:#b0b0b0;stroke-linecap:square;stroke-width:0.8;"/>
     </g>
     <g id="line2d_34">
      <g>
       <use style="stroke:#000000;stroke-width:0.6;" x="264.315792" xlink:href="#mab5e8cb9aa" y="307.584"/>
      </g>
     </g>
    </g>
    <g id="xtick_18">
     <g id="line2d_35">
      <path clip-path="url(#p41d821b989)" d="M 291.945533 307.584 
L 291.945533 41.472 
" style="fill:none;stroke:#b0b0b0;stroke-linecap:square;stroke-width:0.8;"/>
     </g>
     <g id="line2d_36">
      <g>
       <use style="stroke:#000000;stroke-width:0.6;" x="291.945533" xlink:href="#mab5e8cb9aa" y="307.584"/>
      </g>
     </g>
    </g>
    <g id="xtick_19">
     <g id="line2d_37">
      <path clip-path="url(#p41d821b989)" d="M 305.760404 307.584 
L 305.760404 41.472 
" style="fill:none;stroke:#b0b0b0;stroke-linecap:square;stroke-width:0.8;"/>
     </g>
     <g id="line2d_38">
      <g>
       <use style="stroke:#000000;stroke-width:0.6;" x="305.760404" xlink:href="#mab5e8cb9aa" y="307.584"/>
      </g>
     </g>
    </g>
    <g id="xtick_20">
     <g id="line2d_39">
      <path clip-path="url(#p41d821b989)" d="M 319.575275 307.584 
L 319.575275 41.472 
" style="fill:none;stroke:#b0b0b0;stroke-linecap:square;stroke-width:0.8;"/>
     </g>
     <g id="line2d_40">
      <g>
       <use style="stroke:#000000;stroke-width:0.6;" x="319.575275" xlink:href="#mab5e8cb9aa" y="307.584"/>
      </g>
     </g>
    </g>
    <g id="xtick_21">
     <g id="line2d_41">
      <path clip-path="url(#p41d821b989)" d="M 333.390146 307.584 
L 333.390146 41.472 
" style="fill:none;stroke:#b0b0b0;stroke-linecap:square;stroke-width:0.8;"/>
     </g>
     <g id="line2d_42">
      <g>
       <use style="stroke:#000000;stroke-width:0.6;" x="333.390146" xlink:href="#mab5e8cb9aa" y="307.584"/>
      </g>
     </g>
    </g>
    <g id="xtick_22">
     <g id="line2d_43">
      <path clip-path="url(#p41d821b989)" d="M 361.019887 307.584 
L 361.019887 41.472 
" style="fill:none;stroke:#b0b0b0;stroke-linecap:square;stroke-width:0.8;"/>
     </g>
     <g id="line2d_44">
      <g>
       <use style="stroke:#000000;stroke-width:0.6;" x="361.019887" xlink:href="#mab5e8cb9aa" y="307.584"/>
      </g>
     </g>
    </g>
    <g id="xtick_23">
     <g id="line2d_45">
      <path clip-path="url(#p41d821b989)" d="M 374.834758 307.584 
L 374.834758 41.472 
" style="fill:none;stroke:#b0b0b0;stroke-linecap:square;stroke-width:0.8;"/>
     </g>
     <g id="line2d_46">
      <g>
       <use style="stroke:#000000;stroke-width:0.6;" x="374.834758" xlink:href="#mab5e8cb9aa" y="307.584"/>
      </g>
     </g>
    </g>
    <g id="xtick_24">
     <g id="line2d_47">
      <path clip-path="url(#p41d821b989)" d="M 388.649629 307.584 
L 388.649629 41.472 
" style="fill:none;stroke:#b0b0b0;stroke-linecap:square;stroke-width:0.8;"/>
     </g>
     <g id="line2d_48">
      <g>
       <use style="stroke:#000000;stroke-width:0.6;" x="388.649629" xlink:href="#mab5e8cb9aa" y="307.584"/>
      </g>
     </g>
    </g>
    <g id="xtick_25">
     <g id="line2d_49">
      <path clip-path="url(#p41d821b989)" d="M 402.4645 307.584 
L 402.4645 41.472 
" style="fill:none;stroke:#b0b0b0;stroke-linecap:square;stroke-width:0.8;"/>
     </g>
     <g id="line2d_50">
      <g>
       <use style="stroke:#000000;stroke-width:0.6;" x="402.4645" xlink:href="#mab5e8cb9aa" y="307.584"/>
      </g>
     </g>
    </g>
    <g id="text_6">
     <!-- frame # [] -->
     <defs>
      <path d="M 37.109375 75.984375 
L 37.109375 68.5 
L 28.515625 68.5 
Q 23.6875 68.5 21.796875 66.546875 
Q 19.921875 64.59375 19.921875 59.515625 
L 19.921875 54.6875 
L 34.71875 54.6875 
L 34.71875 47.703125 
L 19.921875 47.703125 
L 19.921875 0 
L 10.890625 0 
L 10.890625 47.703125 
L 2.296875 47.703125 
L 2.296875 54.6875 
L 10.890625 54.6875 
L 10.890625 58.5 
Q 10.890625 67.625 15.140625 71.796875 
Q 19.390625 75.984375 28.609375 75.984375 
z
" id="DejaVuSans-66"/>
      <path d="M 41.109375 46.296875 
Q 39.59375 47.171875 37.8125 47.578125 
Q 36.03125 48 33.890625 48 
Q 26.265625 48 22.1875 43.046875 
Q 18.109375 38.09375 18.109375 28.8125 
L 18.109375 0 
L 9.078125 0 
L 9.078125 54.6875 
L 18.109375 54.6875 
L 18.109375 46.1875 
Q 20.953125 51.171875 25.484375 53.578125 
Q 30.03125 56 36.53125 56 
Q 37.453125 56 38.578125 55.875 
Q 39.703125 55.765625 41.0625 55.515625 
z
" id="DejaVuSans-72"/>
      <path d="M 34.28125 27.484375 
Q 23.390625 27.484375 19.1875 25 
Q 14.984375 22.515625 14.984375 16.5 
Q 14.984375 11.71875 18.140625 8.90625 
Q 21.296875 6.109375 26.703125 6.109375 
Q 34.1875 6.109375 38.703125 11.40625 
Q 43.21875 16.703125 43.21875 25.484375 
L 43.21875 27.484375 
z
M 52.203125 31.203125 
L 52.203125 0 
L 43.21875 0 
L 43.21875 8.296875 
Q 40.140625 3.328125 35.546875 0.953125 
Q 30.953125 -1.421875 24.3125 -1.421875 
Q 15.921875 -1.421875 10.953125 3.296875 
Q 6 8.015625 6 15.921875 
Q 6 25.140625 12.171875 29.828125 
Q 18.359375 34.515625 30.609375 34.515625 
L 43.21875 34.515625 
L 43.21875 35.40625 
Q 43.21875 41.609375 39.140625 45 
Q 35.0625 48.390625 27.6875 48.390625 
Q 23 48.390625 18.546875 47.265625 
Q 14.109375 46.140625 10.015625 43.890625 
L 10.015625 52.203125 
Q 14.9375 54.109375 19.578125 55.046875 
Q 24.21875 56 28.609375 56 
Q 40.484375 56 46.34375 49.84375 
Q 52.203125 43.703125 52.203125 31.203125 
z
" id="DejaVuSans-61"/>
      <path d="M 52 44.1875 
Q 55.375 50.25 60.0625 53.125 
Q 64.75 56 71.09375 56 
Q 79.640625 56 84.28125 50.015625 
Q 88.921875 44.046875 88.921875 33.015625 
L 88.921875 0 
L 79.890625 0 
L 79.890625 32.71875 
Q 79.890625 40.578125 77.09375 44.375 
Q 74.3125 48.1875 68.609375 48.1875 
Q 61.625 48.1875 57.5625 43.546875 
Q 53.515625 38.921875 53.515625 30.90625 
L 53.515625 0 
L 44.484375 0 
L 44.484375 32.71875 
Q 44.484375 40.625 41.703125 44.40625 
Q 38.921875 48.1875 33.109375 48.1875 
Q 26.21875 48.1875 22.15625 43.53125 
Q 18.109375 38.875 18.109375 30.90625 
L 18.109375 0 
L 9.078125 0 
L 9.078125 54.6875 
L 18.109375 54.6875 
L 18.109375 46.1875 
Q 21.1875 51.21875 25.484375 53.609375 
Q 29.78125 56 35.6875 56 
Q 41.65625 56 45.828125 52.96875 
Q 50 49.953125 52 44.1875 
z
" id="DejaVuSans-6d"/>
      <path d="M 56.203125 29.59375 
L 56.203125 25.203125 
L 14.890625 25.203125 
Q 15.484375 15.921875 20.484375 11.0625 
Q 25.484375 6.203125 34.421875 6.203125 
Q 39.59375 6.203125 44.453125 7.46875 
Q 49.3125 8.734375 54.109375 11.28125 
L 54.109375 2.78125 
Q 49.265625 0.734375 44.1875 -0.34375 
Q 39.109375 -1.421875 33.890625 -1.421875 
Q 20.796875 -1.421875 13.15625 6.1875 
Q 5.515625 13.8125 5.515625 26.8125 
Q 5.515625 40.234375 12.765625 48.109375 
Q 20.015625 56 32.328125 56 
Q 43.359375 56 49.78125 48.890625 
Q 56.203125 41.796875 56.203125 29.59375 
z
M 47.21875 32.234375 
Q 47.125 39.59375 43.09375 43.984375 
Q 39.0625 48.390625 32.421875 48.390625 
Q 24.90625 48.390625 20.390625 44.140625 
Q 15.875 39.890625 15.1875 32.171875 
z
" id="DejaVuSans-65"/>
      <path id="DejaVuSans-20"/>
      <path d="M 51.125 44 
L 36.921875 44 
L 32.8125 27.6875 
L 47.125 27.6875 
z
M 43.796875 71.78125 
L 38.71875 51.515625 
L 52.984375 51.515625 
L 58.109375 71.78125 
L 65.921875 71.78125 
L 60.890625 51.515625 
L 76.125 51.515625 
L 76.125 44 
L 58.984375 44 
L 54.984375 27.6875 
L 70.515625 27.6875 
L 70.515625 20.21875 
L 53.078125 20.21875 
L 48 0 
L 40.1875 0 
L 45.21875 20.21875 
L 30.90625 20.21875 
L 25.875 0 
L 18.015625 0 
L 23.09375 20.21875 
L 7.71875 20.21875 
L 7.71875 27.6875 
L 24.90625 27.6875 
L 29 44 
L 13.28125 44 
L 13.28125 51.515625 
L 30.90625 51.515625 
L 35.890625 71.78125 
z
" id="DejaVuSans-23"/>
      <path d="M 8.59375 75.984375 
L 29.296875 75.984375 
L 29.296875 69 
L 17.578125 69 
L 17.578125 -6.203125 
L 29.296875 -6.203125 
L 29.296875 -13.1875 
L 8.59375 -13.1875 
z
" id="DejaVuSans-5b"/>
      <path d="M 30.421875 75.984375 
L 30.421875 -13.1875 
L 9.71875 -13.1875 
L 9.71875 -6.203125 
L 21.390625 -6.203125 
L 21.390625 69 
L 9.71875 69 
L 9.71875 75.984375 
z
" id="DejaVuSans-5d"/>
     </defs>
     <g transform="translate(210.063906 335.860562)scale(0.1 -0.1)">
      <use xlink:href="#DejaVuSans-66"/>
      <use x="35.205078" xlink:href="#DejaVuSans-72"/>
      <use x="76.318359" xlink:href="#DejaVuSans-61"/>
      <use x="137.597656" xlink:href="#DejaVuSans-6d"/>
      <use x="235.009766" xlink:href="#DejaVuSans-65"/>
      <use x="296.533203" xlink:href="#DejaVuSans-20"/>
      <use x="328.320312" xlink:href="#DejaVuSans-23"/>
      <use x="412.109375" xlink:href="#DejaVuSans-20"/>
      <use x="443.896484" xlink:href="#DejaVuSans-5b"/>
      <use x="482.910156" xlink:href="#DejaVuSans-5d"/>
     </g>
    </g>
   </g>
   <g id="matplotlib.axis_2">
    <g id="ytick_1">
     <g id="line2d_51">
      <path clip-path="url(#p41d821b989)" d="M 57.6 259.582855 
L 414.72 259.582855 
" style="fill:none;stroke:#b0b0b0;stroke-linecap:square;stroke-width:0.8;"/>
     </g>
     <g id="line2d_52">
      <defs>
       <path d="M 0 0 
L -3.5 0 
" id="m4e5fc432a2" style="stroke:#000000;stroke-width:0.8;"/>
      </defs>
      <g>
       <use style="stroke:#000000;stroke-width:0.8;" x="57.6" xlink:href="#m4e5fc432a2" y="259.582855"/>
      </g>
     </g>
     <g id="text_7">
      <!-- −0.1 -->
      <defs>
       <path d="M 10.59375 35.5 
L 73.1875 35.5 
L 73.1875 27.203125 
L 10.59375 27.203125 
z
" id="DejaVuSans-2212"/>
       <path d="M 10.6875 12.40625 
L 21 12.40625 
L 21 0 
L 10.6875 0 
z
" id="DejaVuSans-2e"/>
      </defs>
      <g transform="translate(26.317187 263.382074)scale(0.1 -0.1)">
       <use xlink:href="#DejaVuSans-2212"/>
       <use x="83.789062" xlink:href="#DejaVuSans-30"/>
       <use x="147.412109" xlink:href="#DejaVuSans-2e"/>
       <use x="179.199219" xlink:href="#DejaVuSans-31"/>
      </g>
     </g>
    </g>
    <g id="ytick_2">
     <g id="line2d_53">
      <path clip-path="url(#p41d821b989)" d="M 57.6 203.902478 
L 414.72 203.902478 
" style="fill:none;stroke:#b0b0b0;stroke-linecap:square;stroke-width:0.8;"/>
     </g>
     <g id="line2d_54">
      <g>
       <use style="stroke:#000000;stroke-width:0.8;" x="57.6" xlink:href="#m4e5fc432a2" y="203.902478"/>
      </g>
     </g>
     <g id="text_8">
      <!-- 0.0 -->
      <g transform="translate(34.696875 207.701697)scale(0.1 -0.1)">
       <use xlink:href="#DejaVuSans-30"/>
       <use x="63.623047" xlink:href="#DejaVuSans-2e"/>
       <use x="95.410156" xlink:href="#DejaVuSans-30"/>
      </g>
     </g>
    </g>
    <g id="ytick_3">
     <g id="line2d_55">
      <path clip-path="url(#p41d821b989)" d="M 57.6 148.222101 
L 414.72 148.222101 
" style="fill:none;stroke:#b0b0b0;stroke-linecap:square;stroke-width:0.8;"/>
     </g>
     <g id="line2d_56">
      <g>
       <use style="stroke:#000000;stroke-width:0.8;" x="57.6" xlink:href="#m4e5fc432a2" y="148.222101"/>
      </g>
     </g>
     <g id="text_9">
      <!-- 0.1 -->
      <g transform="translate(34.696875 152.02132)scale(0.1 -0.1)">
       <use xlink:href="#DejaVuSans-30"/>
       <use x="63.623047" xlink:href="#DejaVuSans-2e"/>
       <use x="95.410156" xlink:href="#DejaVuSans-31"/>
      </g>
     </g>
    </g>
    <g id="ytick_4">
     <g id="line2d_57">
      <path clip-path="url(#p41d821b989)" d="M 57.6 92.541724 
L 414.72 92.541724 
" style="fill:none;stroke:#b0b0b0;stroke-linecap:square;stroke-width:0.8;"/>
     </g>
     <g id="line2d_58">
      <g>
       <use style="stroke:#000000;stroke-width:0.8;" x="57.6" xlink:href="#m4e5fc432a2" y="92.541724"/>
      </g>
     </g>
     <g id="text_10">
      <!-- 0.2 -->
      <g transform="translate(34.696875 96.340943)scale(0.1 -0.1)">
       <use xlink:href="#DejaVuSans-30"/>
       <use x="63.623047" xlink:href="#DejaVuSans-2e"/>
       <use x="95.410156" xlink:href="#DejaVuSans-32"/>
      </g>
     </g>
    </g>
    <g id="ytick_5">
     <g id="line2d_59">
      <path clip-path="url(#p41d821b989)" d="M 57.6 304.127157 
L 414.72 304.127157 
" style="fill:none;stroke:#b0b0b0;stroke-linecap:square;stroke-width:0.8;"/>
     </g>
     <g id="line2d_60">
      <defs>
       <path d="M 0 0 
L -2 0 
" id="m34f10c585c" style="stroke:#000000;stroke-width:0.6;"/>
      </defs>
      <g>
       <use style="stroke:#000000;stroke-width:0.6;" x="57.6" xlink:href="#m34f10c585c" y="304.127157"/>
      </g>
     </g>
    </g>
    <g id="ytick_6">
     <g id="line2d_61">
      <path clip-path="url(#p41d821b989)" d="M 57.6 292.991081 
L 414.72 292.991081 
" style="fill:none;stroke:#b0b0b0;stroke-linecap:square;stroke-width:0.8;"/>
     </g>
     <g id="line2d_62">
      <g>
       <use style="stroke:#000000;stroke-width:0.6;" x="57.6" xlink:href="#m34f10c585c" y="292.991081"/>
      </g>
     </g>
    </g>
    <g id="ytick_7">
     <g id="line2d_63">
      <path clip-path="url(#p41d821b989)" d="M 57.6 281.855006 
L 414.72 281.855006 
" style="fill:none;stroke:#b0b0b0;stroke-linecap:square;stroke-width:0.8;"/>
     </g>
     <g id="line2d_64">
      <g>
       <use style="stroke:#000000;stroke-width:0.6;" x="57.6" xlink:href="#m34f10c585c" y="281.855006"/>
      </g>
     </g>
    </g>
    <g id="ytick_8">
     <g id="line2d_65">
      <path clip-path="url(#p41d821b989)" d="M 57.6 270.718931 
L 414.72 270.718931 
" style="fill:none;stroke:#b0b0b0;stroke-linecap:square;stroke-width:0.8;"/>
     </g>
     <g id="line2d_66">
      <g>
       <use style="stroke:#000000;stroke-width:0.6;" x="57.6" xlink:href="#m34f10c585c" y="270.718931"/>
      </g>
     </g>
    </g>
    <g id="ytick_9">
     <g id="line2d_67">
      <path clip-path="url(#p41d821b989)" d="M 57.6 248.44678 
L 414.72 248.44678 
" style="fill:none;stroke:#b0b0b0;stroke-linecap:square;stroke-width:0.8;"/>
     </g>
     <g id="line2d_68">
      <g>
       <use style="stroke:#000000;stroke-width:0.6;" x="57.6" xlink:href="#m34f10c585c" y="248.44678"/>
      </g>
     </g>
    </g>
    <g id="ytick_10">
     <g id="line2d_69">
      <path clip-path="url(#p41d821b989)" d="M 57.6 237.310704 
L 414.72 237.310704 
" style="fill:none;stroke:#b0b0b0;stroke-linecap:square;stroke-width:0.8;"/>
     </g>
     <g id="line2d_70">
      <g>
       <use style="stroke:#000000;stroke-width:0.6;" x="57.6" xlink:href="#m34f10c585c" y="237.310704"/>
      </g>
     </g>
    </g>
    <g id="ytick_11">
     <g id="line2d_71">
      <path clip-path="url(#p41d821b989)" d="M 57.6 226.174629 
L 414.72 226.174629 
" style="fill:none;stroke:#b0b0b0;stroke-linecap:square;stroke-width:0.8;"/>
     </g>
     <g id="line2d_72">
      <g>
       <use style="stroke:#000000;stroke-width:0.6;" x="57.6" xlink:href="#m34f10c585c" y="226.174629"/>
      </g>
     </g>
    </g>
    <g id="ytick_12">
     <g id="line2d_73">
      <path clip-path="url(#p41d821b989)" d="M 57.6 215.038554 
L 414.72 215.038554 
" style="fill:none;stroke:#b0b0b0;stroke-linecap:square;stroke-width:0.8;"/>
     </g>
     <g id="line2d_74">
      <g>
       <use style="stroke:#000000;stroke-width:0.6;" x="57.6" xlink:href="#m34f10c585c" y="215.038554"/>
      </g>
     </g>
    </g>
    <g id="ytick_13">
     <g id="line2d_75">
      <path clip-path="url(#p41d821b989)" d="M 57.6 203.902478 
L 414.72 203.902478 
" style="fill:none;stroke:#b0b0b0;stroke-linecap:square;stroke-width:0.8;"/>
     </g>
     <g id="line2d_76">
      <g>
       <use style="stroke:#000000;stroke-width:0.6;" x="57.6" xlink:href="#m34f10c585c" y="203.902478"/>
      </g>
     </g>
    </g>
    <g id="ytick_14">
     <g id="line2d_77">
      <path clip-path="url(#p41d821b989)" d="M 57.6 192.766403 
L 414.72 192.766403 
" style="fill:none;stroke:#b0b0b0;stroke-linecap:square;stroke-width:0.8;"/>
     </g>
     <g id="line2d_78">
      <g>
       <use style="stroke:#000000;stroke-width:0.6;" x="57.6" xlink:href="#m34f10c585c" y="192.766403"/>
      </g>
     </g>
    </g>
    <g id="ytick_15">
     <g id="line2d_79">
      <path clip-path="url(#p41d821b989)" d="M 57.6 181.630327 
L 414.72 181.630327 
" style="fill:none;stroke:#b0b0b0;stroke-linecap:square;stroke-width:0.8;"/>
     </g>
     <g id="line2d_80">
      <g>
       <use style="stroke:#000000;stroke-width:0.6;" x="57.6" xlink:href="#m34f10c585c" y="181.630327"/>
      </g>
     </g>
    </g>
    <g id="ytick_16">
     <g id="line2d_81">
      <path clip-path="url(#p41d821b989)" d="M 57.6 170.494252 
L 414.72 170.494252 
" style="fill:none;stroke:#b0b0b0;stroke-linecap:square;stroke-width:0.8;"/>
     </g>
     <g id="line2d_82">
      <g>
       <use style="stroke:#000000;stroke-width:0.6;" x="57.6" xlink:href="#m34f10c585c" y="170.494252"/>
      </g>
     </g>
    </g>
    <g id="ytick_17">
     <g id="line2d_83">
      <path clip-path="url(#p41d821b989)" d="M 57.6 159.358177 
L 414.72 159.358177 
" style="fill:none;stroke:#b0b0b0;stroke-linecap:square;stroke-width:0.8;"/>
     </g>
     <g id="line2d_84">
      <g>
       <use style="stroke:#000000;stroke-width:0.6;" x="57.6" xlink:href="#m34f10c585c" y="159.358177"/>
      </g>
     </g>
    </g>
    <g id="ytick_18">
     <g id="line2d_85">
      <path clip-path="url(#p41d821b989)" d="M 57.6 137.086026 
L 414.72 137.086026 
" style="fill:none;stroke:#b0b0b0;stroke-linecap:square;stroke-width:0.8;"/>
     </g>
     <g id="line2d_86">
      <g>
       <use style="stroke:#000000;stroke-width:0.6;" x="57.6" xlink:href="#m34f10c585c" y="137.086026"/>
      </g>
     </g>
    </g>
    <g id="ytick_19">
     <g id="line2d_87">
      <path clip-path="url(#p41d821b989)" d="M 57.6 125.94995 
L 414.72 125.94995 
" style="fill:none;stroke:#b0b0b0;stroke-linecap:square;stroke-width:0.8;"/>
     </g>
     <g id="line2d_88">
      <g>
       <use style="stroke:#000000;stroke-width:0.6;" x="57.6" xlink:href="#m34f10c585c" y="125.94995"/>
      </g>
     </g>
    </g>
    <g id="ytick_20">
     <g id="line2d_89">
      <path clip-path="url(#p41d821b989)" d="M 57.6 114.813875 
L 414.72 114.813875 
" style="fill:none;stroke:#b0b0b0;stroke-linecap:square;stroke-width:0.8;"/>
     </g>
     <g id="line2d_90">
      <g>
       <use style="stroke:#000000;stroke-width:0.6;" x="57.6" xlink:href="#m34f10c585c" y="114.813875"/>
      </g>
     </g>
    </g>
    <g id="ytick_21">
     <g id="line2d_91">
      <path clip-path="url(#p41d821b989)" d="M 57.6 103.6778 
L 414.72 103.6778 
" style="fill:none;stroke:#b0b0b0;stroke-linecap:square;stroke-width:0.8;"/>
     </g>
     <g id="line2d_92">
      <g>
       <use style="stroke:#000000;stroke-width:0.6;" x="57.6" xlink:href="#m34f10c585c" y="103.6778"/>
      </g>
     </g>
    </g>
    <g id="ytick_22">
     <g id="line2d_93">
      <path clip-path="url(#p41d821b989)" d="M 57.6 81.405649 
L 414.72 81.405649 
" style="fill:none;stroke:#b0b0b0;stroke-linecap:square;stroke-width:0.8;"/>
     </g>
     <g id="line2d_94">
      <g>
       <use style="stroke:#000000;stroke-width:0.6;" x="57.6" xlink:href="#m34f10c585c" y="81.405649"/>
      </g>
     </g>
    </g>
    <g id="ytick_23">
     <g id="line2d_95">
      <path clip-path="url(#p41d821b989)" d="M 57.6 70.269574 
L 414.72 70.269574 
" style="fill:none;stroke:#b0b0b0;stroke-linecap:square;stroke-width:0.8;"/>
     </g>
     <g id="line2d_96">
      <g>
       <use style="stroke:#000000;stroke-width:0.6;" x="57.6" xlink:href="#m34f10c585c" y="70.269574"/>
      </g>
     </g>
    </g>
    <g id="ytick_24">
     <g id="line2d_97">
      <path clip-path="url(#p41d821b989)" d="M 57.6 59.133498 
L 414.72 59.133498 
" style="fill:none;stroke:#b0b0b0;stroke-linecap:square;stroke-width:0.8;"/>
     </g>
     <g id="line2d_98">
      <g>
       <use style="stroke:#000000;stroke-width:0.6;" x="57.6" xlink:href="#m34f10c585c" y="59.133498"/>
      </g>
     </g>
    </g>
    <g id="ytick_25">
     <g id="line2d_99">
      <path clip-path="url(#p41d821b989)" d="M 57.6 47.997423 
L 414.72 47.997423 
" style="fill:none;stroke:#b0b0b0;stroke-linecap:square;stroke-width:0.8;"/>
     </g>
     <g id="line2d_100">
      <g>
       <use style="stroke:#000000;stroke-width:0.6;" x="57.6" xlink:href="#m34f10c585c" y="47.997423"/>
      </g>
     </g>
    </g>
    <g id="text_11">
     <!-- rot x -->
     <defs>
      <path d="M 30.609375 48.390625 
Q 23.390625 48.390625 19.1875 42.75 
Q 14.984375 37.109375 14.984375 27.296875 
Q 14.984375 17.484375 19.15625 11.84375 
Q 23.34375 6.203125 30.609375 6.203125 
Q 37.796875 6.203125 41.984375 11.859375 
Q 46.1875 17.53125 46.1875 27.296875 
Q 46.1875 37.015625 41.984375 42.703125 
Q 37.796875 48.390625 30.609375 48.390625 
z
M 30.609375 56 
Q 42.328125 56 49.015625 48.375 
Q 55.71875 40.765625 55.71875 27.296875 
Q 55.71875 13.875 49.015625 6.21875 
Q 42.328125 -1.421875 30.609375 -1.421875 
Q 18.84375 -1.421875 12.171875 6.21875 
Q 5.515625 13.875 5.515625 27.296875 
Q 5.515625 40.765625 12.171875 48.375 
Q 18.84375 56 30.609375 56 
z
" id="DejaVuSans-6f"/>
      <path d="M 18.3125 70.21875 
L 18.3125 54.6875 
L 36.8125 54.6875 
L 36.8125 47.703125 
L 18.3125 47.703125 
L 18.3125 18.015625 
Q 18.3125 11.328125 20.140625 9.421875 
Q 21.96875 7.515625 27.59375 7.515625 
L 36.8125 7.515625 
L 36.8125 0 
L 27.59375 0 
Q 17.1875 0 13.234375 3.875 
Q 9.28125 7.765625 9.28125 18.015625 
L 9.28125 47.703125 
L 2.6875 47.703125 
L 2.6875 54.6875 
L 9.28125 54.6875 
L 9.28125 70.21875 
z
" id="DejaVuSans-74"/>
      <path d="M 54.890625 54.6875 
L 35.109375 28.078125 
L 55.90625 0 
L 45.3125 0 
L 29.390625 21.484375 
L 13.484375 0 
L 2.875 0 
L 24.125 28.609375 
L 4.6875 54.6875 
L 15.28125 54.6875 
L 29.78125 35.203125 
L 44.28125 54.6875 
z
" id="DejaVuSans-78"/>
     </defs>
     <g transform="translate(20.2375 186.149875)rotate(-90)scale(0.1 -0.1)">
      <use xlink:href="#DejaVuSans-72"/>
      <use x="41.082031" xlink:href="#DejaVuSans-6f"/>
      <use x="102.263672" xlink:href="#DejaVuSans-74"/>
      <use x="141.472656" xlink:href="#DejaVuSans-20"/>
      <use x="173.259766" xlink:href="#DejaVuSans-78"/>
     </g>
    </g>
   </g>
   <g id="line2d_101">
    <path clip-path="url(#p41d821b989)" d="M 73.832727 209.948106 
L 74.523492 244.985964 
L 75.214926 227.744193 
L 75.90502 214.983912 
L 76.592626 196.110526 
L 77.283397 218.288559 
L 77.974161 190.374077 
L 78.664925 181.034145 
L 79.355563 193.949834 
L 80.046327 145.715346 
L 80.737091 222.771568 
L 81.427856 207.475684 
L 82.121046 184.791674 
L 82.81181 195.306603 
L 83.502574 241.54893 
L 84.193339 198.667786 
L 84.885317 171.527408 
L 85.576087 207.928529 
L 86.266845 183.700901 
L 86.957609 207.415751 
L 87.645678 220.97163 
L 88.336449 210.988436 
L 89.027213 216.669667 
L 89.717977 177.000339 
L 90.406648 176.964884 
M 91.788177 223.635819 
L 92.478941 266.335977 
M 94.550073 246.809651 
L 95.240837 235.805323 
L 95.932216 235.686563 
M 97.313745 171.357472 
L 98.004515 137.363288 
L 98.69634 109.378901 
L 99.387113 127.435501 
L 100.077877 134.087074 
M 103.530388 295.488 
L 104.221159 258.401221 
L 104.91077 253.444186 
L 105.601534 261.859409 
L 106.292299 242.640167 
M 108.366184 211.413553 
L 109.056955 145.098996 
L 109.747719 90.880924 
L 110.439147 116.542871 
M 113.892725 245.344268 
L 114.583489 252.678259 
L 115.274253 269.248846 
L 115.964375 246.540244 
L 116.65514 274.445382 
L 117.345904 258.947258 
M 118.727419 214.710935 
L 119.418184 218.868794 
L 120.108955 198.396883 
L 121.492955 120.835485 
M 122.874484 133.431687 
L 123.565263 165.751558 
L 124.256745 183.811999 
M 127.706996 290.171721 
L 128.39776 291.835624 
L 129.088525 191.912067 
L 129.780371 181.984378 
L 130.471135 182.900448 
L 131.1619 139.575727 
L 131.85267 155.160414 
L 132.545623 158.688685 
L 133.236388 140.811634 
L 133.927152 157.543484 
L 134.617916 180.162052 
L 135.306719 207.482122 
L 135.997483 212.38705 
L 136.688248 251.045375 
L 137.379012 236.520487 
L 138.069776 282.652412 
L 138.758508 250.95951 
L 139.449273 270.336714 
L 140.140037 238.714729 
L 140.830801 227.691091 
L 141.523996 210.341812 
M 142.905525 124.319512 
L 143.596289 150.435776 
L 144.286767 121.817199 
L 144.977531 157.527463 
L 145.668295 212.533293 
L 146.35906 248.149773 
M 149.811687 266.183705 
L 150.502452 182.581156 
L 151.193216 141.738558 
L 151.88398 122.848849 
L 152.575826 126.503203 
M 153.957362 171.555046 
L 154.648118 198.744069 
M 156.717968 272.879686 
L 157.408739 272.650353 
L 158.099666 264.145805 
L 158.790424 269.387388 
L 159.481195 211.823093 
M 162.247225 103.994822 
L 162.937989 154.319006 
L 163.627087 161.194312 
M 165.008615 225.817565 
L 165.69938 275.905468 
M 167.770322 258.266135 
L 168.461086 238.633686 
L 169.151851 230.18121 
L 169.843973 182.940071 
L 170.534753 160.383051 
L 171.225502 106.068041 
L 171.916266 93.187453 
M 173.298795 199.83925 
L 173.988964 216.947215 
L 174.679729 217.363113 
L 175.368719 208.815602 
M 178.132333 266.822768 
L 178.823097 229.738888 
L 179.513862 176.203482 
L 180.204626 139.241332 
M 181.588771 132.972119 
L 182.279529 171.347886 
M 183.658693 201.401527 
L 184.349457 254.427267 
L 185.040221 290.023431 
L 185.730986 283.582136 
M 187.112145 235.431544 
L 187.80291 180.657697 
L 188.49368 146.075496 
M 194.710193 275.900291 
L 195.400951 258.128686 
L 196.78248 211.548168 
L 197.47528 182.645627 
L 198.166037 202.754848 
L 198.856808 165.612021 
L 199.547572 110.035139 
L 200.238337 89.501127 
M 201.620822 196.546709 
L 202.311586 242.425764 
M 203.69088 262.178778 
L 204.381644 263.055161 
L 205.072415 255.499769 
L 205.76318 263.138013 
M 207.144912 178.650175 
L 208.52642 90.934014 
L 209.219434 110.204095 
L 209.910833 154.036113 
L 211.291726 207.863971 
L 211.981532 251.189661 
L 212.672296 255.546783 
L 213.363061 288.236406 
L 214.053825 268.713573 
M 215.434456 194.951089 
L 216.125229 209.413012 
L 216.815991 158.925975 
M 218.199407 123.564843 
L 218.890171 112.51675 
L 219.580936 175.16508 
L 220.272716 227.454679 
M 221.654251 270.449084 
L 222.345016 282.55613 
L 223.036742 271.652328 
L 223.727506 291.729519 
L 224.41827 254.108684 
L 225.109035 244.838664 
L 225.799292 251.98044 
L 226.490056 216.721819 
L 227.871591 197.769252 
L 228.562668 163.828184 
L 229.253439 142.012368 
L 229.944197 125.220515 
L 230.634968 157.252893 
L 231.326137 161.127667 
M 232.707666 154.354953 
L 233.39843 160.8638 
L 234.089354 217.363258 
L 234.783368 245.161413 
L 235.474132 216.276761 
L 236.164896 217.287699 
L 236.85566 262.824308 
L 237.548874 252.783812 
M 238.930409 278.385366 
L 239.621173 232.57352 
L 240.303576 231.877565 
M 242.375876 231.856208 
L 243.066714 158.889963 
L 243.757478 127.833637 
L 244.448243 142.605096 
L 245.139014 110.770576 
L 245.830465 158.092964 
L 246.521229 176.43255 
L 247.211993 168.257214 
L 247.902757 184.486206 
L 248.594472 167.796079 
L 249.285244 184.456856 
L 249.976007 183.544344 
L 250.666771 193.138539 
L 251.358236 221.641722 
L 252.049 239.35474 
M 255.49783 244.186955 
L 256.188594 243.870867 
L 256.879617 234.14237 
L 257.570381 219.559119 
L 258.26116 196.76145 
M 259.64449 203.48992 
L 260.335263 194.38574 
L 261.026026 171.055561 
L 261.71679 137.927857 
L 262.407215 121.10561 
L 263.097979 118.638144 
L 263.788744 100.814451 
L 264.479508 147.049325 
M 274.151726 194.817054 
L 274.842491 174.992934 
L 275.533255 136.260642 
M 299.711232 139.794608 
L 300.401996 189.020094 
M 320.435241 177.925875 
L 321.126005 181.263716 
M 325.959699 210.572777 
L 326.650469 184.107166 
M 330.107021 210.405465 
L 330.797792 254.121847 
L 331.488556 219.162757 
L 332.179321 167.23229 
L 332.870085 144.430973 
M 339.776834 169.41279 
L 340.467598 177.532108 
M 348.061496 141.24066 
L 348.752267 187.648981 
M 363.258857 176.743301 
L 363.949877 174.779196 
L 364.640546 194.795512 
M 366.712845 223.478356 
L 367.404322 178.921625 
L 368.095087 179.434245 
L 368.785851 191.857575 
L 369.476615 183.435083 
M 372.240651 265.769018 
L 372.932395 201.164647 
M 383.292963 167.845429 
L 383.983311 172.292416 
L 384.674075 172.725889 
L 385.364839 217.704299 
M 388.126497 188.660535 
L 388.817261 185.754274 
M 398.487273 195.527196 
" style="fill:none;stroke:#ff0000;stroke-linecap:square;"/>
   </g>
   <g id="line2d_102">
    <path clip-path="url(#p41d821b989)" d="M 73.832727 195.412289 
L 74.523492 174.421402 
L 75.214926 199.992967 
L 75.90502 215.657897 
L 76.592626 202.997807 
L 77.283397 216.425904 
L 77.974161 201.500611 
L 78.664925 183.218132 
L 79.355563 208.146453 
L 80.046327 200.207427 
L 80.737091 190.427663 
L 81.427856 216.864949 
L 82.121046 198.947219 
L 82.81181 192.053644 
L 83.502574 222.746631 
L 84.193339 206.428501 
L 84.885317 199.886886 
L 85.576087 207.892468 
L 86.266845 193.007596 
L 86.957609 193.330413 
L 87.645678 208.620691 
L 88.336449 200.253522 
L 89.027213 206.424228 
L 89.717977 182.823775 
L 90.406648 174.756824 
M 91.788177 231.748516 
L 92.478941 233.862077 
M 94.550073 213.510263 
L 95.240837 224.914967 
L 95.932216 211.008165 
M 97.313745 174.00678 
L 98.004515 155.867731 
L 98.69634 132.239669 
L 100.077877 137.956441 
M 103.530388 247.115724 
L 104.221159 233.027395 
L 104.91077 256.284266 
L 105.601534 256.762795 
L 106.292299 232.304076 
M 108.366184 189.014061 
L 109.056955 151.204285 
L 109.747719 126.968836 
L 110.439147 134.229301 
M 113.892725 240.912605 
L 114.583489 254.638587 
L 115.274253 263.264327 
L 115.964375 245.652631 
L 116.65514 238.233208 
L 117.345904 237.755664 
M 118.727419 228.47567 
L 119.418184 213.103501 
L 120.108955 202.695098 
L 121.492955 136.791199 
M 122.874484 130.729563 
L 123.565263 162.31422 
L 124.256745 183.769513 
M 127.706996 272.128676 
L 128.39776 254.504082 
L 129.780371 199.974859 
L 130.471135 186.868022 
L 131.1619 160.949828 
L 131.85267 146.702508 
L 132.545623 158.300791 
L 133.236388 138.845272 
L 133.927152 148.171616 
L 134.617916 178.055998 
L 135.306719 198.392648 
L 135.997483 194.327238 
L 136.688248 223.307098 
L 137.379012 265.501667 
L 138.069776 263.099277 
L 138.758508 255.765204 
L 139.449273 237.357953 
L 140.140037 237.213276 
L 140.830801 214.173722 
L 141.523996 200.540569 
M 142.905525 128.306591 
L 143.596289 128.080626 
L 144.286767 133.33572 
L 144.977531 153.316701 
L 145.668295 204.576213 
L 146.35906 245.390273 
M 149.811687 209.07467 
L 150.502452 182.42627 
L 151.193216 148.484256 
L 151.88398 122.386696 
L 152.575826 137.328327 
M 153.957362 167.372351 
L 154.648118 203.368315 
M 156.717968 278.213945 
L 157.408739 272.045389 
L 158.099666 260.956769 
L 158.790424 254.069437 
L 159.481195 220.499279 
M 162.247225 138.260536 
L 162.937989 149.466911 
L 163.627087 157.446619 
M 165.008615 214.507067 
L 165.69938 245.03796 
M 167.770322 245.346027 
L 169.151851 215.632157 
L 169.843973 193.994177 
L 170.534753 157.297226 
L 171.225502 132.129677 
L 171.916266 118.515722 
M 173.298795 194.62651 
L 174.679729 217.036367 
L 175.368719 247.662868 
M 178.132333 247.555641 
L 178.823097 235.702484 
L 179.513862 181.240703 
L 180.204626 154.380433 
M 181.588771 132.940787 
L 182.279529 168.108511 
M 183.658693 188.471064 
L 184.349457 250.407442 
L 185.040221 273.18066 
L 185.730986 264.014444 
M 187.112145 227.680685 
L 187.80291 187.746678 
L 188.49368 141.235206 
M 194.710193 270.185301 
L 195.400951 245.594406 
L 196.091715 233.407696 
L 196.78248 211.500616 
L 197.47528 184.163982 
L 198.166037 199.883116 
L 198.856808 179.917766 
L 199.547572 128.143604 
L 200.238337 104.791799 
M 201.620822 184.006336 
L 202.311586 222.367029 
M 203.69088 250.023283 
L 204.381644 259.470905 
L 205.072415 255.634973 
L 205.76318 259.845973 
M 207.144912 181.321123 
L 208.52642 131.713873 
L 209.219434 127.54116 
L 210.600962 178.600382 
L 211.291726 195.753058 
L 212.672296 255.956707 
L 213.363061 255.270831 
L 214.053825 248.350342 
M 215.434456 214.787183 
L 216.125229 198.205616 
L 216.815991 157.482189 
M 218.199407 123.647321 
L 218.890171 119.131652 
L 220.272716 202.457795 
M 221.654251 242.778468 
L 222.345016 266.472813 
L 223.036742 266.184359 
L 223.727506 259.106103 
L 224.41827 254.366631 
L 225.109035 244.689224 
L 225.799292 240.893278 
L 227.180827 200.199046 
L 227.871591 174.284766 
L 228.562668 180.971962 
L 229.253439 157.017779 
L 229.944197 141.666179 
L 231.326137 175.506459 
M 232.707666 180.565654 
L 233.39843 189.344949 
L 234.783368 222.547322 
L 235.474132 210.733702 
L 236.164896 205.6226 
L 236.85566 228.053665 
L 237.548874 256.467836 
M 238.930409 244.538014 
L 239.621173 209.85353 
L 240.303576 235.254728 
M 242.375876 216.694467 
L 243.066714 178.640621 
L 243.757478 168.552298 
L 244.448243 162.85243 
L 245.139014 160.094465 
L 245.830465 171.408592 
L 246.521229 180.677001 
L 247.211993 187.115845 
L 247.902757 178.32111 
L 248.594472 172.73378 
L 249.285244 187.06821 
L 249.976007 180.821012 
L 250.666771 182.613877 
L 251.358236 203.075619 
L 252.049 217.975819 
M 255.49783 240.935098 
L 256.188594 238.983331 
L 256.879617 226.136816 
L 257.570381 209.153638 
L 258.26116 203.790559 
M 259.64449 203.847161 
L 260.335263 212.452228 
L 261.026026 186.375808 
L 261.71679 155.540145 
L 262.407215 136.291988 
L 263.097979 140.711843 
L 263.788744 158.167034 
L 264.479508 157.130738 
M 274.151726 203.242384 
L 275.533255 149.662865 
M 299.711232 150.167851 
L 300.401996 182.562008 
M 320.435241 181.9314 
L 321.126005 189.458394 
M 325.959699 209.345392 
L 326.650469 186.929442 
M 330.107021 199.316531 
L 330.797792 213.735981 
L 331.488556 207.13236 
L 332.179321 186.793848 
L 332.870085 145.581549 
M 339.776834 182.816849 
L 340.467598 166.992957 
M 348.061496 154.150686 
L 348.752267 179.548388 
M 363.258857 154.236375 
L 363.949877 170.182843 
L 364.640546 193.360837 
M 366.712845 226.034365 
L 367.404322 208.976026 
L 368.095087 195.02436 
L 368.785851 192.810227 
L 369.476615 184.294268 
M 372.240651 230.671159 
L 372.932395 217.956392 
M 383.292963 184.96691 
L 383.983311 170.854704 
L 384.674075 169.197718 
L 385.364839 178.460489 
M 388.126497 187.569019 
L 388.817261 183.778405 
M 398.487273 202.011657 
" style="fill:none;stroke:#0000ff;stroke-linecap:square;"/>
   </g>
   <g id="line2d_103">
    <path clip-path="url(#p41d821b989)" d="M 93.168538 248.400723 
L 93.85931 228.358243 
M 100.768641 168.998402 
L 101.458095 220.96438 
L 102.148859 243.69318 
L 102.839623 233.274149 
M 106.983069 209.919549 
L 107.67542 218.028772 
M 111.129911 159.434217 
L 111.820676 177.710658 
L 113.201961 220.793178 
M 124.94715 203.807642 
L 125.637915 245.984591 
M 147.047377 247.076138 
L 147.738141 230.564142 
L 148.428912 242.585045 
L 149.11967 232.803558 
M 155.33644 235.245008 
L 156.027204 260.341455 
M 160.171959 182.66128 
L 160.865696 155.981593 
L 161.55646 141.728563 
M 166.388793 244.743011 
L 167.079558 240.786089 
M 191.259374 192.098971 
L 191.94738 203.72996 
L 192.638151 222.219078 
L 193.328915 230.950353 
L 194.01968 253.714502 
M 240.99434 228.973915 
L 241.685105 241.851217 
M 254.116301 233.682381 
L 254.807065 233.954788 
M 265.168327 166.239791 
L 267.240627 255.186734 
L 267.931391 255.62816 
M 269.31247 224.106003 
L 270.003241 199.961806 
L 270.694702 212.991636 
L 271.387287 200.958693 
L 272.078052 174.575886 
M 276.224019 146.827824 
L 276.914999 162.820277 
L 278.296528 210.760666 
L 278.987299 242.686235 
L 279.675411 240.062582 
L 280.366169 213.336664 
L 281.056933 153.114649 
L 281.747704 120.649174 
L 282.439865 114.099035 
L 283.821394 241.249598 
L 284.512158 225.502269 
L 285.2016 186.751511 
L 286.583128 152.245909 
L 287.273899 162.778582 
L 287.965319 199.23786 
L 288.656083 251.556065 
L 289.346848 250.452217 
L 290.037619 239.844874 
L 290.727619 247.198954 
L 291.418383 224.835586 
L 292.109147 148.527523 
L 292.799912 137.668993 
L 293.492838 156.104056 
L 294.183602 157.988844 
L 294.874897 161.174422 
L 295.565129 168.687824 
L 296.94481 96.888524 
L 297.635575 81.664186 
L 298.326347 87.427474 
L 299.017111 97.18529 
M 301.09276 174.342527 
L 301.783525 175.506826 
L 302.472105 190.742214 
L 303.16287 176.382169 
L 303.853634 107.75281 
L 304.544398 53.568 
L 305.236103 74.359003 
L 305.926867 127.105137 
M 307.308396 152.118565 
L 307.997679 124.513276 
L 308.688444 136.997208 
L 309.379215 139.59029 
L 310.069979 148.414709 
L 310.762845 148.218816 
L 311.453609 177.93659 
M 312.835137 132.023247 
L 313.524639 94.585498 
L 314.906175 137.028648 
L 315.59694 142.348991 
M 316.977643 70.470631 
L 317.668408 67.97392 
M 319.054195 135.794791 
L 319.74447 165.145592 
M 321.813621 188.839436 
L 323.195149 209.499703 
M 324.578163 183.552925 
L 325.268928 196.008839 
M 327.344188 107.716424 
L 328.034952 54.304077 
M 333.56107 123.101524 
L 334.251834 157.277005 
L 334.942599 175.260392 
L 335.633363 157.20804 
M 337.013926 110.711838 
L 337.704691 110.919507 
L 338.395455 164.787979 
L 339.086069 188.29041 
M 341.158369 137.567623 
L 341.847481 98.783078 
L 342.538237 114.143899 
L 343.229568 133.823424 
M 344.607811 174.326845 
L 345.298576 170.482571 
L 345.98934 153.940781 
M 349.443031 200.358475 
L 350.133119 166.332681 
L 350.82389 115.450968 
L 351.514654 153.990508 
M 352.896742 138.67522 
L 353.587498 118.463228 
L 354.278297 114.579392 
L 354.969035 153.354073 
L 355.66224 173.270181 
L 356.353004 153.161005 
L 357.043769 163.350137 
L 357.734533 193.687219 
L 358.422891 203.043026 
L 359.804426 159.823237 
L 360.495191 169.118317 
L 361.186558 194.340152 
L 361.877322 205.811326 
L 362.568093 188.069867 
M 365.331316 196.005231 
L 366.022081 215.768615 
M 370.168351 178.618129 
L 370.859122 179.571383 
L 371.549886 186.610734 
M 376.38717 209.389907 
L 377.077934 225.427618 
L 377.768698 217.573984 
M 379.839748 190.94964 
L 380.530512 195.193064 
L 381.220664 202.131257 
L 381.911435 206.892476 
L 382.602199 193.304926 
M 386.055604 198.817463 
L 386.744968 199.407566 
L 387.435732 194.702584 
M 389.506835 201.48879 
L 390.197614 216.775118 
L 390.888363 235.269798 
M 392.269747 185.391639 
L 392.960511 212.113514 
M 394.34204 218.849369 
L 395.03298 210.845912 
M 396.414509 207.37043 
L 397.105273 206.058502 
L 397.796044 205.537911 
L 397.796044 205.537911 
" style="fill:none;stroke:#008000;stroke-linecap:square;"/>
   </g>
   <g id="patch_3">
    <path d="M 57.6 307.584 
L 57.6 41.472 
" style="fill:none;stroke:#000000;stroke-linecap:square;stroke-linejoin:miter;stroke-width:0.8;"/>
   </g>
   <g id="patch_4">
    <path d="M 414.72 307.584 
L 414.72 41.472 
" style="fill:none;stroke:#000000;stroke-linecap:square;stroke-linejoin:miter;stroke-width:0.8;"/>
   </g>
   <g id="patch_5">
    <path d="M 57.6 307.584 
L 414.72 307.584 
" style="fill:none;stroke:#000000;stroke-linecap:square;stroke-linejoin:miter;stroke-width:0.8;"/>
   </g>
   <g id="patch_6">
    <path d="M 57.6 41.472 
L 414.72 41.472 
" style="fill:none;stroke:#000000;stroke-linecap:square;stroke-linejoin:miter;stroke-width:0.8;"/>
   </g>
   <g id="text_12">
    <!-- Rel Gt Rot X Plot -->
    <defs>
     <path d="M 44.390625 34.1875 
Q 47.5625 33.109375 50.5625 29.59375 
Q 53.5625 26.078125 56.59375 19.921875 
L 66.609375 0 
L 56 0 
L 46.6875 18.703125 
Q 43.0625 26.03125 39.671875 28.421875 
Q 36.28125 30.8125 30.421875 30.8125 
L 19.671875 30.8125 
L 19.671875 0 
L 9.8125 0 
L 9.8125 72.90625 
L 32.078125 72.90625 
Q 44.578125 72.90625 50.734375 67.671875 
Q 56.890625 62.453125 56.890625 51.90625 
Q 56.890625 45.015625 53.6875 40.46875 
Q 50.484375 35.9375 44.390625 34.1875 
z
M 19.671875 64.796875 
L 19.671875 38.921875 
L 32.078125 38.921875 
Q 39.203125 38.921875 42.84375 42.21875 
Q 46.484375 45.515625 46.484375 51.90625 
Q 46.484375 58.296875 42.84375 61.546875 
Q 39.203125 64.796875 32.078125 64.796875 
z
" id="DejaVuSans-52"/>
     <path d="M 9.421875 75.984375 
L 18.40625 75.984375 
L 18.40625 0 
L 9.421875 0 
z
" id="DejaVuSans-6c"/>
     <path d="M 59.515625 10.40625 
L 59.515625 29.984375 
L 43.40625 29.984375 
L 43.40625 38.09375 
L 69.28125 38.09375 
L 69.28125 6.78125 
Q 63.578125 2.734375 56.6875 0.65625 
Q 49.8125 -1.421875 42 -1.421875 
Q 24.90625 -1.421875 15.25 8.5625 
Q 5.609375 18.5625 5.609375 36.375 
Q 5.609375 54.25 15.25 64.234375 
Q 24.90625 74.21875 42 74.21875 
Q 49.125 74.21875 55.546875 72.453125 
Q 61.96875 70.703125 67.390625 67.28125 
L 67.390625 56.78125 
Q 61.921875 61.421875 55.765625 63.765625 
Q 49.609375 66.109375 42.828125 66.109375 
Q 29.4375 66.109375 22.71875 58.640625 
Q 16.015625 51.171875 16.015625 36.375 
Q 16.015625 21.625 22.71875 14.15625 
Q 29.4375 6.6875 42.828125 6.6875 
Q 48.046875 6.6875 52.140625 7.59375 
Q 56.25 8.5 59.515625 10.40625 
z
" id="DejaVuSans-47"/>
     <path d="M 6.296875 72.90625 
L 16.890625 72.90625 
L 35.015625 45.796875 
L 53.21875 72.90625 
L 63.8125 72.90625 
L 40.375 37.890625 
L 65.375 0 
L 54.78125 0 
L 34.28125 31 
L 13.625 0 
L 2.984375 0 
L 29 38.921875 
z
" id="DejaVuSans-58"/>
     <path d="M 19.671875 64.796875 
L 19.671875 37.40625 
L 32.078125 37.40625 
Q 38.96875 37.40625 42.71875 40.96875 
Q 46.484375 44.53125 46.484375 51.125 
Q 46.484375 57.671875 42.71875 61.234375 
Q 38.96875 64.796875 32.078125 64.796875 
z
M 9.8125 72.90625 
L 32.078125 72.90625 
Q 44.34375 72.90625 50.609375 67.359375 
Q 56.890625 61.8125 56.890625 51.125 
Q 56.890625 40.328125 50.609375 34.8125 
Q 44.34375 29.296875 32.078125 29.296875 
L 19.671875 29.296875 
L 19.671875 0 
L 9.8125 0 
z
" id="DejaVuSans-50"/>
    </defs>
    <g transform="translate(186.400312 35.472)scale(0.12 -0.12)">
     <use xlink:href="#DejaVuSans-52"/>
     <use x="69.419922" xlink:href="#DejaVuSans-65"/>
     <use x="130.943359" xlink:href="#DejaVuSans-6c"/>
     <use x="158.726562" xlink:href="#DejaVuSans-20"/>
     <use x="190.513672" xlink:href="#DejaVuSans-47"/>
     <use x="268.003906" xlink:href="#DejaVuSans-74"/>
     <use x="307.212891" xlink:href="#DejaVuSans-20"/>
     <use x="339" xlink:href="#DejaVuSans-52"/>
     <use x="408.419922" xlink:href="#DejaVuSans-6f"/>
     <use x="469.601562" xlink:href="#DejaVuSans-74"/>
     <use x="508.810547" xlink:href="#DejaVuSans-20"/>
     <use x="540.597656" xlink:href="#DejaVuSans-58"/>
     <use x="609.103516" xlink:href="#DejaVuSans-20"/>
     <use x="640.890625" xlink:href="#DejaVuSans-50"/>
     <use x="701.193359" xlink:href="#DejaVuSans-6c"/>
     <use x="728.976562" xlink:href="#DejaVuSans-6f"/>
     <use x="790.158203" xlink:href="#DejaVuSans-74"/>
    </g>
   </g>
  </g>
 </g>
 <defs>
  <clipPath id="p41d821b989">
   <rect height="266.112" width="357.12" x="57.6" y="41.472"/>
  </clipPath>
 </defs>
</svg>
