<?xml version="1.0" encoding="utf-8" standalone="no"?>
<!DOCTYPE svg PUBLIC "-//W3C//DTD SVG 1.1//EN"
  "http://www.w3.org/Graphics/SVG/1.1/DTD/svg11.dtd">
<!-- Created with matplotlib (http://matplotlib.org/) -->
<svg height="345.6pt" version="1.1" viewBox="0 0 460.8 345.6" width="460.8pt" xmlns="http://www.w3.org/2000/svg" xmlns:xlink="http://www.w3.org/1999/xlink">
 <defs>
  <style type="text/css">
*{stroke-linecap:butt;stroke-linejoin:round;}
  </style>
 </defs>
 <g id="figure_1">
  <g id="patch_1">
   <path d="M 0 345.6 
L 460.8 345.6 
L 460.8 0 
L 0 0 
z
" style="fill:#ffffff;"/>
  </g>
  <g id="axes_1">
   <g id="patch_2">
    <path d="M 57.6 307.584 
L 414.72 307.584 
L 414.72 41.472 
L 57.6 41.472 
z
" style="fill:#ffffff;"/>
   </g>
   <g id="matplotlib.axis_1">
    <g id="xtick_1">
     <g id="line2d_1">
      <path clip-path="url(#p9c49234ae2)" d="M 70.907601 307.584 
L 70.907601 41.472 
" style="fill:none;stroke:#b0b0b0;stroke-linecap:square;stroke-width:0.8;"/>
     </g>
     <g id="line2d_2">
      <defs>
       <path d="M 0 0 
L 0 3.5 
" id="m34fe3e9b6b" style="stroke:#000000;stroke-width:0.8;"/>
      </defs>
      <g>
       <use style="stroke:#000000;stroke-width:0.8;" x="70.907601" xlink:href="#m34fe3e9b6b" y="307.584"/>
      </g>
     </g>
     <g id="text_1">
      <!-- 0 -->
      <defs>
       <path d="M 31.78125 66.40625 
Q 24.171875 66.40625 20.328125 58.90625 
Q 16.5 51.421875 16.5 36.375 
Q 16.5 21.390625 20.328125 13.890625 
Q 24.171875 6.390625 31.78125 6.390625 
Q 39.453125 6.390625 43.28125 13.890625 
Q 47.125 21.390625 47.125 36.375 
Q 47.125 51.421875 43.28125 58.90625 
Q 39.453125 66.40625 31.78125 66.40625 
z
M 31.78125 74.21875 
Q 44.046875 74.21875 50.515625 64.515625 
Q 56.984375 54.828125 56.984375 36.375 
Q 56.984375 17.96875 50.515625 8.265625 
Q 44.046875 -1.421875 31.78125 -1.421875 
Q 19.53125 -1.421875 13.0625 8.265625 
Q 6.59375 17.96875 6.59375 36.375 
Q 6.59375 54.828125 13.0625 64.515625 
Q 19.53125 74.21875 31.78125 74.21875 
z
" id="DejaVuSans-30"/>
      </defs>
      <g transform="translate(67.726351 322.182437)scale(0.1 -0.1)">
       <use xlink:href="#DejaVuSans-30"/>
      </g>
     </g>
    </g>
    <g id="xtick_2">
     <g id="line2d_3">
      <path clip-path="url(#p9c49234ae2)" d="M 139.981955 307.584 
L 139.981955 41.472 
" style="fill:none;stroke:#b0b0b0;stroke-linecap:square;stroke-width:0.8;"/>
     </g>
     <g id="line2d_4">
      <g>
       <use style="stroke:#000000;stroke-width:0.8;" x="139.981955" xlink:href="#m34fe3e9b6b" y="307.584"/>
      </g>
     </g>
     <g id="text_2">
      <!-- 10 -->
      <defs>
       <path d="M 12.40625 8.296875 
L 28.515625 8.296875 
L 28.515625 63.921875 
L 10.984375 60.40625 
L 10.984375 69.390625 
L 28.421875 72.90625 
L 38.28125 72.90625 
L 38.28125 8.296875 
L 54.390625 8.296875 
L 54.390625 0 
L 12.40625 0 
z
" id="DejaVuSans-31"/>
      </defs>
      <g transform="translate(133.619455 322.182437)scale(0.1 -0.1)">
       <use xlink:href="#DejaVuSans-31"/>
       <use x="63.623047" xlink:href="#DejaVuSans-30"/>
      </g>
     </g>
    </g>
    <g id="xtick_3">
     <g id="line2d_5">
      <path clip-path="url(#p9c49234ae2)" d="M 209.056309 307.584 
L 209.056309 41.472 
" style="fill:none;stroke:#b0b0b0;stroke-linecap:square;stroke-width:0.8;"/>
     </g>
     <g id="line2d_6">
      <g>
       <use style="stroke:#000000;stroke-width:0.8;" x="209.056309" xlink:href="#m34fe3e9b6b" y="307.584"/>
      </g>
     </g>
     <g id="text_3">
      <!-- 20 -->
      <defs>
       <path d="M 19.1875 8.296875 
L 53.609375 8.296875 
L 53.609375 0 
L 7.328125 0 
L 7.328125 8.296875 
Q 12.9375 14.109375 22.625 23.890625 
Q 32.328125 33.6875 34.8125 36.53125 
Q 39.546875 41.84375 41.421875 45.53125 
Q 43.3125 49.21875 43.3125 52.78125 
Q 43.3125 58.59375 39.234375 62.25 
Q 35.15625 65.921875 28.609375 65.921875 
Q 23.96875 65.921875 18.8125 64.3125 
Q 13.671875 62.703125 7.8125 59.421875 
L 7.8125 69.390625 
Q 13.765625 71.78125 18.9375 73 
Q 24.125 74.21875 28.421875 74.21875 
Q 39.75 74.21875 46.484375 68.546875 
Q 53.21875 62.890625 53.21875 53.421875 
Q 53.21875 48.921875 51.53125 44.890625 
Q 49.859375 40.875 45.40625 35.40625 
Q 44.1875 33.984375 37.640625 27.21875 
Q 31.109375 20.453125 19.1875 8.296875 
z
" id="DejaVuSans-32"/>
      </defs>
      <g transform="translate(202.693809 322.182437)scale(0.1 -0.1)">
       <use xlink:href="#DejaVuSans-32"/>
       <use x="63.623047" xlink:href="#DejaVuSans-30"/>
      </g>
     </g>
    </g>
    <g id="xtick_4">
     <g id="line2d_7">
      <path clip-path="url(#p9c49234ae2)" d="M 278.130663 307.584 
L 278.130663 41.472 
" style="fill:none;stroke:#b0b0b0;stroke-linecap:square;stroke-width:0.8;"/>
     </g>
     <g id="line2d_8">
      <g>
       <use style="stroke:#000000;stroke-width:0.8;" x="278.130663" xlink:href="#m34fe3e9b6b" y="307.584"/>
      </g>
     </g>
     <g id="text_4">
      <!-- 30 -->
      <defs>
       <path d="M 40.578125 39.3125 
Q 47.65625 37.796875 51.625 33 
Q 55.609375 28.21875 55.609375 21.1875 
Q 55.609375 10.40625 48.1875 4.484375 
Q 40.765625 -1.421875 27.09375 -1.421875 
Q 22.515625 -1.421875 17.65625 -0.515625 
Q 12.796875 0.390625 7.625 2.203125 
L 7.625 11.71875 
Q 11.71875 9.328125 16.59375 8.109375 
Q 21.484375 6.890625 26.8125 6.890625 
Q 36.078125 6.890625 40.9375 10.546875 
Q 45.796875 14.203125 45.796875 21.1875 
Q 45.796875 27.640625 41.28125 31.265625 
Q 36.765625 34.90625 28.71875 34.90625 
L 20.21875 34.90625 
L 20.21875 43.015625 
L 29.109375 43.015625 
Q 36.375 43.015625 40.234375 45.921875 
Q 44.09375 48.828125 44.09375 54.296875 
Q 44.09375 59.90625 40.109375 62.90625 
Q 36.140625 65.921875 28.71875 65.921875 
Q 24.65625 65.921875 20.015625 65.03125 
Q 15.375 64.15625 9.8125 62.3125 
L 9.8125 71.09375 
Q 15.4375 72.65625 20.34375 73.4375 
Q 25.25 74.21875 29.59375 74.21875 
Q 40.828125 74.21875 47.359375 69.109375 
Q 53.90625 64.015625 53.90625 55.328125 
Q 53.90625 49.265625 50.4375 45.09375 
Q 46.96875 40.921875 40.578125 39.3125 
z
" id="DejaVuSans-33"/>
      </defs>
      <g transform="translate(271.768163 322.182437)scale(0.1 -0.1)">
       <use xlink:href="#DejaVuSans-33"/>
       <use x="63.623047" xlink:href="#DejaVuSans-30"/>
      </g>
     </g>
    </g>
    <g id="xtick_5">
     <g id="line2d_9">
      <path clip-path="url(#p9c49234ae2)" d="M 347.205016 307.584 
L 347.205016 41.472 
" style="fill:none;stroke:#b0b0b0;stroke-linecap:square;stroke-width:0.8;"/>
     </g>
     <g id="line2d_10">
      <g>
       <use style="stroke:#000000;stroke-width:0.8;" x="347.205016" xlink:href="#m34fe3e9b6b" y="307.584"/>
      </g>
     </g>
     <g id="text_5">
      <!-- 40 -->
      <defs>
       <path d="M 37.796875 64.3125 
L 12.890625 25.390625 
L 37.796875 25.390625 
z
M 35.203125 72.90625 
L 47.609375 72.90625 
L 47.609375 25.390625 
L 58.015625 25.390625 
L 58.015625 17.1875 
L 47.609375 17.1875 
L 47.609375 0 
L 37.796875 0 
L 37.796875 17.1875 
L 4.890625 17.1875 
L 4.890625 26.703125 
z
" id="DejaVuSans-34"/>
      </defs>
      <g transform="translate(340.842516 322.182437)scale(0.1 -0.1)">
       <use xlink:href="#DejaVuSans-34"/>
       <use x="63.623047" xlink:href="#DejaVuSans-30"/>
      </g>
     </g>
    </g>
    <g id="xtick_6">
     <g id="line2d_11">
      <path clip-path="url(#p9c49234ae2)" d="M 84.722472 307.584 
L 84.722472 41.472 
" style="fill:none;stroke:#b0b0b0;stroke-linecap:square;stroke-width:0.8;"/>
     </g>
     <g id="line2d_12">
      <defs>
       <path d="M 0 0 
L 0 2 
" id="mae96ea5431" style="stroke:#000000;stroke-width:0.6;"/>
      </defs>
      <g>
       <use style="stroke:#000000;stroke-width:0.6;" x="84.722472" xlink:href="#mae96ea5431" y="307.584"/>
      </g>
     </g>
    </g>
    <g id="xtick_7">
     <g id="line2d_13">
      <path clip-path="url(#p9c49234ae2)" d="M 98.537342 307.584 
L 98.537342 41.472 
" style="fill:none;stroke:#b0b0b0;stroke-linecap:square;stroke-width:0.8;"/>
     </g>
     <g id="line2d_14">
      <g>
       <use style="stroke:#000000;stroke-width:0.6;" x="98.537342" xlink:href="#mae96ea5431" y="307.584"/>
      </g>
     </g>
    </g>
    <g id="xtick_8">
     <g id="line2d_15">
      <path clip-path="url(#p9c49234ae2)" d="M 112.352213 307.584 
L 112.352213 41.472 
" style="fill:none;stroke:#b0b0b0;stroke-linecap:square;stroke-width:0.8;"/>
     </g>
     <g id="line2d_16">
      <g>
       <use style="stroke:#000000;stroke-width:0.6;" x="112.352213" xlink:href="#mae96ea5431" y="307.584"/>
      </g>
     </g>
    </g>
    <g id="xtick_9">
     <g id="line2d_17">
      <path clip-path="url(#p9c49234ae2)" d="M 126.167084 307.584 
L 126.167084 41.472 
" style="fill:none;stroke:#b0b0b0;stroke-linecap:square;stroke-width:0.8;"/>
     </g>
     <g id="line2d_18">
      <g>
       <use style="stroke:#000000;stroke-width:0.6;" x="126.167084" xlink:href="#mae96ea5431" y="307.584"/>
      </g>
     </g>
    </g>
    <g id="xtick_10">
     <g id="line2d_19">
      <path clip-path="url(#p9c49234ae2)" d="M 153.796826 307.584 
L 153.796826 41.472 
" style="fill:none;stroke:#b0b0b0;stroke-linecap:square;stroke-width:0.8;"/>
     </g>
     <g id="line2d_20">
      <g>
       <use style="stroke:#000000;stroke-width:0.6;" x="153.796826" xlink:href="#mae96ea5431" y="307.584"/>
      </g>
     </g>
    </g>
    <g id="xtick_11">
     <g id="line2d_21">
      <path clip-path="url(#p9c49234ae2)" d="M 167.611696 307.584 
L 167.611696 41.472 
" style="fill:none;stroke:#b0b0b0;stroke-linecap:square;stroke-width:0.8;"/>
     </g>
     <g id="line2d_22">
      <g>
       <use style="stroke:#000000;stroke-width:0.6;" x="167.611696" xlink:href="#mae96ea5431" y="307.584"/>
      </g>
     </g>
    </g>
    <g id="xtick_12">
     <g id="line2d_23">
      <path clip-path="url(#p9c49234ae2)" d="M 181.426567 307.584 
L 181.426567 41.472 
" style="fill:none;stroke:#b0b0b0;stroke-linecap:square;stroke-width:0.8;"/>
     </g>
     <g id="line2d_24">
      <g>
       <use style="stroke:#000000;stroke-width:0.6;" x="181.426567" xlink:href="#mae96ea5431" y="307.584"/>
      </g>
     </g>
    </g>
    <g id="xtick_13">
     <g id="line2d_25">
      <path clip-path="url(#p9c49234ae2)" d="M 195.241438 307.584 
L 195.241438 41.472 
" style="fill:none;stroke:#b0b0b0;stroke-linecap:square;stroke-width:0.8;"/>
     </g>
     <g id="line2d_26">
      <g>
       <use style="stroke:#000000;stroke-width:0.6;" x="195.241438" xlink:href="#mae96ea5431" y="307.584"/>
      </g>
     </g>
    </g>
    <g id="xtick_14">
     <g id="line2d_27">
      <path clip-path="url(#p9c49234ae2)" d="M 222.871179 307.584 
L 222.871179 41.472 
" style="fill:none;stroke:#b0b0b0;stroke-linecap:square;stroke-width:0.8;"/>
     </g>
     <g id="line2d_28">
      <g>
       <use style="stroke:#000000;stroke-width:0.6;" x="222.871179" xlink:href="#mae96ea5431" y="307.584"/>
      </g>
     </g>
    </g>
    <g id="xtick_15">
     <g id="line2d_29">
      <path clip-path="url(#p9c49234ae2)" d="M 236.68605 307.584 
L 236.68605 41.472 
" style="fill:none;stroke:#b0b0b0;stroke-linecap:square;stroke-width:0.8;"/>
     </g>
     <g id="line2d_30">
      <g>
       <use style="stroke:#000000;stroke-width:0.6;" x="236.68605" xlink:href="#mae96ea5431" y="307.584"/>
      </g>
     </g>
    </g>
    <g id="xtick_16">
     <g id="line2d_31">
      <path clip-path="url(#p9c49234ae2)" d="M 250.500921 307.584 
L 250.500921 41.472 
" style="fill:none;stroke:#b0b0b0;stroke-linecap:square;stroke-width:0.8;"/>
     </g>
     <g id="line2d_32">
      <g>
       <use style="stroke:#000000;stroke-width:0.6;" x="250.500921" xlink:href="#mae96ea5431" y="307.584"/>
      </g>
     </g>
    </g>
    <g id="xtick_17">
     <g id="line2d_33">
      <path clip-path="url(#p9c49234ae2)" d="M 264.315792 307.584 
L 264.315792 41.472 
" style="fill:none;stroke:#b0b0b0;stroke-linecap:square;stroke-width:0.8;"/>
     </g>
     <g id="line2d_34">
      <g>
       <use style="stroke:#000000;stroke-width:0.6;" x="264.315792" xlink:href="#mae96ea5431" y="307.584"/>
      </g>
     </g>
    </g>
    <g id="xtick_18">
     <g id="line2d_35">
      <path clip-path="url(#p9c49234ae2)" d="M 291.945533 307.584 
L 291.945533 41.472 
" style="fill:none;stroke:#b0b0b0;stroke-linecap:square;stroke-width:0.8;"/>
     </g>
     <g id="line2d_36">
      <g>
       <use style="stroke:#000000;stroke-width:0.6;" x="291.945533" xlink:href="#mae96ea5431" y="307.584"/>
      </g>
     </g>
    </g>
    <g id="xtick_19">
     <g id="line2d_37">
      <path clip-path="url(#p9c49234ae2)" d="M 305.760404 307.584 
L 305.760404 41.472 
" style="fill:none;stroke:#b0b0b0;stroke-linecap:square;stroke-width:0.8;"/>
     </g>
     <g id="line2d_38">
      <g>
       <use style="stroke:#000000;stroke-width:0.6;" x="305.760404" xlink:href="#mae96ea5431" y="307.584"/>
      </g>
     </g>
    </g>
    <g id="xtick_20">
     <g id="line2d_39">
      <path clip-path="url(#p9c49234ae2)" d="M 319.575275 307.584 
L 319.575275 41.472 
" style="fill:none;stroke:#b0b0b0;stroke-linecap:square;stroke-width:0.8;"/>
     </g>
     <g id="line2d_40">
      <g>
       <use style="stroke:#000000;stroke-width:0.6;" x="319.575275" xlink:href="#mae96ea5431" y="307.584"/>
      </g>
     </g>
    </g>
    <g id="xtick_21">
     <g id="line2d_41">
      <path clip-path="url(#p9c49234ae2)" d="M 333.390146 307.584 
L 333.390146 41.472 
" style="fill:none;stroke:#b0b0b0;stroke-linecap:square;stroke-width:0.8;"/>
     </g>
     <g id="line2d_42">
      <g>
       <use style="stroke:#000000;stroke-width:0.6;" x="333.390146" xlink:href="#mae96ea5431" y="307.584"/>
      </g>
     </g>
    </g>
    <g id="xtick_22">
     <g id="line2d_43">
      <path clip-path="url(#p9c49234ae2)" d="M 361.019887 307.584 
L 361.019887 41.472 
" style="fill:none;stroke:#b0b0b0;stroke-linecap:square;stroke-width:0.8;"/>
     </g>
     <g id="line2d_44">
      <g>
       <use style="stroke:#000000;stroke-width:0.6;" x="361.019887" xlink:href="#mae96ea5431" y="307.584"/>
      </g>
     </g>
    </g>
    <g id="xtick_23">
     <g id="line2d_45">
      <path clip-path="url(#p9c49234ae2)" d="M 374.834758 307.584 
L 374.834758 41.472 
" style="fill:none;stroke:#b0b0b0;stroke-linecap:square;stroke-width:0.8;"/>
     </g>
     <g id="line2d_46">
      <g>
       <use style="stroke:#000000;stroke-width:0.6;" x="374.834758" xlink:href="#mae96ea5431" y="307.584"/>
      </g>
     </g>
    </g>
    <g id="xtick_24">
     <g id="line2d_47">
      <path clip-path="url(#p9c49234ae2)" d="M 388.649629 307.584 
L 388.649629 41.472 
" style="fill:none;stroke:#b0b0b0;stroke-linecap:square;stroke-width:0.8;"/>
     </g>
     <g id="line2d_48">
      <g>
       <use style="stroke:#000000;stroke-width:0.6;" x="388.649629" xlink:href="#mae96ea5431" y="307.584"/>
      </g>
     </g>
    </g>
    <g id="xtick_25">
     <g id="line2d_49">
      <path clip-path="url(#p9c49234ae2)" d="M 402.4645 307.584 
L 402.4645 41.472 
" style="fill:none;stroke:#b0b0b0;stroke-linecap:square;stroke-width:0.8;"/>
     </g>
     <g id="line2d_50">
      <g>
       <use style="stroke:#000000;stroke-width:0.6;" x="402.4645" xlink:href="#mae96ea5431" y="307.584"/>
      </g>
     </g>
    </g>
    <g id="text_6">
     <!-- frame # [] -->
     <defs>
      <path d="M 37.109375 75.984375 
L 37.109375 68.5 
L 28.515625 68.5 
Q 23.6875 68.5 21.796875 66.546875 
Q 19.921875 64.59375 19.921875 59.515625 
L 19.921875 54.6875 
L 34.71875 54.6875 
L 34.71875 47.703125 
L 19.921875 47.703125 
L 19.921875 0 
L 10.890625 0 
L 10.890625 47.703125 
L 2.296875 47.703125 
L 2.296875 54.6875 
L 10.890625 54.6875 
L 10.890625 58.5 
Q 10.890625 67.625 15.140625 71.796875 
Q 19.390625 75.984375 28.609375 75.984375 
z
" id="DejaVuSans-66"/>
      <path d="M 41.109375 46.296875 
Q 39.59375 47.171875 37.8125 47.578125 
Q 36.03125 48 33.890625 48 
Q 26.265625 48 22.1875 43.046875 
Q 18.109375 38.09375 18.109375 28.8125 
L 18.109375 0 
L 9.078125 0 
L 9.078125 54.6875 
L 18.109375 54.6875 
L 18.109375 46.1875 
Q 20.953125 51.171875 25.484375 53.578125 
Q 30.03125 56 36.53125 56 
Q 37.453125 56 38.578125 55.875 
Q 39.703125 55.765625 41.0625 55.515625 
z
" id="DejaVuSans-72"/>
      <path d="M 34.28125 27.484375 
Q 23.390625 27.484375 19.1875 25 
Q 14.984375 22.515625 14.984375 16.5 
Q 14.984375 11.71875 18.140625 8.90625 
Q 21.296875 6.109375 26.703125 6.109375 
Q 34.1875 6.109375 38.703125 11.40625 
Q 43.21875 16.703125 43.21875 25.484375 
L 43.21875 27.484375 
z
M 52.203125 31.203125 
L 52.203125 0 
L 43.21875 0 
L 43.21875 8.296875 
Q 40.140625 3.328125 35.546875 0.953125 
Q 30.953125 -1.421875 24.3125 -1.421875 
Q 15.921875 -1.421875 10.953125 3.296875 
Q 6 8.015625 6 15.921875 
Q 6 25.140625 12.171875 29.828125 
Q 18.359375 34.515625 30.609375 34.515625 
L 43.21875 34.515625 
L 43.21875 35.40625 
Q 43.21875 41.609375 39.140625 45 
Q 35.0625 48.390625 27.6875 48.390625 
Q 23 48.390625 18.546875 47.265625 
Q 14.109375 46.140625 10.015625 43.890625 
L 10.015625 52.203125 
Q 14.9375 54.109375 19.578125 55.046875 
Q 24.21875 56 28.609375 56 
Q 40.484375 56 46.34375 49.84375 
Q 52.203125 43.703125 52.203125 31.203125 
z
" id="DejaVuSans-61"/>
      <path d="M 52 44.1875 
Q 55.375 50.25 60.0625 53.125 
Q 64.75 56 71.09375 56 
Q 79.640625 56 84.28125 50.015625 
Q 88.921875 44.046875 88.921875 33.015625 
L 88.921875 0 
L 79.890625 0 
L 79.890625 32.71875 
Q 79.890625 40.578125 77.09375 44.375 
Q 74.3125 48.1875 68.609375 48.1875 
Q 61.625 48.1875 57.5625 43.546875 
Q 53.515625 38.921875 53.515625 30.90625 
L 53.515625 0 
L 44.484375 0 
L 44.484375 32.71875 
Q 44.484375 40.625 41.703125 44.40625 
Q 38.921875 48.1875 33.109375 48.1875 
Q 26.21875 48.1875 22.15625 43.53125 
Q 18.109375 38.875 18.109375 30.90625 
L 18.109375 0 
L 9.078125 0 
L 9.078125 54.6875 
L 18.109375 54.6875 
L 18.109375 46.1875 
Q 21.1875 51.21875 25.484375 53.609375 
Q 29.78125 56 35.6875 56 
Q 41.65625 56 45.828125 52.96875 
Q 50 49.953125 52 44.1875 
z
" id="DejaVuSans-6d"/>
      <path d="M 56.203125 29.59375 
L 56.203125 25.203125 
L 14.890625 25.203125 
Q 15.484375 15.921875 20.484375 11.0625 
Q 25.484375 6.203125 34.421875 6.203125 
Q 39.59375 6.203125 44.453125 7.46875 
Q 49.3125 8.734375 54.109375 11.28125 
L 54.109375 2.78125 
Q 49.265625 0.734375 44.1875 -0.34375 
Q 39.109375 -1.421875 33.890625 -1.421875 
Q 20.796875 -1.421875 13.15625 6.1875 
Q 5.515625 13.8125 5.515625 26.8125 
Q 5.515625 40.234375 12.765625 48.109375 
Q 20.015625 56 32.328125 56 
Q 43.359375 56 49.78125 48.890625 
Q 56.203125 41.796875 56.203125 29.59375 
z
M 47.21875 32.234375 
Q 47.125 39.59375 43.09375 43.984375 
Q 39.0625 48.390625 32.421875 48.390625 
Q 24.90625 48.390625 20.390625 44.140625 
Q 15.875 39.890625 15.1875 32.171875 
z
" id="DejaVuSans-65"/>
      <path id="DejaVuSans-20"/>
      <path d="M 51.125 44 
L 36.921875 44 
L 32.8125 27.6875 
L 47.125 27.6875 
z
M 43.796875 71.78125 
L 38.71875 51.515625 
L 52.984375 51.515625 
L 58.109375 71.78125 
L 65.921875 71.78125 
L 60.890625 51.515625 
L 76.125 51.515625 
L 76.125 44 
L 58.984375 44 
L 54.984375 27.6875 
L 70.515625 27.6875 
L 70.515625 20.21875 
L 53.078125 20.21875 
L 48 0 
L 40.1875 0 
L 45.21875 20.21875 
L 30.90625 20.21875 
L 25.875 0 
L 18.015625 0 
L 23.09375 20.21875 
L 7.71875 20.21875 
L 7.71875 27.6875 
L 24.90625 27.6875 
L 29 44 
L 13.28125 44 
L 13.28125 51.515625 
L 30.90625 51.515625 
L 35.890625 71.78125 
z
" id="DejaVuSans-23"/>
      <path d="M 8.59375 75.984375 
L 29.296875 75.984375 
L 29.296875 69 
L 17.578125 69 
L 17.578125 -6.203125 
L 29.296875 -6.203125 
L 29.296875 -13.1875 
L 8.59375 -13.1875 
z
" id="DejaVuSans-5b"/>
      <path d="M 30.421875 75.984375 
L 30.421875 -13.1875 
L 9.71875 -13.1875 
L 9.71875 -6.203125 
L 21.390625 -6.203125 
L 21.390625 69 
L 9.71875 69 
L 9.71875 75.984375 
z
" id="DejaVuSans-5d"/>
     </defs>
     <g transform="translate(210.063906 335.860562)scale(0.1 -0.1)">
      <use xlink:href="#DejaVuSans-66"/>
      <use x="35.205078" xlink:href="#DejaVuSans-72"/>
      <use x="76.318359" xlink:href="#DejaVuSans-61"/>
      <use x="137.597656" xlink:href="#DejaVuSans-6d"/>
      <use x="235.009766" xlink:href="#DejaVuSans-65"/>
      <use x="296.533203" xlink:href="#DejaVuSans-20"/>
      <use x="328.320312" xlink:href="#DejaVuSans-23"/>
      <use x="412.109375" xlink:href="#DejaVuSans-20"/>
      <use x="443.896484" xlink:href="#DejaVuSans-5b"/>
      <use x="482.910156" xlink:href="#DejaVuSans-5d"/>
     </g>
    </g>
   </g>
   <g id="matplotlib.axis_2">
    <g id="ytick_1">
     <g id="line2d_51">
      <path clip-path="url(#p9c49234ae2)" d="M 57.6 286.529477 
L 414.72 286.529477 
" style="fill:none;stroke:#b0b0b0;stroke-linecap:square;stroke-width:0.8;"/>
     </g>
     <g id="line2d_52">
      <defs>
       <path d="M 0 0 
L -3.5 0 
" id="mb09f24b757" style="stroke:#000000;stroke-width:0.8;"/>
      </defs>
      <g>
       <use style="stroke:#000000;stroke-width:0.8;" x="57.6" xlink:href="#mb09f24b757" y="286.529477"/>
      </g>
     </g>
     <g id="text_7">
      <!-- −0.15 -->
      <defs>
       <path d="M 10.59375 35.5 
L 73.1875 35.5 
L 73.1875 27.203125 
L 10.59375 27.203125 
z
" id="DejaVuSans-2212"/>
       <path d="M 10.6875 12.40625 
L 21 12.40625 
L 21 0 
L 10.6875 0 
z
" id="DejaVuSans-2e"/>
       <path d="M 10.796875 72.90625 
L 49.515625 72.90625 
L 49.515625 64.59375 
L 19.828125 64.59375 
L 19.828125 46.734375 
Q 21.96875 47.46875 24.109375 47.828125 
Q 26.265625 48.1875 28.421875 48.1875 
Q 40.625 48.1875 47.75 41.5 
Q 54.890625 34.8125 54.890625 23.390625 
Q 54.890625 11.625 47.5625 5.09375 
Q 40.234375 -1.421875 26.90625 -1.421875 
Q 22.3125 -1.421875 17.546875 -0.640625 
Q 12.796875 0.140625 7.71875 1.703125 
L 7.71875 11.625 
Q 12.109375 9.234375 16.796875 8.0625 
Q 21.484375 6.890625 26.703125 6.890625 
Q 35.15625 6.890625 40.078125 11.328125 
Q 45.015625 15.765625 45.015625 23.390625 
Q 45.015625 31 40.078125 35.4375 
Q 35.15625 39.890625 26.703125 39.890625 
Q 22.75 39.890625 18.8125 39.015625 
Q 14.890625 38.140625 10.796875 36.28125 
z
" id="DejaVuSans-35"/>
      </defs>
      <g transform="translate(19.954687 290.328695)scale(0.1 -0.1)">
       <use xlink:href="#DejaVuSans-2212"/>
       <use x="83.789062" xlink:href="#DejaVuSans-30"/>
       <use x="147.412109" xlink:href="#DejaVuSans-2e"/>
       <use x="179.199219" xlink:href="#DejaVuSans-31"/>
       <use x="242.822266" xlink:href="#DejaVuSans-35"/>
      </g>
     </g>
    </g>
    <g id="ytick_2">
     <g id="line2d_53">
      <path clip-path="url(#p9c49234ae2)" d="M 57.6 251.841076 
L 414.72 251.841076 
" style="fill:none;stroke:#b0b0b0;stroke-linecap:square;stroke-width:0.8;"/>
     </g>
     <g id="line2d_54">
      <g>
       <use style="stroke:#000000;stroke-width:0.8;" x="57.6" xlink:href="#mb09f24b757" y="251.841076"/>
      </g>
     </g>
     <g id="text_8">
      <!-- −0.10 -->
      <g transform="translate(19.954687 255.640294)scale(0.1 -0.1)">
       <use xlink:href="#DejaVuSans-2212"/>
       <use x="83.789062" xlink:href="#DejaVuSans-30"/>
       <use x="147.412109" xlink:href="#DejaVuSans-2e"/>
       <use x="179.199219" xlink:href="#DejaVuSans-31"/>
       <use x="242.822266" xlink:href="#DejaVuSans-30"/>
      </g>
     </g>
    </g>
    <g id="ytick_3">
     <g id="line2d_55">
      <path clip-path="url(#p9c49234ae2)" d="M 57.6 217.152675 
L 414.72 217.152675 
" style="fill:none;stroke:#b0b0b0;stroke-linecap:square;stroke-width:0.8;"/>
     </g>
     <g id="line2d_56">
      <g>
       <use style="stroke:#000000;stroke-width:0.8;" x="57.6" xlink:href="#mb09f24b757" y="217.152675"/>
      </g>
     </g>
     <g id="text_9">
      <!-- −0.05 -->
      <g transform="translate(19.954687 220.951893)scale(0.1 -0.1)">
       <use xlink:href="#DejaVuSans-2212"/>
       <use x="83.789062" xlink:href="#DejaVuSans-30"/>
       <use x="147.412109" xlink:href="#DejaVuSans-2e"/>
       <use x="179.199219" xlink:href="#DejaVuSans-30"/>
       <use x="242.822266" xlink:href="#DejaVuSans-35"/>
      </g>
     </g>
    </g>
    <g id="ytick_4">
     <g id="line2d_57">
      <path clip-path="url(#p9c49234ae2)" d="M 57.6 182.464274 
L 414.72 182.464274 
" style="fill:none;stroke:#b0b0b0;stroke-linecap:square;stroke-width:0.8;"/>
     </g>
     <g id="line2d_58">
      <g>
       <use style="stroke:#000000;stroke-width:0.8;" x="57.6" xlink:href="#mb09f24b757" y="182.464274"/>
      </g>
     </g>
     <g id="text_10">
      <!-- 0.00 -->
      <g transform="translate(28.334375 186.263492)scale(0.1 -0.1)">
       <use xlink:href="#DejaVuSans-30"/>
       <use x="63.623047" xlink:href="#DejaVuSans-2e"/>
       <use x="95.410156" xlink:href="#DejaVuSans-30"/>
       <use x="159.033203" xlink:href="#DejaVuSans-30"/>
      </g>
     </g>
    </g>
    <g id="ytick_5">
     <g id="line2d_59">
      <path clip-path="url(#p9c49234ae2)" d="M 57.6 147.775873 
L 414.72 147.775873 
" style="fill:none;stroke:#b0b0b0;stroke-linecap:square;stroke-width:0.8;"/>
     </g>
     <g id="line2d_60">
      <g>
       <use style="stroke:#000000;stroke-width:0.8;" x="57.6" xlink:href="#mb09f24b757" y="147.775873"/>
      </g>
     </g>
     <g id="text_11">
      <!-- 0.05 -->
      <g transform="translate(28.334375 151.575091)scale(0.1 -0.1)">
       <use xlink:href="#DejaVuSans-30"/>
       <use x="63.623047" xlink:href="#DejaVuSans-2e"/>
       <use x="95.410156" xlink:href="#DejaVuSans-30"/>
       <use x="159.033203" xlink:href="#DejaVuSans-35"/>
      </g>
     </g>
    </g>
    <g id="ytick_6">
     <g id="line2d_61">
      <path clip-path="url(#p9c49234ae2)" d="M 57.6 113.087472 
L 414.72 113.087472 
" style="fill:none;stroke:#b0b0b0;stroke-linecap:square;stroke-width:0.8;"/>
     </g>
     <g id="line2d_62">
      <g>
       <use style="stroke:#000000;stroke-width:0.8;" x="57.6" xlink:href="#mb09f24b757" y="113.087472"/>
      </g>
     </g>
     <g id="text_12">
      <!-- 0.10 -->
      <g transform="translate(28.334375 116.88669)scale(0.1 -0.1)">
       <use xlink:href="#DejaVuSans-30"/>
       <use x="63.623047" xlink:href="#DejaVuSans-2e"/>
       <use x="95.410156" xlink:href="#DejaVuSans-31"/>
       <use x="159.033203" xlink:href="#DejaVuSans-30"/>
      </g>
     </g>
    </g>
    <g id="ytick_7">
     <g id="line2d_63">
      <path clip-path="url(#p9c49234ae2)" d="M 57.6 78.399071 
L 414.72 78.399071 
" style="fill:none;stroke:#b0b0b0;stroke-linecap:square;stroke-width:0.8;"/>
     </g>
     <g id="line2d_64">
      <g>
       <use style="stroke:#000000;stroke-width:0.8;" x="57.6" xlink:href="#mb09f24b757" y="78.399071"/>
      </g>
     </g>
     <g id="text_13">
      <!-- 0.15 -->
      <g transform="translate(28.334375 82.198289)scale(0.1 -0.1)">
       <use xlink:href="#DejaVuSans-30"/>
       <use x="63.623047" xlink:href="#DejaVuSans-2e"/>
       <use x="95.410156" xlink:href="#DejaVuSans-31"/>
       <use x="159.033203" xlink:href="#DejaVuSans-35"/>
      </g>
     </g>
    </g>
    <g id="ytick_8">
     <g id="line2d_65">
      <path clip-path="url(#p9c49234ae2)" d="M 57.6 43.71067 
L 414.72 43.71067 
" style="fill:none;stroke:#b0b0b0;stroke-linecap:square;stroke-width:0.8;"/>
     </g>
     <g id="line2d_66">
      <g>
       <use style="stroke:#000000;stroke-width:0.8;" x="57.6" xlink:href="#mb09f24b757" y="43.71067"/>
      </g>
     </g>
     <g id="text_14">
      <!-- 0.20 -->
      <g transform="translate(28.334375 47.509888)scale(0.1 -0.1)">
       <use xlink:href="#DejaVuSans-30"/>
       <use x="63.623047" xlink:href="#DejaVuSans-2e"/>
       <use x="95.410156" xlink:href="#DejaVuSans-32"/>
       <use x="159.033203" xlink:href="#DejaVuSans-30"/>
      </g>
     </g>
    </g>
    <g id="ytick_9">
     <g id="line2d_67">
      <path clip-path="url(#p9c49234ae2)" d="M 57.6 307.342517 
L 414.72 307.342517 
" style="fill:none;stroke:#b0b0b0;stroke-linecap:square;stroke-width:0.8;"/>
     </g>
     <g id="line2d_68">
      <defs>
       <path d="M 0 0 
L -2 0 
" id="m3d257b6b8f" style="stroke:#000000;stroke-width:0.6;"/>
      </defs>
      <g>
       <use style="stroke:#000000;stroke-width:0.6;" x="57.6" xlink:href="#m3d257b6b8f" y="307.342517"/>
      </g>
     </g>
    </g>
    <g id="ytick_10">
     <g id="line2d_69">
      <path clip-path="url(#p9c49234ae2)" d="M 57.6 300.404837 
L 414.72 300.404837 
" style="fill:none;stroke:#b0b0b0;stroke-linecap:square;stroke-width:0.8;"/>
     </g>
     <g id="line2d_70">
      <g>
       <use style="stroke:#000000;stroke-width:0.6;" x="57.6" xlink:href="#m3d257b6b8f" y="300.404837"/>
      </g>
     </g>
    </g>
    <g id="ytick_11">
     <g id="line2d_71">
      <path clip-path="url(#p9c49234ae2)" d="M 57.6 293.467157 
L 414.72 293.467157 
" style="fill:none;stroke:#b0b0b0;stroke-linecap:square;stroke-width:0.8;"/>
     </g>
     <g id="line2d_72">
      <g>
       <use style="stroke:#000000;stroke-width:0.6;" x="57.6" xlink:href="#m3d257b6b8f" y="293.467157"/>
      </g>
     </g>
    </g>
    <g id="ytick_12">
     <g id="line2d_73">
      <path clip-path="url(#p9c49234ae2)" d="M 57.6 279.591796 
L 414.72 279.591796 
" style="fill:none;stroke:#b0b0b0;stroke-linecap:square;stroke-width:0.8;"/>
     </g>
     <g id="line2d_74">
      <g>
       <use style="stroke:#000000;stroke-width:0.6;" x="57.6" xlink:href="#m3d257b6b8f" y="279.591796"/>
      </g>
     </g>
    </g>
    <g id="ytick_13">
     <g id="line2d_75">
      <path clip-path="url(#p9c49234ae2)" d="M 57.6 272.654116 
L 414.72 272.654116 
" style="fill:none;stroke:#b0b0b0;stroke-linecap:square;stroke-width:0.8;"/>
     </g>
     <g id="line2d_76">
      <g>
       <use style="stroke:#000000;stroke-width:0.6;" x="57.6" xlink:href="#m3d257b6b8f" y="272.654116"/>
      </g>
     </g>
    </g>
    <g id="ytick_14">
     <g id="line2d_77">
      <path clip-path="url(#p9c49234ae2)" d="M 57.6 265.716436 
L 414.72 265.716436 
" style="fill:none;stroke:#b0b0b0;stroke-linecap:square;stroke-width:0.8;"/>
     </g>
     <g id="line2d_78">
      <g>
       <use style="stroke:#000000;stroke-width:0.6;" x="57.6" xlink:href="#m3d257b6b8f" y="265.716436"/>
      </g>
     </g>
    </g>
    <g id="ytick_15">
     <g id="line2d_79">
      <path clip-path="url(#p9c49234ae2)" d="M 57.6 258.778756 
L 414.72 258.778756 
" style="fill:none;stroke:#b0b0b0;stroke-linecap:square;stroke-width:0.8;"/>
     </g>
     <g id="line2d_80">
      <g>
       <use style="stroke:#000000;stroke-width:0.6;" x="57.6" xlink:href="#m3d257b6b8f" y="258.778756"/>
      </g>
     </g>
    </g>
    <g id="ytick_16">
     <g id="line2d_81">
      <path clip-path="url(#p9c49234ae2)" d="M 57.6 244.903395 
L 414.72 244.903395 
" style="fill:none;stroke:#b0b0b0;stroke-linecap:square;stroke-width:0.8;"/>
     </g>
     <g id="line2d_82">
      <g>
       <use style="stroke:#000000;stroke-width:0.6;" x="57.6" xlink:href="#m3d257b6b8f" y="244.903395"/>
      </g>
     </g>
    </g>
    <g id="ytick_17">
     <g id="line2d_83">
      <path clip-path="url(#p9c49234ae2)" d="M 57.6 237.965715 
L 414.72 237.965715 
" style="fill:none;stroke:#b0b0b0;stroke-linecap:square;stroke-width:0.8;"/>
     </g>
     <g id="line2d_84">
      <g>
       <use style="stroke:#000000;stroke-width:0.6;" x="57.6" xlink:href="#m3d257b6b8f" y="237.965715"/>
      </g>
     </g>
    </g>
    <g id="ytick_18">
     <g id="line2d_85">
      <path clip-path="url(#p9c49234ae2)" d="M 57.6 231.028035 
L 414.72 231.028035 
" style="fill:none;stroke:#b0b0b0;stroke-linecap:square;stroke-width:0.8;"/>
     </g>
     <g id="line2d_86">
      <g>
       <use style="stroke:#000000;stroke-width:0.6;" x="57.6" xlink:href="#m3d257b6b8f" y="231.028035"/>
      </g>
     </g>
    </g>
    <g id="ytick_19">
     <g id="line2d_87">
      <path clip-path="url(#p9c49234ae2)" d="M 57.6 224.090355 
L 414.72 224.090355 
" style="fill:none;stroke:#b0b0b0;stroke-linecap:square;stroke-width:0.8;"/>
     </g>
     <g id="line2d_88">
      <g>
       <use style="stroke:#000000;stroke-width:0.6;" x="57.6" xlink:href="#m3d257b6b8f" y="224.090355"/>
      </g>
     </g>
    </g>
    <g id="ytick_20">
     <g id="line2d_89">
      <path clip-path="url(#p9c49234ae2)" d="M 57.6 210.214994 
L 414.72 210.214994 
" style="fill:none;stroke:#b0b0b0;stroke-linecap:square;stroke-width:0.8;"/>
     </g>
     <g id="line2d_90">
      <g>
       <use style="stroke:#000000;stroke-width:0.6;" x="57.6" xlink:href="#m3d257b6b8f" y="210.214994"/>
      </g>
     </g>
    </g>
    <g id="ytick_21">
     <g id="line2d_91">
      <path clip-path="url(#p9c49234ae2)" d="M 57.6 203.277314 
L 414.72 203.277314 
" style="fill:none;stroke:#b0b0b0;stroke-linecap:square;stroke-width:0.8;"/>
     </g>
     <g id="line2d_92">
      <g>
       <use style="stroke:#000000;stroke-width:0.6;" x="57.6" xlink:href="#m3d257b6b8f" y="203.277314"/>
      </g>
     </g>
    </g>
    <g id="ytick_22">
     <g id="line2d_93">
      <path clip-path="url(#p9c49234ae2)" d="M 57.6 196.339634 
L 414.72 196.339634 
" style="fill:none;stroke:#b0b0b0;stroke-linecap:square;stroke-width:0.8;"/>
     </g>
     <g id="line2d_94">
      <g>
       <use style="stroke:#000000;stroke-width:0.6;" x="57.6" xlink:href="#m3d257b6b8f" y="196.339634"/>
      </g>
     </g>
    </g>
    <g id="ytick_23">
     <g id="line2d_95">
      <path clip-path="url(#p9c49234ae2)" d="M 57.6 189.401954 
L 414.72 189.401954 
" style="fill:none;stroke:#b0b0b0;stroke-linecap:square;stroke-width:0.8;"/>
     </g>
     <g id="line2d_96">
      <g>
       <use style="stroke:#000000;stroke-width:0.6;" x="57.6" xlink:href="#m3d257b6b8f" y="189.401954"/>
      </g>
     </g>
    </g>
    <g id="ytick_24">
     <g id="line2d_97">
      <path clip-path="url(#p9c49234ae2)" d="M 57.6 175.526593 
L 414.72 175.526593 
" style="fill:none;stroke:#b0b0b0;stroke-linecap:square;stroke-width:0.8;"/>
     </g>
     <g id="line2d_98">
      <g>
       <use style="stroke:#000000;stroke-width:0.6;" x="57.6" xlink:href="#m3d257b6b8f" y="175.526593"/>
      </g>
     </g>
    </g>
    <g id="ytick_25">
     <g id="line2d_99">
      <path clip-path="url(#p9c49234ae2)" d="M 57.6 168.588913 
L 414.72 168.588913 
" style="fill:none;stroke:#b0b0b0;stroke-linecap:square;stroke-width:0.8;"/>
     </g>
     <g id="line2d_100">
      <g>
       <use style="stroke:#000000;stroke-width:0.6;" x="57.6" xlink:href="#m3d257b6b8f" y="168.588913"/>
      </g>
     </g>
    </g>
    <g id="ytick_26">
     <g id="line2d_101">
      <path clip-path="url(#p9c49234ae2)" d="M 57.6 161.651233 
L 414.72 161.651233 
" style="fill:none;stroke:#b0b0b0;stroke-linecap:square;stroke-width:0.8;"/>
     </g>
     <g id="line2d_102">
      <g>
       <use style="stroke:#000000;stroke-width:0.6;" x="57.6" xlink:href="#m3d257b6b8f" y="161.651233"/>
      </g>
     </g>
    </g>
    <g id="ytick_27">
     <g id="line2d_103">
      <path clip-path="url(#p9c49234ae2)" d="M 57.6 154.713553 
L 414.72 154.713553 
" style="fill:none;stroke:#b0b0b0;stroke-linecap:square;stroke-width:0.8;"/>
     </g>
     <g id="line2d_104">
      <g>
       <use style="stroke:#000000;stroke-width:0.6;" x="57.6" xlink:href="#m3d257b6b8f" y="154.713553"/>
      </g>
     </g>
    </g>
    <g id="ytick_28">
     <g id="line2d_105">
      <path clip-path="url(#p9c49234ae2)" d="M 57.6 140.838192 
L 414.72 140.838192 
" style="fill:none;stroke:#b0b0b0;stroke-linecap:square;stroke-width:0.8;"/>
     </g>
     <g id="line2d_106">
      <g>
       <use style="stroke:#000000;stroke-width:0.6;" x="57.6" xlink:href="#m3d257b6b8f" y="140.838192"/>
      </g>
     </g>
    </g>
    <g id="ytick_29">
     <g id="line2d_107">
      <path clip-path="url(#p9c49234ae2)" d="M 57.6 133.900512 
L 414.72 133.900512 
" style="fill:none;stroke:#b0b0b0;stroke-linecap:square;stroke-width:0.8;"/>
     </g>
     <g id="line2d_108">
      <g>
       <use style="stroke:#000000;stroke-width:0.6;" x="57.6" xlink:href="#m3d257b6b8f" y="133.900512"/>
      </g>
     </g>
    </g>
    <g id="ytick_30">
     <g id="line2d_109">
      <path clip-path="url(#p9c49234ae2)" d="M 57.6 126.962832 
L 414.72 126.962832 
" style="fill:none;stroke:#b0b0b0;stroke-linecap:square;stroke-width:0.8;"/>
     </g>
     <g id="line2d_110">
      <g>
       <use style="stroke:#000000;stroke-width:0.6;" x="57.6" xlink:href="#m3d257b6b8f" y="126.962832"/>
      </g>
     </g>
    </g>
    <g id="ytick_31">
     <g id="line2d_111">
      <path clip-path="url(#p9c49234ae2)" d="M 57.6 120.025152 
L 414.72 120.025152 
" style="fill:none;stroke:#b0b0b0;stroke-linecap:square;stroke-width:0.8;"/>
     </g>
     <g id="line2d_112">
      <g>
       <use style="stroke:#000000;stroke-width:0.6;" x="57.6" xlink:href="#m3d257b6b8f" y="120.025152"/>
      </g>
     </g>
    </g>
    <g id="ytick_32">
     <g id="line2d_113">
      <path clip-path="url(#p9c49234ae2)" d="M 57.6 106.149791 
L 414.72 106.149791 
" style="fill:none;stroke:#b0b0b0;stroke-linecap:square;stroke-width:0.8;"/>
     </g>
     <g id="line2d_114">
      <g>
       <use style="stroke:#000000;stroke-width:0.6;" x="57.6" xlink:href="#m3d257b6b8f" y="106.149791"/>
      </g>
     </g>
    </g>
    <g id="ytick_33">
     <g id="line2d_115">
      <path clip-path="url(#p9c49234ae2)" d="M 57.6 99.212111 
L 414.72 99.212111 
" style="fill:none;stroke:#b0b0b0;stroke-linecap:square;stroke-width:0.8;"/>
     </g>
     <g id="line2d_116">
      <g>
       <use style="stroke:#000000;stroke-width:0.6;" x="57.6" xlink:href="#m3d257b6b8f" y="99.212111"/>
      </g>
     </g>
    </g>
    <g id="ytick_34">
     <g id="line2d_117">
      <path clip-path="url(#p9c49234ae2)" d="M 57.6 92.274431 
L 414.72 92.274431 
" style="fill:none;stroke:#b0b0b0;stroke-linecap:square;stroke-width:0.8;"/>
     </g>
     <g id="line2d_118">
      <g>
       <use style="stroke:#000000;stroke-width:0.6;" x="57.6" xlink:href="#m3d257b6b8f" y="92.274431"/>
      </g>
     </g>
    </g>
    <g id="ytick_35">
     <g id="line2d_119">
      <path clip-path="url(#p9c49234ae2)" d="M 57.6 85.336751 
L 414.72 85.336751 
" style="fill:none;stroke:#b0b0b0;stroke-linecap:square;stroke-width:0.8;"/>
     </g>
     <g id="line2d_120">
      <g>
       <use style="stroke:#000000;stroke-width:0.6;" x="57.6" xlink:href="#m3d257b6b8f" y="85.336751"/>
      </g>
     </g>
    </g>
    <g id="ytick_36">
     <g id="line2d_121">
      <path clip-path="url(#p9c49234ae2)" d="M 57.6 71.46139 
L 414.72 71.46139 
" style="fill:none;stroke:#b0b0b0;stroke-linecap:square;stroke-width:0.8;"/>
     </g>
     <g id="line2d_122">
      <g>
       <use style="stroke:#000000;stroke-width:0.6;" x="57.6" xlink:href="#m3d257b6b8f" y="71.46139"/>
      </g>
     </g>
    </g>
    <g id="ytick_37">
     <g id="line2d_123">
      <path clip-path="url(#p9c49234ae2)" d="M 57.6 64.52371 
L 414.72 64.52371 
" style="fill:none;stroke:#b0b0b0;stroke-linecap:square;stroke-width:0.8;"/>
     </g>
     <g id="line2d_124">
      <g>
       <use style="stroke:#000000;stroke-width:0.6;" x="57.6" xlink:href="#m3d257b6b8f" y="64.52371"/>
      </g>
     </g>
    </g>
    <g id="ytick_38">
     <g id="line2d_125">
      <path clip-path="url(#p9c49234ae2)" d="M 57.6 57.58603 
L 414.72 57.58603 
" style="fill:none;stroke:#b0b0b0;stroke-linecap:square;stroke-width:0.8;"/>
     </g>
     <g id="line2d_126">
      <g>
       <use style="stroke:#000000;stroke-width:0.6;" x="57.6" xlink:href="#m3d257b6b8f" y="57.58603"/>
      </g>
     </g>
    </g>
    <g id="ytick_39">
     <g id="line2d_127">
      <path clip-path="url(#p9c49234ae2)" d="M 57.6 50.64835 
L 414.72 50.64835 
" style="fill:none;stroke:#b0b0b0;stroke-linecap:square;stroke-width:0.8;"/>
     </g>
     <g id="line2d_128">
      <g>
       <use style="stroke:#000000;stroke-width:0.6;" x="57.6" xlink:href="#m3d257b6b8f" y="50.64835"/>
      </g>
     </g>
    </g>
    <g id="text_15">
     <!-- trans z -->
     <defs>
      <path d="M 18.3125 70.21875 
L 18.3125 54.6875 
L 36.8125 54.6875 
L 36.8125 47.703125 
L 18.3125 47.703125 
L 18.3125 18.015625 
Q 18.3125 11.328125 20.140625 9.421875 
Q 21.96875 7.515625 27.59375 7.515625 
L 36.8125 7.515625 
L 36.8125 0 
L 27.59375 0 
Q 17.1875 0 13.234375 3.875 
Q 9.28125 7.765625 9.28125 18.015625 
L 9.28125 47.703125 
L 2.6875 47.703125 
L 2.6875 54.6875 
L 9.28125 54.6875 
L 9.28125 70.21875 
z
" id="DejaVuSans-74"/>
      <path d="M 54.890625 33.015625 
L 54.890625 0 
L 45.90625 0 
L 45.90625 32.71875 
Q 45.90625 40.484375 42.875 44.328125 
Q 39.84375 48.1875 33.796875 48.1875 
Q 26.515625 48.1875 22.3125 43.546875 
Q 18.109375 38.921875 18.109375 30.90625 
L 18.109375 0 
L 9.078125 0 
L 9.078125 54.6875 
L 18.109375 54.6875 
L 18.109375 46.1875 
Q 21.34375 51.125 25.703125 53.5625 
Q 30.078125 56 35.796875 56 
Q 45.21875 56 50.046875 50.171875 
Q 54.890625 44.34375 54.890625 33.015625 
z
" id="DejaVuSans-6e"/>
      <path d="M 44.28125 53.078125 
L 44.28125 44.578125 
Q 40.484375 46.53125 36.375 47.5 
Q 32.28125 48.484375 27.875 48.484375 
Q 21.1875 48.484375 17.84375 46.4375 
Q 14.5 44.390625 14.5 40.28125 
Q 14.5 37.15625 16.890625 35.375 
Q 19.28125 33.59375 26.515625 31.984375 
L 29.59375 31.296875 
Q 39.15625 29.25 43.1875 25.515625 
Q 47.21875 21.78125 47.21875 15.09375 
Q 47.21875 7.46875 41.1875 3.015625 
Q 35.15625 -1.421875 24.609375 -1.421875 
Q 20.21875 -1.421875 15.453125 -0.5625 
Q 10.6875 0.296875 5.421875 2 
L 5.421875 11.28125 
Q 10.40625 8.6875 15.234375 7.390625 
Q 20.0625 6.109375 24.8125 6.109375 
Q 31.15625 6.109375 34.5625 8.28125 
Q 37.984375 10.453125 37.984375 14.40625 
Q 37.984375 18.0625 35.515625 20.015625 
Q 33.0625 21.96875 24.703125 23.78125 
L 21.578125 24.515625 
Q 13.234375 26.265625 9.515625 29.90625 
Q 5.8125 33.546875 5.8125 39.890625 
Q 5.8125 47.609375 11.28125 51.796875 
Q 16.75 56 26.8125 56 
Q 31.78125 56 36.171875 55.265625 
Q 40.578125 54.546875 44.28125 53.078125 
z
" id="DejaVuSans-73"/>
      <path d="M 5.515625 54.6875 
L 48.1875 54.6875 
L 48.1875 46.484375 
L 14.40625 7.171875 
L 48.1875 7.171875 
L 48.1875 0 
L 4.296875 0 
L 4.296875 8.203125 
L 38.09375 47.515625 
L 5.515625 47.515625 
z
" id="DejaVuSans-7a"/>
     </defs>
     <g transform="translate(13.875 191.594406)rotate(-90)scale(0.1 -0.1)">
      <use xlink:href="#DejaVuSans-74"/>
      <use x="39.208984" xlink:href="#DejaVuSans-72"/>
      <use x="80.322266" xlink:href="#DejaVuSans-61"/>
      <use x="141.601562" xlink:href="#DejaVuSans-6e"/>
      <use x="204.980469" xlink:href="#DejaVuSans-73"/>
      <use x="257.080078" xlink:href="#DejaVuSans-20"/>
      <use x="288.867188" xlink:href="#DejaVuSans-7a"/>
     </g>
    </g>
   </g>
   <g id="line2d_129">
    <path clip-path="url(#p9c49234ae2)" d="M 73.832727 111.854403 
L 74.523492 111.714255 
L 75.214926 109.382912 
L 75.90502 114.925796 
L 76.592626 127.361181 
L 77.283397 125.055699 
L 77.974161 115.997302 
L 78.664925 118.320231 
L 79.355563 116.176691 
L 80.046327 158.111096 
L 80.737091 133.084918 
L 81.427856 123.543328 
L 82.121046 104.57389 
L 82.81181 114.823168 
L 83.502574 112.902688 
L 84.193339 133.587309 
L 84.885317 124.824424 
L 85.576087 120.064521 
L 86.266845 165.979744 
L 86.957609 115.943159 
L 87.645678 113.767702 
L 88.336449 118.616916 
L 89.027213 103.815706 
L 89.717977 112.250113 
L 90.406648 150.225992 
M 91.788177 118.567472 
L 92.478941 149.166715 
M 94.550073 154.054417 
L 95.240837 91.660513 
L 95.932216 186.321422 
M 97.313745 107.448805 
L 98.004515 95.091489 
L 98.69634 111.224949 
L 99.387113 111.582592 
L 100.077877 99.449449 
M 103.530388 227.381399 
L 104.221159 242.766625 
L 104.91077 237.216102 
L 105.601534 250.187659 
L 106.292299 201.201263 
M 108.366184 172.918823 
L 109.056955 139.48897 
L 109.747719 116.698222 
L 110.439147 104.429019 
M 113.892725 256.091578 
L 114.583489 237.726306 
L 115.274253 171.215346 
L 115.964375 132.057448 
L 116.65514 223.927992 
L 117.345904 269.238215 
M 118.727419 239.424713 
L 119.418184 203.997309 
L 120.108955 110.318524 
L 120.799719 181.610581 
L 121.492955 94.732277 
M 122.874484 103.034028 
L 123.565263 117.61772 
L 124.256745 141.917609 
M 127.706996 206.388944 
L 128.39776 211.149998 
L 129.088525 263.35133 
L 129.780371 253.186685 
L 130.471135 95.262925 
L 131.1619 105.159049 
L 131.85267 144.720594 
L 132.545623 120.865319 
L 133.236388 125.603885 
L 133.927152 106.754814 
L 134.617916 104.101312 
L 135.306719 139.871949 
L 135.997483 119.366978 
L 137.379012 123.88521 
L 138.069776 176.514266 
L 138.758508 151.47587 
L 139.449273 219.393745 
L 140.140037 176.601329 
L 140.830801 210.409801 
L 141.523996 162.880081 
M 142.905525 171.27849 
L 143.596289 175.99519 
L 144.286767 198.237272 
L 145.668295 106.025538 
L 146.35906 196.105941 
M 149.811687 254.367032 
L 150.502452 128.626726 
L 151.193216 157.217587 
L 151.88398 102.631589 
L 152.575826 142.564029 
M 153.957362 146.219135 
L 154.648118 215.707911 
M 156.717968 210.943052 
L 157.408739 214.463545 
L 158.099666 230.590829 
L 158.790424 185.993639 
L 159.481195 238.902115 
M 162.247225 246.286137 
L 162.937989 184.012453 
L 163.627087 227.41518 
M 165.008615 174.20587 
L 165.69938 223.034586 
M 167.770322 258.016769 
L 168.461086 120.04792 
L 169.151851 107.923517 
L 169.843973 187.614383 
L 170.534753 87.05789 
L 171.225502 116.12916 
L 171.916266 130.13947 
M 173.298795 148.921643 
L 174.679729 187.948254 
L 175.368719 175.754704 
M 178.132333 220.386473 
L 178.823097 183.141901 
L 179.513862 202.572217 
L 180.204626 137.228792 
M 181.588771 188.339159 
L 182.279529 179.481703 
M 183.658693 200.07979 
L 184.349457 248.467191 
L 185.040221 262.550341 
L 185.730986 255.821772 
M 187.112145 230.96163 
L 187.80291 180.251193 
L 188.49368 184.767191 
M 194.710193 275.266913 
L 195.400951 289.598649 
L 196.091715 115.618846 
L 196.78248 172.792397 
L 197.47528 170.640532 
L 198.166037 93.768474 
L 198.856808 119.059501 
L 199.547572 101.688392 
L 200.238337 125.608515 
M 201.620822 133.493361 
L 202.311586 125.266264 
M 203.69088 257.302 
L 204.381644 186.394023 
L 205.072415 236.869338 
L 205.76318 205.842001 
M 207.144912 174.641848 
L 207.835649 274.152149 
L 208.52642 184.921358 
L 209.219434 122.199266 
L 209.910833 139.56937 
L 210.600962 184.869872 
L 211.291726 206.121241 
L 211.981532 118.240229 
L 212.672296 213.419631 
L 213.363061 237.432724 
L 214.053825 217.657241 
M 215.434456 146.264689 
L 216.125229 79.614143 
L 216.815991 144.430486 
M 218.199407 142.008932 
L 218.890171 106.85541 
L 219.580936 180.557664 
L 220.272716 129.497276 
M 221.654251 228.534787 
L 222.345016 295.488 
L 223.036742 251.428806 
L 223.727506 250.697255 
L 224.41827 201.130814 
L 225.109035 229.723636 
L 225.799292 218.118269 
L 226.490056 197.815653 
L 227.180827 265.910455 
L 227.871591 277.812832 
L 228.562668 116.442507 
L 229.253439 156.049284 
L 229.944197 118.643117 
L 230.634968 135.261665 
L 231.326137 250.910984 
M 232.707666 112.862603 
L 233.39843 236.904626 
L 234.089354 127.821338 
L 234.783368 213.679436 
L 235.474132 159.772468 
L 236.164896 144.970027 
L 236.85566 101.118497 
L 237.548874 191.012259 
M 238.930409 83.288534 
L 239.621173 256.168826 
L 240.303576 167.306189 
M 242.375876 138.81822 
L 243.066714 138.953569 
L 243.757478 146.75686 
L 244.448243 53.568 
L 245.139014 129.268454 
L 245.830465 77.264836 
L 246.521229 164.56355 
L 247.211993 112.072904 
L 247.902757 112.176832 
L 248.594472 116.424825 
L 249.285244 143.281632 
L 249.976007 187.912242 
L 251.358236 133.398087 
L 252.049 162.829913 
M 255.49783 246.578771 
L 256.188594 212.607457 
L 257.570381 183.02332 
L 258.26116 192.88369 
M 259.64449 96.091469 
L 260.335263 161.825379 
L 261.026026 109.376968 
L 261.71679 120.330405 
L 262.407215 95.336678 
L 263.097979 95.061885 
L 263.788744 275.10757 
L 264.479508 120.295998 
M 274.151726 151.153857 
L 274.842491 196.267281 
L 275.533255 187.733248 
M 299.711232 148.373444 
L 300.401996 145.971294 
M 320.435241 175.480194 
L 321.126005 201.072921 
M 325.959699 218.31381 
L 326.650469 211.58579 
M 330.107021 124.173357 
L 330.797792 131.801678 
L 331.488556 128.084372 
L 332.179321 118.113869 
L 332.870085 119.745354 
M 339.776834 135.829325 
L 340.467598 132.367646 
M 348.061496 167.186905 
L 348.752267 143.832152 
M 363.258857 195.807601 
L 363.949877 224.775101 
L 364.640546 205.140954 
M 366.712845 201.236561 
L 367.404322 166.029902 
L 368.095087 219.788997 
L 368.785851 210.149859 
L 369.476615 213.361549 
M 372.240651 205.94742 
L 372.932395 207.571988 
M 383.292963 154.597151 
L 384.674075 142.689589 
L 385.364839 198.664418 
M 388.126497 162.233305 
L 388.817261 166.06604 
M 398.487273 180.002924 
" style="fill:none;stroke:#ff0000;stroke-linecap:square;"/>
   </g>
   <g id="line2d_130">
    <path clip-path="url(#p9c49234ae2)" d="M 73.832727 106.793648 
L 74.523492 106.400108 
L 75.214926 113.842381 
L 76.592626 122.924472 
L 77.283397 123.531095 
L 77.974161 116.459767 
L 78.664925 111.990338 
L 79.355563 112.478931 
L 80.046327 109.582107 
L 80.737091 114.156721 
L 81.427856 117.799504 
L 82.121046 113.655912 
L 82.81181 112.213925 
L 83.502574 114.526884 
L 84.193339 112.485553 
L 84.885317 117.768319 
L 85.576087 119.857033 
L 86.266845 116.993861 
L 86.957609 114.913542 
L 87.645678 117.825051 
L 88.336449 123.70587 
L 89.027213 122.811722 
L 89.717977 118.150241 
L 90.406648 120.703908 
M 91.788177 147.260772 
L 92.478941 161.875215 
M 94.550073 174.405613 
L 95.240837 174.783496 
L 95.932216 164.565991 
M 97.313745 129.747819 
L 98.004515 111.357753 
L 98.69634 100.836619 
L 99.387113 97.717751 
L 100.077877 101.021402 
M 103.530388 200.214113 
L 104.91077 237.250121 
L 105.601534 244.819506 
L 106.292299 243.019344 
M 108.366184 200.320656 
L 109.056955 180.123077 
L 109.747719 167.534203 
L 110.439147 162.982449 
M 113.892725 209.115837 
L 114.583489 218.909141 
L 115.274253 224.69338 
L 115.964375 226.93786 
L 116.65514 228.060833 
L 117.345904 230.331675 
M 118.727419 220.474701 
L 119.418184 202.490183 
L 120.108955 180.332808 
L 121.492955 129.803442 
M 122.874484 107.783861 
L 123.565263 111.519216 
L 124.256745 127.674701 
M 127.706996 221.857576 
L 128.39776 221.709893 
L 129.088525 210.041784 
L 130.471135 173.526781 
L 131.1619 150.936276 
L 131.85267 131.996681 
L 132.545623 118.261961 
L 133.236388 109.718925 
L 133.927152 105.107886 
L 134.617916 109.384983 
L 135.306719 119.855503 
L 135.997483 136.409902 
L 136.688248 158.054235 
L 137.379012 173.695919 
L 138.758508 192.506101 
L 139.449273 198.987134 
L 140.140037 201.983214 
L 140.830801 198.378643 
L 141.523996 190.511275 
M 142.905525 165.908793 
L 143.596289 160.711785 
L 144.286767 161.358175 
L 144.977531 168.194957 
L 145.668295 178.689499 
L 146.35906 185.574198 
M 149.811687 168.438203 
L 150.502452 160.059046 
L 151.88398 140.297031 
L 152.575826 135.168427 
M 153.957362 156.610408 
L 154.648118 174.310019 
M 156.717968 216.020475 
L 157.408739 218.979922 
L 158.099666 220.035885 
L 158.790424 222.327546 
L 159.481195 215.190729 
M 162.247225 191.142719 
L 162.937989 186.417585 
L 163.627087 184.230662 
M 165.008615 192.490518 
L 165.69938 195.092318 
M 167.770322 190.485193 
L 168.461086 186.418184 
L 169.151851 181.154673 
L 169.843973 168.477008 
L 170.534753 151.847985 
L 171.225502 139.453199 
L 171.916266 130.869192 
M 173.298795 151.598496 
L 173.988964 168.321175 
L 175.368719 192.697413 
M 178.132333 200.961925 
L 178.823097 198.97947 
L 179.513862 189.107935 
L 180.204626 181.214304 
M 181.588771 171.922823 
L 182.279529 175.261186 
M 183.658693 199.03997 
L 184.349457 210.535362 
L 185.040221 212.249589 
L 185.730986 209.238227 
M 187.112145 196.899994 
L 188.49368 177.801937 
M 194.710193 218.19427 
L 195.400951 209.986109 
L 196.091715 208.245785 
L 196.78248 199.61957 
L 197.47528 185.939315 
L 198.166037 170.026397 
L 199.547572 129.023527 
L 200.238337 120.475173 
M 201.620822 143.294516 
L 202.311586 161.885543 
M 203.69088 191.352319 
L 204.381644 202.29655 
L 205.072415 211.400144 
L 205.76318 210.632794 
M 207.144912 190.139277 
L 207.835649 172.669557 
L 208.52642 158.386556 
L 209.219434 153.743808 
L 209.910833 161.984379 
L 211.981532 209.033476 
L 212.672296 218.291592 
L 213.363061 221.852329 
L 214.053825 222.463785 
M 215.434456 206.4335 
L 216.125229 195.474636 
L 216.815991 177.324872 
M 218.199407 148.350607 
L 218.890171 147.356065 
L 219.580936 162.339977 
L 220.272716 186.929728 
M 221.654251 223.418094 
L 222.345016 230.248167 
L 223.036742 230.433604 
L 223.727506 227.721986 
L 224.41827 224.451047 
L 225.109035 220.034661 
L 225.799292 212.265547 
L 226.490056 201.084802 
L 229.944197 129.356057 
L 230.634968 124.465324 
L 231.326137 121.34274 
M 232.707666 130.342868 
L 233.39843 138.720232 
L 234.089354 151.0578 
L 234.783368 160.686994 
L 235.474132 164.408717 
L 236.164896 166.310035 
L 236.85566 169.749611 
L 237.548874 169.808579 
M 238.930409 162.070623 
L 239.621173 166.420414 
L 240.303576 179.237005 
M 242.375876 180.922317 
L 243.757478 149.624461 
L 244.448243 135.683364 
L 245.139014 130.6202 
L 245.830465 129.783015 
L 246.521229 127.170072 
L 247.902757 125.737876 
L 248.594472 127.481417 
L 249.285244 130.723753 
L 249.976007 136.844677 
L 250.666771 141.042349 
L 251.358236 149.218912 
L 252.049 160.967661 
M 255.49783 205.320869 
L 256.188594 200.61942 
L 256.879617 194.803421 
L 258.26116 197.410585 
M 259.64449 190.916839 
L 260.335263 174.788345 
L 261.026026 149.343707 
L 261.71679 128.525068 
L 262.407215 117.167922 
L 263.097979 116.027715 
L 263.788744 120.165533 
L 264.479508 131.651981 
M 274.151726 211.412786 
L 274.842491 204.163574 
L 275.533255 195.026753 
M 299.711232 155.258928 
L 300.401996 168.078729 
M 320.435241 176.062119 
L 321.126005 191.530399 
M 325.959699 215.448031 
L 326.650469 210.994248 
M 330.107021 163.949305 
L 330.797792 157.994589 
L 332.179321 138.652238 
L 332.870085 132.19516 
M 339.776834 128.27476 
L 340.467598 129.483801 
M 348.061496 130.837999 
L 348.752267 147.090462 
M 363.258857 224.636904 
L 363.949877 218.005438 
L 364.640546 215.512215 
M 366.712845 215.995494 
L 367.404322 215.904735 
L 368.095087 213.778184 
L 368.785851 209.862718 
L 369.476615 202.701956 
M 372.240651 191.419296 
L 372.932395 184.196321 
M 383.292963 147.637961 
L 383.983311 139.830193 
L 384.674075 141.625301 
L 385.364839 147.673639 
M 388.126497 154.824811 
L 388.817261 156.838367 
M 398.487273 179.548123 
" style="fill:none;stroke:#0000ff;stroke-linecap:square;"/>
   </g>
   <g id="line2d_131">
    <path clip-path="url(#p9c49234ae2)" d="M 93.168538 168.969079 
L 93.85931 172.210438 
M 100.768641 117.475482 
L 102.148859 162.853608 
L 102.839623 180.460472 
M 106.983069 236.458031 
L 107.67542 222.811737 
M 111.129911 164.418372 
L 111.820676 170.933656 
L 113.201961 197.9164 
M 124.94715 148.103269 
L 125.637915 168.536804 
M 147.047377 185.003818 
L 147.738141 182.950958 
L 148.428912 183.538548 
L 149.11967 177.146148 
M 155.33644 193.074629 
L 156.027204 207.697415 
M 160.171959 206.124001 
L 160.865696 200.258245 
L 161.55646 195.63348 
M 166.388793 194.378391 
L 167.079558 191.342698 
M 191.259374 189.451515 
L 192.638151 213.298053 
L 193.328915 219.158581 
L 194.01968 221.345676 
M 240.99434 188.293574 
L 241.685105 190.603241 
M 254.116301 202.569547 
L 254.807065 205.657608 
M 265.168327 148.406731 
L 265.859098 164.881884 
L 266.549862 178.010824 
L 267.240627 186.67181 
L 267.931391 190.021687 
M 269.31247 193.951192 
L 270.003241 195.665978 
L 270.694702 201.007959 
L 272.078052 206.758303 
M 276.224019 188.364425 
L 276.914999 186.18374 
L 277.60577 183.223471 
L 278.296528 178.788556 
L 279.675411 173.706124 
L 280.366169 170.345565 
L 281.056933 158.60577 
L 281.747704 152.988246 
L 282.439865 152.844044 
L 283.821394 172.630576 
L 284.512158 173.943734 
L 285.2016 171.487324 
L 286.583128 169.483748 
L 287.273899 169.286611 
L 287.965319 169.793152 
L 288.656083 168.849106 
L 289.346848 168.10305 
L 290.037619 167.059281 
L 290.727619 169.026599 
L 291.418383 168.013096 
L 292.109147 161.021116 
L 292.799912 160.102174 
L 293.492838 170.009296 
L 294.183602 182.807221 
L 294.874897 198.738299 
L 295.565129 210.434818 
L 296.254046 214.46402 
L 296.94481 203.758652 
L 297.635575 186.710804 
L 298.326347 163.001291 
L 299.017111 151.557359 
M 301.09276 178.321596 
L 301.783525 184.385933 
L 302.472105 185.015716 
L 303.16287 178.730451 
L 303.853634 170.801481 
L 304.544398 169.183459 
L 305.236103 176.165285 
L 305.926867 180.105494 
M 307.308396 156.694559 
L 307.997679 139.482973 
L 308.688444 128.020274 
L 309.379215 130.927997 
L 311.453609 173.556752 
M 312.835137 175.957156 
L 313.524639 174.263572 
L 314.215403 177.022419 
L 314.906175 178.102523 
L 315.59694 172.441696 
M 316.977643 139.890783 
L 317.668408 128.006744 
M 319.054195 141.467879 
L 319.74447 158.540851 
M 321.813621 196.001501 
L 323.195149 194.899146 
M 324.578163 204.991815 
L 325.268928 211.521472 
M 327.344188 192.749786 
L 328.034952 172.858052 
M 333.56107 137.607374 
L 334.942599 162.205403 
L 335.633363 164.56058 
M 337.013926 147.403174 
L 338.395455 132.359768 
L 339.086069 127.97044 
M 341.158369 131.458272 
L 341.847481 135.885244 
L 342.538237 142.448727 
L 343.229568 143.902614 
M 344.607811 139.998504 
L 345.98934 128.363564 
M 349.443031 159.978716 
L 350.133119 166.492739 
L 350.82389 170.197016 
L 351.514654 174.965765 
M 352.896742 169.717281 
L 353.587498 161.406248 
L 354.278297 149.226649 
L 354.969035 146.261433 
L 355.66224 153.36791 
L 356.353004 167.395643 
L 357.734533 202.609742 
L 358.422891 209.150197 
L 359.113662 209.164844 
L 359.804426 212.603278 
L 361.186558 225.314769 
L 361.877322 228.817361 
L 362.568093 229.05838 
M 365.331316 213.694564 
L 366.022081 213.984766 
M 370.168351 199.877966 
L 370.859122 195.969609 
L 371.549886 194.32309 
M 376.38717 168.984118 
L 377.077934 168.582599 
L 377.768698 168.448026 
M 379.839748 154.621628 
L 380.530512 157.010859 
L 381.220664 156.620334 
L 381.911435 156.569437 
L 382.602199 155.208664 
M 386.055604 151.969244 
L 387.435732 154.953711 
M 389.506835 160.266759 
L 390.888363 166.466897 
M 392.269747 171.928967 
L 392.960511 177.319484 
M 394.34204 183.92385 
L 395.03298 184.643964 
M 396.414509 184.911314 
L 397.105273 183.386859 
L 397.796044 180.664099 
L 397.796044 180.664099 
" style="fill:none;stroke:#008000;stroke-linecap:square;"/>
   </g>
   <g id="patch_3">
    <path d="M 57.6 307.584 
L 57.6 41.472 
" style="fill:none;stroke:#000000;stroke-linecap:square;stroke-linejoin:miter;stroke-width:0.8;"/>
   </g>
   <g id="patch_4">
    <path d="M 414.72 307.584 
L 414.72 41.472 
" style="fill:none;stroke:#000000;stroke-linecap:square;stroke-linejoin:miter;stroke-width:0.8;"/>
   </g>
   <g id="patch_5">
    <path d="M 57.6 307.584 
L 414.72 307.584 
" style="fill:none;stroke:#000000;stroke-linecap:square;stroke-linejoin:miter;stroke-width:0.8;"/>
   </g>
   <g id="patch_6">
    <path d="M 57.6 41.472 
L 414.72 41.472 
" style="fill:none;stroke:#000000;stroke-linecap:square;stroke-linejoin:miter;stroke-width:0.8;"/>
   </g>
   <g id="text_16">
    <!-- Rel Gt Trans Z Plot -->
    <defs>
     <path d="M 44.390625 34.1875 
Q 47.5625 33.109375 50.5625 29.59375 
Q 53.5625 26.078125 56.59375 19.921875 
L 66.609375 0 
L 56 0 
L 46.6875 18.703125 
Q 43.0625 26.03125 39.671875 28.421875 
Q 36.28125 30.8125 30.421875 30.8125 
L 19.671875 30.8125 
L 19.671875 0 
L 9.8125 0 
L 9.8125 72.90625 
L 32.078125 72.90625 
Q 44.578125 72.90625 50.734375 67.671875 
Q 56.890625 62.453125 56.890625 51.90625 
Q 56.890625 45.015625 53.6875 40.46875 
Q 50.484375 35.9375 44.390625 34.1875 
z
M 19.671875 64.796875 
L 19.671875 38.921875 
L 32.078125 38.921875 
Q 39.203125 38.921875 42.84375 42.21875 
Q 46.484375 45.515625 46.484375 51.90625 
Q 46.484375 58.296875 42.84375 61.546875 
Q 39.203125 64.796875 32.078125 64.796875 
z
" id="DejaVuSans-52"/>
     <path d="M 9.421875 75.984375 
L 18.40625 75.984375 
L 18.40625 0 
L 9.421875 0 
z
" id="DejaVuSans-6c"/>
     <path d="M 59.515625 10.40625 
L 59.515625 29.984375 
L 43.40625 29.984375 
L 43.40625 38.09375 
L 69.28125 38.09375 
L 69.28125 6.78125 
Q 63.578125 2.734375 56.6875 0.65625 
Q 49.8125 -1.421875 42 -1.421875 
Q 24.90625 -1.421875 15.25 8.5625 
Q 5.609375 18.5625 5.609375 36.375 
Q 5.609375 54.25 15.25 64.234375 
Q 24.90625 74.21875 42 74.21875 
Q 49.125 74.21875 55.546875 72.453125 
Q 61.96875 70.703125 67.390625 67.28125 
L 67.390625 56.78125 
Q 61.921875 61.421875 55.765625 63.765625 
Q 49.609375 66.109375 42.828125 66.109375 
Q 29.4375 66.109375 22.71875 58.640625 
Q 16.015625 51.171875 16.015625 36.375 
Q 16.015625 21.625 22.71875 14.15625 
Q 29.4375 6.6875 42.828125 6.6875 
Q 48.046875 6.6875 52.140625 7.59375 
Q 56.25 8.5 59.515625 10.40625 
z
" id="DejaVuSans-47"/>
     <path d="M -0.296875 72.90625 
L 61.375 72.90625 
L 61.375 64.59375 
L 35.5 64.59375 
L 35.5 0 
L 25.59375 0 
L 25.59375 64.59375 
L -0.296875 64.59375 
z
" id="DejaVuSans-54"/>
     <path d="M 5.609375 72.90625 
L 62.890625 72.90625 
L 62.890625 65.375 
L 16.796875 8.296875 
L 64.015625 8.296875 
L 64.015625 0 
L 4.5 0 
L 4.5 7.515625 
L 50.59375 64.59375 
L 5.609375 64.59375 
z
" id="DejaVuSans-5a"/>
     <path d="M 19.671875 64.796875 
L 19.671875 37.40625 
L 32.078125 37.40625 
Q 38.96875 37.40625 42.71875 40.96875 
Q 46.484375 44.53125 46.484375 51.125 
Q 46.484375 57.671875 42.71875 61.234375 
Q 38.96875 64.796875 32.078125 64.796875 
z
M 9.8125 72.90625 
L 32.078125 72.90625 
Q 44.34375 72.90625 50.609375 67.359375 
Q 56.890625 61.8125 56.890625 51.125 
Q 56.890625 40.328125 50.609375 34.8125 
Q 44.34375 29.296875 32.078125 29.296875 
L 19.671875 29.296875 
L 19.671875 0 
L 9.8125 0 
z
" id="DejaVuSans-50"/>
     <path d="M 30.609375 48.390625 
Q 23.390625 48.390625 19.1875 42.75 
Q 14.984375 37.109375 14.984375 27.296875 
Q 14.984375 17.484375 19.15625 11.84375 
Q 23.34375 6.203125 30.609375 6.203125 
Q 37.796875 6.203125 41.984375 11.859375 
Q 46.1875 17.53125 46.1875 27.296875 
Q 46.1875 37.015625 41.984375 42.703125 
Q 37.796875 48.390625 30.609375 48.390625 
z
M 30.609375 56 
Q 42.328125 56 49.015625 48.375 
Q 55.71875 40.765625 55.71875 27.296875 
Q 55.71875 13.875 49.015625 6.21875 
Q 42.328125 -1.421875 30.609375 -1.421875 
Q 18.84375 -1.421875 12.171875 6.21875 
Q 5.515625 13.875 5.515625 27.296875 
Q 5.515625 40.765625 12.171875 48.375 
Q 18.84375 56 30.609375 56 
z
" id="DejaVuSans-6f"/>
    </defs>
    <g transform="translate(179.865938 35.472)scale(0.12 -0.12)">
     <use xlink:href="#DejaVuSans-52"/>
     <use x="69.419922" xlink:href="#DejaVuSans-65"/>
     <use x="130.943359" xlink:href="#DejaVuSans-6c"/>
     <use x="158.726562" xlink:href="#DejaVuSans-20"/>
     <use x="190.513672" xlink:href="#DejaVuSans-47"/>
     <use x="268.003906" xlink:href="#DejaVuSans-74"/>
     <use x="307.212891" xlink:href="#DejaVuSans-20"/>
     <use x="339" xlink:href="#DejaVuSans-54"/>
     <use x="399.865234" xlink:href="#DejaVuSans-72"/>
     <use x="440.978516" xlink:href="#DejaVuSans-61"/>
     <use x="502.257812" xlink:href="#DejaVuSans-6e"/>
     <use x="565.636719" xlink:href="#DejaVuSans-73"/>
     <use x="617.736328" xlink:href="#DejaVuSans-20"/>
     <use x="649.523438" xlink:href="#DejaVuSans-5a"/>
     <use x="718.029297" xlink:href="#DejaVuSans-20"/>
     <use x="749.816406" xlink:href="#DejaVuSans-50"/>
     <use x="810.119141" xlink:href="#DejaVuSans-6c"/>
     <use x="837.902344" xlink:href="#DejaVuSans-6f"/>
     <use x="899.083984" xlink:href="#DejaVuSans-74"/>
    </g>
   </g>
  </g>
 </g>
 <defs>
  <clipPath id="p9c49234ae2">
   <rect height="266.112" width="357.12" x="57.6" y="41.472"/>
  </clipPath>
 </defs>
</svg>
