<?xml version="1.0" encoding="utf-8" standalone="no"?>
<!DOCTYPE svg PUBLIC "-//W3C//DTD SVG 1.1//EN"
  "http://www.w3.org/Graphics/SVG/1.1/DTD/svg11.dtd">
<!-- Created with matplotlib (http://matplotlib.org/) -->
<svg height="345.6pt" version="1.1" viewBox="0 0 460.8 345.6" width="460.8pt" xmlns="http://www.w3.org/2000/svg" xmlns:xlink="http://www.w3.org/1999/xlink">
 <defs>
  <style type="text/css">
*{stroke-linecap:butt;stroke-linejoin:round;}
  </style>
 </defs>
 <g id="figure_1">
  <g id="patch_1">
   <path d="M 0 345.6 
L 460.8 345.6 
L 460.8 0 
L 0 0 
z
" style="fill:#ffffff;"/>
  </g>
  <g id="axes_1">
   <g id="patch_2">
    <path d="M 57.6 307.584 
L 414.72 307.584 
L 414.72 41.472 
L 57.6 41.472 
z
" style="fill:#ffffff;"/>
   </g>
   <g id="matplotlib.axis_1">
    <g id="xtick_1">
     <g id="line2d_1">
      <path clip-path="url(#pbdaf512baa)" d="M 70.907601 307.584 
L 70.907601 41.472 
" style="fill:none;stroke:#b0b0b0;stroke-linecap:square;stroke-width:0.8;"/>
     </g>
     <g id="line2d_2">
      <defs>
       <path d="M 0 0 
L 0 3.5 
" id="m0a0e6b7bdf" style="stroke:#000000;stroke-width:0.8;"/>
      </defs>
      <g>
       <use style="stroke:#000000;stroke-width:0.8;" x="70.907601" xlink:href="#m0a0e6b7bdf" y="307.584"/>
      </g>
     </g>
     <g id="text_1">
      <!-- 0 -->
      <defs>
       <path d="M 31.78125 66.40625 
Q 24.171875 66.40625 20.328125 58.90625 
Q 16.5 51.421875 16.5 36.375 
Q 16.5 21.390625 20.328125 13.890625 
Q 24.171875 6.390625 31.78125 6.390625 
Q 39.453125 6.390625 43.28125 13.890625 
Q 47.125 21.390625 47.125 36.375 
Q 47.125 51.421875 43.28125 58.90625 
Q 39.453125 66.40625 31.78125 66.40625 
z
M 31.78125 74.21875 
Q 44.046875 74.21875 50.515625 64.515625 
Q 56.984375 54.828125 56.984375 36.375 
Q 56.984375 17.96875 50.515625 8.265625 
Q 44.046875 -1.421875 31.78125 -1.421875 
Q 19.53125 -1.421875 13.0625 8.265625 
Q 6.59375 17.96875 6.59375 36.375 
Q 6.59375 54.828125 13.0625 64.515625 
Q 19.53125 74.21875 31.78125 74.21875 
z
" id="DejaVuSans-30"/>
      </defs>
      <g transform="translate(67.726351 322.182437)scale(0.1 -0.1)">
       <use xlink:href="#DejaVuSans-30"/>
      </g>
     </g>
    </g>
    <g id="xtick_2">
     <g id="line2d_3">
      <path clip-path="url(#pbdaf512baa)" d="M 139.981955 307.584 
L 139.981955 41.472 
" style="fill:none;stroke:#b0b0b0;stroke-linecap:square;stroke-width:0.8;"/>
     </g>
     <g id="line2d_4">
      <g>
       <use style="stroke:#000000;stroke-width:0.8;" x="139.981955" xlink:href="#m0a0e6b7bdf" y="307.584"/>
      </g>
     </g>
     <g id="text_2">
      <!-- 10 -->
      <defs>
       <path d="M 12.40625 8.296875 
L 28.515625 8.296875 
L 28.515625 63.921875 
L 10.984375 60.40625 
L 10.984375 69.390625 
L 28.421875 72.90625 
L 38.28125 72.90625 
L 38.28125 8.296875 
L 54.390625 8.296875 
L 54.390625 0 
L 12.40625 0 
z
" id="DejaVuSans-31"/>
      </defs>
      <g transform="translate(133.619455 322.182437)scale(0.1 -0.1)">
       <use xlink:href="#DejaVuSans-31"/>
       <use x="63.623047" xlink:href="#DejaVuSans-30"/>
      </g>
     </g>
    </g>
    <g id="xtick_3">
     <g id="line2d_5">
      <path clip-path="url(#pbdaf512baa)" d="M 209.056309 307.584 
L 209.056309 41.472 
" style="fill:none;stroke:#b0b0b0;stroke-linecap:square;stroke-width:0.8;"/>
     </g>
     <g id="line2d_6">
      <g>
       <use style="stroke:#000000;stroke-width:0.8;" x="209.056309" xlink:href="#m0a0e6b7bdf" y="307.584"/>
      </g>
     </g>
     <g id="text_3">
      <!-- 20 -->
      <defs>
       <path d="M 19.1875 8.296875 
L 53.609375 8.296875 
L 53.609375 0 
L 7.328125 0 
L 7.328125 8.296875 
Q 12.9375 14.109375 22.625 23.890625 
Q 32.328125 33.6875 34.8125 36.53125 
Q 39.546875 41.84375 41.421875 45.53125 
Q 43.3125 49.21875 43.3125 52.78125 
Q 43.3125 58.59375 39.234375 62.25 
Q 35.15625 65.921875 28.609375 65.921875 
Q 23.96875 65.921875 18.8125 64.3125 
Q 13.671875 62.703125 7.8125 59.421875 
L 7.8125 69.390625 
Q 13.765625 71.78125 18.9375 73 
Q 24.125 74.21875 28.421875 74.21875 
Q 39.75 74.21875 46.484375 68.546875 
Q 53.21875 62.890625 53.21875 53.421875 
Q 53.21875 48.921875 51.53125 44.890625 
Q 49.859375 40.875 45.40625 35.40625 
Q 44.1875 33.984375 37.640625 27.21875 
Q 31.109375 20.453125 19.1875 8.296875 
z
" id="DejaVuSans-32"/>
      </defs>
      <g transform="translate(202.693809 322.182437)scale(0.1 -0.1)">
       <use xlink:href="#DejaVuSans-32"/>
       <use x="63.623047" xlink:href="#DejaVuSans-30"/>
      </g>
     </g>
    </g>
    <g id="xtick_4">
     <g id="line2d_7">
      <path clip-path="url(#pbdaf512baa)" d="M 278.130663 307.584 
L 278.130663 41.472 
" style="fill:none;stroke:#b0b0b0;stroke-linecap:square;stroke-width:0.8;"/>
     </g>
     <g id="line2d_8">
      <g>
       <use style="stroke:#000000;stroke-width:0.8;" x="278.130663" xlink:href="#m0a0e6b7bdf" y="307.584"/>
      </g>
     </g>
     <g id="text_4">
      <!-- 30 -->
      <defs>
       <path d="M 40.578125 39.3125 
Q 47.65625 37.796875 51.625 33 
Q 55.609375 28.21875 55.609375 21.1875 
Q 55.609375 10.40625 48.1875 4.484375 
Q 40.765625 -1.421875 27.09375 -1.421875 
Q 22.515625 -1.421875 17.65625 -0.515625 
Q 12.796875 0.390625 7.625 2.203125 
L 7.625 11.71875 
Q 11.71875 9.328125 16.59375 8.109375 
Q 21.484375 6.890625 26.8125 6.890625 
Q 36.078125 6.890625 40.9375 10.546875 
Q 45.796875 14.203125 45.796875 21.1875 
Q 45.796875 27.640625 41.28125 31.265625 
Q 36.765625 34.90625 28.71875 34.90625 
L 20.21875 34.90625 
L 20.21875 43.015625 
L 29.109375 43.015625 
Q 36.375 43.015625 40.234375 45.921875 
Q 44.09375 48.828125 44.09375 54.296875 
Q 44.09375 59.90625 40.109375 62.90625 
Q 36.140625 65.921875 28.71875 65.921875 
Q 24.65625 65.921875 20.015625 65.03125 
Q 15.375 64.15625 9.8125 62.3125 
L 9.8125 71.09375 
Q 15.4375 72.65625 20.34375 73.4375 
Q 25.25 74.21875 29.59375 74.21875 
Q 40.828125 74.21875 47.359375 69.109375 
Q 53.90625 64.015625 53.90625 55.328125 
Q 53.90625 49.265625 50.4375 45.09375 
Q 46.96875 40.921875 40.578125 39.3125 
z
" id="DejaVuSans-33"/>
      </defs>
      <g transform="translate(271.768163 322.182437)scale(0.1 -0.1)">
       <use xlink:href="#DejaVuSans-33"/>
       <use x="63.623047" xlink:href="#DejaVuSans-30"/>
      </g>
     </g>
    </g>
    <g id="xtick_5">
     <g id="line2d_9">
      <path clip-path="url(#pbdaf512baa)" d="M 347.205016 307.584 
L 347.205016 41.472 
" style="fill:none;stroke:#b0b0b0;stroke-linecap:square;stroke-width:0.8;"/>
     </g>
     <g id="line2d_10">
      <g>
       <use style="stroke:#000000;stroke-width:0.8;" x="347.205016" xlink:href="#m0a0e6b7bdf" y="307.584"/>
      </g>
     </g>
     <g id="text_5">
      <!-- 40 -->
      <defs>
       <path d="M 37.796875 64.3125 
L 12.890625 25.390625 
L 37.796875 25.390625 
z
M 35.203125 72.90625 
L 47.609375 72.90625 
L 47.609375 25.390625 
L 58.015625 25.390625 
L 58.015625 17.1875 
L 47.609375 17.1875 
L 47.609375 0 
L 37.796875 0 
L 37.796875 17.1875 
L 4.890625 17.1875 
L 4.890625 26.703125 
z
" id="DejaVuSans-34"/>
      </defs>
      <g transform="translate(340.842516 322.182437)scale(0.1 -0.1)">
       <use xlink:href="#DejaVuSans-34"/>
       <use x="63.623047" xlink:href="#DejaVuSans-30"/>
      </g>
     </g>
    </g>
    <g id="xtick_6">
     <g id="line2d_11">
      <path clip-path="url(#pbdaf512baa)" d="M 84.722472 307.584 
L 84.722472 41.472 
" style="fill:none;stroke:#b0b0b0;stroke-linecap:square;stroke-width:0.8;"/>
     </g>
     <g id="line2d_12">
      <defs>
       <path d="M 0 0 
L 0 2 
" id="m95e6b1ceb2" style="stroke:#000000;stroke-width:0.6;"/>
      </defs>
      <g>
       <use style="stroke:#000000;stroke-width:0.6;" x="84.722472" xlink:href="#m95e6b1ceb2" y="307.584"/>
      </g>
     </g>
    </g>
    <g id="xtick_7">
     <g id="line2d_13">
      <path clip-path="url(#pbdaf512baa)" d="M 98.537342 307.584 
L 98.537342 41.472 
" style="fill:none;stroke:#b0b0b0;stroke-linecap:square;stroke-width:0.8;"/>
     </g>
     <g id="line2d_14">
      <g>
       <use style="stroke:#000000;stroke-width:0.6;" x="98.537342" xlink:href="#m95e6b1ceb2" y="307.584"/>
      </g>
     </g>
    </g>
    <g id="xtick_8">
     <g id="line2d_15">
      <path clip-path="url(#pbdaf512baa)" d="M 112.352213 307.584 
L 112.352213 41.472 
" style="fill:none;stroke:#b0b0b0;stroke-linecap:square;stroke-width:0.8;"/>
     </g>
     <g id="line2d_16">
      <g>
       <use style="stroke:#000000;stroke-width:0.6;" x="112.352213" xlink:href="#m95e6b1ceb2" y="307.584"/>
      </g>
     </g>
    </g>
    <g id="xtick_9">
     <g id="line2d_17">
      <path clip-path="url(#pbdaf512baa)" d="M 126.167084 307.584 
L 126.167084 41.472 
" style="fill:none;stroke:#b0b0b0;stroke-linecap:square;stroke-width:0.8;"/>
     </g>
     <g id="line2d_18">
      <g>
       <use style="stroke:#000000;stroke-width:0.6;" x="126.167084" xlink:href="#m95e6b1ceb2" y="307.584"/>
      </g>
     </g>
    </g>
    <g id="xtick_10">
     <g id="line2d_19">
      <path clip-path="url(#pbdaf512baa)" d="M 153.796826 307.584 
L 153.796826 41.472 
" style="fill:none;stroke:#b0b0b0;stroke-linecap:square;stroke-width:0.8;"/>
     </g>
     <g id="line2d_20">
      <g>
       <use style="stroke:#000000;stroke-width:0.6;" x="153.796826" xlink:href="#m95e6b1ceb2" y="307.584"/>
      </g>
     </g>
    </g>
    <g id="xtick_11">
     <g id="line2d_21">
      <path clip-path="url(#pbdaf512baa)" d="M 167.611696 307.584 
L 167.611696 41.472 
" style="fill:none;stroke:#b0b0b0;stroke-linecap:square;stroke-width:0.8;"/>
     </g>
     <g id="line2d_22">
      <g>
       <use style="stroke:#000000;stroke-width:0.6;" x="167.611696" xlink:href="#m95e6b1ceb2" y="307.584"/>
      </g>
     </g>
    </g>
    <g id="xtick_12">
     <g id="line2d_23">
      <path clip-path="url(#pbdaf512baa)" d="M 181.426567 307.584 
L 181.426567 41.472 
" style="fill:none;stroke:#b0b0b0;stroke-linecap:square;stroke-width:0.8;"/>
     </g>
     <g id="line2d_24">
      <g>
       <use style="stroke:#000000;stroke-width:0.6;" x="181.426567" xlink:href="#m95e6b1ceb2" y="307.584"/>
      </g>
     </g>
    </g>
    <g id="xtick_13">
     <g id="line2d_25">
      <path clip-path="url(#pbdaf512baa)" d="M 195.241438 307.584 
L 195.241438 41.472 
" style="fill:none;stroke:#b0b0b0;stroke-linecap:square;stroke-width:0.8;"/>
     </g>
     <g id="line2d_26">
      <g>
       <use style="stroke:#000000;stroke-width:0.6;" x="195.241438" xlink:href="#m95e6b1ceb2" y="307.584"/>
      </g>
     </g>
    </g>
    <g id="xtick_14">
     <g id="line2d_27">
      <path clip-path="url(#pbdaf512baa)" d="M 222.871179 307.584 
L 222.871179 41.472 
" style="fill:none;stroke:#b0b0b0;stroke-linecap:square;stroke-width:0.8;"/>
     </g>
     <g id="line2d_28">
      <g>
       <use style="stroke:#000000;stroke-width:0.6;" x="222.871179" xlink:href="#m95e6b1ceb2" y="307.584"/>
      </g>
     </g>
    </g>
    <g id="xtick_15">
     <g id="line2d_29">
      <path clip-path="url(#pbdaf512baa)" d="M 236.68605 307.584 
L 236.68605 41.472 
" style="fill:none;stroke:#b0b0b0;stroke-linecap:square;stroke-width:0.8;"/>
     </g>
     <g id="line2d_30">
      <g>
       <use style="stroke:#000000;stroke-width:0.6;" x="236.68605" xlink:href="#m95e6b1ceb2" y="307.584"/>
      </g>
     </g>
    </g>
    <g id="xtick_16">
     <g id="line2d_31">
      <path clip-path="url(#pbdaf512baa)" d="M 250.500921 307.584 
L 250.500921 41.472 
" style="fill:none;stroke:#b0b0b0;stroke-linecap:square;stroke-width:0.8;"/>
     </g>
     <g id="line2d_32">
      <g>
       <use style="stroke:#000000;stroke-width:0.6;" x="250.500921" xlink:href="#m95e6b1ceb2" y="307.584"/>
      </g>
     </g>
    </g>
    <g id="xtick_17">
     <g id="line2d_33">
      <path clip-path="url(#pbdaf512baa)" d="M 264.315792 307.584 
L 264.315792 41.472 
" style="fill:none;stroke:#b0b0b0;stroke-linecap:square;stroke-width:0.8;"/>
     </g>
     <g id="line2d_34">
      <g>
       <use style="stroke:#000000;stroke-width:0.6;" x="264.315792" xlink:href="#m95e6b1ceb2" y="307.584"/>
      </g>
     </g>
    </g>
    <g id="xtick_18">
     <g id="line2d_35">
      <path clip-path="url(#pbdaf512baa)" d="M 291.945533 307.584 
L 291.945533 41.472 
" style="fill:none;stroke:#b0b0b0;stroke-linecap:square;stroke-width:0.8;"/>
     </g>
     <g id="line2d_36">
      <g>
       <use style="stroke:#000000;stroke-width:0.6;" x="291.945533" xlink:href="#m95e6b1ceb2" y="307.584"/>
      </g>
     </g>
    </g>
    <g id="xtick_19">
     <g id="line2d_37">
      <path clip-path="url(#pbdaf512baa)" d="M 305.760404 307.584 
L 305.760404 41.472 
" style="fill:none;stroke:#b0b0b0;stroke-linecap:square;stroke-width:0.8;"/>
     </g>
     <g id="line2d_38">
      <g>
       <use style="stroke:#000000;stroke-width:0.6;" x="305.760404" xlink:href="#m95e6b1ceb2" y="307.584"/>
      </g>
     </g>
    </g>
    <g id="xtick_20">
     <g id="line2d_39">
      <path clip-path="url(#pbdaf512baa)" d="M 319.575275 307.584 
L 319.575275 41.472 
" style="fill:none;stroke:#b0b0b0;stroke-linecap:square;stroke-width:0.8;"/>
     </g>
     <g id="line2d_40">
      <g>
       <use style="stroke:#000000;stroke-width:0.6;" x="319.575275" xlink:href="#m95e6b1ceb2" y="307.584"/>
      </g>
     </g>
    </g>
    <g id="xtick_21">
     <g id="line2d_41">
      <path clip-path="url(#pbdaf512baa)" d="M 333.390146 307.584 
L 333.390146 41.472 
" style="fill:none;stroke:#b0b0b0;stroke-linecap:square;stroke-width:0.8;"/>
     </g>
     <g id="line2d_42">
      <g>
       <use style="stroke:#000000;stroke-width:0.6;" x="333.390146" xlink:href="#m95e6b1ceb2" y="307.584"/>
      </g>
     </g>
    </g>
    <g id="xtick_22">
     <g id="line2d_43">
      <path clip-path="url(#pbdaf512baa)" d="M 361.019887 307.584 
L 361.019887 41.472 
" style="fill:none;stroke:#b0b0b0;stroke-linecap:square;stroke-width:0.8;"/>
     </g>
     <g id="line2d_44">
      <g>
       <use style="stroke:#000000;stroke-width:0.6;" x="361.019887" xlink:href="#m95e6b1ceb2" y="307.584"/>
      </g>
     </g>
    </g>
    <g id="xtick_23">
     <g id="line2d_45">
      <path clip-path="url(#pbdaf512baa)" d="M 374.834758 307.584 
L 374.834758 41.472 
" style="fill:none;stroke:#b0b0b0;stroke-linecap:square;stroke-width:0.8;"/>
     </g>
     <g id="line2d_46">
      <g>
       <use style="stroke:#000000;stroke-width:0.6;" x="374.834758" xlink:href="#m95e6b1ceb2" y="307.584"/>
      </g>
     </g>
    </g>
    <g id="xtick_24">
     <g id="line2d_47">
      <path clip-path="url(#pbdaf512baa)" d="M 388.649629 307.584 
L 388.649629 41.472 
" style="fill:none;stroke:#b0b0b0;stroke-linecap:square;stroke-width:0.8;"/>
     </g>
     <g id="line2d_48">
      <g>
       <use style="stroke:#000000;stroke-width:0.6;" x="388.649629" xlink:href="#m95e6b1ceb2" y="307.584"/>
      </g>
     </g>
    </g>
    <g id="xtick_25">
     <g id="line2d_49">
      <path clip-path="url(#pbdaf512baa)" d="M 402.4645 307.584 
L 402.4645 41.472 
" style="fill:none;stroke:#b0b0b0;stroke-linecap:square;stroke-width:0.8;"/>
     </g>
     <g id="line2d_50">
      <g>
       <use style="stroke:#000000;stroke-width:0.6;" x="402.4645" xlink:href="#m95e6b1ceb2" y="307.584"/>
      </g>
     </g>
    </g>
    <g id="text_6">
     <!-- frame # [] -->
     <defs>
      <path d="M 37.109375 75.984375 
L 37.109375 68.5 
L 28.515625 68.5 
Q 23.6875 68.5 21.796875 66.546875 
Q 19.921875 64.59375 19.921875 59.515625 
L 19.921875 54.6875 
L 34.71875 54.6875 
L 34.71875 47.703125 
L 19.921875 47.703125 
L 19.921875 0 
L 10.890625 0 
L 10.890625 47.703125 
L 2.296875 47.703125 
L 2.296875 54.6875 
L 10.890625 54.6875 
L 10.890625 58.5 
Q 10.890625 67.625 15.140625 71.796875 
Q 19.390625 75.984375 28.609375 75.984375 
z
" id="DejaVuSans-66"/>
      <path d="M 41.109375 46.296875 
Q 39.59375 47.171875 37.8125 47.578125 
Q 36.03125 48 33.890625 48 
Q 26.265625 48 22.1875 43.046875 
Q 18.109375 38.09375 18.109375 28.8125 
L 18.109375 0 
L 9.078125 0 
L 9.078125 54.6875 
L 18.109375 54.6875 
L 18.109375 46.1875 
Q 20.953125 51.171875 25.484375 53.578125 
Q 30.03125 56 36.53125 56 
Q 37.453125 56 38.578125 55.875 
Q 39.703125 55.765625 41.0625 55.515625 
z
" id="DejaVuSans-72"/>
      <path d="M 34.28125 27.484375 
Q 23.390625 27.484375 19.1875 25 
Q 14.984375 22.515625 14.984375 16.5 
Q 14.984375 11.71875 18.140625 8.90625 
Q 21.296875 6.109375 26.703125 6.109375 
Q 34.1875 6.109375 38.703125 11.40625 
Q 43.21875 16.703125 43.21875 25.484375 
L 43.21875 27.484375 
z
M 52.203125 31.203125 
L 52.203125 0 
L 43.21875 0 
L 43.21875 8.296875 
Q 40.140625 3.328125 35.546875 0.953125 
Q 30.953125 -1.421875 24.3125 -1.421875 
Q 15.921875 -1.421875 10.953125 3.296875 
Q 6 8.015625 6 15.921875 
Q 6 25.140625 12.171875 29.828125 
Q 18.359375 34.515625 30.609375 34.515625 
L 43.21875 34.515625 
L 43.21875 35.40625 
Q 43.21875 41.609375 39.140625 45 
Q 35.0625 48.390625 27.6875 48.390625 
Q 23 48.390625 18.546875 47.265625 
Q 14.109375 46.140625 10.015625 43.890625 
L 10.015625 52.203125 
Q 14.9375 54.109375 19.578125 55.046875 
Q 24.21875 56 28.609375 56 
Q 40.484375 56 46.34375 49.84375 
Q 52.203125 43.703125 52.203125 31.203125 
z
" id="DejaVuSans-61"/>
      <path d="M 52 44.1875 
Q 55.375 50.25 60.0625 53.125 
Q 64.75 56 71.09375 56 
Q 79.640625 56 84.28125 50.015625 
Q 88.921875 44.046875 88.921875 33.015625 
L 88.921875 0 
L 79.890625 0 
L 79.890625 32.71875 
Q 79.890625 40.578125 77.09375 44.375 
Q 74.3125 48.1875 68.609375 48.1875 
Q 61.625 48.1875 57.5625 43.546875 
Q 53.515625 38.921875 53.515625 30.90625 
L 53.515625 0 
L 44.484375 0 
L 44.484375 32.71875 
Q 44.484375 40.625 41.703125 44.40625 
Q 38.921875 48.1875 33.109375 48.1875 
Q 26.21875 48.1875 22.15625 43.53125 
Q 18.109375 38.875 18.109375 30.90625 
L 18.109375 0 
L 9.078125 0 
L 9.078125 54.6875 
L 18.109375 54.6875 
L 18.109375 46.1875 
Q 21.1875 51.21875 25.484375 53.609375 
Q 29.78125 56 35.6875 56 
Q 41.65625 56 45.828125 52.96875 
Q 50 49.953125 52 44.1875 
z
" id="DejaVuSans-6d"/>
      <path d="M 56.203125 29.59375 
L 56.203125 25.203125 
L 14.890625 25.203125 
Q 15.484375 15.921875 20.484375 11.0625 
Q 25.484375 6.203125 34.421875 6.203125 
Q 39.59375 6.203125 44.453125 7.46875 
Q 49.3125 8.734375 54.109375 11.28125 
L 54.109375 2.78125 
Q 49.265625 0.734375 44.1875 -0.34375 
Q 39.109375 -1.421875 33.890625 -1.421875 
Q 20.796875 -1.421875 13.15625 6.1875 
Q 5.515625 13.8125 5.515625 26.8125 
Q 5.515625 40.234375 12.765625 48.109375 
Q 20.015625 56 32.328125 56 
Q 43.359375 56 49.78125 48.890625 
Q 56.203125 41.796875 56.203125 29.59375 
z
M 47.21875 32.234375 
Q 47.125 39.59375 43.09375 43.984375 
Q 39.0625 48.390625 32.421875 48.390625 
Q 24.90625 48.390625 20.390625 44.140625 
Q 15.875 39.890625 15.1875 32.171875 
z
" id="DejaVuSans-65"/>
      <path id="DejaVuSans-20"/>
      <path d="M 51.125 44 
L 36.921875 44 
L 32.8125 27.6875 
L 47.125 27.6875 
z
M 43.796875 71.78125 
L 38.71875 51.515625 
L 52.984375 51.515625 
L 58.109375 71.78125 
L 65.921875 71.78125 
L 60.890625 51.515625 
L 76.125 51.515625 
L 76.125 44 
L 58.984375 44 
L 54.984375 27.6875 
L 70.515625 27.6875 
L 70.515625 20.21875 
L 53.078125 20.21875 
L 48 0 
L 40.1875 0 
L 45.21875 20.21875 
L 30.90625 20.21875 
L 25.875 0 
L 18.015625 0 
L 23.09375 20.21875 
L 7.71875 20.21875 
L 7.71875 27.6875 
L 24.90625 27.6875 
L 29 44 
L 13.28125 44 
L 13.28125 51.515625 
L 30.90625 51.515625 
L 35.890625 71.78125 
z
" id="DejaVuSans-23"/>
      <path d="M 8.59375 75.984375 
L 29.296875 75.984375 
L 29.296875 69 
L 17.578125 69 
L 17.578125 -6.203125 
L 29.296875 -6.203125 
L 29.296875 -13.1875 
L 8.59375 -13.1875 
z
" id="DejaVuSans-5b"/>
      <path d="M 30.421875 75.984375 
L 30.421875 -13.1875 
L 9.71875 -13.1875 
L 9.71875 -6.203125 
L 21.390625 -6.203125 
L 21.390625 69 
L 9.71875 69 
L 9.71875 75.984375 
z
" id="DejaVuSans-5d"/>
     </defs>
     <g transform="translate(210.063906 335.860562)scale(0.1 -0.1)">
      <use xlink:href="#DejaVuSans-66"/>
      <use x="35.205078" xlink:href="#DejaVuSans-72"/>
      <use x="76.318359" xlink:href="#DejaVuSans-61"/>
      <use x="137.597656" xlink:href="#DejaVuSans-6d"/>
      <use x="235.009766" xlink:href="#DejaVuSans-65"/>
      <use x="296.533203" xlink:href="#DejaVuSans-20"/>
      <use x="328.320312" xlink:href="#DejaVuSans-23"/>
      <use x="412.109375" xlink:href="#DejaVuSans-20"/>
      <use x="443.896484" xlink:href="#DejaVuSans-5b"/>
      <use x="482.910156" xlink:href="#DejaVuSans-5d"/>
     </g>
    </g>
   </g>
   <g id="matplotlib.axis_2">
    <g id="ytick_1">
     <g id="line2d_51">
      <path clip-path="url(#pbdaf512baa)" d="M 57.6 285.031348 
L 414.72 285.031348 
" style="fill:none;stroke:#b0b0b0;stroke-linecap:square;stroke-width:0.8;"/>
     </g>
     <g id="line2d_52">
      <defs>
       <path d="M 0 0 
L -3.5 0 
" id="mda61effc5c" style="stroke:#000000;stroke-width:0.8;"/>
      </defs>
      <g>
       <use style="stroke:#000000;stroke-width:0.8;" x="57.6" xlink:href="#mda61effc5c" y="285.031348"/>
      </g>
     </g>
     <g id="text_7">
      <!-- −0.4 -->
      <defs>
       <path d="M 10.59375 35.5 
L 73.1875 35.5 
L 73.1875 27.203125 
L 10.59375 27.203125 
z
" id="DejaVuSans-2212"/>
       <path d="M 10.6875 12.40625 
L 21 12.40625 
L 21 0 
L 10.6875 0 
z
" id="DejaVuSans-2e"/>
      </defs>
      <g transform="translate(26.317187 288.830567)scale(0.1 -0.1)">
       <use xlink:href="#DejaVuSans-2212"/>
       <use x="83.789062" xlink:href="#DejaVuSans-30"/>
       <use x="147.412109" xlink:href="#DejaVuSans-2e"/>
       <use x="179.199219" xlink:href="#DejaVuSans-34"/>
      </g>
     </g>
    </g>
    <g id="ytick_2">
     <g id="line2d_53">
      <path clip-path="url(#pbdaf512baa)" d="M 57.6 230.57107 
L 414.72 230.57107 
" style="fill:none;stroke:#b0b0b0;stroke-linecap:square;stroke-width:0.8;"/>
     </g>
     <g id="line2d_54">
      <g>
       <use style="stroke:#000000;stroke-width:0.8;" x="57.6" xlink:href="#mda61effc5c" y="230.57107"/>
      </g>
     </g>
     <g id="text_8">
      <!-- −0.2 -->
      <g transform="translate(26.317187 234.370289)scale(0.1 -0.1)">
       <use xlink:href="#DejaVuSans-2212"/>
       <use x="83.789062" xlink:href="#DejaVuSans-30"/>
       <use x="147.412109" xlink:href="#DejaVuSans-2e"/>
       <use x="179.199219" xlink:href="#DejaVuSans-32"/>
      </g>
     </g>
    </g>
    <g id="ytick_3">
     <g id="line2d_55">
      <path clip-path="url(#pbdaf512baa)" d="M 57.6 176.110792 
L 414.72 176.110792 
" style="fill:none;stroke:#b0b0b0;stroke-linecap:square;stroke-width:0.8;"/>
     </g>
     <g id="line2d_56">
      <g>
       <use style="stroke:#000000;stroke-width:0.8;" x="57.6" xlink:href="#mda61effc5c" y="176.110792"/>
      </g>
     </g>
     <g id="text_9">
      <!-- 0.0 -->
      <g transform="translate(34.696875 179.91001)scale(0.1 -0.1)">
       <use xlink:href="#DejaVuSans-30"/>
       <use x="63.623047" xlink:href="#DejaVuSans-2e"/>
       <use x="95.410156" xlink:href="#DejaVuSans-30"/>
      </g>
     </g>
    </g>
    <g id="ytick_4">
     <g id="line2d_57">
      <path clip-path="url(#pbdaf512baa)" d="M 57.6 121.650513 
L 414.72 121.650513 
" style="fill:none;stroke:#b0b0b0;stroke-linecap:square;stroke-width:0.8;"/>
     </g>
     <g id="line2d_58">
      <g>
       <use style="stroke:#000000;stroke-width:0.8;" x="57.6" xlink:href="#mda61effc5c" y="121.650513"/>
      </g>
     </g>
     <g id="text_10">
      <!-- 0.2 -->
      <g transform="translate(34.696875 125.449732)scale(0.1 -0.1)">
       <use xlink:href="#DejaVuSans-30"/>
       <use x="63.623047" xlink:href="#DejaVuSans-2e"/>
       <use x="95.410156" xlink:href="#DejaVuSans-32"/>
      </g>
     </g>
    </g>
    <g id="ytick_5">
     <g id="line2d_59">
      <path clip-path="url(#pbdaf512baa)" d="M 57.6 67.190235 
L 414.72 67.190235 
" style="fill:none;stroke:#b0b0b0;stroke-linecap:square;stroke-width:0.8;"/>
     </g>
     <g id="line2d_60">
      <g>
       <use style="stroke:#000000;stroke-width:0.8;" x="57.6" xlink:href="#mda61effc5c" y="67.190235"/>
      </g>
     </g>
     <g id="text_11">
      <!-- 0.4 -->
      <g transform="translate(34.696875 70.989454)scale(0.1 -0.1)">
       <use xlink:href="#DejaVuSans-30"/>
       <use x="63.623047" xlink:href="#DejaVuSans-2e"/>
       <use x="95.410156" xlink:href="#DejaVuSans-34"/>
      </g>
     </g>
    </g>
    <g id="ytick_6">
     <g id="line2d_61">
      <path clip-path="url(#pbdaf512baa)" d="M 57.6 298.646418 
L 414.72 298.646418 
" style="fill:none;stroke:#b0b0b0;stroke-linecap:square;stroke-width:0.8;"/>
     </g>
     <g id="line2d_62">
      <defs>
       <path d="M 0 0 
L -2 0 
" id="mac5f830ff4" style="stroke:#000000;stroke-width:0.6;"/>
      </defs>
      <g>
       <use style="stroke:#000000;stroke-width:0.6;" x="57.6" xlink:href="#mac5f830ff4" y="298.646418"/>
      </g>
     </g>
    </g>
    <g id="ytick_7">
     <g id="line2d_63">
      <path clip-path="url(#pbdaf512baa)" d="M 57.6 271.416279 
L 414.72 271.416279 
" style="fill:none;stroke:#b0b0b0;stroke-linecap:square;stroke-width:0.8;"/>
     </g>
     <g id="line2d_64">
      <g>
       <use style="stroke:#000000;stroke-width:0.6;" x="57.6" xlink:href="#mac5f830ff4" y="271.416279"/>
      </g>
     </g>
    </g>
    <g id="ytick_8">
     <g id="line2d_65">
      <path clip-path="url(#pbdaf512baa)" d="M 57.6 257.801209 
L 414.72 257.801209 
" style="fill:none;stroke:#b0b0b0;stroke-linecap:square;stroke-width:0.8;"/>
     </g>
     <g id="line2d_66">
      <g>
       <use style="stroke:#000000;stroke-width:0.6;" x="57.6" xlink:href="#mac5f830ff4" y="257.801209"/>
      </g>
     </g>
    </g>
    <g id="ytick_9">
     <g id="line2d_67">
      <path clip-path="url(#pbdaf512baa)" d="M 57.6 244.18614 
L 414.72 244.18614 
" style="fill:none;stroke:#b0b0b0;stroke-linecap:square;stroke-width:0.8;"/>
     </g>
     <g id="line2d_68">
      <g>
       <use style="stroke:#000000;stroke-width:0.6;" x="57.6" xlink:href="#mac5f830ff4" y="244.18614"/>
      </g>
     </g>
    </g>
    <g id="ytick_10">
     <g id="line2d_69">
      <path clip-path="url(#pbdaf512baa)" d="M 57.6 230.57107 
L 414.72 230.57107 
" style="fill:none;stroke:#b0b0b0;stroke-linecap:square;stroke-width:0.8;"/>
     </g>
     <g id="line2d_70">
      <g>
       <use style="stroke:#000000;stroke-width:0.6;" x="57.6" xlink:href="#mac5f830ff4" y="230.57107"/>
      </g>
     </g>
    </g>
    <g id="ytick_11">
     <g id="line2d_71">
      <path clip-path="url(#pbdaf512baa)" d="M 57.6 216.956 
L 414.72 216.956 
" style="fill:none;stroke:#b0b0b0;stroke-linecap:square;stroke-width:0.8;"/>
     </g>
     <g id="line2d_72">
      <g>
       <use style="stroke:#000000;stroke-width:0.6;" x="57.6" xlink:href="#mac5f830ff4" y="216.956"/>
      </g>
     </g>
    </g>
    <g id="ytick_12">
     <g id="line2d_73">
      <path clip-path="url(#pbdaf512baa)" d="M 57.6 203.340931 
L 414.72 203.340931 
" style="fill:none;stroke:#b0b0b0;stroke-linecap:square;stroke-width:0.8;"/>
     </g>
     <g id="line2d_74">
      <g>
       <use style="stroke:#000000;stroke-width:0.6;" x="57.6" xlink:href="#mac5f830ff4" y="203.340931"/>
      </g>
     </g>
    </g>
    <g id="ytick_13">
     <g id="line2d_75">
      <path clip-path="url(#pbdaf512baa)" d="M 57.6 189.725861 
L 414.72 189.725861 
" style="fill:none;stroke:#b0b0b0;stroke-linecap:square;stroke-width:0.8;"/>
     </g>
     <g id="line2d_76">
      <g>
       <use style="stroke:#000000;stroke-width:0.6;" x="57.6" xlink:href="#mac5f830ff4" y="189.725861"/>
      </g>
     </g>
    </g>
    <g id="ytick_14">
     <g id="line2d_77">
      <path clip-path="url(#pbdaf512baa)" d="M 57.6 176.110792 
L 414.72 176.110792 
" style="fill:none;stroke:#b0b0b0;stroke-linecap:square;stroke-width:0.8;"/>
     </g>
     <g id="line2d_78">
      <g>
       <use style="stroke:#000000;stroke-width:0.6;" x="57.6" xlink:href="#mac5f830ff4" y="176.110792"/>
      </g>
     </g>
    </g>
    <g id="ytick_15">
     <g id="line2d_79">
      <path clip-path="url(#pbdaf512baa)" d="M 57.6 162.495722 
L 414.72 162.495722 
" style="fill:none;stroke:#b0b0b0;stroke-linecap:square;stroke-width:0.8;"/>
     </g>
     <g id="line2d_80">
      <g>
       <use style="stroke:#000000;stroke-width:0.6;" x="57.6" xlink:href="#mac5f830ff4" y="162.495722"/>
      </g>
     </g>
    </g>
    <g id="ytick_16">
     <g id="line2d_81">
      <path clip-path="url(#pbdaf512baa)" d="M 57.6 148.880652 
L 414.72 148.880652 
" style="fill:none;stroke:#b0b0b0;stroke-linecap:square;stroke-width:0.8;"/>
     </g>
     <g id="line2d_82">
      <g>
       <use style="stroke:#000000;stroke-width:0.6;" x="57.6" xlink:href="#mac5f830ff4" y="148.880652"/>
      </g>
     </g>
    </g>
    <g id="ytick_17">
     <g id="line2d_83">
      <path clip-path="url(#pbdaf512baa)" d="M 57.6 135.265583 
L 414.72 135.265583 
" style="fill:none;stroke:#b0b0b0;stroke-linecap:square;stroke-width:0.8;"/>
     </g>
     <g id="line2d_84">
      <g>
       <use style="stroke:#000000;stroke-width:0.6;" x="57.6" xlink:href="#mac5f830ff4" y="135.265583"/>
      </g>
     </g>
    </g>
    <g id="ytick_18">
     <g id="line2d_85">
      <path clip-path="url(#pbdaf512baa)" d="M 57.6 121.650513 
L 414.72 121.650513 
" style="fill:none;stroke:#b0b0b0;stroke-linecap:square;stroke-width:0.8;"/>
     </g>
     <g id="line2d_86">
      <g>
       <use style="stroke:#000000;stroke-width:0.6;" x="57.6" xlink:href="#mac5f830ff4" y="121.650513"/>
      </g>
     </g>
    </g>
    <g id="ytick_19">
     <g id="line2d_87">
      <path clip-path="url(#pbdaf512baa)" d="M 57.6 108.035444 
L 414.72 108.035444 
" style="fill:none;stroke:#b0b0b0;stroke-linecap:square;stroke-width:0.8;"/>
     </g>
     <g id="line2d_88">
      <g>
       <use style="stroke:#000000;stroke-width:0.6;" x="57.6" xlink:href="#mac5f830ff4" y="108.035444"/>
      </g>
     </g>
    </g>
    <g id="ytick_20">
     <g id="line2d_89">
      <path clip-path="url(#pbdaf512baa)" d="M 57.6 94.420374 
L 414.72 94.420374 
" style="fill:none;stroke:#b0b0b0;stroke-linecap:square;stroke-width:0.8;"/>
     </g>
     <g id="line2d_90">
      <g>
       <use style="stroke:#000000;stroke-width:0.6;" x="57.6" xlink:href="#mac5f830ff4" y="94.420374"/>
      </g>
     </g>
    </g>
    <g id="ytick_21">
     <g id="line2d_91">
      <path clip-path="url(#pbdaf512baa)" d="M 57.6 80.805304 
L 414.72 80.805304 
" style="fill:none;stroke:#b0b0b0;stroke-linecap:square;stroke-width:0.8;"/>
     </g>
     <g id="line2d_92">
      <g>
       <use style="stroke:#000000;stroke-width:0.6;" x="57.6" xlink:href="#mac5f830ff4" y="80.805304"/>
      </g>
     </g>
    </g>
    <g id="ytick_22">
     <g id="line2d_93">
      <path clip-path="url(#pbdaf512baa)" d="M 57.6 67.190235 
L 414.72 67.190235 
" style="fill:none;stroke:#b0b0b0;stroke-linecap:square;stroke-width:0.8;"/>
     </g>
     <g id="line2d_94">
      <g>
       <use style="stroke:#000000;stroke-width:0.6;" x="57.6" xlink:href="#mac5f830ff4" y="67.190235"/>
      </g>
     </g>
    </g>
    <g id="ytick_23">
     <g id="line2d_95">
      <path clip-path="url(#pbdaf512baa)" d="M 57.6 53.575165 
L 414.72 53.575165 
" style="fill:none;stroke:#b0b0b0;stroke-linecap:square;stroke-width:0.8;"/>
     </g>
     <g id="line2d_96">
      <g>
       <use style="stroke:#000000;stroke-width:0.6;" x="57.6" xlink:href="#mac5f830ff4" y="53.575165"/>
      </g>
     </g>
    </g>
    <g id="text_12">
     <!-- rot z -->
     <defs>
      <path d="M 30.609375 48.390625 
Q 23.390625 48.390625 19.1875 42.75 
Q 14.984375 37.109375 14.984375 27.296875 
Q 14.984375 17.484375 19.15625 11.84375 
Q 23.34375 6.203125 30.609375 6.203125 
Q 37.796875 6.203125 41.984375 11.859375 
Q 46.1875 17.53125 46.1875 27.296875 
Q 46.1875 37.015625 41.984375 42.703125 
Q 37.796875 48.390625 30.609375 48.390625 
z
M 30.609375 56 
Q 42.328125 56 49.015625 48.375 
Q 55.71875 40.765625 55.71875 27.296875 
Q 55.71875 13.875 49.015625 6.21875 
Q 42.328125 -1.421875 30.609375 -1.421875 
Q 18.84375 -1.421875 12.171875 6.21875 
Q 5.515625 13.875 5.515625 27.296875 
Q 5.515625 40.765625 12.171875 48.375 
Q 18.84375 56 30.609375 56 
z
" id="DejaVuSans-6f"/>
      <path d="M 18.3125 70.21875 
L 18.3125 54.6875 
L 36.8125 54.6875 
L 36.8125 47.703125 
L 18.3125 47.703125 
L 18.3125 18.015625 
Q 18.3125 11.328125 20.140625 9.421875 
Q 21.96875 7.515625 27.59375 7.515625 
L 36.8125 7.515625 
L 36.8125 0 
L 27.59375 0 
Q 17.1875 0 13.234375 3.875 
Q 9.28125 7.765625 9.28125 18.015625 
L 9.28125 47.703125 
L 2.6875 47.703125 
L 2.6875 54.6875 
L 9.28125 54.6875 
L 9.28125 70.21875 
z
" id="DejaVuSans-74"/>
      <path d="M 5.515625 54.6875 
L 48.1875 54.6875 
L 48.1875 46.484375 
L 14.40625 7.171875 
L 48.1875 7.171875 
L 48.1875 0 
L 4.296875 0 
L 4.296875 8.203125 
L 38.09375 47.515625 
L 5.515625 47.515625 
z
" id="DejaVuSans-7a"/>
     </defs>
     <g transform="translate(20.2375 185.814719)rotate(-90)scale(0.1 -0.1)">
      <use xlink:href="#DejaVuSans-72"/>
      <use x="41.082031" xlink:href="#DejaVuSans-6f"/>
      <use x="102.263672" xlink:href="#DejaVuSans-74"/>
      <use x="141.472656" xlink:href="#DejaVuSans-20"/>
      <use x="173.259766" xlink:href="#DejaVuSans-7a"/>
     </g>
    </g>
   </g>
   <g id="line2d_97">
    <path clip-path="url(#pbdaf512baa)" d="M 73.832727 189.464187 
L 74.523492 187.711251 
L 75.214926 184.983965 
L 75.90502 181.334316 
L 76.592626 179.600624 
L 77.283397 180.772954 
L 77.974161 183.764504 
L 78.664925 187.867176 
L 79.355563 185.906826 
L 80.046327 180.014415 
L 80.737091 166.546566 
L 81.427856 176.554927 
L 82.121046 177.515886 
L 82.81181 176.902748 
L 83.502574 178.724526 
L 84.193339 171.449968 
L 84.885317 220.800495 
L 85.576087 175.522907 
L 86.266845 177.243873 
L 86.957609 176.860551 
L 87.645678 181.113339 
L 88.336449 184.026735 
L 89.027213 169.753295 
L 89.717977 181.428029 
L 90.406648 180.811843 
M 91.788177 172.886367 
L 92.478941 174.405775 
M 94.550073 187.8669 
L 95.240837 217.844024 
L 95.932216 206.192477 
M 97.313745 192.752748 
L 98.004515 186.049803 
L 98.69634 180.629088 
L 99.387113 165.820427 
L 100.077877 161.136499 
M 103.530388 160.472171 
L 104.221159 173.085272 
L 104.91077 178.248677 
L 105.601534 173.719439 
L 106.292299 195.73862 
M 108.366184 191.576561 
L 109.056955 180.338208 
L 109.747719 156.638258 
L 110.439147 167.31187 
M 113.892725 173.273914 
L 114.583489 176.589887 
L 115.274253 183.14456 
L 115.964375 186.691053 
L 116.65514 179.100694 
L 117.345904 167.712288 
M 118.727419 177.579741 
L 119.418184 164.882939 
L 120.108955 147.990371 
L 120.799719 156.062185 
L 121.492955 144.753186 
M 122.874484 191.863957 
L 123.565263 193.323438 
L 124.256745 199.748633 
M 127.706996 173.273656 
L 128.39776 180.548845 
L 129.088525 181.741215 
L 130.471135 155.045107 
L 131.1619 153.996224 
L 131.85267 160.233159 
L 132.545623 173.949035 
L 133.236388 184.941012 
L 133.927152 188.10459 
L 134.617916 195.6742 
L 135.306719 190.15079 
L 135.997483 197.909558 
L 136.688248 183.508114 
L 137.379012 184.457359 
L 138.069776 179.417257 
L 138.758508 176.894168 
L 140.140037 188.678606 
L 140.830801 164.485826 
L 141.523996 165.306921 
M 142.905525 159.698941 
L 143.596289 153.550533 
L 144.286767 184.121857 
L 144.977531 189.103557 
L 145.668295 178.021363 
L 146.35906 187.621617 
M 149.811687 174.713223 
L 150.502452 189.827265 
L 151.193216 187.010278 
L 151.88398 182.171943 
L 152.575826 166.077472 
M 153.957362 155.767246 
L 154.648118 161.654999 
M 156.717968 166.521698 
L 157.408739 179.562448 
L 158.099666 174.25641 
L 158.790424 172.337009 
L 159.481195 167.725078 
M 162.247225 174.114037 
L 162.937989 176.775229 
L 163.627087 185.887599 
M 165.008615 187.299533 
L 165.69938 184.842773 
M 167.770322 190.803026 
L 168.461086 184.706319 
L 169.151851 192.266317 
L 169.843973 187.956969 
L 170.534753 202.75352 
L 171.225502 174.187193 
L 171.916266 177.391712 
M 173.298795 160.171982 
L 173.988964 157.770845 
L 174.679729 164.866687 
L 175.368719 139.535795 
M 178.132333 168.865307 
L 178.823097 165.860049 
L 179.513862 171.903527 
L 180.204626 188.109412 
M 181.588771 168.927965 
L 182.279529 172.557777 
M 183.658693 176.471736 
L 184.349457 193.689018 
L 185.040221 181.715411 
L 185.730986 199.406209 
M 187.112145 190.938957 
L 187.80291 191.599347 
L 188.49368 197.328565 
M 194.710193 165.559868 
L 195.400951 160.888694 
L 196.091715 169.840154 
L 196.78248 164.742364 
L 197.47528 161.223305 
L 198.166037 168.292527 
L 198.856808 146.329532 
L 199.547572 173.236609 
L 200.238337 179.942288 
M 201.620822 196.313859 
L 202.311586 195.055621 
M 203.69088 186.678422 
L 204.381644 193.775964 
L 205.072415 178.61226 
L 205.76318 166.557862 
M 207.144912 176.967638 
L 207.835649 156.198393 
L 208.52642 182.471541 
L 209.219434 162.464537 
L 210.600962 187.34153 
L 211.291726 189.13988 
L 211.981532 204.624756 
L 212.672296 187.921872 
L 213.363061 188.01822 
L 214.053825 187.470936 
M 215.434456 196.636932 
L 216.125229 165.414089 
L 216.815991 193.628201 
M 218.199407 172.241189 
L 218.890171 172.700265 
L 219.580936 149.967113 
L 220.272716 143.135725 
M 221.654251 150.343851 
L 222.345016 164.314217 
L 223.036742 162.093353 
L 223.727506 166.473588 
L 224.41827 169.753587 
L 225.109035 177.933976 
L 225.799292 172.657777 
L 226.490056 175.386467 
L 227.180827 183.812666 
L 227.871591 190.482366 
L 228.562668 185.226748 
L 229.253439 182.264988 
L 229.944197 175.58995 
L 230.634968 172.418097 
L 231.326137 177.070355 
M 232.707666 162.577196 
L 234.089354 177.631656 
L 234.783368 166.473779 
L 235.474132 163.4975 
L 236.164896 155.145715 
L 236.85566 160.436816 
L 237.548874 173.407443 
M 238.930409 174.719872 
L 239.621173 175.528885 
L 240.303576 194.040123 
M 242.375876 176.275792 
L 243.066714 174.177265 
L 243.757478 169.502413 
L 244.448243 170.876799 
L 245.139014 172.550904 
L 245.830465 161.149568 
L 246.521229 172.288511 
L 247.211993 176.685061 
L 247.902757 186.572157 
L 248.594472 185.729118 
L 249.285244 171.95195 
L 249.976007 184.658326 
L 250.666771 193.134761 
L 251.358236 195.734256 
L 252.049 199.818405 
M 255.49783 138.355088 
L 256.188594 185.292809 
L 256.879617 177.376485 
L 258.26116 166.696242 
M 259.64449 147.453796 
L 260.335263 174.510259 
L 261.026026 172.662999 
L 261.71679 175.995654 
L 262.407215 174.452319 
L 263.097979 176.774234 
L 263.788744 181.117349 
L 264.479508 180.599387 
M 274.151726 257.586395 
L 274.842491 166.642702 
L 275.533255 92.480035 
M 299.711232 110.104755 
L 300.401996 111.635957 
M 320.435241 164.899606 
L 321.126005 191.279375 
M 325.959699 186.864806 
L 326.650469 160.42612 
M 330.107021 163.748721 
L 331.488556 226.68016 
L 332.179321 235.124595 
L 332.870085 228.560828 
M 339.776834 203.882243 
L 340.467598 233.241361 
M 348.061496 161.640564 
L 348.752267 212.119822 
M 363.258857 191.478686 
L 363.949877 139.292461 
L 364.640546 97.148831 
M 366.712845 94.806694 
L 367.404322 108.267624 
L 368.095087 136.412654 
L 369.476615 229.005645 
M 372.240651 253.621129 
L 372.932395 241.964479 
M 383.292963 181.093584 
L 383.983311 136.97276 
L 384.674075 113.668295 
L 385.364839 98.92944 
M 388.126497 175.056399 
L 388.817261 201.617964 
M 398.487273 177.180566 
" style="fill:none;stroke:#ff0000;stroke-linecap:square;"/>
   </g>
   <g id="line2d_98">
    <path clip-path="url(#pbdaf512baa)" d="M 73.832727 179.368936 
L 74.523492 180.908871 
L 75.214926 183.896363 
L 75.90502 181.131797 
L 76.592626 176.918294 
L 77.283397 181.493055 
L 77.974161 174.468123 
L 78.664925 179.880399 
L 80.046327 188.304332 
L 80.737091 177.572489 
L 81.427856 174.429199 
L 82.121046 177.67418 
L 82.81181 177.272641 
L 83.502574 172.971794 
L 84.193339 175.828886 
L 84.885317 176.511415 
L 85.576087 175.476991 
L 86.266845 174.90991 
L 86.957609 176.121061 
L 87.645678 179.00496 
L 88.336449 180.192956 
L 89.027213 170.761639 
L 89.717977 173.833665 
L 90.406648 181.078302 
M 91.788177 169.627235 
L 92.478941 171.629599 
M 94.550073 178.272654 
L 95.240837 193.755373 
L 95.932216 192.72684 
M 97.313745 189.147719 
L 98.004515 187.411396 
L 100.077877 161.869895 
M 103.530388 166.965349 
L 104.221159 174.535923 
L 104.91077 178.545676 
L 105.601534 171.306041 
L 106.292299 181.121172 
M 108.366184 187.46256 
L 110.439147 163.081323 
M 113.892725 176.194444 
L 114.583489 177.233219 
L 115.964375 186.68254 
L 116.65514 178.710879 
L 117.345904 173.46068 
M 118.727419 175.56791 
L 120.108955 156.996008 
L 120.799719 154.524212 
L 121.492955 155.905313 
M 122.874484 188.914482 
L 124.256745 200.146788 
M 127.706996 175.848394 
L 128.39776 174.34276 
L 129.088525 171.124207 
L 129.780371 163.005261 
L 130.471135 161.718845 
L 131.1619 155.729254 
L 131.85267 157.569489 
L 132.545623 173.176259 
L 133.236388 181.264479 
L 133.927152 185.963825 
L 134.617916 195.876503 
L 135.306719 191.775863 
L 135.997483 192.300735 
L 136.688248 185.980922 
L 137.379012 191.460948 
L 138.758508 175.975454 
L 139.449273 184.220319 
L 140.140037 188.542245 
L 141.523996 166.762721 
M 142.905525 158.251868 
L 143.596289 158.985557 
L 144.286767 179.308867 
L 144.977531 186.067992 
L 145.668295 187.608928 
L 146.35906 187.795697 
M 149.811687 182.695024 
L 150.502452 188.804262 
L 151.193216 186.974773 
L 152.575826 173.142629 
M 153.957362 155.822505 
L 154.648118 161.598713 
M 156.717968 172.843016 
L 157.408739 177.299322 
L 158.099666 175.212243 
L 158.790424 174.937529 
L 159.481195 171.210185 
M 162.247225 169.637372 
L 162.937989 174.197772 
L 163.627087 187.986656 
M 165.008615 187.360998 
L 165.69938 188.967343 
M 167.770322 189.600521 
L 168.461086 189.529095 
L 169.151851 178.36011 
L 169.843973 183.979379 
L 170.534753 195.960086 
L 171.225502 188.702182 
L 171.916266 179.346463 
M 173.298795 161.18345 
L 173.988964 160.524106 
L 174.679729 162.236923 
L 175.368719 170.553025 
M 178.132333 169.488057 
L 178.823097 171.241174 
L 179.513862 170.268162 
L 180.204626 181.081944 
M 181.588771 159.707847 
L 182.279529 171.926761 
M 183.658693 181.607381 
L 184.349457 191.87794 
L 185.040221 187.505219 
L 185.730986 191.801102 
M 187.112145 190.931362 
L 187.80291 188.522 
L 188.49368 189.383741 
M 194.710193 170.659577 
L 195.400951 162.985114 
L 196.091715 168.463998 
L 196.78248 166.75952 
L 197.47528 160.574868 
L 198.166037 161.490175 
L 198.856808 152.789672 
L 199.547572 166.878255 
L 200.238337 186.868268 
M 201.620822 196.441449 
L 202.311586 193.754583 
M 203.69088 195.883719 
L 204.381644 195.742337 
L 205.072415 183.785887 
L 205.76318 167.031876 
M 207.144912 173.908463 
L 207.835649 167.738274 
L 208.52642 169.957331 
L 209.219434 171.528978 
L 209.910833 174.414712 
L 210.600962 185.463366 
L 211.291726 194.211956 
L 211.981532 198.747621 
L 212.672296 189.268608 
L 213.363061 185.039117 
L 214.053825 185.520219 
M 215.434456 185.050078 
L 216.125229 196.872333 
L 216.815991 193.069883 
M 218.199407 177.761223 
L 220.272716 149.059735 
M 221.654251 155.566545 
L 222.345016 159.881694 
L 223.036742 165.891686 
L 223.727506 164.725503 
L 224.41827 169.268452 
L 225.109035 176.780015 
L 225.799292 176.941987 
L 226.490056 174.787731 
L 227.180827 180.223178 
L 227.871591 181.992762 
L 228.562668 191.595509 
L 229.253439 183.400912 
L 229.944197 184.471666 
L 230.634968 173.041334 
L 231.326137 167.898451 
M 232.707666 172.667556 
L 233.39843 171.866972 
L 234.089354 178.521547 
L 234.783368 173.353495 
L 235.474132 165.974196 
L 236.164896 160.800067 
L 236.85566 165.056549 
L 237.548874 171.602125 
M 238.930409 174.028394 
L 239.621173 176.431254 
L 240.303576 192.469561 
M 242.375876 180.957882 
L 243.066714 174.781433 
L 243.757478 166.55034 
L 244.448243 169.468912 
L 245.139014 160.158123 
L 246.521229 173.217908 
L 247.211993 177.728944 
L 247.902757 174.989006 
L 248.594472 179.891403 
L 249.285244 182.649721 
L 249.976007 189.294089 
L 250.666771 192.307183 
L 251.358236 196.959802 
L 252.049 198.07626 
M 255.49783 177.841993 
L 256.188594 184.964934 
L 257.570381 173.664903 
L 258.26116 165.212595 
M 259.64449 165.81556 
L 260.335263 173.752886 
L 261.026026 171.850494 
L 261.71679 170.740915 
L 262.407215 171.295273 
L 263.097979 169.740583 
L 263.788744 172.586805 
L 264.479508 176.960191 
M 274.151726 229.133834 
L 274.842491 174.118173 
L 275.533255 101.471586 
M 299.711232 97.61068 
L 300.401996 108.134501 
M 320.435241 161.174794 
L 321.126005 187.447471 
M 325.959699 190.098986 
L 326.650469 162.448086 
M 330.107021 155.887145 
L 330.797792 188.133023 
L 331.488556 215.1429 
L 332.179321 233.168142 
L 332.870085 232.02916 
M 339.776834 195.709422 
L 340.467598 230.106926 
M 348.061496 156.362023 
L 348.752267 207.222768 
M 363.258857 212.600815 
L 363.949877 139.993118 
L 364.640546 100.79708 
M 366.712845 90.049109 
L 367.404322 104.876539 
L 368.095087 129.880036 
L 368.785851 172.123036 
L 369.476615 224.758695 
M 372.240651 256.012093 
L 372.932395 241.958132 
M 383.292963 192.847933 
L 383.983311 137.914372 
L 384.674075 114.157406 
L 385.364839 97.696819 
M 388.126497 168.704565 
L 388.817261 200.283625 
M 398.487273 176.43012 
" style="fill:none;stroke:#0000ff;stroke-linecap:square;"/>
   </g>
   <g id="line2d_99">
    <path clip-path="url(#pbdaf512baa)" d="M 93.168538 174.339363 
L 93.85931 169.870793 
M 100.768641 151.477308 
L 101.458095 146.357859 
L 102.148859 152.289441 
L 102.839623 162.46427 
M 106.983069 192.284625 
L 107.67542 195.679732 
M 111.129911 157.376185 
L 111.820676 148.084323 
L 112.51144 147.393 
L 113.201961 161.535037 
M 124.94715 206.451035 
L 125.637915 197.257359 
M 147.047377 191.278069 
L 147.738141 190.744103 
L 148.428912 183.705456 
L 149.11967 184.380829 
M 155.33644 166.837055 
L 156.027204 171.767779 
M 160.171959 170.327735 
L 160.865696 176.382092 
L 161.55646 175.973829 
M 166.388793 182.014545 
L 167.079558 182.092837 
M 191.259374 151.044165 
L 192.638151 176.614973 
L 193.328915 176.118228 
L 194.01968 181.152928 
M 240.99434 190.594318 
L 241.685105 179.171636 
M 254.116301 182.353925 
L 254.807065 173.55416 
M 265.168327 170.144323 
L 265.859098 162.122693 
L 266.549862 158.835807 
L 267.240627 139.457861 
L 267.931391 149.150226 
M 269.31247 210.919624 
L 270.003241 254.217586 
L 270.694702 266.10893 
L 271.387287 268.037194 
L 272.078052 264.972504 
M 276.224019 61.528301 
L 276.914999 53.568 
L 277.60577 64.45896 
L 278.296528 92.751911 
L 278.987299 104.468434 
L 279.675411 121.198525 
L 280.366169 168.477048 
L 281.056933 240.171759 
L 281.747704 274.999258 
L 282.439865 289.100482 
L 283.130629 282.664265 
L 283.821394 269.485526 
L 284.512158 260.163417 
L 285.2016 237.196717 
L 286.583128 110.210171 
L 287.273899 82.367976 
L 288.656083 57.901387 
L 289.346848 63.131417 
L 290.037619 75.852411 
L 290.727619 104.566085 
L 291.418383 167.079864 
L 292.109147 241.046257 
L 292.799912 283.350563 
L 293.492838 292.360052 
L 294.183602 289.715268 
L 294.874897 286.502236 
L 295.565129 279.279597 
L 296.254046 243.88119 
L 296.94481 170.442149 
L 297.635575 109.021657 
L 298.326347 90.678484 
L 299.017111 80.805533 
M 301.09276 118.562726 
L 303.16287 212.597583 
L 303.853634 244.058241 
L 304.544398 257.493695 
L 305.236103 251.419414 
L 305.926867 220.67821 
M 307.308396 145.629325 
L 307.997679 109.512346 
L 308.688444 84.372992 
L 309.379215 77.173225 
L 310.069979 109.703748 
L 311.453609 196.418687 
M 312.835137 247.803086 
L 313.524639 264.735816 
L 314.215403 258.21135 
L 314.906175 231.916207 
L 315.59694 196.10838 
M 316.977643 133.548602 
L 317.668408 106.4977 
M 319.054195 108.684351 
L 319.74447 130.729719 
M 321.813621 207.724478 
L 322.504385 223.204041 
L 323.195149 229.884722 
M 324.578163 230.584272 
L 325.268928 212.852961 
M 327.344188 135.329125 
L 328.034952 116.114643 
M 333.56107 240.229173 
L 334.251834 236.732297 
L 334.942599 216.843363 
L 335.633363 175.170048 
M 337.013926 83.252679 
L 337.704691 87.302947 
L 338.395455 110.374188 
L 339.086069 156.352287 
M 341.158369 244.553481 
L 341.847481 237.687846 
L 342.538237 225.167734 
L 343.229568 206.542229 
M 344.607811 142.04458 
L 345.298576 115.110982 
L 345.98934 97.219219 
M 349.443031 249.580546 
L 350.133119 255.930312 
L 350.82389 258.013786 
L 351.514654 244.444038 
M 352.896742 189.679151 
L 353.587498 162.991135 
L 354.278297 110.966277 
L 354.969035 71.805808 
L 355.66224 69.839445 
L 357.043769 88.030564 
L 357.734533 114.249955 
L 358.422891 162.132771 
L 359.113662 231.455157 
L 359.804426 277.098917 
L 360.495191 295.488 
L 361.186558 287.619218 
L 361.877322 273.452587 
L 362.568093 253.954144 
M 365.331316 82.365123 
L 366.022081 86.591982 
M 370.168351 259.010945 
L 370.859122 271.907191 
L 371.549886 271.370259 
M 376.38717 98.355587 
L 377.077934 98.941279 
L 377.768698 92.213418 
M 379.839748 266.045069 
L 380.530512 279.960782 
L 381.220664 268.29181 
L 381.911435 259.106393 
L 382.602199 237.453516 
M 386.055604 95.255671 
L 386.744968 110.505732 
L 387.435732 133.219041 
M 389.506835 200.544422 
L 390.197614 183.798941 
L 390.888363 172.345846 
M 392.269747 180.511717 
L 392.960511 182.638845 
M 394.34204 176.633361 
L 395.03298 180.155404 
M 396.414509 174.488479 
L 397.105273 172.074883 
L 397.796044 174.999732 
L 397.796044 174.999732 
" style="fill:none;stroke:#008000;stroke-linecap:square;"/>
   </g>
   <g id="patch_3">
    <path d="M 57.6 307.584 
L 57.6 41.472 
" style="fill:none;stroke:#000000;stroke-linecap:square;stroke-linejoin:miter;stroke-width:0.8;"/>
   </g>
   <g id="patch_4">
    <path d="M 414.72 307.584 
L 414.72 41.472 
" style="fill:none;stroke:#000000;stroke-linecap:square;stroke-linejoin:miter;stroke-width:0.8;"/>
   </g>
   <g id="patch_5">
    <path d="M 57.6 307.584 
L 414.72 307.584 
" style="fill:none;stroke:#000000;stroke-linecap:square;stroke-linejoin:miter;stroke-width:0.8;"/>
   </g>
   <g id="patch_6">
    <path d="M 57.6 41.472 
L 414.72 41.472 
" style="fill:none;stroke:#000000;stroke-linecap:square;stroke-linejoin:miter;stroke-width:0.8;"/>
   </g>
   <g id="text_13">
    <!-- Rel Gt Rot Z Plot -->
    <defs>
     <path d="M 44.390625 34.1875 
Q 47.5625 33.109375 50.5625 29.59375 
Q 53.5625 26.078125 56.59375 19.921875 
L 66.609375 0 
L 56 0 
L 46.6875 18.703125 
Q 43.0625 26.03125 39.671875 28.421875 
Q 36.28125 30.8125 30.421875 30.8125 
L 19.671875 30.8125 
L 19.671875 0 
L 9.8125 0 
L 9.8125 72.90625 
L 32.078125 72.90625 
Q 44.578125 72.90625 50.734375 67.671875 
Q 56.890625 62.453125 56.890625 51.90625 
Q 56.890625 45.015625 53.6875 40.46875 
Q 50.484375 35.9375 44.390625 34.1875 
z
M 19.671875 64.796875 
L 19.671875 38.921875 
L 32.078125 38.921875 
Q 39.203125 38.921875 42.84375 42.21875 
Q 46.484375 45.515625 46.484375 51.90625 
Q 46.484375 58.296875 42.84375 61.546875 
Q 39.203125 64.796875 32.078125 64.796875 
z
" id="DejaVuSans-52"/>
     <path d="M 9.421875 75.984375 
L 18.40625 75.984375 
L 18.40625 0 
L 9.421875 0 
z
" id="DejaVuSans-6c"/>
     <path d="M 59.515625 10.40625 
L 59.515625 29.984375 
L 43.40625 29.984375 
L 43.40625 38.09375 
L 69.28125 38.09375 
L 69.28125 6.78125 
Q 63.578125 2.734375 56.6875 0.65625 
Q 49.8125 -1.421875 42 -1.421875 
Q 24.90625 -1.421875 15.25 8.5625 
Q 5.609375 18.5625 5.609375 36.375 
Q 5.609375 54.25 15.25 64.234375 
Q 24.90625 74.21875 42 74.21875 
Q 49.125 74.21875 55.546875 72.453125 
Q 61.96875 70.703125 67.390625 67.28125 
L 67.390625 56.78125 
Q 61.921875 61.421875 55.765625 63.765625 
Q 49.609375 66.109375 42.828125 66.109375 
Q 29.4375 66.109375 22.71875 58.640625 
Q 16.015625 51.171875 16.015625 36.375 
Q 16.015625 21.625 22.71875 14.15625 
Q 29.4375 6.6875 42.828125 6.6875 
Q 48.046875 6.6875 52.140625 7.59375 
Q 56.25 8.5 59.515625 10.40625 
z
" id="DejaVuSans-47"/>
     <path d="M 5.609375 72.90625 
L 62.890625 72.90625 
L 62.890625 65.375 
L 16.796875 8.296875 
L 64.015625 8.296875 
L 64.015625 0 
L 4.5 0 
L 4.5 7.515625 
L 50.59375 64.59375 
L 5.609375 64.59375 
z
" id="DejaVuSans-5a"/>
     <path d="M 19.671875 64.796875 
L 19.671875 37.40625 
L 32.078125 37.40625 
Q 38.96875 37.40625 42.71875 40.96875 
Q 46.484375 44.53125 46.484375 51.125 
Q 46.484375 57.671875 42.71875 61.234375 
Q 38.96875 64.796875 32.078125 64.796875 
z
M 9.8125 72.90625 
L 32.078125 72.90625 
Q 44.34375 72.90625 50.609375 67.359375 
Q 56.890625 61.8125 56.890625 51.125 
Q 56.890625 40.328125 50.609375 34.8125 
Q 44.34375 29.296875 32.078125 29.296875 
L 19.671875 29.296875 
L 19.671875 0 
L 9.8125 0 
z
" id="DejaVuSans-50"/>
    </defs>
    <g transform="translate(186.400312 35.472)scale(0.12 -0.12)">
     <use xlink:href="#DejaVuSans-52"/>
     <use x="69.419922" xlink:href="#DejaVuSans-65"/>
     <use x="130.943359" xlink:href="#DejaVuSans-6c"/>
     <use x="158.726562" xlink:href="#DejaVuSans-20"/>
     <use x="190.513672" xlink:href="#DejaVuSans-47"/>
     <use x="268.003906" xlink:href="#DejaVuSans-74"/>
     <use x="307.212891" xlink:href="#DejaVuSans-20"/>
     <use x="339" xlink:href="#DejaVuSans-52"/>
     <use x="408.419922" xlink:href="#DejaVuSans-6f"/>
     <use x="469.601562" xlink:href="#DejaVuSans-74"/>
     <use x="508.810547" xlink:href="#DejaVuSans-20"/>
     <use x="540.597656" xlink:href="#DejaVuSans-5a"/>
     <use x="609.103516" xlink:href="#DejaVuSans-20"/>
     <use x="640.890625" xlink:href="#DejaVuSans-50"/>
     <use x="701.193359" xlink:href="#DejaVuSans-6c"/>
     <use x="728.976562" xlink:href="#DejaVuSans-6f"/>
     <use x="790.158203" xlink:href="#DejaVuSans-74"/>
    </g>
   </g>
  </g>
 </g>
 <defs>
  <clipPath id="pbdaf512baa">
   <rect height="266.112" width="357.12" x="57.6" y="41.472"/>
  </clipPath>
 </defs>
</svg>
