<?xml version="1.0" encoding="utf-8" standalone="no"?>
<!DOCTYPE svg PUBLIC "-//W3C//DTD SVG 1.1//EN"
  "http://www.w3.org/Graphics/SVG/1.1/DTD/svg11.dtd">
<!-- Created with matplotlib (http://matplotlib.org/) -->
<svg height="345.6pt" version="1.1" viewBox="0 0 460.8 345.6" width="460.8pt" xmlns="http://www.w3.org/2000/svg" xmlns:xlink="http://www.w3.org/1999/xlink">
 <defs>
  <style type="text/css">
*{stroke-linecap:butt;stroke-linejoin:round;}
  </style>
 </defs>
 <g id="figure_1">
  <g id="patch_1">
   <path d="M 0 345.6 
L 460.8 345.6 
L 460.8 0 
L 0 0 
z
" style="fill:#ffffff;"/>
  </g>
  <g id="axes_1">
   <g id="patch_2">
    <path d="M 57.6 307.584 
L 414.72 307.584 
L 414.72 41.472 
L 57.6 41.472 
z
" style="fill:#ffffff;"/>
   </g>
   <g id="matplotlib.axis_1">
    <g id="xtick_1">
     <g id="line2d_1">
      <path clip-path="url(#pcff1da20d6)" d="M 70.907601 307.584 
L 70.907601 41.472 
" style="fill:none;stroke:#b0b0b0;stroke-linecap:square;stroke-width:0.8;"/>
     </g>
     <g id="line2d_2">
      <defs>
       <path d="M 0 0 
L 0 3.5 
" id="m0ad8522ae9" style="stroke:#000000;stroke-width:0.8;"/>
      </defs>
      <g>
       <use style="stroke:#000000;stroke-width:0.8;" x="70.907601" xlink:href="#m0ad8522ae9" y="307.584"/>
      </g>
     </g>
     <g id="text_1">
      <!-- 0 -->
      <defs>
       <path d="M 31.78125 66.40625 
Q 24.171875 66.40625 20.328125 58.90625 
Q 16.5 51.421875 16.5 36.375 
Q 16.5 21.390625 20.328125 13.890625 
Q 24.171875 6.390625 31.78125 6.390625 
Q 39.453125 6.390625 43.28125 13.890625 
Q 47.125 21.390625 47.125 36.375 
Q 47.125 51.421875 43.28125 58.90625 
Q 39.453125 66.40625 31.78125 66.40625 
z
M 31.78125 74.21875 
Q 44.046875 74.21875 50.515625 64.515625 
Q 56.984375 54.828125 56.984375 36.375 
Q 56.984375 17.96875 50.515625 8.265625 
Q 44.046875 -1.421875 31.78125 -1.421875 
Q 19.53125 -1.421875 13.0625 8.265625 
Q 6.59375 17.96875 6.59375 36.375 
Q 6.59375 54.828125 13.0625 64.515625 
Q 19.53125 74.21875 31.78125 74.21875 
z
" id="DejaVuSans-30"/>
      </defs>
      <g transform="translate(67.726351 322.182437)scale(0.1 -0.1)">
       <use xlink:href="#DejaVuSans-30"/>
      </g>
     </g>
    </g>
    <g id="xtick_2">
     <g id="line2d_3">
      <path clip-path="url(#pcff1da20d6)" d="M 139.981955 307.584 
L 139.981955 41.472 
" style="fill:none;stroke:#b0b0b0;stroke-linecap:square;stroke-width:0.8;"/>
     </g>
     <g id="line2d_4">
      <g>
       <use style="stroke:#000000;stroke-width:0.8;" x="139.981955" xlink:href="#m0ad8522ae9" y="307.584"/>
      </g>
     </g>
     <g id="text_2">
      <!-- 10 -->
      <defs>
       <path d="M 12.40625 8.296875 
L 28.515625 8.296875 
L 28.515625 63.921875 
L 10.984375 60.40625 
L 10.984375 69.390625 
L 28.421875 72.90625 
L 38.28125 72.90625 
L 38.28125 8.296875 
L 54.390625 8.296875 
L 54.390625 0 
L 12.40625 0 
z
" id="DejaVuSans-31"/>
      </defs>
      <g transform="translate(133.619455 322.182437)scale(0.1 -0.1)">
       <use xlink:href="#DejaVuSans-31"/>
       <use x="63.623047" xlink:href="#DejaVuSans-30"/>
      </g>
     </g>
    </g>
    <g id="xtick_3">
     <g id="line2d_5">
      <path clip-path="url(#pcff1da20d6)" d="M 209.056309 307.584 
L 209.056309 41.472 
" style="fill:none;stroke:#b0b0b0;stroke-linecap:square;stroke-width:0.8;"/>
     </g>
     <g id="line2d_6">
      <g>
       <use style="stroke:#000000;stroke-width:0.8;" x="209.056309" xlink:href="#m0ad8522ae9" y="307.584"/>
      </g>
     </g>
     <g id="text_3">
      <!-- 20 -->
      <defs>
       <path d="M 19.1875 8.296875 
L 53.609375 8.296875 
L 53.609375 0 
L 7.328125 0 
L 7.328125 8.296875 
Q 12.9375 14.109375 22.625 23.890625 
Q 32.328125 33.6875 34.8125 36.53125 
Q 39.546875 41.84375 41.421875 45.53125 
Q 43.3125 49.21875 43.3125 52.78125 
Q 43.3125 58.59375 39.234375 62.25 
Q 35.15625 65.921875 28.609375 65.921875 
Q 23.96875 65.921875 18.8125 64.3125 
Q 13.671875 62.703125 7.8125 59.421875 
L 7.8125 69.390625 
Q 13.765625 71.78125 18.9375 73 
Q 24.125 74.21875 28.421875 74.21875 
Q 39.75 74.21875 46.484375 68.546875 
Q 53.21875 62.890625 53.21875 53.421875 
Q 53.21875 48.921875 51.53125 44.890625 
Q 49.859375 40.875 45.40625 35.40625 
Q 44.1875 33.984375 37.640625 27.21875 
Q 31.109375 20.453125 19.1875 8.296875 
z
" id="DejaVuSans-32"/>
      </defs>
      <g transform="translate(202.693809 322.182437)scale(0.1 -0.1)">
       <use xlink:href="#DejaVuSans-32"/>
       <use x="63.623047" xlink:href="#DejaVuSans-30"/>
      </g>
     </g>
    </g>
    <g id="xtick_4">
     <g id="line2d_7">
      <path clip-path="url(#pcff1da20d6)" d="M 278.130663 307.584 
L 278.130663 41.472 
" style="fill:none;stroke:#b0b0b0;stroke-linecap:square;stroke-width:0.8;"/>
     </g>
     <g id="line2d_8">
      <g>
       <use style="stroke:#000000;stroke-width:0.8;" x="278.130663" xlink:href="#m0ad8522ae9" y="307.584"/>
      </g>
     </g>
     <g id="text_4">
      <!-- 30 -->
      <defs>
       <path d="M 40.578125 39.3125 
Q 47.65625 37.796875 51.625 33 
Q 55.609375 28.21875 55.609375 21.1875 
Q 55.609375 10.40625 48.1875 4.484375 
Q 40.765625 -1.421875 27.09375 -1.421875 
Q 22.515625 -1.421875 17.65625 -0.515625 
Q 12.796875 0.390625 7.625 2.203125 
L 7.625 11.71875 
Q 11.71875 9.328125 16.59375 8.109375 
Q 21.484375 6.890625 26.8125 6.890625 
Q 36.078125 6.890625 40.9375 10.546875 
Q 45.796875 14.203125 45.796875 21.1875 
Q 45.796875 27.640625 41.28125 31.265625 
Q 36.765625 34.90625 28.71875 34.90625 
L 20.21875 34.90625 
L 20.21875 43.015625 
L 29.109375 43.015625 
Q 36.375 43.015625 40.234375 45.921875 
Q 44.09375 48.828125 44.09375 54.296875 
Q 44.09375 59.90625 40.109375 62.90625 
Q 36.140625 65.921875 28.71875 65.921875 
Q 24.65625 65.921875 20.015625 65.03125 
Q 15.375 64.15625 9.8125 62.3125 
L 9.8125 71.09375 
Q 15.4375 72.65625 20.34375 73.4375 
Q 25.25 74.21875 29.59375 74.21875 
Q 40.828125 74.21875 47.359375 69.109375 
Q 53.90625 64.015625 53.90625 55.328125 
Q 53.90625 49.265625 50.4375 45.09375 
Q 46.96875 40.921875 40.578125 39.3125 
z
" id="DejaVuSans-33"/>
      </defs>
      <g transform="translate(271.768163 322.182437)scale(0.1 -0.1)">
       <use xlink:href="#DejaVuSans-33"/>
       <use x="63.623047" xlink:href="#DejaVuSans-30"/>
      </g>
     </g>
    </g>
    <g id="xtick_5">
     <g id="line2d_9">
      <path clip-path="url(#pcff1da20d6)" d="M 347.205016 307.584 
L 347.205016 41.472 
" style="fill:none;stroke:#b0b0b0;stroke-linecap:square;stroke-width:0.8;"/>
     </g>
     <g id="line2d_10">
      <g>
       <use style="stroke:#000000;stroke-width:0.8;" x="347.205016" xlink:href="#m0ad8522ae9" y="307.584"/>
      </g>
     </g>
     <g id="text_5">
      <!-- 40 -->
      <defs>
       <path d="M 37.796875 64.3125 
L 12.890625 25.390625 
L 37.796875 25.390625 
z
M 35.203125 72.90625 
L 47.609375 72.90625 
L 47.609375 25.390625 
L 58.015625 25.390625 
L 58.015625 17.1875 
L 47.609375 17.1875 
L 47.609375 0 
L 37.796875 0 
L 37.796875 17.1875 
L 4.890625 17.1875 
L 4.890625 26.703125 
z
" id="DejaVuSans-34"/>
      </defs>
      <g transform="translate(340.842516 322.182437)scale(0.1 -0.1)">
       <use xlink:href="#DejaVuSans-34"/>
       <use x="63.623047" xlink:href="#DejaVuSans-30"/>
      </g>
     </g>
    </g>
    <g id="xtick_6">
     <g id="line2d_11">
      <path clip-path="url(#pcff1da20d6)" d="M 84.722472 307.584 
L 84.722472 41.472 
" style="fill:none;stroke:#b0b0b0;stroke-linecap:square;stroke-width:0.8;"/>
     </g>
     <g id="line2d_12">
      <defs>
       <path d="M 0 0 
L 0 2 
" id="m5b61df1748" style="stroke:#000000;stroke-width:0.6;"/>
      </defs>
      <g>
       <use style="stroke:#000000;stroke-width:0.6;" x="84.722472" xlink:href="#m5b61df1748" y="307.584"/>
      </g>
     </g>
    </g>
    <g id="xtick_7">
     <g id="line2d_13">
      <path clip-path="url(#pcff1da20d6)" d="M 98.537342 307.584 
L 98.537342 41.472 
" style="fill:none;stroke:#b0b0b0;stroke-linecap:square;stroke-width:0.8;"/>
     </g>
     <g id="line2d_14">
      <g>
       <use style="stroke:#000000;stroke-width:0.6;" x="98.537342" xlink:href="#m5b61df1748" y="307.584"/>
      </g>
     </g>
    </g>
    <g id="xtick_8">
     <g id="line2d_15">
      <path clip-path="url(#pcff1da20d6)" d="M 112.352213 307.584 
L 112.352213 41.472 
" style="fill:none;stroke:#b0b0b0;stroke-linecap:square;stroke-width:0.8;"/>
     </g>
     <g id="line2d_16">
      <g>
       <use style="stroke:#000000;stroke-width:0.6;" x="112.352213" xlink:href="#m5b61df1748" y="307.584"/>
      </g>
     </g>
    </g>
    <g id="xtick_9">
     <g id="line2d_17">
      <path clip-path="url(#pcff1da20d6)" d="M 126.167084 307.584 
L 126.167084 41.472 
" style="fill:none;stroke:#b0b0b0;stroke-linecap:square;stroke-width:0.8;"/>
     </g>
     <g id="line2d_18">
      <g>
       <use style="stroke:#000000;stroke-width:0.6;" x="126.167084" xlink:href="#m5b61df1748" y="307.584"/>
      </g>
     </g>
    </g>
    <g id="xtick_10">
     <g id="line2d_19">
      <path clip-path="url(#pcff1da20d6)" d="M 153.796826 307.584 
L 153.796826 41.472 
" style="fill:none;stroke:#b0b0b0;stroke-linecap:square;stroke-width:0.8;"/>
     </g>
     <g id="line2d_20">
      <g>
       <use style="stroke:#000000;stroke-width:0.6;" x="153.796826" xlink:href="#m5b61df1748" y="307.584"/>
      </g>
     </g>
    </g>
    <g id="xtick_11">
     <g id="line2d_21">
      <path clip-path="url(#pcff1da20d6)" d="M 167.611696 307.584 
L 167.611696 41.472 
" style="fill:none;stroke:#b0b0b0;stroke-linecap:square;stroke-width:0.8;"/>
     </g>
     <g id="line2d_22">
      <g>
       <use style="stroke:#000000;stroke-width:0.6;" x="167.611696" xlink:href="#m5b61df1748" y="307.584"/>
      </g>
     </g>
    </g>
    <g id="xtick_12">
     <g id="line2d_23">
      <path clip-path="url(#pcff1da20d6)" d="M 181.426567 307.584 
L 181.426567 41.472 
" style="fill:none;stroke:#b0b0b0;stroke-linecap:square;stroke-width:0.8;"/>
     </g>
     <g id="line2d_24">
      <g>
       <use style="stroke:#000000;stroke-width:0.6;" x="181.426567" xlink:href="#m5b61df1748" y="307.584"/>
      </g>
     </g>
    </g>
    <g id="xtick_13">
     <g id="line2d_25">
      <path clip-path="url(#pcff1da20d6)" d="M 195.241438 307.584 
L 195.241438 41.472 
" style="fill:none;stroke:#b0b0b0;stroke-linecap:square;stroke-width:0.8;"/>
     </g>
     <g id="line2d_26">
      <g>
       <use style="stroke:#000000;stroke-width:0.6;" x="195.241438" xlink:href="#m5b61df1748" y="307.584"/>
      </g>
     </g>
    </g>
    <g id="xtick_14">
     <g id="line2d_27">
      <path clip-path="url(#pcff1da20d6)" d="M 222.871179 307.584 
L 222.871179 41.472 
" style="fill:none;stroke:#b0b0b0;stroke-linecap:square;stroke-width:0.8;"/>
     </g>
     <g id="line2d_28">
      <g>
       <use style="stroke:#000000;stroke-width:0.6;" x="222.871179" xlink:href="#m5b61df1748" y="307.584"/>
      </g>
     </g>
    </g>
    <g id="xtick_15">
     <g id="line2d_29">
      <path clip-path="url(#pcff1da20d6)" d="M 236.68605 307.584 
L 236.68605 41.472 
" style="fill:none;stroke:#b0b0b0;stroke-linecap:square;stroke-width:0.8;"/>
     </g>
     <g id="line2d_30">
      <g>
       <use style="stroke:#000000;stroke-width:0.6;" x="236.68605" xlink:href="#m5b61df1748" y="307.584"/>
      </g>
     </g>
    </g>
    <g id="xtick_16">
     <g id="line2d_31">
      <path clip-path="url(#pcff1da20d6)" d="M 250.500921 307.584 
L 250.500921 41.472 
" style="fill:none;stroke:#b0b0b0;stroke-linecap:square;stroke-width:0.8;"/>
     </g>
     <g id="line2d_32">
      <g>
       <use style="stroke:#000000;stroke-width:0.6;" x="250.500921" xlink:href="#m5b61df1748" y="307.584"/>
      </g>
     </g>
    </g>
    <g id="xtick_17">
     <g id="line2d_33">
      <path clip-path="url(#pcff1da20d6)" d="M 264.315792 307.584 
L 264.315792 41.472 
" style="fill:none;stroke:#b0b0b0;stroke-linecap:square;stroke-width:0.8;"/>
     </g>
     <g id="line2d_34">
      <g>
       <use style="stroke:#000000;stroke-width:0.6;" x="264.315792" xlink:href="#m5b61df1748" y="307.584"/>
      </g>
     </g>
    </g>
    <g id="xtick_18">
     <g id="line2d_35">
      <path clip-path="url(#pcff1da20d6)" d="M 291.945533 307.584 
L 291.945533 41.472 
" style="fill:none;stroke:#b0b0b0;stroke-linecap:square;stroke-width:0.8;"/>
     </g>
     <g id="line2d_36">
      <g>
       <use style="stroke:#000000;stroke-width:0.6;" x="291.945533" xlink:href="#m5b61df1748" y="307.584"/>
      </g>
     </g>
    </g>
    <g id="xtick_19">
     <g id="line2d_37">
      <path clip-path="url(#pcff1da20d6)" d="M 305.760404 307.584 
L 305.760404 41.472 
" style="fill:none;stroke:#b0b0b0;stroke-linecap:square;stroke-width:0.8;"/>
     </g>
     <g id="line2d_38">
      <g>
       <use style="stroke:#000000;stroke-width:0.6;" x="305.760404" xlink:href="#m5b61df1748" y="307.584"/>
      </g>
     </g>
    </g>
    <g id="xtick_20">
     <g id="line2d_39">
      <path clip-path="url(#pcff1da20d6)" d="M 319.575275 307.584 
L 319.575275 41.472 
" style="fill:none;stroke:#b0b0b0;stroke-linecap:square;stroke-width:0.8;"/>
     </g>
     <g id="line2d_40">
      <g>
       <use style="stroke:#000000;stroke-width:0.6;" x="319.575275" xlink:href="#m5b61df1748" y="307.584"/>
      </g>
     </g>
    </g>
    <g id="xtick_21">
     <g id="line2d_41">
      <path clip-path="url(#pcff1da20d6)" d="M 333.390146 307.584 
L 333.390146 41.472 
" style="fill:none;stroke:#b0b0b0;stroke-linecap:square;stroke-width:0.8;"/>
     </g>
     <g id="line2d_42">
      <g>
       <use style="stroke:#000000;stroke-width:0.6;" x="333.390146" xlink:href="#m5b61df1748" y="307.584"/>
      </g>
     </g>
    </g>
    <g id="xtick_22">
     <g id="line2d_43">
      <path clip-path="url(#pcff1da20d6)" d="M 361.019887 307.584 
L 361.019887 41.472 
" style="fill:none;stroke:#b0b0b0;stroke-linecap:square;stroke-width:0.8;"/>
     </g>
     <g id="line2d_44">
      <g>
       <use style="stroke:#000000;stroke-width:0.6;" x="361.019887" xlink:href="#m5b61df1748" y="307.584"/>
      </g>
     </g>
    </g>
    <g id="xtick_23">
     <g id="line2d_45">
      <path clip-path="url(#pcff1da20d6)" d="M 374.834758 307.584 
L 374.834758 41.472 
" style="fill:none;stroke:#b0b0b0;stroke-linecap:square;stroke-width:0.8;"/>
     </g>
     <g id="line2d_46">
      <g>
       <use style="stroke:#000000;stroke-width:0.6;" x="374.834758" xlink:href="#m5b61df1748" y="307.584"/>
      </g>
     </g>
    </g>
    <g id="xtick_24">
     <g id="line2d_47">
      <path clip-path="url(#pcff1da20d6)" d="M 388.649629 307.584 
L 388.649629 41.472 
" style="fill:none;stroke:#b0b0b0;stroke-linecap:square;stroke-width:0.8;"/>
     </g>
     <g id="line2d_48">
      <g>
       <use style="stroke:#000000;stroke-width:0.6;" x="388.649629" xlink:href="#m5b61df1748" y="307.584"/>
      </g>
     </g>
    </g>
    <g id="xtick_25">
     <g id="line2d_49">
      <path clip-path="url(#pcff1da20d6)" d="M 402.4645 307.584 
L 402.4645 41.472 
" style="fill:none;stroke:#b0b0b0;stroke-linecap:square;stroke-width:0.8;"/>
     </g>
     <g id="line2d_50">
      <g>
       <use style="stroke:#000000;stroke-width:0.6;" x="402.4645" xlink:href="#m5b61df1748" y="307.584"/>
      </g>
     </g>
    </g>
    <g id="text_6">
     <!-- frame # [] -->
     <defs>
      <path d="M 37.109375 75.984375 
L 37.109375 68.5 
L 28.515625 68.5 
Q 23.6875 68.5 21.796875 66.546875 
Q 19.921875 64.59375 19.921875 59.515625 
L 19.921875 54.6875 
L 34.71875 54.6875 
L 34.71875 47.703125 
L 19.921875 47.703125 
L 19.921875 0 
L 10.890625 0 
L 10.890625 47.703125 
L 2.296875 47.703125 
L 2.296875 54.6875 
L 10.890625 54.6875 
L 10.890625 58.5 
Q 10.890625 67.625 15.140625 71.796875 
Q 19.390625 75.984375 28.609375 75.984375 
z
" id="DejaVuSans-66"/>
      <path d="M 41.109375 46.296875 
Q 39.59375 47.171875 37.8125 47.578125 
Q 36.03125 48 33.890625 48 
Q 26.265625 48 22.1875 43.046875 
Q 18.109375 38.09375 18.109375 28.8125 
L 18.109375 0 
L 9.078125 0 
L 9.078125 54.6875 
L 18.109375 54.6875 
L 18.109375 46.1875 
Q 20.953125 51.171875 25.484375 53.578125 
Q 30.03125 56 36.53125 56 
Q 37.453125 56 38.578125 55.875 
Q 39.703125 55.765625 41.0625 55.515625 
z
" id="DejaVuSans-72"/>
      <path d="M 34.28125 27.484375 
Q 23.390625 27.484375 19.1875 25 
Q 14.984375 22.515625 14.984375 16.5 
Q 14.984375 11.71875 18.140625 8.90625 
Q 21.296875 6.109375 26.703125 6.109375 
Q 34.1875 6.109375 38.703125 11.40625 
Q 43.21875 16.703125 43.21875 25.484375 
L 43.21875 27.484375 
z
M 52.203125 31.203125 
L 52.203125 0 
L 43.21875 0 
L 43.21875 8.296875 
Q 40.140625 3.328125 35.546875 0.953125 
Q 30.953125 -1.421875 24.3125 -1.421875 
Q 15.921875 -1.421875 10.953125 3.296875 
Q 6 8.015625 6 15.921875 
Q 6 25.140625 12.171875 29.828125 
Q 18.359375 34.515625 30.609375 34.515625 
L 43.21875 34.515625 
L 43.21875 35.40625 
Q 43.21875 41.609375 39.140625 45 
Q 35.0625 48.390625 27.6875 48.390625 
Q 23 48.390625 18.546875 47.265625 
Q 14.109375 46.140625 10.015625 43.890625 
L 10.015625 52.203125 
Q 14.9375 54.109375 19.578125 55.046875 
Q 24.21875 56 28.609375 56 
Q 40.484375 56 46.34375 49.84375 
Q 52.203125 43.703125 52.203125 31.203125 
z
" id="DejaVuSans-61"/>
      <path d="M 52 44.1875 
Q 55.375 50.25 60.0625 53.125 
Q 64.75 56 71.09375 56 
Q 79.640625 56 84.28125 50.015625 
Q 88.921875 44.046875 88.921875 33.015625 
L 88.921875 0 
L 79.890625 0 
L 79.890625 32.71875 
Q 79.890625 40.578125 77.09375 44.375 
Q 74.3125 48.1875 68.609375 48.1875 
Q 61.625 48.1875 57.5625 43.546875 
Q 53.515625 38.921875 53.515625 30.90625 
L 53.515625 0 
L 44.484375 0 
L 44.484375 32.71875 
Q 44.484375 40.625 41.703125 44.40625 
Q 38.921875 48.1875 33.109375 48.1875 
Q 26.21875 48.1875 22.15625 43.53125 
Q 18.109375 38.875 18.109375 30.90625 
L 18.109375 0 
L 9.078125 0 
L 9.078125 54.6875 
L 18.109375 54.6875 
L 18.109375 46.1875 
Q 21.1875 51.21875 25.484375 53.609375 
Q 29.78125 56 35.6875 56 
Q 41.65625 56 45.828125 52.96875 
Q 50 49.953125 52 44.1875 
z
" id="DejaVuSans-6d"/>
      <path d="M 56.203125 29.59375 
L 56.203125 25.203125 
L 14.890625 25.203125 
Q 15.484375 15.921875 20.484375 11.0625 
Q 25.484375 6.203125 34.421875 6.203125 
Q 39.59375 6.203125 44.453125 7.46875 
Q 49.3125 8.734375 54.109375 11.28125 
L 54.109375 2.78125 
Q 49.265625 0.734375 44.1875 -0.34375 
Q 39.109375 -1.421875 33.890625 -1.421875 
Q 20.796875 -1.421875 13.15625 6.1875 
Q 5.515625 13.8125 5.515625 26.8125 
Q 5.515625 40.234375 12.765625 48.109375 
Q 20.015625 56 32.328125 56 
Q 43.359375 56 49.78125 48.890625 
Q 56.203125 41.796875 56.203125 29.59375 
z
M 47.21875 32.234375 
Q 47.125 39.59375 43.09375 43.984375 
Q 39.0625 48.390625 32.421875 48.390625 
Q 24.90625 48.390625 20.390625 44.140625 
Q 15.875 39.890625 15.1875 32.171875 
z
" id="DejaVuSans-65"/>
      <path id="DejaVuSans-20"/>
      <path d="M 51.125 44 
L 36.921875 44 
L 32.8125 27.6875 
L 47.125 27.6875 
z
M 43.796875 71.78125 
L 38.71875 51.515625 
L 52.984375 51.515625 
L 58.109375 71.78125 
L 65.921875 71.78125 
L 60.890625 51.515625 
L 76.125 51.515625 
L 76.125 44 
L 58.984375 44 
L 54.984375 27.6875 
L 70.515625 27.6875 
L 70.515625 20.21875 
L 53.078125 20.21875 
L 48 0 
L 40.1875 0 
L 45.21875 20.21875 
L 30.90625 20.21875 
L 25.875 0 
L 18.015625 0 
L 23.09375 20.21875 
L 7.71875 20.21875 
L 7.71875 27.6875 
L 24.90625 27.6875 
L 29 44 
L 13.28125 44 
L 13.28125 51.515625 
L 30.90625 51.515625 
L 35.890625 71.78125 
z
" id="DejaVuSans-23"/>
      <path d="M 8.59375 75.984375 
L 29.296875 75.984375 
L 29.296875 69 
L 17.578125 69 
L 17.578125 -6.203125 
L 29.296875 -6.203125 
L 29.296875 -13.1875 
L 8.59375 -13.1875 
z
" id="DejaVuSans-5b"/>
      <path d="M 30.421875 75.984375 
L 30.421875 -13.1875 
L 9.71875 -13.1875 
L 9.71875 -6.203125 
L 21.390625 -6.203125 
L 21.390625 69 
L 9.71875 69 
L 9.71875 75.984375 
z
" id="DejaVuSans-5d"/>
     </defs>
     <g transform="translate(210.063906 335.860562)scale(0.1 -0.1)">
      <use xlink:href="#DejaVuSans-66"/>
      <use x="35.205078" xlink:href="#DejaVuSans-72"/>
      <use x="76.318359" xlink:href="#DejaVuSans-61"/>
      <use x="137.597656" xlink:href="#DejaVuSans-6d"/>
      <use x="235.009766" xlink:href="#DejaVuSans-65"/>
      <use x="296.533203" xlink:href="#DejaVuSans-20"/>
      <use x="328.320312" xlink:href="#DejaVuSans-23"/>
      <use x="412.109375" xlink:href="#DejaVuSans-20"/>
      <use x="443.896484" xlink:href="#DejaVuSans-5b"/>
      <use x="482.910156" xlink:href="#DejaVuSans-5d"/>
     </g>
    </g>
   </g>
   <g id="matplotlib.axis_2">
    <g id="ytick_1">
     <g id="line2d_51">
      <path clip-path="url(#pcff1da20d6)" d="M 57.6 276.034464 
L 414.72 276.034464 
" style="fill:none;stroke:#b0b0b0;stroke-linecap:square;stroke-width:0.8;"/>
     </g>
     <g id="line2d_52">
      <defs>
       <path d="M 0 0 
L -3.5 0 
" id="mfa4ba08500" style="stroke:#000000;stroke-width:0.8;"/>
      </defs>
      <g>
       <use style="stroke:#000000;stroke-width:0.8;" x="57.6" xlink:href="#mfa4ba08500" y="276.034464"/>
      </g>
     </g>
     <g id="text_7">
      <!-- −0.3 -->
      <defs>
       <path d="M 10.59375 35.5 
L 73.1875 35.5 
L 73.1875 27.203125 
L 10.59375 27.203125 
z
" id="DejaVuSans-2212"/>
       <path d="M 10.6875 12.40625 
L 21 12.40625 
L 21 0 
L 10.6875 0 
z
" id="DejaVuSans-2e"/>
      </defs>
      <g transform="translate(26.317187 279.833683)scale(0.1 -0.1)">
       <use xlink:href="#DejaVuSans-2212"/>
       <use x="83.789062" xlink:href="#DejaVuSans-30"/>
       <use x="147.412109" xlink:href="#DejaVuSans-2e"/>
       <use x="179.199219" xlink:href="#DejaVuSans-33"/>
      </g>
     </g>
    </g>
    <g id="ytick_2">
     <g id="line2d_53">
      <path clip-path="url(#pcff1da20d6)" d="M 57.6 240.952777 
L 414.72 240.952777 
" style="fill:none;stroke:#b0b0b0;stroke-linecap:square;stroke-width:0.8;"/>
     </g>
     <g id="line2d_54">
      <g>
       <use style="stroke:#000000;stroke-width:0.8;" x="57.6" xlink:href="#mfa4ba08500" y="240.952777"/>
      </g>
     </g>
     <g id="text_8">
      <!-- −0.2 -->
      <g transform="translate(26.317187 244.751996)scale(0.1 -0.1)">
       <use xlink:href="#DejaVuSans-2212"/>
       <use x="83.789062" xlink:href="#DejaVuSans-30"/>
       <use x="147.412109" xlink:href="#DejaVuSans-2e"/>
       <use x="179.199219" xlink:href="#DejaVuSans-32"/>
      </g>
     </g>
    </g>
    <g id="ytick_3">
     <g id="line2d_55">
      <path clip-path="url(#pcff1da20d6)" d="M 57.6 205.87109 
L 414.72 205.87109 
" style="fill:none;stroke:#b0b0b0;stroke-linecap:square;stroke-width:0.8;"/>
     </g>
     <g id="line2d_56">
      <g>
       <use style="stroke:#000000;stroke-width:0.8;" x="57.6" xlink:href="#mfa4ba08500" y="205.87109"/>
      </g>
     </g>
     <g id="text_9">
      <!-- −0.1 -->
      <g transform="translate(26.317187 209.670308)scale(0.1 -0.1)">
       <use xlink:href="#DejaVuSans-2212"/>
       <use x="83.789062" xlink:href="#DejaVuSans-30"/>
       <use x="147.412109" xlink:href="#DejaVuSans-2e"/>
       <use x="179.199219" xlink:href="#DejaVuSans-31"/>
      </g>
     </g>
    </g>
    <g id="ytick_4">
     <g id="line2d_57">
      <path clip-path="url(#pcff1da20d6)" d="M 57.6 170.789402 
L 414.72 170.789402 
" style="fill:none;stroke:#b0b0b0;stroke-linecap:square;stroke-width:0.8;"/>
     </g>
     <g id="line2d_58">
      <g>
       <use style="stroke:#000000;stroke-width:0.8;" x="57.6" xlink:href="#mfa4ba08500" y="170.789402"/>
      </g>
     </g>
     <g id="text_10">
      <!-- 0.0 -->
      <g transform="translate(34.696875 174.588621)scale(0.1 -0.1)">
       <use xlink:href="#DejaVuSans-30"/>
       <use x="63.623047" xlink:href="#DejaVuSans-2e"/>
       <use x="95.410156" xlink:href="#DejaVuSans-30"/>
      </g>
     </g>
    </g>
    <g id="ytick_5">
     <g id="line2d_59">
      <path clip-path="url(#pcff1da20d6)" d="M 57.6 135.707715 
L 414.72 135.707715 
" style="fill:none;stroke:#b0b0b0;stroke-linecap:square;stroke-width:0.8;"/>
     </g>
     <g id="line2d_60">
      <g>
       <use style="stroke:#000000;stroke-width:0.8;" x="57.6" xlink:href="#mfa4ba08500" y="135.707715"/>
      </g>
     </g>
     <g id="text_11">
      <!-- 0.1 -->
      <g transform="translate(34.696875 139.506934)scale(0.1 -0.1)">
       <use xlink:href="#DejaVuSans-30"/>
       <use x="63.623047" xlink:href="#DejaVuSans-2e"/>
       <use x="95.410156" xlink:href="#DejaVuSans-31"/>
      </g>
     </g>
    </g>
    <g id="ytick_6">
     <g id="line2d_61">
      <path clip-path="url(#pcff1da20d6)" d="M 57.6 100.626028 
L 414.72 100.626028 
" style="fill:none;stroke:#b0b0b0;stroke-linecap:square;stroke-width:0.8;"/>
     </g>
     <g id="line2d_62">
      <g>
       <use style="stroke:#000000;stroke-width:0.8;" x="57.6" xlink:href="#mfa4ba08500" y="100.626028"/>
      </g>
     </g>
     <g id="text_12">
      <!-- 0.2 -->
      <g transform="translate(34.696875 104.425247)scale(0.1 -0.1)">
       <use xlink:href="#DejaVuSans-30"/>
       <use x="63.623047" xlink:href="#DejaVuSans-2e"/>
       <use x="95.410156" xlink:href="#DejaVuSans-32"/>
      </g>
     </g>
    </g>
    <g id="ytick_7">
     <g id="line2d_63">
      <path clip-path="url(#pcff1da20d6)" d="M 57.6 65.544341 
L 414.72 65.544341 
" style="fill:none;stroke:#b0b0b0;stroke-linecap:square;stroke-width:0.8;"/>
     </g>
     <g id="line2d_64">
      <g>
       <use style="stroke:#000000;stroke-width:0.8;" x="57.6" xlink:href="#mfa4ba08500" y="65.544341"/>
      </g>
     </g>
     <g id="text_13">
      <!-- 0.3 -->
      <g transform="translate(34.696875 69.343559)scale(0.1 -0.1)">
       <use xlink:href="#DejaVuSans-30"/>
       <use x="63.623047" xlink:href="#DejaVuSans-2e"/>
       <use x="95.410156" xlink:href="#DejaVuSans-33"/>
      </g>
     </g>
    </g>
    <g id="ytick_8">
     <g id="line2d_65">
      <path clip-path="url(#pcff1da20d6)" d="M 57.6 304.099814 
L 414.72 304.099814 
" style="fill:none;stroke:#b0b0b0;stroke-linecap:square;stroke-width:0.8;"/>
     </g>
     <g id="line2d_66">
      <defs>
       <path d="M 0 0 
L -2 0 
" id="med2eb4123e" style="stroke:#000000;stroke-width:0.6;"/>
      </defs>
      <g>
       <use style="stroke:#000000;stroke-width:0.6;" x="57.6" xlink:href="#med2eb4123e" y="304.099814"/>
      </g>
     </g>
    </g>
    <g id="ytick_9">
     <g id="line2d_67">
      <path clip-path="url(#pcff1da20d6)" d="M 57.6 297.083477 
L 414.72 297.083477 
" style="fill:none;stroke:#b0b0b0;stroke-linecap:square;stroke-width:0.8;"/>
     </g>
     <g id="line2d_68">
      <g>
       <use style="stroke:#000000;stroke-width:0.6;" x="57.6" xlink:href="#med2eb4123e" y="297.083477"/>
      </g>
     </g>
    </g>
    <g id="ytick_10">
     <g id="line2d_69">
      <path clip-path="url(#pcff1da20d6)" d="M 57.6 290.067139 
L 414.72 290.067139 
" style="fill:none;stroke:#b0b0b0;stroke-linecap:square;stroke-width:0.8;"/>
     </g>
     <g id="line2d_70">
      <g>
       <use style="stroke:#000000;stroke-width:0.6;" x="57.6" xlink:href="#med2eb4123e" y="290.067139"/>
      </g>
     </g>
    </g>
    <g id="ytick_11">
     <g id="line2d_71">
      <path clip-path="url(#pcff1da20d6)" d="M 57.6 283.050802 
L 414.72 283.050802 
" style="fill:none;stroke:#b0b0b0;stroke-linecap:square;stroke-width:0.8;"/>
     </g>
     <g id="line2d_72">
      <g>
       <use style="stroke:#000000;stroke-width:0.6;" x="57.6" xlink:href="#med2eb4123e" y="283.050802"/>
      </g>
     </g>
    </g>
    <g id="ytick_12">
     <g id="line2d_73">
      <path clip-path="url(#pcff1da20d6)" d="M 57.6 269.018127 
L 414.72 269.018127 
" style="fill:none;stroke:#b0b0b0;stroke-linecap:square;stroke-width:0.8;"/>
     </g>
     <g id="line2d_74">
      <g>
       <use style="stroke:#000000;stroke-width:0.6;" x="57.6" xlink:href="#med2eb4123e" y="269.018127"/>
      </g>
     </g>
    </g>
    <g id="ytick_13">
     <g id="line2d_75">
      <path clip-path="url(#pcff1da20d6)" d="M 57.6 262.001789 
L 414.72 262.001789 
" style="fill:none;stroke:#b0b0b0;stroke-linecap:square;stroke-width:0.8;"/>
     </g>
     <g id="line2d_76">
      <g>
       <use style="stroke:#000000;stroke-width:0.6;" x="57.6" xlink:href="#med2eb4123e" y="262.001789"/>
      </g>
     </g>
    </g>
    <g id="ytick_14">
     <g id="line2d_77">
      <path clip-path="url(#pcff1da20d6)" d="M 57.6 254.985452 
L 414.72 254.985452 
" style="fill:none;stroke:#b0b0b0;stroke-linecap:square;stroke-width:0.8;"/>
     </g>
     <g id="line2d_78">
      <g>
       <use style="stroke:#000000;stroke-width:0.6;" x="57.6" xlink:href="#med2eb4123e" y="254.985452"/>
      </g>
     </g>
    </g>
    <g id="ytick_15">
     <g id="line2d_79">
      <path clip-path="url(#pcff1da20d6)" d="M 57.6 247.969114 
L 414.72 247.969114 
" style="fill:none;stroke:#b0b0b0;stroke-linecap:square;stroke-width:0.8;"/>
     </g>
     <g id="line2d_80">
      <g>
       <use style="stroke:#000000;stroke-width:0.6;" x="57.6" xlink:href="#med2eb4123e" y="247.969114"/>
      </g>
     </g>
    </g>
    <g id="ytick_16">
     <g id="line2d_81">
      <path clip-path="url(#pcff1da20d6)" d="M 57.6 233.936439 
L 414.72 233.936439 
" style="fill:none;stroke:#b0b0b0;stroke-linecap:square;stroke-width:0.8;"/>
     </g>
     <g id="line2d_82">
      <g>
       <use style="stroke:#000000;stroke-width:0.6;" x="57.6" xlink:href="#med2eb4123e" y="233.936439"/>
      </g>
     </g>
    </g>
    <g id="ytick_17">
     <g id="line2d_83">
      <path clip-path="url(#pcff1da20d6)" d="M 57.6 226.920102 
L 414.72 226.920102 
" style="fill:none;stroke:#b0b0b0;stroke-linecap:square;stroke-width:0.8;"/>
     </g>
     <g id="line2d_84">
      <g>
       <use style="stroke:#000000;stroke-width:0.6;" x="57.6" xlink:href="#med2eb4123e" y="226.920102"/>
      </g>
     </g>
    </g>
    <g id="ytick_18">
     <g id="line2d_85">
      <path clip-path="url(#pcff1da20d6)" d="M 57.6 219.903765 
L 414.72 219.903765 
" style="fill:none;stroke:#b0b0b0;stroke-linecap:square;stroke-width:0.8;"/>
     </g>
     <g id="line2d_86">
      <g>
       <use style="stroke:#000000;stroke-width:0.6;" x="57.6" xlink:href="#med2eb4123e" y="219.903765"/>
      </g>
     </g>
    </g>
    <g id="ytick_19">
     <g id="line2d_87">
      <path clip-path="url(#pcff1da20d6)" d="M 57.6 212.887427 
L 414.72 212.887427 
" style="fill:none;stroke:#b0b0b0;stroke-linecap:square;stroke-width:0.8;"/>
     </g>
     <g id="line2d_88">
      <g>
       <use style="stroke:#000000;stroke-width:0.6;" x="57.6" xlink:href="#med2eb4123e" y="212.887427"/>
      </g>
     </g>
    </g>
    <g id="ytick_20">
     <g id="line2d_89">
      <path clip-path="url(#pcff1da20d6)" d="M 57.6 198.854752 
L 414.72 198.854752 
" style="fill:none;stroke:#b0b0b0;stroke-linecap:square;stroke-width:0.8;"/>
     </g>
     <g id="line2d_90">
      <g>
       <use style="stroke:#000000;stroke-width:0.6;" x="57.6" xlink:href="#med2eb4123e" y="198.854752"/>
      </g>
     </g>
    </g>
    <g id="ytick_21">
     <g id="line2d_91">
      <path clip-path="url(#pcff1da20d6)" d="M 57.6 191.838415 
L 414.72 191.838415 
" style="fill:none;stroke:#b0b0b0;stroke-linecap:square;stroke-width:0.8;"/>
     </g>
     <g id="line2d_92">
      <g>
       <use style="stroke:#000000;stroke-width:0.6;" x="57.6" xlink:href="#med2eb4123e" y="191.838415"/>
      </g>
     </g>
    </g>
    <g id="ytick_22">
     <g id="line2d_93">
      <path clip-path="url(#pcff1da20d6)" d="M 57.6 184.822077 
L 414.72 184.822077 
" style="fill:none;stroke:#b0b0b0;stroke-linecap:square;stroke-width:0.8;"/>
     </g>
     <g id="line2d_94">
      <g>
       <use style="stroke:#000000;stroke-width:0.6;" x="57.6" xlink:href="#med2eb4123e" y="184.822077"/>
      </g>
     </g>
    </g>
    <g id="ytick_23">
     <g id="line2d_95">
      <path clip-path="url(#pcff1da20d6)" d="M 57.6 177.80574 
L 414.72 177.80574 
" style="fill:none;stroke:#b0b0b0;stroke-linecap:square;stroke-width:0.8;"/>
     </g>
     <g id="line2d_96">
      <g>
       <use style="stroke:#000000;stroke-width:0.6;" x="57.6" xlink:href="#med2eb4123e" y="177.80574"/>
      </g>
     </g>
    </g>
    <g id="ytick_24">
     <g id="line2d_97">
      <path clip-path="url(#pcff1da20d6)" d="M 57.6 163.773065 
L 414.72 163.773065 
" style="fill:none;stroke:#b0b0b0;stroke-linecap:square;stroke-width:0.8;"/>
     </g>
     <g id="line2d_98">
      <g>
       <use style="stroke:#000000;stroke-width:0.6;" x="57.6" xlink:href="#med2eb4123e" y="163.773065"/>
      </g>
     </g>
    </g>
    <g id="ytick_25">
     <g id="line2d_99">
      <path clip-path="url(#pcff1da20d6)" d="M 57.6 156.756727 
L 414.72 156.756727 
" style="fill:none;stroke:#b0b0b0;stroke-linecap:square;stroke-width:0.8;"/>
     </g>
     <g id="line2d_100">
      <g>
       <use style="stroke:#000000;stroke-width:0.6;" x="57.6" xlink:href="#med2eb4123e" y="156.756727"/>
      </g>
     </g>
    </g>
    <g id="ytick_26">
     <g id="line2d_101">
      <path clip-path="url(#pcff1da20d6)" d="M 57.6 149.74039 
L 414.72 149.74039 
" style="fill:none;stroke:#b0b0b0;stroke-linecap:square;stroke-width:0.8;"/>
     </g>
     <g id="line2d_102">
      <g>
       <use style="stroke:#000000;stroke-width:0.6;" x="57.6" xlink:href="#med2eb4123e" y="149.74039"/>
      </g>
     </g>
    </g>
    <g id="ytick_27">
     <g id="line2d_103">
      <path clip-path="url(#pcff1da20d6)" d="M 57.6 142.724053 
L 414.72 142.724053 
" style="fill:none;stroke:#b0b0b0;stroke-linecap:square;stroke-width:0.8;"/>
     </g>
     <g id="line2d_104">
      <g>
       <use style="stroke:#000000;stroke-width:0.6;" x="57.6" xlink:href="#med2eb4123e" y="142.724053"/>
      </g>
     </g>
    </g>
    <g id="ytick_28">
     <g id="line2d_105">
      <path clip-path="url(#pcff1da20d6)" d="M 57.6 128.691378 
L 414.72 128.691378 
" style="fill:none;stroke:#b0b0b0;stroke-linecap:square;stroke-width:0.8;"/>
     </g>
     <g id="line2d_106">
      <g>
       <use style="stroke:#000000;stroke-width:0.6;" x="57.6" xlink:href="#med2eb4123e" y="128.691378"/>
      </g>
     </g>
    </g>
    <g id="ytick_29">
     <g id="line2d_107">
      <path clip-path="url(#pcff1da20d6)" d="M 57.6 121.67504 
L 414.72 121.67504 
" style="fill:none;stroke:#b0b0b0;stroke-linecap:square;stroke-width:0.8;"/>
     </g>
     <g id="line2d_108">
      <g>
       <use style="stroke:#000000;stroke-width:0.6;" x="57.6" xlink:href="#med2eb4123e" y="121.67504"/>
      </g>
     </g>
    </g>
    <g id="ytick_30">
     <g id="line2d_109">
      <path clip-path="url(#pcff1da20d6)" d="M 57.6 114.658703 
L 414.72 114.658703 
" style="fill:none;stroke:#b0b0b0;stroke-linecap:square;stroke-width:0.8;"/>
     </g>
     <g id="line2d_110">
      <g>
       <use style="stroke:#000000;stroke-width:0.6;" x="57.6" xlink:href="#med2eb4123e" y="114.658703"/>
      </g>
     </g>
    </g>
    <g id="ytick_31">
     <g id="line2d_111">
      <path clip-path="url(#pcff1da20d6)" d="M 57.6 107.642365 
L 414.72 107.642365 
" style="fill:none;stroke:#b0b0b0;stroke-linecap:square;stroke-width:0.8;"/>
     </g>
     <g id="line2d_112">
      <g>
       <use style="stroke:#000000;stroke-width:0.6;" x="57.6" xlink:href="#med2eb4123e" y="107.642365"/>
      </g>
     </g>
    </g>
    <g id="ytick_32">
     <g id="line2d_113">
      <path clip-path="url(#pcff1da20d6)" d="M 57.6 93.60969 
L 414.72 93.60969 
" style="fill:none;stroke:#b0b0b0;stroke-linecap:square;stroke-width:0.8;"/>
     </g>
     <g id="line2d_114">
      <g>
       <use style="stroke:#000000;stroke-width:0.6;" x="57.6" xlink:href="#med2eb4123e" y="93.60969"/>
      </g>
     </g>
    </g>
    <g id="ytick_33">
     <g id="line2d_115">
      <path clip-path="url(#pcff1da20d6)" d="M 57.6 86.593353 
L 414.72 86.593353 
" style="fill:none;stroke:#b0b0b0;stroke-linecap:square;stroke-width:0.8;"/>
     </g>
     <g id="line2d_116">
      <g>
       <use style="stroke:#000000;stroke-width:0.6;" x="57.6" xlink:href="#med2eb4123e" y="86.593353"/>
      </g>
     </g>
    </g>
    <g id="ytick_34">
     <g id="line2d_117">
      <path clip-path="url(#pcff1da20d6)" d="M 57.6 79.577015 
L 414.72 79.577015 
" style="fill:none;stroke:#b0b0b0;stroke-linecap:square;stroke-width:0.8;"/>
     </g>
     <g id="line2d_118">
      <g>
       <use style="stroke:#000000;stroke-width:0.6;" x="57.6" xlink:href="#med2eb4123e" y="79.577015"/>
      </g>
     </g>
    </g>
    <g id="ytick_35">
     <g id="line2d_119">
      <path clip-path="url(#pcff1da20d6)" d="M 57.6 72.560678 
L 414.72 72.560678 
" style="fill:none;stroke:#b0b0b0;stroke-linecap:square;stroke-width:0.8;"/>
     </g>
     <g id="line2d_120">
      <g>
       <use style="stroke:#000000;stroke-width:0.6;" x="57.6" xlink:href="#med2eb4123e" y="72.560678"/>
      </g>
     </g>
    </g>
    <g id="ytick_36">
     <g id="line2d_121">
      <path clip-path="url(#pcff1da20d6)" d="M 57.6 58.528003 
L 414.72 58.528003 
" style="fill:none;stroke:#b0b0b0;stroke-linecap:square;stroke-width:0.8;"/>
     </g>
     <g id="line2d_122">
      <g>
       <use style="stroke:#000000;stroke-width:0.6;" x="57.6" xlink:href="#med2eb4123e" y="58.528003"/>
      </g>
     </g>
    </g>
    <g id="ytick_37">
     <g id="line2d_123">
      <path clip-path="url(#pcff1da20d6)" d="M 57.6 51.511666 
L 414.72 51.511666 
" style="fill:none;stroke:#b0b0b0;stroke-linecap:square;stroke-width:0.8;"/>
     </g>
     <g id="line2d_124">
      <g>
       <use style="stroke:#000000;stroke-width:0.6;" x="57.6" xlink:href="#med2eb4123e" y="51.511666"/>
      </g>
     </g>
    </g>
    <g id="ytick_38">
     <g id="line2d_125">
      <path clip-path="url(#pcff1da20d6)" d="M 57.6 44.495328 
L 414.72 44.495328 
" style="fill:none;stroke:#b0b0b0;stroke-linecap:square;stroke-width:0.8;"/>
     </g>
     <g id="line2d_126">
      <g>
       <use style="stroke:#000000;stroke-width:0.6;" x="57.6" xlink:href="#med2eb4123e" y="44.495328"/>
      </g>
     </g>
    </g>
    <g id="text_14">
     <!-- rot y -->
     <defs>
      <path d="M 30.609375 48.390625 
Q 23.390625 48.390625 19.1875 42.75 
Q 14.984375 37.109375 14.984375 27.296875 
Q 14.984375 17.484375 19.15625 11.84375 
Q 23.34375 6.203125 30.609375 6.203125 
Q 37.796875 6.203125 41.984375 11.859375 
Q 46.1875 17.53125 46.1875 27.296875 
Q 46.1875 37.015625 41.984375 42.703125 
Q 37.796875 48.390625 30.609375 48.390625 
z
M 30.609375 56 
Q 42.328125 56 49.015625 48.375 
Q 55.71875 40.765625 55.71875 27.296875 
Q 55.71875 13.875 49.015625 6.21875 
Q 42.328125 -1.421875 30.609375 -1.421875 
Q 18.84375 -1.421875 12.171875 6.21875 
Q 5.515625 13.875 5.515625 27.296875 
Q 5.515625 40.765625 12.171875 48.375 
Q 18.84375 56 30.609375 56 
z
" id="DejaVuSans-6f"/>
      <path d="M 18.3125 70.21875 
L 18.3125 54.6875 
L 36.8125 54.6875 
L 36.8125 47.703125 
L 18.3125 47.703125 
L 18.3125 18.015625 
Q 18.3125 11.328125 20.140625 9.421875 
Q 21.96875 7.515625 27.59375 7.515625 
L 36.8125 7.515625 
L 36.8125 0 
L 27.59375 0 
Q 17.1875 0 13.234375 3.875 
Q 9.28125 7.765625 9.28125 18.015625 
L 9.28125 47.703125 
L 2.6875 47.703125 
L 2.6875 54.6875 
L 9.28125 54.6875 
L 9.28125 70.21875 
z
" id="DejaVuSans-74"/>
      <path d="M 32.171875 -5.078125 
Q 28.375 -14.84375 24.75 -17.8125 
Q 21.140625 -20.796875 15.09375 -20.796875 
L 7.90625 -20.796875 
L 7.90625 -13.28125 
L 13.1875 -13.28125 
Q 16.890625 -13.28125 18.9375 -11.515625 
Q 21 -9.765625 23.484375 -3.21875 
L 25.09375 0.875 
L 2.984375 54.6875 
L 12.5 54.6875 
L 29.59375 11.921875 
L 46.6875 54.6875 
L 56.203125 54.6875 
z
" id="DejaVuSans-79"/>
     </defs>
     <g transform="translate(20.2375 186.149875)rotate(-90)scale(0.1 -0.1)">
      <use xlink:href="#DejaVuSans-72"/>
      <use x="41.082031" xlink:href="#DejaVuSans-6f"/>
      <use x="102.263672" xlink:href="#DejaVuSans-74"/>
      <use x="141.472656" xlink:href="#DejaVuSans-20"/>
      <use x="173.259766" xlink:href="#DejaVuSans-79"/>
     </g>
    </g>
   </g>
   <g id="line2d_127">
    <path clip-path="url(#pcff1da20d6)" d="M 73.832727 150.220874 
L 74.523492 141.003471 
L 75.90502 156.685187 
L 76.592626 160.719369 
L 77.283397 162.150986 
L 78.664925 135.153012 
L 79.355563 152.072687 
L 80.046327 162.621947 
L 80.737091 163.659234 
L 81.427856 118.365994 
L 82.121046 149.978321 
L 82.81181 165.8034 
L 83.502574 171.568368 
L 84.193339 175.006758 
L 84.885317 181.182958 
L 86.266845 154.672648 
L 87.645678 158.522186 
L 88.336449 157.953585 
L 89.027213 153.525494 
L 90.406648 181.371272 
M 91.788177 178.579852 
L 92.478941 174.931205 
M 94.550073 145.611594 
L 95.240837 122.780549 
L 95.932216 137.038861 
M 97.313745 148.467726 
L 98.004515 163.778934 
L 99.387113 210.976359 
L 100.077877 208.594443 
M 103.530388 190.496248 
L 105.601534 136.586494 
L 106.292299 155.743152 
M 108.366184 118.263436 
L 109.747719 181.212469 
L 110.439147 182.783307 
M 113.892725 189.215687 
L 114.583489 181.684105 
L 115.274253 188.213864 
L 115.964375 206.252825 
L 116.65514 231.302003 
L 117.345904 233.59653 
M 118.727419 226.881729 
L 119.418184 218.143301 
L 120.108955 206.866869 
L 120.799719 218.247915 
L 121.492955 180.05787 
M 122.874484 124.815231 
L 123.565263 125.73355 
L 124.256745 140.863054 
M 127.706996 202.179596 
L 128.39776 198.972612 
L 129.088525 222.578842 
L 129.780371 225.409444 
L 130.471135 217.114342 
L 131.1619 202.243839 
L 131.85267 165.161653 
L 133.236388 143.981975 
L 133.927152 137.58436 
L 134.617916 114.913382 
L 135.306719 129.86099 
L 135.997483 159.117812 
L 136.688248 157.107849 
L 137.379012 165.562243 
L 138.069776 158.749204 
L 138.758508 177.183539 
L 139.449273 206.343392 
L 140.140037 198.490176 
L 140.830801 224.583726 
L 141.523996 201.692463 
M 142.905525 174.725326 
L 143.596289 214.011604 
L 144.977531 137.567507 
L 146.35906 122.863663 
M 149.811687 145.152421 
L 150.502452 128.767168 
L 151.193216 142.877996 
L 151.88398 149.757684 
L 152.575826 165.318218 
M 153.957362 201.975761 
L 154.648118 213.771078 
M 156.717968 184.644485 
L 157.408739 200.783897 
L 158.099666 205.47405 
L 158.790424 207.121839 
L 159.481195 232.20784 
M 162.247225 160.29382 
L 162.937989 152.97098 
L 163.627087 135.80075 
M 165.008615 124.826571 
L 165.69938 133.212388 
M 167.770322 126.951926 
L 168.461086 111.099341 
L 169.151851 109.284481 
L 169.843973 121.211188 
L 170.534753 130.101943 
L 171.225502 191.623627 
L 171.916266 148.520052 
M 173.298795 199.399403 
L 173.988964 198.784965 
L 174.679729 191.8529 
L 175.368719 260.66186 
M 178.132333 218.413715 
L 178.823097 200.635121 
L 179.513862 204.848522 
L 180.204626 207.71325 
M 181.588771 172.428031 
L 182.279529 163.060753 
M 183.658693 139.39714 
L 184.349457 123.674925 
L 185.040221 117.609341 
L 185.730986 100.878721 
M 187.112145 122.581332 
L 187.80291 139.198143 
L 188.49368 164.964924 
M 194.710193 225.850815 
L 195.400951 228.565181 
L 196.091715 234.124455 
L 196.78248 228.010485 
L 197.47528 228.972482 
L 198.166037 227.667262 
L 198.856808 177.887917 
L 199.547572 157.017848 
L 200.238337 113.544124 
M 201.620822 117.636416 
L 202.311586 127.486522 
M 203.69088 157.913587 
L 204.381644 194.712985 
L 205.072415 221.696148 
L 205.76318 215.231783 
M 207.144912 219.072544 
L 207.835649 207.82461 
L 208.52642 155.696355 
L 209.910833 130.861888 
L 210.600962 128.496726 
L 211.291726 119.39912 
L 211.981532 121.67523 
L 212.672296 128.175788 
L 213.363061 122.963577 
L 214.053825 121.599821 
M 215.434456 94.523054 
L 216.125229 140.677561 
L 216.815991 137.557318 
M 218.199407 159.215511 
L 218.890171 168.38454 
L 220.272716 240.122705 
M 221.654251 240.168098 
L 222.345016 235.081636 
L 223.036742 212.879226 
L 223.727506 223.062075 
L 224.41827 172.934168 
L 225.109035 163.682522 
L 226.490056 141.507096 
L 227.180827 117.504076 
L 227.871591 122.882649 
L 228.562668 109.954675 
L 229.253439 164.995579 
L 229.944197 144.414422 
L 231.326137 163.144806 
M 232.707666 180.649172 
L 233.39843 197.55929 
L 234.089354 166.332931 
L 234.783368 209.622378 
L 235.474132 196.636213 
L 236.85566 202.510873 
L 237.548874 177.897383 
M 238.930409 189.570747 
L 239.621173 187.329499 
L 240.303576 189.909928 
M 242.375876 206.299449 
L 243.066714 199.48142 
L 243.757478 197.765612 
L 244.448243 206.421987 
L 245.139014 173.208069 
L 245.830465 190.498486 
L 246.521229 186.137763 
L 247.211993 179.888349 
L 247.902757 159.502067 
L 248.594472 155.866168 
L 249.285244 156.367496 
L 249.976007 139.92964 
L 250.666771 126.29586 
L 251.358236 121.663051 
L 252.049 121.383635 
M 255.49783 218.453444 
L 256.188594 176.670547 
L 256.879617 176.442799 
L 257.570381 193.416786 
L 258.26116 206.913669 
M 259.64449 283.53774 
L 260.335263 207.429968 
L 261.026026 208.886736 
L 262.407215 164.307393 
L 263.097979 160.151241 
L 263.788744 160.49547 
L 264.479508 143.555224 
M 274.151726 204.826922 
L 274.842491 173.994961 
L 275.533255 179.173039 
M 299.711232 110.414084 
L 300.401996 113.541874 
M 320.435241 57.876514 
L 321.126005 67.19193 
M 325.959699 236.334771 
L 326.650469 251.435517 
M 330.107021 60.558654 
L 330.797792 62.738469 
L 331.488556 87.158137 
L 332.179321 101.370639 
L 332.870085 162.480502 
M 339.776834 79.183134 
L 340.467598 111.781518 
M 348.061496 68.232547 
L 348.752267 91.18837 
M 363.258857 162.250531 
L 363.949877 180.730162 
L 364.640546 156.56008 
M 366.712845 143.855198 
L 367.404322 158.678472 
L 368.095087 159.711005 
L 368.785851 154.211015 
L 369.476615 147.613168 
M 372.240651 195.04855 
L 372.932395 178.21359 
M 383.292963 167.693761 
L 383.983311 159.300296 
L 384.674075 171.663887 
L 385.364839 194.812161 
M 388.126497 165.939146 
L 388.817261 176.987879 
M 398.487273 163.904553 
" style="fill:none;stroke:#ff0000;stroke-linecap:square;"/>
   </g>
   <g id="line2d_128">
    <path clip-path="url(#pcff1da20d6)" d="M 73.832727 144.731839 
L 75.214926 153.064966 
L 75.90502 159.977027 
L 76.592626 162.976096 
L 77.283397 165.041482 
L 77.974161 148.242776 
L 78.664925 150.120417 
L 79.355563 152.88958 
L 80.046327 159.64829 
L 81.427856 151.019209 
L 83.502574 171.000862 
L 84.193339 175.474989 
L 85.576087 167.140624 
L 86.266845 165.738535 
L 86.957609 161.170155 
L 87.645678 158.5344 
L 88.336449 162.065892 
L 89.027213 162.735388 
L 89.717977 168.616776 
L 90.406648 179.567485 
M 91.788177 176.221046 
L 92.478941 173.056122 
M 94.550073 144.873555 
L 95.240837 132.701303 
L 95.932216 123.839786 
M 97.313745 160.369725 
L 98.004515 169.682277 
L 98.69634 190.209574 
L 99.387113 206.818494 
L 100.077877 208.202095 
M 103.530388 178.605369 
L 104.221159 170.267814 
L 104.91077 158.023415 
L 105.601534 139.5297 
L 106.292299 134.757952 
M 108.366184 138.293754 
L 109.056955 151.99639 
L 109.747719 170.246127 
L 110.439147 177.453012 
M 113.892725 176.918549 
L 114.583489 184.919357 
L 115.274253 189.726717 
L 115.964375 196.403652 
L 116.65514 207.778684 
L 117.345904 221.822175 
M 118.727419 216.521841 
L 119.418184 218.705607 
L 120.108955 206.246657 
L 120.799719 187.343767 
L 121.492955 175.151033 
M 122.874484 128.169635 
L 123.565263 123.917302 
L 124.256745 134.431292 
M 127.706996 203.745443 
L 128.39776 215.019355 
L 129.088525 221.015544 
L 129.780371 212.896229 
L 130.471135 208.656003 
L 131.1619 191.742224 
L 131.85267 170.195922 
L 132.545623 155.577587 
L 133.236388 144.505143 
L 133.927152 135.549441 
L 134.617916 132.847392 
L 135.306719 142.133799 
L 135.997483 153.021955 
L 136.688248 152.104987 
L 137.379012 157.813924 
L 138.069776 164.894964 
L 138.758508 176.745887 
L 139.449273 183.442947 
L 140.830801 210.500822 
L 141.523996 208.41591 
M 142.905525 178.483731 
L 143.596289 166.567015 
L 144.286767 160.012377 
L 144.977531 146.708514 
L 145.668295 137.569274 
L 146.35906 129.986589 
M 149.811687 132.070261 
L 150.502452 134.280127 
L 151.193216 138.702486 
L 152.575826 166.37752 
M 153.957362 200.717079 
L 154.648118 200.423633 
M 156.717968 204.050095 
L 157.408739 203.244374 
L 158.099666 203.816463 
L 158.790424 211.186262 
L 159.481195 211.098845 
M 162.247225 173.511527 
L 162.937989 154.249439 
L 163.627087 138.294199 
M 165.008615 132.535064 
L 165.69938 133.253464 
M 167.770322 134.649216 
L 168.461086 127.995638 
L 169.151851 119.575332 
L 169.843973 127.988703 
L 170.534753 141.95809 
L 171.225502 159.105677 
L 171.916266 166.313346 
M 173.298795 190.288157 
L 173.988964 195.875865 
L 174.679729 193.21005 
L 175.368719 202.380017 
M 178.132333 219.321283 
L 178.823097 214.69683 
L 179.513862 203.351217 
L 180.204626 202.222752 
M 181.588771 179.480084 
L 182.279529 165.897382 
M 183.658693 142.15204 
L 184.349457 128.651272 
L 185.040221 124.110668 
L 185.730986 123.098757 
M 187.112145 129.976655 
L 187.80291 131.977219 
L 188.49368 142.079721 
M 194.710193 217.958546 
L 195.400951 208.734394 
L 196.091715 222.727114 
L 196.78248 228.32936 
L 197.47528 228.329165 
L 198.166037 219.58547 
L 198.856808 182.391297 
L 199.547572 152.777283 
L 200.238337 132.994249 
M 201.620822 123.605045 
L 202.311586 127.664938 
M 203.69088 157.458521 
L 204.381644 182.039119 
L 205.072415 212.055741 
L 205.76318 218.213792 
M 207.144912 230.821907 
L 207.835649 211.590012 
L 209.219434 151.370966 
L 209.910833 134.031639 
L 211.291726 123.495459 
L 211.981532 125.933725 
L 212.672296 127.182877 
L 213.363061 126.397696 
L 214.053825 123.378746 
M 215.434456 122.113922 
L 216.125229 135.720272 
L 216.815991 140.64627 
M 218.199407 154.818277 
L 220.272716 198.326052 
M 221.654251 217.737149 
L 222.345016 218.813298 
L 223.036742 213.442412 
L 223.727506 198.903665 
L 224.41827 178.571188 
L 226.490056 140.633404 
L 227.180827 132.506966 
L 227.871591 131.393893 
L 228.562668 142.083675 
L 229.253439 143.342546 
L 229.944197 149.425263 
L 230.634968 157.920429 
L 231.326137 155.412258 
M 232.707666 178.580823 
L 233.39843 187.563083 
L 234.089354 190.615948 
L 234.783368 198.330416 
L 235.474132 199.292537 
L 236.164896 197.660669 
L 237.548874 179.718901 
M 238.930409 180.022129 
L 239.621173 183.388001 
L 240.303576 186.157962 
M 242.375876 204.052956 
L 243.066714 202.138872 
L 243.757478 202.978851 
L 244.448243 198.346347 
L 245.139014 191.466209 
L 245.830465 195.575106 
L 246.521229 182.19853 
L 247.902757 169.429973 
L 248.594472 159.154925 
L 249.285244 143.426612 
L 249.976007 136.581515 
L 250.666771 128.157386 
L 251.358236 128.547937 
L 252.049 133.609183 
M 255.49783 181.172108 
L 256.188594 178.309041 
L 256.879617 176.284385 
L 258.26116 203.835455 
M 259.64449 218.983451 
L 260.335263 214.211856 
L 261.026026 200.021134 
L 262.407215 165.880797 
L 263.788744 141.399173 
L 264.479508 145.313696 
M 274.151726 183.987329 
L 275.533255 159.699944 
M 299.711232 121.979586 
L 300.401996 108.296955 
M 320.435241 53.568 
L 321.126005 66.259728 
M 325.959699 234.750651 
L 326.650469 250.454558 
M 330.107021 75.896716 
L 331.488556 88.031919 
L 332.179321 113.857383 
L 332.870085 160.723446 
M 339.776834 78.174128 
L 340.467598 105.276986 
M 348.061496 73.040545 
L 348.752267 85.083115 
M 363.258857 189.572057 
L 364.640546 159.862925 
M 366.712845 148.681453 
L 367.404322 159.06489 
L 368.095087 158.063542 
L 368.785851 154.228181 
L 369.476615 148.626203 
M 372.240651 187.026796 
L 372.932395 183.350996 
M 383.292963 175.01934 
L 383.983311 166.980185 
L 384.674075 174.108938 
L 385.364839 167.302509 
M 388.126497 166.964882 
L 388.817261 176.904328 
M 398.487273 167.772365 
" style="fill:none;stroke:#0000ff;stroke-linecap:square;"/>
   </g>
   <g id="line2d_129">
    <path clip-path="url(#pcff1da20d6)" d="M 93.168538 164.495029 
L 93.85931 157.677256 
M 100.768641 204.597084 
L 101.458095 201.105714 
L 102.148859 194.725296 
L 102.839623 186.925458 
M 106.983069 146.663623 
L 107.67542 144.084091 
M 111.129911 177.817795 
L 111.820676 175.779495 
L 112.51144 177.636245 
L 113.201961 175.202366 
M 124.94715 146.585172 
L 125.637915 147.730206 
M 147.047377 135.767711 
L 147.738141 137.808961 
L 148.428912 142.449845 
L 149.11967 133.619817 
M 155.33644 201.507319 
L 156.027204 202.063574 
M 160.171959 217.628681 
L 160.865696 216.587853 
L 161.55646 196.507711 
M 166.388793 140.02326 
L 167.079558 138.970736 
M 191.259374 187.106034 
L 191.94738 188.129661 
L 192.638151 201.081136 
L 194.01968 217.166147 
M 240.99434 190.938393 
L 241.685105 194.787622 
M 254.116301 156.994521 
L 254.807065 168.700274 
M 265.168327 135.811282 
L 265.859098 128.433553 
L 266.549862 129.858779 
L 267.240627 131.90424 
L 267.931391 134.856867 
M 269.31247 134.128166 
L 270.003241 153.84249 
L 270.694702 169.255764 
L 271.387287 171.618265 
L 272.078052 175.682896 
M 276.224019 152.281879 
L 276.914999 154.73157 
L 277.60577 138.270658 
L 278.296528 131.941013 
L 278.987299 133.332019 
L 279.675411 143.360895 
L 280.366169 158.018423 
L 281.056933 159.93641 
L 281.747704 171.608449 
L 282.439865 189.688811 
L 283.130629 201.018839 
L 283.821394 198.612205 
L 284.512158 197.469505 
L 285.2016 187.18818 
L 285.892364 165.922124 
L 286.583128 154.047588 
L 287.273899 153.123542 
L 287.965319 145.538803 
L 288.656083 139.403363 
L 289.346848 147.801174 
L 290.037619 149.212344 
L 290.727619 153.2412 
L 291.418383 162.883278 
L 292.109147 165.976276 
L 292.799912 164.258488 
L 293.492838 175.649542 
L 294.183602 190.299811 
L 294.874897 202.566575 
L 295.565129 205.604052 
L 296.254046 227.938954 
L 296.94481 241.422084 
L 297.635575 243.220173 
L 299.017111 157.065012 
M 301.09276 85.034854 
L 301.783525 66.519688 
L 302.472105 70.548872 
L 303.16287 93.031678 
L 303.853634 132.692565 
L 305.926867 274.943387 
M 307.308396 281.889446 
L 307.997679 242.302521 
L 309.379215 109.45568 
L 310.069979 72.603935 
L 310.762845 54.107885 
L 311.453609 59.333121 
M 312.835137 134.113627 
L 313.524639 170.363114 
L 314.906175 253.177951 
L 315.59694 279.003959 
M 316.977643 248.89192 
L 317.668408 209.338047 
M 319.054195 108.106732 
L 319.74447 79.236889 
M 321.813621 80.28654 
L 322.504385 81.662778 
L 323.195149 106.728798 
M 324.578163 176.451803 
L 325.268928 205.135236 
M 327.344188 243.552063 
L 328.034952 201.631669 
M 333.56107 191.919335 
L 334.251834 214.398373 
L 334.942599 250.735851 
L 335.633363 273.275475 
M 337.013926 209.640702 
L 338.395455 98.112851 
L 339.086069 68.39009 
M 341.158369 144.385599 
L 341.847481 185.378838 
L 343.229568 251.626893 
M 344.607811 276.347653 
L 345.298576 245.941121 
L 345.98934 200.928673 
M 349.443031 120.226601 
L 350.82389 202.704452 
L 351.514654 228.575126 
M 352.896742 257.98331 
L 353.587498 248.429553 
L 355.66224 128.43408 
L 356.353004 109.548111 
L 357.043769 108.642678 
L 357.734533 131.127374 
L 358.422891 146.5531 
L 359.113662 154.530292 
L 359.804426 161.120626 
L 360.495191 162.424634 
L 361.877322 180.029684 
L 362.568093 187.781025 
M 365.331316 148.374644 
L 366.022081 141.953051 
M 370.168351 161.377674 
L 370.859122 179.0629 
L 371.549886 190.95555 
M 376.38717 137.498837 
L 377.768698 155.000499 
M 379.839748 165.183628 
L 380.530512 191.35669 
L 381.220664 185.441517 
L 381.911435 189.839588 
L 382.602199 192.674227 
M 386.055604 158.547188 
L 386.744968 153.004831 
L 387.435732 164.520345 
M 389.506835 185.716034 
L 390.197614 181.339887 
L 390.888363 170.88859 
M 392.269747 168.366805 
L 392.960511 163.185582 
M 394.34204 164.899456 
L 395.03298 163.736308 
M 396.414509 168.376067 
L 397.105273 168.345859 
L 397.796044 166.421435 
L 397.796044 166.421435 
" style="fill:none;stroke:#008000;stroke-linecap:square;"/>
   </g>
   <g id="patch_3">
    <path d="M 57.6 307.584 
L 57.6 41.472 
" style="fill:none;stroke:#000000;stroke-linecap:square;stroke-linejoin:miter;stroke-width:0.8;"/>
   </g>
   <g id="patch_4">
    <path d="M 414.72 307.584 
L 414.72 41.472 
" style="fill:none;stroke:#000000;stroke-linecap:square;stroke-linejoin:miter;stroke-width:0.8;"/>
   </g>
   <g id="patch_5">
    <path d="M 57.6 307.584 
L 414.72 307.584 
" style="fill:none;stroke:#000000;stroke-linecap:square;stroke-linejoin:miter;stroke-width:0.8;"/>
   </g>
   <g id="patch_6">
    <path d="M 57.6 41.472 
L 414.72 41.472 
" style="fill:none;stroke:#000000;stroke-linecap:square;stroke-linejoin:miter;stroke-width:0.8;"/>
   </g>
   <g id="text_15">
    <!-- Rel Gt Rot Y Plot -->
    <defs>
     <path d="M 44.390625 34.1875 
Q 47.5625 33.109375 50.5625 29.59375 
Q 53.5625 26.078125 56.59375 19.921875 
L 66.609375 0 
L 56 0 
L 46.6875 18.703125 
Q 43.0625 26.03125 39.671875 28.421875 
Q 36.28125 30.8125 30.421875 30.8125 
L 19.671875 30.8125 
L 19.671875 0 
L 9.8125 0 
L 9.8125 72.90625 
L 32.078125 72.90625 
Q 44.578125 72.90625 50.734375 67.671875 
Q 56.890625 62.453125 56.890625 51.90625 
Q 56.890625 45.015625 53.6875 40.46875 
Q 50.484375 35.9375 44.390625 34.1875 
z
M 19.671875 64.796875 
L 19.671875 38.921875 
L 32.078125 38.921875 
Q 39.203125 38.921875 42.84375 42.21875 
Q 46.484375 45.515625 46.484375 51.90625 
Q 46.484375 58.296875 42.84375 61.546875 
Q 39.203125 64.796875 32.078125 64.796875 
z
" id="DejaVuSans-52"/>
     <path d="M 9.421875 75.984375 
L 18.40625 75.984375 
L 18.40625 0 
L 9.421875 0 
z
" id="DejaVuSans-6c"/>
     <path d="M 59.515625 10.40625 
L 59.515625 29.984375 
L 43.40625 29.984375 
L 43.40625 38.09375 
L 69.28125 38.09375 
L 69.28125 6.78125 
Q 63.578125 2.734375 56.6875 0.65625 
Q 49.8125 -1.421875 42 -1.421875 
Q 24.90625 -1.421875 15.25 8.5625 
Q 5.609375 18.5625 5.609375 36.375 
Q 5.609375 54.25 15.25 64.234375 
Q 24.90625 74.21875 42 74.21875 
Q 49.125 74.21875 55.546875 72.453125 
Q 61.96875 70.703125 67.390625 67.28125 
L 67.390625 56.78125 
Q 61.921875 61.421875 55.765625 63.765625 
Q 49.609375 66.109375 42.828125 66.109375 
Q 29.4375 66.109375 22.71875 58.640625 
Q 16.015625 51.171875 16.015625 36.375 
Q 16.015625 21.625 22.71875 14.15625 
Q 29.4375 6.6875 42.828125 6.6875 
Q 48.046875 6.6875 52.140625 7.59375 
Q 56.25 8.5 59.515625 10.40625 
z
" id="DejaVuSans-47"/>
     <path d="M -0.203125 72.90625 
L 10.40625 72.90625 
L 30.609375 42.921875 
L 50.6875 72.90625 
L 61.28125 72.90625 
L 35.5 34.71875 
L 35.5 0 
L 25.59375 0 
L 25.59375 34.71875 
z
" id="DejaVuSans-59"/>
     <path d="M 19.671875 64.796875 
L 19.671875 37.40625 
L 32.078125 37.40625 
Q 38.96875 37.40625 42.71875 40.96875 
Q 46.484375 44.53125 46.484375 51.125 
Q 46.484375 57.671875 42.71875 61.234375 
Q 38.96875 64.796875 32.078125 64.796875 
z
M 9.8125 72.90625 
L 32.078125 72.90625 
Q 44.34375 72.90625 50.609375 67.359375 
Q 56.890625 61.8125 56.890625 51.125 
Q 56.890625 40.328125 50.609375 34.8125 
Q 44.34375 29.296875 32.078125 29.296875 
L 19.671875 29.296875 
L 19.671875 0 
L 9.8125 0 
z
" id="DejaVuSans-50"/>
    </defs>
    <g transform="translate(186.845625 35.472)scale(0.12 -0.12)">
     <use xlink:href="#DejaVuSans-52"/>
     <use x="69.419922" xlink:href="#DejaVuSans-65"/>
     <use x="130.943359" xlink:href="#DejaVuSans-6c"/>
     <use x="158.726562" xlink:href="#DejaVuSans-20"/>
     <use x="190.513672" xlink:href="#DejaVuSans-47"/>
     <use x="268.003906" xlink:href="#DejaVuSans-74"/>
     <use x="307.212891" xlink:href="#DejaVuSans-20"/>
     <use x="339" xlink:href="#DejaVuSans-52"/>
     <use x="408.419922" xlink:href="#DejaVuSans-6f"/>
     <use x="469.601562" xlink:href="#DejaVuSans-74"/>
     <use x="508.810547" xlink:href="#DejaVuSans-20"/>
     <use x="540.597656" xlink:href="#DejaVuSans-59"/>
     <use x="601.681641" xlink:href="#DejaVuSans-20"/>
     <use x="633.46875" xlink:href="#DejaVuSans-50"/>
     <use x="693.771484" xlink:href="#DejaVuSans-6c"/>
     <use x="721.554688" xlink:href="#DejaVuSans-6f"/>
     <use x="782.736328" xlink:href="#DejaVuSans-74"/>
    </g>
   </g>
  </g>
 </g>
 <defs>
  <clipPath id="pcff1da20d6">
   <rect height="266.112" width="357.12" x="57.6" y="41.472"/>
  </clipPath>
 </defs>
</svg>
