<?xml version="1.0" encoding="utf-8" standalone="no"?>
<!DOCTYPE svg PUBLIC "-//W3C//DTD SVG 1.1//EN"
  "http://www.w3.org/Graphics/SVG/1.1/DTD/svg11.dtd">
<!-- Created with matplotlib (http://matplotlib.org/) -->
<svg height="345.6pt" version="1.1" viewBox="0 0 460.8 345.6" width="460.8pt" xmlns="http://www.w3.org/2000/svg" xmlns:xlink="http://www.w3.org/1999/xlink">
 <defs>
  <style type="text/css">
*{stroke-linecap:butt;stroke-linejoin:round;}
  </style>
 </defs>
 <g id="figure_1">
  <g id="patch_1">
   <path d="M 0 345.6 
L 460.8 345.6 
L 460.8 0 
L 0 0 
z
" style="fill:#ffffff;"/>
  </g>
  <g id="axes_1">
   <g id="patch_2">
    <path d="M 57.6 307.584 
L 414.72 307.584 
L 414.72 41.472 
L 57.6 41.472 
z
" style="fill:#ffffff;"/>
   </g>
   <g id="matplotlib.axis_1">
    <g id="xtick_1">
     <g id="line2d_1">
      <path clip-path="url(#pb8f88f2e2f)" d="M 70.555248 307.584 
L 70.555248 41.472 
" style="fill:none;stroke:#b0b0b0;stroke-linecap:square;stroke-width:0.8;"/>
     </g>
     <g id="line2d_2">
      <defs>
       <path d="M 0 0 
L 0 3.5 
" id="m031fc83b5c" style="stroke:#000000;stroke-width:0.8;"/>
      </defs>
      <g>
       <use style="stroke:#000000;stroke-width:0.8;" x="70.555248" xlink:href="#m031fc83b5c" y="307.584"/>
      </g>
     </g>
     <g id="text_1">
      <!-- 0 -->
      <defs>
       <path d="M 31.78125 66.40625 
Q 24.171875 66.40625 20.328125 58.90625 
Q 16.5 51.421875 16.5 36.375 
Q 16.5 21.390625 20.328125 13.890625 
Q 24.171875 6.390625 31.78125 6.390625 
Q 39.453125 6.390625 43.28125 13.890625 
Q 47.125 21.390625 47.125 36.375 
Q 47.125 51.421875 43.28125 58.90625 
Q 39.453125 66.40625 31.78125 66.40625 
z
M 31.78125 74.21875 
Q 44.046875 74.21875 50.515625 64.515625 
Q 56.984375 54.828125 56.984375 36.375 
Q 56.984375 17.96875 50.515625 8.265625 
Q 44.046875 -1.421875 31.78125 -1.421875 
Q 19.53125 -1.421875 13.0625 8.265625 
Q 6.59375 17.96875 6.59375 36.375 
Q 6.59375 54.828125 13.0625 64.515625 
Q 19.53125 74.21875 31.78125 74.21875 
z
" id="DejaVuSans-30"/>
      </defs>
      <g transform="translate(67.373998 322.182437)scale(0.1 -0.1)">
       <use xlink:href="#DejaVuSans-30"/>
      </g>
     </g>
    </g>
    <g id="xtick_2">
     <g id="line2d_3">
      <path clip-path="url(#pb8f88f2e2f)" d="M 139.776886 307.584 
L 139.776886 41.472 
" style="fill:none;stroke:#b0b0b0;stroke-linecap:square;stroke-width:0.8;"/>
     </g>
     <g id="line2d_4">
      <g>
       <use style="stroke:#000000;stroke-width:0.8;" x="139.776886" xlink:href="#m031fc83b5c" y="307.584"/>
      </g>
     </g>
     <g id="text_2">
      <!-- 10 -->
      <defs>
       <path d="M 12.40625 8.296875 
L 28.515625 8.296875 
L 28.515625 63.921875 
L 10.984375 60.40625 
L 10.984375 69.390625 
L 28.421875 72.90625 
L 38.28125 72.90625 
L 38.28125 8.296875 
L 54.390625 8.296875 
L 54.390625 0 
L 12.40625 0 
z
" id="DejaVuSans-31"/>
      </defs>
      <g transform="translate(133.414386 322.182437)scale(0.1 -0.1)">
       <use xlink:href="#DejaVuSans-31"/>
       <use x="63.623047" xlink:href="#DejaVuSans-30"/>
      </g>
     </g>
    </g>
    <g id="xtick_3">
     <g id="line2d_5">
      <path clip-path="url(#pb8f88f2e2f)" d="M 208.998523 307.584 
L 208.998523 41.472 
" style="fill:none;stroke:#b0b0b0;stroke-linecap:square;stroke-width:0.8;"/>
     </g>
     <g id="line2d_6">
      <g>
       <use style="stroke:#000000;stroke-width:0.8;" x="208.998523" xlink:href="#m031fc83b5c" y="307.584"/>
      </g>
     </g>
     <g id="text_3">
      <!-- 20 -->
      <defs>
       <path d="M 19.1875 8.296875 
L 53.609375 8.296875 
L 53.609375 0 
L 7.328125 0 
L 7.328125 8.296875 
Q 12.9375 14.109375 22.625 23.890625 
Q 32.328125 33.6875 34.8125 36.53125 
Q 39.546875 41.84375 41.421875 45.53125 
Q 43.3125 49.21875 43.3125 52.78125 
Q 43.3125 58.59375 39.234375 62.25 
Q 35.15625 65.921875 28.609375 65.921875 
Q 23.96875 65.921875 18.8125 64.3125 
Q 13.671875 62.703125 7.8125 59.421875 
L 7.8125 69.390625 
Q 13.765625 71.78125 18.9375 73 
Q 24.125 74.21875 28.421875 74.21875 
Q 39.75 74.21875 46.484375 68.546875 
Q 53.21875 62.890625 53.21875 53.421875 
Q 53.21875 48.921875 51.53125 44.890625 
Q 49.859375 40.875 45.40625 35.40625 
Q 44.1875 33.984375 37.640625 27.21875 
Q 31.109375 20.453125 19.1875 8.296875 
z
" id="DejaVuSans-32"/>
      </defs>
      <g transform="translate(202.636023 322.182437)scale(0.1 -0.1)">
       <use xlink:href="#DejaVuSans-32"/>
       <use x="63.623047" xlink:href="#DejaVuSans-30"/>
      </g>
     </g>
    </g>
    <g id="xtick_4">
     <g id="line2d_7">
      <path clip-path="url(#pb8f88f2e2f)" d="M 278.220161 307.584 
L 278.220161 41.472 
" style="fill:none;stroke:#b0b0b0;stroke-linecap:square;stroke-width:0.8;"/>
     </g>
     <g id="line2d_8">
      <g>
       <use style="stroke:#000000;stroke-width:0.8;" x="278.220161" xlink:href="#m031fc83b5c" y="307.584"/>
      </g>
     </g>
     <g id="text_4">
      <!-- 30 -->
      <defs>
       <path d="M 40.578125 39.3125 
Q 47.65625 37.796875 51.625 33 
Q 55.609375 28.21875 55.609375 21.1875 
Q 55.609375 10.40625 48.1875 4.484375 
Q 40.765625 -1.421875 27.09375 -1.421875 
Q 22.515625 -1.421875 17.65625 -0.515625 
Q 12.796875 0.390625 7.625 2.203125 
L 7.625 11.71875 
Q 11.71875 9.328125 16.59375 8.109375 
Q 21.484375 6.890625 26.8125 6.890625 
Q 36.078125 6.890625 40.9375 10.546875 
Q 45.796875 14.203125 45.796875 21.1875 
Q 45.796875 27.640625 41.28125 31.265625 
Q 36.765625 34.90625 28.71875 34.90625 
L 20.21875 34.90625 
L 20.21875 43.015625 
L 29.109375 43.015625 
Q 36.375 43.015625 40.234375 45.921875 
Q 44.09375 48.828125 44.09375 54.296875 
Q 44.09375 59.90625 40.109375 62.90625 
Q 36.140625 65.921875 28.71875 65.921875 
Q 24.65625 65.921875 20.015625 65.03125 
Q 15.375 64.15625 9.8125 62.3125 
L 9.8125 71.09375 
Q 15.4375 72.65625 20.34375 73.4375 
Q 25.25 74.21875 29.59375 74.21875 
Q 40.828125 74.21875 47.359375 69.109375 
Q 53.90625 64.015625 53.90625 55.328125 
Q 53.90625 49.265625 50.4375 45.09375 
Q 46.96875 40.921875 40.578125 39.3125 
z
" id="DejaVuSans-33"/>
      </defs>
      <g transform="translate(271.857661 322.182437)scale(0.1 -0.1)">
       <use xlink:href="#DejaVuSans-33"/>
       <use x="63.623047" xlink:href="#DejaVuSans-30"/>
      </g>
     </g>
    </g>
    <g id="xtick_5">
     <g id="line2d_9">
      <path clip-path="url(#pb8f88f2e2f)" d="M 347.441799 307.584 
L 347.441799 41.472 
" style="fill:none;stroke:#b0b0b0;stroke-linecap:square;stroke-width:0.8;"/>
     </g>
     <g id="line2d_10">
      <g>
       <use style="stroke:#000000;stroke-width:0.8;" x="347.441799" xlink:href="#m031fc83b5c" y="307.584"/>
      </g>
     </g>
     <g id="text_5">
      <!-- 40 -->
      <defs>
       <path d="M 37.796875 64.3125 
L 12.890625 25.390625 
L 37.796875 25.390625 
z
M 35.203125 72.90625 
L 47.609375 72.90625 
L 47.609375 25.390625 
L 58.015625 25.390625 
L 58.015625 17.1875 
L 47.609375 17.1875 
L 47.609375 0 
L 37.796875 0 
L 37.796875 17.1875 
L 4.890625 17.1875 
L 4.890625 26.703125 
z
" id="DejaVuSans-34"/>
      </defs>
      <g transform="translate(341.079299 322.182437)scale(0.1 -0.1)">
       <use xlink:href="#DejaVuSans-34"/>
       <use x="63.623047" xlink:href="#DejaVuSans-30"/>
      </g>
     </g>
    </g>
    <g id="xtick_6">
     <g id="line2d_11">
      <path clip-path="url(#pb8f88f2e2f)" d="M 84.399575 307.584 
L 84.399575 41.472 
" style="fill:none;stroke:#b0b0b0;stroke-linecap:square;stroke-width:0.8;"/>
     </g>
     <g id="line2d_12">
      <defs>
       <path d="M 0 0 
L 0 2 
" id="m1fb9d53bac" style="stroke:#000000;stroke-width:0.6;"/>
      </defs>
      <g>
       <use style="stroke:#000000;stroke-width:0.6;" x="84.399575" xlink:href="#m1fb9d53bac" y="307.584"/>
      </g>
     </g>
    </g>
    <g id="xtick_7">
     <g id="line2d_13">
      <path clip-path="url(#pb8f88f2e2f)" d="M 98.243903 307.584 
L 98.243903 41.472 
" style="fill:none;stroke:#b0b0b0;stroke-linecap:square;stroke-width:0.8;"/>
     </g>
     <g id="line2d_14">
      <g>
       <use style="stroke:#000000;stroke-width:0.6;" x="98.243903" xlink:href="#m1fb9d53bac" y="307.584"/>
      </g>
     </g>
    </g>
    <g id="xtick_8">
     <g id="line2d_15">
      <path clip-path="url(#pb8f88f2e2f)" d="M 112.08823 307.584 
L 112.08823 41.472 
" style="fill:none;stroke:#b0b0b0;stroke-linecap:square;stroke-width:0.8;"/>
     </g>
     <g id="line2d_16">
      <g>
       <use style="stroke:#000000;stroke-width:0.6;" x="112.08823" xlink:href="#m1fb9d53bac" y="307.584"/>
      </g>
     </g>
    </g>
    <g id="xtick_9">
     <g id="line2d_17">
      <path clip-path="url(#pb8f88f2e2f)" d="M 125.932558 307.584 
L 125.932558 41.472 
" style="fill:none;stroke:#b0b0b0;stroke-linecap:square;stroke-width:0.8;"/>
     </g>
     <g id="line2d_18">
      <g>
       <use style="stroke:#000000;stroke-width:0.6;" x="125.932558" xlink:href="#m1fb9d53bac" y="307.584"/>
      </g>
     </g>
    </g>
    <g id="xtick_10">
     <g id="line2d_19">
      <path clip-path="url(#pb8f88f2e2f)" d="M 153.621213 307.584 
L 153.621213 41.472 
" style="fill:none;stroke:#b0b0b0;stroke-linecap:square;stroke-width:0.8;"/>
     </g>
     <g id="line2d_20">
      <g>
       <use style="stroke:#000000;stroke-width:0.6;" x="153.621213" xlink:href="#m1fb9d53bac" y="307.584"/>
      </g>
     </g>
    </g>
    <g id="xtick_11">
     <g id="line2d_21">
      <path clip-path="url(#pb8f88f2e2f)" d="M 167.465541 307.584 
L 167.465541 41.472 
" style="fill:none;stroke:#b0b0b0;stroke-linecap:square;stroke-width:0.8;"/>
     </g>
     <g id="line2d_22">
      <g>
       <use style="stroke:#000000;stroke-width:0.6;" x="167.465541" xlink:href="#m1fb9d53bac" y="307.584"/>
      </g>
     </g>
    </g>
    <g id="xtick_12">
     <g id="line2d_23">
      <path clip-path="url(#pb8f88f2e2f)" d="M 181.309868 307.584 
L 181.309868 41.472 
" style="fill:none;stroke:#b0b0b0;stroke-linecap:square;stroke-width:0.8;"/>
     </g>
     <g id="line2d_24">
      <g>
       <use style="stroke:#000000;stroke-width:0.6;" x="181.309868" xlink:href="#m1fb9d53bac" y="307.584"/>
      </g>
     </g>
    </g>
    <g id="xtick_13">
     <g id="line2d_25">
      <path clip-path="url(#pb8f88f2e2f)" d="M 195.154196 307.584 
L 195.154196 41.472 
" style="fill:none;stroke:#b0b0b0;stroke-linecap:square;stroke-width:0.8;"/>
     </g>
     <g id="line2d_26">
      <g>
       <use style="stroke:#000000;stroke-width:0.6;" x="195.154196" xlink:href="#m1fb9d53bac" y="307.584"/>
      </g>
     </g>
    </g>
    <g id="xtick_14">
     <g id="line2d_27">
      <path clip-path="url(#pb8f88f2e2f)" d="M 222.842851 307.584 
L 222.842851 41.472 
" style="fill:none;stroke:#b0b0b0;stroke-linecap:square;stroke-width:0.8;"/>
     </g>
     <g id="line2d_28">
      <g>
       <use style="stroke:#000000;stroke-width:0.6;" x="222.842851" xlink:href="#m1fb9d53bac" y="307.584"/>
      </g>
     </g>
    </g>
    <g id="xtick_15">
     <g id="line2d_29">
      <path clip-path="url(#pb8f88f2e2f)" d="M 236.687178 307.584 
L 236.687178 41.472 
" style="fill:none;stroke:#b0b0b0;stroke-linecap:square;stroke-width:0.8;"/>
     </g>
     <g id="line2d_30">
      <g>
       <use style="stroke:#000000;stroke-width:0.6;" x="236.687178" xlink:href="#m1fb9d53bac" y="307.584"/>
      </g>
     </g>
    </g>
    <g id="xtick_16">
     <g id="line2d_31">
      <path clip-path="url(#pb8f88f2e2f)" d="M 250.531506 307.584 
L 250.531506 41.472 
" style="fill:none;stroke:#b0b0b0;stroke-linecap:square;stroke-width:0.8;"/>
     </g>
     <g id="line2d_32">
      <g>
       <use style="stroke:#000000;stroke-width:0.6;" x="250.531506" xlink:href="#m1fb9d53bac" y="307.584"/>
      </g>
     </g>
    </g>
    <g id="xtick_17">
     <g id="line2d_33">
      <path clip-path="url(#pb8f88f2e2f)" d="M 264.375834 307.584 
L 264.375834 41.472 
" style="fill:none;stroke:#b0b0b0;stroke-linecap:square;stroke-width:0.8;"/>
     </g>
     <g id="line2d_34">
      <g>
       <use style="stroke:#000000;stroke-width:0.6;" x="264.375834" xlink:href="#m1fb9d53bac" y="307.584"/>
      </g>
     </g>
    </g>
    <g id="xtick_18">
     <g id="line2d_35">
      <path clip-path="url(#pb8f88f2e2f)" d="M 292.064489 307.584 
L 292.064489 41.472 
" style="fill:none;stroke:#b0b0b0;stroke-linecap:square;stroke-width:0.8;"/>
     </g>
     <g id="line2d_36">
      <g>
       <use style="stroke:#000000;stroke-width:0.6;" x="292.064489" xlink:href="#m1fb9d53bac" y="307.584"/>
      </g>
     </g>
    </g>
    <g id="xtick_19">
     <g id="line2d_37">
      <path clip-path="url(#pb8f88f2e2f)" d="M 305.908816 307.584 
L 305.908816 41.472 
" style="fill:none;stroke:#b0b0b0;stroke-linecap:square;stroke-width:0.8;"/>
     </g>
     <g id="line2d_38">
      <g>
       <use style="stroke:#000000;stroke-width:0.6;" x="305.908816" xlink:href="#m1fb9d53bac" y="307.584"/>
      </g>
     </g>
    </g>
    <g id="xtick_20">
     <g id="line2d_39">
      <path clip-path="url(#pb8f88f2e2f)" d="M 319.753144 307.584 
L 319.753144 41.472 
" style="fill:none;stroke:#b0b0b0;stroke-linecap:square;stroke-width:0.8;"/>
     </g>
     <g id="line2d_40">
      <g>
       <use style="stroke:#000000;stroke-width:0.6;" x="319.753144" xlink:href="#m1fb9d53bac" y="307.584"/>
      </g>
     </g>
    </g>
    <g id="xtick_21">
     <g id="line2d_41">
      <path clip-path="url(#pb8f88f2e2f)" d="M 333.597471 307.584 
L 333.597471 41.472 
" style="fill:none;stroke:#b0b0b0;stroke-linecap:square;stroke-width:0.8;"/>
     </g>
     <g id="line2d_42">
      <g>
       <use style="stroke:#000000;stroke-width:0.6;" x="333.597471" xlink:href="#m1fb9d53bac" y="307.584"/>
      </g>
     </g>
    </g>
    <g id="xtick_22">
     <g id="line2d_43">
      <path clip-path="url(#pb8f88f2e2f)" d="M 361.286127 307.584 
L 361.286127 41.472 
" style="fill:none;stroke:#b0b0b0;stroke-linecap:square;stroke-width:0.8;"/>
     </g>
     <g id="line2d_44">
      <g>
       <use style="stroke:#000000;stroke-width:0.6;" x="361.286127" xlink:href="#m1fb9d53bac" y="307.584"/>
      </g>
     </g>
    </g>
    <g id="xtick_23">
     <g id="line2d_45">
      <path clip-path="url(#pb8f88f2e2f)" d="M 375.130454 307.584 
L 375.130454 41.472 
" style="fill:none;stroke:#b0b0b0;stroke-linecap:square;stroke-width:0.8;"/>
     </g>
     <g id="line2d_46">
      <g>
       <use style="stroke:#000000;stroke-width:0.6;" x="375.130454" xlink:href="#m1fb9d53bac" y="307.584"/>
      </g>
     </g>
    </g>
    <g id="xtick_24">
     <g id="line2d_47">
      <path clip-path="url(#pb8f88f2e2f)" d="M 388.974782 307.584 
L 388.974782 41.472 
" style="fill:none;stroke:#b0b0b0;stroke-linecap:square;stroke-width:0.8;"/>
     </g>
     <g id="line2d_48">
      <g>
       <use style="stroke:#000000;stroke-width:0.6;" x="388.974782" xlink:href="#m1fb9d53bac" y="307.584"/>
      </g>
     </g>
    </g>
    <g id="xtick_25">
     <g id="line2d_49">
      <path clip-path="url(#pb8f88f2e2f)" d="M 402.819109 307.584 
L 402.819109 41.472 
" style="fill:none;stroke:#b0b0b0;stroke-linecap:square;stroke-width:0.8;"/>
     </g>
     <g id="line2d_50">
      <g>
       <use style="stroke:#000000;stroke-width:0.6;" x="402.819109" xlink:href="#m1fb9d53bac" y="307.584"/>
      </g>
     </g>
    </g>
    <g id="text_6">
     <!-- frame # [] -->
     <defs>
      <path d="M 37.109375 75.984375 
L 37.109375 68.5 
L 28.515625 68.5 
Q 23.6875 68.5 21.796875 66.546875 
Q 19.921875 64.59375 19.921875 59.515625 
L 19.921875 54.6875 
L 34.71875 54.6875 
L 34.71875 47.703125 
L 19.921875 47.703125 
L 19.921875 0 
L 10.890625 0 
L 10.890625 47.703125 
L 2.296875 47.703125 
L 2.296875 54.6875 
L 10.890625 54.6875 
L 10.890625 58.5 
Q 10.890625 67.625 15.140625 71.796875 
Q 19.390625 75.984375 28.609375 75.984375 
z
" id="DejaVuSans-66"/>
      <path d="M 41.109375 46.296875 
Q 39.59375 47.171875 37.8125 47.578125 
Q 36.03125 48 33.890625 48 
Q 26.265625 48 22.1875 43.046875 
Q 18.109375 38.09375 18.109375 28.8125 
L 18.109375 0 
L 9.078125 0 
L 9.078125 54.6875 
L 18.109375 54.6875 
L 18.109375 46.1875 
Q 20.953125 51.171875 25.484375 53.578125 
Q 30.03125 56 36.53125 56 
Q 37.453125 56 38.578125 55.875 
Q 39.703125 55.765625 41.0625 55.515625 
z
" id="DejaVuSans-72"/>
      <path d="M 34.28125 27.484375 
Q 23.390625 27.484375 19.1875 25 
Q 14.984375 22.515625 14.984375 16.5 
Q 14.984375 11.71875 18.140625 8.90625 
Q 21.296875 6.109375 26.703125 6.109375 
Q 34.1875 6.109375 38.703125 11.40625 
Q 43.21875 16.703125 43.21875 25.484375 
L 43.21875 27.484375 
z
M 52.203125 31.203125 
L 52.203125 0 
L 43.21875 0 
L 43.21875 8.296875 
Q 40.140625 3.328125 35.546875 0.953125 
Q 30.953125 -1.421875 24.3125 -1.421875 
Q 15.921875 -1.421875 10.953125 3.296875 
Q 6 8.015625 6 15.921875 
Q 6 25.140625 12.171875 29.828125 
Q 18.359375 34.515625 30.609375 34.515625 
L 43.21875 34.515625 
L 43.21875 35.40625 
Q 43.21875 41.609375 39.140625 45 
Q 35.0625 48.390625 27.6875 48.390625 
Q 23 48.390625 18.546875 47.265625 
Q 14.109375 46.140625 10.015625 43.890625 
L 10.015625 52.203125 
Q 14.9375 54.109375 19.578125 55.046875 
Q 24.21875 56 28.609375 56 
Q 40.484375 56 46.34375 49.84375 
Q 52.203125 43.703125 52.203125 31.203125 
z
" id="DejaVuSans-61"/>
      <path d="M 52 44.1875 
Q 55.375 50.25 60.0625 53.125 
Q 64.75 56 71.09375 56 
Q 79.640625 56 84.28125 50.015625 
Q 88.921875 44.046875 88.921875 33.015625 
L 88.921875 0 
L 79.890625 0 
L 79.890625 32.71875 
Q 79.890625 40.578125 77.09375 44.375 
Q 74.3125 48.1875 68.609375 48.1875 
Q 61.625 48.1875 57.5625 43.546875 
Q 53.515625 38.921875 53.515625 30.90625 
L 53.515625 0 
L 44.484375 0 
L 44.484375 32.71875 
Q 44.484375 40.625 41.703125 44.40625 
Q 38.921875 48.1875 33.109375 48.1875 
Q 26.21875 48.1875 22.15625 43.53125 
Q 18.109375 38.875 18.109375 30.90625 
L 18.109375 0 
L 9.078125 0 
L 9.078125 54.6875 
L 18.109375 54.6875 
L 18.109375 46.1875 
Q 21.1875 51.21875 25.484375 53.609375 
Q 29.78125 56 35.6875 56 
Q 41.65625 56 45.828125 52.96875 
Q 50 49.953125 52 44.1875 
z
" id="DejaVuSans-6d"/>
      <path d="M 56.203125 29.59375 
L 56.203125 25.203125 
L 14.890625 25.203125 
Q 15.484375 15.921875 20.484375 11.0625 
Q 25.484375 6.203125 34.421875 6.203125 
Q 39.59375 6.203125 44.453125 7.46875 
Q 49.3125 8.734375 54.109375 11.28125 
L 54.109375 2.78125 
Q 49.265625 0.734375 44.1875 -0.34375 
Q 39.109375 -1.421875 33.890625 -1.421875 
Q 20.796875 -1.421875 13.15625 6.1875 
Q 5.515625 13.8125 5.515625 26.8125 
Q 5.515625 40.234375 12.765625 48.109375 
Q 20.015625 56 32.328125 56 
Q 43.359375 56 49.78125 48.890625 
Q 56.203125 41.796875 56.203125 29.59375 
z
M 47.21875 32.234375 
Q 47.125 39.59375 43.09375 43.984375 
Q 39.0625 48.390625 32.421875 48.390625 
Q 24.90625 48.390625 20.390625 44.140625 
Q 15.875 39.890625 15.1875 32.171875 
z
" id="DejaVuSans-65"/>
      <path id="DejaVuSans-20"/>
      <path d="M 51.125 44 
L 36.921875 44 
L 32.8125 27.6875 
L 47.125 27.6875 
z
M 43.796875 71.78125 
L 38.71875 51.515625 
L 52.984375 51.515625 
L 58.109375 71.78125 
L 65.921875 71.78125 
L 60.890625 51.515625 
L 76.125 51.515625 
L 76.125 44 
L 58.984375 44 
L 54.984375 27.6875 
L 70.515625 27.6875 
L 70.515625 20.21875 
L 53.078125 20.21875 
L 48 0 
L 40.1875 0 
L 45.21875 20.21875 
L 30.90625 20.21875 
L 25.875 0 
L 18.015625 0 
L 23.09375 20.21875 
L 7.71875 20.21875 
L 7.71875 27.6875 
L 24.90625 27.6875 
L 29 44 
L 13.28125 44 
L 13.28125 51.515625 
L 30.90625 51.515625 
L 35.890625 71.78125 
z
" id="DejaVuSans-23"/>
      <path d="M 8.59375 75.984375 
L 29.296875 75.984375 
L 29.296875 69 
L 17.578125 69 
L 17.578125 -6.203125 
L 29.296875 -6.203125 
L 29.296875 -13.1875 
L 8.59375 -13.1875 
z
" id="DejaVuSans-5b"/>
      <path d="M 30.421875 75.984375 
L 30.421875 -13.1875 
L 9.71875 -13.1875 
L 9.71875 -6.203125 
L 21.390625 -6.203125 
L 21.390625 69 
L 9.71875 69 
L 9.71875 75.984375 
z
" id="DejaVuSans-5d"/>
     </defs>
     <g transform="translate(210.063906 335.860562)scale(0.1 -0.1)">
      <use xlink:href="#DejaVuSans-66"/>
      <use x="35.205078" xlink:href="#DejaVuSans-72"/>
      <use x="76.318359" xlink:href="#DejaVuSans-61"/>
      <use x="137.597656" xlink:href="#DejaVuSans-6d"/>
      <use x="235.009766" xlink:href="#DejaVuSans-65"/>
      <use x="296.533203" xlink:href="#DejaVuSans-20"/>
      <use x="328.320312" xlink:href="#DejaVuSans-23"/>
      <use x="412.109375" xlink:href="#DejaVuSans-20"/>
      <use x="443.896484" xlink:href="#DejaVuSans-5b"/>
      <use x="482.910156" xlink:href="#DejaVuSans-5d"/>
     </g>
    </g>
   </g>
   <g id="matplotlib.axis_2">
    <g id="ytick_1">
     <g id="line2d_51">
      <path clip-path="url(#pb8f88f2e2f)" d="M 57.6 287.617151 
L 414.72 287.617151 
" style="fill:none;stroke:#b0b0b0;stroke-linecap:square;stroke-width:0.8;"/>
     </g>
     <g id="line2d_52">
      <defs>
       <path d="M 0 0 
L -3.5 0 
" id="m08af788512" style="stroke:#000000;stroke-width:0.8;"/>
      </defs>
      <g>
       <use style="stroke:#000000;stroke-width:0.8;" x="57.6" xlink:href="#m08af788512" y="287.617151"/>
      </g>
     </g>
     <g id="text_7">
      <!-- −0.15 -->
      <defs>
       <path d="M 10.59375 35.5 
L 73.1875 35.5 
L 73.1875 27.203125 
L 10.59375 27.203125 
z
" id="DejaVuSans-2212"/>
       <path d="M 10.6875 12.40625 
L 21 12.40625 
L 21 0 
L 10.6875 0 
z
" id="DejaVuSans-2e"/>
       <path d="M 10.796875 72.90625 
L 49.515625 72.90625 
L 49.515625 64.59375 
L 19.828125 64.59375 
L 19.828125 46.734375 
Q 21.96875 47.46875 24.109375 47.828125 
Q 26.265625 48.1875 28.421875 48.1875 
Q 40.625 48.1875 47.75 41.5 
Q 54.890625 34.8125 54.890625 23.390625 
Q 54.890625 11.625 47.5625 5.09375 
Q 40.234375 -1.421875 26.90625 -1.421875 
Q 22.3125 -1.421875 17.546875 -0.640625 
Q 12.796875 0.140625 7.71875 1.703125 
L 7.71875 11.625 
Q 12.109375 9.234375 16.796875 8.0625 
Q 21.484375 6.890625 26.703125 6.890625 
Q 35.15625 6.890625 40.078125 11.328125 
Q 45.015625 15.765625 45.015625 23.390625 
Q 45.015625 31 40.078125 35.4375 
Q 35.15625 39.890625 26.703125 39.890625 
Q 22.75 39.890625 18.8125 39.015625 
Q 14.890625 38.140625 10.796875 36.28125 
z
" id="DejaVuSans-35"/>
      </defs>
      <g transform="translate(19.954687 291.416369)scale(0.1 -0.1)">
       <use xlink:href="#DejaVuSans-2212"/>
       <use x="83.789062" xlink:href="#DejaVuSans-30"/>
       <use x="147.412109" xlink:href="#DejaVuSans-2e"/>
       <use x="179.199219" xlink:href="#DejaVuSans-31"/>
       <use x="242.822266" xlink:href="#DejaVuSans-35"/>
      </g>
     </g>
    </g>
    <g id="ytick_2">
     <g id="line2d_53">
      <path clip-path="url(#pb8f88f2e2f)" d="M 57.6 254.617766 
L 414.72 254.617766 
" style="fill:none;stroke:#b0b0b0;stroke-linecap:square;stroke-width:0.8;"/>
     </g>
     <g id="line2d_54">
      <g>
       <use style="stroke:#000000;stroke-width:0.8;" x="57.6" xlink:href="#m08af788512" y="254.617766"/>
      </g>
     </g>
     <g id="text_8">
      <!-- −0.10 -->
      <g transform="translate(19.954687 258.416985)scale(0.1 -0.1)">
       <use xlink:href="#DejaVuSans-2212"/>
       <use x="83.789062" xlink:href="#DejaVuSans-30"/>
       <use x="147.412109" xlink:href="#DejaVuSans-2e"/>
       <use x="179.199219" xlink:href="#DejaVuSans-31"/>
       <use x="242.822266" xlink:href="#DejaVuSans-30"/>
      </g>
     </g>
    </g>
    <g id="ytick_3">
     <g id="line2d_55">
      <path clip-path="url(#pb8f88f2e2f)" d="M 57.6 221.618381 
L 414.72 221.618381 
" style="fill:none;stroke:#b0b0b0;stroke-linecap:square;stroke-width:0.8;"/>
     </g>
     <g id="line2d_56">
      <g>
       <use style="stroke:#000000;stroke-width:0.8;" x="57.6" xlink:href="#m08af788512" y="221.618381"/>
      </g>
     </g>
     <g id="text_9">
      <!-- −0.05 -->
      <g transform="translate(19.954687 225.4176)scale(0.1 -0.1)">
       <use xlink:href="#DejaVuSans-2212"/>
       <use x="83.789062" xlink:href="#DejaVuSans-30"/>
       <use x="147.412109" xlink:href="#DejaVuSans-2e"/>
       <use x="179.199219" xlink:href="#DejaVuSans-30"/>
       <use x="242.822266" xlink:href="#DejaVuSans-35"/>
      </g>
     </g>
    </g>
    <g id="ytick_4">
     <g id="line2d_57">
      <path clip-path="url(#pb8f88f2e2f)" d="M 57.6 188.618996 
L 414.72 188.618996 
" style="fill:none;stroke:#b0b0b0;stroke-linecap:square;stroke-width:0.8;"/>
     </g>
     <g id="line2d_58">
      <g>
       <use style="stroke:#000000;stroke-width:0.8;" x="57.6" xlink:href="#m08af788512" y="188.618996"/>
      </g>
     </g>
     <g id="text_10">
      <!-- 0.00 -->
      <g transform="translate(28.334375 192.418215)scale(0.1 -0.1)">
       <use xlink:href="#DejaVuSans-30"/>
       <use x="63.623047" xlink:href="#DejaVuSans-2e"/>
       <use x="95.410156" xlink:href="#DejaVuSans-30"/>
       <use x="159.033203" xlink:href="#DejaVuSans-30"/>
      </g>
     </g>
    </g>
    <g id="ytick_5">
     <g id="line2d_59">
      <path clip-path="url(#pb8f88f2e2f)" d="M 57.6 155.619611 
L 414.72 155.619611 
" style="fill:none;stroke:#b0b0b0;stroke-linecap:square;stroke-width:0.8;"/>
     </g>
     <g id="line2d_60">
      <g>
       <use style="stroke:#000000;stroke-width:0.8;" x="57.6" xlink:href="#m08af788512" y="155.619611"/>
      </g>
     </g>
     <g id="text_11">
      <!-- 0.05 -->
      <g transform="translate(28.334375 159.41883)scale(0.1 -0.1)">
       <use xlink:href="#DejaVuSans-30"/>
       <use x="63.623047" xlink:href="#DejaVuSans-2e"/>
       <use x="95.410156" xlink:href="#DejaVuSans-30"/>
       <use x="159.033203" xlink:href="#DejaVuSans-35"/>
      </g>
     </g>
    </g>
    <g id="ytick_6">
     <g id="line2d_61">
      <path clip-path="url(#pb8f88f2e2f)" d="M 57.6 122.620227 
L 414.72 122.620227 
" style="fill:none;stroke:#b0b0b0;stroke-linecap:square;stroke-width:0.8;"/>
     </g>
     <g id="line2d_62">
      <g>
       <use style="stroke:#000000;stroke-width:0.8;" x="57.6" xlink:href="#m08af788512" y="122.620227"/>
      </g>
     </g>
     <g id="text_12">
      <!-- 0.10 -->
      <g transform="translate(28.334375 126.419445)scale(0.1 -0.1)">
       <use xlink:href="#DejaVuSans-30"/>
       <use x="63.623047" xlink:href="#DejaVuSans-2e"/>
       <use x="95.410156" xlink:href="#DejaVuSans-31"/>
       <use x="159.033203" xlink:href="#DejaVuSans-30"/>
      </g>
     </g>
    </g>
    <g id="ytick_7">
     <g id="line2d_63">
      <path clip-path="url(#pb8f88f2e2f)" d="M 57.6 89.620842 
L 414.72 89.620842 
" style="fill:none;stroke:#b0b0b0;stroke-linecap:square;stroke-width:0.8;"/>
     </g>
     <g id="line2d_64">
      <g>
       <use style="stroke:#000000;stroke-width:0.8;" x="57.6" xlink:href="#m08af788512" y="89.620842"/>
      </g>
     </g>
     <g id="text_13">
      <!-- 0.15 -->
      <g transform="translate(28.334375 93.42006)scale(0.1 -0.1)">
       <use xlink:href="#DejaVuSans-30"/>
       <use x="63.623047" xlink:href="#DejaVuSans-2e"/>
       <use x="95.410156" xlink:href="#DejaVuSans-31"/>
       <use x="159.033203" xlink:href="#DejaVuSans-35"/>
      </g>
     </g>
    </g>
    <g id="ytick_8">
     <g id="line2d_65">
      <path clip-path="url(#pb8f88f2e2f)" d="M 57.6 56.621457 
L 414.72 56.621457 
" style="fill:none;stroke:#b0b0b0;stroke-linecap:square;stroke-width:0.8;"/>
     </g>
     <g id="line2d_66">
      <g>
       <use style="stroke:#000000;stroke-width:0.8;" x="57.6" xlink:href="#m08af788512" y="56.621457"/>
      </g>
     </g>
     <g id="text_14">
      <!-- 0.20 -->
      <g transform="translate(28.334375 60.420676)scale(0.1 -0.1)">
       <use xlink:href="#DejaVuSans-30"/>
       <use x="63.623047" xlink:href="#DejaVuSans-2e"/>
       <use x="95.410156" xlink:href="#DejaVuSans-32"/>
       <use x="159.033203" xlink:href="#DejaVuSans-30"/>
      </g>
     </g>
    </g>
    <g id="ytick_9">
     <g id="line2d_67">
      <path clip-path="url(#pb8f88f2e2f)" d="M 57.6 307.416781 
L 414.72 307.416781 
" style="fill:none;stroke:#b0b0b0;stroke-linecap:square;stroke-width:0.8;"/>
     </g>
     <g id="line2d_68">
      <defs>
       <path d="M 0 0 
L -2 0 
" id="m353898e38d" style="stroke:#000000;stroke-width:0.6;"/>
      </defs>
      <g>
       <use style="stroke:#000000;stroke-width:0.6;" x="57.6" xlink:href="#m353898e38d" y="307.416781"/>
      </g>
     </g>
    </g>
    <g id="ytick_10">
     <g id="line2d_69">
      <path clip-path="url(#pb8f88f2e2f)" d="M 57.6 300.816905 
L 414.72 300.816905 
" style="fill:none;stroke:#b0b0b0;stroke-linecap:square;stroke-width:0.8;"/>
     </g>
     <g id="line2d_70">
      <g>
       <use style="stroke:#000000;stroke-width:0.6;" x="57.6" xlink:href="#m353898e38d" y="300.816905"/>
      </g>
     </g>
    </g>
    <g id="ytick_11">
     <g id="line2d_71">
      <path clip-path="url(#pb8f88f2e2f)" d="M 57.6 294.217028 
L 414.72 294.217028 
" style="fill:none;stroke:#b0b0b0;stroke-linecap:square;stroke-width:0.8;"/>
     </g>
     <g id="line2d_72">
      <g>
       <use style="stroke:#000000;stroke-width:0.6;" x="57.6" xlink:href="#m353898e38d" y="294.217028"/>
      </g>
     </g>
    </g>
    <g id="ytick_12">
     <g id="line2d_73">
      <path clip-path="url(#pb8f88f2e2f)" d="M 57.6 281.017274 
L 414.72 281.017274 
" style="fill:none;stroke:#b0b0b0;stroke-linecap:square;stroke-width:0.8;"/>
     </g>
     <g id="line2d_74">
      <g>
       <use style="stroke:#000000;stroke-width:0.6;" x="57.6" xlink:href="#m353898e38d" y="281.017274"/>
      </g>
     </g>
    </g>
    <g id="ytick_13">
     <g id="line2d_75">
      <path clip-path="url(#pb8f88f2e2f)" d="M 57.6 274.417397 
L 414.72 274.417397 
" style="fill:none;stroke:#b0b0b0;stroke-linecap:square;stroke-width:0.8;"/>
     </g>
     <g id="line2d_76">
      <g>
       <use style="stroke:#000000;stroke-width:0.6;" x="57.6" xlink:href="#m353898e38d" y="274.417397"/>
      </g>
     </g>
    </g>
    <g id="ytick_14">
     <g id="line2d_77">
      <path clip-path="url(#pb8f88f2e2f)" d="M 57.6 267.81752 
L 414.72 267.81752 
" style="fill:none;stroke:#b0b0b0;stroke-linecap:square;stroke-width:0.8;"/>
     </g>
     <g id="line2d_78">
      <g>
       <use style="stroke:#000000;stroke-width:0.6;" x="57.6" xlink:href="#m353898e38d" y="267.81752"/>
      </g>
     </g>
    </g>
    <g id="ytick_15">
     <g id="line2d_79">
      <path clip-path="url(#pb8f88f2e2f)" d="M 57.6 261.217643 
L 414.72 261.217643 
" style="fill:none;stroke:#b0b0b0;stroke-linecap:square;stroke-width:0.8;"/>
     </g>
     <g id="line2d_80">
      <g>
       <use style="stroke:#000000;stroke-width:0.6;" x="57.6" xlink:href="#m353898e38d" y="261.217643"/>
      </g>
     </g>
    </g>
    <g id="ytick_16">
     <g id="line2d_81">
      <path clip-path="url(#pb8f88f2e2f)" d="M 57.6 248.017889 
L 414.72 248.017889 
" style="fill:none;stroke:#b0b0b0;stroke-linecap:square;stroke-width:0.8;"/>
     </g>
     <g id="line2d_82">
      <g>
       <use style="stroke:#000000;stroke-width:0.6;" x="57.6" xlink:href="#m353898e38d" y="248.017889"/>
      </g>
     </g>
    </g>
    <g id="ytick_17">
     <g id="line2d_83">
      <path clip-path="url(#pb8f88f2e2f)" d="M 57.6 241.418012 
L 414.72 241.418012 
" style="fill:none;stroke:#b0b0b0;stroke-linecap:square;stroke-width:0.8;"/>
     </g>
     <g id="line2d_84">
      <g>
       <use style="stroke:#000000;stroke-width:0.6;" x="57.6" xlink:href="#m353898e38d" y="241.418012"/>
      </g>
     </g>
    </g>
    <g id="ytick_18">
     <g id="line2d_85">
      <path clip-path="url(#pb8f88f2e2f)" d="M 57.6 234.818135 
L 414.72 234.818135 
" style="fill:none;stroke:#b0b0b0;stroke-linecap:square;stroke-width:0.8;"/>
     </g>
     <g id="line2d_86">
      <g>
       <use style="stroke:#000000;stroke-width:0.6;" x="57.6" xlink:href="#m353898e38d" y="234.818135"/>
      </g>
     </g>
    </g>
    <g id="ytick_19">
     <g id="line2d_87">
      <path clip-path="url(#pb8f88f2e2f)" d="M 57.6 228.218258 
L 414.72 228.218258 
" style="fill:none;stroke:#b0b0b0;stroke-linecap:square;stroke-width:0.8;"/>
     </g>
     <g id="line2d_88">
      <g>
       <use style="stroke:#000000;stroke-width:0.6;" x="57.6" xlink:href="#m353898e38d" y="228.218258"/>
      </g>
     </g>
    </g>
    <g id="ytick_20">
     <g id="line2d_89">
      <path clip-path="url(#pb8f88f2e2f)" d="M 57.6 215.018504 
L 414.72 215.018504 
" style="fill:none;stroke:#b0b0b0;stroke-linecap:square;stroke-width:0.8;"/>
     </g>
     <g id="line2d_90">
      <g>
       <use style="stroke:#000000;stroke-width:0.6;" x="57.6" xlink:href="#m353898e38d" y="215.018504"/>
      </g>
     </g>
    </g>
    <g id="ytick_21">
     <g id="line2d_91">
      <path clip-path="url(#pb8f88f2e2f)" d="M 57.6 208.418627 
L 414.72 208.418627 
" style="fill:none;stroke:#b0b0b0;stroke-linecap:square;stroke-width:0.8;"/>
     </g>
     <g id="line2d_92">
      <g>
       <use style="stroke:#000000;stroke-width:0.6;" x="57.6" xlink:href="#m353898e38d" y="208.418627"/>
      </g>
     </g>
    </g>
    <g id="ytick_22">
     <g id="line2d_93">
      <path clip-path="url(#pb8f88f2e2f)" d="M 57.6 201.81875 
L 414.72 201.81875 
" style="fill:none;stroke:#b0b0b0;stroke-linecap:square;stroke-width:0.8;"/>
     </g>
     <g id="line2d_94">
      <g>
       <use style="stroke:#000000;stroke-width:0.6;" x="57.6" xlink:href="#m353898e38d" y="201.81875"/>
      </g>
     </g>
    </g>
    <g id="ytick_23">
     <g id="line2d_95">
      <path clip-path="url(#pb8f88f2e2f)" d="M 57.6 195.218873 
L 414.72 195.218873 
" style="fill:none;stroke:#b0b0b0;stroke-linecap:square;stroke-width:0.8;"/>
     </g>
     <g id="line2d_96">
      <g>
       <use style="stroke:#000000;stroke-width:0.6;" x="57.6" xlink:href="#m353898e38d" y="195.218873"/>
      </g>
     </g>
    </g>
    <g id="ytick_24">
     <g id="line2d_97">
      <path clip-path="url(#pb8f88f2e2f)" d="M 57.6 182.019119 
L 414.72 182.019119 
" style="fill:none;stroke:#b0b0b0;stroke-linecap:square;stroke-width:0.8;"/>
     </g>
     <g id="line2d_98">
      <g>
       <use style="stroke:#000000;stroke-width:0.6;" x="57.6" xlink:href="#m353898e38d" y="182.019119"/>
      </g>
     </g>
    </g>
    <g id="ytick_25">
     <g id="line2d_99">
      <path clip-path="url(#pb8f88f2e2f)" d="M 57.6 175.419242 
L 414.72 175.419242 
" style="fill:none;stroke:#b0b0b0;stroke-linecap:square;stroke-width:0.8;"/>
     </g>
     <g id="line2d_100">
      <g>
       <use style="stroke:#000000;stroke-width:0.6;" x="57.6" xlink:href="#m353898e38d" y="175.419242"/>
      </g>
     </g>
    </g>
    <g id="ytick_26">
     <g id="line2d_101">
      <path clip-path="url(#pb8f88f2e2f)" d="M 57.6 168.819365 
L 414.72 168.819365 
" style="fill:none;stroke:#b0b0b0;stroke-linecap:square;stroke-width:0.8;"/>
     </g>
     <g id="line2d_102">
      <g>
       <use style="stroke:#000000;stroke-width:0.6;" x="57.6" xlink:href="#m353898e38d" y="168.819365"/>
      </g>
     </g>
    </g>
    <g id="ytick_27">
     <g id="line2d_103">
      <path clip-path="url(#pb8f88f2e2f)" d="M 57.6 162.219488 
L 414.72 162.219488 
" style="fill:none;stroke:#b0b0b0;stroke-linecap:square;stroke-width:0.8;"/>
     </g>
     <g id="line2d_104">
      <g>
       <use style="stroke:#000000;stroke-width:0.6;" x="57.6" xlink:href="#m353898e38d" y="162.219488"/>
      </g>
     </g>
    </g>
    <g id="ytick_28">
     <g id="line2d_105">
      <path clip-path="url(#pb8f88f2e2f)" d="M 57.6 149.019734 
L 414.72 149.019734 
" style="fill:none;stroke:#b0b0b0;stroke-linecap:square;stroke-width:0.8;"/>
     </g>
     <g id="line2d_106">
      <g>
       <use style="stroke:#000000;stroke-width:0.6;" x="57.6" xlink:href="#m353898e38d" y="149.019734"/>
      </g>
     </g>
    </g>
    <g id="ytick_29">
     <g id="line2d_107">
      <path clip-path="url(#pb8f88f2e2f)" d="M 57.6 142.419857 
L 414.72 142.419857 
" style="fill:none;stroke:#b0b0b0;stroke-linecap:square;stroke-width:0.8;"/>
     </g>
     <g id="line2d_108">
      <g>
       <use style="stroke:#000000;stroke-width:0.6;" x="57.6" xlink:href="#m353898e38d" y="142.419857"/>
      </g>
     </g>
    </g>
    <g id="ytick_30">
     <g id="line2d_109">
      <path clip-path="url(#pb8f88f2e2f)" d="M 57.6 135.81998 
L 414.72 135.81998 
" style="fill:none;stroke:#b0b0b0;stroke-linecap:square;stroke-width:0.8;"/>
     </g>
     <g id="line2d_110">
      <g>
       <use style="stroke:#000000;stroke-width:0.6;" x="57.6" xlink:href="#m353898e38d" y="135.81998"/>
      </g>
     </g>
    </g>
    <g id="ytick_31">
     <g id="line2d_111">
      <path clip-path="url(#pb8f88f2e2f)" d="M 57.6 129.220103 
L 414.72 129.220103 
" style="fill:none;stroke:#b0b0b0;stroke-linecap:square;stroke-width:0.8;"/>
     </g>
     <g id="line2d_112">
      <g>
       <use style="stroke:#000000;stroke-width:0.6;" x="57.6" xlink:href="#m353898e38d" y="129.220103"/>
      </g>
     </g>
    </g>
    <g id="ytick_32">
     <g id="line2d_113">
      <path clip-path="url(#pb8f88f2e2f)" d="M 57.6 116.02035 
L 414.72 116.02035 
" style="fill:none;stroke:#b0b0b0;stroke-linecap:square;stroke-width:0.8;"/>
     </g>
     <g id="line2d_114">
      <g>
       <use style="stroke:#000000;stroke-width:0.6;" x="57.6" xlink:href="#m353898e38d" y="116.02035"/>
      </g>
     </g>
    </g>
    <g id="ytick_33">
     <g id="line2d_115">
      <path clip-path="url(#pb8f88f2e2f)" d="M 57.6 109.420473 
L 414.72 109.420473 
" style="fill:none;stroke:#b0b0b0;stroke-linecap:square;stroke-width:0.8;"/>
     </g>
     <g id="line2d_116">
      <g>
       <use style="stroke:#000000;stroke-width:0.6;" x="57.6" xlink:href="#m353898e38d" y="109.420473"/>
      </g>
     </g>
    </g>
    <g id="ytick_34">
     <g id="line2d_117">
      <path clip-path="url(#pb8f88f2e2f)" d="M 57.6 102.820596 
L 414.72 102.820596 
" style="fill:none;stroke:#b0b0b0;stroke-linecap:square;stroke-width:0.8;"/>
     </g>
     <g id="line2d_118">
      <g>
       <use style="stroke:#000000;stroke-width:0.6;" x="57.6" xlink:href="#m353898e38d" y="102.820596"/>
      </g>
     </g>
    </g>
    <g id="ytick_35">
     <g id="line2d_119">
      <path clip-path="url(#pb8f88f2e2f)" d="M 57.6 96.220719 
L 414.72 96.220719 
" style="fill:none;stroke:#b0b0b0;stroke-linecap:square;stroke-width:0.8;"/>
     </g>
     <g id="line2d_120">
      <g>
       <use style="stroke:#000000;stroke-width:0.6;" x="57.6" xlink:href="#m353898e38d" y="96.220719"/>
      </g>
     </g>
    </g>
    <g id="ytick_36">
     <g id="line2d_121">
      <path clip-path="url(#pb8f88f2e2f)" d="M 57.6 83.020965 
L 414.72 83.020965 
" style="fill:none;stroke:#b0b0b0;stroke-linecap:square;stroke-width:0.8;"/>
     </g>
     <g id="line2d_122">
      <g>
       <use style="stroke:#000000;stroke-width:0.6;" x="57.6" xlink:href="#m353898e38d" y="83.020965"/>
      </g>
     </g>
    </g>
    <g id="ytick_37">
     <g id="line2d_123">
      <path clip-path="url(#pb8f88f2e2f)" d="M 57.6 76.421088 
L 414.72 76.421088 
" style="fill:none;stroke:#b0b0b0;stroke-linecap:square;stroke-width:0.8;"/>
     </g>
     <g id="line2d_124">
      <g>
       <use style="stroke:#000000;stroke-width:0.6;" x="57.6" xlink:href="#m353898e38d" y="76.421088"/>
      </g>
     </g>
    </g>
    <g id="ytick_38">
     <g id="line2d_125">
      <path clip-path="url(#pb8f88f2e2f)" d="M 57.6 69.821211 
L 414.72 69.821211 
" style="fill:none;stroke:#b0b0b0;stroke-linecap:square;stroke-width:0.8;"/>
     </g>
     <g id="line2d_126">
      <g>
       <use style="stroke:#000000;stroke-width:0.6;" x="57.6" xlink:href="#m353898e38d" y="69.821211"/>
      </g>
     </g>
    </g>
    <g id="ytick_39">
     <g id="line2d_127">
      <path clip-path="url(#pb8f88f2e2f)" d="M 57.6 63.221334 
L 414.72 63.221334 
" style="fill:none;stroke:#b0b0b0;stroke-linecap:square;stroke-width:0.8;"/>
     </g>
     <g id="line2d_128">
      <g>
       <use style="stroke:#000000;stroke-width:0.6;" x="57.6" xlink:href="#m353898e38d" y="63.221334"/>
      </g>
     </g>
    </g>
    <g id="ytick_40">
     <g id="line2d_129">
      <path clip-path="url(#pb8f88f2e2f)" d="M 57.6 50.02158 
L 414.72 50.02158 
" style="fill:none;stroke:#b0b0b0;stroke-linecap:square;stroke-width:0.8;"/>
     </g>
     <g id="line2d_130">
      <g>
       <use style="stroke:#000000;stroke-width:0.6;" x="57.6" xlink:href="#m353898e38d" y="50.02158"/>
      </g>
     </g>
    </g>
    <g id="ytick_41">
     <g id="line2d_131">
      <path clip-path="url(#pb8f88f2e2f)" d="M 57.6 43.421703 
L 414.72 43.421703 
" style="fill:none;stroke:#b0b0b0;stroke-linecap:square;stroke-width:0.8;"/>
     </g>
     <g id="line2d_132">
      <g>
       <use style="stroke:#000000;stroke-width:0.6;" x="57.6" xlink:href="#m353898e38d" y="43.421703"/>
      </g>
     </g>
    </g>
    <g id="text_15">
     <!-- trans x -->
     <defs>
      <path d="M 18.3125 70.21875 
L 18.3125 54.6875 
L 36.8125 54.6875 
L 36.8125 47.703125 
L 18.3125 47.703125 
L 18.3125 18.015625 
Q 18.3125 11.328125 20.140625 9.421875 
Q 21.96875 7.515625 27.59375 7.515625 
L 36.8125 7.515625 
L 36.8125 0 
L 27.59375 0 
Q 17.1875 0 13.234375 3.875 
Q 9.28125 7.765625 9.28125 18.015625 
L 9.28125 47.703125 
L 2.6875 47.703125 
L 2.6875 54.6875 
L 9.28125 54.6875 
L 9.28125 70.21875 
z
" id="DejaVuSans-74"/>
      <path d="M 54.890625 33.015625 
L 54.890625 0 
L 45.90625 0 
L 45.90625 32.71875 
Q 45.90625 40.484375 42.875 44.328125 
Q 39.84375 48.1875 33.796875 48.1875 
Q 26.515625 48.1875 22.3125 43.546875 
Q 18.109375 38.921875 18.109375 30.90625 
L 18.109375 0 
L 9.078125 0 
L 9.078125 54.6875 
L 18.109375 54.6875 
L 18.109375 46.1875 
Q 21.34375 51.125 25.703125 53.5625 
Q 30.078125 56 35.796875 56 
Q 45.21875 56 50.046875 50.171875 
Q 54.890625 44.34375 54.890625 33.015625 
z
" id="DejaVuSans-6e"/>
      <path d="M 44.28125 53.078125 
L 44.28125 44.578125 
Q 40.484375 46.53125 36.375 47.5 
Q 32.28125 48.484375 27.875 48.484375 
Q 21.1875 48.484375 17.84375 46.4375 
Q 14.5 44.390625 14.5 40.28125 
Q 14.5 37.15625 16.890625 35.375 
Q 19.28125 33.59375 26.515625 31.984375 
L 29.59375 31.296875 
Q 39.15625 29.25 43.1875 25.515625 
Q 47.21875 21.78125 47.21875 15.09375 
Q 47.21875 7.46875 41.1875 3.015625 
Q 35.15625 -1.421875 24.609375 -1.421875 
Q 20.21875 -1.421875 15.453125 -0.5625 
Q 10.6875 0.296875 5.421875 2 
L 5.421875 11.28125 
Q 10.40625 8.6875 15.234375 7.390625 
Q 20.0625 6.109375 24.8125 6.109375 
Q 31.15625 6.109375 34.5625 8.28125 
Q 37.984375 10.453125 37.984375 14.40625 
Q 37.984375 18.0625 35.515625 20.015625 
Q 33.0625 21.96875 24.703125 23.78125 
L 21.578125 24.515625 
Q 13.234375 26.265625 9.515625 29.90625 
Q 5.8125 33.546875 5.8125 39.890625 
Q 5.8125 47.609375 11.28125 51.796875 
Q 16.75 56 26.8125 56 
Q 31.78125 56 36.171875 55.265625 
Q 40.578125 54.546875 44.28125 53.078125 
z
" id="DejaVuSans-73"/>
      <path d="M 54.890625 54.6875 
L 35.109375 28.078125 
L 55.90625 0 
L 45.3125 0 
L 29.390625 21.484375 
L 13.484375 0 
L 2.875 0 
L 24.125 28.609375 
L 4.6875 54.6875 
L 15.28125 54.6875 
L 29.78125 35.203125 
L 44.28125 54.6875 
z
" id="DejaVuSans-78"/>
     </defs>
     <g transform="translate(13.875 191.929563)rotate(-90)scale(0.1 -0.1)">
      <use xlink:href="#DejaVuSans-74"/>
      <use x="39.208984" xlink:href="#DejaVuSans-72"/>
      <use x="80.322266" xlink:href="#DejaVuSans-61"/>
      <use x="141.601562" xlink:href="#DejaVuSans-6e"/>
      <use x="204.980469" xlink:href="#DejaVuSans-73"/>
      <use x="257.080078" xlink:href="#DejaVuSans-20"/>
      <use x="288.867188" xlink:href="#DejaVuSans-78"/>
     </g>
    </g>
   </g>
   <g id="line2d_133">
    <path clip-path="url(#pb8f88f2e2f)" d="M 73.832727 169.075024 
L 74.524971 162.709456 
L 75.217208 164.420663 
L 76.598517 160.147061 
L 77.290754 153.374779 
L 77.982991 153.414722 
L 78.6751 155.28247 
L 79.367337 148.759136 
L 80.059581 145.223995 
L 80.751818 149.040621 
L 82.138725 147.888026 
L 82.830962 143.782933 
L 83.523199 144.726977 
L 84.216653 145.377855 
L 84.908883 148.911497 
L 85.601147 142.937234 
L 86.293364 138.082064 
L 86.985656 137.381266 
L 87.675135 135.852874 
L 88.367373 137.000538 
L 89.05961 128.814328 
L 89.751847 131.892431 
L 90.441987 154.049424 
L 91.13423 131.313509 
L 91.826467 133.912763 
L 93.209773 112.538457 
L 93.902011 94.694006 
L 94.594254 86.434052 
L 95.286491 83.279118 
L 95.979336 91.539102 
L 98.056056 153.077274 
L 98.749362 179.387651 
L 99.44205 212.054152 
L 100.133837 225.540329 
L 100.826074 222.760896 
L 101.516997 204.778386 
L 102.209241 195.247939 
L 102.901478 189.304306 
L 104.284797 155.326072 
L 104.977035 126.17939 
L 105.669272 103.341642 
L 106.361509 90.18153 
L 107.05535 97.733012 
L 107.747587 98.796064 
L 108.439825 131.276427 
L 109.132062 171.000677 
L 109.824962 217.933421 
L 111.901674 269.235843 
L 112.593675 269.835648 
L 113.285912 261.548763 
L 113.978149 259.242308 
L 114.670387 258.988872 
L 115.361972 266.103124 
L 116.054209 265.064465 
L 116.746446 277.31366 
L 117.438683 277.881347 
L 118.130907 270.280044 
L 118.823151 276.296839 
L 119.515395 269.712753 
L 120.207625 254.626465 
L 120.899869 231.917545 
L 121.594579 213.346698 
L 122.286816 171.140272 
L 122.97906 155.666039 
L 123.67129 157.831197 
L 124.363909 196.194914 
L 125.056146 166.39983 
L 125.748383 190.144107 
L 126.44062 233.566879 
L 127.129632 265.444035 
L 127.82187 278.465989 
L 129.206344 294.170654 
L 129.89967 285.973228 
L 130.591908 269.000078 
L 132.670814 178.75513 
L 133.363058 158.750428 
L 134.055295 156.626125 
L 134.747532 151.090855 
L 135.437802 170.13069 
L 136.130039 174.536461 
L 136.822277 180.915304 
L 137.514514 183.644405 
L 138.896947 212.593653 
L 139.589184 221.763514 
L 140.281421 234.329764 
L 140.976101 232.534846 
L 141.668336 219.140396 
L 142.360573 193.647247 
L 143.05281 173.672058 
L 144.436993 112.513781 
L 145.129236 108.113865 
L 145.821474 98.450829 
L 146.511257 102.727743 
L 147.203494 104.219879 
L 147.895731 98.472558 
L 148.588378 95.914387 
L 149.281455 92.500829 
L 149.973692 87.46612 
L 150.665929 140.240612 
L 151.358166 109.723214 
L 152.05041 165.989153 
L 154.128206 217.890214 
L 154.820443 223.85596 
L 155.510224 223.49119 
L 156.20247 229.271918 
L 156.894699 240.433944 
L 157.586944 222.451138 
L 158.279343 228.138773 
L 158.97158 244.057538 
L 159.663852 236.514621 
L 160.356055 200.988806 
L 161.051271 191.668946 
L 162.435745 144.963006 
L 163.127989 124.668008 
L 163.818557 112.706686 
L 164.510795 108.953018 
L 165.203032 109.208923 
L 165.895269 107.24549 
L 166.586145 107.618115 
L 167.278382 90.85626 
L 167.970626 87.750343 
L 168.662863 80.686337 
L 169.356457 82.380987 
L 170.048694 92.368017 
L 170.740931 108.416314 
L 172.125831 156.280458 
L 172.818048 188.513523 
L 173.510286 207.981235 
L 174.202529 214.454211 
L 174.892987 216.382626 
L 175.585225 227.699649 
L 176.277462 235.196294 
L 176.969699 232.471863 
L 177.662487 233.641171 
L 179.046962 226.368217 
L 179.739205 222.012191 
L 181.126297 173.911159 
L 181.818534 163.129935 
L 182.510778 141.049205 
L 183.200632 137.669974 
L 183.892876 119.318897 
L 184.585113 111.848729 
L 185.2776 115.83436 
L 185.969588 106.737392 
L 186.661455 109.235949 
L 187.353692 120.364332 
L 188.045929 139.214546 
L 188.738167 168.706239 
M 191.509762 263.215829 
L 192.199235 261.138619 
L 193.583718 275.025855 
L 194.275953 291.417088 
L 194.967935 295.044987 
L 195.660172 295.488 
L 196.352409 291.808884 
L 197.044646 284.732618 
L 197.738917 269.924761 
L 200.508823 162.765659 
L 201.20106 163.429969 
L 201.893304 152.261988 
L 202.585541 175.505262 
L 203.275538 180.696052 
L 203.967776 200.846531 
L 204.660013 260.639302 
L 205.35225 268.718139 
L 206.044672 278.3032 
L 206.736909 280.346718 
L 207.429146 270.173509 
L 208.121383 252.405279 
L 208.815873 212.339641 
L 209.50811 197.574032 
L 210.200348 166.211391 
L 211.583861 135.837575 
L 212.276099 115.42192 
L 212.968342 112.976352 
L 213.66058 102.052768 
L 214.351919 71.243474 
L 215.044156 53.568 
L 215.736393 56.751528 
L 216.428631 72.696901 
L 217.120874 96.756802 
L 217.814995 133.705611 
L 218.507232 180.825924 
L 219.891706 251.63622 
L 220.58497 266.234309 
L 221.277214 276.212723 
L 221.969824 278.335319 
L 223.354881 254.327852 
L 224.047124 226.07272 
L 225.431599 152.657393 
L 226.815566 93.067255 
L 227.507804 70.419922 
L 228.200041 67.04831 
L 228.892598 81.29459 
L 229.584835 105.163152 
L 230.277072 135.356045 
L 231.661953 184.297674 
L 232.35419 217.670687 
L 233.046427 215.446758 
L 233.738664 230.481198 
L 234.434318 237.323817 
L 235.126562 242.56603 
L 235.818799 237.864305 
L 236.511036 229.620153 
L 237.205725 219.503277 
L 237.897963 205.129087 
L 238.5902 201.043969 
L 239.282437 200.074975 
L 239.966295 187.017498 
L 240.658539 220.20266 
L 241.350776 235.081198 
L 242.735331 279.704487 
L 243.427569 285.248958 
L 244.119806 292.035334 
L 245.504977 247.330333 
L 246.197214 238.359944 
L 246.889449 213.663979 
L 247.581686 193.535776 
L 248.274878 180.691314 
L 248.967115 163.542962 
L 249.659352 153.053289 
L 250.351589 150.156697 
L 251.043826 150.531022 
L 251.736771 150.151579 
L 253.121246 187.774342 
L 253.81349 222.492549 
L 254.500718 200.362425 
L 255.192947 239.71729 
L 255.885192 249.236161 
L 257.269926 275.314618 
L 257.962163 281.434231 
L 258.6544 288.555443 
L 259.346637 286.325219 
L 260.040695 276.745642 
L 264.193784 160.722805 
L 264.886021 138.802976 
L 265.576308 130.916454 
L 266.268553 121.30212 
L 266.960791 108.216502 
L 267.653028 103.206867 
L 268.344813 102.791697 
L 269.03705 93.465157 
L 269.729287 106.698126 
L 270.421524 112.008869 
M 271.808522 132.703278 
L 272.500759 181.587174 
L 273.192996 179.026262 
L 273.886626 180.748033 
L 274.578864 176.305047 
M 279.422083 200.548173 
L 280.11432 157.722858 
L 280.806557 152.338887 
M 282.885262 161.60182 
L 284.269143 148.852391 
M 291.190092 201.889344 
L 291.882329 165.924856 
L 292.574566 140.722477 
M 296.037925 209.437362 
L 296.728311 230.063224 
L 297.420548 245.624815 
L 298.112785 226.875221 
L 298.805022 244.065782 
L 299.500625 237.728722 
L 300.192862 216.932107 
M 305.72952 235.118548 
L 306.421757 252.091627 
L 307.114493 219.169616 
L 307.804746 226.924655 
L 308.496983 180.226128 
L 309.18922 223.997778 
L 309.881458 218.725855 
M 314.727973 224.069579 
L 315.42021 253.647938 
L 316.112447 251.966902 
L 316.803859 240.376693 
L 317.496096 214.00567 
L 318.188333 231.945535 
L 318.880571 229.069456 
L 320.268821 169.297538 
L 320.961058 153.122215 
L 321.653295 132.667048 
L 323.034614 104.970254 
L 323.726858 105.092936 
L 324.419095 112.999336 
L 325.112821 129.945989 
L 325.805058 158.462061 
L 326.497302 175.132199 
M 327.884744 179.850852 
L 328.576974 169.838588 
L 329.269218 152.482951 
L 329.961455 128.121617 
L 330.653469 124.896874 
L 331.346218 125.40037 
L 332.730181 128.289626 
L 334.114875 146.752319 
L 334.807119 160.821476 
M 337.575094 184.329597 
L 338.267337 154.39417 
L 338.959426 186.72369 
L 339.651661 151.001874 
L 340.343899 162.846522 
L 341.036136 172.119357 
L 341.726718 203.582625 
L 342.418955 217.789179 
L 343.111192 217.189826 
L 343.803429 240.461818 
L 344.492933 228.663511 
L 345.18517 240.480437 
L 345.877414 216.835689 
L 346.569651 207.944094 
M 347.953989 174.133649 
L 348.646226 209.34841 
M 351.414505 228.897802 
L 352.106742 234.902881 
L 352.798979 244.773677 
L 353.491776 249.72817 
L 354.184019 236.691048 
L 354.87625 246.04379 
L 355.569124 237.985845 
L 356.26317 208.878975 
L 356.955416 227.602802 
L 359.029714 180.757453 
L 359.721951 185.392323 
M 361.106426 192.54759 
L 361.799274 172.099447 
L 363.183748 193.103292 
L 363.875985 209.738251 
L 364.568397 217.84244 
L 365.260626 234.13211 
M 366.6451 206.727214 
L 367.338052 168.062968 
L 368.030296 188.669535 
L 368.722533 165.363255 
L 369.41477 148.045582 
L 370.107983 159.258736 
L 370.80022 156.482373 
L 371.492457 138.793728 
L 372.184694 151.125654 
L 372.877912 158.840268 
L 373.570157 163.968728 
L 374.262395 170.711902 
L 374.95463 163.884676 
M 376.34006 142.614377 
L 377.032291 146.798393 
L 377.724534 146.617549 
M 380.492239 131.100782 
L 381.184476 134.807116 
L 381.876099 152.572606 
L 382.568336 160.218441 
L 383.260573 178.15485 
L 383.952811 179.687092 
L 384.644637 182.129116 
L 385.336874 179.782743 
L 386.029111 191.540296 
L 386.721348 187.17526 
L 387.412183 196.278533 
L 388.104412 195.988439 
L 388.796657 194.138217 
M 390.179932 209.631281 
L 390.872169 206.135921 
L 391.564426 207.195254 
L 392.256643 202.831474 
L 392.948735 202.499438 
L 393.640972 200.911529 
L 394.333209 197.767887 
L 395.025447 195.271027 
L 395.717867 196.840851 
L 396.410104 196.379043 
L 396.410104 196.379043 
" style="fill:none;stroke:#ff0000;stroke-linecap:square;"/>
   </g>
   <g id="line2d_134">
    <path clip-path="url(#pb8f88f2e2f)" d="M 73.832727 164.256598 
L 74.524971 164.779485 
L 75.217208 164.455783 
L 75.90628 160.92513 
L 76.598517 159.449419 
L 77.982991 154.294722 
L 78.6751 153.543611 
L 79.367337 151.356215 
L 80.059581 148.070624 
L 80.751818 147.484443 
L 82.138725 147.891686 
L 82.830962 147.60082 
L 83.523199 145.581522 
L 84.216653 146.686762 
L 84.908883 145.216551 
L 85.601147 142.96679 
L 86.293364 139.287161 
L 86.985656 136.666623 
L 87.675135 136.245432 
L 88.367373 135.057794 
L 89.05961 135.439391 
L 89.751847 134.542357 
L 90.441987 136.597274 
L 91.13423 135.227758 
L 91.826467 135.866982 
L 92.518705 126.777015 
L 93.902011 95.777393 
L 94.594254 87.908543 
L 95.286491 83.327736 
L 95.979336 91.605985 
L 97.363819 137.081852 
L 99.44205 200.52567 
L 100.133837 214.431624 
L 100.826074 217.716761 
L 101.516997 209.417566 
L 102.901478 181.582676 
L 104.284797 152.998558 
L 104.977035 132.16564 
L 105.669272 107.903412 
L 106.361509 92.73155 
L 107.05535 92.372449 
L 107.747587 101.37354 
L 108.439825 128.623836 
L 109.824962 199.527104 
L 111.209437 249.86224 
L 111.901674 267.727693 
L 112.593675 273.219276 
L 113.285912 265.983181 
L 113.978149 262.441609 
L 114.670387 261.426074 
L 115.361972 261.184995 
L 116.054209 266.49744 
L 116.746446 274.454785 
L 117.438683 277.444329 
L 118.130907 274.523571 
L 118.823151 274.206172 
L 119.515395 269.139725 
L 120.207625 255.131631 
L 121.594579 213.813562 
L 122.286816 188.202861 
L 122.97906 171.184801 
L 123.67129 166.63568 
L 124.363909 169.76502 
L 125.056146 183.030084 
L 125.748383 205.229689 
L 126.44062 232.656935 
L 127.82187 273.610829 
L 128.514107 289.464192 
L 129.206344 294.649676 
L 129.89967 284.377027 
L 130.591908 265.949344 
L 132.670814 187.331004 
L 133.363058 170.420792 
L 134.055295 160.000022 
L 134.747532 157.967104 
L 135.437802 164.60768 
L 137.514514 188.591527 
L 138.204709 201.018639 
L 140.281421 231.770073 
L 140.976101 232.309667 
L 141.668336 218.675508 
L 143.05281 174.294271 
L 144.436993 123.917516 
L 145.129236 106.531494 
L 145.821474 98.19606 
L 146.511257 98.286224 
L 147.203494 102.982213 
L 147.895731 105.229304 
L 148.588378 98.867614 
L 149.281455 89.182026 
L 149.973692 85.233022 
L 150.665929 93.588122 
L 151.358166 114.299802 
L 152.743731 171.235426 
L 153.435969 198.854329 
L 154.128206 214.854539 
L 154.820443 223.629817 
L 155.510224 227.72912 
L 156.20247 229.088493 
L 156.894699 229.742759 
L 157.586944 233.028711 
L 158.279343 238.26984 
L 158.97158 240.375969 
L 159.663852 236.300492 
L 160.356055 222.692079 
L 162.435745 147.582198 
L 163.127989 127.517331 
L 163.818557 113.729742 
L 164.510795 108.636737 
L 165.203032 106.157669 
L 165.895269 108.003993 
L 166.586145 108.51956 
L 168.662863 81.584818 
L 169.356457 82.559149 
L 170.048694 92.379522 
L 170.740931 108.819091 
L 173.510286 203.939076 
L 174.202529 215.011072 
L 174.892987 223.097256 
L 175.585225 227.938721 
L 176.277462 229.276644 
L 176.969699 228.409502 
L 177.662487 227.124578 
L 178.354724 227.469607 
L 179.046962 225.05361 
L 179.739205 216.027299 
L 182.510778 146.307642 
L 183.892876 121.932255 
L 184.585113 114.029874 
L 185.2776 112.579692 
L 185.969588 108.153826 
L 186.661455 112.251827 
L 187.353692 120.919213 
L 188.738167 157.354027 
M 191.509762 265.538032 
L 192.199235 265.850262 
L 192.891481 267.354526 
L 193.583718 271.113222 
L 194.275953 279.673283 
L 195.660172 290.122603 
L 196.352409 291.551426 
L 197.044646 282.431626 
L 197.738917 265.086748 
L 198.431154 242.391465 
L 199.815628 190.841149 
L 200.508823 171.560352 
L 201.20106 163.392602 
L 201.893304 161.950798 
L 202.585541 170.256998 
L 203.275538 184.811137 
L 203.967776 207.404124 
L 205.35225 263.174417 
L 206.044672 278.338398 
L 206.736909 281.536928 
L 207.429146 270.527664 
L 208.121383 247.001076 
L 209.50811 193.16423 
L 210.892585 149.433737 
L 211.583861 134.835057 
L 212.276099 125.125527 
L 212.968342 111.433477 
L 215.044156 56.783539 
L 215.736393 56.954283 
L 216.428631 73.726617 
L 217.120874 100.823064 
L 217.814995 133.693497 
L 219.891706 247.021973 
L 220.58497 269.06611 
L 221.277214 277.590565 
L 221.969824 276.80642 
L 222.661681 268.317842 
L 223.354881 250.226409 
L 224.739362 188.366842 
L 226.815566 93.14472 
L 227.507804 70.407153 
L 228.200041 66.396185 
L 228.892598 80.897249 
L 229.584835 102.211913 
L 231.661953 178.37473 
L 232.35419 199.010244 
L 233.046427 214.354621 
L 233.738664 225.249428 
L 235.126562 242.024472 
L 235.818799 242.082479 
L 236.511036 232.940411 
L 237.897963 205.35212 
L 238.5902 199.224822 
L 239.282437 199.765741 
L 239.966295 203.284157 
L 240.658539 214.72047 
L 241.350776 233.794515 
L 242.735331 280.006729 
L 243.427569 289.518125 
L 244.119806 284.894044 
L 245.504977 249.614654 
L 247.581686 196.188667 
L 248.967115 167.382796 
L 249.659352 158.210265 
L 250.351589 153.482156 
L 251.043826 153.459066 
L 251.736771 162.480971 
L 253.81349 213.932098 
L 255.192947 236.580569 
L 256.577429 256.16674 
L 257.962163 281.622007 
L 258.6544 288.08421 
L 259.346637 285.977415 
L 260.040695 276.475216 
L 261.425169 242.105062 
L 263.501547 182.099181 
L 265.576308 130.789138 
L 266.268553 115.161655 
L 266.960791 105.394555 
L 267.653028 99.791855 
L 268.344813 95.860074 
L 269.03705 92.628413 
L 269.729287 97.206887 
L 270.421524 110.041816 
M 271.808522 132.660572 
L 273.192996 155.382482 
L 273.886626 169.024673 
L 274.578864 175.054156 
M 279.422083 159.756164 
L 280.11432 159.055156 
L 280.806557 151.3405 
M 282.885262 132.401461 
L 283.576905 140.28273 
L 284.269143 152.002972 
M 291.190092 171.78387 
L 291.882329 166.809674 
L 292.574566 154.940522 
M 296.037925 195.581682 
L 296.728311 218.37232 
L 297.420548 236.704219 
L 298.112785 239.52755 
L 298.805022 237.277555 
L 300.192862 225.203693 
M 305.72952 234.43876 
L 306.421757 251.112616 
L 307.114493 257.19877 
L 307.804746 251.204357 
L 308.496983 244.189896 
L 309.18922 230.032965 
L 309.881458 218.340016 
M 314.727973 228.839216 
L 315.42021 244.618546 
L 316.112447 250.194329 
L 316.803859 249.8274 
L 317.496096 245.335024 
L 318.188333 237.935868 
L 319.576584 205.292397 
L 320.961058 151.279356 
L 321.653295 131.04466 
L 322.342377 114.407927 
L 323.034614 103.924486 
L 323.726858 104.328661 
L 324.419095 113.699394 
L 325.112821 128.625079 
L 325.805058 151.845099 
L 326.497302 170.220485 
M 327.884744 178.189921 
L 329.269218 153.677976 
L 329.961455 137.332601 
L 330.653469 130.926652 
L 331.346218 129.261529 
L 332.037944 127.191343 
L 332.730181 131.818894 
L 333.422638 140.903148 
L 334.114875 148.13776 
L 334.807119 168.18775 
M 337.575094 168.775443 
L 338.267337 154.105626 
L 338.959426 149.254657 
L 339.651661 154.045482 
L 341.036136 178.284106 
L 341.726718 200.263213 
L 342.418955 218.095892 
L 343.111192 231.188343 
L 343.803429 238.356868 
L 344.492933 240.2673 
L 345.18517 231.587758 
L 346.569651 204.884573 
M 347.953989 189.711402 
L 348.646226 190.365187 
M 351.414505 228.917767 
L 352.106742 237.607866 
L 352.798979 243.911072 
L 353.491776 243.77822 
L 354.184019 239.15427 
L 354.87625 240.453689 
L 355.569124 242.133122 
L 356.26317 237.003576 
L 356.955416 226.630869 
L 359.029714 188.357609 
L 359.721951 182.110237 
M 361.106426 181.829927 
L 362.491511 192.251178 
L 364.568397 214.740228 
L 365.260626 218.839995 
M 366.6451 201.111708 
L 367.338052 193.010571 
L 368.030296 182.27278 
L 370.107983 137.13724 
L 370.80022 132.631295 
L 371.492457 137.461948 
L 373.570157 162.968077 
L 374.262395 166.709017 
L 374.95463 163.672421 
M 376.34006 144.109752 
L 377.032291 145.201531 
L 377.724534 146.66229 
M 380.492239 131.708334 
L 381.184476 139.779611 
L 381.876099 152.590847 
L 382.568336 168.137427 
L 383.260573 178.190315 
L 383.952811 179.050369 
L 384.644637 181.055352 
L 385.336874 179.821042 
L 386.029111 182.937349 
L 386.721348 190.853808 
L 387.412183 194.477712 
L 388.104412 195.231264 
L 388.796657 197.064449 
M 390.179932 208.1017 
L 390.872169 208.405969 
L 391.564426 207.276933 
L 392.256643 205.814547 
L 392.948735 203.172227 
L 393.640972 198.994213 
L 394.333209 199.370435 
L 395.025447 199.323034 
L 395.717867 198.792328 
L 396.410104 197.414956 
L 396.410104 197.414956 
" style="fill:none;stroke:#0000ff;stroke-linecap:square;"/>
   </g>
   <g id="line2d_135">
    <path clip-path="url(#pb8f88f2e2f)" d="M 276.655785 168.758841 
L 277.348022 163.447788 
M 281.498794 141.112985 
L 282.192431 136.255846 
M 286.344534 178.28391 
L 287.036771 171.273193 
L 287.729008 165.980873 
L 288.421904 165.293772 
L 289.114148 173.398879 
L 289.806385 177.636903 
L 290.498622 175.353558 
M 294.653451 157.802934 
L 295.345682 174.705747 
M 300.885099 217.215241 
L 302.26739 175.881309 
L 302.959621 166.161686 
M 304.344095 182.947404 
L 305.037283 206.090207 
M 310.575802 200.850841 
L 311.268039 185.048475 
L 311.960277 176.717614 
L 312.65252 181.451113 
L 314.035729 207.943613 
M 335.499356 183.965836 
L 336.190619 190.874968 
L 336.882856 184.855956 
M 349.338463 194.984322 
L 350.0307 204.679203 
L 350.722267 217.390725 
M 397.102341 196.391194 
L 397.794578 193.04868 
L 398.487273 190.642616 
L 398.487273 190.642616 
" style="fill:none;stroke:#008000;stroke-linecap:square;"/>
   </g>
   <g id="patch_3">
    <path d="M 57.6 307.584 
L 57.6 41.472 
" style="fill:none;stroke:#000000;stroke-linecap:square;stroke-linejoin:miter;stroke-width:0.8;"/>
   </g>
   <g id="patch_4">
    <path d="M 414.72 307.584 
L 414.72 41.472 
" style="fill:none;stroke:#000000;stroke-linecap:square;stroke-linejoin:miter;stroke-width:0.8;"/>
   </g>
   <g id="patch_5">
    <path d="M 57.6 307.584 
L 414.72 307.584 
" style="fill:none;stroke:#000000;stroke-linecap:square;stroke-linejoin:miter;stroke-width:0.8;"/>
   </g>
   <g id="patch_6">
    <path d="M 57.6 41.472 
L 414.72 41.472 
" style="fill:none;stroke:#000000;stroke-linecap:square;stroke-linejoin:miter;stroke-width:0.8;"/>
   </g>
   <g id="text_16">
    <!-- Rel Gt Trans X Plot -->
    <defs>
     <path d="M 44.390625 34.1875 
Q 47.5625 33.109375 50.5625 29.59375 
Q 53.5625 26.078125 56.59375 19.921875 
L 66.609375 0 
L 56 0 
L 46.6875 18.703125 
Q 43.0625 26.03125 39.671875 28.421875 
Q 36.28125 30.8125 30.421875 30.8125 
L 19.671875 30.8125 
L 19.671875 0 
L 9.8125 0 
L 9.8125 72.90625 
L 32.078125 72.90625 
Q 44.578125 72.90625 50.734375 67.671875 
Q 56.890625 62.453125 56.890625 51.90625 
Q 56.890625 45.015625 53.6875 40.46875 
Q 50.484375 35.9375 44.390625 34.1875 
z
M 19.671875 64.796875 
L 19.671875 38.921875 
L 32.078125 38.921875 
Q 39.203125 38.921875 42.84375 42.21875 
Q 46.484375 45.515625 46.484375 51.90625 
Q 46.484375 58.296875 42.84375 61.546875 
Q 39.203125 64.796875 32.078125 64.796875 
z
" id="DejaVuSans-52"/>
     <path d="M 9.421875 75.984375 
L 18.40625 75.984375 
L 18.40625 0 
L 9.421875 0 
z
" id="DejaVuSans-6c"/>
     <path d="M 59.515625 10.40625 
L 59.515625 29.984375 
L 43.40625 29.984375 
L 43.40625 38.09375 
L 69.28125 38.09375 
L 69.28125 6.78125 
Q 63.578125 2.734375 56.6875 0.65625 
Q 49.8125 -1.421875 42 -1.421875 
Q 24.90625 -1.421875 15.25 8.5625 
Q 5.609375 18.5625 5.609375 36.375 
Q 5.609375 54.25 15.25 64.234375 
Q 24.90625 74.21875 42 74.21875 
Q 49.125 74.21875 55.546875 72.453125 
Q 61.96875 70.703125 67.390625 67.28125 
L 67.390625 56.78125 
Q 61.921875 61.421875 55.765625 63.765625 
Q 49.609375 66.109375 42.828125 66.109375 
Q 29.4375 66.109375 22.71875 58.640625 
Q 16.015625 51.171875 16.015625 36.375 
Q 16.015625 21.625 22.71875 14.15625 
Q 29.4375 6.6875 42.828125 6.6875 
Q 48.046875 6.6875 52.140625 7.59375 
Q 56.25 8.5 59.515625 10.40625 
z
" id="DejaVuSans-47"/>
     <path d="M -0.296875 72.90625 
L 61.375 72.90625 
L 61.375 64.59375 
L 35.5 64.59375 
L 35.5 0 
L 25.59375 0 
L 25.59375 64.59375 
L -0.296875 64.59375 
z
" id="DejaVuSans-54"/>
     <path d="M 6.296875 72.90625 
L 16.890625 72.90625 
L 35.015625 45.796875 
L 53.21875 72.90625 
L 63.8125 72.90625 
L 40.375 37.890625 
L 65.375 0 
L 54.78125 0 
L 34.28125 31 
L 13.625 0 
L 2.984375 0 
L 29 38.921875 
z
" id="DejaVuSans-58"/>
     <path d="M 19.671875 64.796875 
L 19.671875 37.40625 
L 32.078125 37.40625 
Q 38.96875 37.40625 42.71875 40.96875 
Q 46.484375 44.53125 46.484375 51.125 
Q 46.484375 57.671875 42.71875 61.234375 
Q 38.96875 64.796875 32.078125 64.796875 
z
M 9.8125 72.90625 
L 32.078125 72.90625 
Q 44.34375 72.90625 50.609375 67.359375 
Q 56.890625 61.8125 56.890625 51.125 
Q 56.890625 40.328125 50.609375 34.8125 
Q 44.34375 29.296875 32.078125 29.296875 
L 19.671875 29.296875 
L 19.671875 0 
L 9.8125 0 
z
" id="DejaVuSans-50"/>
     <path d="M 30.609375 48.390625 
Q 23.390625 48.390625 19.1875 42.75 
Q 14.984375 37.109375 14.984375 27.296875 
Q 14.984375 17.484375 19.15625 11.84375 
Q 23.34375 6.203125 30.609375 6.203125 
Q 37.796875 6.203125 41.984375 11.859375 
Q 46.1875 17.53125 46.1875 27.296875 
Q 46.1875 37.015625 41.984375 42.703125 
Q 37.796875 48.390625 30.609375 48.390625 
z
M 30.609375 56 
Q 42.328125 56 49.015625 48.375 
Q 55.71875 40.765625 55.71875 27.296875 
Q 55.71875 13.875 49.015625 6.21875 
Q 42.328125 -1.421875 30.609375 -1.421875 
Q 18.84375 -1.421875 12.171875 6.21875 
Q 5.515625 13.875 5.515625 27.296875 
Q 5.515625 40.765625 12.171875 48.375 
Q 18.84375 56 30.609375 56 
z
" id="DejaVuSans-6f"/>
    </defs>
    <g transform="translate(179.865938 35.472)scale(0.12 -0.12)">
     <use xlink:href="#DejaVuSans-52"/>
     <use x="69.419922" xlink:href="#DejaVuSans-65"/>
     <use x="130.943359" xlink:href="#DejaVuSans-6c"/>
     <use x="158.726562" xlink:href="#DejaVuSans-20"/>
     <use x="190.513672" xlink:href="#DejaVuSans-47"/>
     <use x="268.003906" xlink:href="#DejaVuSans-74"/>
     <use x="307.212891" xlink:href="#DejaVuSans-20"/>
     <use x="339" xlink:href="#DejaVuSans-54"/>
     <use x="399.865234" xlink:href="#DejaVuSans-72"/>
     <use x="440.978516" xlink:href="#DejaVuSans-61"/>
     <use x="502.257812" xlink:href="#DejaVuSans-6e"/>
     <use x="565.636719" xlink:href="#DejaVuSans-73"/>
     <use x="617.736328" xlink:href="#DejaVuSans-20"/>
     <use x="649.523438" xlink:href="#DejaVuSans-58"/>
     <use x="718.029297" xlink:href="#DejaVuSans-20"/>
     <use x="749.816406" xlink:href="#DejaVuSans-50"/>
     <use x="810.119141" xlink:href="#DejaVuSans-6c"/>
     <use x="837.902344" xlink:href="#DejaVuSans-6f"/>
     <use x="899.083984" xlink:href="#DejaVuSans-74"/>
    </g>
   </g>
  </g>
 </g>
 <defs>
  <clipPath id="pb8f88f2e2f">
   <rect height="266.112" width="357.12" x="57.6" y="41.472"/>
  </clipPath>
 </defs>
</svg>
