<?xml version="1.0" encoding="utf-8" standalone="no"?>
<!DOCTYPE svg PUBLIC "-//W3C//DTD SVG 1.1//EN"
  "http://www.w3.org/Graphics/SVG/1.1/DTD/svg11.dtd">
<!-- Created with matplotlib (http://matplotlib.org/) -->
<svg height="345.6pt" version="1.1" viewBox="0 0 460.8 345.6" width="460.8pt" xmlns="http://www.w3.org/2000/svg" xmlns:xlink="http://www.w3.org/1999/xlink">
 <defs>
  <style type="text/css">
*{stroke-linecap:butt;stroke-linejoin:round;}
  </style>
 </defs>
 <g id="figure_1">
  <g id="patch_1">
   <path d="M 0 345.6 
L 460.8 345.6 
L 460.8 0 
L 0 0 
z
" style="fill:#ffffff;"/>
  </g>
  <g id="axes_1">
   <g id="patch_2">
    <path d="M 57.6 307.584 
L 414.72 307.584 
L 414.72 41.472 
L 57.6 41.472 
z
" style="fill:#ffffff;"/>
   </g>
   <g id="matplotlib.axis_1">
    <g id="xtick_1">
     <g id="line2d_1">
      <path clip-path="url(#p9ba695b74c)" d="M 70.555248 307.584 
L 70.555248 41.472 
" style="fill:none;stroke:#b0b0b0;stroke-linecap:square;stroke-width:0.8;"/>
     </g>
     <g id="line2d_2">
      <defs>
       <path d="M 0 0 
L 0 3.5 
" id="m3c025b7c8e" style="stroke:#000000;stroke-width:0.8;"/>
      </defs>
      <g>
       <use style="stroke:#000000;stroke-width:0.8;" x="70.555248" xlink:href="#m3c025b7c8e" y="307.584"/>
      </g>
     </g>
     <g id="text_1">
      <!-- 0 -->
      <defs>
       <path d="M 31.78125 66.40625 
Q 24.171875 66.40625 20.328125 58.90625 
Q 16.5 51.421875 16.5 36.375 
Q 16.5 21.390625 20.328125 13.890625 
Q 24.171875 6.390625 31.78125 6.390625 
Q 39.453125 6.390625 43.28125 13.890625 
Q 47.125 21.390625 47.125 36.375 
Q 47.125 51.421875 43.28125 58.90625 
Q 39.453125 66.40625 31.78125 66.40625 
z
M 31.78125 74.21875 
Q 44.046875 74.21875 50.515625 64.515625 
Q 56.984375 54.828125 56.984375 36.375 
Q 56.984375 17.96875 50.515625 8.265625 
Q 44.046875 -1.421875 31.78125 -1.421875 
Q 19.53125 -1.421875 13.0625 8.265625 
Q 6.59375 17.96875 6.59375 36.375 
Q 6.59375 54.828125 13.0625 64.515625 
Q 19.53125 74.21875 31.78125 74.21875 
z
" id="DejaVuSans-30"/>
      </defs>
      <g transform="translate(67.373998 322.182437)scale(0.1 -0.1)">
       <use xlink:href="#DejaVuSans-30"/>
      </g>
     </g>
    </g>
    <g id="xtick_2">
     <g id="line2d_3">
      <path clip-path="url(#p9ba695b74c)" d="M 139.776886 307.584 
L 139.776886 41.472 
" style="fill:none;stroke:#b0b0b0;stroke-linecap:square;stroke-width:0.8;"/>
     </g>
     <g id="line2d_4">
      <g>
       <use style="stroke:#000000;stroke-width:0.8;" x="139.776886" xlink:href="#m3c025b7c8e" y="307.584"/>
      </g>
     </g>
     <g id="text_2">
      <!-- 10 -->
      <defs>
       <path d="M 12.40625 8.296875 
L 28.515625 8.296875 
L 28.515625 63.921875 
L 10.984375 60.40625 
L 10.984375 69.390625 
L 28.421875 72.90625 
L 38.28125 72.90625 
L 38.28125 8.296875 
L 54.390625 8.296875 
L 54.390625 0 
L 12.40625 0 
z
" id="DejaVuSans-31"/>
      </defs>
      <g transform="translate(133.414386 322.182437)scale(0.1 -0.1)">
       <use xlink:href="#DejaVuSans-31"/>
       <use x="63.623047" xlink:href="#DejaVuSans-30"/>
      </g>
     </g>
    </g>
    <g id="xtick_3">
     <g id="line2d_5">
      <path clip-path="url(#p9ba695b74c)" d="M 208.998523 307.584 
L 208.998523 41.472 
" style="fill:none;stroke:#b0b0b0;stroke-linecap:square;stroke-width:0.8;"/>
     </g>
     <g id="line2d_6">
      <g>
       <use style="stroke:#000000;stroke-width:0.8;" x="208.998523" xlink:href="#m3c025b7c8e" y="307.584"/>
      </g>
     </g>
     <g id="text_3">
      <!-- 20 -->
      <defs>
       <path d="M 19.1875 8.296875 
L 53.609375 8.296875 
L 53.609375 0 
L 7.328125 0 
L 7.328125 8.296875 
Q 12.9375 14.109375 22.625 23.890625 
Q 32.328125 33.6875 34.8125 36.53125 
Q 39.546875 41.84375 41.421875 45.53125 
Q 43.3125 49.21875 43.3125 52.78125 
Q 43.3125 58.59375 39.234375 62.25 
Q 35.15625 65.921875 28.609375 65.921875 
Q 23.96875 65.921875 18.8125 64.3125 
Q 13.671875 62.703125 7.8125 59.421875 
L 7.8125 69.390625 
Q 13.765625 71.78125 18.9375 73 
Q 24.125 74.21875 28.421875 74.21875 
Q 39.75 74.21875 46.484375 68.546875 
Q 53.21875 62.890625 53.21875 53.421875 
Q 53.21875 48.921875 51.53125 44.890625 
Q 49.859375 40.875 45.40625 35.40625 
Q 44.1875 33.984375 37.640625 27.21875 
Q 31.109375 20.453125 19.1875 8.296875 
z
" id="DejaVuSans-32"/>
      </defs>
      <g transform="translate(202.636023 322.182437)scale(0.1 -0.1)">
       <use xlink:href="#DejaVuSans-32"/>
       <use x="63.623047" xlink:href="#DejaVuSans-30"/>
      </g>
     </g>
    </g>
    <g id="xtick_4">
     <g id="line2d_7">
      <path clip-path="url(#p9ba695b74c)" d="M 278.220161 307.584 
L 278.220161 41.472 
" style="fill:none;stroke:#b0b0b0;stroke-linecap:square;stroke-width:0.8;"/>
     </g>
     <g id="line2d_8">
      <g>
       <use style="stroke:#000000;stroke-width:0.8;" x="278.220161" xlink:href="#m3c025b7c8e" y="307.584"/>
      </g>
     </g>
     <g id="text_4">
      <!-- 30 -->
      <defs>
       <path d="M 40.578125 39.3125 
Q 47.65625 37.796875 51.625 33 
Q 55.609375 28.21875 55.609375 21.1875 
Q 55.609375 10.40625 48.1875 4.484375 
Q 40.765625 -1.421875 27.09375 -1.421875 
Q 22.515625 -1.421875 17.65625 -0.515625 
Q 12.796875 0.390625 7.625 2.203125 
L 7.625 11.71875 
Q 11.71875 9.328125 16.59375 8.109375 
Q 21.484375 6.890625 26.8125 6.890625 
Q 36.078125 6.890625 40.9375 10.546875 
Q 45.796875 14.203125 45.796875 21.1875 
Q 45.796875 27.640625 41.28125 31.265625 
Q 36.765625 34.90625 28.71875 34.90625 
L 20.21875 34.90625 
L 20.21875 43.015625 
L 29.109375 43.015625 
Q 36.375 43.015625 40.234375 45.921875 
Q 44.09375 48.828125 44.09375 54.296875 
Q 44.09375 59.90625 40.109375 62.90625 
Q 36.140625 65.921875 28.71875 65.921875 
Q 24.65625 65.921875 20.015625 65.03125 
Q 15.375 64.15625 9.8125 62.3125 
L 9.8125 71.09375 
Q 15.4375 72.65625 20.34375 73.4375 
Q 25.25 74.21875 29.59375 74.21875 
Q 40.828125 74.21875 47.359375 69.109375 
Q 53.90625 64.015625 53.90625 55.328125 
Q 53.90625 49.265625 50.4375 45.09375 
Q 46.96875 40.921875 40.578125 39.3125 
z
" id="DejaVuSans-33"/>
      </defs>
      <g transform="translate(271.857661 322.182437)scale(0.1 -0.1)">
       <use xlink:href="#DejaVuSans-33"/>
       <use x="63.623047" xlink:href="#DejaVuSans-30"/>
      </g>
     </g>
    </g>
    <g id="xtick_5">
     <g id="line2d_9">
      <path clip-path="url(#p9ba695b74c)" d="M 347.441799 307.584 
L 347.441799 41.472 
" style="fill:none;stroke:#b0b0b0;stroke-linecap:square;stroke-width:0.8;"/>
     </g>
     <g id="line2d_10">
      <g>
       <use style="stroke:#000000;stroke-width:0.8;" x="347.441799" xlink:href="#m3c025b7c8e" y="307.584"/>
      </g>
     </g>
     <g id="text_5">
      <!-- 40 -->
      <defs>
       <path d="M 37.796875 64.3125 
L 12.890625 25.390625 
L 37.796875 25.390625 
z
M 35.203125 72.90625 
L 47.609375 72.90625 
L 47.609375 25.390625 
L 58.015625 25.390625 
L 58.015625 17.1875 
L 47.609375 17.1875 
L 47.609375 0 
L 37.796875 0 
L 37.796875 17.1875 
L 4.890625 17.1875 
L 4.890625 26.703125 
z
" id="DejaVuSans-34"/>
      </defs>
      <g transform="translate(341.079299 322.182437)scale(0.1 -0.1)">
       <use xlink:href="#DejaVuSans-34"/>
       <use x="63.623047" xlink:href="#DejaVuSans-30"/>
      </g>
     </g>
    </g>
    <g id="xtick_6">
     <g id="line2d_11">
      <path clip-path="url(#p9ba695b74c)" d="M 84.399575 307.584 
L 84.399575 41.472 
" style="fill:none;stroke:#b0b0b0;stroke-linecap:square;stroke-width:0.8;"/>
     </g>
     <g id="line2d_12">
      <defs>
       <path d="M 0 0 
L 0 2 
" id="mdfd9ef6e23" style="stroke:#000000;stroke-width:0.6;"/>
      </defs>
      <g>
       <use style="stroke:#000000;stroke-width:0.6;" x="84.399575" xlink:href="#mdfd9ef6e23" y="307.584"/>
      </g>
     </g>
    </g>
    <g id="xtick_7">
     <g id="line2d_13">
      <path clip-path="url(#p9ba695b74c)" d="M 98.243903 307.584 
L 98.243903 41.472 
" style="fill:none;stroke:#b0b0b0;stroke-linecap:square;stroke-width:0.8;"/>
     </g>
     <g id="line2d_14">
      <g>
       <use style="stroke:#000000;stroke-width:0.6;" x="98.243903" xlink:href="#mdfd9ef6e23" y="307.584"/>
      </g>
     </g>
    </g>
    <g id="xtick_8">
     <g id="line2d_15">
      <path clip-path="url(#p9ba695b74c)" d="M 112.08823 307.584 
L 112.08823 41.472 
" style="fill:none;stroke:#b0b0b0;stroke-linecap:square;stroke-width:0.8;"/>
     </g>
     <g id="line2d_16">
      <g>
       <use style="stroke:#000000;stroke-width:0.6;" x="112.08823" xlink:href="#mdfd9ef6e23" y="307.584"/>
      </g>
     </g>
    </g>
    <g id="xtick_9">
     <g id="line2d_17">
      <path clip-path="url(#p9ba695b74c)" d="M 125.932558 307.584 
L 125.932558 41.472 
" style="fill:none;stroke:#b0b0b0;stroke-linecap:square;stroke-width:0.8;"/>
     </g>
     <g id="line2d_18">
      <g>
       <use style="stroke:#000000;stroke-width:0.6;" x="125.932558" xlink:href="#mdfd9ef6e23" y="307.584"/>
      </g>
     </g>
    </g>
    <g id="xtick_10">
     <g id="line2d_19">
      <path clip-path="url(#p9ba695b74c)" d="M 153.621213 307.584 
L 153.621213 41.472 
" style="fill:none;stroke:#b0b0b0;stroke-linecap:square;stroke-width:0.8;"/>
     </g>
     <g id="line2d_20">
      <g>
       <use style="stroke:#000000;stroke-width:0.6;" x="153.621213" xlink:href="#mdfd9ef6e23" y="307.584"/>
      </g>
     </g>
    </g>
    <g id="xtick_11">
     <g id="line2d_21">
      <path clip-path="url(#p9ba695b74c)" d="M 167.465541 307.584 
L 167.465541 41.472 
" style="fill:none;stroke:#b0b0b0;stroke-linecap:square;stroke-width:0.8;"/>
     </g>
     <g id="line2d_22">
      <g>
       <use style="stroke:#000000;stroke-width:0.6;" x="167.465541" xlink:href="#mdfd9ef6e23" y="307.584"/>
      </g>
     </g>
    </g>
    <g id="xtick_12">
     <g id="line2d_23">
      <path clip-path="url(#p9ba695b74c)" d="M 181.309868 307.584 
L 181.309868 41.472 
" style="fill:none;stroke:#b0b0b0;stroke-linecap:square;stroke-width:0.8;"/>
     </g>
     <g id="line2d_24">
      <g>
       <use style="stroke:#000000;stroke-width:0.6;" x="181.309868" xlink:href="#mdfd9ef6e23" y="307.584"/>
      </g>
     </g>
    </g>
    <g id="xtick_13">
     <g id="line2d_25">
      <path clip-path="url(#p9ba695b74c)" d="M 195.154196 307.584 
L 195.154196 41.472 
" style="fill:none;stroke:#b0b0b0;stroke-linecap:square;stroke-width:0.8;"/>
     </g>
     <g id="line2d_26">
      <g>
       <use style="stroke:#000000;stroke-width:0.6;" x="195.154196" xlink:href="#mdfd9ef6e23" y="307.584"/>
      </g>
     </g>
    </g>
    <g id="xtick_14">
     <g id="line2d_27">
      <path clip-path="url(#p9ba695b74c)" d="M 222.842851 307.584 
L 222.842851 41.472 
" style="fill:none;stroke:#b0b0b0;stroke-linecap:square;stroke-width:0.8;"/>
     </g>
     <g id="line2d_28">
      <g>
       <use style="stroke:#000000;stroke-width:0.6;" x="222.842851" xlink:href="#mdfd9ef6e23" y="307.584"/>
      </g>
     </g>
    </g>
    <g id="xtick_15">
     <g id="line2d_29">
      <path clip-path="url(#p9ba695b74c)" d="M 236.687178 307.584 
L 236.687178 41.472 
" style="fill:none;stroke:#b0b0b0;stroke-linecap:square;stroke-width:0.8;"/>
     </g>
     <g id="line2d_30">
      <g>
       <use style="stroke:#000000;stroke-width:0.6;" x="236.687178" xlink:href="#mdfd9ef6e23" y="307.584"/>
      </g>
     </g>
    </g>
    <g id="xtick_16">
     <g id="line2d_31">
      <path clip-path="url(#p9ba695b74c)" d="M 250.531506 307.584 
L 250.531506 41.472 
" style="fill:none;stroke:#b0b0b0;stroke-linecap:square;stroke-width:0.8;"/>
     </g>
     <g id="line2d_32">
      <g>
       <use style="stroke:#000000;stroke-width:0.6;" x="250.531506" xlink:href="#mdfd9ef6e23" y="307.584"/>
      </g>
     </g>
    </g>
    <g id="xtick_17">
     <g id="line2d_33">
      <path clip-path="url(#p9ba695b74c)" d="M 264.375834 307.584 
L 264.375834 41.472 
" style="fill:none;stroke:#b0b0b0;stroke-linecap:square;stroke-width:0.8;"/>
     </g>
     <g id="line2d_34">
      <g>
       <use style="stroke:#000000;stroke-width:0.6;" x="264.375834" xlink:href="#mdfd9ef6e23" y="307.584"/>
      </g>
     </g>
    </g>
    <g id="xtick_18">
     <g id="line2d_35">
      <path clip-path="url(#p9ba695b74c)" d="M 292.064489 307.584 
L 292.064489 41.472 
" style="fill:none;stroke:#b0b0b0;stroke-linecap:square;stroke-width:0.8;"/>
     </g>
     <g id="line2d_36">
      <g>
       <use style="stroke:#000000;stroke-width:0.6;" x="292.064489" xlink:href="#mdfd9ef6e23" y="307.584"/>
      </g>
     </g>
    </g>
    <g id="xtick_19">
     <g id="line2d_37">
      <path clip-path="url(#p9ba695b74c)" d="M 305.908816 307.584 
L 305.908816 41.472 
" style="fill:none;stroke:#b0b0b0;stroke-linecap:square;stroke-width:0.8;"/>
     </g>
     <g id="line2d_38">
      <g>
       <use style="stroke:#000000;stroke-width:0.6;" x="305.908816" xlink:href="#mdfd9ef6e23" y="307.584"/>
      </g>
     </g>
    </g>
    <g id="xtick_20">
     <g id="line2d_39">
      <path clip-path="url(#p9ba695b74c)" d="M 319.753144 307.584 
L 319.753144 41.472 
" style="fill:none;stroke:#b0b0b0;stroke-linecap:square;stroke-width:0.8;"/>
     </g>
     <g id="line2d_40">
      <g>
       <use style="stroke:#000000;stroke-width:0.6;" x="319.753144" xlink:href="#mdfd9ef6e23" y="307.584"/>
      </g>
     </g>
    </g>
    <g id="xtick_21">
     <g id="line2d_41">
      <path clip-path="url(#p9ba695b74c)" d="M 333.597471 307.584 
L 333.597471 41.472 
" style="fill:none;stroke:#b0b0b0;stroke-linecap:square;stroke-width:0.8;"/>
     </g>
     <g id="line2d_42">
      <g>
       <use style="stroke:#000000;stroke-width:0.6;" x="333.597471" xlink:href="#mdfd9ef6e23" y="307.584"/>
      </g>
     </g>
    </g>
    <g id="xtick_22">
     <g id="line2d_43">
      <path clip-path="url(#p9ba695b74c)" d="M 361.286127 307.584 
L 361.286127 41.472 
" style="fill:none;stroke:#b0b0b0;stroke-linecap:square;stroke-width:0.8;"/>
     </g>
     <g id="line2d_44">
      <g>
       <use style="stroke:#000000;stroke-width:0.6;" x="361.286127" xlink:href="#mdfd9ef6e23" y="307.584"/>
      </g>
     </g>
    </g>
    <g id="xtick_23">
     <g id="line2d_45">
      <path clip-path="url(#p9ba695b74c)" d="M 375.130454 307.584 
L 375.130454 41.472 
" style="fill:none;stroke:#b0b0b0;stroke-linecap:square;stroke-width:0.8;"/>
     </g>
     <g id="line2d_46">
      <g>
       <use style="stroke:#000000;stroke-width:0.6;" x="375.130454" xlink:href="#mdfd9ef6e23" y="307.584"/>
      </g>
     </g>
    </g>
    <g id="xtick_24">
     <g id="line2d_47">
      <path clip-path="url(#p9ba695b74c)" d="M 388.974782 307.584 
L 388.974782 41.472 
" style="fill:none;stroke:#b0b0b0;stroke-linecap:square;stroke-width:0.8;"/>
     </g>
     <g id="line2d_48">
      <g>
       <use style="stroke:#000000;stroke-width:0.6;" x="388.974782" xlink:href="#mdfd9ef6e23" y="307.584"/>
      </g>
     </g>
    </g>
    <g id="xtick_25">
     <g id="line2d_49">
      <path clip-path="url(#p9ba695b74c)" d="M 402.819109 307.584 
L 402.819109 41.472 
" style="fill:none;stroke:#b0b0b0;stroke-linecap:square;stroke-width:0.8;"/>
     </g>
     <g id="line2d_50">
      <g>
       <use style="stroke:#000000;stroke-width:0.6;" x="402.819109" xlink:href="#mdfd9ef6e23" y="307.584"/>
      </g>
     </g>
    </g>
    <g id="text_6">
     <!-- frame # [] -->
     <defs>
      <path d="M 37.109375 75.984375 
L 37.109375 68.5 
L 28.515625 68.5 
Q 23.6875 68.5 21.796875 66.546875 
Q 19.921875 64.59375 19.921875 59.515625 
L 19.921875 54.6875 
L 34.71875 54.6875 
L 34.71875 47.703125 
L 19.921875 47.703125 
L 19.921875 0 
L 10.890625 0 
L 10.890625 47.703125 
L 2.296875 47.703125 
L 2.296875 54.6875 
L 10.890625 54.6875 
L 10.890625 58.5 
Q 10.890625 67.625 15.140625 71.796875 
Q 19.390625 75.984375 28.609375 75.984375 
z
" id="DejaVuSans-66"/>
      <path d="M 41.109375 46.296875 
Q 39.59375 47.171875 37.8125 47.578125 
Q 36.03125 48 33.890625 48 
Q 26.265625 48 22.1875 43.046875 
Q 18.109375 38.09375 18.109375 28.8125 
L 18.109375 0 
L 9.078125 0 
L 9.078125 54.6875 
L 18.109375 54.6875 
L 18.109375 46.1875 
Q 20.953125 51.171875 25.484375 53.578125 
Q 30.03125 56 36.53125 56 
Q 37.453125 56 38.578125 55.875 
Q 39.703125 55.765625 41.0625 55.515625 
z
" id="DejaVuSans-72"/>
      <path d="M 34.28125 27.484375 
Q 23.390625 27.484375 19.1875 25 
Q 14.984375 22.515625 14.984375 16.5 
Q 14.984375 11.71875 18.140625 8.90625 
Q 21.296875 6.109375 26.703125 6.109375 
Q 34.1875 6.109375 38.703125 11.40625 
Q 43.21875 16.703125 43.21875 25.484375 
L 43.21875 27.484375 
z
M 52.203125 31.203125 
L 52.203125 0 
L 43.21875 0 
L 43.21875 8.296875 
Q 40.140625 3.328125 35.546875 0.953125 
Q 30.953125 -1.421875 24.3125 -1.421875 
Q 15.921875 -1.421875 10.953125 3.296875 
Q 6 8.015625 6 15.921875 
Q 6 25.140625 12.171875 29.828125 
Q 18.359375 34.515625 30.609375 34.515625 
L 43.21875 34.515625 
L 43.21875 35.40625 
Q 43.21875 41.609375 39.140625 45 
Q 35.0625 48.390625 27.6875 48.390625 
Q 23 48.390625 18.546875 47.265625 
Q 14.109375 46.140625 10.015625 43.890625 
L 10.015625 52.203125 
Q 14.9375 54.109375 19.578125 55.046875 
Q 24.21875 56 28.609375 56 
Q 40.484375 56 46.34375 49.84375 
Q 52.203125 43.703125 52.203125 31.203125 
z
" id="DejaVuSans-61"/>
      <path d="M 52 44.1875 
Q 55.375 50.25 60.0625 53.125 
Q 64.75 56 71.09375 56 
Q 79.640625 56 84.28125 50.015625 
Q 88.921875 44.046875 88.921875 33.015625 
L 88.921875 0 
L 79.890625 0 
L 79.890625 32.71875 
Q 79.890625 40.578125 77.09375 44.375 
Q 74.3125 48.1875 68.609375 48.1875 
Q 61.625 48.1875 57.5625 43.546875 
Q 53.515625 38.921875 53.515625 30.90625 
L 53.515625 0 
L 44.484375 0 
L 44.484375 32.71875 
Q 44.484375 40.625 41.703125 44.40625 
Q 38.921875 48.1875 33.109375 48.1875 
Q 26.21875 48.1875 22.15625 43.53125 
Q 18.109375 38.875 18.109375 30.90625 
L 18.109375 0 
L 9.078125 0 
L 9.078125 54.6875 
L 18.109375 54.6875 
L 18.109375 46.1875 
Q 21.1875 51.21875 25.484375 53.609375 
Q 29.78125 56 35.6875 56 
Q 41.65625 56 45.828125 52.96875 
Q 50 49.953125 52 44.1875 
z
" id="DejaVuSans-6d"/>
      <path d="M 56.203125 29.59375 
L 56.203125 25.203125 
L 14.890625 25.203125 
Q 15.484375 15.921875 20.484375 11.0625 
Q 25.484375 6.203125 34.421875 6.203125 
Q 39.59375 6.203125 44.453125 7.46875 
Q 49.3125 8.734375 54.109375 11.28125 
L 54.109375 2.78125 
Q 49.265625 0.734375 44.1875 -0.34375 
Q 39.109375 -1.421875 33.890625 -1.421875 
Q 20.796875 -1.421875 13.15625 6.1875 
Q 5.515625 13.8125 5.515625 26.8125 
Q 5.515625 40.234375 12.765625 48.109375 
Q 20.015625 56 32.328125 56 
Q 43.359375 56 49.78125 48.890625 
Q 56.203125 41.796875 56.203125 29.59375 
z
M 47.21875 32.234375 
Q 47.125 39.59375 43.09375 43.984375 
Q 39.0625 48.390625 32.421875 48.390625 
Q 24.90625 48.390625 20.390625 44.140625 
Q 15.875 39.890625 15.1875 32.171875 
z
" id="DejaVuSans-65"/>
      <path id="DejaVuSans-20"/>
      <path d="M 51.125 44 
L 36.921875 44 
L 32.8125 27.6875 
L 47.125 27.6875 
z
M 43.796875 71.78125 
L 38.71875 51.515625 
L 52.984375 51.515625 
L 58.109375 71.78125 
L 65.921875 71.78125 
L 60.890625 51.515625 
L 76.125 51.515625 
L 76.125 44 
L 58.984375 44 
L 54.984375 27.6875 
L 70.515625 27.6875 
L 70.515625 20.21875 
L 53.078125 20.21875 
L 48 0 
L 40.1875 0 
L 45.21875 20.21875 
L 30.90625 20.21875 
L 25.875 0 
L 18.015625 0 
L 23.09375 20.21875 
L 7.71875 20.21875 
L 7.71875 27.6875 
L 24.90625 27.6875 
L 29 44 
L 13.28125 44 
L 13.28125 51.515625 
L 30.90625 51.515625 
L 35.890625 71.78125 
z
" id="DejaVuSans-23"/>
      <path d="M 8.59375 75.984375 
L 29.296875 75.984375 
L 29.296875 69 
L 17.578125 69 
L 17.578125 -6.203125 
L 29.296875 -6.203125 
L 29.296875 -13.1875 
L 8.59375 -13.1875 
z
" id="DejaVuSans-5b"/>
      <path d="M 30.421875 75.984375 
L 30.421875 -13.1875 
L 9.71875 -13.1875 
L 9.71875 -6.203125 
L 21.390625 -6.203125 
L 21.390625 69 
L 9.71875 69 
L 9.71875 75.984375 
z
" id="DejaVuSans-5d"/>
     </defs>
     <g transform="translate(210.063906 335.860562)scale(0.1 -0.1)">
      <use xlink:href="#DejaVuSans-66"/>
      <use x="35.205078" xlink:href="#DejaVuSans-72"/>
      <use x="76.318359" xlink:href="#DejaVuSans-61"/>
      <use x="137.597656" xlink:href="#DejaVuSans-6d"/>
      <use x="235.009766" xlink:href="#DejaVuSans-65"/>
      <use x="296.533203" xlink:href="#DejaVuSans-20"/>
      <use x="328.320312" xlink:href="#DejaVuSans-23"/>
      <use x="412.109375" xlink:href="#DejaVuSans-20"/>
      <use x="443.896484" xlink:href="#DejaVuSans-5b"/>
      <use x="482.910156" xlink:href="#DejaVuSans-5d"/>
     </g>
    </g>
   </g>
   <g id="matplotlib.axis_2">
    <g id="ytick_1">
     <g id="line2d_51">
      <path clip-path="url(#p9ba695b74c)" d="M 57.6 302.453019 
L 414.72 302.453019 
" style="fill:none;stroke:#b0b0b0;stroke-linecap:square;stroke-width:0.8;"/>
     </g>
     <g id="line2d_52">
      <defs>
       <path d="M 0 0 
L -3.5 0 
" id="m0b1ea58103" style="stroke:#000000;stroke-width:0.8;"/>
      </defs>
      <g>
       <use style="stroke:#000000;stroke-width:0.8;" x="57.6" xlink:href="#m0b1ea58103" y="302.453019"/>
      </g>
     </g>
     <g id="text_7">
      <!-- −0.15 -->
      <defs>
       <path d="M 10.59375 35.5 
L 73.1875 35.5 
L 73.1875 27.203125 
L 10.59375 27.203125 
z
" id="DejaVuSans-2212"/>
       <path d="M 10.6875 12.40625 
L 21 12.40625 
L 21 0 
L 10.6875 0 
z
" id="DejaVuSans-2e"/>
       <path d="M 10.796875 72.90625 
L 49.515625 72.90625 
L 49.515625 64.59375 
L 19.828125 64.59375 
L 19.828125 46.734375 
Q 21.96875 47.46875 24.109375 47.828125 
Q 26.265625 48.1875 28.421875 48.1875 
Q 40.625 48.1875 47.75 41.5 
Q 54.890625 34.8125 54.890625 23.390625 
Q 54.890625 11.625 47.5625 5.09375 
Q 40.234375 -1.421875 26.90625 -1.421875 
Q 22.3125 -1.421875 17.546875 -0.640625 
Q 12.796875 0.140625 7.71875 1.703125 
L 7.71875 11.625 
Q 12.109375 9.234375 16.796875 8.0625 
Q 21.484375 6.890625 26.703125 6.890625 
Q 35.15625 6.890625 40.078125 11.328125 
Q 45.015625 15.765625 45.015625 23.390625 
Q 45.015625 31 40.078125 35.4375 
Q 35.15625 39.890625 26.703125 39.890625 
Q 22.75 39.890625 18.8125 39.015625 
Q 14.890625 38.140625 10.796875 36.28125 
z
" id="DejaVuSans-35"/>
      </defs>
      <g transform="translate(19.954687 306.252238)scale(0.1 -0.1)">
       <use xlink:href="#DejaVuSans-2212"/>
       <use x="83.789062" xlink:href="#DejaVuSans-30"/>
       <use x="147.412109" xlink:href="#DejaVuSans-2e"/>
       <use x="179.199219" xlink:href="#DejaVuSans-31"/>
       <use x="242.822266" xlink:href="#DejaVuSans-35"/>
      </g>
     </g>
    </g>
    <g id="ytick_2">
     <g id="line2d_53">
      <path clip-path="url(#p9ba695b74c)" d="M 57.6 262.270888 
L 414.72 262.270888 
" style="fill:none;stroke:#b0b0b0;stroke-linecap:square;stroke-width:0.8;"/>
     </g>
     <g id="line2d_54">
      <g>
       <use style="stroke:#000000;stroke-width:0.8;" x="57.6" xlink:href="#m0b1ea58103" y="262.270888"/>
      </g>
     </g>
     <g id="text_8">
      <!-- −0.10 -->
      <g transform="translate(19.954687 266.070107)scale(0.1 -0.1)">
       <use xlink:href="#DejaVuSans-2212"/>
       <use x="83.789062" xlink:href="#DejaVuSans-30"/>
       <use x="147.412109" xlink:href="#DejaVuSans-2e"/>
       <use x="179.199219" xlink:href="#DejaVuSans-31"/>
       <use x="242.822266" xlink:href="#DejaVuSans-30"/>
      </g>
     </g>
    </g>
    <g id="ytick_3">
     <g id="line2d_55">
      <path clip-path="url(#p9ba695b74c)" d="M 57.6 222.088758 
L 414.72 222.088758 
" style="fill:none;stroke:#b0b0b0;stroke-linecap:square;stroke-width:0.8;"/>
     </g>
     <g id="line2d_56">
      <g>
       <use style="stroke:#000000;stroke-width:0.8;" x="57.6" xlink:href="#m0b1ea58103" y="222.088758"/>
      </g>
     </g>
     <g id="text_9">
      <!-- −0.05 -->
      <g transform="translate(19.954687 225.887976)scale(0.1 -0.1)">
       <use xlink:href="#DejaVuSans-2212"/>
       <use x="83.789062" xlink:href="#DejaVuSans-30"/>
       <use x="147.412109" xlink:href="#DejaVuSans-2e"/>
       <use x="179.199219" xlink:href="#DejaVuSans-30"/>
       <use x="242.822266" xlink:href="#DejaVuSans-35"/>
      </g>
     </g>
    </g>
    <g id="ytick_4">
     <g id="line2d_57">
      <path clip-path="url(#p9ba695b74c)" d="M 57.6 181.906627 
L 414.72 181.906627 
" style="fill:none;stroke:#b0b0b0;stroke-linecap:square;stroke-width:0.8;"/>
     </g>
     <g id="line2d_58">
      <g>
       <use style="stroke:#000000;stroke-width:0.8;" x="57.6" xlink:href="#m0b1ea58103" y="181.906627"/>
      </g>
     </g>
     <g id="text_10">
      <!-- 0.00 -->
      <g transform="translate(28.334375 185.705846)scale(0.1 -0.1)">
       <use xlink:href="#DejaVuSans-30"/>
       <use x="63.623047" xlink:href="#DejaVuSans-2e"/>
       <use x="95.410156" xlink:href="#DejaVuSans-30"/>
       <use x="159.033203" xlink:href="#DejaVuSans-30"/>
      </g>
     </g>
    </g>
    <g id="ytick_5">
     <g id="line2d_59">
      <path clip-path="url(#p9ba695b74c)" d="M 57.6 141.724496 
L 414.72 141.724496 
" style="fill:none;stroke:#b0b0b0;stroke-linecap:square;stroke-width:0.8;"/>
     </g>
     <g id="line2d_60">
      <g>
       <use style="stroke:#000000;stroke-width:0.8;" x="57.6" xlink:href="#m0b1ea58103" y="141.724496"/>
      </g>
     </g>
     <g id="text_11">
      <!-- 0.05 -->
      <g transform="translate(28.334375 145.523715)scale(0.1 -0.1)">
       <use xlink:href="#DejaVuSans-30"/>
       <use x="63.623047" xlink:href="#DejaVuSans-2e"/>
       <use x="95.410156" xlink:href="#DejaVuSans-30"/>
       <use x="159.033203" xlink:href="#DejaVuSans-35"/>
      </g>
     </g>
    </g>
    <g id="ytick_6">
     <g id="line2d_61">
      <path clip-path="url(#p9ba695b74c)" d="M 57.6 101.542366 
L 414.72 101.542366 
" style="fill:none;stroke:#b0b0b0;stroke-linecap:square;stroke-width:0.8;"/>
     </g>
     <g id="line2d_62">
      <g>
       <use style="stroke:#000000;stroke-width:0.8;" x="57.6" xlink:href="#m0b1ea58103" y="101.542366"/>
      </g>
     </g>
     <g id="text_12">
      <!-- 0.10 -->
      <g transform="translate(28.334375 105.341584)scale(0.1 -0.1)">
       <use xlink:href="#DejaVuSans-30"/>
       <use x="63.623047" xlink:href="#DejaVuSans-2e"/>
       <use x="95.410156" xlink:href="#DejaVuSans-31"/>
       <use x="159.033203" xlink:href="#DejaVuSans-30"/>
      </g>
     </g>
    </g>
    <g id="ytick_7">
     <g id="line2d_63">
      <path clip-path="url(#p9ba695b74c)" d="M 57.6 61.360235 
L 414.72 61.360235 
" style="fill:none;stroke:#b0b0b0;stroke-linecap:square;stroke-width:0.8;"/>
     </g>
     <g id="line2d_64">
      <g>
       <use style="stroke:#000000;stroke-width:0.8;" x="57.6" xlink:href="#m0b1ea58103" y="61.360235"/>
      </g>
     </g>
     <g id="text_13">
      <!-- 0.15 -->
      <g transform="translate(28.334375 65.159454)scale(0.1 -0.1)">
       <use xlink:href="#DejaVuSans-30"/>
       <use x="63.623047" xlink:href="#DejaVuSans-2e"/>
       <use x="95.410156" xlink:href="#DejaVuSans-31"/>
       <use x="159.033203" xlink:href="#DejaVuSans-35"/>
      </g>
     </g>
    </g>
    <g id="ytick_8">
     <g id="line2d_65">
      <path clip-path="url(#p9ba695b74c)" d="M 57.6 294.416593 
L 414.72 294.416593 
" style="fill:none;stroke:#b0b0b0;stroke-linecap:square;stroke-width:0.8;"/>
     </g>
     <g id="line2d_66">
      <defs>
       <path d="M 0 0 
L -2 0 
" id="m12932875fd" style="stroke:#000000;stroke-width:0.6;"/>
      </defs>
      <g>
       <use style="stroke:#000000;stroke-width:0.6;" x="57.6" xlink:href="#m12932875fd" y="294.416593"/>
      </g>
     </g>
    </g>
    <g id="ytick_9">
     <g id="line2d_67">
      <path clip-path="url(#p9ba695b74c)" d="M 57.6 286.380167 
L 414.72 286.380167 
" style="fill:none;stroke:#b0b0b0;stroke-linecap:square;stroke-width:0.8;"/>
     </g>
     <g id="line2d_68">
      <g>
       <use style="stroke:#000000;stroke-width:0.6;" x="57.6" xlink:href="#m12932875fd" y="286.380167"/>
      </g>
     </g>
    </g>
    <g id="ytick_10">
     <g id="line2d_69">
      <path clip-path="url(#p9ba695b74c)" d="M 57.6 278.343741 
L 414.72 278.343741 
" style="fill:none;stroke:#b0b0b0;stroke-linecap:square;stroke-width:0.8;"/>
     </g>
     <g id="line2d_70">
      <g>
       <use style="stroke:#000000;stroke-width:0.6;" x="57.6" xlink:href="#m12932875fd" y="278.343741"/>
      </g>
     </g>
    </g>
    <g id="ytick_11">
     <g id="line2d_71">
      <path clip-path="url(#p9ba695b74c)" d="M 57.6 270.307315 
L 414.72 270.307315 
" style="fill:none;stroke:#b0b0b0;stroke-linecap:square;stroke-width:0.8;"/>
     </g>
     <g id="line2d_72">
      <g>
       <use style="stroke:#000000;stroke-width:0.6;" x="57.6" xlink:href="#m12932875fd" y="270.307315"/>
      </g>
     </g>
    </g>
    <g id="ytick_12">
     <g id="line2d_73">
      <path clip-path="url(#p9ba695b74c)" d="M 57.6 262.270888 
L 414.72 262.270888 
" style="fill:none;stroke:#b0b0b0;stroke-linecap:square;stroke-width:0.8;"/>
     </g>
     <g id="line2d_74">
      <g>
       <use style="stroke:#000000;stroke-width:0.6;" x="57.6" xlink:href="#m12932875fd" y="262.270888"/>
      </g>
     </g>
    </g>
    <g id="ytick_13">
     <g id="line2d_75">
      <path clip-path="url(#p9ba695b74c)" d="M 57.6 254.234462 
L 414.72 254.234462 
" style="fill:none;stroke:#b0b0b0;stroke-linecap:square;stroke-width:0.8;"/>
     </g>
     <g id="line2d_76">
      <g>
       <use style="stroke:#000000;stroke-width:0.6;" x="57.6" xlink:href="#m12932875fd" y="254.234462"/>
      </g>
     </g>
    </g>
    <g id="ytick_14">
     <g id="line2d_77">
      <path clip-path="url(#p9ba695b74c)" d="M 57.6 246.198036 
L 414.72 246.198036 
" style="fill:none;stroke:#b0b0b0;stroke-linecap:square;stroke-width:0.8;"/>
     </g>
     <g id="line2d_78">
      <g>
       <use style="stroke:#000000;stroke-width:0.6;" x="57.6" xlink:href="#m12932875fd" y="246.198036"/>
      </g>
     </g>
    </g>
    <g id="ytick_15">
     <g id="line2d_79">
      <path clip-path="url(#p9ba695b74c)" d="M 57.6 238.16161 
L 414.72 238.16161 
" style="fill:none;stroke:#b0b0b0;stroke-linecap:square;stroke-width:0.8;"/>
     </g>
     <g id="line2d_80">
      <g>
       <use style="stroke:#000000;stroke-width:0.6;" x="57.6" xlink:href="#m12932875fd" y="238.16161"/>
      </g>
     </g>
    </g>
    <g id="ytick_16">
     <g id="line2d_81">
      <path clip-path="url(#p9ba695b74c)" d="M 57.6 230.125184 
L 414.72 230.125184 
" style="fill:none;stroke:#b0b0b0;stroke-linecap:square;stroke-width:0.8;"/>
     </g>
     <g id="line2d_82">
      <g>
       <use style="stroke:#000000;stroke-width:0.6;" x="57.6" xlink:href="#m12932875fd" y="230.125184"/>
      </g>
     </g>
    </g>
    <g id="ytick_17">
     <g id="line2d_83">
      <path clip-path="url(#p9ba695b74c)" d="M 57.6 222.088758 
L 414.72 222.088758 
" style="fill:none;stroke:#b0b0b0;stroke-linecap:square;stroke-width:0.8;"/>
     </g>
     <g id="line2d_84">
      <g>
       <use style="stroke:#000000;stroke-width:0.6;" x="57.6" xlink:href="#m12932875fd" y="222.088758"/>
      </g>
     </g>
    </g>
    <g id="ytick_18">
     <g id="line2d_85">
      <path clip-path="url(#p9ba695b74c)" d="M 57.6 214.052332 
L 414.72 214.052332 
" style="fill:none;stroke:#b0b0b0;stroke-linecap:square;stroke-width:0.8;"/>
     </g>
     <g id="line2d_86">
      <g>
       <use style="stroke:#000000;stroke-width:0.6;" x="57.6" xlink:href="#m12932875fd" y="214.052332"/>
      </g>
     </g>
    </g>
    <g id="ytick_19">
     <g id="line2d_87">
      <path clip-path="url(#p9ba695b74c)" d="M 57.6 206.015905 
L 414.72 206.015905 
" style="fill:none;stroke:#b0b0b0;stroke-linecap:square;stroke-width:0.8;"/>
     </g>
     <g id="line2d_88">
      <g>
       <use style="stroke:#000000;stroke-width:0.6;" x="57.6" xlink:href="#m12932875fd" y="206.015905"/>
      </g>
     </g>
    </g>
    <g id="ytick_20">
     <g id="line2d_89">
      <path clip-path="url(#p9ba695b74c)" d="M 57.6 197.979479 
L 414.72 197.979479 
" style="fill:none;stroke:#b0b0b0;stroke-linecap:square;stroke-width:0.8;"/>
     </g>
     <g id="line2d_90">
      <g>
       <use style="stroke:#000000;stroke-width:0.6;" x="57.6" xlink:href="#m12932875fd" y="197.979479"/>
      </g>
     </g>
    </g>
    <g id="ytick_21">
     <g id="line2d_91">
      <path clip-path="url(#p9ba695b74c)" d="M 57.6 189.943053 
L 414.72 189.943053 
" style="fill:none;stroke:#b0b0b0;stroke-linecap:square;stroke-width:0.8;"/>
     </g>
     <g id="line2d_92">
      <g>
       <use style="stroke:#000000;stroke-width:0.6;" x="57.6" xlink:href="#m12932875fd" y="189.943053"/>
      </g>
     </g>
    </g>
    <g id="ytick_22">
     <g id="line2d_93">
      <path clip-path="url(#p9ba695b74c)" d="M 57.6 181.906627 
L 414.72 181.906627 
" style="fill:none;stroke:#b0b0b0;stroke-linecap:square;stroke-width:0.8;"/>
     </g>
     <g id="line2d_94">
      <g>
       <use style="stroke:#000000;stroke-width:0.6;" x="57.6" xlink:href="#m12932875fd" y="181.906627"/>
      </g>
     </g>
    </g>
    <g id="ytick_23">
     <g id="line2d_95">
      <path clip-path="url(#p9ba695b74c)" d="M 57.6 173.870201 
L 414.72 173.870201 
" style="fill:none;stroke:#b0b0b0;stroke-linecap:square;stroke-width:0.8;"/>
     </g>
     <g id="line2d_96">
      <g>
       <use style="stroke:#000000;stroke-width:0.6;" x="57.6" xlink:href="#m12932875fd" y="173.870201"/>
      </g>
     </g>
    </g>
    <g id="ytick_24">
     <g id="line2d_97">
      <path clip-path="url(#p9ba695b74c)" d="M 57.6 165.833775 
L 414.72 165.833775 
" style="fill:none;stroke:#b0b0b0;stroke-linecap:square;stroke-width:0.8;"/>
     </g>
     <g id="line2d_98">
      <g>
       <use style="stroke:#000000;stroke-width:0.6;" x="57.6" xlink:href="#m12932875fd" y="165.833775"/>
      </g>
     </g>
    </g>
    <g id="ytick_25">
     <g id="line2d_99">
      <path clip-path="url(#p9ba695b74c)" d="M 57.6 157.797349 
L 414.72 157.797349 
" style="fill:none;stroke:#b0b0b0;stroke-linecap:square;stroke-width:0.8;"/>
     </g>
     <g id="line2d_100">
      <g>
       <use style="stroke:#000000;stroke-width:0.6;" x="57.6" xlink:href="#m12932875fd" y="157.797349"/>
      </g>
     </g>
    </g>
    <g id="ytick_26">
     <g id="line2d_101">
      <path clip-path="url(#p9ba695b74c)" d="M 57.6 149.760922 
L 414.72 149.760922 
" style="fill:none;stroke:#b0b0b0;stroke-linecap:square;stroke-width:0.8;"/>
     </g>
     <g id="line2d_102">
      <g>
       <use style="stroke:#000000;stroke-width:0.6;" x="57.6" xlink:href="#m12932875fd" y="149.760922"/>
      </g>
     </g>
    </g>
    <g id="ytick_27">
     <g id="line2d_103">
      <path clip-path="url(#p9ba695b74c)" d="M 57.6 141.724496 
L 414.72 141.724496 
" style="fill:none;stroke:#b0b0b0;stroke-linecap:square;stroke-width:0.8;"/>
     </g>
     <g id="line2d_104">
      <g>
       <use style="stroke:#000000;stroke-width:0.6;" x="57.6" xlink:href="#m12932875fd" y="141.724496"/>
      </g>
     </g>
    </g>
    <g id="ytick_28">
     <g id="line2d_105">
      <path clip-path="url(#p9ba695b74c)" d="M 57.6 133.68807 
L 414.72 133.68807 
" style="fill:none;stroke:#b0b0b0;stroke-linecap:square;stroke-width:0.8;"/>
     </g>
     <g id="line2d_106">
      <g>
       <use style="stroke:#000000;stroke-width:0.6;" x="57.6" xlink:href="#m12932875fd" y="133.68807"/>
      </g>
     </g>
    </g>
    <g id="ytick_29">
     <g id="line2d_107">
      <path clip-path="url(#p9ba695b74c)" d="M 57.6 125.651644 
L 414.72 125.651644 
" style="fill:none;stroke:#b0b0b0;stroke-linecap:square;stroke-width:0.8;"/>
     </g>
     <g id="line2d_108">
      <g>
       <use style="stroke:#000000;stroke-width:0.6;" x="57.6" xlink:href="#m12932875fd" y="125.651644"/>
      </g>
     </g>
    </g>
    <g id="ytick_30">
     <g id="line2d_109">
      <path clip-path="url(#p9ba695b74c)" d="M 57.6 117.615218 
L 414.72 117.615218 
" style="fill:none;stroke:#b0b0b0;stroke-linecap:square;stroke-width:0.8;"/>
     </g>
     <g id="line2d_110">
      <g>
       <use style="stroke:#000000;stroke-width:0.6;" x="57.6" xlink:href="#m12932875fd" y="117.615218"/>
      </g>
     </g>
    </g>
    <g id="ytick_31">
     <g id="line2d_111">
      <path clip-path="url(#p9ba695b74c)" d="M 57.6 109.578792 
L 414.72 109.578792 
" style="fill:none;stroke:#b0b0b0;stroke-linecap:square;stroke-width:0.8;"/>
     </g>
     <g id="line2d_112">
      <g>
       <use style="stroke:#000000;stroke-width:0.6;" x="57.6" xlink:href="#m12932875fd" y="109.578792"/>
      </g>
     </g>
    </g>
    <g id="ytick_32">
     <g id="line2d_113">
      <path clip-path="url(#p9ba695b74c)" d="M 57.6 101.542366 
L 414.72 101.542366 
" style="fill:none;stroke:#b0b0b0;stroke-linecap:square;stroke-width:0.8;"/>
     </g>
     <g id="line2d_114">
      <g>
       <use style="stroke:#000000;stroke-width:0.6;" x="57.6" xlink:href="#m12932875fd" y="101.542366"/>
      </g>
     </g>
    </g>
    <g id="ytick_33">
     <g id="line2d_115">
      <path clip-path="url(#p9ba695b74c)" d="M 57.6 93.505939 
L 414.72 93.505939 
" style="fill:none;stroke:#b0b0b0;stroke-linecap:square;stroke-width:0.8;"/>
     </g>
     <g id="line2d_116">
      <g>
       <use style="stroke:#000000;stroke-width:0.6;" x="57.6" xlink:href="#m12932875fd" y="93.505939"/>
      </g>
     </g>
    </g>
    <g id="ytick_34">
     <g id="line2d_117">
      <path clip-path="url(#p9ba695b74c)" d="M 57.6 85.469513 
L 414.72 85.469513 
" style="fill:none;stroke:#b0b0b0;stroke-linecap:square;stroke-width:0.8;"/>
     </g>
     <g id="line2d_118">
      <g>
       <use style="stroke:#000000;stroke-width:0.6;" x="57.6" xlink:href="#m12932875fd" y="85.469513"/>
      </g>
     </g>
    </g>
    <g id="ytick_35">
     <g id="line2d_119">
      <path clip-path="url(#p9ba695b74c)" d="M 57.6 77.433087 
L 414.72 77.433087 
" style="fill:none;stroke:#b0b0b0;stroke-linecap:square;stroke-width:0.8;"/>
     </g>
     <g id="line2d_120">
      <g>
       <use style="stroke:#000000;stroke-width:0.6;" x="57.6" xlink:href="#m12932875fd" y="77.433087"/>
      </g>
     </g>
    </g>
    <g id="ytick_36">
     <g id="line2d_121">
      <path clip-path="url(#p9ba695b74c)" d="M 57.6 69.396661 
L 414.72 69.396661 
" style="fill:none;stroke:#b0b0b0;stroke-linecap:square;stroke-width:0.8;"/>
     </g>
     <g id="line2d_122">
      <g>
       <use style="stroke:#000000;stroke-width:0.6;" x="57.6" xlink:href="#m12932875fd" y="69.396661"/>
      </g>
     </g>
    </g>
    <g id="ytick_37">
     <g id="line2d_123">
      <path clip-path="url(#p9ba695b74c)" d="M 57.6 61.360235 
L 414.72 61.360235 
" style="fill:none;stroke:#b0b0b0;stroke-linecap:square;stroke-width:0.8;"/>
     </g>
     <g id="line2d_124">
      <g>
       <use style="stroke:#000000;stroke-width:0.6;" x="57.6" xlink:href="#m12932875fd" y="61.360235"/>
      </g>
     </g>
    </g>
    <g id="ytick_38">
     <g id="line2d_125">
      <path clip-path="url(#p9ba695b74c)" d="M 57.6 53.323809 
L 414.72 53.323809 
" style="fill:none;stroke:#b0b0b0;stroke-linecap:square;stroke-width:0.8;"/>
     </g>
     <g id="line2d_126">
      <g>
       <use style="stroke:#000000;stroke-width:0.6;" x="57.6" xlink:href="#m12932875fd" y="53.323809"/>
      </g>
     </g>
    </g>
    <g id="ytick_39">
     <g id="line2d_127">
      <path clip-path="url(#p9ba695b74c)" d="M 57.6 45.287382 
L 414.72 45.287382 
" style="fill:none;stroke:#b0b0b0;stroke-linecap:square;stroke-width:0.8;"/>
     </g>
     <g id="line2d_128">
      <g>
       <use style="stroke:#000000;stroke-width:0.6;" x="57.6" xlink:href="#m12932875fd" y="45.287382"/>
      </g>
     </g>
    </g>
    <g id="text_14">
     <!-- trans y -->
     <defs>
      <path d="M 18.3125 70.21875 
L 18.3125 54.6875 
L 36.8125 54.6875 
L 36.8125 47.703125 
L 18.3125 47.703125 
L 18.3125 18.015625 
Q 18.3125 11.328125 20.140625 9.421875 
Q 21.96875 7.515625 27.59375 7.515625 
L 36.8125 7.515625 
L 36.8125 0 
L 27.59375 0 
Q 17.1875 0 13.234375 3.875 
Q 9.28125 7.765625 9.28125 18.015625 
L 9.28125 47.703125 
L 2.6875 47.703125 
L 2.6875 54.6875 
L 9.28125 54.6875 
L 9.28125 70.21875 
z
" id="DejaVuSans-74"/>
      <path d="M 54.890625 33.015625 
L 54.890625 0 
L 45.90625 0 
L 45.90625 32.71875 
Q 45.90625 40.484375 42.875 44.328125 
Q 39.84375 48.1875 33.796875 48.1875 
Q 26.515625 48.1875 22.3125 43.546875 
Q 18.109375 38.921875 18.109375 30.90625 
L 18.109375 0 
L 9.078125 0 
L 9.078125 54.6875 
L 18.109375 54.6875 
L 18.109375 46.1875 
Q 21.34375 51.125 25.703125 53.5625 
Q 30.078125 56 35.796875 56 
Q 45.21875 56 50.046875 50.171875 
Q 54.890625 44.34375 54.890625 33.015625 
z
" id="DejaVuSans-6e"/>
      <path d="M 44.28125 53.078125 
L 44.28125 44.578125 
Q 40.484375 46.53125 36.375 47.5 
Q 32.28125 48.484375 27.875 48.484375 
Q 21.1875 48.484375 17.84375 46.4375 
Q 14.5 44.390625 14.5 40.28125 
Q 14.5 37.15625 16.890625 35.375 
Q 19.28125 33.59375 26.515625 31.984375 
L 29.59375 31.296875 
Q 39.15625 29.25 43.1875 25.515625 
Q 47.21875 21.78125 47.21875 15.09375 
Q 47.21875 7.46875 41.1875 3.015625 
Q 35.15625 -1.421875 24.609375 -1.421875 
Q 20.21875 -1.421875 15.453125 -0.5625 
Q 10.6875 0.296875 5.421875 2 
L 5.421875 11.28125 
Q 10.40625 8.6875 15.234375 7.390625 
Q 20.0625 6.109375 24.8125 6.109375 
Q 31.15625 6.109375 34.5625 8.28125 
Q 37.984375 10.453125 37.984375 14.40625 
Q 37.984375 18.0625 35.515625 20.015625 
Q 33.0625 21.96875 24.703125 23.78125 
L 21.578125 24.515625 
Q 13.234375 26.265625 9.515625 29.90625 
Q 5.8125 33.546875 5.8125 39.890625 
Q 5.8125 47.609375 11.28125 51.796875 
Q 16.75 56 26.8125 56 
Q 31.78125 56 36.171875 55.265625 
Q 40.578125 54.546875 44.28125 53.078125 
z
" id="DejaVuSans-73"/>
      <path d="M 32.171875 -5.078125 
Q 28.375 -14.84375 24.75 -17.8125 
Q 21.140625 -20.796875 15.09375 -20.796875 
L 7.90625 -20.796875 
L 7.90625 -13.28125 
L 13.1875 -13.28125 
Q 16.890625 -13.28125 18.9375 -11.515625 
Q 21 -9.765625 23.484375 -3.21875 
L 25.09375 0.875 
L 2.984375 54.6875 
L 12.5 54.6875 
L 29.59375 11.921875 
L 46.6875 54.6875 
L 56.203125 54.6875 
z
" id="DejaVuSans-79"/>
     </defs>
     <g transform="translate(13.875 191.929563)rotate(-90)scale(0.1 -0.1)">
      <use xlink:href="#DejaVuSans-74"/>
      <use x="39.208984" xlink:href="#DejaVuSans-72"/>
      <use x="80.322266" xlink:href="#DejaVuSans-61"/>
      <use x="141.601562" xlink:href="#DejaVuSans-6e"/>
      <use x="204.980469" xlink:href="#DejaVuSans-73"/>
      <use x="257.080078" xlink:href="#DejaVuSans-20"/>
      <use x="288.867188" xlink:href="#DejaVuSans-79"/>
     </g>
    </g>
   </g>
   <g id="line2d_129">
    <path clip-path="url(#p9ba695b74c)" d="M 73.832727 164.170778 
L 74.524971 157.145156 
L 75.217208 165.967303 
L 75.90628 187.045662 
L 77.290754 167.142061 
L 77.982991 162.365331 
L 78.6751 162.771662 
L 79.367337 169.85979 
L 80.059581 186.224819 
L 80.751818 178.594183 
L 81.446481 159.826655 
L 82.138725 155.512348 
L 82.830962 162.650815 
L 83.523199 167.03448 
L 84.216653 184.120395 
L 84.908883 178.763932 
L 85.601147 162.647624 
L 86.293364 166.518176 
L 86.985656 166.284679 
L 87.675135 178.57303 
L 88.367373 181.276314 
L 89.05961 183.281208 
L 89.751847 177.460859 
L 90.441987 173.356387 
L 91.13423 154.430532 
L 91.826467 146.891689 
L 92.518705 149.662503 
L 93.209773 125.335347 
L 93.902011 140.669758 
L 94.594254 167.778522 
L 95.286491 182.933631 
L 95.979336 225.721641 
L 96.671581 251.109856 
L 97.363819 250.276919 
L 98.056056 241.55433 
L 98.749362 229.401267 
L 99.44205 208.818655 
L 101.516997 93.971955 
L 102.209241 82.82226 
L 102.901478 83.574416 
L 103.593715 91.983077 
L 104.284797 109.875442 
L 104.977035 134.338132 
L 105.669272 153.655532 
L 106.361509 168.780014 
L 107.747587 224.073832 
L 108.439825 264.016562 
L 109.132062 280.036644 
L 109.824962 275.953113 
L 110.517208 262.87835 
L 111.209437 240.085215 
L 112.593675 182.685608 
L 113.285912 147.794451 
L 113.978149 127.511089 
L 114.670387 100.287507 
L 115.361972 94.151804 
L 116.054209 103.917559 
L 117.438683 139.641511 
L 118.130907 230.89463 
L 118.823151 203.378661 
L 119.515395 228.023603 
L 120.207625 235.179102 
L 120.899869 261.567377 
L 121.594579 260.835236 
L 122.286816 241.482756 
L 122.97906 211.804076 
L 124.363909 121.640661 
L 125.748383 74.400583 
L 126.44062 77.703752 
L 127.129632 118.123784 
L 127.82187 121.796304 
L 128.514107 168.779068 
L 129.206344 198.420589 
L 131.284145 275.053913 
L 131.976389 254.654371 
L 132.670814 250.961424 
L 133.363058 209.433619 
L 134.055295 204.392052 
L 134.747532 162.744321 
L 135.437802 129.682035 
L 136.130039 107.325285 
L 136.822277 91.747533 
L 137.514514 88.155364 
L 138.204709 95.548959 
L 138.896947 113.523375 
L 139.589184 127.633411 
L 142.360573 269.709502 
L 143.05281 282.105614 
L 143.744756 278.276254 
L 144.436993 242.363346 
L 145.129236 225.517284 
L 146.511257 126.282092 
L 147.203494 123.356194 
L 147.895731 119.468081 
L 148.588378 132.906784 
L 149.281455 134.190838 
L 150.665929 272.044908 
L 151.358166 255.880275 
L 152.05041 246.993217 
L 152.743731 265.076759 
L 153.435969 246.906696 
L 154.128206 211.369026 
L 154.820443 185.3172 
L 155.510224 132.549851 
L 156.20247 102.143386 
L 156.894699 96.141318 
L 157.586944 87.137323 
L 158.279343 117.528378 
L 158.97158 157.110879 
L 159.663852 204.319866 
L 160.356055 225.659051 
L 161.051271 263.081003 
L 161.743508 278.271864 
L 162.435745 270.347854 
L 163.127989 245.633253 
L 163.818557 215.717178 
L 165.203032 129.123092 
L 165.895269 109.665432 
L 166.586145 108.169078 
L 167.278382 129.307881 
L 167.970626 138.095041 
L 168.662863 178.87577 
L 169.356457 199.915544 
L 170.048694 233.338997 
L 170.740931 245.639006 
L 171.433168 268.276479 
L 172.125831 259.007008 
L 172.818048 241.040984 
L 173.510286 211.068314 
L 174.892987 120.120662 
L 175.585225 99.654519 
L 176.277462 92.983948 
L 176.969699 96.74537 
L 178.354724 157.415875 
L 179.739205 230.78492 
L 180.434067 263.020214 
L 181.126297 276.093145 
L 181.818534 262.984343 
L 182.510778 231.336484 
L 183.200632 219.735132 
L 183.892876 165.852236 
L 184.585113 124.816861 
L 185.2776 104.94506 
L 185.969588 107.371905 
L 187.353692 174.199899 
L 188.738167 269.024534 
M 191.509762 200.741205 
L 192.199235 157.666103 
L 192.891481 122.849363 
L 193.583718 107.327879 
L 194.275953 112.214524 
L 194.967935 139.177764 
L 196.352409 186.206832 
L 197.044646 184.081682 
L 197.738917 239.843419 
L 198.431154 247.208449 
L 199.123391 260.515499 
L 199.815628 241.263647 
L 200.508823 217.987111 
L 201.20106 177.814588 
L 201.893304 162.799359 
L 202.585541 107.681422 
L 203.275538 89.410342 
L 203.967776 81.957265 
L 204.660013 118.874904 
L 206.044672 149.648335 
L 206.736909 202.978571 
L 207.429146 236.740101 
L 208.121383 252.456507 
L 208.815873 262.906587 
L 209.50811 245.361095 
L 210.892585 186.12003 
L 211.583861 155.915132 
L 212.276099 148.95124 
L 212.968342 120.11908 
L 213.66058 124.665441 
L 214.351919 142.916545 
L 215.044156 187.22473 
L 215.736393 202.800403 
L 217.814995 270.383604 
L 218.507232 279.825656 
L 219.199469 261.10681 
L 221.277214 156.89552 
L 221.969824 129.171815 
L 222.661681 112.592559 
L 223.354881 108.544285 
L 224.047124 111.145542 
L 225.431599 126.870825 
L 226.123329 144.768016 
L 226.815566 174.148807 
L 227.507804 197.689804 
L 228.200041 227.24465 
L 228.892598 241.786979 
L 229.584835 276.750482 
L 230.277072 291.062857 
L 230.96931 295.488 
L 231.661953 279.685127 
L 232.35419 273.023715 
L 233.046427 251.821997 
L 236.511036 98.194023 
L 237.205725 70.922056 
L 237.897963 53.568 
L 238.5902 55.305331 
L 239.282437 76.563314 
L 240.658539 109.451968 
L 241.350776 129.330657 
L 242.043013 155.8868 
L 242.735331 188.582926 
L 243.427569 237.006102 
L 244.119806 261.605759 
L 244.812043 292.990574 
L 245.504977 293.075602 
L 246.197214 276.346709 
L 246.889449 265.131974 
L 247.581686 251.411339 
L 248.274878 248.021643 
L 250.351589 187.451564 
L 252.429009 105.803827 
L 253.121246 92.497296 
L 253.81349 83.130354 
L 254.500718 88.294201 
L 255.192947 88.644093 
L 255.885192 101.250788 
L 256.577429 120.886987 
L 257.269926 165.393854 
L 257.962163 157.859491 
L 258.6544 173.802169 
L 259.346637 168.696881 
L 260.040695 205.22605 
L 260.732932 219.62127 
L 261.425169 236.73449 
L 262.80931 263.459812 
L 263.501547 268.700105 
L 264.193784 253.101958 
L 264.886021 230.448352 
L 265.576308 220.778193 
L 266.268553 219.865272 
L 266.960791 174.112907 
L 267.653028 210.872167 
L 268.344813 164.379088 
L 269.03705 201.060371 
L 269.729287 210.366865 
L 270.421524 214.225979 
M 271.808522 156.010815 
L 272.500759 170.691759 
L 273.192996 223.778211 
L 273.886626 162.490426 
L 274.578864 165.972435 
M 279.422083 224.646623 
L 280.11432 216.301038 
L 280.806557 224.339043 
M 282.885262 121.996819 
L 283.576905 134.903446 
L 284.269143 140.925965 
M 291.190092 212.600811 
L 291.882329 225.506761 
L 292.574566 213.880577 
M 296.037925 207.569428 
L 296.728311 207.878525 
L 297.420548 238.384944 
L 298.112785 239.348022 
L 298.805022 251.456073 
L 299.500625 181.580567 
L 300.192862 190.60083 
M 305.72952 204.18242 
L 306.421757 214.075007 
L 307.114493 269.132011 
L 307.804746 264.149565 
L 308.496983 176.249738 
L 309.18922 199.302917 
L 309.881458 174.303866 
M 314.727973 188.769333 
L 315.42021 214.316153 
L 316.112447 251.968729 
L 316.803859 274.074747 
L 317.496096 272.352713 
L 318.188333 214.472267 
L 318.880571 203.90971 
L 319.576584 197.173141 
L 320.268821 183.441379 
L 320.961058 166.652233 
L 321.653295 158.9776 
L 322.342377 212.057045 
L 323.034614 155.967712 
L 323.726858 151.418877 
L 324.419095 154.088669 
L 325.112821 145.179329 
L 325.805058 154.537497 
L 326.497302 167.354896 
M 327.884744 216.934328 
L 328.576974 225.165501 
L 329.269218 227.708826 
L 329.961455 203.280368 
L 330.653469 196.005929 
L 331.346218 207.934052 
L 332.037944 216.383648 
L 332.730181 188.414937 
L 333.422638 192.089008 
L 334.114875 163.07384 
L 334.807119 161.640853 
M 337.575094 203.087997 
L 338.267337 212.690235 
L 338.959426 189.454695 
L 339.651661 202.136536 
L 341.036136 186.569365 
L 341.726718 188.396983 
L 342.418955 203.858026 
L 343.111192 188.458143 
L 343.803429 202.195047 
L 344.492933 234.14433 
L 345.18517 184.172962 
L 345.877414 189.338649 
L 346.569651 196.464801 
M 347.953989 171.9159 
L 348.646226 148.024077 
M 351.414505 193.036242 
L 352.106742 198.439 
L 352.798979 209.733399 
L 353.491776 226.633472 
L 354.184019 240.079233 
L 354.87625 233.74923 
L 355.569124 199.889147 
L 356.26317 134.203827 
L 356.955416 182.069704 
L 357.647653 155.406916 
L 358.33989 152.935608 
L 359.029714 144.074443 
L 359.721951 147.409661 
M 361.106426 150.086076 
L 361.799274 175.857412 
L 362.491511 176.529975 
L 363.183748 187.860352 
L 363.875985 214.793209 
L 364.568397 230.050197 
L 365.260626 212.453656 
M 366.6451 186.075275 
L 367.338052 178.980965 
L 368.722533 200.145528 
L 369.41477 200.300428 
L 370.107983 238.637824 
L 370.80022 185.358092 
L 371.492457 199.802136 
L 372.184694 181.647726 
L 372.877912 143.9567 
L 373.570157 151.125873 
L 374.262395 151.84436 
L 374.95463 165.279589 
M 376.34006 186.152115 
L 377.032291 185.530772 
L 377.724534 180.98335 
M 380.492239 162.000689 
L 381.184476 165.4495 
L 381.876099 141.947406 
L 382.568336 156.90996 
L 383.260573 157.236239 
L 383.952811 169.313361 
L 384.644637 178.146999 
L 385.336874 181.867809 
L 386.029111 195.831869 
L 386.721348 186.779574 
L 387.412183 174.841802 
L 388.104412 170.716219 
L 388.796657 161.521872 
M 390.179932 158.251792 
L 390.872169 168.028474 
L 391.564426 164.405321 
L 392.256643 188.33584 
L 392.948735 170.262277 
L 393.640972 167.811802 
L 394.333209 164.67486 
L 395.025447 164.333227 
L 395.717867 166.592674 
L 396.410104 170.73709 
L 396.410104 170.73709 
" style="fill:none;stroke:#ff0000;stroke-linecap:square;"/>
   </g>
   <g id="line2d_130">
    <path clip-path="url(#p9ba695b74c)" d="M 73.832727 163.535878 
L 74.524971 160.942271 
L 75.217208 162.748913 
L 75.90628 175.154265 
L 76.598517 174.666241 
L 77.290754 165.323237 
L 77.982991 161.029873 
L 78.6751 160.422834 
L 79.367337 167.858947 
L 80.059581 182.558664 
L 80.751818 174.070451 
L 81.446481 161.234642 
L 82.138725 155.154453 
L 82.830962 157.383889 
L 83.523199 162.815022 
L 84.216653 177.857734 
L 84.908883 171.667162 
L 85.601147 167.522534 
L 86.293364 165.246346 
L 86.985656 166.744422 
L 88.367373 182.892412 
L 89.05961 182.648648 
L 89.751847 179.238036 
L 90.441987 174.763628 
L 91.13423 159.118404 
L 91.826467 146.8599 
L 92.518705 131.110625 
L 93.209773 127.181082 
L 93.902011 137.71092 
L 94.594254 157.539541 
L 95.286491 186.275638 
L 95.979336 226.607395 
L 96.671581 251.191901 
L 97.363819 252.593395 
L 98.056056 247.430192 
L 98.749362 233.138335 
L 99.44205 210.762771 
L 100.133837 176.556918 
L 101.516997 100.264145 
L 102.209241 83.436686 
L 102.901478 82.466097 
L 103.593715 91.98109 
L 104.977035 126.055442 
L 105.669272 146.45735 
L 107.747587 228.251983 
L 108.439825 260.707634 
L 109.132062 279.216235 
L 109.824962 281.128836 
L 110.517208 266.602358 
L 111.209437 246.691357 
L 111.901674 218.220296 
L 113.285912 148.246513 
L 114.670387 98.97263 
L 115.361972 88.475023 
L 116.054209 98.472597 
L 116.746446 117.094015 
L 117.438683 141.569748 
L 118.823151 204.103843 
L 119.515395 228.416428 
L 120.899869 255.156055 
L 121.594579 260.170769 
L 122.286816 245.320141 
L 122.97906 212.58626 
L 125.056146 95.838256 
L 125.748383 75.341444 
L 126.44062 78.56734 
L 127.129632 98.020472 
L 127.82187 123.664446 
L 129.89967 229.690678 
L 130.591908 254.986787 
L 131.284145 269.585341 
L 131.976389 257.862535 
L 132.670814 240.572739 
L 133.363058 217.897965 
L 134.747532 154.579119 
L 136.822277 93.790319 
L 137.514514 87.354485 
L 138.204709 95.778991 
L 139.589184 127.73099 
L 140.281421 156.579399 
L 141.668336 234.455672 
L 142.360573 269.156985 
L 143.05281 286.994415 
L 143.744756 283.027194 
L 144.436993 260.055204 
L 145.129236 220.553205 
L 145.821474 174.571481 
L 146.511257 137.535911 
L 147.203494 113.723623 
L 147.895731 102.476416 
L 148.588378 113.144877 
L 149.281455 147.311396 
L 150.665929 225.877904 
L 151.358166 257.992365 
L 152.05041 266.886627 
L 152.743731 257.726442 
L 153.435969 242.680793 
L 154.128206 215.237147 
L 155.510224 135.095626 
L 156.20247 103.3433 
L 156.894699 89.739151 
L 157.586944 94.912309 
L 158.279343 113.220352 
L 158.97158 153.739036 
L 159.663852 201.108115 
L 160.356055 239.25889 
L 161.051271 266.156451 
L 161.743508 277.8296 
L 162.435745 271.970525 
L 163.127989 249.611955 
L 163.818557 219.553379 
L 165.203032 138.709632 
L 165.895269 109.805226 
L 166.586145 103.831922 
L 167.278382 111.285618 
L 167.970626 130.688334 
L 170.048694 231.740299 
L 171.433168 264.121935 
L 172.125831 256.846594 
L 172.818048 235.821301 
L 173.510286 206.183744 
L 174.892987 125.092137 
L 175.585225 98.265542 
L 176.277462 87.422093 
L 176.969699 94.398228 
L 177.662487 119.304868 
L 178.354724 154.300217 
L 179.046962 199.769561 
L 179.739205 236.023061 
L 180.434067 262.926331 
L 181.126297 276.405789 
L 181.818534 264.014526 
L 183.200632 211.176853 
L 184.585113 126.172634 
L 185.2776 108.643655 
L 185.969588 106.997527 
L 186.661455 132.649332 
L 188.738167 264.806257 
M 191.509762 207.319022 
L 192.199235 163.679204 
L 192.891481 127.552754 
L 193.583718 107.471667 
L 194.275953 98.65689 
L 194.967935 111.693573 
L 195.660172 139.426967 
L 197.044646 223.527831 
L 197.738917 250.125737 
L 198.431154 255.14174 
L 199.123391 258.757559 
L 199.815628 247.979962 
L 200.508823 218.516894 
L 201.893304 141.112569 
L 202.585541 110.34311 
L 203.275538 88.340016 
L 203.967776 81.709965 
L 204.660013 92.079291 
L 205.35225 123.033568 
L 207.429146 235.997763 
L 208.121383 257.042799 
L 208.815873 261.289255 
L 209.50811 245.369366 
L 212.276099 134.6607 
L 212.968342 121.905957 
L 213.66058 122.19763 
L 214.351919 135.804734 
L 215.736393 194.802502 
L 217.120874 261.436953 
L 217.814995 274.292434 
L 218.507232 277.525809 
L 219.199469 262.009461 
L 219.891706 234.745108 
L 221.969824 127.860551 
L 222.661681 110.50645 
L 223.354881 108.442732 
L 224.047124 110.530909 
L 224.739362 116.21515 
L 225.431599 124.091698 
L 226.123329 142.86203 
L 228.200041 220.428303 
L 228.892598 244.438225 
L 229.584835 274.410191 
L 230.277072 288.326422 
L 230.96931 287.530665 
L 232.35419 268.864758 
L 233.046427 251.855115 
L 233.738664 225.983685 
L 235.126562 159.786615 
L 236.511036 100.639058 
L 237.205725 69.188069 
L 237.897963 54.044074 
L 238.5902 55.771767 
L 239.282437 77.42872 
L 239.966295 93.553392 
L 240.658539 104.34915 
L 242.043013 152.319414 
L 242.735331 185.909171 
L 244.119806 266.876507 
L 244.812043 290.259732 
L 245.504977 291.332099 
L 247.581686 250.932105 
L 248.274878 245.178524 
L 248.967115 231.395386 
L 250.351589 185.524293 
L 252.429009 102.396068 
L 253.81349 79.849793 
L 254.500718 79.605938 
L 255.192947 88.324442 
L 255.885192 98.672426 
L 256.577429 112.209818 
L 257.269926 141.600945 
L 258.6544 183.817667 
L 259.346637 197.312209 
L 260.040695 207.215699 
L 260.732932 218.792961 
L 262.117406 252.705505 
L 262.80931 263.014955 
L 263.501547 262.208402 
L 264.193784 255.997668 
L 264.886021 243.885982 
L 265.576308 219.370866 
L 266.268553 198.917767 
L 266.960791 187.313626 
L 268.344813 182.068069 
L 269.03705 178.387739 
L 269.729287 176.828189 
L 270.421524 166.220507 
M 271.808522 169.673587 
L 272.500759 170.989989 
L 273.192996 164.406381 
L 273.886626 158.913603 
L 274.578864 166.993001 
M 279.422083 214.61965 
L 280.11432 216.33454 
L 280.806557 219.910826 
M 282.885262 188.440817 
L 283.576905 152.989204 
L 284.269143 133.222242 
M 291.190092 211.752271 
L 291.882329 225.045537 
L 292.574566 226.400842 
M 296.037925 176.51475 
L 297.420548 247.674177 
L 298.112785 261.25324 
L 298.805022 255.013634 
L 299.500625 227.261298 
L 300.192862 195.193631 
M 305.72952 206.703672 
L 306.421757 217.999734 
L 307.114493 227.164356 
L 307.804746 234.679559 
L 308.496983 226.106752 
L 309.881458 180.208883 
M 314.727973 210.825528 
L 316.112447 253.142165 
L 316.803859 265.351543 
L 317.496096 261.002419 
L 318.880571 205.66388 
L 319.576584 185.801479 
L 320.268821 174.325362 
L 320.961058 173.131557 
L 321.653295 174.356462 
L 322.342377 172.183947 
L 323.034614 164.568204 
L 323.726858 158.395418 
L 325.112821 148.823343 
L 325.805058 154.293174 
L 326.497302 165.097006 
M 327.884744 217.547141 
L 328.576974 228.09019 
L 329.269218 229.624045 
L 330.653469 215.396343 
L 331.346218 210.821449 
L 332.037944 204.676903 
L 332.730181 196.06531 
L 333.422638 189.467674 
L 334.114875 170.659539 
L 334.807119 162.245262 
M 337.575094 210.001816 
L 338.267337 211.612176 
L 338.959426 205.690927 
L 339.651661 201.970951 
L 340.343899 194.850459 
L 341.036136 185.542819 
L 341.726718 183.980247 
L 342.418955 185.540527 
L 343.111192 185.748717 
L 343.803429 193.079632 
L 344.492933 196.286862 
L 345.18517 195.590551 
L 345.877414 196.443083 
L 346.569651 192.829653 
M 347.953989 173.448333 
L 348.646226 163.465421 
M 351.414505 179.04684 
L 352.106742 189.594785 
L 353.491776 239.79092 
L 354.184019 249.310784 
L 354.87625 243.790813 
L 356.26317 192.16367 
L 356.955416 173.318726 
L 357.647653 160.676532 
L 358.33989 150.390689 
L 359.029714 147.602652 
L 359.721951 151.141444 
M 361.106426 163.339677 
L 361.799274 170.986228 
L 362.491511 180.20607 
L 363.875985 219.367883 
L 364.568397 224.93457 
L 365.260626 217.221537 
M 366.6451 195.173075 
L 367.338052 191.525543 
L 368.030296 195.054495 
L 368.722533 203.713795 
L 369.41477 208.568488 
L 370.107983 209.58688 
L 371.492457 183.20823 
L 372.877912 150.073615 
L 373.570157 152.379384 
L 374.262395 156.491085 
L 374.95463 158.647527 
M 376.34006 180.936368 
L 377.032291 184.982757 
L 377.724534 194.273427 
M 380.492239 187.042828 
L 381.184476 167.421096 
L 381.876099 154.133895 
L 382.568336 151.688077 
L 383.260573 157.421228 
L 383.952811 166.262979 
L 384.644637 172.981759 
L 385.336874 184.606333 
L 386.029111 190.859025 
L 386.721348 186.574828 
L 387.412183 180.890828 
L 388.104412 171.583665 
L 388.796657 160.406953 
M 390.179932 157.774032 
L 390.872169 166.549163 
L 391.564426 170.174457 
L 392.256643 179.323516 
L 392.948735 174.336784 
L 393.640972 165.67965 
L 394.333209 164.566326 
L 395.025447 166.6897 
L 395.717867 166.941906 
L 396.410104 172.056316 
L 396.410104 172.056316 
" style="fill:none;stroke:#0000ff;stroke-linecap:square;"/>
   </g>
   <g id="line2d_131">
    <path clip-path="url(#p9ba695b74c)" d="M 276.655785 212.883195 
L 277.348022 218.07393 
M 281.498794 220.324091 
L 282.192431 214.417536 
M 286.344534 153.359949 
L 287.036771 163.282427 
L 287.729008 179.069177 
L 288.421904 186.298093 
L 289.806385 198.417521 
L 290.498622 203.255358 
M 294.653451 173.853505 
L 295.345682 164.123257 
M 300.885099 178.848729 
L 301.577343 172.030056 
L 302.26739 171.479764 
L 302.959621 175.259516 
M 304.344095 193.127792 
L 305.037283 197.649889 
M 310.575802 165.306503 
L 311.268039 161.148389 
L 311.960277 161.666266 
L 312.65252 172.115961 
L 313.343492 187.708105 
L 314.035729 196.209248 
M 335.499356 167.776028 
L 336.882856 199.712657 
M 349.338463 152.726103 
L 350.0307 157.234666 
L 350.722267 172.0704 
M 397.102341 177.096014 
L 397.794578 180.745179 
L 398.487273 180.758627 
L 398.487273 180.758627 
" style="fill:none;stroke:#008000;stroke-linecap:square;"/>
   </g>
   <g id="patch_3">
    <path d="M 57.6 307.584 
L 57.6 41.472 
" style="fill:none;stroke:#000000;stroke-linecap:square;stroke-linejoin:miter;stroke-width:0.8;"/>
   </g>
   <g id="patch_4">
    <path d="M 414.72 307.584 
L 414.72 41.472 
" style="fill:none;stroke:#000000;stroke-linecap:square;stroke-linejoin:miter;stroke-width:0.8;"/>
   </g>
   <g id="patch_5">
    <path d="M 57.6 307.584 
L 414.72 307.584 
" style="fill:none;stroke:#000000;stroke-linecap:square;stroke-linejoin:miter;stroke-width:0.8;"/>
   </g>
   <g id="patch_6">
    <path d="M 57.6 41.472 
L 414.72 41.472 
" style="fill:none;stroke:#000000;stroke-linecap:square;stroke-linejoin:miter;stroke-width:0.8;"/>
   </g>
   <g id="text_15">
    <!-- Rel Gt Trans Y Plot -->
    <defs>
     <path d="M 44.390625 34.1875 
Q 47.5625 33.109375 50.5625 29.59375 
Q 53.5625 26.078125 56.59375 19.921875 
L 66.609375 0 
L 56 0 
L 46.6875 18.703125 
Q 43.0625 26.03125 39.671875 28.421875 
Q 36.28125 30.8125 30.421875 30.8125 
L 19.671875 30.8125 
L 19.671875 0 
L 9.8125 0 
L 9.8125 72.90625 
L 32.078125 72.90625 
Q 44.578125 72.90625 50.734375 67.671875 
Q 56.890625 62.453125 56.890625 51.90625 
Q 56.890625 45.015625 53.6875 40.46875 
Q 50.484375 35.9375 44.390625 34.1875 
z
M 19.671875 64.796875 
L 19.671875 38.921875 
L 32.078125 38.921875 
Q 39.203125 38.921875 42.84375 42.21875 
Q 46.484375 45.515625 46.484375 51.90625 
Q 46.484375 58.296875 42.84375 61.546875 
Q 39.203125 64.796875 32.078125 64.796875 
z
" id="DejaVuSans-52"/>
     <path d="M 9.421875 75.984375 
L 18.40625 75.984375 
L 18.40625 0 
L 9.421875 0 
z
" id="DejaVuSans-6c"/>
     <path d="M 59.515625 10.40625 
L 59.515625 29.984375 
L 43.40625 29.984375 
L 43.40625 38.09375 
L 69.28125 38.09375 
L 69.28125 6.78125 
Q 63.578125 2.734375 56.6875 0.65625 
Q 49.8125 -1.421875 42 -1.421875 
Q 24.90625 -1.421875 15.25 8.5625 
Q 5.609375 18.5625 5.609375 36.375 
Q 5.609375 54.25 15.25 64.234375 
Q 24.90625 74.21875 42 74.21875 
Q 49.125 74.21875 55.546875 72.453125 
Q 61.96875 70.703125 67.390625 67.28125 
L 67.390625 56.78125 
Q 61.921875 61.421875 55.765625 63.765625 
Q 49.609375 66.109375 42.828125 66.109375 
Q 29.4375 66.109375 22.71875 58.640625 
Q 16.015625 51.171875 16.015625 36.375 
Q 16.015625 21.625 22.71875 14.15625 
Q 29.4375 6.6875 42.828125 6.6875 
Q 48.046875 6.6875 52.140625 7.59375 
Q 56.25 8.5 59.515625 10.40625 
z
" id="DejaVuSans-47"/>
     <path d="M -0.296875 72.90625 
L 61.375 72.90625 
L 61.375 64.59375 
L 35.5 64.59375 
L 35.5 0 
L 25.59375 0 
L 25.59375 64.59375 
L -0.296875 64.59375 
z
" id="DejaVuSans-54"/>
     <path d="M -0.203125 72.90625 
L 10.40625 72.90625 
L 30.609375 42.921875 
L 50.6875 72.90625 
L 61.28125 72.90625 
L 35.5 34.71875 
L 35.5 0 
L 25.59375 0 
L 25.59375 34.71875 
z
" id="DejaVuSans-59"/>
     <path d="M 19.671875 64.796875 
L 19.671875 37.40625 
L 32.078125 37.40625 
Q 38.96875 37.40625 42.71875 40.96875 
Q 46.484375 44.53125 46.484375 51.125 
Q 46.484375 57.671875 42.71875 61.234375 
Q 38.96875 64.796875 32.078125 64.796875 
z
M 9.8125 72.90625 
L 32.078125 72.90625 
Q 44.34375 72.90625 50.609375 67.359375 
Q 56.890625 61.8125 56.890625 51.125 
Q 56.890625 40.328125 50.609375 34.8125 
Q 44.34375 29.296875 32.078125 29.296875 
L 19.671875 29.296875 
L 19.671875 0 
L 9.8125 0 
z
" id="DejaVuSans-50"/>
     <path d="M 30.609375 48.390625 
Q 23.390625 48.390625 19.1875 42.75 
Q 14.984375 37.109375 14.984375 27.296875 
Q 14.984375 17.484375 19.15625 11.84375 
Q 23.34375 6.203125 30.609375 6.203125 
Q 37.796875 6.203125 41.984375 11.859375 
Q 46.1875 17.53125 46.1875 27.296875 
Q 46.1875 37.015625 41.984375 42.703125 
Q 37.796875 48.390625 30.609375 48.390625 
z
M 30.609375 56 
Q 42.328125 56 49.015625 48.375 
Q 55.71875 40.765625 55.71875 27.296875 
Q 55.71875 13.875 49.015625 6.21875 
Q 42.328125 -1.421875 30.609375 -1.421875 
Q 18.84375 -1.421875 12.171875 6.21875 
Q 5.515625 13.875 5.515625 27.296875 
Q 5.515625 40.765625 12.171875 48.375 
Q 18.84375 56 30.609375 56 
z
" id="DejaVuSans-6f"/>
    </defs>
    <g transform="translate(180.31125 35.472)scale(0.12 -0.12)">
     <use xlink:href="#DejaVuSans-52"/>
     <use x="69.419922" xlink:href="#DejaVuSans-65"/>
     <use x="130.943359" xlink:href="#DejaVuSans-6c"/>
     <use x="158.726562" xlink:href="#DejaVuSans-20"/>
     <use x="190.513672" xlink:href="#DejaVuSans-47"/>
     <use x="268.003906" xlink:href="#DejaVuSans-74"/>
     <use x="307.212891" xlink:href="#DejaVuSans-20"/>
     <use x="339" xlink:href="#DejaVuSans-54"/>
     <use x="399.865234" xlink:href="#DejaVuSans-72"/>
     <use x="440.978516" xlink:href="#DejaVuSans-61"/>
     <use x="502.257812" xlink:href="#DejaVuSans-6e"/>
     <use x="565.636719" xlink:href="#DejaVuSans-73"/>
     <use x="617.736328" xlink:href="#DejaVuSans-20"/>
     <use x="649.523438" xlink:href="#DejaVuSans-59"/>
     <use x="710.607422" xlink:href="#DejaVuSans-20"/>
     <use x="742.394531" xlink:href="#DejaVuSans-50"/>
     <use x="802.697266" xlink:href="#DejaVuSans-6c"/>
     <use x="830.480469" xlink:href="#DejaVuSans-6f"/>
     <use x="891.662109" xlink:href="#DejaVuSans-74"/>
    </g>
   </g>
  </g>
 </g>
 <defs>
  <clipPath id="p9ba695b74c">
   <rect height="266.112" width="357.12" x="57.6" y="41.472"/>
  </clipPath>
 </defs>
</svg>
