<?xml version="1.0" encoding="utf-8" standalone="no"?>
<!DOCTYPE svg PUBLIC "-//W3C//DTD SVG 1.1//EN"
  "http://www.w3.org/Graphics/SVG/1.1/DTD/svg11.dtd">
<!-- Created with matplotlib (http://matplotlib.org/) -->
<svg height="345.6pt" version="1.1" viewBox="0 0 460.8 345.6" width="460.8pt" xmlns="http://www.w3.org/2000/svg" xmlns:xlink="http://www.w3.org/1999/xlink">
 <defs>
  <style type="text/css">
*{stroke-linecap:butt;stroke-linejoin:round;}
  </style>
 </defs>
 <g id="figure_1">
  <g id="patch_1">
   <path d="M 0 345.6 
L 460.8 345.6 
L 460.8 0 
L 0 0 
z
" style="fill:#ffffff;"/>
  </g>
  <g id="axes_1">
   <g id="patch_2">
    <path d="M 57.6 307.584 
L 414.72 307.584 
L 414.72 41.472 
L 57.6 41.472 
z
" style="fill:#ffffff;"/>
   </g>
   <g id="matplotlib.axis_1">
    <g id="xtick_1">
     <g id="line2d_1">
      <path clip-path="url(#pf66aeb1328)" d="M 70.555248 307.584 
L 70.555248 41.472 
" style="fill:none;stroke:#b0b0b0;stroke-linecap:square;stroke-width:0.8;"/>
     </g>
     <g id="line2d_2">
      <defs>
       <path d="M 0 0 
L 0 3.5 
" id="m5f3aff9cf4" style="stroke:#000000;stroke-width:0.8;"/>
      </defs>
      <g>
       <use style="stroke:#000000;stroke-width:0.8;" x="70.555248" xlink:href="#m5f3aff9cf4" y="307.584"/>
      </g>
     </g>
     <g id="text_1">
      <!-- 0 -->
      <defs>
       <path d="M 31.78125 66.40625 
Q 24.171875 66.40625 20.328125 58.90625 
Q 16.5 51.421875 16.5 36.375 
Q 16.5 21.390625 20.328125 13.890625 
Q 24.171875 6.390625 31.78125 6.390625 
Q 39.453125 6.390625 43.28125 13.890625 
Q 47.125 21.390625 47.125 36.375 
Q 47.125 51.421875 43.28125 58.90625 
Q 39.453125 66.40625 31.78125 66.40625 
z
M 31.78125 74.21875 
Q 44.046875 74.21875 50.515625 64.515625 
Q 56.984375 54.828125 56.984375 36.375 
Q 56.984375 17.96875 50.515625 8.265625 
Q 44.046875 -1.421875 31.78125 -1.421875 
Q 19.53125 -1.421875 13.0625 8.265625 
Q 6.59375 17.96875 6.59375 36.375 
Q 6.59375 54.828125 13.0625 64.515625 
Q 19.53125 74.21875 31.78125 74.21875 
z
" id="DejaVuSans-30"/>
      </defs>
      <g transform="translate(67.373998 322.182437)scale(0.1 -0.1)">
       <use xlink:href="#DejaVuSans-30"/>
      </g>
     </g>
    </g>
    <g id="xtick_2">
     <g id="line2d_3">
      <path clip-path="url(#pf66aeb1328)" d="M 139.776886 307.584 
L 139.776886 41.472 
" style="fill:none;stroke:#b0b0b0;stroke-linecap:square;stroke-width:0.8;"/>
     </g>
     <g id="line2d_4">
      <g>
       <use style="stroke:#000000;stroke-width:0.8;" x="139.776886" xlink:href="#m5f3aff9cf4" y="307.584"/>
      </g>
     </g>
     <g id="text_2">
      <!-- 10 -->
      <defs>
       <path d="M 12.40625 8.296875 
L 28.515625 8.296875 
L 28.515625 63.921875 
L 10.984375 60.40625 
L 10.984375 69.390625 
L 28.421875 72.90625 
L 38.28125 72.90625 
L 38.28125 8.296875 
L 54.390625 8.296875 
L 54.390625 0 
L 12.40625 0 
z
" id="DejaVuSans-31"/>
      </defs>
      <g transform="translate(133.414386 322.182437)scale(0.1 -0.1)">
       <use xlink:href="#DejaVuSans-31"/>
       <use x="63.623047" xlink:href="#DejaVuSans-30"/>
      </g>
     </g>
    </g>
    <g id="xtick_3">
     <g id="line2d_5">
      <path clip-path="url(#pf66aeb1328)" d="M 208.998523 307.584 
L 208.998523 41.472 
" style="fill:none;stroke:#b0b0b0;stroke-linecap:square;stroke-width:0.8;"/>
     </g>
     <g id="line2d_6">
      <g>
       <use style="stroke:#000000;stroke-width:0.8;" x="208.998523" xlink:href="#m5f3aff9cf4" y="307.584"/>
      </g>
     </g>
     <g id="text_3">
      <!-- 20 -->
      <defs>
       <path d="M 19.1875 8.296875 
L 53.609375 8.296875 
L 53.609375 0 
L 7.328125 0 
L 7.328125 8.296875 
Q 12.9375 14.109375 22.625 23.890625 
Q 32.328125 33.6875 34.8125 36.53125 
Q 39.546875 41.84375 41.421875 45.53125 
Q 43.3125 49.21875 43.3125 52.78125 
Q 43.3125 58.59375 39.234375 62.25 
Q 35.15625 65.921875 28.609375 65.921875 
Q 23.96875 65.921875 18.8125 64.3125 
Q 13.671875 62.703125 7.8125 59.421875 
L 7.8125 69.390625 
Q 13.765625 71.78125 18.9375 73 
Q 24.125 74.21875 28.421875 74.21875 
Q 39.75 74.21875 46.484375 68.546875 
Q 53.21875 62.890625 53.21875 53.421875 
Q 53.21875 48.921875 51.53125 44.890625 
Q 49.859375 40.875 45.40625 35.40625 
Q 44.1875 33.984375 37.640625 27.21875 
Q 31.109375 20.453125 19.1875 8.296875 
z
" id="DejaVuSans-32"/>
      </defs>
      <g transform="translate(202.636023 322.182437)scale(0.1 -0.1)">
       <use xlink:href="#DejaVuSans-32"/>
       <use x="63.623047" xlink:href="#DejaVuSans-30"/>
      </g>
     </g>
    </g>
    <g id="xtick_4">
     <g id="line2d_7">
      <path clip-path="url(#pf66aeb1328)" d="M 278.220161 307.584 
L 278.220161 41.472 
" style="fill:none;stroke:#b0b0b0;stroke-linecap:square;stroke-width:0.8;"/>
     </g>
     <g id="line2d_8">
      <g>
       <use style="stroke:#000000;stroke-width:0.8;" x="278.220161" xlink:href="#m5f3aff9cf4" y="307.584"/>
      </g>
     </g>
     <g id="text_4">
      <!-- 30 -->
      <defs>
       <path d="M 40.578125 39.3125 
Q 47.65625 37.796875 51.625 33 
Q 55.609375 28.21875 55.609375 21.1875 
Q 55.609375 10.40625 48.1875 4.484375 
Q 40.765625 -1.421875 27.09375 -1.421875 
Q 22.515625 -1.421875 17.65625 -0.515625 
Q 12.796875 0.390625 7.625 2.203125 
L 7.625 11.71875 
Q 11.71875 9.328125 16.59375 8.109375 
Q 21.484375 6.890625 26.8125 6.890625 
Q 36.078125 6.890625 40.9375 10.546875 
Q 45.796875 14.203125 45.796875 21.1875 
Q 45.796875 27.640625 41.28125 31.265625 
Q 36.765625 34.90625 28.71875 34.90625 
L 20.21875 34.90625 
L 20.21875 43.015625 
L 29.109375 43.015625 
Q 36.375 43.015625 40.234375 45.921875 
Q 44.09375 48.828125 44.09375 54.296875 
Q 44.09375 59.90625 40.109375 62.90625 
Q 36.140625 65.921875 28.71875 65.921875 
Q 24.65625 65.921875 20.015625 65.03125 
Q 15.375 64.15625 9.8125 62.3125 
L 9.8125 71.09375 
Q 15.4375 72.65625 20.34375 73.4375 
Q 25.25 74.21875 29.59375 74.21875 
Q 40.828125 74.21875 47.359375 69.109375 
Q 53.90625 64.015625 53.90625 55.328125 
Q 53.90625 49.265625 50.4375 45.09375 
Q 46.96875 40.921875 40.578125 39.3125 
z
" id="DejaVuSans-33"/>
      </defs>
      <g transform="translate(271.857661 322.182437)scale(0.1 -0.1)">
       <use xlink:href="#DejaVuSans-33"/>
       <use x="63.623047" xlink:href="#DejaVuSans-30"/>
      </g>
     </g>
    </g>
    <g id="xtick_5">
     <g id="line2d_9">
      <path clip-path="url(#pf66aeb1328)" d="M 347.441799 307.584 
L 347.441799 41.472 
" style="fill:none;stroke:#b0b0b0;stroke-linecap:square;stroke-width:0.8;"/>
     </g>
     <g id="line2d_10">
      <g>
       <use style="stroke:#000000;stroke-width:0.8;" x="347.441799" xlink:href="#m5f3aff9cf4" y="307.584"/>
      </g>
     </g>
     <g id="text_5">
      <!-- 40 -->
      <defs>
       <path d="M 37.796875 64.3125 
L 12.890625 25.390625 
L 37.796875 25.390625 
z
M 35.203125 72.90625 
L 47.609375 72.90625 
L 47.609375 25.390625 
L 58.015625 25.390625 
L 58.015625 17.1875 
L 47.609375 17.1875 
L 47.609375 0 
L 37.796875 0 
L 37.796875 17.1875 
L 4.890625 17.1875 
L 4.890625 26.703125 
z
" id="DejaVuSans-34"/>
      </defs>
      <g transform="translate(341.079299 322.182437)scale(0.1 -0.1)">
       <use xlink:href="#DejaVuSans-34"/>
       <use x="63.623047" xlink:href="#DejaVuSans-30"/>
      </g>
     </g>
    </g>
    <g id="xtick_6">
     <g id="line2d_11">
      <path clip-path="url(#pf66aeb1328)" d="M 84.399575 307.584 
L 84.399575 41.472 
" style="fill:none;stroke:#b0b0b0;stroke-linecap:square;stroke-width:0.8;"/>
     </g>
     <g id="line2d_12">
      <defs>
       <path d="M 0 0 
L 0 2 
" id="m7284ec5455" style="stroke:#000000;stroke-width:0.6;"/>
      </defs>
      <g>
       <use style="stroke:#000000;stroke-width:0.6;" x="84.399575" xlink:href="#m7284ec5455" y="307.584"/>
      </g>
     </g>
    </g>
    <g id="xtick_7">
     <g id="line2d_13">
      <path clip-path="url(#pf66aeb1328)" d="M 98.243903 307.584 
L 98.243903 41.472 
" style="fill:none;stroke:#b0b0b0;stroke-linecap:square;stroke-width:0.8;"/>
     </g>
     <g id="line2d_14">
      <g>
       <use style="stroke:#000000;stroke-width:0.6;" x="98.243903" xlink:href="#m7284ec5455" y="307.584"/>
      </g>
     </g>
    </g>
    <g id="xtick_8">
     <g id="line2d_15">
      <path clip-path="url(#pf66aeb1328)" d="M 112.08823 307.584 
L 112.08823 41.472 
" style="fill:none;stroke:#b0b0b0;stroke-linecap:square;stroke-width:0.8;"/>
     </g>
     <g id="line2d_16">
      <g>
       <use style="stroke:#000000;stroke-width:0.6;" x="112.08823" xlink:href="#m7284ec5455" y="307.584"/>
      </g>
     </g>
    </g>
    <g id="xtick_9">
     <g id="line2d_17">
      <path clip-path="url(#pf66aeb1328)" d="M 125.932558 307.584 
L 125.932558 41.472 
" style="fill:none;stroke:#b0b0b0;stroke-linecap:square;stroke-width:0.8;"/>
     </g>
     <g id="line2d_18">
      <g>
       <use style="stroke:#000000;stroke-width:0.6;" x="125.932558" xlink:href="#m7284ec5455" y="307.584"/>
      </g>
     </g>
    </g>
    <g id="xtick_10">
     <g id="line2d_19">
      <path clip-path="url(#pf66aeb1328)" d="M 153.621213 307.584 
L 153.621213 41.472 
" style="fill:none;stroke:#b0b0b0;stroke-linecap:square;stroke-width:0.8;"/>
     </g>
     <g id="line2d_20">
      <g>
       <use style="stroke:#000000;stroke-width:0.6;" x="153.621213" xlink:href="#m7284ec5455" y="307.584"/>
      </g>
     </g>
    </g>
    <g id="xtick_11">
     <g id="line2d_21">
      <path clip-path="url(#pf66aeb1328)" d="M 167.465541 307.584 
L 167.465541 41.472 
" style="fill:none;stroke:#b0b0b0;stroke-linecap:square;stroke-width:0.8;"/>
     </g>
     <g id="line2d_22">
      <g>
       <use style="stroke:#000000;stroke-width:0.6;" x="167.465541" xlink:href="#m7284ec5455" y="307.584"/>
      </g>
     </g>
    </g>
    <g id="xtick_12">
     <g id="line2d_23">
      <path clip-path="url(#pf66aeb1328)" d="M 181.309868 307.584 
L 181.309868 41.472 
" style="fill:none;stroke:#b0b0b0;stroke-linecap:square;stroke-width:0.8;"/>
     </g>
     <g id="line2d_24">
      <g>
       <use style="stroke:#000000;stroke-width:0.6;" x="181.309868" xlink:href="#m7284ec5455" y="307.584"/>
      </g>
     </g>
    </g>
    <g id="xtick_13">
     <g id="line2d_25">
      <path clip-path="url(#pf66aeb1328)" d="M 195.154196 307.584 
L 195.154196 41.472 
" style="fill:none;stroke:#b0b0b0;stroke-linecap:square;stroke-width:0.8;"/>
     </g>
     <g id="line2d_26">
      <g>
       <use style="stroke:#000000;stroke-width:0.6;" x="195.154196" xlink:href="#m7284ec5455" y="307.584"/>
      </g>
     </g>
    </g>
    <g id="xtick_14">
     <g id="line2d_27">
      <path clip-path="url(#pf66aeb1328)" d="M 222.842851 307.584 
L 222.842851 41.472 
" style="fill:none;stroke:#b0b0b0;stroke-linecap:square;stroke-width:0.8;"/>
     </g>
     <g id="line2d_28">
      <g>
       <use style="stroke:#000000;stroke-width:0.6;" x="222.842851" xlink:href="#m7284ec5455" y="307.584"/>
      </g>
     </g>
    </g>
    <g id="xtick_15">
     <g id="line2d_29">
      <path clip-path="url(#pf66aeb1328)" d="M 236.687178 307.584 
L 236.687178 41.472 
" style="fill:none;stroke:#b0b0b0;stroke-linecap:square;stroke-width:0.8;"/>
     </g>
     <g id="line2d_30">
      <g>
       <use style="stroke:#000000;stroke-width:0.6;" x="236.687178" xlink:href="#m7284ec5455" y="307.584"/>
      </g>
     </g>
    </g>
    <g id="xtick_16">
     <g id="line2d_31">
      <path clip-path="url(#pf66aeb1328)" d="M 250.531506 307.584 
L 250.531506 41.472 
" style="fill:none;stroke:#b0b0b0;stroke-linecap:square;stroke-width:0.8;"/>
     </g>
     <g id="line2d_32">
      <g>
       <use style="stroke:#000000;stroke-width:0.6;" x="250.531506" xlink:href="#m7284ec5455" y="307.584"/>
      </g>
     </g>
    </g>
    <g id="xtick_17">
     <g id="line2d_33">
      <path clip-path="url(#pf66aeb1328)" d="M 264.375834 307.584 
L 264.375834 41.472 
" style="fill:none;stroke:#b0b0b0;stroke-linecap:square;stroke-width:0.8;"/>
     </g>
     <g id="line2d_34">
      <g>
       <use style="stroke:#000000;stroke-width:0.6;" x="264.375834" xlink:href="#m7284ec5455" y="307.584"/>
      </g>
     </g>
    </g>
    <g id="xtick_18">
     <g id="line2d_35">
      <path clip-path="url(#pf66aeb1328)" d="M 292.064489 307.584 
L 292.064489 41.472 
" style="fill:none;stroke:#b0b0b0;stroke-linecap:square;stroke-width:0.8;"/>
     </g>
     <g id="line2d_36">
      <g>
       <use style="stroke:#000000;stroke-width:0.6;" x="292.064489" xlink:href="#m7284ec5455" y="307.584"/>
      </g>
     </g>
    </g>
    <g id="xtick_19">
     <g id="line2d_37">
      <path clip-path="url(#pf66aeb1328)" d="M 305.908816 307.584 
L 305.908816 41.472 
" style="fill:none;stroke:#b0b0b0;stroke-linecap:square;stroke-width:0.8;"/>
     </g>
     <g id="line2d_38">
      <g>
       <use style="stroke:#000000;stroke-width:0.6;" x="305.908816" xlink:href="#m7284ec5455" y="307.584"/>
      </g>
     </g>
    </g>
    <g id="xtick_20">
     <g id="line2d_39">
      <path clip-path="url(#pf66aeb1328)" d="M 319.753144 307.584 
L 319.753144 41.472 
" style="fill:none;stroke:#b0b0b0;stroke-linecap:square;stroke-width:0.8;"/>
     </g>
     <g id="line2d_40">
      <g>
       <use style="stroke:#000000;stroke-width:0.6;" x="319.753144" xlink:href="#m7284ec5455" y="307.584"/>
      </g>
     </g>
    </g>
    <g id="xtick_21">
     <g id="line2d_41">
      <path clip-path="url(#pf66aeb1328)" d="M 333.597471 307.584 
L 333.597471 41.472 
" style="fill:none;stroke:#b0b0b0;stroke-linecap:square;stroke-width:0.8;"/>
     </g>
     <g id="line2d_42">
      <g>
       <use style="stroke:#000000;stroke-width:0.6;" x="333.597471" xlink:href="#m7284ec5455" y="307.584"/>
      </g>
     </g>
    </g>
    <g id="xtick_22">
     <g id="line2d_43">
      <path clip-path="url(#pf66aeb1328)" d="M 361.286127 307.584 
L 361.286127 41.472 
" style="fill:none;stroke:#b0b0b0;stroke-linecap:square;stroke-width:0.8;"/>
     </g>
     <g id="line2d_44">
      <g>
       <use style="stroke:#000000;stroke-width:0.6;" x="361.286127" xlink:href="#m7284ec5455" y="307.584"/>
      </g>
     </g>
    </g>
    <g id="xtick_23">
     <g id="line2d_45">
      <path clip-path="url(#pf66aeb1328)" d="M 375.130454 307.584 
L 375.130454 41.472 
" style="fill:none;stroke:#b0b0b0;stroke-linecap:square;stroke-width:0.8;"/>
     </g>
     <g id="line2d_46">
      <g>
       <use style="stroke:#000000;stroke-width:0.6;" x="375.130454" xlink:href="#m7284ec5455" y="307.584"/>
      </g>
     </g>
    </g>
    <g id="xtick_24">
     <g id="line2d_47">
      <path clip-path="url(#pf66aeb1328)" d="M 388.974782 307.584 
L 388.974782 41.472 
" style="fill:none;stroke:#b0b0b0;stroke-linecap:square;stroke-width:0.8;"/>
     </g>
     <g id="line2d_48">
      <g>
       <use style="stroke:#000000;stroke-width:0.6;" x="388.974782" xlink:href="#m7284ec5455" y="307.584"/>
      </g>
     </g>
    </g>
    <g id="xtick_25">
     <g id="line2d_49">
      <path clip-path="url(#pf66aeb1328)" d="M 402.819109 307.584 
L 402.819109 41.472 
" style="fill:none;stroke:#b0b0b0;stroke-linecap:square;stroke-width:0.8;"/>
     </g>
     <g id="line2d_50">
      <g>
       <use style="stroke:#000000;stroke-width:0.6;" x="402.819109" xlink:href="#m7284ec5455" y="307.584"/>
      </g>
     </g>
    </g>
    <g id="text_6">
     <!-- frame # [] -->
     <defs>
      <path d="M 37.109375 75.984375 
L 37.109375 68.5 
L 28.515625 68.5 
Q 23.6875 68.5 21.796875 66.546875 
Q 19.921875 64.59375 19.921875 59.515625 
L 19.921875 54.6875 
L 34.71875 54.6875 
L 34.71875 47.703125 
L 19.921875 47.703125 
L 19.921875 0 
L 10.890625 0 
L 10.890625 47.703125 
L 2.296875 47.703125 
L 2.296875 54.6875 
L 10.890625 54.6875 
L 10.890625 58.5 
Q 10.890625 67.625 15.140625 71.796875 
Q 19.390625 75.984375 28.609375 75.984375 
z
" id="DejaVuSans-66"/>
      <path d="M 41.109375 46.296875 
Q 39.59375 47.171875 37.8125 47.578125 
Q 36.03125 48 33.890625 48 
Q 26.265625 48 22.1875 43.046875 
Q 18.109375 38.09375 18.109375 28.8125 
L 18.109375 0 
L 9.078125 0 
L 9.078125 54.6875 
L 18.109375 54.6875 
L 18.109375 46.1875 
Q 20.953125 51.171875 25.484375 53.578125 
Q 30.03125 56 36.53125 56 
Q 37.453125 56 38.578125 55.875 
Q 39.703125 55.765625 41.0625 55.515625 
z
" id="DejaVuSans-72"/>
      <path d="M 34.28125 27.484375 
Q 23.390625 27.484375 19.1875 25 
Q 14.984375 22.515625 14.984375 16.5 
Q 14.984375 11.71875 18.140625 8.90625 
Q 21.296875 6.109375 26.703125 6.109375 
Q 34.1875 6.109375 38.703125 11.40625 
Q 43.21875 16.703125 43.21875 25.484375 
L 43.21875 27.484375 
z
M 52.203125 31.203125 
L 52.203125 0 
L 43.21875 0 
L 43.21875 8.296875 
Q 40.140625 3.328125 35.546875 0.953125 
Q 30.953125 -1.421875 24.3125 -1.421875 
Q 15.921875 -1.421875 10.953125 3.296875 
Q 6 8.015625 6 15.921875 
Q 6 25.140625 12.171875 29.828125 
Q 18.359375 34.515625 30.609375 34.515625 
L 43.21875 34.515625 
L 43.21875 35.40625 
Q 43.21875 41.609375 39.140625 45 
Q 35.0625 48.390625 27.6875 48.390625 
Q 23 48.390625 18.546875 47.265625 
Q 14.109375 46.140625 10.015625 43.890625 
L 10.015625 52.203125 
Q 14.9375 54.109375 19.578125 55.046875 
Q 24.21875 56 28.609375 56 
Q 40.484375 56 46.34375 49.84375 
Q 52.203125 43.703125 52.203125 31.203125 
z
" id="DejaVuSans-61"/>
      <path d="M 52 44.1875 
Q 55.375 50.25 60.0625 53.125 
Q 64.75 56 71.09375 56 
Q 79.640625 56 84.28125 50.015625 
Q 88.921875 44.046875 88.921875 33.015625 
L 88.921875 0 
L 79.890625 0 
L 79.890625 32.71875 
Q 79.890625 40.578125 77.09375 44.375 
Q 74.3125 48.1875 68.609375 48.1875 
Q 61.625 48.1875 57.5625 43.546875 
Q 53.515625 38.921875 53.515625 30.90625 
L 53.515625 0 
L 44.484375 0 
L 44.484375 32.71875 
Q 44.484375 40.625 41.703125 44.40625 
Q 38.921875 48.1875 33.109375 48.1875 
Q 26.21875 48.1875 22.15625 43.53125 
Q 18.109375 38.875 18.109375 30.90625 
L 18.109375 0 
L 9.078125 0 
L 9.078125 54.6875 
L 18.109375 54.6875 
L 18.109375 46.1875 
Q 21.1875 51.21875 25.484375 53.609375 
Q 29.78125 56 35.6875 56 
Q 41.65625 56 45.828125 52.96875 
Q 50 49.953125 52 44.1875 
z
" id="DejaVuSans-6d"/>
      <path d="M 56.203125 29.59375 
L 56.203125 25.203125 
L 14.890625 25.203125 
Q 15.484375 15.921875 20.484375 11.0625 
Q 25.484375 6.203125 34.421875 6.203125 
Q 39.59375 6.203125 44.453125 7.46875 
Q 49.3125 8.734375 54.109375 11.28125 
L 54.109375 2.78125 
Q 49.265625 0.734375 44.1875 -0.34375 
Q 39.109375 -1.421875 33.890625 -1.421875 
Q 20.796875 -1.421875 13.15625 6.1875 
Q 5.515625 13.8125 5.515625 26.8125 
Q 5.515625 40.234375 12.765625 48.109375 
Q 20.015625 56 32.328125 56 
Q 43.359375 56 49.78125 48.890625 
Q 56.203125 41.796875 56.203125 29.59375 
z
M 47.21875 32.234375 
Q 47.125 39.59375 43.09375 43.984375 
Q 39.0625 48.390625 32.421875 48.390625 
Q 24.90625 48.390625 20.390625 44.140625 
Q 15.875 39.890625 15.1875 32.171875 
z
" id="DejaVuSans-65"/>
      <path id="DejaVuSans-20"/>
      <path d="M 51.125 44 
L 36.921875 44 
L 32.8125 27.6875 
L 47.125 27.6875 
z
M 43.796875 71.78125 
L 38.71875 51.515625 
L 52.984375 51.515625 
L 58.109375 71.78125 
L 65.921875 71.78125 
L 60.890625 51.515625 
L 76.125 51.515625 
L 76.125 44 
L 58.984375 44 
L 54.984375 27.6875 
L 70.515625 27.6875 
L 70.515625 20.21875 
L 53.078125 20.21875 
L 48 0 
L 40.1875 0 
L 45.21875 20.21875 
L 30.90625 20.21875 
L 25.875 0 
L 18.015625 0 
L 23.09375 20.21875 
L 7.71875 20.21875 
L 7.71875 27.6875 
L 24.90625 27.6875 
L 29 44 
L 13.28125 44 
L 13.28125 51.515625 
L 30.90625 51.515625 
L 35.890625 71.78125 
z
" id="DejaVuSans-23"/>
      <path d="M 8.59375 75.984375 
L 29.296875 75.984375 
L 29.296875 69 
L 17.578125 69 
L 17.578125 -6.203125 
L 29.296875 -6.203125 
L 29.296875 -13.1875 
L 8.59375 -13.1875 
z
" id="DejaVuSans-5b"/>
      <path d="M 30.421875 75.984375 
L 30.421875 -13.1875 
L 9.71875 -13.1875 
L 9.71875 -6.203125 
L 21.390625 -6.203125 
L 21.390625 69 
L 9.71875 69 
L 9.71875 75.984375 
z
" id="DejaVuSans-5d"/>
     </defs>
     <g transform="translate(210.063906 335.860562)scale(0.1 -0.1)">
      <use xlink:href="#DejaVuSans-66"/>
      <use x="35.205078" xlink:href="#DejaVuSans-72"/>
      <use x="76.318359" xlink:href="#DejaVuSans-61"/>
      <use x="137.597656" xlink:href="#DejaVuSans-6d"/>
      <use x="235.009766" xlink:href="#DejaVuSans-65"/>
      <use x="296.533203" xlink:href="#DejaVuSans-20"/>
      <use x="328.320312" xlink:href="#DejaVuSans-23"/>
      <use x="412.109375" xlink:href="#DejaVuSans-20"/>
      <use x="443.896484" xlink:href="#DejaVuSans-5b"/>
      <use x="482.910156" xlink:href="#DejaVuSans-5d"/>
     </g>
    </g>
   </g>
   <g id="matplotlib.axis_2">
    <g id="ytick_1">
     <g id="line2d_51">
      <path clip-path="url(#pf66aeb1328)" d="M 57.6 276.983776 
L 414.72 276.983776 
" style="fill:none;stroke:#b0b0b0;stroke-linecap:square;stroke-width:0.8;"/>
     </g>
     <g id="line2d_52">
      <defs>
       <path d="M 0 0 
L -3.5 0 
" id="mf446230785" style="stroke:#000000;stroke-width:0.8;"/>
      </defs>
      <g>
       <use style="stroke:#000000;stroke-width:0.8;" x="57.6" xlink:href="#mf446230785" y="276.983776"/>
      </g>
     </g>
     <g id="text_7">
      <!-- −0.3 -->
      <defs>
       <path d="M 10.59375 35.5 
L 73.1875 35.5 
L 73.1875 27.203125 
L 10.59375 27.203125 
z
" id="DejaVuSans-2212"/>
       <path d="M 10.6875 12.40625 
L 21 12.40625 
L 21 0 
L 10.6875 0 
z
" id="DejaVuSans-2e"/>
      </defs>
      <g transform="translate(26.317187 280.782995)scale(0.1 -0.1)">
       <use xlink:href="#DejaVuSans-2212"/>
       <use x="83.789062" xlink:href="#DejaVuSans-30"/>
       <use x="147.412109" xlink:href="#DejaVuSans-2e"/>
       <use x="179.199219" xlink:href="#DejaVuSans-33"/>
      </g>
     </g>
    </g>
    <g id="ytick_2">
     <g id="line2d_53">
      <path clip-path="url(#pf66aeb1328)" d="M 57.6 241.520229 
L 414.72 241.520229 
" style="fill:none;stroke:#b0b0b0;stroke-linecap:square;stroke-width:0.8;"/>
     </g>
     <g id="line2d_54">
      <g>
       <use style="stroke:#000000;stroke-width:0.8;" x="57.6" xlink:href="#mf446230785" y="241.520229"/>
      </g>
     </g>
     <g id="text_8">
      <!-- −0.2 -->
      <g transform="translate(26.317187 245.319447)scale(0.1 -0.1)">
       <use xlink:href="#DejaVuSans-2212"/>
       <use x="83.789062" xlink:href="#DejaVuSans-30"/>
       <use x="147.412109" xlink:href="#DejaVuSans-2e"/>
       <use x="179.199219" xlink:href="#DejaVuSans-32"/>
      </g>
     </g>
    </g>
    <g id="ytick_3">
     <g id="line2d_55">
      <path clip-path="url(#pf66aeb1328)" d="M 57.6 206.056681 
L 414.72 206.056681 
" style="fill:none;stroke:#b0b0b0;stroke-linecap:square;stroke-width:0.8;"/>
     </g>
     <g id="line2d_56">
      <g>
       <use style="stroke:#000000;stroke-width:0.8;" x="57.6" xlink:href="#mf446230785" y="206.056681"/>
      </g>
     </g>
     <g id="text_9">
      <!-- −0.1 -->
      <g transform="translate(26.317187 209.8559)scale(0.1 -0.1)">
       <use xlink:href="#DejaVuSans-2212"/>
       <use x="83.789062" xlink:href="#DejaVuSans-30"/>
       <use x="147.412109" xlink:href="#DejaVuSans-2e"/>
       <use x="179.199219" xlink:href="#DejaVuSans-31"/>
      </g>
     </g>
    </g>
    <g id="ytick_4">
     <g id="line2d_57">
      <path clip-path="url(#pf66aeb1328)" d="M 57.6 170.593134 
L 414.72 170.593134 
" style="fill:none;stroke:#b0b0b0;stroke-linecap:square;stroke-width:0.8;"/>
     </g>
     <g id="line2d_58">
      <g>
       <use style="stroke:#000000;stroke-width:0.8;" x="57.6" xlink:href="#mf446230785" y="170.593134"/>
      </g>
     </g>
     <g id="text_10">
      <!-- 0.0 -->
      <g transform="translate(34.696875 174.392352)scale(0.1 -0.1)">
       <use xlink:href="#DejaVuSans-30"/>
       <use x="63.623047" xlink:href="#DejaVuSans-2e"/>
       <use x="95.410156" xlink:href="#DejaVuSans-30"/>
      </g>
     </g>
    </g>
    <g id="ytick_5">
     <g id="line2d_59">
      <path clip-path="url(#pf66aeb1328)" d="M 57.6 135.129586 
L 414.72 135.129586 
" style="fill:none;stroke:#b0b0b0;stroke-linecap:square;stroke-width:0.8;"/>
     </g>
     <g id="line2d_60">
      <g>
       <use style="stroke:#000000;stroke-width:0.8;" x="57.6" xlink:href="#mf446230785" y="135.129586"/>
      </g>
     </g>
     <g id="text_11">
      <!-- 0.1 -->
      <g transform="translate(34.696875 138.928805)scale(0.1 -0.1)">
       <use xlink:href="#DejaVuSans-30"/>
       <use x="63.623047" xlink:href="#DejaVuSans-2e"/>
       <use x="95.410156" xlink:href="#DejaVuSans-31"/>
      </g>
     </g>
    </g>
    <g id="ytick_6">
     <g id="line2d_61">
      <path clip-path="url(#pf66aeb1328)" d="M 57.6 99.666038 
L 414.72 99.666038 
" style="fill:none;stroke:#b0b0b0;stroke-linecap:square;stroke-width:0.8;"/>
     </g>
     <g id="line2d_62">
      <g>
       <use style="stroke:#000000;stroke-width:0.8;" x="57.6" xlink:href="#mf446230785" y="99.666038"/>
      </g>
     </g>
     <g id="text_12">
      <!-- 0.2 -->
      <g transform="translate(34.696875 103.465257)scale(0.1 -0.1)">
       <use xlink:href="#DejaVuSans-30"/>
       <use x="63.623047" xlink:href="#DejaVuSans-2e"/>
       <use x="95.410156" xlink:href="#DejaVuSans-32"/>
      </g>
     </g>
    </g>
    <g id="ytick_7">
     <g id="line2d_63">
      <path clip-path="url(#pf66aeb1328)" d="M 57.6 64.202491 
L 414.72 64.202491 
" style="fill:none;stroke:#b0b0b0;stroke-linecap:square;stroke-width:0.8;"/>
     </g>
     <g id="line2d_64">
      <g>
       <use style="stroke:#000000;stroke-width:0.8;" x="57.6" xlink:href="#mf446230785" y="64.202491"/>
      </g>
     </g>
     <g id="text_13">
      <!-- 0.3 -->
      <g transform="translate(34.696875 68.00171)scale(0.1 -0.1)">
       <use xlink:href="#DejaVuSans-30"/>
       <use x="63.623047" xlink:href="#DejaVuSans-2e"/>
       <use x="95.410156" xlink:href="#DejaVuSans-33"/>
      </g>
     </g>
    </g>
    <g id="ytick_8">
     <g id="line2d_65">
      <path clip-path="url(#pf66aeb1328)" d="M 57.6 305.354614 
L 414.72 305.354614 
" style="fill:none;stroke:#b0b0b0;stroke-linecap:square;stroke-width:0.8;"/>
     </g>
     <g id="line2d_66">
      <defs>
       <path d="M 0 0 
L -2 0 
" id="m946b1b0640" style="stroke:#000000;stroke-width:0.6;"/>
      </defs>
      <g>
       <use style="stroke:#000000;stroke-width:0.6;" x="57.6" xlink:href="#m946b1b0640" y="305.354614"/>
      </g>
     </g>
    </g>
    <g id="ytick_9">
     <g id="line2d_67">
      <path clip-path="url(#pf66aeb1328)" d="M 57.6 298.261905 
L 414.72 298.261905 
" style="fill:none;stroke:#b0b0b0;stroke-linecap:square;stroke-width:0.8;"/>
     </g>
     <g id="line2d_68">
      <g>
       <use style="stroke:#000000;stroke-width:0.6;" x="57.6" xlink:href="#m946b1b0640" y="298.261905"/>
      </g>
     </g>
    </g>
    <g id="ytick_10">
     <g id="line2d_69">
      <path clip-path="url(#pf66aeb1328)" d="M 57.6 291.169195 
L 414.72 291.169195 
" style="fill:none;stroke:#b0b0b0;stroke-linecap:square;stroke-width:0.8;"/>
     </g>
     <g id="line2d_70">
      <g>
       <use style="stroke:#000000;stroke-width:0.6;" x="57.6" xlink:href="#m946b1b0640" y="291.169195"/>
      </g>
     </g>
    </g>
    <g id="ytick_11">
     <g id="line2d_71">
      <path clip-path="url(#pf66aeb1328)" d="M 57.6 284.076486 
L 414.72 284.076486 
" style="fill:none;stroke:#b0b0b0;stroke-linecap:square;stroke-width:0.8;"/>
     </g>
     <g id="line2d_72">
      <g>
       <use style="stroke:#000000;stroke-width:0.6;" x="57.6" xlink:href="#m946b1b0640" y="284.076486"/>
      </g>
     </g>
    </g>
    <g id="ytick_12">
     <g id="line2d_73">
      <path clip-path="url(#pf66aeb1328)" d="M 57.6 269.891067 
L 414.72 269.891067 
" style="fill:none;stroke:#b0b0b0;stroke-linecap:square;stroke-width:0.8;"/>
     </g>
     <g id="line2d_74">
      <g>
       <use style="stroke:#000000;stroke-width:0.6;" x="57.6" xlink:href="#m946b1b0640" y="269.891067"/>
      </g>
     </g>
    </g>
    <g id="ytick_13">
     <g id="line2d_75">
      <path clip-path="url(#pf66aeb1328)" d="M 57.6 262.798357 
L 414.72 262.798357 
" style="fill:none;stroke:#b0b0b0;stroke-linecap:square;stroke-width:0.8;"/>
     </g>
     <g id="line2d_76">
      <g>
       <use style="stroke:#000000;stroke-width:0.6;" x="57.6" xlink:href="#m946b1b0640" y="262.798357"/>
      </g>
     </g>
    </g>
    <g id="ytick_14">
     <g id="line2d_77">
      <path clip-path="url(#pf66aeb1328)" d="M 57.6 255.705648 
L 414.72 255.705648 
" style="fill:none;stroke:#b0b0b0;stroke-linecap:square;stroke-width:0.8;"/>
     </g>
     <g id="line2d_78">
      <g>
       <use style="stroke:#000000;stroke-width:0.6;" x="57.6" xlink:href="#m946b1b0640" y="255.705648"/>
      </g>
     </g>
    </g>
    <g id="ytick_15">
     <g id="line2d_79">
      <path clip-path="url(#pf66aeb1328)" d="M 57.6 248.612938 
L 414.72 248.612938 
" style="fill:none;stroke:#b0b0b0;stroke-linecap:square;stroke-width:0.8;"/>
     </g>
     <g id="line2d_80">
      <g>
       <use style="stroke:#000000;stroke-width:0.6;" x="57.6" xlink:href="#m946b1b0640" y="248.612938"/>
      </g>
     </g>
    </g>
    <g id="ytick_16">
     <g id="line2d_81">
      <path clip-path="url(#pf66aeb1328)" d="M 57.6 234.427519 
L 414.72 234.427519 
" style="fill:none;stroke:#b0b0b0;stroke-linecap:square;stroke-width:0.8;"/>
     </g>
     <g id="line2d_82">
      <g>
       <use style="stroke:#000000;stroke-width:0.6;" x="57.6" xlink:href="#m946b1b0640" y="234.427519"/>
      </g>
     </g>
    </g>
    <g id="ytick_17">
     <g id="line2d_83">
      <path clip-path="url(#pf66aeb1328)" d="M 57.6 227.33481 
L 414.72 227.33481 
" style="fill:none;stroke:#b0b0b0;stroke-linecap:square;stroke-width:0.8;"/>
     </g>
     <g id="line2d_84">
      <g>
       <use style="stroke:#000000;stroke-width:0.6;" x="57.6" xlink:href="#m946b1b0640" y="227.33481"/>
      </g>
     </g>
    </g>
    <g id="ytick_18">
     <g id="line2d_85">
      <path clip-path="url(#pf66aeb1328)" d="M 57.6 220.2421 
L 414.72 220.2421 
" style="fill:none;stroke:#b0b0b0;stroke-linecap:square;stroke-width:0.8;"/>
     </g>
     <g id="line2d_86">
      <g>
       <use style="stroke:#000000;stroke-width:0.6;" x="57.6" xlink:href="#m946b1b0640" y="220.2421"/>
      </g>
     </g>
    </g>
    <g id="ytick_19">
     <g id="line2d_87">
      <path clip-path="url(#pf66aeb1328)" d="M 57.6 213.149391 
L 414.72 213.149391 
" style="fill:none;stroke:#b0b0b0;stroke-linecap:square;stroke-width:0.8;"/>
     </g>
     <g id="line2d_88">
      <g>
       <use style="stroke:#000000;stroke-width:0.6;" x="57.6" xlink:href="#m946b1b0640" y="213.149391"/>
      </g>
     </g>
    </g>
    <g id="ytick_20">
     <g id="line2d_89">
      <path clip-path="url(#pf66aeb1328)" d="M 57.6 198.963972 
L 414.72 198.963972 
" style="fill:none;stroke:#b0b0b0;stroke-linecap:square;stroke-width:0.8;"/>
     </g>
     <g id="line2d_90">
      <g>
       <use style="stroke:#000000;stroke-width:0.6;" x="57.6" xlink:href="#m946b1b0640" y="198.963972"/>
      </g>
     </g>
    </g>
    <g id="ytick_21">
     <g id="line2d_91">
      <path clip-path="url(#pf66aeb1328)" d="M 57.6 191.871262 
L 414.72 191.871262 
" style="fill:none;stroke:#b0b0b0;stroke-linecap:square;stroke-width:0.8;"/>
     </g>
     <g id="line2d_92">
      <g>
       <use style="stroke:#000000;stroke-width:0.6;" x="57.6" xlink:href="#m946b1b0640" y="191.871262"/>
      </g>
     </g>
    </g>
    <g id="ytick_22">
     <g id="line2d_93">
      <path clip-path="url(#pf66aeb1328)" d="M 57.6 184.778553 
L 414.72 184.778553 
" style="fill:none;stroke:#b0b0b0;stroke-linecap:square;stroke-width:0.8;"/>
     </g>
     <g id="line2d_94">
      <g>
       <use style="stroke:#000000;stroke-width:0.6;" x="57.6" xlink:href="#m946b1b0640" y="184.778553"/>
      </g>
     </g>
    </g>
    <g id="ytick_23">
     <g id="line2d_95">
      <path clip-path="url(#pf66aeb1328)" d="M 57.6 177.685843 
L 414.72 177.685843 
" style="fill:none;stroke:#b0b0b0;stroke-linecap:square;stroke-width:0.8;"/>
     </g>
     <g id="line2d_96">
      <g>
       <use style="stroke:#000000;stroke-width:0.6;" x="57.6" xlink:href="#m946b1b0640" y="177.685843"/>
      </g>
     </g>
    </g>
    <g id="ytick_24">
     <g id="line2d_97">
      <path clip-path="url(#pf66aeb1328)" d="M 57.6 163.500424 
L 414.72 163.500424 
" style="fill:none;stroke:#b0b0b0;stroke-linecap:square;stroke-width:0.8;"/>
     </g>
     <g id="line2d_98">
      <g>
       <use style="stroke:#000000;stroke-width:0.6;" x="57.6" xlink:href="#m946b1b0640" y="163.500424"/>
      </g>
     </g>
    </g>
    <g id="ytick_25">
     <g id="line2d_99">
      <path clip-path="url(#pf66aeb1328)" d="M 57.6 156.407715 
L 414.72 156.407715 
" style="fill:none;stroke:#b0b0b0;stroke-linecap:square;stroke-width:0.8;"/>
     </g>
     <g id="line2d_100">
      <g>
       <use style="stroke:#000000;stroke-width:0.6;" x="57.6" xlink:href="#m946b1b0640" y="156.407715"/>
      </g>
     </g>
    </g>
    <g id="ytick_26">
     <g id="line2d_101">
      <path clip-path="url(#pf66aeb1328)" d="M 57.6 149.315005 
L 414.72 149.315005 
" style="fill:none;stroke:#b0b0b0;stroke-linecap:square;stroke-width:0.8;"/>
     </g>
     <g id="line2d_102">
      <g>
       <use style="stroke:#000000;stroke-width:0.6;" x="57.6" xlink:href="#m946b1b0640" y="149.315005"/>
      </g>
     </g>
    </g>
    <g id="ytick_27">
     <g id="line2d_103">
      <path clip-path="url(#pf66aeb1328)" d="M 57.6 142.222296 
L 414.72 142.222296 
" style="fill:none;stroke:#b0b0b0;stroke-linecap:square;stroke-width:0.8;"/>
     </g>
     <g id="line2d_104">
      <g>
       <use style="stroke:#000000;stroke-width:0.6;" x="57.6" xlink:href="#m946b1b0640" y="142.222296"/>
      </g>
     </g>
    </g>
    <g id="ytick_28">
     <g id="line2d_105">
      <path clip-path="url(#pf66aeb1328)" d="M 57.6 128.036877 
L 414.72 128.036877 
" style="fill:none;stroke:#b0b0b0;stroke-linecap:square;stroke-width:0.8;"/>
     </g>
     <g id="line2d_106">
      <g>
       <use style="stroke:#000000;stroke-width:0.6;" x="57.6" xlink:href="#m946b1b0640" y="128.036877"/>
      </g>
     </g>
    </g>
    <g id="ytick_29">
     <g id="line2d_107">
      <path clip-path="url(#pf66aeb1328)" d="M 57.6 120.944167 
L 414.72 120.944167 
" style="fill:none;stroke:#b0b0b0;stroke-linecap:square;stroke-width:0.8;"/>
     </g>
     <g id="line2d_108">
      <g>
       <use style="stroke:#000000;stroke-width:0.6;" x="57.6" xlink:href="#m946b1b0640" y="120.944167"/>
      </g>
     </g>
    </g>
    <g id="ytick_30">
     <g id="line2d_109">
      <path clip-path="url(#pf66aeb1328)" d="M 57.6 113.851458 
L 414.72 113.851458 
" style="fill:none;stroke:#b0b0b0;stroke-linecap:square;stroke-width:0.8;"/>
     </g>
     <g id="line2d_110">
      <g>
       <use style="stroke:#000000;stroke-width:0.6;" x="57.6" xlink:href="#m946b1b0640" y="113.851458"/>
      </g>
     </g>
    </g>
    <g id="ytick_31">
     <g id="line2d_111">
      <path clip-path="url(#pf66aeb1328)" d="M 57.6 106.758748 
L 414.72 106.758748 
" style="fill:none;stroke:#b0b0b0;stroke-linecap:square;stroke-width:0.8;"/>
     </g>
     <g id="line2d_112">
      <g>
       <use style="stroke:#000000;stroke-width:0.6;" x="57.6" xlink:href="#m946b1b0640" y="106.758748"/>
      </g>
     </g>
    </g>
    <g id="ytick_32">
     <g id="line2d_113">
      <path clip-path="url(#pf66aeb1328)" d="M 57.6 92.573329 
L 414.72 92.573329 
" style="fill:none;stroke:#b0b0b0;stroke-linecap:square;stroke-width:0.8;"/>
     </g>
     <g id="line2d_114">
      <g>
       <use style="stroke:#000000;stroke-width:0.6;" x="57.6" xlink:href="#m946b1b0640" y="92.573329"/>
      </g>
     </g>
    </g>
    <g id="ytick_33">
     <g id="line2d_115">
      <path clip-path="url(#pf66aeb1328)" d="M 57.6 85.480619 
L 414.72 85.480619 
" style="fill:none;stroke:#b0b0b0;stroke-linecap:square;stroke-width:0.8;"/>
     </g>
     <g id="line2d_116">
      <g>
       <use style="stroke:#000000;stroke-width:0.6;" x="57.6" xlink:href="#m946b1b0640" y="85.480619"/>
      </g>
     </g>
    </g>
    <g id="ytick_34">
     <g id="line2d_117">
      <path clip-path="url(#pf66aeb1328)" d="M 57.6 78.38791 
L 414.72 78.38791 
" style="fill:none;stroke:#b0b0b0;stroke-linecap:square;stroke-width:0.8;"/>
     </g>
     <g id="line2d_118">
      <g>
       <use style="stroke:#000000;stroke-width:0.6;" x="57.6" xlink:href="#m946b1b0640" y="78.38791"/>
      </g>
     </g>
    </g>
    <g id="ytick_35">
     <g id="line2d_119">
      <path clip-path="url(#pf66aeb1328)" d="M 57.6 71.2952 
L 414.72 71.2952 
" style="fill:none;stroke:#b0b0b0;stroke-linecap:square;stroke-width:0.8;"/>
     </g>
     <g id="line2d_120">
      <g>
       <use style="stroke:#000000;stroke-width:0.6;" x="57.6" xlink:href="#m946b1b0640" y="71.2952"/>
      </g>
     </g>
    </g>
    <g id="ytick_36">
     <g id="line2d_121">
      <path clip-path="url(#pf66aeb1328)" d="M 57.6 57.109781 
L 414.72 57.109781 
" style="fill:none;stroke:#b0b0b0;stroke-linecap:square;stroke-width:0.8;"/>
     </g>
     <g id="line2d_122">
      <g>
       <use style="stroke:#000000;stroke-width:0.6;" x="57.6" xlink:href="#m946b1b0640" y="57.109781"/>
      </g>
     </g>
    </g>
    <g id="ytick_37">
     <g id="line2d_123">
      <path clip-path="url(#pf66aeb1328)" d="M 57.6 50.017072 
L 414.72 50.017072 
" style="fill:none;stroke:#b0b0b0;stroke-linecap:square;stroke-width:0.8;"/>
     </g>
     <g id="line2d_124">
      <g>
       <use style="stroke:#000000;stroke-width:0.6;" x="57.6" xlink:href="#m946b1b0640" y="50.017072"/>
      </g>
     </g>
    </g>
    <g id="ytick_38">
     <g id="line2d_125">
      <path clip-path="url(#pf66aeb1328)" d="M 57.6 42.924362 
L 414.72 42.924362 
" style="fill:none;stroke:#b0b0b0;stroke-linecap:square;stroke-width:0.8;"/>
     </g>
     <g id="line2d_126">
      <g>
       <use style="stroke:#000000;stroke-width:0.6;" x="57.6" xlink:href="#m946b1b0640" y="42.924362"/>
      </g>
     </g>
    </g>
    <g id="text_14">
     <!-- rot y -->
     <defs>
      <path d="M 30.609375 48.390625 
Q 23.390625 48.390625 19.1875 42.75 
Q 14.984375 37.109375 14.984375 27.296875 
Q 14.984375 17.484375 19.15625 11.84375 
Q 23.34375 6.203125 30.609375 6.203125 
Q 37.796875 6.203125 41.984375 11.859375 
Q 46.1875 17.53125 46.1875 27.296875 
Q 46.1875 37.015625 41.984375 42.703125 
Q 37.796875 48.390625 30.609375 48.390625 
z
M 30.609375 56 
Q 42.328125 56 49.015625 48.375 
Q 55.71875 40.765625 55.71875 27.296875 
Q 55.71875 13.875 49.015625 6.21875 
Q 42.328125 -1.421875 30.609375 -1.421875 
Q 18.84375 -1.421875 12.171875 6.21875 
Q 5.515625 13.875 5.515625 27.296875 
Q 5.515625 40.765625 12.171875 48.375 
Q 18.84375 56 30.609375 56 
z
" id="DejaVuSans-6f"/>
      <path d="M 18.3125 70.21875 
L 18.3125 54.6875 
L 36.8125 54.6875 
L 36.8125 47.703125 
L 18.3125 47.703125 
L 18.3125 18.015625 
Q 18.3125 11.328125 20.140625 9.421875 
Q 21.96875 7.515625 27.59375 7.515625 
L 36.8125 7.515625 
L 36.8125 0 
L 27.59375 0 
Q 17.1875 0 13.234375 3.875 
Q 9.28125 7.765625 9.28125 18.015625 
L 9.28125 47.703125 
L 2.6875 47.703125 
L 2.6875 54.6875 
L 9.28125 54.6875 
L 9.28125 70.21875 
z
" id="DejaVuSans-74"/>
      <path d="M 32.171875 -5.078125 
Q 28.375 -14.84375 24.75 -17.8125 
Q 21.140625 -20.796875 15.09375 -20.796875 
L 7.90625 -20.796875 
L 7.90625 -13.28125 
L 13.1875 -13.28125 
Q 16.890625 -13.28125 18.9375 -11.515625 
Q 21 -9.765625 23.484375 -3.21875 
L 25.09375 0.875 
L 2.984375 54.6875 
L 12.5 54.6875 
L 29.59375 11.921875 
L 46.6875 54.6875 
L 56.203125 54.6875 
z
" id="DejaVuSans-79"/>
     </defs>
     <g transform="translate(20.2375 186.149875)rotate(-90)scale(0.1 -0.1)">
      <use xlink:href="#DejaVuSans-72"/>
      <use x="41.082031" xlink:href="#DejaVuSans-6f"/>
      <use x="102.263672" xlink:href="#DejaVuSans-74"/>
      <use x="141.472656" xlink:href="#DejaVuSans-20"/>
      <use x="173.259766" xlink:href="#DejaVuSans-79"/>
     </g>
    </g>
   </g>
   <g id="line2d_127">
    <path clip-path="url(#pf66aeb1328)" d="M 73.832727 144.535353 
L 74.524971 151.322368 
L 75.217208 156.477998 
L 75.90628 160.161985 
L 76.598517 160.574815 
L 77.290754 158.904309 
L 77.982991 152.722722 
L 78.6751 151.987787 
L 79.367337 155.467268 
L 80.059581 157.344885 
L 80.751818 150.728694 
L 81.446481 152.907193 
L 82.138725 162.084653 
L 82.830962 169.553558 
L 83.523199 172.412846 
L 84.216653 174.025234 
L 84.908883 167.661663 
L 85.601147 167.418605 
L 86.293364 161.459793 
L 86.985656 157.235703 
L 87.675135 161.487585 
L 88.367373 161.536669 
L 89.05961 166.763516 
L 90.441987 180.652843 
L 91.13423 176.245895 
L 91.826467 176.717717 
L 93.902011 149.816307 
L 95.286491 125.104177 
L 95.979336 130.438708 
L 96.671581 154.438455 
L 97.363819 167.148881 
L 98.749362 201.857777 
L 99.44205 207.370089 
L 100.133837 201.078462 
L 100.826074 199.805501 
L 101.516997 197.464556 
L 102.209241 191.211042 
L 102.901478 178.550716 
L 103.593715 174.631032 
L 104.284797 162.896715 
L 104.977035 144.827326 
L 105.669272 135.925424 
L 106.361509 141.633585 
L 107.05535 144.339675 
L 107.747587 138.885607 
L 108.439825 145.556547 
L 109.132062 161.836459 
L 110.517208 177.83211 
L 111.209437 172.572945 
L 111.901674 175.228037 
L 112.593675 178.995559 
L 113.285912 176.069522 
L 114.670387 188.671116 
L 115.361972 192.003248 
L 116.054209 202.624209 
L 116.746446 217.362912 
L 117.438683 221.671095 
L 118.130907 215.328315 
L 118.823151 219.834682 
L 119.515395 211.732052 
L 120.207625 191.691991 
L 120.899869 179.70168 
L 121.594579 164.426776 
L 122.286816 140.806183 
L 122.97906 123.844028 
L 123.67129 131.211769 
L 124.363909 140.161689 
L 125.056146 147.168729 
L 125.748383 161.881859 
L 126.44062 194.478172 
L 127.129632 200.094877 
L 127.82187 209.278341 
L 128.514107 220.322811 
L 129.206344 217.307109 
L 130.591908 199.403203 
L 131.976389 159.612205 
L 134.055295 132.730993 
L 134.747532 138.447867 
L 135.437802 147.705938 
L 136.130039 154.772701 
L 136.822277 154.729677 
L 137.514514 161.918223 
L 138.204709 172.901651 
L 139.589184 190.2618 
L 140.281421 205.407564 
L 140.976101 211.103038 
L 141.668336 200.566953 
L 143.05281 168.748885 
L 144.436993 154.128194 
L 145.821474 133.304044 
L 146.511257 135.818967 
L 147.203494 134.729538 
L 147.895731 140.978001 
L 148.588378 134.873302 
L 149.281455 134.127641 
L 149.973692 131.023934 
L 150.665929 122.768445 
L 151.358166 149.766333 
L 152.05041 159.5194 
L 153.435969 198.832327 
L 154.128206 200.766709 
L 154.820443 199.450469 
L 155.510224 201.449601 
L 156.20247 202.653135 
L 156.894699 203.07873 
L 157.586944 206.035301 
L 158.279343 210.764575 
L 158.97158 211.701323 
L 159.663852 213.603782 
L 160.356055 227.272679 
L 162.435745 159.923115 
L 163.127989 143.527541 
L 163.818557 135.896523 
L 164.510795 135.239461 
L 165.203032 130.877415 
L 165.895269 138.116289 
L 166.586145 141.84077 
L 167.278382 131.465997 
L 167.970626 127.359145 
L 168.662863 121.870205 
L 169.356457 123.324999 
L 170.048694 136.752598 
L 170.740931 154.694374 
L 171.433168 163.858283 
L 172.125831 169.800631 
L 173.510286 193.798183 
L 174.202529 192.646995 
L 174.892987 198.628317 
L 175.585225 208.003236 
L 176.277462 211.042805 
L 176.969699 205.969023 
L 177.662487 214.780682 
L 178.354724 216.903148 
L 179.046962 207.398305 
L 179.739205 200.220362 
L 180.434067 199.784331 
L 181.126297 183.60114 
L 181.818534 171.94876 
L 183.200632 140.727398 
L 183.892876 134.851592 
L 184.585113 125.929397 
L 185.2776 123.6504 
L 185.969588 119.355691 
L 186.661455 128.969218 
L 187.353692 132.228564 
L 188.738167 145.712231 
M 191.509762 186.536563 
L 193.583718 214.446163 
L 194.275953 214.630905 
L 194.967935 210.843205 
L 195.660172 212.729465 
L 196.352409 225.555184 
L 197.044646 229.536931 
L 197.738917 224.612705 
L 199.815628 139.572954 
L 200.508823 128.566789 
L 201.20106 122.846975 
L 201.893304 124.907283 
L 202.585541 131.342821 
L 203.275538 148.7719 
L 204.660013 200.424736 
L 205.35225 217.275553 
L 206.044672 220.230125 
L 206.736909 230.120856 
L 207.429146 218.777116 
L 208.121383 192.413501 
L 208.815873 161.420325 
L 209.50811 137.876233 
L 210.892585 123.868311 
L 211.583861 123.723646 
L 212.276099 127.347921 
L 212.968342 127.565395 
L 213.66058 121.848435 
L 214.351919 121.76777 
L 215.044156 118.729825 
L 215.736393 132.088925 
L 216.428631 138.801799 
L 217.120874 143.224859 
L 217.814995 151.308618 
L 218.507232 162.478462 
L 219.199469 178.41925 
L 221.277214 214.196087 
L 221.969824 219.069111 
L 222.661681 215.080103 
L 223.354881 204.417474 
L 224.739362 170.133462 
L 225.431599 159.876308 
L 226.123329 145.401217 
L 226.815566 133.442137 
L 227.507804 130.147862 
L 228.200041 139.478908 
L 228.892598 141.276366 
L 229.584835 145.958404 
L 230.277072 154.450875 
L 230.96931 155.69247 
L 231.661953 159.082471 
L 232.35419 169.816345 
L 233.046427 183.236945 
L 233.738664 189.851044 
L 234.434318 193.45363 
L 235.126562 200.045855 
L 235.818799 199.286496 
L 236.511036 192.969469 
L 237.897963 174.62167 
L 238.5902 176.169439 
L 239.282437 183.571975 
L 239.966295 187.417548 
L 240.658539 188.711524 
L 241.350776 193.732559 
L 242.043013 200.266178 
L 242.735331 203.231734 
L 243.427569 203.383717 
L 244.119806 198.802939 
L 244.812043 190.971561 
L 245.504977 194.794195 
L 246.197214 187.128982 
L 246.889449 176.806067 
L 247.581686 172.09216 
L 248.274878 165.366652 
L 248.967115 148.20436 
L 250.351589 131.946203 
L 251.043826 128.125753 
L 251.736771 134.177371 
L 252.429009 138.001302 
L 253.121246 143.28117 
L 253.81349 150.964136 
L 254.500718 167.650748 
L 255.192947 176.605836 
L 255.885192 182.30627 
L 256.577429 174.307153 
L 257.269926 183.582895 
L 257.962163 199.787052 
L 258.6544 203.429121 
L 259.346637 213.778775 
L 260.040695 219.561944 
L 262.117406 172.33073 
L 262.80931 155.753077 
L 263.501547 143.349258 
L 264.193784 145.704056 
L 264.886021 140.433678 
L 265.576308 128.138183 
L 266.268553 125.124724 
L 266.960791 124.842633 
L 267.653028 130.170252 
L 268.344813 133.816867 
L 269.03705 128.297504 
L 269.729287 136.325522 
L 270.421524 159.987444 
M 271.808522 171.847427 
L 272.500759 167.50453 
L 273.192996 181.329343 
L 273.886626 183.052496 
L 274.578864 175.584589 
M 279.422083 128.021214 
L 280.11432 152.936324 
L 280.806557 160.229118 
M 282.885262 191.196969 
L 283.576905 201.284826 
L 284.269143 194.668467 
M 291.190092 155.772153 
L 291.882329 166.343449 
L 292.574566 172.253767 
M 296.037925 215.704515 
L 296.728311 232.215413 
L 297.420548 241.365312 
L 298.112785 219.382024 
L 299.500625 123.139651 
L 300.192862 113.060242 
M 305.72952 258.053036 
L 306.421757 290.040942 
L 307.114493 295.488 
L 307.804746 263.488311 
L 308.496983 218.301091 
L 309.18922 133.491351 
L 309.881458 83.901703 
M 314.727973 244.092966 
L 315.42021 262.339949 
L 316.112447 276.698695 
L 316.803859 256.34981 
L 317.496096 229.123758 
L 318.188333 180.347462 
L 318.880571 118.761038 
L 320.268821 62.173499 
L 320.961058 62.083476 
L 321.653295 75.434492 
L 322.342377 77.892959 
L 323.034614 95.497568 
L 325.805058 223.730359 
L 326.497302 245.506486 
M 327.884744 217.83185 
L 329.269218 134.31192 
L 329.961455 84.60375 
L 330.653469 77.923027 
L 331.346218 86.877679 
L 332.037944 102.514829 
L 333.422638 186.418882 
L 334.114875 201.914001 
L 334.807119 238.229268 
M 337.575094 172.298999 
L 338.959426 68.690739 
L 339.651661 69.080455 
L 340.343899 96.005436 
L 341.036136 128.93808 
L 341.726718 170.839746 
L 343.803429 268.451781 
L 344.492933 280.641964 
L 345.18517 257.214322 
L 345.877414 219.198624 
L 346.569651 168.316225 
M 347.953989 85.018135 
L 348.646226 66.941366 
M 351.414505 221.158997 
L 352.106742 234.144197 
L 352.798979 254.300828 
L 353.491776 249.062404 
L 354.184019 225.969402 
L 354.87625 177.162268 
L 355.569124 144.595646 
L 356.26317 99.55823 
L 356.955416 102.03842 
L 357.647653 119.547878 
L 358.33989 143.221077 
L 359.721951 160.945127 
M 361.106426 166.811125 
L 361.799274 179.046417 
L 362.491511 187.314934 
L 363.183748 193.428647 
L 363.875985 180.617723 
L 365.260626 149.676859 
M 366.6451 141.417826 
L 367.338052 154.77739 
L 368.030296 157.589857 
L 368.722533 155.579644 
L 369.41477 150.324199 
L 370.107983 150.944859 
L 371.492457 189.703215 
L 372.877912 185.710949 
L 373.570157 177.862046 
L 374.262395 167.849933 
L 374.95463 155.573077 
M 376.34006 138.663428 
L 377.032291 141.468425 
L 377.724534 149.084503 
M 380.492239 186.4206 
L 381.184476 189.480865 
L 381.876099 188.424195 
L 382.568336 196.217828 
L 383.260573 182.56469 
L 383.952811 165.022767 
L 384.644637 171.047598 
L 385.336874 169.256594 
L 386.029111 158.062538 
L 386.721348 153.472222 
L 388.796657 173.082209 
M 390.179932 185.669617 
L 390.872169 173.577711 
L 391.564426 170.1792 
L 392.256643 169.406647 
L 392.948735 166.164123 
L 393.640972 159.06688 
L 394.333209 165.470306 
L 395.025447 164.644914 
L 395.717867 166.33031 
L 396.410104 166.792007 
L 396.410104 166.792007 
" style="fill:none;stroke:#ff0000;stroke-linecap:square;"/>
   </g>
   <g id="line2d_128">
    <path clip-path="url(#pf66aeb1328)" d="M 73.832727 145.751738 
L 74.524971 145.31855 
L 75.217208 160.881482 
L 75.90628 159.996386 
L 76.598517 160.027563 
L 77.290754 158.958219 
L 77.982991 153.745444 
L 78.6751 150.492817 
L 79.367337 155.361649 
L 80.059581 158.711696 
L 80.751818 149.863761 
L 81.446481 153.183046 
L 82.830962 168.84716 
L 83.523199 172.18274 
L 84.216653 174.680109 
L 84.908883 168.644954 
L 85.601147 167.150187 
L 86.293364 162.042289 
L 86.985656 158.750884 
L 87.675135 160.779891 
L 88.367373 161.97107 
L 89.05961 164.350361 
L 89.751847 172.952082 
L 90.441987 184.812703 
L 91.13423 176.171614 
L 91.826467 177.052011 
L 93.209773 160.313384 
L 93.902011 150.928338 
L 94.594254 137.267101 
L 95.286491 126.781353 
L 95.979336 127.54256 
L 96.671581 151.024084 
L 97.363819 163.581587 
L 98.056056 179.610227 
L 98.749362 200.628949 
L 99.44205 209.759033 
L 100.133837 205.140592 
L 100.826074 203.270432 
L 101.516997 198.865616 
L 102.209241 191.950222 
L 102.901478 180.943799 
L 103.593715 174.999284 
L 104.284797 164.886513 
L 104.977035 146.210308 
L 105.669272 133.816188 
L 106.361509 141.698462 
L 107.05535 148.107332 
L 107.747587 138.030509 
L 108.439825 143.039062 
L 109.132062 162.0657 
L 109.824962 174.405453 
L 110.517208 178.526886 
L 111.209437 174.715668 
L 111.901674 177.385573 
L 112.593675 178.752265 
L 113.285912 172.513012 
L 114.670387 188.013368 
L 115.361972 192.500214 
L 116.054209 199.64621 
L 116.746446 218.018318 
L 117.438683 222.33213 
L 118.130907 215.336738 
L 118.823151 220.906226 
L 119.515395 215.117298 
L 120.207625 195.591589 
L 121.594579 166.815373 
L 122.97906 121.401024 
L 123.67129 127.873507 
L 124.363909 141.376581 
L 125.056146 144.930236 
L 125.748383 157.043217 
L 126.44062 190.730997 
L 127.129632 198.91268 
L 128.514107 218.832627 
L 129.206344 219.235087 
L 130.591908 202.876976 
L 131.284145 179.973873 
L 131.976389 162.017535 
L 132.670814 149.601702 
L 133.363058 139.283757 
L 134.055295 132.143047 
L 134.747532 134.602247 
L 135.437802 148.285623 
L 136.130039 153.748672 
L 136.822277 153.910998 
L 137.514514 159.35196 
L 138.204709 171.381289 
L 139.589184 188.876825 
L 140.281421 203.929774 
L 140.976101 212.992342 
L 141.668336 203.85653 
L 142.360573 185.083081 
L 143.05281 171.902308 
L 145.821474 133.495338 
L 146.511257 130.74027 
L 147.203494 136.139136 
L 147.895731 140.160817 
L 148.588378 139.933059 
L 149.281455 130.117576 
L 149.973692 132.373112 
L 150.665929 134.219237 
L 152.05041 157.931855 
L 153.435969 197.054551 
L 154.128206 201.436647 
L 154.820443 199.630072 
L 155.510224 202.9385 
L 156.20247 203.051765 
L 156.894699 203.771096 
L 157.586944 203.801075 
L 158.279343 207.004319 
L 158.97158 212.587107 
L 159.663852 213.183404 
L 160.356055 220.304237 
L 161.051271 208.186294 
L 162.435745 162.288486 
L 163.127989 145.927453 
L 163.818557 134.850761 
L 164.510795 134.306926 
L 165.203032 130.696641 
L 165.895269 136.594992 
L 166.586145 140.839162 
L 167.278382 134.268276 
L 167.970626 132.930003 
L 168.662863 120.610594 
L 169.356457 122.251993 
L 170.048694 133.724838 
L 170.740931 151.573368 
L 171.433168 161.832429 
L 172.125831 168.765413 
L 172.818048 180.582862 
L 173.510286 196.433084 
L 174.202529 192.703395 
L 174.892987 197.173865 
L 175.585225 206.785138 
L 176.277462 209.810372 
L 176.969699 210.162526 
L 177.662487 215.500588 
L 178.354724 218.87841 
L 179.046962 208.742655 
L 179.739205 202.388369 
L 180.434067 200.763763 
L 181.126297 184.900515 
L 181.818534 174.150079 
L 182.510778 156.619735 
L 183.200632 142.305908 
L 183.892876 136.562464 
L 184.585113 125.678934 
L 185.2776 123.972242 
L 185.969588 118.694648 
L 186.661455 124.841336 
L 187.353692 127.511888 
L 188.045929 138.104348 
L 188.738167 142.583674 
M 191.509762 186.134751 
L 192.199235 193.919353 
L 192.891481 207.073059 
L 193.583718 212.780242 
L 194.275953 220.523809 
L 194.967935 211.578487 
L 195.660172 213.436457 
L 196.352409 227.912128 
L 197.044646 228.95146 
L 197.738917 228.14403 
L 198.431154 201.816777 
L 199.123391 165.001013 
L 199.815628 142.313356 
L 200.508823 127.443104 
L 201.20106 124.001811 
L 201.893304 124.380997 
L 202.585541 130.359672 
L 203.275538 144.319564 
L 205.35225 218.421653 
L 206.044672 221.06822 
L 206.736909 231.560846 
L 207.429146 223.977869 
L 208.121383 198.393615 
L 208.815873 164.453577 
L 209.50811 140.210166 
L 210.200348 130.270561 
L 210.892585 124.637973 
L 211.583861 122.580414 
L 212.276099 127.588109 
L 212.968342 127.240779 
L 213.66058 122.950554 
L 214.351919 120.844261 
L 215.044156 116.159866 
L 216.428631 139.825552 
L 217.120874 143.095407 
L 217.814995 148.02367 
L 219.199469 177.690489 
L 219.891706 192.755605 
L 220.58497 200.043997 
L 221.277214 212.318253 
L 221.969824 219.352377 
L 222.661681 217.669918 
L 223.354881 207.861833 
L 224.047124 190.114163 
L 224.739362 169.473884 
L 225.431599 161.109547 
L 226.815566 135.253549 
L 227.507804 129.216905 
L 228.200041 138.503704 
L 228.892598 141.3148 
L 229.584835 145.194871 
L 230.277072 154.083565 
L 231.661953 158.170269 
L 233.046427 182.308313 
L 233.738664 189.313119 
L 234.434318 194.448399 
L 235.126562 200.464655 
L 235.818799 198.131318 
L 236.511036 194.46206 
L 237.897963 175.782678 
L 238.5902 175.919985 
L 239.282437 182.070458 
L 239.966295 184.688236 
L 240.658539 189.4081 
L 241.350776 192.361982 
L 242.043013 198.907839 
L 242.735331 204.316977 
L 243.427569 203.79784 
L 244.119806 201.040499 
L 244.812043 192.031932 
L 245.504977 196.086548 
L 246.197214 189.672646 
L 246.889449 177.789318 
L 247.581686 173.026843 
L 248.274878 165.807195 
L 248.967115 149.412649 
L 249.659352 138.742039 
L 251.043826 126.560967 
L 251.736771 129.446906 
L 252.429009 136.003535 
L 253.121246 141.267239 
L 253.81349 150.725667 
L 255.192947 175.446447 
L 255.885192 181.91706 
L 256.577429 174.160826 
L 257.269926 183.229301 
L 257.962163 198.887571 
L 258.6544 205.221276 
L 259.346637 214.309962 
L 260.040695 219.538949 
L 260.732932 207.08475 
L 262.117406 174.398016 
L 262.80931 158.168026 
L 263.501547 144.857471 
L 264.193784 144.61387 
L 264.886021 140.685111 
L 265.576308 129.356965 
L 266.268553 129.006034 
L 266.960791 129.574621 
L 267.653028 132.494433 
L 268.344813 136.275689 
L 269.03705 132.234679 
L 269.729287 142.915499 
L 270.421524 162.892556 
M 271.808522 172.803379 
L 273.192996 185.637596 
L 273.886626 187.515252 
L 274.578864 177.258444 
M 279.422083 136.332625 
L 280.11432 151.226133 
L 280.806557 159.782575 
M 282.885262 195.574703 
L 283.576905 202.161913 
L 284.269143 196.858778 
M 291.190092 157.764927 
L 291.882329 165.350511 
L 292.574566 163.689571 
M 296.037925 214.051666 
L 296.728311 236.029153 
L 297.420548 248.169863 
L 298.112785 221.27464 
L 299.500625 135.281576 
L 300.192862 113.470913 
M 305.72952 257.72898 
L 306.421757 289.694004 
L 307.114493 295.254711 
L 307.804746 262.778254 
L 308.496983 213.215868 
L 309.18922 139.899253 
L 309.881458 87.169877 
M 314.727973 233.706704 
L 315.42021 271.490823 
L 316.112447 280.206692 
L 316.803859 265.234084 
L 317.496096 229.467604 
L 318.188333 186.378398 
L 318.880571 126.347324 
L 320.268821 61.166172 
L 320.961058 55.501588 
L 321.653295 73.086279 
L 322.342377 79.884132 
L 323.034614 90.433724 
L 325.805058 223.265702 
L 326.497302 244.098455 
M 327.884744 224.06933 
L 329.269218 141.476496 
L 329.961455 85.283478 
L 330.653469 76.025381 
L 331.346218 82.99547 
L 332.037944 95.873096 
L 333.422638 180.784613 
L 334.114875 198.808369 
L 334.807119 233.648844 
M 337.575094 182.21143 
L 338.267337 124.884347 
L 338.959426 77.850696 
L 339.651661 65.824042 
L 340.343899 90.974526 
L 341.036136 121.773846 
L 341.726718 166.717453 
L 343.803429 264.475532 
L 344.492933 280.942065 
L 345.18517 264.622093 
L 345.877414 225.239956 
L 346.569651 176.379772 
M 347.953989 82.715026 
L 348.646226 71.881383 
M 351.414505 218.485766 
L 352.798979 253.382043 
L 353.491776 257.489767 
L 354.184019 230.784558 
L 355.569124 145.649614 
L 356.26317 113.82449 
L 356.955416 106.412843 
L 357.647653 117.915696 
L 358.33989 140.319862 
L 359.721951 158.224094 
M 361.106426 166.28626 
L 361.799274 175.437617 
L 362.491511 182.155995 
L 363.183748 191.625425 
L 363.875985 182.466347 
L 365.260626 152.919133 
M 366.6451 142.940834 
L 367.338052 154.779447 
L 368.030296 159.540874 
L 368.722533 155.689168 
L 369.41477 150.51341 
L 370.107983 152.153981 
L 371.492457 186.787005 
L 372.184694 188.76639 
L 372.877912 185.947529 
L 373.570157 180.443571 
L 374.262395 169.828917 
L 374.95463 157.461182 
M 376.34006 138.527997 
L 377.032291 140.709015 
L 377.724534 149.898768 
M 380.492239 182.88351 
L 381.184476 187.667013 
L 381.876099 187.512512 
L 382.568336 192.858314 
L 383.260573 187.04423 
L 383.952811 164.582116 
L 384.644637 171.712936 
L 385.336874 172.787053 
L 386.029111 161.383441 
L 386.721348 154.411663 
L 387.412183 158.076665 
L 388.104412 166.13345 
L 388.796657 170.38293 
M 390.179932 184.945154 
L 390.872169 175.042148 
L 391.564426 170.225145 
L 392.256643 170.057347 
L 392.948735 166.341634 
L 393.640972 159.36278 
L 394.333209 163.354099 
L 395.025447 163.399755 
L 395.717867 165.966431 
L 396.410104 165.664346 
L 396.410104 165.664346 
" style="fill:none;stroke:#0000ff;stroke-linecap:square;"/>
   </g>
   <g id="line2d_129">
    <path clip-path="url(#pf66aeb1328)" d="M 276.655785 154.66268 
L 277.348022 147.946192 
M 281.498794 162.621354 
L 282.192431 181.991862 
M 286.344534 157.269331 
L 287.036771 152.11535 
L 287.729008 150.430562 
L 288.421904 139.477005 
L 289.806385 148.705669 
L 290.498622 149.340966 
M 294.653451 196.389302 
L 295.345682 204.320577 
M 300.885099 98.34885 
L 301.577343 71.620655 
L 302.26739 64.46478 
L 302.959621 77.973506 
M 304.344095 155.995048 
L 305.037283 206.542623 
M 310.575802 57.855955 
L 311.268039 53.568 
L 311.960277 69.994488 
L 314.035729 191.059474 
M 335.499356 268.018296 
L 336.190619 267.887733 
L 336.882856 236.58743 
M 349.338463 101.836696 
L 350.722267 183.34534 
M 397.102341 169.09643 
L 397.794578 167.027314 
L 398.487273 165.93738 
L 398.487273 165.93738 
" style="fill:none;stroke:#008000;stroke-linecap:square;"/>
   </g>
   <g id="patch_3">
    <path d="M 57.6 307.584 
L 57.6 41.472 
" style="fill:none;stroke:#000000;stroke-linecap:square;stroke-linejoin:miter;stroke-width:0.8;"/>
   </g>
   <g id="patch_4">
    <path d="M 414.72 307.584 
L 414.72 41.472 
" style="fill:none;stroke:#000000;stroke-linecap:square;stroke-linejoin:miter;stroke-width:0.8;"/>
   </g>
   <g id="patch_5">
    <path d="M 57.6 307.584 
L 414.72 307.584 
" style="fill:none;stroke:#000000;stroke-linecap:square;stroke-linejoin:miter;stroke-width:0.8;"/>
   </g>
   <g id="patch_6">
    <path d="M 57.6 41.472 
L 414.72 41.472 
" style="fill:none;stroke:#000000;stroke-linecap:square;stroke-linejoin:miter;stroke-width:0.8;"/>
   </g>
   <g id="text_15">
    <!-- Rel Gt Rot Y Plot -->
    <defs>
     <path d="M 44.390625 34.1875 
Q 47.5625 33.109375 50.5625 29.59375 
Q 53.5625 26.078125 56.59375 19.921875 
L 66.609375 0 
L 56 0 
L 46.6875 18.703125 
Q 43.0625 26.03125 39.671875 28.421875 
Q 36.28125 30.8125 30.421875 30.8125 
L 19.671875 30.8125 
L 19.671875 0 
L 9.8125 0 
L 9.8125 72.90625 
L 32.078125 72.90625 
Q 44.578125 72.90625 50.734375 67.671875 
Q 56.890625 62.453125 56.890625 51.90625 
Q 56.890625 45.015625 53.6875 40.46875 
Q 50.484375 35.9375 44.390625 34.1875 
z
M 19.671875 64.796875 
L 19.671875 38.921875 
L 32.078125 38.921875 
Q 39.203125 38.921875 42.84375 42.21875 
Q 46.484375 45.515625 46.484375 51.90625 
Q 46.484375 58.296875 42.84375 61.546875 
Q 39.203125 64.796875 32.078125 64.796875 
z
" id="DejaVuSans-52"/>
     <path d="M 9.421875 75.984375 
L 18.40625 75.984375 
L 18.40625 0 
L 9.421875 0 
z
" id="DejaVuSans-6c"/>
     <path d="M 59.515625 10.40625 
L 59.515625 29.984375 
L 43.40625 29.984375 
L 43.40625 38.09375 
L 69.28125 38.09375 
L 69.28125 6.78125 
Q 63.578125 2.734375 56.6875 0.65625 
Q 49.8125 -1.421875 42 -1.421875 
Q 24.90625 -1.421875 15.25 8.5625 
Q 5.609375 18.5625 5.609375 36.375 
Q 5.609375 54.25 15.25 64.234375 
Q 24.90625 74.21875 42 74.21875 
Q 49.125 74.21875 55.546875 72.453125 
Q 61.96875 70.703125 67.390625 67.28125 
L 67.390625 56.78125 
Q 61.921875 61.421875 55.765625 63.765625 
Q 49.609375 66.109375 42.828125 66.109375 
Q 29.4375 66.109375 22.71875 58.640625 
Q 16.015625 51.171875 16.015625 36.375 
Q 16.015625 21.625 22.71875 14.15625 
Q 29.4375 6.6875 42.828125 6.6875 
Q 48.046875 6.6875 52.140625 7.59375 
Q 56.25 8.5 59.515625 10.40625 
z
" id="DejaVuSans-47"/>
     <path d="M -0.203125 72.90625 
L 10.40625 72.90625 
L 30.609375 42.921875 
L 50.6875 72.90625 
L 61.28125 72.90625 
L 35.5 34.71875 
L 35.5 0 
L 25.59375 0 
L 25.59375 34.71875 
z
" id="DejaVuSans-59"/>
     <path d="M 19.671875 64.796875 
L 19.671875 37.40625 
L 32.078125 37.40625 
Q 38.96875 37.40625 42.71875 40.96875 
Q 46.484375 44.53125 46.484375 51.125 
Q 46.484375 57.671875 42.71875 61.234375 
Q 38.96875 64.796875 32.078125 64.796875 
z
M 9.8125 72.90625 
L 32.078125 72.90625 
Q 44.34375 72.90625 50.609375 67.359375 
Q 56.890625 61.8125 56.890625 51.125 
Q 56.890625 40.328125 50.609375 34.8125 
Q 44.34375 29.296875 32.078125 29.296875 
L 19.671875 29.296875 
L 19.671875 0 
L 9.8125 0 
z
" id="DejaVuSans-50"/>
    </defs>
    <g transform="translate(186.845625 35.472)scale(0.12 -0.12)">
     <use xlink:href="#DejaVuSans-52"/>
     <use x="69.419922" xlink:href="#DejaVuSans-65"/>
     <use x="130.943359" xlink:href="#DejaVuSans-6c"/>
     <use x="158.726562" xlink:href="#DejaVuSans-20"/>
     <use x="190.513672" xlink:href="#DejaVuSans-47"/>
     <use x="268.003906" xlink:href="#DejaVuSans-74"/>
     <use x="307.212891" xlink:href="#DejaVuSans-20"/>
     <use x="339" xlink:href="#DejaVuSans-52"/>
     <use x="408.419922" xlink:href="#DejaVuSans-6f"/>
     <use x="469.601562" xlink:href="#DejaVuSans-74"/>
     <use x="508.810547" xlink:href="#DejaVuSans-20"/>
     <use x="540.597656" xlink:href="#DejaVuSans-59"/>
     <use x="601.681641" xlink:href="#DejaVuSans-20"/>
     <use x="633.46875" xlink:href="#DejaVuSans-50"/>
     <use x="693.771484" xlink:href="#DejaVuSans-6c"/>
     <use x="721.554688" xlink:href="#DejaVuSans-6f"/>
     <use x="782.736328" xlink:href="#DejaVuSans-74"/>
    </g>
   </g>
  </g>
 </g>
 <defs>
  <clipPath id="pf66aeb1328">
   <rect height="266.112" width="357.12" x="57.6" y="41.472"/>
  </clipPath>
 </defs>
</svg>
