<?xml version="1.0" encoding="utf-8" standalone="no"?>
<!DOCTYPE svg PUBLIC "-//W3C//DTD SVG 1.1//EN"
  "http://www.w3.org/Graphics/SVG/1.1/DTD/svg11.dtd">
<!-- Created with matplotlib (http://matplotlib.org/) -->
<svg height="345.6pt" version="1.1" viewBox="0 0 460.8 345.6" width="460.8pt" xmlns="http://www.w3.org/2000/svg" xmlns:xlink="http://www.w3.org/1999/xlink">
 <defs>
  <style type="text/css">
*{stroke-linecap:butt;stroke-linejoin:round;}
  </style>
 </defs>
 <g id="figure_1">
  <g id="patch_1">
   <path d="M 0 345.6 
L 460.8 345.6 
L 460.8 0 
L 0 0 
z
" style="fill:#ffffff;"/>
  </g>
  <g id="axes_1">
   <g id="patch_2">
    <path d="M 57.6 307.584 
L 414.72 307.584 
L 414.72 41.472 
L 57.6 41.472 
z
" style="fill:#ffffff;"/>
   </g>
   <g id="matplotlib.axis_1">
    <g id="xtick_1">
     <g id="line2d_1">
      <path clip-path="url(#p180f1007dc)" d="M 70.555248 307.584 
L 70.555248 41.472 
" style="fill:none;stroke:#b0b0b0;stroke-linecap:square;stroke-width:0.8;"/>
     </g>
     <g id="line2d_2">
      <defs>
       <path d="M 0 0 
L 0 3.5 
" id="m9568fe8226" style="stroke:#000000;stroke-width:0.8;"/>
      </defs>
      <g>
       <use style="stroke:#000000;stroke-width:0.8;" x="70.555248" xlink:href="#m9568fe8226" y="307.584"/>
      </g>
     </g>
     <g id="text_1">
      <!-- 0 -->
      <defs>
       <path d="M 31.78125 66.40625 
Q 24.171875 66.40625 20.328125 58.90625 
Q 16.5 51.421875 16.5 36.375 
Q 16.5 21.390625 20.328125 13.890625 
Q 24.171875 6.390625 31.78125 6.390625 
Q 39.453125 6.390625 43.28125 13.890625 
Q 47.125 21.390625 47.125 36.375 
Q 47.125 51.421875 43.28125 58.90625 
Q 39.453125 66.40625 31.78125 66.40625 
z
M 31.78125 74.21875 
Q 44.046875 74.21875 50.515625 64.515625 
Q 56.984375 54.828125 56.984375 36.375 
Q 56.984375 17.96875 50.515625 8.265625 
Q 44.046875 -1.421875 31.78125 -1.421875 
Q 19.53125 -1.421875 13.0625 8.265625 
Q 6.59375 17.96875 6.59375 36.375 
Q 6.59375 54.828125 13.0625 64.515625 
Q 19.53125 74.21875 31.78125 74.21875 
z
" id="DejaVuSans-30"/>
      </defs>
      <g transform="translate(67.373998 322.182437)scale(0.1 -0.1)">
       <use xlink:href="#DejaVuSans-30"/>
      </g>
     </g>
    </g>
    <g id="xtick_2">
     <g id="line2d_3">
      <path clip-path="url(#p180f1007dc)" d="M 139.776886 307.584 
L 139.776886 41.472 
" style="fill:none;stroke:#b0b0b0;stroke-linecap:square;stroke-width:0.8;"/>
     </g>
     <g id="line2d_4">
      <g>
       <use style="stroke:#000000;stroke-width:0.8;" x="139.776886" xlink:href="#m9568fe8226" y="307.584"/>
      </g>
     </g>
     <g id="text_2">
      <!-- 10 -->
      <defs>
       <path d="M 12.40625 8.296875 
L 28.515625 8.296875 
L 28.515625 63.921875 
L 10.984375 60.40625 
L 10.984375 69.390625 
L 28.421875 72.90625 
L 38.28125 72.90625 
L 38.28125 8.296875 
L 54.390625 8.296875 
L 54.390625 0 
L 12.40625 0 
z
" id="DejaVuSans-31"/>
      </defs>
      <g transform="translate(133.414386 322.182437)scale(0.1 -0.1)">
       <use xlink:href="#DejaVuSans-31"/>
       <use x="63.623047" xlink:href="#DejaVuSans-30"/>
      </g>
     </g>
    </g>
    <g id="xtick_3">
     <g id="line2d_5">
      <path clip-path="url(#p180f1007dc)" d="M 208.998523 307.584 
L 208.998523 41.472 
" style="fill:none;stroke:#b0b0b0;stroke-linecap:square;stroke-width:0.8;"/>
     </g>
     <g id="line2d_6">
      <g>
       <use style="stroke:#000000;stroke-width:0.8;" x="208.998523" xlink:href="#m9568fe8226" y="307.584"/>
      </g>
     </g>
     <g id="text_3">
      <!-- 20 -->
      <defs>
       <path d="M 19.1875 8.296875 
L 53.609375 8.296875 
L 53.609375 0 
L 7.328125 0 
L 7.328125 8.296875 
Q 12.9375 14.109375 22.625 23.890625 
Q 32.328125 33.6875 34.8125 36.53125 
Q 39.546875 41.84375 41.421875 45.53125 
Q 43.3125 49.21875 43.3125 52.78125 
Q 43.3125 58.59375 39.234375 62.25 
Q 35.15625 65.921875 28.609375 65.921875 
Q 23.96875 65.921875 18.8125 64.3125 
Q 13.671875 62.703125 7.8125 59.421875 
L 7.8125 69.390625 
Q 13.765625 71.78125 18.9375 73 
Q 24.125 74.21875 28.421875 74.21875 
Q 39.75 74.21875 46.484375 68.546875 
Q 53.21875 62.890625 53.21875 53.421875 
Q 53.21875 48.921875 51.53125 44.890625 
Q 49.859375 40.875 45.40625 35.40625 
Q 44.1875 33.984375 37.640625 27.21875 
Q 31.109375 20.453125 19.1875 8.296875 
z
" id="DejaVuSans-32"/>
      </defs>
      <g transform="translate(202.636023 322.182437)scale(0.1 -0.1)">
       <use xlink:href="#DejaVuSans-32"/>
       <use x="63.623047" xlink:href="#DejaVuSans-30"/>
      </g>
     </g>
    </g>
    <g id="xtick_4">
     <g id="line2d_7">
      <path clip-path="url(#p180f1007dc)" d="M 278.220161 307.584 
L 278.220161 41.472 
" style="fill:none;stroke:#b0b0b0;stroke-linecap:square;stroke-width:0.8;"/>
     </g>
     <g id="line2d_8">
      <g>
       <use style="stroke:#000000;stroke-width:0.8;" x="278.220161" xlink:href="#m9568fe8226" y="307.584"/>
      </g>
     </g>
     <g id="text_4">
      <!-- 30 -->
      <defs>
       <path d="M 40.578125 39.3125 
Q 47.65625 37.796875 51.625 33 
Q 55.609375 28.21875 55.609375 21.1875 
Q 55.609375 10.40625 48.1875 4.484375 
Q 40.765625 -1.421875 27.09375 -1.421875 
Q 22.515625 -1.421875 17.65625 -0.515625 
Q 12.796875 0.390625 7.625 2.203125 
L 7.625 11.71875 
Q 11.71875 9.328125 16.59375 8.109375 
Q 21.484375 6.890625 26.8125 6.890625 
Q 36.078125 6.890625 40.9375 10.546875 
Q 45.796875 14.203125 45.796875 21.1875 
Q 45.796875 27.640625 41.28125 31.265625 
Q 36.765625 34.90625 28.71875 34.90625 
L 20.21875 34.90625 
L 20.21875 43.015625 
L 29.109375 43.015625 
Q 36.375 43.015625 40.234375 45.921875 
Q 44.09375 48.828125 44.09375 54.296875 
Q 44.09375 59.90625 40.109375 62.90625 
Q 36.140625 65.921875 28.71875 65.921875 
Q 24.65625 65.921875 20.015625 65.03125 
Q 15.375 64.15625 9.8125 62.3125 
L 9.8125 71.09375 
Q 15.4375 72.65625 20.34375 73.4375 
Q 25.25 74.21875 29.59375 74.21875 
Q 40.828125 74.21875 47.359375 69.109375 
Q 53.90625 64.015625 53.90625 55.328125 
Q 53.90625 49.265625 50.4375 45.09375 
Q 46.96875 40.921875 40.578125 39.3125 
z
" id="DejaVuSans-33"/>
      </defs>
      <g transform="translate(271.857661 322.182437)scale(0.1 -0.1)">
       <use xlink:href="#DejaVuSans-33"/>
       <use x="63.623047" xlink:href="#DejaVuSans-30"/>
      </g>
     </g>
    </g>
    <g id="xtick_5">
     <g id="line2d_9">
      <path clip-path="url(#p180f1007dc)" d="M 347.441799 307.584 
L 347.441799 41.472 
" style="fill:none;stroke:#b0b0b0;stroke-linecap:square;stroke-width:0.8;"/>
     </g>
     <g id="line2d_10">
      <g>
       <use style="stroke:#000000;stroke-width:0.8;" x="347.441799" xlink:href="#m9568fe8226" y="307.584"/>
      </g>
     </g>
     <g id="text_5">
      <!-- 40 -->
      <defs>
       <path d="M 37.796875 64.3125 
L 12.890625 25.390625 
L 37.796875 25.390625 
z
M 35.203125 72.90625 
L 47.609375 72.90625 
L 47.609375 25.390625 
L 58.015625 25.390625 
L 58.015625 17.1875 
L 47.609375 17.1875 
L 47.609375 0 
L 37.796875 0 
L 37.796875 17.1875 
L 4.890625 17.1875 
L 4.890625 26.703125 
z
" id="DejaVuSans-34"/>
      </defs>
      <g transform="translate(341.079299 322.182437)scale(0.1 -0.1)">
       <use xlink:href="#DejaVuSans-34"/>
       <use x="63.623047" xlink:href="#DejaVuSans-30"/>
      </g>
     </g>
    </g>
    <g id="xtick_6">
     <g id="line2d_11">
      <path clip-path="url(#p180f1007dc)" d="M 84.399575 307.584 
L 84.399575 41.472 
" style="fill:none;stroke:#b0b0b0;stroke-linecap:square;stroke-width:0.8;"/>
     </g>
     <g id="line2d_12">
      <defs>
       <path d="M 0 0 
L 0 2 
" id="m933c32fbcb" style="stroke:#000000;stroke-width:0.6;"/>
      </defs>
      <g>
       <use style="stroke:#000000;stroke-width:0.6;" x="84.399575" xlink:href="#m933c32fbcb" y="307.584"/>
      </g>
     </g>
    </g>
    <g id="xtick_7">
     <g id="line2d_13">
      <path clip-path="url(#p180f1007dc)" d="M 98.243903 307.584 
L 98.243903 41.472 
" style="fill:none;stroke:#b0b0b0;stroke-linecap:square;stroke-width:0.8;"/>
     </g>
     <g id="line2d_14">
      <g>
       <use style="stroke:#000000;stroke-width:0.6;" x="98.243903" xlink:href="#m933c32fbcb" y="307.584"/>
      </g>
     </g>
    </g>
    <g id="xtick_8">
     <g id="line2d_15">
      <path clip-path="url(#p180f1007dc)" d="M 112.08823 307.584 
L 112.08823 41.472 
" style="fill:none;stroke:#b0b0b0;stroke-linecap:square;stroke-width:0.8;"/>
     </g>
     <g id="line2d_16">
      <g>
       <use style="stroke:#000000;stroke-width:0.6;" x="112.08823" xlink:href="#m933c32fbcb" y="307.584"/>
      </g>
     </g>
    </g>
    <g id="xtick_9">
     <g id="line2d_17">
      <path clip-path="url(#p180f1007dc)" d="M 125.932558 307.584 
L 125.932558 41.472 
" style="fill:none;stroke:#b0b0b0;stroke-linecap:square;stroke-width:0.8;"/>
     </g>
     <g id="line2d_18">
      <g>
       <use style="stroke:#000000;stroke-width:0.6;" x="125.932558" xlink:href="#m933c32fbcb" y="307.584"/>
      </g>
     </g>
    </g>
    <g id="xtick_10">
     <g id="line2d_19">
      <path clip-path="url(#p180f1007dc)" d="M 153.621213 307.584 
L 153.621213 41.472 
" style="fill:none;stroke:#b0b0b0;stroke-linecap:square;stroke-width:0.8;"/>
     </g>
     <g id="line2d_20">
      <g>
       <use style="stroke:#000000;stroke-width:0.6;" x="153.621213" xlink:href="#m933c32fbcb" y="307.584"/>
      </g>
     </g>
    </g>
    <g id="xtick_11">
     <g id="line2d_21">
      <path clip-path="url(#p180f1007dc)" d="M 167.465541 307.584 
L 167.465541 41.472 
" style="fill:none;stroke:#b0b0b0;stroke-linecap:square;stroke-width:0.8;"/>
     </g>
     <g id="line2d_22">
      <g>
       <use style="stroke:#000000;stroke-width:0.6;" x="167.465541" xlink:href="#m933c32fbcb" y="307.584"/>
      </g>
     </g>
    </g>
    <g id="xtick_12">
     <g id="line2d_23">
      <path clip-path="url(#p180f1007dc)" d="M 181.309868 307.584 
L 181.309868 41.472 
" style="fill:none;stroke:#b0b0b0;stroke-linecap:square;stroke-width:0.8;"/>
     </g>
     <g id="line2d_24">
      <g>
       <use style="stroke:#000000;stroke-width:0.6;" x="181.309868" xlink:href="#m933c32fbcb" y="307.584"/>
      </g>
     </g>
    </g>
    <g id="xtick_13">
     <g id="line2d_25">
      <path clip-path="url(#p180f1007dc)" d="M 195.154196 307.584 
L 195.154196 41.472 
" style="fill:none;stroke:#b0b0b0;stroke-linecap:square;stroke-width:0.8;"/>
     </g>
     <g id="line2d_26">
      <g>
       <use style="stroke:#000000;stroke-width:0.6;" x="195.154196" xlink:href="#m933c32fbcb" y="307.584"/>
      </g>
     </g>
    </g>
    <g id="xtick_14">
     <g id="line2d_27">
      <path clip-path="url(#p180f1007dc)" d="M 222.842851 307.584 
L 222.842851 41.472 
" style="fill:none;stroke:#b0b0b0;stroke-linecap:square;stroke-width:0.8;"/>
     </g>
     <g id="line2d_28">
      <g>
       <use style="stroke:#000000;stroke-width:0.6;" x="222.842851" xlink:href="#m933c32fbcb" y="307.584"/>
      </g>
     </g>
    </g>
    <g id="xtick_15">
     <g id="line2d_29">
      <path clip-path="url(#p180f1007dc)" d="M 236.687178 307.584 
L 236.687178 41.472 
" style="fill:none;stroke:#b0b0b0;stroke-linecap:square;stroke-width:0.8;"/>
     </g>
     <g id="line2d_30">
      <g>
       <use style="stroke:#000000;stroke-width:0.6;" x="236.687178" xlink:href="#m933c32fbcb" y="307.584"/>
      </g>
     </g>
    </g>
    <g id="xtick_16">
     <g id="line2d_31">
      <path clip-path="url(#p180f1007dc)" d="M 250.531506 307.584 
L 250.531506 41.472 
" style="fill:none;stroke:#b0b0b0;stroke-linecap:square;stroke-width:0.8;"/>
     </g>
     <g id="line2d_32">
      <g>
       <use style="stroke:#000000;stroke-width:0.6;" x="250.531506" xlink:href="#m933c32fbcb" y="307.584"/>
      </g>
     </g>
    </g>
    <g id="xtick_17">
     <g id="line2d_33">
      <path clip-path="url(#p180f1007dc)" d="M 264.375834 307.584 
L 264.375834 41.472 
" style="fill:none;stroke:#b0b0b0;stroke-linecap:square;stroke-width:0.8;"/>
     </g>
     <g id="line2d_34">
      <g>
       <use style="stroke:#000000;stroke-width:0.6;" x="264.375834" xlink:href="#m933c32fbcb" y="307.584"/>
      </g>
     </g>
    </g>
    <g id="xtick_18">
     <g id="line2d_35">
      <path clip-path="url(#p180f1007dc)" d="M 292.064489 307.584 
L 292.064489 41.472 
" style="fill:none;stroke:#b0b0b0;stroke-linecap:square;stroke-width:0.8;"/>
     </g>
     <g id="line2d_36">
      <g>
       <use style="stroke:#000000;stroke-width:0.6;" x="292.064489" xlink:href="#m933c32fbcb" y="307.584"/>
      </g>
     </g>
    </g>
    <g id="xtick_19">
     <g id="line2d_37">
      <path clip-path="url(#p180f1007dc)" d="M 305.908816 307.584 
L 305.908816 41.472 
" style="fill:none;stroke:#b0b0b0;stroke-linecap:square;stroke-width:0.8;"/>
     </g>
     <g id="line2d_38">
      <g>
       <use style="stroke:#000000;stroke-width:0.6;" x="305.908816" xlink:href="#m933c32fbcb" y="307.584"/>
      </g>
     </g>
    </g>
    <g id="xtick_20">
     <g id="line2d_39">
      <path clip-path="url(#p180f1007dc)" d="M 319.753144 307.584 
L 319.753144 41.472 
" style="fill:none;stroke:#b0b0b0;stroke-linecap:square;stroke-width:0.8;"/>
     </g>
     <g id="line2d_40">
      <g>
       <use style="stroke:#000000;stroke-width:0.6;" x="319.753144" xlink:href="#m933c32fbcb" y="307.584"/>
      </g>
     </g>
    </g>
    <g id="xtick_21">
     <g id="line2d_41">
      <path clip-path="url(#p180f1007dc)" d="M 333.597471 307.584 
L 333.597471 41.472 
" style="fill:none;stroke:#b0b0b0;stroke-linecap:square;stroke-width:0.8;"/>
     </g>
     <g id="line2d_42">
      <g>
       <use style="stroke:#000000;stroke-width:0.6;" x="333.597471" xlink:href="#m933c32fbcb" y="307.584"/>
      </g>
     </g>
    </g>
    <g id="xtick_22">
     <g id="line2d_43">
      <path clip-path="url(#p180f1007dc)" d="M 361.286127 307.584 
L 361.286127 41.472 
" style="fill:none;stroke:#b0b0b0;stroke-linecap:square;stroke-width:0.8;"/>
     </g>
     <g id="line2d_44">
      <g>
       <use style="stroke:#000000;stroke-width:0.6;" x="361.286127" xlink:href="#m933c32fbcb" y="307.584"/>
      </g>
     </g>
    </g>
    <g id="xtick_23">
     <g id="line2d_45">
      <path clip-path="url(#p180f1007dc)" d="M 375.130454 307.584 
L 375.130454 41.472 
" style="fill:none;stroke:#b0b0b0;stroke-linecap:square;stroke-width:0.8;"/>
     </g>
     <g id="line2d_46">
      <g>
       <use style="stroke:#000000;stroke-width:0.6;" x="375.130454" xlink:href="#m933c32fbcb" y="307.584"/>
      </g>
     </g>
    </g>
    <g id="xtick_24">
     <g id="line2d_47">
      <path clip-path="url(#p180f1007dc)" d="M 388.974782 307.584 
L 388.974782 41.472 
" style="fill:none;stroke:#b0b0b0;stroke-linecap:square;stroke-width:0.8;"/>
     </g>
     <g id="line2d_48">
      <g>
       <use style="stroke:#000000;stroke-width:0.6;" x="388.974782" xlink:href="#m933c32fbcb" y="307.584"/>
      </g>
     </g>
    </g>
    <g id="xtick_25">
     <g id="line2d_49">
      <path clip-path="url(#p180f1007dc)" d="M 402.819109 307.584 
L 402.819109 41.472 
" style="fill:none;stroke:#b0b0b0;stroke-linecap:square;stroke-width:0.8;"/>
     </g>
     <g id="line2d_50">
      <g>
       <use style="stroke:#000000;stroke-width:0.6;" x="402.819109" xlink:href="#m933c32fbcb" y="307.584"/>
      </g>
     </g>
    </g>
    <g id="text_6">
     <!-- frame # [] -->
     <defs>
      <path d="M 37.109375 75.984375 
L 37.109375 68.5 
L 28.515625 68.5 
Q 23.6875 68.5 21.796875 66.546875 
Q 19.921875 64.59375 19.921875 59.515625 
L 19.921875 54.6875 
L 34.71875 54.6875 
L 34.71875 47.703125 
L 19.921875 47.703125 
L 19.921875 0 
L 10.890625 0 
L 10.890625 47.703125 
L 2.296875 47.703125 
L 2.296875 54.6875 
L 10.890625 54.6875 
L 10.890625 58.5 
Q 10.890625 67.625 15.140625 71.796875 
Q 19.390625 75.984375 28.609375 75.984375 
z
" id="DejaVuSans-66"/>
      <path d="M 41.109375 46.296875 
Q 39.59375 47.171875 37.8125 47.578125 
Q 36.03125 48 33.890625 48 
Q 26.265625 48 22.1875 43.046875 
Q 18.109375 38.09375 18.109375 28.8125 
L 18.109375 0 
L 9.078125 0 
L 9.078125 54.6875 
L 18.109375 54.6875 
L 18.109375 46.1875 
Q 20.953125 51.171875 25.484375 53.578125 
Q 30.03125 56 36.53125 56 
Q 37.453125 56 38.578125 55.875 
Q 39.703125 55.765625 41.0625 55.515625 
z
" id="DejaVuSans-72"/>
      <path d="M 34.28125 27.484375 
Q 23.390625 27.484375 19.1875 25 
Q 14.984375 22.515625 14.984375 16.5 
Q 14.984375 11.71875 18.140625 8.90625 
Q 21.296875 6.109375 26.703125 6.109375 
Q 34.1875 6.109375 38.703125 11.40625 
Q 43.21875 16.703125 43.21875 25.484375 
L 43.21875 27.484375 
z
M 52.203125 31.203125 
L 52.203125 0 
L 43.21875 0 
L 43.21875 8.296875 
Q 40.140625 3.328125 35.546875 0.953125 
Q 30.953125 -1.421875 24.3125 -1.421875 
Q 15.921875 -1.421875 10.953125 3.296875 
Q 6 8.015625 6 15.921875 
Q 6 25.140625 12.171875 29.828125 
Q 18.359375 34.515625 30.609375 34.515625 
L 43.21875 34.515625 
L 43.21875 35.40625 
Q 43.21875 41.609375 39.140625 45 
Q 35.0625 48.390625 27.6875 48.390625 
Q 23 48.390625 18.546875 47.265625 
Q 14.109375 46.140625 10.015625 43.890625 
L 10.015625 52.203125 
Q 14.9375 54.109375 19.578125 55.046875 
Q 24.21875 56 28.609375 56 
Q 40.484375 56 46.34375 49.84375 
Q 52.203125 43.703125 52.203125 31.203125 
z
" id="DejaVuSans-61"/>
      <path d="M 52 44.1875 
Q 55.375 50.25 60.0625 53.125 
Q 64.75 56 71.09375 56 
Q 79.640625 56 84.28125 50.015625 
Q 88.921875 44.046875 88.921875 33.015625 
L 88.921875 0 
L 79.890625 0 
L 79.890625 32.71875 
Q 79.890625 40.578125 77.09375 44.375 
Q 74.3125 48.1875 68.609375 48.1875 
Q 61.625 48.1875 57.5625 43.546875 
Q 53.515625 38.921875 53.515625 30.90625 
L 53.515625 0 
L 44.484375 0 
L 44.484375 32.71875 
Q 44.484375 40.625 41.703125 44.40625 
Q 38.921875 48.1875 33.109375 48.1875 
Q 26.21875 48.1875 22.15625 43.53125 
Q 18.109375 38.875 18.109375 30.90625 
L 18.109375 0 
L 9.078125 0 
L 9.078125 54.6875 
L 18.109375 54.6875 
L 18.109375 46.1875 
Q 21.1875 51.21875 25.484375 53.609375 
Q 29.78125 56 35.6875 56 
Q 41.65625 56 45.828125 52.96875 
Q 50 49.953125 52 44.1875 
z
" id="DejaVuSans-6d"/>
      <path d="M 56.203125 29.59375 
L 56.203125 25.203125 
L 14.890625 25.203125 
Q 15.484375 15.921875 20.484375 11.0625 
Q 25.484375 6.203125 34.421875 6.203125 
Q 39.59375 6.203125 44.453125 7.46875 
Q 49.3125 8.734375 54.109375 11.28125 
L 54.109375 2.78125 
Q 49.265625 0.734375 44.1875 -0.34375 
Q 39.109375 -1.421875 33.890625 -1.421875 
Q 20.796875 -1.421875 13.15625 6.1875 
Q 5.515625 13.8125 5.515625 26.8125 
Q 5.515625 40.234375 12.765625 48.109375 
Q 20.015625 56 32.328125 56 
Q 43.359375 56 49.78125 48.890625 
Q 56.203125 41.796875 56.203125 29.59375 
z
M 47.21875 32.234375 
Q 47.125 39.59375 43.09375 43.984375 
Q 39.0625 48.390625 32.421875 48.390625 
Q 24.90625 48.390625 20.390625 44.140625 
Q 15.875 39.890625 15.1875 32.171875 
z
" id="DejaVuSans-65"/>
      <path id="DejaVuSans-20"/>
      <path d="M 51.125 44 
L 36.921875 44 
L 32.8125 27.6875 
L 47.125 27.6875 
z
M 43.796875 71.78125 
L 38.71875 51.515625 
L 52.984375 51.515625 
L 58.109375 71.78125 
L 65.921875 71.78125 
L 60.890625 51.515625 
L 76.125 51.515625 
L 76.125 44 
L 58.984375 44 
L 54.984375 27.6875 
L 70.515625 27.6875 
L 70.515625 20.21875 
L 53.078125 20.21875 
L 48 0 
L 40.1875 0 
L 45.21875 20.21875 
L 30.90625 20.21875 
L 25.875 0 
L 18.015625 0 
L 23.09375 20.21875 
L 7.71875 20.21875 
L 7.71875 27.6875 
L 24.90625 27.6875 
L 29 44 
L 13.28125 44 
L 13.28125 51.515625 
L 30.90625 51.515625 
L 35.890625 71.78125 
z
" id="DejaVuSans-23"/>
      <path d="M 8.59375 75.984375 
L 29.296875 75.984375 
L 29.296875 69 
L 17.578125 69 
L 17.578125 -6.203125 
L 29.296875 -6.203125 
L 29.296875 -13.1875 
L 8.59375 -13.1875 
z
" id="DejaVuSans-5b"/>
      <path d="M 30.421875 75.984375 
L 30.421875 -13.1875 
L 9.71875 -13.1875 
L 9.71875 -6.203125 
L 21.390625 -6.203125 
L 21.390625 69 
L 9.71875 69 
L 9.71875 75.984375 
z
" id="DejaVuSans-5d"/>
     </defs>
     <g transform="translate(210.063906 335.860562)scale(0.1 -0.1)">
      <use xlink:href="#DejaVuSans-66"/>
      <use x="35.205078" xlink:href="#DejaVuSans-72"/>
      <use x="76.318359" xlink:href="#DejaVuSans-61"/>
      <use x="137.597656" xlink:href="#DejaVuSans-6d"/>
      <use x="235.009766" xlink:href="#DejaVuSans-65"/>
      <use x="296.533203" xlink:href="#DejaVuSans-20"/>
      <use x="328.320312" xlink:href="#DejaVuSans-23"/>
      <use x="412.109375" xlink:href="#DejaVuSans-20"/>
      <use x="443.896484" xlink:href="#DejaVuSans-5b"/>
      <use x="482.910156" xlink:href="#DejaVuSans-5d"/>
     </g>
    </g>
   </g>
   <g id="matplotlib.axis_2">
    <g id="ytick_1">
     <g id="line2d_51">
      <path clip-path="url(#p180f1007dc)" d="M 57.6 271.600656 
L 414.72 271.600656 
" style="fill:none;stroke:#b0b0b0;stroke-linecap:square;stroke-width:0.8;"/>
     </g>
     <g id="line2d_52">
      <defs>
       <path d="M 0 0 
L -3.5 0 
" id="ma47ca5427b" style="stroke:#000000;stroke-width:0.8;"/>
      </defs>
      <g>
       <use style="stroke:#000000;stroke-width:0.8;" x="57.6" xlink:href="#ma47ca5427b" y="271.600656"/>
      </g>
     </g>
     <g id="text_7">
      <!-- −0.1 -->
      <defs>
       <path d="M 10.59375 35.5 
L 73.1875 35.5 
L 73.1875 27.203125 
L 10.59375 27.203125 
z
" id="DejaVuSans-2212"/>
       <path d="M 10.6875 12.40625 
L 21 12.40625 
L 21 0 
L 10.6875 0 
z
" id="DejaVuSans-2e"/>
      </defs>
      <g transform="translate(26.317187 275.399875)scale(0.1 -0.1)">
       <use xlink:href="#DejaVuSans-2212"/>
       <use x="83.789062" xlink:href="#DejaVuSans-30"/>
       <use x="147.412109" xlink:href="#DejaVuSans-2e"/>
       <use x="179.199219" xlink:href="#DejaVuSans-31"/>
      </g>
     </g>
    </g>
    <g id="ytick_2">
     <g id="line2d_53">
      <path clip-path="url(#p180f1007dc)" d="M 57.6 213.685248 
L 414.72 213.685248 
" style="fill:none;stroke:#b0b0b0;stroke-linecap:square;stroke-width:0.8;"/>
     </g>
     <g id="line2d_54">
      <g>
       <use style="stroke:#000000;stroke-width:0.8;" x="57.6" xlink:href="#ma47ca5427b" y="213.685248"/>
      </g>
     </g>
     <g id="text_8">
      <!-- 0.0 -->
      <g transform="translate(34.696875 217.484467)scale(0.1 -0.1)">
       <use xlink:href="#DejaVuSans-30"/>
       <use x="63.623047" xlink:href="#DejaVuSans-2e"/>
       <use x="95.410156" xlink:href="#DejaVuSans-30"/>
      </g>
     </g>
    </g>
    <g id="ytick_3">
     <g id="line2d_55">
      <path clip-path="url(#p180f1007dc)" d="M 57.6 155.769841 
L 414.72 155.769841 
" style="fill:none;stroke:#b0b0b0;stroke-linecap:square;stroke-width:0.8;"/>
     </g>
     <g id="line2d_56">
      <g>
       <use style="stroke:#000000;stroke-width:0.8;" x="57.6" xlink:href="#ma47ca5427b" y="155.769841"/>
      </g>
     </g>
     <g id="text_9">
      <!-- 0.1 -->
      <g transform="translate(34.696875 159.569059)scale(0.1 -0.1)">
       <use xlink:href="#DejaVuSans-30"/>
       <use x="63.623047" xlink:href="#DejaVuSans-2e"/>
       <use x="95.410156" xlink:href="#DejaVuSans-31"/>
      </g>
     </g>
    </g>
    <g id="ytick_4">
     <g id="line2d_57">
      <path clip-path="url(#p180f1007dc)" d="M 57.6 97.854433 
L 414.72 97.854433 
" style="fill:none;stroke:#b0b0b0;stroke-linecap:square;stroke-width:0.8;"/>
     </g>
     <g id="line2d_58">
      <g>
       <use style="stroke:#000000;stroke-width:0.8;" x="57.6" xlink:href="#ma47ca5427b" y="97.854433"/>
      </g>
     </g>
     <g id="text_10">
      <!-- 0.2 -->
      <g transform="translate(34.696875 101.653652)scale(0.1 -0.1)">
       <use xlink:href="#DejaVuSans-30"/>
       <use x="63.623047" xlink:href="#DejaVuSans-2e"/>
       <use x="95.410156" xlink:href="#DejaVuSans-32"/>
      </g>
     </g>
    </g>
    <g id="ytick_5">
     <g id="line2d_59">
      <path clip-path="url(#p180f1007dc)" d="M 57.6 306.349901 
L 414.72 306.349901 
" style="fill:none;stroke:#b0b0b0;stroke-linecap:square;stroke-width:0.8;"/>
     </g>
     <g id="line2d_60">
      <defs>
       <path d="M 0 0 
L -2 0 
" id="m6d14a6d2e8" style="stroke:#000000;stroke-width:0.6;"/>
      </defs>
      <g>
       <use style="stroke:#000000;stroke-width:0.6;" x="57.6" xlink:href="#m6d14a6d2e8" y="306.349901"/>
      </g>
     </g>
    </g>
    <g id="ytick_6">
     <g id="line2d_61">
      <path clip-path="url(#p180f1007dc)" d="M 57.6 294.766819 
L 414.72 294.766819 
" style="fill:none;stroke:#b0b0b0;stroke-linecap:square;stroke-width:0.8;"/>
     </g>
     <g id="line2d_62">
      <g>
       <use style="stroke:#000000;stroke-width:0.6;" x="57.6" xlink:href="#m6d14a6d2e8" y="294.766819"/>
      </g>
     </g>
    </g>
    <g id="ytick_7">
     <g id="line2d_63">
      <path clip-path="url(#p180f1007dc)" d="M 57.6 283.183738 
L 414.72 283.183738 
" style="fill:none;stroke:#b0b0b0;stroke-linecap:square;stroke-width:0.8;"/>
     </g>
     <g id="line2d_64">
      <g>
       <use style="stroke:#000000;stroke-width:0.6;" x="57.6" xlink:href="#m6d14a6d2e8" y="283.183738"/>
      </g>
     </g>
    </g>
    <g id="ytick_8">
     <g id="line2d_65">
      <path clip-path="url(#p180f1007dc)" d="M 57.6 271.600656 
L 414.72 271.600656 
" style="fill:none;stroke:#b0b0b0;stroke-linecap:square;stroke-width:0.8;"/>
     </g>
     <g id="line2d_66">
      <g>
       <use style="stroke:#000000;stroke-width:0.6;" x="57.6" xlink:href="#m6d14a6d2e8" y="271.600656"/>
      </g>
     </g>
    </g>
    <g id="ytick_9">
     <g id="line2d_67">
      <path clip-path="url(#p180f1007dc)" d="M 57.6 260.017574 
L 414.72 260.017574 
" style="fill:none;stroke:#b0b0b0;stroke-linecap:square;stroke-width:0.8;"/>
     </g>
     <g id="line2d_68">
      <g>
       <use style="stroke:#000000;stroke-width:0.6;" x="57.6" xlink:href="#m6d14a6d2e8" y="260.017574"/>
      </g>
     </g>
    </g>
    <g id="ytick_10">
     <g id="line2d_69">
      <path clip-path="url(#p180f1007dc)" d="M 57.6 248.434493 
L 414.72 248.434493 
" style="fill:none;stroke:#b0b0b0;stroke-linecap:square;stroke-width:0.8;"/>
     </g>
     <g id="line2d_70">
      <g>
       <use style="stroke:#000000;stroke-width:0.6;" x="57.6" xlink:href="#m6d14a6d2e8" y="248.434493"/>
      </g>
     </g>
    </g>
    <g id="ytick_11">
     <g id="line2d_71">
      <path clip-path="url(#p180f1007dc)" d="M 57.6 236.851411 
L 414.72 236.851411 
" style="fill:none;stroke:#b0b0b0;stroke-linecap:square;stroke-width:0.8;"/>
     </g>
     <g id="line2d_72">
      <g>
       <use style="stroke:#000000;stroke-width:0.6;" x="57.6" xlink:href="#m6d14a6d2e8" y="236.851411"/>
      </g>
     </g>
    </g>
    <g id="ytick_12">
     <g id="line2d_73">
      <path clip-path="url(#p180f1007dc)" d="M 57.6 225.26833 
L 414.72 225.26833 
" style="fill:none;stroke:#b0b0b0;stroke-linecap:square;stroke-width:0.8;"/>
     </g>
     <g id="line2d_74">
      <g>
       <use style="stroke:#000000;stroke-width:0.6;" x="57.6" xlink:href="#m6d14a6d2e8" y="225.26833"/>
      </g>
     </g>
    </g>
    <g id="ytick_13">
     <g id="line2d_75">
      <path clip-path="url(#p180f1007dc)" d="M 57.6 213.685248 
L 414.72 213.685248 
" style="fill:none;stroke:#b0b0b0;stroke-linecap:square;stroke-width:0.8;"/>
     </g>
     <g id="line2d_76">
      <g>
       <use style="stroke:#000000;stroke-width:0.6;" x="57.6" xlink:href="#m6d14a6d2e8" y="213.685248"/>
      </g>
     </g>
    </g>
    <g id="ytick_14">
     <g id="line2d_77">
      <path clip-path="url(#p180f1007dc)" d="M 57.6 202.102167 
L 414.72 202.102167 
" style="fill:none;stroke:#b0b0b0;stroke-linecap:square;stroke-width:0.8;"/>
     </g>
     <g id="line2d_78">
      <g>
       <use style="stroke:#000000;stroke-width:0.6;" x="57.6" xlink:href="#m6d14a6d2e8" y="202.102167"/>
      </g>
     </g>
    </g>
    <g id="ytick_15">
     <g id="line2d_79">
      <path clip-path="url(#p180f1007dc)" d="M 57.6 190.519085 
L 414.72 190.519085 
" style="fill:none;stroke:#b0b0b0;stroke-linecap:square;stroke-width:0.8;"/>
     </g>
     <g id="line2d_80">
      <g>
       <use style="stroke:#000000;stroke-width:0.6;" x="57.6" xlink:href="#m6d14a6d2e8" y="190.519085"/>
      </g>
     </g>
    </g>
    <g id="ytick_16">
     <g id="line2d_81">
      <path clip-path="url(#p180f1007dc)" d="M 57.6 178.936004 
L 414.72 178.936004 
" style="fill:none;stroke:#b0b0b0;stroke-linecap:square;stroke-width:0.8;"/>
     </g>
     <g id="line2d_82">
      <g>
       <use style="stroke:#000000;stroke-width:0.6;" x="57.6" xlink:href="#m6d14a6d2e8" y="178.936004"/>
      </g>
     </g>
    </g>
    <g id="ytick_17">
     <g id="line2d_83">
      <path clip-path="url(#p180f1007dc)" d="M 57.6 167.352922 
L 414.72 167.352922 
" style="fill:none;stroke:#b0b0b0;stroke-linecap:square;stroke-width:0.8;"/>
     </g>
     <g id="line2d_84">
      <g>
       <use style="stroke:#000000;stroke-width:0.6;" x="57.6" xlink:href="#m6d14a6d2e8" y="167.352922"/>
      </g>
     </g>
    </g>
    <g id="ytick_18">
     <g id="line2d_85">
      <path clip-path="url(#p180f1007dc)" d="M 57.6 155.769841 
L 414.72 155.769841 
" style="fill:none;stroke:#b0b0b0;stroke-linecap:square;stroke-width:0.8;"/>
     </g>
     <g id="line2d_86">
      <g>
       <use style="stroke:#000000;stroke-width:0.6;" x="57.6" xlink:href="#m6d14a6d2e8" y="155.769841"/>
      </g>
     </g>
    </g>
    <g id="ytick_19">
     <g id="line2d_87">
      <path clip-path="url(#p180f1007dc)" d="M 57.6 144.186759 
L 414.72 144.186759 
" style="fill:none;stroke:#b0b0b0;stroke-linecap:square;stroke-width:0.8;"/>
     </g>
     <g id="line2d_88">
      <g>
       <use style="stroke:#000000;stroke-width:0.6;" x="57.6" xlink:href="#m6d14a6d2e8" y="144.186759"/>
      </g>
     </g>
    </g>
    <g id="ytick_20">
     <g id="line2d_89">
      <path clip-path="url(#p180f1007dc)" d="M 57.6 132.603678 
L 414.72 132.603678 
" style="fill:none;stroke:#b0b0b0;stroke-linecap:square;stroke-width:0.8;"/>
     </g>
     <g id="line2d_90">
      <g>
       <use style="stroke:#000000;stroke-width:0.6;" x="57.6" xlink:href="#m6d14a6d2e8" y="132.603678"/>
      </g>
     </g>
    </g>
    <g id="ytick_21">
     <g id="line2d_91">
      <path clip-path="url(#p180f1007dc)" d="M 57.6 121.020596 
L 414.72 121.020596 
" style="fill:none;stroke:#b0b0b0;stroke-linecap:square;stroke-width:0.8;"/>
     </g>
     <g id="line2d_92">
      <g>
       <use style="stroke:#000000;stroke-width:0.6;" x="57.6" xlink:href="#m6d14a6d2e8" y="121.020596"/>
      </g>
     </g>
    </g>
    <g id="ytick_22">
     <g id="line2d_93">
      <path clip-path="url(#p180f1007dc)" d="M 57.6 109.437514 
L 414.72 109.437514 
" style="fill:none;stroke:#b0b0b0;stroke-linecap:square;stroke-width:0.8;"/>
     </g>
     <g id="line2d_94">
      <g>
       <use style="stroke:#000000;stroke-width:0.6;" x="57.6" xlink:href="#m6d14a6d2e8" y="109.437514"/>
      </g>
     </g>
    </g>
    <g id="ytick_23">
     <g id="line2d_95">
      <path clip-path="url(#p180f1007dc)" d="M 57.6 97.854433 
L 414.72 97.854433 
" style="fill:none;stroke:#b0b0b0;stroke-linecap:square;stroke-width:0.8;"/>
     </g>
     <g id="line2d_96">
      <g>
       <use style="stroke:#000000;stroke-width:0.6;" x="57.6" xlink:href="#m6d14a6d2e8" y="97.854433"/>
      </g>
     </g>
    </g>
    <g id="ytick_24">
     <g id="line2d_97">
      <path clip-path="url(#p180f1007dc)" d="M 57.6 86.271351 
L 414.72 86.271351 
" style="fill:none;stroke:#b0b0b0;stroke-linecap:square;stroke-width:0.8;"/>
     </g>
     <g id="line2d_98">
      <g>
       <use style="stroke:#000000;stroke-width:0.6;" x="57.6" xlink:href="#m6d14a6d2e8" y="86.271351"/>
      </g>
     </g>
    </g>
    <g id="ytick_25">
     <g id="line2d_99">
      <path clip-path="url(#p180f1007dc)" d="M 57.6 74.68827 
L 414.72 74.68827 
" style="fill:none;stroke:#b0b0b0;stroke-linecap:square;stroke-width:0.8;"/>
     </g>
     <g id="line2d_100">
      <g>
       <use style="stroke:#000000;stroke-width:0.6;" x="57.6" xlink:href="#m6d14a6d2e8" y="74.68827"/>
      </g>
     </g>
    </g>
    <g id="ytick_26">
     <g id="line2d_101">
      <path clip-path="url(#p180f1007dc)" d="M 57.6 63.105188 
L 414.72 63.105188 
" style="fill:none;stroke:#b0b0b0;stroke-linecap:square;stroke-width:0.8;"/>
     </g>
     <g id="line2d_102">
      <g>
       <use style="stroke:#000000;stroke-width:0.6;" x="57.6" xlink:href="#m6d14a6d2e8" y="63.105188"/>
      </g>
     </g>
    </g>
    <g id="ytick_27">
     <g id="line2d_103">
      <path clip-path="url(#p180f1007dc)" d="M 57.6 51.522107 
L 414.72 51.522107 
" style="fill:none;stroke:#b0b0b0;stroke-linecap:square;stroke-width:0.8;"/>
     </g>
     <g id="line2d_104">
      <g>
       <use style="stroke:#000000;stroke-width:0.6;" x="57.6" xlink:href="#m6d14a6d2e8" y="51.522107"/>
      </g>
     </g>
    </g>
    <g id="text_11">
     <!-- rot x -->
     <defs>
      <path d="M 30.609375 48.390625 
Q 23.390625 48.390625 19.1875 42.75 
Q 14.984375 37.109375 14.984375 27.296875 
Q 14.984375 17.484375 19.15625 11.84375 
Q 23.34375 6.203125 30.609375 6.203125 
Q 37.796875 6.203125 41.984375 11.859375 
Q 46.1875 17.53125 46.1875 27.296875 
Q 46.1875 37.015625 41.984375 42.703125 
Q 37.796875 48.390625 30.609375 48.390625 
z
M 30.609375 56 
Q 42.328125 56 49.015625 48.375 
Q 55.71875 40.765625 55.71875 27.296875 
Q 55.71875 13.875 49.015625 6.21875 
Q 42.328125 -1.421875 30.609375 -1.421875 
Q 18.84375 -1.421875 12.171875 6.21875 
Q 5.515625 13.875 5.515625 27.296875 
Q 5.515625 40.765625 12.171875 48.375 
Q 18.84375 56 30.609375 56 
z
" id="DejaVuSans-6f"/>
      <path d="M 18.3125 70.21875 
L 18.3125 54.6875 
L 36.8125 54.6875 
L 36.8125 47.703125 
L 18.3125 47.703125 
L 18.3125 18.015625 
Q 18.3125 11.328125 20.140625 9.421875 
Q 21.96875 7.515625 27.59375 7.515625 
L 36.8125 7.515625 
L 36.8125 0 
L 27.59375 0 
Q 17.1875 0 13.234375 3.875 
Q 9.28125 7.765625 9.28125 18.015625 
L 9.28125 47.703125 
L 2.6875 47.703125 
L 2.6875 54.6875 
L 9.28125 54.6875 
L 9.28125 70.21875 
z
" id="DejaVuSans-74"/>
      <path d="M 54.890625 54.6875 
L 35.109375 28.078125 
L 55.90625 0 
L 45.3125 0 
L 29.390625 21.484375 
L 13.484375 0 
L 2.875 0 
L 24.125 28.609375 
L 4.6875 54.6875 
L 15.28125 54.6875 
L 29.78125 35.203125 
L 44.28125 54.6875 
z
" id="DejaVuSans-78"/>
     </defs>
     <g transform="translate(20.2375 186.149875)rotate(-90)scale(0.1 -0.1)">
      <use xlink:href="#DejaVuSans-72"/>
      <use x="41.082031" xlink:href="#DejaVuSans-6f"/>
      <use x="102.263672" xlink:href="#DejaVuSans-74"/>
      <use x="141.472656" xlink:href="#DejaVuSans-20"/>
      <use x="173.259766" xlink:href="#DejaVuSans-78"/>
     </g>
    </g>
   </g>
   <g id="line2d_105">
    <path clip-path="url(#p180f1007dc)" d="M 73.832727 191.810395 
L 74.524971 201.829141 
L 75.217208 234.74693 
L 75.90628 202.718499 
L 76.598517 218.708448 
L 77.290754 214.643851 
L 77.982991 201.917161 
L 78.6751 208.913146 
L 79.367337 221.794621 
L 80.059581 191.463814 
L 80.751818 224.793578 
L 81.446481 217.266642 
L 82.138725 200.578343 
L 82.830962 219.849792 
L 83.523199 233.503347 
L 84.216653 202.305455 
L 84.908883 222.202172 
L 85.601147 207.211523 
L 86.293364 201.98683 
L 86.985656 210.049832 
L 87.675135 216.543853 
L 88.367373 213.137996 
L 89.05961 203.974423 
L 89.751847 185.775273 
L 90.441987 191.662912 
L 91.13423 234.101905 
L 91.826467 239.717882 
L 92.518705 267.288545 
L 93.902011 228.99828 
L 94.594254 228.934787 
L 95.286491 234.357302 
L 95.979336 199.039816 
L 97.363819 171.559889 
L 98.056056 146.498335 
L 98.749362 140.407361 
L 99.44205 142.050119 
L 100.133837 159.797569 
L 100.826074 210.81239 
L 101.516997 249.455412 
L 102.209241 248.706689 
L 102.901478 249.19066 
L 103.593715 251.194585 
L 104.284797 253.573345 
L 104.977035 270.840775 
L 105.669272 254.774401 
L 106.361509 222.328023 
L 107.05535 229.862776 
L 107.747587 212.417 
L 109.132062 138.164968 
L 109.824962 136.069262 
L 110.517208 153.592221 
L 111.209437 182.91739 
L 111.901674 201.284891 
L 113.285912 247.869488 
L 113.978149 262.586924 
L 114.670387 274.938475 
L 115.361972 264.729568 
L 116.054209 248.357066 
L 116.746446 249.425828 
L 117.438683 243.062797 
L 118.130907 253.7094 
L 118.823151 230.154865 
L 119.515395 215.147685 
L 120.207625 195.489528 
L 120.899869 159.443113 
L 121.594579 135.068161 
L 122.286816 131.13054 
L 125.056146 235.94016 
L 125.748383 261.678366 
L 126.44062 246.950978 
L 127.129632 280.993596 
L 127.82187 278.162866 
L 129.206344 217.373845 
L 130.591908 179.701881 
L 131.284145 154.283107 
L 131.976389 168.746472 
L 132.670814 156.452079 
L 133.363058 148.066772 
L 134.747532 210.820265 
L 135.437802 204.053072 
L 136.130039 212.706916 
L 136.822277 264.177817 
L 137.514514 281.338595 
L 138.204709 270.260049 
L 138.896947 255.981393 
L 139.589184 248.350559 
L 140.281421 238.089357 
L 140.976101 212.239497 
L 141.668336 190.722892 
L 142.360573 147.516815 
L 143.05281 134.791869 
L 143.744756 139.51833 
L 144.436993 146.296102 
L 145.821474 245.607373 
L 146.511257 256.250003 
L 147.203494 250.584772 
L 147.895731 256.125655 
L 148.588378 267.625637 
L 149.281455 219.734049 
L 149.973692 204.751715 
L 150.665929 174.021147 
L 151.358166 136.58909 
L 152.05041 139.239493 
L 152.743731 165.519822 
L 153.435969 170.606712 
L 154.128206 196.852018 
L 154.820443 238.188815 
L 155.510224 255.368964 
L 156.20247 281.395459 
L 156.894699 295.488 
L 157.586944 273.576246 
L 158.279343 273.365571 
L 158.97158 245.250239 
L 159.663852 210.022208 
L 160.356055 158.637156 
L 161.051271 157.05386 
L 161.743508 151.616811 
L 162.435745 153.751112 
L 163.127989 161.756155 
L 163.818557 176.191491 
L 165.203032 246.080411 
L 165.895269 263.070646 
L 166.586145 254.224843 
L 167.278382 260.912706 
L 167.970626 255.415111 
L 169.356457 214.19373 
L 170.048694 174.441455 
L 170.740931 155.04427 
L 171.433168 124.806285 
L 172.125831 148.853142 
L 172.818048 194.829701 
L 173.510286 212.367562 
L 174.202529 221.110198 
L 174.892987 243.437783 
L 175.585225 272.008604 
L 176.277462 280.366136 
L 177.662487 255.94786 
L 178.354724 259.623934 
L 179.046962 208.688545 
L 179.739205 172.383048 
L 180.434067 142.983743 
L 181.126297 127.82192 
L 181.818534 166.585179 
L 182.510778 183.009251 
L 183.200632 183.27587 
L 184.585113 287.064454 
L 185.2776 280.765671 
L 185.969588 271.507362 
L 186.661455 253.386285 
L 188.738167 130.922761 
M 191.509762 208.576486 
L 192.199235 226.193629 
L 192.891481 238.550138 
L 194.275953 281.34566 
L 194.967935 279.986621 
L 195.660172 253.897448 
L 196.352409 235.210224 
L 197.044646 188.309009 
L 197.738917 202.188167 
L 198.431154 203.471519 
L 199.815628 112.950113 
L 200.508823 127.052048 
L 201.20106 173.317469 
L 201.893304 228.838698 
L 202.585541 240.80492 
L 203.275538 258.452198 
L 203.967776 267.010612 
L 204.660013 278.514085 
L 205.35225 274.529965 
L 206.044672 248.193432 
L 206.736909 202.783807 
L 208.121383 146.615588 
L 208.815873 131.068924 
L 209.50811 151.479849 
L 210.200348 178.191325 
L 210.892585 197.670341 
L 211.583861 222.084095 
L 212.276099 263.529097 
L 212.968342 270.587586 
L 213.66058 262.253506 
L 215.044156 237.001456 
L 215.736393 215.781497 
L 217.120874 146.648816 
L 217.814995 143.240086 
L 218.507232 122.203268 
L 219.199469 154.083858 
L 219.891706 200.408138 
L 221.277214 239.232872 
L 221.969824 274.099921 
L 222.661681 278.191706 
L 223.354881 270.732087 
L 224.047124 268.481287 
L 225.431599 252.655882 
L 226.123329 241.214315 
L 226.815566 220.165193 
L 227.507804 191.362164 
L 228.200041 182.897215 
L 228.892598 176.944614 
L 229.584835 152.380641 
L 230.277072 156.919597 
L 230.96931 176.99306 
L 231.661953 193.565889 
L 232.35419 180.747172 
L 233.738664 210.071705 
L 234.434318 230.071952 
L 235.126562 228.254808 
L 235.818799 216.336121 
L 236.511036 228.007047 
L 237.205725 259.038964 
L 237.897963 275.894739 
L 238.5902 267.532756 
L 239.282437 230.164453 
L 239.966295 231.463546 
L 240.658539 242.324257 
L 241.350776 245.607922 
L 242.043013 243.330023 
L 242.735331 200.980076 
L 243.427569 179.409961 
L 244.119806 167.307775 
L 246.197214 184.076251 
L 246.889449 196.563258 
L 247.581686 192.295905 
L 248.274878 183.938922 
L 248.967115 192.006861 
L 249.659352 196.122884 
L 250.351589 189.114087 
L 251.736771 223.5797 
L 252.429009 231.430923 
L 253.121246 230.188759 
L 253.81349 243.180964 
L 254.500718 253.1165 
L 255.192947 249.405113 
L 255.885192 251.612693 
L 256.577429 250.427095 
L 257.269926 229.103302 
L 257.962163 215.386512 
L 258.6544 204.544122 
L 259.346637 197.974437 
L 260.040695 220.915154 
L 260.732932 212.416618 
L 261.425169 171.68644 
L 262.117406 148.65961 
L 262.80931 141.591873 
L 263.501547 165.341958 
L 264.193784 169.449302 
L 264.886021 166.503549 
L 266.960791 255.742944 
L 267.653028 278.87768 
L 268.344813 256.871942 
L 269.03705 249.948815 
L 269.729287 217.332456 
L 270.421524 237.82312 
M 271.808522 189.500997 
L 272.500759 189.716146 
L 273.192996 217.394082 
L 273.886626 217.266096 
L 274.578864 198.389956 
M 279.422083 255.639979 
L 280.11432 236.614262 
L 280.806557 188.916339 
M 282.885262 145.807727 
L 283.576905 217.239628 
L 284.269143 252.039579 
M 291.190092 251.060882 
L 292.574566 133.196821 
M 296.037925 167.983674 
L 296.728311 114.684884 
L 297.420548 91.639336 
L 298.112785 87.505513 
L 299.500625 123.43526 
L 300.192862 184.602886 
M 305.72952 113.277863 
L 306.421757 160.015912 
L 307.114493 193.212188 
L 307.804746 133.791876 
L 308.496983 119.086497 
L 309.18922 149.161083 
L 309.881458 153.129725 
M 314.727973 131.762799 
L 315.42021 147.613415 
L 316.112447 139.534091 
L 317.496096 67.325968 
L 318.880571 134.590683 
L 320.268821 190.835475 
L 320.961058 188.959198 
L 321.653295 195.122141 
L 322.342377 208.282515 
L 323.034614 218.578991 
L 323.726858 211.774341 
L 324.419095 190.072399 
L 325.112821 198.485965 
L 325.805058 212.588915 
L 326.497302 218.411484 
M 327.884744 70.810473 
L 328.576974 54.673316 
L 329.269218 114.165275 
L 329.961455 185.624732 
L 330.653469 218.322372 
L 331.346218 219.707044 
L 332.037944 207.667121 
L 332.730181 173.063614 
L 333.422638 130.519272 
L 334.114875 147.8164 
L 334.807119 182.601669 
M 337.575094 107.286253 
L 338.959426 190.071533 
L 339.651661 194.211802 
L 340.343899 183.184661 
L 341.036136 162.783466 
L 341.726718 120.692326 
L 342.418955 110.952636 
L 343.111192 137.383125 
L 343.803429 148.951803 
L 344.492933 181.125204 
L 345.18517 182.820177 
L 345.877414 164.261246 
L 346.569651 158.435695 
M 347.953989 159.001594 
L 348.646226 170.506802 
M 351.414505 145.744178 
L 352.106742 173.201273 
L 352.798979 154.636687 
L 353.491776 130.968302 
L 354.184019 115.866111 
L 354.87625 151.513488 
L 355.569124 176.536108 
L 356.26317 146.503275 
L 356.955416 175.038978 
L 357.647653 189.925911 
L 358.33989 215.189191 
L 359.029714 198.399856 
L 359.721951 167.858527 
M 361.106426 175.863784 
L 361.799274 217.103298 
L 362.491511 209.390611 
L 363.183748 169.325017 
L 363.875985 165.435618 
L 364.568397 196.972992 
L 365.260626 204.919581 
M 366.6451 235.796218 
L 367.338052 226.238628 
L 368.030296 207.454928 
L 368.722533 200.577007 
L 369.41477 197.001077 
L 370.107983 191.459984 
L 370.80022 183.90577 
L 371.492457 196.715662 
L 372.877912 248.800846 
L 373.570157 197.945577 
L 374.262395 177.359818 
L 374.95463 189.191122 
M 376.34006 200.565056 
L 377.032291 235.950319 
L 377.724534 222.543662 
M 380.492239 205.165868 
L 381.184476 201.389362 
L 381.876099 214.523899 
L 382.568336 206.108785 
L 383.260573 199.11735 
L 383.952811 183.381355 
L 384.644637 178.888857 
L 385.336874 180.897357 
L 386.029111 202.866865 
L 386.721348 210.329165 
L 387.412183 202.830532 
L 388.104412 200.001627 
L 388.796657 193.65964 
M 390.179932 224.498158 
L 390.872169 240.065128 
L 391.564426 240.251001 
L 392.256643 196.994842 
L 392.948735 211.660488 
L 393.640972 231.248924 
L 394.333209 230.94036 
L 395.025447 221.35127 
L 395.717867 224.168585 
L 396.410104 221.774631 
L 396.410104 221.774631 
" style="fill:none;stroke:#ff0000;stroke-linecap:square;"/>
   </g>
   <g id="line2d_106">
    <path clip-path="url(#p180f1007dc)" d="M 73.832727 193.200386 
L 74.524971 193.092147 
L 75.217208 224.981937 
L 75.90628 205.548142 
L 76.598517 215.194112 
L 77.290754 222.212365 
L 77.982991 209.042394 
L 78.6751 204.531757 
L 79.367337 224.600885 
L 80.059581 190.799688 
L 80.751818 219.021443 
L 81.446481 219.806679 
L 82.138725 200.611391 
L 82.830962 214.545299 
L 83.523199 236.966848 
L 84.216653 199.734593 
L 84.908883 220.572299 
L 85.601147 209.592062 
L 86.293364 201.313208 
L 86.985656 207.815746 
L 87.675135 220.264789 
L 88.367373 210.299025 
L 89.05961 207.718175 
L 89.751847 186.85432 
L 90.441987 184.70106 
L 91.13423 230.471284 
L 91.826467 239.971968 
L 92.518705 257.724359 
L 93.209773 249.695609 
L 93.902011 229.629718 
L 94.594254 225.582011 
L 95.286491 236.798767 
L 95.979336 202.266136 
L 96.671581 185.680514 
L 97.363819 174.082819 
L 98.056056 148.399827 
L 98.749362 140.538559 
L 99.44205 144.008098 
L 100.133837 154.42453 
L 101.516997 251.131571 
L 102.209241 249.39981 
L 102.901478 248.255073 
L 103.593715 254.739573 
L 104.284797 253.55834 
L 104.977035 270.893924 
L 105.669272 260.506073 
L 106.361509 222.638181 
L 107.05535 226.767552 
L 107.747587 217.869846 
L 109.132062 142.07724 
L 109.824962 132.021333 
L 111.209437 178.513437 
L 111.901674 196.076727 
L 112.593675 225.390258 
L 113.285912 238.992271 
L 113.978149 259.099833 
L 114.670387 273.324971 
L 115.361972 268.382954 
L 116.054209 251.547058 
L 116.746446 248.683108 
L 117.438683 244.146926 
L 118.130907 238.799032 
L 118.823151 234.402458 
L 119.515395 217.9635 
L 120.207625 196.637209 
L 120.899869 162.344134 
L 121.594579 134.001228 
L 122.286816 129.993696 
L 124.363909 201.709917 
L 125.748383 266.393679 
L 126.44062 245.29657 
L 127.129632 269.619804 
L 127.82187 281.302985 
L 129.206344 221.513489 
L 130.591908 183.620412 
L 131.284145 154.259853 
L 131.976389 165.4929 
L 132.670814 154.151002 
L 133.363058 146.407747 
L 134.055295 170.968842 
L 134.747532 202.903445 
L 135.437802 203.225404 
L 136.130039 213.48663 
L 136.822277 260.751425 
L 137.514514 277.984742 
L 138.204709 273.039903 
L 138.896947 257.233419 
L 140.281421 239.637538 
L 140.976101 213.875885 
L 141.668336 198.20715 
L 142.360573 149.49489 
L 143.05281 131.348972 
L 143.744756 138.078461 
L 144.436993 146.49582 
L 145.129236 184.595761 
L 145.821474 239.563792 
L 146.511257 263.851647 
L 147.203494 247.234184 
L 147.895731 245.565708 
L 148.588378 255.742806 
L 149.973692 203.663607 
L 150.665929 175.388156 
L 151.358166 138.268162 
L 152.05041 135.261982 
L 152.743731 158.331503 
L 154.128206 192.722927 
L 154.820443 231.983888 
L 156.20247 283.728448 
L 156.894699 293.306919 
L 157.586944 274.647733 
L 158.279343 273.748519 
L 158.97158 248.331073 
L 160.356055 175.444249 
L 161.051271 154.76072 
L 161.743508 145.141102 
L 162.435745 150.5885 
L 163.818557 173.842237 
L 165.203032 244.502547 
L 165.895269 257.378203 
L 166.586145 253.128609 
L 167.278382 255.222896 
L 167.970626 251.679211 
L 168.662863 231.057229 
L 169.356457 219.683771 
L 170.048694 177.86987 
L 170.740931 158.235849 
L 171.433168 124.05326 
L 172.125831 142.580639 
L 172.818048 193.422839 
L 173.510286 210.466197 
L 174.202529 220.405883 
L 174.892987 241.131872 
L 175.585225 270.924609 
L 176.277462 280.162116 
L 176.969699 274.195164 
L 177.662487 260.801417 
L 178.354724 257.284282 
L 179.046962 219.995788 
L 179.739205 174.400355 
L 180.434067 143.074649 
L 181.126297 130.5963 
L 181.818534 160.164403 
L 182.510778 182.265866 
L 183.200632 174.491459 
L 184.585113 284.829706 
L 185.2776 281.434471 
L 185.969588 270.419642 
L 186.661455 254.100419 
L 187.353692 219.60149 
L 188.045929 170.933606 
L 188.738167 141.100909 
M 191.509762 206.964618 
L 192.199235 224.584694 
L 193.583718 252.858544 
L 194.275953 277.452497 
L 194.967935 272.28585 
L 195.660172 250.93211 
L 196.352409 234.421201 
L 197.044646 202.566898 
L 197.738917 199.864345 
L 198.431154 206.588929 
L 199.815628 116.948975 
L 200.508823 122.288379 
L 201.20106 163.670223 
L 201.893304 217.948148 
L 202.585541 242.496382 
L 203.275538 257.601284 
L 203.967776 266.686998 
L 205.35225 272.490768 
L 206.044672 256.898219 
L 206.736909 206.318493 
L 208.121383 149.310508 
L 208.815873 132.343067 
L 209.50811 145.424576 
L 210.200348 173.898866 
L 211.583861 222.375973 
L 212.276099 253.298812 
L 212.968342 271.922822 
L 214.351919 252.605295 
L 215.736393 216.174609 
L 216.428631 191.413578 
L 217.120874 149.572764 
L 217.814995 143.234671 
L 218.507232 121.415271 
L 219.199469 147.088976 
L 219.891706 195.373779 
L 221.277214 236.744529 
L 221.969824 269.327132 
L 222.661681 279.989334 
L 223.354881 273.587703 
L 224.047124 271.120291 
L 224.739362 259.842987 
L 225.431599 253.777493 
L 226.123329 243.907674 
L 226.815566 223.246181 
L 227.507804 194.622847 
L 228.200041 185.496089 
L 228.892598 179.857713 
L 229.584835 152.641275 
L 230.277072 153.711775 
L 231.661953 194.929873 
L 232.35419 184.387256 
L 233.046427 192.364366 
L 233.738664 206.290122 
L 234.434318 225.781729 
L 235.126562 229.845686 
L 235.818799 215.849054 
L 236.511036 224.249224 
L 237.205725 255.314537 
L 237.897963 275.903198 
L 238.5902 272.546708 
L 239.282437 233.330241 
L 239.966295 230.068529 
L 240.658539 245.683687 
L 241.350776 244.113322 
L 242.043013 249.446945 
L 242.735331 204.56085 
L 243.427569 178.909669 
L 244.119806 172.712118 
L 244.812043 171.15418 
L 245.504977 172.904309 
L 246.197214 183.012655 
L 246.889449 194.845432 
L 247.581686 192.940939 
L 248.274878 181.970828 
L 249.659352 195.316781 
L 250.351589 186.666967 
L 251.043826 201.841846 
L 251.736771 223.274771 
L 252.429009 227.913961 
L 253.121246 223.397812 
L 253.81349 238.255812 
L 254.500718 246.054669 
L 255.192947 249.087585 
L 255.885192 249.296673 
L 256.577429 248.270347 
L 257.269926 223.20482 
L 257.962163 218.575336 
L 258.6544 208.499838 
L 259.346637 205.542884 
L 260.040695 221.596937 
L 260.732932 212.607821 
L 261.425169 178.193169 
L 262.117406 150.909252 
L 262.80931 142.358025 
L 263.501547 157.13002 
L 264.193784 168.907281 
L 264.886021 165.516195 
L 265.576308 189.94395 
L 266.268553 219.153297 
L 266.960791 254.400096 
L 267.653028 271.190604 
L 268.344813 261.513611 
L 269.03705 250.041796 
L 269.729287 215.84056 
L 270.421524 217.886495 
M 271.808522 195.304733 
L 272.500759 181.853254 
L 273.192996 195.753079 
L 273.886626 219.169672 
L 274.578864 201.566046 
M 279.422083 257.829226 
L 280.11432 240.420177 
L 280.806557 193.311576 
M 282.885262 148.73696 
L 283.576905 224.747763 
L 284.269143 255.458758 
M 291.190092 254.994093 
L 292.574566 137.055642 
M 296.037925 162.001456 
L 296.728311 117.162026 
L 297.420548 91.198237 
L 298.112785 84.761739 
L 298.805022 94.959791 
L 299.500625 128.986271 
L 300.192862 181.380607 
M 305.72952 106.438157 
L 306.421757 156.042483 
L 307.114493 170.651997 
L 307.804746 145.07886 
L 308.496983 132.543758 
L 309.18922 149.199391 
L 309.881458 152.352393 
M 314.727973 134.278912 
L 315.42021 148.862872 
L 316.112447 144.1522 
L 317.496096 62.315035 
L 318.880571 132.560792 
L 320.268821 184.975789 
L 320.961058 195.840098 
L 321.653295 198.576465 
L 322.342377 199.835386 
L 323.034614 217.103278 
L 323.726858 211.206067 
L 324.419095 190.48187 
L 325.112821 199.333291 
L 325.805058 211.764418 
L 326.497302 219.25002 
M 327.884744 81.497563 
L 328.576974 53.568 
L 329.269218 104.245312 
L 329.961455 182.39645 
L 330.653469 222.029177 
L 331.346218 221.238012 
L 332.037944 207.029858 
L 332.730181 179.866798 
L 333.422638 130.523657 
L 334.114875 144.004366 
L 334.807119 180.621515 
M 337.575094 112.375177 
L 338.267337 141.624533 
L 338.959426 191.384981 
L 339.651661 195.983396 
L 340.343899 185.041794 
L 341.036136 164.083246 
L 341.726718 121.802325 
L 342.418955 104.360617 
L 343.111192 133.964133 
L 343.803429 146.380154 
L 344.492933 168.884259 
L 345.18517 185.97815 
L 345.877414 168.257495 
L 346.569651 158.968624 
M 347.953989 159.064647 
L 348.646226 169.879541 
M 351.414505 133.712269 
L 352.106742 176.74656 
L 352.798979 159.116103 
L 353.491776 132.457258 
L 354.184019 118.66131 
L 354.87625 136.738408 
L 355.569124 180.25196 
L 356.26317 169.058284 
L 356.955416 163.764377 
L 357.647653 186.361772 
L 358.33989 213.141185 
L 359.029714 202.982939 
L 359.721951 175.990878 
M 361.106426 191.315838 
L 361.799274 211.309774 
L 362.491511 211.19214 
L 363.183748 177.251923 
L 363.875985 165.416832 
L 364.568397 191.869713 
L 365.260626 204.120275 
M 366.6451 236.35944 
L 367.338052 229.490411 
L 368.030296 209.920354 
L 368.722533 200.504853 
L 369.41477 201.280006 
L 370.107983 187.49169 
L 370.80022 188.990636 
L 371.492457 189.255199 
L 372.184694 214.490687 
L 372.877912 249.3039 
L 373.570157 202.310381 
L 374.262395 177.67207 
L 374.95463 185.748427 
M 376.34006 191.771859 
L 377.032291 234.21148 
L 377.724534 229.332317 
M 380.492239 206.483253 
L 381.184476 203.165268 
L 381.876099 219.87999 
L 382.568336 206.802739 
L 383.260573 201.446702 
L 383.952811 183.207572 
L 384.644637 178.567239 
L 385.336874 181.491005 
L 386.721348 212.542966 
L 387.412183 205.878614 
L 388.104412 201.289488 
L 388.796657 191.720468 
M 390.179932 219.575104 
L 390.872169 237.870549 
L 391.564426 245.660283 
L 392.256643 199.286595 
L 392.948735 209.025787 
L 393.640972 228.179345 
L 394.333209 230.584849 
L 395.025447 222.595251 
L 395.717867 223.811402 
L 396.410104 221.387086 
L 396.410104 221.387086 
" style="fill:none;stroke:#0000ff;stroke-linecap:square;"/>
   </g>
   <g id="line2d_107">
    <path clip-path="url(#p180f1007dc)" d="M 276.655785 159.887367 
L 277.348022 182.334928 
M 281.498794 143.083794 
L 282.192431 112.44029 
M 286.344534 166.528833 
L 287.036771 165.191512 
L 287.729008 180.043198 
L 288.421904 244.561538 
L 289.114148 267.769014 
L 289.806385 251.747553 
L 290.498622 255.6904 
M 294.653451 166.086839 
L 295.345682 179.084442 
M 300.885099 189.859299 
L 301.577343 178.508001 
L 302.26739 195.593542 
L 302.959621 196.302383 
M 304.344095 75.799821 
L 305.037283 60.809988 
M 310.575802 152.106629 
L 311.268039 170.481188 
L 311.960277 195.535462 
L 312.65252 171.48037 
L 313.343492 111.73069 
L 314.035729 107.829656 
M 335.499356 177.808954 
L 336.190619 147.13336 
L 336.882856 123.203834 
M 349.338463 206.109669 
L 350.0307 200.469613 
L 350.722267 140.295076 
M 397.102341 217.177056 
L 397.794578 213.384833 
L 398.487273 214.479599 
L 398.487273 214.479599 
" style="fill:none;stroke:#008000;stroke-linecap:square;"/>
   </g>
   <g id="patch_3">
    <path d="M 57.6 307.584 
L 57.6 41.472 
" style="fill:none;stroke:#000000;stroke-linecap:square;stroke-linejoin:miter;stroke-width:0.8;"/>
   </g>
   <g id="patch_4">
    <path d="M 414.72 307.584 
L 414.72 41.472 
" style="fill:none;stroke:#000000;stroke-linecap:square;stroke-linejoin:miter;stroke-width:0.8;"/>
   </g>
   <g id="patch_5">
    <path d="M 57.6 307.584 
L 414.72 307.584 
" style="fill:none;stroke:#000000;stroke-linecap:square;stroke-linejoin:miter;stroke-width:0.8;"/>
   </g>
   <g id="patch_6">
    <path d="M 57.6 41.472 
L 414.72 41.472 
" style="fill:none;stroke:#000000;stroke-linecap:square;stroke-linejoin:miter;stroke-width:0.8;"/>
   </g>
   <g id="text_12">
    <!-- Rel Gt Rot X Plot -->
    <defs>
     <path d="M 44.390625 34.1875 
Q 47.5625 33.109375 50.5625 29.59375 
Q 53.5625 26.078125 56.59375 19.921875 
L 66.609375 0 
L 56 0 
L 46.6875 18.703125 
Q 43.0625 26.03125 39.671875 28.421875 
Q 36.28125 30.8125 30.421875 30.8125 
L 19.671875 30.8125 
L 19.671875 0 
L 9.8125 0 
L 9.8125 72.90625 
L 32.078125 72.90625 
Q 44.578125 72.90625 50.734375 67.671875 
Q 56.890625 62.453125 56.890625 51.90625 
Q 56.890625 45.015625 53.6875 40.46875 
Q 50.484375 35.9375 44.390625 34.1875 
z
M 19.671875 64.796875 
L 19.671875 38.921875 
L 32.078125 38.921875 
Q 39.203125 38.921875 42.84375 42.21875 
Q 46.484375 45.515625 46.484375 51.90625 
Q 46.484375 58.296875 42.84375 61.546875 
Q 39.203125 64.796875 32.078125 64.796875 
z
" id="DejaVuSans-52"/>
     <path d="M 9.421875 75.984375 
L 18.40625 75.984375 
L 18.40625 0 
L 9.421875 0 
z
" id="DejaVuSans-6c"/>
     <path d="M 59.515625 10.40625 
L 59.515625 29.984375 
L 43.40625 29.984375 
L 43.40625 38.09375 
L 69.28125 38.09375 
L 69.28125 6.78125 
Q 63.578125 2.734375 56.6875 0.65625 
Q 49.8125 -1.421875 42 -1.421875 
Q 24.90625 -1.421875 15.25 8.5625 
Q 5.609375 18.5625 5.609375 36.375 
Q 5.609375 54.25 15.25 64.234375 
Q 24.90625 74.21875 42 74.21875 
Q 49.125 74.21875 55.546875 72.453125 
Q 61.96875 70.703125 67.390625 67.28125 
L 67.390625 56.78125 
Q 61.921875 61.421875 55.765625 63.765625 
Q 49.609375 66.109375 42.828125 66.109375 
Q 29.4375 66.109375 22.71875 58.640625 
Q 16.015625 51.171875 16.015625 36.375 
Q 16.015625 21.625 22.71875 14.15625 
Q 29.4375 6.6875 42.828125 6.6875 
Q 48.046875 6.6875 52.140625 7.59375 
Q 56.25 8.5 59.515625 10.40625 
z
" id="DejaVuSans-47"/>
     <path d="M 6.296875 72.90625 
L 16.890625 72.90625 
L 35.015625 45.796875 
L 53.21875 72.90625 
L 63.8125 72.90625 
L 40.375 37.890625 
L 65.375 0 
L 54.78125 0 
L 34.28125 31 
L 13.625 0 
L 2.984375 0 
L 29 38.921875 
z
" id="DejaVuSans-58"/>
     <path d="M 19.671875 64.796875 
L 19.671875 37.40625 
L 32.078125 37.40625 
Q 38.96875 37.40625 42.71875 40.96875 
Q 46.484375 44.53125 46.484375 51.125 
Q 46.484375 57.671875 42.71875 61.234375 
Q 38.96875 64.796875 32.078125 64.796875 
z
M 9.8125 72.90625 
L 32.078125 72.90625 
Q 44.34375 72.90625 50.609375 67.359375 
Q 56.890625 61.8125 56.890625 51.125 
Q 56.890625 40.328125 50.609375 34.8125 
Q 44.34375 29.296875 32.078125 29.296875 
L 19.671875 29.296875 
L 19.671875 0 
L 9.8125 0 
z
" id="DejaVuSans-50"/>
    </defs>
    <g transform="translate(186.400312 35.472)scale(0.12 -0.12)">
     <use xlink:href="#DejaVuSans-52"/>
     <use x="69.419922" xlink:href="#DejaVuSans-65"/>
     <use x="130.943359" xlink:href="#DejaVuSans-6c"/>
     <use x="158.726562" xlink:href="#DejaVuSans-20"/>
     <use x="190.513672" xlink:href="#DejaVuSans-47"/>
     <use x="268.003906" xlink:href="#DejaVuSans-74"/>
     <use x="307.212891" xlink:href="#DejaVuSans-20"/>
     <use x="339" xlink:href="#DejaVuSans-52"/>
     <use x="408.419922" xlink:href="#DejaVuSans-6f"/>
     <use x="469.601562" xlink:href="#DejaVuSans-74"/>
     <use x="508.810547" xlink:href="#DejaVuSans-20"/>
     <use x="540.597656" xlink:href="#DejaVuSans-58"/>
     <use x="609.103516" xlink:href="#DejaVuSans-20"/>
     <use x="640.890625" xlink:href="#DejaVuSans-50"/>
     <use x="701.193359" xlink:href="#DejaVuSans-6c"/>
     <use x="728.976562" xlink:href="#DejaVuSans-6f"/>
     <use x="790.158203" xlink:href="#DejaVuSans-74"/>
    </g>
   </g>
  </g>
 </g>
 <defs>
  <clipPath id="p180f1007dc">
   <rect height="266.112" width="357.12" x="57.6" y="41.472"/>
  </clipPath>
 </defs>
</svg>
