<?xml version="1.0" encoding="utf-8" standalone="no"?>
<!DOCTYPE svg PUBLIC "-//W3C//DTD SVG 1.1//EN"
  "http://www.w3.org/Graphics/SVG/1.1/DTD/svg11.dtd">
<!-- Created with matplotlib (http://matplotlib.org/) -->
<svg height="345.6pt" version="1.1" viewBox="0 0 460.8 345.6" width="460.8pt" xmlns="http://www.w3.org/2000/svg" xmlns:xlink="http://www.w3.org/1999/xlink">
 <defs>
  <style type="text/css">
*{stroke-linecap:butt;stroke-linejoin:round;}
  </style>
 </defs>
 <g id="figure_1">
  <g id="patch_1">
   <path d="M 0 345.6 
L 460.8 345.6 
L 460.8 0 
L 0 0 
z
" style="fill:#ffffff;"/>
  </g>
  <g id="axes_1">
   <g id="patch_2">
    <path d="M 57.6 307.584 
L 414.72 307.584 
L 414.72 41.472 
L 57.6 41.472 
z
" style="fill:#ffffff;"/>
   </g>
   <g id="matplotlib.axis_1">
    <g id="xtick_1">
     <g id="line2d_1">
      <path clip-path="url(#p33772dc35d)" d="M 70.555248 307.584 
L 70.555248 41.472 
" style="fill:none;stroke:#b0b0b0;stroke-linecap:square;stroke-width:0.8;"/>
     </g>
     <g id="line2d_2">
      <defs>
       <path d="M 0 0 
L 0 3.5 
" id="m1ada991669" style="stroke:#000000;stroke-width:0.8;"/>
      </defs>
      <g>
       <use style="stroke:#000000;stroke-width:0.8;" x="70.555248" xlink:href="#m1ada991669" y="307.584"/>
      </g>
     </g>
     <g id="text_1">
      <!-- 0 -->
      <defs>
       <path d="M 31.78125 66.40625 
Q 24.171875 66.40625 20.328125 58.90625 
Q 16.5 51.421875 16.5 36.375 
Q 16.5 21.390625 20.328125 13.890625 
Q 24.171875 6.390625 31.78125 6.390625 
Q 39.453125 6.390625 43.28125 13.890625 
Q 47.125 21.390625 47.125 36.375 
Q 47.125 51.421875 43.28125 58.90625 
Q 39.453125 66.40625 31.78125 66.40625 
z
M 31.78125 74.21875 
Q 44.046875 74.21875 50.515625 64.515625 
Q 56.984375 54.828125 56.984375 36.375 
Q 56.984375 17.96875 50.515625 8.265625 
Q 44.046875 -1.421875 31.78125 -1.421875 
Q 19.53125 -1.421875 13.0625 8.265625 
Q 6.59375 17.96875 6.59375 36.375 
Q 6.59375 54.828125 13.0625 64.515625 
Q 19.53125 74.21875 31.78125 74.21875 
z
" id="DejaVuSans-30"/>
      </defs>
      <g transform="translate(67.373998 322.182437)scale(0.1 -0.1)">
       <use xlink:href="#DejaVuSans-30"/>
      </g>
     </g>
    </g>
    <g id="xtick_2">
     <g id="line2d_3">
      <path clip-path="url(#p33772dc35d)" d="M 139.776886 307.584 
L 139.776886 41.472 
" style="fill:none;stroke:#b0b0b0;stroke-linecap:square;stroke-width:0.8;"/>
     </g>
     <g id="line2d_4">
      <g>
       <use style="stroke:#000000;stroke-width:0.8;" x="139.776886" xlink:href="#m1ada991669" y="307.584"/>
      </g>
     </g>
     <g id="text_2">
      <!-- 10 -->
      <defs>
       <path d="M 12.40625 8.296875 
L 28.515625 8.296875 
L 28.515625 63.921875 
L 10.984375 60.40625 
L 10.984375 69.390625 
L 28.421875 72.90625 
L 38.28125 72.90625 
L 38.28125 8.296875 
L 54.390625 8.296875 
L 54.390625 0 
L 12.40625 0 
z
" id="DejaVuSans-31"/>
      </defs>
      <g transform="translate(133.414386 322.182437)scale(0.1 -0.1)">
       <use xlink:href="#DejaVuSans-31"/>
       <use x="63.623047" xlink:href="#DejaVuSans-30"/>
      </g>
     </g>
    </g>
    <g id="xtick_3">
     <g id="line2d_5">
      <path clip-path="url(#p33772dc35d)" d="M 208.998523 307.584 
L 208.998523 41.472 
" style="fill:none;stroke:#b0b0b0;stroke-linecap:square;stroke-width:0.8;"/>
     </g>
     <g id="line2d_6">
      <g>
       <use style="stroke:#000000;stroke-width:0.8;" x="208.998523" xlink:href="#m1ada991669" y="307.584"/>
      </g>
     </g>
     <g id="text_3">
      <!-- 20 -->
      <defs>
       <path d="M 19.1875 8.296875 
L 53.609375 8.296875 
L 53.609375 0 
L 7.328125 0 
L 7.328125 8.296875 
Q 12.9375 14.109375 22.625 23.890625 
Q 32.328125 33.6875 34.8125 36.53125 
Q 39.546875 41.84375 41.421875 45.53125 
Q 43.3125 49.21875 43.3125 52.78125 
Q 43.3125 58.59375 39.234375 62.25 
Q 35.15625 65.921875 28.609375 65.921875 
Q 23.96875 65.921875 18.8125 64.3125 
Q 13.671875 62.703125 7.8125 59.421875 
L 7.8125 69.390625 
Q 13.765625 71.78125 18.9375 73 
Q 24.125 74.21875 28.421875 74.21875 
Q 39.75 74.21875 46.484375 68.546875 
Q 53.21875 62.890625 53.21875 53.421875 
Q 53.21875 48.921875 51.53125 44.890625 
Q 49.859375 40.875 45.40625 35.40625 
Q 44.1875 33.984375 37.640625 27.21875 
Q 31.109375 20.453125 19.1875 8.296875 
z
" id="DejaVuSans-32"/>
      </defs>
      <g transform="translate(202.636023 322.182437)scale(0.1 -0.1)">
       <use xlink:href="#DejaVuSans-32"/>
       <use x="63.623047" xlink:href="#DejaVuSans-30"/>
      </g>
     </g>
    </g>
    <g id="xtick_4">
     <g id="line2d_7">
      <path clip-path="url(#p33772dc35d)" d="M 278.220161 307.584 
L 278.220161 41.472 
" style="fill:none;stroke:#b0b0b0;stroke-linecap:square;stroke-width:0.8;"/>
     </g>
     <g id="line2d_8">
      <g>
       <use style="stroke:#000000;stroke-width:0.8;" x="278.220161" xlink:href="#m1ada991669" y="307.584"/>
      </g>
     </g>
     <g id="text_4">
      <!-- 30 -->
      <defs>
       <path d="M 40.578125 39.3125 
Q 47.65625 37.796875 51.625 33 
Q 55.609375 28.21875 55.609375 21.1875 
Q 55.609375 10.40625 48.1875 4.484375 
Q 40.765625 -1.421875 27.09375 -1.421875 
Q 22.515625 -1.421875 17.65625 -0.515625 
Q 12.796875 0.390625 7.625 2.203125 
L 7.625 11.71875 
Q 11.71875 9.328125 16.59375 8.109375 
Q 21.484375 6.890625 26.8125 6.890625 
Q 36.078125 6.890625 40.9375 10.546875 
Q 45.796875 14.203125 45.796875 21.1875 
Q 45.796875 27.640625 41.28125 31.265625 
Q 36.765625 34.90625 28.71875 34.90625 
L 20.21875 34.90625 
L 20.21875 43.015625 
L 29.109375 43.015625 
Q 36.375 43.015625 40.234375 45.921875 
Q 44.09375 48.828125 44.09375 54.296875 
Q 44.09375 59.90625 40.109375 62.90625 
Q 36.140625 65.921875 28.71875 65.921875 
Q 24.65625 65.921875 20.015625 65.03125 
Q 15.375 64.15625 9.8125 62.3125 
L 9.8125 71.09375 
Q 15.4375 72.65625 20.34375 73.4375 
Q 25.25 74.21875 29.59375 74.21875 
Q 40.828125 74.21875 47.359375 69.109375 
Q 53.90625 64.015625 53.90625 55.328125 
Q 53.90625 49.265625 50.4375 45.09375 
Q 46.96875 40.921875 40.578125 39.3125 
z
" id="DejaVuSans-33"/>
      </defs>
      <g transform="translate(271.857661 322.182437)scale(0.1 -0.1)">
       <use xlink:href="#DejaVuSans-33"/>
       <use x="63.623047" xlink:href="#DejaVuSans-30"/>
      </g>
     </g>
    </g>
    <g id="xtick_5">
     <g id="line2d_9">
      <path clip-path="url(#p33772dc35d)" d="M 347.441799 307.584 
L 347.441799 41.472 
" style="fill:none;stroke:#b0b0b0;stroke-linecap:square;stroke-width:0.8;"/>
     </g>
     <g id="line2d_10">
      <g>
       <use style="stroke:#000000;stroke-width:0.8;" x="347.441799" xlink:href="#m1ada991669" y="307.584"/>
      </g>
     </g>
     <g id="text_5">
      <!-- 40 -->
      <defs>
       <path d="M 37.796875 64.3125 
L 12.890625 25.390625 
L 37.796875 25.390625 
z
M 35.203125 72.90625 
L 47.609375 72.90625 
L 47.609375 25.390625 
L 58.015625 25.390625 
L 58.015625 17.1875 
L 47.609375 17.1875 
L 47.609375 0 
L 37.796875 0 
L 37.796875 17.1875 
L 4.890625 17.1875 
L 4.890625 26.703125 
z
" id="DejaVuSans-34"/>
      </defs>
      <g transform="translate(341.079299 322.182437)scale(0.1 -0.1)">
       <use xlink:href="#DejaVuSans-34"/>
       <use x="63.623047" xlink:href="#DejaVuSans-30"/>
      </g>
     </g>
    </g>
    <g id="xtick_6">
     <g id="line2d_11">
      <path clip-path="url(#p33772dc35d)" d="M 84.399575 307.584 
L 84.399575 41.472 
" style="fill:none;stroke:#b0b0b0;stroke-linecap:square;stroke-width:0.8;"/>
     </g>
     <g id="line2d_12">
      <defs>
       <path d="M 0 0 
L 0 2 
" id="mc961678373" style="stroke:#000000;stroke-width:0.6;"/>
      </defs>
      <g>
       <use style="stroke:#000000;stroke-width:0.6;" x="84.399575" xlink:href="#mc961678373" y="307.584"/>
      </g>
     </g>
    </g>
    <g id="xtick_7">
     <g id="line2d_13">
      <path clip-path="url(#p33772dc35d)" d="M 98.243903 307.584 
L 98.243903 41.472 
" style="fill:none;stroke:#b0b0b0;stroke-linecap:square;stroke-width:0.8;"/>
     </g>
     <g id="line2d_14">
      <g>
       <use style="stroke:#000000;stroke-width:0.6;" x="98.243903" xlink:href="#mc961678373" y="307.584"/>
      </g>
     </g>
    </g>
    <g id="xtick_8">
     <g id="line2d_15">
      <path clip-path="url(#p33772dc35d)" d="M 112.08823 307.584 
L 112.08823 41.472 
" style="fill:none;stroke:#b0b0b0;stroke-linecap:square;stroke-width:0.8;"/>
     </g>
     <g id="line2d_16">
      <g>
       <use style="stroke:#000000;stroke-width:0.6;" x="112.08823" xlink:href="#mc961678373" y="307.584"/>
      </g>
     </g>
    </g>
    <g id="xtick_9">
     <g id="line2d_17">
      <path clip-path="url(#p33772dc35d)" d="M 125.932558 307.584 
L 125.932558 41.472 
" style="fill:none;stroke:#b0b0b0;stroke-linecap:square;stroke-width:0.8;"/>
     </g>
     <g id="line2d_18">
      <g>
       <use style="stroke:#000000;stroke-width:0.6;" x="125.932558" xlink:href="#mc961678373" y="307.584"/>
      </g>
     </g>
    </g>
    <g id="xtick_10">
     <g id="line2d_19">
      <path clip-path="url(#p33772dc35d)" d="M 153.621213 307.584 
L 153.621213 41.472 
" style="fill:none;stroke:#b0b0b0;stroke-linecap:square;stroke-width:0.8;"/>
     </g>
     <g id="line2d_20">
      <g>
       <use style="stroke:#000000;stroke-width:0.6;" x="153.621213" xlink:href="#mc961678373" y="307.584"/>
      </g>
     </g>
    </g>
    <g id="xtick_11">
     <g id="line2d_21">
      <path clip-path="url(#p33772dc35d)" d="M 167.465541 307.584 
L 167.465541 41.472 
" style="fill:none;stroke:#b0b0b0;stroke-linecap:square;stroke-width:0.8;"/>
     </g>
     <g id="line2d_22">
      <g>
       <use style="stroke:#000000;stroke-width:0.6;" x="167.465541" xlink:href="#mc961678373" y="307.584"/>
      </g>
     </g>
    </g>
    <g id="xtick_12">
     <g id="line2d_23">
      <path clip-path="url(#p33772dc35d)" d="M 181.309868 307.584 
L 181.309868 41.472 
" style="fill:none;stroke:#b0b0b0;stroke-linecap:square;stroke-width:0.8;"/>
     </g>
     <g id="line2d_24">
      <g>
       <use style="stroke:#000000;stroke-width:0.6;" x="181.309868" xlink:href="#mc961678373" y="307.584"/>
      </g>
     </g>
    </g>
    <g id="xtick_13">
     <g id="line2d_25">
      <path clip-path="url(#p33772dc35d)" d="M 195.154196 307.584 
L 195.154196 41.472 
" style="fill:none;stroke:#b0b0b0;stroke-linecap:square;stroke-width:0.8;"/>
     </g>
     <g id="line2d_26">
      <g>
       <use style="stroke:#000000;stroke-width:0.6;" x="195.154196" xlink:href="#mc961678373" y="307.584"/>
      </g>
     </g>
    </g>
    <g id="xtick_14">
     <g id="line2d_27">
      <path clip-path="url(#p33772dc35d)" d="M 222.842851 307.584 
L 222.842851 41.472 
" style="fill:none;stroke:#b0b0b0;stroke-linecap:square;stroke-width:0.8;"/>
     </g>
     <g id="line2d_28">
      <g>
       <use style="stroke:#000000;stroke-width:0.6;" x="222.842851" xlink:href="#mc961678373" y="307.584"/>
      </g>
     </g>
    </g>
    <g id="xtick_15">
     <g id="line2d_29">
      <path clip-path="url(#p33772dc35d)" d="M 236.687178 307.584 
L 236.687178 41.472 
" style="fill:none;stroke:#b0b0b0;stroke-linecap:square;stroke-width:0.8;"/>
     </g>
     <g id="line2d_30">
      <g>
       <use style="stroke:#000000;stroke-width:0.6;" x="236.687178" xlink:href="#mc961678373" y="307.584"/>
      </g>
     </g>
    </g>
    <g id="xtick_16">
     <g id="line2d_31">
      <path clip-path="url(#p33772dc35d)" d="M 250.531506 307.584 
L 250.531506 41.472 
" style="fill:none;stroke:#b0b0b0;stroke-linecap:square;stroke-width:0.8;"/>
     </g>
     <g id="line2d_32">
      <g>
       <use style="stroke:#000000;stroke-width:0.6;" x="250.531506" xlink:href="#mc961678373" y="307.584"/>
      </g>
     </g>
    </g>
    <g id="xtick_17">
     <g id="line2d_33">
      <path clip-path="url(#p33772dc35d)" d="M 264.375834 307.584 
L 264.375834 41.472 
" style="fill:none;stroke:#b0b0b0;stroke-linecap:square;stroke-width:0.8;"/>
     </g>
     <g id="line2d_34">
      <g>
       <use style="stroke:#000000;stroke-width:0.6;" x="264.375834" xlink:href="#mc961678373" y="307.584"/>
      </g>
     </g>
    </g>
    <g id="xtick_18">
     <g id="line2d_35">
      <path clip-path="url(#p33772dc35d)" d="M 292.064489 307.584 
L 292.064489 41.472 
" style="fill:none;stroke:#b0b0b0;stroke-linecap:square;stroke-width:0.8;"/>
     </g>
     <g id="line2d_36">
      <g>
       <use style="stroke:#000000;stroke-width:0.6;" x="292.064489" xlink:href="#mc961678373" y="307.584"/>
      </g>
     </g>
    </g>
    <g id="xtick_19">
     <g id="line2d_37">
      <path clip-path="url(#p33772dc35d)" d="M 305.908816 307.584 
L 305.908816 41.472 
" style="fill:none;stroke:#b0b0b0;stroke-linecap:square;stroke-width:0.8;"/>
     </g>
     <g id="line2d_38">
      <g>
       <use style="stroke:#000000;stroke-width:0.6;" x="305.908816" xlink:href="#mc961678373" y="307.584"/>
      </g>
     </g>
    </g>
    <g id="xtick_20">
     <g id="line2d_39">
      <path clip-path="url(#p33772dc35d)" d="M 319.753144 307.584 
L 319.753144 41.472 
" style="fill:none;stroke:#b0b0b0;stroke-linecap:square;stroke-width:0.8;"/>
     </g>
     <g id="line2d_40">
      <g>
       <use style="stroke:#000000;stroke-width:0.6;" x="319.753144" xlink:href="#mc961678373" y="307.584"/>
      </g>
     </g>
    </g>
    <g id="xtick_21">
     <g id="line2d_41">
      <path clip-path="url(#p33772dc35d)" d="M 333.597471 307.584 
L 333.597471 41.472 
" style="fill:none;stroke:#b0b0b0;stroke-linecap:square;stroke-width:0.8;"/>
     </g>
     <g id="line2d_42">
      <g>
       <use style="stroke:#000000;stroke-width:0.6;" x="333.597471" xlink:href="#mc961678373" y="307.584"/>
      </g>
     </g>
    </g>
    <g id="xtick_22">
     <g id="line2d_43">
      <path clip-path="url(#p33772dc35d)" d="M 361.286127 307.584 
L 361.286127 41.472 
" style="fill:none;stroke:#b0b0b0;stroke-linecap:square;stroke-width:0.8;"/>
     </g>
     <g id="line2d_44">
      <g>
       <use style="stroke:#000000;stroke-width:0.6;" x="361.286127" xlink:href="#mc961678373" y="307.584"/>
      </g>
     </g>
    </g>
    <g id="xtick_23">
     <g id="line2d_45">
      <path clip-path="url(#p33772dc35d)" d="M 375.130454 307.584 
L 375.130454 41.472 
" style="fill:none;stroke:#b0b0b0;stroke-linecap:square;stroke-width:0.8;"/>
     </g>
     <g id="line2d_46">
      <g>
       <use style="stroke:#000000;stroke-width:0.6;" x="375.130454" xlink:href="#mc961678373" y="307.584"/>
      </g>
     </g>
    </g>
    <g id="xtick_24">
     <g id="line2d_47">
      <path clip-path="url(#p33772dc35d)" d="M 388.974782 307.584 
L 388.974782 41.472 
" style="fill:none;stroke:#b0b0b0;stroke-linecap:square;stroke-width:0.8;"/>
     </g>
     <g id="line2d_48">
      <g>
       <use style="stroke:#000000;stroke-width:0.6;" x="388.974782" xlink:href="#mc961678373" y="307.584"/>
      </g>
     </g>
    </g>
    <g id="xtick_25">
     <g id="line2d_49">
      <path clip-path="url(#p33772dc35d)" d="M 402.819109 307.584 
L 402.819109 41.472 
" style="fill:none;stroke:#b0b0b0;stroke-linecap:square;stroke-width:0.8;"/>
     </g>
     <g id="line2d_50">
      <g>
       <use style="stroke:#000000;stroke-width:0.6;" x="402.819109" xlink:href="#mc961678373" y="307.584"/>
      </g>
     </g>
    </g>
    <g id="text_6">
     <!-- frame # [] -->
     <defs>
      <path d="M 37.109375 75.984375 
L 37.109375 68.5 
L 28.515625 68.5 
Q 23.6875 68.5 21.796875 66.546875 
Q 19.921875 64.59375 19.921875 59.515625 
L 19.921875 54.6875 
L 34.71875 54.6875 
L 34.71875 47.703125 
L 19.921875 47.703125 
L 19.921875 0 
L 10.890625 0 
L 10.890625 47.703125 
L 2.296875 47.703125 
L 2.296875 54.6875 
L 10.890625 54.6875 
L 10.890625 58.5 
Q 10.890625 67.625 15.140625 71.796875 
Q 19.390625 75.984375 28.609375 75.984375 
z
" id="DejaVuSans-66"/>
      <path d="M 41.109375 46.296875 
Q 39.59375 47.171875 37.8125 47.578125 
Q 36.03125 48 33.890625 48 
Q 26.265625 48 22.1875 43.046875 
Q 18.109375 38.09375 18.109375 28.8125 
L 18.109375 0 
L 9.078125 0 
L 9.078125 54.6875 
L 18.109375 54.6875 
L 18.109375 46.1875 
Q 20.953125 51.171875 25.484375 53.578125 
Q 30.03125 56 36.53125 56 
Q 37.453125 56 38.578125 55.875 
Q 39.703125 55.765625 41.0625 55.515625 
z
" id="DejaVuSans-72"/>
      <path d="M 34.28125 27.484375 
Q 23.390625 27.484375 19.1875 25 
Q 14.984375 22.515625 14.984375 16.5 
Q 14.984375 11.71875 18.140625 8.90625 
Q 21.296875 6.109375 26.703125 6.109375 
Q 34.1875 6.109375 38.703125 11.40625 
Q 43.21875 16.703125 43.21875 25.484375 
L 43.21875 27.484375 
z
M 52.203125 31.203125 
L 52.203125 0 
L 43.21875 0 
L 43.21875 8.296875 
Q 40.140625 3.328125 35.546875 0.953125 
Q 30.953125 -1.421875 24.3125 -1.421875 
Q 15.921875 -1.421875 10.953125 3.296875 
Q 6 8.015625 6 15.921875 
Q 6 25.140625 12.171875 29.828125 
Q 18.359375 34.515625 30.609375 34.515625 
L 43.21875 34.515625 
L 43.21875 35.40625 
Q 43.21875 41.609375 39.140625 45 
Q 35.0625 48.390625 27.6875 48.390625 
Q 23 48.390625 18.546875 47.265625 
Q 14.109375 46.140625 10.015625 43.890625 
L 10.015625 52.203125 
Q 14.9375 54.109375 19.578125 55.046875 
Q 24.21875 56 28.609375 56 
Q 40.484375 56 46.34375 49.84375 
Q 52.203125 43.703125 52.203125 31.203125 
z
" id="DejaVuSans-61"/>
      <path d="M 52 44.1875 
Q 55.375 50.25 60.0625 53.125 
Q 64.75 56 71.09375 56 
Q 79.640625 56 84.28125 50.015625 
Q 88.921875 44.046875 88.921875 33.015625 
L 88.921875 0 
L 79.890625 0 
L 79.890625 32.71875 
Q 79.890625 40.578125 77.09375 44.375 
Q 74.3125 48.1875 68.609375 48.1875 
Q 61.625 48.1875 57.5625 43.546875 
Q 53.515625 38.921875 53.515625 30.90625 
L 53.515625 0 
L 44.484375 0 
L 44.484375 32.71875 
Q 44.484375 40.625 41.703125 44.40625 
Q 38.921875 48.1875 33.109375 48.1875 
Q 26.21875 48.1875 22.15625 43.53125 
Q 18.109375 38.875 18.109375 30.90625 
L 18.109375 0 
L 9.078125 0 
L 9.078125 54.6875 
L 18.109375 54.6875 
L 18.109375 46.1875 
Q 21.1875 51.21875 25.484375 53.609375 
Q 29.78125 56 35.6875 56 
Q 41.65625 56 45.828125 52.96875 
Q 50 49.953125 52 44.1875 
z
" id="DejaVuSans-6d"/>
      <path d="M 56.203125 29.59375 
L 56.203125 25.203125 
L 14.890625 25.203125 
Q 15.484375 15.921875 20.484375 11.0625 
Q 25.484375 6.203125 34.421875 6.203125 
Q 39.59375 6.203125 44.453125 7.46875 
Q 49.3125 8.734375 54.109375 11.28125 
L 54.109375 2.78125 
Q 49.265625 0.734375 44.1875 -0.34375 
Q 39.109375 -1.421875 33.890625 -1.421875 
Q 20.796875 -1.421875 13.15625 6.1875 
Q 5.515625 13.8125 5.515625 26.8125 
Q 5.515625 40.234375 12.765625 48.109375 
Q 20.015625 56 32.328125 56 
Q 43.359375 56 49.78125 48.890625 
Q 56.203125 41.796875 56.203125 29.59375 
z
M 47.21875 32.234375 
Q 47.125 39.59375 43.09375 43.984375 
Q 39.0625 48.390625 32.421875 48.390625 
Q 24.90625 48.390625 20.390625 44.140625 
Q 15.875 39.890625 15.1875 32.171875 
z
" id="DejaVuSans-65"/>
      <path id="DejaVuSans-20"/>
      <path d="M 51.125 44 
L 36.921875 44 
L 32.8125 27.6875 
L 47.125 27.6875 
z
M 43.796875 71.78125 
L 38.71875 51.515625 
L 52.984375 51.515625 
L 58.109375 71.78125 
L 65.921875 71.78125 
L 60.890625 51.515625 
L 76.125 51.515625 
L 76.125 44 
L 58.984375 44 
L 54.984375 27.6875 
L 70.515625 27.6875 
L 70.515625 20.21875 
L 53.078125 20.21875 
L 48 0 
L 40.1875 0 
L 45.21875 20.21875 
L 30.90625 20.21875 
L 25.875 0 
L 18.015625 0 
L 23.09375 20.21875 
L 7.71875 20.21875 
L 7.71875 27.6875 
L 24.90625 27.6875 
L 29 44 
L 13.28125 44 
L 13.28125 51.515625 
L 30.90625 51.515625 
L 35.890625 71.78125 
z
" id="DejaVuSans-23"/>
      <path d="M 8.59375 75.984375 
L 29.296875 75.984375 
L 29.296875 69 
L 17.578125 69 
L 17.578125 -6.203125 
L 29.296875 -6.203125 
L 29.296875 -13.1875 
L 8.59375 -13.1875 
z
" id="DejaVuSans-5b"/>
      <path d="M 30.421875 75.984375 
L 30.421875 -13.1875 
L 9.71875 -13.1875 
L 9.71875 -6.203125 
L 21.390625 -6.203125 
L 21.390625 69 
L 9.71875 69 
L 9.71875 75.984375 
z
" id="DejaVuSans-5d"/>
     </defs>
     <g transform="translate(210.063906 335.860562)scale(0.1 -0.1)">
      <use xlink:href="#DejaVuSans-66"/>
      <use x="35.205078" xlink:href="#DejaVuSans-72"/>
      <use x="76.318359" xlink:href="#DejaVuSans-61"/>
      <use x="137.597656" xlink:href="#DejaVuSans-6d"/>
      <use x="235.009766" xlink:href="#DejaVuSans-65"/>
      <use x="296.533203" xlink:href="#DejaVuSans-20"/>
      <use x="328.320312" xlink:href="#DejaVuSans-23"/>
      <use x="412.109375" xlink:href="#DejaVuSans-20"/>
      <use x="443.896484" xlink:href="#DejaVuSans-5b"/>
      <use x="482.910156" xlink:href="#DejaVuSans-5d"/>
     </g>
    </g>
   </g>
   <g id="matplotlib.axis_2">
    <g id="ytick_1">
     <g id="line2d_51">
      <path clip-path="url(#p33772dc35d)" d="M 57.6 285.44651 
L 414.72 285.44651 
" style="fill:none;stroke:#b0b0b0;stroke-linecap:square;stroke-width:0.8;"/>
     </g>
     <g id="line2d_52">
      <defs>
       <path d="M 0 0 
L -3.5 0 
" id="m4d0bc24b52" style="stroke:#000000;stroke-width:0.8;"/>
      </defs>
      <g>
       <use style="stroke:#000000;stroke-width:0.8;" x="57.6" xlink:href="#m4d0bc24b52" y="285.44651"/>
      </g>
     </g>
     <g id="text_7">
      <!-- −0.4 -->
      <defs>
       <path d="M 10.59375 35.5 
L 73.1875 35.5 
L 73.1875 27.203125 
L 10.59375 27.203125 
z
" id="DejaVuSans-2212"/>
       <path d="M 10.6875 12.40625 
L 21 12.40625 
L 21 0 
L 10.6875 0 
z
" id="DejaVuSans-2e"/>
      </defs>
      <g transform="translate(26.317187 289.245729)scale(0.1 -0.1)">
       <use xlink:href="#DejaVuSans-2212"/>
       <use x="83.789062" xlink:href="#DejaVuSans-30"/>
       <use x="147.412109" xlink:href="#DejaVuSans-2e"/>
       <use x="179.199219" xlink:href="#DejaVuSans-34"/>
      </g>
     </g>
    </g>
    <g id="ytick_2">
     <g id="line2d_53">
      <path clip-path="url(#p33772dc35d)" d="M 57.6 230.92219 
L 414.72 230.92219 
" style="fill:none;stroke:#b0b0b0;stroke-linecap:square;stroke-width:0.8;"/>
     </g>
     <g id="line2d_54">
      <g>
       <use style="stroke:#000000;stroke-width:0.8;" x="57.6" xlink:href="#m4d0bc24b52" y="230.92219"/>
      </g>
     </g>
     <g id="text_8">
      <!-- −0.2 -->
      <g transform="translate(26.317187 234.721409)scale(0.1 -0.1)">
       <use xlink:href="#DejaVuSans-2212"/>
       <use x="83.789062" xlink:href="#DejaVuSans-30"/>
       <use x="147.412109" xlink:href="#DejaVuSans-2e"/>
       <use x="179.199219" xlink:href="#DejaVuSans-32"/>
      </g>
     </g>
    </g>
    <g id="ytick_3">
     <g id="line2d_55">
      <path clip-path="url(#p33772dc35d)" d="M 57.6 176.397869 
L 414.72 176.397869 
" style="fill:none;stroke:#b0b0b0;stroke-linecap:square;stroke-width:0.8;"/>
     </g>
     <g id="line2d_56">
      <g>
       <use style="stroke:#000000;stroke-width:0.8;" x="57.6" xlink:href="#m4d0bc24b52" y="176.397869"/>
      </g>
     </g>
     <g id="text_9">
      <!-- 0.0 -->
      <g transform="translate(34.696875 180.197088)scale(0.1 -0.1)">
       <use xlink:href="#DejaVuSans-30"/>
       <use x="63.623047" xlink:href="#DejaVuSans-2e"/>
       <use x="95.410156" xlink:href="#DejaVuSans-30"/>
      </g>
     </g>
    </g>
    <g id="ytick_4">
     <g id="line2d_57">
      <path clip-path="url(#p33772dc35d)" d="M 57.6 121.873549 
L 414.72 121.873549 
" style="fill:none;stroke:#b0b0b0;stroke-linecap:square;stroke-width:0.8;"/>
     </g>
     <g id="line2d_58">
      <g>
       <use style="stroke:#000000;stroke-width:0.8;" x="57.6" xlink:href="#m4d0bc24b52" y="121.873549"/>
      </g>
     </g>
     <g id="text_10">
      <!-- 0.2 -->
      <g transform="translate(34.696875 125.672768)scale(0.1 -0.1)">
       <use xlink:href="#DejaVuSans-30"/>
       <use x="63.623047" xlink:href="#DejaVuSans-2e"/>
       <use x="95.410156" xlink:href="#DejaVuSans-32"/>
      </g>
     </g>
    </g>
    <g id="ytick_5">
     <g id="line2d_59">
      <path clip-path="url(#p33772dc35d)" d="M 57.6 67.349228 
L 414.72 67.349228 
" style="fill:none;stroke:#b0b0b0;stroke-linecap:square;stroke-width:0.8;"/>
     </g>
     <g id="line2d_60">
      <g>
       <use style="stroke:#000000;stroke-width:0.8;" x="57.6" xlink:href="#m4d0bc24b52" y="67.349228"/>
      </g>
     </g>
     <g id="text_11">
      <!-- 0.4 -->
      <g transform="translate(34.696875 71.148447)scale(0.1 -0.1)">
       <use xlink:href="#DejaVuSans-30"/>
       <use x="63.623047" xlink:href="#DejaVuSans-2e"/>
       <use x="95.410156" xlink:href="#DejaVuSans-34"/>
      </g>
     </g>
    </g>
    <g id="ytick_6">
     <g id="line2d_61">
      <path clip-path="url(#p33772dc35d)" d="M 57.6 299.077591 
L 414.72 299.077591 
" style="fill:none;stroke:#b0b0b0;stroke-linecap:square;stroke-width:0.8;"/>
     </g>
     <g id="line2d_62">
      <defs>
       <path d="M 0 0 
L -2 0 
" id="m1a6b146274" style="stroke:#000000;stroke-width:0.6;"/>
      </defs>
      <g>
       <use style="stroke:#000000;stroke-width:0.6;" x="57.6" xlink:href="#m1a6b146274" y="299.077591"/>
      </g>
     </g>
    </g>
    <g id="ytick_7">
     <g id="line2d_63">
      <path clip-path="url(#p33772dc35d)" d="M 57.6 271.81543 
L 414.72 271.81543 
" style="fill:none;stroke:#b0b0b0;stroke-linecap:square;stroke-width:0.8;"/>
     </g>
     <g id="line2d_64">
      <g>
       <use style="stroke:#000000;stroke-width:0.6;" x="57.6" xlink:href="#m1a6b146274" y="271.81543"/>
      </g>
     </g>
    </g>
    <g id="ytick_8">
     <g id="line2d_65">
      <path clip-path="url(#p33772dc35d)" d="M 57.6 258.18435 
L 414.72 258.18435 
" style="fill:none;stroke:#b0b0b0;stroke-linecap:square;stroke-width:0.8;"/>
     </g>
     <g id="line2d_66">
      <g>
       <use style="stroke:#000000;stroke-width:0.6;" x="57.6" xlink:href="#m1a6b146274" y="258.18435"/>
      </g>
     </g>
    </g>
    <g id="ytick_9">
     <g id="line2d_67">
      <path clip-path="url(#p33772dc35d)" d="M 57.6 244.55327 
L 414.72 244.55327 
" style="fill:none;stroke:#b0b0b0;stroke-linecap:square;stroke-width:0.8;"/>
     </g>
     <g id="line2d_68">
      <g>
       <use style="stroke:#000000;stroke-width:0.6;" x="57.6" xlink:href="#m1a6b146274" y="244.55327"/>
      </g>
     </g>
    </g>
    <g id="ytick_10">
     <g id="line2d_69">
      <path clip-path="url(#p33772dc35d)" d="M 57.6 230.92219 
L 414.72 230.92219 
" style="fill:none;stroke:#b0b0b0;stroke-linecap:square;stroke-width:0.8;"/>
     </g>
     <g id="line2d_70">
      <g>
       <use style="stroke:#000000;stroke-width:0.6;" x="57.6" xlink:href="#m1a6b146274" y="230.92219"/>
      </g>
     </g>
    </g>
    <g id="ytick_11">
     <g id="line2d_71">
      <path clip-path="url(#p33772dc35d)" d="M 57.6 217.29111 
L 414.72 217.29111 
" style="fill:none;stroke:#b0b0b0;stroke-linecap:square;stroke-width:0.8;"/>
     </g>
     <g id="line2d_72">
      <g>
       <use style="stroke:#000000;stroke-width:0.6;" x="57.6" xlink:href="#m1a6b146274" y="217.29111"/>
      </g>
     </g>
    </g>
    <g id="ytick_12">
     <g id="line2d_73">
      <path clip-path="url(#p33772dc35d)" d="M 57.6 203.66003 
L 414.72 203.66003 
" style="fill:none;stroke:#b0b0b0;stroke-linecap:square;stroke-width:0.8;"/>
     </g>
     <g id="line2d_74">
      <g>
       <use style="stroke:#000000;stroke-width:0.6;" x="57.6" xlink:href="#m1a6b146274" y="203.66003"/>
      </g>
     </g>
    </g>
    <g id="ytick_13">
     <g id="line2d_75">
      <path clip-path="url(#p33772dc35d)" d="M 57.6 190.02895 
L 414.72 190.02895 
" style="fill:none;stroke:#b0b0b0;stroke-linecap:square;stroke-width:0.8;"/>
     </g>
     <g id="line2d_76">
      <g>
       <use style="stroke:#000000;stroke-width:0.6;" x="57.6" xlink:href="#m1a6b146274" y="190.02895"/>
      </g>
     </g>
    </g>
    <g id="ytick_14">
     <g id="line2d_77">
      <path clip-path="url(#p33772dc35d)" d="M 57.6 176.397869 
L 414.72 176.397869 
" style="fill:none;stroke:#b0b0b0;stroke-linecap:square;stroke-width:0.8;"/>
     </g>
     <g id="line2d_78">
      <g>
       <use style="stroke:#000000;stroke-width:0.6;" x="57.6" xlink:href="#m1a6b146274" y="176.397869"/>
      </g>
     </g>
    </g>
    <g id="ytick_15">
     <g id="line2d_79">
      <path clip-path="url(#p33772dc35d)" d="M 57.6 162.766789 
L 414.72 162.766789 
" style="fill:none;stroke:#b0b0b0;stroke-linecap:square;stroke-width:0.8;"/>
     </g>
     <g id="line2d_80">
      <g>
       <use style="stroke:#000000;stroke-width:0.6;" x="57.6" xlink:href="#m1a6b146274" y="162.766789"/>
      </g>
     </g>
    </g>
    <g id="ytick_16">
     <g id="line2d_81">
      <path clip-path="url(#p33772dc35d)" d="M 57.6 149.135709 
L 414.72 149.135709 
" style="fill:none;stroke:#b0b0b0;stroke-linecap:square;stroke-width:0.8;"/>
     </g>
     <g id="line2d_82">
      <g>
       <use style="stroke:#000000;stroke-width:0.6;" x="57.6" xlink:href="#m1a6b146274" y="149.135709"/>
      </g>
     </g>
    </g>
    <g id="ytick_17">
     <g id="line2d_83">
      <path clip-path="url(#p33772dc35d)" d="M 57.6 135.504629 
L 414.72 135.504629 
" style="fill:none;stroke:#b0b0b0;stroke-linecap:square;stroke-width:0.8;"/>
     </g>
     <g id="line2d_84">
      <g>
       <use style="stroke:#000000;stroke-width:0.6;" x="57.6" xlink:href="#m1a6b146274" y="135.504629"/>
      </g>
     </g>
    </g>
    <g id="ytick_18">
     <g id="line2d_85">
      <path clip-path="url(#p33772dc35d)" d="M 57.6 121.873549 
L 414.72 121.873549 
" style="fill:none;stroke:#b0b0b0;stroke-linecap:square;stroke-width:0.8;"/>
     </g>
     <g id="line2d_86">
      <g>
       <use style="stroke:#000000;stroke-width:0.6;" x="57.6" xlink:href="#m1a6b146274" y="121.873549"/>
      </g>
     </g>
    </g>
    <g id="ytick_19">
     <g id="line2d_87">
      <path clip-path="url(#p33772dc35d)" d="M 57.6 108.242469 
L 414.72 108.242469 
" style="fill:none;stroke:#b0b0b0;stroke-linecap:square;stroke-width:0.8;"/>
     </g>
     <g id="line2d_88">
      <g>
       <use style="stroke:#000000;stroke-width:0.6;" x="57.6" xlink:href="#m1a6b146274" y="108.242469"/>
      </g>
     </g>
    </g>
    <g id="ytick_20">
     <g id="line2d_89">
      <path clip-path="url(#p33772dc35d)" d="M 57.6 94.611389 
L 414.72 94.611389 
" style="fill:none;stroke:#b0b0b0;stroke-linecap:square;stroke-width:0.8;"/>
     </g>
     <g id="line2d_90">
      <g>
       <use style="stroke:#000000;stroke-width:0.6;" x="57.6" xlink:href="#m1a6b146274" y="94.611389"/>
      </g>
     </g>
    </g>
    <g id="ytick_21">
     <g id="line2d_91">
      <path clip-path="url(#p33772dc35d)" d="M 57.6 80.980309 
L 414.72 80.980309 
" style="fill:none;stroke:#b0b0b0;stroke-linecap:square;stroke-width:0.8;"/>
     </g>
     <g id="line2d_92">
      <g>
       <use style="stroke:#000000;stroke-width:0.6;" x="57.6" xlink:href="#m1a6b146274" y="80.980309"/>
      </g>
     </g>
    </g>
    <g id="ytick_22">
     <g id="line2d_93">
      <path clip-path="url(#p33772dc35d)" d="M 57.6 67.349228 
L 414.72 67.349228 
" style="fill:none;stroke:#b0b0b0;stroke-linecap:square;stroke-width:0.8;"/>
     </g>
     <g id="line2d_94">
      <g>
       <use style="stroke:#000000;stroke-width:0.6;" x="57.6" xlink:href="#m1a6b146274" y="67.349228"/>
      </g>
     </g>
    </g>
    <g id="ytick_23">
     <g id="line2d_95">
      <path clip-path="url(#p33772dc35d)" d="M 57.6 53.718148 
L 414.72 53.718148 
" style="fill:none;stroke:#b0b0b0;stroke-linecap:square;stroke-width:0.8;"/>
     </g>
     <g id="line2d_96">
      <g>
       <use style="stroke:#000000;stroke-width:0.6;" x="57.6" xlink:href="#m1a6b146274" y="53.718148"/>
      </g>
     </g>
    </g>
    <g id="text_12">
     <!-- rot z -->
     <defs>
      <path d="M 30.609375 48.390625 
Q 23.390625 48.390625 19.1875 42.75 
Q 14.984375 37.109375 14.984375 27.296875 
Q 14.984375 17.484375 19.15625 11.84375 
Q 23.34375 6.203125 30.609375 6.203125 
Q 37.796875 6.203125 41.984375 11.859375 
Q 46.1875 17.53125 46.1875 27.296875 
Q 46.1875 37.015625 41.984375 42.703125 
Q 37.796875 48.390625 30.609375 48.390625 
z
M 30.609375 56 
Q 42.328125 56 49.015625 48.375 
Q 55.71875 40.765625 55.71875 27.296875 
Q 55.71875 13.875 49.015625 6.21875 
Q 42.328125 -1.421875 30.609375 -1.421875 
Q 18.84375 -1.421875 12.171875 6.21875 
Q 5.515625 13.875 5.515625 27.296875 
Q 5.515625 40.765625 12.171875 48.375 
Q 18.84375 56 30.609375 56 
z
" id="DejaVuSans-6f"/>
      <path d="M 18.3125 70.21875 
L 18.3125 54.6875 
L 36.8125 54.6875 
L 36.8125 47.703125 
L 18.3125 47.703125 
L 18.3125 18.015625 
Q 18.3125 11.328125 20.140625 9.421875 
Q 21.96875 7.515625 27.59375 7.515625 
L 36.8125 7.515625 
L 36.8125 0 
L 27.59375 0 
Q 17.1875 0 13.234375 3.875 
Q 9.28125 7.765625 9.28125 18.015625 
L 9.28125 47.703125 
L 2.6875 47.703125 
L 2.6875 54.6875 
L 9.28125 54.6875 
L 9.28125 70.21875 
z
" id="DejaVuSans-74"/>
      <path d="M 5.515625 54.6875 
L 48.1875 54.6875 
L 48.1875 46.484375 
L 14.40625 7.171875 
L 48.1875 7.171875 
L 48.1875 0 
L 4.296875 0 
L 4.296875 8.203125 
L 38.09375 47.515625 
L 5.515625 47.515625 
z
" id="DejaVuSans-7a"/>
     </defs>
     <g transform="translate(20.2375 185.814719)rotate(-90)scale(0.1 -0.1)">
      <use xlink:href="#DejaVuSans-72"/>
      <use x="41.082031" xlink:href="#DejaVuSans-6f"/>
      <use x="102.263672" xlink:href="#DejaVuSans-74"/>
      <use x="141.472656" xlink:href="#DejaVuSans-20"/>
      <use x="173.259766" xlink:href="#DejaVuSans-7a"/>
     </g>
    </g>
   </g>
   <g id="line2d_97">
    <path clip-path="url(#p33772dc35d)" d="M 73.832727 180.872013 
L 74.524971 181.288647 
L 75.217208 183.690198 
L 75.90628 176.763771 
L 76.598517 181.398997 
L 77.982991 177.888377 
L 78.6751 182.41181 
L 79.367337 188.355212 
L 80.059581 182.5903 
L 80.751818 174.931074 
L 81.446481 176.47261 
L 82.138725 179.622176 
L 82.830962 172.880029 
L 83.523199 176.383782 
L 84.216653 175.552048 
L 84.908883 177.253518 
L 86.293364 175.539115 
L 87.675135 181.07937 
L 88.367373 174.985886 
L 89.05961 170.29491 
L 89.751847 179.562798 
L 90.441987 183.744033 
L 91.13423 174.350574 
L 91.826467 169.999839 
L 92.518705 175.606435 
L 93.209773 171.493092 
L 93.902011 174.061967 
L 94.594254 189.302137 
L 95.286491 194.998278 
L 95.979336 187.902443 
L 96.671581 188.599549 
L 97.363819 188.730778 
L 98.056056 185.922804 
L 98.749362 171.048467 
L 99.44205 165.117972 
L 100.826074 148.42351 
L 101.516997 148.155355 
L 102.209241 159.7428 
L 104.284797 179.232922 
L 104.977035 173.161055 
L 105.669272 176.500282 
L 106.361509 190.683777 
L 107.05535 193.261762 
L 107.747587 192.824275 
L 109.132062 176.523858 
L 111.209437 152.292611 
L 111.901674 148.3846 
L 112.593675 155.681411 
L 113.285912 174.118957 
L 113.978149 175.452618 
L 114.670387 179.345166 
L 115.361972 187.769579 
L 116.746446 175.926766 
L 117.438683 172.879148 
L 118.130907 173.566337 
L 118.823151 173.391073 
L 119.515395 159.797713 
L 120.207625 155.13495 
L 120.899869 153.895536 
L 121.594579 164.46113 
L 122.286816 182.682346 
L 122.97906 192.823754 
L 123.67129 195.834919 
L 124.363909 208.29363 
L 125.056146 197.123245 
L 125.748383 191.436999 
L 126.44062 193.740865 
L 127.129632 181.233024 
L 127.82187 173.813325 
L 128.514107 174.362987 
L 129.206344 165.15503 
L 130.591908 159.519054 
L 131.284145 152.842873 
L 131.976389 168.938721 
L 132.670814 178.883523 
L 133.363058 184.528782 
L 134.055295 191.52637 
L 134.747532 193.49769 
L 135.437802 192.451833 
L 136.130039 187.412485 
L 136.822277 191.495327 
L 137.514514 187.832964 
L 138.204709 177.077504 
L 138.896947 180.221498 
L 139.589184 187.929058 
L 140.281421 184.397765 
L 140.976101 170.824648 
L 141.668336 167.510453 
L 143.05281 156.837561 
L 144.436993 184.381764 
L 145.129236 188.635509 
L 145.821474 187.872693 
L 146.511257 189.271331 
L 147.203494 191.58704 
L 147.895731 184.667692 
L 148.588378 184.683707 
L 149.281455 184.293664 
L 150.665929 192.876433 
L 151.358166 183.348787 
L 152.05041 177.539678 
L 153.435969 158.108231 
L 154.128206 159.178914 
L 155.510224 171.990701 
L 156.20247 171.914667 
L 156.894699 179.639649 
L 157.586944 176.339006 
L 158.279343 173.92312 
L 158.97158 172.954981 
L 159.663852 168.924562 
L 160.356055 173.750698 
L 161.051271 177.239455 
L 162.435745 169.609817 
L 163.127989 185.513808 
L 163.818557 186.612699 
L 164.510795 186.172828 
L 165.203032 189.104967 
L 165.895269 185.626413 
L 166.586145 178.161364 
L 167.278382 187.712046 
L 167.970626 193.05103 
L 168.662863 183.441089 
L 169.356457 179.157371 
L 170.048694 193.395644 
L 170.740931 194.827496 
L 171.433168 181.381103 
L 172.125831 176.979152 
L 172.818048 163.291889 
L 173.510286 160.723604 
L 174.202529 160.740796 
L 174.892987 169.339058 
L 175.585225 169.536882 
L 176.277462 175.556127 
L 176.969699 163.409444 
L 177.662487 164.419851 
L 178.354724 172.732899 
L 179.046962 169.410543 
L 179.739205 178.356934 
L 180.434067 179.123929 
L 181.126297 162.161266 
L 181.818534 166.332925 
L 182.510778 176.093413 
L 183.200632 177.146894 
L 183.892876 190.544322 
L 184.585113 190.92439 
L 185.2776 187.576207 
L 185.969588 195.206721 
L 186.661455 189.28359 
L 187.353692 188.42913 
L 188.045929 192.278183 
L 188.738167 182.582883 
M 191.509762 159.711194 
L 192.199235 172.260585 
L 192.891481 176.741544 
L 193.583718 179.57744 
L 194.275953 176.919443 
L 194.967935 163.5139 
L 195.660172 165.066058 
L 196.352409 168.793201 
L 197.044646 167.88042 
L 197.738917 161.361399 
L 198.431154 157.470904 
L 199.123391 159.17472 
L 199.815628 180.858008 
L 200.508823 193.729148 
L 201.20106 194.974855 
L 201.893304 195.764216 
L 202.585541 193.495603 
L 203.275538 194.605598 
L 203.967776 195.464802 
L 204.660013 193.008422 
L 205.35225 170.974159 
L 206.044672 169.320369 
L 206.736909 175.327568 
L 207.429146 170.38901 
L 208.121383 168.864598 
L 208.815873 171.940368 
L 209.50811 172.860581 
L 210.200348 181.703468 
L 210.892585 192.190517 
L 211.583861 199.062189 
L 212.276099 191.565589 
L 212.968342 187.08968 
L 213.66058 184.919721 
L 214.351919 186.139443 
L 215.044156 179.326255 
L 215.736393 195.802797 
L 216.428631 196.154183 
L 218.507232 171.697188 
L 220.58497 146.977981 
L 221.277214 152.065312 
L 221.969824 158.89204 
L 222.661681 163.946772 
L 223.354881 165.618481 
L 224.047124 168.787592 
L 224.739362 173.476781 
L 225.431599 179.237789 
L 226.123329 174.336644 
L 227.507804 180.428889 
L 228.200041 189.250097 
L 228.892598 190.084381 
L 229.584835 185.711464 
L 230.277072 176.563603 
L 231.661953 165.177465 
L 232.35419 169.652137 
L 233.046427 172.547156 
L 233.738664 177.346026 
L 234.434318 176.436681 
L 235.126562 168.059133 
L 235.818799 162.661821 
L 236.511036 163.558959 
L 237.205725 169.808738 
L 237.897963 177.88398 
L 238.5902 177.139032 
L 239.282437 174.155645 
L 239.966295 185.735349 
L 240.658539 195.435541 
L 241.350776 182.025998 
L 242.043013 178.86868 
L 242.735331 179.311548 
L 243.427569 169.917183 
L 244.119806 168.660899 
L 244.812043 162.671739 
L 245.504977 164.261604 
L 246.197214 172.995476 
L 246.889449 176.280413 
L 247.581686 177.907265 
L 248.274878 176.266195 
L 248.967115 182.142763 
L 250.351589 191.607505 
L 251.043826 194.276789 
L 251.736771 200.068729 
L 252.429009 188.915595 
L 253.121246 183.902269 
L 253.81349 184.795079 
L 254.500718 176.009211 
L 255.192947 175.89076 
L 255.885192 183.947343 
L 256.577429 183.810367 
L 257.269926 174.478363 
L 257.962163 169.768107 
L 258.6544 161.380894 
L 259.346637 164.739137 
L 260.040695 170.794122 
L 260.732932 175.408171 
L 261.425169 169.700568 
L 262.117406 172.267978 
L 262.80931 170.766749 
L 263.501547 171.441448 
L 264.193784 175.275846 
L 264.886021 175.236974 
L 265.576308 162.883938 
L 266.268553 165.14207 
L 266.960791 142.567488 
L 267.653028 144.058986 
L 268.344813 158.353272 
L 269.03705 189.520987 
L 269.729287 241.897464 
L 270.421524 263.830805 
M 271.808522 269.927197 
L 272.500759 259.20272 
L 273.192996 258.449208 
L 273.886626 241.453642 
L 274.578864 199.441242 
M 279.422083 115.819021 
L 280.11432 143.737055 
L 280.806557 216.158444 
M 282.885262 286.02145 
L 283.576905 270.642119 
L 284.269143 263.357662 
M 291.190092 140.579595 
L 291.882329 215.249416 
L 292.574566 267.780994 
M 296.037925 265.149614 
L 297.420548 128.565005 
L 298.112785 98.076535 
L 298.805022 81.758314 
L 299.500625 84.189432 
L 300.192862 107.749078 
M 305.72952 232.089118 
L 306.421757 202.932876 
L 307.804746 121.25913 
L 308.496983 92.134302 
L 309.18922 81.253617 
L 309.881458 92.200704 
M 314.727973 239.348754 
L 315.42021 211.587605 
L 316.112447 176.279409 
L 316.803859 147.387625 
L 317.496096 111.938865 
L 318.188333 104.378457 
L 318.880571 108.032114 
L 319.576584 117.360453 
L 320.961058 176.546905 
L 322.342377 219.497695 
L 323.726858 236.928383 
L 324.419095 234.206499 
L 325.112821 221.205492 
L 326.497302 176.248372 
M 327.884744 120.007376 
L 328.576974 118.12827 
L 329.269218 116.678365 
L 329.961455 141.021556 
L 330.653469 179.307021 
L 332.037944 227.794045 
L 332.730181 234.500976 
L 333.422638 231.602617 
L 334.114875 244.662695 
L 334.807119 224.570345 
M 337.575094 85.062353 
L 338.267337 97.624887 
L 339.651661 182.635931 
L 340.343899 217.265452 
L 341.036136 241.863305 
L 341.726718 241.014242 
L 343.111192 213.96179 
L 343.803429 190.0158 
L 344.492933 151.990354 
L 345.18517 123.817505 
L 345.877414 103.592635 
L 346.569651 92.210644 
M 347.953989 139.119152 
L 348.646226 185.93402 
M 351.414505 250.764285 
L 352.106742 229.460662 
L 352.798979 199.813412 
L 353.491776 178.407524 
L 354.87625 80.088257 
L 355.569124 69.720849 
L 356.26317 68.143652 
L 357.647653 101.627538 
L 358.33989 140.342955 
L 359.721951 263.614552 
M 361.106426 289.92856 
L 362.491511 262.345876 
L 363.183748 232.752074 
L 363.875985 167.216931 
L 364.568397 112.427944 
L 365.260626 87.967968 
M 366.6451 90.455193 
L 367.338052 93.991081 
L 368.030296 120.563931 
L 368.722533 153.249833 
L 369.41477 206.682992 
L 370.107983 249.218301 
L 370.80022 272.012847 
L 371.492457 273.546739 
L 372.877912 250.610798 
L 373.570157 223.356822 
L 374.262395 178.082389 
L 374.95463 124.246203 
M 376.34006 98.419646 
L 377.032291 100.88951 
L 377.724534 94.241744 
M 380.492239 278.451745 
L 381.184476 273.854559 
L 381.876099 262.476035 
L 382.568336 246.36993 
L 383.260573 214.319665 
L 383.952811 155.059139 
L 384.644637 120.852654 
L 385.336874 103.911014 
L 386.029111 93.57964 
L 386.721348 104.79598 
L 387.412183 124.475174 
L 388.104412 152.299356 
L 388.796657 194.086364 
M 390.179932 192.198446 
L 390.872169 172.684881 
L 392.256643 178.55623 
L 393.640972 186.746756 
L 394.333209 179.001765 
L 395.025447 178.811736 
L 395.717867 178.448604 
L 396.410104 175.12236 
L 396.410104 175.12236 
" style="fill:none;stroke:#ff0000;stroke-linecap:square;"/>
   </g>
   <g id="line2d_98">
    <path clip-path="url(#p33772dc35d)" d="M 73.832727 180.990597 
L 74.524971 180.431473 
L 75.217208 186.032409 
L 75.90628 178.205795 
L 76.598517 179.917423 
L 77.290754 180.229005 
L 77.982991 175.608854 
L 79.367337 187.594683 
L 80.059581 184.515503 
L 80.751818 174.256275 
L 81.446481 176.485415 
L 82.138725 179.268393 
L 82.830962 173.508058 
L 83.523199 176.39946 
L 84.216653 175.037343 
L 84.908883 176.528584 
L 85.601147 176.740146 
L 86.293364 174.669865 
L 86.985656 178.194293 
L 87.675135 180.644374 
L 88.367373 175.985494 
L 89.05961 169.814593 
L 89.751847 178.583638 
L 90.441987 182.475079 
L 91.13423 176.980127 
L 91.826467 169.193485 
L 92.518705 174.089585 
L 93.209773 172.597241 
L 93.902011 172.098768 
L 94.594254 187.904133 
L 95.286491 195.056422 
L 95.979336 188.7726 
L 96.671581 188.085804 
L 97.363819 188.638618 
L 98.056056 185.976907 
L 98.749362 171.776561 
L 99.44205 166.069803 
L 100.826074 147.622291 
L 101.516997 147.612448 
L 102.209241 158.755647 
L 102.901478 164.321887 
L 104.284797 178.731948 
L 104.977035 174.27015 
L 105.669272 173.640397 
L 106.361509 190.098371 
L 107.05535 193.820551 
L 107.747587 194.044922 
L 108.439825 182.451736 
L 109.132062 177.517357 
L 109.824962 166.375325 
L 110.517208 162.016546 
L 111.209437 152.05167 
L 111.901674 145.811034 
L 112.593675 153.746456 
L 113.285912 171.510614 
L 114.670387 179.002665 
L 115.361972 186.769228 
L 116.054209 182.780755 
L 116.746446 176.588668 
L 117.438683 172.832315 
L 118.130907 177.70104 
L 118.823151 173.973213 
L 119.515395 160.914581 
L 120.207625 154.513181 
L 120.899869 154.402823 
L 121.594579 162.216935 
L 122.286816 182.406016 
L 122.97906 193.137486 
L 123.67129 196.222751 
L 124.363909 207.800407 
L 125.748383 193.895771 
L 126.44062 193.567185 
L 127.129632 181.713413 
L 127.82187 173.794225 
L 128.514107 174.98753 
L 129.206344 165.99965 
L 129.89967 162.490051 
L 130.591908 160.602997 
L 131.284145 152.338 
L 131.976389 166.755967 
L 132.670814 178.472692 
L 133.363058 183.696247 
L 134.055295 191.886744 
L 134.747532 195.410622 
L 135.437802 192.224741 
L 136.130039 187.781084 
L 136.822277 190.208186 
L 137.514514 189.095267 
L 138.204709 178.472365 
L 138.896947 179.595784 
L 139.589184 187.843017 
L 140.281421 186.050466 
L 140.976101 171.334119 
L 141.668336 166.579751 
L 142.360573 163.553161 
L 143.05281 156.982524 
L 143.744756 169.122369 
L 144.436993 183.473106 
L 145.129236 187.923158 
L 145.821474 188.082892 
L 146.511257 189.963155 
L 147.203494 192.706394 
L 147.895731 186.549364 
L 148.588378 184.692537 
L 149.281455 181.56593 
L 149.973692 186.703357 
L 150.665929 189.535351 
L 151.358166 184.240177 
L 152.05041 177.650154 
L 152.743731 167.347509 
L 153.435969 158.789404 
L 154.128206 158.628939 
L 154.820443 164.813944 
L 155.510224 169.32829 
L 156.20247 171.640291 
L 156.894699 177.19067 
L 157.586944 177.08451 
L 158.279343 174.78594 
L 158.97158 173.916915 
L 159.663852 169.542919 
L 160.356055 174.151652 
L 161.051271 176.890225 
L 161.743508 173.818578 
L 162.435745 168.604424 
L 163.127989 184.047389 
L 163.818557 187.428921 
L 164.510795 186.311058 
L 165.203032 188.768834 
L 165.895269 186.885073 
L 166.586145 178.872817 
L 167.278382 187.864729 
L 167.970626 191.678602 
L 168.662863 183.566778 
L 169.356457 178.860107 
L 170.048694 191.658785 
L 170.740931 196.369225 
L 171.433168 180.980796 
L 172.125831 178.177529 
L 172.818048 164.4091 
L 173.510286 160.202646 
L 174.202529 159.971984 
L 174.892987 168.950285 
L 175.585225 169.341543 
L 176.277462 173.784016 
L 176.969699 164.156703 
L 177.662487 164.369937 
L 178.354724 173.2792 
L 179.046962 168.704758 
L 179.739205 177.233583 
L 180.434067 180.097204 
L 181.126297 163.085255 
L 181.818534 164.423542 
L 182.510778 176.275126 
L 183.200632 175.663993 
L 183.892876 190.384681 
L 184.585113 191.595438 
L 185.2776 186.011569 
L 185.969588 195.83442 
L 186.661455 190.338896 
L 187.353692 189.362296 
L 188.045929 191.827176 
L 188.738167 198.307081 
M 191.509762 157.035966 
L 192.199235 172.074514 
L 192.891481 177.040433 
L 193.583718 178.966665 
L 194.275953 178.598059 
L 194.967935 163.847 
L 195.660172 164.639726 
L 196.352409 170.489773 
L 197.044646 163.948425 
L 198.431154 157.621892 
L 199.123391 157.332822 
L 199.815628 178.014936 
L 200.508823 192.805643 
L 201.20106 195.880035 
L 201.893304 195.847795 
L 202.585541 193.009884 
L 203.275538 195.318999 
L 203.967776 195.620742 
L 204.660013 193.331932 
L 205.35225 173.272715 
L 206.044672 168.704606 
L 206.736909 176.134511 
L 207.429146 169.89839 
L 208.121383 168.85526 
L 208.815873 171.310104 
L 209.50811 170.692878 
L 210.892585 191.189378 
L 211.583861 198.473233 
L 212.276099 194.60811 
L 212.968342 187.294532 
L 213.66058 183.379467 
L 214.351919 186.104397 
L 215.044156 181.001384 
L 215.736393 192.873296 
L 216.428631 197.72605 
L 220.58497 146.415027 
L 222.661681 163.75375 
L 223.354881 165.448606 
L 224.047124 167.821143 
L 224.739362 171.154058 
L 225.431599 179.796893 
L 226.123329 174.768517 
L 226.815566 177.161921 
L 227.507804 180.790106 
L 228.200041 187.967417 
L 228.892598 188.691137 
L 229.584835 184.75578 
L 230.96931 171.543708 
L 231.661953 166.404804 
L 232.35419 167.222272 
L 233.046427 171.903858 
L 234.434318 178.924496 
L 235.126562 168.791891 
L 235.818799 163.10577 
L 236.511036 162.509735 
L 237.205725 168.54752 
L 237.897963 177.216592 
L 238.5902 177.870308 
L 239.282437 173.061793 
L 239.966295 183.921573 
L 240.658539 196.721058 
L 241.350776 182.903727 
L 242.043013 178.93549 
L 242.735331 180.153604 
L 243.427569 171.856851 
L 244.812043 163.176791 
L 245.504977 162.613585 
L 246.197214 172.03269 
L 246.889449 174.896874 
L 247.581686 178.406997 
L 248.274878 175.698423 
L 248.967115 182.317295 
L 249.659352 186.079761 
L 250.351589 191.863739 
L 251.043826 194.372166 
L 251.736771 199.03377 
L 253.121246 186.407669 
L 253.81349 184.307224 
L 254.500718 177.748495 
L 255.192947 174.370953 
L 255.885192 182.681226 
L 256.577429 184.24778 
L 257.269926 174.043765 
L 257.962163 171.242344 
L 258.6544 161.626818 
L 259.346637 162.188905 
L 260.040695 170.259255 
L 260.732932 175.16073 
L 261.425169 170.147762 
L 262.117406 172.426686 
L 262.80931 170.634432 
L 263.501547 170.319996 
L 264.193784 175.199889 
L 264.886021 176.59203 
L 265.576308 163.635184 
L 266.268553 165.005381 
L 266.960791 145.643447 
L 267.653028 143.308568 
L 268.344813 155.662511 
L 269.03705 183.330945 
L 269.729287 238.252606 
L 270.421524 262.799651 
M 271.808522 271.378796 
L 272.500759 259.026248 
L 273.192996 256.954722 
L 273.886626 243.216961 
L 274.578864 206.510234 
M 279.422083 112.429009 
L 280.11432 137.880492 
L 280.806557 207.199117 
M 282.885262 288.703061 
L 283.576905 276.056569 
L 284.269143 265.51441 
M 291.190092 132.213257 
L 291.882329 206.113718 
L 292.574566 267.142165 
M 296.037925 267.592461 
L 296.728311 207.895777 
L 297.420548 137.534526 
L 298.112785 97.69551 
L 298.805022 82.61928 
L 299.500625 85.151936 
L 300.192862 106.642268 
M 305.72952 234.807102 
L 306.421757 208.284082 
L 307.114493 171.625859 
L 307.804746 127.339691 
L 308.496983 92.86898 
L 309.18922 80.206763 
L 309.881458 86.581432 
M 314.727973 246.315953 
L 315.42021 215.177355 
L 316.112447 178.427073 
L 317.496096 118.84877 
L 318.188333 103.020799 
L 318.880571 107.631197 
L 319.576584 115.345228 
L 320.961058 175.265249 
L 321.653295 198.217751 
L 322.342377 215.772463 
L 323.034614 226.856673 
L 323.726858 235.972396 
L 324.419095 234.589064 
L 325.112821 224.244319 
L 326.497302 179.274283 
M 327.884744 122.906362 
L 328.576974 116.921107 
L 329.269218 114.934368 
L 329.961455 136.995546 
L 330.653469 174.685672 
L 332.037944 225.907152 
L 332.730181 235.084531 
L 333.422638 231.600112 
L 334.114875 246.480588 
L 334.807119 227.329271 
M 337.575094 81.566086 
L 338.267337 94.400846 
L 340.343899 212.537292 
L 341.036136 241.583834 
L 341.726718 242.385133 
L 342.418955 231.67346 
L 343.111192 218.631912 
L 343.803429 194.448286 
L 345.18517 127.902359 
L 345.877414 105.922917 
L 346.569651 93.126903 
M 347.953989 135.395929 
L 348.646226 180.63591 
M 351.414505 254.345685 
L 352.106742 233.597555 
L 353.491776 178.434587 
L 354.184019 139.479975 
L 354.87625 84.383154 
L 355.569124 67.224155 
L 356.955416 83.552203 
L 357.647653 97.860394 
L 358.33989 134.493118 
L 359.721951 260.025494 
M 361.106426 295.488 
L 362.491511 264.862565 
L 363.183748 239.112488 
L 364.568397 116.070971 
L 365.260626 89.05933 
M 366.6451 88.996749 
L 367.338052 95.612294 
L 368.030296 116.406634 
L 368.722533 147.834427 
L 369.41477 200.856615 
L 370.107983 244.34922 
L 370.80022 269.056215 
L 371.492457 274.604123 
L 372.877912 251.846819 
L 373.570157 228.305194 
L 374.262395 185.04653 
L 374.95463 127.953768 
M 376.34006 97.065208 
L 377.032291 99.266875 
L 377.724534 95.728687 
M 380.492239 276.454911 
L 381.184476 276.446109 
L 382.568336 250.561672 
L 383.260573 220.664911 
L 383.952811 161.518745 
L 384.644637 124.043255 
L 385.336874 105.740277 
L 386.029111 93.689714 
L 386.721348 102.186492 
L 387.412183 121.227095 
L 388.104412 147.682428 
L 388.796657 190.895694 
M 390.179932 193.4806 
L 390.872169 175.670916 
L 391.564426 174.574337 
L 392.256643 179.109912 
L 392.948735 182.696512 
L 393.640972 185.615791 
L 394.333209 180.006056 
L 395.025447 178.589004 
L 395.717867 179.735486 
L 396.410104 174.899941 
L 396.410104 174.899941 
" style="fill:none;stroke:#0000ff;stroke-linecap:square;"/>
   </g>
   <g id="line2d_99">
    <path clip-path="url(#p33772dc35d)" d="M 276.655785 53.568 
L 277.348022 60.597969 
M 281.498794 262.24254 
L 282.192431 284.011465 
M 286.344534 138.738284 
L 287.036771 93.723712 
L 287.729008 75.834883 
L 288.421904 63.470465 
L 289.114148 58.42495 
L 289.806385 70.417488 
L 290.498622 85.214034 
M 294.653451 290.424667 
L 295.345682 285.202065 
M 300.885099 110.832165 
L 301.577343 132.666572 
L 302.959621 195.048281 
M 304.344095 254.180159 
L 305.037283 258.969745 
M 310.575802 133.156845 
L 311.960277 216.095034 
L 312.65252 241.60348 
L 313.343492 256.440722 
L 314.035729 266.07314 
M 335.499356 200.219928 
L 336.882856 99.824216 
M 349.338463 233.588209 
L 350.0307 255.263507 
L 350.722267 257.511455 
M 397.102341 172.990624 
L 397.794578 173.689117 
L 398.487273 176.355879 
L 398.487273 176.355879 
" style="fill:none;stroke:#008000;stroke-linecap:square;"/>
   </g>
   <g id="patch_3">
    <path d="M 57.6 307.584 
L 57.6 41.472 
" style="fill:none;stroke:#000000;stroke-linecap:square;stroke-linejoin:miter;stroke-width:0.8;"/>
   </g>
   <g id="patch_4">
    <path d="M 414.72 307.584 
L 414.72 41.472 
" style="fill:none;stroke:#000000;stroke-linecap:square;stroke-linejoin:miter;stroke-width:0.8;"/>
   </g>
   <g id="patch_5">
    <path d="M 57.6 307.584 
L 414.72 307.584 
" style="fill:none;stroke:#000000;stroke-linecap:square;stroke-linejoin:miter;stroke-width:0.8;"/>
   </g>
   <g id="patch_6">
    <path d="M 57.6 41.472 
L 414.72 41.472 
" style="fill:none;stroke:#000000;stroke-linecap:square;stroke-linejoin:miter;stroke-width:0.8;"/>
   </g>
   <g id="text_13">
    <!-- Rel Gt Rot Z Plot -->
    <defs>
     <path d="M 44.390625 34.1875 
Q 47.5625 33.109375 50.5625 29.59375 
Q 53.5625 26.078125 56.59375 19.921875 
L 66.609375 0 
L 56 0 
L 46.6875 18.703125 
Q 43.0625 26.03125 39.671875 28.421875 
Q 36.28125 30.8125 30.421875 30.8125 
L 19.671875 30.8125 
L 19.671875 0 
L 9.8125 0 
L 9.8125 72.90625 
L 32.078125 72.90625 
Q 44.578125 72.90625 50.734375 67.671875 
Q 56.890625 62.453125 56.890625 51.90625 
Q 56.890625 45.015625 53.6875 40.46875 
Q 50.484375 35.9375 44.390625 34.1875 
z
M 19.671875 64.796875 
L 19.671875 38.921875 
L 32.078125 38.921875 
Q 39.203125 38.921875 42.84375 42.21875 
Q 46.484375 45.515625 46.484375 51.90625 
Q 46.484375 58.296875 42.84375 61.546875 
Q 39.203125 64.796875 32.078125 64.796875 
z
" id="DejaVuSans-52"/>
     <path d="M 9.421875 75.984375 
L 18.40625 75.984375 
L 18.40625 0 
L 9.421875 0 
z
" id="DejaVuSans-6c"/>
     <path d="M 59.515625 10.40625 
L 59.515625 29.984375 
L 43.40625 29.984375 
L 43.40625 38.09375 
L 69.28125 38.09375 
L 69.28125 6.78125 
Q 63.578125 2.734375 56.6875 0.65625 
Q 49.8125 -1.421875 42 -1.421875 
Q 24.90625 -1.421875 15.25 8.5625 
Q 5.609375 18.5625 5.609375 36.375 
Q 5.609375 54.25 15.25 64.234375 
Q 24.90625 74.21875 42 74.21875 
Q 49.125 74.21875 55.546875 72.453125 
Q 61.96875 70.703125 67.390625 67.28125 
L 67.390625 56.78125 
Q 61.921875 61.421875 55.765625 63.765625 
Q 49.609375 66.109375 42.828125 66.109375 
Q 29.4375 66.109375 22.71875 58.640625 
Q 16.015625 51.171875 16.015625 36.375 
Q 16.015625 21.625 22.71875 14.15625 
Q 29.4375 6.6875 42.828125 6.6875 
Q 48.046875 6.6875 52.140625 7.59375 
Q 56.25 8.5 59.515625 10.40625 
z
" id="DejaVuSans-47"/>
     <path d="M 5.609375 72.90625 
L 62.890625 72.90625 
L 62.890625 65.375 
L 16.796875 8.296875 
L 64.015625 8.296875 
L 64.015625 0 
L 4.5 0 
L 4.5 7.515625 
L 50.59375 64.59375 
L 5.609375 64.59375 
z
" id="DejaVuSans-5a"/>
     <path d="M 19.671875 64.796875 
L 19.671875 37.40625 
L 32.078125 37.40625 
Q 38.96875 37.40625 42.71875 40.96875 
Q 46.484375 44.53125 46.484375 51.125 
Q 46.484375 57.671875 42.71875 61.234375 
Q 38.96875 64.796875 32.078125 64.796875 
z
M 9.8125 72.90625 
L 32.078125 72.90625 
Q 44.34375 72.90625 50.609375 67.359375 
Q 56.890625 61.8125 56.890625 51.125 
Q 56.890625 40.328125 50.609375 34.8125 
Q 44.34375 29.296875 32.078125 29.296875 
L 19.671875 29.296875 
L 19.671875 0 
L 9.8125 0 
z
" id="DejaVuSans-50"/>
    </defs>
    <g transform="translate(186.400312 35.472)scale(0.12 -0.12)">
     <use xlink:href="#DejaVuSans-52"/>
     <use x="69.419922" xlink:href="#DejaVuSans-65"/>
     <use x="130.943359" xlink:href="#DejaVuSans-6c"/>
     <use x="158.726562" xlink:href="#DejaVuSans-20"/>
     <use x="190.513672" xlink:href="#DejaVuSans-47"/>
     <use x="268.003906" xlink:href="#DejaVuSans-74"/>
     <use x="307.212891" xlink:href="#DejaVuSans-20"/>
     <use x="339" xlink:href="#DejaVuSans-52"/>
     <use x="408.419922" xlink:href="#DejaVuSans-6f"/>
     <use x="469.601562" xlink:href="#DejaVuSans-74"/>
     <use x="508.810547" xlink:href="#DejaVuSans-20"/>
     <use x="540.597656" xlink:href="#DejaVuSans-5a"/>
     <use x="609.103516" xlink:href="#DejaVuSans-20"/>
     <use x="640.890625" xlink:href="#DejaVuSans-50"/>
     <use x="701.193359" xlink:href="#DejaVuSans-6c"/>
     <use x="728.976562" xlink:href="#DejaVuSans-6f"/>
     <use x="790.158203" xlink:href="#DejaVuSans-74"/>
    </g>
   </g>
  </g>
 </g>
 <defs>
  <clipPath id="p33772dc35d">
   <rect height="266.112" width="357.12" x="57.6" y="41.472"/>
  </clipPath>
 </defs>
</svg>
