<?xml version="1.0" encoding="utf-8" standalone="no"?>
<!DOCTYPE svg PUBLIC "-//W3C//DTD SVG 1.1//EN"
  "http://www.w3.org/Graphics/SVG/1.1/DTD/svg11.dtd">
<!-- Created with matplotlib (http://matplotlib.org/) -->
<svg height="345.6pt" version="1.1" viewBox="0 0 460.8 345.6" width="460.8pt" xmlns="http://www.w3.org/2000/svg" xmlns:xlink="http://www.w3.org/1999/xlink">
 <defs>
  <style type="text/css">
*{stroke-linecap:butt;stroke-linejoin:round;}
  </style>
 </defs>
 <g id="figure_1">
  <g id="patch_1">
   <path d="M 0 345.6 
L 460.8 345.6 
L 460.8 0 
L 0 0 
z
" style="fill:#ffffff;"/>
  </g>
  <g id="axes_1">
   <g id="patch_2">
    <path d="M 57.6 307.584 
L 414.72 307.584 
L 414.72 41.472 
L 57.6 41.472 
z
" style="fill:#ffffff;"/>
   </g>
   <g id="matplotlib.axis_1">
    <g id="xtick_1">
     <g id="line2d_1">
      <path clip-path="url(#p7bdf22e8ec)" d="M 70.555248 307.584 
L 70.555248 41.472 
" style="fill:none;stroke:#b0b0b0;stroke-linecap:square;stroke-width:0.8;"/>
     </g>
     <g id="line2d_2">
      <defs>
       <path d="M 0 0 
L 0 3.5 
" id="m46ba080d9b" style="stroke:#000000;stroke-width:0.8;"/>
      </defs>
      <g>
       <use style="stroke:#000000;stroke-width:0.8;" x="70.555248" xlink:href="#m46ba080d9b" y="307.584"/>
      </g>
     </g>
     <g id="text_1">
      <!-- 0 -->
      <defs>
       <path d="M 31.78125 66.40625 
Q 24.171875 66.40625 20.328125 58.90625 
Q 16.5 51.421875 16.5 36.375 
Q 16.5 21.390625 20.328125 13.890625 
Q 24.171875 6.390625 31.78125 6.390625 
Q 39.453125 6.390625 43.28125 13.890625 
Q 47.125 21.390625 47.125 36.375 
Q 47.125 51.421875 43.28125 58.90625 
Q 39.453125 66.40625 31.78125 66.40625 
z
M 31.78125 74.21875 
Q 44.046875 74.21875 50.515625 64.515625 
Q 56.984375 54.828125 56.984375 36.375 
Q 56.984375 17.96875 50.515625 8.265625 
Q 44.046875 -1.421875 31.78125 -1.421875 
Q 19.53125 -1.421875 13.0625 8.265625 
Q 6.59375 17.96875 6.59375 36.375 
Q 6.59375 54.828125 13.0625 64.515625 
Q 19.53125 74.21875 31.78125 74.21875 
z
" id="DejaVuSans-30"/>
      </defs>
      <g transform="translate(67.373998 322.182437)scale(0.1 -0.1)">
       <use xlink:href="#DejaVuSans-30"/>
      </g>
     </g>
    </g>
    <g id="xtick_2">
     <g id="line2d_3">
      <path clip-path="url(#p7bdf22e8ec)" d="M 139.776886 307.584 
L 139.776886 41.472 
" style="fill:none;stroke:#b0b0b0;stroke-linecap:square;stroke-width:0.8;"/>
     </g>
     <g id="line2d_4">
      <g>
       <use style="stroke:#000000;stroke-width:0.8;" x="139.776886" xlink:href="#m46ba080d9b" y="307.584"/>
      </g>
     </g>
     <g id="text_2">
      <!-- 10 -->
      <defs>
       <path d="M 12.40625 8.296875 
L 28.515625 8.296875 
L 28.515625 63.921875 
L 10.984375 60.40625 
L 10.984375 69.390625 
L 28.421875 72.90625 
L 38.28125 72.90625 
L 38.28125 8.296875 
L 54.390625 8.296875 
L 54.390625 0 
L 12.40625 0 
z
" id="DejaVuSans-31"/>
      </defs>
      <g transform="translate(133.414386 322.182437)scale(0.1 -0.1)">
       <use xlink:href="#DejaVuSans-31"/>
       <use x="63.623047" xlink:href="#DejaVuSans-30"/>
      </g>
     </g>
    </g>
    <g id="xtick_3">
     <g id="line2d_5">
      <path clip-path="url(#p7bdf22e8ec)" d="M 208.998523 307.584 
L 208.998523 41.472 
" style="fill:none;stroke:#b0b0b0;stroke-linecap:square;stroke-width:0.8;"/>
     </g>
     <g id="line2d_6">
      <g>
       <use style="stroke:#000000;stroke-width:0.8;" x="208.998523" xlink:href="#m46ba080d9b" y="307.584"/>
      </g>
     </g>
     <g id="text_3">
      <!-- 20 -->
      <defs>
       <path d="M 19.1875 8.296875 
L 53.609375 8.296875 
L 53.609375 0 
L 7.328125 0 
L 7.328125 8.296875 
Q 12.9375 14.109375 22.625 23.890625 
Q 32.328125 33.6875 34.8125 36.53125 
Q 39.546875 41.84375 41.421875 45.53125 
Q 43.3125 49.21875 43.3125 52.78125 
Q 43.3125 58.59375 39.234375 62.25 
Q 35.15625 65.921875 28.609375 65.921875 
Q 23.96875 65.921875 18.8125 64.3125 
Q 13.671875 62.703125 7.8125 59.421875 
L 7.8125 69.390625 
Q 13.765625 71.78125 18.9375 73 
Q 24.125 74.21875 28.421875 74.21875 
Q 39.75 74.21875 46.484375 68.546875 
Q 53.21875 62.890625 53.21875 53.421875 
Q 53.21875 48.921875 51.53125 44.890625 
Q 49.859375 40.875 45.40625 35.40625 
Q 44.1875 33.984375 37.640625 27.21875 
Q 31.109375 20.453125 19.1875 8.296875 
z
" id="DejaVuSans-32"/>
      </defs>
      <g transform="translate(202.636023 322.182437)scale(0.1 -0.1)">
       <use xlink:href="#DejaVuSans-32"/>
       <use x="63.623047" xlink:href="#DejaVuSans-30"/>
      </g>
     </g>
    </g>
    <g id="xtick_4">
     <g id="line2d_7">
      <path clip-path="url(#p7bdf22e8ec)" d="M 278.220161 307.584 
L 278.220161 41.472 
" style="fill:none;stroke:#b0b0b0;stroke-linecap:square;stroke-width:0.8;"/>
     </g>
     <g id="line2d_8">
      <g>
       <use style="stroke:#000000;stroke-width:0.8;" x="278.220161" xlink:href="#m46ba080d9b" y="307.584"/>
      </g>
     </g>
     <g id="text_4">
      <!-- 30 -->
      <defs>
       <path d="M 40.578125 39.3125 
Q 47.65625 37.796875 51.625 33 
Q 55.609375 28.21875 55.609375 21.1875 
Q 55.609375 10.40625 48.1875 4.484375 
Q 40.765625 -1.421875 27.09375 -1.421875 
Q 22.515625 -1.421875 17.65625 -0.515625 
Q 12.796875 0.390625 7.625 2.203125 
L 7.625 11.71875 
Q 11.71875 9.328125 16.59375 8.109375 
Q 21.484375 6.890625 26.8125 6.890625 
Q 36.078125 6.890625 40.9375 10.546875 
Q 45.796875 14.203125 45.796875 21.1875 
Q 45.796875 27.640625 41.28125 31.265625 
Q 36.765625 34.90625 28.71875 34.90625 
L 20.21875 34.90625 
L 20.21875 43.015625 
L 29.109375 43.015625 
Q 36.375 43.015625 40.234375 45.921875 
Q 44.09375 48.828125 44.09375 54.296875 
Q 44.09375 59.90625 40.109375 62.90625 
Q 36.140625 65.921875 28.71875 65.921875 
Q 24.65625 65.921875 20.015625 65.03125 
Q 15.375 64.15625 9.8125 62.3125 
L 9.8125 71.09375 
Q 15.4375 72.65625 20.34375 73.4375 
Q 25.25 74.21875 29.59375 74.21875 
Q 40.828125 74.21875 47.359375 69.109375 
Q 53.90625 64.015625 53.90625 55.328125 
Q 53.90625 49.265625 50.4375 45.09375 
Q 46.96875 40.921875 40.578125 39.3125 
z
" id="DejaVuSans-33"/>
      </defs>
      <g transform="translate(271.857661 322.182437)scale(0.1 -0.1)">
       <use xlink:href="#DejaVuSans-33"/>
       <use x="63.623047" xlink:href="#DejaVuSans-30"/>
      </g>
     </g>
    </g>
    <g id="xtick_5">
     <g id="line2d_9">
      <path clip-path="url(#p7bdf22e8ec)" d="M 347.441799 307.584 
L 347.441799 41.472 
" style="fill:none;stroke:#b0b0b0;stroke-linecap:square;stroke-width:0.8;"/>
     </g>
     <g id="line2d_10">
      <g>
       <use style="stroke:#000000;stroke-width:0.8;" x="347.441799" xlink:href="#m46ba080d9b" y="307.584"/>
      </g>
     </g>
     <g id="text_5">
      <!-- 40 -->
      <defs>
       <path d="M 37.796875 64.3125 
L 12.890625 25.390625 
L 37.796875 25.390625 
z
M 35.203125 72.90625 
L 47.609375 72.90625 
L 47.609375 25.390625 
L 58.015625 25.390625 
L 58.015625 17.1875 
L 47.609375 17.1875 
L 47.609375 0 
L 37.796875 0 
L 37.796875 17.1875 
L 4.890625 17.1875 
L 4.890625 26.703125 
z
" id="DejaVuSans-34"/>
      </defs>
      <g transform="translate(341.079299 322.182437)scale(0.1 -0.1)">
       <use xlink:href="#DejaVuSans-34"/>
       <use x="63.623047" xlink:href="#DejaVuSans-30"/>
      </g>
     </g>
    </g>
    <g id="xtick_6">
     <g id="line2d_11">
      <path clip-path="url(#p7bdf22e8ec)" d="M 84.399575 307.584 
L 84.399575 41.472 
" style="fill:none;stroke:#b0b0b0;stroke-linecap:square;stroke-width:0.8;"/>
     </g>
     <g id="line2d_12">
      <defs>
       <path d="M 0 0 
L 0 2 
" id="maa1b798a04" style="stroke:#000000;stroke-width:0.6;"/>
      </defs>
      <g>
       <use style="stroke:#000000;stroke-width:0.6;" x="84.399575" xlink:href="#maa1b798a04" y="307.584"/>
      </g>
     </g>
    </g>
    <g id="xtick_7">
     <g id="line2d_13">
      <path clip-path="url(#p7bdf22e8ec)" d="M 98.243903 307.584 
L 98.243903 41.472 
" style="fill:none;stroke:#b0b0b0;stroke-linecap:square;stroke-width:0.8;"/>
     </g>
     <g id="line2d_14">
      <g>
       <use style="stroke:#000000;stroke-width:0.6;" x="98.243903" xlink:href="#maa1b798a04" y="307.584"/>
      </g>
     </g>
    </g>
    <g id="xtick_8">
     <g id="line2d_15">
      <path clip-path="url(#p7bdf22e8ec)" d="M 112.08823 307.584 
L 112.08823 41.472 
" style="fill:none;stroke:#b0b0b0;stroke-linecap:square;stroke-width:0.8;"/>
     </g>
     <g id="line2d_16">
      <g>
       <use style="stroke:#000000;stroke-width:0.6;" x="112.08823" xlink:href="#maa1b798a04" y="307.584"/>
      </g>
     </g>
    </g>
    <g id="xtick_9">
     <g id="line2d_17">
      <path clip-path="url(#p7bdf22e8ec)" d="M 125.932558 307.584 
L 125.932558 41.472 
" style="fill:none;stroke:#b0b0b0;stroke-linecap:square;stroke-width:0.8;"/>
     </g>
     <g id="line2d_18">
      <g>
       <use style="stroke:#000000;stroke-width:0.6;" x="125.932558" xlink:href="#maa1b798a04" y="307.584"/>
      </g>
     </g>
    </g>
    <g id="xtick_10">
     <g id="line2d_19">
      <path clip-path="url(#p7bdf22e8ec)" d="M 153.621213 307.584 
L 153.621213 41.472 
" style="fill:none;stroke:#b0b0b0;stroke-linecap:square;stroke-width:0.8;"/>
     </g>
     <g id="line2d_20">
      <g>
       <use style="stroke:#000000;stroke-width:0.6;" x="153.621213" xlink:href="#maa1b798a04" y="307.584"/>
      </g>
     </g>
    </g>
    <g id="xtick_11">
     <g id="line2d_21">
      <path clip-path="url(#p7bdf22e8ec)" d="M 167.465541 307.584 
L 167.465541 41.472 
" style="fill:none;stroke:#b0b0b0;stroke-linecap:square;stroke-width:0.8;"/>
     </g>
     <g id="line2d_22">
      <g>
       <use style="stroke:#000000;stroke-width:0.6;" x="167.465541" xlink:href="#maa1b798a04" y="307.584"/>
      </g>
     </g>
    </g>
    <g id="xtick_12">
     <g id="line2d_23">
      <path clip-path="url(#p7bdf22e8ec)" d="M 181.309868 307.584 
L 181.309868 41.472 
" style="fill:none;stroke:#b0b0b0;stroke-linecap:square;stroke-width:0.8;"/>
     </g>
     <g id="line2d_24">
      <g>
       <use style="stroke:#000000;stroke-width:0.6;" x="181.309868" xlink:href="#maa1b798a04" y="307.584"/>
      </g>
     </g>
    </g>
    <g id="xtick_13">
     <g id="line2d_25">
      <path clip-path="url(#p7bdf22e8ec)" d="M 195.154196 307.584 
L 195.154196 41.472 
" style="fill:none;stroke:#b0b0b0;stroke-linecap:square;stroke-width:0.8;"/>
     </g>
     <g id="line2d_26">
      <g>
       <use style="stroke:#000000;stroke-width:0.6;" x="195.154196" xlink:href="#maa1b798a04" y="307.584"/>
      </g>
     </g>
    </g>
    <g id="xtick_14">
     <g id="line2d_27">
      <path clip-path="url(#p7bdf22e8ec)" d="M 222.842851 307.584 
L 222.842851 41.472 
" style="fill:none;stroke:#b0b0b0;stroke-linecap:square;stroke-width:0.8;"/>
     </g>
     <g id="line2d_28">
      <g>
       <use style="stroke:#000000;stroke-width:0.6;" x="222.842851" xlink:href="#maa1b798a04" y="307.584"/>
      </g>
     </g>
    </g>
    <g id="xtick_15">
     <g id="line2d_29">
      <path clip-path="url(#p7bdf22e8ec)" d="M 236.687178 307.584 
L 236.687178 41.472 
" style="fill:none;stroke:#b0b0b0;stroke-linecap:square;stroke-width:0.8;"/>
     </g>
     <g id="line2d_30">
      <g>
       <use style="stroke:#000000;stroke-width:0.6;" x="236.687178" xlink:href="#maa1b798a04" y="307.584"/>
      </g>
     </g>
    </g>
    <g id="xtick_16">
     <g id="line2d_31">
      <path clip-path="url(#p7bdf22e8ec)" d="M 250.531506 307.584 
L 250.531506 41.472 
" style="fill:none;stroke:#b0b0b0;stroke-linecap:square;stroke-width:0.8;"/>
     </g>
     <g id="line2d_32">
      <g>
       <use style="stroke:#000000;stroke-width:0.6;" x="250.531506" xlink:href="#maa1b798a04" y="307.584"/>
      </g>
     </g>
    </g>
    <g id="xtick_17">
     <g id="line2d_33">
      <path clip-path="url(#p7bdf22e8ec)" d="M 264.375834 307.584 
L 264.375834 41.472 
" style="fill:none;stroke:#b0b0b0;stroke-linecap:square;stroke-width:0.8;"/>
     </g>
     <g id="line2d_34">
      <g>
       <use style="stroke:#000000;stroke-width:0.6;" x="264.375834" xlink:href="#maa1b798a04" y="307.584"/>
      </g>
     </g>
    </g>
    <g id="xtick_18">
     <g id="line2d_35">
      <path clip-path="url(#p7bdf22e8ec)" d="M 292.064489 307.584 
L 292.064489 41.472 
" style="fill:none;stroke:#b0b0b0;stroke-linecap:square;stroke-width:0.8;"/>
     </g>
     <g id="line2d_36">
      <g>
       <use style="stroke:#000000;stroke-width:0.6;" x="292.064489" xlink:href="#maa1b798a04" y="307.584"/>
      </g>
     </g>
    </g>
    <g id="xtick_19">
     <g id="line2d_37">
      <path clip-path="url(#p7bdf22e8ec)" d="M 305.908816 307.584 
L 305.908816 41.472 
" style="fill:none;stroke:#b0b0b0;stroke-linecap:square;stroke-width:0.8;"/>
     </g>
     <g id="line2d_38">
      <g>
       <use style="stroke:#000000;stroke-width:0.6;" x="305.908816" xlink:href="#maa1b798a04" y="307.584"/>
      </g>
     </g>
    </g>
    <g id="xtick_20">
     <g id="line2d_39">
      <path clip-path="url(#p7bdf22e8ec)" d="M 319.753144 307.584 
L 319.753144 41.472 
" style="fill:none;stroke:#b0b0b0;stroke-linecap:square;stroke-width:0.8;"/>
     </g>
     <g id="line2d_40">
      <g>
       <use style="stroke:#000000;stroke-width:0.6;" x="319.753144" xlink:href="#maa1b798a04" y="307.584"/>
      </g>
     </g>
    </g>
    <g id="xtick_21">
     <g id="line2d_41">
      <path clip-path="url(#p7bdf22e8ec)" d="M 333.597471 307.584 
L 333.597471 41.472 
" style="fill:none;stroke:#b0b0b0;stroke-linecap:square;stroke-width:0.8;"/>
     </g>
     <g id="line2d_42">
      <g>
       <use style="stroke:#000000;stroke-width:0.6;" x="333.597471" xlink:href="#maa1b798a04" y="307.584"/>
      </g>
     </g>
    </g>
    <g id="xtick_22">
     <g id="line2d_43">
      <path clip-path="url(#p7bdf22e8ec)" d="M 361.286127 307.584 
L 361.286127 41.472 
" style="fill:none;stroke:#b0b0b0;stroke-linecap:square;stroke-width:0.8;"/>
     </g>
     <g id="line2d_44">
      <g>
       <use style="stroke:#000000;stroke-width:0.6;" x="361.286127" xlink:href="#maa1b798a04" y="307.584"/>
      </g>
     </g>
    </g>
    <g id="xtick_23">
     <g id="line2d_45">
      <path clip-path="url(#p7bdf22e8ec)" d="M 375.130454 307.584 
L 375.130454 41.472 
" style="fill:none;stroke:#b0b0b0;stroke-linecap:square;stroke-width:0.8;"/>
     </g>
     <g id="line2d_46">
      <g>
       <use style="stroke:#000000;stroke-width:0.6;" x="375.130454" xlink:href="#maa1b798a04" y="307.584"/>
      </g>
     </g>
    </g>
    <g id="xtick_24">
     <g id="line2d_47">
      <path clip-path="url(#p7bdf22e8ec)" d="M 388.974782 307.584 
L 388.974782 41.472 
" style="fill:none;stroke:#b0b0b0;stroke-linecap:square;stroke-width:0.8;"/>
     </g>
     <g id="line2d_48">
      <g>
       <use style="stroke:#000000;stroke-width:0.6;" x="388.974782" xlink:href="#maa1b798a04" y="307.584"/>
      </g>
     </g>
    </g>
    <g id="xtick_25">
     <g id="line2d_49">
      <path clip-path="url(#p7bdf22e8ec)" d="M 402.819109 307.584 
L 402.819109 41.472 
" style="fill:none;stroke:#b0b0b0;stroke-linecap:square;stroke-width:0.8;"/>
     </g>
     <g id="line2d_50">
      <g>
       <use style="stroke:#000000;stroke-width:0.6;" x="402.819109" xlink:href="#maa1b798a04" y="307.584"/>
      </g>
     </g>
    </g>
    <g id="text_6">
     <!-- frame # [] -->
     <defs>
      <path d="M 37.109375 75.984375 
L 37.109375 68.5 
L 28.515625 68.5 
Q 23.6875 68.5 21.796875 66.546875 
Q 19.921875 64.59375 19.921875 59.515625 
L 19.921875 54.6875 
L 34.71875 54.6875 
L 34.71875 47.703125 
L 19.921875 47.703125 
L 19.921875 0 
L 10.890625 0 
L 10.890625 47.703125 
L 2.296875 47.703125 
L 2.296875 54.6875 
L 10.890625 54.6875 
L 10.890625 58.5 
Q 10.890625 67.625 15.140625 71.796875 
Q 19.390625 75.984375 28.609375 75.984375 
z
" id="DejaVuSans-66"/>
      <path d="M 41.109375 46.296875 
Q 39.59375 47.171875 37.8125 47.578125 
Q 36.03125 48 33.890625 48 
Q 26.265625 48 22.1875 43.046875 
Q 18.109375 38.09375 18.109375 28.8125 
L 18.109375 0 
L 9.078125 0 
L 9.078125 54.6875 
L 18.109375 54.6875 
L 18.109375 46.1875 
Q 20.953125 51.171875 25.484375 53.578125 
Q 30.03125 56 36.53125 56 
Q 37.453125 56 38.578125 55.875 
Q 39.703125 55.765625 41.0625 55.515625 
z
" id="DejaVuSans-72"/>
      <path d="M 34.28125 27.484375 
Q 23.390625 27.484375 19.1875 25 
Q 14.984375 22.515625 14.984375 16.5 
Q 14.984375 11.71875 18.140625 8.90625 
Q 21.296875 6.109375 26.703125 6.109375 
Q 34.1875 6.109375 38.703125 11.40625 
Q 43.21875 16.703125 43.21875 25.484375 
L 43.21875 27.484375 
z
M 52.203125 31.203125 
L 52.203125 0 
L 43.21875 0 
L 43.21875 8.296875 
Q 40.140625 3.328125 35.546875 0.953125 
Q 30.953125 -1.421875 24.3125 -1.421875 
Q 15.921875 -1.421875 10.953125 3.296875 
Q 6 8.015625 6 15.921875 
Q 6 25.140625 12.171875 29.828125 
Q 18.359375 34.515625 30.609375 34.515625 
L 43.21875 34.515625 
L 43.21875 35.40625 
Q 43.21875 41.609375 39.140625 45 
Q 35.0625 48.390625 27.6875 48.390625 
Q 23 48.390625 18.546875 47.265625 
Q 14.109375 46.140625 10.015625 43.890625 
L 10.015625 52.203125 
Q 14.9375 54.109375 19.578125 55.046875 
Q 24.21875 56 28.609375 56 
Q 40.484375 56 46.34375 49.84375 
Q 52.203125 43.703125 52.203125 31.203125 
z
" id="DejaVuSans-61"/>
      <path d="M 52 44.1875 
Q 55.375 50.25 60.0625 53.125 
Q 64.75 56 71.09375 56 
Q 79.640625 56 84.28125 50.015625 
Q 88.921875 44.046875 88.921875 33.015625 
L 88.921875 0 
L 79.890625 0 
L 79.890625 32.71875 
Q 79.890625 40.578125 77.09375 44.375 
Q 74.3125 48.1875 68.609375 48.1875 
Q 61.625 48.1875 57.5625 43.546875 
Q 53.515625 38.921875 53.515625 30.90625 
L 53.515625 0 
L 44.484375 0 
L 44.484375 32.71875 
Q 44.484375 40.625 41.703125 44.40625 
Q 38.921875 48.1875 33.109375 48.1875 
Q 26.21875 48.1875 22.15625 43.53125 
Q 18.109375 38.875 18.109375 30.90625 
L 18.109375 0 
L 9.078125 0 
L 9.078125 54.6875 
L 18.109375 54.6875 
L 18.109375 46.1875 
Q 21.1875 51.21875 25.484375 53.609375 
Q 29.78125 56 35.6875 56 
Q 41.65625 56 45.828125 52.96875 
Q 50 49.953125 52 44.1875 
z
" id="DejaVuSans-6d"/>
      <path d="M 56.203125 29.59375 
L 56.203125 25.203125 
L 14.890625 25.203125 
Q 15.484375 15.921875 20.484375 11.0625 
Q 25.484375 6.203125 34.421875 6.203125 
Q 39.59375 6.203125 44.453125 7.46875 
Q 49.3125 8.734375 54.109375 11.28125 
L 54.109375 2.78125 
Q 49.265625 0.734375 44.1875 -0.34375 
Q 39.109375 -1.421875 33.890625 -1.421875 
Q 20.796875 -1.421875 13.15625 6.1875 
Q 5.515625 13.8125 5.515625 26.8125 
Q 5.515625 40.234375 12.765625 48.109375 
Q 20.015625 56 32.328125 56 
Q 43.359375 56 49.78125 48.890625 
Q 56.203125 41.796875 56.203125 29.59375 
z
M 47.21875 32.234375 
Q 47.125 39.59375 43.09375 43.984375 
Q 39.0625 48.390625 32.421875 48.390625 
Q 24.90625 48.390625 20.390625 44.140625 
Q 15.875 39.890625 15.1875 32.171875 
z
" id="DejaVuSans-65"/>
      <path id="DejaVuSans-20"/>
      <path d="M 51.125 44 
L 36.921875 44 
L 32.8125 27.6875 
L 47.125 27.6875 
z
M 43.796875 71.78125 
L 38.71875 51.515625 
L 52.984375 51.515625 
L 58.109375 71.78125 
L 65.921875 71.78125 
L 60.890625 51.515625 
L 76.125 51.515625 
L 76.125 44 
L 58.984375 44 
L 54.984375 27.6875 
L 70.515625 27.6875 
L 70.515625 20.21875 
L 53.078125 20.21875 
L 48 0 
L 40.1875 0 
L 45.21875 20.21875 
L 30.90625 20.21875 
L 25.875 0 
L 18.015625 0 
L 23.09375 20.21875 
L 7.71875 20.21875 
L 7.71875 27.6875 
L 24.90625 27.6875 
L 29 44 
L 13.28125 44 
L 13.28125 51.515625 
L 30.90625 51.515625 
L 35.890625 71.78125 
z
" id="DejaVuSans-23"/>
      <path d="M 8.59375 75.984375 
L 29.296875 75.984375 
L 29.296875 69 
L 17.578125 69 
L 17.578125 -6.203125 
L 29.296875 -6.203125 
L 29.296875 -13.1875 
L 8.59375 -13.1875 
z
" id="DejaVuSans-5b"/>
      <path d="M 30.421875 75.984375 
L 30.421875 -13.1875 
L 9.71875 -13.1875 
L 9.71875 -6.203125 
L 21.390625 -6.203125 
L 21.390625 69 
L 9.71875 69 
L 9.71875 75.984375 
z
" id="DejaVuSans-5d"/>
     </defs>
     <g transform="translate(210.063906 335.860562)scale(0.1 -0.1)">
      <use xlink:href="#DejaVuSans-66"/>
      <use x="35.205078" xlink:href="#DejaVuSans-72"/>
      <use x="76.318359" xlink:href="#DejaVuSans-61"/>
      <use x="137.597656" xlink:href="#DejaVuSans-6d"/>
      <use x="235.009766" xlink:href="#DejaVuSans-65"/>
      <use x="296.533203" xlink:href="#DejaVuSans-20"/>
      <use x="328.320312" xlink:href="#DejaVuSans-23"/>
      <use x="412.109375" xlink:href="#DejaVuSans-20"/>
      <use x="443.896484" xlink:href="#DejaVuSans-5b"/>
      <use x="482.910156" xlink:href="#DejaVuSans-5d"/>
     </g>
    </g>
   </g>
   <g id="matplotlib.axis_2">
    <g id="ytick_1">
     <g id="line2d_51">
      <path clip-path="url(#p7bdf22e8ec)" d="M 57.6 307.269728 
L 414.72 307.269728 
" style="fill:none;stroke:#b0b0b0;stroke-linecap:square;stroke-width:0.8;"/>
     </g>
     <g id="line2d_52">
      <defs>
       <path d="M 0 0 
L -3.5 0 
" id="m69d225e2fc" style="stroke:#000000;stroke-width:0.8;"/>
      </defs>
      <g>
       <use style="stroke:#000000;stroke-width:0.8;" x="57.6" xlink:href="#m69d225e2fc" y="307.269728"/>
      </g>
     </g>
     <g id="text_7">
      <!-- −0.10 -->
      <defs>
       <path d="M 10.59375 35.5 
L 73.1875 35.5 
L 73.1875 27.203125 
L 10.59375 27.203125 
z
" id="DejaVuSans-2212"/>
       <path d="M 10.6875 12.40625 
L 21 12.40625 
L 21 0 
L 10.6875 0 
z
" id="DejaVuSans-2e"/>
      </defs>
      <g transform="translate(19.954687 311.068947)scale(0.1 -0.1)">
       <use xlink:href="#DejaVuSans-2212"/>
       <use x="83.789062" xlink:href="#DejaVuSans-30"/>
       <use x="147.412109" xlink:href="#DejaVuSans-2e"/>
       <use x="179.199219" xlink:href="#DejaVuSans-31"/>
       <use x="242.822266" xlink:href="#DejaVuSans-30"/>
      </g>
     </g>
    </g>
    <g id="ytick_2">
     <g id="line2d_53">
      <path clip-path="url(#p7bdf22e8ec)" d="M 57.6 250.37003 
L 414.72 250.37003 
" style="fill:none;stroke:#b0b0b0;stroke-linecap:square;stroke-width:0.8;"/>
     </g>
     <g id="line2d_54">
      <g>
       <use style="stroke:#000000;stroke-width:0.8;" x="57.6" xlink:href="#m69d225e2fc" y="250.37003"/>
      </g>
     </g>
     <g id="text_8">
      <!-- −0.05 -->
      <defs>
       <path d="M 10.796875 72.90625 
L 49.515625 72.90625 
L 49.515625 64.59375 
L 19.828125 64.59375 
L 19.828125 46.734375 
Q 21.96875 47.46875 24.109375 47.828125 
Q 26.265625 48.1875 28.421875 48.1875 
Q 40.625 48.1875 47.75 41.5 
Q 54.890625 34.8125 54.890625 23.390625 
Q 54.890625 11.625 47.5625 5.09375 
Q 40.234375 -1.421875 26.90625 -1.421875 
Q 22.3125 -1.421875 17.546875 -0.640625 
Q 12.796875 0.140625 7.71875 1.703125 
L 7.71875 11.625 
Q 12.109375 9.234375 16.796875 8.0625 
Q 21.484375 6.890625 26.703125 6.890625 
Q 35.15625 6.890625 40.078125 11.328125 
Q 45.015625 15.765625 45.015625 23.390625 
Q 45.015625 31 40.078125 35.4375 
Q 35.15625 39.890625 26.703125 39.890625 
Q 22.75 39.890625 18.8125 39.015625 
Q 14.890625 38.140625 10.796875 36.28125 
z
" id="DejaVuSans-35"/>
      </defs>
      <g transform="translate(19.954687 254.169248)scale(0.1 -0.1)">
       <use xlink:href="#DejaVuSans-2212"/>
       <use x="83.789062" xlink:href="#DejaVuSans-30"/>
       <use x="147.412109" xlink:href="#DejaVuSans-2e"/>
       <use x="179.199219" xlink:href="#DejaVuSans-30"/>
       <use x="242.822266" xlink:href="#DejaVuSans-35"/>
      </g>
     </g>
    </g>
    <g id="ytick_3">
     <g id="line2d_55">
      <path clip-path="url(#p7bdf22e8ec)" d="M 57.6 193.470331 
L 414.72 193.470331 
" style="fill:none;stroke:#b0b0b0;stroke-linecap:square;stroke-width:0.8;"/>
     </g>
     <g id="line2d_56">
      <g>
       <use style="stroke:#000000;stroke-width:0.8;" x="57.6" xlink:href="#m69d225e2fc" y="193.470331"/>
      </g>
     </g>
     <g id="text_9">
      <!-- 0.00 -->
      <g transform="translate(28.334375 197.26955)scale(0.1 -0.1)">
       <use xlink:href="#DejaVuSans-30"/>
       <use x="63.623047" xlink:href="#DejaVuSans-2e"/>
       <use x="95.410156" xlink:href="#DejaVuSans-30"/>
       <use x="159.033203" xlink:href="#DejaVuSans-30"/>
      </g>
     </g>
    </g>
    <g id="ytick_4">
     <g id="line2d_57">
      <path clip-path="url(#p7bdf22e8ec)" d="M 57.6 136.570632 
L 414.72 136.570632 
" style="fill:none;stroke:#b0b0b0;stroke-linecap:square;stroke-width:0.8;"/>
     </g>
     <g id="line2d_58">
      <g>
       <use style="stroke:#000000;stroke-width:0.8;" x="57.6" xlink:href="#m69d225e2fc" y="136.570632"/>
      </g>
     </g>
     <g id="text_10">
      <!-- 0.05 -->
      <g transform="translate(28.334375 140.369851)scale(0.1 -0.1)">
       <use xlink:href="#DejaVuSans-30"/>
       <use x="63.623047" xlink:href="#DejaVuSans-2e"/>
       <use x="95.410156" xlink:href="#DejaVuSans-30"/>
       <use x="159.033203" xlink:href="#DejaVuSans-35"/>
      </g>
     </g>
    </g>
    <g id="ytick_5">
     <g id="line2d_59">
      <path clip-path="url(#p7bdf22e8ec)" d="M 57.6 79.670934 
L 414.72 79.670934 
" style="fill:none;stroke:#b0b0b0;stroke-linecap:square;stroke-width:0.8;"/>
     </g>
     <g id="line2d_60">
      <g>
       <use style="stroke:#000000;stroke-width:0.8;" x="57.6" xlink:href="#m69d225e2fc" y="79.670934"/>
      </g>
     </g>
     <g id="text_11">
      <!-- 0.10 -->
      <g transform="translate(28.334375 83.470152)scale(0.1 -0.1)">
       <use xlink:href="#DejaVuSans-30"/>
       <use x="63.623047" xlink:href="#DejaVuSans-2e"/>
       <use x="95.410156" xlink:href="#DejaVuSans-31"/>
       <use x="159.033203" xlink:href="#DejaVuSans-30"/>
      </g>
     </g>
    </g>
    <g id="ytick_6">
     <g id="line2d_61">
      <path clip-path="url(#p7bdf22e8ec)" d="M 57.6 295.889789 
L 414.72 295.889789 
" style="fill:none;stroke:#b0b0b0;stroke-linecap:square;stroke-width:0.8;"/>
     </g>
     <g id="line2d_62">
      <defs>
       <path d="M 0 0 
L -2 0 
" id="m8fa39ef5cf" style="stroke:#000000;stroke-width:0.6;"/>
      </defs>
      <g>
       <use style="stroke:#000000;stroke-width:0.6;" x="57.6" xlink:href="#m8fa39ef5cf" y="295.889789"/>
      </g>
     </g>
    </g>
    <g id="ytick_7">
     <g id="line2d_63">
      <path clip-path="url(#p7bdf22e8ec)" d="M 57.6 284.509849 
L 414.72 284.509849 
" style="fill:none;stroke:#b0b0b0;stroke-linecap:square;stroke-width:0.8;"/>
     </g>
     <g id="line2d_64">
      <g>
       <use style="stroke:#000000;stroke-width:0.6;" x="57.6" xlink:href="#m8fa39ef5cf" y="284.509849"/>
      </g>
     </g>
    </g>
    <g id="ytick_8">
     <g id="line2d_65">
      <path clip-path="url(#p7bdf22e8ec)" d="M 57.6 273.129909 
L 414.72 273.129909 
" style="fill:none;stroke:#b0b0b0;stroke-linecap:square;stroke-width:0.8;"/>
     </g>
     <g id="line2d_66">
      <g>
       <use style="stroke:#000000;stroke-width:0.6;" x="57.6" xlink:href="#m8fa39ef5cf" y="273.129909"/>
      </g>
     </g>
    </g>
    <g id="ytick_9">
     <g id="line2d_67">
      <path clip-path="url(#p7bdf22e8ec)" d="M 57.6 261.749969 
L 414.72 261.749969 
" style="fill:none;stroke:#b0b0b0;stroke-linecap:square;stroke-width:0.8;"/>
     </g>
     <g id="line2d_68">
      <g>
       <use style="stroke:#000000;stroke-width:0.6;" x="57.6" xlink:href="#m8fa39ef5cf" y="261.749969"/>
      </g>
     </g>
    </g>
    <g id="ytick_10">
     <g id="line2d_69">
      <path clip-path="url(#p7bdf22e8ec)" d="M 57.6 238.99009 
L 414.72 238.99009 
" style="fill:none;stroke:#b0b0b0;stroke-linecap:square;stroke-width:0.8;"/>
     </g>
     <g id="line2d_70">
      <g>
       <use style="stroke:#000000;stroke-width:0.6;" x="57.6" xlink:href="#m8fa39ef5cf" y="238.99009"/>
      </g>
     </g>
    </g>
    <g id="ytick_11">
     <g id="line2d_71">
      <path clip-path="url(#p7bdf22e8ec)" d="M 57.6 227.61015 
L 414.72 227.61015 
" style="fill:none;stroke:#b0b0b0;stroke-linecap:square;stroke-width:0.8;"/>
     </g>
     <g id="line2d_72">
      <g>
       <use style="stroke:#000000;stroke-width:0.6;" x="57.6" xlink:href="#m8fa39ef5cf" y="227.61015"/>
      </g>
     </g>
    </g>
    <g id="ytick_12">
     <g id="line2d_73">
      <path clip-path="url(#p7bdf22e8ec)" d="M 57.6 216.23021 
L 414.72 216.23021 
" style="fill:none;stroke:#b0b0b0;stroke-linecap:square;stroke-width:0.8;"/>
     </g>
     <g id="line2d_74">
      <g>
       <use style="stroke:#000000;stroke-width:0.6;" x="57.6" xlink:href="#m8fa39ef5cf" y="216.23021"/>
      </g>
     </g>
    </g>
    <g id="ytick_13">
     <g id="line2d_75">
      <path clip-path="url(#p7bdf22e8ec)" d="M 57.6 204.850271 
L 414.72 204.850271 
" style="fill:none;stroke:#b0b0b0;stroke-linecap:square;stroke-width:0.8;"/>
     </g>
     <g id="line2d_76">
      <g>
       <use style="stroke:#000000;stroke-width:0.6;" x="57.6" xlink:href="#m8fa39ef5cf" y="204.850271"/>
      </g>
     </g>
    </g>
    <g id="ytick_14">
     <g id="line2d_77">
      <path clip-path="url(#p7bdf22e8ec)" d="M 57.6 182.090391 
L 414.72 182.090391 
" style="fill:none;stroke:#b0b0b0;stroke-linecap:square;stroke-width:0.8;"/>
     </g>
     <g id="line2d_78">
      <g>
       <use style="stroke:#000000;stroke-width:0.6;" x="57.6" xlink:href="#m8fa39ef5cf" y="182.090391"/>
      </g>
     </g>
    </g>
    <g id="ytick_15">
     <g id="line2d_79">
      <path clip-path="url(#p7bdf22e8ec)" d="M 57.6 170.710452 
L 414.72 170.710452 
" style="fill:none;stroke:#b0b0b0;stroke-linecap:square;stroke-width:0.8;"/>
     </g>
     <g id="line2d_80">
      <g>
       <use style="stroke:#000000;stroke-width:0.6;" x="57.6" xlink:href="#m8fa39ef5cf" y="170.710452"/>
      </g>
     </g>
    </g>
    <g id="ytick_16">
     <g id="line2d_81">
      <path clip-path="url(#p7bdf22e8ec)" d="M 57.6 159.330512 
L 414.72 159.330512 
" style="fill:none;stroke:#b0b0b0;stroke-linecap:square;stroke-width:0.8;"/>
     </g>
     <g id="line2d_82">
      <g>
       <use style="stroke:#000000;stroke-width:0.6;" x="57.6" xlink:href="#m8fa39ef5cf" y="159.330512"/>
      </g>
     </g>
    </g>
    <g id="ytick_17">
     <g id="line2d_83">
      <path clip-path="url(#p7bdf22e8ec)" d="M 57.6 147.950572 
L 414.72 147.950572 
" style="fill:none;stroke:#b0b0b0;stroke-linecap:square;stroke-width:0.8;"/>
     </g>
     <g id="line2d_84">
      <g>
       <use style="stroke:#000000;stroke-width:0.6;" x="57.6" xlink:href="#m8fa39ef5cf" y="147.950572"/>
      </g>
     </g>
    </g>
    <g id="ytick_18">
     <g id="line2d_85">
      <path clip-path="url(#p7bdf22e8ec)" d="M 57.6 125.190693 
L 414.72 125.190693 
" style="fill:none;stroke:#b0b0b0;stroke-linecap:square;stroke-width:0.8;"/>
     </g>
     <g id="line2d_86">
      <g>
       <use style="stroke:#000000;stroke-width:0.6;" x="57.6" xlink:href="#m8fa39ef5cf" y="125.190693"/>
      </g>
     </g>
    </g>
    <g id="ytick_19">
     <g id="line2d_87">
      <path clip-path="url(#p7bdf22e8ec)" d="M 57.6 113.810753 
L 414.72 113.810753 
" style="fill:none;stroke:#b0b0b0;stroke-linecap:square;stroke-width:0.8;"/>
     </g>
     <g id="line2d_88">
      <g>
       <use style="stroke:#000000;stroke-width:0.6;" x="57.6" xlink:href="#m8fa39ef5cf" y="113.810753"/>
      </g>
     </g>
    </g>
    <g id="ytick_20">
     <g id="line2d_89">
      <path clip-path="url(#p7bdf22e8ec)" d="M 57.6 102.430813 
L 414.72 102.430813 
" style="fill:none;stroke:#b0b0b0;stroke-linecap:square;stroke-width:0.8;"/>
     </g>
     <g id="line2d_90">
      <g>
       <use style="stroke:#000000;stroke-width:0.6;" x="57.6" xlink:href="#m8fa39ef5cf" y="102.430813"/>
      </g>
     </g>
    </g>
    <g id="ytick_21">
     <g id="line2d_91">
      <path clip-path="url(#p7bdf22e8ec)" d="M 57.6 91.050873 
L 414.72 91.050873 
" style="fill:none;stroke:#b0b0b0;stroke-linecap:square;stroke-width:0.8;"/>
     </g>
     <g id="line2d_92">
      <g>
       <use style="stroke:#000000;stroke-width:0.6;" x="57.6" xlink:href="#m8fa39ef5cf" y="91.050873"/>
      </g>
     </g>
    </g>
    <g id="ytick_22">
     <g id="line2d_93">
      <path clip-path="url(#p7bdf22e8ec)" d="M 57.6 68.290994 
L 414.72 68.290994 
" style="fill:none;stroke:#b0b0b0;stroke-linecap:square;stroke-width:0.8;"/>
     </g>
     <g id="line2d_94">
      <g>
       <use style="stroke:#000000;stroke-width:0.6;" x="57.6" xlink:href="#m8fa39ef5cf" y="68.290994"/>
      </g>
     </g>
    </g>
    <g id="ytick_23">
     <g id="line2d_95">
      <path clip-path="url(#p7bdf22e8ec)" d="M 57.6 56.911054 
L 414.72 56.911054 
" style="fill:none;stroke:#b0b0b0;stroke-linecap:square;stroke-width:0.8;"/>
     </g>
     <g id="line2d_96">
      <g>
       <use style="stroke:#000000;stroke-width:0.6;" x="57.6" xlink:href="#m8fa39ef5cf" y="56.911054"/>
      </g>
     </g>
    </g>
    <g id="ytick_24">
     <g id="line2d_97">
      <path clip-path="url(#p7bdf22e8ec)" d="M 57.6 45.531114 
L 414.72 45.531114 
" style="fill:none;stroke:#b0b0b0;stroke-linecap:square;stroke-width:0.8;"/>
     </g>
     <g id="line2d_98">
      <g>
       <use style="stroke:#000000;stroke-width:0.6;" x="57.6" xlink:href="#m8fa39ef5cf" y="45.531114"/>
      </g>
     </g>
    </g>
    <g id="text_12">
     <!-- trans z -->
     <defs>
      <path d="M 18.3125 70.21875 
L 18.3125 54.6875 
L 36.8125 54.6875 
L 36.8125 47.703125 
L 18.3125 47.703125 
L 18.3125 18.015625 
Q 18.3125 11.328125 20.140625 9.421875 
Q 21.96875 7.515625 27.59375 7.515625 
L 36.8125 7.515625 
L 36.8125 0 
L 27.59375 0 
Q 17.1875 0 13.234375 3.875 
Q 9.28125 7.765625 9.28125 18.015625 
L 9.28125 47.703125 
L 2.6875 47.703125 
L 2.6875 54.6875 
L 9.28125 54.6875 
L 9.28125 70.21875 
z
" id="DejaVuSans-74"/>
      <path d="M 54.890625 33.015625 
L 54.890625 0 
L 45.90625 0 
L 45.90625 32.71875 
Q 45.90625 40.484375 42.875 44.328125 
Q 39.84375 48.1875 33.796875 48.1875 
Q 26.515625 48.1875 22.3125 43.546875 
Q 18.109375 38.921875 18.109375 30.90625 
L 18.109375 0 
L 9.078125 0 
L 9.078125 54.6875 
L 18.109375 54.6875 
L 18.109375 46.1875 
Q 21.34375 51.125 25.703125 53.5625 
Q 30.078125 56 35.796875 56 
Q 45.21875 56 50.046875 50.171875 
Q 54.890625 44.34375 54.890625 33.015625 
z
" id="DejaVuSans-6e"/>
      <path d="M 44.28125 53.078125 
L 44.28125 44.578125 
Q 40.484375 46.53125 36.375 47.5 
Q 32.28125 48.484375 27.875 48.484375 
Q 21.1875 48.484375 17.84375 46.4375 
Q 14.5 44.390625 14.5 40.28125 
Q 14.5 37.15625 16.890625 35.375 
Q 19.28125 33.59375 26.515625 31.984375 
L 29.59375 31.296875 
Q 39.15625 29.25 43.1875 25.515625 
Q 47.21875 21.78125 47.21875 15.09375 
Q 47.21875 7.46875 41.1875 3.015625 
Q 35.15625 -1.421875 24.609375 -1.421875 
Q 20.21875 -1.421875 15.453125 -0.5625 
Q 10.6875 0.296875 5.421875 2 
L 5.421875 11.28125 
Q 10.40625 8.6875 15.234375 7.390625 
Q 20.0625 6.109375 24.8125 6.109375 
Q 31.15625 6.109375 34.5625 8.28125 
Q 37.984375 10.453125 37.984375 14.40625 
Q 37.984375 18.0625 35.515625 20.015625 
Q 33.0625 21.96875 24.703125 23.78125 
L 21.578125 24.515625 
Q 13.234375 26.265625 9.515625 29.90625 
Q 5.8125 33.546875 5.8125 39.890625 
Q 5.8125 47.609375 11.28125 51.796875 
Q 16.75 56 26.8125 56 
Q 31.78125 56 36.171875 55.265625 
Q 40.578125 54.546875 44.28125 53.078125 
z
" id="DejaVuSans-73"/>
      <path d="M 5.515625 54.6875 
L 48.1875 54.6875 
L 48.1875 46.484375 
L 14.40625 7.171875 
L 48.1875 7.171875 
L 48.1875 0 
L 4.296875 0 
L 4.296875 8.203125 
L 38.09375 47.515625 
L 5.515625 47.515625 
z
" id="DejaVuSans-7a"/>
     </defs>
     <g transform="translate(13.875 191.594406)rotate(-90)scale(0.1 -0.1)">
      <use xlink:href="#DejaVuSans-74"/>
      <use x="39.208984" xlink:href="#DejaVuSans-72"/>
      <use x="80.322266" xlink:href="#DejaVuSans-61"/>
      <use x="141.601562" xlink:href="#DejaVuSans-6e"/>
      <use x="204.980469" xlink:href="#DejaVuSans-73"/>
      <use x="257.080078" xlink:href="#DejaVuSans-20"/>
      <use x="288.867188" xlink:href="#DejaVuSans-7a"/>
     </g>
    </g>
   </g>
   <g id="line2d_99">
    <path clip-path="url(#p7bdf22e8ec)" d="M 73.832727 64.78596 
L 74.524971 73.942565 
L 75.217208 86.85884 
L 75.90628 87.329079 
L 76.598517 94.183717 
L 77.290754 96.488264 
L 77.982991 83.36233 
L 78.6751 76.086642 
L 79.367337 78.122319 
L 80.059581 79.353867 
L 80.751818 83.476981 
L 81.446481 84.398261 
L 82.138725 77.711515 
L 82.830962 83.319344 
L 83.523199 79.512066 
L 84.216653 83.314161 
L 84.908883 85.27691 
L 85.601147 91.294724 
L 86.293364 84.202555 
L 86.985656 84.186052 
L 87.675135 92.013758 
L 88.367373 94.780945 
L 89.05961 103.278579 
L 90.441987 80.5442 
L 91.13423 141.010739 
L 91.826467 156.660342 
L 92.518705 144.82365 
L 93.209773 170.160586 
L 93.902011 181.771998 
L 94.594254 187.899934 
L 95.286491 172.994048 
L 95.979336 152.263065 
L 96.671581 137.111741 
L 97.363819 96.90245 
L 98.056056 65.10672 
L 98.749362 53.568 
L 99.44205 59.412432 
L 100.133837 79.691028 
L 101.516997 167.861404 
L 102.209241 182.624704 
L 102.901478 220.685836 
L 103.593715 243.323737 
L 104.284797 276.809025 
L 104.977035 288.6057 
L 105.669272 288.700953 
L 106.361509 277.495542 
L 107.05535 292.145797 
L 107.747587 234.92757 
L 108.439825 193.093475 
L 109.132062 168.895821 
L 109.824962 167.073991 
L 110.517208 189.942704 
L 111.209437 184.204667 
L 111.901674 190.202398 
L 112.593675 236.925442 
L 113.285912 248.8609 
L 113.978149 266.499578 
L 114.670387 269.097953 
L 115.361972 264.565725 
L 116.054209 282.545824 
L 116.746446 267.616045 
L 117.438683 267.303113 
L 118.130907 244.919522 
L 118.823151 231.879947 
L 120.207625 143.301266 
L 120.899869 135.559409 
L 121.594579 93.307886 
L 122.286816 75.863474 
L 122.97906 80.352753 
L 123.67129 96.956588 
L 124.363909 127.851944 
L 125.056146 204.591553 
L 125.748383 215.438192 
L 126.44062 197.605475 
L 127.129632 258.864806 
L 127.82187 233.389643 
L 128.514107 269.476438 
L 129.206344 226.311154 
L 129.89967 208.781373 
L 130.591908 162.056537 
L 131.284145 137.862661 
L 131.976389 93.474094 
L 132.670814 93.68273 
L 133.363058 71.375208 
L 134.055295 75.228451 
L 134.747532 83.568011 
L 135.437802 104.061883 
L 136.822277 197.408482 
L 137.514514 176.82072 
L 138.204709 205.998863 
L 138.896947 222.511385 
L 139.589184 224.584969 
L 140.281421 223.635771 
L 140.976101 210.886071 
L 141.668336 195.429479 
L 142.360573 177.315147 
L 143.05281 138.134135 
L 143.744756 158.020425 
L 144.436993 161.237022 
L 145.129236 180.026154 
L 145.821474 185.624385 
L 146.511257 183.859033 
L 147.203494 137.977474 
L 147.895731 156.698875 
L 148.588378 138.007193 
L 149.281455 195.957827 
L 149.973692 155.643012 
L 150.665929 95.600318 
L 151.358166 144.926535 
L 152.05041 63.774499 
L 152.743731 130.839009 
L 153.435969 152.94571 
L 154.128206 164.866455 
L 155.510224 230.383151 
L 156.20247 238.70266 
L 157.586944 250.601336 
L 158.279343 282.725701 
L 158.97158 247.160685 
L 159.663852 235.478129 
L 160.356055 276.464754 
L 161.743508 193.701954 
L 162.435745 197.923578 
L 163.127989 194.959287 
L 163.818557 204.809048 
L 164.510795 203.943853 
L 165.203032 195.85297 
L 165.895269 189.466988 
L 166.586145 227.580161 
L 167.970626 172.619143 
L 168.662863 183.378759 
L 169.356457 188.742183 
L 170.740931 128.584506 
L 171.433168 118.679488 
L 172.125831 111.277054 
L 172.818048 136.983403 
L 173.510286 174.907893 
L 174.202529 193.346953 
L 174.892987 204.469808 
L 175.585225 225.215354 
L 176.277462 223.883772 
L 176.969699 204.6443 
L 177.662487 226.082591 
L 178.354724 216.843802 
L 179.046962 213.653958 
L 179.739205 188.640366 
L 180.434067 182.678205 
L 181.126297 187.993783 
L 181.818534 174.055084 
L 182.510778 194.288862 
L 183.200632 205.392255 
L 183.892876 209.429354 
L 184.585113 228.4247 
L 185.2776 243.86602 
L 185.969588 224.880438 
L 186.661455 223.800344 
L 187.353692 192.95906 
L 188.045929 190.647608 
L 188.738167 172.558799 
M 191.509762 239.630526 
L 192.199235 250.976919 
L 192.891481 232.535947 
L 193.583718 237.066901 
L 194.275953 228.741229 
L 194.967935 244.421686 
L 195.660172 158.667141 
L 196.352409 228.442258 
L 197.044646 243.021852 
L 197.738917 174.287987 
L 198.431154 135.511769 
L 199.123391 123.115338 
L 199.815628 86.822106 
L 201.20106 114.59007 
L 201.893304 137.481943 
L 202.585541 202.868445 
L 203.275538 210.03831 
L 203.967776 229.281714 
L 204.660013 226.71409 
L 205.35225 239.817022 
L 206.044672 215.507678 
L 206.736909 225.431242 
L 207.429146 195.302894 
L 208.121383 177.429027 
L 208.815873 142.519574 
L 209.50811 152.939059 
L 210.200348 170.745846 
L 210.892585 212.839948 
L 211.583861 225.032978 
L 212.276099 226.241555 
L 213.66058 291.274304 
L 214.351919 255.671658 
L 215.044156 211.005949 
L 215.736393 206.351971 
L 216.428631 204.503451 
L 217.120874 149.496999 
L 217.814995 132.114073 
L 218.507232 136.882771 
L 219.199469 150.199707 
L 219.891706 177.651389 
L 220.58497 242.033107 
L 221.277214 251.416942 
L 221.969824 264.448126 
L 222.661681 280.030142 
L 223.354881 259.263805 
L 224.047124 259.90593 
L 224.739362 263.266534 
L 226.815566 216.720274 
L 227.507804 182.459046 
L 228.200041 195.444906 
L 228.892598 132.107638 
L 229.584835 111.300319 
L 230.277072 94.401958 
L 230.96931 109.673858 
L 231.661953 99.327329 
L 232.35419 124.35427 
L 233.046427 115.199193 
L 233.738664 134.603657 
L 234.434318 164.328734 
L 235.126562 172.257596 
L 235.818799 156.932261 
L 236.511036 169.582737 
L 237.205725 162.9215 
L 237.897963 173.760309 
L 238.5902 167.752765 
L 239.282437 168.829986 
L 239.966295 176.796315 
L 240.658539 218.086325 
L 241.350776 203.334728 
L 242.043013 205.400469 
L 243.427569 146.129343 
L 244.119806 149.748569 
L 244.812043 127.225702 
L 245.504977 108.728724 
L 246.197214 111.791798 
L 246.889449 104.9764 
L 247.581686 101.136468 
L 248.274878 105.972015 
L 248.967115 104.902446 
L 249.659352 120.703509 
L 250.351589 127.149543 
L 251.043826 134.881303 
L 251.736771 165.73238 
L 253.121246 172.104594 
L 253.81349 213.566073 
L 254.500718 285.338002 
L 255.192947 219.600878 
L 255.885192 226.090999 
L 256.577429 212.385913 
L 257.269926 193.180267 
L 257.962163 207.580671 
L 258.6544 204.567722 
L 259.346637 210.045501 
L 260.040695 201.469098 
L 260.732932 151.794838 
L 262.117406 85.495355 
L 262.80931 86.621174 
L 263.501547 97.413223 
L 264.193784 97.662667 
L 264.886021 118.196868 
L 265.576308 153.938593 
L 266.268553 169.360844 
L 266.960791 229.771477 
L 267.653028 179.236299 
L 268.344813 250.443776 
L 269.03705 184.720368 
L 269.729287 254.430801 
L 270.421524 194.83138 
M 271.808522 174.139304 
L 272.500759 281.198587 
L 273.192996 242.825188 
L 273.886626 255.943549 
L 274.578864 235.604585 
M 279.422083 219.680121 
L 280.11432 189.429164 
L 280.806557 174.49461 
M 282.885262 236.99047 
L 283.576905 156.250346 
L 284.269143 222.696744 
M 291.190092 167.080144 
L 291.882329 169.348827 
L 292.574566 196.302985 
M 296.037925 205.544146 
L 296.728311 209.864365 
L 297.420548 199.691094 
L 298.112785 95.585235 
L 298.805022 220.711391 
L 299.500625 263.292372 
L 300.192862 138.993236 
M 305.72952 184.361331 
L 306.421757 178.876314 
L 307.114493 166.687401 
L 307.804746 244.147021 
L 308.496983 54.117984 
L 309.18922 95.087713 
L 309.881458 120.987155 
M 314.727973 141.610562 
L 315.42021 198.532255 
L 316.112447 174.135515 
L 316.803859 139.541312 
L 317.496096 90.483975 
L 318.188333 80.249776 
L 318.880571 124.362062 
L 319.576584 138.260652 
L 320.268821 186.543191 
L 320.961058 203.236797 
L 321.653295 194.838339 
L 322.342377 222.205048 
L 323.034614 179.612301 
L 323.726858 184.626807 
L 324.419095 218.375023 
L 325.112821 235.703985 
L 325.805058 257.171899 
L 326.497302 252.406922 
M 327.884744 207.450753 
L 328.576974 156.795675 
L 329.269218 167.418911 
L 329.961455 189.306478 
L 330.653469 163.729074 
L 331.346218 159.016528 
L 332.037944 142.833964 
L 332.730181 120.70741 
L 333.422638 122.006085 
L 334.114875 135.070965 
L 334.807119 167.220645 
M 337.575094 116.520812 
L 338.267337 117.151759 
L 338.959426 78.764862 
L 339.651661 107.067088 
L 340.343899 108.14823 
L 341.036136 110.861897 
L 341.726718 114.948577 
L 342.418955 128.941753 
L 343.111192 110.080273 
L 343.803429 141.595931 
L 344.492933 144.510527 
L 345.18517 134.758513 
L 345.877414 106.688341 
L 346.569651 103.828186 
M 347.953989 104.352028 
L 348.646226 144.164473 
M 351.414505 198.136483 
L 352.106742 215.72904 
L 352.798979 164.061748 
L 353.491776 156.041375 
L 354.184019 122.679976 
L 354.87625 129.637052 
L 355.569124 115.828281 
L 356.26317 247.534908 
L 356.955416 189.815569 
L 357.647653 203.256796 
L 358.33989 239.757238 
L 359.029714 228.186965 
L 359.721951 235.127849 
M 361.106426 249.785886 
L 361.799274 261.935682 
L 362.491511 269.686159 
L 363.183748 272.964963 
L 363.875985 259.847585 
L 365.260626 202.341257 
M 366.6451 245.133856 
L 367.338052 239.141854 
L 368.030296 249.860828 
L 368.722533 241.994966 
L 369.41477 232.39748 
L 370.107983 230.362333 
L 370.80022 278.399779 
L 371.492457 208.29413 
L 372.184694 236.500376 
L 372.877912 181.751154 
L 373.570157 197.721618 
L 374.262395 175.721775 
L 374.95463 160.40364 
M 376.34006 183.501275 
L 377.032291 163.500926 
L 377.724534 164.304528 
M 380.492239 161.805249 
L 381.184476 204.947698 
L 381.876099 205.084364 
L 382.568336 157.381463 
L 383.260573 144.723689 
L 383.952811 126.199787 
L 384.644637 121.623038 
L 385.336874 132.506129 
L 386.029111 141.1409 
L 387.412183 149.267098 
L 388.104412 148.904833 
L 388.796657 147.312158 
M 390.179932 161.753026 
L 390.872169 159.300694 
L 391.564426 178.106292 
L 392.256643 167.93561 
L 392.948735 186.509606 
L 393.640972 187.630717 
L 394.333209 203.592611 
L 395.025447 201.356208 
L 395.717867 204.118869 
L 396.410104 197.435818 
L 396.410104 197.435818 
" style="fill:none;stroke:#ff0000;stroke-linecap:square;"/>
   </g>
   <g id="line2d_100">
    <path clip-path="url(#p7bdf22e8ec)" d="M 73.832727 67.439844 
L 74.524971 71.219856 
L 75.217208 87.910148 
L 75.90628 88.509742 
L 76.598517 95.142271 
L 77.290754 93.548585 
L 77.982991 83.03263 
L 78.6751 78.42804 
L 79.367337 76.014036 
L 80.059581 76.125607 
L 80.751818 85.655786 
L 81.446481 84.787626 
L 82.138725 77.872196 
L 82.830962 81.019966 
L 83.523199 79.802025 
L 84.216653 81.922038 
L 84.908883 90.502858 
L 85.601147 89.6593 
L 86.293364 82.947378 
L 86.985656 85.06505 
L 88.367373 97.914851 
L 89.05961 91.67132 
L 89.751847 87.486229 
L 90.441987 102.335058 
L 91.826467 149.025581 
L 92.518705 166.980325 
L 93.209773 174.279565 
L 94.594254 182.163091 
L 95.286491 173.239635 
L 95.979336 153.678652 
L 98.056056 66.54417 
L 98.749362 55.829559 
L 99.44205 55.762819 
L 100.133837 69.737148 
L 102.209241 175.680201 
L 104.284797 271.129499 
L 104.977035 290.680082 
L 105.669272 295.488 
L 106.361509 286.822267 
L 107.05535 274.203092 
L 109.132062 177.31204 
L 109.824962 163.477684 
L 110.517208 161.468461 
L 111.209437 168.140688 
L 111.901674 184.432796 
L 112.593675 208.361963 
L 113.978149 245.95396 
L 114.670387 258.631325 
L 115.361972 265.514868 
L 116.054209 267.717828 
L 116.746446 270.48319 
L 117.438683 270.956983 
L 118.130907 265.637077 
L 118.823151 243.367424 
L 120.207625 168.812166 
L 120.899869 126.570605 
L 121.594579 92.596497 
L 122.286816 76.053164 
L 122.97906 70.893246 
L 123.67129 88.783447 
L 124.363909 119.189444 
L 125.056146 155.750259 
L 126.44062 218.268934 
L 127.129632 248.209635 
L 127.82187 261.034011 
L 128.514107 250.569623 
L 129.89967 194.218568 
L 131.284145 125.266143 
L 131.976389 98.510979 
L 132.670814 79.876905 
L 133.363058 68.981352 
L 134.055295 68.626616 
L 134.747532 80.702342 
L 135.437802 103.172038 
L 136.822277 167.924903 
L 138.204709 202.376311 
L 138.896947 216.13298 
L 139.589184 224.359568 
L 140.281421 223.605516 
L 140.976101 214.386334 
L 141.668336 197.247162 
L 142.360573 175.33291 
L 143.05281 160.194397 
L 143.744756 157.162318 
L 144.436993 163.456761 
L 145.821474 194.690407 
L 146.511257 199.160434 
L 147.203494 195.595555 
L 147.895731 194.999857 
L 148.588378 192.138105 
L 152.05041 119.069201 
L 152.743731 119.682178 
L 154.128206 164.621752 
L 155.510224 223.854323 
L 156.20247 243.201385 
L 156.894699 251.263114 
L 157.586944 253.795059 
L 158.279343 257.724343 
L 158.97158 254.290848 
L 159.663852 239.222823 
L 160.356055 226.997961 
L 161.743508 211.675166 
L 162.435745 203.467679 
L 163.127989 196.79049 
L 163.818557 199.802516 
L 165.203032 213.007428 
L 165.895269 213.995902 
L 166.586145 210.074747 
L 167.278382 207.838671 
L 167.970626 202.853562 
L 168.662863 196.445604 
L 169.356457 182.466437 
L 170.048694 155.465231 
L 171.433168 113.491594 
L 172.125831 109.440795 
L 172.818048 128.627448 
L 173.510286 157.629495 
L 174.892987 201.270007 
L 175.585225 215.57595 
L 176.277462 213.75727 
L 176.969699 211.561645 
L 177.662487 221.174711 
L 178.354724 223.055568 
L 179.046962 213.500149 
L 180.434067 183.188631 
L 181.126297 175.553007 
L 181.818534 178.881164 
L 182.510778 188.49155 
L 183.200632 207.198181 
L 183.892876 231.867324 
L 184.585113 243.570986 
L 185.2776 240.513429 
L 185.969588 232.947412 
L 186.661455 222.94124 
L 187.353692 210.298578 
L 188.045929 193.609462 
L 188.738167 181.1375 
M 191.509762 215.90989 
L 192.199235 234.940905 
L 192.891481 250.114382 
L 193.583718 255.91126 
L 194.275953 255.687668 
L 195.660172 235.82887 
L 196.352409 231.141125 
L 197.738917 187.137499 
L 199.815628 95.108343 
L 200.508823 96.087995 
L 201.20106 114.460439 
L 202.585541 173.977102 
L 203.275538 197.846204 
L 204.660013 234.217272 
L 205.35225 243.208771 
L 206.044672 233.226405 
L 206.736909 216.871174 
L 207.429146 192.420093 
L 208.121383 163.709874 
L 208.815873 147.579891 
L 209.50811 150.793567 
L 210.200348 171.791906 
L 211.583861 224.815836 
L 212.276099 245.588872 
L 212.968342 256.656158 
L 213.66058 259.580735 
L 214.351919 255.881266 
L 215.044156 241.268899 
L 216.428631 202.702513 
L 217.120874 170.085827 
L 217.814995 145.031667 
L 218.507232 133.542622 
L 219.199469 145.659654 
L 221.277214 249.033101 
L 221.969824 268.059939 
L 222.661681 272.658272 
L 223.354881 270.006199 
L 224.047124 266.002957 
L 224.739362 258.552601 
L 225.431599 249.499397 
L 226.123329 233.496904 
L 226.815566 213.274571 
L 227.507804 187.052807 
L 228.200041 167.451082 
L 229.584835 115.111561 
L 230.277072 102.269157 
L 230.96931 94.261857 
L 231.661953 96.380696 
L 232.35419 101.547607 
L 233.046427 114.172474 
L 234.434318 150.39285 
L 235.126562 162.344984 
L 235.818799 165.603427 
L 236.511036 170.279474 
L 237.205725 173.780873 
L 237.897963 168.746627 
L 238.5902 161.423615 
L 239.282437 161.959259 
L 239.966295 177.57203 
L 240.658539 196.969553 
L 241.350776 206.851037 
L 242.043013 200.890295 
L 242.735331 179.324371 
L 243.427569 150.903545 
L 244.119806 127.048001 
L 244.812043 111.047248 
L 245.504977 108.926934 
L 246.197214 104.909348 
L 246.889449 101.727488 
L 247.581686 100.949357 
L 248.274878 101.740563 
L 248.967115 104.803761 
L 249.659352 114.094878 
L 250.351589 121.625375 
L 251.043826 131.60723 
L 251.736771 148.254897 
L 253.121246 192.340516 
L 253.81349 217.734223 
L 254.500718 230.145844 
L 255.192947 232.028105 
L 255.885192 227.370135 
L 256.577429 218.355323 
L 257.269926 213.356415 
L 257.962163 218.287647 
L 258.6544 216.485814 
L 259.346637 212.362362 
L 260.040695 196.77826 
L 262.117406 92.867222 
L 262.80931 84.430383 
L 263.501547 86.365382 
L 264.193784 98.91526 
L 266.268553 175.53654 
L 266.960791 194.679755 
L 267.653028 203.476414 
L 268.344813 206.881248 
L 269.03705 211.105761 
L 269.729287 213.063405 
L 270.421524 219.669416 
M 271.808522 230.701653 
L 273.192996 241.740422 
L 273.886626 244.944204 
L 274.578864 235.215642 
M 279.422083 180.833759 
L 280.11432 177.506785 
L 280.806557 164.320309 
M 282.885262 150.907767 
L 283.576905 170.036321 
L 284.269143 180.304027 
M 291.190092 171.478138 
L 291.882329 165.646887 
L 292.574566 154.176033 
M 296.037925 243.851083 
L 296.728311 239.220557 
L 297.420548 216.89829 
L 298.112785 176.773712 
L 298.805022 149.886888 
L 299.500625 143.093278 
L 300.192862 159.160494 
M 305.72952 187.352502 
L 306.421757 186.632178 
L 307.114493 165.210155 
L 308.496983 111.569735 
L 309.18922 103.823624 
L 309.881458 119.719669 
M 314.727973 185.635829 
L 315.42021 183.722 
L 316.112447 167.010901 
L 317.496096 110.454621 
L 318.188333 103.305569 
L 318.880571 113.89042 
L 320.268821 168.345691 
L 320.961058 197.536438 
L 321.653295 213.57205 
L 322.342377 215.331072 
L 323.034614 213.959444 
L 323.726858 214.681669 
L 324.419095 223.76386 
L 325.112821 236.240071 
L 325.805058 245.579086 
L 326.497302 246.998571 
M 327.884744 191.416996 
L 328.576974 172.946215 
L 329.269218 169.525118 
L 329.961455 167.215731 
L 330.653469 158.808787 
L 331.346218 145.791143 
L 332.730181 114.715311 
L 333.422638 113.653014 
L 334.114875 128.595716 
L 334.807119 151.181103 
M 337.575094 129.323293 
L 338.267337 116.738194 
L 338.959426 106.632375 
L 339.651661 103.259994 
L 340.343899 106.274381 
L 341.036136 107.849458 
L 341.726718 112.81526 
L 342.418955 122.504806 
L 343.111192 129.900407 
L 343.803429 131.082186 
L 344.492933 127.627264 
L 346.569651 101.071934 
M 347.953989 100.584852 
L 348.646226 120.531326 
M 351.414505 178.058909 
L 352.106742 180.78719 
L 352.798979 177.56024 
L 353.491776 165.878184 
L 354.87625 133.48686 
L 355.569124 138.97813 
L 356.26317 154.579781 
L 357.647653 214.433947 
L 358.33989 234.025169 
L 359.029714 237.035105 
L 359.721951 239.53458 
M 361.106426 259.786618 
L 361.799274 266.401793 
L 362.491511 270.300743 
L 363.183748 267.706542 
L 364.568397 248.103669 
L 365.260626 246.934323 
M 366.6451 246.918709 
L 367.338052 249.227846 
L 368.030296 246.666797 
L 368.722533 242.063064 
L 370.107983 224.295371 
L 370.80022 218.177414 
L 371.492457 214.838497 
L 372.184694 210.232878 
L 372.877912 203.846204 
L 374.262395 174.539044 
L 374.95463 170.392233 
M 376.34006 170.414048 
L 377.032291 171.023118 
L 377.724534 169.827191 
M 380.492239 149.445207 
L 381.184476 151.51899 
L 381.876099 151.343473 
L 382.568336 150.204572 
L 383.260573 144.512078 
L 383.952811 127.761076 
L 384.644637 122.857128 
L 385.336874 132.609392 
L 386.029111 139.685971 
L 386.721348 145.47057 
L 387.412183 147.382592 
L 388.104412 148.138317 
L 388.796657 149.703917 
M 390.179932 159.645342 
L 391.564426 169.695927 
L 392.256643 172.423975 
L 392.948735 181.28216 
L 394.333209 193.81719 
L 395.717867 198.749397 
L 396.410104 197.980213 
L 396.410104 197.980213 
" style="fill:none;stroke:#0000ff;stroke-linecap:square;"/>
   </g>
   <g id="line2d_101">
    <path clip-path="url(#p7bdf22e8ec)" d="M 276.655785 200.393983 
L 277.348022 198.496209 
M 281.498794 148.888131 
L 282.192431 143.360047 
M 286.344534 172.675631 
L 287.036771 171.830579 
L 287.729008 171.579093 
L 288.421904 172.548009 
L 289.114148 170.95976 
L 289.806385 168.102615 
L 290.498622 169.504798 
M 294.653451 206.802743 
L 295.345682 232.165645 
M 300.885099 179.227528 
L 301.577343 192.938242 
L 302.26739 198.53339 
L 302.959621 193.035209 
M 304.344095 170.529755 
L 305.037283 177.126256 
M 310.575802 145.986384 
L 311.268039 170.904735 
L 311.960277 184.491778 
L 312.65252 185.875811 
L 313.343492 180.02075 
L 314.035729 182.554775 
M 335.499356 164.530659 
L 336.190619 158.652291 
L 336.882856 143.988601 
M 349.338463 148.311239 
L 350.0307 163.168757 
L 350.722267 170.059937 
M 397.102341 196.94131 
L 397.794578 192.165483 
L 398.487273 189.19553 
L 398.487273 189.19553 
" style="fill:none;stroke:#008000;stroke-linecap:square;"/>
   </g>
   <g id="patch_3">
    <path d="M 57.6 307.584 
L 57.6 41.472 
" style="fill:none;stroke:#000000;stroke-linecap:square;stroke-linejoin:miter;stroke-width:0.8;"/>
   </g>
   <g id="patch_4">
    <path d="M 414.72 307.584 
L 414.72 41.472 
" style="fill:none;stroke:#000000;stroke-linecap:square;stroke-linejoin:miter;stroke-width:0.8;"/>
   </g>
   <g id="patch_5">
    <path d="M 57.6 307.584 
L 414.72 307.584 
" style="fill:none;stroke:#000000;stroke-linecap:square;stroke-linejoin:miter;stroke-width:0.8;"/>
   </g>
   <g id="patch_6">
    <path d="M 57.6 41.472 
L 414.72 41.472 
" style="fill:none;stroke:#000000;stroke-linecap:square;stroke-linejoin:miter;stroke-width:0.8;"/>
   </g>
   <g id="text_13">
    <!-- Rel Gt Trans Z Plot -->
    <defs>
     <path d="M 44.390625 34.1875 
Q 47.5625 33.109375 50.5625 29.59375 
Q 53.5625 26.078125 56.59375 19.921875 
L 66.609375 0 
L 56 0 
L 46.6875 18.703125 
Q 43.0625 26.03125 39.671875 28.421875 
Q 36.28125 30.8125 30.421875 30.8125 
L 19.671875 30.8125 
L 19.671875 0 
L 9.8125 0 
L 9.8125 72.90625 
L 32.078125 72.90625 
Q 44.578125 72.90625 50.734375 67.671875 
Q 56.890625 62.453125 56.890625 51.90625 
Q 56.890625 45.015625 53.6875 40.46875 
Q 50.484375 35.9375 44.390625 34.1875 
z
M 19.671875 64.796875 
L 19.671875 38.921875 
L 32.078125 38.921875 
Q 39.203125 38.921875 42.84375 42.21875 
Q 46.484375 45.515625 46.484375 51.90625 
Q 46.484375 58.296875 42.84375 61.546875 
Q 39.203125 64.796875 32.078125 64.796875 
z
" id="DejaVuSans-52"/>
     <path d="M 9.421875 75.984375 
L 18.40625 75.984375 
L 18.40625 0 
L 9.421875 0 
z
" id="DejaVuSans-6c"/>
     <path d="M 59.515625 10.40625 
L 59.515625 29.984375 
L 43.40625 29.984375 
L 43.40625 38.09375 
L 69.28125 38.09375 
L 69.28125 6.78125 
Q 63.578125 2.734375 56.6875 0.65625 
Q 49.8125 -1.421875 42 -1.421875 
Q 24.90625 -1.421875 15.25 8.5625 
Q 5.609375 18.5625 5.609375 36.375 
Q 5.609375 54.25 15.25 64.234375 
Q 24.90625 74.21875 42 74.21875 
Q 49.125 74.21875 55.546875 72.453125 
Q 61.96875 70.703125 67.390625 67.28125 
L 67.390625 56.78125 
Q 61.921875 61.421875 55.765625 63.765625 
Q 49.609375 66.109375 42.828125 66.109375 
Q 29.4375 66.109375 22.71875 58.640625 
Q 16.015625 51.171875 16.015625 36.375 
Q 16.015625 21.625 22.71875 14.15625 
Q 29.4375 6.6875 42.828125 6.6875 
Q 48.046875 6.6875 52.140625 7.59375 
Q 56.25 8.5 59.515625 10.40625 
z
" id="DejaVuSans-47"/>
     <path d="M -0.296875 72.90625 
L 61.375 72.90625 
L 61.375 64.59375 
L 35.5 64.59375 
L 35.5 0 
L 25.59375 0 
L 25.59375 64.59375 
L -0.296875 64.59375 
z
" id="DejaVuSans-54"/>
     <path d="M 5.609375 72.90625 
L 62.890625 72.90625 
L 62.890625 65.375 
L 16.796875 8.296875 
L 64.015625 8.296875 
L 64.015625 0 
L 4.5 0 
L 4.5 7.515625 
L 50.59375 64.59375 
L 5.609375 64.59375 
z
" id="DejaVuSans-5a"/>
     <path d="M 19.671875 64.796875 
L 19.671875 37.40625 
L 32.078125 37.40625 
Q 38.96875 37.40625 42.71875 40.96875 
Q 46.484375 44.53125 46.484375 51.125 
Q 46.484375 57.671875 42.71875 61.234375 
Q 38.96875 64.796875 32.078125 64.796875 
z
M 9.8125 72.90625 
L 32.078125 72.90625 
Q 44.34375 72.90625 50.609375 67.359375 
Q 56.890625 61.8125 56.890625 51.125 
Q 56.890625 40.328125 50.609375 34.8125 
Q 44.34375 29.296875 32.078125 29.296875 
L 19.671875 29.296875 
L 19.671875 0 
L 9.8125 0 
z
" id="DejaVuSans-50"/>
     <path d="M 30.609375 48.390625 
Q 23.390625 48.390625 19.1875 42.75 
Q 14.984375 37.109375 14.984375 27.296875 
Q 14.984375 17.484375 19.15625 11.84375 
Q 23.34375 6.203125 30.609375 6.203125 
Q 37.796875 6.203125 41.984375 11.859375 
Q 46.1875 17.53125 46.1875 27.296875 
Q 46.1875 37.015625 41.984375 42.703125 
Q 37.796875 48.390625 30.609375 48.390625 
z
M 30.609375 56 
Q 42.328125 56 49.015625 48.375 
Q 55.71875 40.765625 55.71875 27.296875 
Q 55.71875 13.875 49.015625 6.21875 
Q 42.328125 -1.421875 30.609375 -1.421875 
Q 18.84375 -1.421875 12.171875 6.21875 
Q 5.515625 13.875 5.515625 27.296875 
Q 5.515625 40.765625 12.171875 48.375 
Q 18.84375 56 30.609375 56 
z
" id="DejaVuSans-6f"/>
    </defs>
    <g transform="translate(179.865938 35.472)scale(0.12 -0.12)">
     <use xlink:href="#DejaVuSans-52"/>
     <use x="69.419922" xlink:href="#DejaVuSans-65"/>
     <use x="130.943359" xlink:href="#DejaVuSans-6c"/>
     <use x="158.726562" xlink:href="#DejaVuSans-20"/>
     <use x="190.513672" xlink:href="#DejaVuSans-47"/>
     <use x="268.003906" xlink:href="#DejaVuSans-74"/>
     <use x="307.212891" xlink:href="#DejaVuSans-20"/>
     <use x="339" xlink:href="#DejaVuSans-54"/>
     <use x="399.865234" xlink:href="#DejaVuSans-72"/>
     <use x="440.978516" xlink:href="#DejaVuSans-61"/>
     <use x="502.257812" xlink:href="#DejaVuSans-6e"/>
     <use x="565.636719" xlink:href="#DejaVuSans-73"/>
     <use x="617.736328" xlink:href="#DejaVuSans-20"/>
     <use x="649.523438" xlink:href="#DejaVuSans-5a"/>
     <use x="718.029297" xlink:href="#DejaVuSans-20"/>
     <use x="749.816406" xlink:href="#DejaVuSans-50"/>
     <use x="810.119141" xlink:href="#DejaVuSans-6c"/>
     <use x="837.902344" xlink:href="#DejaVuSans-6f"/>
     <use x="899.083984" xlink:href="#DejaVuSans-74"/>
    </g>
   </g>
  </g>
 </g>
 <defs>
  <clipPath id="p7bdf22e8ec">
   <rect height="266.112" width="357.12" x="57.6" y="41.472"/>
  </clipPath>
 </defs>
</svg>
