<?xml version="1.0" encoding="utf-8" standalone="no"?>
<!DOCTYPE svg PUBLIC "-//W3C//DTD SVG 1.1//EN"
  "http://www.w3.org/Graphics/SVG/1.1/DTD/svg11.dtd">
<!-- Created with matplotlib (http://matplotlib.org/) -->
<svg height="345.6pt" version="1.1" viewBox="0 0 460.8 345.6" width="460.8pt" xmlns="http://www.w3.org/2000/svg" xmlns:xlink="http://www.w3.org/1999/xlink">
 <defs>
  <style type="text/css">
*{stroke-linecap:butt;stroke-linejoin:round;}
  </style>
 </defs>
 <g id="figure_1">
  <g id="patch_1">
   <path d="M 0 345.6 
L 460.8 345.6 
L 460.8 0 
L 0 0 
z
" style="fill:#ffffff;"/>
  </g>
  <g id="axes_1">
   <g id="patch_2">
    <path d="M 57.6 307.584 
L 414.72 307.584 
L 414.72 41.472 
L 57.6 41.472 
z
" style="fill:#ffffff;"/>
   </g>
   <g id="matplotlib.axis_1">
    <g id="xtick_1">
     <g id="line2d_1">
      <path clip-path="url(#pda286ce1eb)" d="M 69.69601 307.584 
L 69.69601 41.472 
" style="fill:none;stroke:#b0b0b0;stroke-linecap:square;stroke-width:0.8;"/>
     </g>
     <g id="line2d_2">
      <defs>
       <path d="M 0 0 
L 0 3.5 
" id="m3de19272f0" style="stroke:#000000;stroke-width:0.8;"/>
      </defs>
      <g>
       <use style="stroke:#000000;stroke-width:0.8;" x="69.69601" xlink:href="#m3de19272f0" y="307.584"/>
      </g>
     </g>
     <g id="text_1">
      <!-- 99540 -->
      <defs>
       <path d="M 10.984375 1.515625 
L 10.984375 10.5 
Q 14.703125 8.734375 18.5 7.8125 
Q 22.3125 6.890625 25.984375 6.890625 
Q 35.75 6.890625 40.890625 13.453125 
Q 46.046875 20.015625 46.78125 33.40625 
Q 43.953125 29.203125 39.59375 26.953125 
Q 35.25 24.703125 29.984375 24.703125 
Q 19.046875 24.703125 12.671875 31.3125 
Q 6.296875 37.9375 6.296875 49.421875 
Q 6.296875 60.640625 12.9375 67.421875 
Q 19.578125 74.21875 30.609375 74.21875 
Q 43.265625 74.21875 49.921875 64.515625 
Q 56.59375 54.828125 56.59375 36.375 
Q 56.59375 19.140625 48.40625 8.859375 
Q 40.234375 -1.421875 26.421875 -1.421875 
Q 22.703125 -1.421875 18.890625 -0.6875 
Q 15.09375 0.046875 10.984375 1.515625 
z
M 30.609375 32.421875 
Q 37.25 32.421875 41.125 36.953125 
Q 45.015625 41.5 45.015625 49.421875 
Q 45.015625 57.28125 41.125 61.84375 
Q 37.25 66.40625 30.609375 66.40625 
Q 23.96875 66.40625 20.09375 61.84375 
Q 16.21875 57.28125 16.21875 49.421875 
Q 16.21875 41.5 20.09375 36.953125 
Q 23.96875 32.421875 30.609375 32.421875 
z
" id="DejaVuSans-39"/>
       <path d="M 10.796875 72.90625 
L 49.515625 72.90625 
L 49.515625 64.59375 
L 19.828125 64.59375 
L 19.828125 46.734375 
Q 21.96875 47.46875 24.109375 47.828125 
Q 26.265625 48.1875 28.421875 48.1875 
Q 40.625 48.1875 47.75 41.5 
Q 54.890625 34.8125 54.890625 23.390625 
Q 54.890625 11.625 47.5625 5.09375 
Q 40.234375 -1.421875 26.90625 -1.421875 
Q 22.3125 -1.421875 17.546875 -0.640625 
Q 12.796875 0.140625 7.71875 1.703125 
L 7.71875 11.625 
Q 12.109375 9.234375 16.796875 8.0625 
Q 21.484375 6.890625 26.703125 6.890625 
Q 35.15625 6.890625 40.078125 11.328125 
Q 45.015625 15.765625 45.015625 23.390625 
Q 45.015625 31 40.078125 35.4375 
Q 35.15625 39.890625 26.703125 39.890625 
Q 22.75 39.890625 18.8125 39.015625 
Q 14.890625 38.140625 10.796875 36.28125 
z
" id="DejaVuSans-35"/>
       <path d="M 37.796875 64.3125 
L 12.890625 25.390625 
L 37.796875 25.390625 
z
M 35.203125 72.90625 
L 47.609375 72.90625 
L 47.609375 25.390625 
L 58.015625 25.390625 
L 58.015625 17.1875 
L 47.609375 17.1875 
L 47.609375 0 
L 37.796875 0 
L 37.796875 17.1875 
L 4.890625 17.1875 
L 4.890625 26.703125 
z
" id="DejaVuSans-34"/>
       <path d="M 31.78125 66.40625 
Q 24.171875 66.40625 20.328125 58.90625 
Q 16.5 51.421875 16.5 36.375 
Q 16.5 21.390625 20.328125 13.890625 
Q 24.171875 6.390625 31.78125 6.390625 
Q 39.453125 6.390625 43.28125 13.890625 
Q 47.125 21.390625 47.125 36.375 
Q 47.125 51.421875 43.28125 58.90625 
Q 39.453125 66.40625 31.78125 66.40625 
z
M 31.78125 74.21875 
Q 44.046875 74.21875 50.515625 64.515625 
Q 56.984375 54.828125 56.984375 36.375 
Q 56.984375 17.96875 50.515625 8.265625 
Q 44.046875 -1.421875 31.78125 -1.421875 
Q 19.53125 -1.421875 13.0625 8.265625 
Q 6.59375 17.96875 6.59375 36.375 
Q 6.59375 54.828125 13.0625 64.515625 
Q 19.53125 74.21875 31.78125 74.21875 
z
" id="DejaVuSans-30"/>
      </defs>
      <g transform="translate(53.78976 322.182437)scale(0.1 -0.1)">
       <use xlink:href="#DejaVuSans-39"/>
       <use x="63.623047" xlink:href="#DejaVuSans-39"/>
       <use x="127.246094" xlink:href="#DejaVuSans-35"/>
       <use x="190.869141" xlink:href="#DejaVuSans-34"/>
       <use x="254.492188" xlink:href="#DejaVuSans-30"/>
      </g>
     </g>
    </g>
    <g id="xtick_2">
     <g id="line2d_3">
      <path clip-path="url(#pda286ce1eb)" d="M 115.793899 307.584 
L 115.793899 41.472 
" style="fill:none;stroke:#b0b0b0;stroke-linecap:square;stroke-width:0.8;"/>
     </g>
     <g id="line2d_4">
      <g>
       <use style="stroke:#000000;stroke-width:0.8;" x="115.793899" xlink:href="#m3de19272f0" y="307.584"/>
      </g>
     </g>
     <g id="text_2">
      <!-- 99560 -->
      <defs>
       <path d="M 33.015625 40.375 
Q 26.375 40.375 22.484375 35.828125 
Q 18.609375 31.296875 18.609375 23.390625 
Q 18.609375 15.53125 22.484375 10.953125 
Q 26.375 6.390625 33.015625 6.390625 
Q 39.65625 6.390625 43.53125 10.953125 
Q 47.40625 15.53125 47.40625 23.390625 
Q 47.40625 31.296875 43.53125 35.828125 
Q 39.65625 40.375 33.015625 40.375 
z
M 52.59375 71.296875 
L 52.59375 62.3125 
Q 48.875 64.0625 45.09375 64.984375 
Q 41.3125 65.921875 37.59375 65.921875 
Q 27.828125 65.921875 22.671875 59.328125 
Q 17.53125 52.734375 16.796875 39.40625 
Q 19.671875 43.65625 24.015625 45.921875 
Q 28.375 48.1875 33.59375 48.1875 
Q 44.578125 48.1875 50.953125 41.515625 
Q 57.328125 34.859375 57.328125 23.390625 
Q 57.328125 12.15625 50.6875 5.359375 
Q 44.046875 -1.421875 33.015625 -1.421875 
Q 20.359375 -1.421875 13.671875 8.265625 
Q 6.984375 17.96875 6.984375 36.375 
Q 6.984375 53.65625 15.1875 63.9375 
Q 23.390625 74.21875 37.203125 74.21875 
Q 40.921875 74.21875 44.703125 73.484375 
Q 48.484375 72.75 52.59375 71.296875 
z
" id="DejaVuSans-36"/>
      </defs>
      <g transform="translate(99.887649 322.182437)scale(0.1 -0.1)">
       <use xlink:href="#DejaVuSans-39"/>
       <use x="63.623047" xlink:href="#DejaVuSans-39"/>
       <use x="127.246094" xlink:href="#DejaVuSans-35"/>
       <use x="190.869141" xlink:href="#DejaVuSans-36"/>
       <use x="254.492188" xlink:href="#DejaVuSans-30"/>
      </g>
     </g>
    </g>
    <g id="xtick_3">
     <g id="line2d_5">
      <path clip-path="url(#pda286ce1eb)" d="M 161.891788 307.584 
L 161.891788 41.472 
" style="fill:none;stroke:#b0b0b0;stroke-linecap:square;stroke-width:0.8;"/>
     </g>
     <g id="line2d_6">
      <g>
       <use style="stroke:#000000;stroke-width:0.8;" x="161.891788" xlink:href="#m3de19272f0" y="307.584"/>
      </g>
     </g>
     <g id="text_3">
      <!-- 99580 -->
      <defs>
       <path d="M 31.78125 34.625 
Q 24.75 34.625 20.71875 30.859375 
Q 16.703125 27.09375 16.703125 20.515625 
Q 16.703125 13.921875 20.71875 10.15625 
Q 24.75 6.390625 31.78125 6.390625 
Q 38.8125 6.390625 42.859375 10.171875 
Q 46.921875 13.96875 46.921875 20.515625 
Q 46.921875 27.09375 42.890625 30.859375 
Q 38.875 34.625 31.78125 34.625 
z
M 21.921875 38.8125 
Q 15.578125 40.375 12.03125 44.71875 
Q 8.5 49.078125 8.5 55.328125 
Q 8.5 64.0625 14.71875 69.140625 
Q 20.953125 74.21875 31.78125 74.21875 
Q 42.671875 74.21875 48.875 69.140625 
Q 55.078125 64.0625 55.078125 55.328125 
Q 55.078125 49.078125 51.53125 44.71875 
Q 48 40.375 41.703125 38.8125 
Q 48.828125 37.15625 52.796875 32.3125 
Q 56.78125 27.484375 56.78125 20.515625 
Q 56.78125 9.90625 50.3125 4.234375 
Q 43.84375 -1.421875 31.78125 -1.421875 
Q 19.734375 -1.421875 13.25 4.234375 
Q 6.78125 9.90625 6.78125 20.515625 
Q 6.78125 27.484375 10.78125 32.3125 
Q 14.796875 37.15625 21.921875 38.8125 
z
M 18.3125 54.390625 
Q 18.3125 48.734375 21.84375 45.5625 
Q 25.390625 42.390625 31.78125 42.390625 
Q 38.140625 42.390625 41.71875 45.5625 
Q 45.3125 48.734375 45.3125 54.390625 
Q 45.3125 60.0625 41.71875 63.234375 
Q 38.140625 66.40625 31.78125 66.40625 
Q 25.390625 66.40625 21.84375 63.234375 
Q 18.3125 60.0625 18.3125 54.390625 
z
" id="DejaVuSans-38"/>
      </defs>
      <g transform="translate(145.985538 322.182437)scale(0.1 -0.1)">
       <use xlink:href="#DejaVuSans-39"/>
       <use x="63.623047" xlink:href="#DejaVuSans-39"/>
       <use x="127.246094" xlink:href="#DejaVuSans-35"/>
       <use x="190.869141" xlink:href="#DejaVuSans-38"/>
       <use x="254.492188" xlink:href="#DejaVuSans-30"/>
      </g>
     </g>
    </g>
    <g id="xtick_4">
     <g id="line2d_7">
      <path clip-path="url(#pda286ce1eb)" d="M 207.989677 307.584 
L 207.989677 41.472 
" style="fill:none;stroke:#b0b0b0;stroke-linecap:square;stroke-width:0.8;"/>
     </g>
     <g id="line2d_8">
      <g>
       <use style="stroke:#000000;stroke-width:0.8;" x="207.989677" xlink:href="#m3de19272f0" y="307.584"/>
      </g>
     </g>
     <g id="text_4">
      <!-- 99600 -->
      <g transform="translate(192.083427 322.182437)scale(0.1 -0.1)">
       <use xlink:href="#DejaVuSans-39"/>
       <use x="63.623047" xlink:href="#DejaVuSans-39"/>
       <use x="127.246094" xlink:href="#DejaVuSans-36"/>
       <use x="190.869141" xlink:href="#DejaVuSans-30"/>
       <use x="254.492188" xlink:href="#DejaVuSans-30"/>
      </g>
     </g>
    </g>
    <g id="xtick_5">
     <g id="line2d_9">
      <path clip-path="url(#pda286ce1eb)" d="M 254.087566 307.584 
L 254.087566 41.472 
" style="fill:none;stroke:#b0b0b0;stroke-linecap:square;stroke-width:0.8;"/>
     </g>
     <g id="line2d_10">
      <g>
       <use style="stroke:#000000;stroke-width:0.8;" x="254.087566" xlink:href="#m3de19272f0" y="307.584"/>
      </g>
     </g>
     <g id="text_5">
      <!-- 99620 -->
      <defs>
       <path d="M 19.1875 8.296875 
L 53.609375 8.296875 
L 53.609375 0 
L 7.328125 0 
L 7.328125 8.296875 
Q 12.9375 14.109375 22.625 23.890625 
Q 32.328125 33.6875 34.8125 36.53125 
Q 39.546875 41.84375 41.421875 45.53125 
Q 43.3125 49.21875 43.3125 52.78125 
Q 43.3125 58.59375 39.234375 62.25 
Q 35.15625 65.921875 28.609375 65.921875 
Q 23.96875 65.921875 18.8125 64.3125 
Q 13.671875 62.703125 7.8125 59.421875 
L 7.8125 69.390625 
Q 13.765625 71.78125 18.9375 73 
Q 24.125 74.21875 28.421875 74.21875 
Q 39.75 74.21875 46.484375 68.546875 
Q 53.21875 62.890625 53.21875 53.421875 
Q 53.21875 48.921875 51.53125 44.890625 
Q 49.859375 40.875 45.40625 35.40625 
Q 44.1875 33.984375 37.640625 27.21875 
Q 31.109375 20.453125 19.1875 8.296875 
z
" id="DejaVuSans-32"/>
      </defs>
      <g transform="translate(238.181316 322.182437)scale(0.1 -0.1)">
       <use xlink:href="#DejaVuSans-39"/>
       <use x="63.623047" xlink:href="#DejaVuSans-39"/>
       <use x="127.246094" xlink:href="#DejaVuSans-36"/>
       <use x="190.869141" xlink:href="#DejaVuSans-32"/>
       <use x="254.492188" xlink:href="#DejaVuSans-30"/>
      </g>
     </g>
    </g>
    <g id="xtick_6">
     <g id="line2d_11">
      <path clip-path="url(#pda286ce1eb)" d="M 300.185455 307.584 
L 300.185455 41.472 
" style="fill:none;stroke:#b0b0b0;stroke-linecap:square;stroke-width:0.8;"/>
     </g>
     <g id="line2d_12">
      <g>
       <use style="stroke:#000000;stroke-width:0.8;" x="300.185455" xlink:href="#m3de19272f0" y="307.584"/>
      </g>
     </g>
     <g id="text_6">
      <!-- 99640 -->
      <g transform="translate(284.279205 322.182437)scale(0.1 -0.1)">
       <use xlink:href="#DejaVuSans-39"/>
       <use x="63.623047" xlink:href="#DejaVuSans-39"/>
       <use x="127.246094" xlink:href="#DejaVuSans-36"/>
       <use x="190.869141" xlink:href="#DejaVuSans-34"/>
       <use x="254.492188" xlink:href="#DejaVuSans-30"/>
      </g>
     </g>
    </g>
    <g id="xtick_7">
     <g id="line2d_13">
      <path clip-path="url(#pda286ce1eb)" d="M 346.283345 307.584 
L 346.283345 41.472 
" style="fill:none;stroke:#b0b0b0;stroke-linecap:square;stroke-width:0.8;"/>
     </g>
     <g id="line2d_14">
      <g>
       <use style="stroke:#000000;stroke-width:0.8;" x="346.283345" xlink:href="#m3de19272f0" y="307.584"/>
      </g>
     </g>
     <g id="text_7">
      <!-- 99660 -->
      <g transform="translate(330.377095 322.182437)scale(0.1 -0.1)">
       <use xlink:href="#DejaVuSans-39"/>
       <use x="63.623047" xlink:href="#DejaVuSans-39"/>
       <use x="127.246094" xlink:href="#DejaVuSans-36"/>
       <use x="190.869141" xlink:href="#DejaVuSans-36"/>
       <use x="254.492188" xlink:href="#DejaVuSans-30"/>
      </g>
     </g>
    </g>
    <g id="xtick_8">
     <g id="line2d_15">
      <path clip-path="url(#pda286ce1eb)" d="M 392.381234 307.584 
L 392.381234 41.472 
" style="fill:none;stroke:#b0b0b0;stroke-linecap:square;stroke-width:0.8;"/>
     </g>
     <g id="line2d_16">
      <g>
       <use style="stroke:#000000;stroke-width:0.8;" x="392.381234" xlink:href="#m3de19272f0" y="307.584"/>
      </g>
     </g>
     <g id="text_8">
      <!-- 99680 -->
      <g transform="translate(376.474984 322.182437)scale(0.1 -0.1)">
       <use xlink:href="#DejaVuSans-39"/>
       <use x="63.623047" xlink:href="#DejaVuSans-39"/>
       <use x="127.246094" xlink:href="#DejaVuSans-36"/>
       <use x="190.869141" xlink:href="#DejaVuSans-38"/>
       <use x="254.492188" xlink:href="#DejaVuSans-30"/>
      </g>
     </g>
    </g>
    <g id="xtick_9">
     <g id="line2d_17">
      <path clip-path="url(#pda286ce1eb)" d="M 58.171537 307.584 
L 58.171537 41.472 
" style="fill:none;stroke:#b0b0b0;stroke-linecap:square;stroke-width:0.8;"/>
     </g>
     <g id="line2d_18">
      <defs>
       <path d="M 0 0 
L 0 2 
" id="mfc41966866" style="stroke:#000000;stroke-width:0.6;"/>
      </defs>
      <g>
       <use style="stroke:#000000;stroke-width:0.6;" x="58.171537" xlink:href="#mfc41966866" y="307.584"/>
      </g>
     </g>
    </g>
    <g id="xtick_10">
     <g id="line2d_19">
      <path clip-path="url(#pda286ce1eb)" d="M 81.220482 307.584 
L 81.220482 41.472 
" style="fill:none;stroke:#b0b0b0;stroke-linecap:square;stroke-width:0.8;"/>
     </g>
     <g id="line2d_20">
      <g>
       <use style="stroke:#000000;stroke-width:0.6;" x="81.220482" xlink:href="#mfc41966866" y="307.584"/>
      </g>
     </g>
    </g>
    <g id="xtick_11">
     <g id="line2d_21">
      <path clip-path="url(#pda286ce1eb)" d="M 92.744954 307.584 
L 92.744954 41.472 
" style="fill:none;stroke:#b0b0b0;stroke-linecap:square;stroke-width:0.8;"/>
     </g>
     <g id="line2d_22">
      <g>
       <use style="stroke:#000000;stroke-width:0.6;" x="92.744954" xlink:href="#mfc41966866" y="307.584"/>
      </g>
     </g>
    </g>
    <g id="xtick_12">
     <g id="line2d_23">
      <path clip-path="url(#pda286ce1eb)" d="M 104.269427 307.584 
L 104.269427 41.472 
" style="fill:none;stroke:#b0b0b0;stroke-linecap:square;stroke-width:0.8;"/>
     </g>
     <g id="line2d_24">
      <g>
       <use style="stroke:#000000;stroke-width:0.6;" x="104.269427" xlink:href="#mfc41966866" y="307.584"/>
      </g>
     </g>
    </g>
    <g id="xtick_13">
     <g id="line2d_25">
      <path clip-path="url(#pda286ce1eb)" d="M 127.318371 307.584 
L 127.318371 41.472 
" style="fill:none;stroke:#b0b0b0;stroke-linecap:square;stroke-width:0.8;"/>
     </g>
     <g id="line2d_26">
      <g>
       <use style="stroke:#000000;stroke-width:0.6;" x="127.318371" xlink:href="#mfc41966866" y="307.584"/>
      </g>
     </g>
    </g>
    <g id="xtick_14">
     <g id="line2d_27">
      <path clip-path="url(#pda286ce1eb)" d="M 138.842843 307.584 
L 138.842843 41.472 
" style="fill:none;stroke:#b0b0b0;stroke-linecap:square;stroke-width:0.8;"/>
     </g>
     <g id="line2d_28">
      <g>
       <use style="stroke:#000000;stroke-width:0.6;" x="138.842843" xlink:href="#mfc41966866" y="307.584"/>
      </g>
     </g>
    </g>
    <g id="xtick_15">
     <g id="line2d_29">
      <path clip-path="url(#pda286ce1eb)" d="M 150.367316 307.584 
L 150.367316 41.472 
" style="fill:none;stroke:#b0b0b0;stroke-linecap:square;stroke-width:0.8;"/>
     </g>
     <g id="line2d_30">
      <g>
       <use style="stroke:#000000;stroke-width:0.6;" x="150.367316" xlink:href="#mfc41966866" y="307.584"/>
      </g>
     </g>
    </g>
    <g id="xtick_16">
     <g id="line2d_31">
      <path clip-path="url(#pda286ce1eb)" d="M 173.41626 307.584 
L 173.41626 41.472 
" style="fill:none;stroke:#b0b0b0;stroke-linecap:square;stroke-width:0.8;"/>
     </g>
     <g id="line2d_32">
      <g>
       <use style="stroke:#000000;stroke-width:0.6;" x="173.41626" xlink:href="#mfc41966866" y="307.584"/>
      </g>
     </g>
    </g>
    <g id="xtick_17">
     <g id="line2d_33">
      <path clip-path="url(#pda286ce1eb)" d="M 184.940733 307.584 
L 184.940733 41.472 
" style="fill:none;stroke:#b0b0b0;stroke-linecap:square;stroke-width:0.8;"/>
     </g>
     <g id="line2d_34">
      <g>
       <use style="stroke:#000000;stroke-width:0.6;" x="184.940733" xlink:href="#mfc41966866" y="307.584"/>
      </g>
     </g>
    </g>
    <g id="xtick_18">
     <g id="line2d_35">
      <path clip-path="url(#pda286ce1eb)" d="M 196.465205 307.584 
L 196.465205 41.472 
" style="fill:none;stroke:#b0b0b0;stroke-linecap:square;stroke-width:0.8;"/>
     </g>
     <g id="line2d_36">
      <g>
       <use style="stroke:#000000;stroke-width:0.6;" x="196.465205" xlink:href="#mfc41966866" y="307.584"/>
      </g>
     </g>
    </g>
    <g id="xtick_19">
     <g id="line2d_37">
      <path clip-path="url(#pda286ce1eb)" d="M 219.514149 307.584 
L 219.514149 41.472 
" style="fill:none;stroke:#b0b0b0;stroke-linecap:square;stroke-width:0.8;"/>
     </g>
     <g id="line2d_38">
      <g>
       <use style="stroke:#000000;stroke-width:0.6;" x="219.514149" xlink:href="#mfc41966866" y="307.584"/>
      </g>
     </g>
    </g>
    <g id="xtick_20">
     <g id="line2d_39">
      <path clip-path="url(#pda286ce1eb)" d="M 231.038622 307.584 
L 231.038622 41.472 
" style="fill:none;stroke:#b0b0b0;stroke-linecap:square;stroke-width:0.8;"/>
     </g>
     <g id="line2d_40">
      <g>
       <use style="stroke:#000000;stroke-width:0.6;" x="231.038622" xlink:href="#mfc41966866" y="307.584"/>
      </g>
     </g>
    </g>
    <g id="xtick_21">
     <g id="line2d_41">
      <path clip-path="url(#pda286ce1eb)" d="M 242.563094 307.584 
L 242.563094 41.472 
" style="fill:none;stroke:#b0b0b0;stroke-linecap:square;stroke-width:0.8;"/>
     </g>
     <g id="line2d_42">
      <g>
       <use style="stroke:#000000;stroke-width:0.6;" x="242.563094" xlink:href="#mfc41966866" y="307.584"/>
      </g>
     </g>
    </g>
    <g id="xtick_22">
     <g id="line2d_43">
      <path clip-path="url(#pda286ce1eb)" d="M 265.612039 307.584 
L 265.612039 41.472 
" style="fill:none;stroke:#b0b0b0;stroke-linecap:square;stroke-width:0.8;"/>
     </g>
     <g id="line2d_44">
      <g>
       <use style="stroke:#000000;stroke-width:0.6;" x="265.612039" xlink:href="#mfc41966866" y="307.584"/>
      </g>
     </g>
    </g>
    <g id="xtick_23">
     <g id="line2d_45">
      <path clip-path="url(#pda286ce1eb)" d="M 277.136511 307.584 
L 277.136511 41.472 
" style="fill:none;stroke:#b0b0b0;stroke-linecap:square;stroke-width:0.8;"/>
     </g>
     <g id="line2d_46">
      <g>
       <use style="stroke:#000000;stroke-width:0.6;" x="277.136511" xlink:href="#mfc41966866" y="307.584"/>
      </g>
     </g>
    </g>
    <g id="xtick_24">
     <g id="line2d_47">
      <path clip-path="url(#pda286ce1eb)" d="M 288.660983 307.584 
L 288.660983 41.472 
" style="fill:none;stroke:#b0b0b0;stroke-linecap:square;stroke-width:0.8;"/>
     </g>
     <g id="line2d_48">
      <g>
       <use style="stroke:#000000;stroke-width:0.6;" x="288.660983" xlink:href="#mfc41966866" y="307.584"/>
      </g>
     </g>
    </g>
    <g id="xtick_25">
     <g id="line2d_49">
      <path clip-path="url(#pda286ce1eb)" d="M 311.709928 307.584 
L 311.709928 41.472 
" style="fill:none;stroke:#b0b0b0;stroke-linecap:square;stroke-width:0.8;"/>
     </g>
     <g id="line2d_50">
      <g>
       <use style="stroke:#000000;stroke-width:0.6;" x="311.709928" xlink:href="#mfc41966866" y="307.584"/>
      </g>
     </g>
    </g>
    <g id="xtick_26">
     <g id="line2d_51">
      <path clip-path="url(#pda286ce1eb)" d="M 323.2344 307.584 
L 323.2344 41.472 
" style="fill:none;stroke:#b0b0b0;stroke-linecap:square;stroke-width:0.8;"/>
     </g>
     <g id="line2d_52">
      <g>
       <use style="stroke:#000000;stroke-width:0.6;" x="323.2344" xlink:href="#mfc41966866" y="307.584"/>
      </g>
     </g>
    </g>
    <g id="xtick_27">
     <g id="line2d_53">
      <path clip-path="url(#pda286ce1eb)" d="M 334.758872 307.584 
L 334.758872 41.472 
" style="fill:none;stroke:#b0b0b0;stroke-linecap:square;stroke-width:0.8;"/>
     </g>
     <g id="line2d_54">
      <g>
       <use style="stroke:#000000;stroke-width:0.6;" x="334.758872" xlink:href="#mfc41966866" y="307.584"/>
      </g>
     </g>
    </g>
    <g id="xtick_28">
     <g id="line2d_55">
      <path clip-path="url(#pda286ce1eb)" d="M 357.807817 307.584 
L 357.807817 41.472 
" style="fill:none;stroke:#b0b0b0;stroke-linecap:square;stroke-width:0.8;"/>
     </g>
     <g id="line2d_56">
      <g>
       <use style="stroke:#000000;stroke-width:0.6;" x="357.807817" xlink:href="#mfc41966866" y="307.584"/>
      </g>
     </g>
    </g>
    <g id="xtick_29">
     <g id="line2d_57">
      <path clip-path="url(#pda286ce1eb)" d="M 369.332289 307.584 
L 369.332289 41.472 
" style="fill:none;stroke:#b0b0b0;stroke-linecap:square;stroke-width:0.8;"/>
     </g>
     <g id="line2d_58">
      <g>
       <use style="stroke:#000000;stroke-width:0.6;" x="369.332289" xlink:href="#mfc41966866" y="307.584"/>
      </g>
     </g>
    </g>
    <g id="xtick_30">
     <g id="line2d_59">
      <path clip-path="url(#pda286ce1eb)" d="M 380.856762 307.584 
L 380.856762 41.472 
" style="fill:none;stroke:#b0b0b0;stroke-linecap:square;stroke-width:0.8;"/>
     </g>
     <g id="line2d_60">
      <g>
       <use style="stroke:#000000;stroke-width:0.6;" x="380.856762" xlink:href="#mfc41966866" y="307.584"/>
      </g>
     </g>
    </g>
    <g id="xtick_31">
     <g id="line2d_61">
      <path clip-path="url(#pda286ce1eb)" d="M 403.905706 307.584 
L 403.905706 41.472 
" style="fill:none;stroke:#b0b0b0;stroke-linecap:square;stroke-width:0.8;"/>
     </g>
     <g id="line2d_62">
      <g>
       <use style="stroke:#000000;stroke-width:0.6;" x="403.905706" xlink:href="#mfc41966866" y="307.584"/>
      </g>
     </g>
    </g>
    <g id="text_9">
     <!-- frame # [] -->
     <defs>
      <path d="M 37.109375 75.984375 
L 37.109375 68.5 
L 28.515625 68.5 
Q 23.6875 68.5 21.796875 66.546875 
Q 19.921875 64.59375 19.921875 59.515625 
L 19.921875 54.6875 
L 34.71875 54.6875 
L 34.71875 47.703125 
L 19.921875 47.703125 
L 19.921875 0 
L 10.890625 0 
L 10.890625 47.703125 
L 2.296875 47.703125 
L 2.296875 54.6875 
L 10.890625 54.6875 
L 10.890625 58.5 
Q 10.890625 67.625 15.140625 71.796875 
Q 19.390625 75.984375 28.609375 75.984375 
z
" id="DejaVuSans-66"/>
      <path d="M 41.109375 46.296875 
Q 39.59375 47.171875 37.8125 47.578125 
Q 36.03125 48 33.890625 48 
Q 26.265625 48 22.1875 43.046875 
Q 18.109375 38.09375 18.109375 28.8125 
L 18.109375 0 
L 9.078125 0 
L 9.078125 54.6875 
L 18.109375 54.6875 
L 18.109375 46.1875 
Q 20.953125 51.171875 25.484375 53.578125 
Q 30.03125 56 36.53125 56 
Q 37.453125 56 38.578125 55.875 
Q 39.703125 55.765625 41.0625 55.515625 
z
" id="DejaVuSans-72"/>
      <path d="M 34.28125 27.484375 
Q 23.390625 27.484375 19.1875 25 
Q 14.984375 22.515625 14.984375 16.5 
Q 14.984375 11.71875 18.140625 8.90625 
Q 21.296875 6.109375 26.703125 6.109375 
Q 34.1875 6.109375 38.703125 11.40625 
Q 43.21875 16.703125 43.21875 25.484375 
L 43.21875 27.484375 
z
M 52.203125 31.203125 
L 52.203125 0 
L 43.21875 0 
L 43.21875 8.296875 
Q 40.140625 3.328125 35.546875 0.953125 
Q 30.953125 -1.421875 24.3125 -1.421875 
Q 15.921875 -1.421875 10.953125 3.296875 
Q 6 8.015625 6 15.921875 
Q 6 25.140625 12.171875 29.828125 
Q 18.359375 34.515625 30.609375 34.515625 
L 43.21875 34.515625 
L 43.21875 35.40625 
Q 43.21875 41.609375 39.140625 45 
Q 35.0625 48.390625 27.6875 48.390625 
Q 23 48.390625 18.546875 47.265625 
Q 14.109375 46.140625 10.015625 43.890625 
L 10.015625 52.203125 
Q 14.9375 54.109375 19.578125 55.046875 
Q 24.21875 56 28.609375 56 
Q 40.484375 56 46.34375 49.84375 
Q 52.203125 43.703125 52.203125 31.203125 
z
" id="DejaVuSans-61"/>
      <path d="M 52 44.1875 
Q 55.375 50.25 60.0625 53.125 
Q 64.75 56 71.09375 56 
Q 79.640625 56 84.28125 50.015625 
Q 88.921875 44.046875 88.921875 33.015625 
L 88.921875 0 
L 79.890625 0 
L 79.890625 32.71875 
Q 79.890625 40.578125 77.09375 44.375 
Q 74.3125 48.1875 68.609375 48.1875 
Q 61.625 48.1875 57.5625 43.546875 
Q 53.515625 38.921875 53.515625 30.90625 
L 53.515625 0 
L 44.484375 0 
L 44.484375 32.71875 
Q 44.484375 40.625 41.703125 44.40625 
Q 38.921875 48.1875 33.109375 48.1875 
Q 26.21875 48.1875 22.15625 43.53125 
Q 18.109375 38.875 18.109375 30.90625 
L 18.109375 0 
L 9.078125 0 
L 9.078125 54.6875 
L 18.109375 54.6875 
L 18.109375 46.1875 
Q 21.1875 51.21875 25.484375 53.609375 
Q 29.78125 56 35.6875 56 
Q 41.65625 56 45.828125 52.96875 
Q 50 49.953125 52 44.1875 
z
" id="DejaVuSans-6d"/>
      <path d="M 56.203125 29.59375 
L 56.203125 25.203125 
L 14.890625 25.203125 
Q 15.484375 15.921875 20.484375 11.0625 
Q 25.484375 6.203125 34.421875 6.203125 
Q 39.59375 6.203125 44.453125 7.46875 
Q 49.3125 8.734375 54.109375 11.28125 
L 54.109375 2.78125 
Q 49.265625 0.734375 44.1875 -0.34375 
Q 39.109375 -1.421875 33.890625 -1.421875 
Q 20.796875 -1.421875 13.15625 6.1875 
Q 5.515625 13.8125 5.515625 26.8125 
Q 5.515625 40.234375 12.765625 48.109375 
Q 20.015625 56 32.328125 56 
Q 43.359375 56 49.78125 48.890625 
Q 56.203125 41.796875 56.203125 29.59375 
z
M 47.21875 32.234375 
Q 47.125 39.59375 43.09375 43.984375 
Q 39.0625 48.390625 32.421875 48.390625 
Q 24.90625 48.390625 20.390625 44.140625 
Q 15.875 39.890625 15.1875 32.171875 
z
" id="DejaVuSans-65"/>
      <path id="DejaVuSans-20"/>
      <path d="M 51.125 44 
L 36.921875 44 
L 32.8125 27.6875 
L 47.125 27.6875 
z
M 43.796875 71.78125 
L 38.71875 51.515625 
L 52.984375 51.515625 
L 58.109375 71.78125 
L 65.921875 71.78125 
L 60.890625 51.515625 
L 76.125 51.515625 
L 76.125 44 
L 58.984375 44 
L 54.984375 27.6875 
L 70.515625 27.6875 
L 70.515625 20.21875 
L 53.078125 20.21875 
L 48 0 
L 40.1875 0 
L 45.21875 20.21875 
L 30.90625 20.21875 
L 25.875 0 
L 18.015625 0 
L 23.09375 20.21875 
L 7.71875 20.21875 
L 7.71875 27.6875 
L 24.90625 27.6875 
L 29 44 
L 13.28125 44 
L 13.28125 51.515625 
L 30.90625 51.515625 
L 35.890625 71.78125 
z
" id="DejaVuSans-23"/>
      <path d="M 8.59375 75.984375 
L 29.296875 75.984375 
L 29.296875 69 
L 17.578125 69 
L 17.578125 -6.203125 
L 29.296875 -6.203125 
L 29.296875 -13.1875 
L 8.59375 -13.1875 
z
" id="DejaVuSans-5b"/>
      <path d="M 30.421875 75.984375 
L 30.421875 -13.1875 
L 9.71875 -13.1875 
L 9.71875 -6.203125 
L 21.390625 -6.203125 
L 21.390625 69 
L 9.71875 69 
L 9.71875 75.984375 
z
" id="DejaVuSans-5d"/>
     </defs>
     <g transform="translate(210.063906 335.860562)scale(0.1 -0.1)">
      <use xlink:href="#DejaVuSans-66"/>
      <use x="35.205078" xlink:href="#DejaVuSans-72"/>
      <use x="76.318359" xlink:href="#DejaVuSans-61"/>
      <use x="137.597656" xlink:href="#DejaVuSans-6d"/>
      <use x="235.009766" xlink:href="#DejaVuSans-65"/>
      <use x="296.533203" xlink:href="#DejaVuSans-20"/>
      <use x="328.320312" xlink:href="#DejaVuSans-23"/>
      <use x="412.109375" xlink:href="#DejaVuSans-20"/>
      <use x="443.896484" xlink:href="#DejaVuSans-5b"/>
      <use x="482.910156" xlink:href="#DejaVuSans-5d"/>
     </g>
    </g>
   </g>
   <g id="matplotlib.axis_2">
    <g id="ytick_1">
     <g id="line2d_63">
      <path clip-path="url(#pda286ce1eb)" d="M 57.6 285.808281 
L 414.72 285.808281 
" style="fill:none;stroke:#b0b0b0;stroke-linecap:square;stroke-width:0.8;"/>
     </g>
     <g id="line2d_64">
      <defs>
       <path d="M 0 0 
L -3.5 0 
" id="m8bc76b3845" style="stroke:#000000;stroke-width:0.8;"/>
      </defs>
      <g>
       <use style="stroke:#000000;stroke-width:0.8;" x="57.6" xlink:href="#m8bc76b3845" y="285.808281"/>
      </g>
     </g>
     <g id="text_10">
      <!-- −0.10 -->
      <defs>
       <path d="M 10.59375 35.5 
L 73.1875 35.5 
L 73.1875 27.203125 
L 10.59375 27.203125 
z
" id="DejaVuSans-2212"/>
       <path d="M 10.6875 12.40625 
L 21 12.40625 
L 21 0 
L 10.6875 0 
z
" id="DejaVuSans-2e"/>
       <path d="M 12.40625 8.296875 
L 28.515625 8.296875 
L 28.515625 63.921875 
L 10.984375 60.40625 
L 10.984375 69.390625 
L 28.421875 72.90625 
L 38.28125 72.90625 
L 38.28125 8.296875 
L 54.390625 8.296875 
L 54.390625 0 
L 12.40625 0 
z
" id="DejaVuSans-31"/>
      </defs>
      <g transform="translate(19.954687 289.6075)scale(0.1 -0.1)">
       <use xlink:href="#DejaVuSans-2212"/>
       <use x="83.789062" xlink:href="#DejaVuSans-30"/>
       <use x="147.412109" xlink:href="#DejaVuSans-2e"/>
       <use x="179.199219" xlink:href="#DejaVuSans-31"/>
       <use x="242.822266" xlink:href="#DejaVuSans-30"/>
      </g>
     </g>
    </g>
    <g id="ytick_2">
     <g id="line2d_65">
      <path clip-path="url(#pda286ce1eb)" d="M 57.6 244.752915 
L 414.72 244.752915 
" style="fill:none;stroke:#b0b0b0;stroke-linecap:square;stroke-width:0.8;"/>
     </g>
     <g id="line2d_66">
      <g>
       <use style="stroke:#000000;stroke-width:0.8;" x="57.6" xlink:href="#m8bc76b3845" y="244.752915"/>
      </g>
     </g>
     <g id="text_11">
      <!-- −0.05 -->
      <g transform="translate(19.954687 248.552134)scale(0.1 -0.1)">
       <use xlink:href="#DejaVuSans-2212"/>
       <use x="83.789062" xlink:href="#DejaVuSans-30"/>
       <use x="147.412109" xlink:href="#DejaVuSans-2e"/>
       <use x="179.199219" xlink:href="#DejaVuSans-30"/>
       <use x="242.822266" xlink:href="#DejaVuSans-35"/>
      </g>
     </g>
    </g>
    <g id="ytick_3">
     <g id="line2d_67">
      <path clip-path="url(#pda286ce1eb)" d="M 57.6 203.697549 
L 414.72 203.697549 
" style="fill:none;stroke:#b0b0b0;stroke-linecap:square;stroke-width:0.8;"/>
     </g>
     <g id="line2d_68">
      <g>
       <use style="stroke:#000000;stroke-width:0.8;" x="57.6" xlink:href="#m8bc76b3845" y="203.697549"/>
      </g>
     </g>
     <g id="text_12">
      <!-- 0.00 -->
      <g transform="translate(28.334375 207.496767)scale(0.1 -0.1)">
       <use xlink:href="#DejaVuSans-30"/>
       <use x="63.623047" xlink:href="#DejaVuSans-2e"/>
       <use x="95.410156" xlink:href="#DejaVuSans-30"/>
       <use x="159.033203" xlink:href="#DejaVuSans-30"/>
      </g>
     </g>
    </g>
    <g id="ytick_4">
     <g id="line2d_69">
      <path clip-path="url(#pda286ce1eb)" d="M 57.6 162.642182 
L 414.72 162.642182 
" style="fill:none;stroke:#b0b0b0;stroke-linecap:square;stroke-width:0.8;"/>
     </g>
     <g id="line2d_70">
      <g>
       <use style="stroke:#000000;stroke-width:0.8;" x="57.6" xlink:href="#m8bc76b3845" y="162.642182"/>
      </g>
     </g>
     <g id="text_13">
      <!-- 0.05 -->
      <g transform="translate(28.334375 166.441401)scale(0.1 -0.1)">
       <use xlink:href="#DejaVuSans-30"/>
       <use x="63.623047" xlink:href="#DejaVuSans-2e"/>
       <use x="95.410156" xlink:href="#DejaVuSans-30"/>
       <use x="159.033203" xlink:href="#DejaVuSans-35"/>
      </g>
     </g>
    </g>
    <g id="ytick_5">
     <g id="line2d_71">
      <path clip-path="url(#pda286ce1eb)" d="M 57.6 121.586816 
L 414.72 121.586816 
" style="fill:none;stroke:#b0b0b0;stroke-linecap:square;stroke-width:0.8;"/>
     </g>
     <g id="line2d_72">
      <g>
       <use style="stroke:#000000;stroke-width:0.8;" x="57.6" xlink:href="#m8bc76b3845" y="121.586816"/>
      </g>
     </g>
     <g id="text_14">
      <!-- 0.10 -->
      <g transform="translate(28.334375 125.386035)scale(0.1 -0.1)">
       <use xlink:href="#DejaVuSans-30"/>
       <use x="63.623047" xlink:href="#DejaVuSans-2e"/>
       <use x="95.410156" xlink:href="#DejaVuSans-31"/>
       <use x="159.033203" xlink:href="#DejaVuSans-30"/>
      </g>
     </g>
    </g>
    <g id="ytick_6">
     <g id="line2d_73">
      <path clip-path="url(#pda286ce1eb)" d="M 57.6 80.53145 
L 414.72 80.53145 
" style="fill:none;stroke:#b0b0b0;stroke-linecap:square;stroke-width:0.8;"/>
     </g>
     <g id="line2d_74">
      <g>
       <use style="stroke:#000000;stroke-width:0.8;" x="57.6" xlink:href="#m8bc76b3845" y="80.53145"/>
      </g>
     </g>
     <g id="text_15">
      <!-- 0.15 -->
      <g transform="translate(28.334375 84.330669)scale(0.1 -0.1)">
       <use xlink:href="#DejaVuSans-30"/>
       <use x="63.623047" xlink:href="#DejaVuSans-2e"/>
       <use x="95.410156" xlink:href="#DejaVuSans-31"/>
       <use x="159.033203" xlink:href="#DejaVuSans-35"/>
      </g>
     </g>
    </g>
    <g id="ytick_7">
     <g id="line2d_75">
      <path clip-path="url(#pda286ce1eb)" d="M 57.6 302.230428 
L 414.72 302.230428 
" style="fill:none;stroke:#b0b0b0;stroke-linecap:square;stroke-width:0.8;"/>
     </g>
     <g id="line2d_76">
      <defs>
       <path d="M 0 0 
L -2 0 
" id="m1434179b34" style="stroke:#000000;stroke-width:0.6;"/>
      </defs>
      <g>
       <use style="stroke:#000000;stroke-width:0.6;" x="57.6" xlink:href="#m1434179b34" y="302.230428"/>
      </g>
     </g>
    </g>
    <g id="ytick_8">
     <g id="line2d_77">
      <path clip-path="url(#pda286ce1eb)" d="M 57.6 294.019354 
L 414.72 294.019354 
" style="fill:none;stroke:#b0b0b0;stroke-linecap:square;stroke-width:0.8;"/>
     </g>
     <g id="line2d_78">
      <g>
       <use style="stroke:#000000;stroke-width:0.6;" x="57.6" xlink:href="#m1434179b34" y="294.019354"/>
      </g>
     </g>
    </g>
    <g id="ytick_9">
     <g id="line2d_79">
      <path clip-path="url(#pda286ce1eb)" d="M 57.6 277.597208 
L 414.72 277.597208 
" style="fill:none;stroke:#b0b0b0;stroke-linecap:square;stroke-width:0.8;"/>
     </g>
     <g id="line2d_80">
      <g>
       <use style="stroke:#000000;stroke-width:0.6;" x="57.6" xlink:href="#m1434179b34" y="277.597208"/>
      </g>
     </g>
    </g>
    <g id="ytick_10">
     <g id="line2d_81">
      <path clip-path="url(#pda286ce1eb)" d="M 57.6 269.386135 
L 414.72 269.386135 
" style="fill:none;stroke:#b0b0b0;stroke-linecap:square;stroke-width:0.8;"/>
     </g>
     <g id="line2d_82">
      <g>
       <use style="stroke:#000000;stroke-width:0.6;" x="57.6" xlink:href="#m1434179b34" y="269.386135"/>
      </g>
     </g>
    </g>
    <g id="ytick_11">
     <g id="line2d_83">
      <path clip-path="url(#pda286ce1eb)" d="M 57.6 261.175061 
L 414.72 261.175061 
" style="fill:none;stroke:#b0b0b0;stroke-linecap:square;stroke-width:0.8;"/>
     </g>
     <g id="line2d_84">
      <g>
       <use style="stroke:#000000;stroke-width:0.6;" x="57.6" xlink:href="#m1434179b34" y="261.175061"/>
      </g>
     </g>
    </g>
    <g id="ytick_12">
     <g id="line2d_85">
      <path clip-path="url(#pda286ce1eb)" d="M 57.6 252.963988 
L 414.72 252.963988 
" style="fill:none;stroke:#b0b0b0;stroke-linecap:square;stroke-width:0.8;"/>
     </g>
     <g id="line2d_86">
      <g>
       <use style="stroke:#000000;stroke-width:0.6;" x="57.6" xlink:href="#m1434179b34" y="252.963988"/>
      </g>
     </g>
    </g>
    <g id="ytick_13">
     <g id="line2d_87">
      <path clip-path="url(#pda286ce1eb)" d="M 57.6 236.541842 
L 414.72 236.541842 
" style="fill:none;stroke:#b0b0b0;stroke-linecap:square;stroke-width:0.8;"/>
     </g>
     <g id="line2d_88">
      <g>
       <use style="stroke:#000000;stroke-width:0.6;" x="57.6" xlink:href="#m1434179b34" y="236.541842"/>
      </g>
     </g>
    </g>
    <g id="ytick_14">
     <g id="line2d_89">
      <path clip-path="url(#pda286ce1eb)" d="M 57.6 228.330768 
L 414.72 228.330768 
" style="fill:none;stroke:#b0b0b0;stroke-linecap:square;stroke-width:0.8;"/>
     </g>
     <g id="line2d_90">
      <g>
       <use style="stroke:#000000;stroke-width:0.6;" x="57.6" xlink:href="#m1434179b34" y="228.330768"/>
      </g>
     </g>
    </g>
    <g id="ytick_15">
     <g id="line2d_91">
      <path clip-path="url(#pda286ce1eb)" d="M 57.6 220.119695 
L 414.72 220.119695 
" style="fill:none;stroke:#b0b0b0;stroke-linecap:square;stroke-width:0.8;"/>
     </g>
     <g id="line2d_92">
      <g>
       <use style="stroke:#000000;stroke-width:0.6;" x="57.6" xlink:href="#m1434179b34" y="220.119695"/>
      </g>
     </g>
    </g>
    <g id="ytick_16">
     <g id="line2d_93">
      <path clip-path="url(#pda286ce1eb)" d="M 57.6 211.908622 
L 414.72 211.908622 
" style="fill:none;stroke:#b0b0b0;stroke-linecap:square;stroke-width:0.8;"/>
     </g>
     <g id="line2d_94">
      <g>
       <use style="stroke:#000000;stroke-width:0.6;" x="57.6" xlink:href="#m1434179b34" y="211.908622"/>
      </g>
     </g>
    </g>
    <g id="ytick_17">
     <g id="line2d_95">
      <path clip-path="url(#pda286ce1eb)" d="M 57.6 195.486475 
L 414.72 195.486475 
" style="fill:none;stroke:#b0b0b0;stroke-linecap:square;stroke-width:0.8;"/>
     </g>
     <g id="line2d_96">
      <g>
       <use style="stroke:#000000;stroke-width:0.6;" x="57.6" xlink:href="#m1434179b34" y="195.486475"/>
      </g>
     </g>
    </g>
    <g id="ytick_18">
     <g id="line2d_97">
      <path clip-path="url(#pda286ce1eb)" d="M 57.6 187.275402 
L 414.72 187.275402 
" style="fill:none;stroke:#b0b0b0;stroke-linecap:square;stroke-width:0.8;"/>
     </g>
     <g id="line2d_98">
      <g>
       <use style="stroke:#000000;stroke-width:0.6;" x="57.6" xlink:href="#m1434179b34" y="187.275402"/>
      </g>
     </g>
    </g>
    <g id="ytick_19">
     <g id="line2d_99">
      <path clip-path="url(#pda286ce1eb)" d="M 57.6 179.064329 
L 414.72 179.064329 
" style="fill:none;stroke:#b0b0b0;stroke-linecap:square;stroke-width:0.8;"/>
     </g>
     <g id="line2d_100">
      <g>
       <use style="stroke:#000000;stroke-width:0.6;" x="57.6" xlink:href="#m1434179b34" y="179.064329"/>
      </g>
     </g>
    </g>
    <g id="ytick_20">
     <g id="line2d_101">
      <path clip-path="url(#pda286ce1eb)" d="M 57.6 170.853256 
L 414.72 170.853256 
" style="fill:none;stroke:#b0b0b0;stroke-linecap:square;stroke-width:0.8;"/>
     </g>
     <g id="line2d_102">
      <g>
       <use style="stroke:#000000;stroke-width:0.6;" x="57.6" xlink:href="#m1434179b34" y="170.853256"/>
      </g>
     </g>
    </g>
    <g id="ytick_21">
     <g id="line2d_103">
      <path clip-path="url(#pda286ce1eb)" d="M 57.6 154.431109 
L 414.72 154.431109 
" style="fill:none;stroke:#b0b0b0;stroke-linecap:square;stroke-width:0.8;"/>
     </g>
     <g id="line2d_104">
      <g>
       <use style="stroke:#000000;stroke-width:0.6;" x="57.6" xlink:href="#m1434179b34" y="154.431109"/>
      </g>
     </g>
    </g>
    <g id="ytick_22">
     <g id="line2d_105">
      <path clip-path="url(#pda286ce1eb)" d="M 57.6 146.220036 
L 414.72 146.220036 
" style="fill:none;stroke:#b0b0b0;stroke-linecap:square;stroke-width:0.8;"/>
     </g>
     <g id="line2d_106">
      <g>
       <use style="stroke:#000000;stroke-width:0.6;" x="57.6" xlink:href="#m1434179b34" y="146.220036"/>
      </g>
     </g>
    </g>
    <g id="ytick_23">
     <g id="line2d_107">
      <path clip-path="url(#pda286ce1eb)" d="M 57.6 138.008963 
L 414.72 138.008963 
" style="fill:none;stroke:#b0b0b0;stroke-linecap:square;stroke-width:0.8;"/>
     </g>
     <g id="line2d_108">
      <g>
       <use style="stroke:#000000;stroke-width:0.6;" x="57.6" xlink:href="#m1434179b34" y="138.008963"/>
      </g>
     </g>
    </g>
    <g id="ytick_24">
     <g id="line2d_109">
      <path clip-path="url(#pda286ce1eb)" d="M 57.6 129.797889 
L 414.72 129.797889 
" style="fill:none;stroke:#b0b0b0;stroke-linecap:square;stroke-width:0.8;"/>
     </g>
     <g id="line2d_110">
      <g>
       <use style="stroke:#000000;stroke-width:0.6;" x="57.6" xlink:href="#m1434179b34" y="129.797889"/>
      </g>
     </g>
    </g>
    <g id="ytick_25">
     <g id="line2d_111">
      <path clip-path="url(#pda286ce1eb)" d="M 57.6 121.586816 
L 414.72 121.586816 
" style="fill:none;stroke:#b0b0b0;stroke-linecap:square;stroke-width:0.8;"/>
     </g>
     <g id="line2d_112">
      <g>
       <use style="stroke:#000000;stroke-width:0.6;" x="57.6" xlink:href="#m1434179b34" y="121.586816"/>
      </g>
     </g>
    </g>
    <g id="ytick_26">
     <g id="line2d_113">
      <path clip-path="url(#pda286ce1eb)" d="M 57.6 113.375743 
L 414.72 113.375743 
" style="fill:none;stroke:#b0b0b0;stroke-linecap:square;stroke-width:0.8;"/>
     </g>
     <g id="line2d_114">
      <g>
       <use style="stroke:#000000;stroke-width:0.6;" x="57.6" xlink:href="#m1434179b34" y="113.375743"/>
      </g>
     </g>
    </g>
    <g id="ytick_27">
     <g id="line2d_115">
      <path clip-path="url(#pda286ce1eb)" d="M 57.6 105.16467 
L 414.72 105.16467 
" style="fill:none;stroke:#b0b0b0;stroke-linecap:square;stroke-width:0.8;"/>
     </g>
     <g id="line2d_116">
      <g>
       <use style="stroke:#000000;stroke-width:0.6;" x="57.6" xlink:href="#m1434179b34" y="105.16467"/>
      </g>
     </g>
    </g>
    <g id="ytick_28">
     <g id="line2d_117">
      <path clip-path="url(#pda286ce1eb)" d="M 57.6 96.953596 
L 414.72 96.953596 
" style="fill:none;stroke:#b0b0b0;stroke-linecap:square;stroke-width:0.8;"/>
     </g>
     <g id="line2d_118">
      <g>
       <use style="stroke:#000000;stroke-width:0.6;" x="57.6" xlink:href="#m1434179b34" y="96.953596"/>
      </g>
     </g>
    </g>
    <g id="ytick_29">
     <g id="line2d_119">
      <path clip-path="url(#pda286ce1eb)" d="M 57.6 88.742523 
L 414.72 88.742523 
" style="fill:none;stroke:#b0b0b0;stroke-linecap:square;stroke-width:0.8;"/>
     </g>
     <g id="line2d_120">
      <g>
       <use style="stroke:#000000;stroke-width:0.6;" x="57.6" xlink:href="#m1434179b34" y="88.742523"/>
      </g>
     </g>
    </g>
    <g id="ytick_30">
     <g id="line2d_121">
      <path clip-path="url(#pda286ce1eb)" d="M 57.6 72.320377 
L 414.72 72.320377 
" style="fill:none;stroke:#b0b0b0;stroke-linecap:square;stroke-width:0.8;"/>
     </g>
     <g id="line2d_122">
      <g>
       <use style="stroke:#000000;stroke-width:0.6;" x="57.6" xlink:href="#m1434179b34" y="72.320377"/>
      </g>
     </g>
    </g>
    <g id="ytick_31">
     <g id="line2d_123">
      <path clip-path="url(#pda286ce1eb)" d="M 57.6 64.109303 
L 414.72 64.109303 
" style="fill:none;stroke:#b0b0b0;stroke-linecap:square;stroke-width:0.8;"/>
     </g>
     <g id="line2d_124">
      <g>
       <use style="stroke:#000000;stroke-width:0.6;" x="57.6" xlink:href="#m1434179b34" y="64.109303"/>
      </g>
     </g>
    </g>
    <g id="ytick_32">
     <g id="line2d_125">
      <path clip-path="url(#pda286ce1eb)" d="M 57.6 55.89823 
L 414.72 55.89823 
" style="fill:none;stroke:#b0b0b0;stroke-linecap:square;stroke-width:0.8;"/>
     </g>
     <g id="line2d_126">
      <g>
       <use style="stroke:#000000;stroke-width:0.6;" x="57.6" xlink:href="#m1434179b34" y="55.89823"/>
      </g>
     </g>
    </g>
    <g id="ytick_33">
     <g id="line2d_127">
      <path clip-path="url(#pda286ce1eb)" d="M 57.6 47.687157 
L 414.72 47.687157 
" style="fill:none;stroke:#b0b0b0;stroke-linecap:square;stroke-width:0.8;"/>
     </g>
     <g id="line2d_128">
      <g>
       <use style="stroke:#000000;stroke-width:0.6;" x="57.6" xlink:href="#m1434179b34" y="47.687157"/>
      </g>
     </g>
    </g>
    <g id="text_16">
     <!-- trans z -->
     <defs>
      <path d="M 18.3125 70.21875 
L 18.3125 54.6875 
L 36.8125 54.6875 
L 36.8125 47.703125 
L 18.3125 47.703125 
L 18.3125 18.015625 
Q 18.3125 11.328125 20.140625 9.421875 
Q 21.96875 7.515625 27.59375 7.515625 
L 36.8125 7.515625 
L 36.8125 0 
L 27.59375 0 
Q 17.1875 0 13.234375 3.875 
Q 9.28125 7.765625 9.28125 18.015625 
L 9.28125 47.703125 
L 2.6875 47.703125 
L 2.6875 54.6875 
L 9.28125 54.6875 
L 9.28125 70.21875 
z
" id="DejaVuSans-74"/>
      <path d="M 54.890625 33.015625 
L 54.890625 0 
L 45.90625 0 
L 45.90625 32.71875 
Q 45.90625 40.484375 42.875 44.328125 
Q 39.84375 48.1875 33.796875 48.1875 
Q 26.515625 48.1875 22.3125 43.546875 
Q 18.109375 38.921875 18.109375 30.90625 
L 18.109375 0 
L 9.078125 0 
L 9.078125 54.6875 
L 18.109375 54.6875 
L 18.109375 46.1875 
Q 21.34375 51.125 25.703125 53.5625 
Q 30.078125 56 35.796875 56 
Q 45.21875 56 50.046875 50.171875 
Q 54.890625 44.34375 54.890625 33.015625 
z
" id="DejaVuSans-6e"/>
      <path d="M 44.28125 53.078125 
L 44.28125 44.578125 
Q 40.484375 46.53125 36.375 47.5 
Q 32.28125 48.484375 27.875 48.484375 
Q 21.1875 48.484375 17.84375 46.4375 
Q 14.5 44.390625 14.5 40.28125 
Q 14.5 37.15625 16.890625 35.375 
Q 19.28125 33.59375 26.515625 31.984375 
L 29.59375 31.296875 
Q 39.15625 29.25 43.1875 25.515625 
Q 47.21875 21.78125 47.21875 15.09375 
Q 47.21875 7.46875 41.1875 3.015625 
Q 35.15625 -1.421875 24.609375 -1.421875 
Q 20.21875 -1.421875 15.453125 -0.5625 
Q 10.6875 0.296875 5.421875 2 
L 5.421875 11.28125 
Q 10.40625 8.6875 15.234375 7.390625 
Q 20.0625 6.109375 24.8125 6.109375 
Q 31.15625 6.109375 34.5625 8.28125 
Q 37.984375 10.453125 37.984375 14.40625 
Q 37.984375 18.0625 35.515625 20.015625 
Q 33.0625 21.96875 24.703125 23.78125 
L 21.578125 24.515625 
Q 13.234375 26.265625 9.515625 29.90625 
Q 5.8125 33.546875 5.8125 39.890625 
Q 5.8125 47.609375 11.28125 51.796875 
Q 16.75 56 26.8125 56 
Q 31.78125 56 36.171875 55.265625 
Q 40.578125 54.546875 44.28125 53.078125 
z
" id="DejaVuSans-73"/>
      <path d="M 5.515625 54.6875 
L 48.1875 54.6875 
L 48.1875 46.484375 
L 14.40625 7.171875 
L 48.1875 7.171875 
L 48.1875 0 
L 4.296875 0 
L 4.296875 8.203125 
L 38.09375 47.515625 
L 5.515625 47.515625 
z
" id="DejaVuSans-7a"/>
     </defs>
     <g transform="translate(13.875 191.594406)rotate(-90)scale(0.1 -0.1)">
      <use xlink:href="#DejaVuSans-74"/>
      <use x="39.208984" xlink:href="#DejaVuSans-72"/>
      <use x="80.322266" xlink:href="#DejaVuSans-61"/>
      <use x="141.601562" xlink:href="#DejaVuSans-6e"/>
      <use x="204.980469" xlink:href="#DejaVuSans-73"/>
      <use x="257.080078" xlink:href="#DejaVuSans-20"/>
      <use x="288.867188" xlink:href="#DejaVuSans-7a"/>
     </g>
    </g>
   </g>
   <g id="line2d_129">
    <path clip-path="url(#pda286ce1eb)" d="M 87.547463 202.809759 
L 87.777961 201.480001 
L 88.469447 185.765015 
L 88.699953 184.177412 
L 88.930495 190.513976 
L 89.161236 189.422726 
L 89.391488 185.786608 
L 89.621984 191.676526 
M 90.082548 205.687456 
L 90.313044 219.462184 
L 90.543541 214.513757 
L 90.774012 221.618595 
L 91.004508 257.863263 
L 91.235005 230.258969 
L 91.465503 223.704694 
L 91.697315 209.172996 
L 91.927811 226.158362 
L 92.158308 206.743599 
L 92.388804 207.22783 
L 92.619301 192.526459 
L 92.849894 196.270595 
L 93.080391 195.040758 
L 93.541383 179.467865 
L 93.770692 210.874804 
L 94.001188 190.612844 
L 94.231685 193.66727 
L 94.462181 193.394604 
L 94.692582 204.094234 
L 94.923078 201.47453 
L 95.153577 206.424043 
L 95.384073 217.647505 
L 95.615676 182.315296 
L 95.846173 215.09879 
L 96.307166 191.62162 
L 96.538857 161.147675 
L 96.769353 192.36154 
L 96.99985 187.977435 
L 98.151838 223.767995 
L 98.380897 201.605451 
L 98.841892 241.629248 
L 99.30257 230.199211 
L 99.533067 204.691013 
L 99.763563 233.641475 
L 100.225701 195.479362 
L 100.456197 165.023117 
L 100.686694 169.594089 
L 100.91719 159.357658 
L 101.147798 154.259777 
L 101.378294 172.862514 
L 101.608791 179.04549 
L 101.839287 175.06405 
M 102.299028 187.128522 
L 102.529524 178.647821 
L 102.760021 185.976698 
L 103.681679 248.074804 
L 103.912172 262.555538 
L 104.142907 262.372514 
L 104.373404 267.625452 
L 104.6039 268.555132 
L 104.834399 264.614487 
L 105.296045 248.561578 
L 105.526542 248.497667 
L 105.757038 239.682916 
L 106.218129 232.9178 
L 106.448625 225.828907 
L 106.679121 228.031808 
L 106.909168 221.470265 
L 107.139665 223.526666 
L 107.370239 206.438729 
L 108.061735 183.798406 
L 108.292231 182.887808 
L 108.52273 165.540032 
L 108.75382 156.743182 
L 108.984316 153.472318 
L 109.214813 144.851373 
L 109.445309 150.50123 
L 109.675335 148.868442 
L 109.905831 143.381908 
L 110.136328 144.979515 
L 110.366824 145.021086 
L 110.596728 138.917687 
L 110.827225 141.695848 
L 111.057905 155.071617 
L 111.288217 148.657165 
L 111.518939 167.55262 
L 111.749435 149.509234 
L 111.979932 158.563079 
L 112.21043 176.387163 
L 112.442736 182.718008 
L 112.673233 213.20366 
L 113.134225 229.867983 
L 113.364722 231.519515 
L 113.595412 243.222431 
L 113.825908 246.6117 
L 114.056404 257.034768 
L 114.286901 261.157644 
L 114.516513 261.159048 
L 114.747009 263.209258 
L 114.977506 259.078016 
L 115.208002 259.674965 
L 115.437693 262.57515 
L 115.898688 255.80243 
L 116.129184 245.902349 
M 116.59066 219.17537 
L 116.821157 197.35813 
L 117.051653 197.517407 
L 117.282131 182.282237 
L 117.512628 196.930844 
L 117.743124 200.94363 
L 117.97362 201.791504 
L 118.203302 245.846234 
L 118.433798 189.276534 
L 118.664295 191.016815 
M 119.125694 140.053548 
L 119.356191 146.438858 
L 119.586689 148.414472 
L 119.817186 154.467459 
L 120.047783 163.763246 
L 120.27828 159.335273 
L 120.508779 152.204145 
L 120.739275 152.361886 
M 121.199661 173.653039 
L 121.430157 184.332641 
L 121.660653 187.586176 
L 121.891025 200.851039 
L 122.121521 197.840187 
L 122.352018 199.047254 
L 122.582514 188.398761 
M 123.504596 217.465516 
L 123.965702 178.849226 
L 124.196199 177.851673 
M 125.350098 219.04203 
L 125.580595 223.911712 
L 125.809881 215.847367 
L 126.040378 170.76503 
L 126.270874 196.13095 
L 126.501371 187.243134 
M 127.193894 176.432448 
L 127.42439 207.109983 
L 127.884764 187.835592 
L 128.115263 160.147603 
L 128.345759 187.709644 
L 128.576012 151.396344 
L 128.806511 182.580566 
M 129.95918 208.499557 
L 130.189676 212.39765 
M 130.649909 262.169338 
L 130.880405 233.774892 
L 131.110902 222.574139 
M 132.264196 223.50977 
L 132.494692 224.247797 
L 132.725189 183.168866 
L 132.95571 188.292374 
L 133.185404 184.287317 
M 133.876893 200.656597 
L 134.107389 212.953188 
M 134.568052 198.259072 
L 134.798548 185.184989 
L 135.029044 202.886116 
M 135.722446 203.359392 
L 135.952941 191.162949 
M 136.415126 198.124464 
L 136.645734 203.666787 
M 137.564735 224.112563 
L 138.025598 199.505259 
L 138.256094 198.970318 
L 138.486591 202.405619 
M 139.409481 192.410026 
L 139.869695 207.067596 
L 140.100203 127.446454 
L 140.330888 233.048699 
L 140.561184 248.712023 
L 140.791752 246.4816 
L 141.022248 232.335935 
L 141.252744 234.408527 
L 141.483241 206.69737 
M 141.94548 212.034685 
L 142.175976 175.037434 
L 142.406472 169.943136 
M 142.866556 157.829471 
L 143.55753 231.11171 
L 143.788026 195.973062 
L 144.018523 189.296869 
L 144.249019 162.160557 
L 144.479515 209.709615 
M 144.942087 236.012879 
L 145.172583 219.21424 
L 145.403082 214.563187 
L 145.63523 191.49866 
M 146.096223 170.323155 
L 146.326719 165.538161 
L 146.786229 152.179712 
L 147.247222 175.428023 
L 147.476168 161.751165 
L 147.706664 211.25014 
L 148.167657 224.941904 
L 148.398011 217.061896 
L 148.628508 230.935817 
L 148.859004 219.567885 
L 149.089503 222.71986 
M 149.551452 211.722784 
L 149.781948 207.774983 
L 150.012444 206.766377 
L 150.242768 204.13782 
L 150.473264 207.079862 
M 151.625325 169.079588 
L 151.855821 159.256828 
L 152.086591 158.837589 
L 152.317088 159.741237 
L 152.547584 167.900766 
L 152.778083 166.823218 
L 153.00848 161.210782 
L 153.469473 139.359547 
L 153.699971 132.920117 
L 153.931563 136.200152 
L 154.162059 168.405331 
L 154.392558 127.87986 
L 154.623054 121.442851 
L 154.854149 120.2216 
L 155.084645 123.384926 
L 155.315142 121.13169 
L 155.545638 123.17483 
L 155.776135 118.960241 
L 156.006594 112.246751 
L 156.23709 112.128407 
L 156.467589 118.501493 
L 156.698085 121.414956 
L 157.159067 110.644827 
L 157.389565 111.209393 
L 158.081549 124.819801 
L 158.312045 123.533918 
L 158.542542 117.246041 
L 158.773253 114.858325 
L 159.234246 123.146284 
L 159.924444 102.103069 
L 160.154944 102.942433 
L 160.38544 108.786504 
M 160.847048 101.972477 
L 161.077542 99.415715 
L 161.768776 111.109019 
L 162.229769 93.436924 
L 162.460626 90.424963 
L 162.691122 96.062964 
L 162.921619 98.883572 
L 163.152115 99.097553 
L 163.38225 98.622564 
L 163.612746 98.519001 
L 164.073741 104.956112 
L 164.303789 105.529546 
L 164.764781 93.419539 
L 164.995278 92.082212 
L 165.225619 95.674847 
L 165.917136 93.079207 
L 166.147605 92.792993 
L 166.609152 103.289506 
L 166.839649 101.82309 
L 167.070145 97.279105 
M 168.221853 155.679153 
L 168.45235 100.611062 
L 168.682848 107.720362 
L 168.913345 111.116688 
L 169.143419 112.194086 
L 169.60451 94.635554 
L 169.834908 96.071305 
L 170.066395 107.920637 
L 170.527387 95.240195 
L 170.757884 93.499437 
L 170.988669 95.866825 
L 171.449663 106.695964 
L 171.68016 101.951133 
L 171.910753 92.745562 
L 172.141249 90.68222 
L 172.371748 91.581224 
L 173.063464 100.354483 
L 173.294124 99.477142 
L 173.52445 103.274382 
L 173.754955 112.464292 
L 173.985452 111.314012 
L 174.446444 101.451354 
L 174.677168 102.109594 
L 174.907664 110.126177 
L 175.13816 112.01474 
L 175.598349 108.891576 
L 175.828846 111.133611 
L 176.059342 115.988153 
L 176.289838 115.805517 
M 176.980686 102.732807 
L 177.210942 108.474843 
L 177.672593 107.522156 
L 177.903089 102.247097 
L 178.133586 102.412091 
L 178.364082 108.239947 
L 178.595332 110.707849 
L 178.825829 110.696158 
L 179.286821 98.583445 
L 179.517657 99.666444 
L 179.748154 104.7036 
L 180.209149 97.95121 
L 180.438914 98.525045 
L 180.66941 100.6372 
L 180.899906 110.059044 
L 181.130403 111.698455 
L 181.360335 108.746685 
L 181.821328 97.555352 
L 182.051827 101.767577 
L 182.282402 99.72091 
L 182.512898 104.630015 
L 182.743397 99.925221 
L 182.973893 102.088475 
L 183.204644 106.500273 
L 183.435141 114.682018 
L 183.665637 112.546293 
L 183.896136 108.425716 
M 185.278369 107.510734 
L 185.508865 110.262284 
L 185.739364 109.31086 
L 185.969646 111.427234 
L 186.200142 108.106701 
L 186.430638 99.936354 
L 186.661135 99.301265 
L 186.892768 104.911289 
L 187.123267 104.355069 
L 187.353766 102.683349 
L 187.584257 98.371111 
L 187.814756 98.715649 
L 188.044988 105.29399 
L 188.275484 106.732448 
L 188.505981 106.884655 
L 188.9671 99.359198 
L 189.428093 106.730659 
L 189.658591 106.939735 
L 189.889459 103.079052 
L 190.119956 101.638141 
L 190.350452 103.413171 
L 190.580951 106.640395 
L 190.811441 105.858955 
L 191.041928 103.756835 
L 191.272424 100.304671 
L 191.502923 100.864631 
L 191.733535 103.632889 
L 191.964032 103.154972 
L 192.194528 103.749369 
L 192.425024 103.130976 
L 192.655391 101.128891 
L 192.885887 101.682435 
L 193.116384 107.426891 
L 193.346883 108.752587 
M 194.03717 113.234205 
L 194.267666 120.30625 
M 194.958346 132.550331 
L 195.188844 123.218409 
L 195.419463 131.044609 
L 195.649959 134.537739 
L 195.880455 125.643251 
L 196.110952 127.72958 
M 196.803902 145.979603 
L 197.034401 143.22946 
L 197.495938 116.913449 
L 197.726434 116.559919 
L 198.417165 130.254704 
L 198.878158 140.682265 
L 199.108654 134.354732 
L 199.338525 132.318307 
L 199.569022 138.481838 
L 199.799518 128.284434 
L 200.030014 125.9862 
M 200.491636 118.527202 
L 200.722135 119.779793 
L 200.952631 119.760111 
L 201.644313 100.443903 
L 201.874809 104.666308 
M 202.56635 118.72461 
L 202.796847 127.719977 
L 203.027479 146.462927 
L 203.488472 160.48603 
L 203.718968 160.018845 
L 203.950641 168.498649 
L 204.181138 158.107717 
L 204.411636 159.288723 
L 204.642133 158.55945 
M 205.10187 151.700128 
L 205.332366 134.961207 
L 205.562862 135.702449 
L 205.792619 139.154175 
L 206.023118 140.785791 
L 206.253623 127.930537 
L 206.48411 125.910053 
L 206.945932 115.876248 
L 207.176428 114.039435 
L 207.406925 119.4076 
L 207.868381 106.713173 
L 208.098878 110.622911 
L 208.329374 110.070262 
L 208.55987 119.725931 
L 208.790438 122.659012 
L 209.020934 122.476993 
L 209.481929 129.857065 
L 209.713258 137.913704 
L 210.174253 146.416175 
L 210.404749 142.498121 
L 210.634583 140.875726 
L 210.86508 146.927671 
L 211.095576 148.926133 
L 211.326072 147.066259 
L 211.786714 127.279206 
L 212.478001 116.3867 
L 212.708498 113.316563 
L 212.938994 117.122625 
L 213.169488 107.843706 
M 214.55123 132.054642 
L 215.012222 152.335506 
M 215.474018 162.056315 
L 215.704515 168.512789 
L 215.935011 171.291611 
L 216.165554 181.568604 
L 216.396051 186.549525 
L 216.626545 187.064894 
L 217.31793 199.303341 
L 217.548396 197.252599 
L 217.778893 190.8257 
L 218.009496 192.831797 
L 218.239992 195.873941 
L 218.470489 195.224722 
L 218.700985 192.178751 
L 218.931482 185.337398 
L 219.161971 185.619065 
L 219.392468 176.228549 
L 219.622964 180.589263 
L 219.85346 164.032927 
L 220.083946 158.138488 
L 220.314443 159.786345 
M 221.236392 214.908391 
L 221.466888 229.266411 
L 221.697385 233.485208 
L 221.927856 248.272197 
L 222.158353 243.947583 
M 224.69294 103.725582 
L 224.92336 100.709307 
L 225.153856 104.973729 
L 225.384352 106.727577 
L 226.307164 144.15766 
L 226.538679 159.401289 
L 226.769176 184.194712 
L 226.999672 186.165831 
L 227.230171 194.39298 
L 227.460717 183.191944 
L 227.691213 179.510171 
L 227.921712 170.996515 
L 228.152208 154.754102 
L 228.382237 149.769312 
L 229.304133 92.112417 
L 229.534702 89.542023 
L 229.995695 101.40508 
L 230.226194 95.340986 
L 230.45595 93.050906 
L 230.686446 94.899745 
L 231.147441 119.214948 
M 231.840545 128.988792 
L 232.07115 155.001174 
L 232.302051 150.518901 
L 232.532547 152.493181 
M 235.525717 118.70757 
L 235.756331 122.512969 
M 236.449284 147.829099 
L 237.140606 173.658408 
L 237.371103 169.31104 
L 237.601601 141.617613 
L 237.831378 157.7118 
M 240.137 116.116557 
L 240.367496 125.815113 
L 240.597992 193.886434 
L 240.8284 136.849553 
L 241.058896 129.106828 
L 241.289395 127.591437 
L 241.519891 134.835968 
L 241.750157 152.005467 
L 241.980653 160.369706 
L 242.211152 158.649434 
L 242.672612 134.061658 
L 242.903108 132.948247 
L 243.133729 134.872152 
L 243.364101 127.84372 
L 243.594731 134.35179 
L 243.825227 133.768341 
L 244.055724 131.497129 
L 244.28622 136.703792 
L 244.516287 136.438838 
L 245.438438 155.575516 
L 245.668936 153.056597 
L 246.129927 165.449985 
L 246.590806 153.405 
L 246.821427 141.325013 
L 247.051801 136.325272 
L 247.282878 134.262619 
L 247.513375 138.899337 
L 247.743871 138.677453 
L 247.974368 131.191201 
L 248.204972 127.3833 
L 248.665964 139.551084 
L 248.896461 139.420445 
L 249.126704 147.087518 
L 249.587699 142.960031 
L 249.818195 136.172587 
L 250.049641 136.130847 
L 250.280137 136.800796 
L 250.510756 127.720039 
L 250.74113 136.994448 
L 250.971626 116.217334 
L 251.201742 114.904249 
L 251.432238 112.842046 
L 251.662734 122.533005 
L 251.893231 125.442693 
L 252.123193 135.257043 
L 252.353692 120.835329 
L 252.814685 140.182395 
L 253.045286 145.596476 
L 253.736772 133.422222 
L 253.967736 132.921692 
L 254.19835 133.739346 
L 254.428729 138.451972 
L 254.659226 139.4381 
L 255.119998 124.764738 
L 255.350494 125.579953 
L 255.580991 124.10654 
L 255.8113 129.61126 
L 256.041799 129.017854 
L 256.272295 129.442426 
L 256.502792 140.568156 
M 257.193906 144.087846 
L 257.424402 152.25011 
L 257.654955 147.096729 
L 257.88556 150.83499 
L 258.11595 147.110403 
L 258.346447 138.915533 
L 258.577737 160.900891 
L 258.808234 151.558656 
L 259.03873 150.734676 
L 259.269227 143.258061 
M 259.959264 144.016473 
L 260.18976 144.103742 
M 260.652341 138.207804 
L 260.882835 154.928173 
L 261.113331 149.932787 
L 261.343598 151.720653 
L 261.575468 151.11317 
L 262.036368 129.469633 
L 262.266865 127.868447 
M 262.9564 160.672167 
L 263.186897 177.332802 
M 263.649606 161.822315 
L 263.880104 141.577458 
L 264.110601 143.967257 
L 264.341194 132.042579 
L 264.57169 134.910925 
L 264.802186 129.769362 
L 265.032681 139.876057 
M 265.491237 128.597475 
L 265.721733 137.399031 
L 265.952229 127.132347 
L 266.182907 123.781904 
L 266.413403 126.763539 
L 266.6439 126.451557 
L 266.874396 126.348166 
L 267.106515 123.014062 
M 267.567508 132.260317 
L 267.798004 141.502625 
M 269.178648 190.009043 
L 269.409144 214.76588 
L 269.63964 220.888453 
L 270.102376 254.281963 
L 270.332872 264.272806 
M 270.793923 271.327974 
L 271.024419 263.013837 
L 271.485414 275.644189 
M 272.175048 269.428278 
L 272.405544 268.079402 
L 272.636066 287.848109 
L 273.098641 282.547069 
L 273.329138 290.881648 
L 273.559634 276.057293 
L 273.792071 283.84371 
L 274.022567 272.135077 
L 274.253063 279.497167 
L 274.483562 273.932012 
M 274.942161 289.264547 
L 275.172657 274.899 
L 275.403154 272.848227 
L 275.63448 272.231512 
L 275.864979 276.524427 
L 276.095473 277.050479 
L 276.556802 262.849741 
L 276.787298 265.855689 
L 277.017794 256.156485 
L 277.478547 218.688495 
L 277.939542 177.643819 
L 278.170038 181.765756 
L 278.399669 177.010559 
M 278.860662 193.984267 
L 279.320526 226.025129 
L 279.551024 273.53525 
L 279.781519 221.790087 
L 280.012019 212.231944 
L 280.24313 222.746144 
L 280.473627 177.810146 
L 280.934619 155.314519 
L 281.166887 176.685069 
L 281.397383 151.861638 
L 281.627879 157.556892 
L 281.858378 149.61681 
L 282.088512 53.568 
L 282.31901 153.99017 
L 282.549504 159.502446 
L 282.780001 156.558401 
L 283.010497 158.345882 
M 283.469406 162.257971 
L 283.699912 152.04605 
L 283.930399 148.149831 
L 284.623418 126.739163 
L 284.853915 126.51321 
L 285.085001 120.456415 
M 286.23566 132.265352 
L 286.696651 152.646278 
L 286.926649 150.262625 
L 287.157146 180.409705 
L 287.618141 159.413062 
M 288.08017 150.366608 
L 288.310667 173.997396 
L 288.541163 170.041589 
L 288.772282 151.635658 
L 289.463774 237.334548 
M 289.922996 241.032031 
L 290.15349 260.567988 
L 290.383987 260.154692 
L 290.615113 243.745057 
M 291.076108 190.347866 
L 291.306605 169.257644 
M 292.000022 149.353393 
L 292.230519 144.687619 
M 294.07175 143.74342 
L 294.302246 133.167517 
M 294.764345 120.661643 
L 294.994841 114.231793 
L 295.225338 133.271436 
L 295.456654 139.237297 
L 295.68715 158.590875 
L 295.917647 131.380213 
L 296.377525 191.727983 
L 296.608023 137.215585 
L 296.83852 134.538378 
L 297.069016 158.499618 
M 298.682781 157.878459 
L 298.913277 147.541156 
M 299.606527 139.571649 
L 299.837023 135.324561 
L 300.067298 146.442406 
M 303.29422 164.486694 
L 303.524716 163.246389 
L 303.985895 125.199577 
L 304.44689 111.927689 
L 304.907324 118.692004 
L 305.368316 139.745026 
L 305.598813 146.989157 
L 305.828138 148.487978 
L 306.058635 166.511012 
L 306.289131 171.436536 
L 306.519627 172.287431 
L 306.750152 183.089175 
L 307.211145 225.569774 
L 307.441641 227.416623 
M 307.902035 280.695867 
L 308.132531 236.642033 
L 308.36303 252.860864 
M 309.055799 250.043833 
L 309.286293 237.776928 
M 309.979256 216.495271 
L 310.209752 208.653714 
L 310.439167 215.412023 
L 310.669664 198.856596 
L 310.90016 211.321058 
L 311.130656 213.469102 
L 311.360183 217.870034 
L 311.590679 187.012872 
L 311.821176 198.750599 
L 312.051672 197.385743 
L 312.281905 171.402362 
L 312.973392 151.505147 
L 313.205036 168.253305 
L 313.435533 130.453216 
L 313.666029 146.108514 
L 313.896526 145.248383 
L 314.357979 156.751337 
L 314.588475 155.733681 
L 315.04947 178.095463 
L 315.278508 170.555504 
L 315.509004 151.957519 
L 315.739501 213.847745 
L 315.969999 175.007855 
L 316.200305 202.179075 
L 316.430801 212.042954 
M 316.891796 200.865075 
L 317.122835 187.169483 
L 317.353146 197.545466 
L 317.583643 216.73474 
L 317.814139 222.609011 
L 318.044115 254.13704 
L 318.505108 279.419799 
L 318.735607 280.354263 
L 318.965639 295.488 
L 319.196136 271.567979 
L 319.426634 259.694583 
L 319.657131 257.762301 
M 320.349716 269.944102 
L 320.580212 278.317039 
L 320.810495 279.829972 
L 321.040882 278.027623 
L 321.501875 253.072461 
M 321.963516 230.984152 
L 322.194015 218.502531 
L 322.424511 218.817156 
L 322.65501 218.850033 
L 322.885506 221.316402 
L 323.116003 225.021928 
L 323.576731 241.10859 
L 323.80723 233.110935 
L 324.037723 243.248965 
L 324.268223 191.494818 
L 324.498962 210.271455 
L 325.190403 188.391836 
L 326.112575 165.108637 
L 326.343072 163.1963 
L 326.57352 169.421837 
L 326.804017 194.852615 
L 327.034515 199.086654 
L 327.265012 185.539412 
L 327.49542 182.571152 
M 327.956415 178.688738 
L 328.186911 175.282602 
L 328.417176 175.001273 
L 328.647672 167.279408 
L 328.878169 169.507743 
L 329.108665 149.805956 
L 329.33957 176.188845 
L 329.570067 165.343336 
L 329.800565 169.595748 
L 330.031062 169.800618 
L 330.261978 174.03015 
L 330.492477 181.807608 
L 330.722973 181.27696 
L 331.414126 192.135608 
L 331.644625 194.914112 
L 331.875121 187.471988 
L 332.105824 184.101258 
L 332.33632 178.171897 
L 332.797313 186.794775 
L 333.026991 196.177241 
L 333.257487 195.820027 
L 333.487986 185.137066 
L 333.718482 186.192367 
L 333.949118 187.961253 
L 334.179614 187.398407 
L 334.410111 176.765275 
L 334.640609 178.041393 
L 334.871494 160.643095 
L 335.332486 162.8246 
L 336.023625 186.331291 
L 336.484618 193.789633 
L 336.945403 180.659382 
L 337.406397 172.657285 
L 337.636894 178.630105 
L 337.867791 181.208021 
L 338.09829 186.47276 
L 338.328786 197.714222 
M 339.250132 229.704107 
L 339.71033 268.945729 
L 340.171323 275.484733 
L 340.401819 262.644874 
L 340.632905 272.52789 
L 340.863404 251.688079 
L 341.0939 241.407124 
L 341.324397 245.434162 
M 342.019245 253.642089 
L 342.249741 254.386561 
M 342.938095 273.843447 
L 343.168591 259.750621 
M 343.860875 247.942558 
L 344.091371 252.424 
L 344.321708 269.174754 
L 344.552206 273.940467 
L 345.013199 242.497806 
L 345.243204 238.469424 
M 345.934693 227.015205 
L 346.16519 224.262757 
L 346.395832 229.371305 
M 346.856825 279.446751 
L 347.087321 266.479323 
L 347.548394 222.977663 
L 348.47034 196.550559 
M 348.931332 197.949887 
L 349.161996 203.960186 
L 349.392494 201.704951 
L 349.622991 197.536425 
L 349.853494 196.072096 
L 350.083627 182.096302 
L 350.314123 142.074084 
L 350.544792 191.15851 
L 350.775116 144.735575 
M 351.235885 173.404067 
L 351.466381 217.579967 
L 351.696878 191.128982 
M 353.310527 249.440942 
L 353.541021 230.400204 
L 353.771653 232.856306 
L 354.00215 237.713517 
L 354.232727 232.057139 
L 354.463143 210.633543 
L 354.692971 209.328454 
L 354.923468 167.106337 
L 355.38446 144.937294 
L 355.615351 140.587862 
L 355.845848 146.113549 
L 356.076344 144.661364 
L 356.30684 145.074082 
L 356.537698 153.895152 
L 356.768196 157.068045 
L 356.998693 176.038653 
L 357.229189 166.538088 
L 357.459685 186.185946 
M 358.150833 250.419869 
L 358.38133 248.591718 
L 358.61171 253.200766 
L 359.072703 228.86681 
L 359.534065 222.109592 
L 359.764562 193.176823 
L 359.995058 204.388097 
L 360.225557 189.624286 
L 360.455682 193.611228 
L 360.686178 192.21304 
L 360.916674 199.515838 
L 361.608462 250.822271 
L 361.838958 255.82907 
L 362.069455 264.680782 
L 362.300159 258.077493 
L 362.530655 272.744004 
L 362.761151 271.542815 
L 362.99165 275.126811 
L 363.221741 265.078143 
L 363.452238 263.09117 
L 363.682734 255.169511 
L 363.913233 241.527375 
L 364.373844 198.488988 
M 365.757203 175.457425 
L 365.987997 182.970901 
L 366.44899 241.51268 
L 366.679488 242.938169 
L 366.910621 270.880199 
L 367.141117 243.826526 
L 367.371614 253.206517 
L 367.832608 223.131267 
L 368.062495 217.452993 
L 368.523488 187.101613 
L 368.753984 185.280108 
L 368.98473 178.29307 
L 369.215227 179.537257 
L 369.445723 177.545855 
L 369.67622 170.782845 
L 369.90686 178.1886 
L 370.137356 151.598357 
M 371.05817 191.419368 
L 371.288669 116.9124 
L 371.519163 171.111366 
M 371.980904 208.613151 
L 372.2114 183.469116 
M 373.134761 157.001865 
L 373.365258 156.246578 
M 374.054739 142.446063 
L 374.517473 174.741183 
L 374.747969 176.214451 
L 374.978466 157.766208 
L 375.208962 159.603229 
L 375.44004 158.656723 
L 375.670536 160.921277 
L 375.901033 160.831077 
L 376.131529 166.038815 
L 376.360899 175.18072 
M 377.513172 208.95223 
L 377.743671 214.262205 
L 377.974167 211.928562 
L 378.204664 215.157428 
L 378.434847 214.78827 
L 378.665343 208.933687 
L 378.895842 211.402672 
L 379.126338 212.024443 
L 379.356559 204.086376 
L 379.587056 202.475345 
L 379.817552 202.279054 
L 380.278643 179.734953 
L 380.509054 174.55579 
L 380.739551 173.737406 
L 380.970047 163.104982 
L 381.200962 158.400077 
L 381.431461 150.917102 
L 381.661957 151.820013 
L 381.892453 151.930867 
L 382.1228 158.01287 
L 382.583793 178.107563 
L 382.814291 192.29999 
M 383.505022 215.022192 
L 383.735518 213.868511 
M 384.428503 221.788583 
L 384.658999 219.760982 
L 384.889676 221.891207 
L 385.120174 220.798202 
L 385.350671 217.547069 
L 385.581167 216.256553 
L 385.810588 246.379298 
M 386.271583 232.646365 
L 386.50208 238.417959 
M 387.194437 219.082395 
L 387.424933 201.87735 
M 388.118143 182.765395 
L 388.34864 173.495188 
L 388.579136 183.754893 
L 388.809144 156.790959 
L 389.500633 241.331888 
M 390.880762 163.977977 
L 391.111259 201.349905 
L 391.341755 194.338576 
M 391.805365 166.022541 
L 392.266357 152.786831 
L 392.496562 155.49289 
L 392.727058 156.503459 
L 392.957555 158.502915 
L 393.188051 167.631492 
L 393.417475 199.945467 
L 393.647972 168.471728 
L 393.878468 168.928955 
L 394.108967 190.198063 
L 394.338954 175.487222 
M 394.799946 183.535551 
L 395.030443 185.41569 
L 395.030443 185.41569 
" style="fill:none;stroke:#ff0000;stroke-linecap:square;"/>
   </g>
   <g id="line2d_130">
    <path clip-path="url(#pda286ce1eb)" d="M 87.547463 201.171572 
L 87.777961 200.257775 
L 88.469447 185.180997 
L 88.699953 186.368929 
L 88.930495 185.331641 
L 89.161236 186.807405 
L 89.391488 189.427176 
L 89.621984 194.107883 
M 90.082548 206.726044 
L 90.543541 218.425945 
L 90.774012 221.804344 
L 91.004508 226.834695 
L 91.235005 226.748214 
L 92.388804 202.176072 
L 92.849894 196.946612 
L 93.080391 195.085652 
L 93.541383 184.359076 
L 93.770692 183.823621 
L 94.231685 192.001842 
L 95.615676 211.523125 
L 95.846173 209.327708 
L 96.538857 191.293588 
L 96.769353 190.353255 
L 96.99985 190.952648 
L 97.460349 202.447207 
L 98.380897 233.068601 
L 98.611396 237.466644 
L 98.841892 238.532869 
L 99.072388 237.016316 
L 99.994059 209.665919 
L 100.686694 170.344192 
L 100.91719 167.34428 
L 101.378294 172.396358 
L 101.839287 179.435459 
M 102.299028 179.61239 
L 102.529524 180.267372 
L 102.760021 186.467502 
L 103.220684 213.580351 
L 103.912172 253.714946 
L 104.373404 266.222305 
L 104.6039 269.151664 
L 104.834399 264.749675 
L 105.296045 249.651199 
L 106.909168 216.244928 
L 107.600657 199.484448 
L 108.061735 187.902378 
L 108.292231 180.294076 
L 108.984316 145.439071 
L 109.214813 146.65177 
L 109.445309 151.061487 
L 109.675335 151.214392 
L 110.136328 145.045432 
L 110.366824 145.442407 
L 110.596728 146.095857 
L 110.827225 149.81456 
L 111.057905 149.520846 
L 111.288217 147.059161 
L 111.518939 146.948193 
L 111.749435 152.484302 
L 112.21043 176.30961 
L 112.903729 221.062641 
L 114.286901 261.052033 
L 114.977506 263.081394 
L 115.208002 261.636944 
L 115.437693 260.972732 
L 115.668189 259.023589 
L 115.898688 254.776431 
L 116.129184 246.852499 
M 116.59066 216.840334 
L 116.821157 202.30169 
L 117.051653 195.370404 
L 117.282131 194.652094 
L 117.512628 194.445562 
L 117.97362 202.196458 
L 118.433798 187.206895 
L 118.664295 173.621238 
M 119.125694 143.073015 
L 119.356191 143.475456 
L 119.817186 153.974463 
L 120.047783 154.827094 
L 120.27828 154.610114 
L 120.508779 152.732617 
L 120.739275 157.354484 
M 121.199661 173.708042 
L 121.660653 188.467954 
L 121.891025 193.889633 
L 122.121521 196.168182 
L 122.352018 195.879057 
L 122.582514 192.510653 
M 123.504596 199.013341 
L 123.735092 197.068296 
L 124.196199 182.899884 
M 125.350098 221.302703 
L 125.580595 222.958421 
L 126.040378 203.75656 
L 126.270874 190.497843 
L 126.501371 187.04216 
M 127.193894 188.434432 
L 127.42439 186.290568 
L 127.654268 182.919013 
L 128.115263 172.750329 
L 128.345759 172.266523 
L 128.806511 182.274506 
M 129.95918 212.133992 
L 130.189676 209.385968 
M 130.649909 200.707535 
L 130.880405 201.610893 
L 131.110902 205.293444 
M 132.264196 209.740288 
L 132.95571 185.164918 
L 133.185404 190.285527 
M 133.876893 215.335278 
L 134.107389 209.102647 
M 134.568052 200.836498 
L 134.798548 197.867388 
L 135.029044 197.386615 
M 135.722446 201.753009 
L 135.952941 201.380649 
M 136.415126 203.225106 
L 136.645734 205.951339 
M 137.564735 216.474501 
L 137.795231 213.066169 
L 138.025598 199.864269 
L 138.486591 189.603061 
M 139.409481 186.072113 
L 139.639979 192.569893 
L 140.100203 219.518517 
L 141.022248 242.410535 
L 141.252744 239.218922 
L 141.483241 221.167852 
M 141.94548 183.898377 
L 142.175976 171.090681 
L 142.406472 165.711616 
M 142.866556 180.028462 
L 143.327549 191.765664 
L 143.55753 194.679374 
L 143.788026 195.690612 
L 144.018523 197.640101 
L 144.479515 212.104828 
M 144.942087 219.332273 
L 145.172583 219.636676 
L 145.63523 202.632408 
M 146.096223 176.250964 
L 146.555731 155.116358 
L 146.786229 151.68838 
L 147.016724 159.970308 
L 147.706664 207.185061 
L 148.167657 219.44866 
L 148.398011 220.123613 
L 148.628508 222.811476 
L 148.859004 223.040782 
L 149.089503 218.545835 
M 149.551452 211.713051 
L 150.012444 205.641333 
L 150.242768 204.519299 
L 150.473264 198.67046 
M 151.625325 168.535215 
L 151.855821 160.756243 
L 152.086591 158.52405 
L 152.547584 167.745794 
L 152.778083 167.250749 
L 153.00848 161.639254 
L 153.469473 139.537225 
L 153.699971 132.916739 
L 153.931563 136.889237 
L 154.162059 135.190967 
L 154.623054 121.99693 
L 154.854149 120.323919 
L 155.084645 123.343628 
L 155.315142 120.568244 
L 155.545638 120.444735 
L 155.776135 119.1536 
L 156.006594 112.59721 
L 156.23709 112.059417 
L 156.698085 122.102517 
L 157.159067 111.114375 
L 157.389565 111.162677 
L 157.851052 122.644593 
L 158.081549 122.898236 
L 158.312045 123.985753 
L 158.542542 117.267904 
L 158.773253 115.109862 
L 159.234246 123.081294 
L 159.924444 102.24872 
L 160.154944 103.713756 
L 160.38544 107.434988 
M 160.847048 102.995952 
L 161.077542 99.179932 
L 161.53828 109.287417 
L 161.768776 109.481416 
L 162.229769 92.745532 
L 162.460626 90.507181 
L 162.691122 96.342856 
L 162.921619 99.225884 
L 163.38225 98.361029 
L 163.612746 98.523406 
L 164.073741 104.97971 
L 164.303789 105.559413 
L 164.764781 93.597152 
L 164.995278 92.263225 
L 165.225619 96.805078 
L 165.456115 94.709413 
L 165.686612 94.462911 
L 165.917136 92.254046 
L 166.147605 93.246983 
L 166.609152 103.021996 
L 166.839649 102.034709 
L 167.070145 96.424754 
M 168.221853 95.993454 
L 168.913345 110.535812 
L 169.143419 110.775284 
L 169.60451 93.850623 
L 169.834908 96.611002 
L 170.066395 102.183987 
L 170.527387 94.140475 
L 170.757884 93.534612 
L 170.988669 95.80259 
L 171.449663 106.840781 
L 171.68016 101.98619 
L 171.910753 92.711959 
L 172.141249 90.475046 
L 172.371748 91.880832 
L 172.602245 95.945592 
L 172.83297 96.891784 
L 173.063464 99.996081 
L 173.294124 99.283957 
L 173.52445 102.811609 
L 173.754955 112.312639 
L 173.985452 111.038228 
L 174.446444 101.474934 
L 174.677168 102.129376 
L 174.907664 110.050509 
L 175.13816 111.874572 
L 175.598349 108.758553 
L 175.828846 111.072839 
L 176.059342 115.61622 
L 176.289838 116.180622 
M 176.980686 102.233799 
L 177.210942 107.502553 
L 177.441438 106.935102 
L 177.672593 104.829163 
L 177.903089 101.01677 
L 178.133586 102.424387 
L 178.595332 113.640571 
L 178.825829 109.63442 
L 179.056325 102.788095 
L 179.286821 99.436842 
L 179.517657 99.952531 
L 179.748154 106.351966 
L 179.978653 104.036022 
L 180.209149 98.333784 
L 180.438914 98.321303 
L 180.66941 100.798511 
L 180.899906 109.712763 
L 181.130403 111.785572 
L 181.590832 102.170003 
L 181.821328 97.499422 
L 182.051827 101.204804 
L 182.282402 100.742939 
L 182.512898 104.640741 
L 182.743397 100.195368 
L 182.973893 102.290796 
L 183.204644 106.290789 
L 183.435141 114.527248 
L 183.665637 112.827707 
L 183.896136 108.658035 
M 185.278369 107.786411 
L 185.508865 110.010184 
L 185.739364 108.461032 
L 185.969646 111.570606 
L 186.200142 108.270918 
L 186.430638 101.326462 
L 186.661135 100.997428 
L 186.892768 107.305592 
L 187.123267 106.230656 
L 187.353766 103.19688 
L 187.584257 97.971417 
L 187.814756 98.842769 
L 188.044988 105.581688 
L 188.275484 106.529846 
L 188.505981 106.798482 
L 188.9671 99.331627 
L 189.428093 106.70467 
L 189.658591 106.630311 
L 189.889459 103.195847 
L 190.119956 101.822575 
L 190.350452 102.982073 
L 190.580951 106.655654 
L 190.811441 106.348333 
L 191.502923 99.989785 
L 191.733535 103.162196 
L 192.194528 103.288978 
L 192.425024 101.725567 
L 192.655391 99.372683 
L 192.885887 101.948811 
L 193.116384 107.394545 
L 193.346883 109.665721 
M 194.03717 118.606271 
L 194.267666 120.600572 
M 194.958346 123.139305 
L 195.188844 125.367451 
L 195.649959 130.730433 
L 195.880455 125.284449 
L 196.110952 127.014427 
M 196.803902 144.272005 
L 197.034401 140.070638 
L 197.495938 117.269215 
L 197.726434 116.652018 
L 197.956933 120.011876 
L 198.647661 133.686641 
L 199.108654 137.608967 
L 199.338525 139.27818 
L 199.569022 135.651677 
L 200.030014 122.871748 
M 200.491636 117.236974 
L 200.722135 122.219357 
L 201.183318 113.480456 
L 201.413813 103.366057 
L 201.644313 100.271129 
L 201.874809 101.458455 
M 202.56635 118.696167 
L 202.796847 125.245904 
L 203.257975 155.571859 
L 203.488472 159.040474 
L 203.950641 155.200902 
L 204.181138 155.662353 
L 204.411636 161.556158 
L 204.642133 160.446453 
M 205.10187 150.218416 
L 205.332366 139.42649 
L 205.562862 133.839227 
L 206.023118 135.386895 
L 206.48411 125.440847 
L 206.715436 119.007462 
L 207.176428 113.254033 
L 207.406925 117.294834 
L 207.868381 110.35541 
L 208.098878 109.904271 
L 208.329374 111.564341 
L 208.790438 124.1918 
L 209.251442 119.016904 
L 209.713258 137.406699 
L 209.943756 144.021153 
L 210.174253 143.88516 
L 210.404749 142.57517 
L 210.634583 142.989651 
L 211.095576 147.924 
L 211.326072 146.335691 
L 211.786714 126.996577 
L 212.708498 113.317163 
L 212.938994 111.271666 
L 213.169488 108.216238 
M 214.55123 133.801896 
L 214.781726 147.936321 
L 215.012222 148.627857 
M 215.474018 158.800917 
L 215.704515 167.792603 
L 215.935011 171.793145 
L 216.165554 178.233798 
L 216.396051 188.642246 
L 216.626545 190.191889 
L 217.31793 197.575538 
L 217.548396 196.591007 
L 217.778893 192.544197 
L 218.009496 191.292825 
L 218.239992 193.976428 
L 218.470489 193.226141 
L 218.700985 185.372921 
L 218.931482 185.257357 
L 219.161971 182.296472 
L 219.85346 166.923069 
L 220.083946 159.185055 
L 220.314443 157.096609 
M 221.236392 214.66519 
L 221.697385 243.050069 
L 221.927856 243.011588 
L 222.158353 239.419862 
M 224.69294 103.772296 
L 224.92336 100.303039 
L 225.384352 106.333526 
L 225.615675 109.057213 
L 226.307164 145.252089 
L 226.999672 193.509823 
L 227.230171 192.966017 
L 227.460717 187.407948 
L 227.921712 169.364683 
L 228.382237 146.150849 
L 229.534702 92.254747 
L 229.995695 104.794011 
L 230.226194 99.492734 
L 230.45595 98.934717 
L 230.686446 101.488128 
L 231.147441 119.163381 
M 231.840545 132.380024 
L 232.532547 154.66418 
M 235.525717 119.172332 
L 235.756331 120.708456 
M 236.449284 149.752265 
L 236.91011 164.067731 
L 237.140606 167.183007 
L 237.371103 162.542294 
L 237.601601 154.942936 
L 237.831378 151.402264 
M 240.137 122.277726 
L 240.367496 123.26627 
L 240.8284 132.045309 
L 241.058896 129.023007 
L 241.289395 128.737948 
L 241.519891 136.222922 
L 241.980653 154.052224 
L 242.211152 156.504472 
L 243.133729 125.129773 
L 243.364101 128.060601 
L 243.594731 132.525675 
L 243.825227 132.87858 
L 244.055724 131.105182 
L 246.129927 163.490374 
L 246.360309 159.403963 
L 246.821427 139.482591 
L 247.282878 134.416722 
L 247.513375 136.836066 
L 247.743871 137.830687 
L 248.204972 127.568145 
L 248.435468 131.28333 
L 248.665964 137.45632 
L 249.126704 151.826123 
L 249.3572 148.227222 
L 249.587699 139.61274 
L 249.818195 135.494744 
L 250.049641 135.509872 
L 250.280137 134.568843 
L 250.510756 130.046096 
L 250.971626 115.188639 
L 251.432238 112.45816 
L 251.662734 118.944529 
L 251.893231 128.944884 
L 252.584188 133.701934 
L 252.814685 138.589551 
L 253.045286 146.947277 
L 253.506278 136.796846 
L 253.736772 134.661221 
L 253.967736 136.459274 
L 254.19835 139.499004 
L 254.428729 144.640543 
L 254.659226 139.243968 
L 255.119998 125.203006 
L 255.350494 124.826956 
L 255.580991 124.026607 
L 256.041799 132.342405 
L 256.272295 130.589595 
L 256.502792 129.946214 
M 257.193906 143.126158 
L 257.424402 151.217986 
L 257.88556 150.470911 
L 258.11595 150.826521 
L 258.577737 160.433884 
L 259.269227 140.112279 
M 259.959264 143.13313 
L 260.18976 143.909987 
M 260.652341 142.330083 
L 261.113331 150.560434 
L 261.343598 151.841403 
L 261.575468 150.556978 
L 262.266865 124.722236 
M 262.9564 152.846553 
L 263.186897 165.701373 
M 263.649606 159.330061 
L 264.110601 146.272712 
L 264.802186 138.540816 
L 265.032681 139.13113 
M 265.491237 132.976888 
L 265.721733 131.182384 
L 265.952229 126.928154 
L 266.182907 125.647854 
L 266.413403 126.506005 
L 266.6439 126.82299 
L 266.874396 125.63639 
L 267.106515 131.310694 
M 267.567508 135.866459 
L 267.798004 142.6437 
M 269.178648 196.531982 
L 270.332872 269.552495 
M 270.793923 266.294952 
L 271.024419 266.216978 
L 271.485414 275.357833 
M 272.175048 288.532989 
L 272.636066 280.242677 
L 272.868145 278.443256 
L 273.329138 293.438582 
L 273.559634 289.604056 
L 273.792071 276.400708 
L 274.253063 275.587262 
L 274.483562 270.151996 
M 274.942161 267.412643 
L 275.172657 269.410812 
L 275.864979 279.669353 
L 276.095473 279.986458 
L 276.556802 268.086628 
L 276.787298 266.697603 
L 277.017794 259.619001 
L 277.939542 186.446121 
L 278.170038 178.555647 
L 278.399669 179.461742 
M 278.860662 197.220037 
L 279.320526 216.509129 
L 279.551024 221.730114 
L 279.781519 215.137938 
L 280.704123 162.155402 
L 281.166887 149.540788 
L 281.397383 146.47005 
L 281.627879 146.293303 
L 281.858378 148.286671 
L 282.088512 148.286934 
L 283.010497 170.056192 
M 283.469406 163.915573 
L 284.392922 132.330105 
L 284.623418 131.480774 
L 285.085001 117.677293 
M 286.23566 136.268538 
L 286.696651 142.116341 
L 287.387645 158.431495 
L 287.618141 159.885283 
M 288.08017 152.365095 
L 288.541163 164.354215 
L 289.002781 189.014439 
L 289.463774 230.968308 
M 289.922996 261.505062 
L 290.15349 265.860667 
L 290.383987 257.472549 
L 290.615113 240.887174 
M 291.076108 189.357115 
L 291.306605 171.941648 
M 292.000022 144.398327 
L 292.230519 145.136211 
M 294.07175 135.147551 
L 294.302246 132.927265 
M 294.764345 120.197165 
L 294.994841 119.04517 
L 295.225338 123.367209 
L 295.456654 131.379316 
L 296.148143 139.546615 
L 296.377525 144.001509 
L 296.608023 141.32737 
L 297.069016 151.031599 
M 298.682781 157.294333 
L 298.913277 149.190901 
M 299.606527 143.792976 
L 299.837023 138.256423 
L 300.067298 142.16983 
M 303.29422 156.59671 
L 303.755213 137.422598 
L 304.44689 113.473816 
L 304.677384 114.846622 
L 304.907324 120.999454 
L 305.368316 141.143731 
L 305.598813 146.777288 
L 306.750152 196.665046 
L 307.441641 234.07847 
M 307.902035 239.710645 
L 308.132531 238.999681 
L 308.36303 240.606602 
M 309.055799 243.484607 
L 309.286293 238.936231 
M 309.979256 215.351673 
L 310.209752 210.433811 
L 310.439167 209.014553 
L 310.669664 209.523335 
L 310.90016 210.966077 
L 311.130656 214.056069 
L 311.360183 209.0383 
L 312.973392 149.430801 
L 313.205036 152.031648 
L 313.435533 151.19092 
L 313.666029 148.299598 
L 313.896526 147.993685 
L 314.127022 150.118445 
L 314.818972 169.222061 
L 315.04947 179.580025 
L 315.278508 184.520826 
L 315.509004 183.83528 
L 315.739501 186.896656 
L 316.430801 213.428492 
M 316.891796 200.020557 
L 317.122835 192.611494 
L 317.353146 194.709331 
L 317.814139 230.627515 
L 318.274612 269.636865 
L 318.505108 280.679327 
L 318.735607 278.534031 
L 318.965639 277.974152 
L 319.657131 257.940741 
M 320.349716 273.85512 
L 320.580212 275.882943 
L 320.810495 280.600344 
L 321.040882 279.337681 
L 321.501875 250.862039 
M 321.963516 228.613036 
L 322.194015 221.877725 
L 322.424511 219.499889 
L 322.65501 218.852589 
L 322.885506 219.733854 
L 323.116003 223.414897 
L 323.346499 235.995553 
L 323.576731 242.283843 
L 323.80723 236.384208 
L 324.268223 217.483819 
L 324.498962 211.126315 
L 324.959907 195.934384 
L 325.420899 182.29028 
L 325.882077 168.234421 
L 326.112575 163.578159 
L 326.343072 164.746142 
L 326.804017 183.744724 
L 327.034515 184.605322 
L 327.265012 183.828591 
L 327.49542 181.463068 
M 327.956415 177.106085 
L 328.186911 174.495581 
L 328.417176 173.801823 
L 328.647672 174.695191 
L 328.878169 173.111111 
L 329.108665 172.392196 
L 329.33957 173.193602 
L 329.570067 171.396316 
L 329.800565 170.643925 
L 330.031062 170.322101 
L 330.261978 173.801189 
L 330.492477 181.437495 
L 330.722973 184.295846 
L 331.18363 186.520556 
L 331.414126 189.734105 
L 331.875121 186.570233 
L 332.105824 182.519666 
L 332.33632 181.014738 
L 332.566817 182.328588 
L 333.026991 190.833337 
L 333.257487 190.169896 
L 333.487986 191.519475 
L 333.718482 189.654402 
L 333.949118 186.221784 
L 334.179614 184.452966 
L 334.410111 179.460576 
L 334.871494 166.044201 
L 335.10199 163.237612 
L 335.332486 165.105659 
L 336.254121 189.112035 
L 336.484618 189.397469 
L 336.715114 185.709639 
L 336.945403 177.498491 
L 337.406397 172.754388 
L 337.636894 174.290474 
L 338.328786 197.954046 
M 339.250132 233.600288 
L 339.940827 274.882763 
L 340.171323 271.762462 
L 340.863404 245.037896 
L 341.0939 242.176209 
L 341.324397 244.671682 
M 342.019245 246.788765 
L 342.249741 254.084683 
M 342.938095 266.721644 
L 343.168591 260.614658 
M 343.860875 250.020895 
L 344.091371 252.379271 
L 344.321708 269.129902 
L 344.552206 272.504219 
L 344.782703 263.008919 
L 345.243204 238.114918 
M 345.934693 226.760152 
L 346.16519 222.380288 
L 346.395832 228.292209 
M 346.856825 275.602939 
L 347.087321 269.288905 
L 347.548394 230.961552 
L 348.009387 212.067749 
L 348.47034 199.63176 
M 348.931332 197.626061 
L 349.161996 196.690723 
L 349.392494 198.566898 
L 349.622991 195.643008 
L 350.544792 149.791144 
L 350.775116 154.182826 
M 351.235885 178.091826 
L 351.696878 212.109352 
M 353.310527 250.800704 
L 354.00215 238.715078 
L 354.463143 207.784935 
L 355.153964 152.338984 
L 355.38446 140.532966 
L 355.615351 137.846422 
L 355.845848 138.676358 
L 356.30684 145.684912 
L 356.537698 148.234991 
L 356.768196 153.857852 
L 357.459685 190.676833 
M 358.150833 238.195012 
L 358.38133 245.401811 
L 358.61171 245.014339 
L 359.072703 234.298871 
L 360.225557 193.961823 
L 360.455682 195.652838 
L 360.686178 199.372463 
L 360.916674 210.836539 
L 361.377966 242.603618 
L 361.838958 255.556983 
L 362.300159 266.111259 
L 362.761151 272.044792 
L 362.99165 271.192358 
L 363.913233 245.102512 
L 364.373844 200.962161 
M 365.757203 166.367662 
L 366.218493 210.869102 
L 366.679488 252.723368 
L 366.910621 259.717657 
L 367.141117 258.200731 
L 367.371614 251.339514 
L 368.062495 216.805923 
L 368.523488 189.80381 
L 368.753984 183.592076 
L 369.67622 174.517283 
L 370.137356 161.661079 
M 371.05817 174.646387 
L 371.288669 172.671439 
L 371.519163 169.322566 
M 371.980904 183.955987 
L 372.2114 195.486141 
M 373.134761 170.561833 
L 373.365258 156.846406 
M 374.054739 146.822258 
L 374.285235 154.406328 
L 374.517473 157.878203 
L 374.747969 156.859907 
L 374.978466 156.73613 
L 375.208962 159.810616 
L 375.44004 160.649607 
L 375.670536 162.019382 
L 375.901033 162.651553 
L 376.360899 174.810651 
M 377.513172 208.821614 
L 377.974167 213.215242 
L 378.204664 212.39532 
L 378.665343 208.909942 
L 378.895842 208.711957 
L 379.126338 207.746253 
L 379.356559 205.50939 
L 380.048048 192.839499 
L 380.739551 170.220134 
L 381.431461 152.542576 
L 381.661957 152.365748 
L 381.892453 152.661259 
L 382.1228 158.122365 
L 382.814291 194.393622 
M 383.505022 205.811374 
L 383.735518 208.379961 
M 384.428503 223.14117 
L 384.658999 223.180768 
L 384.889676 223.382064 
L 385.120174 222.687404 
L 385.581167 216.428352 
L 385.810588 221.03732 
M 386.271583 231.216805 
L 386.50208 236.256766 
M 387.194437 217.000428 
L 387.424933 208.424226 
M 388.118143 183.575825 
L 388.34864 179.992599 
L 388.579136 180.840443 
L 388.809144 184.07131 
L 389.500633 214.104065 
M 390.880762 199.399053 
L 391.111259 189.824751 
L 391.341755 185.29044 
M 391.805365 165.731655 
L 392.035861 157.79763 
L 392.727058 152.877906 
L 392.957555 156.251143 
L 393.417475 170.569396 
L 393.647972 173.64515 
L 393.878468 174.706638 
L 394.108967 174.382965 
L 394.338954 177.500206 
M 394.799946 181.495842 
L 395.030443 184.907059 
L 395.030443 184.907059 
" style="fill:none;stroke:#0000ff;stroke-linecap:square;"/>
   </g>
   <g id="line2d_131">
    <path clip-path="url(#pda286ce1eb)" d="M 74.17847 201.04247 
L 74.408967 197.708811 
L 74.639463 202.281156 
L 74.870062 203.670708 
L 75.100558 205.946212 
L 75.331057 203.775331 
L 75.561554 203.753338 
L 75.792072 205.215399 
L 76.022568 204.308069 
L 76.253065 205.306294 
L 76.483561 205.800518 
L 76.714063 204.640659 
L 76.944559 204.832634 
L 77.175056 205.732672 
L 77.405552 204.88546 
L 77.636079 204.527682 
L 77.866575 203.736191 
L 78.097071 204.087332 
L 78.327568 205.42303 
L 79.019038 203.050601 
L 79.249534 203.669025 
L 79.710557 203.488219 
L 79.941053 202.599097 
L 80.17155 202.740236 
L 80.402067 205.095179 
L 80.632563 204.353975 
L 80.863059 201.980198 
L 81.093563 202.175232 
L 81.324052 203.548471 
L 81.554625 204.003968 
L 81.785122 203.861415 
L 82.015618 203.221239 
L 82.246114 203.207685 
L 82.476586 203.316074 
L 82.707085 203.900794 
L 83.168077 203.72021 
L 83.629023 204.127063 
L 83.85952 203.611041 
L 84.090018 204.201496 
L 84.550998 204.832924 
L 84.781494 203.83311 
L 85.011991 203.369263 
L 85.242497 204.227959 
L 85.473106 204.156228 
L 85.70349 203.569677 
L 85.933986 203.288808 
L 86.164473 203.551308 
L 86.394973 203.09604 
L 86.855965 201.095599 
L 87.08647 201.817489 
L 87.316966 201.95303 
M 122.813104 188.313421 
L 123.274099 196.890318 
M 124.426698 179.090686 
L 124.657194 181.244301 
L 124.889103 193.780065 
L 125.119602 212.549942 
M 126.732899 187.501315 
L 126.963398 188.498436 
M 129.037016 192.688383 
L 129.267511 205.101021 
L 129.498187 210.802143 
L 129.728684 212.658481 
M 131.342392 211.510627 
L 131.57289 218.424186 
M 133.4159 197.69021 
L 133.646396 210.033866 
M 135.261452 200.039774 
L 135.49195 201.709888 
M 136.876119 205.804103 
L 137.103742 208.312994 
L 137.334238 213.666712 
M 138.717087 184.937158 
L 138.948488 184.841826 
L 139.178981 185.592821 
M 150.70376 194.619649 
L 150.934257 196.04306 
L 151.164332 191.790929 
L 151.394829 183.704833 
M 176.519453 110.73742 
L 176.749949 103.240148 
M 193.576174 110.248276 
L 193.806671 113.3411 
M 194.497353 122.948122 
L 194.727849 120.485923 
M 196.342909 137.410881 
L 196.573406 149.024466 
M 213.398439 102.891524 
L 213.628935 102.786348 
M 214.089928 113.189114 
L 214.320733 120.610391 
M 220.544941 158.987787 
L 220.775438 171.14572 
L 221.005941 193.124161 
M 231.379551 126.367338 
L 231.610049 129.755893 
M 233.221291 164.282988 
L 234.142531 135.140741 
L 234.373027 132.686636 
L 234.603526 126.594159 
M 235.064724 114.992303 
L 235.295224 119.012088 
M 235.988291 127.237467 
L 236.218787 137.632521 
M 238.061874 146.236446 
L 238.753277 127.958629 
L 238.983773 126.340006 
L 239.21427 128.775549 
L 239.444893 128.630985 
L 239.675032 127.557519 
L 239.906504 123.403686 
M 256.732913 134.007039 
L 256.963409 137.299239 
M 259.498269 138.626438 
L 259.728767 135.616816 
M 262.495408 129.323405 
L 262.725904 138.250289 
M 268.026382 152.166112 
L 268.256877 164.077835 
M 268.717869 183.918743 
L 268.9482 188.524601 
M 271.714052 287.97145 
L 271.944551 291.280709 
M 285.776493 128.19831 
L 286.005162 132.448556 
M 291.539029 161.791171 
L 291.769526 150.684713 
M 292.459874 149.179553 
L 292.69037 154.651908 
L 292.920868 153.513627 
L 293.381861 145.903787 
L 293.841253 133.648749 
M 297.298761 150.393803 
L 297.759752 153.596905 
L 297.99025 157.391854 
L 298.221785 165.005305 
L 298.452285 165.372554 
M 299.145534 142.950926 
L 299.376031 143.514771 
M 308.594806 243.752323 
L 308.825303 245.168764 
M 309.518263 230.203305 
L 309.74876 220.472358 
M 319.888721 257.833998 
L 320.119219 265.183197 
M 338.55928 203.13264 
L 339.019638 220.280868 
M 341.55825 245.263745 
L 341.788748 243.901399 
M 342.4771 265.529663 
L 342.707599 272.181447 
M 343.399882 260.544018 
L 343.630379 256.8438 
M 345.473701 238.311597 
L 345.704197 233.750877 
M 352.618818 259.627982 
L 352.849532 257.820981 
L 353.08003 257.263183 
M 357.689841 203.733707 
L 357.920337 221.05237 
M 365.065714 141.110964 
L 365.29621 141.216545 
L 365.526707 150.587141 
M 373.593744 148.590225 
L 373.82424 143.769733 
M 376.591586 179.668707 
L 377.052388 193.196587 
L 377.282676 201.417299 
M 383.044029 201.570396 
L 383.274526 205.825048 
M 383.96751 213.282483 
L 384.198006 219.676803 
M 386.733444 236.960103 
L 386.96394 227.595565 
M 387.65715 197.450039 
L 387.887647 188.674463 
M 389.728634 225.487272 
L 389.959132 236.795724 
L 390.189627 240.348941 
L 390.420125 235.295907 
L 390.650266 217.36334 
M 395.260791 191.050653 
L 395.95228 211.945215 
L 396.182318 214.705383 
L 396.412815 214.613215 
L 396.643311 212.374457 
L 396.873807 213.493292 
L 397.565374 206.549267 
L 397.79587 205.57295 
L 398.02628 206.014479 
L 398.487273 204.249162 
L 73.832727 203.608224 
L 74.063221 202.802643 
L 74.293718 198.77313 
L 74.524317 199.11344 
L 74.754815 203.955183 
L 75.215808 205.153565 
L 75.446304 203.397984 
L 75.446304 203.397984 
" style="fill:none;stroke:#008000;stroke-linecap:square;"/>
   </g>
   <g id="patch_3">
    <path d="M 57.6 307.584 
L 57.6 41.472 
" style="fill:none;stroke:#000000;stroke-linecap:square;stroke-linejoin:miter;stroke-width:0.8;"/>
   </g>
   <g id="patch_4">
    <path d="M 414.72 307.584 
L 414.72 41.472 
" style="fill:none;stroke:#000000;stroke-linecap:square;stroke-linejoin:miter;stroke-width:0.8;"/>
   </g>
   <g id="patch_5">
    <path d="M 57.6 307.584 
L 414.72 307.584 
" style="fill:none;stroke:#000000;stroke-linecap:square;stroke-linejoin:miter;stroke-width:0.8;"/>
   </g>
   <g id="patch_6">
    <path d="M 57.6 41.472 
L 414.72 41.472 
" style="fill:none;stroke:#000000;stroke-linecap:square;stroke-linejoin:miter;stroke-width:0.8;"/>
   </g>
   <g id="text_17">
    <!-- Rel Gt Trans Z Plot -->
    <defs>
     <path d="M 44.390625 34.1875 
Q 47.5625 33.109375 50.5625 29.59375 
Q 53.5625 26.078125 56.59375 19.921875 
L 66.609375 0 
L 56 0 
L 46.6875 18.703125 
Q 43.0625 26.03125 39.671875 28.421875 
Q 36.28125 30.8125 30.421875 30.8125 
L 19.671875 30.8125 
L 19.671875 0 
L 9.8125 0 
L 9.8125 72.90625 
L 32.078125 72.90625 
Q 44.578125 72.90625 50.734375 67.671875 
Q 56.890625 62.453125 56.890625 51.90625 
Q 56.890625 45.015625 53.6875 40.46875 
Q 50.484375 35.9375 44.390625 34.1875 
z
M 19.671875 64.796875 
L 19.671875 38.921875 
L 32.078125 38.921875 
Q 39.203125 38.921875 42.84375 42.21875 
Q 46.484375 45.515625 46.484375 51.90625 
Q 46.484375 58.296875 42.84375 61.546875 
Q 39.203125 64.796875 32.078125 64.796875 
z
" id="DejaVuSans-52"/>
     <path d="M 9.421875 75.984375 
L 18.40625 75.984375 
L 18.40625 0 
L 9.421875 0 
z
" id="DejaVuSans-6c"/>
     <path d="M 59.515625 10.40625 
L 59.515625 29.984375 
L 43.40625 29.984375 
L 43.40625 38.09375 
L 69.28125 38.09375 
L 69.28125 6.78125 
Q 63.578125 2.734375 56.6875 0.65625 
Q 49.8125 -1.421875 42 -1.421875 
Q 24.90625 -1.421875 15.25 8.5625 
Q 5.609375 18.5625 5.609375 36.375 
Q 5.609375 54.25 15.25 64.234375 
Q 24.90625 74.21875 42 74.21875 
Q 49.125 74.21875 55.546875 72.453125 
Q 61.96875 70.703125 67.390625 67.28125 
L 67.390625 56.78125 
Q 61.921875 61.421875 55.765625 63.765625 
Q 49.609375 66.109375 42.828125 66.109375 
Q 29.4375 66.109375 22.71875 58.640625 
Q 16.015625 51.171875 16.015625 36.375 
Q 16.015625 21.625 22.71875 14.15625 
Q 29.4375 6.6875 42.828125 6.6875 
Q 48.046875 6.6875 52.140625 7.59375 
Q 56.25 8.5 59.515625 10.40625 
z
" id="DejaVuSans-47"/>
     <path d="M -0.296875 72.90625 
L 61.375 72.90625 
L 61.375 64.59375 
L 35.5 64.59375 
L 35.5 0 
L 25.59375 0 
L 25.59375 64.59375 
L -0.296875 64.59375 
z
" id="DejaVuSans-54"/>
     <path d="M 5.609375 72.90625 
L 62.890625 72.90625 
L 62.890625 65.375 
L 16.796875 8.296875 
L 64.015625 8.296875 
L 64.015625 0 
L 4.5 0 
L 4.5 7.515625 
L 50.59375 64.59375 
L 5.609375 64.59375 
z
" id="DejaVuSans-5a"/>
     <path d="M 19.671875 64.796875 
L 19.671875 37.40625 
L 32.078125 37.40625 
Q 38.96875 37.40625 42.71875 40.96875 
Q 46.484375 44.53125 46.484375 51.125 
Q 46.484375 57.671875 42.71875 61.234375 
Q 38.96875 64.796875 32.078125 64.796875 
z
M 9.8125 72.90625 
L 32.078125 72.90625 
Q 44.34375 72.90625 50.609375 67.359375 
Q 56.890625 61.8125 56.890625 51.125 
Q 56.890625 40.328125 50.609375 34.8125 
Q 44.34375 29.296875 32.078125 29.296875 
L 19.671875 29.296875 
L 19.671875 0 
L 9.8125 0 
z
" id="DejaVuSans-50"/>
     <path d="M 30.609375 48.390625 
Q 23.390625 48.390625 19.1875 42.75 
Q 14.984375 37.109375 14.984375 27.296875 
Q 14.984375 17.484375 19.15625 11.84375 
Q 23.34375 6.203125 30.609375 6.203125 
Q 37.796875 6.203125 41.984375 11.859375 
Q 46.1875 17.53125 46.1875 27.296875 
Q 46.1875 37.015625 41.984375 42.703125 
Q 37.796875 48.390625 30.609375 48.390625 
z
M 30.609375 56 
Q 42.328125 56 49.015625 48.375 
Q 55.71875 40.765625 55.71875 27.296875 
Q 55.71875 13.875 49.015625 6.21875 
Q 42.328125 -1.421875 30.609375 -1.421875 
Q 18.84375 -1.421875 12.171875 6.21875 
Q 5.515625 13.875 5.515625 27.296875 
Q 5.515625 40.765625 12.171875 48.375 
Q 18.84375 56 30.609375 56 
z
" id="DejaVuSans-6f"/>
    </defs>
    <g transform="translate(179.865938 35.472)scale(0.12 -0.12)">
     <use xlink:href="#DejaVuSans-52"/>
     <use x="69.419922" xlink:href="#DejaVuSans-65"/>
     <use x="130.943359" xlink:href="#DejaVuSans-6c"/>
     <use x="158.726562" xlink:href="#DejaVuSans-20"/>
     <use x="190.513672" xlink:href="#DejaVuSans-47"/>
     <use x="268.003906" xlink:href="#DejaVuSans-74"/>
     <use x="307.212891" xlink:href="#DejaVuSans-20"/>
     <use x="339" xlink:href="#DejaVuSans-54"/>
     <use x="399.865234" xlink:href="#DejaVuSans-72"/>
     <use x="440.978516" xlink:href="#DejaVuSans-61"/>
     <use x="502.257812" xlink:href="#DejaVuSans-6e"/>
     <use x="565.636719" xlink:href="#DejaVuSans-73"/>
     <use x="617.736328" xlink:href="#DejaVuSans-20"/>
     <use x="649.523438" xlink:href="#DejaVuSans-5a"/>
     <use x="718.029297" xlink:href="#DejaVuSans-20"/>
     <use x="749.816406" xlink:href="#DejaVuSans-50"/>
     <use x="810.119141" xlink:href="#DejaVuSans-6c"/>
     <use x="837.902344" xlink:href="#DejaVuSans-6f"/>
     <use x="899.083984" xlink:href="#DejaVuSans-74"/>
    </g>
   </g>
  </g>
 </g>
 <defs>
  <clipPath id="pda286ce1eb">
   <rect height="266.112" width="357.12" x="57.6" y="41.472"/>
  </clipPath>
 </defs>
</svg>
