<?xml version="1.0" encoding="utf-8" standalone="no"?>
<!DOCTYPE svg PUBLIC "-//W3C//DTD SVG 1.1//EN"
  "http://www.w3.org/Graphics/SVG/1.1/DTD/svg11.dtd">
<!-- Created with matplotlib (http://matplotlib.org/) -->
<svg height="345.6pt" version="1.1" viewBox="0 0 460.8 345.6" width="460.8pt" xmlns="http://www.w3.org/2000/svg" xmlns:xlink="http://www.w3.org/1999/xlink">
 <defs>
  <style type="text/css">
*{stroke-linecap:butt;stroke-linejoin:round;}
  </style>
 </defs>
 <g id="figure_1">
  <g id="patch_1">
   <path d="M 0 345.6 
L 460.8 345.6 
L 460.8 0 
L 0 0 
z
" style="fill:#ffffff;"/>
  </g>
  <g id="axes_1">
   <g id="patch_2">
    <path d="M 57.6 307.584 
L 414.72 307.584 
L 414.72 41.472 
L 57.6 41.472 
z
" style="fill:#ffffff;"/>
   </g>
   <g id="matplotlib.axis_1">
    <g id="xtick_1">
     <g id="line2d_1">
      <path clip-path="url(#p6c863a7b23)" d="M 69.69601 307.584 
L 69.69601 41.472 
" style="fill:none;stroke:#b0b0b0;stroke-linecap:square;stroke-width:0.8;"/>
     </g>
     <g id="line2d_2">
      <defs>
       <path d="M 0 0 
L 0 3.5 
" id="m0318185198" style="stroke:#000000;stroke-width:0.8;"/>
      </defs>
      <g>
       <use style="stroke:#000000;stroke-width:0.8;" x="69.69601" xlink:href="#m0318185198" y="307.584"/>
      </g>
     </g>
     <g id="text_1">
      <!-- 99540 -->
      <defs>
       <path d="M 10.984375 1.515625 
L 10.984375 10.5 
Q 14.703125 8.734375 18.5 7.8125 
Q 22.3125 6.890625 25.984375 6.890625 
Q 35.75 6.890625 40.890625 13.453125 
Q 46.046875 20.015625 46.78125 33.40625 
Q 43.953125 29.203125 39.59375 26.953125 
Q 35.25 24.703125 29.984375 24.703125 
Q 19.046875 24.703125 12.671875 31.3125 
Q 6.296875 37.9375 6.296875 49.421875 
Q 6.296875 60.640625 12.9375 67.421875 
Q 19.578125 74.21875 30.609375 74.21875 
Q 43.265625 74.21875 49.921875 64.515625 
Q 56.59375 54.828125 56.59375 36.375 
Q 56.59375 19.140625 48.40625 8.859375 
Q 40.234375 -1.421875 26.421875 -1.421875 
Q 22.703125 -1.421875 18.890625 -0.6875 
Q 15.09375 0.046875 10.984375 1.515625 
z
M 30.609375 32.421875 
Q 37.25 32.421875 41.125 36.953125 
Q 45.015625 41.5 45.015625 49.421875 
Q 45.015625 57.28125 41.125 61.84375 
Q 37.25 66.40625 30.609375 66.40625 
Q 23.96875 66.40625 20.09375 61.84375 
Q 16.21875 57.28125 16.21875 49.421875 
Q 16.21875 41.5 20.09375 36.953125 
Q 23.96875 32.421875 30.609375 32.421875 
z
" id="DejaVuSans-39"/>
       <path d="M 10.796875 72.90625 
L 49.515625 72.90625 
L 49.515625 64.59375 
L 19.828125 64.59375 
L 19.828125 46.734375 
Q 21.96875 47.46875 24.109375 47.828125 
Q 26.265625 48.1875 28.421875 48.1875 
Q 40.625 48.1875 47.75 41.5 
Q 54.890625 34.8125 54.890625 23.390625 
Q 54.890625 11.625 47.5625 5.09375 
Q 40.234375 -1.421875 26.90625 -1.421875 
Q 22.3125 -1.421875 17.546875 -0.640625 
Q 12.796875 0.140625 7.71875 1.703125 
L 7.71875 11.625 
Q 12.109375 9.234375 16.796875 8.0625 
Q 21.484375 6.890625 26.703125 6.890625 
Q 35.15625 6.890625 40.078125 11.328125 
Q 45.015625 15.765625 45.015625 23.390625 
Q 45.015625 31 40.078125 35.4375 
Q 35.15625 39.890625 26.703125 39.890625 
Q 22.75 39.890625 18.8125 39.015625 
Q 14.890625 38.140625 10.796875 36.28125 
z
" id="DejaVuSans-35"/>
       <path d="M 37.796875 64.3125 
L 12.890625 25.390625 
L 37.796875 25.390625 
z
M 35.203125 72.90625 
L 47.609375 72.90625 
L 47.609375 25.390625 
L 58.015625 25.390625 
L 58.015625 17.1875 
L 47.609375 17.1875 
L 47.609375 0 
L 37.796875 0 
L 37.796875 17.1875 
L 4.890625 17.1875 
L 4.890625 26.703125 
z
" id="DejaVuSans-34"/>
       <path d="M 31.78125 66.40625 
Q 24.171875 66.40625 20.328125 58.90625 
Q 16.5 51.421875 16.5 36.375 
Q 16.5 21.390625 20.328125 13.890625 
Q 24.171875 6.390625 31.78125 6.390625 
Q 39.453125 6.390625 43.28125 13.890625 
Q 47.125 21.390625 47.125 36.375 
Q 47.125 51.421875 43.28125 58.90625 
Q 39.453125 66.40625 31.78125 66.40625 
z
M 31.78125 74.21875 
Q 44.046875 74.21875 50.515625 64.515625 
Q 56.984375 54.828125 56.984375 36.375 
Q 56.984375 17.96875 50.515625 8.265625 
Q 44.046875 -1.421875 31.78125 -1.421875 
Q 19.53125 -1.421875 13.0625 8.265625 
Q 6.59375 17.96875 6.59375 36.375 
Q 6.59375 54.828125 13.0625 64.515625 
Q 19.53125 74.21875 31.78125 74.21875 
z
" id="DejaVuSans-30"/>
      </defs>
      <g transform="translate(53.78976 322.182437)scale(0.1 -0.1)">
       <use xlink:href="#DejaVuSans-39"/>
       <use x="63.623047" xlink:href="#DejaVuSans-39"/>
       <use x="127.246094" xlink:href="#DejaVuSans-35"/>
       <use x="190.869141" xlink:href="#DejaVuSans-34"/>
       <use x="254.492188" xlink:href="#DejaVuSans-30"/>
      </g>
     </g>
    </g>
    <g id="xtick_2">
     <g id="line2d_3">
      <path clip-path="url(#p6c863a7b23)" d="M 115.793899 307.584 
L 115.793899 41.472 
" style="fill:none;stroke:#b0b0b0;stroke-linecap:square;stroke-width:0.8;"/>
     </g>
     <g id="line2d_4">
      <g>
       <use style="stroke:#000000;stroke-width:0.8;" x="115.793899" xlink:href="#m0318185198" y="307.584"/>
      </g>
     </g>
     <g id="text_2">
      <!-- 99560 -->
      <defs>
       <path d="M 33.015625 40.375 
Q 26.375 40.375 22.484375 35.828125 
Q 18.609375 31.296875 18.609375 23.390625 
Q 18.609375 15.53125 22.484375 10.953125 
Q 26.375 6.390625 33.015625 6.390625 
Q 39.65625 6.390625 43.53125 10.953125 
Q 47.40625 15.53125 47.40625 23.390625 
Q 47.40625 31.296875 43.53125 35.828125 
Q 39.65625 40.375 33.015625 40.375 
z
M 52.59375 71.296875 
L 52.59375 62.3125 
Q 48.875 64.0625 45.09375 64.984375 
Q 41.3125 65.921875 37.59375 65.921875 
Q 27.828125 65.921875 22.671875 59.328125 
Q 17.53125 52.734375 16.796875 39.40625 
Q 19.671875 43.65625 24.015625 45.921875 
Q 28.375 48.1875 33.59375 48.1875 
Q 44.578125 48.1875 50.953125 41.515625 
Q 57.328125 34.859375 57.328125 23.390625 
Q 57.328125 12.15625 50.6875 5.359375 
Q 44.046875 -1.421875 33.015625 -1.421875 
Q 20.359375 -1.421875 13.671875 8.265625 
Q 6.984375 17.96875 6.984375 36.375 
Q 6.984375 53.65625 15.1875 63.9375 
Q 23.390625 74.21875 37.203125 74.21875 
Q 40.921875 74.21875 44.703125 73.484375 
Q 48.484375 72.75 52.59375 71.296875 
z
" id="DejaVuSans-36"/>
      </defs>
      <g transform="translate(99.887649 322.182437)scale(0.1 -0.1)">
       <use xlink:href="#DejaVuSans-39"/>
       <use x="63.623047" xlink:href="#DejaVuSans-39"/>
       <use x="127.246094" xlink:href="#DejaVuSans-35"/>
       <use x="190.869141" xlink:href="#DejaVuSans-36"/>
       <use x="254.492188" xlink:href="#DejaVuSans-30"/>
      </g>
     </g>
    </g>
    <g id="xtick_3">
     <g id="line2d_5">
      <path clip-path="url(#p6c863a7b23)" d="M 161.891788 307.584 
L 161.891788 41.472 
" style="fill:none;stroke:#b0b0b0;stroke-linecap:square;stroke-width:0.8;"/>
     </g>
     <g id="line2d_6">
      <g>
       <use style="stroke:#000000;stroke-width:0.8;" x="161.891788" xlink:href="#m0318185198" y="307.584"/>
      </g>
     </g>
     <g id="text_3">
      <!-- 99580 -->
      <defs>
       <path d="M 31.78125 34.625 
Q 24.75 34.625 20.71875 30.859375 
Q 16.703125 27.09375 16.703125 20.515625 
Q 16.703125 13.921875 20.71875 10.15625 
Q 24.75 6.390625 31.78125 6.390625 
Q 38.8125 6.390625 42.859375 10.171875 
Q 46.921875 13.96875 46.921875 20.515625 
Q 46.921875 27.09375 42.890625 30.859375 
Q 38.875 34.625 31.78125 34.625 
z
M 21.921875 38.8125 
Q 15.578125 40.375 12.03125 44.71875 
Q 8.5 49.078125 8.5 55.328125 
Q 8.5 64.0625 14.71875 69.140625 
Q 20.953125 74.21875 31.78125 74.21875 
Q 42.671875 74.21875 48.875 69.140625 
Q 55.078125 64.0625 55.078125 55.328125 
Q 55.078125 49.078125 51.53125 44.71875 
Q 48 40.375 41.703125 38.8125 
Q 48.828125 37.15625 52.796875 32.3125 
Q 56.78125 27.484375 56.78125 20.515625 
Q 56.78125 9.90625 50.3125 4.234375 
Q 43.84375 -1.421875 31.78125 -1.421875 
Q 19.734375 -1.421875 13.25 4.234375 
Q 6.78125 9.90625 6.78125 20.515625 
Q 6.78125 27.484375 10.78125 32.3125 
Q 14.796875 37.15625 21.921875 38.8125 
z
M 18.3125 54.390625 
Q 18.3125 48.734375 21.84375 45.5625 
Q 25.390625 42.390625 31.78125 42.390625 
Q 38.140625 42.390625 41.71875 45.5625 
Q 45.3125 48.734375 45.3125 54.390625 
Q 45.3125 60.0625 41.71875 63.234375 
Q 38.140625 66.40625 31.78125 66.40625 
Q 25.390625 66.40625 21.84375 63.234375 
Q 18.3125 60.0625 18.3125 54.390625 
z
" id="DejaVuSans-38"/>
      </defs>
      <g transform="translate(145.985538 322.182437)scale(0.1 -0.1)">
       <use xlink:href="#DejaVuSans-39"/>
       <use x="63.623047" xlink:href="#DejaVuSans-39"/>
       <use x="127.246094" xlink:href="#DejaVuSans-35"/>
       <use x="190.869141" xlink:href="#DejaVuSans-38"/>
       <use x="254.492188" xlink:href="#DejaVuSans-30"/>
      </g>
     </g>
    </g>
    <g id="xtick_4">
     <g id="line2d_7">
      <path clip-path="url(#p6c863a7b23)" d="M 207.989677 307.584 
L 207.989677 41.472 
" style="fill:none;stroke:#b0b0b0;stroke-linecap:square;stroke-width:0.8;"/>
     </g>
     <g id="line2d_8">
      <g>
       <use style="stroke:#000000;stroke-width:0.8;" x="207.989677" xlink:href="#m0318185198" y="307.584"/>
      </g>
     </g>
     <g id="text_4">
      <!-- 99600 -->
      <g transform="translate(192.083427 322.182437)scale(0.1 -0.1)">
       <use xlink:href="#DejaVuSans-39"/>
       <use x="63.623047" xlink:href="#DejaVuSans-39"/>
       <use x="127.246094" xlink:href="#DejaVuSans-36"/>
       <use x="190.869141" xlink:href="#DejaVuSans-30"/>
       <use x="254.492188" xlink:href="#DejaVuSans-30"/>
      </g>
     </g>
    </g>
    <g id="xtick_5">
     <g id="line2d_9">
      <path clip-path="url(#p6c863a7b23)" d="M 254.087566 307.584 
L 254.087566 41.472 
" style="fill:none;stroke:#b0b0b0;stroke-linecap:square;stroke-width:0.8;"/>
     </g>
     <g id="line2d_10">
      <g>
       <use style="stroke:#000000;stroke-width:0.8;" x="254.087566" xlink:href="#m0318185198" y="307.584"/>
      </g>
     </g>
     <g id="text_5">
      <!-- 99620 -->
      <defs>
       <path d="M 19.1875 8.296875 
L 53.609375 8.296875 
L 53.609375 0 
L 7.328125 0 
L 7.328125 8.296875 
Q 12.9375 14.109375 22.625 23.890625 
Q 32.328125 33.6875 34.8125 36.53125 
Q 39.546875 41.84375 41.421875 45.53125 
Q 43.3125 49.21875 43.3125 52.78125 
Q 43.3125 58.59375 39.234375 62.25 
Q 35.15625 65.921875 28.609375 65.921875 
Q 23.96875 65.921875 18.8125 64.3125 
Q 13.671875 62.703125 7.8125 59.421875 
L 7.8125 69.390625 
Q 13.765625 71.78125 18.9375 73 
Q 24.125 74.21875 28.421875 74.21875 
Q 39.75 74.21875 46.484375 68.546875 
Q 53.21875 62.890625 53.21875 53.421875 
Q 53.21875 48.921875 51.53125 44.890625 
Q 49.859375 40.875 45.40625 35.40625 
Q 44.1875 33.984375 37.640625 27.21875 
Q 31.109375 20.453125 19.1875 8.296875 
z
" id="DejaVuSans-32"/>
      </defs>
      <g transform="translate(238.181316 322.182437)scale(0.1 -0.1)">
       <use xlink:href="#DejaVuSans-39"/>
       <use x="63.623047" xlink:href="#DejaVuSans-39"/>
       <use x="127.246094" xlink:href="#DejaVuSans-36"/>
       <use x="190.869141" xlink:href="#DejaVuSans-32"/>
       <use x="254.492188" xlink:href="#DejaVuSans-30"/>
      </g>
     </g>
    </g>
    <g id="xtick_6">
     <g id="line2d_11">
      <path clip-path="url(#p6c863a7b23)" d="M 300.185455 307.584 
L 300.185455 41.472 
" style="fill:none;stroke:#b0b0b0;stroke-linecap:square;stroke-width:0.8;"/>
     </g>
     <g id="line2d_12">
      <g>
       <use style="stroke:#000000;stroke-width:0.8;" x="300.185455" xlink:href="#m0318185198" y="307.584"/>
      </g>
     </g>
     <g id="text_6">
      <!-- 99640 -->
      <g transform="translate(284.279205 322.182437)scale(0.1 -0.1)">
       <use xlink:href="#DejaVuSans-39"/>
       <use x="63.623047" xlink:href="#DejaVuSans-39"/>
       <use x="127.246094" xlink:href="#DejaVuSans-36"/>
       <use x="190.869141" xlink:href="#DejaVuSans-34"/>
       <use x="254.492188" xlink:href="#DejaVuSans-30"/>
      </g>
     </g>
    </g>
    <g id="xtick_7">
     <g id="line2d_13">
      <path clip-path="url(#p6c863a7b23)" d="M 346.283345 307.584 
L 346.283345 41.472 
" style="fill:none;stroke:#b0b0b0;stroke-linecap:square;stroke-width:0.8;"/>
     </g>
     <g id="line2d_14">
      <g>
       <use style="stroke:#000000;stroke-width:0.8;" x="346.283345" xlink:href="#m0318185198" y="307.584"/>
      </g>
     </g>
     <g id="text_7">
      <!-- 99660 -->
      <g transform="translate(330.377095 322.182437)scale(0.1 -0.1)">
       <use xlink:href="#DejaVuSans-39"/>
       <use x="63.623047" xlink:href="#DejaVuSans-39"/>
       <use x="127.246094" xlink:href="#DejaVuSans-36"/>
       <use x="190.869141" xlink:href="#DejaVuSans-36"/>
       <use x="254.492188" xlink:href="#DejaVuSans-30"/>
      </g>
     </g>
    </g>
    <g id="xtick_8">
     <g id="line2d_15">
      <path clip-path="url(#p6c863a7b23)" d="M 392.381234 307.584 
L 392.381234 41.472 
" style="fill:none;stroke:#b0b0b0;stroke-linecap:square;stroke-width:0.8;"/>
     </g>
     <g id="line2d_16">
      <g>
       <use style="stroke:#000000;stroke-width:0.8;" x="392.381234" xlink:href="#m0318185198" y="307.584"/>
      </g>
     </g>
     <g id="text_8">
      <!-- 99680 -->
      <g transform="translate(376.474984 322.182437)scale(0.1 -0.1)">
       <use xlink:href="#DejaVuSans-39"/>
       <use x="63.623047" xlink:href="#DejaVuSans-39"/>
       <use x="127.246094" xlink:href="#DejaVuSans-36"/>
       <use x="190.869141" xlink:href="#DejaVuSans-38"/>
       <use x="254.492188" xlink:href="#DejaVuSans-30"/>
      </g>
     </g>
    </g>
    <g id="xtick_9">
     <g id="line2d_17">
      <path clip-path="url(#p6c863a7b23)" d="M 58.171537 307.584 
L 58.171537 41.472 
" style="fill:none;stroke:#b0b0b0;stroke-linecap:square;stroke-width:0.8;"/>
     </g>
     <g id="line2d_18">
      <defs>
       <path d="M 0 0 
L 0 2 
" id="m996241bca9" style="stroke:#000000;stroke-width:0.6;"/>
      </defs>
      <g>
       <use style="stroke:#000000;stroke-width:0.6;" x="58.171537" xlink:href="#m996241bca9" y="307.584"/>
      </g>
     </g>
    </g>
    <g id="xtick_10">
     <g id="line2d_19">
      <path clip-path="url(#p6c863a7b23)" d="M 81.220482 307.584 
L 81.220482 41.472 
" style="fill:none;stroke:#b0b0b0;stroke-linecap:square;stroke-width:0.8;"/>
     </g>
     <g id="line2d_20">
      <g>
       <use style="stroke:#000000;stroke-width:0.6;" x="81.220482" xlink:href="#m996241bca9" y="307.584"/>
      </g>
     </g>
    </g>
    <g id="xtick_11">
     <g id="line2d_21">
      <path clip-path="url(#p6c863a7b23)" d="M 92.744954 307.584 
L 92.744954 41.472 
" style="fill:none;stroke:#b0b0b0;stroke-linecap:square;stroke-width:0.8;"/>
     </g>
     <g id="line2d_22">
      <g>
       <use style="stroke:#000000;stroke-width:0.6;" x="92.744954" xlink:href="#m996241bca9" y="307.584"/>
      </g>
     </g>
    </g>
    <g id="xtick_12">
     <g id="line2d_23">
      <path clip-path="url(#p6c863a7b23)" d="M 104.269427 307.584 
L 104.269427 41.472 
" style="fill:none;stroke:#b0b0b0;stroke-linecap:square;stroke-width:0.8;"/>
     </g>
     <g id="line2d_24">
      <g>
       <use style="stroke:#000000;stroke-width:0.6;" x="104.269427" xlink:href="#m996241bca9" y="307.584"/>
      </g>
     </g>
    </g>
    <g id="xtick_13">
     <g id="line2d_25">
      <path clip-path="url(#p6c863a7b23)" d="M 127.318371 307.584 
L 127.318371 41.472 
" style="fill:none;stroke:#b0b0b0;stroke-linecap:square;stroke-width:0.8;"/>
     </g>
     <g id="line2d_26">
      <g>
       <use style="stroke:#000000;stroke-width:0.6;" x="127.318371" xlink:href="#m996241bca9" y="307.584"/>
      </g>
     </g>
    </g>
    <g id="xtick_14">
     <g id="line2d_27">
      <path clip-path="url(#p6c863a7b23)" d="M 138.842843 307.584 
L 138.842843 41.472 
" style="fill:none;stroke:#b0b0b0;stroke-linecap:square;stroke-width:0.8;"/>
     </g>
     <g id="line2d_28">
      <g>
       <use style="stroke:#000000;stroke-width:0.6;" x="138.842843" xlink:href="#m996241bca9" y="307.584"/>
      </g>
     </g>
    </g>
    <g id="xtick_15">
     <g id="line2d_29">
      <path clip-path="url(#p6c863a7b23)" d="M 150.367316 307.584 
L 150.367316 41.472 
" style="fill:none;stroke:#b0b0b0;stroke-linecap:square;stroke-width:0.8;"/>
     </g>
     <g id="line2d_30">
      <g>
       <use style="stroke:#000000;stroke-width:0.6;" x="150.367316" xlink:href="#m996241bca9" y="307.584"/>
      </g>
     </g>
    </g>
    <g id="xtick_16">
     <g id="line2d_31">
      <path clip-path="url(#p6c863a7b23)" d="M 173.41626 307.584 
L 173.41626 41.472 
" style="fill:none;stroke:#b0b0b0;stroke-linecap:square;stroke-width:0.8;"/>
     </g>
     <g id="line2d_32">
      <g>
       <use style="stroke:#000000;stroke-width:0.6;" x="173.41626" xlink:href="#m996241bca9" y="307.584"/>
      </g>
     </g>
    </g>
    <g id="xtick_17">
     <g id="line2d_33">
      <path clip-path="url(#p6c863a7b23)" d="M 184.940733 307.584 
L 184.940733 41.472 
" style="fill:none;stroke:#b0b0b0;stroke-linecap:square;stroke-width:0.8;"/>
     </g>
     <g id="line2d_34">
      <g>
       <use style="stroke:#000000;stroke-width:0.6;" x="184.940733" xlink:href="#m996241bca9" y="307.584"/>
      </g>
     </g>
    </g>
    <g id="xtick_18">
     <g id="line2d_35">
      <path clip-path="url(#p6c863a7b23)" d="M 196.465205 307.584 
L 196.465205 41.472 
" style="fill:none;stroke:#b0b0b0;stroke-linecap:square;stroke-width:0.8;"/>
     </g>
     <g id="line2d_36">
      <g>
       <use style="stroke:#000000;stroke-width:0.6;" x="196.465205" xlink:href="#m996241bca9" y="307.584"/>
      </g>
     </g>
    </g>
    <g id="xtick_19">
     <g id="line2d_37">
      <path clip-path="url(#p6c863a7b23)" d="M 219.514149 307.584 
L 219.514149 41.472 
" style="fill:none;stroke:#b0b0b0;stroke-linecap:square;stroke-width:0.8;"/>
     </g>
     <g id="line2d_38">
      <g>
       <use style="stroke:#000000;stroke-width:0.6;" x="219.514149" xlink:href="#m996241bca9" y="307.584"/>
      </g>
     </g>
    </g>
    <g id="xtick_20">
     <g id="line2d_39">
      <path clip-path="url(#p6c863a7b23)" d="M 231.038622 307.584 
L 231.038622 41.472 
" style="fill:none;stroke:#b0b0b0;stroke-linecap:square;stroke-width:0.8;"/>
     </g>
     <g id="line2d_40">
      <g>
       <use style="stroke:#000000;stroke-width:0.6;" x="231.038622" xlink:href="#m996241bca9" y="307.584"/>
      </g>
     </g>
    </g>
    <g id="xtick_21">
     <g id="line2d_41">
      <path clip-path="url(#p6c863a7b23)" d="M 242.563094 307.584 
L 242.563094 41.472 
" style="fill:none;stroke:#b0b0b0;stroke-linecap:square;stroke-width:0.8;"/>
     </g>
     <g id="line2d_42">
      <g>
       <use style="stroke:#000000;stroke-width:0.6;" x="242.563094" xlink:href="#m996241bca9" y="307.584"/>
      </g>
     </g>
    </g>
    <g id="xtick_22">
     <g id="line2d_43">
      <path clip-path="url(#p6c863a7b23)" d="M 265.612039 307.584 
L 265.612039 41.472 
" style="fill:none;stroke:#b0b0b0;stroke-linecap:square;stroke-width:0.8;"/>
     </g>
     <g id="line2d_44">
      <g>
       <use style="stroke:#000000;stroke-width:0.6;" x="265.612039" xlink:href="#m996241bca9" y="307.584"/>
      </g>
     </g>
    </g>
    <g id="xtick_23">
     <g id="line2d_45">
      <path clip-path="url(#p6c863a7b23)" d="M 277.136511 307.584 
L 277.136511 41.472 
" style="fill:none;stroke:#b0b0b0;stroke-linecap:square;stroke-width:0.8;"/>
     </g>
     <g id="line2d_46">
      <g>
       <use style="stroke:#000000;stroke-width:0.6;" x="277.136511" xlink:href="#m996241bca9" y="307.584"/>
      </g>
     </g>
    </g>
    <g id="xtick_24">
     <g id="line2d_47">
      <path clip-path="url(#p6c863a7b23)" d="M 288.660983 307.584 
L 288.660983 41.472 
" style="fill:none;stroke:#b0b0b0;stroke-linecap:square;stroke-width:0.8;"/>
     </g>
     <g id="line2d_48">
      <g>
       <use style="stroke:#000000;stroke-width:0.6;" x="288.660983" xlink:href="#m996241bca9" y="307.584"/>
      </g>
     </g>
    </g>
    <g id="xtick_25">
     <g id="line2d_49">
      <path clip-path="url(#p6c863a7b23)" d="M 311.709928 307.584 
L 311.709928 41.472 
" style="fill:none;stroke:#b0b0b0;stroke-linecap:square;stroke-width:0.8;"/>
     </g>
     <g id="line2d_50">
      <g>
       <use style="stroke:#000000;stroke-width:0.6;" x="311.709928" xlink:href="#m996241bca9" y="307.584"/>
      </g>
     </g>
    </g>
    <g id="xtick_26">
     <g id="line2d_51">
      <path clip-path="url(#p6c863a7b23)" d="M 323.2344 307.584 
L 323.2344 41.472 
" style="fill:none;stroke:#b0b0b0;stroke-linecap:square;stroke-width:0.8;"/>
     </g>
     <g id="line2d_52">
      <g>
       <use style="stroke:#000000;stroke-width:0.6;" x="323.2344" xlink:href="#m996241bca9" y="307.584"/>
      </g>
     </g>
    </g>
    <g id="xtick_27">
     <g id="line2d_53">
      <path clip-path="url(#p6c863a7b23)" d="M 334.758872 307.584 
L 334.758872 41.472 
" style="fill:none;stroke:#b0b0b0;stroke-linecap:square;stroke-width:0.8;"/>
     </g>
     <g id="line2d_54">
      <g>
       <use style="stroke:#000000;stroke-width:0.6;" x="334.758872" xlink:href="#m996241bca9" y="307.584"/>
      </g>
     </g>
    </g>
    <g id="xtick_28">
     <g id="line2d_55">
      <path clip-path="url(#p6c863a7b23)" d="M 357.807817 307.584 
L 357.807817 41.472 
" style="fill:none;stroke:#b0b0b0;stroke-linecap:square;stroke-width:0.8;"/>
     </g>
     <g id="line2d_56">
      <g>
       <use style="stroke:#000000;stroke-width:0.6;" x="357.807817" xlink:href="#m996241bca9" y="307.584"/>
      </g>
     </g>
    </g>
    <g id="xtick_29">
     <g id="line2d_57">
      <path clip-path="url(#p6c863a7b23)" d="M 369.332289 307.584 
L 369.332289 41.472 
" style="fill:none;stroke:#b0b0b0;stroke-linecap:square;stroke-width:0.8;"/>
     </g>
     <g id="line2d_58">
      <g>
       <use style="stroke:#000000;stroke-width:0.6;" x="369.332289" xlink:href="#m996241bca9" y="307.584"/>
      </g>
     </g>
    </g>
    <g id="xtick_30">
     <g id="line2d_59">
      <path clip-path="url(#p6c863a7b23)" d="M 380.856762 307.584 
L 380.856762 41.472 
" style="fill:none;stroke:#b0b0b0;stroke-linecap:square;stroke-width:0.8;"/>
     </g>
     <g id="line2d_60">
      <g>
       <use style="stroke:#000000;stroke-width:0.6;" x="380.856762" xlink:href="#m996241bca9" y="307.584"/>
      </g>
     </g>
    </g>
    <g id="xtick_31">
     <g id="line2d_61">
      <path clip-path="url(#p6c863a7b23)" d="M 403.905706 307.584 
L 403.905706 41.472 
" style="fill:none;stroke:#b0b0b0;stroke-linecap:square;stroke-width:0.8;"/>
     </g>
     <g id="line2d_62">
      <g>
       <use style="stroke:#000000;stroke-width:0.6;" x="403.905706" xlink:href="#m996241bca9" y="307.584"/>
      </g>
     </g>
    </g>
    <g id="text_9">
     <!-- frame # [] -->
     <defs>
      <path d="M 37.109375 75.984375 
L 37.109375 68.5 
L 28.515625 68.5 
Q 23.6875 68.5 21.796875 66.546875 
Q 19.921875 64.59375 19.921875 59.515625 
L 19.921875 54.6875 
L 34.71875 54.6875 
L 34.71875 47.703125 
L 19.921875 47.703125 
L 19.921875 0 
L 10.890625 0 
L 10.890625 47.703125 
L 2.296875 47.703125 
L 2.296875 54.6875 
L 10.890625 54.6875 
L 10.890625 58.5 
Q 10.890625 67.625 15.140625 71.796875 
Q 19.390625 75.984375 28.609375 75.984375 
z
" id="DejaVuSans-66"/>
      <path d="M 41.109375 46.296875 
Q 39.59375 47.171875 37.8125 47.578125 
Q 36.03125 48 33.890625 48 
Q 26.265625 48 22.1875 43.046875 
Q 18.109375 38.09375 18.109375 28.8125 
L 18.109375 0 
L 9.078125 0 
L 9.078125 54.6875 
L 18.109375 54.6875 
L 18.109375 46.1875 
Q 20.953125 51.171875 25.484375 53.578125 
Q 30.03125 56 36.53125 56 
Q 37.453125 56 38.578125 55.875 
Q 39.703125 55.765625 41.0625 55.515625 
z
" id="DejaVuSans-72"/>
      <path d="M 34.28125 27.484375 
Q 23.390625 27.484375 19.1875 25 
Q 14.984375 22.515625 14.984375 16.5 
Q 14.984375 11.71875 18.140625 8.90625 
Q 21.296875 6.109375 26.703125 6.109375 
Q 34.1875 6.109375 38.703125 11.40625 
Q 43.21875 16.703125 43.21875 25.484375 
L 43.21875 27.484375 
z
M 52.203125 31.203125 
L 52.203125 0 
L 43.21875 0 
L 43.21875 8.296875 
Q 40.140625 3.328125 35.546875 0.953125 
Q 30.953125 -1.421875 24.3125 -1.421875 
Q 15.921875 -1.421875 10.953125 3.296875 
Q 6 8.015625 6 15.921875 
Q 6 25.140625 12.171875 29.828125 
Q 18.359375 34.515625 30.609375 34.515625 
L 43.21875 34.515625 
L 43.21875 35.40625 
Q 43.21875 41.609375 39.140625 45 
Q 35.0625 48.390625 27.6875 48.390625 
Q 23 48.390625 18.546875 47.265625 
Q 14.109375 46.140625 10.015625 43.890625 
L 10.015625 52.203125 
Q 14.9375 54.109375 19.578125 55.046875 
Q 24.21875 56 28.609375 56 
Q 40.484375 56 46.34375 49.84375 
Q 52.203125 43.703125 52.203125 31.203125 
z
" id="DejaVuSans-61"/>
      <path d="M 52 44.1875 
Q 55.375 50.25 60.0625 53.125 
Q 64.75 56 71.09375 56 
Q 79.640625 56 84.28125 50.015625 
Q 88.921875 44.046875 88.921875 33.015625 
L 88.921875 0 
L 79.890625 0 
L 79.890625 32.71875 
Q 79.890625 40.578125 77.09375 44.375 
Q 74.3125 48.1875 68.609375 48.1875 
Q 61.625 48.1875 57.5625 43.546875 
Q 53.515625 38.921875 53.515625 30.90625 
L 53.515625 0 
L 44.484375 0 
L 44.484375 32.71875 
Q 44.484375 40.625 41.703125 44.40625 
Q 38.921875 48.1875 33.109375 48.1875 
Q 26.21875 48.1875 22.15625 43.53125 
Q 18.109375 38.875 18.109375 30.90625 
L 18.109375 0 
L 9.078125 0 
L 9.078125 54.6875 
L 18.109375 54.6875 
L 18.109375 46.1875 
Q 21.1875 51.21875 25.484375 53.609375 
Q 29.78125 56 35.6875 56 
Q 41.65625 56 45.828125 52.96875 
Q 50 49.953125 52 44.1875 
z
" id="DejaVuSans-6d"/>
      <path d="M 56.203125 29.59375 
L 56.203125 25.203125 
L 14.890625 25.203125 
Q 15.484375 15.921875 20.484375 11.0625 
Q 25.484375 6.203125 34.421875 6.203125 
Q 39.59375 6.203125 44.453125 7.46875 
Q 49.3125 8.734375 54.109375 11.28125 
L 54.109375 2.78125 
Q 49.265625 0.734375 44.1875 -0.34375 
Q 39.109375 -1.421875 33.890625 -1.421875 
Q 20.796875 -1.421875 13.15625 6.1875 
Q 5.515625 13.8125 5.515625 26.8125 
Q 5.515625 40.234375 12.765625 48.109375 
Q 20.015625 56 32.328125 56 
Q 43.359375 56 49.78125 48.890625 
Q 56.203125 41.796875 56.203125 29.59375 
z
M 47.21875 32.234375 
Q 47.125 39.59375 43.09375 43.984375 
Q 39.0625 48.390625 32.421875 48.390625 
Q 24.90625 48.390625 20.390625 44.140625 
Q 15.875 39.890625 15.1875 32.171875 
z
" id="DejaVuSans-65"/>
      <path id="DejaVuSans-20"/>
      <path d="M 51.125 44 
L 36.921875 44 
L 32.8125 27.6875 
L 47.125 27.6875 
z
M 43.796875 71.78125 
L 38.71875 51.515625 
L 52.984375 51.515625 
L 58.109375 71.78125 
L 65.921875 71.78125 
L 60.890625 51.515625 
L 76.125 51.515625 
L 76.125 44 
L 58.984375 44 
L 54.984375 27.6875 
L 70.515625 27.6875 
L 70.515625 20.21875 
L 53.078125 20.21875 
L 48 0 
L 40.1875 0 
L 45.21875 20.21875 
L 30.90625 20.21875 
L 25.875 0 
L 18.015625 0 
L 23.09375 20.21875 
L 7.71875 20.21875 
L 7.71875 27.6875 
L 24.90625 27.6875 
L 29 44 
L 13.28125 44 
L 13.28125 51.515625 
L 30.90625 51.515625 
L 35.890625 71.78125 
z
" id="DejaVuSans-23"/>
      <path d="M 8.59375 75.984375 
L 29.296875 75.984375 
L 29.296875 69 
L 17.578125 69 
L 17.578125 -6.203125 
L 29.296875 -6.203125 
L 29.296875 -13.1875 
L 8.59375 -13.1875 
z
" id="DejaVuSans-5b"/>
      <path d="M 30.421875 75.984375 
L 30.421875 -13.1875 
L 9.71875 -13.1875 
L 9.71875 -6.203125 
L 21.390625 -6.203125 
L 21.390625 69 
L 9.71875 69 
L 9.71875 75.984375 
z
" id="DejaVuSans-5d"/>
     </defs>
     <g transform="translate(210.063906 335.860562)scale(0.1 -0.1)">
      <use xlink:href="#DejaVuSans-66"/>
      <use x="35.205078" xlink:href="#DejaVuSans-72"/>
      <use x="76.318359" xlink:href="#DejaVuSans-61"/>
      <use x="137.597656" xlink:href="#DejaVuSans-6d"/>
      <use x="235.009766" xlink:href="#DejaVuSans-65"/>
      <use x="296.533203" xlink:href="#DejaVuSans-20"/>
      <use x="328.320312" xlink:href="#DejaVuSans-23"/>
      <use x="412.109375" xlink:href="#DejaVuSans-20"/>
      <use x="443.896484" xlink:href="#DejaVuSans-5b"/>
      <use x="482.910156" xlink:href="#DejaVuSans-5d"/>
     </g>
    </g>
   </g>
   <g id="matplotlib.axis_2">
    <g id="ytick_1">
     <g id="line2d_63">
      <path clip-path="url(#p6c863a7b23)" d="M 57.6 274.19863 
L 414.72 274.19863 
" style="fill:none;stroke:#b0b0b0;stroke-linecap:square;stroke-width:0.8;"/>
     </g>
     <g id="line2d_64">
      <defs>
       <path d="M 0 0 
L -3.5 0 
" id="m9745e7832e" style="stroke:#000000;stroke-width:0.8;"/>
      </defs>
      <g>
       <use style="stroke:#000000;stroke-width:0.8;" x="57.6" xlink:href="#m9745e7832e" y="274.19863"/>
      </g>
     </g>
     <g id="text_10">
      <!-- −0.2 -->
      <defs>
       <path d="M 10.59375 35.5 
L 73.1875 35.5 
L 73.1875 27.203125 
L 10.59375 27.203125 
z
" id="DejaVuSans-2212"/>
       <path d="M 10.6875 12.40625 
L 21 12.40625 
L 21 0 
L 10.6875 0 
z
" id="DejaVuSans-2e"/>
      </defs>
      <g transform="translate(26.317187 277.997849)scale(0.1 -0.1)">
       <use xlink:href="#DejaVuSans-2212"/>
       <use x="83.789062" xlink:href="#DejaVuSans-30"/>
       <use x="147.412109" xlink:href="#DejaVuSans-2e"/>
       <use x="179.199219" xlink:href="#DejaVuSans-32"/>
      </g>
     </g>
    </g>
    <g id="ytick_2">
     <g id="line2d_65">
      <path clip-path="url(#p6c863a7b23)" d="M 57.6 221.313113 
L 414.72 221.313113 
" style="fill:none;stroke:#b0b0b0;stroke-linecap:square;stroke-width:0.8;"/>
     </g>
     <g id="line2d_66">
      <g>
       <use style="stroke:#000000;stroke-width:0.8;" x="57.6" xlink:href="#m9745e7832e" y="221.313113"/>
      </g>
     </g>
     <g id="text_11">
      <!-- −0.1 -->
      <defs>
       <path d="M 12.40625 8.296875 
L 28.515625 8.296875 
L 28.515625 63.921875 
L 10.984375 60.40625 
L 10.984375 69.390625 
L 28.421875 72.90625 
L 38.28125 72.90625 
L 38.28125 8.296875 
L 54.390625 8.296875 
L 54.390625 0 
L 12.40625 0 
z
" id="DejaVuSans-31"/>
      </defs>
      <g transform="translate(26.317187 225.112332)scale(0.1 -0.1)">
       <use xlink:href="#DejaVuSans-2212"/>
       <use x="83.789062" xlink:href="#DejaVuSans-30"/>
       <use x="147.412109" xlink:href="#DejaVuSans-2e"/>
       <use x="179.199219" xlink:href="#DejaVuSans-31"/>
      </g>
     </g>
    </g>
    <g id="ytick_3">
     <g id="line2d_67">
      <path clip-path="url(#p6c863a7b23)" d="M 57.6 168.427596 
L 414.72 168.427596 
" style="fill:none;stroke:#b0b0b0;stroke-linecap:square;stroke-width:0.8;"/>
     </g>
     <g id="line2d_68">
      <g>
       <use style="stroke:#000000;stroke-width:0.8;" x="57.6" xlink:href="#m9745e7832e" y="168.427596"/>
      </g>
     </g>
     <g id="text_12">
      <!-- 0.0 -->
      <g transform="translate(34.696875 172.226815)scale(0.1 -0.1)">
       <use xlink:href="#DejaVuSans-30"/>
       <use x="63.623047" xlink:href="#DejaVuSans-2e"/>
       <use x="95.410156" xlink:href="#DejaVuSans-30"/>
      </g>
     </g>
    </g>
    <g id="ytick_4">
     <g id="line2d_69">
      <path clip-path="url(#p6c863a7b23)" d="M 57.6 115.542079 
L 414.72 115.542079 
" style="fill:none;stroke:#b0b0b0;stroke-linecap:square;stroke-width:0.8;"/>
     </g>
     <g id="line2d_70">
      <g>
       <use style="stroke:#000000;stroke-width:0.8;" x="57.6" xlink:href="#m9745e7832e" y="115.542079"/>
      </g>
     </g>
     <g id="text_13">
      <!-- 0.1 -->
      <g transform="translate(34.696875 119.341298)scale(0.1 -0.1)">
       <use xlink:href="#DejaVuSans-30"/>
       <use x="63.623047" xlink:href="#DejaVuSans-2e"/>
       <use x="95.410156" xlink:href="#DejaVuSans-31"/>
      </g>
     </g>
    </g>
    <g id="ytick_5">
     <g id="line2d_71">
      <path clip-path="url(#p6c863a7b23)" d="M 57.6 62.656562 
L 414.72 62.656562 
" style="fill:none;stroke:#b0b0b0;stroke-linecap:square;stroke-width:0.8;"/>
     </g>
     <g id="line2d_72">
      <g>
       <use style="stroke:#000000;stroke-width:0.8;" x="57.6" xlink:href="#m9745e7832e" y="62.656562"/>
      </g>
     </g>
     <g id="text_14">
      <!-- 0.2 -->
      <g transform="translate(34.696875 66.455781)scale(0.1 -0.1)">
       <use xlink:href="#DejaVuSans-30"/>
       <use x="63.623047" xlink:href="#DejaVuSans-2e"/>
       <use x="95.410156" xlink:href="#DejaVuSans-32"/>
      </g>
     </g>
    </g>
    <g id="ytick_6">
     <g id="line2d_73">
      <path clip-path="url(#p6c863a7b23)" d="M 57.6 305.92994 
L 414.72 305.92994 
" style="fill:none;stroke:#b0b0b0;stroke-linecap:square;stroke-width:0.8;"/>
     </g>
     <g id="line2d_74">
      <defs>
       <path d="M 0 0 
L -2 0 
" id="m09207525bf" style="stroke:#000000;stroke-width:0.6;"/>
      </defs>
      <g>
       <use style="stroke:#000000;stroke-width:0.6;" x="57.6" xlink:href="#m09207525bf" y="305.92994"/>
      </g>
     </g>
    </g>
    <g id="ytick_7">
     <g id="line2d_75">
      <path clip-path="url(#p6c863a7b23)" d="M 57.6 295.352837 
L 414.72 295.352837 
" style="fill:none;stroke:#b0b0b0;stroke-linecap:square;stroke-width:0.8;"/>
     </g>
     <g id="line2d_76">
      <g>
       <use style="stroke:#000000;stroke-width:0.6;" x="57.6" xlink:href="#m09207525bf" y="295.352837"/>
      </g>
     </g>
    </g>
    <g id="ytick_8">
     <g id="line2d_77">
      <path clip-path="url(#p6c863a7b23)" d="M 57.6 284.775734 
L 414.72 284.775734 
" style="fill:none;stroke:#b0b0b0;stroke-linecap:square;stroke-width:0.8;"/>
     </g>
     <g id="line2d_78">
      <g>
       <use style="stroke:#000000;stroke-width:0.6;" x="57.6" xlink:href="#m09207525bf" y="284.775734"/>
      </g>
     </g>
    </g>
    <g id="ytick_9">
     <g id="line2d_79">
      <path clip-path="url(#p6c863a7b23)" d="M 57.6 274.19863 
L 414.72 274.19863 
" style="fill:none;stroke:#b0b0b0;stroke-linecap:square;stroke-width:0.8;"/>
     </g>
     <g id="line2d_80">
      <g>
       <use style="stroke:#000000;stroke-width:0.6;" x="57.6" xlink:href="#m09207525bf" y="274.19863"/>
      </g>
     </g>
    </g>
    <g id="ytick_10">
     <g id="line2d_81">
      <path clip-path="url(#p6c863a7b23)" d="M 57.6 263.621527 
L 414.72 263.621527 
" style="fill:none;stroke:#b0b0b0;stroke-linecap:square;stroke-width:0.8;"/>
     </g>
     <g id="line2d_82">
      <g>
       <use style="stroke:#000000;stroke-width:0.6;" x="57.6" xlink:href="#m09207525bf" y="263.621527"/>
      </g>
     </g>
    </g>
    <g id="ytick_11">
     <g id="line2d_83">
      <path clip-path="url(#p6c863a7b23)" d="M 57.6 253.044423 
L 414.72 253.044423 
" style="fill:none;stroke:#b0b0b0;stroke-linecap:square;stroke-width:0.8;"/>
     </g>
     <g id="line2d_84">
      <g>
       <use style="stroke:#000000;stroke-width:0.6;" x="57.6" xlink:href="#m09207525bf" y="253.044423"/>
      </g>
     </g>
    </g>
    <g id="ytick_12">
     <g id="line2d_85">
      <path clip-path="url(#p6c863a7b23)" d="M 57.6 242.46732 
L 414.72 242.46732 
" style="fill:none;stroke:#b0b0b0;stroke-linecap:square;stroke-width:0.8;"/>
     </g>
     <g id="line2d_86">
      <g>
       <use style="stroke:#000000;stroke-width:0.6;" x="57.6" xlink:href="#m09207525bf" y="242.46732"/>
      </g>
     </g>
    </g>
    <g id="ytick_13">
     <g id="line2d_87">
      <path clip-path="url(#p6c863a7b23)" d="M 57.6 231.890217 
L 414.72 231.890217 
" style="fill:none;stroke:#b0b0b0;stroke-linecap:square;stroke-width:0.8;"/>
     </g>
     <g id="line2d_88">
      <g>
       <use style="stroke:#000000;stroke-width:0.6;" x="57.6" xlink:href="#m09207525bf" y="231.890217"/>
      </g>
     </g>
    </g>
    <g id="ytick_14">
     <g id="line2d_89">
      <path clip-path="url(#p6c863a7b23)" d="M 57.6 221.313113 
L 414.72 221.313113 
" style="fill:none;stroke:#b0b0b0;stroke-linecap:square;stroke-width:0.8;"/>
     </g>
     <g id="line2d_90">
      <g>
       <use style="stroke:#000000;stroke-width:0.6;" x="57.6" xlink:href="#m09207525bf" y="221.313113"/>
      </g>
     </g>
    </g>
    <g id="ytick_15">
     <g id="line2d_91">
      <path clip-path="url(#p6c863a7b23)" d="M 57.6 210.73601 
L 414.72 210.73601 
" style="fill:none;stroke:#b0b0b0;stroke-linecap:square;stroke-width:0.8;"/>
     </g>
     <g id="line2d_92">
      <g>
       <use style="stroke:#000000;stroke-width:0.6;" x="57.6" xlink:href="#m09207525bf" y="210.73601"/>
      </g>
     </g>
    </g>
    <g id="ytick_16">
     <g id="line2d_93">
      <path clip-path="url(#p6c863a7b23)" d="M 57.6 200.158906 
L 414.72 200.158906 
" style="fill:none;stroke:#b0b0b0;stroke-linecap:square;stroke-width:0.8;"/>
     </g>
     <g id="line2d_94">
      <g>
       <use style="stroke:#000000;stroke-width:0.6;" x="57.6" xlink:href="#m09207525bf" y="200.158906"/>
      </g>
     </g>
    </g>
    <g id="ytick_17">
     <g id="line2d_95">
      <path clip-path="url(#p6c863a7b23)" d="M 57.6 189.581803 
L 414.72 189.581803 
" style="fill:none;stroke:#b0b0b0;stroke-linecap:square;stroke-width:0.8;"/>
     </g>
     <g id="line2d_96">
      <g>
       <use style="stroke:#000000;stroke-width:0.6;" x="57.6" xlink:href="#m09207525bf" y="189.581803"/>
      </g>
     </g>
    </g>
    <g id="ytick_18">
     <g id="line2d_97">
      <path clip-path="url(#p6c863a7b23)" d="M 57.6 179.004699 
L 414.72 179.004699 
" style="fill:none;stroke:#b0b0b0;stroke-linecap:square;stroke-width:0.8;"/>
     </g>
     <g id="line2d_98">
      <g>
       <use style="stroke:#000000;stroke-width:0.6;" x="57.6" xlink:href="#m09207525bf" y="179.004699"/>
      </g>
     </g>
    </g>
    <g id="ytick_19">
     <g id="line2d_99">
      <path clip-path="url(#p6c863a7b23)" d="M 57.6 168.427596 
L 414.72 168.427596 
" style="fill:none;stroke:#b0b0b0;stroke-linecap:square;stroke-width:0.8;"/>
     </g>
     <g id="line2d_100">
      <g>
       <use style="stroke:#000000;stroke-width:0.6;" x="57.6" xlink:href="#m09207525bf" y="168.427596"/>
      </g>
     </g>
    </g>
    <g id="ytick_20">
     <g id="line2d_101">
      <path clip-path="url(#p6c863a7b23)" d="M 57.6 157.850493 
L 414.72 157.850493 
" style="fill:none;stroke:#b0b0b0;stroke-linecap:square;stroke-width:0.8;"/>
     </g>
     <g id="line2d_102">
      <g>
       <use style="stroke:#000000;stroke-width:0.6;" x="57.6" xlink:href="#m09207525bf" y="157.850493"/>
      </g>
     </g>
    </g>
    <g id="ytick_21">
     <g id="line2d_103">
      <path clip-path="url(#p6c863a7b23)" d="M 57.6 147.273389 
L 414.72 147.273389 
" style="fill:none;stroke:#b0b0b0;stroke-linecap:square;stroke-width:0.8;"/>
     </g>
     <g id="line2d_104">
      <g>
       <use style="stroke:#000000;stroke-width:0.6;" x="57.6" xlink:href="#m09207525bf" y="147.273389"/>
      </g>
     </g>
    </g>
    <g id="ytick_22">
     <g id="line2d_105">
      <path clip-path="url(#p6c863a7b23)" d="M 57.6 136.696286 
L 414.72 136.696286 
" style="fill:none;stroke:#b0b0b0;stroke-linecap:square;stroke-width:0.8;"/>
     </g>
     <g id="line2d_106">
      <g>
       <use style="stroke:#000000;stroke-width:0.6;" x="57.6" xlink:href="#m09207525bf" y="136.696286"/>
      </g>
     </g>
    </g>
    <g id="ytick_23">
     <g id="line2d_107">
      <path clip-path="url(#p6c863a7b23)" d="M 57.6 126.119182 
L 414.72 126.119182 
" style="fill:none;stroke:#b0b0b0;stroke-linecap:square;stroke-width:0.8;"/>
     </g>
     <g id="line2d_108">
      <g>
       <use style="stroke:#000000;stroke-width:0.6;" x="57.6" xlink:href="#m09207525bf" y="126.119182"/>
      </g>
     </g>
    </g>
    <g id="ytick_24">
     <g id="line2d_109">
      <path clip-path="url(#p6c863a7b23)" d="M 57.6 115.542079 
L 414.72 115.542079 
" style="fill:none;stroke:#b0b0b0;stroke-linecap:square;stroke-width:0.8;"/>
     </g>
     <g id="line2d_110">
      <g>
       <use style="stroke:#000000;stroke-width:0.6;" x="57.6" xlink:href="#m09207525bf" y="115.542079"/>
      </g>
     </g>
    </g>
    <g id="ytick_25">
     <g id="line2d_111">
      <path clip-path="url(#p6c863a7b23)" d="M 57.6 104.964976 
L 414.72 104.964976 
" style="fill:none;stroke:#b0b0b0;stroke-linecap:square;stroke-width:0.8;"/>
     </g>
     <g id="line2d_112">
      <g>
       <use style="stroke:#000000;stroke-width:0.6;" x="57.6" xlink:href="#m09207525bf" y="104.964976"/>
      </g>
     </g>
    </g>
    <g id="ytick_26">
     <g id="line2d_113">
      <path clip-path="url(#p6c863a7b23)" d="M 57.6 94.387872 
L 414.72 94.387872 
" style="fill:none;stroke:#b0b0b0;stroke-linecap:square;stroke-width:0.8;"/>
     </g>
     <g id="line2d_114">
      <g>
       <use style="stroke:#000000;stroke-width:0.6;" x="57.6" xlink:href="#m09207525bf" y="94.387872"/>
      </g>
     </g>
    </g>
    <g id="ytick_27">
     <g id="line2d_115">
      <path clip-path="url(#p6c863a7b23)" d="M 57.6 83.810769 
L 414.72 83.810769 
" style="fill:none;stroke:#b0b0b0;stroke-linecap:square;stroke-width:0.8;"/>
     </g>
     <g id="line2d_116">
      <g>
       <use style="stroke:#000000;stroke-width:0.6;" x="57.6" xlink:href="#m09207525bf" y="83.810769"/>
      </g>
     </g>
    </g>
    <g id="ytick_28">
     <g id="line2d_117">
      <path clip-path="url(#p6c863a7b23)" d="M 57.6 73.233665 
L 414.72 73.233665 
" style="fill:none;stroke:#b0b0b0;stroke-linecap:square;stroke-width:0.8;"/>
     </g>
     <g id="line2d_118">
      <g>
       <use style="stroke:#000000;stroke-width:0.6;" x="57.6" xlink:href="#m09207525bf" y="73.233665"/>
      </g>
     </g>
    </g>
    <g id="ytick_29">
     <g id="line2d_119">
      <path clip-path="url(#p6c863a7b23)" d="M 57.6 62.656562 
L 414.72 62.656562 
" style="fill:none;stroke:#b0b0b0;stroke-linecap:square;stroke-width:0.8;"/>
     </g>
     <g id="line2d_120">
      <g>
       <use style="stroke:#000000;stroke-width:0.6;" x="57.6" xlink:href="#m09207525bf" y="62.656562"/>
      </g>
     </g>
    </g>
    <g id="ytick_30">
     <g id="line2d_121">
      <path clip-path="url(#p6c863a7b23)" d="M 57.6 52.079458 
L 414.72 52.079458 
" style="fill:none;stroke:#b0b0b0;stroke-linecap:square;stroke-width:0.8;"/>
     </g>
     <g id="line2d_122">
      <g>
       <use style="stroke:#000000;stroke-width:0.6;" x="57.6" xlink:href="#m09207525bf" y="52.079458"/>
      </g>
     </g>
    </g>
    <g id="ytick_31">
     <g id="line2d_123">
      <path clip-path="url(#p6c863a7b23)" d="M 57.6 41.502355 
L 414.72 41.502355 
" style="fill:none;stroke:#b0b0b0;stroke-linecap:square;stroke-width:0.8;"/>
     </g>
     <g id="line2d_124">
      <g>
       <use style="stroke:#000000;stroke-width:0.6;" x="57.6" xlink:href="#m09207525bf" y="41.502355"/>
      </g>
     </g>
    </g>
    <g id="text_15">
     <!-- rot z -->
     <defs>
      <path d="M 30.609375 48.390625 
Q 23.390625 48.390625 19.1875 42.75 
Q 14.984375 37.109375 14.984375 27.296875 
Q 14.984375 17.484375 19.15625 11.84375 
Q 23.34375 6.203125 30.609375 6.203125 
Q 37.796875 6.203125 41.984375 11.859375 
Q 46.1875 17.53125 46.1875 27.296875 
Q 46.1875 37.015625 41.984375 42.703125 
Q 37.796875 48.390625 30.609375 48.390625 
z
M 30.609375 56 
Q 42.328125 56 49.015625 48.375 
Q 55.71875 40.765625 55.71875 27.296875 
Q 55.71875 13.875 49.015625 6.21875 
Q 42.328125 -1.421875 30.609375 -1.421875 
Q 18.84375 -1.421875 12.171875 6.21875 
Q 5.515625 13.875 5.515625 27.296875 
Q 5.515625 40.765625 12.171875 48.375 
Q 18.84375 56 30.609375 56 
z
" id="DejaVuSans-6f"/>
      <path d="M 18.3125 70.21875 
L 18.3125 54.6875 
L 36.8125 54.6875 
L 36.8125 47.703125 
L 18.3125 47.703125 
L 18.3125 18.015625 
Q 18.3125 11.328125 20.140625 9.421875 
Q 21.96875 7.515625 27.59375 7.515625 
L 36.8125 7.515625 
L 36.8125 0 
L 27.59375 0 
Q 17.1875 0 13.234375 3.875 
Q 9.28125 7.765625 9.28125 18.015625 
L 9.28125 47.703125 
L 2.6875 47.703125 
L 2.6875 54.6875 
L 9.28125 54.6875 
L 9.28125 70.21875 
z
" id="DejaVuSans-74"/>
      <path d="M 5.515625 54.6875 
L 48.1875 54.6875 
L 48.1875 46.484375 
L 14.40625 7.171875 
L 48.1875 7.171875 
L 48.1875 0 
L 4.296875 0 
L 4.296875 8.203125 
L 38.09375 47.515625 
L 5.515625 47.515625 
z
" id="DejaVuSans-7a"/>
     </defs>
     <g transform="translate(20.2375 185.814719)rotate(-90)scale(0.1 -0.1)">
      <use xlink:href="#DejaVuSans-72"/>
      <use x="41.082031" xlink:href="#DejaVuSans-6f"/>
      <use x="102.263672" xlink:href="#DejaVuSans-74"/>
      <use x="141.472656" xlink:href="#DejaVuSans-20"/>
      <use x="173.259766" xlink:href="#DejaVuSans-7a"/>
     </g>
    </g>
   </g>
   <g id="line2d_125">
    <path clip-path="url(#p6c863a7b23)" d="M 87.547463 169.394656 
L 87.777961 168.250843 
L 88.008454 164.67564 
L 88.469447 168.388832 
L 88.699953 159.75514 
L 88.930495 161.719235 
L 89.161236 156.832888 
L 89.391488 161.176192 
L 89.621984 168.708225 
M 90.082548 170.998915 
L 90.313044 166.407413 
L 90.543541 168.923709 
L 90.774012 166.948907 
L 91.235005 178.912112 
L 91.465503 175.869058 
L 91.697315 166.293503 
L 91.927811 162.512509 
L 92.158308 173.743095 
L 92.388804 170.607742 
L 92.619301 170.890874 
L 92.849894 170.380816 
L 93.080391 169.125715 
L 93.310887 172.616833 
L 93.541383 174.116397 
L 93.770692 164.853884 
L 94.001188 164.198582 
L 94.231685 165.810232 
L 94.692582 146.256892 
L 94.923078 147.145564 
L 95.384073 187.572219 
L 95.615676 187.926777 
L 95.846173 176.753251 
L 96.307166 169.815638 
L 96.538857 176.712154 
L 96.769353 173.435147 
L 96.99985 174.905112 
L 97.460349 171.77701 
L 97.690845 175.066596 
L 97.921342 166.651073 
L 98.151838 152.438562 
L 98.380897 151.981285 
L 98.611396 163.767173 
L 98.841892 160.646935 
L 99.072388 160.945239 
L 99.533067 173.208371 
L 99.994059 196.162996 
L 100.225701 185.851848 
L 100.456197 181.617879 
L 100.91719 151.884297 
L 101.147798 164.936822 
L 101.378294 164.468153 
L 101.608791 169.263856 
L 101.839287 170.981808 
M 102.299028 160.191142 
L 102.529524 158.829321 
L 102.760021 149.865549 
L 103.220684 173.164408 
L 103.45118 172.966019 
L 103.681679 182.041416 
L 103.912172 176.483012 
L 104.142907 166.063614 
L 104.373404 169.278947 
L 104.6039 160.593996 
L 104.834399 159.615116 
L 105.065549 162.226876 
L 105.296045 168.422124 
L 105.526542 170.561556 
L 105.98763 176.794075 
L 106.218129 177.417692 
L 106.679121 159.969133 
L 107.139665 170.739878 
L 107.600657 181.125148 
L 107.831238 178.372028 
L 108.292231 164.074774 
L 108.52273 159.572978 
L 108.75382 162.290686 
L 108.984316 177.806099 
L 109.214813 179.739303 
L 109.675335 160.800952 
L 109.905831 161.36567 
L 110.136328 163.798572 
L 110.366824 175.400206 
L 110.596728 176.754416 
L 110.827225 176.474976 
L 111.057905 165.152668 
L 111.288217 165.576587 
L 111.518939 165.592048 
L 111.749435 173.989425 
L 111.979932 171.303721 
L 112.21043 166.855957 
L 112.442736 165.592923 
L 112.673233 176.840893 
L 112.903729 166.189874 
L 113.134225 167.764271 
L 113.364722 173.46669 
L 113.595412 161.932605 
L 113.825908 156.488825 
L 114.056404 158.094776 
L 114.286901 164.947762 
L 114.516513 166.055928 
L 114.747009 167.854475 
L 114.977506 172.450316 
L 115.208002 173.271491 
L 115.437693 172.01256 
L 115.668189 175.256375 
L 115.898688 169.276573 
L 116.129184 171.770369 
M 116.59066 170.353709 
L 117.051653 194.284728 
L 117.282131 180.507488 
L 117.512628 157.853588 
L 117.743124 151.598872 
L 117.97362 164.035336 
L 118.203302 166.13797 
L 118.433798 165.591233 
L 118.664295 152.429582 
M 119.125694 140.297355 
L 119.356191 144.426209 
L 119.817186 175.668926 
L 120.047783 174.491157 
L 120.508779 192.440638 
L 120.739275 205.486505 
M 121.199661 200.195998 
L 121.430157 168.682901 
L 121.891025 151.400838 
L 122.352018 123.242021 
L 122.582514 116.533101 
M 123.504596 137.818432 
L 123.735092 164.011855 
L 124.196199 252.602032 
M 125.350098 231.695202 
L 126.040378 124.359553 
L 126.501371 86.271728 
M 127.193894 56.594021 
L 127.42439 75.569883 
L 128.345759 232.313972 
L 128.576012 248.74845 
L 128.806511 256.127402 
M 129.95918 206.794621 
L 130.189676 171.775033 
M 130.649909 111.845208 
L 130.880405 105.571407 
L 131.110902 118.447049 
M 132.264196 164.386124 
L 132.494692 180.134874 
L 132.95571 246.780252 
L 133.185404 211.964293 
M 133.876893 170.381428 
L 134.107389 170.521407 
M 134.568052 173.229913 
L 135.029044 161.622245 
M 135.722446 164.76819 
L 135.952941 162.548383 
M 136.415126 162.647882 
L 136.645734 164.618339 
M 137.564735 176.07636 
L 137.795231 191.95748 
L 138.025598 196.143002 
L 138.256094 177.517323 
L 138.486591 149.047949 
M 139.409481 163.255756 
L 139.639979 178.594878 
L 139.869695 179.111336 
L 140.100203 184.989869 
L 140.330888 183.851496 
L 140.561184 190.839233 
L 140.791752 178.938788 
L 141.022248 174.094089 
L 141.252744 164.922752 
L 141.483241 189.401484 
M 141.94548 172.143783 
L 142.175976 181.299587 
L 142.406472 176.960975 
M 142.866556 179.899704 
L 143.097053 169.436211 
L 143.327549 144.499486 
L 143.55753 149.928171 
L 143.788026 152.35151 
L 144.018523 171.452704 
L 144.249019 168.223134 
L 144.479515 179.776348 
M 144.942087 197.428946 
L 145.172583 188.701964 
L 145.63523 152.161733 
M 146.096223 153.339739 
L 146.326719 165.098735 
L 146.555731 159.823212 
L 146.786229 177.91367 
L 147.016724 206.925936 
L 147.247222 191.553649 
L 147.476168 190.218504 
L 148.167657 196.0561 
L 148.398011 193.517167 
L 148.628508 187.700666 
L 148.859004 177.943351 
L 149.089503 183.293581 
M 149.551452 176.748454 
L 149.781948 156.469647 
L 150.012444 149.332275 
L 150.242768 162.404747 
L 150.473264 166.534393 
M 151.625325 179.155709 
L 151.855821 161.441774 
L 152.086591 162.685497 
L 152.547584 154.602205 
L 152.778083 158.63676 
L 153.00848 177.130691 
L 153.238976 167.563855 
L 153.469473 150.061259 
L 153.931563 162.803233 
L 154.162059 150.715087 
L 154.392558 165.249493 
L 154.623054 170.275714 
L 154.854149 178.060566 
L 155.084645 168.824604 
L 155.315142 172.115758 
L 155.776135 147.173702 
L 156.006594 148.112595 
L 156.23709 152.792846 
L 156.467589 165.110651 
L 156.698085 152.338073 
L 156.92857 155.795283 
L 157.159067 171.546759 
L 157.620062 157.414657 
L 157.851052 167.364214 
L 158.312045 151.934948 
L 158.542542 149.799639 
L 159.003749 155.705185 
L 159.234246 152.022687 
L 159.464742 166.756483 
L 159.693949 169.93403 
L 160.154944 159.339251 
L 160.38544 158.884786 
M 160.847048 144.847999 
L 161.30804 164.514503 
L 161.53828 171.485837 
L 161.999273 165.878712 
L 162.229769 166.384051 
L 162.460626 178.689336 
L 162.691122 184.975318 
L 162.921619 181.772144 
L 163.152115 147.721342 
L 163.38225 158.082107 
L 163.612746 160.081882 
L 163.843245 176.902223 
L 164.073741 158.950156 
L 164.303789 154.288798 
L 164.764781 164.154251 
L 164.995278 163.510494 
L 165.225619 156.575388 
L 165.456115 164.31104 
L 165.686612 151.248944 
L 165.917136 148.863776 
L 166.378656 179.554469 
L 166.609152 159.188893 
L 166.839649 169.839591 
L 167.070145 160.264827 
M 168.221853 152.814959 
L 168.45235 143.224407 
L 168.682848 176.718055 
L 168.913345 178.868969 
L 169.143419 159.282176 
L 169.373915 164.811503 
L 169.60451 155.218683 
L 169.834908 159.459862 
L 170.066395 185.790429 
L 170.527387 145.019468 
L 171.219167 178.694021 
L 171.449663 163.805971 
L 171.68016 170.605997 
L 171.910753 166.235453 
L 172.141249 168.587661 
L 172.371748 175.757484 
L 172.602245 170.378634 
L 172.83297 158.296718 
L 173.063464 162.771514 
L 173.294124 162.896118 
L 173.52445 181.527392 
L 173.754955 166.565677 
L 173.985452 160.343112 
L 174.215948 178.563393 
L 174.446444 164.754086 
L 174.677168 178.672576 
L 174.907664 171.409865 
L 175.13816 155.474486 
L 175.368657 153.627245 
L 175.598349 150.398437 
L 176.059342 181.912547 
L 176.289838 153.456474 
M 176.980686 171.160477 
L 177.210942 184.098327 
L 177.672593 137.054489 
L 177.903089 137.953596 
L 178.364082 170.749207 
L 178.595332 157.448278 
L 178.825829 158.589825 
L 179.056325 169.071722 
L 179.286821 166.040313 
L 179.517657 185.530311 
L 179.748154 184.5914 
L 179.978653 157.843618 
L 180.209149 151.210709 
L 180.66941 154.278209 
L 180.899906 179.12732 
L 181.130403 162.934018 
L 181.360335 171.194899 
L 181.590832 168.855421 
L 181.821328 171.484443 
L 182.051827 171.23891 
L 182.282402 165.809886 
L 182.512898 156.279647 
L 182.743397 157.081252 
L 182.973893 149.886645 
L 183.204644 179.972648 
L 183.435141 172.07203 
L 183.665637 180.333116 
L 183.896136 167.542438 
M 185.278369 161.983406 
L 185.508865 162.368283 
L 185.739364 171.850629 
L 185.969646 157.711229 
L 186.200142 170.239545 
L 186.430638 173.439103 
L 186.661135 183.682007 
L 186.892768 174.126399 
L 187.123267 172.74304 
L 187.353766 157.205419 
L 187.584257 159.348336 
L 187.814756 159.830595 
L 188.044988 187.713121 
L 188.275484 171.487903 
L 188.505981 168.47958 
L 188.736477 175.999051 
L 188.9671 178.985887 
L 189.197597 170.355266 
L 189.428093 172.415111 
L 189.658591 166.77016 
L 189.889459 166.16168 
L 190.119956 158.039593 
L 190.350452 177.296556 
L 190.811441 159.149692 
L 191.502923 182.023024 
L 191.733535 180.892245 
L 191.964032 171.572718 
L 192.194528 152.402406 
L 192.425024 145.126338 
L 192.885887 173.047688 
L 193.116384 165.694999 
L 193.346883 174.211417 
M 194.03717 179.384221 
L 194.267666 182.029866 
M 194.958346 184.367094 
L 195.188844 171.502383 
L 195.419463 165.279622 
L 195.649959 167.043431 
L 195.880455 161.568521 
L 196.110952 169.126133 
M 196.803902 156.629691 
L 197.034401 149.245279 
L 197.495938 172.565031 
L 197.726434 174.045233 
L 197.956933 174.251452 
L 198.417165 167.657835 
L 199.108654 141.194668 
L 199.338525 140.351916 
L 199.569022 153.23172 
L 199.799518 157.952749 
L 200.030014 143.164593 
M 200.491636 158.463469 
L 200.722135 159.680897 
L 200.952631 156.627431 
L 201.183318 166.31683 
L 201.413813 170.327505 
L 201.874809 162.077705 
M 202.56635 158.533582 
L 202.796847 161.316975 
L 203.027479 174.801551 
L 203.257975 150.840143 
L 203.718968 131.754563 
L 204.411636 163.506196 
L 204.642133 160.587753 
M 205.10187 161.332407 
L 205.332366 147.547564 
L 205.562862 160.152856 
L 205.792619 164.177261 
L 206.023118 149.013813 
L 206.253623 152.065504 
L 206.48411 147.93127 
L 206.715436 146.376905 
L 206.945932 146.948414 
L 207.406925 153.374663 
L 207.868381 167.211238 
L 208.098878 183.954427 
L 208.329374 180.079787 
L 208.55987 181.147393 
L 208.790438 169.749275 
L 209.251442 177.255334 
L 209.481929 185.019572 
L 209.713258 184.22457 
L 209.943756 170.704503 
L 210.174253 173.469181 
L 210.404749 172.136672 
L 211.326072 121.293391 
L 211.556215 127.219208 
L 212.247707 159.503187 
L 212.478001 163.186104 
L 212.708498 168.866044 
L 212.938994 183.932699 
L 213.169488 186.01991 
M 214.55123 174.067413 
L 214.781726 166.973672 
L 215.012222 169.341917 
M 215.474018 175.919291 
L 215.704515 174.044026 
L 215.935011 179.846309 
L 216.396051 211.273147 
L 216.626545 214.436059 
L 216.857041 199.593221 
L 217.087403 196.906251 
L 217.31793 206.807974 
L 217.778893 141.508875 
L 218.009496 127.143382 
L 218.470489 71.622311 
L 218.700985 104.001034 
L 218.931482 117.618966 
L 219.161971 100.829344 
L 219.392468 97.033369 
L 219.85346 160.535135 
L 220.314443 187.546357 
M 221.236392 186.273095 
L 221.466888 188.536549 
L 221.697385 196.027116 
L 221.927856 174.006395 
L 222.158353 167.155219 
M 224.69294 195.135375 
L 224.92336 203.293938 
L 225.615675 181.53881 
L 225.846171 183.794289 
L 226.076667 176.640487 
L 226.307164 156.943797 
L 226.538679 155.923479 
L 226.769176 156.527603 
L 226.999672 148.74547 
L 227.460717 160.708999 
L 227.921712 177.934862 
L 228.382237 143.623377 
L 228.612644 142.18777 
L 228.84314 125.557299 
L 229.073637 141.499678 
L 229.304133 166.29757 
L 229.534702 169.136199 
L 229.995695 178.464934 
L 230.45595 199.800734 
L 230.686446 192.996122 
L 230.916945 165.449756 
L 231.147441 158.805035 
M 231.840545 158.977746 
L 232.07115 156.193212 
L 232.302051 158.256641 
L 232.532547 181.861408 
M 235.525717 180.72293 
L 235.756331 188.065954 
M 236.449284 227.023458 
L 236.67978 217.964331 
L 236.91011 239.497538 
L 237.140606 247.828344 
L 237.601601 195.173539 
L 237.831378 161.308994 
M 240.137 160.099326 
L 240.367496 193.097141 
L 240.597992 190.904297 
L 240.8284 179.298105 
L 241.058896 181.546068 
L 241.289395 190.101789 
L 241.750157 177.274038 
L 241.980653 180.493844 
L 242.211152 186.779052 
L 242.441646 197.427378 
L 242.672612 199.009768 
L 243.364101 235.528472 
L 243.825227 189.581855 
L 244.28622 138.667852 
L 244.516287 130.984192 
L 245.207778 84.753453 
L 246.590806 194.396219 
L 246.821427 217.776894 
L 247.051801 215.10944 
L 247.282878 215.870937 
L 247.513375 210.56169 
L 247.974368 188.865512 
L 248.665964 158.783562 
L 249.126704 101.067687 
L 249.3572 98.472823 
L 249.818195 148.715057 
L 250.510756 275.053562 
L 250.74113 270.824571 
L 251.662734 147.622101 
L 251.893231 142.105048 
L 252.123193 139.871715 
L 252.353692 130.58919 
L 252.584188 136.24147 
L 252.814685 137.626116 
L 253.045286 141.920927 
L 253.275782 152.281225 
L 253.506278 130.279306 
L 253.736772 154.143742 
L 253.967736 190.462062 
L 254.19835 203.812914 
L 254.428729 202.193558 
L 254.659226 193.146646 
L 255.119998 191.031408 
L 255.350494 196.637029 
L 255.580991 190.335789 
L 255.8113 188.455161 
L 256.041799 182.886036 
L 256.272295 170.820211 
L 256.502792 145.026293 
M 257.193906 165.441682 
L 257.424402 168.198825 
L 257.654955 187.157819 
L 258.346447 154.295953 
L 258.577737 157.441488 
L 258.808234 162.89077 
L 259.03873 156.303991 
L 259.269227 175.056402 
M 259.959264 201.616084 
L 260.18976 187.972398 
M 260.652341 180.033264 
L 260.882835 163.939537 
L 261.113331 160.736585 
L 261.343598 165.831059 
L 261.575468 176.118648 
L 261.805872 171.556963 
L 262.036368 156.636644 
L 262.266865 164.20065 
M 262.9564 214.948168 
L 263.186897 220.332292 
M 263.649606 199.141687 
L 263.880104 180.31849 
L 264.57169 151.508133 
L 264.802186 155.808814 
L 265.032681 166.393646 
M 265.491237 185.359828 
L 265.721733 180.653448 
L 265.952229 166.547912 
L 266.182907 170.596623 
L 266.6439 166.755701 
L 266.874396 159.208307 
L 267.106515 175.042538 
M 267.567508 178.157099 
L 267.798004 179.276031 
M 269.178648 172.268829 
L 269.409144 179.634558 
L 269.63964 172.674069 
L 269.871879 184.596534 
L 270.102376 169.818967 
L 270.332872 140.810726 
M 270.793923 157.152964 
L 271.024419 157.55001 
L 271.254915 162.50986 
L 271.485414 174.452094 
M 272.175048 175.979368 
L 272.405544 176.598862 
L 273.098641 197.536788 
L 273.329138 196.427239 
L 273.559634 171.955129 
L 273.792071 161.808976 
L 274.022567 174.596065 
L 274.253063 176.264571 
L 274.483562 169.050151 
M 274.942161 154.346012 
L 275.172657 156.187822 
L 275.403154 155.479624 
L 275.864979 172.933159 
L 276.095473 151.570281 
L 276.556802 166.121923 
L 276.787298 163.722592 
L 277.017794 152.704121 
L 277.248291 152.755381 
L 277.478547 158.020562 
L 277.939542 175.274656 
L 278.170038 177.637817 
L 278.399669 181.608579 
M 278.860662 175.543451 
L 279.091158 157.190644 
L 279.320526 156.089166 
L 279.781519 127.931568 
L 280.012019 129.166571 
L 280.704123 181.293194 
L 280.934619 190.915565 
L 281.166887 185.789652 
L 281.397383 166.958632 
L 281.627879 167.422304 
L 281.858378 184.632043 
L 282.31901 193.457061 
L 282.549504 185.82136 
L 282.780001 195.176916 
L 283.010497 186.060549 
M 283.469406 147.292615 
L 283.699912 137.470197 
L 283.930399 151.918875 
L 284.162426 184.226863 
L 284.392922 198.686552 
L 284.853915 174.560354 
L 285.085001 187.777392 
M 286.23566 146.171198 
L 286.466155 135.227088 
L 287.157146 156.658432 
L 287.387645 171.240657 
L 287.618141 170.080675 
M 288.08017 163.31213 
L 288.310667 164.219444 
L 288.541163 167.25346 
L 288.772282 160.25994 
L 289.002781 169.226157 
L 289.233278 162.709687 
L 289.463774 148.727635 
M 289.922996 157.257983 
L 290.15349 176.530366 
L 290.383987 176.60378 
L 290.615113 177.979827 
M 291.076108 153.041593 
L 291.306605 150.725736 
M 292.000022 165.471909 
L 292.230519 176.481122 
M 294.07175 155.018118 
L 294.302246 155.95576 
M 294.764345 167.582216 
L 294.994841 172.682232 
L 295.225338 180.396436 
L 295.456654 173.936057 
L 295.68715 174.176394 
L 295.917647 174.73538 
L 296.148143 170.148319 
L 296.377525 160.309402 
L 296.608023 130.088331 
L 296.83852 136.863575 
L 297.069016 156.911006 
M 298.682781 171.975243 
L 298.913277 182.975659 
M 299.606527 150.099051 
L 299.837023 161.211048 
L 300.067298 165.040562 
M 303.29422 149.579729 
L 303.524716 165.194808 
L 304.216391 149.644797 
L 304.44689 163.333618 
L 304.677384 166.098771 
L 304.907324 174.111321 
L 305.13782 166.456021 
L 305.368316 165.905327 
L 305.828138 154.482505 
L 306.058635 159.823216 
L 306.519627 141.158672 
L 306.750152 147.649704 
L 306.980649 158.540395 
L 307.211145 154.910035 
L 307.441641 154.613265 
M 307.902035 150.287253 
L 308.36303 166.3155 
M 309.055799 195.676304 
L 309.286293 188.938495 
M 309.979256 170.142543 
L 310.209752 177.529593 
L 310.439167 168.628354 
L 311.130656 155.365799 
L 311.590679 159.316967 
L 311.821176 159.670473 
L 312.512399 156.123837 
L 312.742895 149.396391 
L 312.973392 153.048834 
L 313.435533 170.342414 
L 313.666029 159.70759 
L 313.896526 163.586674 
L 314.357979 148.119428 
L 314.588475 133.087854 
L 314.818972 137.821465 
L 315.04947 137.292846 
L 315.509004 118.001433 
L 315.739501 122.288603 
L 315.969999 117.898298 
L 316.430801 172.420146 
M 316.891796 188.310379 
L 317.122835 191.593261 
L 317.353146 177.610253 
L 317.583643 170.580154 
L 318.044115 143.154957 
L 318.274612 145.966522 
L 318.505108 155.04878 
L 318.965639 195.114259 
L 319.426634 201.184934 
L 319.657131 181.479059 
M 320.349716 179.134101 
L 320.580212 174.465461 
L 320.810495 156.829507 
L 321.040882 165.851773 
L 321.271378 157.516552 
L 321.501875 153.399215 
M 321.963516 184.940318 
L 322.194015 182.615296 
L 322.424511 182.610545 
L 322.65501 170.202481 
L 322.885506 174.808183 
L 323.116003 176.352037 
L 323.346499 166.844024 
L 323.576731 163.284205 
L 323.80723 153.898757 
L 324.037723 127.474686 
L 324.268223 127.14325 
L 325.190403 170.008503 
L 325.420899 170.184564 
L 325.882077 186.485292 
L 326.112575 180.035581 
L 326.343072 186.168817 
L 326.57352 204.562225 
L 326.804017 199.206605 
L 327.034515 198.907471 
L 327.265012 202.257516 
L 327.49542 179.830052 
M 327.956415 161.817873 
L 328.186911 156.005831 
L 328.417176 169.293445 
L 328.647672 156.943098 
L 328.878169 123.38418 
L 329.108665 118.985244 
L 329.33957 143.722777 
L 329.570067 143.190551 
L 329.800565 136.569422 
L 330.031062 142.82346 
L 330.261978 159.372293 
L 330.492477 166.888152 
L 330.722973 179.666058 
L 330.95347 179.513036 
L 331.18363 192.709071 
L 331.414126 217.330997 
L 331.644625 224.289736 
L 331.875121 211.950801 
L 332.105824 186.754466 
L 332.566817 163.832061 
L 332.797313 163.714947 
L 333.026991 170.083817 
L 333.257487 167.570019 
L 333.487986 159.728499 
L 333.718482 155.958824 
L 333.949118 135.619266 
L 334.179614 129.672397 
L 334.410111 134.609903 
L 334.640609 142.990712 
L 334.871494 138.309209 
L 335.332486 156.444851 
L 336.023625 187.927274 
L 336.254121 187.106844 
L 336.715114 196.645151 
L 336.945403 208.08697 
L 337.406397 186.615363 
L 337.636894 165.404198 
L 338.09829 150.097847 
L 338.328786 153.397139 
M 339.250132 145.974264 
L 339.480628 139.482105 
L 339.71033 144.064591 
L 339.940827 151.136023 
L 340.401819 173.928733 
L 340.632905 175.420933 
L 340.863404 179.3674 
L 341.0939 175.714432 
L 341.324397 169.14755 
M 342.019245 173.56518 
L 342.249741 167.182442 
M 342.938095 181.044123 
L 343.168591 180.594192 
M 343.860875 154.382329 
L 344.091371 127.018692 
L 344.552206 164.768748 
L 344.782703 152.382265 
L 345.013199 160.063135 
L 345.243204 179.173996 
M 345.934693 184.164405 
L 346.16519 186.485823 
L 346.395832 158.807355 
M 346.856825 176.163232 
L 347.548394 144.602438 
L 347.778891 151.203575 
L 348.009387 164.883293 
L 348.239844 164.97472 
L 348.47034 170.059497 
M 348.931332 163.630697 
L 349.161996 159.378883 
L 349.392494 165.841542 
L 349.622991 189.962513 
L 349.853494 201.189862 
L 350.083627 195.094987 
L 350.314123 201.490324 
L 350.544792 195.504311 
L 350.775116 193.947462 
M 351.235885 175.43542 
L 351.466381 171.54858 
L 351.696878 162.981918 
M 353.310527 169.270556 
L 353.541021 168.224241 
L 354.00215 175.928979 
L 354.232727 168.530178 
L 354.463143 171.856023 
L 354.923468 160.276002 
L 355.153964 167.73535 
L 355.38446 169.443917 
L 355.615351 165.900293 
L 355.845848 165.55512 
L 356.076344 158.209876 
L 356.537698 169.777263 
L 356.998693 175.706238 
L 357.229189 175.782441 
L 357.459685 177.231114 
M 358.150833 169.752303 
L 358.38133 164.253173 
L 358.61171 174.413886 
L 358.842207 174.253847 
L 359.072703 171.108679 
L 359.534065 182.272537 
L 359.995058 171.962657 
L 360.225557 165.92708 
L 360.455682 156.367532 
L 360.686178 162.633037 
L 360.916674 164.448182 
L 361.147171 163.644525 
L 361.377966 155.455196 
L 361.608462 171.654848 
L 361.838958 174.187114 
L 362.069455 167.799989 
L 362.530655 181.956944 
L 362.761151 181.653429 
L 363.221741 162.309157 
L 363.682734 163.210253 
L 363.913233 160.900406 
L 364.143347 160.669358 
L 364.373844 162.41212 
M 365.757203 156.526279 
L 365.987997 154.708793 
L 366.218493 154.857119 
L 366.44899 155.271373 
L 366.679488 151.732595 
L 366.910621 169.418723 
L 367.141117 166.896997 
L 367.371614 167.169049 
L 367.602113 172.494342 
L 367.832608 173.317404 
L 368.062495 169.081109 
L 368.292989 156.769363 
L 368.523488 157.246059 
L 368.753984 155.25584 
L 369.215227 165.726349 
L 369.445723 169.844778 
L 369.67622 164.5145 
L 370.137356 184.873696 
M 371.05817 144.289231 
L 371.288669 144.176955 
L 371.519163 136.246398 
M 371.980904 149.007978 
L 372.2114 148.244274 
M 373.134761 145.296233 
L 373.365258 155.531268 
M 374.054739 185.823629 
L 374.285235 166.675276 
L 374.517473 178.831181 
L 374.747969 206.987763 
L 374.978466 193.633174 
L 375.44004 152.266263 
L 375.670536 148.331708 
L 375.901033 165.721298 
L 376.131529 160.599026 
L 376.360899 167.965222 
M 377.513172 153.110257 
L 377.743671 160.555802 
L 377.974167 158.605476 
L 378.204664 166.047222 
L 378.665343 157.32045 
L 378.895842 157.307863 
L 379.126338 164.347497 
L 379.356559 163.323272 
L 379.587056 160.750526 
L 379.817552 165.358987 
L 380.278643 142.602367 
L 380.509054 142.903745 
L 381.200962 175.359672 
L 381.431461 178.26321 
L 381.661957 188.273071 
L 381.892453 192.710971 
L 382.1228 177.214215 
L 382.814291 158.779283 
M 383.505022 173.989587 
L 383.735518 165.203217 
M 384.428503 157.217291 
L 384.889676 137.649063 
L 385.120174 143.812264 
L 385.581167 168.230673 
L 385.810588 168.605532 
M 386.271583 186.366063 
L 386.50208 185.036174 
M 387.194437 157.453317 
L 387.424933 151.585517 
M 388.118143 154.428445 
L 388.809144 187.330042 
L 389.03964 178.350468 
L 389.270136 164.25608 
L 389.500633 159.034534 
M 390.880762 170.926331 
L 391.111259 174.90976 
L 391.341755 182.20875 
M 391.805365 179.477154 
L 392.266357 169.377024 
L 392.496562 167.912155 
L 392.727058 182.083357 
L 392.957555 181.807908 
L 393.188051 187.401396 
L 393.647972 183.619912 
L 393.878468 188.63745 
L 394.108967 185.361896 
L 394.338954 174.703962 
M 394.799946 163.826436 
L 395.030443 170.598857 
L 395.030443 170.598857 
" style="fill:none;stroke:#ff0000;stroke-linecap:square;"/>
   </g>
   <g id="line2d_126">
    <path clip-path="url(#p6c863a7b23)" d="M 87.547463 170.352102 
L 87.777961 168.817417 
L 88.008454 161.930292 
L 88.238951 167.964834 
L 88.469447 168.075436 
L 88.699953 160.492066 
L 88.930495 161.67632 
L 89.161236 156.495469 
L 89.621984 167.329355 
M 90.082548 171.137987 
L 90.313044 166.522504 
L 90.543541 167.963063 
L 90.774012 167.709022 
L 91.235005 179.193247 
L 91.927811 161.317259 
L 92.158308 173.97247 
L 92.388804 170.428864 
L 92.619301 170.19358 
L 92.849894 170.530217 
L 93.080391 168.791577 
L 93.541383 174.314862 
L 93.770692 163.741165 
L 94.001188 163.321372 
L 94.231685 166.57592 
L 94.692582 146.443231 
L 94.923078 145.992453 
L 95.384073 187.98971 
L 95.615676 187.324423 
L 95.846173 176.92186 
L 96.307166 170.5187 
L 96.538857 175.258201 
L 96.769353 174.062927 
L 96.99985 175.69506 
L 97.230346 173.178963 
L 97.460349 172.026332 
L 97.690845 173.74759 
L 97.921342 166.976695 
L 98.151838 151.22029 
L 98.380897 150.403528 
L 98.611396 163.190602 
L 98.841892 160.267389 
L 99.072388 160.141503 
L 99.30257 169.219588 
L 99.533067 173.493686 
L 99.994059 195.311251 
L 100.686694 166.473416 
L 100.91719 150.838666 
L 101.147798 166.261864 
L 101.378294 164.695692 
L 101.839287 170.987175 
M 102.299028 160.222276 
L 102.529524 158.271493 
L 102.760021 150.853059 
L 103.220684 171.421958 
L 103.45118 173.634914 
L 103.681679 182.996393 
L 103.912172 177.240067 
L 104.142907 165.367688 
L 104.373404 169.212662 
L 104.6039 161.65856 
L 104.834399 159.415591 
L 105.757038 174.655961 
L 106.218129 177.747605 
L 106.679121 159.345139 
L 107.600657 181.199273 
L 107.831238 177.585078 
L 108.292231 163.501048 
L 108.52273 159.931699 
L 108.75382 161.68519 
L 108.984316 177.440773 
L 109.214813 178.519666 
L 109.675335 160.389891 
L 109.905831 159.167008 
L 110.136328 164.319862 
L 110.366824 174.741408 
L 110.596728 176.823149 
L 110.827225 177.046713 
L 111.057905 165.921542 
L 111.288217 166.95092 
L 111.518939 167.085697 
L 111.749435 173.903713 
L 111.979932 171.465045 
L 112.21043 167.00378 
L 112.442736 164.941748 
L 112.673233 175.54933 
L 112.903729 165.788808 
L 113.134225 168.279689 
L 113.364722 172.816903 
L 113.595412 161.81919 
L 113.825908 157.482137 
L 114.056404 159.058441 
L 114.286901 164.070642 
L 114.516513 165.52177 
L 114.747009 167.902377 
L 114.977506 172.31961 
L 115.208002 173.045359 
L 115.437693 171.509475 
L 115.668189 175.733362 
L 115.898688 169.334292 
L 116.129184 171.55498 
M 116.59066 171.654271 
L 116.821157 185.653332 
L 117.051653 192.82734 
L 117.282131 181.305369 
L 117.512628 158.366206 
L 117.743124 151.289301 
L 117.97362 163.998659 
L 118.203302 165.055558 
L 118.433798 164.806963 
L 118.664295 153.373642 
M 119.125694 139.975824 
L 119.356191 141.908624 
L 119.817186 176.099967 
L 120.047783 175.312203 
L 120.508779 192.486485 
L 120.739275 207.041657 
M 121.199661 199.096705 
L 121.430157 168.967101 
L 121.660653 161.804394 
L 122.121521 134.984741 
L 122.352018 121.842503 
L 122.582514 116.540369 
M 123.504596 137.403252 
L 123.735092 163.141191 
L 124.196199 254.890534 
M 125.350098 230.413663 
L 126.270874 107.645289 
L 126.501371 85.173169 
M 127.193894 53.568 
L 127.42439 73.25123 
L 128.345759 233.123437 
L 128.576012 247.533645 
L 128.806511 253.935769 
M 129.95918 207.443618 
L 130.189676 173.412879 
M 130.649909 107.917785 
L 130.880405 106.951095 
L 131.110902 114.562522 
M 132.264196 163.756525 
L 132.494692 182.488482 
L 132.95571 248.239626 
L 133.185404 211.63234 
M 133.876893 169.862291 
L 134.107389 171.241117 
M 134.568052 173.819501 
L 134.798548 169.308471 
L 135.029044 160.61619 
M 135.722446 164.563002 
L 135.952941 164.047374 
M 136.415126 162.083991 
L 136.645734 164.543199 
M 137.564735 177.39157 
L 137.795231 193.519357 
L 138.025598 194.776518 
L 138.256094 177.606944 
L 138.486591 149.065265 
M 139.409481 164.245377 
L 139.639979 178.939247 
L 139.869695 178.17465 
L 140.100203 183.33833 
L 140.330888 183.879119 
L 140.561184 192.629274 
L 140.791752 175.432206 
L 141.022248 174.92429 
L 141.252744 164.684033 
L 141.483241 190.394176 
M 141.94548 176.308832 
L 142.175976 180.833907 
L 142.406472 175.713965 
M 142.866556 180.539711 
L 143.097053 168.690913 
L 143.327549 145.511446 
L 143.788026 150.897116 
L 144.018523 171.793729 
L 144.249019 166.549941 
L 144.479515 178.894487 
M 144.942087 194.899268 
L 145.172583 190.24374 
L 145.63523 155.674562 
M 146.096223 154.910061 
L 146.326719 165.16655 
L 146.555731 159.59587 
L 147.016724 205.280463 
L 147.247222 191.511446 
L 147.476168 193.118585 
L 147.706664 192.348833 
L 148.167657 196.345475 
L 148.398011 194.009909 
L 148.628508 187.872144 
L 148.859004 177.3543 
L 149.089503 184.455677 
M 149.551452 177.071505 
L 149.781948 156.42033 
L 150.012444 149.146567 
L 150.242768 162.456614 
L 150.473264 166.038515 
M 151.625325 179.446615 
L 151.855821 160.88589 
L 152.086591 163.048998 
L 152.547584 155.849855 
L 152.778083 159.541257 
L 153.00848 176.22039 
L 153.238976 167.808337 
L 153.469473 149.492468 
L 153.931563 162.434434 
L 154.162059 156.188233 
L 154.854149 178.945196 
L 155.084645 168.533232 
L 155.315142 174.083496 
L 155.776135 145.761833 
L 156.23709 150.701715 
L 156.467589 165.266304 
L 156.698085 154.203162 
L 156.92857 156.094505 
L 157.159067 170.789776 
L 157.389565 162.665426 
L 157.620062 158.554191 
L 157.851052 167.765731 
L 158.312045 152.061023 
L 158.542542 148.454083 
L 158.773253 153.973123 
L 159.003749 155.81886 
L 159.234246 151.921028 
L 159.464742 167.75368 
L 159.693949 170.300408 
L 159.924444 163.319856 
L 160.154944 160.300844 
L 160.38544 160.014235 
M 160.847048 145.808959 
L 161.077542 158.488294 
L 161.53828 171.924797 
L 161.768776 166.01585 
L 161.999273 166.003743 
L 162.229769 167.432225 
L 162.691122 184.527819 
L 162.921619 182.348978 
L 163.152115 147.046525 
L 163.38225 157.505353 
L 163.612746 161.06571 
L 163.843245 177.06035 
L 164.073741 157.965331 
L 164.303789 154.12507 
L 164.764781 165.117292 
L 164.995278 165.334772 
L 165.225619 153.936038 
L 165.456115 164.938232 
L 165.686612 150.469098 
L 165.917136 148.57334 
L 166.378656 179.814221 
L 166.609152 160.477545 
L 166.839649 173.747679 
L 167.070145 150.258868 
M 168.221853 161.997821 
L 168.45235 136.853354 
L 168.913345 188.753895 
L 169.143419 156.849204 
L 169.373915 164.128489 
L 169.834908 156.417249 
L 170.066395 182.18642 
L 170.296891 155.797973 
L 170.527387 151.390629 
L 170.757884 153.691745 
L 170.988669 170.514313 
L 171.219167 177.924569 
L 171.449663 164.602805 
L 171.68016 169.089654 
L 172.141249 166.35242 
L 172.371748 174.455766 
L 172.602245 171.342676 
L 172.83297 155.102398 
L 173.063464 166.862681 
L 173.294124 160.303854 
L 173.52445 181.27142 
L 173.754955 166.615681 
L 173.985452 162.344404 
L 174.215948 178.844365 
L 174.446444 166.136866 
L 174.677168 177.543951 
L 174.907664 171.357842 
L 175.13816 154.313565 
L 175.368657 153.993934 
L 175.598349 150.984099 
L 176.059342 181.929166 
L 176.289838 152.182012 
M 176.980686 171.161847 
L 177.210942 183.926273 
L 177.672593 138.085402 
L 177.903089 139.681092 
L 178.364082 171.034727 
L 178.595332 155.272638 
L 178.825829 158.607871 
L 179.056325 169.267899 
L 179.286821 166.614197 
L 179.517657 185.015669 
L 179.748154 180.764688 
L 179.978653 156.729082 
L 180.438914 148.638072 
L 180.66941 153.46286 
L 180.899906 180.134405 
L 181.130403 162.159449 
L 181.360335 171.979442 
L 181.590832 169.243317 
L 181.821328 172.062427 
L 182.051827 171.884387 
L 182.282402 165.823215 
L 182.512898 155.582674 
L 182.743397 157.532419 
L 182.973893 150.327091 
L 183.204644 180.394899 
L 183.435141 171.641192 
L 183.665637 181.536748 
L 183.896136 174.407753 
M 185.278369 167.006987 
L 185.508865 158.711312 
L 185.739364 170.86062 
L 185.969646 157.340532 
L 186.200142 169.286102 
L 186.430638 174.487085 
L 186.661135 183.824114 
L 187.353766 159.174765 
L 187.584257 161.284894 
L 187.814756 160.335579 
L 188.044988 188.039147 
L 188.505981 164.212711 
L 188.9671 180.801014 
L 189.197597 171.515112 
L 189.428093 172.114969 
L 189.658591 163.701028 
L 189.889459 168.957883 
L 190.119956 159.139386 
L 190.350452 174.968128 
L 190.811441 159.43112 
L 191.272424 175.044954 
L 191.733535 182.875016 
L 191.964032 173.348397 
L 192.194528 152.040827 
L 192.425024 143.446413 
L 192.655391 164.334216 
L 192.885887 172.302255 
L 193.116384 166.219853 
L 193.346883 174.437986 
M 194.03717 178.293872 
L 194.267666 183.06486 
M 194.958346 184.378338 
L 195.419463 164.666365 
L 195.649959 166.725649 
L 195.880455 163.317565 
L 196.110952 169.296727 
M 196.803902 155.699316 
L 197.034401 149.874707 
L 197.495938 172.402581 
L 197.956933 174.714808 
L 198.417165 168.458063 
L 199.108654 141.032252 
L 199.338525 142.078753 
L 199.799518 160.587449 
L 200.030014 142.963383 
M 200.491636 156.91322 
L 200.722135 159.054865 
L 200.952631 154.713103 
L 201.183318 172.792429 
L 201.413813 165.276853 
L 201.644313 177.515205 
L 201.874809 156.096926 
M 202.56635 160.008016 
L 202.796847 160.550769 
L 203.027479 163.520262 
L 203.257975 161.270308 
L 203.488472 135.546293 
L 203.718968 133.513935 
L 203.950641 140.478868 
L 204.411636 164.172789 
L 204.642133 163.374998 
M 205.10187 161.441617 
L 205.332366 148.961311 
L 205.562862 159.6539 
L 205.792619 163.084369 
L 206.023118 148.867088 
L 206.253623 150.716219 
L 206.48411 146.657436 
L 206.715436 149.187312 
L 206.945932 148.915716 
L 207.176428 151.132586 
L 207.406925 149.960016 
L 208.098878 183.562354 
L 208.329374 178.130158 
L 208.55987 182.148834 
L 208.790438 169.955797 
L 209.020934 171.351281 
L 209.481929 184.961049 
L 209.713258 184.94867 
L 209.943756 171.772765 
L 210.174253 174.968324 
L 210.404749 172.495835 
L 211.326072 121.04163 
L 211.556215 126.294089 
L 212.247707 159.292096 
L 212.478001 161.953523 
L 212.708498 170.949836 
L 212.938994 186.645734 
L 213.169488 187.049514 
M 214.55123 175.011553 
L 214.781726 167.210618 
L 215.012222 170.076651 
M 215.474018 175.294331 
L 215.704515 173.488553 
L 215.935011 179.287632 
L 216.396051 212.400104 
L 216.626545 215.301917 
L 216.857041 199.245423 
L 217.087403 198.274914 
L 217.31793 205.932261 
L 217.778893 141.911762 
L 218.009496 127.109624 
L 218.470489 73.994606 
L 218.931482 118.388983 
L 219.161971 100.659358 
L 219.392468 100.019846 
L 219.85346 158.828366 
L 220.314443 185.283716 
M 221.236392 188.05633 
L 221.466888 186.985971 
L 221.697385 194.935297 
L 221.927856 174.039844 
L 222.158353 169.617476 
M 224.69294 195.936159 
L 224.92336 204.265493 
L 225.153856 188.838234 
L 225.615675 184.860747 
L 225.846171 185.201704 
L 226.076667 177.333459 
L 226.307164 156.777628 
L 226.538679 155.894033 
L 226.769176 156.802336 
L 226.999672 149.296976 
L 227.460717 160.404868 
L 227.921712 177.491924 
L 228.84314 125.808958 
L 229.073637 140.845948 
L 229.304133 165.317929 
L 229.995695 180.074329 
L 230.45595 198.720251 
L 230.686446 190.461369 
L 230.916945 166.457091 
L 231.147441 160.69331 
M 231.840545 159.693417 
L 232.07115 154.114223 
L 232.302051 159.719913 
L 232.532547 181.396495 
M 235.525717 180.683813 
L 235.756331 188.371302 
M 236.449284 226.392405 
L 236.67978 221.336913 
L 236.91011 238.466407 
L 237.140606 247.339289 
L 237.601601 194.757784 
L 237.831378 160.078127 
M 240.137 158.384964 
L 240.367496 194.820972 
L 240.597992 196.138508 
L 240.8284 177.661423 
L 241.058896 181.923295 
L 241.289395 189.771953 
L 241.519891 185.640238 
L 241.750157 178.630818 
L 241.980653 180.465155 
L 242.211152 184.949114 
L 242.441646 198.026179 
L 242.672612 196.524209 
L 243.364101 234.712443 
L 243.825227 190.311253 
L 244.28622 140.189695 
L 244.516287 130.300537 
L 244.977282 99.019309 
L 245.207778 87.084035 
L 245.438438 100.497236 
L 245.668936 127.09964 
L 245.89943 133.58745 
L 246.360309 174.787477 
L 246.821427 217.511903 
L 247.051801 214.802933 
L 247.282878 215.886078 
L 247.513375 209.771493 
L 247.743871 196.581736 
L 248.204972 180.308589 
L 248.435468 172.461887 
L 248.665964 158.915814 
L 248.896461 136.346394 
L 249.126704 100.103352 
L 249.3572 93.474118 
L 250.049641 198.005683 
L 250.280137 268.509575 
L 250.510756 277.803867 
L 250.971626 241.996339 
L 251.662734 150.163326 
L 251.893231 137.813173 
L 252.123193 142.345605 
L 252.353692 135.604983 
L 252.584188 136.034198 
L 252.814685 139.987893 
L 253.045286 140.993436 
L 253.275782 152.081935 
L 253.506278 132.638628 
L 254.19835 204.99464 
L 254.428729 203.49118 
L 254.889502 190.505039 
L 255.119998 189.956366 
L 255.350494 195.821323 
L 255.580991 190.175607 
L 255.8113 191.676798 
L 256.272295 166.676057 
L 256.502792 148.338164 
M 257.193906 166.764755 
L 257.424402 160.838482 
L 257.654955 189.569636 
L 257.88556 179.054855 
L 258.11595 162.760213 
L 258.346447 155.375679 
L 258.577737 156.559329 
L 258.808234 162.479409 
L 259.03873 156.295101 
L 259.269227 175.120113 
M 259.959264 203.193134 
L 260.18976 182.734092 
M 260.652341 179.102295 
L 260.882835 161.789259 
L 261.113331 159.091041 
L 261.343598 163.281786 
L 261.575468 179.62955 
L 261.805872 173.309891 
L 262.036368 157.434727 
L 262.266865 163.683164 
M 262.9564 212.750798 
L 263.186897 221.430647 
M 263.649606 199.452136 
L 264.110601 172.088652 
L 264.341194 163.945441 
L 264.57169 151.014821 
L 264.802186 152.660347 
L 265.032681 166.495791 
M 265.491237 185.112248 
L 265.721733 178.611511 
L 265.952229 167.260645 
L 266.182907 168.76401 
L 266.413403 169.085123 
L 266.6439 167.440896 
L 266.874396 158.323436 
L 267.106515 172.799159 
M 267.567508 178.40898 
L 267.798004 179.037492 
M 269.178648 172.044426 
L 269.409144 178.881198 
L 269.63964 172.260608 
L 269.871879 184.040607 
L 270.102376 168.70167 
L 270.332872 140.992185 
M 270.793923 156.262366 
L 271.024419 157.781485 
L 271.254915 161.767789 
L 271.485414 174.668689 
M 272.175048 173.73842 
L 272.405544 173.441897 
L 272.868145 193.929411 
L 273.098641 197.514414 
L 273.329138 195.478473 
L 273.559634 171.330267 
L 273.792071 162.074961 
L 274.022567 172.460578 
L 274.253063 174.473322 
L 274.483562 167.182835 
M 274.942161 152.065605 
L 275.172657 155.325345 
L 275.403154 154.647813 
L 275.63448 168.161957 
L 275.864979 173.611839 
L 276.095473 152.121124 
L 276.556802 166.749028 
L 276.787298 162.344318 
L 277.017794 151.813857 
L 277.248291 154.176306 
L 277.478547 153.581785 
L 277.709043 170.206932 
L 277.939542 175.62564 
L 278.170038 178.265252 
L 278.399669 179.047465 
M 278.860662 174.837472 
L 279.091158 156.10593 
L 279.320526 157.18077 
L 279.781519 127.963451 
L 280.012019 132.986722 
L 280.473627 162.330572 
L 280.704123 184.714564 
L 280.934619 192.283111 
L 281.397383 169.929811 
L 281.627879 165.525302 
L 281.858378 189.688696 
L 282.088512 191.394615 
L 282.31901 195.822193 
L 282.549504 187.881991 
L 282.780001 188.926215 
L 283.010497 183.111378 
M 283.469406 146.913565 
L 283.699912 138.860924 
L 283.930399 151.353434 
L 284.392922 198.093609 
L 284.853915 173.723496 
L 285.085001 184.272966 
M 286.23566 147.32614 
L 286.466155 134.340968 
L 287.387645 169.093773 
L 287.618141 172.061463 
M 288.08017 163.683336 
L 288.310667 163.302742 
L 288.541163 166.352168 
L 288.772282 162.243261 
L 289.002781 167.939387 
L 289.233278 162.439184 
L 289.463774 149.71321 
M 289.922996 160.251265 
L 290.15349 177.043435 
L 290.383987 177.088872 
L 290.615113 176.089373 
M 291.076108 152.264562 
L 291.306605 150.56283 
M 292.000022 164.026744 
L 292.230519 175.052481 
M 294.07175 156.357168 
L 294.302246 154.941363 
M 294.764345 167.455658 
L 295.225338 181.754677 
L 295.456654 173.445105 
L 295.68715 177.704445 
L 295.917647 174.93675 
L 296.377525 161.359034 
L 296.608023 129.850539 
L 296.83852 136.77446 
L 297.069016 156.833567 
M 298.682781 173.872073 
L 298.913277 176.323002 
M 299.606527 152.147581 
L 299.837023 161.842006 
L 300.067298 164.452536 
M 303.29422 148.45539 
L 303.524716 162.12798 
L 303.755213 159.734238 
L 304.216391 147.736243 
L 304.44689 163.045573 
L 304.677384 165.761356 
L 304.907324 173.282885 
L 305.13782 166.841872 
L 305.368316 165.993509 
L 305.828138 155.001103 
L 306.058635 159.545216 
L 306.289131 152.00767 
L 306.519627 140.264129 
L 306.980649 158.136723 
L 307.441641 152.618896 
M 307.902035 149.062229 
L 308.132531 161.197456 
L 308.36303 165.046852 
M 309.055799 196.410281 
L 309.286293 190.217254 
M 309.979256 169.716594 
L 310.209752 177.416118 
L 310.90016 157.513236 
L 311.130656 155.727754 
L 311.360183 156.720645 
L 311.590679 160.570079 
L 311.821176 158.345238 
L 312.051672 159.853976 
L 312.281905 157.026195 
L 312.512399 155.936949 
L 312.742895 149.516081 
L 312.973392 151.809902 
L 313.205036 161.859188 
L 313.435533 166.436313 
L 313.666029 156.678923 
L 313.896526 162.095692 
L 314.357979 145.899381 
L 314.588475 134.123908 
L 314.818972 138.511439 
L 315.04947 137.043743 
L 315.509004 116.322964 
L 315.739501 119.522484 
L 315.969999 115.051725 
L 316.430801 170.210155 
M 316.891796 188.770708 
L 317.122835 191.124556 
L 317.353146 178.0732 
L 317.583643 172.018934 
L 318.044115 142.769085 
L 318.274612 146.075607 
L 318.505108 155.149283 
L 318.965639 188.598328 
L 319.196136 197.627747 
L 319.426634 200.477183 
L 319.657131 182.764428 
M 320.349716 180.122017 
L 320.580212 174.219004 
L 320.810495 156.95529 
L 321.040882 164.591401 
L 321.271378 156.498296 
L 321.501875 155.596469 
M 321.963516 184.841058 
L 322.194015 184.023183 
L 322.424511 182.490953 
L 322.65501 172.343404 
L 322.885506 174.672206 
L 323.116003 163.886118 
L 323.346499 174.942497 
L 323.80723 153.116916 
L 324.037723 131.657432 
L 324.268223 130.180758 
L 324.498962 134.268262 
L 324.72941 157.062726 
L 325.190403 167.293603 
L 325.65158 177.460522 
L 325.882077 185.03739 
L 326.112575 180.328562 
L 326.343072 183.114497 
L 326.57352 204.517337 
L 326.804017 198.065746 
L 327.034515 199.103003 
L 327.265012 202.266533 
L 327.49542 181.356505 
M 327.956415 160.783411 
L 328.186911 155.291012 
L 328.417176 167.707961 
L 328.647672 157.922862 
L 328.878169 123.327794 
L 329.108665 120.28154 
L 329.33957 146.220781 
L 329.570067 143.291189 
L 329.800565 136.210291 
L 330.031062 143.024609 
L 330.261978 159.504259 
L 331.18363 190.47269 
L 331.414126 217.960714 
L 331.644625 224.423695 
L 331.875121 211.889949 
L 332.105824 187.940572 
L 332.566817 164.298104 
L 332.797313 163.878127 
L 333.026991 169.538975 
L 333.257487 168.349407 
L 333.487986 157.899291 
L 333.718482 155.247171 
L 333.949118 138.281266 
L 334.179614 131.63402 
L 334.410111 134.829069 
L 334.640609 142.55473 
L 334.871494 137.96957 
L 335.10199 150.902852 
L 335.332486 154.842092 
L 336.023625 188.066985 
L 336.254121 187.087155 
L 336.715114 197.257602 
L 336.945403 207.098432 
L 337.406397 187.490639 
L 337.636894 164.210997 
L 338.09829 149.494624 
L 338.328786 151.005839 
M 339.250132 146.146389 
L 339.480628 140.314467 
L 339.71033 143.839714 
L 339.940827 149.895626 
L 340.401819 175.296759 
L 340.632905 178.627007 
L 340.863404 179.012353 
L 341.0939 176.56447 
L 341.324397 169.829207 
M 342.019245 173.146791 
L 342.249741 167.159186 
M 342.938095 183.034128 
L 343.168591 181.041695 
M 343.860875 156.780116 
L 344.091371 125.787552 
L 344.321708 141.841043 
L 344.552206 166.052944 
L 344.782703 150.241679 
L 345.013199 158.880217 
L 345.243204 178.382075 
M 345.934693 183.513494 
L 346.16519 186.937846 
L 346.395832 160.604746 
M 346.856825 177.715857 
L 347.548394 141.788355 
L 348.239844 167.162439 
L 348.47034 168.500807 
M 348.931332 164.726536 
L 349.161996 160.509361 
L 349.392494 165.863875 
L 349.853494 203.611889 
L 350.083627 190.766029 
L 350.314123 202.827247 
L 350.544792 193.806106 
L 350.775116 192.279366 
M 351.235885 173.443659 
L 351.696878 164.926949 
M 353.310527 168.209176 
L 353.541021 166.391018 
L 354.00215 177.619357 
L 354.232727 165.809195 
L 354.463143 173.516194 
L 354.923468 161.732816 
L 355.153964 167.608519 
L 355.38446 167.906998 
L 355.615351 165.14655 
L 355.845848 164.498708 
L 356.076344 157.436609 
L 356.30684 166.166181 
L 356.537698 168.808808 
L 356.768196 174.124023 
L 356.998693 176.48573 
L 357.229189 177.23477 
L 357.459685 175.297994 
M 358.150833 171.57018 
L 358.38133 162.643402 
L 358.61171 173.565945 
L 358.842207 174.650458 
L 359.072703 169.556815 
L 359.534065 182.710095 
L 360.225557 167.33426 
L 360.455682 156.387992 
L 360.686178 164.46299 
L 360.916674 164.179813 
L 361.147171 164.416287 
L 361.377966 155.044297 
L 361.608462 171.649762 
L 361.838958 173.723254 
L 362.069455 167.167749 
L 362.530655 183.798411 
L 362.761151 179.340167 
L 363.221741 163.847242 
L 363.452238 162.063508 
L 363.682734 163.397667 
L 363.913233 160.440159 
L 364.143347 160.899979 
L 364.373844 163.24297 
M 365.757203 159.633626 
L 365.987997 152.512237 
L 366.218493 156.473396 
L 366.44899 157.344198 
L 366.679488 154.331159 
L 366.910621 170.549271 
L 367.141117 170.429823 
L 367.371614 168.946041 
L 367.602113 170.134006 
L 367.832608 172.497634 
L 368.062495 169.034848 
L 368.292989 156.80648 
L 368.753984 155.504509 
L 369.445723 170.219648 
L 369.67622 164.531415 
L 369.90686 173.223609 
L 370.137356 186.998463 
M 371.05817 143.328162 
L 371.288669 145.323828 
L 371.519163 138.034258 
M 371.980904 148.186145 
L 372.2114 147.537732 
M 373.134761 143.973558 
L 373.365258 154.242105 
M 374.054739 185.26198 
L 374.285235 166.023095 
L 374.517473 179.358077 
L 374.747969 206.962002 
L 374.978466 194.624338 
L 375.44004 151.926991 
L 375.670536 148.845453 
L 375.901033 165.79033 
L 376.131529 160.37886 
L 376.360899 169.022009 
M 377.513172 152.343915 
L 377.743671 160.42902 
L 377.974167 159.014445 
L 378.204664 165.992818 
L 378.665343 158.25836 
L 378.895842 157.294299 
L 379.126338 162.541626 
L 379.356559 164.228538 
L 379.587056 160.220857 
L 379.817552 166.316186 
L 380.278643 142.91769 
L 380.509054 145.042374 
L 380.739551 152.130072 
L 381.200962 175.498658 
L 381.431461 179.352234 
L 381.661957 188.833362 
L 381.892453 193.6246 
L 382.1228 176.960092 
L 382.353296 169.386174 
L 382.583793 167.212241 
L 382.814291 157.305489 
M 383.505022 173.653048 
L 383.735518 166.732765 
M 384.428503 156.946701 
L 384.889676 135.710903 
L 385.350671 156.544947 
L 385.581167 168.61795 
L 385.810588 163.62907 
M 386.271583 188.713671 
L 386.50208 183.788759 
M 387.194437 157.748445 
L 387.424933 151.909398 
M 388.118143 153.13606 
L 388.579136 180.963895 
L 388.809144 183.709992 
L 389.03964 177.317629 
L 389.270136 162.362945 
L 389.500633 160.763775 
M 390.880762 172.286498 
L 391.111259 178.677418 
L 391.341755 175.441558 
M 391.805365 177.047348 
L 392.035861 177.318523 
L 392.266357 167.247748 
L 392.496562 168.699418 
L 392.727058 181.717537 
L 392.957555 181.534853 
L 393.188051 187.198993 
L 393.417475 185.021424 
L 393.647972 184.285863 
L 393.878468 188.754611 
L 394.108967 187.798952 
L 394.338954 175.560421 
M 394.799946 161.952733 
L 395.030443 170.837837 
L 395.030443 170.837837 
" style="fill:none;stroke:#0000ff;stroke-linecap:square;"/>
   </g>
   <g id="line2d_127">
    <path clip-path="url(#p6c863a7b23)" d="M 74.17847 165.708054 
L 74.408967 179.295325 
L 74.639463 166.853443 
L 75.100558 160.392003 
L 75.331057 168.316048 
L 75.792072 163.502207 
L 76.022568 162.835026 
L 76.253065 165.768058 
L 76.483561 171.492035 
L 76.714063 167.025037 
L 76.944559 167.951403 
L 77.175056 170.856386 
L 77.405552 171.907947 
L 77.636079 172.351111 
L 78.097071 168.619027 
L 78.327568 168.170512 
L 78.558042 168.751791 
L 78.788539 169.979506 
L 79.019038 169.105822 
L 79.249534 168.998756 
L 79.480061 169.283947 
L 79.710557 165.739619 
L 79.941053 170.454644 
L 80.17155 171.564165 
L 80.402067 164.672458 
L 80.863059 168.647331 
L 81.093563 166.370381 
L 81.324052 169.339023 
L 81.554625 168.049564 
L 81.785122 167.780385 
L 82.015618 167.757537 
L 82.246114 170.205994 
L 82.476586 168.044028 
L 82.707085 167.606138 
L 82.937581 169.468425 
L 83.168077 169.943577 
L 83.398527 166.083549 
L 83.629023 167.220631 
L 83.85952 166.680906 
L 84.320501 171.184665 
L 84.550998 169.490982 
L 84.781494 171.508205 
L 85.011991 171.416776 
L 85.242497 167.409136 
L 85.473106 169.231621 
L 85.70349 168.194726 
L 85.933986 169.409975 
L 86.164473 169.405548 
L 86.394973 168.398513 
L 86.625469 170.204031 
L 87.08647 170.669625 
L 87.316966 172.259914 
M 122.813104 107.344477 
L 123.043601 92.006788 
L 123.274099 103.854003 
M 124.426698 263.579598 
L 124.657194 295.488 
L 124.889103 292.202092 
L 125.119602 258.034021 
M 126.732899 68.33331 
L 126.963398 60.958236 
M 129.037016 270.892913 
L 129.267511 253.095468 
L 129.498187 246.664664 
L 129.728684 225.589254 
M 131.342392 109.859953 
L 131.57289 112.23451 
M 133.4159 166.281753 
L 133.646396 162.597278 
M 135.261452 159.80206 
L 135.49195 161.004971 
M 136.876119 162.158109 
L 137.103742 165.915956 
L 137.334238 165.838193 
M 138.717087 130.169937 
L 138.948488 118.740304 
L 139.178981 144.761434 
M 150.70376 163.392973 
L 150.934257 165.72484 
L 151.164332 179.395112 
L 151.394829 174.061613 
M 176.519453 164.588757 
L 176.749949 160.990578 
M 193.576174 179.565008 
L 193.806671 179.194452 
M 194.497353 179.009012 
L 194.727849 185.43961 
M 196.342909 176.775196 
L 196.573406 168.134481 
M 213.398439 198.551348 
L 213.628935 183.295757 
M 214.089928 197.58568 
L 214.320733 184.395806 
M 220.544941 209.524149 
L 220.775438 200.105489 
L 221.005941 196.324502 
M 231.379551 163.286635 
L 231.610049 157.193179 
M 233.221291 143.582887 
L 233.682284 68.410184 
L 233.912782 60.784331 
L 234.142531 60.315073 
L 234.373027 62.527996 
L 234.603526 91.06609 
M 235.064724 138.186797 
L 235.295224 164.302984 
M 235.988291 196.215178 
L 236.218787 219.302159 
M 238.061874 120.352102 
L 238.29237 91.755105 
L 238.522869 78.429412 
L 238.753277 85.033352 
L 238.983773 76.462396 
L 239.21427 82.132413 
L 239.906504 132.826704 
M 256.732913 163.18432 
L 256.963409 169.647921 
M 259.498269 194.079161 
L 259.728767 199.229281 
M 262.495408 171.320814 
L 262.725904 187.964565 
M 268.026382 188.24993 
L 268.256877 186.252213 
M 268.717869 180.087792 
L 268.9482 167.410946 
M 271.714052 181.734054 
L 271.944551 174.33937 
M 285.776493 138.843618 
L 286.005162 147.419049 
M 291.539029 158.091305 
L 291.769526 164.019995 
M 292.459874 178.112767 
L 292.69037 195.662561 
L 293.381861 184.209192 
L 293.61076 193.083822 
L 293.841253 180.120357 
M 297.298761 159.462266 
L 297.529258 169.078858 
L 297.759752 167.728451 
L 297.99025 174.350833 
L 298.221785 177.266714 
L 298.452285 165.378123 
M 299.145534 158.4496 
L 299.376031 142.903586 
M 308.594806 168.504171 
L 308.825303 187.569818 
M 309.518263 195.325045 
L 309.74876 177.907363 
M 319.888721 193.414928 
L 320.119219 192.682847 
M 338.55928 154.537335 
L 339.019638 145.812867 
M 341.55825 155.859605 
L 341.788748 161.838059 
M 342.4771 163.117327 
L 342.707599 181.361514 
M 343.399882 178.176022 
L 343.630379 175.790688 
M 345.473701 179.463287 
L 345.704197 181.541199 
M 352.618818 174.552676 
L 352.849532 182.079828 
L 353.08003 177.151431 
M 357.689841 176.592562 
L 357.920337 168.217889 
M 365.065714 160.622441 
L 365.29621 162.852856 
L 365.526707 167.458657 
M 373.593744 154.501318 
L 373.82424 174.939673 
M 376.591586 161.19293 
L 376.821892 161.949427 
L 377.052388 167.092516 
L 377.282676 160.636952 
M 383.044029 160.619832 
L 383.274526 167.808052 
M 383.96751 167.362075 
L 384.198006 168.769366 
M 386.733444 176.937223 
L 386.96394 175.916795 
M 387.65715 148.550084 
L 387.887647 141.688849 
M 389.728634 162.363084 
L 389.959132 141.512741 
L 390.189627 139.326498 
L 390.420125 156.891455 
L 390.650266 154.143435 
M 395.260791 183.792596 
L 395.491287 184.079422 
L 395.721783 192.886238 
L 395.95228 175.715287 
L 396.412815 170.017861 
L 396.643311 170.84647 
L 396.873807 164.190778 
L 397.104379 167.999482 
L 397.334878 175.575561 
L 397.565374 176.362709 
L 397.79587 168.361473 
L 398.02628 165.740394 
L 398.256776 166.7587 
L 398.487273 162.40651 
L 73.832727 167.079309 
L 74.063221 165.966757 
L 74.293718 172.0973 
L 74.524317 174.020438 
L 74.985311 159.932756 
L 75.215808 165.003815 
L 75.446304 166.259738 
L 75.446304 166.259738 
" style="fill:none;stroke:#008000;stroke-linecap:square;"/>
   </g>
   <g id="patch_3">
    <path d="M 57.6 307.584 
L 57.6 41.472 
" style="fill:none;stroke:#000000;stroke-linecap:square;stroke-linejoin:miter;stroke-width:0.8;"/>
   </g>
   <g id="patch_4">
    <path d="M 414.72 307.584 
L 414.72 41.472 
" style="fill:none;stroke:#000000;stroke-linecap:square;stroke-linejoin:miter;stroke-width:0.8;"/>
   </g>
   <g id="patch_5">
    <path d="M 57.6 307.584 
L 414.72 307.584 
" style="fill:none;stroke:#000000;stroke-linecap:square;stroke-linejoin:miter;stroke-width:0.8;"/>
   </g>
   <g id="patch_6">
    <path d="M 57.6 41.472 
L 414.72 41.472 
" style="fill:none;stroke:#000000;stroke-linecap:square;stroke-linejoin:miter;stroke-width:0.8;"/>
   </g>
   <g id="text_16">
    <!-- Rel Gt Rot Z Plot -->
    <defs>
     <path d="M 44.390625 34.1875 
Q 47.5625 33.109375 50.5625 29.59375 
Q 53.5625 26.078125 56.59375 19.921875 
L 66.609375 0 
L 56 0 
L 46.6875 18.703125 
Q 43.0625 26.03125 39.671875 28.421875 
Q 36.28125 30.8125 30.421875 30.8125 
L 19.671875 30.8125 
L 19.671875 0 
L 9.8125 0 
L 9.8125 72.90625 
L 32.078125 72.90625 
Q 44.578125 72.90625 50.734375 67.671875 
Q 56.890625 62.453125 56.890625 51.90625 
Q 56.890625 45.015625 53.6875 40.46875 
Q 50.484375 35.9375 44.390625 34.1875 
z
M 19.671875 64.796875 
L 19.671875 38.921875 
L 32.078125 38.921875 
Q 39.203125 38.921875 42.84375 42.21875 
Q 46.484375 45.515625 46.484375 51.90625 
Q 46.484375 58.296875 42.84375 61.546875 
Q 39.203125 64.796875 32.078125 64.796875 
z
" id="DejaVuSans-52"/>
     <path d="M 9.421875 75.984375 
L 18.40625 75.984375 
L 18.40625 0 
L 9.421875 0 
z
" id="DejaVuSans-6c"/>
     <path d="M 59.515625 10.40625 
L 59.515625 29.984375 
L 43.40625 29.984375 
L 43.40625 38.09375 
L 69.28125 38.09375 
L 69.28125 6.78125 
Q 63.578125 2.734375 56.6875 0.65625 
Q 49.8125 -1.421875 42 -1.421875 
Q 24.90625 -1.421875 15.25 8.5625 
Q 5.609375 18.5625 5.609375 36.375 
Q 5.609375 54.25 15.25 64.234375 
Q 24.90625 74.21875 42 74.21875 
Q 49.125 74.21875 55.546875 72.453125 
Q 61.96875 70.703125 67.390625 67.28125 
L 67.390625 56.78125 
Q 61.921875 61.421875 55.765625 63.765625 
Q 49.609375 66.109375 42.828125 66.109375 
Q 29.4375 66.109375 22.71875 58.640625 
Q 16.015625 51.171875 16.015625 36.375 
Q 16.015625 21.625 22.71875 14.15625 
Q 29.4375 6.6875 42.828125 6.6875 
Q 48.046875 6.6875 52.140625 7.59375 
Q 56.25 8.5 59.515625 10.40625 
z
" id="DejaVuSans-47"/>
     <path d="M 5.609375 72.90625 
L 62.890625 72.90625 
L 62.890625 65.375 
L 16.796875 8.296875 
L 64.015625 8.296875 
L 64.015625 0 
L 4.5 0 
L 4.5 7.515625 
L 50.59375 64.59375 
L 5.609375 64.59375 
z
" id="DejaVuSans-5a"/>
     <path d="M 19.671875 64.796875 
L 19.671875 37.40625 
L 32.078125 37.40625 
Q 38.96875 37.40625 42.71875 40.96875 
Q 46.484375 44.53125 46.484375 51.125 
Q 46.484375 57.671875 42.71875 61.234375 
Q 38.96875 64.796875 32.078125 64.796875 
z
M 9.8125 72.90625 
L 32.078125 72.90625 
Q 44.34375 72.90625 50.609375 67.359375 
Q 56.890625 61.8125 56.890625 51.125 
Q 56.890625 40.328125 50.609375 34.8125 
Q 44.34375 29.296875 32.078125 29.296875 
L 19.671875 29.296875 
L 19.671875 0 
L 9.8125 0 
z
" id="DejaVuSans-50"/>
    </defs>
    <g transform="translate(186.400312 35.472)scale(0.12 -0.12)">
     <use xlink:href="#DejaVuSans-52"/>
     <use x="69.419922" xlink:href="#DejaVuSans-65"/>
     <use x="130.943359" xlink:href="#DejaVuSans-6c"/>
     <use x="158.726562" xlink:href="#DejaVuSans-20"/>
     <use x="190.513672" xlink:href="#DejaVuSans-47"/>
     <use x="268.003906" xlink:href="#DejaVuSans-74"/>
     <use x="307.212891" xlink:href="#DejaVuSans-20"/>
     <use x="339" xlink:href="#DejaVuSans-52"/>
     <use x="408.419922" xlink:href="#DejaVuSans-6f"/>
     <use x="469.601562" xlink:href="#DejaVuSans-74"/>
     <use x="508.810547" xlink:href="#DejaVuSans-20"/>
     <use x="540.597656" xlink:href="#DejaVuSans-5a"/>
     <use x="609.103516" xlink:href="#DejaVuSans-20"/>
     <use x="640.890625" xlink:href="#DejaVuSans-50"/>
     <use x="701.193359" xlink:href="#DejaVuSans-6c"/>
     <use x="728.976562" xlink:href="#DejaVuSans-6f"/>
     <use x="790.158203" xlink:href="#DejaVuSans-74"/>
    </g>
   </g>
  </g>
 </g>
 <defs>
  <clipPath id="p6c863a7b23">
   <rect height="266.112" width="357.12" x="57.6" y="41.472"/>
  </clipPath>
 </defs>
</svg>
