<?xml version="1.0" encoding="utf-8" standalone="no"?>
<!DOCTYPE svg PUBLIC "-//W3C//DTD SVG 1.1//EN"
  "http://www.w3.org/Graphics/SVG/1.1/DTD/svg11.dtd">
<!-- Created with matplotlib (http://matplotlib.org/) -->
<svg height="345.6pt" version="1.1" viewBox="0 0 460.8 345.6" width="460.8pt" xmlns="http://www.w3.org/2000/svg" xmlns:xlink="http://www.w3.org/1999/xlink">
 <defs>
  <style type="text/css">
*{stroke-linecap:butt;stroke-linejoin:round;}
  </style>
 </defs>
 <g id="figure_1">
  <g id="patch_1">
   <path d="M 0 345.6 
L 460.8 345.6 
L 460.8 0 
L 0 0 
z
" style="fill:#ffffff;"/>
  </g>
  <g id="axes_1">
   <g id="patch_2">
    <path d="M 57.6 307.584 
L 414.72 307.584 
L 414.72 41.472 
L 57.6 41.472 
z
" style="fill:#ffffff;"/>
   </g>
   <g id="matplotlib.axis_1">
    <g id="xtick_1">
     <g id="line2d_1">
      <path clip-path="url(#p4c1dabd273)" d="M 69.69601 307.584 
L 69.69601 41.472 
" style="fill:none;stroke:#b0b0b0;stroke-linecap:square;stroke-width:0.8;"/>
     </g>
     <g id="line2d_2">
      <defs>
       <path d="M 0 0 
L 0 3.5 
" id="m740478cd8b" style="stroke:#000000;stroke-width:0.8;"/>
      </defs>
      <g>
       <use style="stroke:#000000;stroke-width:0.8;" x="69.69601" xlink:href="#m740478cd8b" y="307.584"/>
      </g>
     </g>
     <g id="text_1">
      <!-- 99540 -->
      <defs>
       <path d="M 10.984375 1.515625 
L 10.984375 10.5 
Q 14.703125 8.734375 18.5 7.8125 
Q 22.3125 6.890625 25.984375 6.890625 
Q 35.75 6.890625 40.890625 13.453125 
Q 46.046875 20.015625 46.78125 33.40625 
Q 43.953125 29.203125 39.59375 26.953125 
Q 35.25 24.703125 29.984375 24.703125 
Q 19.046875 24.703125 12.671875 31.3125 
Q 6.296875 37.9375 6.296875 49.421875 
Q 6.296875 60.640625 12.9375 67.421875 
Q 19.578125 74.21875 30.609375 74.21875 
Q 43.265625 74.21875 49.921875 64.515625 
Q 56.59375 54.828125 56.59375 36.375 
Q 56.59375 19.140625 48.40625 8.859375 
Q 40.234375 -1.421875 26.421875 -1.421875 
Q 22.703125 -1.421875 18.890625 -0.6875 
Q 15.09375 0.046875 10.984375 1.515625 
z
M 30.609375 32.421875 
Q 37.25 32.421875 41.125 36.953125 
Q 45.015625 41.5 45.015625 49.421875 
Q 45.015625 57.28125 41.125 61.84375 
Q 37.25 66.40625 30.609375 66.40625 
Q 23.96875 66.40625 20.09375 61.84375 
Q 16.21875 57.28125 16.21875 49.421875 
Q 16.21875 41.5 20.09375 36.953125 
Q 23.96875 32.421875 30.609375 32.421875 
z
" id="DejaVuSans-39"/>
       <path d="M 10.796875 72.90625 
L 49.515625 72.90625 
L 49.515625 64.59375 
L 19.828125 64.59375 
L 19.828125 46.734375 
Q 21.96875 47.46875 24.109375 47.828125 
Q 26.265625 48.1875 28.421875 48.1875 
Q 40.625 48.1875 47.75 41.5 
Q 54.890625 34.8125 54.890625 23.390625 
Q 54.890625 11.625 47.5625 5.09375 
Q 40.234375 -1.421875 26.90625 -1.421875 
Q 22.3125 -1.421875 17.546875 -0.640625 
Q 12.796875 0.140625 7.71875 1.703125 
L 7.71875 11.625 
Q 12.109375 9.234375 16.796875 8.0625 
Q 21.484375 6.890625 26.703125 6.890625 
Q 35.15625 6.890625 40.078125 11.328125 
Q 45.015625 15.765625 45.015625 23.390625 
Q 45.015625 31 40.078125 35.4375 
Q 35.15625 39.890625 26.703125 39.890625 
Q 22.75 39.890625 18.8125 39.015625 
Q 14.890625 38.140625 10.796875 36.28125 
z
" id="DejaVuSans-35"/>
       <path d="M 37.796875 64.3125 
L 12.890625 25.390625 
L 37.796875 25.390625 
z
M 35.203125 72.90625 
L 47.609375 72.90625 
L 47.609375 25.390625 
L 58.015625 25.390625 
L 58.015625 17.1875 
L 47.609375 17.1875 
L 47.609375 0 
L 37.796875 0 
L 37.796875 17.1875 
L 4.890625 17.1875 
L 4.890625 26.703125 
z
" id="DejaVuSans-34"/>
       <path d="M 31.78125 66.40625 
Q 24.171875 66.40625 20.328125 58.90625 
Q 16.5 51.421875 16.5 36.375 
Q 16.5 21.390625 20.328125 13.890625 
Q 24.171875 6.390625 31.78125 6.390625 
Q 39.453125 6.390625 43.28125 13.890625 
Q 47.125 21.390625 47.125 36.375 
Q 47.125 51.421875 43.28125 58.90625 
Q 39.453125 66.40625 31.78125 66.40625 
z
M 31.78125 74.21875 
Q 44.046875 74.21875 50.515625 64.515625 
Q 56.984375 54.828125 56.984375 36.375 
Q 56.984375 17.96875 50.515625 8.265625 
Q 44.046875 -1.421875 31.78125 -1.421875 
Q 19.53125 -1.421875 13.0625 8.265625 
Q 6.59375 17.96875 6.59375 36.375 
Q 6.59375 54.828125 13.0625 64.515625 
Q 19.53125 74.21875 31.78125 74.21875 
z
" id="DejaVuSans-30"/>
      </defs>
      <g transform="translate(53.78976 322.182437)scale(0.1 -0.1)">
       <use xlink:href="#DejaVuSans-39"/>
       <use x="63.623047" xlink:href="#DejaVuSans-39"/>
       <use x="127.246094" xlink:href="#DejaVuSans-35"/>
       <use x="190.869141" xlink:href="#DejaVuSans-34"/>
       <use x="254.492188" xlink:href="#DejaVuSans-30"/>
      </g>
     </g>
    </g>
    <g id="xtick_2">
     <g id="line2d_3">
      <path clip-path="url(#p4c1dabd273)" d="M 115.793899 307.584 
L 115.793899 41.472 
" style="fill:none;stroke:#b0b0b0;stroke-linecap:square;stroke-width:0.8;"/>
     </g>
     <g id="line2d_4">
      <g>
       <use style="stroke:#000000;stroke-width:0.8;" x="115.793899" xlink:href="#m740478cd8b" y="307.584"/>
      </g>
     </g>
     <g id="text_2">
      <!-- 99560 -->
      <defs>
       <path d="M 33.015625 40.375 
Q 26.375 40.375 22.484375 35.828125 
Q 18.609375 31.296875 18.609375 23.390625 
Q 18.609375 15.53125 22.484375 10.953125 
Q 26.375 6.390625 33.015625 6.390625 
Q 39.65625 6.390625 43.53125 10.953125 
Q 47.40625 15.53125 47.40625 23.390625 
Q 47.40625 31.296875 43.53125 35.828125 
Q 39.65625 40.375 33.015625 40.375 
z
M 52.59375 71.296875 
L 52.59375 62.3125 
Q 48.875 64.0625 45.09375 64.984375 
Q 41.3125 65.921875 37.59375 65.921875 
Q 27.828125 65.921875 22.671875 59.328125 
Q 17.53125 52.734375 16.796875 39.40625 
Q 19.671875 43.65625 24.015625 45.921875 
Q 28.375 48.1875 33.59375 48.1875 
Q 44.578125 48.1875 50.953125 41.515625 
Q 57.328125 34.859375 57.328125 23.390625 
Q 57.328125 12.15625 50.6875 5.359375 
Q 44.046875 -1.421875 33.015625 -1.421875 
Q 20.359375 -1.421875 13.671875 8.265625 
Q 6.984375 17.96875 6.984375 36.375 
Q 6.984375 53.65625 15.1875 63.9375 
Q 23.390625 74.21875 37.203125 74.21875 
Q 40.921875 74.21875 44.703125 73.484375 
Q 48.484375 72.75 52.59375 71.296875 
z
" id="DejaVuSans-36"/>
      </defs>
      <g transform="translate(99.887649 322.182437)scale(0.1 -0.1)">
       <use xlink:href="#DejaVuSans-39"/>
       <use x="63.623047" xlink:href="#DejaVuSans-39"/>
       <use x="127.246094" xlink:href="#DejaVuSans-35"/>
       <use x="190.869141" xlink:href="#DejaVuSans-36"/>
       <use x="254.492188" xlink:href="#DejaVuSans-30"/>
      </g>
     </g>
    </g>
    <g id="xtick_3">
     <g id="line2d_5">
      <path clip-path="url(#p4c1dabd273)" d="M 161.891788 307.584 
L 161.891788 41.472 
" style="fill:none;stroke:#b0b0b0;stroke-linecap:square;stroke-width:0.8;"/>
     </g>
     <g id="line2d_6">
      <g>
       <use style="stroke:#000000;stroke-width:0.8;" x="161.891788" xlink:href="#m740478cd8b" y="307.584"/>
      </g>
     </g>
     <g id="text_3">
      <!-- 99580 -->
      <defs>
       <path d="M 31.78125 34.625 
Q 24.75 34.625 20.71875 30.859375 
Q 16.703125 27.09375 16.703125 20.515625 
Q 16.703125 13.921875 20.71875 10.15625 
Q 24.75 6.390625 31.78125 6.390625 
Q 38.8125 6.390625 42.859375 10.171875 
Q 46.921875 13.96875 46.921875 20.515625 
Q 46.921875 27.09375 42.890625 30.859375 
Q 38.875 34.625 31.78125 34.625 
z
M 21.921875 38.8125 
Q 15.578125 40.375 12.03125 44.71875 
Q 8.5 49.078125 8.5 55.328125 
Q 8.5 64.0625 14.71875 69.140625 
Q 20.953125 74.21875 31.78125 74.21875 
Q 42.671875 74.21875 48.875 69.140625 
Q 55.078125 64.0625 55.078125 55.328125 
Q 55.078125 49.078125 51.53125 44.71875 
Q 48 40.375 41.703125 38.8125 
Q 48.828125 37.15625 52.796875 32.3125 
Q 56.78125 27.484375 56.78125 20.515625 
Q 56.78125 9.90625 50.3125 4.234375 
Q 43.84375 -1.421875 31.78125 -1.421875 
Q 19.734375 -1.421875 13.25 4.234375 
Q 6.78125 9.90625 6.78125 20.515625 
Q 6.78125 27.484375 10.78125 32.3125 
Q 14.796875 37.15625 21.921875 38.8125 
z
M 18.3125 54.390625 
Q 18.3125 48.734375 21.84375 45.5625 
Q 25.390625 42.390625 31.78125 42.390625 
Q 38.140625 42.390625 41.71875 45.5625 
Q 45.3125 48.734375 45.3125 54.390625 
Q 45.3125 60.0625 41.71875 63.234375 
Q 38.140625 66.40625 31.78125 66.40625 
Q 25.390625 66.40625 21.84375 63.234375 
Q 18.3125 60.0625 18.3125 54.390625 
z
" id="DejaVuSans-38"/>
      </defs>
      <g transform="translate(145.985538 322.182437)scale(0.1 -0.1)">
       <use xlink:href="#DejaVuSans-39"/>
       <use x="63.623047" xlink:href="#DejaVuSans-39"/>
       <use x="127.246094" xlink:href="#DejaVuSans-35"/>
       <use x="190.869141" xlink:href="#DejaVuSans-38"/>
       <use x="254.492188" xlink:href="#DejaVuSans-30"/>
      </g>
     </g>
    </g>
    <g id="xtick_4">
     <g id="line2d_7">
      <path clip-path="url(#p4c1dabd273)" d="M 207.989677 307.584 
L 207.989677 41.472 
" style="fill:none;stroke:#b0b0b0;stroke-linecap:square;stroke-width:0.8;"/>
     </g>
     <g id="line2d_8">
      <g>
       <use style="stroke:#000000;stroke-width:0.8;" x="207.989677" xlink:href="#m740478cd8b" y="307.584"/>
      </g>
     </g>
     <g id="text_4">
      <!-- 99600 -->
      <g transform="translate(192.083427 322.182437)scale(0.1 -0.1)">
       <use xlink:href="#DejaVuSans-39"/>
       <use x="63.623047" xlink:href="#DejaVuSans-39"/>
       <use x="127.246094" xlink:href="#DejaVuSans-36"/>
       <use x="190.869141" xlink:href="#DejaVuSans-30"/>
       <use x="254.492188" xlink:href="#DejaVuSans-30"/>
      </g>
     </g>
    </g>
    <g id="xtick_5">
     <g id="line2d_9">
      <path clip-path="url(#p4c1dabd273)" d="M 254.087566 307.584 
L 254.087566 41.472 
" style="fill:none;stroke:#b0b0b0;stroke-linecap:square;stroke-width:0.8;"/>
     </g>
     <g id="line2d_10">
      <g>
       <use style="stroke:#000000;stroke-width:0.8;" x="254.087566" xlink:href="#m740478cd8b" y="307.584"/>
      </g>
     </g>
     <g id="text_5">
      <!-- 99620 -->
      <defs>
       <path d="M 19.1875 8.296875 
L 53.609375 8.296875 
L 53.609375 0 
L 7.328125 0 
L 7.328125 8.296875 
Q 12.9375 14.109375 22.625 23.890625 
Q 32.328125 33.6875 34.8125 36.53125 
Q 39.546875 41.84375 41.421875 45.53125 
Q 43.3125 49.21875 43.3125 52.78125 
Q 43.3125 58.59375 39.234375 62.25 
Q 35.15625 65.921875 28.609375 65.921875 
Q 23.96875 65.921875 18.8125 64.3125 
Q 13.671875 62.703125 7.8125 59.421875 
L 7.8125 69.390625 
Q 13.765625 71.78125 18.9375 73 
Q 24.125 74.21875 28.421875 74.21875 
Q 39.75 74.21875 46.484375 68.546875 
Q 53.21875 62.890625 53.21875 53.421875 
Q 53.21875 48.921875 51.53125 44.890625 
Q 49.859375 40.875 45.40625 35.40625 
Q 44.1875 33.984375 37.640625 27.21875 
Q 31.109375 20.453125 19.1875 8.296875 
z
" id="DejaVuSans-32"/>
      </defs>
      <g transform="translate(238.181316 322.182437)scale(0.1 -0.1)">
       <use xlink:href="#DejaVuSans-39"/>
       <use x="63.623047" xlink:href="#DejaVuSans-39"/>
       <use x="127.246094" xlink:href="#DejaVuSans-36"/>
       <use x="190.869141" xlink:href="#DejaVuSans-32"/>
       <use x="254.492188" xlink:href="#DejaVuSans-30"/>
      </g>
     </g>
    </g>
    <g id="xtick_6">
     <g id="line2d_11">
      <path clip-path="url(#p4c1dabd273)" d="M 300.185455 307.584 
L 300.185455 41.472 
" style="fill:none;stroke:#b0b0b0;stroke-linecap:square;stroke-width:0.8;"/>
     </g>
     <g id="line2d_12">
      <g>
       <use style="stroke:#000000;stroke-width:0.8;" x="300.185455" xlink:href="#m740478cd8b" y="307.584"/>
      </g>
     </g>
     <g id="text_6">
      <!-- 99640 -->
      <g transform="translate(284.279205 322.182437)scale(0.1 -0.1)">
       <use xlink:href="#DejaVuSans-39"/>
       <use x="63.623047" xlink:href="#DejaVuSans-39"/>
       <use x="127.246094" xlink:href="#DejaVuSans-36"/>
       <use x="190.869141" xlink:href="#DejaVuSans-34"/>
       <use x="254.492188" xlink:href="#DejaVuSans-30"/>
      </g>
     </g>
    </g>
    <g id="xtick_7">
     <g id="line2d_13">
      <path clip-path="url(#p4c1dabd273)" d="M 346.283345 307.584 
L 346.283345 41.472 
" style="fill:none;stroke:#b0b0b0;stroke-linecap:square;stroke-width:0.8;"/>
     </g>
     <g id="line2d_14">
      <g>
       <use style="stroke:#000000;stroke-width:0.8;" x="346.283345" xlink:href="#m740478cd8b" y="307.584"/>
      </g>
     </g>
     <g id="text_7">
      <!-- 99660 -->
      <g transform="translate(330.377095 322.182437)scale(0.1 -0.1)">
       <use xlink:href="#DejaVuSans-39"/>
       <use x="63.623047" xlink:href="#DejaVuSans-39"/>
       <use x="127.246094" xlink:href="#DejaVuSans-36"/>
       <use x="190.869141" xlink:href="#DejaVuSans-36"/>
       <use x="254.492188" xlink:href="#DejaVuSans-30"/>
      </g>
     </g>
    </g>
    <g id="xtick_8">
     <g id="line2d_15">
      <path clip-path="url(#p4c1dabd273)" d="M 392.381234 307.584 
L 392.381234 41.472 
" style="fill:none;stroke:#b0b0b0;stroke-linecap:square;stroke-width:0.8;"/>
     </g>
     <g id="line2d_16">
      <g>
       <use style="stroke:#000000;stroke-width:0.8;" x="392.381234" xlink:href="#m740478cd8b" y="307.584"/>
      </g>
     </g>
     <g id="text_8">
      <!-- 99680 -->
      <g transform="translate(376.474984 322.182437)scale(0.1 -0.1)">
       <use xlink:href="#DejaVuSans-39"/>
       <use x="63.623047" xlink:href="#DejaVuSans-39"/>
       <use x="127.246094" xlink:href="#DejaVuSans-36"/>
       <use x="190.869141" xlink:href="#DejaVuSans-38"/>
       <use x="254.492188" xlink:href="#DejaVuSans-30"/>
      </g>
     </g>
    </g>
    <g id="xtick_9">
     <g id="line2d_17">
      <path clip-path="url(#p4c1dabd273)" d="M 58.171537 307.584 
L 58.171537 41.472 
" style="fill:none;stroke:#b0b0b0;stroke-linecap:square;stroke-width:0.8;"/>
     </g>
     <g id="line2d_18">
      <defs>
       <path d="M 0 0 
L 0 2 
" id="mc284bd8d4d" style="stroke:#000000;stroke-width:0.6;"/>
      </defs>
      <g>
       <use style="stroke:#000000;stroke-width:0.6;" x="58.171537" xlink:href="#mc284bd8d4d" y="307.584"/>
      </g>
     </g>
    </g>
    <g id="xtick_10">
     <g id="line2d_19">
      <path clip-path="url(#p4c1dabd273)" d="M 81.220482 307.584 
L 81.220482 41.472 
" style="fill:none;stroke:#b0b0b0;stroke-linecap:square;stroke-width:0.8;"/>
     </g>
     <g id="line2d_20">
      <g>
       <use style="stroke:#000000;stroke-width:0.6;" x="81.220482" xlink:href="#mc284bd8d4d" y="307.584"/>
      </g>
     </g>
    </g>
    <g id="xtick_11">
     <g id="line2d_21">
      <path clip-path="url(#p4c1dabd273)" d="M 92.744954 307.584 
L 92.744954 41.472 
" style="fill:none;stroke:#b0b0b0;stroke-linecap:square;stroke-width:0.8;"/>
     </g>
     <g id="line2d_22">
      <g>
       <use style="stroke:#000000;stroke-width:0.6;" x="92.744954" xlink:href="#mc284bd8d4d" y="307.584"/>
      </g>
     </g>
    </g>
    <g id="xtick_12">
     <g id="line2d_23">
      <path clip-path="url(#p4c1dabd273)" d="M 104.269427 307.584 
L 104.269427 41.472 
" style="fill:none;stroke:#b0b0b0;stroke-linecap:square;stroke-width:0.8;"/>
     </g>
     <g id="line2d_24">
      <g>
       <use style="stroke:#000000;stroke-width:0.6;" x="104.269427" xlink:href="#mc284bd8d4d" y="307.584"/>
      </g>
     </g>
    </g>
    <g id="xtick_13">
     <g id="line2d_25">
      <path clip-path="url(#p4c1dabd273)" d="M 127.318371 307.584 
L 127.318371 41.472 
" style="fill:none;stroke:#b0b0b0;stroke-linecap:square;stroke-width:0.8;"/>
     </g>
     <g id="line2d_26">
      <g>
       <use style="stroke:#000000;stroke-width:0.6;" x="127.318371" xlink:href="#mc284bd8d4d" y="307.584"/>
      </g>
     </g>
    </g>
    <g id="xtick_14">
     <g id="line2d_27">
      <path clip-path="url(#p4c1dabd273)" d="M 138.842843 307.584 
L 138.842843 41.472 
" style="fill:none;stroke:#b0b0b0;stroke-linecap:square;stroke-width:0.8;"/>
     </g>
     <g id="line2d_28">
      <g>
       <use style="stroke:#000000;stroke-width:0.6;" x="138.842843" xlink:href="#mc284bd8d4d" y="307.584"/>
      </g>
     </g>
    </g>
    <g id="xtick_15">
     <g id="line2d_29">
      <path clip-path="url(#p4c1dabd273)" d="M 150.367316 307.584 
L 150.367316 41.472 
" style="fill:none;stroke:#b0b0b0;stroke-linecap:square;stroke-width:0.8;"/>
     </g>
     <g id="line2d_30">
      <g>
       <use style="stroke:#000000;stroke-width:0.6;" x="150.367316" xlink:href="#mc284bd8d4d" y="307.584"/>
      </g>
     </g>
    </g>
    <g id="xtick_16">
     <g id="line2d_31">
      <path clip-path="url(#p4c1dabd273)" d="M 173.41626 307.584 
L 173.41626 41.472 
" style="fill:none;stroke:#b0b0b0;stroke-linecap:square;stroke-width:0.8;"/>
     </g>
     <g id="line2d_32">
      <g>
       <use style="stroke:#000000;stroke-width:0.6;" x="173.41626" xlink:href="#mc284bd8d4d" y="307.584"/>
      </g>
     </g>
    </g>
    <g id="xtick_17">
     <g id="line2d_33">
      <path clip-path="url(#p4c1dabd273)" d="M 184.940733 307.584 
L 184.940733 41.472 
" style="fill:none;stroke:#b0b0b0;stroke-linecap:square;stroke-width:0.8;"/>
     </g>
     <g id="line2d_34">
      <g>
       <use style="stroke:#000000;stroke-width:0.6;" x="184.940733" xlink:href="#mc284bd8d4d" y="307.584"/>
      </g>
     </g>
    </g>
    <g id="xtick_18">
     <g id="line2d_35">
      <path clip-path="url(#p4c1dabd273)" d="M 196.465205 307.584 
L 196.465205 41.472 
" style="fill:none;stroke:#b0b0b0;stroke-linecap:square;stroke-width:0.8;"/>
     </g>
     <g id="line2d_36">
      <g>
       <use style="stroke:#000000;stroke-width:0.6;" x="196.465205" xlink:href="#mc284bd8d4d" y="307.584"/>
      </g>
     </g>
    </g>
    <g id="xtick_19">
     <g id="line2d_37">
      <path clip-path="url(#p4c1dabd273)" d="M 219.514149 307.584 
L 219.514149 41.472 
" style="fill:none;stroke:#b0b0b0;stroke-linecap:square;stroke-width:0.8;"/>
     </g>
     <g id="line2d_38">
      <g>
       <use style="stroke:#000000;stroke-width:0.6;" x="219.514149" xlink:href="#mc284bd8d4d" y="307.584"/>
      </g>
     </g>
    </g>
    <g id="xtick_20">
     <g id="line2d_39">
      <path clip-path="url(#p4c1dabd273)" d="M 231.038622 307.584 
L 231.038622 41.472 
" style="fill:none;stroke:#b0b0b0;stroke-linecap:square;stroke-width:0.8;"/>
     </g>
     <g id="line2d_40">
      <g>
       <use style="stroke:#000000;stroke-width:0.6;" x="231.038622" xlink:href="#mc284bd8d4d" y="307.584"/>
      </g>
     </g>
    </g>
    <g id="xtick_21">
     <g id="line2d_41">
      <path clip-path="url(#p4c1dabd273)" d="M 242.563094 307.584 
L 242.563094 41.472 
" style="fill:none;stroke:#b0b0b0;stroke-linecap:square;stroke-width:0.8;"/>
     </g>
     <g id="line2d_42">
      <g>
       <use style="stroke:#000000;stroke-width:0.6;" x="242.563094" xlink:href="#mc284bd8d4d" y="307.584"/>
      </g>
     </g>
    </g>
    <g id="xtick_22">
     <g id="line2d_43">
      <path clip-path="url(#p4c1dabd273)" d="M 265.612039 307.584 
L 265.612039 41.472 
" style="fill:none;stroke:#b0b0b0;stroke-linecap:square;stroke-width:0.8;"/>
     </g>
     <g id="line2d_44">
      <g>
       <use style="stroke:#000000;stroke-width:0.6;" x="265.612039" xlink:href="#mc284bd8d4d" y="307.584"/>
      </g>
     </g>
    </g>
    <g id="xtick_23">
     <g id="line2d_45">
      <path clip-path="url(#p4c1dabd273)" d="M 277.136511 307.584 
L 277.136511 41.472 
" style="fill:none;stroke:#b0b0b0;stroke-linecap:square;stroke-width:0.8;"/>
     </g>
     <g id="line2d_46">
      <g>
       <use style="stroke:#000000;stroke-width:0.6;" x="277.136511" xlink:href="#mc284bd8d4d" y="307.584"/>
      </g>
     </g>
    </g>
    <g id="xtick_24">
     <g id="line2d_47">
      <path clip-path="url(#p4c1dabd273)" d="M 288.660983 307.584 
L 288.660983 41.472 
" style="fill:none;stroke:#b0b0b0;stroke-linecap:square;stroke-width:0.8;"/>
     </g>
     <g id="line2d_48">
      <g>
       <use style="stroke:#000000;stroke-width:0.6;" x="288.660983" xlink:href="#mc284bd8d4d" y="307.584"/>
      </g>
     </g>
    </g>
    <g id="xtick_25">
     <g id="line2d_49">
      <path clip-path="url(#p4c1dabd273)" d="M 311.709928 307.584 
L 311.709928 41.472 
" style="fill:none;stroke:#b0b0b0;stroke-linecap:square;stroke-width:0.8;"/>
     </g>
     <g id="line2d_50">
      <g>
       <use style="stroke:#000000;stroke-width:0.6;" x="311.709928" xlink:href="#mc284bd8d4d" y="307.584"/>
      </g>
     </g>
    </g>
    <g id="xtick_26">
     <g id="line2d_51">
      <path clip-path="url(#p4c1dabd273)" d="M 323.2344 307.584 
L 323.2344 41.472 
" style="fill:none;stroke:#b0b0b0;stroke-linecap:square;stroke-width:0.8;"/>
     </g>
     <g id="line2d_52">
      <g>
       <use style="stroke:#000000;stroke-width:0.6;" x="323.2344" xlink:href="#mc284bd8d4d" y="307.584"/>
      </g>
     </g>
    </g>
    <g id="xtick_27">
     <g id="line2d_53">
      <path clip-path="url(#p4c1dabd273)" d="M 334.758872 307.584 
L 334.758872 41.472 
" style="fill:none;stroke:#b0b0b0;stroke-linecap:square;stroke-width:0.8;"/>
     </g>
     <g id="line2d_54">
      <g>
       <use style="stroke:#000000;stroke-width:0.6;" x="334.758872" xlink:href="#mc284bd8d4d" y="307.584"/>
      </g>
     </g>
    </g>
    <g id="xtick_28">
     <g id="line2d_55">
      <path clip-path="url(#p4c1dabd273)" d="M 357.807817 307.584 
L 357.807817 41.472 
" style="fill:none;stroke:#b0b0b0;stroke-linecap:square;stroke-width:0.8;"/>
     </g>
     <g id="line2d_56">
      <g>
       <use style="stroke:#000000;stroke-width:0.6;" x="357.807817" xlink:href="#mc284bd8d4d" y="307.584"/>
      </g>
     </g>
    </g>
    <g id="xtick_29">
     <g id="line2d_57">
      <path clip-path="url(#p4c1dabd273)" d="M 369.332289 307.584 
L 369.332289 41.472 
" style="fill:none;stroke:#b0b0b0;stroke-linecap:square;stroke-width:0.8;"/>
     </g>
     <g id="line2d_58">
      <g>
       <use style="stroke:#000000;stroke-width:0.6;" x="369.332289" xlink:href="#mc284bd8d4d" y="307.584"/>
      </g>
     </g>
    </g>
    <g id="xtick_30">
     <g id="line2d_59">
      <path clip-path="url(#p4c1dabd273)" d="M 380.856762 307.584 
L 380.856762 41.472 
" style="fill:none;stroke:#b0b0b0;stroke-linecap:square;stroke-width:0.8;"/>
     </g>
     <g id="line2d_60">
      <g>
       <use style="stroke:#000000;stroke-width:0.6;" x="380.856762" xlink:href="#mc284bd8d4d" y="307.584"/>
      </g>
     </g>
    </g>
    <g id="xtick_31">
     <g id="line2d_61">
      <path clip-path="url(#p4c1dabd273)" d="M 403.905706 307.584 
L 403.905706 41.472 
" style="fill:none;stroke:#b0b0b0;stroke-linecap:square;stroke-width:0.8;"/>
     </g>
     <g id="line2d_62">
      <g>
       <use style="stroke:#000000;stroke-width:0.6;" x="403.905706" xlink:href="#mc284bd8d4d" y="307.584"/>
      </g>
     </g>
    </g>
    <g id="text_9">
     <!-- frame # [] -->
     <defs>
      <path d="M 37.109375 75.984375 
L 37.109375 68.5 
L 28.515625 68.5 
Q 23.6875 68.5 21.796875 66.546875 
Q 19.921875 64.59375 19.921875 59.515625 
L 19.921875 54.6875 
L 34.71875 54.6875 
L 34.71875 47.703125 
L 19.921875 47.703125 
L 19.921875 0 
L 10.890625 0 
L 10.890625 47.703125 
L 2.296875 47.703125 
L 2.296875 54.6875 
L 10.890625 54.6875 
L 10.890625 58.5 
Q 10.890625 67.625 15.140625 71.796875 
Q 19.390625 75.984375 28.609375 75.984375 
z
" id="DejaVuSans-66"/>
      <path d="M 41.109375 46.296875 
Q 39.59375 47.171875 37.8125 47.578125 
Q 36.03125 48 33.890625 48 
Q 26.265625 48 22.1875 43.046875 
Q 18.109375 38.09375 18.109375 28.8125 
L 18.109375 0 
L 9.078125 0 
L 9.078125 54.6875 
L 18.109375 54.6875 
L 18.109375 46.1875 
Q 20.953125 51.171875 25.484375 53.578125 
Q 30.03125 56 36.53125 56 
Q 37.453125 56 38.578125 55.875 
Q 39.703125 55.765625 41.0625 55.515625 
z
" id="DejaVuSans-72"/>
      <path d="M 34.28125 27.484375 
Q 23.390625 27.484375 19.1875 25 
Q 14.984375 22.515625 14.984375 16.5 
Q 14.984375 11.71875 18.140625 8.90625 
Q 21.296875 6.109375 26.703125 6.109375 
Q 34.1875 6.109375 38.703125 11.40625 
Q 43.21875 16.703125 43.21875 25.484375 
L 43.21875 27.484375 
z
M 52.203125 31.203125 
L 52.203125 0 
L 43.21875 0 
L 43.21875 8.296875 
Q 40.140625 3.328125 35.546875 0.953125 
Q 30.953125 -1.421875 24.3125 -1.421875 
Q 15.921875 -1.421875 10.953125 3.296875 
Q 6 8.015625 6 15.921875 
Q 6 25.140625 12.171875 29.828125 
Q 18.359375 34.515625 30.609375 34.515625 
L 43.21875 34.515625 
L 43.21875 35.40625 
Q 43.21875 41.609375 39.140625 45 
Q 35.0625 48.390625 27.6875 48.390625 
Q 23 48.390625 18.546875 47.265625 
Q 14.109375 46.140625 10.015625 43.890625 
L 10.015625 52.203125 
Q 14.9375 54.109375 19.578125 55.046875 
Q 24.21875 56 28.609375 56 
Q 40.484375 56 46.34375 49.84375 
Q 52.203125 43.703125 52.203125 31.203125 
z
" id="DejaVuSans-61"/>
      <path d="M 52 44.1875 
Q 55.375 50.25 60.0625 53.125 
Q 64.75 56 71.09375 56 
Q 79.640625 56 84.28125 50.015625 
Q 88.921875 44.046875 88.921875 33.015625 
L 88.921875 0 
L 79.890625 0 
L 79.890625 32.71875 
Q 79.890625 40.578125 77.09375 44.375 
Q 74.3125 48.1875 68.609375 48.1875 
Q 61.625 48.1875 57.5625 43.546875 
Q 53.515625 38.921875 53.515625 30.90625 
L 53.515625 0 
L 44.484375 0 
L 44.484375 32.71875 
Q 44.484375 40.625 41.703125 44.40625 
Q 38.921875 48.1875 33.109375 48.1875 
Q 26.21875 48.1875 22.15625 43.53125 
Q 18.109375 38.875 18.109375 30.90625 
L 18.109375 0 
L 9.078125 0 
L 9.078125 54.6875 
L 18.109375 54.6875 
L 18.109375 46.1875 
Q 21.1875 51.21875 25.484375 53.609375 
Q 29.78125 56 35.6875 56 
Q 41.65625 56 45.828125 52.96875 
Q 50 49.953125 52 44.1875 
z
" id="DejaVuSans-6d"/>
      <path d="M 56.203125 29.59375 
L 56.203125 25.203125 
L 14.890625 25.203125 
Q 15.484375 15.921875 20.484375 11.0625 
Q 25.484375 6.203125 34.421875 6.203125 
Q 39.59375 6.203125 44.453125 7.46875 
Q 49.3125 8.734375 54.109375 11.28125 
L 54.109375 2.78125 
Q 49.265625 0.734375 44.1875 -0.34375 
Q 39.109375 -1.421875 33.890625 -1.421875 
Q 20.796875 -1.421875 13.15625 6.1875 
Q 5.515625 13.8125 5.515625 26.8125 
Q 5.515625 40.234375 12.765625 48.109375 
Q 20.015625 56 32.328125 56 
Q 43.359375 56 49.78125 48.890625 
Q 56.203125 41.796875 56.203125 29.59375 
z
M 47.21875 32.234375 
Q 47.125 39.59375 43.09375 43.984375 
Q 39.0625 48.390625 32.421875 48.390625 
Q 24.90625 48.390625 20.390625 44.140625 
Q 15.875 39.890625 15.1875 32.171875 
z
" id="DejaVuSans-65"/>
      <path id="DejaVuSans-20"/>
      <path d="M 51.125 44 
L 36.921875 44 
L 32.8125 27.6875 
L 47.125 27.6875 
z
M 43.796875 71.78125 
L 38.71875 51.515625 
L 52.984375 51.515625 
L 58.109375 71.78125 
L 65.921875 71.78125 
L 60.890625 51.515625 
L 76.125 51.515625 
L 76.125 44 
L 58.984375 44 
L 54.984375 27.6875 
L 70.515625 27.6875 
L 70.515625 20.21875 
L 53.078125 20.21875 
L 48 0 
L 40.1875 0 
L 45.21875 20.21875 
L 30.90625 20.21875 
L 25.875 0 
L 18.015625 0 
L 23.09375 20.21875 
L 7.71875 20.21875 
L 7.71875 27.6875 
L 24.90625 27.6875 
L 29 44 
L 13.28125 44 
L 13.28125 51.515625 
L 30.90625 51.515625 
L 35.890625 71.78125 
z
" id="DejaVuSans-23"/>
      <path d="M 8.59375 75.984375 
L 29.296875 75.984375 
L 29.296875 69 
L 17.578125 69 
L 17.578125 -6.203125 
L 29.296875 -6.203125 
L 29.296875 -13.1875 
L 8.59375 -13.1875 
z
" id="DejaVuSans-5b"/>
      <path d="M 30.421875 75.984375 
L 30.421875 -13.1875 
L 9.71875 -13.1875 
L 9.71875 -6.203125 
L 21.390625 -6.203125 
L 21.390625 69 
L 9.71875 69 
L 9.71875 75.984375 
z
" id="DejaVuSans-5d"/>
     </defs>
     <g transform="translate(210.063906 335.860562)scale(0.1 -0.1)">
      <use xlink:href="#DejaVuSans-66"/>
      <use x="35.205078" xlink:href="#DejaVuSans-72"/>
      <use x="76.318359" xlink:href="#DejaVuSans-61"/>
      <use x="137.597656" xlink:href="#DejaVuSans-6d"/>
      <use x="235.009766" xlink:href="#DejaVuSans-65"/>
      <use x="296.533203" xlink:href="#DejaVuSans-20"/>
      <use x="328.320312" xlink:href="#DejaVuSans-23"/>
      <use x="412.109375" xlink:href="#DejaVuSans-20"/>
      <use x="443.896484" xlink:href="#DejaVuSans-5b"/>
      <use x="482.910156" xlink:href="#DejaVuSans-5d"/>
     </g>
    </g>
   </g>
   <g id="matplotlib.axis_2">
    <g id="ytick_1">
     <g id="line2d_63">
      <path clip-path="url(#p4c1dabd273)" d="M 57.6 270.801537 
L 414.72 270.801537 
" style="fill:none;stroke:#b0b0b0;stroke-linecap:square;stroke-width:0.8;"/>
     </g>
     <g id="line2d_64">
      <defs>
       <path d="M 0 0 
L -3.5 0 
" id="m065bba3e01" style="stroke:#000000;stroke-width:0.8;"/>
      </defs>
      <g>
       <use style="stroke:#000000;stroke-width:0.8;" x="57.6" xlink:href="#m065bba3e01" y="270.801537"/>
      </g>
     </g>
     <g id="text_10">
      <!-- −0.2 -->
      <defs>
       <path d="M 10.59375 35.5 
L 73.1875 35.5 
L 73.1875 27.203125 
L 10.59375 27.203125 
z
" id="DejaVuSans-2212"/>
       <path d="M 10.6875 12.40625 
L 21 12.40625 
L 21 0 
L 10.6875 0 
z
" id="DejaVuSans-2e"/>
      </defs>
      <g transform="translate(26.317187 274.600756)scale(0.1 -0.1)">
       <use xlink:href="#DejaVuSans-2212"/>
       <use x="83.789062" xlink:href="#DejaVuSans-30"/>
       <use x="147.412109" xlink:href="#DejaVuSans-2e"/>
       <use x="179.199219" xlink:href="#DejaVuSans-32"/>
      </g>
     </g>
    </g>
    <g id="ytick_2">
     <g id="line2d_65">
      <path clip-path="url(#p4c1dabd273)" d="M 57.6 223.718841 
L 414.72 223.718841 
" style="fill:none;stroke:#b0b0b0;stroke-linecap:square;stroke-width:0.8;"/>
     </g>
     <g id="line2d_66">
      <g>
       <use style="stroke:#000000;stroke-width:0.8;" x="57.6" xlink:href="#m065bba3e01" y="223.718841"/>
      </g>
     </g>
     <g id="text_11">
      <!-- −0.1 -->
      <defs>
       <path d="M 12.40625 8.296875 
L 28.515625 8.296875 
L 28.515625 63.921875 
L 10.984375 60.40625 
L 10.984375 69.390625 
L 28.421875 72.90625 
L 38.28125 72.90625 
L 38.28125 8.296875 
L 54.390625 8.296875 
L 54.390625 0 
L 12.40625 0 
z
" id="DejaVuSans-31"/>
      </defs>
      <g transform="translate(26.317187 227.51806)scale(0.1 -0.1)">
       <use xlink:href="#DejaVuSans-2212"/>
       <use x="83.789062" xlink:href="#DejaVuSans-30"/>
       <use x="147.412109" xlink:href="#DejaVuSans-2e"/>
       <use x="179.199219" xlink:href="#DejaVuSans-31"/>
      </g>
     </g>
    </g>
    <g id="ytick_3">
     <g id="line2d_67">
      <path clip-path="url(#p4c1dabd273)" d="M 57.6 176.636145 
L 414.72 176.636145 
" style="fill:none;stroke:#b0b0b0;stroke-linecap:square;stroke-width:0.8;"/>
     </g>
     <g id="line2d_68">
      <g>
       <use style="stroke:#000000;stroke-width:0.8;" x="57.6" xlink:href="#m065bba3e01" y="176.636145"/>
      </g>
     </g>
     <g id="text_12">
      <!-- 0.0 -->
      <g transform="translate(34.696875 180.435364)scale(0.1 -0.1)">
       <use xlink:href="#DejaVuSans-30"/>
       <use x="63.623047" xlink:href="#DejaVuSans-2e"/>
       <use x="95.410156" xlink:href="#DejaVuSans-30"/>
      </g>
     </g>
    </g>
    <g id="ytick_4">
     <g id="line2d_69">
      <path clip-path="url(#p4c1dabd273)" d="M 57.6 129.553449 
L 414.72 129.553449 
" style="fill:none;stroke:#b0b0b0;stroke-linecap:square;stroke-width:0.8;"/>
     </g>
     <g id="line2d_70">
      <g>
       <use style="stroke:#000000;stroke-width:0.8;" x="57.6" xlink:href="#m065bba3e01" y="129.553449"/>
      </g>
     </g>
     <g id="text_13">
      <!-- 0.1 -->
      <g transform="translate(34.696875 133.352668)scale(0.1 -0.1)">
       <use xlink:href="#DejaVuSans-30"/>
       <use x="63.623047" xlink:href="#DejaVuSans-2e"/>
       <use x="95.410156" xlink:href="#DejaVuSans-31"/>
      </g>
     </g>
    </g>
    <g id="ytick_5">
     <g id="line2d_71">
      <path clip-path="url(#p4c1dabd273)" d="M 57.6 82.470753 
L 414.72 82.470753 
" style="fill:none;stroke:#b0b0b0;stroke-linecap:square;stroke-width:0.8;"/>
     </g>
     <g id="line2d_72">
      <g>
       <use style="stroke:#000000;stroke-width:0.8;" x="57.6" xlink:href="#m065bba3e01" y="82.470753"/>
      </g>
     </g>
     <g id="text_14">
      <!-- 0.2 -->
      <g transform="translate(34.696875 86.269972)scale(0.1 -0.1)">
       <use xlink:href="#DejaVuSans-30"/>
       <use x="63.623047" xlink:href="#DejaVuSans-2e"/>
       <use x="95.410156" xlink:href="#DejaVuSans-32"/>
      </g>
     </g>
    </g>
    <g id="ytick_6">
     <g id="line2d_73">
      <path clip-path="url(#p4c1dabd273)" d="M 57.6 299.051155 
L 414.72 299.051155 
" style="fill:none;stroke:#b0b0b0;stroke-linecap:square;stroke-width:0.8;"/>
     </g>
     <g id="line2d_74">
      <defs>
       <path d="M 0 0 
L -2 0 
" id="mbde8de625b" style="stroke:#000000;stroke-width:0.6;"/>
      </defs>
      <g>
       <use style="stroke:#000000;stroke-width:0.6;" x="57.6" xlink:href="#mbde8de625b" y="299.051155"/>
      </g>
     </g>
    </g>
    <g id="ytick_7">
     <g id="line2d_75">
      <path clip-path="url(#p4c1dabd273)" d="M 57.6 289.634615 
L 414.72 289.634615 
" style="fill:none;stroke:#b0b0b0;stroke-linecap:square;stroke-width:0.8;"/>
     </g>
     <g id="line2d_76">
      <g>
       <use style="stroke:#000000;stroke-width:0.6;" x="57.6" xlink:href="#mbde8de625b" y="289.634615"/>
      </g>
     </g>
    </g>
    <g id="ytick_8">
     <g id="line2d_77">
      <path clip-path="url(#p4c1dabd273)" d="M 57.6 280.218076 
L 414.72 280.218076 
" style="fill:none;stroke:#b0b0b0;stroke-linecap:square;stroke-width:0.8;"/>
     </g>
     <g id="line2d_78">
      <g>
       <use style="stroke:#000000;stroke-width:0.6;" x="57.6" xlink:href="#mbde8de625b" y="280.218076"/>
      </g>
     </g>
    </g>
    <g id="ytick_9">
     <g id="line2d_79">
      <path clip-path="url(#p4c1dabd273)" d="M 57.6 270.801537 
L 414.72 270.801537 
" style="fill:none;stroke:#b0b0b0;stroke-linecap:square;stroke-width:0.8;"/>
     </g>
     <g id="line2d_80">
      <g>
       <use style="stroke:#000000;stroke-width:0.6;" x="57.6" xlink:href="#mbde8de625b" y="270.801537"/>
      </g>
     </g>
    </g>
    <g id="ytick_10">
     <g id="line2d_81">
      <path clip-path="url(#p4c1dabd273)" d="M 57.6 261.384998 
L 414.72 261.384998 
" style="fill:none;stroke:#b0b0b0;stroke-linecap:square;stroke-width:0.8;"/>
     </g>
     <g id="line2d_82">
      <g>
       <use style="stroke:#000000;stroke-width:0.6;" x="57.6" xlink:href="#mbde8de625b" y="261.384998"/>
      </g>
     </g>
    </g>
    <g id="ytick_11">
     <g id="line2d_83">
      <path clip-path="url(#p4c1dabd273)" d="M 57.6 251.968459 
L 414.72 251.968459 
" style="fill:none;stroke:#b0b0b0;stroke-linecap:square;stroke-width:0.8;"/>
     </g>
     <g id="line2d_84">
      <g>
       <use style="stroke:#000000;stroke-width:0.6;" x="57.6" xlink:href="#mbde8de625b" y="251.968459"/>
      </g>
     </g>
    </g>
    <g id="ytick_12">
     <g id="line2d_85">
      <path clip-path="url(#p4c1dabd273)" d="M 57.6 242.55192 
L 414.72 242.55192 
" style="fill:none;stroke:#b0b0b0;stroke-linecap:square;stroke-width:0.8;"/>
     </g>
     <g id="line2d_86">
      <g>
       <use style="stroke:#000000;stroke-width:0.6;" x="57.6" xlink:href="#mbde8de625b" y="242.55192"/>
      </g>
     </g>
    </g>
    <g id="ytick_13">
     <g id="line2d_87">
      <path clip-path="url(#p4c1dabd273)" d="M 57.6 233.13538 
L 414.72 233.13538 
" style="fill:none;stroke:#b0b0b0;stroke-linecap:square;stroke-width:0.8;"/>
     </g>
     <g id="line2d_88">
      <g>
       <use style="stroke:#000000;stroke-width:0.6;" x="57.6" xlink:href="#mbde8de625b" y="233.13538"/>
      </g>
     </g>
    </g>
    <g id="ytick_14">
     <g id="line2d_89">
      <path clip-path="url(#p4c1dabd273)" d="M 57.6 223.718841 
L 414.72 223.718841 
" style="fill:none;stroke:#b0b0b0;stroke-linecap:square;stroke-width:0.8;"/>
     </g>
     <g id="line2d_90">
      <g>
       <use style="stroke:#000000;stroke-width:0.6;" x="57.6" xlink:href="#mbde8de625b" y="223.718841"/>
      </g>
     </g>
    </g>
    <g id="ytick_15">
     <g id="line2d_91">
      <path clip-path="url(#p4c1dabd273)" d="M 57.6 214.302302 
L 414.72 214.302302 
" style="fill:none;stroke:#b0b0b0;stroke-linecap:square;stroke-width:0.8;"/>
     </g>
     <g id="line2d_92">
      <g>
       <use style="stroke:#000000;stroke-width:0.6;" x="57.6" xlink:href="#mbde8de625b" y="214.302302"/>
      </g>
     </g>
    </g>
    <g id="ytick_16">
     <g id="line2d_93">
      <path clip-path="url(#p4c1dabd273)" d="M 57.6 204.885763 
L 414.72 204.885763 
" style="fill:none;stroke:#b0b0b0;stroke-linecap:square;stroke-width:0.8;"/>
     </g>
     <g id="line2d_94">
      <g>
       <use style="stroke:#000000;stroke-width:0.6;" x="57.6" xlink:href="#mbde8de625b" y="204.885763"/>
      </g>
     </g>
    </g>
    <g id="ytick_17">
     <g id="line2d_95">
      <path clip-path="url(#p4c1dabd273)" d="M 57.6 195.469224 
L 414.72 195.469224 
" style="fill:none;stroke:#b0b0b0;stroke-linecap:square;stroke-width:0.8;"/>
     </g>
     <g id="line2d_96">
      <g>
       <use style="stroke:#000000;stroke-width:0.6;" x="57.6" xlink:href="#mbde8de625b" y="195.469224"/>
      </g>
     </g>
    </g>
    <g id="ytick_18">
     <g id="line2d_97">
      <path clip-path="url(#p4c1dabd273)" d="M 57.6 186.052684 
L 414.72 186.052684 
" style="fill:none;stroke:#b0b0b0;stroke-linecap:square;stroke-width:0.8;"/>
     </g>
     <g id="line2d_98">
      <g>
       <use style="stroke:#000000;stroke-width:0.6;" x="57.6" xlink:href="#mbde8de625b" y="186.052684"/>
      </g>
     </g>
    </g>
    <g id="ytick_19">
     <g id="line2d_99">
      <path clip-path="url(#p4c1dabd273)" d="M 57.6 176.636145 
L 414.72 176.636145 
" style="fill:none;stroke:#b0b0b0;stroke-linecap:square;stroke-width:0.8;"/>
     </g>
     <g id="line2d_100">
      <g>
       <use style="stroke:#000000;stroke-width:0.6;" x="57.6" xlink:href="#mbde8de625b" y="176.636145"/>
      </g>
     </g>
    </g>
    <g id="ytick_20">
     <g id="line2d_101">
      <path clip-path="url(#p4c1dabd273)" d="M 57.6 167.219606 
L 414.72 167.219606 
" style="fill:none;stroke:#b0b0b0;stroke-linecap:square;stroke-width:0.8;"/>
     </g>
     <g id="line2d_102">
      <g>
       <use style="stroke:#000000;stroke-width:0.6;" x="57.6" xlink:href="#mbde8de625b" y="167.219606"/>
      </g>
     </g>
    </g>
    <g id="ytick_21">
     <g id="line2d_103">
      <path clip-path="url(#p4c1dabd273)" d="M 57.6 157.803067 
L 414.72 157.803067 
" style="fill:none;stroke:#b0b0b0;stroke-linecap:square;stroke-width:0.8;"/>
     </g>
     <g id="line2d_104">
      <g>
       <use style="stroke:#000000;stroke-width:0.6;" x="57.6" xlink:href="#mbde8de625b" y="157.803067"/>
      </g>
     </g>
    </g>
    <g id="ytick_22">
     <g id="line2d_105">
      <path clip-path="url(#p4c1dabd273)" d="M 57.6 148.386528 
L 414.72 148.386528 
" style="fill:none;stroke:#b0b0b0;stroke-linecap:square;stroke-width:0.8;"/>
     </g>
     <g id="line2d_106">
      <g>
       <use style="stroke:#000000;stroke-width:0.6;" x="57.6" xlink:href="#mbde8de625b" y="148.386528"/>
      </g>
     </g>
    </g>
    <g id="ytick_23">
     <g id="line2d_107">
      <path clip-path="url(#p4c1dabd273)" d="M 57.6 138.969988 
L 414.72 138.969988 
" style="fill:none;stroke:#b0b0b0;stroke-linecap:square;stroke-width:0.8;"/>
     </g>
     <g id="line2d_108">
      <g>
       <use style="stroke:#000000;stroke-width:0.6;" x="57.6" xlink:href="#mbde8de625b" y="138.969988"/>
      </g>
     </g>
    </g>
    <g id="ytick_24">
     <g id="line2d_109">
      <path clip-path="url(#p4c1dabd273)" d="M 57.6 129.553449 
L 414.72 129.553449 
" style="fill:none;stroke:#b0b0b0;stroke-linecap:square;stroke-width:0.8;"/>
     </g>
     <g id="line2d_110">
      <g>
       <use style="stroke:#000000;stroke-width:0.6;" x="57.6" xlink:href="#mbde8de625b" y="129.553449"/>
      </g>
     </g>
    </g>
    <g id="ytick_25">
     <g id="line2d_111">
      <path clip-path="url(#p4c1dabd273)" d="M 57.6 120.13691 
L 414.72 120.13691 
" style="fill:none;stroke:#b0b0b0;stroke-linecap:square;stroke-width:0.8;"/>
     </g>
     <g id="line2d_112">
      <g>
       <use style="stroke:#000000;stroke-width:0.6;" x="57.6" xlink:href="#mbde8de625b" y="120.13691"/>
      </g>
     </g>
    </g>
    <g id="ytick_26">
     <g id="line2d_113">
      <path clip-path="url(#p4c1dabd273)" d="M 57.6 110.720371 
L 414.72 110.720371 
" style="fill:none;stroke:#b0b0b0;stroke-linecap:square;stroke-width:0.8;"/>
     </g>
     <g id="line2d_114">
      <g>
       <use style="stroke:#000000;stroke-width:0.6;" x="57.6" xlink:href="#mbde8de625b" y="110.720371"/>
      </g>
     </g>
    </g>
    <g id="ytick_27">
     <g id="line2d_115">
      <path clip-path="url(#p4c1dabd273)" d="M 57.6 101.303832 
L 414.72 101.303832 
" style="fill:none;stroke:#b0b0b0;stroke-linecap:square;stroke-width:0.8;"/>
     </g>
     <g id="line2d_116">
      <g>
       <use style="stroke:#000000;stroke-width:0.6;" x="57.6" xlink:href="#mbde8de625b" y="101.303832"/>
      </g>
     </g>
    </g>
    <g id="ytick_28">
     <g id="line2d_117">
      <path clip-path="url(#p4c1dabd273)" d="M 57.6 91.887293 
L 414.72 91.887293 
" style="fill:none;stroke:#b0b0b0;stroke-linecap:square;stroke-width:0.8;"/>
     </g>
     <g id="line2d_118">
      <g>
       <use style="stroke:#000000;stroke-width:0.6;" x="57.6" xlink:href="#mbde8de625b" y="91.887293"/>
      </g>
     </g>
    </g>
    <g id="ytick_29">
     <g id="line2d_119">
      <path clip-path="url(#p4c1dabd273)" d="M 57.6 82.470753 
L 414.72 82.470753 
" style="fill:none;stroke:#b0b0b0;stroke-linecap:square;stroke-width:0.8;"/>
     </g>
     <g id="line2d_120">
      <g>
       <use style="stroke:#000000;stroke-width:0.6;" x="57.6" xlink:href="#mbde8de625b" y="82.470753"/>
      </g>
     </g>
    </g>
    <g id="ytick_30">
     <g id="line2d_121">
      <path clip-path="url(#p4c1dabd273)" d="M 57.6 73.054214 
L 414.72 73.054214 
" style="fill:none;stroke:#b0b0b0;stroke-linecap:square;stroke-width:0.8;"/>
     </g>
     <g id="line2d_122">
      <g>
       <use style="stroke:#000000;stroke-width:0.6;" x="57.6" xlink:href="#mbde8de625b" y="73.054214"/>
      </g>
     </g>
    </g>
    <g id="ytick_31">
     <g id="line2d_123">
      <path clip-path="url(#p4c1dabd273)" d="M 57.6 63.637675 
L 414.72 63.637675 
" style="fill:none;stroke:#b0b0b0;stroke-linecap:square;stroke-width:0.8;"/>
     </g>
     <g id="line2d_124">
      <g>
       <use style="stroke:#000000;stroke-width:0.6;" x="57.6" xlink:href="#mbde8de625b" y="63.637675"/>
      </g>
     </g>
    </g>
    <g id="ytick_32">
     <g id="line2d_125">
      <path clip-path="url(#p4c1dabd273)" d="M 57.6 54.221136 
L 414.72 54.221136 
" style="fill:none;stroke:#b0b0b0;stroke-linecap:square;stroke-width:0.8;"/>
     </g>
     <g id="line2d_126">
      <g>
       <use style="stroke:#000000;stroke-width:0.6;" x="57.6" xlink:href="#mbde8de625b" y="54.221136"/>
      </g>
     </g>
    </g>
    <g id="ytick_33">
     <g id="line2d_127">
      <path clip-path="url(#p4c1dabd273)" d="M 57.6 44.804597 
L 414.72 44.804597 
" style="fill:none;stroke:#b0b0b0;stroke-linecap:square;stroke-width:0.8;"/>
     </g>
     <g id="line2d_128">
      <g>
       <use style="stroke:#000000;stroke-width:0.6;" x="57.6" xlink:href="#mbde8de625b" y="44.804597"/>
      </g>
     </g>
    </g>
    <g id="text_15">
     <!-- trans x -->
     <defs>
      <path d="M 18.3125 70.21875 
L 18.3125 54.6875 
L 36.8125 54.6875 
L 36.8125 47.703125 
L 18.3125 47.703125 
L 18.3125 18.015625 
Q 18.3125 11.328125 20.140625 9.421875 
Q 21.96875 7.515625 27.59375 7.515625 
L 36.8125 7.515625 
L 36.8125 0 
L 27.59375 0 
Q 17.1875 0 13.234375 3.875 
Q 9.28125 7.765625 9.28125 18.015625 
L 9.28125 47.703125 
L 2.6875 47.703125 
L 2.6875 54.6875 
L 9.28125 54.6875 
L 9.28125 70.21875 
z
" id="DejaVuSans-74"/>
      <path d="M 54.890625 33.015625 
L 54.890625 0 
L 45.90625 0 
L 45.90625 32.71875 
Q 45.90625 40.484375 42.875 44.328125 
Q 39.84375 48.1875 33.796875 48.1875 
Q 26.515625 48.1875 22.3125 43.546875 
Q 18.109375 38.921875 18.109375 30.90625 
L 18.109375 0 
L 9.078125 0 
L 9.078125 54.6875 
L 18.109375 54.6875 
L 18.109375 46.1875 
Q 21.34375 51.125 25.703125 53.5625 
Q 30.078125 56 35.796875 56 
Q 45.21875 56 50.046875 50.171875 
Q 54.890625 44.34375 54.890625 33.015625 
z
" id="DejaVuSans-6e"/>
      <path d="M 44.28125 53.078125 
L 44.28125 44.578125 
Q 40.484375 46.53125 36.375 47.5 
Q 32.28125 48.484375 27.875 48.484375 
Q 21.1875 48.484375 17.84375 46.4375 
Q 14.5 44.390625 14.5 40.28125 
Q 14.5 37.15625 16.890625 35.375 
Q 19.28125 33.59375 26.515625 31.984375 
L 29.59375 31.296875 
Q 39.15625 29.25 43.1875 25.515625 
Q 47.21875 21.78125 47.21875 15.09375 
Q 47.21875 7.46875 41.1875 3.015625 
Q 35.15625 -1.421875 24.609375 -1.421875 
Q 20.21875 -1.421875 15.453125 -0.5625 
Q 10.6875 0.296875 5.421875 2 
L 5.421875 11.28125 
Q 10.40625 8.6875 15.234375 7.390625 
Q 20.0625 6.109375 24.8125 6.109375 
Q 31.15625 6.109375 34.5625 8.28125 
Q 37.984375 10.453125 37.984375 14.40625 
Q 37.984375 18.0625 35.515625 20.015625 
Q 33.0625 21.96875 24.703125 23.78125 
L 21.578125 24.515625 
Q 13.234375 26.265625 9.515625 29.90625 
Q 5.8125 33.546875 5.8125 39.890625 
Q 5.8125 47.609375 11.28125 51.796875 
Q 16.75 56 26.8125 56 
Q 31.78125 56 36.171875 55.265625 
Q 40.578125 54.546875 44.28125 53.078125 
z
" id="DejaVuSans-73"/>
      <path d="M 54.890625 54.6875 
L 35.109375 28.078125 
L 55.90625 0 
L 45.3125 0 
L 29.390625 21.484375 
L 13.484375 0 
L 2.875 0 
L 24.125 28.609375 
L 4.6875 54.6875 
L 15.28125 54.6875 
L 29.78125 35.203125 
L 44.28125 54.6875 
z
" id="DejaVuSans-78"/>
     </defs>
     <g transform="translate(20.2375 191.929563)rotate(-90)scale(0.1 -0.1)">
      <use xlink:href="#DejaVuSans-74"/>
      <use x="39.208984" xlink:href="#DejaVuSans-72"/>
      <use x="80.322266" xlink:href="#DejaVuSans-61"/>
      <use x="141.601562" xlink:href="#DejaVuSans-6e"/>
      <use x="204.980469" xlink:href="#DejaVuSans-73"/>
      <use x="257.080078" xlink:href="#DejaVuSans-20"/>
      <use x="288.867188" xlink:href="#DejaVuSans-78"/>
     </g>
    </g>
   </g>
   <g id="line2d_129">
    <path clip-path="url(#p4c1dabd273)" d="M 87.547463 188.920154 
L 88.008454 196.85468 
L 88.238951 200.719336 
L 88.469447 201.420331 
L 88.699953 200.611427 
L 88.930495 196.939664 
L 89.161236 195.364039 
L 89.621984 183.053707 
M 90.082548 173.33 
L 90.313044 168.23895 
L 90.774012 148.693944 
L 91.004508 148.735181 
L 91.235005 137.973482 
L 91.465503 136.412841 
L 91.697315 136.3158 
L 91.927811 139.582001 
L 92.158308 138.772801 
L 92.388804 139.097172 
L 92.619301 143.33483 
L 92.849894 144.698542 
L 93.080391 144.31808 
L 93.310887 141.722039 
L 93.541383 143.811218 
L 93.770692 142.027108 
L 94.001188 145.152044 
L 94.231685 141.063032 
L 94.462181 148.628958 
L 94.692582 142.29102 
L 94.923078 139.974984 
L 95.384073 130.271273 
L 95.615676 130.263407 
L 95.846173 132.632387 
L 96.076669 131.47394 
L 96.307166 135.236005 
L 96.769353 155.49984 
L 98.611396 224.661683 
L 98.841892 223.533838 
L 99.072388 225.025429 
L 99.30257 219.729456 
L 99.533067 219.761769 
L 99.763563 217.251883 
L 99.994059 222.59271 
L 100.225701 224.491043 
L 100.456197 223.03105 
L 100.686694 220.412425 
L 100.91719 216.014669 
L 101.147798 207.72883 
L 101.378294 206.570731 
L 101.608791 202.934423 
L 101.839287 203.908396 
M 102.299028 213.648024 
L 102.529524 212.191874 
L 103.220684 196.91398 
L 103.45118 187.483214 
L 103.681679 184.792244 
L 103.912172 190.599436 
L 104.142907 186.486768 
L 104.373404 185.198857 
L 104.6039 185.776873 
L 104.834399 184.437875 
L 105.065549 185.379801 
L 105.296045 176.48535 
L 105.98763 163.23589 
L 106.448625 154.54787 
L 106.679121 151.486369 
L 106.909168 146.536357 
L 107.139665 145.411047 
L 107.370239 139.04148 
L 107.600657 139.147365 
L 108.061735 142.793339 
L 108.292231 142.037857 
L 108.52273 143.208875 
L 108.75382 147.014294 
L 108.984316 142.232919 
L 109.214813 146.504516 
L 109.445309 146.631472 
L 109.675335 149.321635 
L 109.905831 147.067368 
L 110.136328 146.006929 
L 110.366824 145.815132 
L 110.596728 150.239905 
L 111.057905 148.37606 
L 111.288217 148.139342 
L 111.518939 137.95823 
L 111.749435 150.617216 
L 112.21043 151.122841 
L 112.442736 152.225651 
L 112.673233 150.776831 
L 112.903729 156.230365 
L 113.134225 157.474894 
L 114.286901 170.942318 
L 114.516513 171.538396 
L 114.747009 175.270917 
L 114.977506 176.292561 
L 115.208002 176.332384 
L 115.437693 171.683493 
L 115.668189 174.663307 
L 115.898688 176.007911 
L 116.129184 175.570078 
M 116.59066 184.694338 
L 116.821157 191.759824 
L 117.512628 225.73542 
L 117.97362 234.6026 
L 118.203302 234.172233 
L 118.433798 240.565094 
L 118.664295 237.758086 
M 119.125694 206.101851 
L 120.047783 150.115341 
L 120.27828 148.066357 
L 120.739275 163.64485 
M 121.199661 181.664811 
L 121.430157 193.858066 
L 121.660653 194.675228 
L 121.891025 199.102237 
L 122.121521 200.356023 
L 122.352018 200.276065 
L 122.582514 188.136073 
M 123.504596 154.740516 
L 123.965702 135.35246 
L 124.196199 131.705947 
M 125.350098 192.549975 
L 125.809881 222.284016 
L 126.040378 207.243363 
L 126.270874 220.882876 
L 126.501371 217.059363 
M 127.193894 181.601668 
L 127.42439 156.710056 
L 128.115263 130.990376 
L 128.345759 127.369548 
L 128.576012 146.026311 
L 128.806511 147.998976 
M 129.95918 214.448108 
L 130.189676 223.412249 
M 130.649909 215.266802 
L 130.880405 214.654768 
L 131.110902 206.908937 
M 132.264196 152.036752 
L 132.494692 147.537263 
L 132.725189 137.476194 
L 132.95571 141.711632 
L 133.185404 154.862953 
M 133.876893 177.527103 
L 134.107389 179.501475 
M 134.568052 181.043879 
L 135.029044 170.851732 
M 135.722446 173.464288 
L 135.952941 179.115419 
M 136.415126 178.582675 
L 136.645734 180.900399 
M 137.564735 179.474946 
L 137.795231 198.417227 
L 138.025598 199.355795 
L 138.486591 212.977022 
M 139.409481 150.219659 
L 139.639979 133.812897 
L 139.869695 125.746412 
L 140.100203 130.580744 
L 140.330888 114.687848 
L 140.561184 111.799932 
L 140.791752 112.819876 
L 141.022248 116.856126 
L 141.483241 130.819405 
M 141.94548 183.826955 
L 142.175976 188.06576 
L 142.406472 205.612674 
M 142.866556 211.332463 
L 143.097053 224.889168 
L 143.327549 231.737445 
L 143.55753 231.760861 
L 143.788026 235.663572 
L 144.018523 229.535445 
L 144.249019 227.458726 
L 144.479515 235.702665 
M 144.942087 224.769723 
L 145.172583 233.405287 
L 145.403082 225.428584 
L 145.63523 211.130506 
M 146.096223 186.136383 
L 146.555731 154.793853 
L 146.786229 153.069842 
L 147.016724 141.614465 
L 147.93716 121.134885 
L 148.167657 123.80769 
L 148.398011 129.304793 
L 148.628508 131.033379 
L 148.859004 134.82231 
L 149.089503 145.891416 
M 149.551452 175.387365 
L 150.012444 196.670957 
L 150.242768 195.559398 
L 150.473264 193.554761 
M 151.625325 183.977245 
L 151.855821 182.092157 
L 152.086591 185.098501 
L 152.317088 176.997012 
L 152.547584 181.482727 
L 153.00848 176.128548 
L 153.238976 178.448047 
L 153.469473 175.325121 
L 153.699971 176.63384 
L 153.931563 180.958341 
L 154.162059 146.56691 
L 154.392558 168.918912 
L 154.623054 168.488982 
L 155.084645 174.796652 
L 155.545638 159.684823 
L 156.23709 170.455909 
L 156.467589 171.173696 
L 156.698085 173.36956 
L 156.92857 169.985703 
L 157.389565 173.939404 
L 157.620062 179.879902 
L 157.851052 175.660888 
L 158.081549 168.22182 
L 158.542542 178.095595 
L 158.773253 178.157543 
L 159.003749 180.567005 
L 159.234246 179.651346 
L 159.464742 173.882655 
L 159.693949 162.753281 
L 159.924444 170.708821 
L 160.154944 170.709729 
L 160.38544 163.481138 
M 160.847048 169.789188 
L 161.077542 171.093872 
L 161.30804 179.162473 
L 161.53828 176.889735 
L 161.768776 180.710827 
L 161.999273 174.391814 
L 162.229769 171.616864 
L 162.460626 175.66169 
L 162.691122 168.303211 
L 162.921619 165.726867 
L 163.152115 165.171502 
L 163.612746 177.75573 
L 163.843245 178.744954 
L 164.073741 178.988383 
L 164.303789 177.919676 
L 164.534287 174.909274 
L 164.995278 164.72774 
L 165.225619 165.077811 
L 165.456115 159.454253 
L 165.686612 163.505172 
L 165.917136 162.702583 
L 166.147605 166.901184 
L 166.378656 163.48608 
L 166.609152 164.958696 
L 167.070145 160.316162 
M 168.221853 158.100763 
L 168.45235 162.728853 
L 168.682848 160.898297 
L 168.913345 162.124491 
L 169.143419 161.337885 
L 169.373915 160.005475 
L 169.60451 157.452108 
L 169.834908 160.63644 
L 170.066395 148.984487 
L 171.449663 175.087579 
L 171.68016 172.612597 
L 171.910753 172.178109 
L 172.141249 171.173271 
L 172.371748 171.440218 
L 172.83297 168.63739 
L 173.063464 172.671324 
L 173.294124 181.230021 
L 173.52445 185.182122 
L 173.754955 187.133665 
L 173.985452 186.157042 
L 174.446444 177.617646 
L 174.677168 176.976458 
L 174.907664 176.845061 
L 175.13816 177.468799 
L 175.368657 171.548158 
L 175.828846 174.334495 
L 176.059342 171.378112 
L 176.289838 173.120535 
M 176.980686 165.047699 
L 177.210942 163.260262 
L 177.441438 160.213903 
L 177.672593 162.921651 
L 177.903089 162.623967 
L 178.133586 171.119263 
L 178.364082 170.668307 
L 178.595332 176.724953 
L 178.825829 167.539565 
L 179.056325 165.816117 
L 179.286821 166.919699 
L 179.517657 162.537245 
L 179.748154 165.609831 
L 179.978653 166.468922 
L 180.209149 166.182909 
L 180.438914 183.765563 
L 180.66941 176.328043 
L 180.899906 173.617158 
L 181.130403 174.927022 
L 181.821328 164.274951 
L 182.051827 162.827432 
L 182.512898 164.204783 
L 182.973893 171.100874 
L 183.204644 166.509957 
L 183.435141 166.586884 
L 183.665637 163.252745 
L 183.896136 162.167756 
M 185.278369 161.012488 
L 185.508865 162.206307 
L 185.739364 160.292235 
L 185.969646 164.3561 
L 186.200142 161.737632 
L 186.430638 162.301826 
L 186.661135 161.656809 
L 186.892768 165.192591 
L 187.353766 160.00248 
L 187.584257 160.514144 
L 187.814756 165.521422 
L 188.044988 167.917687 
L 188.275484 168.034397 
L 188.505981 170.038669 
L 188.736477 168.604793 
L 188.9671 168.368392 
L 189.197597 170.137493 
L 189.658591 165.677892 
L 190.119956 167.688786 
L 190.350452 165.170748 
L 190.811441 166.817664 
L 191.041928 163.080136 
L 191.272424 163.409154 
L 191.502923 163.487159 
L 191.733535 164.994948 
L 191.964032 163.967831 
L 192.194528 165.41317 
L 192.425024 163.122187 
L 192.655391 163.187584 
L 192.885887 161.516987 
L 193.116384 162.902321 
L 193.346883 160.711952 
M 194.03717 167.268134 
L 194.267666 158.554958 
M 194.958346 144.273155 
L 195.188844 155.718328 
L 195.419463 155.831338 
L 195.649959 154.878476 
L 195.880455 153.105628 
L 196.110952 155.456165 
M 196.803902 149.891178 
L 197.034401 150.971453 
L 198.417165 216.767435 
L 198.878158 230.0476 
L 199.108654 221.865951 
L 199.338525 208.520002 
L 199.569022 207.862931 
L 200.030014 192.583101 
M 200.491636 165.000773 
L 200.722135 161.318764 
L 201.183318 142.17682 
L 201.413813 141.266297 
L 201.874809 137.270097 
M 202.56635 127.865684 
L 203.027479 130.38498 
L 203.257975 135.491858 
L 203.488472 144.503291 
L 203.718968 147.47029 
L 204.642133 198.124465 
M 205.10187 216.819525 
L 205.562862 226.536268 
L 205.792619 226.207139 
L 206.023118 221.948697 
L 206.253623 208.984856 
L 206.945932 186.347207 
L 207.176428 162.206894 
L 207.637883 141.543033 
L 207.868381 139.342226 
L 208.098878 133.822029 
L 208.55987 134.995094 
L 208.790438 138.71274 
L 209.251442 142.375587 
L 209.481929 160.215269 
L 209.713258 167.756599 
L 209.943756 188.468298 
L 210.86508 222.87005 
L 211.095576 223.707374 
L 211.326072 219.559771 
L 212.017211 185.361133 
L 212.708498 142.172315 
L 212.938994 135.15994 
L 213.169488 141.64103 
M 214.55123 189.354861 
L 214.781726 195.65536 
L 215.012222 194.664853 
M 215.474018 199.51671 
L 215.935011 206.72005 
L 216.165554 211.798402 
L 216.396051 206.370653 
L 216.626545 207.607452 
L 216.857041 213.610623 
L 217.087403 215.078712 
L 217.31793 213.345382 
L 217.548396 214.37045 
L 218.009496 221.1132 
L 218.470489 222.879372 
L 218.931482 215.026725 
L 219.161971 214.625126 
L 219.392468 209.437534 
L 219.622964 207.844413 
L 219.85346 199.08424 
L 220.083946 194.830802 
L 220.314443 194.653268 
M 221.236392 212.566942 
L 221.697385 227.824037 
L 221.927856 231.014442 
L 222.158353 237.56228 
M 224.69294 176.027316 
L 224.92336 178.933743 
L 225.153856 186.825416 
L 225.384352 185.521644 
L 225.615675 197.171376 
L 225.846171 184.029747 
L 226.076667 187.55467 
L 227.230171 233.604805 
L 227.460717 236.854672 
L 227.691213 236.4738 
L 227.921712 233.422137 
L 228.382237 213.674902 
L 229.304133 157.480155 
L 229.534702 159.805481 
L 229.765198 159.111856 
L 229.995695 150.119673 
L 230.226194 154.133317 
L 230.45595 153.6692 
L 230.686446 164.525019 
L 231.147441 148.520905 
M 231.840545 149.232288 
L 232.07115 162.706316 
L 232.532547 176.473592 
M 235.525717 137.877208 
L 235.756331 142.049663 
M 236.449284 179.744295 
L 236.67978 180.872358 
L 236.91011 201.069919 
L 237.371103 220.116039 
L 237.601601 219.836385 
L 237.831378 233.740269 
M 240.137 143.224945 
L 240.367496 133.004654 
L 240.597992 158.262804 
L 240.8284 122.691843 
L 241.289395 126.356107 
L 241.519891 130.074662 
L 241.750157 129.092199 
L 241.980653 132.093919 
L 242.903108 167.90845 
L 243.133729 158.695003 
L 243.594731 190.773456 
L 243.825227 196.314332 
L 244.055724 198.202575 
L 244.28622 196.823152 
L 244.746785 175.930374 
L 244.977282 175.289509 
L 245.668936 145.081088 
L 246.129927 133.295504 
L 246.360309 133.592816 
L 246.590806 130.362379 
L 246.821427 132.12621 
L 247.974368 185.674155 
L 248.665964 201.779383 
L 248.896461 200.582829 
L 249.126704 205.256725 
L 249.3572 206.798448 
L 249.587699 205.183543 
L 250.280137 190.468147 
L 250.510756 178.99589 
L 250.74113 207.948987 
L 250.971626 191.862918 
L 251.201742 205.616325 
L 251.432238 212.413767 
L 251.662734 225.295074 
L 251.893231 224.56802 
L 252.123193 228.563823 
L 252.353692 215.536787 
L 252.584188 215.338452 
L 253.045286 195.950488 
L 253.736772 151.818301 
L 254.19835 132.672638 
L 254.659226 129.897363 
L 254.889502 134.383535 
L 256.041799 196.669862 
L 256.272295 211.731886 
L 256.502792 202.753851 
M 257.193906 231.943957 
L 257.424402 235.174471 
L 258.11595 214.554794 
L 259.03873 145.405351 
L 259.269227 136.620195 
M 259.959264 148.567309 
L 260.18976 156.85814 
M 260.652341 183.486447 
L 261.113331 222.800447 
L 261.343598 234.495786 
L 261.805872 244.774253 
L 262.036368 245.254908 
L 262.266865 239.588625 
M 262.9564 222.645183 
L 263.186897 227.262086 
M 263.649606 188.38295 
L 264.110601 170.511412 
L 264.341194 168.340152 
L 264.57169 161.40747 
L 264.802186 173.624184 
L 265.032681 155.148795 
M 265.491237 155.356671 
L 265.721733 166.192681 
L 265.952229 168.376597 
L 266.182907 172.421793 
L 266.413403 166.126745 
L 266.6439 170.713239 
L 266.874396 165.358741 
L 267.106515 172.671092 
M 267.567508 169.538499 
L 267.798004 169.613315 
M 269.178648 175.54282 
L 269.409144 178.016601 
L 269.63964 188.480066 
L 269.871879 192.62173 
L 270.102376 201.605617 
L 270.332872 193.105805 
M 270.793923 186.337426 
L 271.024419 185.077415 
L 271.254915 185.673881 
L 271.485414 182.007813 
M 272.175048 176.714775 
L 272.405544 190.37904 
L 272.636066 187.441871 
L 272.868145 196.450812 
L 273.098641 211.903209 
L 273.329138 217.58321 
L 273.559634 227.00294 
L 273.792071 222.965474 
L 274.022567 229.087018 
L 274.253063 226.561383 
L 274.483562 227.963295 
M 274.942161 207.677009 
L 275.172657 203.405425 
L 275.864979 140.101302 
L 276.787298 109.146931 
L 277.017794 102.827023 
L 277.248291 100.166787 
L 277.478547 104.865618 
L 277.709043 114.166651 
L 278.170038 144.440433 
L 278.399669 176.006244 
M 278.860662 212.849396 
L 279.320526 250.183406 
L 279.551024 258.010192 
L 279.781519 273.74571 
L 280.012019 272.526055 
L 280.24313 267.827028 
L 280.704123 245.763002 
L 281.166887 207.865639 
L 281.858378 132.180213 
L 282.088512 174.316799 
L 282.31901 104.907585 
L 282.780001 89.751356 
L 283.010497 89.221707 
M 283.469406 84.326549 
L 283.699912 81.947735 
L 283.930399 87.714431 
L 284.392922 118.887207 
L 285.085001 185.852683 
M 286.23566 241.332612 
L 286.466155 244.480867 
L 286.696651 242.383442 
L 286.926649 237.962389 
L 287.157146 224.395507 
L 287.618141 241.74155 
M 288.08017 237.132345 
L 288.310667 233.137579 
L 288.541163 219.712501 
L 288.772282 219.579789 
L 289.002781 221.817401 
L 289.233278 225.725113 
L 289.463774 231.763997 
M 289.922996 258.74829 
L 290.15349 256.866117 
L 290.383987 268.924835 
L 290.615113 274.900217 
M 291.076108 268.348054 
L 291.306605 246.470185 
M 292.000022 181.221158 
L 292.230519 162.868792 
M 294.07175 93.647265 
L 294.302246 97.609349 
M 294.764345 113.981959 
L 296.148143 223.880808 
L 296.377525 237.887081 
L 296.608023 238.655996 
L 296.83852 238.292227 
L 297.069016 249.909763 
M 298.682781 243.70799 
L 298.913277 231.83576 
M 299.606527 184.129448 
L 299.837023 173.560603 
L 300.067298 153.573047 
M 303.29422 60.726441 
L 303.755213 82.989613 
L 304.44689 134.329196 
L 306.289131 221.848019 
L 307.441641 249.55273 
M 307.902035 248.575923 
L 308.132531 259.115885 
L 308.36303 261.443614 
M 309.055799 261.14122 
L 309.286293 260.172261 
M 309.979256 224.413024 
L 311.360183 145.337095 
L 312.051672 98.83052 
L 312.281905 94.512634 
L 312.512399 84.622483 
L 312.742895 80.917924 
L 312.973392 84.359356 
L 313.205036 94.260394 
L 313.435533 126.326075 
L 313.896526 161.298008 
L 314.588475 231.248398 
L 315.04947 259.56678 
L 315.278508 262.646585 
L 315.509004 255.340867 
L 315.739501 257.849122 
L 315.969999 244.22464 
L 316.430801 210.033262 
M 316.891796 192.61348 
L 317.583643 183.556246 
L 318.044115 182.665816 
L 318.505108 161.636023 
L 318.735607 151.986931 
L 318.965639 183.590127 
L 319.196136 131.19871 
L 319.426634 125.972015 
L 319.657131 131.318569 
M 320.349716 151.162391 
L 320.580212 164.061291 
L 320.810495 169.201218 
L 321.040882 169.942504 
L 321.271378 160.078293 
L 321.501875 145.320747 
M 321.963516 129.93671 
L 322.194015 137.067911 
L 322.885506 191.808858 
L 323.80723 288.041359 
L 324.037723 294.188303 
L 324.268223 287.334723 
L 324.72941 244.284224 
L 326.112575 104.586988 
L 326.57352 86.089215 
L 326.804017 86.703158 
L 327.034515 96.776757 
L 327.49542 143.227507 
M 327.956415 197.728771 
L 328.647672 261.129191 
L 328.878169 273.133758 
L 329.108665 268.864542 
L 329.33957 259.21338 
L 330.492477 145.348849 
L 331.414126 59.376947 
L 331.644625 63.930851 
L 332.105824 98.046582 
L 332.566817 154.130025 
L 333.718482 266.782623 
L 333.949118 280.062149 
L 334.179614 284.371676 
L 334.410111 278.295453 
L 334.871494 240.223851 
L 336.023625 127.51248 
L 336.484618 95.762351 
L 336.715114 87.032038 
L 336.945403 84.706975 
L 337.175901 91.81829 
L 337.406397 105.443743 
L 338.328786 191.60651 
M 339.250132 200.059918 
L 339.480628 194.684132 
L 339.940827 199.463519 
L 340.171323 201.203442 
L 340.401819 192.913779 
L 340.632905 180.597995 
L 341.0939 175.048687 
L 341.324397 174.671072 
M 342.019245 173.077466 
L 342.249741 175.215952 
M 342.938095 169.719212 
L 343.168591 170.100091 
M 343.860875 155.032931 
L 344.782703 216.804607 
L 345.013199 211.201262 
L 345.243204 190.459045 
M 345.934693 150.334933 
L 346.16519 145.595428 
L 346.395832 156.997547 
M 346.856825 191.48618 
L 347.087321 219.813753 
L 347.317898 231.279514 
L 347.548394 234.829444 
L 347.778891 230.766026 
L 348.239844 213.586697 
L 348.47034 199.115312 
M 348.931332 160.774804 
L 349.853494 72.931861 
L 350.083627 67.482152 
L 350.544792 77.424044 
L 350.775116 101.059951 
M 351.235885 138.825233 
L 351.466381 150.265824 
L 351.696878 153.083259 
M 353.310527 101.407921 
L 353.541021 94.882638 
L 353.771653 91.845611 
L 354.232727 81.746312 
L 354.463143 78.750675 
L 354.692971 82.210702 
L 355.153964 95.151884 
L 356.076344 126.190061 
L 356.30684 128.908301 
L 356.537698 128.276932 
L 356.768196 129.77498 
L 356.998693 130.465381 
L 357.229189 138.312915 
L 357.459685 136.448242 
M 358.150833 125.612905 
L 358.842207 100.623776 
L 359.072703 95.426854 
L 359.303201 93.225468 
L 359.534065 94.777785 
L 360.225557 115.48135 
L 360.686178 134.487849 
L 360.916674 139.049312 
L 361.147171 138.925544 
L 361.377966 138.497917 
L 361.608462 135.149238 
L 361.838958 129.928858 
L 362.069455 129.185213 
L 362.300159 120.288211 
L 362.530655 117.807396 
L 362.761151 110.478382 
L 362.99165 109.646467 
L 363.452238 104.938692 
L 364.373844 77.113246 
M 365.757203 133.103366 
L 365.987997 145.330124 
L 366.218493 146.918022 
L 366.44899 144.900797 
L 366.679488 132.594445 
L 366.910621 128.314837 
L 367.141117 108.218108 
L 367.832608 97.981451 
L 368.062495 98.047117 
L 368.292989 102.022676 
L 368.753984 125.621374 
L 370.137356 236.154626 
M 371.05817 263.280242 
L 371.288669 243.948614 
L 371.519163 242.761839 
M 371.980904 215.244013 
L 372.2114 201.249439 
M 373.134761 127.85129 
L 373.365258 116.210591 
M 374.054739 125.987191 
L 374.978466 164.520762 
L 375.44004 184.335331 
L 375.670536 192.599097 
L 376.131529 186.169549 
L 376.360899 181.933068 
M 377.513172 164.300368 
L 378.665343 139.927017 
L 378.895842 139.130231 
L 379.126338 137.847891 
L 379.817552 131.639228 
L 380.048048 131.720947 
L 380.509054 134.8736 
L 380.739551 138.495854 
L 381.200962 154.696833 
L 381.892453 196.544496 
L 382.814291 225.965752 
M 383.505022 225.846525 
L 383.735518 216.485291 
M 384.428503 182.746395 
L 384.658999 173.844544 
L 384.889676 172.030304 
L 385.581167 140.693792 
L 385.810588 146.011589 
M 386.271583 126.009106 
L 386.50208 125.501172 
M 387.194437 110.043062 
L 387.424933 107.993851 
M 388.118143 119.103823 
L 388.579136 138.170574 
L 389.270136 198.355063 
L 389.500633 209.838354 
M 390.880762 267.55509 
L 391.111259 256.906328 
L 391.341755 239.526751 
M 391.805365 192.578566 
L 392.266357 162.701304 
L 392.727058 132.635525 
L 393.417475 129.014519 
L 393.878468 141.544959 
L 394.108967 139.330273 
L 394.338954 154.643751 
M 394.799946 176.193392 
L 395.030443 181.761407 
L 395.030443 181.761407 
" style="fill:none;stroke:#ff0000;stroke-linecap:square;"/>
   </g>
   <g id="line2d_130">
    <path clip-path="url(#p4c1dabd273)" d="M 87.547463 189.013738 
L 88.008454 196.604146 
L 88.238951 200.060951 
L 88.469447 201.714552 
L 88.699953 201.109021 
L 89.391488 188.168603 
L 89.621984 183.357902 
M 90.082548 171.382359 
L 90.543541 159.59949 
L 91.235005 138.823728 
L 91.465503 136.115858 
L 91.697315 136.986837 
L 91.927811 139.504041 
L 92.158308 139.225858 
L 92.849894 144.60156 
L 93.080391 144.221328 
L 93.310887 142.072605 
L 93.541383 142.541288 
L 94.001188 146.179886 
L 94.231685 147.623287 
L 94.462181 147.498186 
L 94.692582 145.326756 
L 95.384073 132.502665 
L 95.846173 132.2224 
L 96.076669 131.708945 
L 96.307166 135.413128 
L 96.769353 155.464435 
L 97.921342 203.596141 
L 98.380897 218.914388 
L 98.841892 223.315817 
L 99.072388 223.09454 
L 99.30257 221.417717 
L 99.533067 220.83766 
L 99.763563 221.321819 
L 99.994059 222.128046 
L 100.225701 225.497204 
L 100.456197 226.301614 
L 100.91719 216.310247 
L 101.378294 205.217099 
L 101.608791 204.098632 
L 101.839287 206.290754 
M 102.299028 213.97765 
L 102.529524 212.442614 
L 102.760021 209.321403 
L 103.220684 194.287385 
L 103.45118 190.936035 
L 103.681679 189.414789 
L 103.912172 188.895667 
L 104.142907 188.066338 
L 104.373404 185.920525 
L 104.6039 185.698252 
L 104.834399 184.024273 
L 105.526542 174.314562 
L 106.218129 157.064555 
L 106.448625 154.551178 
L 107.370239 138.956138 
L 107.600657 139.152377 
L 107.831238 141.083883 
L 108.292231 142.522872 
L 108.52273 143.201299 
L 108.75382 145.652001 
L 108.984316 146.803304 
L 109.214813 146.928095 
L 109.445309 146.480695 
L 109.675335 146.68605 
L 110.366824 145.141144 
L 110.596728 145.81175 
L 111.057905 149.817338 
L 111.288217 149.805974 
L 111.749435 150.132112 
L 111.979932 150.825389 
L 112.903729 155.665224 
L 113.134225 157.018364 
L 113.364722 159.105761 
L 114.286901 170.526022 
L 114.516513 171.894651 
L 114.977506 175.660868 
L 115.208002 176.366046 
L 115.437693 176.21001 
L 115.668189 175.178039 
L 115.898688 175.205494 
L 116.129184 175.940211 
M 116.59066 185.592159 
L 117.051653 203.207239 
L 117.512628 224.505183 
L 117.743124 231.28494 
L 118.433798 239.213683 
L 118.664295 235.30312 
M 119.125694 203.591521 
L 120.047783 154.220243 
L 120.27828 150.535237 
L 120.508779 154.109814 
L 120.739275 159.58298 
M 121.199661 182.376787 
L 121.430157 193.066535 
L 122.121521 200.522825 
L 122.352018 200.135948 
L 122.582514 191.76605 
M 123.504596 151.90603 
L 123.965702 133.997411 
L 124.196199 130.995545 
M 125.350098 192.579325 
L 125.809881 222.749548 
L 126.040378 228.503048 
L 126.501371 214.56921 
M 127.193894 177.341902 
L 127.884764 136.077112 
L 128.115263 127.915574 
L 128.345759 129.974054 
L 128.576012 136.298839 
L 128.806511 145.754334 
M 129.95918 214.896206 
L 130.189676 223.679039 
M 130.649909 227.624259 
L 131.110902 204.380968 
M 132.264196 151.69952 
L 132.725189 137.759345 
L 132.95571 140.708051 
L 133.185404 156.77136 
M 133.876893 177.35792 
L 134.107389 177.934801 
M 134.568052 176.52426 
L 135.029044 172.821849 
M 135.722446 173.971848 
L 135.952941 175.259799 
M 136.415126 178.869016 
L 136.645734 179.46872 
M 137.564735 188.765923 
L 138.025598 200.230766 
L 138.256094 208.885332 
L 138.486591 211.626458 
M 139.409481 150.638401 
L 139.869695 124.406991 
L 140.100203 116.504031 
L 140.330888 113.308317 
L 140.561184 112.863205 
L 141.022248 118.158957 
L 141.252744 124.58623 
L 141.483241 135.12397 
M 141.94548 171.252078 
L 142.406472 201.29799 
M 142.866556 217.653185 
L 143.327549 231.37087 
L 143.788026 232.762536 
L 144.018523 231.273129 
L 144.249019 232.795155 
L 144.479515 232.570116 
M 144.942087 235.384547 
L 145.172583 233.280975 
L 145.63523 215.741023 
M 146.096223 186.141828 
L 146.555731 160.862161 
L 146.786229 154.959788 
L 147.476168 126.561291 
L 147.706664 121.775988 
L 147.93716 120.695719 
L 148.167657 122.31568 
L 148.628508 130.417175 
L 149.089503 144.862961 
M 149.551452 174.583202 
L 149.781948 187.712047 
L 150.012444 194.458585 
L 150.242768 195.433005 
L 150.473264 192.774526 
M 151.625325 182.999106 
L 151.855821 185.117482 
L 152.086591 185.500777 
L 152.317088 184.142958 
L 152.547584 180.889776 
L 152.778083 179.749994 
L 153.00848 177.506418 
L 153.238976 176.669379 
L 153.469473 177.556597 
L 153.699971 175.404511 
L 153.931563 171.089774 
L 154.623054 166.927589 
L 155.084645 173.946567 
L 155.545638 162.22702 
L 155.776135 163.553828 
L 156.23709 171.555398 
L 156.467589 171.773997 
L 156.698085 172.957302 
L 156.92857 171.905861 
L 157.159067 169.655384 
L 157.620062 177.026169 
L 157.851052 175.728452 
L 158.081549 171.821639 
L 158.312045 173.77304 
L 158.542542 178.410007 
L 158.773253 180.681127 
L 159.003749 180.734315 
L 159.234246 179.074361 
L 159.693949 170.631808 
L 159.924444 170.66155 
L 160.154944 169.259075 
L 160.38544 165.598903 
M 160.847048 170.124219 
L 161.30804 177.201873 
L 161.53828 176.527936 
L 162.229769 172.808413 
L 162.460626 169.604677 
L 162.691122 168.036262 
L 162.921619 164.831943 
L 163.612746 177.985795 
L 163.843245 178.03546 
L 164.073741 178.961184 
L 164.303789 178.022616 
L 164.995278 164.224837 
L 165.225619 163.759802 
L 165.456115 159.415008 
L 166.147605 165.738186 
L 166.378656 164.893883 
L 166.609152 165.018025 
L 166.839649 161.509066 
L 167.070145 162.874402 
M 168.221853 157.861149 
L 168.45235 163.29615 
L 168.682848 163.592002 
L 168.913345 162.726938 
L 169.143419 163.16827 
L 169.373915 159.642676 
L 169.60451 158.986123 
L 169.834908 159.403212 
L 170.066395 157.289515 
L 170.296891 156.511812 
L 170.527387 159.104166 
L 171.449663 173.563513 
L 171.68016 172.677962 
L 171.910753 172.834873 
L 172.141249 172.797598 
L 172.371748 170.442583 
L 172.602245 166.583161 
L 172.83297 168.085278 
L 173.063464 172.944051 
L 173.294124 180.301237 
L 173.754955 187.300614 
L 173.985452 185.293403 
L 174.446444 177.780606 
L 174.677168 175.303775 
L 174.907664 175.127839 
L 175.368657 171.969429 
L 175.828846 175.561753 
L 176.059342 173.134126 
L 176.289838 173.575836 
M 176.980686 166.629786 
L 177.210942 166.317538 
L 177.441438 163.664853 
L 177.672593 164.165374 
L 178.133586 171.359083 
L 178.364082 171.53642 
L 178.825829 168.661083 
L 179.056325 165.535199 
L 179.286821 164.6759 
L 179.517657 162.599745 
L 179.978653 161.938009 
L 180.209149 165.341027 
L 180.66941 175.292305 
L 180.899906 174.313175 
L 181.130403 175.256689 
L 181.821328 164.276421 
L 182.051827 164.61547 
L 182.282402 162.406341 
L 182.973893 169.814826 
L 183.204644 167.258025 
L 183.435141 167.153964 
L 183.665637 162.623513 
L 183.896136 161.852452 
M 185.278369 160.523324 
L 185.508865 162.289146 
L 185.739364 161.700103 
L 185.969646 163.802941 
L 186.430638 159.389328 
L 186.661135 158.214674 
L 186.892768 159.270543 
L 187.123267 158.569131 
L 187.353766 158.785082 
L 188.275484 168.56984 
L 188.505981 169.967598 
L 188.736477 169.712214 
L 188.9671 167.921402 
L 189.197597 170.445205 
L 189.428093 169.45935 
L 189.889459 166.452569 
L 190.119956 166.684516 
L 190.350452 166.408955 
L 190.580951 165.88564 
L 190.811441 165.794815 
L 191.041928 163.095141 
L 191.272424 162.364767 
L 191.733535 166.468588 
L 191.964032 165.126398 
L 192.425024 164.763214 
L 192.655391 163.333211 
L 192.885887 163.269692 
L 193.116384 163.463853 
L 193.346883 160.304335 
M 194.03717 161.181449 
L 194.267666 159.049473 
M 194.958346 156.511182 
L 195.188844 156.092549 
L 195.419463 156.042399 
L 195.880455 153.804003 
L 196.110952 155.17642 
M 196.803902 150.954823 
L 197.034401 152.241115 
L 197.265442 159.269013 
L 198.647661 224.632127 
L 198.878158 228.146101 
L 199.108654 223.362908 
L 200.030014 190.712873 
M 200.491636 167.703976 
L 201.183318 141.393797 
L 201.413813 141.12941 
L 201.874809 137.916153 
M 202.56635 129.257638 
L 203.027479 131.560985 
L 203.257975 135.018056 
L 203.488472 140.190503 
L 203.950641 160.717698 
L 204.642133 197.339362 
M 205.10187 216.610329 
L 205.332366 224.516319 
L 205.562862 225.630596 
L 205.792619 223.741525 
L 206.023118 219.559224 
L 206.945932 182.756439 
L 207.406925 150.673735 
L 207.868381 136.376361 
L 208.098878 133.9744 
L 208.329374 133.861592 
L 208.55987 135.394252 
L 209.020934 141.132545 
L 209.251442 148.410785 
L 210.86508 222.410525 
L 211.095576 222.901439 
L 211.326072 219.333659 
L 212.247707 172.753196 
L 212.708498 141.708561 
L 212.938994 139.384319 
L 213.169488 140.726106 
M 214.55123 192.186656 
L 214.781726 199.156871 
L 215.012222 191.239171 
M 215.474018 198.075623 
L 215.935011 205.594891 
L 216.626545 210.085323 
L 216.857041 213.464827 
L 217.087403 213.476049 
L 217.31793 213.355517 
L 217.548396 215.274395 
L 217.778893 218.829937 
L 218.009496 220.043458 
L 218.239992 223.910384 
L 218.470489 223.368161 
L 218.931482 215.170683 
L 219.161971 214.21132 
L 219.392468 211.725912 
L 220.083946 194.708199 
L 220.314443 192.254616 
M 221.236392 212.802695 
L 221.697385 225.748186 
L 222.158353 238.026814 
M 224.69294 180.202115 
L 224.92336 182.917046 
L 225.153856 188.854679 
L 225.384352 188.584356 
L 225.615675 183.796889 
L 225.846171 183.236299 
L 226.076667 187.335704 
L 226.999672 229.818531 
L 227.460717 236.783368 
L 227.691213 237.056954 
L 227.921712 232.844373 
L 228.152208 224.36304 
L 229.304133 156.919237 
L 229.995695 150.057011 
L 230.226194 149.307644 
L 230.686446 154.530662 
L 230.916945 153.356584 
L 231.147441 148.344586 
M 231.840545 151.830387 
L 232.532547 176.850002 
M 235.525717 136.872261 
L 235.756331 142.063303 
M 236.449284 175.950145 
L 237.140606 204.577643 
L 237.601601 225.160418 
L 237.831378 231.930042 
M 240.137 139.026765 
L 240.367496 131.868768 
L 240.597992 129.719885 
L 241.058896 121.725931 
L 241.289395 123.311337 
L 241.750157 131.175686 
L 241.980653 133.530737 
L 243.133729 172.038382 
L 243.364101 178.382217 
L 243.825227 195.165856 
L 244.055724 197.83699 
L 244.28622 195.341023 
L 245.207778 167.2659 
L 245.89943 137.246001 
L 246.360309 132.013713 
L 246.590806 130.831847 
L 246.821427 133.074073 
L 248.204972 191.085623 
L 248.665964 200.090273 
L 249.126704 209.022565 
L 249.3572 207.921995 
L 249.587699 202.520151 
L 249.818195 200.168837 
L 250.049641 195.397408 
L 250.280137 187.568029 
L 250.510756 186.805653 
L 250.74113 188.097293 
L 250.971626 192.167849 
L 251.893231 226.369632 
L 252.123193 226.141339 
L 252.584188 216.030831 
L 253.275782 182.241994 
L 254.19835 129.803578 
L 254.428729 128.614952 
L 254.659226 130.136623 
L 254.889502 134.053245 
L 255.580991 170.178997 
L 256.041799 198.451285 
L 256.502792 222.804222 
M 257.193906 231.04746 
L 257.424402 234.686206 
L 257.88556 224.155338 
L 258.11595 212.384062 
L 258.808234 156.331592 
L 259.269227 137.889109 
M 259.959264 148.585867 
L 260.18976 156.850154 
M 260.652341 184.526924 
L 261.343598 233.167609 
L 261.805872 244.200742 
L 262.036368 244.348653 
L 262.266865 237.119286 
M 262.9564 218.950194 
L 263.186897 209.942209 
M 263.649606 189.931491 
L 264.341194 164.512593 
L 265.032681 156.60067 
M 265.491237 156.645668 
L 265.721733 162.301344 
L 265.952229 164.695117 
L 266.182907 165.269214 
L 266.413403 166.36293 
L 266.6439 169.446828 
L 266.874396 169.417057 
L 267.106515 167.674758 
M 267.567508 169.894777 
L 267.798004 168.52962 
M 269.178648 174.997305 
L 269.409144 179.314562 
L 269.871879 195.817806 
L 270.102376 198.802559 
L 270.332872 196.345164 
M 270.793923 186.014719 
L 271.024419 184.395544 
L 271.254915 185.227751 
L 271.485414 184.281776 
M 272.175048 184.960537 
L 272.405544 187.221244 
L 273.098641 207.981709 
L 273.559634 222.660946 
L 273.792071 226.645853 
L 274.022567 227.869519 
L 274.253063 228.307071 
L 274.483562 228.046627 
M 274.942161 218.314504 
L 275.403154 181.414113 
L 275.864979 143.254307 
L 276.556802 116.363115 
L 277.017794 103.699697 
L 277.248291 99.948892 
L 277.478547 105.066439 
L 277.709043 113.239002 
L 278.170038 145.169834 
L 278.399669 166.293498 
M 278.860662 212.046852 
L 279.320526 250.910792 
L 279.551024 266.136103 
L 279.781519 273.140668 
L 280.24313 268.106377 
L 280.473627 259.66658 
L 280.934619 228.207508 
L 282.31901 106.246817 
L 282.780001 90.715616 
L 283.010497 88.103289 
M 283.469406 83.331648 
L 283.699912 82.446594 
L 283.930399 88.497211 
L 284.162426 98.948734 
L 284.853915 161.718185 
L 285.085001 181.636031 
M 286.23566 243.382906 
L 286.466155 245.191997 
L 286.926649 235.080058 
L 287.157146 233.359841 
L 287.387645 234.545857 
L 287.618141 239.809929 
M 288.08017 237.53411 
L 288.541163 223.410545 
L 288.772282 221.797027 
L 289.002781 221.086678 
L 289.233278 224.432442 
L 289.463774 232.783965 
M 289.922996 246.32815 
L 290.615113 278.118715 
M 291.076108 268.230705 
L 291.306605 248.587269 
M 292.000022 180.508275 
L 292.230519 161.896149 
M 294.07175 96.324531 
L 294.302246 98.736507 
M 294.764345 115.200779 
L 295.225338 148.82893 
L 295.917647 203.56468 
L 296.377525 231.037384 
L 296.608023 239.577806 
L 297.069016 247.004415 
M 298.682781 244.0132 
L 298.913277 233.221134 
M 299.606527 184.670171 
L 300.067298 154.573679 
M 303.29422 59.599231 
L 303.755213 84.697809 
L 305.13782 171.12443 
L 305.828138 205.502431 
L 306.519627 229.491072 
L 306.980649 238.677581 
L 307.441641 251.874229 
M 307.902035 254.871592 
L 308.132531 255.272524 
L 308.36303 263.200234 
M 309.055799 261.915596 
L 309.286293 260.243134 
M 309.979256 226.08056 
L 312.051672 102.684179 
L 312.512399 84.570455 
L 312.742895 80.457845 
L 312.973392 84.697342 
L 313.435533 114.566239 
L 315.04947 259.728376 
L 315.278508 263.533772 
L 315.509004 259.826726 
L 315.969999 238.628185 
L 316.430801 208.738527 
M 316.891796 192.721327 
L 317.353146 185.906073 
L 317.583643 185.09381 
L 317.814139 183.600039 
L 318.044115 180.891021 
L 318.274612 174.311577 
L 319.196136 131.561491 
L 319.426634 126.449684 
L 319.657131 128.905045 
M 320.349716 151.808121 
L 320.810495 169.273276 
L 321.040882 168.84476 
L 321.271378 159.074036 
L 321.501875 144.567353 
M 321.963516 129.97979 
L 322.194015 137.865479 
L 322.885506 192.320455 
L 323.80723 289.259328 
L 324.037723 295.488 
L 324.268223 287.940365 
L 324.72941 244.234816 
L 326.112575 104.86234 
L 326.57352 85.812597 
L 326.804017 87.559876 
L 327.034515 96.951497 
L 327.49542 143.380978 
M 327.956415 197.331022 
L 328.647672 261.918217 
L 328.878169 273.531425 
L 329.108665 272.436786 
L 329.570067 238.964721 
L 330.722973 121.101625 
L 331.18363 70.969821 
L 331.414126 59.456771 
L 331.644625 64.05823 
L 332.105824 102.24261 
L 333.026991 200.816284 
L 333.949118 279.573957 
L 334.179614 284.177193 
L 334.410111 278.417043 
L 334.871494 238.618165 
L 335.793479 147.665303 
L 336.484618 96.028777 
L 336.715114 87.206549 
L 336.945403 84.978757 
L 337.175901 91.727017 
L 337.406397 105.659746 
L 338.328786 188.671406 
M 339.250132 197.811845 
L 339.480628 198.711017 
L 339.940827 201.12647 
L 340.171323 199.529463 
L 340.401819 195.414103 
L 341.324397 172.870505 
M 342.019245 172.43672 
L 342.249741 175.789462 
M 342.938095 174.403577 
L 343.168591 171.059505 
M 343.860875 156.442305 
L 344.782703 214.529032 
L 345.013199 208.972038 
L 345.243204 190.432415 
M 345.934693 150.311877 
L 346.16519 145.306862 
L 346.395832 156.56906 
M 346.856825 197.876868 
L 347.317898 229.96813 
L 347.548394 233.67241 
L 347.778891 230.196771 
L 348.239844 213.186013 
L 348.47034 199.447936 
M 348.931332 160.855679 
L 349.853494 73.397075 
L 350.083627 67.849108 
L 350.314123 70.230449 
L 350.544792 80.815263 
L 350.775116 98.807021 
M 351.235885 137.694685 
L 351.466381 149.642848 
L 351.696878 152.512881 
M 353.310527 101.850611 
L 353.771653 93.396236 
L 354.232727 81.15194 
L 354.463143 78.726391 
L 354.692971 82.32556 
L 355.153964 95.449969 
L 355.845848 122.073885 
L 356.076344 126.796017 
L 356.537698 130.272504 
L 356.768196 130.904315 
L 357.229189 135.465439 
L 357.459685 136.035537 
M 358.150833 122.585636 
L 358.842207 100.515941 
L 359.303201 93.241964 
L 359.534065 94.431668 
L 360.225557 115.222257 
L 360.686178 133.8899 
L 360.916674 139.480466 
L 361.147171 140.074659 
L 361.377966 139.204491 
L 362.300159 123.1874 
L 362.761151 110.64189 
L 362.99165 108.319167 
L 363.221741 107.661773 
L 363.452238 103.865439 
L 364.373844 77.156622 
M 365.757203 134.398 
L 365.987997 143.629413 
L 366.218493 146.49222 
L 366.44899 143.735038 
L 366.679488 136.141514 
L 367.141117 111.604547 
L 367.371614 104.036364 
L 367.602113 100.24384 
L 367.832608 98.724866 
L 368.062495 97.957192 
L 368.292989 102.000042 
L 368.523488 111.328841 
L 368.98473 143.883344 
L 369.90686 225.820695 
L 370.137356 236.169468 
M 371.05817 262.065684 
L 371.288669 257.485762 
L 371.519163 247.838067 
M 371.980904 214.073433 
L 372.2114 199.826621 
M 373.134761 125.390634 
L 373.365258 114.782446 
M 374.054739 124.2941 
L 374.517473 144.753124 
L 375.208962 175.852956 
L 375.670536 192.829525 
L 375.901033 191.679814 
L 376.131529 188.107602 
L 376.360899 182.590059 
M 377.513172 164.238081 
L 378.434847 141.69813 
L 378.895842 138.982178 
L 379.587056 134.311976 
L 379.817552 131.841868 
L 380.048048 131.543077 
L 380.278643 132.71927 
L 380.509054 134.758356 
L 380.739551 137.945815 
L 380.970047 145.055169 
L 381.431461 170.640644 
L 381.892453 196.483926 
L 382.583793 219.33749 
L 382.814291 225.5932 
M 383.505022 224.117672 
L 383.735518 217.069144 
M 384.428503 183.949931 
L 385.581167 141.008395 
L 385.810588 136.630037 
M 386.271583 127.337912 
L 386.50208 123.131798 
M 387.194437 110.050804 
L 387.424933 108.286051 
M 388.118143 118.191457 
L 388.579136 137.51487 
L 389.500633 217.174933 
M 390.880762 271.99073 
L 391.341755 237.081596 
M 391.805365 196.442126 
L 392.266357 159.838832 
L 392.727058 134.485325 
L 392.957555 132.317779 
L 393.188051 132.392559 
L 393.417475 133.349539 
L 393.878468 139.439223 
L 394.108967 145.055632 
L 394.338954 153.462187 
M 394.799946 175.678915 
L 395.030443 181.706382 
L 395.030443 181.706382 
" style="fill:none;stroke:#0000ff;stroke-linecap:square;"/>
   </g>
   <g id="line2d_131">
    <path clip-path="url(#p4c1dabd273)" d="M 74.17847 175.866354 
L 74.408967 174.338987 
L 74.639463 176.906179 
L 74.870062 177.211824 
L 75.100558 178.15538 
L 75.331057 177.117483 
L 75.561554 177.408961 
L 75.792072 178.201558 
L 76.022568 177.820862 
L 76.253065 177.838443 
L 76.483561 177.726933 
L 76.714063 177.808735 
L 76.944559 178.089618 
L 77.175056 177.777804 
L 77.866575 176.147348 
L 78.327568 176.831018 
L 79.019038 176.58946 
L 79.249534 176.667888 
L 79.480061 176.408252 
L 79.710557 176.353583 
L 79.941053 175.821266 
L 80.17155 176.132153 
L 80.402067 177.439221 
L 80.632563 177.199245 
L 80.863059 176.481648 
L 81.093563 176.749788 
L 81.324052 176.731178 
L 81.785122 177.160123 
L 82.015618 177.202433 
L 82.476586 176.689103 
L 82.707085 176.627148 
L 83.168077 176.271959 
L 83.398527 176.486551 
L 83.85952 177.339904 
L 84.320501 177.831479 
L 84.781494 178.538452 
L 85.011991 178.42916 
L 85.242497 178.879054 
L 85.473106 178.427085 
L 85.70349 178.525219 
L 86.164473 179.386859 
L 86.625469 180.567465 
L 86.855965 181.980785 
L 87.316966 186.527125 
M 122.813104 180.145462 
L 123.274099 164.242099 
M 124.426698 134.571603 
L 124.657194 140.563996 
L 125.119602 173.932551 
M 126.732899 203.797481 
L 126.963398 190.479085 
M 129.037016 158.486936 
L 129.728684 202.869146 
M 131.342392 194.152462 
L 131.57289 188.169595 
M 133.4159 169.963196 
L 133.646396 175.472552 
M 135.261452 173.05609 
L 135.49195 173.389891 
M 136.876119 180.15364 
L 137.103742 180.500982 
L 137.334238 183.933569 
M 138.717087 202.928523 
L 139.178981 168.93576 
M 150.70376 190.100837 
L 151.164332 183.417331 
L 151.394829 183.638001 
M 176.519453 170.307079 
L 176.749949 168.141689 
M 193.576174 159.121472 
L 193.806671 160.014468 
M 194.497353 156.983985 
L 194.727849 155.051314 
M 196.342909 157.460347 
L 196.573406 156.149773 
M 213.398439 143.473752 
L 213.628935 153.831701 
M 214.089928 169.705421 
L 214.320733 178.794011 
M 220.544941 187.500229 
L 220.775438 190.990901 
L 221.005941 201.355468 
M 231.379551 145.865389 
L 231.610049 147.672241 
M 233.221291 213.430968 
L 233.451787 215.417904 
L 233.912782 195.897583 
L 234.603526 154.159255 
M 235.064724 138.048998 
L 235.295224 137.174544 
M 235.988291 152.697813 
L 236.218787 164.108892 
M 238.061874 234.451271 
L 238.29237 229.427423 
L 238.753277 206.142674 
L 239.675032 157.116227 
L 239.906504 146.574207 
M 256.732913 227.226766 
L 256.963409 228.720517 
M 259.498269 137.548152 
L 259.728767 141.849292 
M 262.495408 231.916908 
L 262.725904 226.777535 
M 268.026382 168.891883 
L 268.256877 173.88467 
M 268.717869 177.149212 
L 268.9482 176.293532 
M 271.714052 184.00335 
L 271.944551 184.427732 
M 285.776493 229.608129 
L 286.005162 237.778652 
M 291.539029 224.617253 
L 291.769526 200.734784 
M 292.459874 144.885624 
L 292.920868 110.350815 
L 293.151365 101.176726 
L 293.381861 96.43563 
L 293.61076 94.783307 
L 293.841253 95.10964 
M 297.298761 249.105356 
L 297.529258 245.794722 
L 297.759752 246.259295 
L 298.221785 251.035712 
L 298.452285 250.805207 
M 299.145534 219.147091 
L 299.376031 202.978582 
M 308.594806 268.288715 
L 308.825303 265.305382 
M 309.518263 250.429849 
L 309.74876 237.458694 
M 319.888721 133.491083 
L 320.119219 142.143432 
M 338.55928 195.524074 
L 338.789137 198.226873 
L 339.019638 197.86033 
M 341.55825 171.391643 
L 341.788748 170.653152 
M 342.4771 178.23199 
L 342.707599 176.415197 
M 343.399882 166.145322 
L 343.630379 157.618569 
M 345.473701 175.383788 
L 345.704197 162.056609 
M 352.618818 114.136632 
L 352.849532 107.681631 
L 353.08003 104.494003 
M 357.689841 134.0612 
L 357.920337 130.129869 
M 365.065714 95.291965 
L 365.526707 121.551244 
M 373.593744 113.848534 
L 373.82424 115.995051 
M 376.591586 177.827367 
L 377.052388 165.726286 
L 377.282676 164.661077 
M 383.044029 227.885419 
L 383.274526 228.003307 
M 383.96751 206.161559 
L 384.198006 193.991074 
M 386.733444 117.384113 
L 386.96394 111.8489 
M 387.65715 108.406067 
L 387.887647 112.666965 
M 389.728634 234.53395 
L 390.189627 265.910796 
L 390.420125 278.015669 
L 390.650266 281.368544 
M 395.260791 185.12215 
L 395.491287 185.114736 
L 395.721783 184.195741 
L 396.643311 176.751289 
L 396.873807 176.299949 
L 397.104379 175.083204 
L 397.334878 175.26079 
L 397.565374 174.842594 
L 397.79587 175.067748 
L 398.02628 175.701041 
L 398.256776 175.778438 
L 398.487273 176.494104 
L 73.832727 176.810813 
L 74.063221 176.298303 
L 74.293718 174.863955 
L 74.524317 175.462648 
L 74.754815 177.314371 
L 74.985311 177.660327 
L 75.215808 177.600949 
L 75.446304 177.229475 
L 75.446304 177.229475 
" style="fill:none;stroke:#008000;stroke-linecap:square;"/>
   </g>
   <g id="patch_3">
    <path d="M 57.6 307.584 
L 57.6 41.472 
" style="fill:none;stroke:#000000;stroke-linecap:square;stroke-linejoin:miter;stroke-width:0.8;"/>
   </g>
   <g id="patch_4">
    <path d="M 414.72 307.584 
L 414.72 41.472 
" style="fill:none;stroke:#000000;stroke-linecap:square;stroke-linejoin:miter;stroke-width:0.8;"/>
   </g>
   <g id="patch_5">
    <path d="M 57.6 307.584 
L 414.72 307.584 
" style="fill:none;stroke:#000000;stroke-linecap:square;stroke-linejoin:miter;stroke-width:0.8;"/>
   </g>
   <g id="patch_6">
    <path d="M 57.6 41.472 
L 414.72 41.472 
" style="fill:none;stroke:#000000;stroke-linecap:square;stroke-linejoin:miter;stroke-width:0.8;"/>
   </g>
   <g id="text_16">
    <!-- Rel Gt Trans X Plot -->
    <defs>
     <path d="M 44.390625 34.1875 
Q 47.5625 33.109375 50.5625 29.59375 
Q 53.5625 26.078125 56.59375 19.921875 
L 66.609375 0 
L 56 0 
L 46.6875 18.703125 
Q 43.0625 26.03125 39.671875 28.421875 
Q 36.28125 30.8125 30.421875 30.8125 
L 19.671875 30.8125 
L 19.671875 0 
L 9.8125 0 
L 9.8125 72.90625 
L 32.078125 72.90625 
Q 44.578125 72.90625 50.734375 67.671875 
Q 56.890625 62.453125 56.890625 51.90625 
Q 56.890625 45.015625 53.6875 40.46875 
Q 50.484375 35.9375 44.390625 34.1875 
z
M 19.671875 64.796875 
L 19.671875 38.921875 
L 32.078125 38.921875 
Q 39.203125 38.921875 42.84375 42.21875 
Q 46.484375 45.515625 46.484375 51.90625 
Q 46.484375 58.296875 42.84375 61.546875 
Q 39.203125 64.796875 32.078125 64.796875 
z
" id="DejaVuSans-52"/>
     <path d="M 9.421875 75.984375 
L 18.40625 75.984375 
L 18.40625 0 
L 9.421875 0 
z
" id="DejaVuSans-6c"/>
     <path d="M 59.515625 10.40625 
L 59.515625 29.984375 
L 43.40625 29.984375 
L 43.40625 38.09375 
L 69.28125 38.09375 
L 69.28125 6.78125 
Q 63.578125 2.734375 56.6875 0.65625 
Q 49.8125 -1.421875 42 -1.421875 
Q 24.90625 -1.421875 15.25 8.5625 
Q 5.609375 18.5625 5.609375 36.375 
Q 5.609375 54.25 15.25 64.234375 
Q 24.90625 74.21875 42 74.21875 
Q 49.125 74.21875 55.546875 72.453125 
Q 61.96875 70.703125 67.390625 67.28125 
L 67.390625 56.78125 
Q 61.921875 61.421875 55.765625 63.765625 
Q 49.609375 66.109375 42.828125 66.109375 
Q 29.4375 66.109375 22.71875 58.640625 
Q 16.015625 51.171875 16.015625 36.375 
Q 16.015625 21.625 22.71875 14.15625 
Q 29.4375 6.6875 42.828125 6.6875 
Q 48.046875 6.6875 52.140625 7.59375 
Q 56.25 8.5 59.515625 10.40625 
z
" id="DejaVuSans-47"/>
     <path d="M -0.296875 72.90625 
L 61.375 72.90625 
L 61.375 64.59375 
L 35.5 64.59375 
L 35.5 0 
L 25.59375 0 
L 25.59375 64.59375 
L -0.296875 64.59375 
z
" id="DejaVuSans-54"/>
     <path d="M 6.296875 72.90625 
L 16.890625 72.90625 
L 35.015625 45.796875 
L 53.21875 72.90625 
L 63.8125 72.90625 
L 40.375 37.890625 
L 65.375 0 
L 54.78125 0 
L 34.28125 31 
L 13.625 0 
L 2.984375 0 
L 29 38.921875 
z
" id="DejaVuSans-58"/>
     <path d="M 19.671875 64.796875 
L 19.671875 37.40625 
L 32.078125 37.40625 
Q 38.96875 37.40625 42.71875 40.96875 
Q 46.484375 44.53125 46.484375 51.125 
Q 46.484375 57.671875 42.71875 61.234375 
Q 38.96875 64.796875 32.078125 64.796875 
z
M 9.8125 72.90625 
L 32.078125 72.90625 
Q 44.34375 72.90625 50.609375 67.359375 
Q 56.890625 61.8125 56.890625 51.125 
Q 56.890625 40.328125 50.609375 34.8125 
Q 44.34375 29.296875 32.078125 29.296875 
L 19.671875 29.296875 
L 19.671875 0 
L 9.8125 0 
z
" id="DejaVuSans-50"/>
     <path d="M 30.609375 48.390625 
Q 23.390625 48.390625 19.1875 42.75 
Q 14.984375 37.109375 14.984375 27.296875 
Q 14.984375 17.484375 19.15625 11.84375 
Q 23.34375 6.203125 30.609375 6.203125 
Q 37.796875 6.203125 41.984375 11.859375 
Q 46.1875 17.53125 46.1875 27.296875 
Q 46.1875 37.015625 41.984375 42.703125 
Q 37.796875 48.390625 30.609375 48.390625 
z
M 30.609375 56 
Q 42.328125 56 49.015625 48.375 
Q 55.71875 40.765625 55.71875 27.296875 
Q 55.71875 13.875 49.015625 6.21875 
Q 42.328125 -1.421875 30.609375 -1.421875 
Q 18.84375 -1.421875 12.171875 6.21875 
Q 5.515625 13.875 5.515625 27.296875 
Q 5.515625 40.765625 12.171875 48.375 
Q 18.84375 56 30.609375 56 
z
" id="DejaVuSans-6f"/>
    </defs>
    <g transform="translate(179.865938 35.472)scale(0.12 -0.12)">
     <use xlink:href="#DejaVuSans-52"/>
     <use x="69.419922" xlink:href="#DejaVuSans-65"/>
     <use x="130.943359" xlink:href="#DejaVuSans-6c"/>
     <use x="158.726562" xlink:href="#DejaVuSans-20"/>
     <use x="190.513672" xlink:href="#DejaVuSans-47"/>
     <use x="268.003906" xlink:href="#DejaVuSans-74"/>
     <use x="307.212891" xlink:href="#DejaVuSans-20"/>
     <use x="339" xlink:href="#DejaVuSans-54"/>
     <use x="399.865234" xlink:href="#DejaVuSans-72"/>
     <use x="440.978516" xlink:href="#DejaVuSans-61"/>
     <use x="502.257812" xlink:href="#DejaVuSans-6e"/>
     <use x="565.636719" xlink:href="#DejaVuSans-73"/>
     <use x="617.736328" xlink:href="#DejaVuSans-20"/>
     <use x="649.523438" xlink:href="#DejaVuSans-58"/>
     <use x="718.029297" xlink:href="#DejaVuSans-20"/>
     <use x="749.816406" xlink:href="#DejaVuSans-50"/>
     <use x="810.119141" xlink:href="#DejaVuSans-6c"/>
     <use x="837.902344" xlink:href="#DejaVuSans-6f"/>
     <use x="899.083984" xlink:href="#DejaVuSans-74"/>
    </g>
   </g>
  </g>
 </g>
 <defs>
  <clipPath id="p4c1dabd273">
   <rect height="266.112" width="357.12" x="57.6" y="41.472"/>
  </clipPath>
 </defs>
</svg>
