<?xml version="1.0" encoding="utf-8" standalone="no"?>
<!DOCTYPE svg PUBLIC "-//W3C//DTD SVG 1.1//EN"
  "http://www.w3.org/Graphics/SVG/1.1/DTD/svg11.dtd">
<!-- Created with matplotlib (http://matplotlib.org/) -->
<svg height="345.6pt" version="1.1" viewBox="0 0 460.8 345.6" width="460.8pt" xmlns="http://www.w3.org/2000/svg" xmlns:xlink="http://www.w3.org/1999/xlink">
 <defs>
  <style type="text/css">
*{stroke-linecap:butt;stroke-linejoin:round;}
  </style>
 </defs>
 <g id="figure_1">
  <g id="patch_1">
   <path d="M 0 345.6 
L 460.8 345.6 
L 460.8 0 
L 0 0 
z
" style="fill:#ffffff;"/>
  </g>
  <g id="axes_1">
   <g id="patch_2">
    <path d="M 57.6 307.584 
L 414.72 307.584 
L 414.72 41.472 
L 57.6 41.472 
z
" style="fill:#ffffff;"/>
   </g>
   <g id="matplotlib.axis_1">
    <g id="xtick_1">
     <g id="line2d_1">
      <path clip-path="url(#pb0d802f2f8)" d="M 69.69601 307.584 
L 69.69601 41.472 
" style="fill:none;stroke:#b0b0b0;stroke-linecap:square;stroke-width:0.8;"/>
     </g>
     <g id="line2d_2">
      <defs>
       <path d="M 0 0 
L 0 3.5 
" id="maa8d6edabe" style="stroke:#000000;stroke-width:0.8;"/>
      </defs>
      <g>
       <use style="stroke:#000000;stroke-width:0.8;" x="69.69601" xlink:href="#maa8d6edabe" y="307.584"/>
      </g>
     </g>
     <g id="text_1">
      <!-- 99540 -->
      <defs>
       <path d="M 10.984375 1.515625 
L 10.984375 10.5 
Q 14.703125 8.734375 18.5 7.8125 
Q 22.3125 6.890625 25.984375 6.890625 
Q 35.75 6.890625 40.890625 13.453125 
Q 46.046875 20.015625 46.78125 33.40625 
Q 43.953125 29.203125 39.59375 26.953125 
Q 35.25 24.703125 29.984375 24.703125 
Q 19.046875 24.703125 12.671875 31.3125 
Q 6.296875 37.9375 6.296875 49.421875 
Q 6.296875 60.640625 12.9375 67.421875 
Q 19.578125 74.21875 30.609375 74.21875 
Q 43.265625 74.21875 49.921875 64.515625 
Q 56.59375 54.828125 56.59375 36.375 
Q 56.59375 19.140625 48.40625 8.859375 
Q 40.234375 -1.421875 26.421875 -1.421875 
Q 22.703125 -1.421875 18.890625 -0.6875 
Q 15.09375 0.046875 10.984375 1.515625 
z
M 30.609375 32.421875 
Q 37.25 32.421875 41.125 36.953125 
Q 45.015625 41.5 45.015625 49.421875 
Q 45.015625 57.28125 41.125 61.84375 
Q 37.25 66.40625 30.609375 66.40625 
Q 23.96875 66.40625 20.09375 61.84375 
Q 16.21875 57.28125 16.21875 49.421875 
Q 16.21875 41.5 20.09375 36.953125 
Q 23.96875 32.421875 30.609375 32.421875 
z
" id="DejaVuSans-39"/>
       <path d="M 10.796875 72.90625 
L 49.515625 72.90625 
L 49.515625 64.59375 
L 19.828125 64.59375 
L 19.828125 46.734375 
Q 21.96875 47.46875 24.109375 47.828125 
Q 26.265625 48.1875 28.421875 48.1875 
Q 40.625 48.1875 47.75 41.5 
Q 54.890625 34.8125 54.890625 23.390625 
Q 54.890625 11.625 47.5625 5.09375 
Q 40.234375 -1.421875 26.90625 -1.421875 
Q 22.3125 -1.421875 17.546875 -0.640625 
Q 12.796875 0.140625 7.71875 1.703125 
L 7.71875 11.625 
Q 12.109375 9.234375 16.796875 8.0625 
Q 21.484375 6.890625 26.703125 6.890625 
Q 35.15625 6.890625 40.078125 11.328125 
Q 45.015625 15.765625 45.015625 23.390625 
Q 45.015625 31 40.078125 35.4375 
Q 35.15625 39.890625 26.703125 39.890625 
Q 22.75 39.890625 18.8125 39.015625 
Q 14.890625 38.140625 10.796875 36.28125 
z
" id="DejaVuSans-35"/>
       <path d="M 37.796875 64.3125 
L 12.890625 25.390625 
L 37.796875 25.390625 
z
M 35.203125 72.90625 
L 47.609375 72.90625 
L 47.609375 25.390625 
L 58.015625 25.390625 
L 58.015625 17.1875 
L 47.609375 17.1875 
L 47.609375 0 
L 37.796875 0 
L 37.796875 17.1875 
L 4.890625 17.1875 
L 4.890625 26.703125 
z
" id="DejaVuSans-34"/>
       <path d="M 31.78125 66.40625 
Q 24.171875 66.40625 20.328125 58.90625 
Q 16.5 51.421875 16.5 36.375 
Q 16.5 21.390625 20.328125 13.890625 
Q 24.171875 6.390625 31.78125 6.390625 
Q 39.453125 6.390625 43.28125 13.890625 
Q 47.125 21.390625 47.125 36.375 
Q 47.125 51.421875 43.28125 58.90625 
Q 39.453125 66.40625 31.78125 66.40625 
z
M 31.78125 74.21875 
Q 44.046875 74.21875 50.515625 64.515625 
Q 56.984375 54.828125 56.984375 36.375 
Q 56.984375 17.96875 50.515625 8.265625 
Q 44.046875 -1.421875 31.78125 -1.421875 
Q 19.53125 -1.421875 13.0625 8.265625 
Q 6.59375 17.96875 6.59375 36.375 
Q 6.59375 54.828125 13.0625 64.515625 
Q 19.53125 74.21875 31.78125 74.21875 
z
" id="DejaVuSans-30"/>
      </defs>
      <g transform="translate(53.78976 322.182437)scale(0.1 -0.1)">
       <use xlink:href="#DejaVuSans-39"/>
       <use x="63.623047" xlink:href="#DejaVuSans-39"/>
       <use x="127.246094" xlink:href="#DejaVuSans-35"/>
       <use x="190.869141" xlink:href="#DejaVuSans-34"/>
       <use x="254.492188" xlink:href="#DejaVuSans-30"/>
      </g>
     </g>
    </g>
    <g id="xtick_2">
     <g id="line2d_3">
      <path clip-path="url(#pb0d802f2f8)" d="M 115.793899 307.584 
L 115.793899 41.472 
" style="fill:none;stroke:#b0b0b0;stroke-linecap:square;stroke-width:0.8;"/>
     </g>
     <g id="line2d_4">
      <g>
       <use style="stroke:#000000;stroke-width:0.8;" x="115.793899" xlink:href="#maa8d6edabe" y="307.584"/>
      </g>
     </g>
     <g id="text_2">
      <!-- 99560 -->
      <defs>
       <path d="M 33.015625 40.375 
Q 26.375 40.375 22.484375 35.828125 
Q 18.609375 31.296875 18.609375 23.390625 
Q 18.609375 15.53125 22.484375 10.953125 
Q 26.375 6.390625 33.015625 6.390625 
Q 39.65625 6.390625 43.53125 10.953125 
Q 47.40625 15.53125 47.40625 23.390625 
Q 47.40625 31.296875 43.53125 35.828125 
Q 39.65625 40.375 33.015625 40.375 
z
M 52.59375 71.296875 
L 52.59375 62.3125 
Q 48.875 64.0625 45.09375 64.984375 
Q 41.3125 65.921875 37.59375 65.921875 
Q 27.828125 65.921875 22.671875 59.328125 
Q 17.53125 52.734375 16.796875 39.40625 
Q 19.671875 43.65625 24.015625 45.921875 
Q 28.375 48.1875 33.59375 48.1875 
Q 44.578125 48.1875 50.953125 41.515625 
Q 57.328125 34.859375 57.328125 23.390625 
Q 57.328125 12.15625 50.6875 5.359375 
Q 44.046875 -1.421875 33.015625 -1.421875 
Q 20.359375 -1.421875 13.671875 8.265625 
Q 6.984375 17.96875 6.984375 36.375 
Q 6.984375 53.65625 15.1875 63.9375 
Q 23.390625 74.21875 37.203125 74.21875 
Q 40.921875 74.21875 44.703125 73.484375 
Q 48.484375 72.75 52.59375 71.296875 
z
" id="DejaVuSans-36"/>
      </defs>
      <g transform="translate(99.887649 322.182437)scale(0.1 -0.1)">
       <use xlink:href="#DejaVuSans-39"/>
       <use x="63.623047" xlink:href="#DejaVuSans-39"/>
       <use x="127.246094" xlink:href="#DejaVuSans-35"/>
       <use x="190.869141" xlink:href="#DejaVuSans-36"/>
       <use x="254.492188" xlink:href="#DejaVuSans-30"/>
      </g>
     </g>
    </g>
    <g id="xtick_3">
     <g id="line2d_5">
      <path clip-path="url(#pb0d802f2f8)" d="M 161.891788 307.584 
L 161.891788 41.472 
" style="fill:none;stroke:#b0b0b0;stroke-linecap:square;stroke-width:0.8;"/>
     </g>
     <g id="line2d_6">
      <g>
       <use style="stroke:#000000;stroke-width:0.8;" x="161.891788" xlink:href="#maa8d6edabe" y="307.584"/>
      </g>
     </g>
     <g id="text_3">
      <!-- 99580 -->
      <defs>
       <path d="M 31.78125 34.625 
Q 24.75 34.625 20.71875 30.859375 
Q 16.703125 27.09375 16.703125 20.515625 
Q 16.703125 13.921875 20.71875 10.15625 
Q 24.75 6.390625 31.78125 6.390625 
Q 38.8125 6.390625 42.859375 10.171875 
Q 46.921875 13.96875 46.921875 20.515625 
Q 46.921875 27.09375 42.890625 30.859375 
Q 38.875 34.625 31.78125 34.625 
z
M 21.921875 38.8125 
Q 15.578125 40.375 12.03125 44.71875 
Q 8.5 49.078125 8.5 55.328125 
Q 8.5 64.0625 14.71875 69.140625 
Q 20.953125 74.21875 31.78125 74.21875 
Q 42.671875 74.21875 48.875 69.140625 
Q 55.078125 64.0625 55.078125 55.328125 
Q 55.078125 49.078125 51.53125 44.71875 
Q 48 40.375 41.703125 38.8125 
Q 48.828125 37.15625 52.796875 32.3125 
Q 56.78125 27.484375 56.78125 20.515625 
Q 56.78125 9.90625 50.3125 4.234375 
Q 43.84375 -1.421875 31.78125 -1.421875 
Q 19.734375 -1.421875 13.25 4.234375 
Q 6.78125 9.90625 6.78125 20.515625 
Q 6.78125 27.484375 10.78125 32.3125 
Q 14.796875 37.15625 21.921875 38.8125 
z
M 18.3125 54.390625 
Q 18.3125 48.734375 21.84375 45.5625 
Q 25.390625 42.390625 31.78125 42.390625 
Q 38.140625 42.390625 41.71875 45.5625 
Q 45.3125 48.734375 45.3125 54.390625 
Q 45.3125 60.0625 41.71875 63.234375 
Q 38.140625 66.40625 31.78125 66.40625 
Q 25.390625 66.40625 21.84375 63.234375 
Q 18.3125 60.0625 18.3125 54.390625 
z
" id="DejaVuSans-38"/>
      </defs>
      <g transform="translate(145.985538 322.182437)scale(0.1 -0.1)">
       <use xlink:href="#DejaVuSans-39"/>
       <use x="63.623047" xlink:href="#DejaVuSans-39"/>
       <use x="127.246094" xlink:href="#DejaVuSans-35"/>
       <use x="190.869141" xlink:href="#DejaVuSans-38"/>
       <use x="254.492188" xlink:href="#DejaVuSans-30"/>
      </g>
     </g>
    </g>
    <g id="xtick_4">
     <g id="line2d_7">
      <path clip-path="url(#pb0d802f2f8)" d="M 207.989677 307.584 
L 207.989677 41.472 
" style="fill:none;stroke:#b0b0b0;stroke-linecap:square;stroke-width:0.8;"/>
     </g>
     <g id="line2d_8">
      <g>
       <use style="stroke:#000000;stroke-width:0.8;" x="207.989677" xlink:href="#maa8d6edabe" y="307.584"/>
      </g>
     </g>
     <g id="text_4">
      <!-- 99600 -->
      <g transform="translate(192.083427 322.182437)scale(0.1 -0.1)">
       <use xlink:href="#DejaVuSans-39"/>
       <use x="63.623047" xlink:href="#DejaVuSans-39"/>
       <use x="127.246094" xlink:href="#DejaVuSans-36"/>
       <use x="190.869141" xlink:href="#DejaVuSans-30"/>
       <use x="254.492188" xlink:href="#DejaVuSans-30"/>
      </g>
     </g>
    </g>
    <g id="xtick_5">
     <g id="line2d_9">
      <path clip-path="url(#pb0d802f2f8)" d="M 254.087566 307.584 
L 254.087566 41.472 
" style="fill:none;stroke:#b0b0b0;stroke-linecap:square;stroke-width:0.8;"/>
     </g>
     <g id="line2d_10">
      <g>
       <use style="stroke:#000000;stroke-width:0.8;" x="254.087566" xlink:href="#maa8d6edabe" y="307.584"/>
      </g>
     </g>
     <g id="text_5">
      <!-- 99620 -->
      <defs>
       <path d="M 19.1875 8.296875 
L 53.609375 8.296875 
L 53.609375 0 
L 7.328125 0 
L 7.328125 8.296875 
Q 12.9375 14.109375 22.625 23.890625 
Q 32.328125 33.6875 34.8125 36.53125 
Q 39.546875 41.84375 41.421875 45.53125 
Q 43.3125 49.21875 43.3125 52.78125 
Q 43.3125 58.59375 39.234375 62.25 
Q 35.15625 65.921875 28.609375 65.921875 
Q 23.96875 65.921875 18.8125 64.3125 
Q 13.671875 62.703125 7.8125 59.421875 
L 7.8125 69.390625 
Q 13.765625 71.78125 18.9375 73 
Q 24.125 74.21875 28.421875 74.21875 
Q 39.75 74.21875 46.484375 68.546875 
Q 53.21875 62.890625 53.21875 53.421875 
Q 53.21875 48.921875 51.53125 44.890625 
Q 49.859375 40.875 45.40625 35.40625 
Q 44.1875 33.984375 37.640625 27.21875 
Q 31.109375 20.453125 19.1875 8.296875 
z
" id="DejaVuSans-32"/>
      </defs>
      <g transform="translate(238.181316 322.182437)scale(0.1 -0.1)">
       <use xlink:href="#DejaVuSans-39"/>
       <use x="63.623047" xlink:href="#DejaVuSans-39"/>
       <use x="127.246094" xlink:href="#DejaVuSans-36"/>
       <use x="190.869141" xlink:href="#DejaVuSans-32"/>
       <use x="254.492188" xlink:href="#DejaVuSans-30"/>
      </g>
     </g>
    </g>
    <g id="xtick_6">
     <g id="line2d_11">
      <path clip-path="url(#pb0d802f2f8)" d="M 300.185455 307.584 
L 300.185455 41.472 
" style="fill:none;stroke:#b0b0b0;stroke-linecap:square;stroke-width:0.8;"/>
     </g>
     <g id="line2d_12">
      <g>
       <use style="stroke:#000000;stroke-width:0.8;" x="300.185455" xlink:href="#maa8d6edabe" y="307.584"/>
      </g>
     </g>
     <g id="text_6">
      <!-- 99640 -->
      <g transform="translate(284.279205 322.182437)scale(0.1 -0.1)">
       <use xlink:href="#DejaVuSans-39"/>
       <use x="63.623047" xlink:href="#DejaVuSans-39"/>
       <use x="127.246094" xlink:href="#DejaVuSans-36"/>
       <use x="190.869141" xlink:href="#DejaVuSans-34"/>
       <use x="254.492188" xlink:href="#DejaVuSans-30"/>
      </g>
     </g>
    </g>
    <g id="xtick_7">
     <g id="line2d_13">
      <path clip-path="url(#pb0d802f2f8)" d="M 346.283345 307.584 
L 346.283345 41.472 
" style="fill:none;stroke:#b0b0b0;stroke-linecap:square;stroke-width:0.8;"/>
     </g>
     <g id="line2d_14">
      <g>
       <use style="stroke:#000000;stroke-width:0.8;" x="346.283345" xlink:href="#maa8d6edabe" y="307.584"/>
      </g>
     </g>
     <g id="text_7">
      <!-- 99660 -->
      <g transform="translate(330.377095 322.182437)scale(0.1 -0.1)">
       <use xlink:href="#DejaVuSans-39"/>
       <use x="63.623047" xlink:href="#DejaVuSans-39"/>
       <use x="127.246094" xlink:href="#DejaVuSans-36"/>
       <use x="190.869141" xlink:href="#DejaVuSans-36"/>
       <use x="254.492188" xlink:href="#DejaVuSans-30"/>
      </g>
     </g>
    </g>
    <g id="xtick_8">
     <g id="line2d_15">
      <path clip-path="url(#pb0d802f2f8)" d="M 392.381234 307.584 
L 392.381234 41.472 
" style="fill:none;stroke:#b0b0b0;stroke-linecap:square;stroke-width:0.8;"/>
     </g>
     <g id="line2d_16">
      <g>
       <use style="stroke:#000000;stroke-width:0.8;" x="392.381234" xlink:href="#maa8d6edabe" y="307.584"/>
      </g>
     </g>
     <g id="text_8">
      <!-- 99680 -->
      <g transform="translate(376.474984 322.182437)scale(0.1 -0.1)">
       <use xlink:href="#DejaVuSans-39"/>
       <use x="63.623047" xlink:href="#DejaVuSans-39"/>
       <use x="127.246094" xlink:href="#DejaVuSans-36"/>
       <use x="190.869141" xlink:href="#DejaVuSans-38"/>
       <use x="254.492188" xlink:href="#DejaVuSans-30"/>
      </g>
     </g>
    </g>
    <g id="xtick_9">
     <g id="line2d_17">
      <path clip-path="url(#pb0d802f2f8)" d="M 58.171537 307.584 
L 58.171537 41.472 
" style="fill:none;stroke:#b0b0b0;stroke-linecap:square;stroke-width:0.8;"/>
     </g>
     <g id="line2d_18">
      <defs>
       <path d="M 0 0 
L 0 2 
" id="m6acf153144" style="stroke:#000000;stroke-width:0.6;"/>
      </defs>
      <g>
       <use style="stroke:#000000;stroke-width:0.6;" x="58.171537" xlink:href="#m6acf153144" y="307.584"/>
      </g>
     </g>
    </g>
    <g id="xtick_10">
     <g id="line2d_19">
      <path clip-path="url(#pb0d802f2f8)" d="M 81.220482 307.584 
L 81.220482 41.472 
" style="fill:none;stroke:#b0b0b0;stroke-linecap:square;stroke-width:0.8;"/>
     </g>
     <g id="line2d_20">
      <g>
       <use style="stroke:#000000;stroke-width:0.6;" x="81.220482" xlink:href="#m6acf153144" y="307.584"/>
      </g>
     </g>
    </g>
    <g id="xtick_11">
     <g id="line2d_21">
      <path clip-path="url(#pb0d802f2f8)" d="M 92.744954 307.584 
L 92.744954 41.472 
" style="fill:none;stroke:#b0b0b0;stroke-linecap:square;stroke-width:0.8;"/>
     </g>
     <g id="line2d_22">
      <g>
       <use style="stroke:#000000;stroke-width:0.6;" x="92.744954" xlink:href="#m6acf153144" y="307.584"/>
      </g>
     </g>
    </g>
    <g id="xtick_12">
     <g id="line2d_23">
      <path clip-path="url(#pb0d802f2f8)" d="M 104.269427 307.584 
L 104.269427 41.472 
" style="fill:none;stroke:#b0b0b0;stroke-linecap:square;stroke-width:0.8;"/>
     </g>
     <g id="line2d_24">
      <g>
       <use style="stroke:#000000;stroke-width:0.6;" x="104.269427" xlink:href="#m6acf153144" y="307.584"/>
      </g>
     </g>
    </g>
    <g id="xtick_13">
     <g id="line2d_25">
      <path clip-path="url(#pb0d802f2f8)" d="M 127.318371 307.584 
L 127.318371 41.472 
" style="fill:none;stroke:#b0b0b0;stroke-linecap:square;stroke-width:0.8;"/>
     </g>
     <g id="line2d_26">
      <g>
       <use style="stroke:#000000;stroke-width:0.6;" x="127.318371" xlink:href="#m6acf153144" y="307.584"/>
      </g>
     </g>
    </g>
    <g id="xtick_14">
     <g id="line2d_27">
      <path clip-path="url(#pb0d802f2f8)" d="M 138.842843 307.584 
L 138.842843 41.472 
" style="fill:none;stroke:#b0b0b0;stroke-linecap:square;stroke-width:0.8;"/>
     </g>
     <g id="line2d_28">
      <g>
       <use style="stroke:#000000;stroke-width:0.6;" x="138.842843" xlink:href="#m6acf153144" y="307.584"/>
      </g>
     </g>
    </g>
    <g id="xtick_15">
     <g id="line2d_29">
      <path clip-path="url(#pb0d802f2f8)" d="M 150.367316 307.584 
L 150.367316 41.472 
" style="fill:none;stroke:#b0b0b0;stroke-linecap:square;stroke-width:0.8;"/>
     </g>
     <g id="line2d_30">
      <g>
       <use style="stroke:#000000;stroke-width:0.6;" x="150.367316" xlink:href="#m6acf153144" y="307.584"/>
      </g>
     </g>
    </g>
    <g id="xtick_16">
     <g id="line2d_31">
      <path clip-path="url(#pb0d802f2f8)" d="M 173.41626 307.584 
L 173.41626 41.472 
" style="fill:none;stroke:#b0b0b0;stroke-linecap:square;stroke-width:0.8;"/>
     </g>
     <g id="line2d_32">
      <g>
       <use style="stroke:#000000;stroke-width:0.6;" x="173.41626" xlink:href="#m6acf153144" y="307.584"/>
      </g>
     </g>
    </g>
    <g id="xtick_17">
     <g id="line2d_33">
      <path clip-path="url(#pb0d802f2f8)" d="M 184.940733 307.584 
L 184.940733 41.472 
" style="fill:none;stroke:#b0b0b0;stroke-linecap:square;stroke-width:0.8;"/>
     </g>
     <g id="line2d_34">
      <g>
       <use style="stroke:#000000;stroke-width:0.6;" x="184.940733" xlink:href="#m6acf153144" y="307.584"/>
      </g>
     </g>
    </g>
    <g id="xtick_18">
     <g id="line2d_35">
      <path clip-path="url(#pb0d802f2f8)" d="M 196.465205 307.584 
L 196.465205 41.472 
" style="fill:none;stroke:#b0b0b0;stroke-linecap:square;stroke-width:0.8;"/>
     </g>
     <g id="line2d_36">
      <g>
       <use style="stroke:#000000;stroke-width:0.6;" x="196.465205" xlink:href="#m6acf153144" y="307.584"/>
      </g>
     </g>
    </g>
    <g id="xtick_19">
     <g id="line2d_37">
      <path clip-path="url(#pb0d802f2f8)" d="M 219.514149 307.584 
L 219.514149 41.472 
" style="fill:none;stroke:#b0b0b0;stroke-linecap:square;stroke-width:0.8;"/>
     </g>
     <g id="line2d_38">
      <g>
       <use style="stroke:#000000;stroke-width:0.6;" x="219.514149" xlink:href="#m6acf153144" y="307.584"/>
      </g>
     </g>
    </g>
    <g id="xtick_20">
     <g id="line2d_39">
      <path clip-path="url(#pb0d802f2f8)" d="M 231.038622 307.584 
L 231.038622 41.472 
" style="fill:none;stroke:#b0b0b0;stroke-linecap:square;stroke-width:0.8;"/>
     </g>
     <g id="line2d_40">
      <g>
       <use style="stroke:#000000;stroke-width:0.6;" x="231.038622" xlink:href="#m6acf153144" y="307.584"/>
      </g>
     </g>
    </g>
    <g id="xtick_21">
     <g id="line2d_41">
      <path clip-path="url(#pb0d802f2f8)" d="M 242.563094 307.584 
L 242.563094 41.472 
" style="fill:none;stroke:#b0b0b0;stroke-linecap:square;stroke-width:0.8;"/>
     </g>
     <g id="line2d_42">
      <g>
       <use style="stroke:#000000;stroke-width:0.6;" x="242.563094" xlink:href="#m6acf153144" y="307.584"/>
      </g>
     </g>
    </g>
    <g id="xtick_22">
     <g id="line2d_43">
      <path clip-path="url(#pb0d802f2f8)" d="M 265.612039 307.584 
L 265.612039 41.472 
" style="fill:none;stroke:#b0b0b0;stroke-linecap:square;stroke-width:0.8;"/>
     </g>
     <g id="line2d_44">
      <g>
       <use style="stroke:#000000;stroke-width:0.6;" x="265.612039" xlink:href="#m6acf153144" y="307.584"/>
      </g>
     </g>
    </g>
    <g id="xtick_23">
     <g id="line2d_45">
      <path clip-path="url(#pb0d802f2f8)" d="M 277.136511 307.584 
L 277.136511 41.472 
" style="fill:none;stroke:#b0b0b0;stroke-linecap:square;stroke-width:0.8;"/>
     </g>
     <g id="line2d_46">
      <g>
       <use style="stroke:#000000;stroke-width:0.6;" x="277.136511" xlink:href="#m6acf153144" y="307.584"/>
      </g>
     </g>
    </g>
    <g id="xtick_24">
     <g id="line2d_47">
      <path clip-path="url(#pb0d802f2f8)" d="M 288.660983 307.584 
L 288.660983 41.472 
" style="fill:none;stroke:#b0b0b0;stroke-linecap:square;stroke-width:0.8;"/>
     </g>
     <g id="line2d_48">
      <g>
       <use style="stroke:#000000;stroke-width:0.6;" x="288.660983" xlink:href="#m6acf153144" y="307.584"/>
      </g>
     </g>
    </g>
    <g id="xtick_25">
     <g id="line2d_49">
      <path clip-path="url(#pb0d802f2f8)" d="M 311.709928 307.584 
L 311.709928 41.472 
" style="fill:none;stroke:#b0b0b0;stroke-linecap:square;stroke-width:0.8;"/>
     </g>
     <g id="line2d_50">
      <g>
       <use style="stroke:#000000;stroke-width:0.6;" x="311.709928" xlink:href="#m6acf153144" y="307.584"/>
      </g>
     </g>
    </g>
    <g id="xtick_26">
     <g id="line2d_51">
      <path clip-path="url(#pb0d802f2f8)" d="M 323.2344 307.584 
L 323.2344 41.472 
" style="fill:none;stroke:#b0b0b0;stroke-linecap:square;stroke-width:0.8;"/>
     </g>
     <g id="line2d_52">
      <g>
       <use style="stroke:#000000;stroke-width:0.6;" x="323.2344" xlink:href="#m6acf153144" y="307.584"/>
      </g>
     </g>
    </g>
    <g id="xtick_27">
     <g id="line2d_53">
      <path clip-path="url(#pb0d802f2f8)" d="M 334.758872 307.584 
L 334.758872 41.472 
" style="fill:none;stroke:#b0b0b0;stroke-linecap:square;stroke-width:0.8;"/>
     </g>
     <g id="line2d_54">
      <g>
       <use style="stroke:#000000;stroke-width:0.6;" x="334.758872" xlink:href="#m6acf153144" y="307.584"/>
      </g>
     </g>
    </g>
    <g id="xtick_28">
     <g id="line2d_55">
      <path clip-path="url(#pb0d802f2f8)" d="M 357.807817 307.584 
L 357.807817 41.472 
" style="fill:none;stroke:#b0b0b0;stroke-linecap:square;stroke-width:0.8;"/>
     </g>
     <g id="line2d_56">
      <g>
       <use style="stroke:#000000;stroke-width:0.6;" x="357.807817" xlink:href="#m6acf153144" y="307.584"/>
      </g>
     </g>
    </g>
    <g id="xtick_29">
     <g id="line2d_57">
      <path clip-path="url(#pb0d802f2f8)" d="M 369.332289 307.584 
L 369.332289 41.472 
" style="fill:none;stroke:#b0b0b0;stroke-linecap:square;stroke-width:0.8;"/>
     </g>
     <g id="line2d_58">
      <g>
       <use style="stroke:#000000;stroke-width:0.6;" x="369.332289" xlink:href="#m6acf153144" y="307.584"/>
      </g>
     </g>
    </g>
    <g id="xtick_30">
     <g id="line2d_59">
      <path clip-path="url(#pb0d802f2f8)" d="M 380.856762 307.584 
L 380.856762 41.472 
" style="fill:none;stroke:#b0b0b0;stroke-linecap:square;stroke-width:0.8;"/>
     </g>
     <g id="line2d_60">
      <g>
       <use style="stroke:#000000;stroke-width:0.6;" x="380.856762" xlink:href="#m6acf153144" y="307.584"/>
      </g>
     </g>
    </g>
    <g id="xtick_31">
     <g id="line2d_61">
      <path clip-path="url(#pb0d802f2f8)" d="M 403.905706 307.584 
L 403.905706 41.472 
" style="fill:none;stroke:#b0b0b0;stroke-linecap:square;stroke-width:0.8;"/>
     </g>
     <g id="line2d_62">
      <g>
       <use style="stroke:#000000;stroke-width:0.6;" x="403.905706" xlink:href="#m6acf153144" y="307.584"/>
      </g>
     </g>
    </g>
    <g id="text_9">
     <!-- frame # [] -->
     <defs>
      <path d="M 37.109375 75.984375 
L 37.109375 68.5 
L 28.515625 68.5 
Q 23.6875 68.5 21.796875 66.546875 
Q 19.921875 64.59375 19.921875 59.515625 
L 19.921875 54.6875 
L 34.71875 54.6875 
L 34.71875 47.703125 
L 19.921875 47.703125 
L 19.921875 0 
L 10.890625 0 
L 10.890625 47.703125 
L 2.296875 47.703125 
L 2.296875 54.6875 
L 10.890625 54.6875 
L 10.890625 58.5 
Q 10.890625 67.625 15.140625 71.796875 
Q 19.390625 75.984375 28.609375 75.984375 
z
" id="DejaVuSans-66"/>
      <path d="M 41.109375 46.296875 
Q 39.59375 47.171875 37.8125 47.578125 
Q 36.03125 48 33.890625 48 
Q 26.265625 48 22.1875 43.046875 
Q 18.109375 38.09375 18.109375 28.8125 
L 18.109375 0 
L 9.078125 0 
L 9.078125 54.6875 
L 18.109375 54.6875 
L 18.109375 46.1875 
Q 20.953125 51.171875 25.484375 53.578125 
Q 30.03125 56 36.53125 56 
Q 37.453125 56 38.578125 55.875 
Q 39.703125 55.765625 41.0625 55.515625 
z
" id="DejaVuSans-72"/>
      <path d="M 34.28125 27.484375 
Q 23.390625 27.484375 19.1875 25 
Q 14.984375 22.515625 14.984375 16.5 
Q 14.984375 11.71875 18.140625 8.90625 
Q 21.296875 6.109375 26.703125 6.109375 
Q 34.1875 6.109375 38.703125 11.40625 
Q 43.21875 16.703125 43.21875 25.484375 
L 43.21875 27.484375 
z
M 52.203125 31.203125 
L 52.203125 0 
L 43.21875 0 
L 43.21875 8.296875 
Q 40.140625 3.328125 35.546875 0.953125 
Q 30.953125 -1.421875 24.3125 -1.421875 
Q 15.921875 -1.421875 10.953125 3.296875 
Q 6 8.015625 6 15.921875 
Q 6 25.140625 12.171875 29.828125 
Q 18.359375 34.515625 30.609375 34.515625 
L 43.21875 34.515625 
L 43.21875 35.40625 
Q 43.21875 41.609375 39.140625 45 
Q 35.0625 48.390625 27.6875 48.390625 
Q 23 48.390625 18.546875 47.265625 
Q 14.109375 46.140625 10.015625 43.890625 
L 10.015625 52.203125 
Q 14.9375 54.109375 19.578125 55.046875 
Q 24.21875 56 28.609375 56 
Q 40.484375 56 46.34375 49.84375 
Q 52.203125 43.703125 52.203125 31.203125 
z
" id="DejaVuSans-61"/>
      <path d="M 52 44.1875 
Q 55.375 50.25 60.0625 53.125 
Q 64.75 56 71.09375 56 
Q 79.640625 56 84.28125 50.015625 
Q 88.921875 44.046875 88.921875 33.015625 
L 88.921875 0 
L 79.890625 0 
L 79.890625 32.71875 
Q 79.890625 40.578125 77.09375 44.375 
Q 74.3125 48.1875 68.609375 48.1875 
Q 61.625 48.1875 57.5625 43.546875 
Q 53.515625 38.921875 53.515625 30.90625 
L 53.515625 0 
L 44.484375 0 
L 44.484375 32.71875 
Q 44.484375 40.625 41.703125 44.40625 
Q 38.921875 48.1875 33.109375 48.1875 
Q 26.21875 48.1875 22.15625 43.53125 
Q 18.109375 38.875 18.109375 30.90625 
L 18.109375 0 
L 9.078125 0 
L 9.078125 54.6875 
L 18.109375 54.6875 
L 18.109375 46.1875 
Q 21.1875 51.21875 25.484375 53.609375 
Q 29.78125 56 35.6875 56 
Q 41.65625 56 45.828125 52.96875 
Q 50 49.953125 52 44.1875 
z
" id="DejaVuSans-6d"/>
      <path d="M 56.203125 29.59375 
L 56.203125 25.203125 
L 14.890625 25.203125 
Q 15.484375 15.921875 20.484375 11.0625 
Q 25.484375 6.203125 34.421875 6.203125 
Q 39.59375 6.203125 44.453125 7.46875 
Q 49.3125 8.734375 54.109375 11.28125 
L 54.109375 2.78125 
Q 49.265625 0.734375 44.1875 -0.34375 
Q 39.109375 -1.421875 33.890625 -1.421875 
Q 20.796875 -1.421875 13.15625 6.1875 
Q 5.515625 13.8125 5.515625 26.8125 
Q 5.515625 40.234375 12.765625 48.109375 
Q 20.015625 56 32.328125 56 
Q 43.359375 56 49.78125 48.890625 
Q 56.203125 41.796875 56.203125 29.59375 
z
M 47.21875 32.234375 
Q 47.125 39.59375 43.09375 43.984375 
Q 39.0625 48.390625 32.421875 48.390625 
Q 24.90625 48.390625 20.390625 44.140625 
Q 15.875 39.890625 15.1875 32.171875 
z
" id="DejaVuSans-65"/>
      <path id="DejaVuSans-20"/>
      <path d="M 51.125 44 
L 36.921875 44 
L 32.8125 27.6875 
L 47.125 27.6875 
z
M 43.796875 71.78125 
L 38.71875 51.515625 
L 52.984375 51.515625 
L 58.109375 71.78125 
L 65.921875 71.78125 
L 60.890625 51.515625 
L 76.125 51.515625 
L 76.125 44 
L 58.984375 44 
L 54.984375 27.6875 
L 70.515625 27.6875 
L 70.515625 20.21875 
L 53.078125 20.21875 
L 48 0 
L 40.1875 0 
L 45.21875 20.21875 
L 30.90625 20.21875 
L 25.875 0 
L 18.015625 0 
L 23.09375 20.21875 
L 7.71875 20.21875 
L 7.71875 27.6875 
L 24.90625 27.6875 
L 29 44 
L 13.28125 44 
L 13.28125 51.515625 
L 30.90625 51.515625 
L 35.890625 71.78125 
z
" id="DejaVuSans-23"/>
      <path d="M 8.59375 75.984375 
L 29.296875 75.984375 
L 29.296875 69 
L 17.578125 69 
L 17.578125 -6.203125 
L 29.296875 -6.203125 
L 29.296875 -13.1875 
L 8.59375 -13.1875 
z
" id="DejaVuSans-5b"/>
      <path d="M 30.421875 75.984375 
L 30.421875 -13.1875 
L 9.71875 -13.1875 
L 9.71875 -6.203125 
L 21.390625 -6.203125 
L 21.390625 69 
L 9.71875 69 
L 9.71875 75.984375 
z
" id="DejaVuSans-5d"/>
     </defs>
     <g transform="translate(210.063906 335.860562)scale(0.1 -0.1)">
      <use xlink:href="#DejaVuSans-66"/>
      <use x="35.205078" xlink:href="#DejaVuSans-72"/>
      <use x="76.318359" xlink:href="#DejaVuSans-61"/>
      <use x="137.597656" xlink:href="#DejaVuSans-6d"/>
      <use x="235.009766" xlink:href="#DejaVuSans-65"/>
      <use x="296.533203" xlink:href="#DejaVuSans-20"/>
      <use x="328.320312" xlink:href="#DejaVuSans-23"/>
      <use x="412.109375" xlink:href="#DejaVuSans-20"/>
      <use x="443.896484" xlink:href="#DejaVuSans-5b"/>
      <use x="482.910156" xlink:href="#DejaVuSans-5d"/>
     </g>
    </g>
   </g>
   <g id="matplotlib.axis_2">
    <g id="ytick_1">
     <g id="line2d_63">
      <path clip-path="url(#pb0d802f2f8)" d="M 57.6 274.760892 
L 414.72 274.760892 
" style="fill:none;stroke:#b0b0b0;stroke-linecap:square;stroke-width:0.8;"/>
     </g>
     <g id="line2d_64">
      <defs>
       <path d="M 0 0 
L -3.5 0 
" id="mb04e68890e" style="stroke:#000000;stroke-width:0.8;"/>
      </defs>
      <g>
       <use style="stroke:#000000;stroke-width:0.8;" x="57.6" xlink:href="#mb04e68890e" y="274.760892"/>
      </g>
     </g>
     <g id="text_10">
      <!-- −0.3 -->
      <defs>
       <path d="M 10.59375 35.5 
L 73.1875 35.5 
L 73.1875 27.203125 
L 10.59375 27.203125 
z
" id="DejaVuSans-2212"/>
       <path d="M 10.6875 12.40625 
L 21 12.40625 
L 21 0 
L 10.6875 0 
z
" id="DejaVuSans-2e"/>
       <path d="M 40.578125 39.3125 
Q 47.65625 37.796875 51.625 33 
Q 55.609375 28.21875 55.609375 21.1875 
Q 55.609375 10.40625 48.1875 4.484375 
Q 40.765625 -1.421875 27.09375 -1.421875 
Q 22.515625 -1.421875 17.65625 -0.515625 
Q 12.796875 0.390625 7.625 2.203125 
L 7.625 11.71875 
Q 11.71875 9.328125 16.59375 8.109375 
Q 21.484375 6.890625 26.8125 6.890625 
Q 36.078125 6.890625 40.9375 10.546875 
Q 45.796875 14.203125 45.796875 21.1875 
Q 45.796875 27.640625 41.28125 31.265625 
Q 36.765625 34.90625 28.71875 34.90625 
L 20.21875 34.90625 
L 20.21875 43.015625 
L 29.109375 43.015625 
Q 36.375 43.015625 40.234375 45.921875 
Q 44.09375 48.828125 44.09375 54.296875 
Q 44.09375 59.90625 40.109375 62.90625 
Q 36.140625 65.921875 28.71875 65.921875 
Q 24.65625 65.921875 20.015625 65.03125 
Q 15.375 64.15625 9.8125 62.3125 
L 9.8125 71.09375 
Q 15.4375 72.65625 20.34375 73.4375 
Q 25.25 74.21875 29.59375 74.21875 
Q 40.828125 74.21875 47.359375 69.109375 
Q 53.90625 64.015625 53.90625 55.328125 
Q 53.90625 49.265625 50.4375 45.09375 
Q 46.96875 40.921875 40.578125 39.3125 
z
" id="DejaVuSans-33"/>
      </defs>
      <g transform="translate(26.317187 278.560111)scale(0.1 -0.1)">
       <use xlink:href="#DejaVuSans-2212"/>
       <use x="83.789062" xlink:href="#DejaVuSans-30"/>
       <use x="147.412109" xlink:href="#DejaVuSans-2e"/>
       <use x="179.199219" xlink:href="#DejaVuSans-33"/>
      </g>
     </g>
    </g>
    <g id="ytick_2">
     <g id="line2d_65">
      <path clip-path="url(#pb0d802f2f8)" d="M 57.6 240.322717 
L 414.72 240.322717 
" style="fill:none;stroke:#b0b0b0;stroke-linecap:square;stroke-width:0.8;"/>
     </g>
     <g id="line2d_66">
      <g>
       <use style="stroke:#000000;stroke-width:0.8;" x="57.6" xlink:href="#mb04e68890e" y="240.322717"/>
      </g>
     </g>
     <g id="text_11">
      <!-- −0.2 -->
      <g transform="translate(26.317187 244.121936)scale(0.1 -0.1)">
       <use xlink:href="#DejaVuSans-2212"/>
       <use x="83.789062" xlink:href="#DejaVuSans-30"/>
       <use x="147.412109" xlink:href="#DejaVuSans-2e"/>
       <use x="179.199219" xlink:href="#DejaVuSans-32"/>
      </g>
     </g>
    </g>
    <g id="ytick_3">
     <g id="line2d_67">
      <path clip-path="url(#pb0d802f2f8)" d="M 57.6 205.884541 
L 414.72 205.884541 
" style="fill:none;stroke:#b0b0b0;stroke-linecap:square;stroke-width:0.8;"/>
     </g>
     <g id="line2d_68">
      <g>
       <use style="stroke:#000000;stroke-width:0.8;" x="57.6" xlink:href="#mb04e68890e" y="205.884541"/>
      </g>
     </g>
     <g id="text_12">
      <!-- −0.1 -->
      <defs>
       <path d="M 12.40625 8.296875 
L 28.515625 8.296875 
L 28.515625 63.921875 
L 10.984375 60.40625 
L 10.984375 69.390625 
L 28.421875 72.90625 
L 38.28125 72.90625 
L 38.28125 8.296875 
L 54.390625 8.296875 
L 54.390625 0 
L 12.40625 0 
z
" id="DejaVuSans-31"/>
      </defs>
      <g transform="translate(26.317187 209.68376)scale(0.1 -0.1)">
       <use xlink:href="#DejaVuSans-2212"/>
       <use x="83.789062" xlink:href="#DejaVuSans-30"/>
       <use x="147.412109" xlink:href="#DejaVuSans-2e"/>
       <use x="179.199219" xlink:href="#DejaVuSans-31"/>
      </g>
     </g>
    </g>
    <g id="ytick_4">
     <g id="line2d_69">
      <path clip-path="url(#pb0d802f2f8)" d="M 57.6 171.446365 
L 414.72 171.446365 
" style="fill:none;stroke:#b0b0b0;stroke-linecap:square;stroke-width:0.8;"/>
     </g>
     <g id="line2d_70">
      <g>
       <use style="stroke:#000000;stroke-width:0.8;" x="57.6" xlink:href="#mb04e68890e" y="171.446365"/>
      </g>
     </g>
     <g id="text_13">
      <!-- 0.0 -->
      <g transform="translate(34.696875 175.245584)scale(0.1 -0.1)">
       <use xlink:href="#DejaVuSans-30"/>
       <use x="63.623047" xlink:href="#DejaVuSans-2e"/>
       <use x="95.410156" xlink:href="#DejaVuSans-30"/>
      </g>
     </g>
    </g>
    <g id="ytick_5">
     <g id="line2d_71">
      <path clip-path="url(#pb0d802f2f8)" d="M 57.6 137.00819 
L 414.72 137.00819 
" style="fill:none;stroke:#b0b0b0;stroke-linecap:square;stroke-width:0.8;"/>
     </g>
     <g id="line2d_72">
      <g>
       <use style="stroke:#000000;stroke-width:0.8;" x="57.6" xlink:href="#mb04e68890e" y="137.00819"/>
      </g>
     </g>
     <g id="text_14">
      <!-- 0.1 -->
      <g transform="translate(34.696875 140.807409)scale(0.1 -0.1)">
       <use xlink:href="#DejaVuSans-30"/>
       <use x="63.623047" xlink:href="#DejaVuSans-2e"/>
       <use x="95.410156" xlink:href="#DejaVuSans-31"/>
      </g>
     </g>
    </g>
    <g id="ytick_6">
     <g id="line2d_73">
      <path clip-path="url(#pb0d802f2f8)" d="M 57.6 102.570014 
L 414.72 102.570014 
" style="fill:none;stroke:#b0b0b0;stroke-linecap:square;stroke-width:0.8;"/>
     </g>
     <g id="line2d_74">
      <g>
       <use style="stroke:#000000;stroke-width:0.8;" x="57.6" xlink:href="#mb04e68890e" y="102.570014"/>
      </g>
     </g>
     <g id="text_15">
      <!-- 0.2 -->
      <g transform="translate(34.696875 106.369233)scale(0.1 -0.1)">
       <use xlink:href="#DejaVuSans-30"/>
       <use x="63.623047" xlink:href="#DejaVuSans-2e"/>
       <use x="95.410156" xlink:href="#DejaVuSans-32"/>
      </g>
     </g>
    </g>
    <g id="ytick_7">
     <g id="line2d_75">
      <path clip-path="url(#pb0d802f2f8)" d="M 57.6 68.131839 
L 414.72 68.131839 
" style="fill:none;stroke:#b0b0b0;stroke-linecap:square;stroke-width:0.8;"/>
     </g>
     <g id="line2d_76">
      <g>
       <use style="stroke:#000000;stroke-width:0.8;" x="57.6" xlink:href="#mb04e68890e" y="68.131839"/>
      </g>
     </g>
     <g id="text_16">
      <!-- 0.3 -->
      <g transform="translate(34.696875 71.931057)scale(0.1 -0.1)">
       <use xlink:href="#DejaVuSans-30"/>
       <use x="63.623047" xlink:href="#DejaVuSans-2e"/>
       <use x="95.410156" xlink:href="#DejaVuSans-33"/>
      </g>
     </g>
    </g>
    <g id="ytick_8">
     <g id="line2d_77">
      <path clip-path="url(#pb0d802f2f8)" d="M 57.6 302.311433 
L 414.72 302.311433 
" style="fill:none;stroke:#b0b0b0;stroke-linecap:square;stroke-width:0.8;"/>
     </g>
     <g id="line2d_78">
      <defs>
       <path d="M 0 0 
L -2 0 
" id="m1452913f1e" style="stroke:#000000;stroke-width:0.6;"/>
      </defs>
      <g>
       <use style="stroke:#000000;stroke-width:0.6;" x="57.6" xlink:href="#m1452913f1e" y="302.311433"/>
      </g>
     </g>
    </g>
    <g id="ytick_9">
     <g id="line2d_79">
      <path clip-path="url(#pb0d802f2f8)" d="M 57.6 295.423798 
L 414.72 295.423798 
" style="fill:none;stroke:#b0b0b0;stroke-linecap:square;stroke-width:0.8;"/>
     </g>
     <g id="line2d_80">
      <g>
       <use style="stroke:#000000;stroke-width:0.6;" x="57.6" xlink:href="#m1452913f1e" y="295.423798"/>
      </g>
     </g>
    </g>
    <g id="ytick_10">
     <g id="line2d_81">
      <path clip-path="url(#pb0d802f2f8)" d="M 57.6 288.536163 
L 414.72 288.536163 
" style="fill:none;stroke:#b0b0b0;stroke-linecap:square;stroke-width:0.8;"/>
     </g>
     <g id="line2d_82">
      <g>
       <use style="stroke:#000000;stroke-width:0.6;" x="57.6" xlink:href="#m1452913f1e" y="288.536163"/>
      </g>
     </g>
    </g>
    <g id="ytick_11">
     <g id="line2d_83">
      <path clip-path="url(#pb0d802f2f8)" d="M 57.6 281.648528 
L 414.72 281.648528 
" style="fill:none;stroke:#b0b0b0;stroke-linecap:square;stroke-width:0.8;"/>
     </g>
     <g id="line2d_84">
      <g>
       <use style="stroke:#000000;stroke-width:0.6;" x="57.6" xlink:href="#m1452913f1e" y="281.648528"/>
      </g>
     </g>
    </g>
    <g id="ytick_12">
     <g id="line2d_85">
      <path clip-path="url(#pb0d802f2f8)" d="M 57.6 267.873257 
L 414.72 267.873257 
" style="fill:none;stroke:#b0b0b0;stroke-linecap:square;stroke-width:0.8;"/>
     </g>
     <g id="line2d_86">
      <g>
       <use style="stroke:#000000;stroke-width:0.6;" x="57.6" xlink:href="#m1452913f1e" y="267.873257"/>
      </g>
     </g>
    </g>
    <g id="ytick_13">
     <g id="line2d_87">
      <path clip-path="url(#pb0d802f2f8)" d="M 57.6 260.985622 
L 414.72 260.985622 
" style="fill:none;stroke:#b0b0b0;stroke-linecap:square;stroke-width:0.8;"/>
     </g>
     <g id="line2d_88">
      <g>
       <use style="stroke:#000000;stroke-width:0.6;" x="57.6" xlink:href="#m1452913f1e" y="260.985622"/>
      </g>
     </g>
    </g>
    <g id="ytick_14">
     <g id="line2d_89">
      <path clip-path="url(#pb0d802f2f8)" d="M 57.6 254.097987 
L 414.72 254.097987 
" style="fill:none;stroke:#b0b0b0;stroke-linecap:square;stroke-width:0.8;"/>
     </g>
     <g id="line2d_90">
      <g>
       <use style="stroke:#000000;stroke-width:0.6;" x="57.6" xlink:href="#m1452913f1e" y="254.097987"/>
      </g>
     </g>
    </g>
    <g id="ytick_15">
     <g id="line2d_91">
      <path clip-path="url(#pb0d802f2f8)" d="M 57.6 247.210352 
L 414.72 247.210352 
" style="fill:none;stroke:#b0b0b0;stroke-linecap:square;stroke-width:0.8;"/>
     </g>
     <g id="line2d_92">
      <g>
       <use style="stroke:#000000;stroke-width:0.6;" x="57.6" xlink:href="#m1452913f1e" y="247.210352"/>
      </g>
     </g>
    </g>
    <g id="ytick_16">
     <g id="line2d_93">
      <path clip-path="url(#pb0d802f2f8)" d="M 57.6 233.435082 
L 414.72 233.435082 
" style="fill:none;stroke:#b0b0b0;stroke-linecap:square;stroke-width:0.8;"/>
     </g>
     <g id="line2d_94">
      <g>
       <use style="stroke:#000000;stroke-width:0.6;" x="57.6" xlink:href="#m1452913f1e" y="233.435082"/>
      </g>
     </g>
    </g>
    <g id="ytick_17">
     <g id="line2d_95">
      <path clip-path="url(#pb0d802f2f8)" d="M 57.6 226.547447 
L 414.72 226.547447 
" style="fill:none;stroke:#b0b0b0;stroke-linecap:square;stroke-width:0.8;"/>
     </g>
     <g id="line2d_96">
      <g>
       <use style="stroke:#000000;stroke-width:0.6;" x="57.6" xlink:href="#m1452913f1e" y="226.547447"/>
      </g>
     </g>
    </g>
    <g id="ytick_18">
     <g id="line2d_97">
      <path clip-path="url(#pb0d802f2f8)" d="M 57.6 219.659811 
L 414.72 219.659811 
" style="fill:none;stroke:#b0b0b0;stroke-linecap:square;stroke-width:0.8;"/>
     </g>
     <g id="line2d_98">
      <g>
       <use style="stroke:#000000;stroke-width:0.6;" x="57.6" xlink:href="#m1452913f1e" y="219.659811"/>
      </g>
     </g>
    </g>
    <g id="ytick_19">
     <g id="line2d_99">
      <path clip-path="url(#pb0d802f2f8)" d="M 57.6 212.772176 
L 414.72 212.772176 
" style="fill:none;stroke:#b0b0b0;stroke-linecap:square;stroke-width:0.8;"/>
     </g>
     <g id="line2d_100">
      <g>
       <use style="stroke:#000000;stroke-width:0.6;" x="57.6" xlink:href="#m1452913f1e" y="212.772176"/>
      </g>
     </g>
    </g>
    <g id="ytick_20">
     <g id="line2d_101">
      <path clip-path="url(#pb0d802f2f8)" d="M 57.6 198.996906 
L 414.72 198.996906 
" style="fill:none;stroke:#b0b0b0;stroke-linecap:square;stroke-width:0.8;"/>
     </g>
     <g id="line2d_102">
      <g>
       <use style="stroke:#000000;stroke-width:0.6;" x="57.6" xlink:href="#m1452913f1e" y="198.996906"/>
      </g>
     </g>
    </g>
    <g id="ytick_21">
     <g id="line2d_103">
      <path clip-path="url(#pb0d802f2f8)" d="M 57.6 192.109271 
L 414.72 192.109271 
" style="fill:none;stroke:#b0b0b0;stroke-linecap:square;stroke-width:0.8;"/>
     </g>
     <g id="line2d_104">
      <g>
       <use style="stroke:#000000;stroke-width:0.6;" x="57.6" xlink:href="#m1452913f1e" y="192.109271"/>
      </g>
     </g>
    </g>
    <g id="ytick_22">
     <g id="line2d_105">
      <path clip-path="url(#pb0d802f2f8)" d="M 57.6 185.221636 
L 414.72 185.221636 
" style="fill:none;stroke:#b0b0b0;stroke-linecap:square;stroke-width:0.8;"/>
     </g>
     <g id="line2d_106">
      <g>
       <use style="stroke:#000000;stroke-width:0.6;" x="57.6" xlink:href="#m1452913f1e" y="185.221636"/>
      </g>
     </g>
    </g>
    <g id="ytick_23">
     <g id="line2d_107">
      <path clip-path="url(#pb0d802f2f8)" d="M 57.6 178.334001 
L 414.72 178.334001 
" style="fill:none;stroke:#b0b0b0;stroke-linecap:square;stroke-width:0.8;"/>
     </g>
     <g id="line2d_108">
      <g>
       <use style="stroke:#000000;stroke-width:0.6;" x="57.6" xlink:href="#m1452913f1e" y="178.334001"/>
      </g>
     </g>
    </g>
    <g id="ytick_24">
     <g id="line2d_109">
      <path clip-path="url(#pb0d802f2f8)" d="M 57.6 164.55873 
L 414.72 164.55873 
" style="fill:none;stroke:#b0b0b0;stroke-linecap:square;stroke-width:0.8;"/>
     </g>
     <g id="line2d_110">
      <g>
       <use style="stroke:#000000;stroke-width:0.6;" x="57.6" xlink:href="#m1452913f1e" y="164.55873"/>
      </g>
     </g>
    </g>
    <g id="ytick_25">
     <g id="line2d_111">
      <path clip-path="url(#pb0d802f2f8)" d="M 57.6 157.671095 
L 414.72 157.671095 
" style="fill:none;stroke:#b0b0b0;stroke-linecap:square;stroke-width:0.8;"/>
     </g>
     <g id="line2d_112">
      <g>
       <use style="stroke:#000000;stroke-width:0.6;" x="57.6" xlink:href="#m1452913f1e" y="157.671095"/>
      </g>
     </g>
    </g>
    <g id="ytick_26">
     <g id="line2d_113">
      <path clip-path="url(#pb0d802f2f8)" d="M 57.6 150.78346 
L 414.72 150.78346 
" style="fill:none;stroke:#b0b0b0;stroke-linecap:square;stroke-width:0.8;"/>
     </g>
     <g id="line2d_114">
      <g>
       <use style="stroke:#000000;stroke-width:0.6;" x="57.6" xlink:href="#m1452913f1e" y="150.78346"/>
      </g>
     </g>
    </g>
    <g id="ytick_27">
     <g id="line2d_115">
      <path clip-path="url(#pb0d802f2f8)" d="M 57.6 143.895825 
L 414.72 143.895825 
" style="fill:none;stroke:#b0b0b0;stroke-linecap:square;stroke-width:0.8;"/>
     </g>
     <g id="line2d_116">
      <g>
       <use style="stroke:#000000;stroke-width:0.6;" x="57.6" xlink:href="#m1452913f1e" y="143.895825"/>
      </g>
     </g>
    </g>
    <g id="ytick_28">
     <g id="line2d_117">
      <path clip-path="url(#pb0d802f2f8)" d="M 57.6 130.120555 
L 414.72 130.120555 
" style="fill:none;stroke:#b0b0b0;stroke-linecap:square;stroke-width:0.8;"/>
     </g>
     <g id="line2d_118">
      <g>
       <use style="stroke:#000000;stroke-width:0.6;" x="57.6" xlink:href="#m1452913f1e" y="130.120555"/>
      </g>
     </g>
    </g>
    <g id="ytick_29">
     <g id="line2d_119">
      <path clip-path="url(#pb0d802f2f8)" d="M 57.6 123.23292 
L 414.72 123.23292 
" style="fill:none;stroke:#b0b0b0;stroke-linecap:square;stroke-width:0.8;"/>
     </g>
     <g id="line2d_120">
      <g>
       <use style="stroke:#000000;stroke-width:0.6;" x="57.6" xlink:href="#m1452913f1e" y="123.23292"/>
      </g>
     </g>
    </g>
    <g id="ytick_30">
     <g id="line2d_121">
      <path clip-path="url(#pb0d802f2f8)" d="M 57.6 116.345284 
L 414.72 116.345284 
" style="fill:none;stroke:#b0b0b0;stroke-linecap:square;stroke-width:0.8;"/>
     </g>
     <g id="line2d_122">
      <g>
       <use style="stroke:#000000;stroke-width:0.6;" x="57.6" xlink:href="#m1452913f1e" y="116.345284"/>
      </g>
     </g>
    </g>
    <g id="ytick_31">
     <g id="line2d_123">
      <path clip-path="url(#pb0d802f2f8)" d="M 57.6 109.457649 
L 414.72 109.457649 
" style="fill:none;stroke:#b0b0b0;stroke-linecap:square;stroke-width:0.8;"/>
     </g>
     <g id="line2d_124">
      <g>
       <use style="stroke:#000000;stroke-width:0.6;" x="57.6" xlink:href="#m1452913f1e" y="109.457649"/>
      </g>
     </g>
    </g>
    <g id="ytick_32">
     <g id="line2d_125">
      <path clip-path="url(#pb0d802f2f8)" d="M 57.6 95.682379 
L 414.72 95.682379 
" style="fill:none;stroke:#b0b0b0;stroke-linecap:square;stroke-width:0.8;"/>
     </g>
     <g id="line2d_126">
      <g>
       <use style="stroke:#000000;stroke-width:0.6;" x="57.6" xlink:href="#m1452913f1e" y="95.682379"/>
      </g>
     </g>
    </g>
    <g id="ytick_33">
     <g id="line2d_127">
      <path clip-path="url(#pb0d802f2f8)" d="M 57.6 88.794744 
L 414.72 88.794744 
" style="fill:none;stroke:#b0b0b0;stroke-linecap:square;stroke-width:0.8;"/>
     </g>
     <g id="line2d_128">
      <g>
       <use style="stroke:#000000;stroke-width:0.6;" x="57.6" xlink:href="#m1452913f1e" y="88.794744"/>
      </g>
     </g>
    </g>
    <g id="ytick_34">
     <g id="line2d_129">
      <path clip-path="url(#pb0d802f2f8)" d="M 57.6 81.907109 
L 414.72 81.907109 
" style="fill:none;stroke:#b0b0b0;stroke-linecap:square;stroke-width:0.8;"/>
     </g>
     <g id="line2d_130">
      <g>
       <use style="stroke:#000000;stroke-width:0.6;" x="57.6" xlink:href="#m1452913f1e" y="81.907109"/>
      </g>
     </g>
    </g>
    <g id="ytick_35">
     <g id="line2d_131">
      <path clip-path="url(#pb0d802f2f8)" d="M 57.6 75.019474 
L 414.72 75.019474 
" style="fill:none;stroke:#b0b0b0;stroke-linecap:square;stroke-width:0.8;"/>
     </g>
     <g id="line2d_132">
      <g>
       <use style="stroke:#000000;stroke-width:0.6;" x="57.6" xlink:href="#m1452913f1e" y="75.019474"/>
      </g>
     </g>
    </g>
    <g id="ytick_36">
     <g id="line2d_133">
      <path clip-path="url(#pb0d802f2f8)" d="M 57.6 61.244203 
L 414.72 61.244203 
" style="fill:none;stroke:#b0b0b0;stroke-linecap:square;stroke-width:0.8;"/>
     </g>
     <g id="line2d_134">
      <g>
       <use style="stroke:#000000;stroke-width:0.6;" x="57.6" xlink:href="#m1452913f1e" y="61.244203"/>
      </g>
     </g>
    </g>
    <g id="ytick_37">
     <g id="line2d_135">
      <path clip-path="url(#pb0d802f2f8)" d="M 57.6 54.356568 
L 414.72 54.356568 
" style="fill:none;stroke:#b0b0b0;stroke-linecap:square;stroke-width:0.8;"/>
     </g>
     <g id="line2d_136">
      <g>
       <use style="stroke:#000000;stroke-width:0.6;" x="57.6" xlink:href="#m1452913f1e" y="54.356568"/>
      </g>
     </g>
    </g>
    <g id="ytick_38">
     <g id="line2d_137">
      <path clip-path="url(#pb0d802f2f8)" d="M 57.6 47.468933 
L 414.72 47.468933 
" style="fill:none;stroke:#b0b0b0;stroke-linecap:square;stroke-width:0.8;"/>
     </g>
     <g id="line2d_138">
      <g>
       <use style="stroke:#000000;stroke-width:0.6;" x="57.6" xlink:href="#m1452913f1e" y="47.468933"/>
      </g>
     </g>
    </g>
    <g id="text_17">
     <!-- rot y -->
     <defs>
      <path d="M 30.609375 48.390625 
Q 23.390625 48.390625 19.1875 42.75 
Q 14.984375 37.109375 14.984375 27.296875 
Q 14.984375 17.484375 19.15625 11.84375 
Q 23.34375 6.203125 30.609375 6.203125 
Q 37.796875 6.203125 41.984375 11.859375 
Q 46.1875 17.53125 46.1875 27.296875 
Q 46.1875 37.015625 41.984375 42.703125 
Q 37.796875 48.390625 30.609375 48.390625 
z
M 30.609375 56 
Q 42.328125 56 49.015625 48.375 
Q 55.71875 40.765625 55.71875 27.296875 
Q 55.71875 13.875 49.015625 6.21875 
Q 42.328125 -1.421875 30.609375 -1.421875 
Q 18.84375 -1.421875 12.171875 6.21875 
Q 5.515625 13.875 5.515625 27.296875 
Q 5.515625 40.765625 12.171875 48.375 
Q 18.84375 56 30.609375 56 
z
" id="DejaVuSans-6f"/>
      <path d="M 18.3125 70.21875 
L 18.3125 54.6875 
L 36.8125 54.6875 
L 36.8125 47.703125 
L 18.3125 47.703125 
L 18.3125 18.015625 
Q 18.3125 11.328125 20.140625 9.421875 
Q 21.96875 7.515625 27.59375 7.515625 
L 36.8125 7.515625 
L 36.8125 0 
L 27.59375 0 
Q 17.1875 0 13.234375 3.875 
Q 9.28125 7.765625 9.28125 18.015625 
L 9.28125 47.703125 
L 2.6875 47.703125 
L 2.6875 54.6875 
L 9.28125 54.6875 
L 9.28125 70.21875 
z
" id="DejaVuSans-74"/>
      <path d="M 32.171875 -5.078125 
Q 28.375 -14.84375 24.75 -17.8125 
Q 21.140625 -20.796875 15.09375 -20.796875 
L 7.90625 -20.796875 
L 7.90625 -13.28125 
L 13.1875 -13.28125 
Q 16.890625 -13.28125 18.9375 -11.515625 
Q 21 -9.765625 23.484375 -3.21875 
L 25.09375 0.875 
L 2.984375 54.6875 
L 12.5 54.6875 
L 29.59375 11.921875 
L 46.6875 54.6875 
L 56.203125 54.6875 
z
" id="DejaVuSans-79"/>
     </defs>
     <g transform="translate(20.2375 186.149875)rotate(-90)scale(0.1 -0.1)">
      <use xlink:href="#DejaVuSans-72"/>
      <use x="41.082031" xlink:href="#DejaVuSans-6f"/>
      <use x="102.263672" xlink:href="#DejaVuSans-74"/>
      <use x="141.472656" xlink:href="#DejaVuSans-20"/>
      <use x="173.259766" xlink:href="#DejaVuSans-79"/>
     </g>
    </g>
   </g>
   <g id="line2d_139">
    <path clip-path="url(#pb0d802f2f8)" d="M 87.547463 176.324662 
L 87.777961 176.235821 
L 88.238951 180.326341 
L 88.469447 182.543648 
L 88.699953 183.495726 
L 88.930495 182.23093 
L 89.391488 174.330464 
L 89.621984 173.929131 
M 90.082548 168.767075 
L 90.543541 173.396367 
L 90.774012 170.521297 
L 91.004508 165.926993 
L 91.235005 165.159872 
L 91.465503 163.395431 
L 91.697315 168.570222 
L 91.927811 170.030193 
L 92.158308 163.538633 
L 92.388804 162.627686 
L 92.619301 164.33579 
L 92.849894 170.246157 
L 93.080391 171.626578 
L 93.310887 163.263308 
L 93.541383 162.98496 
L 93.770692 163.45913 
L 94.001188 165.513581 
L 94.231685 169.189237 
L 94.462181 166.970667 
L 94.692582 169.059713 
L 94.923078 169.075698 
L 95.153577 167.206757 
L 95.384073 163.073107 
L 95.615676 164.609256 
L 95.846173 161.708197 
L 96.076669 153.25034 
L 96.307166 150.233753 
L 96.99985 163.493828 
L 97.230346 171.332356 
L 97.460349 173.493425 
L 97.690845 174.331253 
L 98.151838 181.014268 
L 98.380897 191.353677 
L 98.611396 184.771972 
L 98.841892 186.73308 
L 99.30257 181.216073 
L 99.533067 182.980442 
L 99.763563 193.668488 
L 99.994059 195.471124 
L 100.225701 205.869801 
L 100.456197 202.518923 
L 100.686694 186.800177 
L 100.91719 179.196474 
L 101.147798 183.293298 
L 101.608791 172.566505 
L 101.839287 170.146302 
M 102.299028 165.18079 
L 102.529524 161.95315 
L 102.760021 164.681194 
L 102.990517 162.685244 
L 103.220684 163.05658 
L 103.681679 173.238162 
L 104.373404 170.200458 
L 104.6039 173.715674 
L 104.834399 172.714745 
L 105.065549 172.656675 
L 105.296045 173.734337 
L 105.757038 165.4544 
L 105.98763 161.9679 
L 106.218129 164.787989 
L 106.448625 164.230323 
L 106.679121 161.689668 
L 106.909168 166.459939 
L 107.139665 166.441426 
L 107.370239 164.096742 
L 107.831238 168.672009 
L 108.292231 166.41913 
L 108.52273 162.216917 
L 108.984316 169.383309 
L 109.214813 169.71522 
L 109.445309 169.561627 
L 109.905831 168.701559 
L 110.136328 171.815347 
L 110.366824 170.220764 
L 110.596728 165.210904 
L 110.827225 169.419721 
L 111.057905 167.485248 
L 111.518939 171.612617 
L 111.979932 162.272886 
L 112.21043 164.634646 
L 112.903729 186.585928 
L 113.134225 186.040042 
L 113.364722 181.991976 
L 113.595412 171.947819 
L 113.825908 167.922112 
L 114.056404 167.869124 
L 114.286901 163.811264 
L 114.516513 162.441053 
L 114.747009 164.003106 
L 114.977506 167.01124 
L 115.208002 168.356657 
L 115.437693 171.765941 
L 115.898688 167.847715 
L 116.129184 163.00023 
M 116.59066 170.405832 
L 116.821157 172.72241 
L 117.051653 176.992975 
L 117.282131 184.830165 
L 117.512628 186.617481 
L 117.97362 202.430768 
L 118.203302 219.779919 
L 118.433798 223.351922 
L 118.664295 239.109911 
M 119.125694 209.39739 
L 119.356191 209.678915 
L 119.586689 183.752074 
L 120.047783 106.266762 
L 120.27828 86.301734 
L 120.508779 85.11382 
L 120.739275 86.478676 
M 121.199661 165.658168 
L 121.430157 210.200906 
L 121.660653 228.857518 
L 122.121521 239.48845 
L 122.352018 229.045929 
L 122.582514 182.660424 
M 123.504596 106.153143 
L 123.735092 111.463106 
L 124.196199 126.096557 
M 125.350098 246.416886 
L 125.580595 253.249478 
L 125.809881 249.09488 
L 126.040378 249.92708 
L 126.501371 201.447288 
M 127.193894 135.757722 
L 127.654268 100.191899 
L 127.884764 100.828023 
L 128.115263 105.120118 
L 128.806511 140.573502 
M 129.95918 244.908637 
L 130.189676 238.964513 
M 130.649909 243.512959 
L 130.880405 237.384558 
L 131.110902 235.663341 
M 132.264196 105.433737 
L 132.494692 79.289387 
L 132.725189 67.005976 
L 132.95571 74.610031 
L 133.185404 126.482179 
M 133.876893 188.279798 
L 134.107389 182.655408 
M 134.568052 175.146649 
L 134.798548 175.518843 
L 135.029044 173.592253 
M 135.722446 163.060198 
L 135.952941 166.328863 
M 136.415126 174.979244 
L 136.645734 176.286917 
M 137.564735 200.913739 
L 137.795231 200.552735 
L 138.256094 205.124463 
L 138.486591 206.032868 
M 139.409481 145.277108 
L 139.639979 138.435051 
L 139.869695 139.229789 
L 140.100203 127.765831 
L 140.330888 138.696921 
L 140.561184 130.799299 
L 141.022248 123.273286 
L 141.252744 126.439614 
L 141.483241 137.177743 
M 141.94548 163.538216 
L 142.175976 173.879646 
L 142.406472 193.659812 
M 142.866556 212.737344 
L 143.097053 205.490923 
L 143.327549 207.951018 
L 143.55753 199.359625 
L 143.788026 195.278645 
L 144.018523 193.457305 
L 144.249019 198.614685 
L 144.479515 195.67473 
M 144.942087 221.557237 
L 145.172583 218.640781 
L 145.63523 207.283735 
M 146.096223 170.747329 
L 146.326719 155.725917 
L 146.555731 154.551402 
L 146.786229 148.445313 
L 147.016724 148.886644 
L 147.247222 144.078487 
L 147.476168 134.217075 
L 147.706664 139.232678 
L 147.93716 141.6647 
L 148.167657 135.252788 
L 148.628508 145.562422 
L 148.859004 152.444776 
L 149.089503 154.33861 
M 149.551452 181.545023 
L 149.781948 195.223923 
L 150.012444 197.194893 
L 150.473264 188.321332 
M 151.625325 152.819804 
L 152.086591 141.590832 
L 152.547584 138.273777 
L 152.778083 154.649117 
L 153.00848 159.289282 
L 153.238976 153.614358 
L 153.469473 157.442896 
L 153.699971 155.002192 
L 153.931563 143.416067 
L 154.162059 143.125866 
L 154.623054 129.335188 
L 155.084645 142.819326 
L 155.545638 117.891173 
L 155.776135 122.923963 
L 156.23709 152.415508 
L 156.92857 143.79436 
L 157.159067 131.850106 
L 157.389565 130.593917 
L 157.620062 130.570817 
L 158.081549 118.022313 
L 158.312045 127.23935 
L 158.773253 156.703737 
L 159.003749 156.986069 
L 159.234246 155.629621 
L 159.464742 145.4917 
L 159.693949 147.151823 
L 159.924444 147.28075 
L 160.38544 114.728604 
M 160.847048 130.343148 
L 161.30804 152.219574 
L 161.53828 153.064561 
L 161.768776 146.898202 
L 161.999273 146.781124 
L 162.229769 150.501136 
L 162.460626 136.41868 
L 162.691122 134.379994 
L 162.921619 125.645734 
L 163.38225 151.689475 
L 163.612746 166.732842 
L 163.843245 166.475724 
L 164.073741 168.893762 
L 164.303789 166.562801 
L 164.764781 155.453079 
L 164.995278 143.864419 
L 165.225619 141.45167 
L 165.456115 133.326427 
L 165.686612 138.171945 
L 165.917136 147.309999 
L 166.147605 151.041134 
L 166.378656 147.834703 
L 166.609152 150.96033 
L 166.839649 142.474949 
L 167.070145 144.405733 
M 168.221853 120.673527 
L 168.45235 144.136318 
L 168.682848 150.122109 
L 168.913345 147.66186 
L 169.143419 143.129783 
L 169.373915 135.522326 
L 169.60451 140.158919 
L 169.834908 133.107998 
L 170.066395 117.6875 
L 170.296891 114.573016 
L 170.527387 121.415209 
L 171.219167 152.251729 
L 171.449663 157.978213 
L 171.68016 151.023746 
L 171.910753 155.540172 
L 172.141249 153.990982 
L 172.602245 122.665478 
L 172.83297 126.753704 
L 173.52445 161.392428 
L 173.754955 164.965626 
L 173.985452 161.357583 
L 174.215948 148.703881 
L 174.446444 149.679509 
L 174.907664 129.347614 
L 175.13816 126.07985 
L 175.368657 127.378974 
L 175.828846 160.655904 
L 176.059342 156.16571 
L 176.289838 154.660677 
M 176.980686 140.214727 
L 177.441438 114.135417 
L 177.672593 115.531057 
L 177.903089 129.741759 
L 178.364082 165.653385 
L 179.056325 142.34591 
L 179.286821 147.755544 
L 179.748154 121.633349 
L 179.978653 125.788365 
L 180.438914 148.914615 
L 180.66941 174.868547 
L 180.899906 172.064413 
L 181.130403 175.271221 
L 182.282402 123.970355 
L 182.743397 148.595405 
L 182.973893 160.349669 
L 183.204644 157.48052 
L 183.435141 157.062138 
L 183.665637 142.607687 
L 183.896136 147.390696 
M 185.278369 139.385101 
L 185.508865 150.451608 
L 185.739364 146.024346 
L 185.969646 143.948884 
L 186.892768 126.616511 
L 187.123267 118.341138 
L 187.353766 123.91534 
L 187.814756 151.235691 
L 188.044988 155.39085 
L 188.275484 157.041216 
L 188.505981 154.343135 
L 188.736477 157.611103 
L 188.9671 151.896286 
L 189.197597 149.157653 
L 189.428093 144.948076 
L 189.658591 147.055722 
L 189.889459 150.455434 
L 190.119956 155.513127 
L 190.580951 152.878348 
L 190.811441 153.99825 
L 191.502923 139.068031 
L 191.733535 140.229614 
L 191.964032 137.995855 
L 192.194528 137.996437 
L 192.655391 142.154774 
L 192.885887 142.373142 
L 193.116384 146.765963 
L 193.346883 138.717259 
M 194.03717 132.774173 
L 194.267666 128.663415 
M 194.958346 147.331981 
L 195.188844 142.237882 
L 195.649959 138.079083 
L 195.880455 129.451161 
L 196.110952 128.910204 
M 196.803902 114.03257 
L 197.034401 115.355169 
L 197.265442 119.096698 
L 198.187427 168.356456 
L 198.647661 186.737354 
L 198.878158 191.901264 
L 199.338525 177.829103 
L 199.569022 163.514805 
L 200.030014 181.172284 
M 200.491636 167.610594 
L 201.874809 110.412331 
M 202.56635 109.248433 
L 202.796847 111.909582 
L 203.027479 118.153646 
L 203.257975 115.936675 
L 203.488472 104.708552 
L 203.950641 116.578041 
L 204.181138 127.072669 
L 204.411636 143.869005 
L 204.642133 145.122529 
M 205.10187 169.622697 
L 205.332366 186.749755 
L 205.562862 189.631734 
L 205.792619 193.986385 
L 206.023118 191.637036 
L 206.945932 169.509509 
L 207.176428 146.206399 
L 207.637883 130.286922 
L 207.868381 130.42598 
L 208.329374 119.657227 
L 208.55987 120.055944 
L 208.790438 117.669669 
L 209.020934 116.48194 
L 209.251442 114.168305 
L 209.481929 115.897181 
L 209.943756 138.396113 
L 210.404749 169.976879 
L 210.634583 183.802292 
L 211.326072 201.830124 
L 211.556215 184.530362 
L 212.247707 159.80446 
L 212.708498 99.814495 
L 212.938994 104.163944 
L 213.169488 105.619069 
M 214.55123 98.038668 
L 214.781726 115.71484 
L 215.012222 88.369605 
M 215.474018 127.357203 
L 215.704515 139.888835 
L 216.165554 142.522629 
L 216.396051 154.056926 
L 216.626545 154.432426 
L 217.087403 159.036125 
L 217.31793 164.712488 
L 217.548396 165.384429 
L 217.778893 162.848778 
L 218.009496 155.315568 
L 218.239992 159.843481 
L 218.470489 160.024349 
L 218.700985 154.617834 
L 218.931482 156.402531 
L 219.161971 153.991339 
L 219.392468 155.302463 
L 219.622964 153.39559 
L 219.85346 148.926605 
L 220.083946 125.726641 
L 220.314443 120.039961 
M 221.236392 161.128583 
L 221.466888 170.536577 
L 221.697385 187.195261 
L 222.158353 205.040611 
M 224.69294 116.343074 
L 224.92336 111.070368 
L 225.153856 114.821397 
L 225.384352 106.918151 
L 225.615675 93.430922 
L 225.846171 108.267971 
L 226.076667 115.410683 
L 226.769176 172.316823 
L 226.999672 196.144979 
L 227.230171 200.456627 
L 227.460717 207.113663 
L 227.691213 210.202512 
L 227.921712 209.361789 
L 228.382237 191.49926 
L 228.84314 183.598837 
L 229.304133 145.272543 
L 229.534702 141.574898 
L 230.226194 120.985224 
L 230.45595 120.875357 
L 231.147441 100.283239 
M 231.840545 93.821587 
L 232.07115 99.209459 
L 232.302051 111.313355 
L 232.532547 130.332603 
M 235.525717 109.458278 
L 235.756331 109.251856 
M 236.449284 131.626611 
L 236.91011 165.006827 
L 237.371103 202.825279 
L 237.601601 207.085407 
L 237.831378 213.683189 
M 240.137 130.043844 
L 240.8284 103.353201 
L 241.058896 87.357953 
L 241.289395 89.272154 
L 241.519891 95.990144 
L 241.750157 95.776588 
L 241.980653 94.102396 
L 242.441646 131.367909 
L 242.903108 158.639113 
L 243.133729 163.540458 
L 243.364101 177.648154 
L 243.594731 199.596599 
L 243.825227 205.325848 
L 244.28622 204.752173 
L 244.516287 203.517404 
L 244.746785 197.593313 
L 244.977282 195.770005 
L 245.207778 197.063773 
L 245.438438 188.790318 
L 245.89943 161.478847 
L 246.129927 159.012897 
L 246.590806 144.897848 
L 246.821427 144.381401 
L 247.282878 162.954994 
L 247.513375 167.976934 
L 248.204972 211.076602 
L 248.665964 227.680958 
L 248.896461 241.474487 
L 249.126704 242.532384 
L 249.818195 208.783194 
L 250.280137 188.705257 
L 250.510756 197.267184 
L 250.74113 188.579117 
L 250.971626 195.598209 
L 251.201742 211.308256 
L 251.662734 226.851864 
L 251.893231 226.898031 
L 252.123193 221.570344 
L 252.353692 220.03352 
L 252.584188 222.317914 
L 252.814685 213.288676 
L 253.045286 210.48343 
L 253.506278 190.717584 
L 253.967736 154.114694 
L 254.659226 140.449422 
L 254.889502 142.203034 
L 255.119998 150.027291 
L 255.350494 163.912009 
L 255.580991 165.061886 
L 255.8113 176.703986 
L 256.502792 226.735857 
M 257.193906 241.818147 
L 257.424402 243.265871 
L 257.654955 242.601717 
L 257.88556 231.772339 
L 258.11595 227.037366 
L 259.03873 163.787573 
L 259.269227 158.962061 
M 259.959264 162.328928 
L 260.18976 156.609659 
M 260.652341 168.472924 
L 260.882835 183.301343 
L 261.113331 208.561284 
L 261.343598 214.651272 
L 261.805872 238.641777 
L 262.036368 232.318913 
L 262.266865 221.548146 
M 262.9564 220.307668 
L 263.186897 207.444558 
M 263.649606 189.996036 
L 263.880104 183.677344 
L 264.341194 167.819348 
L 264.57169 167.956794 
L 264.802186 167.899075 
L 265.032681 171.520129 
M 265.491237 162.217208 
L 265.952229 169.023317 
L 266.413403 160.106159 
L 266.6439 163.255323 
L 267.106515 143.296248 
M 267.567508 159.769633 
L 267.798004 156.527293 
M 269.178648 134.496772 
L 269.409144 140.546973 
L 269.871879 170.765759 
L 270.102376 173.748652 
L 270.332872 184.327701 
M 270.793923 174.099722 
L 271.024419 168.078149 
L 271.254915 173.18513 
L 271.485414 173.020479 
M 272.175048 181.067365 
L 272.405544 186.854781 
L 272.636066 206.778715 
L 273.098641 211.095577 
L 273.329138 216.852331 
L 273.792071 207.903902 
L 274.022567 212.710229 
L 274.253063 212.877772 
L 274.483562 211.156161 
M 274.942161 194.682824 
L 275.63448 140.41329 
L 275.864979 128.899775 
L 276.095473 124.140392 
L 276.325972 116.724617 
L 276.556802 117.030652 
L 277.017794 113.132973 
L 277.248291 108.039242 
L 277.709043 130.538816 
L 278.399669 166.241184 
M 278.860662 208.172877 
L 279.091158 222.013028 
L 279.320526 225.61916 
L 279.551024 235.751444 
L 280.24313 224.739773 
L 280.473627 228.780055 
L 281.166887 215.169998 
L 281.397383 202.931172 
L 281.858378 157.91656 
L 282.088512 113.073273 
L 282.31901 126.530538 
L 283.010497 103.100882 
M 283.469406 93.647744 
L 283.699912 95.196392 
L 283.930399 101.620514 
L 284.162426 98.62738 
L 285.085001 156.419052 
M 286.23566 223.891006 
L 286.466155 229.736847 
L 286.696651 225.314349 
L 286.926649 229.215347 
L 287.157146 229.453607 
L 287.387645 228.325415 
L 287.618141 245.627805 
M 288.08017 239.871418 
L 288.541163 233.260634 
L 288.772282 240.240038 
L 289.002781 241.412735 
L 289.463774 260.549879 
M 289.922996 237.868319 
L 290.383987 255.179966 
L 290.615113 255.8162 
M 291.076108 232.30634 
L 291.306605 218.471652 
M 292.000022 193.621828 
L 292.230519 188.120337 
M 294.07175 99.516269 
L 294.302246 101.334638 
M 294.764345 109.213848 
L 295.225338 137.434027 
L 296.377525 210.860379 
L 296.608023 211.160653 
L 297.069016 235.796738 
M 298.682781 235.679232 
L 298.913277 218.124911 
M 299.606527 171.806061 
L 300.067298 154.28038 
M 303.29422 93.44674 
L 303.755213 110.404171 
L 303.985895 113.083397 
L 304.677384 140.235532 
L 304.907324 144.136946 
L 306.519627 227.254312 
L 306.750152 228.693796 
L 306.980649 225.355831 
L 307.211145 226.658491 
L 307.441641 224.330757 
M 307.902035 205.831529 
L 308.132531 194.024444 
L 308.36303 206.802502 
M 309.055799 215.089884 
L 309.286293 216.337125 
M 309.979256 178.981473 
L 310.209752 167.163652 
L 310.669664 162.329995 
L 311.130656 143.951515 
L 311.360183 139.551777 
L 312.512399 94.299376 
L 312.742895 89.033572 
L 312.973392 90.341651 
L 313.205036 99.477231 
L 313.435533 102.564653 
L 313.896526 127.996492 
L 315.04947 230.66792 
L 315.278508 238.232264 
L 316.200305 195.882265 
L 316.430801 180.925588 
M 316.891796 168.679465 
L 317.122835 149.6509 
L 317.353146 142.980415 
L 317.583643 154.773565 
L 317.814139 150.916023 
L 318.274612 157.337813 
L 318.505108 150.030283 
L 318.965639 125.803911 
L 319.196136 125.0748 
L 319.426634 117.416119 
L 319.657131 121.219569 
M 320.349716 152.61853 
L 320.810495 174.998771 
L 321.040882 174.672277 
L 321.501875 149.493687 
M 321.963516 151.309705 
L 322.65501 172.459981 
L 322.885506 177.174091 
L 323.116003 185.39522 
L 323.576731 220.255279 
L 323.80723 216.977813 
L 324.037723 200.94802 
L 324.268223 210.181975 
L 324.498962 211.118962 
L 324.72941 202.783574 
L 324.959907 200.031552 
L 325.882077 150.493586 
L 326.112575 151.992199 
L 326.57352 164.812313 
L 326.804017 158.173762 
L 327.034515 139.385935 
L 327.49542 152.872941 
M 327.956415 160.364978 
L 328.186911 172.765433 
L 328.878169 191.25278 
L 329.108665 204.10184 
L 329.33957 201.609974 
L 329.570067 197.241707 
L 329.800565 188.816138 
L 330.031062 188.091365 
L 330.261978 178.440307 
L 330.722973 168.464366 
L 331.875121 124.355338 
L 332.105824 125.361677 
L 332.33632 143.077585 
L 332.566817 149.603817 
L 333.718482 205.471434 
L 334.179614 219.753732 
L 334.410111 219.380459 
L 334.871494 205.561166 
L 335.332486 182.804743 
L 335.793479 164.998552 
L 336.484618 153.386972 
L 337.175901 116.796393 
L 337.406397 115.800311 
L 337.636894 123.433114 
L 338.328786 184.257849 
M 339.250132 189.345644 
L 339.480628 190.914486 
L 339.71033 190.714879 
L 339.940827 192.291698 
L 340.171323 188.311319 
L 340.632905 175.8418 
L 340.863404 169.654366 
L 341.0939 167.968158 
L 341.324397 167.978806 
M 342.019245 170.943755 
L 342.249741 168.802324 
M 342.938095 140.356762 
L 343.168591 126.120688 
M 343.860875 141.107594 
L 344.321708 291.417084 
L 344.552206 295.488 
L 344.782703 276.282436 
L 345.243204 127.906596 
M 345.934693 63.177462 
L 346.16519 80.367455 
L 346.395832 154.151632 
M 346.856825 283.147316 
L 347.087321 278.89102 
L 347.317898 250.843178 
L 347.548394 236.753387 
L 347.778891 241.387067 
L 348.239844 229.248701 
L 348.47034 207.86434 
M 348.931332 151.923039 
L 349.622991 91.169655 
L 349.853494 58.786839 
L 350.083627 53.994815 
L 350.314123 61.10492 
L 350.775116 65.481454 
M 351.235885 87.430231 
L 351.466381 90.403102 
L 351.696878 91.023861 
M 353.310527 91.614205 
L 353.541021 91.474236 
L 353.771653 96.319072 
L 354.00215 93.318272 
L 354.692971 77.372463 
L 354.923468 80.941245 
L 355.615351 102.078389 
L 355.845848 102.375111 
L 356.076344 104.280182 
L 356.537698 103.717509 
L 356.768196 102.537818 
L 356.998693 99.995168 
L 357.459685 80.796072 
M 358.150833 66.323891 
L 358.61171 76.022228 
L 358.842207 71.454791 
L 359.303201 78.20672 
L 359.534065 87.560207 
L 359.995058 90.332182 
L 360.225557 82.57704 
L 360.455682 84.958182 
L 360.686178 83.306506 
L 360.916674 84.826788 
L 361.147171 82.481838 
L 362.300159 118.302134 
L 362.530655 120.119521 
L 362.761151 118.184781 
L 362.99165 114.773517 
L 363.682734 98.244096 
L 363.913233 96.938612 
L 364.143347 91.954345 
L 364.373844 81.349642 
M 365.757203 71.270678 
L 365.987997 72.070374 
L 366.218493 68.854419 
L 366.44899 71.606224 
L 366.679488 84.112677 
L 366.910621 80.482248 
L 367.141117 89.194404 
L 367.371614 89.529285 
L 367.832608 99.432543 
L 368.292989 88.08793 
L 368.523488 88.71342 
L 369.215227 135.757274 
L 370.137356 208.433176 
M 371.05817 272.869704 
L 371.288669 277.550413 
L 371.519163 273.955637 
M 371.980904 254.887219 
L 372.2114 250.81142 
M 373.134761 112.636595 
L 373.365258 93.010091 
M 374.054739 79.240991 
L 374.978466 148.504591 
L 375.670536 189.840315 
L 376.131529 177.704665 
L 376.360899 161.861118 
M 377.513172 128.192796 
L 377.743671 127.343743 
L 377.974167 130.136453 
L 378.434847 131.885734 
L 378.895842 141.582665 
L 379.126338 147.74722 
L 379.356559 149.565542 
L 379.587056 144.971424 
L 380.048048 126.621509 
L 380.509054 113.981299 
L 380.739551 111.671435 
L 381.200962 133.084817 
L 382.814291 241.265779 
M 383.505022 254.878841 
L 383.735518 249.55438 
M 384.428503 215.782008 
L 385.120174 169.220201 
L 385.581167 131.195839 
L 385.810588 126.099385 
M 386.271583 125.243572 
L 386.50208 123.023255 
M 387.194437 116.526694 
L 387.424933 112.233468 
M 388.118143 140.085008 
L 388.579136 163.618344 
L 389.03964 204.609677 
L 389.500633 231.600266 
M 390.880762 252.85266 
L 391.111259 244.409271 
L 391.341755 230.862713 
M 391.805365 195.233832 
L 392.266357 162.047544 
L 392.727058 130.629385 
L 392.957555 131.089682 
L 393.188051 126.734785 
L 393.417475 115.901733 
L 394.108967 120.375614 
L 394.338954 124.153849 
M 394.799946 137.541148 
L 395.030443 141.35634 
L 395.030443 141.35634 
" style="fill:none;stroke:#ff0000;stroke-linecap:square;"/>
   </g>
   <g id="line2d_140">
    <path clip-path="url(#pb0d802f2f8)" d="M 87.547463 175.1048 
L 87.777961 177.635486 
L 88.008454 176.945677 
L 88.238951 181.248233 
L 88.469447 181.868742 
L 88.699953 183.741512 
L 88.930495 181.875653 
L 89.391488 175.266859 
L 89.621984 173.833349 
M 90.082548 168.902602 
L 90.313044 172.049712 
L 90.543541 173.140605 
L 90.774012 169.926575 
L 91.004508 169.369881 
L 91.465503 161.31093 
L 91.927811 171.287062 
L 92.158308 162.861871 
L 92.388804 161.894388 
L 92.619301 164.925872 
L 92.849894 171.240756 
L 93.080391 170.56738 
L 93.310887 163.258983 
L 93.541383 163.613213 
L 94.001188 165.301179 
L 94.231685 168.788525 
L 94.462181 167.669817 
L 94.923078 169.097369 
L 95.384073 163.240215 
L 95.615676 164.754343 
L 95.846173 161.597116 
L 96.076669 153.283503 
L 96.307166 150.06218 
L 96.538857 153.316088 
L 97.460349 173.111932 
L 97.690845 174.074113 
L 98.380897 186.065261 
L 98.611396 185.414146 
L 98.841892 186.471996 
L 99.30257 181.320555 
L 99.533067 182.942336 
L 100.225701 205.044365 
L 100.456197 201.3254 
L 100.91719 177.266295 
L 101.147798 183.72373 
L 101.839287 169.416448 
M 102.299028 166.174256 
L 102.529524 161.007973 
L 102.760021 165.385817 
L 102.990517 163.113802 
L 103.220684 162.345678 
L 103.45118 168.819647 
L 103.681679 172.017975 
L 103.912172 171.268488 
L 104.142907 170.047178 
L 104.373404 169.81857 
L 104.6039 173.816012 
L 104.834399 172.728586 
L 105.065549 173.846882 
L 105.296045 172.825342 
L 105.98763 162.447103 
L 106.218129 165.218518 
L 106.448625 164.365697 
L 106.679121 160.799748 
L 106.909168 167.427677 
L 107.139665 167.60954 
L 107.370239 164.053977 
L 107.831238 168.812388 
L 108.061735 168.299069 
L 108.292231 166.205748 
L 108.52273 162.582177 
L 109.214813 169.272053 
L 109.445309 169.38499 
L 109.675335 169.92391 
L 109.905831 168.749693 
L 110.136328 172.237267 
L 110.366824 170.554813 
L 110.596728 166.779823 
L 110.827225 169.630182 
L 111.057905 167.123976 
L 111.518939 168.750719 
L 111.749435 166.48635 
L 111.979932 162.274002 
L 112.21043 164.491176 
L 112.903729 187.083658 
L 113.134225 186.371278 
L 113.364722 182.690114 
L 113.595412 172.557559 
L 113.825908 167.993529 
L 114.056404 168.307759 
L 114.286901 163.260523 
L 114.516513 161.908947 
L 114.977506 167.265527 
L 115.208002 168.278359 
L 115.437693 170.429255 
L 115.668189 169.763036 
L 115.898688 167.690193 
L 116.129184 162.673527 
M 116.59066 170.78286 
L 116.821157 172.086151 
L 117.051653 176.908473 
L 117.282131 184.122285 
L 117.512628 186.866057 
L 118.433798 223.498327 
L 118.664295 239.803339 
M 119.125694 211.425342 
L 119.356191 208.572686 
L 119.586689 183.555392 
L 120.047783 104.939027 
L 120.27828 84.010193 
L 120.508779 84.232472 
L 120.739275 88.241751 
M 121.199661 165.941803 
L 121.430157 211.286287 
L 121.660653 227.606017 
L 122.121521 239.06918 
L 122.352018 228.877849 
L 122.582514 181.785245 
M 123.504596 108.071699 
L 123.735092 111.193047 
L 124.196199 127.397732 
M 125.350098 245.754005 
L 125.580595 253.571352 
L 125.809881 249.501932 
L 126.040378 241.013312 
L 126.501371 203.054903 
M 127.193894 138.157684 
L 127.42439 112.33362 
L 127.654268 99.115261 
L 127.884764 99.471296 
L 128.115263 104.68943 
L 128.576012 131.004451 
L 128.806511 139.788144 
M 129.95918 244.655843 
L 130.189676 240.303728 
M 130.649909 234.919393 
L 130.880405 234.763972 
L 131.110902 232.731732 
M 132.264196 102.197441 
L 132.494692 78.652045 
L 132.725189 66.620206 
L 132.95571 73.989273 
L 133.185404 124.084257 
M 133.876893 188.150609 
L 134.107389 183.391463 
M 134.568052 175.887263 
L 134.798548 176.485689 
L 135.029044 172.301867 
M 135.722446 163.349327 
L 135.952941 167.02435 
M 136.415126 174.666973 
L 136.645734 176.735853 
M 137.564735 199.149625 
L 137.795231 203.781435 
L 138.025598 201.379304 
L 138.256094 205.95333 
L 138.486591 205.473257 
M 139.409481 145.959057 
L 139.639979 136.463421 
L 139.869695 138.323437 
L 140.100203 139.230136 
L 140.330888 139.635974 
L 140.791752 126.785724 
L 141.022248 122.005206 
L 141.252744 125.3412 
L 141.483241 135.953346 
M 141.94548 166.331417 
L 142.175976 175.135587 
L 142.406472 195.091252 
M 142.866556 208.041043 
L 143.097053 206.087061 
L 143.327549 208.913327 
L 143.55753 197.518375 
L 144.018523 192.693559 
L 144.249019 196.164782 
L 144.479515 195.021539 
M 144.942087 217.433351 
L 145.172583 219.047034 
L 145.63523 207.479858 
M 146.096223 171.858782 
L 146.326719 156.671624 
L 147.016724 146.318744 
L 147.247222 143.74195 
L 147.476168 135.474985 
L 147.706664 138.349542 
L 147.93716 138.542132 
L 148.167657 135.146406 
L 149.089503 155.922273 
M 149.551452 182.042128 
L 149.781948 195.503281 
L 150.012444 197.236029 
L 150.473264 187.690329 
M 151.625325 153.56214 
L 151.855821 144.670485 
L 152.086591 142.203367 
L 152.317088 136.842513 
L 152.547584 137.822339 
L 152.778083 154.564161 
L 153.00848 160.005539 
L 153.238976 154.386207 
L 153.699971 156.091359 
L 153.931563 148.346295 
L 154.162059 145.015174 
L 154.392558 134.228222 
L 154.623054 129.227537 
L 155.084645 142.29036 
L 155.545638 116.461763 
L 155.776135 123.351259 
L 156.23709 152.154097 
L 156.467589 148.87895 
L 156.698085 148.507753 
L 156.92857 142.771789 
L 157.159067 132.080736 
L 157.389565 129.807174 
L 157.620062 132.312007 
L 158.081549 115.667321 
L 158.773253 155.492174 
L 159.003749 157.225579 
L 159.234246 155.326947 
L 159.464742 145.915652 
L 159.693949 143.995113 
L 159.924444 147.243758 
L 160.38544 114.240656 
M 160.847048 130.346891 
L 161.30804 153.864802 
L 161.53828 153.396953 
L 161.768776 148.701626 
L 161.999273 147.65079 
L 162.229769 150.188881 
L 162.691122 133.579677 
L 162.921619 127.114036 
L 163.152115 135.018189 
L 163.612746 166.381285 
L 163.843245 167.038183 
L 164.073741 168.194742 
L 164.303789 166.224068 
L 164.764781 156.446184 
L 164.995278 143.783683 
L 165.225619 142.299468 
L 165.456115 133.083982 
L 165.686612 137.452384 
L 165.917136 148.354576 
L 166.147605 152.43948 
L 166.378656 147.857428 
L 166.609152 150.489886 
L 166.839649 144.339594 
L 167.070145 150.019072 
M 168.221853 125.511028 
L 168.45235 144.944668 
L 168.682848 149.74431 
L 169.143419 142.756853 
L 169.373915 135.226605 
L 169.60451 139.542281 
L 169.834908 133.662373 
L 170.066395 118.799632 
L 170.296891 112.600692 
L 171.219167 152.824481 
L 171.449663 158.634915 
L 171.68016 149.759092 
L 171.910753 155.613944 
L 172.141249 153.408226 
L 172.602245 124.764048 
L 172.83297 126.117741 
L 173.294124 154.438877 
L 173.52445 159.001944 
L 173.754955 166.483168 
L 173.985452 162.376963 
L 174.215948 149.627033 
L 174.446444 149.131728 
L 174.907664 128.859353 
L 175.13816 126.17418 
L 175.368657 127.166647 
L 175.828846 159.781489 
L 176.289838 154.14415 
M 176.980686 138.609825 
L 177.441438 112.357418 
L 177.672593 115.554404 
L 177.903089 128.250677 
L 178.364082 165.395534 
L 178.595332 160.190927 
L 178.825829 147.984184 
L 179.056325 142.303617 
L 179.286821 148.546931 
L 179.748154 123.833735 
L 179.978653 127.274552 
L 180.209149 137.775879 
L 180.66941 175.202876 
L 180.899906 171.764219 
L 181.130403 174.697131 
L 182.282402 124.82149 
L 182.512898 132.860157 
L 182.973893 161.144824 
L 183.204644 157.599769 
L 183.435141 159.156076 
L 183.665637 139.010619 
L 183.896136 145.432585 
M 185.278369 141.808006 
L 185.508865 152.472757 
L 185.739364 139.277844 
L 185.969646 146.630215 
L 186.200142 137.849309 
L 186.430638 138.130348 
L 186.661135 134.478104 
L 187.123267 119.156069 
L 187.353766 123.931518 
L 187.814756 150.297782 
L 188.044988 156.69929 
L 188.505981 153.705016 
L 188.736477 157.557385 
L 188.9671 150.804746 
L 189.197597 149.975883 
L 189.428093 146.244207 
L 189.658591 145.660969 
L 189.889459 152.619112 
L 190.119956 155.33457 
L 190.350452 152.233514 
L 190.580951 152.347367 
L 190.811441 156.615662 
L 191.502923 137.463957 
L 191.733535 139.771907 
L 191.964032 139.019156 
L 192.194528 137.406536 
L 192.425024 138.601332 
L 192.655391 142.163784 
L 192.885887 142.650701 
L 193.116384 146.764455 
L 193.346883 138.583265 
M 194.03717 134.368804 
L 194.267666 129.173231 
M 194.958346 144.656856 
L 195.188844 141.067615 
L 195.419463 140.460466 
L 195.649959 138.350851 
L 195.880455 129.418896 
L 196.110952 129.484 
M 196.803902 113.0477 
L 197.034401 114.824157 
L 197.265442 120.588912 
L 197.495938 131.612737 
L 197.956933 160.873663 
L 198.187427 167.744413 
L 198.647661 187.354918 
L 198.878158 193.400923 
L 199.569022 164.764495 
L 200.030014 183.359195 
M 200.491636 164.061329 
L 200.722135 157.985944 
L 201.874809 111.901437 
M 202.56635 105.429937 
L 203.027479 116.651892 
L 203.257975 115.946912 
L 203.488472 105.666832 
L 204.181138 125.846394 
L 204.411636 144.087136 
L 204.642133 144.369709 
M 205.10187 170.298943 
L 205.332366 185.763021 
L 205.562862 189.686492 
L 205.792619 195.890104 
L 206.023118 193.500824 
L 206.48411 177.598849 
L 206.715436 180.068783 
L 206.945932 169.818449 
L 207.176428 144.799906 
L 207.637883 130.854429 
L 207.868381 131.317525 
L 208.329374 120.470467 
L 208.55987 119.250858 
L 208.790438 118.872997 
L 209.020934 114.687915 
L 209.251442 113.035418 
L 209.481929 116.549795 
L 209.713258 124.931473 
L 210.634583 183.133089 
L 211.095576 196.113861 
L 211.326072 203.332893 
L 211.556215 184.429805 
L 212.247707 157.95704 
L 212.708498 99.494626 
L 213.169488 106.404829 
M 214.55123 96.476691 
L 214.781726 114.430395 
L 215.012222 89.049613 
M 215.474018 127.957719 
L 215.704515 139.845622 
L 216.165554 142.895743 
L 216.396051 154.887175 
L 216.626545 154.095935 
L 217.087403 158.923508 
L 217.31793 164.727194 
L 217.548396 165.337619 
L 217.778893 162.414545 
L 218.009496 154.359604 
L 218.239992 160.246959 
L 218.470489 159.910868 
L 218.700985 155.667919 
L 218.931482 156.471244 
L 219.161971 154.796671 
L 219.392468 154.148407 
L 219.622964 154.535932 
L 219.85346 149.486196 
L 220.083946 124.299123 
L 220.314443 122.105034 
M 221.236392 161.330042 
L 221.466888 170.872158 
L 221.697385 187.070734 
L 222.158353 204.567955 
M 224.69294 115.451346 
L 224.92336 107.371317 
L 225.153856 114.946576 
L 225.384352 107.9284 
L 225.615675 95.602705 
L 225.846171 108.999986 
L 226.076667 114.829752 
L 226.769176 171.473521 
L 226.999672 196.31723 
L 227.230171 200.323375 
L 227.460717 208.219312 
L 227.691213 210.732039 
L 227.921712 209.954422 
L 228.382237 192.299013 
L 228.84314 183.512338 
L 229.304133 145.098164 
L 229.534702 142.753551 
L 229.995695 130.000203 
L 230.226194 122.877418 
L 230.686446 117.492976 
L 231.147441 101.330599 
M 231.840545 93.553993 
L 232.07115 100.777741 
L 232.532547 129.401164 
M 235.525717 109.879867 
L 235.756331 108.882939 
M 236.449284 131.69501 
L 236.67978 142.883794 
L 237.371103 202.101559 
L 237.831378 214.377489 
M 240.137 132.845421 
L 240.367496 120.993365 
L 240.597992 117.398634 
L 241.058896 85.692591 
L 241.289395 90.16073 
L 241.519891 97.248792 
L 241.750157 96.040468 
L 241.980653 93.694897 
L 242.441646 131.088366 
L 242.903108 158.580234 
L 243.133729 161.7868 
L 243.825227 205.538434 
L 244.055724 204.979995 
L 244.28622 206.385057 
L 244.516287 202.777226 
L 244.746785 196.410394 
L 244.977282 194.897705 
L 245.207778 196.422061 
L 245.438438 188.386506 
L 245.89943 161.338507 
L 246.129927 158.878829 
L 246.590806 143.647297 
L 246.821427 144.436224 
L 247.282878 163.079665 
L 247.513375 168.274915 
L 248.204972 211.417241 
L 248.896461 239.072579 
L 249.126704 240.113036 
L 249.3572 231.641903 
L 249.587699 215.515723 
L 249.818195 209.214682 
L 250.280137 191.024817 
L 250.510756 194.493504 
L 250.74113 193.445541 
L 250.971626 197.420466 
L 251.201742 211.328682 
L 251.432238 217.526859 
L 251.662734 230.410348 
L 251.893231 224.274407 
L 252.123193 222.612056 
L 252.353692 217.971854 
L 252.584188 222.515139 
L 252.814685 213.267204 
L 253.045286 210.697558 
L 253.506278 191.51278 
L 253.967736 155.099931 
L 254.428729 146.739851 
L 254.659226 140.208704 
L 254.889502 140.887321 
L 255.350494 162.164217 
L 255.580991 165.721379 
L 255.8113 173.879645 
L 256.272295 206.700423 
L 256.502792 215.739064 
M 257.193906 242.682569 
L 257.424402 252.18593 
L 257.88556 229.406018 
L 258.11595 228.089526 
L 259.03873 163.253062 
L 259.269227 157.194129 
M 259.959264 165.334768 
L 260.18976 153.614234 
M 260.652341 169.539827 
L 260.882835 181.737898 
L 261.113331 209.67594 
L 261.343598 215.853969 
L 261.805872 239.139528 
L 262.266865 223.057675 
M 262.9564 221.120004 
L 263.186897 209.701288 
M 263.649606 189.984598 
L 263.880104 183.596038 
L 264.341194 168.262267 
L 264.57169 167.134485 
L 264.802186 171.490449 
L 265.032681 171.142457 
M 265.491237 161.409648 
L 265.721733 167.172222 
L 265.952229 168.739183 
L 266.182907 166.727514 
L 266.413403 159.773129 
L 266.6439 163.825868 
L 266.874396 150.450994 
L 267.106515 144.635515 
M 267.567508 160.413114 
L 267.798004 156.815982 
M 269.178648 133.986875 
L 269.409144 140.117021 
L 269.871879 169.303615 
L 270.102376 174.770164 
L 270.332872 182.927168 
M 270.793923 174.429007 
L 271.024419 168.219359 
L 271.254915 173.376305 
L 271.485414 172.462222 
M 272.175048 179.673514 
L 272.405544 187.717221 
L 272.636066 205.205235 
L 272.868145 207.373904 
L 273.329138 217.74433 
L 273.559634 213.502415 
L 273.792071 207.147489 
L 274.022567 213.904239 
L 274.483562 211.168569 
M 274.942161 190.798573 
L 276.095473 121.831156 
L 276.325972 116.191845 
L 276.556802 113.870729 
L 276.787298 116.287953 
L 277.248291 107.923421 
L 278.399669 168.104292 
M 278.860662 209.126645 
L 279.091158 221.538814 
L 279.320526 223.452513 
L 279.551024 231.172259 
L 279.781519 233.925588 
L 280.012019 225.824572 
L 280.24313 231.559825 
L 280.473627 230.840829 
L 280.704123 222.689776 
L 281.166887 217.765287 
L 281.627879 181.970641 
L 282.088512 140.499539 
L 282.780001 109.149112 
L 283.010497 101.666139 
M 283.469406 94.597006 
L 283.699912 93.786994 
L 283.930399 100.491522 
L 284.162426 100.906715 
L 285.085001 156.633066 
M 286.23566 224.442807 
L 286.466155 231.567058 
L 286.696651 226.88637 
L 286.926649 230.776611 
L 287.157146 229.872461 
L 287.387645 230.008259 
L 287.618141 246.145982 
M 288.08017 239.81858 
L 288.541163 231.901154 
L 289.463774 260.007385 
M 289.922996 242.146655 
L 290.15349 251.2492 
L 290.383987 255.775654 
L 290.615113 255.302492 
M 291.076108 232.028159 
L 291.306605 216.601 
M 292.000022 193.979912 
L 292.230519 188.163423 
M 294.07175 98.729795 
L 294.302246 100.954892 
M 294.764345 109.680532 
L 295.456654 151.846268 
L 295.917647 179.854602 
L 297.069016 234.984491 
M 298.682781 235.226202 
L 298.913277 218.912611 
M 299.606527 173.265511 
L 300.067298 153.193031 
M 303.29422 93.767474 
L 303.755213 109.960061 
L 303.985895 113.310899 
L 304.677384 139.739591 
L 304.907324 143.937726 
L 306.289131 220.579727 
L 306.519627 226.48016 
L 306.750152 226.855082 
L 306.980649 225.55036 
L 307.211145 227.810168 
L 307.441641 224.049774 
M 307.902035 203.745102 
L 308.132531 195.585569 
L 308.36303 205.165473 
M 309.055799 215.394435 
L 309.286293 216.303679 
M 309.979256 178.664439 
L 310.209752 168.160086 
L 310.669664 163.498802 
L 311.130656 143.364413 
L 311.360183 140.155098 
L 312.512399 94.054398 
L 312.742895 88.024917 
L 312.973392 90.161916 
L 313.896526 129.069926 
L 315.278508 237.575326 
L 315.509004 229.768041 
L 315.739501 215.289807 
L 315.969999 210.335159 
L 316.430801 180.396102 
M 316.891796 168.428493 
L 317.122835 148.980224 
L 317.353146 144.180829 
L 317.583643 155.371925 
L 317.814139 150.647969 
L 318.274612 157.009614 
L 318.505108 149.243375 
L 318.735607 137.473287 
L 318.965639 133.424686 
L 319.426634 116.355915 
L 319.657131 121.18168 
M 320.349716 151.073497 
L 320.810495 175.138683 
L 321.040882 174.257784 
L 321.501875 149.753325 
M 321.963516 153.469515 
L 322.194015 157.695647 
L 322.65501 171.793588 
L 322.885506 176.053868 
L 323.116003 186.180845 
L 323.576731 220.983917 
L 323.80723 216.177306 
L 324.037723 204.073055 
L 324.268223 208.256021 
L 324.498962 210.322036 
L 324.959907 200.015703 
L 325.882077 150.447268 
L 326.112575 151.666122 
L 326.57352 163.49355 
L 326.804017 159.984257 
L 327.034515 143.292627 
L 327.49542 151.340083 
M 327.956415 160.782497 
L 328.186911 171.860216 
L 328.417176 177.446284 
L 329.108665 199.898908 
L 329.33957 200.843133 
L 329.570067 198.105053 
L 329.800565 187.798962 
L 330.031062 188.353547 
L 330.492477 172.609043 
L 330.722973 168.577983 
L 331.18363 149.949288 
L 331.414126 145.674977 
L 331.644625 128.77873 
L 331.875121 124.492706 
L 332.105824 126.691567 
L 332.566817 149.685178 
L 333.718482 205.756922 
L 334.179614 219.004189 
L 334.410111 220.135428 
L 334.871494 204.878098 
L 335.562983 173.626929 
L 336.023625 160.694887 
L 336.254121 157.617065 
L 336.484618 152.928492 
L 336.715114 142.421669 
L 336.945403 125.641608 
L 337.175901 117.444716 
L 337.406397 115.983239 
L 337.636894 123.347499 
L 338.328786 184.816694 
M 339.250132 190.695166 
L 339.480628 189.724177 
L 339.71033 189.861496 
L 339.940827 192.227726 
L 340.171323 188.14546 
L 340.863404 168.745404 
L 341.0939 167.444983 
L 341.324397 168.621042 
M 342.019245 171.277205 
L 342.249741 168.922521 
M 342.938095 139.841408 
L 343.168591 125.810742 
M 343.860875 139.542229 
L 344.321708 290.223209 
L 344.552206 294.744686 
L 344.782703 276.617263 
L 345.243204 128.085213 
M 345.934693 62.605591 
L 346.16519 78.643617 
L 346.395832 151.81359 
M 346.856825 284.255792 
L 347.087321 276.726749 
L 347.317898 250.672282 
L 347.548394 238.189602 
L 347.778891 241.321354 
L 348.239844 230.001533 
L 348.47034 208.438402 
M 348.931332 152.079218 
L 349.622991 91.212978 
L 349.853494 60.152795 
L 350.083627 53.568 
L 350.314123 60.388509 
L 350.544792 59.933041 
L 350.775116 68.198154 
M 351.235885 83.56208 
L 351.466381 93.668738 
L 351.696878 87.131026 
M 353.310527 90.941198 
L 353.541021 89.242358 
L 353.771653 97.747294 
L 354.00215 95.3017 
L 354.463143 80.768662 
L 354.692971 78.949914 
L 354.923468 79.985089 
L 355.153964 86.968485 
L 355.38446 97.684369 
L 355.615351 102.780923 
L 355.845848 101.492531 
L 356.076344 104.214127 
L 356.30684 103.277541 
L 356.537698 104.555736 
L 356.998693 99.451337 
L 357.229189 93.097623 
L 357.459685 80.576326 
M 358.150833 69.109992 
L 358.61171 73.889461 
L 358.842207 71.626369 
L 359.072703 72.835958 
L 359.303201 77.047479 
L 359.764562 90.384615 
L 359.995058 89.466903 
L 360.225557 83.868075 
L 360.455682 84.564708 
L 360.686178 84.452735 
L 361.147171 80.024238 
L 361.838958 105.66008 
L 362.069455 114.053777 
L 362.530655 120.96771 
L 362.761151 116.486002 
L 362.99165 114.962208 
L 363.682734 97.923978 
L 363.913233 95.886171 
L 364.143347 90.862619 
L 364.373844 81.891079 
M 365.757203 70.511487 
L 366.218493 69.956095 
L 366.44899 71.819594 
L 366.679488 81.71923 
L 367.371614 87.833211 
L 367.832608 98.129716 
L 368.292989 87.488245 
L 368.523488 89.31293 
L 368.98473 116.175786 
L 370.137356 208.409224 
M 371.05817 274.154792 
L 371.288669 270.276088 
L 371.519163 272.053911 
M 371.980904 254.954887 
L 372.2114 251.404631 
M 373.134761 114.076212 
L 373.365258 92.081165 
M 374.054739 79.593604 
L 375.44004 178.237319 
L 375.670536 190.245937 
L 376.131529 177.3179 
L 376.360899 162.311229 
M 377.513172 127.000861 
L 377.743671 128.160817 
L 377.974167 130.489053 
L 378.434847 132.065731 
L 378.895842 142.052872 
L 379.356559 149.738997 
L 379.587056 144.858192 
L 380.278643 118.189323 
L 380.509054 112.773755 
L 380.739551 111.426197 
L 381.200962 132.314181 
L 382.583793 227.830873 
L 382.814291 239.208275 
M 383.505022 253.046629 
L 383.735518 248.823481 
M 384.428503 216.261757 
L 385.120174 169.684662 
L 385.581167 131.390159 
L 385.810588 128.252117 
M 386.271583 125.834456 
L 386.50208 123.9154 
M 387.194437 115.396602 
L 387.424933 111.996332 
M 388.118143 139.713101 
L 388.809144 187.268994 
L 389.270136 222.322646 
L 389.500633 230.953132 
M 390.880762 250.843476 
L 391.111259 244.019186 
L 391.341755 228.15732 
M 391.805365 196.124977 
L 392.266357 162.91004 
L 392.727058 130.647405 
L 392.957555 130.797622 
L 393.188051 127.079409 
L 393.417475 114.450329 
L 393.878468 118.395487 
L 394.108967 118.016735 
L 394.338954 125.251072 
M 394.799946 136.797113 
L 395.030443 141.016507 
L 395.030443 141.016507 
" style="fill:none;stroke:#0000ff;stroke-linecap:square;"/>
   </g>
   <g id="line2d_141">
    <path clip-path="url(#pb0d802f2f8)" d="M 74.17847 168.185251 
L 74.408967 163.834615 
L 74.639463 173.513459 
L 74.870062 170.963812 
L 75.100558 176.397068 
L 75.561554 170.456334 
L 75.792072 172.162723 
L 76.022568 170.838415 
L 76.253065 173.601484 
L 76.483561 173.781928 
L 76.714063 172.591803 
L 76.944559 172.430453 
L 77.175056 173.694911 
L 77.636079 172.848593 
L 77.866575 170.668976 
L 78.097071 171.908729 
L 78.327568 173.757782 
L 78.558042 172.131588 
L 79.019038 170.903952 
L 79.249534 171.887744 
L 79.480061 171.973325 
L 79.941053 169.980785 
L 80.402067 173.5751 
L 80.632563 172.982611 
L 80.863059 169.049091 
L 81.093563 170.006725 
L 81.324052 171.513555 
L 81.554625 171.58986 
L 81.785122 171.802325 
L 82.015618 171.347205 
L 82.246114 171.670966 
L 82.476586 170.339486 
L 82.707085 170.839336 
L 82.937581 171.659477 
L 83.168077 170.887423 
L 83.398527 169.690518 
L 83.629023 171.187816 
L 83.85952 170.584761 
L 84.320501 173.646025 
L 84.550998 172.844237 
L 84.781494 173.531488 
L 85.011991 171.145281 
L 85.242497 172.687206 
L 85.473106 172.548109 
L 85.70349 171.906814 
L 85.933986 171.813475 
L 86.164473 171.995289 
L 86.394973 171.825386 
L 86.855965 170.684762 
L 87.316966 176.798534 
M 122.813104 128.344572 
L 123.043601 113.01503 
L 123.274099 108.044929 
M 124.426698 136.830448 
L 124.657194 149.577001 
L 125.119602 222.491549 
M 126.732899 184.052998 
L 126.963398 159.752708 
M 129.037016 165.816055 
L 129.498187 212.653005 
L 129.728684 234.363723 
M 131.342392 228.979656 
L 131.57289 227.290936 
M 133.4159 167.636917 
L 133.646396 185.993442 
M 135.261452 170.090671 
L 135.49195 167.66669 
M 136.876119 178.897859 
L 137.103742 178.784924 
L 137.334238 187.691459 
M 138.717087 191.22 
L 139.178981 157.889812 
M 150.70376 185.660729 
L 150.934257 185.288589 
L 151.394829 168.251822 
M 176.519453 141.289346 
L 176.749949 143.8776 
M 193.576174 133.036941 
L 193.806671 132.106716 
M 194.497353 127.619158 
L 194.727849 130.084744 
M 196.342909 133.163563 
L 196.573406 129.484338 
M 213.398439 88.067869 
L 213.628935 74.275981 
M 214.089928 66.37412 
L 214.320733 72.81614 
M 220.544941 110.945892 
L 220.775438 117.384308 
L 221.005941 138.945424 
M 231.379551 99.064373 
L 231.610049 95.721193 
M 233.221291 202.838626 
L 233.451787 198.988572 
L 234.142531 151.283175 
L 234.603526 131.221429 
M 235.064724 105.461813 
L 235.295224 110.601733 
M 235.988291 113.023929 
L 236.218787 117.610345 
M 238.061874 217.05139 
L 238.753277 181.695328 
L 239.444893 133.403972 
L 239.906504 128.040516 
M 256.732913 230.861728 
L 256.963409 237.44499 
M 259.498269 155.430098 
L 259.728767 163.183999 
M 262.495408 230.650401 
L 262.725904 232.326549 
M 268.026382 156.382416 
L 268.256877 157.580716 
M 268.717869 148.017179 
L 268.9482 143.844476 
M 271.714052 172.350476 
L 271.944551 174.426862 
M 285.776493 195.043436 
L 286.005162 211.043561 
M 291.539029 204.002939 
L 291.769526 194.919666 
M 292.459874 176.419449 
L 292.920868 129.926629 
L 293.151365 119.5513 
L 293.61076 110.71166 
L 293.841253 100.081132 
M 297.298761 232.839813 
L 297.529258 225.519741 
L 298.452285 245.423882 
M 299.145534 199.589794 
L 299.376031 185.777338 
M 308.594806 211.03393 
L 308.825303 210.492308 
M 309.518263 198.741796 
L 309.74876 180.254185 
M 319.888721 122.339857 
L 320.119219 133.306702 
M 338.55928 189.825915 
L 338.789137 190.456743 
L 339.019638 186.377872 
M 341.55825 167.747267 
L 341.788748 166.149814 
M 342.4771 166.859558 
L 342.707599 154.801783 
M 343.399882 122.346435 
L 343.630379 114.348653 
M 345.473701 86.190158 
L 345.704197 71.689464 
M 352.618818 79.853466 
L 353.08003 87.231751 
M 357.689841 71.530196 
L 357.920337 69.867197 
M 365.065714 84.765161 
L 365.29621 73.965737 
L 365.526707 73.55318 
M 373.593744 82.3266 
L 373.82424 71.814248 
M 376.591586 143.432291 
L 377.052388 119.581744 
L 377.282676 116.325545 
M 383.044029 250.856722 
L 383.274526 256.680963 
M 383.96751 240.239319 
L 384.198006 228.938722 
M 386.733444 120.257122 
L 386.96394 115.174288 
M 387.65715 116.093202 
L 387.887647 128.281465 
M 389.728634 239.597064 
L 389.959132 252.760042 
L 390.189627 251.315652 
L 390.420125 264.889989 
L 390.650266 262.934104 
M 395.260791 152.985899 
L 395.721783 168.809232 
L 395.95228 170.465958 
L 396.182318 175.185125 
L 396.412815 174.894793 
L 396.643311 171.517487 
L 396.873807 172.177143 
L 397.104379 171.389902 
L 397.334878 169.783683 
L 397.79587 165.328387 
L 398.02628 168.704359 
L 398.487273 171.354413 
L 73.832727 173.650183 
L 74.063221 170.418642 
L 74.293718 163.952369 
L 74.754815 173.260178 
L 74.985311 173.489269 
L 75.215808 174.627562 
L 75.446304 171.127699 
L 75.446304 171.127699 
" style="fill:none;stroke:#008000;stroke-linecap:square;"/>
   </g>
   <g id="patch_3">
    <path d="M 57.6 307.584 
L 57.6 41.472 
" style="fill:none;stroke:#000000;stroke-linecap:square;stroke-linejoin:miter;stroke-width:0.8;"/>
   </g>
   <g id="patch_4">
    <path d="M 414.72 307.584 
L 414.72 41.472 
" style="fill:none;stroke:#000000;stroke-linecap:square;stroke-linejoin:miter;stroke-width:0.8;"/>
   </g>
   <g id="patch_5">
    <path d="M 57.6 307.584 
L 414.72 307.584 
" style="fill:none;stroke:#000000;stroke-linecap:square;stroke-linejoin:miter;stroke-width:0.8;"/>
   </g>
   <g id="patch_6">
    <path d="M 57.6 41.472 
L 414.72 41.472 
" style="fill:none;stroke:#000000;stroke-linecap:square;stroke-linejoin:miter;stroke-width:0.8;"/>
   </g>
   <g id="text_18">
    <!-- Rel Gt Rot Y Plot -->
    <defs>
     <path d="M 44.390625 34.1875 
Q 47.5625 33.109375 50.5625 29.59375 
Q 53.5625 26.078125 56.59375 19.921875 
L 66.609375 0 
L 56 0 
L 46.6875 18.703125 
Q 43.0625 26.03125 39.671875 28.421875 
Q 36.28125 30.8125 30.421875 30.8125 
L 19.671875 30.8125 
L 19.671875 0 
L 9.8125 0 
L 9.8125 72.90625 
L 32.078125 72.90625 
Q 44.578125 72.90625 50.734375 67.671875 
Q 56.890625 62.453125 56.890625 51.90625 
Q 56.890625 45.015625 53.6875 40.46875 
Q 50.484375 35.9375 44.390625 34.1875 
z
M 19.671875 64.796875 
L 19.671875 38.921875 
L 32.078125 38.921875 
Q 39.203125 38.921875 42.84375 42.21875 
Q 46.484375 45.515625 46.484375 51.90625 
Q 46.484375 58.296875 42.84375 61.546875 
Q 39.203125 64.796875 32.078125 64.796875 
z
" id="DejaVuSans-52"/>
     <path d="M 9.421875 75.984375 
L 18.40625 75.984375 
L 18.40625 0 
L 9.421875 0 
z
" id="DejaVuSans-6c"/>
     <path d="M 59.515625 10.40625 
L 59.515625 29.984375 
L 43.40625 29.984375 
L 43.40625 38.09375 
L 69.28125 38.09375 
L 69.28125 6.78125 
Q 63.578125 2.734375 56.6875 0.65625 
Q 49.8125 -1.421875 42 -1.421875 
Q 24.90625 -1.421875 15.25 8.5625 
Q 5.609375 18.5625 5.609375 36.375 
Q 5.609375 54.25 15.25 64.234375 
Q 24.90625 74.21875 42 74.21875 
Q 49.125 74.21875 55.546875 72.453125 
Q 61.96875 70.703125 67.390625 67.28125 
L 67.390625 56.78125 
Q 61.921875 61.421875 55.765625 63.765625 
Q 49.609375 66.109375 42.828125 66.109375 
Q 29.4375 66.109375 22.71875 58.640625 
Q 16.015625 51.171875 16.015625 36.375 
Q 16.015625 21.625 22.71875 14.15625 
Q 29.4375 6.6875 42.828125 6.6875 
Q 48.046875 6.6875 52.140625 7.59375 
Q 56.25 8.5 59.515625 10.40625 
z
" id="DejaVuSans-47"/>
     <path d="M -0.203125 72.90625 
L 10.40625 72.90625 
L 30.609375 42.921875 
L 50.6875 72.90625 
L 61.28125 72.90625 
L 35.5 34.71875 
L 35.5 0 
L 25.59375 0 
L 25.59375 34.71875 
z
" id="DejaVuSans-59"/>
     <path d="M 19.671875 64.796875 
L 19.671875 37.40625 
L 32.078125 37.40625 
Q 38.96875 37.40625 42.71875 40.96875 
Q 46.484375 44.53125 46.484375 51.125 
Q 46.484375 57.671875 42.71875 61.234375 
Q 38.96875 64.796875 32.078125 64.796875 
z
M 9.8125 72.90625 
L 32.078125 72.90625 
Q 44.34375 72.90625 50.609375 67.359375 
Q 56.890625 61.8125 56.890625 51.125 
Q 56.890625 40.328125 50.609375 34.8125 
Q 44.34375 29.296875 32.078125 29.296875 
L 19.671875 29.296875 
L 19.671875 0 
L 9.8125 0 
z
" id="DejaVuSans-50"/>
    </defs>
    <g transform="translate(186.845625 35.472)scale(0.12 -0.12)">
     <use xlink:href="#DejaVuSans-52"/>
     <use x="69.419922" xlink:href="#DejaVuSans-65"/>
     <use x="130.943359" xlink:href="#DejaVuSans-6c"/>
     <use x="158.726562" xlink:href="#DejaVuSans-20"/>
     <use x="190.513672" xlink:href="#DejaVuSans-47"/>
     <use x="268.003906" xlink:href="#DejaVuSans-74"/>
     <use x="307.212891" xlink:href="#DejaVuSans-20"/>
     <use x="339" xlink:href="#DejaVuSans-52"/>
     <use x="408.419922" xlink:href="#DejaVuSans-6f"/>
     <use x="469.601562" xlink:href="#DejaVuSans-74"/>
     <use x="508.810547" xlink:href="#DejaVuSans-20"/>
     <use x="540.597656" xlink:href="#DejaVuSans-59"/>
     <use x="601.681641" xlink:href="#DejaVuSans-20"/>
     <use x="633.46875" xlink:href="#DejaVuSans-50"/>
     <use x="693.771484" xlink:href="#DejaVuSans-6c"/>
     <use x="721.554688" xlink:href="#DejaVuSans-6f"/>
     <use x="782.736328" xlink:href="#DejaVuSans-74"/>
    </g>
   </g>
  </g>
 </g>
 <defs>
  <clipPath id="pb0d802f2f8">
   <rect height="266.112" width="357.12" x="57.6" y="41.472"/>
  </clipPath>
 </defs>
</svg>
