<?xml version="1.0" encoding="utf-8" standalone="no"?>
<!DOCTYPE svg PUBLIC "-//W3C//DTD SVG 1.1//EN"
  "http://www.w3.org/Graphics/SVG/1.1/DTD/svg11.dtd">
<!-- Created with matplotlib (http://matplotlib.org/) -->
<svg height="345.6pt" version="1.1" viewBox="0 0 460.8 345.6" width="460.8pt" xmlns="http://www.w3.org/2000/svg" xmlns:xlink="http://www.w3.org/1999/xlink">
 <defs>
  <style type="text/css">
*{stroke-linecap:butt;stroke-linejoin:round;}
  </style>
 </defs>
 <g id="figure_1">
  <g id="patch_1">
   <path d="M 0 345.6 
L 460.8 345.6 
L 460.8 0 
L 0 0 
z
" style="fill:#ffffff;"/>
  </g>
  <g id="axes_1">
   <g id="patch_2">
    <path d="M 57.6 307.584 
L 414.72 307.584 
L 414.72 41.472 
L 57.6 41.472 
z
" style="fill:#ffffff;"/>
   </g>
   <g id="matplotlib.axis_1">
    <g id="xtick_1">
     <g id="line2d_1">
      <path clip-path="url(#p96480e814c)" d="M 70.555248 307.584 
L 70.555248 41.472 
" style="fill:none;stroke:#b0b0b0;stroke-linecap:square;stroke-width:0.8;"/>
     </g>
     <g id="line2d_2">
      <defs>
       <path d="M 0 0 
L 0 3.5 
" id="me0d921a53f" style="stroke:#000000;stroke-width:0.8;"/>
      </defs>
      <g>
       <use style="stroke:#000000;stroke-width:0.8;" x="70.555248" xlink:href="#me0d921a53f" y="307.584"/>
      </g>
     </g>
     <g id="text_1">
      <!-- 0 -->
      <defs>
       <path d="M 31.78125 66.40625 
Q 24.171875 66.40625 20.328125 58.90625 
Q 16.5 51.421875 16.5 36.375 
Q 16.5 21.390625 20.328125 13.890625 
Q 24.171875 6.390625 31.78125 6.390625 
Q 39.453125 6.390625 43.28125 13.890625 
Q 47.125 21.390625 47.125 36.375 
Q 47.125 51.421875 43.28125 58.90625 
Q 39.453125 66.40625 31.78125 66.40625 
z
M 31.78125 74.21875 
Q 44.046875 74.21875 50.515625 64.515625 
Q 56.984375 54.828125 56.984375 36.375 
Q 56.984375 17.96875 50.515625 8.265625 
Q 44.046875 -1.421875 31.78125 -1.421875 
Q 19.53125 -1.421875 13.0625 8.265625 
Q 6.59375 17.96875 6.59375 36.375 
Q 6.59375 54.828125 13.0625 64.515625 
Q 19.53125 74.21875 31.78125 74.21875 
z
" id="DejaVuSans-30"/>
      </defs>
      <g transform="translate(67.373998 322.182437)scale(0.1 -0.1)">
       <use xlink:href="#DejaVuSans-30"/>
      </g>
     </g>
    </g>
    <g id="xtick_2">
     <g id="line2d_3">
      <path clip-path="url(#p96480e814c)" d="M 139.776886 307.584 
L 139.776886 41.472 
" style="fill:none;stroke:#b0b0b0;stroke-linecap:square;stroke-width:0.8;"/>
     </g>
     <g id="line2d_4">
      <g>
       <use style="stroke:#000000;stroke-width:0.8;" x="139.776886" xlink:href="#me0d921a53f" y="307.584"/>
      </g>
     </g>
     <g id="text_2">
      <!-- 10 -->
      <defs>
       <path d="M 12.40625 8.296875 
L 28.515625 8.296875 
L 28.515625 63.921875 
L 10.984375 60.40625 
L 10.984375 69.390625 
L 28.421875 72.90625 
L 38.28125 72.90625 
L 38.28125 8.296875 
L 54.390625 8.296875 
L 54.390625 0 
L 12.40625 0 
z
" id="DejaVuSans-31"/>
      </defs>
      <g transform="translate(133.414386 322.182437)scale(0.1 -0.1)">
       <use xlink:href="#DejaVuSans-31"/>
       <use x="63.623047" xlink:href="#DejaVuSans-30"/>
      </g>
     </g>
    </g>
    <g id="xtick_3">
     <g id="line2d_5">
      <path clip-path="url(#p96480e814c)" d="M 208.998523 307.584 
L 208.998523 41.472 
" style="fill:none;stroke:#b0b0b0;stroke-linecap:square;stroke-width:0.8;"/>
     </g>
     <g id="line2d_6">
      <g>
       <use style="stroke:#000000;stroke-width:0.8;" x="208.998523" xlink:href="#me0d921a53f" y="307.584"/>
      </g>
     </g>
     <g id="text_3">
      <!-- 20 -->
      <defs>
       <path d="M 19.1875 8.296875 
L 53.609375 8.296875 
L 53.609375 0 
L 7.328125 0 
L 7.328125 8.296875 
Q 12.9375 14.109375 22.625 23.890625 
Q 32.328125 33.6875 34.8125 36.53125 
Q 39.546875 41.84375 41.421875 45.53125 
Q 43.3125 49.21875 43.3125 52.78125 
Q 43.3125 58.59375 39.234375 62.25 
Q 35.15625 65.921875 28.609375 65.921875 
Q 23.96875 65.921875 18.8125 64.3125 
Q 13.671875 62.703125 7.8125 59.421875 
L 7.8125 69.390625 
Q 13.765625 71.78125 18.9375 73 
Q 24.125 74.21875 28.421875 74.21875 
Q 39.75 74.21875 46.484375 68.546875 
Q 53.21875 62.890625 53.21875 53.421875 
Q 53.21875 48.921875 51.53125 44.890625 
Q 49.859375 40.875 45.40625 35.40625 
Q 44.1875 33.984375 37.640625 27.21875 
Q 31.109375 20.453125 19.1875 8.296875 
z
" id="DejaVuSans-32"/>
      </defs>
      <g transform="translate(202.636023 322.182437)scale(0.1 -0.1)">
       <use xlink:href="#DejaVuSans-32"/>
       <use x="63.623047" xlink:href="#DejaVuSans-30"/>
      </g>
     </g>
    </g>
    <g id="xtick_4">
     <g id="line2d_7">
      <path clip-path="url(#p96480e814c)" d="M 278.220161 307.584 
L 278.220161 41.472 
" style="fill:none;stroke:#b0b0b0;stroke-linecap:square;stroke-width:0.8;"/>
     </g>
     <g id="line2d_8">
      <g>
       <use style="stroke:#000000;stroke-width:0.8;" x="278.220161" xlink:href="#me0d921a53f" y="307.584"/>
      </g>
     </g>
     <g id="text_4">
      <!-- 30 -->
      <defs>
       <path d="M 40.578125 39.3125 
Q 47.65625 37.796875 51.625 33 
Q 55.609375 28.21875 55.609375 21.1875 
Q 55.609375 10.40625 48.1875 4.484375 
Q 40.765625 -1.421875 27.09375 -1.421875 
Q 22.515625 -1.421875 17.65625 -0.515625 
Q 12.796875 0.390625 7.625 2.203125 
L 7.625 11.71875 
Q 11.71875 9.328125 16.59375 8.109375 
Q 21.484375 6.890625 26.8125 6.890625 
Q 36.078125 6.890625 40.9375 10.546875 
Q 45.796875 14.203125 45.796875 21.1875 
Q 45.796875 27.640625 41.28125 31.265625 
Q 36.765625 34.90625 28.71875 34.90625 
L 20.21875 34.90625 
L 20.21875 43.015625 
L 29.109375 43.015625 
Q 36.375 43.015625 40.234375 45.921875 
Q 44.09375 48.828125 44.09375 54.296875 
Q 44.09375 59.90625 40.109375 62.90625 
Q 36.140625 65.921875 28.71875 65.921875 
Q 24.65625 65.921875 20.015625 65.03125 
Q 15.375 64.15625 9.8125 62.3125 
L 9.8125 71.09375 
Q 15.4375 72.65625 20.34375 73.4375 
Q 25.25 74.21875 29.59375 74.21875 
Q 40.828125 74.21875 47.359375 69.109375 
Q 53.90625 64.015625 53.90625 55.328125 
Q 53.90625 49.265625 50.4375 45.09375 
Q 46.96875 40.921875 40.578125 39.3125 
z
" id="DejaVuSans-33"/>
      </defs>
      <g transform="translate(271.857661 322.182437)scale(0.1 -0.1)">
       <use xlink:href="#DejaVuSans-33"/>
       <use x="63.623047" xlink:href="#DejaVuSans-30"/>
      </g>
     </g>
    </g>
    <g id="xtick_5">
     <g id="line2d_9">
      <path clip-path="url(#p96480e814c)" d="M 347.441799 307.584 
L 347.441799 41.472 
" style="fill:none;stroke:#b0b0b0;stroke-linecap:square;stroke-width:0.8;"/>
     </g>
     <g id="line2d_10">
      <g>
       <use style="stroke:#000000;stroke-width:0.8;" x="347.441799" xlink:href="#me0d921a53f" y="307.584"/>
      </g>
     </g>
     <g id="text_5">
      <!-- 40 -->
      <defs>
       <path d="M 37.796875 64.3125 
L 12.890625 25.390625 
L 37.796875 25.390625 
z
M 35.203125 72.90625 
L 47.609375 72.90625 
L 47.609375 25.390625 
L 58.015625 25.390625 
L 58.015625 17.1875 
L 47.609375 17.1875 
L 47.609375 0 
L 37.796875 0 
L 37.796875 17.1875 
L 4.890625 17.1875 
L 4.890625 26.703125 
z
" id="DejaVuSans-34"/>
      </defs>
      <g transform="translate(341.079299 322.182437)scale(0.1 -0.1)">
       <use xlink:href="#DejaVuSans-34"/>
       <use x="63.623047" xlink:href="#DejaVuSans-30"/>
      </g>
     </g>
    </g>
    <g id="xtick_6">
     <g id="line2d_11">
      <path clip-path="url(#p96480e814c)" d="M 84.399575 307.584 
L 84.399575 41.472 
" style="fill:none;stroke:#b0b0b0;stroke-linecap:square;stroke-width:0.8;"/>
     </g>
     <g id="line2d_12">
      <defs>
       <path d="M 0 0 
L 0 2 
" id="mb6e37e7a42" style="stroke:#000000;stroke-width:0.6;"/>
      </defs>
      <g>
       <use style="stroke:#000000;stroke-width:0.6;" x="84.399575" xlink:href="#mb6e37e7a42" y="307.584"/>
      </g>
     </g>
    </g>
    <g id="xtick_7">
     <g id="line2d_13">
      <path clip-path="url(#p96480e814c)" d="M 98.243903 307.584 
L 98.243903 41.472 
" style="fill:none;stroke:#b0b0b0;stroke-linecap:square;stroke-width:0.8;"/>
     </g>
     <g id="line2d_14">
      <g>
       <use style="stroke:#000000;stroke-width:0.6;" x="98.243903" xlink:href="#mb6e37e7a42" y="307.584"/>
      </g>
     </g>
    </g>
    <g id="xtick_8">
     <g id="line2d_15">
      <path clip-path="url(#p96480e814c)" d="M 112.08823 307.584 
L 112.08823 41.472 
" style="fill:none;stroke:#b0b0b0;stroke-linecap:square;stroke-width:0.8;"/>
     </g>
     <g id="line2d_16">
      <g>
       <use style="stroke:#000000;stroke-width:0.6;" x="112.08823" xlink:href="#mb6e37e7a42" y="307.584"/>
      </g>
     </g>
    </g>
    <g id="xtick_9">
     <g id="line2d_17">
      <path clip-path="url(#p96480e814c)" d="M 125.932558 307.584 
L 125.932558 41.472 
" style="fill:none;stroke:#b0b0b0;stroke-linecap:square;stroke-width:0.8;"/>
     </g>
     <g id="line2d_18">
      <g>
       <use style="stroke:#000000;stroke-width:0.6;" x="125.932558" xlink:href="#mb6e37e7a42" y="307.584"/>
      </g>
     </g>
    </g>
    <g id="xtick_10">
     <g id="line2d_19">
      <path clip-path="url(#p96480e814c)" d="M 153.621213 307.584 
L 153.621213 41.472 
" style="fill:none;stroke:#b0b0b0;stroke-linecap:square;stroke-width:0.8;"/>
     </g>
     <g id="line2d_20">
      <g>
       <use style="stroke:#000000;stroke-width:0.6;" x="153.621213" xlink:href="#mb6e37e7a42" y="307.584"/>
      </g>
     </g>
    </g>
    <g id="xtick_11">
     <g id="line2d_21">
      <path clip-path="url(#p96480e814c)" d="M 167.465541 307.584 
L 167.465541 41.472 
" style="fill:none;stroke:#b0b0b0;stroke-linecap:square;stroke-width:0.8;"/>
     </g>
     <g id="line2d_22">
      <g>
       <use style="stroke:#000000;stroke-width:0.6;" x="167.465541" xlink:href="#mb6e37e7a42" y="307.584"/>
      </g>
     </g>
    </g>
    <g id="xtick_12">
     <g id="line2d_23">
      <path clip-path="url(#p96480e814c)" d="M 181.309868 307.584 
L 181.309868 41.472 
" style="fill:none;stroke:#b0b0b0;stroke-linecap:square;stroke-width:0.8;"/>
     </g>
     <g id="line2d_24">
      <g>
       <use style="stroke:#000000;stroke-width:0.6;" x="181.309868" xlink:href="#mb6e37e7a42" y="307.584"/>
      </g>
     </g>
    </g>
    <g id="xtick_13">
     <g id="line2d_25">
      <path clip-path="url(#p96480e814c)" d="M 195.154196 307.584 
L 195.154196 41.472 
" style="fill:none;stroke:#b0b0b0;stroke-linecap:square;stroke-width:0.8;"/>
     </g>
     <g id="line2d_26">
      <g>
       <use style="stroke:#000000;stroke-width:0.6;" x="195.154196" xlink:href="#mb6e37e7a42" y="307.584"/>
      </g>
     </g>
    </g>
    <g id="xtick_14">
     <g id="line2d_27">
      <path clip-path="url(#p96480e814c)" d="M 222.842851 307.584 
L 222.842851 41.472 
" style="fill:none;stroke:#b0b0b0;stroke-linecap:square;stroke-width:0.8;"/>
     </g>
     <g id="line2d_28">
      <g>
       <use style="stroke:#000000;stroke-width:0.6;" x="222.842851" xlink:href="#mb6e37e7a42" y="307.584"/>
      </g>
     </g>
    </g>
    <g id="xtick_15">
     <g id="line2d_29">
      <path clip-path="url(#p96480e814c)" d="M 236.687178 307.584 
L 236.687178 41.472 
" style="fill:none;stroke:#b0b0b0;stroke-linecap:square;stroke-width:0.8;"/>
     </g>
     <g id="line2d_30">
      <g>
       <use style="stroke:#000000;stroke-width:0.6;" x="236.687178" xlink:href="#mb6e37e7a42" y="307.584"/>
      </g>
     </g>
    </g>
    <g id="xtick_16">
     <g id="line2d_31">
      <path clip-path="url(#p96480e814c)" d="M 250.531506 307.584 
L 250.531506 41.472 
" style="fill:none;stroke:#b0b0b0;stroke-linecap:square;stroke-width:0.8;"/>
     </g>
     <g id="line2d_32">
      <g>
       <use style="stroke:#000000;stroke-width:0.6;" x="250.531506" xlink:href="#mb6e37e7a42" y="307.584"/>
      </g>
     </g>
    </g>
    <g id="xtick_17">
     <g id="line2d_33">
      <path clip-path="url(#p96480e814c)" d="M 264.375834 307.584 
L 264.375834 41.472 
" style="fill:none;stroke:#b0b0b0;stroke-linecap:square;stroke-width:0.8;"/>
     </g>
     <g id="line2d_34">
      <g>
       <use style="stroke:#000000;stroke-width:0.6;" x="264.375834" xlink:href="#mb6e37e7a42" y="307.584"/>
      </g>
     </g>
    </g>
    <g id="xtick_18">
     <g id="line2d_35">
      <path clip-path="url(#p96480e814c)" d="M 292.064489 307.584 
L 292.064489 41.472 
" style="fill:none;stroke:#b0b0b0;stroke-linecap:square;stroke-width:0.8;"/>
     </g>
     <g id="line2d_36">
      <g>
       <use style="stroke:#000000;stroke-width:0.6;" x="292.064489" xlink:href="#mb6e37e7a42" y="307.584"/>
      </g>
     </g>
    </g>
    <g id="xtick_19">
     <g id="line2d_37">
      <path clip-path="url(#p96480e814c)" d="M 305.908816 307.584 
L 305.908816 41.472 
" style="fill:none;stroke:#b0b0b0;stroke-linecap:square;stroke-width:0.8;"/>
     </g>
     <g id="line2d_38">
      <g>
       <use style="stroke:#000000;stroke-width:0.6;" x="305.908816" xlink:href="#mb6e37e7a42" y="307.584"/>
      </g>
     </g>
    </g>
    <g id="xtick_20">
     <g id="line2d_39">
      <path clip-path="url(#p96480e814c)" d="M 319.753144 307.584 
L 319.753144 41.472 
" style="fill:none;stroke:#b0b0b0;stroke-linecap:square;stroke-width:0.8;"/>
     </g>
     <g id="line2d_40">
      <g>
       <use style="stroke:#000000;stroke-width:0.6;" x="319.753144" xlink:href="#mb6e37e7a42" y="307.584"/>
      </g>
     </g>
    </g>
    <g id="xtick_21">
     <g id="line2d_41">
      <path clip-path="url(#p96480e814c)" d="M 333.597471 307.584 
L 333.597471 41.472 
" style="fill:none;stroke:#b0b0b0;stroke-linecap:square;stroke-width:0.8;"/>
     </g>
     <g id="line2d_42">
      <g>
       <use style="stroke:#000000;stroke-width:0.6;" x="333.597471" xlink:href="#mb6e37e7a42" y="307.584"/>
      </g>
     </g>
    </g>
    <g id="xtick_22">
     <g id="line2d_43">
      <path clip-path="url(#p96480e814c)" d="M 361.286127 307.584 
L 361.286127 41.472 
" style="fill:none;stroke:#b0b0b0;stroke-linecap:square;stroke-width:0.8;"/>
     </g>
     <g id="line2d_44">
      <g>
       <use style="stroke:#000000;stroke-width:0.6;" x="361.286127" xlink:href="#mb6e37e7a42" y="307.584"/>
      </g>
     </g>
    </g>
    <g id="xtick_23">
     <g id="line2d_45">
      <path clip-path="url(#p96480e814c)" d="M 375.130454 307.584 
L 375.130454 41.472 
" style="fill:none;stroke:#b0b0b0;stroke-linecap:square;stroke-width:0.8;"/>
     </g>
     <g id="line2d_46">
      <g>
       <use style="stroke:#000000;stroke-width:0.6;" x="375.130454" xlink:href="#mb6e37e7a42" y="307.584"/>
      </g>
     </g>
    </g>
    <g id="xtick_24">
     <g id="line2d_47">
      <path clip-path="url(#p96480e814c)" d="M 388.974782 307.584 
L 388.974782 41.472 
" style="fill:none;stroke:#b0b0b0;stroke-linecap:square;stroke-width:0.8;"/>
     </g>
     <g id="line2d_48">
      <g>
       <use style="stroke:#000000;stroke-width:0.6;" x="388.974782" xlink:href="#mb6e37e7a42" y="307.584"/>
      </g>
     </g>
    </g>
    <g id="xtick_25">
     <g id="line2d_49">
      <path clip-path="url(#p96480e814c)" d="M 402.819109 307.584 
L 402.819109 41.472 
" style="fill:none;stroke:#b0b0b0;stroke-linecap:square;stroke-width:0.8;"/>
     </g>
     <g id="line2d_50">
      <g>
       <use style="stroke:#000000;stroke-width:0.6;" x="402.819109" xlink:href="#mb6e37e7a42" y="307.584"/>
      </g>
     </g>
    </g>
    <g id="text_6">
     <!-- frame # [] -->
     <defs>
      <path d="M 37.109375 75.984375 
L 37.109375 68.5 
L 28.515625 68.5 
Q 23.6875 68.5 21.796875 66.546875 
Q 19.921875 64.59375 19.921875 59.515625 
L 19.921875 54.6875 
L 34.71875 54.6875 
L 34.71875 47.703125 
L 19.921875 47.703125 
L 19.921875 0 
L 10.890625 0 
L 10.890625 47.703125 
L 2.296875 47.703125 
L 2.296875 54.6875 
L 10.890625 54.6875 
L 10.890625 58.5 
Q 10.890625 67.625 15.140625 71.796875 
Q 19.390625 75.984375 28.609375 75.984375 
z
" id="DejaVuSans-66"/>
      <path d="M 41.109375 46.296875 
Q 39.59375 47.171875 37.8125 47.578125 
Q 36.03125 48 33.890625 48 
Q 26.265625 48 22.1875 43.046875 
Q 18.109375 38.09375 18.109375 28.8125 
L 18.109375 0 
L 9.078125 0 
L 9.078125 54.6875 
L 18.109375 54.6875 
L 18.109375 46.1875 
Q 20.953125 51.171875 25.484375 53.578125 
Q 30.03125 56 36.53125 56 
Q 37.453125 56 38.578125 55.875 
Q 39.703125 55.765625 41.0625 55.515625 
z
" id="DejaVuSans-72"/>
      <path d="M 34.28125 27.484375 
Q 23.390625 27.484375 19.1875 25 
Q 14.984375 22.515625 14.984375 16.5 
Q 14.984375 11.71875 18.140625 8.90625 
Q 21.296875 6.109375 26.703125 6.109375 
Q 34.1875 6.109375 38.703125 11.40625 
Q 43.21875 16.703125 43.21875 25.484375 
L 43.21875 27.484375 
z
M 52.203125 31.203125 
L 52.203125 0 
L 43.21875 0 
L 43.21875 8.296875 
Q 40.140625 3.328125 35.546875 0.953125 
Q 30.953125 -1.421875 24.3125 -1.421875 
Q 15.921875 -1.421875 10.953125 3.296875 
Q 6 8.015625 6 15.921875 
Q 6 25.140625 12.171875 29.828125 
Q 18.359375 34.515625 30.609375 34.515625 
L 43.21875 34.515625 
L 43.21875 35.40625 
Q 43.21875 41.609375 39.140625 45 
Q 35.0625 48.390625 27.6875 48.390625 
Q 23 48.390625 18.546875 47.265625 
Q 14.109375 46.140625 10.015625 43.890625 
L 10.015625 52.203125 
Q 14.9375 54.109375 19.578125 55.046875 
Q 24.21875 56 28.609375 56 
Q 40.484375 56 46.34375 49.84375 
Q 52.203125 43.703125 52.203125 31.203125 
z
" id="DejaVuSans-61"/>
      <path d="M 52 44.1875 
Q 55.375 50.25 60.0625 53.125 
Q 64.75 56 71.09375 56 
Q 79.640625 56 84.28125 50.015625 
Q 88.921875 44.046875 88.921875 33.015625 
L 88.921875 0 
L 79.890625 0 
L 79.890625 32.71875 
Q 79.890625 40.578125 77.09375 44.375 
Q 74.3125 48.1875 68.609375 48.1875 
Q 61.625 48.1875 57.5625 43.546875 
Q 53.515625 38.921875 53.515625 30.90625 
L 53.515625 0 
L 44.484375 0 
L 44.484375 32.71875 
Q 44.484375 40.625 41.703125 44.40625 
Q 38.921875 48.1875 33.109375 48.1875 
Q 26.21875 48.1875 22.15625 43.53125 
Q 18.109375 38.875 18.109375 30.90625 
L 18.109375 0 
L 9.078125 0 
L 9.078125 54.6875 
L 18.109375 54.6875 
L 18.109375 46.1875 
Q 21.1875 51.21875 25.484375 53.609375 
Q 29.78125 56 35.6875 56 
Q 41.65625 56 45.828125 52.96875 
Q 50 49.953125 52 44.1875 
z
" id="DejaVuSans-6d"/>
      <path d="M 56.203125 29.59375 
L 56.203125 25.203125 
L 14.890625 25.203125 
Q 15.484375 15.921875 20.484375 11.0625 
Q 25.484375 6.203125 34.421875 6.203125 
Q 39.59375 6.203125 44.453125 7.46875 
Q 49.3125 8.734375 54.109375 11.28125 
L 54.109375 2.78125 
Q 49.265625 0.734375 44.1875 -0.34375 
Q 39.109375 -1.421875 33.890625 -1.421875 
Q 20.796875 -1.421875 13.15625 6.1875 
Q 5.515625 13.8125 5.515625 26.8125 
Q 5.515625 40.234375 12.765625 48.109375 
Q 20.015625 56 32.328125 56 
Q 43.359375 56 49.78125 48.890625 
Q 56.203125 41.796875 56.203125 29.59375 
z
M 47.21875 32.234375 
Q 47.125 39.59375 43.09375 43.984375 
Q 39.0625 48.390625 32.421875 48.390625 
Q 24.90625 48.390625 20.390625 44.140625 
Q 15.875 39.890625 15.1875 32.171875 
z
" id="DejaVuSans-65"/>
      <path id="DejaVuSans-20"/>
      <path d="M 51.125 44 
L 36.921875 44 
L 32.8125 27.6875 
L 47.125 27.6875 
z
M 43.796875 71.78125 
L 38.71875 51.515625 
L 52.984375 51.515625 
L 58.109375 71.78125 
L 65.921875 71.78125 
L 60.890625 51.515625 
L 76.125 51.515625 
L 76.125 44 
L 58.984375 44 
L 54.984375 27.6875 
L 70.515625 27.6875 
L 70.515625 20.21875 
L 53.078125 20.21875 
L 48 0 
L 40.1875 0 
L 45.21875 20.21875 
L 30.90625 20.21875 
L 25.875 0 
L 18.015625 0 
L 23.09375 20.21875 
L 7.71875 20.21875 
L 7.71875 27.6875 
L 24.90625 27.6875 
L 29 44 
L 13.28125 44 
L 13.28125 51.515625 
L 30.90625 51.515625 
L 35.890625 71.78125 
z
" id="DejaVuSans-23"/>
      <path d="M 8.59375 75.984375 
L 29.296875 75.984375 
L 29.296875 69 
L 17.578125 69 
L 17.578125 -6.203125 
L 29.296875 -6.203125 
L 29.296875 -13.1875 
L 8.59375 -13.1875 
z
" id="DejaVuSans-5b"/>
      <path d="M 30.421875 75.984375 
L 30.421875 -13.1875 
L 9.71875 -13.1875 
L 9.71875 -6.203125 
L 21.390625 -6.203125 
L 21.390625 69 
L 9.71875 69 
L 9.71875 75.984375 
z
" id="DejaVuSans-5d"/>
     </defs>
     <g transform="translate(210.063906 335.860562)scale(0.1 -0.1)">
      <use xlink:href="#DejaVuSans-66"/>
      <use x="35.205078" xlink:href="#DejaVuSans-72"/>
      <use x="76.318359" xlink:href="#DejaVuSans-61"/>
      <use x="137.597656" xlink:href="#DejaVuSans-6d"/>
      <use x="235.009766" xlink:href="#DejaVuSans-65"/>
      <use x="296.533203" xlink:href="#DejaVuSans-20"/>
      <use x="328.320312" xlink:href="#DejaVuSans-23"/>
      <use x="412.109375" xlink:href="#DejaVuSans-20"/>
      <use x="443.896484" xlink:href="#DejaVuSans-5b"/>
      <use x="482.910156" xlink:href="#DejaVuSans-5d"/>
     </g>
    </g>
   </g>
   <g id="matplotlib.axis_2">
    <g id="ytick_1">
     <g id="line2d_51">
      <path clip-path="url(#p96480e814c)" d="M 57.6 286.870399 
L 414.72 286.870399 
" style="fill:none;stroke:#b0b0b0;stroke-linecap:square;stroke-width:0.8;"/>
     </g>
     <g id="line2d_52">
      <defs>
       <path d="M 0 0 
L -3.5 0 
" id="m5c17e12de2" style="stroke:#000000;stroke-width:0.8;"/>
      </defs>
      <g>
       <use style="stroke:#000000;stroke-width:0.8;" x="57.6" xlink:href="#m5c17e12de2" y="286.870399"/>
      </g>
     </g>
     <g id="text_7">
      <!-- −0.15 -->
      <defs>
       <path d="M 10.59375 35.5 
L 73.1875 35.5 
L 73.1875 27.203125 
L 10.59375 27.203125 
z
" id="DejaVuSans-2212"/>
       <path d="M 10.6875 12.40625 
L 21 12.40625 
L 21 0 
L 10.6875 0 
z
" id="DejaVuSans-2e"/>
       <path d="M 10.796875 72.90625 
L 49.515625 72.90625 
L 49.515625 64.59375 
L 19.828125 64.59375 
L 19.828125 46.734375 
Q 21.96875 47.46875 24.109375 47.828125 
Q 26.265625 48.1875 28.421875 48.1875 
Q 40.625 48.1875 47.75 41.5 
Q 54.890625 34.8125 54.890625 23.390625 
Q 54.890625 11.625 47.5625 5.09375 
Q 40.234375 -1.421875 26.90625 -1.421875 
Q 22.3125 -1.421875 17.546875 -0.640625 
Q 12.796875 0.140625 7.71875 1.703125 
L 7.71875 11.625 
Q 12.109375 9.234375 16.796875 8.0625 
Q 21.484375 6.890625 26.703125 6.890625 
Q 35.15625 6.890625 40.078125 11.328125 
Q 45.015625 15.765625 45.015625 23.390625 
Q 45.015625 31 40.078125 35.4375 
Q 35.15625 39.890625 26.703125 39.890625 
Q 22.75 39.890625 18.8125 39.015625 
Q 14.890625 38.140625 10.796875 36.28125 
z
" id="DejaVuSans-35"/>
      </defs>
      <g transform="translate(19.954687 290.669618)scale(0.1 -0.1)">
       <use xlink:href="#DejaVuSans-2212"/>
       <use x="83.789062" xlink:href="#DejaVuSans-30"/>
       <use x="147.412109" xlink:href="#DejaVuSans-2e"/>
       <use x="179.199219" xlink:href="#DejaVuSans-31"/>
       <use x="242.822266" xlink:href="#DejaVuSans-35"/>
      </g>
     </g>
    </g>
    <g id="ytick_2">
     <g id="line2d_53">
      <path clip-path="url(#p96480e814c)" d="M 57.6 253.738276 
L 414.72 253.738276 
" style="fill:none;stroke:#b0b0b0;stroke-linecap:square;stroke-width:0.8;"/>
     </g>
     <g id="line2d_54">
      <g>
       <use style="stroke:#000000;stroke-width:0.8;" x="57.6" xlink:href="#m5c17e12de2" y="253.738276"/>
      </g>
     </g>
     <g id="text_8">
      <!-- −0.10 -->
      <g transform="translate(19.954687 257.537495)scale(0.1 -0.1)">
       <use xlink:href="#DejaVuSans-2212"/>
       <use x="83.789062" xlink:href="#DejaVuSans-30"/>
       <use x="147.412109" xlink:href="#DejaVuSans-2e"/>
       <use x="179.199219" xlink:href="#DejaVuSans-31"/>
       <use x="242.822266" xlink:href="#DejaVuSans-30"/>
      </g>
     </g>
    </g>
    <g id="ytick_3">
     <g id="line2d_55">
      <path clip-path="url(#p96480e814c)" d="M 57.6 220.606153 
L 414.72 220.606153 
" style="fill:none;stroke:#b0b0b0;stroke-linecap:square;stroke-width:0.8;"/>
     </g>
     <g id="line2d_56">
      <g>
       <use style="stroke:#000000;stroke-width:0.8;" x="57.6" xlink:href="#m5c17e12de2" y="220.606153"/>
      </g>
     </g>
     <g id="text_9">
      <!-- −0.05 -->
      <g transform="translate(19.954687 224.405372)scale(0.1 -0.1)">
       <use xlink:href="#DejaVuSans-2212"/>
       <use x="83.789062" xlink:href="#DejaVuSans-30"/>
       <use x="147.412109" xlink:href="#DejaVuSans-2e"/>
       <use x="179.199219" xlink:href="#DejaVuSans-30"/>
       <use x="242.822266" xlink:href="#DejaVuSans-35"/>
      </g>
     </g>
    </g>
    <g id="ytick_4">
     <g id="line2d_57">
      <path clip-path="url(#p96480e814c)" d="M 57.6 187.47403 
L 414.72 187.47403 
" style="fill:none;stroke:#b0b0b0;stroke-linecap:square;stroke-width:0.8;"/>
     </g>
     <g id="line2d_58">
      <g>
       <use style="stroke:#000000;stroke-width:0.8;" x="57.6" xlink:href="#m5c17e12de2" y="187.47403"/>
      </g>
     </g>
     <g id="text_10">
      <!-- 0.00 -->
      <g transform="translate(28.334375 191.273249)scale(0.1 -0.1)">
       <use xlink:href="#DejaVuSans-30"/>
       <use x="63.623047" xlink:href="#DejaVuSans-2e"/>
       <use x="95.410156" xlink:href="#DejaVuSans-30"/>
       <use x="159.033203" xlink:href="#DejaVuSans-30"/>
      </g>
     </g>
    </g>
    <g id="ytick_5">
     <g id="line2d_59">
      <path clip-path="url(#p96480e814c)" d="M 57.6 154.341907 
L 414.72 154.341907 
" style="fill:none;stroke:#b0b0b0;stroke-linecap:square;stroke-width:0.8;"/>
     </g>
     <g id="line2d_60">
      <g>
       <use style="stroke:#000000;stroke-width:0.8;" x="57.6" xlink:href="#m5c17e12de2" y="154.341907"/>
      </g>
     </g>
     <g id="text_11">
      <!-- 0.05 -->
      <g transform="translate(28.334375 158.141125)scale(0.1 -0.1)">
       <use xlink:href="#DejaVuSans-30"/>
       <use x="63.623047" xlink:href="#DejaVuSans-2e"/>
       <use x="95.410156" xlink:href="#DejaVuSans-30"/>
       <use x="159.033203" xlink:href="#DejaVuSans-35"/>
      </g>
     </g>
    </g>
    <g id="ytick_6">
     <g id="line2d_61">
      <path clip-path="url(#p96480e814c)" d="M 57.6 121.209783 
L 414.72 121.209783 
" style="fill:none;stroke:#b0b0b0;stroke-linecap:square;stroke-width:0.8;"/>
     </g>
     <g id="line2d_62">
      <g>
       <use style="stroke:#000000;stroke-width:0.8;" x="57.6" xlink:href="#m5c17e12de2" y="121.209783"/>
      </g>
     </g>
     <g id="text_12">
      <!-- 0.10 -->
      <g transform="translate(28.334375 125.009002)scale(0.1 -0.1)">
       <use xlink:href="#DejaVuSans-30"/>
       <use x="63.623047" xlink:href="#DejaVuSans-2e"/>
       <use x="95.410156" xlink:href="#DejaVuSans-31"/>
       <use x="159.033203" xlink:href="#DejaVuSans-30"/>
      </g>
     </g>
    </g>
    <g id="ytick_7">
     <g id="line2d_63">
      <path clip-path="url(#p96480e814c)" d="M 57.6 88.07766 
L 414.72 88.07766 
" style="fill:none;stroke:#b0b0b0;stroke-linecap:square;stroke-width:0.8;"/>
     </g>
     <g id="line2d_64">
      <g>
       <use style="stroke:#000000;stroke-width:0.8;" x="57.6" xlink:href="#m5c17e12de2" y="88.07766"/>
      </g>
     </g>
     <g id="text_13">
      <!-- 0.15 -->
      <g transform="translate(28.334375 91.876879)scale(0.1 -0.1)">
       <use xlink:href="#DejaVuSans-30"/>
       <use x="63.623047" xlink:href="#DejaVuSans-2e"/>
       <use x="95.410156" xlink:href="#DejaVuSans-31"/>
       <use x="159.033203" xlink:href="#DejaVuSans-35"/>
      </g>
     </g>
    </g>
    <g id="ytick_8">
     <g id="line2d_65">
      <path clip-path="url(#p96480e814c)" d="M 57.6 54.945537 
L 414.72 54.945537 
" style="fill:none;stroke:#b0b0b0;stroke-linecap:square;stroke-width:0.8;"/>
     </g>
     <g id="line2d_66">
      <g>
       <use style="stroke:#000000;stroke-width:0.8;" x="57.6" xlink:href="#m5c17e12de2" y="54.945537"/>
      </g>
     </g>
     <g id="text_14">
      <!-- 0.20 -->
      <g transform="translate(28.334375 58.744756)scale(0.1 -0.1)">
       <use xlink:href="#DejaVuSans-30"/>
       <use x="63.623047" xlink:href="#DejaVuSans-2e"/>
       <use x="95.410156" xlink:href="#DejaVuSans-32"/>
       <use x="159.033203" xlink:href="#DejaVuSans-30"/>
      </g>
     </g>
    </g>
    <g id="ytick_9">
     <g id="line2d_67">
      <path clip-path="url(#p96480e814c)" d="M 57.6 306.749673 
L 414.72 306.749673 
" style="fill:none;stroke:#b0b0b0;stroke-linecap:square;stroke-width:0.8;"/>
     </g>
     <g id="line2d_68">
      <defs>
       <path d="M 0 0 
L -2 0 
" id="mdbd669957a" style="stroke:#000000;stroke-width:0.6;"/>
      </defs>
      <g>
       <use style="stroke:#000000;stroke-width:0.6;" x="57.6" xlink:href="#mdbd669957a" y="306.749673"/>
      </g>
     </g>
    </g>
    <g id="ytick_10">
     <g id="line2d_69">
      <path clip-path="url(#p96480e814c)" d="M 57.6 300.123249 
L 414.72 300.123249 
" style="fill:none;stroke:#b0b0b0;stroke-linecap:square;stroke-width:0.8;"/>
     </g>
     <g id="line2d_70">
      <g>
       <use style="stroke:#000000;stroke-width:0.6;" x="57.6" xlink:href="#mdbd669957a" y="300.123249"/>
      </g>
     </g>
    </g>
    <g id="ytick_11">
     <g id="line2d_71">
      <path clip-path="url(#p96480e814c)" d="M 57.6 293.496824 
L 414.72 293.496824 
" style="fill:none;stroke:#b0b0b0;stroke-linecap:square;stroke-width:0.8;"/>
     </g>
     <g id="line2d_72">
      <g>
       <use style="stroke:#000000;stroke-width:0.6;" x="57.6" xlink:href="#mdbd669957a" y="293.496824"/>
      </g>
     </g>
    </g>
    <g id="ytick_12">
     <g id="line2d_73">
      <path clip-path="url(#p96480e814c)" d="M 57.6 280.243975 
L 414.72 280.243975 
" style="fill:none;stroke:#b0b0b0;stroke-linecap:square;stroke-width:0.8;"/>
     </g>
     <g id="line2d_74">
      <g>
       <use style="stroke:#000000;stroke-width:0.6;" x="57.6" xlink:href="#mdbd669957a" y="280.243975"/>
      </g>
     </g>
    </g>
    <g id="ytick_13">
     <g id="line2d_75">
      <path clip-path="url(#p96480e814c)" d="M 57.6 273.61755 
L 414.72 273.61755 
" style="fill:none;stroke:#b0b0b0;stroke-linecap:square;stroke-width:0.8;"/>
     </g>
     <g id="line2d_76">
      <g>
       <use style="stroke:#000000;stroke-width:0.6;" x="57.6" xlink:href="#mdbd669957a" y="273.61755"/>
      </g>
     </g>
    </g>
    <g id="ytick_14">
     <g id="line2d_77">
      <path clip-path="url(#p96480e814c)" d="M 57.6 266.991125 
L 414.72 266.991125 
" style="fill:none;stroke:#b0b0b0;stroke-linecap:square;stroke-width:0.8;"/>
     </g>
     <g id="line2d_78">
      <g>
       <use style="stroke:#000000;stroke-width:0.6;" x="57.6" xlink:href="#mdbd669957a" y="266.991125"/>
      </g>
     </g>
    </g>
    <g id="ytick_15">
     <g id="line2d_79">
      <path clip-path="url(#p96480e814c)" d="M 57.6 260.364701 
L 414.72 260.364701 
" style="fill:none;stroke:#b0b0b0;stroke-linecap:square;stroke-width:0.8;"/>
     </g>
     <g id="line2d_80">
      <g>
       <use style="stroke:#000000;stroke-width:0.6;" x="57.6" xlink:href="#mdbd669957a" y="260.364701"/>
      </g>
     </g>
    </g>
    <g id="ytick_16">
     <g id="line2d_81">
      <path clip-path="url(#p96480e814c)" d="M 57.6 247.111852 
L 414.72 247.111852 
" style="fill:none;stroke:#b0b0b0;stroke-linecap:square;stroke-width:0.8;"/>
     </g>
     <g id="line2d_82">
      <g>
       <use style="stroke:#000000;stroke-width:0.6;" x="57.6" xlink:href="#mdbd669957a" y="247.111852"/>
      </g>
     </g>
    </g>
    <g id="ytick_17">
     <g id="line2d_83">
      <path clip-path="url(#p96480e814c)" d="M 57.6 240.485427 
L 414.72 240.485427 
" style="fill:none;stroke:#b0b0b0;stroke-linecap:square;stroke-width:0.8;"/>
     </g>
     <g id="line2d_84">
      <g>
       <use style="stroke:#000000;stroke-width:0.6;" x="57.6" xlink:href="#mdbd669957a" y="240.485427"/>
      </g>
     </g>
    </g>
    <g id="ytick_18">
     <g id="line2d_85">
      <path clip-path="url(#p96480e814c)" d="M 57.6 233.859002 
L 414.72 233.859002 
" style="fill:none;stroke:#b0b0b0;stroke-linecap:square;stroke-width:0.8;"/>
     </g>
     <g id="line2d_86">
      <g>
       <use style="stroke:#000000;stroke-width:0.6;" x="57.6" xlink:href="#mdbd669957a" y="233.859002"/>
      </g>
     </g>
    </g>
    <g id="ytick_19">
     <g id="line2d_87">
      <path clip-path="url(#p96480e814c)" d="M 57.6 227.232578 
L 414.72 227.232578 
" style="fill:none;stroke:#b0b0b0;stroke-linecap:square;stroke-width:0.8;"/>
     </g>
     <g id="line2d_88">
      <g>
       <use style="stroke:#000000;stroke-width:0.6;" x="57.6" xlink:href="#mdbd669957a" y="227.232578"/>
      </g>
     </g>
    </g>
    <g id="ytick_20">
     <g id="line2d_89">
      <path clip-path="url(#p96480e814c)" d="M 57.6 213.979728 
L 414.72 213.979728 
" style="fill:none;stroke:#b0b0b0;stroke-linecap:square;stroke-width:0.8;"/>
     </g>
     <g id="line2d_90">
      <g>
       <use style="stroke:#000000;stroke-width:0.6;" x="57.6" xlink:href="#mdbd669957a" y="213.979728"/>
      </g>
     </g>
    </g>
    <g id="ytick_21">
     <g id="line2d_91">
      <path clip-path="url(#p96480e814c)" d="M 57.6 207.353304 
L 414.72 207.353304 
" style="fill:none;stroke:#b0b0b0;stroke-linecap:square;stroke-width:0.8;"/>
     </g>
     <g id="line2d_92">
      <g>
       <use style="stroke:#000000;stroke-width:0.6;" x="57.6" xlink:href="#mdbd669957a" y="207.353304"/>
      </g>
     </g>
    </g>
    <g id="ytick_22">
     <g id="line2d_93">
      <path clip-path="url(#p96480e814c)" d="M 57.6 200.726879 
L 414.72 200.726879 
" style="fill:none;stroke:#b0b0b0;stroke-linecap:square;stroke-width:0.8;"/>
     </g>
     <g id="line2d_94">
      <g>
       <use style="stroke:#000000;stroke-width:0.6;" x="57.6" xlink:href="#mdbd669957a" y="200.726879"/>
      </g>
     </g>
    </g>
    <g id="ytick_23">
     <g id="line2d_95">
      <path clip-path="url(#p96480e814c)" d="M 57.6 194.100454 
L 414.72 194.100454 
" style="fill:none;stroke:#b0b0b0;stroke-linecap:square;stroke-width:0.8;"/>
     </g>
     <g id="line2d_96">
      <g>
       <use style="stroke:#000000;stroke-width:0.6;" x="57.6" xlink:href="#mdbd669957a" y="194.100454"/>
      </g>
     </g>
    </g>
    <g id="ytick_24">
     <g id="line2d_97">
      <path clip-path="url(#p96480e814c)" d="M 57.6 180.847605 
L 414.72 180.847605 
" style="fill:none;stroke:#b0b0b0;stroke-linecap:square;stroke-width:0.8;"/>
     </g>
     <g id="line2d_98">
      <g>
       <use style="stroke:#000000;stroke-width:0.6;" x="57.6" xlink:href="#mdbd669957a" y="180.847605"/>
      </g>
     </g>
    </g>
    <g id="ytick_25">
     <g id="line2d_99">
      <path clip-path="url(#p96480e814c)" d="M 57.6 174.221181 
L 414.72 174.221181 
" style="fill:none;stroke:#b0b0b0;stroke-linecap:square;stroke-width:0.8;"/>
     </g>
     <g id="line2d_100">
      <g>
       <use style="stroke:#000000;stroke-width:0.6;" x="57.6" xlink:href="#mdbd669957a" y="174.221181"/>
      </g>
     </g>
    </g>
    <g id="ytick_26">
     <g id="line2d_101">
      <path clip-path="url(#p96480e814c)" d="M 57.6 167.594756 
L 414.72 167.594756 
" style="fill:none;stroke:#b0b0b0;stroke-linecap:square;stroke-width:0.8;"/>
     </g>
     <g id="line2d_102">
      <g>
       <use style="stroke:#000000;stroke-width:0.6;" x="57.6" xlink:href="#mdbd669957a" y="167.594756"/>
      </g>
     </g>
    </g>
    <g id="ytick_27">
     <g id="line2d_103">
      <path clip-path="url(#p96480e814c)" d="M 57.6 160.968331 
L 414.72 160.968331 
" style="fill:none;stroke:#b0b0b0;stroke-linecap:square;stroke-width:0.8;"/>
     </g>
     <g id="line2d_104">
      <g>
       <use style="stroke:#000000;stroke-width:0.6;" x="57.6" xlink:href="#mdbd669957a" y="160.968331"/>
      </g>
     </g>
    </g>
    <g id="ytick_28">
     <g id="line2d_105">
      <path clip-path="url(#p96480e814c)" d="M 57.6 147.715482 
L 414.72 147.715482 
" style="fill:none;stroke:#b0b0b0;stroke-linecap:square;stroke-width:0.8;"/>
     </g>
     <g id="line2d_106">
      <g>
       <use style="stroke:#000000;stroke-width:0.6;" x="57.6" xlink:href="#mdbd669957a" y="147.715482"/>
      </g>
     </g>
    </g>
    <g id="ytick_29">
     <g id="line2d_107">
      <path clip-path="url(#p96480e814c)" d="M 57.6 141.089057 
L 414.72 141.089057 
" style="fill:none;stroke:#b0b0b0;stroke-linecap:square;stroke-width:0.8;"/>
     </g>
     <g id="line2d_108">
      <g>
       <use style="stroke:#000000;stroke-width:0.6;" x="57.6" xlink:href="#mdbd669957a" y="141.089057"/>
      </g>
     </g>
    </g>
    <g id="ytick_30">
     <g id="line2d_109">
      <path clip-path="url(#p96480e814c)" d="M 57.6 134.462633 
L 414.72 134.462633 
" style="fill:none;stroke:#b0b0b0;stroke-linecap:square;stroke-width:0.8;"/>
     </g>
     <g id="line2d_110">
      <g>
       <use style="stroke:#000000;stroke-width:0.6;" x="57.6" xlink:href="#mdbd669957a" y="134.462633"/>
      </g>
     </g>
    </g>
    <g id="ytick_31">
     <g id="line2d_111">
      <path clip-path="url(#p96480e814c)" d="M 57.6 127.836208 
L 414.72 127.836208 
" style="fill:none;stroke:#b0b0b0;stroke-linecap:square;stroke-width:0.8;"/>
     </g>
     <g id="line2d_112">
      <g>
       <use style="stroke:#000000;stroke-width:0.6;" x="57.6" xlink:href="#mdbd669957a" y="127.836208"/>
      </g>
     </g>
    </g>
    <g id="ytick_32">
     <g id="line2d_113">
      <path clip-path="url(#p96480e814c)" d="M 57.6 114.583359 
L 414.72 114.583359 
" style="fill:none;stroke:#b0b0b0;stroke-linecap:square;stroke-width:0.8;"/>
     </g>
     <g id="line2d_114">
      <g>
       <use style="stroke:#000000;stroke-width:0.6;" x="57.6" xlink:href="#mdbd669957a" y="114.583359"/>
      </g>
     </g>
    </g>
    <g id="ytick_33">
     <g id="line2d_115">
      <path clip-path="url(#p96480e814c)" d="M 57.6 107.956934 
L 414.72 107.956934 
" style="fill:none;stroke:#b0b0b0;stroke-linecap:square;stroke-width:0.8;"/>
     </g>
     <g id="line2d_116">
      <g>
       <use style="stroke:#000000;stroke-width:0.6;" x="57.6" xlink:href="#mdbd669957a" y="107.956934"/>
      </g>
     </g>
    </g>
    <g id="ytick_34">
     <g id="line2d_117">
      <path clip-path="url(#p96480e814c)" d="M 57.6 101.33051 
L 414.72 101.33051 
" style="fill:none;stroke:#b0b0b0;stroke-linecap:square;stroke-width:0.8;"/>
     </g>
     <g id="line2d_118">
      <g>
       <use style="stroke:#000000;stroke-width:0.6;" x="57.6" xlink:href="#mdbd669957a" y="101.33051"/>
      </g>
     </g>
    </g>
    <g id="ytick_35">
     <g id="line2d_119">
      <path clip-path="url(#p96480e814c)" d="M 57.6 94.704085 
L 414.72 94.704085 
" style="fill:none;stroke:#b0b0b0;stroke-linecap:square;stroke-width:0.8;"/>
     </g>
     <g id="line2d_120">
      <g>
       <use style="stroke:#000000;stroke-width:0.6;" x="57.6" xlink:href="#mdbd669957a" y="94.704085"/>
      </g>
     </g>
    </g>
    <g id="ytick_36">
     <g id="line2d_121">
      <path clip-path="url(#p96480e814c)" d="M 57.6 81.451236 
L 414.72 81.451236 
" style="fill:none;stroke:#b0b0b0;stroke-linecap:square;stroke-width:0.8;"/>
     </g>
     <g id="line2d_122">
      <g>
       <use style="stroke:#000000;stroke-width:0.6;" x="57.6" xlink:href="#mdbd669957a" y="81.451236"/>
      </g>
     </g>
    </g>
    <g id="ytick_37">
     <g id="line2d_123">
      <path clip-path="url(#p96480e814c)" d="M 57.6 74.824811 
L 414.72 74.824811 
" style="fill:none;stroke:#b0b0b0;stroke-linecap:square;stroke-width:0.8;"/>
     </g>
     <g id="line2d_124">
      <g>
       <use style="stroke:#000000;stroke-width:0.6;" x="57.6" xlink:href="#mdbd669957a" y="74.824811"/>
      </g>
     </g>
    </g>
    <g id="ytick_38">
     <g id="line2d_125">
      <path clip-path="url(#p96480e814c)" d="M 57.6 68.198386 
L 414.72 68.198386 
" style="fill:none;stroke:#b0b0b0;stroke-linecap:square;stroke-width:0.8;"/>
     </g>
     <g id="line2d_126">
      <g>
       <use style="stroke:#000000;stroke-width:0.6;" x="57.6" xlink:href="#mdbd669957a" y="68.198386"/>
      </g>
     </g>
    </g>
    <g id="ytick_39">
     <g id="line2d_127">
      <path clip-path="url(#p96480e814c)" d="M 57.6 61.571962 
L 414.72 61.571962 
" style="fill:none;stroke:#b0b0b0;stroke-linecap:square;stroke-width:0.8;"/>
     </g>
     <g id="line2d_128">
      <g>
       <use style="stroke:#000000;stroke-width:0.6;" x="57.6" xlink:href="#mdbd669957a" y="61.571962"/>
      </g>
     </g>
    </g>
    <g id="ytick_40">
     <g id="line2d_129">
      <path clip-path="url(#p96480e814c)" d="M 57.6 48.319112 
L 414.72 48.319112 
" style="fill:none;stroke:#b0b0b0;stroke-linecap:square;stroke-width:0.8;"/>
     </g>
     <g id="line2d_130">
      <g>
       <use style="stroke:#000000;stroke-width:0.6;" x="57.6" xlink:href="#mdbd669957a" y="48.319112"/>
      </g>
     </g>
    </g>
    <g id="ytick_41">
     <g id="line2d_131">
      <path clip-path="url(#p96480e814c)" d="M 57.6 41.692688 
L 414.72 41.692688 
" style="fill:none;stroke:#b0b0b0;stroke-linecap:square;stroke-width:0.8;"/>
     </g>
     <g id="line2d_132">
      <g>
       <use style="stroke:#000000;stroke-width:0.6;" x="57.6" xlink:href="#mdbd669957a" y="41.692688"/>
      </g>
     </g>
    </g>
    <g id="text_15">
     <!-- trans x -->
     <defs>
      <path d="M 18.3125 70.21875 
L 18.3125 54.6875 
L 36.8125 54.6875 
L 36.8125 47.703125 
L 18.3125 47.703125 
L 18.3125 18.015625 
Q 18.3125 11.328125 20.140625 9.421875 
Q 21.96875 7.515625 27.59375 7.515625 
L 36.8125 7.515625 
L 36.8125 0 
L 27.59375 0 
Q 17.1875 0 13.234375 3.875 
Q 9.28125 7.765625 9.28125 18.015625 
L 9.28125 47.703125 
L 2.6875 47.703125 
L 2.6875 54.6875 
L 9.28125 54.6875 
L 9.28125 70.21875 
z
" id="DejaVuSans-74"/>
      <path d="M 54.890625 33.015625 
L 54.890625 0 
L 45.90625 0 
L 45.90625 32.71875 
Q 45.90625 40.484375 42.875 44.328125 
Q 39.84375 48.1875 33.796875 48.1875 
Q 26.515625 48.1875 22.3125 43.546875 
Q 18.109375 38.921875 18.109375 30.90625 
L 18.109375 0 
L 9.078125 0 
L 9.078125 54.6875 
L 18.109375 54.6875 
L 18.109375 46.1875 
Q 21.34375 51.125 25.703125 53.5625 
Q 30.078125 56 35.796875 56 
Q 45.21875 56 50.046875 50.171875 
Q 54.890625 44.34375 54.890625 33.015625 
z
" id="DejaVuSans-6e"/>
      <path d="M 44.28125 53.078125 
L 44.28125 44.578125 
Q 40.484375 46.53125 36.375 47.5 
Q 32.28125 48.484375 27.875 48.484375 
Q 21.1875 48.484375 17.84375 46.4375 
Q 14.5 44.390625 14.5 40.28125 
Q 14.5 37.15625 16.890625 35.375 
Q 19.28125 33.59375 26.515625 31.984375 
L 29.59375 31.296875 
Q 39.15625 29.25 43.1875 25.515625 
Q 47.21875 21.78125 47.21875 15.09375 
Q 47.21875 7.46875 41.1875 3.015625 
Q 35.15625 -1.421875 24.609375 -1.421875 
Q 20.21875 -1.421875 15.453125 -0.5625 
Q 10.6875 0.296875 5.421875 2 
L 5.421875 11.28125 
Q 10.40625 8.6875 15.234375 7.390625 
Q 20.0625 6.109375 24.8125 6.109375 
Q 31.15625 6.109375 34.5625 8.28125 
Q 37.984375 10.453125 37.984375 14.40625 
Q 37.984375 18.0625 35.515625 20.015625 
Q 33.0625 21.96875 24.703125 23.78125 
L 21.578125 24.515625 
Q 13.234375 26.265625 9.515625 29.90625 
Q 5.8125 33.546875 5.8125 39.890625 
Q 5.8125 47.609375 11.28125 51.796875 
Q 16.75 56 26.8125 56 
Q 31.78125 56 36.171875 55.265625 
Q 40.578125 54.546875 44.28125 53.078125 
z
" id="DejaVuSans-73"/>
      <path d="M 54.890625 54.6875 
L 35.109375 28.078125 
L 55.90625 0 
L 45.3125 0 
L 29.390625 21.484375 
L 13.484375 0 
L 2.875 0 
L 24.125 28.609375 
L 4.6875 54.6875 
L 15.28125 54.6875 
L 29.78125 35.203125 
L 44.28125 54.6875 
z
" id="DejaVuSans-78"/>
     </defs>
     <g transform="translate(13.875 191.929563)rotate(-90)scale(0.1 -0.1)">
      <use xlink:href="#DejaVuSans-74"/>
      <use x="39.208984" xlink:href="#DejaVuSans-72"/>
      <use x="80.322266" xlink:href="#DejaVuSans-61"/>
      <use x="141.601562" xlink:href="#DejaVuSans-6e"/>
      <use x="204.980469" xlink:href="#DejaVuSans-73"/>
      <use x="257.080078" xlink:href="#DejaVuSans-20"/>
      <use x="288.867188" xlink:href="#DejaVuSans-78"/>
     </g>
    </g>
   </g>
   <g id="line2d_133">
    <path clip-path="url(#p96480e814c)" d="M 73.832727 168.036416 
L 74.524971 162.744282 
L 75.217208 161.115588 
L 75.90628 163.525382 
L 76.598517 160.08376 
L 77.290754 157.946243 
L 77.982991 149.408632 
L 78.6751 150.160802 
L 79.367337 151.824147 
L 80.059581 145.428466 
L 80.751818 146.96136 
L 81.446481 141.475323 
L 82.138725 145.005069 
L 82.830962 146.227246 
L 83.523199 140.292555 
L 84.216653 148.871024 
L 85.601147 139.501475 
L 86.293364 139.647037 
L 86.985656 137.122812 
L 87.675135 133.615732 
L 88.367373 133.929023 
L 89.05961 138.803435 
L 89.751847 132.46173 
L 90.441987 142.227953 
L 91.13423 136.419547 
L 91.826467 133.225293 
L 93.209773 114.767775 
L 93.902011 88.967473 
L 95.286491 83.390635 
L 95.979336 87.24073 
L 97.363819 134.601398 
L 98.056056 159.684792 
L 98.749362 196.467823 
L 100.133837 226.54744 
L 100.826074 225.219447 
L 101.516997 238.460498 
M 102.901478 199.722373 
L 103.593715 169.039066 
L 104.284797 153.293858 
L 104.977035 127.799047 
L 105.669272 111.348576 
L 106.361509 82.791601 
L 107.05535 95.721787 
L 107.747587 96.988514 
L 108.439825 131.843942 
L 109.824962 210.742864 
L 110.517208 236.72648 
L 111.209437 246.346814 
L 111.901674 264.413002 
L 112.593675 271.48552 
L 113.285912 259.696412 
L 113.978149 261.86984 
L 114.670387 263.558229 
L 115.361972 259.729478 
L 116.054209 270.670486 
L 116.746446 264.492827 
L 117.438683 274.477779 
L 118.130907 277.399204 
L 118.823151 274.948054 
L 119.515395 271.002958 
L 120.207625 255.003209 
L 121.594579 212.576676 
L 122.286816 183.612396 
L 123.67129 159.368723 
L 124.363909 151.767127 
L 125.056146 181.352779 
L 125.748383 200.607565 
L 127.129632 263.826739 
L 127.82187 265.506592 
L 128.514107 290.726149 
L 129.206344 295.2549 
L 129.89967 283.776693 
L 130.591908 262.071596 
L 132.670814 181.317793 
L 133.363058 165.046214 
L 134.055295 157.478948 
L 134.747532 152.932143 
L 135.437802 164.312621 
L 137.514514 185.428602 
L 138.204709 200.014728 
L 138.896947 209.123326 
L 139.589184 223.204245 
L 140.281421 233.521322 
L 140.976101 232.343253 
L 141.668336 226.397955 
L 142.360573 193.56958 
L 143.05281 173.684177 
L 143.744756 143.379566 
L 144.436993 127.567285 
L 145.129236 105.487115 
L 145.821474 96.981711 
L 146.511257 97.780878 
L 147.203494 104.350297 
L 147.895731 97.031154 
L 148.588378 98.784877 
L 149.281455 85.643358 
L 149.973692 83.494783 
L 150.665929 91.436871 
L 151.358166 120.058324 
L 152.05041 138.471868 
L 152.743731 177.441747 
L 153.435969 198.242988 
L 154.128206 214.993623 
L 154.820443 220.556237 
L 155.510224 232.103571 
L 156.20247 229.417327 
L 156.894699 234.130459 
M 158.279343 200.217739 
L 158.97158 202.14022 
L 159.663852 237.624463 
L 160.356055 235.118164 
L 161.051271 195.144931 
L 161.743508 168.754831 
L 162.435745 149.63591 
L 163.127989 124.886587 
L 163.818557 120.769886 
L 164.510795 107.494613 
M 165.895269 105.497696 
L 166.586145 108.316027 
L 167.278382 84.815751 
L 167.970626 87.291834 
L 168.662863 80.269925 
L 170.048694 85.723252 
L 170.740931 104.272563 
L 173.510286 210.219972 
L 175.585225 224.718341 
L 176.277462 233.909495 
L 176.969699 239.338769 
L 178.354724 234.483112 
L 179.046962 218.801251 
L 179.739205 222.114093 
L 180.434067 187.666245 
L 181.126297 184.637811 
L 181.818534 157.234605 
L 182.510778 147.187066 
L 183.200632 129.445981 
L 183.892876 123.526308 
L 184.585113 123.273229 
L 185.2776 126.650577 
L 185.969588 92.290835 
L 186.661455 123.190554 
L 187.353692 118.759543 
L 188.738167 173.718713 
M 191.509762 264.951359 
L 192.199235 265.588225 
L 192.891481 270.286949 
L 193.583718 273.889218 
L 194.275953 295.488 
L 194.967935 287.987074 
L 195.660172 290.085143 
M 197.044646 282.273831 
L 197.738917 268.376186 
L 198.431154 235.735543 
L 199.123391 213.035733 
L 199.815628 197.147462 
L 200.508823 168.509312 
L 201.20106 157.176686 
L 201.893304 169.7552 
L 202.585541 161.20513 
L 203.275538 188.551828 
L 203.967776 209.379166 
L 204.660013 240.937769 
L 205.35225 264.126284 
L 206.044672 282.023523 
L 206.736909 278.345538 
L 207.429146 269.869294 
L 208.121383 256.00379 
L 208.815873 221.79487 
L 209.50811 198.976743 
L 210.200348 161.931255 
L 210.892585 148.719402 
L 211.583861 132.239764 
L 212.276099 122.082256 
L 212.968342 100.093195 
L 215.044156 53.568 
L 215.736393 55.515976 
L 216.428631 75.043819 
L 217.120874 100.642794 
L 217.814995 133.55946 
L 218.507232 192.257689 
L 219.199469 222.683209 
L 219.891706 247.371066 
L 220.58497 267.812941 
L 221.277214 267.395695 
L 221.969824 274.321374 
L 222.661681 265.87781 
L 223.354881 261.38221 
L 225.431599 150.653298 
L 227.507804 69.167078 
L 228.200041 64.105501 
L 228.892598 80.752775 
L 229.584835 100.871336 
L 230.277072 134.618957 
L 230.96931 161.709276 
L 231.661953 182.521415 
L 232.35419 211.77977 
L 233.046427 225.970944 
L 233.738664 229.916475 
L 234.434318 235.750967 
L 235.126562 238.833751 
L 235.818799 237.652733 
L 237.205725 217.958708 
L 237.897963 202.303689 
L 238.5902 196.891811 
L 239.282437 195.823428 
M 240.658539 224.059747 
L 241.350776 234.207928 
L 242.735331 278.672284 
L 243.427569 291.115815 
L 244.119806 294.349953 
L 245.504977 251.680917 
L 246.197214 230.370526 
L 246.889449 218.571095 
L 247.581686 190.162652 
L 248.967115 164.689097 
L 249.659352 151.009888 
L 250.351589 148.06424 
L 251.043826 153.442237 
L 251.736771 151.804167 
L 253.121246 180.16187 
L 253.81349 219.207509 
L 254.500718 205.227471 
L 255.192947 238.997803 
L 255.885192 236.960647 
L 256.577429 265.65719 
L 257.269926 271.848095 
L 257.962163 280.558966 
L 258.6544 287.861175 
L 259.346637 284.669459 
L 260.040695 274.467115 
L 262.80931 201.79656 
L 263.501547 169.248403 
L 264.193784 162.018089 
L 264.886021 138.748391 
L 265.576308 129.458757 
L 266.268553 123.213781 
M 268.344813 94.40226 
L 269.03705 93.408535 
M 273.886626 166.917651 
L 274.578864 174.66644 
M 280.11432 157.170387 
L 280.806557 144.329518 
M 291.190092 177.386667 
L 291.882329 174.157519 
M 296.728311 201.318879 
L 297.420548 245.635668 
M 305.72952 229.723753 
L 306.421757 241.732547 
L 307.114493 248.415191 
M 308.496983 234.380193 
L 309.18922 241.314761 
M 316.803859 230.854542 
L 317.496096 223.491111 
L 318.188333 243.567227 
L 318.880571 219.208159 
M 323.726858 108.574105 
L 324.419095 111.829603 
L 325.805058 154.525942 
L 326.497302 169.596526 
M 328.576974 174.369114 
L 329.269218 152.585632 
M 330.653469 124.011153 
L 331.346218 131.645208 
L 332.037944 123.937963 
L 332.730181 125.821528 
L 333.422638 142.645445 
L 334.114875 148.255529 
L 334.807119 173.104707 
M 339.651661 151.172693 
L 340.343899 163.676378 
L 341.036136 182.069738 
L 341.726718 210.057028 
L 342.418955 218.470322 
L 343.111192 219.415388 
L 343.803429 245.603618 
M 345.877414 222.399678 
L 346.569651 200.470913 
M 354.184019 229.489413 
L 354.87625 237.666377 
M 357.647653 213.424205 
L 358.33989 195.067934 
L 359.029714 181.632672 
L 359.721951 175.366501 
M 362.491511 168.023731 
L 363.183748 194.871137 
L 363.875985 204.295364 
M 366.6451 214.98843 
L 367.338052 179.322877 
M 368.722533 162.219357 
L 369.41477 149.514654 
L 370.107983 143.188836 
L 370.80022 133.758501 
L 371.492457 138.527292 
M 374.262395 166.169188 
L 374.95463 162.822335 
L 375.647823 158.747087 
L 376.34006 141.386458 
M 383.260573 174.601673 
L 383.952811 181.953717 
L 384.644637 179.288257 
M 388.104412 199.521941 
L 388.796657 192.853747 
L 389.488894 198.165453 
L 390.179932 201.354169 
L 390.872169 190.407539 
L 391.564426 205.058039 
L 391.564426 205.058039 
" style="fill:none;stroke:#ff0000;stroke-linecap:square;"/>
   </g>
   <g id="line2d_134">
    <path clip-path="url(#p96480e814c)" d="M 73.832727 163.013635 
L 74.524971 163.538625 
L 75.217208 163.213621 
L 75.90628 159.668767 
L 76.598517 158.187119 
L 77.982991 153.011688 
L 78.6751 152.257556 
L 79.367337 150.061361 
L 80.059581 146.762554 
L 80.751818 146.174015 
L 82.138725 146.582897 
L 82.830962 146.29086 
L 83.523199 144.26344 
L 84.216653 145.373125 
L 84.908883 143.897 
L 85.601147 141.63819 
L 86.293364 137.943759 
L 86.985656 135.312681 
L 87.675135 134.889796 
L 88.367373 133.697381 
L 89.05961 134.080513 
L 89.751847 133.17987 
L 90.441987 135.243053 
L 91.13423 133.868028 
L 91.826467 134.509823 
L 92.518705 125.383293 
L 93.902011 94.258976 
L 94.594254 86.358474 
L 95.286491 81.759241 
L 95.979336 90.070788 
L 97.363819 135.72958 
L 99.44205 199.428597 
L 100.133837 213.390487 
L 100.826074 216.688839 
L 101.516997 208.356261 
M 102.901478 180.409407 
L 104.284797 151.71031 
L 104.977035 130.793593 
L 105.669272 106.433771 
L 106.361509 91.200881 
L 107.05535 90.840336 
L 107.747587 99.877633 
L 108.439825 127.237542 
L 109.824962 198.426015 
L 111.209437 248.963622 
L 111.901674 266.900938 
L 112.593675 272.41461 
L 113.285912 265.149409 
L 113.978149 261.593591 
L 114.670387 260.573971 
L 115.361972 260.331922 
L 116.054209 265.665736 
L 116.746446 273.655089 
L 117.438683 276.656658 
L 118.130907 273.724152 
L 118.823151 273.405476 
L 119.515395 268.318649 
L 120.207625 254.254208 
L 121.594579 212.76994 
L 122.286816 187.05622 
L 122.97906 169.969706 
L 123.67129 165.402287 
L 124.363909 168.544214 
L 125.056146 181.862637 
L 125.748383 204.151539 
L 126.44062 231.689109 
L 127.82187 272.807738 
L 128.514107 288.72487 
L 129.206344 293.931213 
L 129.89967 283.617242 
L 130.591908 265.115435 
L 132.670814 186.180857 
L 133.363058 169.202624 
L 134.055295 158.739937 
L 134.747532 156.698841 
L 135.437802 163.366129 
L 137.514514 187.446451 
L 138.204709 199.923549 
L 140.281421 230.79868 
L 140.976101 231.340444 
L 141.668336 217.651443 
L 143.05281 173.091684 
L 144.436993 122.512291 
L 145.129236 105.056335 
L 145.821474 96.687372 
L 146.511257 96.777898 
L 147.203494 101.492777 
L 147.895731 103.748907 
L 148.588378 97.361627 
L 149.281455 87.637079 
L 149.973692 83.67219 
L 150.665929 92.060899 
L 151.358166 112.855891 
L 152.743731 170.020536 
L 153.435969 197.750534 
L 154.128206 213.815104 
L 154.820443 222.62568 
L 155.510224 226.741472 
L 156.20247 228.106313 
L 156.894699 228.763211 
M 158.279343 237.324592 
L 158.97158 239.439193 
L 159.663852 235.347322 
L 160.356055 221.68417 
L 162.435745 146.272163 
L 163.127989 126.126586 
L 163.818557 112.283538 
L 164.510795 107.170047 
M 165.895269 106.534757 
L 166.586145 107.052398 
L 168.662863 80.009312 
L 169.356457 80.987562 
L 170.048694 90.847437 
L 170.740931 107.353133 
L 173.510286 202.855734 
L 174.202529 213.972266 
L 174.892987 222.090977 
L 175.585225 226.951917 
L 176.277462 228.295221 
L 176.969699 227.424591 
L 177.662487 226.134499 
L 178.354724 226.480915 
L 179.046962 224.0552 
L 179.739205 214.992581 
L 182.510778 144.99248 
L 183.892876 120.519045 
L 184.585113 112.584877 
L 185.2776 111.128862 
L 185.969588 106.685193 
L 186.661455 110.799678 
L 187.353692 119.501928 
L 188.738167 156.083298 
M 191.509762 264.702469 
L 192.199235 265.015955 
L 192.891481 266.526269 
L 193.583718 270.300085 
L 194.275953 278.894578 
L 195.660172 289.385929 
M 197.044646 281.664016 
L 197.738917 264.249369 
L 198.431154 241.462796 
L 199.815628 189.705121 
L 200.508823 170.346768 
L 201.20106 162.146164 
L 201.893304 160.69856 
L 202.585541 169.038171 
L 203.275538 183.650853 
L 203.967776 206.33472 
L 205.35225 262.329347 
L 206.044672 277.554324 
L 206.736909 280.765719 
L 207.429146 269.712172 
L 208.121383 246.090948 
L 209.50811 192.037546 
L 210.892585 148.13115 
L 211.583861 133.473748 
L 212.276099 123.725161 
L 212.968342 109.978036 
L 215.044156 55.108271 
L 215.736393 55.279702 
L 216.428631 72.119502 
L 217.120874 99.324943 
L 217.814995 132.327596 
L 219.891706 246.111929 
L 220.58497 268.244738 
L 221.277214 276.803483 
L 221.969824 276.016183 
L 222.661681 267.49346 
L 223.354881 249.329255 
L 224.739362 187.220861 
L 226.815566 91.615713 
L 227.507804 68.786685 
L 228.200041 64.759584 
L 228.892598 79.318977 
L 229.584835 100.719379 
L 231.661953 177.188557 
L 232.35419 197.907076 
L 233.046427 213.313175 
L 233.738664 224.251806 
L 235.126562 241.094326 
L 235.818799 241.152566 
L 236.511036 231.973726 
L 237.897963 204.274462 
L 238.5902 198.122517 
L 239.282437 198.665611 
M 240.658539 213.680495 
L 241.350776 232.831264 
L 242.735331 279.229366 
L 243.427569 288.77902 
L 244.119806 284.136339 
L 245.504977 248.715039 
L 247.581686 195.074149 
L 248.967115 166.152408 
L 249.659352 156.942981 
L 250.351589 152.195853 
L 251.043826 152.172671 
L 251.736771 161.230866 
L 253.81349 212.888952 
L 255.192947 235.628525 
L 256.577429 255.293481 
L 257.962163 280.85114 
L 258.6544 287.339337 
L 259.346637 285.224068 
L 260.040695 275.683646 
L 261.425169 241.175241 
L 263.501547 180.927989 
L 265.576308 129.411554 
L 266.268553 113.72121 
M 268.344813 94.34199 
L 269.03705 91.097329 
M 273.886626 167.800889 
L 274.578864 173.854626 
M 280.11432 157.791271 
L 280.806557 150.045583 
M 291.190092 170.571185 
L 291.882329 165.57698 
M 296.728311 217.347035 
L 297.420548 235.752673 
M 305.72952 233.478102 
L 306.421757 250.219027 
L 307.114493 256.329662 
M 308.496983 243.268461 
L 309.18922 229.054585 
M 316.803859 248.928641 
L 317.496096 244.418195 
L 318.188333 236.989276 
L 318.880571 220.095728 
M 323.726858 102.844641 
L 324.419095 112.253068 
L 325.112821 127.23879 
L 325.805058 150.552212 
L 326.497302 169.001512 
M 328.576974 165.289665 
L 329.269218 152.392462 
M 330.653469 129.549622 
L 331.346218 127.877801 
L 332.037944 125.799287 
L 332.730181 130.445452 
L 333.422638 139.566247 
L 334.114875 146.82996 
L 334.807119 166.9606 
M 339.651661 152.761446 
L 341.036136 177.097568 
L 341.726718 199.165085 
L 342.418955 217.069495 
L 343.111192 230.21461 
L 343.803429 237.41197 
M 345.877414 216.809415 
L 346.569651 203.805034 
M 354.184019 238.212579 
L 354.87625 239.517225 
M 357.647653 212.310345 
L 359.029714 187.211591 
L 359.721951 180.939089 
M 362.491511 191.120822 
L 363.875985 206.275354 
M 366.6451 200.016993 
L 367.338052 191.883269 
M 368.722533 166.356864 
L 370.107983 135.785191 
L 370.80022 131.261121 
L 371.492457 136.111205 
M 374.262395 165.475919 
L 374.95463 162.427108 
L 375.647823 151.467046 
L 376.34006 142.785749 
M 383.260573 177.0034 
L 383.952811 177.866913 
L 384.644637 179.879961 
M 388.104412 194.112895 
L 388.796657 195.953454 
L 390.179932 207.035102 
L 390.872169 207.340595 
L 391.564426 206.207017 
L 391.564426 206.207017 
" style="fill:none;stroke:#0000ff;stroke-linecap:square;"/>
   </g>
   <g id="line2d_135">
    <path clip-path="url(#p96480e814c)" d="M 266.960791 103.91729 
L 267.653028 98.29224 
M 269.729287 95.697259 
L 271.116285 122.637167 
L 271.808522 131.292359 
L 273.192996 154.105046 
M 275.271101 175.86109 
L 275.963338 172.471467 
L 278.040266 157.885111 
L 278.732503 157.170875 
L 279.422083 158.380612 
M 281.498794 139.776928 
L 282.192431 134.900251 
L 282.885262 131.084309 
L 283.576905 138.896223 
L 284.961386 163.975562 
M 287.729008 164.744846 
L 288.421904 164.054982 
L 289.114148 172.192691 
L 289.806385 176.447762 
L 290.498622 174.155232 
M 292.574566 153.66091 
L 293.266803 144.624844 
L 293.961207 147.890668 
L 294.653451 156.534011 
L 295.345682 173.504815 
L 296.037925 194.464887 
M 299.500625 230.350177 
L 300.192862 224.204703 
L 300.885099 216.185301 
L 301.577343 195.919505 
M 302.959621 164.926387 
L 303.651864 169.506956 
L 304.344095 181.779624 
L 305.037283 205.015518 
M 309.881458 217.313415 
L 311.268039 183.889147 
L 311.960277 175.524775 
L 312.65252 180.277314 
L 314.035729 206.876379 
L 314.727973 227.854785 
M 319.576584 204.066465 
L 320.961058 149.984962 
L 322.342377 112.671119 
L 323.034614 102.441418 
M 327.189539 180.858303 
L 327.884744 177.028831 
M 335.499356 182.802153 
L 336.190619 189.739076 
L 336.882856 183.695854 
L 337.575094 167.550973 
M 344.492933 239.564681 
L 345.18517 230.614046 
M 348.646226 189.22727 
L 349.338463 193.86496 
L 350.0307 203.598838 
L 351.414505 227.933799 
L 352.106742 236.658419 
L 352.798979 242.986886 
L 353.491776 242.807972 
M 355.569124 241.153167 
L 356.26317 235.913901 
L 356.955416 225.636774 
M 360.414189 179.85327 
L 361.106426 180.657947 
L 361.799274 185.973976 
M 377.032291 143.882894 
L 377.724534 145.350317 
M 381.184476 138.439838 
L 381.876099 151.264015 
L 382.568336 166.910949 
M 385.336874 178.640962 
L 386.029111 181.76984 
L 386.721348 189.717794 
L 387.412183 193.361881 
M 392.256643 204.738706 
L 392.948735 202.088753 
L 393.640972 197.890562 
L 394.333209 198.26843 
L 395.025447 198.22077 
L 395.717867 197.685542 
L 396.410104 196.305052 
L 397.102341 195.277491 
L 397.794578 191.921532 
L 398.487273 189.50579 
L 398.487273 189.50579 
" style="fill:none;stroke:#008000;stroke-linecap:square;"/>
   </g>
   <g id="patch_3">
    <path d="M 57.6 307.584 
L 57.6 41.472 
" style="fill:none;stroke:#000000;stroke-linecap:square;stroke-linejoin:miter;stroke-width:0.8;"/>
   </g>
   <g id="patch_4">
    <path d="M 414.72 307.584 
L 414.72 41.472 
" style="fill:none;stroke:#000000;stroke-linecap:square;stroke-linejoin:miter;stroke-width:0.8;"/>
   </g>
   <g id="patch_5">
    <path d="M 57.6 307.584 
L 414.72 307.584 
" style="fill:none;stroke:#000000;stroke-linecap:square;stroke-linejoin:miter;stroke-width:0.8;"/>
   </g>
   <g id="patch_6">
    <path d="M 57.6 41.472 
L 414.72 41.472 
" style="fill:none;stroke:#000000;stroke-linecap:square;stroke-linejoin:miter;stroke-width:0.8;"/>
   </g>
   <g id="text_16">
    <!-- Rel Gt Trans X Plot -->
    <defs>
     <path d="M 44.390625 34.1875 
Q 47.5625 33.109375 50.5625 29.59375 
Q 53.5625 26.078125 56.59375 19.921875 
L 66.609375 0 
L 56 0 
L 46.6875 18.703125 
Q 43.0625 26.03125 39.671875 28.421875 
Q 36.28125 30.8125 30.421875 30.8125 
L 19.671875 30.8125 
L 19.671875 0 
L 9.8125 0 
L 9.8125 72.90625 
L 32.078125 72.90625 
Q 44.578125 72.90625 50.734375 67.671875 
Q 56.890625 62.453125 56.890625 51.90625 
Q 56.890625 45.015625 53.6875 40.46875 
Q 50.484375 35.9375 44.390625 34.1875 
z
M 19.671875 64.796875 
L 19.671875 38.921875 
L 32.078125 38.921875 
Q 39.203125 38.921875 42.84375 42.21875 
Q 46.484375 45.515625 46.484375 51.90625 
Q 46.484375 58.296875 42.84375 61.546875 
Q 39.203125 64.796875 32.078125 64.796875 
z
" id="DejaVuSans-52"/>
     <path d="M 9.421875 75.984375 
L 18.40625 75.984375 
L 18.40625 0 
L 9.421875 0 
z
" id="DejaVuSans-6c"/>
     <path d="M 59.515625 10.40625 
L 59.515625 29.984375 
L 43.40625 29.984375 
L 43.40625 38.09375 
L 69.28125 38.09375 
L 69.28125 6.78125 
Q 63.578125 2.734375 56.6875 0.65625 
Q 49.8125 -1.421875 42 -1.421875 
Q 24.90625 -1.421875 15.25 8.5625 
Q 5.609375 18.5625 5.609375 36.375 
Q 5.609375 54.25 15.25 64.234375 
Q 24.90625 74.21875 42 74.21875 
Q 49.125 74.21875 55.546875 72.453125 
Q 61.96875 70.703125 67.390625 67.28125 
L 67.390625 56.78125 
Q 61.921875 61.421875 55.765625 63.765625 
Q 49.609375 66.109375 42.828125 66.109375 
Q 29.4375 66.109375 22.71875 58.640625 
Q 16.015625 51.171875 16.015625 36.375 
Q 16.015625 21.625 22.71875 14.15625 
Q 29.4375 6.6875 42.828125 6.6875 
Q 48.046875 6.6875 52.140625 7.59375 
Q 56.25 8.5 59.515625 10.40625 
z
" id="DejaVuSans-47"/>
     <path d="M -0.296875 72.90625 
L 61.375 72.90625 
L 61.375 64.59375 
L 35.5 64.59375 
L 35.5 0 
L 25.59375 0 
L 25.59375 64.59375 
L -0.296875 64.59375 
z
" id="DejaVuSans-54"/>
     <path d="M 6.296875 72.90625 
L 16.890625 72.90625 
L 35.015625 45.796875 
L 53.21875 72.90625 
L 63.8125 72.90625 
L 40.375 37.890625 
L 65.375 0 
L 54.78125 0 
L 34.28125 31 
L 13.625 0 
L 2.984375 0 
L 29 38.921875 
z
" id="DejaVuSans-58"/>
     <path d="M 19.671875 64.796875 
L 19.671875 37.40625 
L 32.078125 37.40625 
Q 38.96875 37.40625 42.71875 40.96875 
Q 46.484375 44.53125 46.484375 51.125 
Q 46.484375 57.671875 42.71875 61.234375 
Q 38.96875 64.796875 32.078125 64.796875 
z
M 9.8125 72.90625 
L 32.078125 72.90625 
Q 44.34375 72.90625 50.609375 67.359375 
Q 56.890625 61.8125 56.890625 51.125 
Q 56.890625 40.328125 50.609375 34.8125 
Q 44.34375 29.296875 32.078125 29.296875 
L 19.671875 29.296875 
L 19.671875 0 
L 9.8125 0 
z
" id="DejaVuSans-50"/>
     <path d="M 30.609375 48.390625 
Q 23.390625 48.390625 19.1875 42.75 
Q 14.984375 37.109375 14.984375 27.296875 
Q 14.984375 17.484375 19.15625 11.84375 
Q 23.34375 6.203125 30.609375 6.203125 
Q 37.796875 6.203125 41.984375 11.859375 
Q 46.1875 17.53125 46.1875 27.296875 
Q 46.1875 37.015625 41.984375 42.703125 
Q 37.796875 48.390625 30.609375 48.390625 
z
M 30.609375 56 
Q 42.328125 56 49.015625 48.375 
Q 55.71875 40.765625 55.71875 27.296875 
Q 55.71875 13.875 49.015625 6.21875 
Q 42.328125 -1.421875 30.609375 -1.421875 
Q 18.84375 -1.421875 12.171875 6.21875 
Q 5.515625 13.875 5.515625 27.296875 
Q 5.515625 40.765625 12.171875 48.375 
Q 18.84375 56 30.609375 56 
z
" id="DejaVuSans-6f"/>
    </defs>
    <g transform="translate(179.865938 35.472)scale(0.12 -0.12)">
     <use xlink:href="#DejaVuSans-52"/>
     <use x="69.419922" xlink:href="#DejaVuSans-65"/>
     <use x="130.943359" xlink:href="#DejaVuSans-6c"/>
     <use x="158.726562" xlink:href="#DejaVuSans-20"/>
     <use x="190.513672" xlink:href="#DejaVuSans-47"/>
     <use x="268.003906" xlink:href="#DejaVuSans-74"/>
     <use x="307.212891" xlink:href="#DejaVuSans-20"/>
     <use x="339" xlink:href="#DejaVuSans-54"/>
     <use x="399.865234" xlink:href="#DejaVuSans-72"/>
     <use x="440.978516" xlink:href="#DejaVuSans-61"/>
     <use x="502.257812" xlink:href="#DejaVuSans-6e"/>
     <use x="565.636719" xlink:href="#DejaVuSans-73"/>
     <use x="617.736328" xlink:href="#DejaVuSans-20"/>
     <use x="649.523438" xlink:href="#DejaVuSans-58"/>
     <use x="718.029297" xlink:href="#DejaVuSans-20"/>
     <use x="749.816406" xlink:href="#DejaVuSans-50"/>
     <use x="810.119141" xlink:href="#DejaVuSans-6c"/>
     <use x="837.902344" xlink:href="#DejaVuSans-6f"/>
     <use x="899.083984" xlink:href="#DejaVuSans-74"/>
    </g>
   </g>
  </g>
 </g>
 <defs>
  <clipPath id="p96480e814c">
   <rect height="266.112" width="357.12" x="57.6" y="41.472"/>
  </clipPath>
 </defs>
</svg>
