<?xml version="1.0" encoding="utf-8" standalone="no"?>
<!DOCTYPE svg PUBLIC "-//W3C//DTD SVG 1.1//EN"
  "http://www.w3.org/Graphics/SVG/1.1/DTD/svg11.dtd">
<!-- Created with matplotlib (http://matplotlib.org/) -->
<svg height="345.6pt" version="1.1" viewBox="0 0 460.8 345.6" width="460.8pt" xmlns="http://www.w3.org/2000/svg" xmlns:xlink="http://www.w3.org/1999/xlink">
 <defs>
  <style type="text/css">
*{stroke-linecap:butt;stroke-linejoin:round;}
  </style>
 </defs>
 <g id="figure_1">
  <g id="patch_1">
   <path d="M 0 345.6 
L 460.8 345.6 
L 460.8 0 
L 0 0 
z
" style="fill:#ffffff;"/>
  </g>
  <g id="axes_1">
   <g id="patch_2">
    <path d="M 57.6 307.584 
L 414.72 307.584 
L 414.72 41.472 
L 57.6 41.472 
z
" style="fill:#ffffff;"/>
   </g>
   <g id="matplotlib.axis_1">
    <g id="xtick_1">
     <g id="line2d_1">
      <path clip-path="url(#pe3530d67af)" d="M 70.555248 307.584 
L 70.555248 41.472 
" style="fill:none;stroke:#b0b0b0;stroke-linecap:square;stroke-width:0.8;"/>
     </g>
     <g id="line2d_2">
      <defs>
       <path d="M 0 0 
L 0 3.5 
" id="mdc9a3900e3" style="stroke:#000000;stroke-width:0.8;"/>
      </defs>
      <g>
       <use style="stroke:#000000;stroke-width:0.8;" x="70.555248" xlink:href="#mdc9a3900e3" y="307.584"/>
      </g>
     </g>
     <g id="text_1">
      <!-- 0 -->
      <defs>
       <path d="M 31.78125 66.40625 
Q 24.171875 66.40625 20.328125 58.90625 
Q 16.5 51.421875 16.5 36.375 
Q 16.5 21.390625 20.328125 13.890625 
Q 24.171875 6.390625 31.78125 6.390625 
Q 39.453125 6.390625 43.28125 13.890625 
Q 47.125 21.390625 47.125 36.375 
Q 47.125 51.421875 43.28125 58.90625 
Q 39.453125 66.40625 31.78125 66.40625 
z
M 31.78125 74.21875 
Q 44.046875 74.21875 50.515625 64.515625 
Q 56.984375 54.828125 56.984375 36.375 
Q 56.984375 17.96875 50.515625 8.265625 
Q 44.046875 -1.421875 31.78125 -1.421875 
Q 19.53125 -1.421875 13.0625 8.265625 
Q 6.59375 17.96875 6.59375 36.375 
Q 6.59375 54.828125 13.0625 64.515625 
Q 19.53125 74.21875 31.78125 74.21875 
z
" id="DejaVuSans-30"/>
      </defs>
      <g transform="translate(67.373998 322.182437)scale(0.1 -0.1)">
       <use xlink:href="#DejaVuSans-30"/>
      </g>
     </g>
    </g>
    <g id="xtick_2">
     <g id="line2d_3">
      <path clip-path="url(#pe3530d67af)" d="M 139.776886 307.584 
L 139.776886 41.472 
" style="fill:none;stroke:#b0b0b0;stroke-linecap:square;stroke-width:0.8;"/>
     </g>
     <g id="line2d_4">
      <g>
       <use style="stroke:#000000;stroke-width:0.8;" x="139.776886" xlink:href="#mdc9a3900e3" y="307.584"/>
      </g>
     </g>
     <g id="text_2">
      <!-- 10 -->
      <defs>
       <path d="M 12.40625 8.296875 
L 28.515625 8.296875 
L 28.515625 63.921875 
L 10.984375 60.40625 
L 10.984375 69.390625 
L 28.421875 72.90625 
L 38.28125 72.90625 
L 38.28125 8.296875 
L 54.390625 8.296875 
L 54.390625 0 
L 12.40625 0 
z
" id="DejaVuSans-31"/>
      </defs>
      <g transform="translate(133.414386 322.182437)scale(0.1 -0.1)">
       <use xlink:href="#DejaVuSans-31"/>
       <use x="63.623047" xlink:href="#DejaVuSans-30"/>
      </g>
     </g>
    </g>
    <g id="xtick_3">
     <g id="line2d_5">
      <path clip-path="url(#pe3530d67af)" d="M 208.998523 307.584 
L 208.998523 41.472 
" style="fill:none;stroke:#b0b0b0;stroke-linecap:square;stroke-width:0.8;"/>
     </g>
     <g id="line2d_6">
      <g>
       <use style="stroke:#000000;stroke-width:0.8;" x="208.998523" xlink:href="#mdc9a3900e3" y="307.584"/>
      </g>
     </g>
     <g id="text_3">
      <!-- 20 -->
      <defs>
       <path d="M 19.1875 8.296875 
L 53.609375 8.296875 
L 53.609375 0 
L 7.328125 0 
L 7.328125 8.296875 
Q 12.9375 14.109375 22.625 23.890625 
Q 32.328125 33.6875 34.8125 36.53125 
Q 39.546875 41.84375 41.421875 45.53125 
Q 43.3125 49.21875 43.3125 52.78125 
Q 43.3125 58.59375 39.234375 62.25 
Q 35.15625 65.921875 28.609375 65.921875 
Q 23.96875 65.921875 18.8125 64.3125 
Q 13.671875 62.703125 7.8125 59.421875 
L 7.8125 69.390625 
Q 13.765625 71.78125 18.9375 73 
Q 24.125 74.21875 28.421875 74.21875 
Q 39.75 74.21875 46.484375 68.546875 
Q 53.21875 62.890625 53.21875 53.421875 
Q 53.21875 48.921875 51.53125 44.890625 
Q 49.859375 40.875 45.40625 35.40625 
Q 44.1875 33.984375 37.640625 27.21875 
Q 31.109375 20.453125 19.1875 8.296875 
z
" id="DejaVuSans-32"/>
      </defs>
      <g transform="translate(202.636023 322.182437)scale(0.1 -0.1)">
       <use xlink:href="#DejaVuSans-32"/>
       <use x="63.623047" xlink:href="#DejaVuSans-30"/>
      </g>
     </g>
    </g>
    <g id="xtick_4">
     <g id="line2d_7">
      <path clip-path="url(#pe3530d67af)" d="M 278.220161 307.584 
L 278.220161 41.472 
" style="fill:none;stroke:#b0b0b0;stroke-linecap:square;stroke-width:0.8;"/>
     </g>
     <g id="line2d_8">
      <g>
       <use style="stroke:#000000;stroke-width:0.8;" x="278.220161" xlink:href="#mdc9a3900e3" y="307.584"/>
      </g>
     </g>
     <g id="text_4">
      <!-- 30 -->
      <defs>
       <path d="M 40.578125 39.3125 
Q 47.65625 37.796875 51.625 33 
Q 55.609375 28.21875 55.609375 21.1875 
Q 55.609375 10.40625 48.1875 4.484375 
Q 40.765625 -1.421875 27.09375 -1.421875 
Q 22.515625 -1.421875 17.65625 -0.515625 
Q 12.796875 0.390625 7.625 2.203125 
L 7.625 11.71875 
Q 11.71875 9.328125 16.59375 8.109375 
Q 21.484375 6.890625 26.8125 6.890625 
Q 36.078125 6.890625 40.9375 10.546875 
Q 45.796875 14.203125 45.796875 21.1875 
Q 45.796875 27.640625 41.28125 31.265625 
Q 36.765625 34.90625 28.71875 34.90625 
L 20.21875 34.90625 
L 20.21875 43.015625 
L 29.109375 43.015625 
Q 36.375 43.015625 40.234375 45.921875 
Q 44.09375 48.828125 44.09375 54.296875 
Q 44.09375 59.90625 40.109375 62.90625 
Q 36.140625 65.921875 28.71875 65.921875 
Q 24.65625 65.921875 20.015625 65.03125 
Q 15.375 64.15625 9.8125 62.3125 
L 9.8125 71.09375 
Q 15.4375 72.65625 20.34375 73.4375 
Q 25.25 74.21875 29.59375 74.21875 
Q 40.828125 74.21875 47.359375 69.109375 
Q 53.90625 64.015625 53.90625 55.328125 
Q 53.90625 49.265625 50.4375 45.09375 
Q 46.96875 40.921875 40.578125 39.3125 
z
" id="DejaVuSans-33"/>
      </defs>
      <g transform="translate(271.857661 322.182437)scale(0.1 -0.1)">
       <use xlink:href="#DejaVuSans-33"/>
       <use x="63.623047" xlink:href="#DejaVuSans-30"/>
      </g>
     </g>
    </g>
    <g id="xtick_5">
     <g id="line2d_9">
      <path clip-path="url(#pe3530d67af)" d="M 347.441799 307.584 
L 347.441799 41.472 
" style="fill:none;stroke:#b0b0b0;stroke-linecap:square;stroke-width:0.8;"/>
     </g>
     <g id="line2d_10">
      <g>
       <use style="stroke:#000000;stroke-width:0.8;" x="347.441799" xlink:href="#mdc9a3900e3" y="307.584"/>
      </g>
     </g>
     <g id="text_5">
      <!-- 40 -->
      <defs>
       <path d="M 37.796875 64.3125 
L 12.890625 25.390625 
L 37.796875 25.390625 
z
M 35.203125 72.90625 
L 47.609375 72.90625 
L 47.609375 25.390625 
L 58.015625 25.390625 
L 58.015625 17.1875 
L 47.609375 17.1875 
L 47.609375 0 
L 37.796875 0 
L 37.796875 17.1875 
L 4.890625 17.1875 
L 4.890625 26.703125 
z
" id="DejaVuSans-34"/>
      </defs>
      <g transform="translate(341.079299 322.182437)scale(0.1 -0.1)">
       <use xlink:href="#DejaVuSans-34"/>
       <use x="63.623047" xlink:href="#DejaVuSans-30"/>
      </g>
     </g>
    </g>
    <g id="xtick_6">
     <g id="line2d_11">
      <path clip-path="url(#pe3530d67af)" d="M 84.399575 307.584 
L 84.399575 41.472 
" style="fill:none;stroke:#b0b0b0;stroke-linecap:square;stroke-width:0.8;"/>
     </g>
     <g id="line2d_12">
      <defs>
       <path d="M 0 0 
L 0 2 
" id="m1fedbda656" style="stroke:#000000;stroke-width:0.6;"/>
      </defs>
      <g>
       <use style="stroke:#000000;stroke-width:0.6;" x="84.399575" xlink:href="#m1fedbda656" y="307.584"/>
      </g>
     </g>
    </g>
    <g id="xtick_7">
     <g id="line2d_13">
      <path clip-path="url(#pe3530d67af)" d="M 98.243903 307.584 
L 98.243903 41.472 
" style="fill:none;stroke:#b0b0b0;stroke-linecap:square;stroke-width:0.8;"/>
     </g>
     <g id="line2d_14">
      <g>
       <use style="stroke:#000000;stroke-width:0.6;" x="98.243903" xlink:href="#m1fedbda656" y="307.584"/>
      </g>
     </g>
    </g>
    <g id="xtick_8">
     <g id="line2d_15">
      <path clip-path="url(#pe3530d67af)" d="M 112.08823 307.584 
L 112.08823 41.472 
" style="fill:none;stroke:#b0b0b0;stroke-linecap:square;stroke-width:0.8;"/>
     </g>
     <g id="line2d_16">
      <g>
       <use style="stroke:#000000;stroke-width:0.6;" x="112.08823" xlink:href="#m1fedbda656" y="307.584"/>
      </g>
     </g>
    </g>
    <g id="xtick_9">
     <g id="line2d_17">
      <path clip-path="url(#pe3530d67af)" d="M 125.932558 307.584 
L 125.932558 41.472 
" style="fill:none;stroke:#b0b0b0;stroke-linecap:square;stroke-width:0.8;"/>
     </g>
     <g id="line2d_18">
      <g>
       <use style="stroke:#000000;stroke-width:0.6;" x="125.932558" xlink:href="#m1fedbda656" y="307.584"/>
      </g>
     </g>
    </g>
    <g id="xtick_10">
     <g id="line2d_19">
      <path clip-path="url(#pe3530d67af)" d="M 153.621213 307.584 
L 153.621213 41.472 
" style="fill:none;stroke:#b0b0b0;stroke-linecap:square;stroke-width:0.8;"/>
     </g>
     <g id="line2d_20">
      <g>
       <use style="stroke:#000000;stroke-width:0.6;" x="153.621213" xlink:href="#m1fedbda656" y="307.584"/>
      </g>
     </g>
    </g>
    <g id="xtick_11">
     <g id="line2d_21">
      <path clip-path="url(#pe3530d67af)" d="M 167.465541 307.584 
L 167.465541 41.472 
" style="fill:none;stroke:#b0b0b0;stroke-linecap:square;stroke-width:0.8;"/>
     </g>
     <g id="line2d_22">
      <g>
       <use style="stroke:#000000;stroke-width:0.6;" x="167.465541" xlink:href="#m1fedbda656" y="307.584"/>
      </g>
     </g>
    </g>
    <g id="xtick_12">
     <g id="line2d_23">
      <path clip-path="url(#pe3530d67af)" d="M 181.309868 307.584 
L 181.309868 41.472 
" style="fill:none;stroke:#b0b0b0;stroke-linecap:square;stroke-width:0.8;"/>
     </g>
     <g id="line2d_24">
      <g>
       <use style="stroke:#000000;stroke-width:0.6;" x="181.309868" xlink:href="#m1fedbda656" y="307.584"/>
      </g>
     </g>
    </g>
    <g id="xtick_13">
     <g id="line2d_25">
      <path clip-path="url(#pe3530d67af)" d="M 195.154196 307.584 
L 195.154196 41.472 
" style="fill:none;stroke:#b0b0b0;stroke-linecap:square;stroke-width:0.8;"/>
     </g>
     <g id="line2d_26">
      <g>
       <use style="stroke:#000000;stroke-width:0.6;" x="195.154196" xlink:href="#m1fedbda656" y="307.584"/>
      </g>
     </g>
    </g>
    <g id="xtick_14">
     <g id="line2d_27">
      <path clip-path="url(#pe3530d67af)" d="M 222.842851 307.584 
L 222.842851 41.472 
" style="fill:none;stroke:#b0b0b0;stroke-linecap:square;stroke-width:0.8;"/>
     </g>
     <g id="line2d_28">
      <g>
       <use style="stroke:#000000;stroke-width:0.6;" x="222.842851" xlink:href="#m1fedbda656" y="307.584"/>
      </g>
     </g>
    </g>
    <g id="xtick_15">
     <g id="line2d_29">
      <path clip-path="url(#pe3530d67af)" d="M 236.687178 307.584 
L 236.687178 41.472 
" style="fill:none;stroke:#b0b0b0;stroke-linecap:square;stroke-width:0.8;"/>
     </g>
     <g id="line2d_30">
      <g>
       <use style="stroke:#000000;stroke-width:0.6;" x="236.687178" xlink:href="#m1fedbda656" y="307.584"/>
      </g>
     </g>
    </g>
    <g id="xtick_16">
     <g id="line2d_31">
      <path clip-path="url(#pe3530d67af)" d="M 250.531506 307.584 
L 250.531506 41.472 
" style="fill:none;stroke:#b0b0b0;stroke-linecap:square;stroke-width:0.8;"/>
     </g>
     <g id="line2d_32">
      <g>
       <use style="stroke:#000000;stroke-width:0.6;" x="250.531506" xlink:href="#m1fedbda656" y="307.584"/>
      </g>
     </g>
    </g>
    <g id="xtick_17">
     <g id="line2d_33">
      <path clip-path="url(#pe3530d67af)" d="M 264.375834 307.584 
L 264.375834 41.472 
" style="fill:none;stroke:#b0b0b0;stroke-linecap:square;stroke-width:0.8;"/>
     </g>
     <g id="line2d_34">
      <g>
       <use style="stroke:#000000;stroke-width:0.6;" x="264.375834" xlink:href="#m1fedbda656" y="307.584"/>
      </g>
     </g>
    </g>
    <g id="xtick_18">
     <g id="line2d_35">
      <path clip-path="url(#pe3530d67af)" d="M 292.064489 307.584 
L 292.064489 41.472 
" style="fill:none;stroke:#b0b0b0;stroke-linecap:square;stroke-width:0.8;"/>
     </g>
     <g id="line2d_36">
      <g>
       <use style="stroke:#000000;stroke-width:0.6;" x="292.064489" xlink:href="#m1fedbda656" y="307.584"/>
      </g>
     </g>
    </g>
    <g id="xtick_19">
     <g id="line2d_37">
      <path clip-path="url(#pe3530d67af)" d="M 305.908816 307.584 
L 305.908816 41.472 
" style="fill:none;stroke:#b0b0b0;stroke-linecap:square;stroke-width:0.8;"/>
     </g>
     <g id="line2d_38">
      <g>
       <use style="stroke:#000000;stroke-width:0.6;" x="305.908816" xlink:href="#m1fedbda656" y="307.584"/>
      </g>
     </g>
    </g>
    <g id="xtick_20">
     <g id="line2d_39">
      <path clip-path="url(#pe3530d67af)" d="M 319.753144 307.584 
L 319.753144 41.472 
" style="fill:none;stroke:#b0b0b0;stroke-linecap:square;stroke-width:0.8;"/>
     </g>
     <g id="line2d_40">
      <g>
       <use style="stroke:#000000;stroke-width:0.6;" x="319.753144" xlink:href="#m1fedbda656" y="307.584"/>
      </g>
     </g>
    </g>
    <g id="xtick_21">
     <g id="line2d_41">
      <path clip-path="url(#pe3530d67af)" d="M 333.597471 307.584 
L 333.597471 41.472 
" style="fill:none;stroke:#b0b0b0;stroke-linecap:square;stroke-width:0.8;"/>
     </g>
     <g id="line2d_42">
      <g>
       <use style="stroke:#000000;stroke-width:0.6;" x="333.597471" xlink:href="#m1fedbda656" y="307.584"/>
      </g>
     </g>
    </g>
    <g id="xtick_22">
     <g id="line2d_43">
      <path clip-path="url(#pe3530d67af)" d="M 361.286127 307.584 
L 361.286127 41.472 
" style="fill:none;stroke:#b0b0b0;stroke-linecap:square;stroke-width:0.8;"/>
     </g>
     <g id="line2d_44">
      <g>
       <use style="stroke:#000000;stroke-width:0.6;" x="361.286127" xlink:href="#m1fedbda656" y="307.584"/>
      </g>
     </g>
    </g>
    <g id="xtick_23">
     <g id="line2d_45">
      <path clip-path="url(#pe3530d67af)" d="M 375.130454 307.584 
L 375.130454 41.472 
" style="fill:none;stroke:#b0b0b0;stroke-linecap:square;stroke-width:0.8;"/>
     </g>
     <g id="line2d_46">
      <g>
       <use style="stroke:#000000;stroke-width:0.6;" x="375.130454" xlink:href="#m1fedbda656" y="307.584"/>
      </g>
     </g>
    </g>
    <g id="xtick_24">
     <g id="line2d_47">
      <path clip-path="url(#pe3530d67af)" d="M 388.974782 307.584 
L 388.974782 41.472 
" style="fill:none;stroke:#b0b0b0;stroke-linecap:square;stroke-width:0.8;"/>
     </g>
     <g id="line2d_48">
      <g>
       <use style="stroke:#000000;stroke-width:0.6;" x="388.974782" xlink:href="#m1fedbda656" y="307.584"/>
      </g>
     </g>
    </g>
    <g id="xtick_25">
     <g id="line2d_49">
      <path clip-path="url(#pe3530d67af)" d="M 402.819109 307.584 
L 402.819109 41.472 
" style="fill:none;stroke:#b0b0b0;stroke-linecap:square;stroke-width:0.8;"/>
     </g>
     <g id="line2d_50">
      <g>
       <use style="stroke:#000000;stroke-width:0.6;" x="402.819109" xlink:href="#m1fedbda656" y="307.584"/>
      </g>
     </g>
    </g>
    <g id="text_6">
     <!-- frame # [] -->
     <defs>
      <path d="M 37.109375 75.984375 
L 37.109375 68.5 
L 28.515625 68.5 
Q 23.6875 68.5 21.796875 66.546875 
Q 19.921875 64.59375 19.921875 59.515625 
L 19.921875 54.6875 
L 34.71875 54.6875 
L 34.71875 47.703125 
L 19.921875 47.703125 
L 19.921875 0 
L 10.890625 0 
L 10.890625 47.703125 
L 2.296875 47.703125 
L 2.296875 54.6875 
L 10.890625 54.6875 
L 10.890625 58.5 
Q 10.890625 67.625 15.140625 71.796875 
Q 19.390625 75.984375 28.609375 75.984375 
z
" id="DejaVuSans-66"/>
      <path d="M 41.109375 46.296875 
Q 39.59375 47.171875 37.8125 47.578125 
Q 36.03125 48 33.890625 48 
Q 26.265625 48 22.1875 43.046875 
Q 18.109375 38.09375 18.109375 28.8125 
L 18.109375 0 
L 9.078125 0 
L 9.078125 54.6875 
L 18.109375 54.6875 
L 18.109375 46.1875 
Q 20.953125 51.171875 25.484375 53.578125 
Q 30.03125 56 36.53125 56 
Q 37.453125 56 38.578125 55.875 
Q 39.703125 55.765625 41.0625 55.515625 
z
" id="DejaVuSans-72"/>
      <path d="M 34.28125 27.484375 
Q 23.390625 27.484375 19.1875 25 
Q 14.984375 22.515625 14.984375 16.5 
Q 14.984375 11.71875 18.140625 8.90625 
Q 21.296875 6.109375 26.703125 6.109375 
Q 34.1875 6.109375 38.703125 11.40625 
Q 43.21875 16.703125 43.21875 25.484375 
L 43.21875 27.484375 
z
M 52.203125 31.203125 
L 52.203125 0 
L 43.21875 0 
L 43.21875 8.296875 
Q 40.140625 3.328125 35.546875 0.953125 
Q 30.953125 -1.421875 24.3125 -1.421875 
Q 15.921875 -1.421875 10.953125 3.296875 
Q 6 8.015625 6 15.921875 
Q 6 25.140625 12.171875 29.828125 
Q 18.359375 34.515625 30.609375 34.515625 
L 43.21875 34.515625 
L 43.21875 35.40625 
Q 43.21875 41.609375 39.140625 45 
Q 35.0625 48.390625 27.6875 48.390625 
Q 23 48.390625 18.546875 47.265625 
Q 14.109375 46.140625 10.015625 43.890625 
L 10.015625 52.203125 
Q 14.9375 54.109375 19.578125 55.046875 
Q 24.21875 56 28.609375 56 
Q 40.484375 56 46.34375 49.84375 
Q 52.203125 43.703125 52.203125 31.203125 
z
" id="DejaVuSans-61"/>
      <path d="M 52 44.1875 
Q 55.375 50.25 60.0625 53.125 
Q 64.75 56 71.09375 56 
Q 79.640625 56 84.28125 50.015625 
Q 88.921875 44.046875 88.921875 33.015625 
L 88.921875 0 
L 79.890625 0 
L 79.890625 32.71875 
Q 79.890625 40.578125 77.09375 44.375 
Q 74.3125 48.1875 68.609375 48.1875 
Q 61.625 48.1875 57.5625 43.546875 
Q 53.515625 38.921875 53.515625 30.90625 
L 53.515625 0 
L 44.484375 0 
L 44.484375 32.71875 
Q 44.484375 40.625 41.703125 44.40625 
Q 38.921875 48.1875 33.109375 48.1875 
Q 26.21875 48.1875 22.15625 43.53125 
Q 18.109375 38.875 18.109375 30.90625 
L 18.109375 0 
L 9.078125 0 
L 9.078125 54.6875 
L 18.109375 54.6875 
L 18.109375 46.1875 
Q 21.1875 51.21875 25.484375 53.609375 
Q 29.78125 56 35.6875 56 
Q 41.65625 56 45.828125 52.96875 
Q 50 49.953125 52 44.1875 
z
" id="DejaVuSans-6d"/>
      <path d="M 56.203125 29.59375 
L 56.203125 25.203125 
L 14.890625 25.203125 
Q 15.484375 15.921875 20.484375 11.0625 
Q 25.484375 6.203125 34.421875 6.203125 
Q 39.59375 6.203125 44.453125 7.46875 
Q 49.3125 8.734375 54.109375 11.28125 
L 54.109375 2.78125 
Q 49.265625 0.734375 44.1875 -0.34375 
Q 39.109375 -1.421875 33.890625 -1.421875 
Q 20.796875 -1.421875 13.15625 6.1875 
Q 5.515625 13.8125 5.515625 26.8125 
Q 5.515625 40.234375 12.765625 48.109375 
Q 20.015625 56 32.328125 56 
Q 43.359375 56 49.78125 48.890625 
Q 56.203125 41.796875 56.203125 29.59375 
z
M 47.21875 32.234375 
Q 47.125 39.59375 43.09375 43.984375 
Q 39.0625 48.390625 32.421875 48.390625 
Q 24.90625 48.390625 20.390625 44.140625 
Q 15.875 39.890625 15.1875 32.171875 
z
" id="DejaVuSans-65"/>
      <path id="DejaVuSans-20"/>
      <path d="M 51.125 44 
L 36.921875 44 
L 32.8125 27.6875 
L 47.125 27.6875 
z
M 43.796875 71.78125 
L 38.71875 51.515625 
L 52.984375 51.515625 
L 58.109375 71.78125 
L 65.921875 71.78125 
L 60.890625 51.515625 
L 76.125 51.515625 
L 76.125 44 
L 58.984375 44 
L 54.984375 27.6875 
L 70.515625 27.6875 
L 70.515625 20.21875 
L 53.078125 20.21875 
L 48 0 
L 40.1875 0 
L 45.21875 20.21875 
L 30.90625 20.21875 
L 25.875 0 
L 18.015625 0 
L 23.09375 20.21875 
L 7.71875 20.21875 
L 7.71875 27.6875 
L 24.90625 27.6875 
L 29 44 
L 13.28125 44 
L 13.28125 51.515625 
L 30.90625 51.515625 
L 35.890625 71.78125 
z
" id="DejaVuSans-23"/>
      <path d="M 8.59375 75.984375 
L 29.296875 75.984375 
L 29.296875 69 
L 17.578125 69 
L 17.578125 -6.203125 
L 29.296875 -6.203125 
L 29.296875 -13.1875 
L 8.59375 -13.1875 
z
" id="DejaVuSans-5b"/>
      <path d="M 30.421875 75.984375 
L 30.421875 -13.1875 
L 9.71875 -13.1875 
L 9.71875 -6.203125 
L 21.390625 -6.203125 
L 21.390625 69 
L 9.71875 69 
L 9.71875 75.984375 
z
" id="DejaVuSans-5d"/>
     </defs>
     <g transform="translate(210.063906 335.860562)scale(0.1 -0.1)">
      <use xlink:href="#DejaVuSans-66"/>
      <use x="35.205078" xlink:href="#DejaVuSans-72"/>
      <use x="76.318359" xlink:href="#DejaVuSans-61"/>
      <use x="137.597656" xlink:href="#DejaVuSans-6d"/>
      <use x="235.009766" xlink:href="#DejaVuSans-65"/>
      <use x="296.533203" xlink:href="#DejaVuSans-20"/>
      <use x="328.320312" xlink:href="#DejaVuSans-23"/>
      <use x="412.109375" xlink:href="#DejaVuSans-20"/>
      <use x="443.896484" xlink:href="#DejaVuSans-5b"/>
      <use x="482.910156" xlink:href="#DejaVuSans-5d"/>
     </g>
    </g>
   </g>
   <g id="matplotlib.axis_2">
    <g id="ytick_1">
     <g id="line2d_51">
      <path clip-path="url(#pe3530d67af)" d="M 57.6 272.278053 
L 414.72 272.278053 
" style="fill:none;stroke:#b0b0b0;stroke-linecap:square;stroke-width:0.8;"/>
     </g>
     <g id="line2d_52">
      <defs>
       <path d="M 0 0 
L -3.5 0 
" id="mfe125d077e" style="stroke:#000000;stroke-width:0.8;"/>
      </defs>
      <g>
       <use style="stroke:#000000;stroke-width:0.8;" x="57.6" xlink:href="#mfe125d077e" y="272.278053"/>
      </g>
     </g>
     <g id="text_7">
      <!-- −0.1 -->
      <defs>
       <path d="M 10.59375 35.5 
L 73.1875 35.5 
L 73.1875 27.203125 
L 10.59375 27.203125 
z
" id="DejaVuSans-2212"/>
       <path d="M 10.6875 12.40625 
L 21 12.40625 
L 21 0 
L 10.6875 0 
z
" id="DejaVuSans-2e"/>
      </defs>
      <g transform="translate(26.317187 276.077271)scale(0.1 -0.1)">
       <use xlink:href="#DejaVuSans-2212"/>
       <use x="83.789062" xlink:href="#DejaVuSans-30"/>
       <use x="147.412109" xlink:href="#DejaVuSans-2e"/>
       <use x="179.199219" xlink:href="#DejaVuSans-31"/>
      </g>
     </g>
    </g>
    <g id="ytick_2">
     <g id="line2d_53">
      <path clip-path="url(#pe3530d67af)" d="M 57.6 214.18271 
L 414.72 214.18271 
" style="fill:none;stroke:#b0b0b0;stroke-linecap:square;stroke-width:0.8;"/>
     </g>
     <g id="line2d_54">
      <g>
       <use style="stroke:#000000;stroke-width:0.8;" x="57.6" xlink:href="#mfe125d077e" y="214.18271"/>
      </g>
     </g>
     <g id="text_8">
      <!-- 0.0 -->
      <g transform="translate(34.696875 217.981929)scale(0.1 -0.1)">
       <use xlink:href="#DejaVuSans-30"/>
       <use x="63.623047" xlink:href="#DejaVuSans-2e"/>
       <use x="95.410156" xlink:href="#DejaVuSans-30"/>
      </g>
     </g>
    </g>
    <g id="ytick_3">
     <g id="line2d_55">
      <path clip-path="url(#pe3530d67af)" d="M 57.6 156.087367 
L 414.72 156.087367 
" style="fill:none;stroke:#b0b0b0;stroke-linecap:square;stroke-width:0.8;"/>
     </g>
     <g id="line2d_56">
      <g>
       <use style="stroke:#000000;stroke-width:0.8;" x="57.6" xlink:href="#mfe125d077e" y="156.087367"/>
      </g>
     </g>
     <g id="text_9">
      <!-- 0.1 -->
      <g transform="translate(34.696875 159.886586)scale(0.1 -0.1)">
       <use xlink:href="#DejaVuSans-30"/>
       <use x="63.623047" xlink:href="#DejaVuSans-2e"/>
       <use x="95.410156" xlink:href="#DejaVuSans-31"/>
      </g>
     </g>
    </g>
    <g id="ytick_4">
     <g id="line2d_57">
      <path clip-path="url(#pe3530d67af)" d="M 57.6 97.992025 
L 414.72 97.992025 
" style="fill:none;stroke:#b0b0b0;stroke-linecap:square;stroke-width:0.8;"/>
     </g>
     <g id="line2d_58">
      <g>
       <use style="stroke:#000000;stroke-width:0.8;" x="57.6" xlink:href="#mfe125d077e" y="97.992025"/>
      </g>
     </g>
     <g id="text_10">
      <!-- 0.2 -->
      <g transform="translate(34.696875 101.791243)scale(0.1 -0.1)">
       <use xlink:href="#DejaVuSans-30"/>
       <use x="63.623047" xlink:href="#DejaVuSans-2e"/>
       <use x="95.410156" xlink:href="#DejaVuSans-32"/>
      </g>
     </g>
    </g>
    <g id="ytick_5">
     <g id="line2d_59">
      <path clip-path="url(#pe3530d67af)" d="M 57.6 307.135258 
L 414.72 307.135258 
" style="fill:none;stroke:#b0b0b0;stroke-linecap:square;stroke-width:0.8;"/>
     </g>
     <g id="line2d_60">
      <defs>
       <path d="M 0 0 
L -2 0 
" id="m437ee11c6a" style="stroke:#000000;stroke-width:0.6;"/>
      </defs>
      <g>
       <use style="stroke:#000000;stroke-width:0.6;" x="57.6" xlink:href="#m437ee11c6a" y="307.135258"/>
      </g>
     </g>
    </g>
    <g id="ytick_6">
     <g id="line2d_61">
      <path clip-path="url(#pe3530d67af)" d="M 57.6 295.51619 
L 414.72 295.51619 
" style="fill:none;stroke:#b0b0b0;stroke-linecap:square;stroke-width:0.8;"/>
     </g>
     <g id="line2d_62">
      <g>
       <use style="stroke:#000000;stroke-width:0.6;" x="57.6" xlink:href="#m437ee11c6a" y="295.51619"/>
      </g>
     </g>
    </g>
    <g id="ytick_7">
     <g id="line2d_63">
      <path clip-path="url(#pe3530d67af)" d="M 57.6 283.897121 
L 414.72 283.897121 
" style="fill:none;stroke:#b0b0b0;stroke-linecap:square;stroke-width:0.8;"/>
     </g>
     <g id="line2d_64">
      <g>
       <use style="stroke:#000000;stroke-width:0.6;" x="57.6" xlink:href="#m437ee11c6a" y="283.897121"/>
      </g>
     </g>
    </g>
    <g id="ytick_8">
     <g id="line2d_65">
      <path clip-path="url(#pe3530d67af)" d="M 57.6 272.278053 
L 414.72 272.278053 
" style="fill:none;stroke:#b0b0b0;stroke-linecap:square;stroke-width:0.8;"/>
     </g>
     <g id="line2d_66">
      <g>
       <use style="stroke:#000000;stroke-width:0.6;" x="57.6" xlink:href="#m437ee11c6a" y="272.278053"/>
      </g>
     </g>
    </g>
    <g id="ytick_9">
     <g id="line2d_67">
      <path clip-path="url(#pe3530d67af)" d="M 57.6 260.658984 
L 414.72 260.658984 
" style="fill:none;stroke:#b0b0b0;stroke-linecap:square;stroke-width:0.8;"/>
     </g>
     <g id="line2d_68">
      <g>
       <use style="stroke:#000000;stroke-width:0.6;" x="57.6" xlink:href="#m437ee11c6a" y="260.658984"/>
      </g>
     </g>
    </g>
    <g id="ytick_10">
     <g id="line2d_69">
      <path clip-path="url(#pe3530d67af)" d="M 57.6 249.039915 
L 414.72 249.039915 
" style="fill:none;stroke:#b0b0b0;stroke-linecap:square;stroke-width:0.8;"/>
     </g>
     <g id="line2d_70">
      <g>
       <use style="stroke:#000000;stroke-width:0.6;" x="57.6" xlink:href="#m437ee11c6a" y="249.039915"/>
      </g>
     </g>
    </g>
    <g id="ytick_11">
     <g id="line2d_71">
      <path clip-path="url(#pe3530d67af)" d="M 57.6 237.420847 
L 414.72 237.420847 
" style="fill:none;stroke:#b0b0b0;stroke-linecap:square;stroke-width:0.8;"/>
     </g>
     <g id="line2d_72">
      <g>
       <use style="stroke:#000000;stroke-width:0.6;" x="57.6" xlink:href="#m437ee11c6a" y="237.420847"/>
      </g>
     </g>
    </g>
    <g id="ytick_12">
     <g id="line2d_73">
      <path clip-path="url(#pe3530d67af)" d="M 57.6 225.801778 
L 414.72 225.801778 
" style="fill:none;stroke:#b0b0b0;stroke-linecap:square;stroke-width:0.8;"/>
     </g>
     <g id="line2d_74">
      <g>
       <use style="stroke:#000000;stroke-width:0.6;" x="57.6" xlink:href="#m437ee11c6a" y="225.801778"/>
      </g>
     </g>
    </g>
    <g id="ytick_13">
     <g id="line2d_75">
      <path clip-path="url(#pe3530d67af)" d="M 57.6 214.18271 
L 414.72 214.18271 
" style="fill:none;stroke:#b0b0b0;stroke-linecap:square;stroke-width:0.8;"/>
     </g>
     <g id="line2d_76">
      <g>
       <use style="stroke:#000000;stroke-width:0.6;" x="57.6" xlink:href="#m437ee11c6a" y="214.18271"/>
      </g>
     </g>
    </g>
    <g id="ytick_14">
     <g id="line2d_77">
      <path clip-path="url(#pe3530d67af)" d="M 57.6 202.563641 
L 414.72 202.563641 
" style="fill:none;stroke:#b0b0b0;stroke-linecap:square;stroke-width:0.8;"/>
     </g>
     <g id="line2d_78">
      <g>
       <use style="stroke:#000000;stroke-width:0.6;" x="57.6" xlink:href="#m437ee11c6a" y="202.563641"/>
      </g>
     </g>
    </g>
    <g id="ytick_15">
     <g id="line2d_79">
      <path clip-path="url(#pe3530d67af)" d="M 57.6 190.944573 
L 414.72 190.944573 
" style="fill:none;stroke:#b0b0b0;stroke-linecap:square;stroke-width:0.8;"/>
     </g>
     <g id="line2d_80">
      <g>
       <use style="stroke:#000000;stroke-width:0.6;" x="57.6" xlink:href="#m437ee11c6a" y="190.944573"/>
      </g>
     </g>
    </g>
    <g id="ytick_16">
     <g id="line2d_81">
      <path clip-path="url(#pe3530d67af)" d="M 57.6 179.325504 
L 414.72 179.325504 
" style="fill:none;stroke:#b0b0b0;stroke-linecap:square;stroke-width:0.8;"/>
     </g>
     <g id="line2d_82">
      <g>
       <use style="stroke:#000000;stroke-width:0.6;" x="57.6" xlink:href="#m437ee11c6a" y="179.325504"/>
      </g>
     </g>
    </g>
    <g id="ytick_17">
     <g id="line2d_83">
      <path clip-path="url(#pe3530d67af)" d="M 57.6 167.706436 
L 414.72 167.706436 
" style="fill:none;stroke:#b0b0b0;stroke-linecap:square;stroke-width:0.8;"/>
     </g>
     <g id="line2d_84">
      <g>
       <use style="stroke:#000000;stroke-width:0.6;" x="57.6" xlink:href="#m437ee11c6a" y="167.706436"/>
      </g>
     </g>
    </g>
    <g id="ytick_18">
     <g id="line2d_85">
      <path clip-path="url(#pe3530d67af)" d="M 57.6 156.087367 
L 414.72 156.087367 
" style="fill:none;stroke:#b0b0b0;stroke-linecap:square;stroke-width:0.8;"/>
     </g>
     <g id="line2d_86">
      <g>
       <use style="stroke:#000000;stroke-width:0.6;" x="57.6" xlink:href="#m437ee11c6a" y="156.087367"/>
      </g>
     </g>
    </g>
    <g id="ytick_19">
     <g id="line2d_87">
      <path clip-path="url(#pe3530d67af)" d="M 57.6 144.468299 
L 414.72 144.468299 
" style="fill:none;stroke:#b0b0b0;stroke-linecap:square;stroke-width:0.8;"/>
     </g>
     <g id="line2d_88">
      <g>
       <use style="stroke:#000000;stroke-width:0.6;" x="57.6" xlink:href="#m437ee11c6a" y="144.468299"/>
      </g>
     </g>
    </g>
    <g id="ytick_20">
     <g id="line2d_89">
      <path clip-path="url(#pe3530d67af)" d="M 57.6 132.84923 
L 414.72 132.84923 
" style="fill:none;stroke:#b0b0b0;stroke-linecap:square;stroke-width:0.8;"/>
     </g>
     <g id="line2d_90">
      <g>
       <use style="stroke:#000000;stroke-width:0.6;" x="57.6" xlink:href="#m437ee11c6a" y="132.84923"/>
      </g>
     </g>
    </g>
    <g id="ytick_21">
     <g id="line2d_91">
      <path clip-path="url(#pe3530d67af)" d="M 57.6 121.230162 
L 414.72 121.230162 
" style="fill:none;stroke:#b0b0b0;stroke-linecap:square;stroke-width:0.8;"/>
     </g>
     <g id="line2d_92">
      <g>
       <use style="stroke:#000000;stroke-width:0.6;" x="57.6" xlink:href="#m437ee11c6a" y="121.230162"/>
      </g>
     </g>
    </g>
    <g id="ytick_22">
     <g id="line2d_93">
      <path clip-path="url(#pe3530d67af)" d="M 57.6 109.611093 
L 414.72 109.611093 
" style="fill:none;stroke:#b0b0b0;stroke-linecap:square;stroke-width:0.8;"/>
     </g>
     <g id="line2d_94">
      <g>
       <use style="stroke:#000000;stroke-width:0.6;" x="57.6" xlink:href="#m437ee11c6a" y="109.611093"/>
      </g>
     </g>
    </g>
    <g id="ytick_23">
     <g id="line2d_95">
      <path clip-path="url(#pe3530d67af)" d="M 57.6 97.992025 
L 414.72 97.992025 
" style="fill:none;stroke:#b0b0b0;stroke-linecap:square;stroke-width:0.8;"/>
     </g>
     <g id="line2d_96">
      <g>
       <use style="stroke:#000000;stroke-width:0.6;" x="57.6" xlink:href="#m437ee11c6a" y="97.992025"/>
      </g>
     </g>
    </g>
    <g id="ytick_24">
     <g id="line2d_97">
      <path clip-path="url(#pe3530d67af)" d="M 57.6 86.372956 
L 414.72 86.372956 
" style="fill:none;stroke:#b0b0b0;stroke-linecap:square;stroke-width:0.8;"/>
     </g>
     <g id="line2d_98">
      <g>
       <use style="stroke:#000000;stroke-width:0.6;" x="57.6" xlink:href="#m437ee11c6a" y="86.372956"/>
      </g>
     </g>
    </g>
    <g id="ytick_25">
     <g id="line2d_99">
      <path clip-path="url(#pe3530d67af)" d="M 57.6 74.753888 
L 414.72 74.753888 
" style="fill:none;stroke:#b0b0b0;stroke-linecap:square;stroke-width:0.8;"/>
     </g>
     <g id="line2d_100">
      <g>
       <use style="stroke:#000000;stroke-width:0.6;" x="57.6" xlink:href="#m437ee11c6a" y="74.753888"/>
      </g>
     </g>
    </g>
    <g id="ytick_26">
     <g id="line2d_101">
      <path clip-path="url(#pe3530d67af)" d="M 57.6 63.134819 
L 414.72 63.134819 
" style="fill:none;stroke:#b0b0b0;stroke-linecap:square;stroke-width:0.8;"/>
     </g>
     <g id="line2d_102">
      <g>
       <use style="stroke:#000000;stroke-width:0.6;" x="57.6" xlink:href="#m437ee11c6a" y="63.134819"/>
      </g>
     </g>
    </g>
    <g id="ytick_27">
     <g id="line2d_103">
      <path clip-path="url(#pe3530d67af)" d="M 57.6 51.51575 
L 414.72 51.51575 
" style="fill:none;stroke:#b0b0b0;stroke-linecap:square;stroke-width:0.8;"/>
     </g>
     <g id="line2d_104">
      <g>
       <use style="stroke:#000000;stroke-width:0.6;" x="57.6" xlink:href="#m437ee11c6a" y="51.51575"/>
      </g>
     </g>
    </g>
    <g id="text_11">
     <!-- rot x -->
     <defs>
      <path d="M 30.609375 48.390625 
Q 23.390625 48.390625 19.1875 42.75 
Q 14.984375 37.109375 14.984375 27.296875 
Q 14.984375 17.484375 19.15625 11.84375 
Q 23.34375 6.203125 30.609375 6.203125 
Q 37.796875 6.203125 41.984375 11.859375 
Q 46.1875 17.53125 46.1875 27.296875 
Q 46.1875 37.015625 41.984375 42.703125 
Q 37.796875 48.390625 30.609375 48.390625 
z
M 30.609375 56 
Q 42.328125 56 49.015625 48.375 
Q 55.71875 40.765625 55.71875 27.296875 
Q 55.71875 13.875 49.015625 6.21875 
Q 42.328125 -1.421875 30.609375 -1.421875 
Q 18.84375 -1.421875 12.171875 6.21875 
Q 5.515625 13.875 5.515625 27.296875 
Q 5.515625 40.765625 12.171875 48.375 
Q 18.84375 56 30.609375 56 
z
" id="DejaVuSans-6f"/>
      <path d="M 18.3125 70.21875 
L 18.3125 54.6875 
L 36.8125 54.6875 
L 36.8125 47.703125 
L 18.3125 47.703125 
L 18.3125 18.015625 
Q 18.3125 11.328125 20.140625 9.421875 
Q 21.96875 7.515625 27.59375 7.515625 
L 36.8125 7.515625 
L 36.8125 0 
L 27.59375 0 
Q 17.1875 0 13.234375 3.875 
Q 9.28125 7.765625 9.28125 18.015625 
L 9.28125 47.703125 
L 2.6875 47.703125 
L 2.6875 54.6875 
L 9.28125 54.6875 
L 9.28125 70.21875 
z
" id="DejaVuSans-74"/>
      <path d="M 54.890625 54.6875 
L 35.109375 28.078125 
L 55.90625 0 
L 45.3125 0 
L 29.390625 21.484375 
L 13.484375 0 
L 2.875 0 
L 24.125 28.609375 
L 4.6875 54.6875 
L 15.28125 54.6875 
L 29.78125 35.203125 
L 44.28125 54.6875 
z
" id="DejaVuSans-78"/>
     </defs>
     <g transform="translate(20.2375 186.149875)rotate(-90)scale(0.1 -0.1)">
      <use xlink:href="#DejaVuSans-72"/>
      <use x="41.082031" xlink:href="#DejaVuSans-6f"/>
      <use x="102.263672" xlink:href="#DejaVuSans-74"/>
      <use x="141.472656" xlink:href="#DejaVuSans-20"/>
      <use x="173.259766" xlink:href="#DejaVuSans-78"/>
     </g>
    </g>
   </g>
   <g id="line2d_105">
    <path clip-path="url(#pe3530d67af)" d="M 73.832727 190.955144 
L 74.524971 203.094533 
L 75.217208 234.630013 
L 75.90628 205.364383 
L 76.598517 217.831531 
L 77.290754 214.961509 
L 77.982991 202.269833 
L 78.6751 206.395602 
L 79.367337 222.570011 
L 80.059581 193.376968 
L 80.751818 223.999801 
L 81.446481 215.631765 
L 82.138725 200.531914 
L 82.830962 220.054069 
L 83.523199 231.535833 
L 84.216653 200.578216 
L 84.908883 221.760105 
L 85.601147 208.365385 
L 86.293364 201.593979 
L 86.985656 210.531964 
L 87.675135 216.540894 
L 88.367373 213.776285 
L 89.05961 207.699036 
L 89.751847 185.53875 
L 90.441987 193.673777 
L 91.13423 235.756222 
L 91.826467 239.361094 
L 92.518705 262.274016 
L 93.902011 234.215144 
L 94.594254 232.143761 
L 95.286491 237.810142 
L 95.979336 196.82901 
L 96.671581 185.08714 
L 97.363819 170.723842 
L 98.056056 146.266276 
L 98.749362 143.113984 
L 99.44205 144.805392 
L 100.133837 159.927539 
L 101.516997 250.382725 
M 102.901478 248.938508 
L 103.593715 252.000534 
L 104.284797 253.856773 
L 104.977035 273.778047 
L 106.361509 226.340707 
L 107.05535 231.645495 
L 107.747587 212.959221 
L 108.439825 172.187437 
L 109.132062 142.933249 
L 109.824962 133.821348 
L 111.209437 180.917327 
L 112.593675 223.402845 
L 113.285912 250.473534 
L 113.978149 263.782828 
L 114.670387 274.789963 
L 115.361972 263.315011 
L 116.054209 248.311276 
L 116.746446 247.996617 
L 117.438683 249.903361 
L 118.130907 243.180905 
L 118.823151 232.264871 
L 120.207625 193.506213 
L 120.899869 158.518265 
L 121.594579 135.42142 
L 122.286816 131.690154 
L 122.97906 161.431434 
L 124.363909 207.861946 
L 125.056146 240.876473 
L 125.748383 264.947912 
L 126.44062 242.016301 
L 127.129632 278.37654 
L 127.82187 278.01311 
L 129.206344 215.9153 
L 129.89967 203.430129 
L 131.284145 154.760302 
L 131.976389 164.714796 
L 132.670814 154.817592 
L 133.363058 149.479088 
L 134.747532 208.260371 
L 135.437802 203.957175 
L 136.130039 212.790771 
L 136.822277 263.626339 
L 137.514514 275.391007 
L 138.204709 272.834772 
L 138.896947 255.922691 
L 139.589184 250.449969 
L 140.281421 237.646197 
L 141.668336 183.091767 
L 142.360573 146.240881 
L 143.05281 133.940068 
L 143.744756 140.33853 
L 144.436993 151.938405 
L 145.821474 243.536934 
L 146.511257 263.693381 
L 147.203494 244.289944 
L 147.895731 257.88909 
L 148.588378 268.902174 
L 149.281455 225.043639 
L 149.973692 202.668073 
L 151.358166 136.92591 
L 152.05041 146.772818 
L 152.743731 164.869144 
L 153.435969 170.360795 
L 154.128206 198.015985 
L 155.510224 265.476083 
L 156.894699 295.488 
M 158.279343 280.348346 
L 158.97158 256.290692 
L 160.356055 171.127546 
L 161.743508 148.539371 
L 162.435745 153.38226 
L 163.127989 163.790741 
L 163.818557 179.192837 
L 164.510795 210.759043 
M 165.895269 260.758483 
L 166.586145 266.077507 
L 167.278382 266.342095 
L 168.662863 236.885042 
L 169.356457 209.977189 
L 170.048694 169.552606 
L 170.740931 156.800417 
L 171.433168 122.468015 
L 172.125831 150.508836 
L 172.818048 195.456263 
L 173.510286 211.869237 
L 174.202529 223.117296 
L 174.892987 244.356017 
L 175.585225 275.232966 
L 176.277462 286.86032 
L 176.969699 275.520647 
L 177.662487 255.65412 
L 178.354724 274.523632 
L 179.046962 206.542406 
L 179.739205 161.569339 
L 180.434067 128.437696 
L 181.126297 126.218967 
L 181.818534 163.293339 
L 182.510778 185.4685 
L 183.200632 176.091711 
L 183.892876 232.655294 
L 184.585113 273.626136 
L 185.2776 279.453704 
L 185.969588 276.95125 
L 186.661455 252.337482 
L 188.738167 133.380628 
M 191.509762 207.417161 
L 192.199235 235.15887 
L 192.891481 241.083648 
L 193.583718 262.39412 
L 194.275953 289.197268 
L 194.967935 274.469132 
L 195.660172 245.294415 
M 197.044646 200.766882 
L 197.738917 208.801828 
L 198.431154 204.616598 
L 199.123391 155.657531 
L 199.815628 116.342656 
L 200.508823 125.246833 
L 201.893304 227.420011 
L 202.585541 241.288984 
L 203.967776 281.116907 
L 204.660013 275.410983 
L 205.35225 277.319445 
L 206.044672 258.755451 
L 206.736909 204.349578 
L 208.121383 145.792893 
L 208.815873 137.738401 
L 209.50811 152.684704 
L 210.200348 178.355127 
L 210.892585 199.491086 
L 211.583861 224.373772 
L 212.276099 259.739121 
L 212.968342 285.169924 
L 213.66058 272.943399 
L 215.736393 221.994698 
L 216.428631 190.160378 
L 217.120874 150.420694 
L 217.814995 141.535833 
L 218.507232 123.327196 
L 219.199469 152.839375 
L 219.891706 200.093566 
L 221.277214 238.621879 
L 221.969824 269.512995 
L 222.661681 278.954123 
L 224.047124 270.475945 
L 224.739362 260.175348 
L 225.431599 254.050638 
L 226.123329 241.760551 
L 226.815566 220.806041 
L 227.507804 192.49757 
L 228.200041 183.386164 
L 228.892598 178.764735 
L 229.584835 149.944306 
L 230.277072 158.171165 
L 230.96931 176.964861 
L 231.661953 192.272224 
L 232.35419 181.388077 
L 233.046427 194.902751 
L 234.434318 226.480277 
L 235.126562 227.679752 
L 235.818799 214.897431 
L 236.511036 229.407808 
L 237.205725 258.065748 
L 237.897963 275.493113 
L 238.5902 268.276239 
L 239.282437 231.477809 
M 240.658539 246.721481 
L 241.350776 246.901407 
L 242.043013 246.463638 
L 242.735331 203.460545 
L 243.427569 174.216893 
L 244.119806 170.346121 
L 244.812043 171.847379 
L 245.504977 178.254944 
L 246.197214 181.394227 
L 246.889449 196.122304 
L 247.581686 194.176288 
L 248.274878 183.658539 
L 248.967115 190.594116 
L 249.659352 193.598067 
L 250.351589 189.011303 
L 251.043826 205.695074 
L 251.736771 227.415768 
L 252.429009 229.128621 
L 253.121246 213.597807 
L 253.81349 242.983904 
L 254.500718 246.730309 
L 255.192947 251.683256 
L 255.885192 248.561189 
L 256.577429 254.974651 
L 257.269926 230.942479 
L 257.962163 215.931292 
L 258.6544 211.322893 
L 259.346637 205.587435 
L 260.040695 224.754742 
L 260.732932 212.344225 
L 261.425169 167.779827 
L 262.117406 149.73777 
L 262.80931 142.011359 
L 263.501547 166.236344 
L 264.193784 166.663257 
L 264.886021 171.830896 
L 265.576308 197.885988 
L 266.268553 232.986892 
M 268.344813 260.045965 
L 269.03705 250.659295 
M 273.886626 218.378665 
L 274.578864 198.915292 
M 280.11432 237.884401 
L 280.806557 185.940236 
M 291.190092 254.847757 
L 291.882329 183.324023 
M 296.728311 110.024907 
L 297.420548 85.801236 
M 305.72952 111.936606 
L 306.421757 150.979322 
L 307.114493 172.309764 
M 308.496983 130.129443 
L 309.18922 149.57969 
M 316.803859 95.948455 
L 317.496096 59.314174 
L 318.188333 104.692783 
L 318.880571 136.626121 
M 323.726858 209.919999 
L 324.419095 188.038651 
L 325.112821 193.249212 
L 325.805058 212.832461 
L 326.497302 216.967679 
M 328.576974 60.589325 
L 329.269218 113.989698 
M 330.653469 219.912158 
L 331.346218 225.932148 
L 332.037944 206.078461 
L 332.730181 172.990849 
L 333.422638 126.358357 
L 334.114875 148.62365 
L 334.807119 183.820684 
M 339.651661 198.383426 
L 340.343899 173.423445 
L 341.036136 162.77645 
L 341.726718 120.428692 
L 342.418955 107.248725 
L 343.111192 140.426259 
L 343.803429 144.897234 
M 345.877414 167.646926 
L 346.569651 160.152798 
M 354.184019 113.92088 
L 354.87625 140.075516 
M 357.647653 190.866369 
L 358.33989 212.196789 
L 359.029714 211.910066 
L 359.721951 170.519132 
M 362.491511 210.461835 
L 363.183748 176.478421 
L 363.875985 160.05278 
M 366.6451 235.116592 
L 367.338052 229.93615 
M 368.722533 202.812441 
L 369.41477 197.624897 
L 370.80022 182.412716 
L 371.492457 191.446549 
M 374.262395 177.697734 
L 374.95463 188.23261 
L 375.647823 183.683045 
L 376.34006 199.373828 
M 383.260573 200.166504 
L 383.952811 184.272826 
L 384.644637 179.99558 
M 388.104412 198.189559 
L 388.796657 195.195215 
L 389.488894 206.141759 
L 390.179932 227.589654 
L 390.872169 242.584137 
L 391.564426 242.112284 
L 391.564426 242.112284 
" style="fill:none;stroke:#ff0000;stroke-linecap:square;"/>
   </g>
   <g id="line2d_106">
    <path clip-path="url(#pe3530d67af)" d="M 73.832727 193.634204 
L 74.524971 193.525628 
L 75.217208 225.514496 
L 75.90628 206.020323 
L 76.598517 215.696261 
L 77.290754 222.736319 
L 77.982991 209.525431 
L 78.6751 205.00078 
L 79.367337 225.13226 
L 80.059581 191.226047 
L 80.751818 219.535483 
L 81.446481 220.323159 
L 82.138725 201.068234 
L 82.830962 215.045433 
L 83.523199 237.536642 
L 84.216653 200.188712 
L 84.908883 221.091157 
L 85.601147 210.076806 
L 86.293364 201.772232 
L 86.985656 208.294972 
L 87.675135 220.782692 
L 88.367373 210.785966 
L 89.05961 208.197098 
L 89.751847 187.268422 
L 90.441987 185.108472 
L 91.13423 231.020897 
L 91.826467 240.551099 
L 92.518705 258.358644 
L 93.209773 250.30495 
L 93.902011 230.176717 
L 94.594254 226.116434 
L 95.286491 237.368039 
L 95.979336 202.72812 
L 96.671581 186.090969 
L 97.363819 174.457241 
L 98.056056 148.694456 
L 98.749362 140.808764 
L 99.44205 144.289082 
L 100.133837 154.737877 
L 101.516997 251.745373 
M 102.901478 248.859938 
L 103.593715 255.364585 
L 104.284797 254.179682 
L 104.977035 271.569125 
L 105.669272 261.149001 
L 106.361509 223.163458 
L 107.05535 227.305659 
L 107.747587 218.380309 
L 109.132062 142.352225 
L 109.824962 132.265077 
L 111.209437 178.901625 
L 111.901674 196.519481 
L 112.593675 225.924086 
L 113.285912 239.568358 
L 113.978149 259.738392 
L 114.670387 274.007725 
L 115.361972 269.050353 
L 116.054209 252.162151 
L 116.746446 249.289303 
L 117.438683 244.739027 
L 118.130907 239.374519 
L 118.823151 234.964285 
L 119.515395 218.474253 
L 120.207625 197.081705 
L 120.899869 162.682086 
L 121.594579 134.251123 
L 122.286816 130.23114 
L 124.363909 202.170173 
L 125.748383 267.054898 
L 126.44062 245.892243 
L 127.129632 270.291047 
L 127.82187 282.010525 
L 129.206344 222.035272 
L 130.591908 184.024467 
L 131.284145 154.572689 
L 131.976389 165.840635 
L 132.670814 154.4635 
L 133.363058 146.696187 
L 134.055295 171.33359 
L 134.747532 203.367409 
L 135.437802 203.690368 
L 136.130039 213.983475 
L 136.822277 261.395114 
L 137.514514 278.681973 
L 138.204709 273.721771 
L 138.896947 257.866179 
L 140.281421 240.215629 
L 140.976101 214.373939 
L 141.668336 198.656523 
L 142.360573 149.792921 
L 143.05281 131.590626 
L 143.744756 138.341023 
L 144.436993 146.784533 
L 145.129236 185.002846 
L 145.821474 240.141654 
L 146.511257 264.504969 
L 147.203494 247.835877 
L 147.895731 246.162217 
L 148.588378 256.370934 
L 149.973692 204.129932 
L 150.665929 175.766634 
L 151.358166 138.531313 
L 152.05041 135.515794 
L 152.743731 158.656988 
L 154.128206 193.155262 
L 154.820443 232.538201 
L 156.20247 284.443524 
L 156.894699 294.051754 
M 158.279343 274.432589 
L 158.97158 248.936174 
L 160.356055 175.822902 
L 161.051271 155.075111 
L 161.743508 145.425606 
L 162.435745 150.889929 
L 163.818557 174.215912 
L 164.510795 207.46986 
M 165.895269 258.011412 
L 166.586145 253.748616 
L 167.278382 255.849409 
L 167.970626 252.294715 
L 168.662863 231.608663 
L 169.356457 220.199869 
L 170.048694 178.256059 
L 170.740931 158.561037 
L 171.433168 124.272247 
L 172.125831 142.857189 
L 172.818048 193.857348 
L 173.510286 210.953657 
L 174.202529 220.924225 
L 174.892987 241.714606 
L 175.585225 271.599905 
L 176.277462 280.866112 
L 176.969699 274.880621 
L 177.662487 261.445262 
L 178.354724 257.9172 
L 179.046962 220.512855 
L 179.739205 174.775764 
L 180.434067 143.352733 
L 181.126297 130.835616 
L 181.818534 160.495583 
L 182.510778 182.665712 
L 183.200632 174.867151 
L 184.585113 285.548204 
L 185.2776 282.142419 
L 185.969588 271.093369 
L 186.661455 254.723445 
L 187.353692 220.117332 
L 188.045929 171.298244 
L 188.738167 141.372861 
M 191.509762 207.441199 
L 192.199235 225.116019 
L 193.583718 253.477712 
L 194.275953 278.148075 
L 194.967935 272.965376 
L 195.660172 251.545292 
M 197.044646 203.029816 
L 197.738917 200.318867 
L 198.431154 207.064343 
L 199.815628 117.14589 
L 200.508823 122.501883 
L 201.20106 164.012295 
L 201.893304 218.458854 
L 202.585541 243.083356 
L 203.275538 258.235187 
L 203.967776 267.349128 
L 205.35225 273.17093 
L 206.044672 257.529937 
L 206.736909 206.793067 
L 208.121383 149.607966 
L 208.815873 132.58781 
L 209.50811 145.709961 
L 210.200348 174.272717 
L 211.583861 222.900435 
L 212.276099 253.919348 
L 212.968342 272.601219 
L 214.351919 253.223676 
L 215.736393 216.679805 
L 216.428631 191.841845 
L 217.120874 149.871038 
L 217.814995 143.513252 
L 218.507232 121.626063 
L 219.199469 147.379533 
L 219.891706 195.81435 
L 221.277214 237.313632 
L 221.969824 269.997465 
L 222.661681 280.692793 
L 223.354881 274.271273 
L 224.047124 271.796195 
L 224.739362 260.483854 
L 225.431599 254.399515 
L 226.123329 244.499032 
L 226.815566 223.773347 
L 227.507804 195.061084 
L 228.200041 185.905971 
L 228.892598 180.250078 
L 229.584835 152.949081 
L 230.277072 154.022907 
L 231.661953 195.369065 
L 232.35419 184.793693 
L 233.046427 192.795587 
L 233.738664 206.764608 
L 234.434318 226.316773 
L 235.126562 230.393356 
L 235.818799 216.353238 
L 236.511036 224.779506 
L 237.205725 255.941335 
L 237.897963 276.593961 
L 238.5902 273.227044 
L 239.282437 233.888737 
M 240.658539 246.280563 
L 241.350776 244.705319 
L 242.043013 250.055513 
L 242.735331 205.029964 
L 243.427569 179.299088 
L 244.119806 173.082282 
L 244.812043 171.519503 
L 245.504977 173.275069 
L 246.197214 183.414821 
L 246.889449 195.284361 
L 247.581686 193.373951 
L 248.274878 182.369757 
L 249.659352 195.757175 
L 250.351589 187.080487 
L 251.043826 202.302512 
L 251.736771 223.802026 
L 252.429009 228.455629 
L 253.121246 223.925449 
L 253.81349 238.829611 
L 254.500718 246.652698 
L 255.192947 249.695037 
L 255.885192 249.904774 
L 256.577429 248.87526 
L 257.269926 223.731857 
L 257.962163 219.08799 
L 258.6544 208.981189 
L 259.346637 206.015049 
L 260.040695 222.118979 
L 260.732932 213.101935 
L 261.425169 178.580362 
L 262.117406 151.211678 
L 262.80931 142.633883 
L 263.501547 157.451772 
L 264.193784 169.265624 
L 264.886021 165.864002 
L 265.576308 190.367651 
L 266.268553 219.667747 
M 268.344813 262.159668 
L 269.03705 250.652213 
M 273.886626 219.684173 
L 274.578864 202.025855 
M 280.11432 241.0007 
L 280.806557 193.74574 
M 291.190092 255.619895 
L 291.882329 198.715732 
M 296.728311 117.359604 
L 297.420548 91.315149 
M 305.72952 106.602417 
L 306.421757 156.360856 
L 307.114493 171.015761 
M 308.496983 132.789125 
L 309.18922 149.496505 
M 316.803859 100.520657 
L 317.496096 62.342211 
L 318.880571 132.806212 
M 323.726858 211.695826 
L 324.419095 190.907242 
L 325.112821 199.786163 
L 325.805058 212.255912 
L 326.497302 219.764771 
M 328.576974 53.568 
L 329.269218 104.402759 
M 330.653469 222.552562 
L 331.346218 221.758938 
L 332.037944 207.506643 
L 332.730181 180.25919 
L 333.422638 130.762748 
L 334.114875 144.285339 
L 334.807119 181.016252 
M 339.651661 196.425861 
L 340.343899 185.450265 
L 341.036136 164.426602 
L 341.726718 122.014319 
L 342.418955 104.518422 
L 343.111192 134.213913 
L 343.803429 146.668509 
M 345.877414 168.613819 
L 346.569651 159.296088 
M 354.184019 118.863546 
L 354.87625 136.996807 
M 357.647653 186.774344 
L 358.33989 213.636957 
L 359.029714 203.44715 
L 359.721951 176.371229 
M 362.491511 211.681855 
L 363.183748 177.636192 
L 363.875985 165.764331 
M 366.6451 236.927347 
L 367.338052 230.036977 
M 368.722533 200.961365 
L 369.41477 201.738926 
L 370.107983 187.907772 
L 370.80022 189.411375 
L 371.492457 189.67676 
M 374.262395 178.057644 
L 374.95463 186.159093 
L 375.647823 185.963544 
L 376.34006 192.201239 
M 383.260573 201.90614 
L 383.952811 183.610343 
L 384.644637 178.955594 
M 388.104412 201.748438 
L 388.796657 192.149688 
L 389.488894 200.222184 
L 390.872169 238.443151 
L 391.564426 246.257087 
L 391.564426 246.257087 
" style="fill:none;stroke:#0000ff;stroke-linecap:square;"/>
   </g>
   <g id="line2d_107">
    <path clip-path="url(#pe3530d67af)" d="M 266.960791 255.02381 
L 267.653028 271.864771 
M 269.729287 216.345109 
L 270.421524 218.39733 
L 271.116285 221.012414 
L 271.808522 195.745118 
L 272.500759 182.253093 
L 273.192996 196.195278 
M 275.271101 168.764763 
L 275.963338 155.790824 
L 276.655785 160.217686 
L 278.040266 206.536695 
L 278.732503 241.488678 
L 279.422083 258.622957 
M 281.498794 143.361907 
L 282.192431 112.623198 
L 282.885262 149.120515 
L 283.576905 225.249965 
L 284.269143 256.084346 
L 284.961386 216.57777 
M 287.729008 180.436139 
L 288.421904 245.154928 
L 289.114148 268.434506 
L 289.806385 252.363269 
L 290.498622 256.318366 
M 292.574566 137.317746 
L 293.266803 156.330001 
L 293.961207 170.400293 
L 294.653451 166.436419 
L 295.345682 179.474403 
L 296.037925 162.338573 
M 299.500625 129.606936 
L 300.192862 181.779251 
L 300.885099 190.282737 
L 301.577343 178.896172 
M 302.959621 196.745838 
L 303.651864 155.976484 
L 304.344095 75.868892 
L 305.037283 60.832488 
M 309.881458 152.661502 
L 310.575802 152.412775 
L 311.268039 170.84442 
L 311.960277 195.976535 
L 312.65252 171.846707 
L 313.343492 111.911393 
L 314.035729 107.99824 
L 314.727973 134.533489 
M 319.576584 157.771163 
L 320.268821 185.385253 
L 320.961058 196.282654 
L 321.653295 199.02735 
L 322.342377 200.195123 
L 323.034614 217.611439 
M 327.189539 154.101122 
L 327.884744 82.100974 
M 335.499356 178.194953 
L 336.190619 147.424054 
L 336.882856 123.420182 
L 337.575094 112.560582 
M 344.492933 169.012546 
L 345.18517 186.390615 
M 348.646226 170.242094 
L 349.338463 206.583594 
L 350.0307 200.926016 
L 350.722267 140.564524 
L 351.414505 133.963899 
L 352.106742 177.130533 
L 352.798979 159.445246 
L 353.491776 132.75797 
M 355.569124 180.680253 
L 356.26317 169.524385 
L 356.955416 164.109343 
M 360.414189 169.375045 
L 361.799274 211.803311 
M 377.032291 234.77239 
L 377.724534 229.877443 
M 381.184476 203.630303 
L 381.876099 220.398718 
L 382.568336 207.278106 
M 385.336874 181.88962 
L 386.721348 213.037141 
L 387.412183 206.332959 
M 392.256643 199.739261 
L 392.948735 209.504829 
L 393.640972 228.721196 
L 394.333209 231.13457 
L 395.025447 223.119561 
L 395.717867 224.337764 
L 396.410104 221.908329 
L 397.794578 213.881361 
L 398.487273 214.979528 
L 398.487273 214.979528 
" style="fill:none;stroke:#008000;stroke-linecap:square;"/>
   </g>
   <g id="patch_3">
    <path d="M 57.6 307.584 
L 57.6 41.472 
" style="fill:none;stroke:#000000;stroke-linecap:square;stroke-linejoin:miter;stroke-width:0.8;"/>
   </g>
   <g id="patch_4">
    <path d="M 414.72 307.584 
L 414.72 41.472 
" style="fill:none;stroke:#000000;stroke-linecap:square;stroke-linejoin:miter;stroke-width:0.8;"/>
   </g>
   <g id="patch_5">
    <path d="M 57.6 307.584 
L 414.72 307.584 
" style="fill:none;stroke:#000000;stroke-linecap:square;stroke-linejoin:miter;stroke-width:0.8;"/>
   </g>
   <g id="patch_6">
    <path d="M 57.6 41.472 
L 414.72 41.472 
" style="fill:none;stroke:#000000;stroke-linecap:square;stroke-linejoin:miter;stroke-width:0.8;"/>
   </g>
   <g id="text_12">
    <!-- Rel Gt Rot X Plot -->
    <defs>
     <path d="M 44.390625 34.1875 
Q 47.5625 33.109375 50.5625 29.59375 
Q 53.5625 26.078125 56.59375 19.921875 
L 66.609375 0 
L 56 0 
L 46.6875 18.703125 
Q 43.0625 26.03125 39.671875 28.421875 
Q 36.28125 30.8125 30.421875 30.8125 
L 19.671875 30.8125 
L 19.671875 0 
L 9.8125 0 
L 9.8125 72.90625 
L 32.078125 72.90625 
Q 44.578125 72.90625 50.734375 67.671875 
Q 56.890625 62.453125 56.890625 51.90625 
Q 56.890625 45.015625 53.6875 40.46875 
Q 50.484375 35.9375 44.390625 34.1875 
z
M 19.671875 64.796875 
L 19.671875 38.921875 
L 32.078125 38.921875 
Q 39.203125 38.921875 42.84375 42.21875 
Q 46.484375 45.515625 46.484375 51.90625 
Q 46.484375 58.296875 42.84375 61.546875 
Q 39.203125 64.796875 32.078125 64.796875 
z
" id="DejaVuSans-52"/>
     <path d="M 9.421875 75.984375 
L 18.40625 75.984375 
L 18.40625 0 
L 9.421875 0 
z
" id="DejaVuSans-6c"/>
     <path d="M 59.515625 10.40625 
L 59.515625 29.984375 
L 43.40625 29.984375 
L 43.40625 38.09375 
L 69.28125 38.09375 
L 69.28125 6.78125 
Q 63.578125 2.734375 56.6875 0.65625 
Q 49.8125 -1.421875 42 -1.421875 
Q 24.90625 -1.421875 15.25 8.5625 
Q 5.609375 18.5625 5.609375 36.375 
Q 5.609375 54.25 15.25 64.234375 
Q 24.90625 74.21875 42 74.21875 
Q 49.125 74.21875 55.546875 72.453125 
Q 61.96875 70.703125 67.390625 67.28125 
L 67.390625 56.78125 
Q 61.921875 61.421875 55.765625 63.765625 
Q 49.609375 66.109375 42.828125 66.109375 
Q 29.4375 66.109375 22.71875 58.640625 
Q 16.015625 51.171875 16.015625 36.375 
Q 16.015625 21.625 22.71875 14.15625 
Q 29.4375 6.6875 42.828125 6.6875 
Q 48.046875 6.6875 52.140625 7.59375 
Q 56.25 8.5 59.515625 10.40625 
z
" id="DejaVuSans-47"/>
     <path d="M 6.296875 72.90625 
L 16.890625 72.90625 
L 35.015625 45.796875 
L 53.21875 72.90625 
L 63.8125 72.90625 
L 40.375 37.890625 
L 65.375 0 
L 54.78125 0 
L 34.28125 31 
L 13.625 0 
L 2.984375 0 
L 29 38.921875 
z
" id="DejaVuSans-58"/>
     <path d="M 19.671875 64.796875 
L 19.671875 37.40625 
L 32.078125 37.40625 
Q 38.96875 37.40625 42.71875 40.96875 
Q 46.484375 44.53125 46.484375 51.125 
Q 46.484375 57.671875 42.71875 61.234375 
Q 38.96875 64.796875 32.078125 64.796875 
z
M 9.8125 72.90625 
L 32.078125 72.90625 
Q 44.34375 72.90625 50.609375 67.359375 
Q 56.890625 61.8125 56.890625 51.125 
Q 56.890625 40.328125 50.609375 34.8125 
Q 44.34375 29.296875 32.078125 29.296875 
L 19.671875 29.296875 
L 19.671875 0 
L 9.8125 0 
z
" id="DejaVuSans-50"/>
    </defs>
    <g transform="translate(186.400312 35.472)scale(0.12 -0.12)">
     <use xlink:href="#DejaVuSans-52"/>
     <use x="69.419922" xlink:href="#DejaVuSans-65"/>
     <use x="130.943359" xlink:href="#DejaVuSans-6c"/>
     <use x="158.726562" xlink:href="#DejaVuSans-20"/>
     <use x="190.513672" xlink:href="#DejaVuSans-47"/>
     <use x="268.003906" xlink:href="#DejaVuSans-74"/>
     <use x="307.212891" xlink:href="#DejaVuSans-20"/>
     <use x="339" xlink:href="#DejaVuSans-52"/>
     <use x="408.419922" xlink:href="#DejaVuSans-6f"/>
     <use x="469.601562" xlink:href="#DejaVuSans-74"/>
     <use x="508.810547" xlink:href="#DejaVuSans-20"/>
     <use x="540.597656" xlink:href="#DejaVuSans-58"/>
     <use x="609.103516" xlink:href="#DejaVuSans-20"/>
     <use x="640.890625" xlink:href="#DejaVuSans-50"/>
     <use x="701.193359" xlink:href="#DejaVuSans-6c"/>
     <use x="728.976562" xlink:href="#DejaVuSans-6f"/>
     <use x="790.158203" xlink:href="#DejaVuSans-74"/>
    </g>
   </g>
  </g>
 </g>
 <defs>
  <clipPath id="pe3530d67af">
   <rect height="266.112" width="357.12" x="57.6" y="41.472"/>
  </clipPath>
 </defs>
</svg>
