<?xml version="1.0" encoding="utf-8" standalone="no"?>
<!DOCTYPE svg PUBLIC "-//W3C//DTD SVG 1.1//EN"
  "http://www.w3.org/Graphics/SVG/1.1/DTD/svg11.dtd">
<!-- Created with matplotlib (http://matplotlib.org/) -->
<svg height="345.6pt" version="1.1" viewBox="0 0 460.8 345.6" width="460.8pt" xmlns="http://www.w3.org/2000/svg" xmlns:xlink="http://www.w3.org/1999/xlink">
 <defs>
  <style type="text/css">
*{stroke-linecap:butt;stroke-linejoin:round;}
  </style>
 </defs>
 <g id="figure_1">
  <g id="patch_1">
   <path d="M 0 345.6 
L 460.8 345.6 
L 460.8 0 
L 0 0 
z
" style="fill:#ffffff;"/>
  </g>
  <g id="axes_1">
   <g id="patch_2">
    <path d="M 57.6 307.584 
L 414.72 307.584 
L 414.72 41.472 
L 57.6 41.472 
z
" style="fill:#ffffff;"/>
   </g>
   <g id="matplotlib.axis_1">
    <g id="xtick_1">
     <g id="line2d_1">
      <path clip-path="url(#p5953a8a57d)" d="M 70.555248 307.584 
L 70.555248 41.472 
" style="fill:none;stroke:#b0b0b0;stroke-linecap:square;stroke-width:0.8;"/>
     </g>
     <g id="line2d_2">
      <defs>
       <path d="M 0 0 
L 0 3.5 
" id="m56d5ec4ed8" style="stroke:#000000;stroke-width:0.8;"/>
      </defs>
      <g>
       <use style="stroke:#000000;stroke-width:0.8;" x="70.555248" xlink:href="#m56d5ec4ed8" y="307.584"/>
      </g>
     </g>
     <g id="text_1">
      <!-- 0 -->
      <defs>
       <path d="M 31.78125 66.40625 
Q 24.171875 66.40625 20.328125 58.90625 
Q 16.5 51.421875 16.5 36.375 
Q 16.5 21.390625 20.328125 13.890625 
Q 24.171875 6.390625 31.78125 6.390625 
Q 39.453125 6.390625 43.28125 13.890625 
Q 47.125 21.390625 47.125 36.375 
Q 47.125 51.421875 43.28125 58.90625 
Q 39.453125 66.40625 31.78125 66.40625 
z
M 31.78125 74.21875 
Q 44.046875 74.21875 50.515625 64.515625 
Q 56.984375 54.828125 56.984375 36.375 
Q 56.984375 17.96875 50.515625 8.265625 
Q 44.046875 -1.421875 31.78125 -1.421875 
Q 19.53125 -1.421875 13.0625 8.265625 
Q 6.59375 17.96875 6.59375 36.375 
Q 6.59375 54.828125 13.0625 64.515625 
Q 19.53125 74.21875 31.78125 74.21875 
z
" id="DejaVuSans-30"/>
      </defs>
      <g transform="translate(67.373998 322.182437)scale(0.1 -0.1)">
       <use xlink:href="#DejaVuSans-30"/>
      </g>
     </g>
    </g>
    <g id="xtick_2">
     <g id="line2d_3">
      <path clip-path="url(#p5953a8a57d)" d="M 139.776886 307.584 
L 139.776886 41.472 
" style="fill:none;stroke:#b0b0b0;stroke-linecap:square;stroke-width:0.8;"/>
     </g>
     <g id="line2d_4">
      <g>
       <use style="stroke:#000000;stroke-width:0.8;" x="139.776886" xlink:href="#m56d5ec4ed8" y="307.584"/>
      </g>
     </g>
     <g id="text_2">
      <!-- 10 -->
      <defs>
       <path d="M 12.40625 8.296875 
L 28.515625 8.296875 
L 28.515625 63.921875 
L 10.984375 60.40625 
L 10.984375 69.390625 
L 28.421875 72.90625 
L 38.28125 72.90625 
L 38.28125 8.296875 
L 54.390625 8.296875 
L 54.390625 0 
L 12.40625 0 
z
" id="DejaVuSans-31"/>
      </defs>
      <g transform="translate(133.414386 322.182437)scale(0.1 -0.1)">
       <use xlink:href="#DejaVuSans-31"/>
       <use x="63.623047" xlink:href="#DejaVuSans-30"/>
      </g>
     </g>
    </g>
    <g id="xtick_3">
     <g id="line2d_5">
      <path clip-path="url(#p5953a8a57d)" d="M 208.998523 307.584 
L 208.998523 41.472 
" style="fill:none;stroke:#b0b0b0;stroke-linecap:square;stroke-width:0.8;"/>
     </g>
     <g id="line2d_6">
      <g>
       <use style="stroke:#000000;stroke-width:0.8;" x="208.998523" xlink:href="#m56d5ec4ed8" y="307.584"/>
      </g>
     </g>
     <g id="text_3">
      <!-- 20 -->
      <defs>
       <path d="M 19.1875 8.296875 
L 53.609375 8.296875 
L 53.609375 0 
L 7.328125 0 
L 7.328125 8.296875 
Q 12.9375 14.109375 22.625 23.890625 
Q 32.328125 33.6875 34.8125 36.53125 
Q 39.546875 41.84375 41.421875 45.53125 
Q 43.3125 49.21875 43.3125 52.78125 
Q 43.3125 58.59375 39.234375 62.25 
Q 35.15625 65.921875 28.609375 65.921875 
Q 23.96875 65.921875 18.8125 64.3125 
Q 13.671875 62.703125 7.8125 59.421875 
L 7.8125 69.390625 
Q 13.765625 71.78125 18.9375 73 
Q 24.125 74.21875 28.421875 74.21875 
Q 39.75 74.21875 46.484375 68.546875 
Q 53.21875 62.890625 53.21875 53.421875 
Q 53.21875 48.921875 51.53125 44.890625 
Q 49.859375 40.875 45.40625 35.40625 
Q 44.1875 33.984375 37.640625 27.21875 
Q 31.109375 20.453125 19.1875 8.296875 
z
" id="DejaVuSans-32"/>
      </defs>
      <g transform="translate(202.636023 322.182437)scale(0.1 -0.1)">
       <use xlink:href="#DejaVuSans-32"/>
       <use x="63.623047" xlink:href="#DejaVuSans-30"/>
      </g>
     </g>
    </g>
    <g id="xtick_4">
     <g id="line2d_7">
      <path clip-path="url(#p5953a8a57d)" d="M 278.220161 307.584 
L 278.220161 41.472 
" style="fill:none;stroke:#b0b0b0;stroke-linecap:square;stroke-width:0.8;"/>
     </g>
     <g id="line2d_8">
      <g>
       <use style="stroke:#000000;stroke-width:0.8;" x="278.220161" xlink:href="#m56d5ec4ed8" y="307.584"/>
      </g>
     </g>
     <g id="text_4">
      <!-- 30 -->
      <defs>
       <path d="M 40.578125 39.3125 
Q 47.65625 37.796875 51.625 33 
Q 55.609375 28.21875 55.609375 21.1875 
Q 55.609375 10.40625 48.1875 4.484375 
Q 40.765625 -1.421875 27.09375 -1.421875 
Q 22.515625 -1.421875 17.65625 -0.515625 
Q 12.796875 0.390625 7.625 2.203125 
L 7.625 11.71875 
Q 11.71875 9.328125 16.59375 8.109375 
Q 21.484375 6.890625 26.8125 6.890625 
Q 36.078125 6.890625 40.9375 10.546875 
Q 45.796875 14.203125 45.796875 21.1875 
Q 45.796875 27.640625 41.28125 31.265625 
Q 36.765625 34.90625 28.71875 34.90625 
L 20.21875 34.90625 
L 20.21875 43.015625 
L 29.109375 43.015625 
Q 36.375 43.015625 40.234375 45.921875 
Q 44.09375 48.828125 44.09375 54.296875 
Q 44.09375 59.90625 40.109375 62.90625 
Q 36.140625 65.921875 28.71875 65.921875 
Q 24.65625 65.921875 20.015625 65.03125 
Q 15.375 64.15625 9.8125 62.3125 
L 9.8125 71.09375 
Q 15.4375 72.65625 20.34375 73.4375 
Q 25.25 74.21875 29.59375 74.21875 
Q 40.828125 74.21875 47.359375 69.109375 
Q 53.90625 64.015625 53.90625 55.328125 
Q 53.90625 49.265625 50.4375 45.09375 
Q 46.96875 40.921875 40.578125 39.3125 
z
" id="DejaVuSans-33"/>
      </defs>
      <g transform="translate(271.857661 322.182437)scale(0.1 -0.1)">
       <use xlink:href="#DejaVuSans-33"/>
       <use x="63.623047" xlink:href="#DejaVuSans-30"/>
      </g>
     </g>
    </g>
    <g id="xtick_5">
     <g id="line2d_9">
      <path clip-path="url(#p5953a8a57d)" d="M 347.441799 307.584 
L 347.441799 41.472 
" style="fill:none;stroke:#b0b0b0;stroke-linecap:square;stroke-width:0.8;"/>
     </g>
     <g id="line2d_10">
      <g>
       <use style="stroke:#000000;stroke-width:0.8;" x="347.441799" xlink:href="#m56d5ec4ed8" y="307.584"/>
      </g>
     </g>
     <g id="text_5">
      <!-- 40 -->
      <defs>
       <path d="M 37.796875 64.3125 
L 12.890625 25.390625 
L 37.796875 25.390625 
z
M 35.203125 72.90625 
L 47.609375 72.90625 
L 47.609375 25.390625 
L 58.015625 25.390625 
L 58.015625 17.1875 
L 47.609375 17.1875 
L 47.609375 0 
L 37.796875 0 
L 37.796875 17.1875 
L 4.890625 17.1875 
L 4.890625 26.703125 
z
" id="DejaVuSans-34"/>
      </defs>
      <g transform="translate(341.079299 322.182437)scale(0.1 -0.1)">
       <use xlink:href="#DejaVuSans-34"/>
       <use x="63.623047" xlink:href="#DejaVuSans-30"/>
      </g>
     </g>
    </g>
    <g id="xtick_6">
     <g id="line2d_11">
      <path clip-path="url(#p5953a8a57d)" d="M 84.399575 307.584 
L 84.399575 41.472 
" style="fill:none;stroke:#b0b0b0;stroke-linecap:square;stroke-width:0.8;"/>
     </g>
     <g id="line2d_12">
      <defs>
       <path d="M 0 0 
L 0 2 
" id="m1dffc78345" style="stroke:#000000;stroke-width:0.6;"/>
      </defs>
      <g>
       <use style="stroke:#000000;stroke-width:0.6;" x="84.399575" xlink:href="#m1dffc78345" y="307.584"/>
      </g>
     </g>
    </g>
    <g id="xtick_7">
     <g id="line2d_13">
      <path clip-path="url(#p5953a8a57d)" d="M 98.243903 307.584 
L 98.243903 41.472 
" style="fill:none;stroke:#b0b0b0;stroke-linecap:square;stroke-width:0.8;"/>
     </g>
     <g id="line2d_14">
      <g>
       <use style="stroke:#000000;stroke-width:0.6;" x="98.243903" xlink:href="#m1dffc78345" y="307.584"/>
      </g>
     </g>
    </g>
    <g id="xtick_8">
     <g id="line2d_15">
      <path clip-path="url(#p5953a8a57d)" d="M 112.08823 307.584 
L 112.08823 41.472 
" style="fill:none;stroke:#b0b0b0;stroke-linecap:square;stroke-width:0.8;"/>
     </g>
     <g id="line2d_16">
      <g>
       <use style="stroke:#000000;stroke-width:0.6;" x="112.08823" xlink:href="#m1dffc78345" y="307.584"/>
      </g>
     </g>
    </g>
    <g id="xtick_9">
     <g id="line2d_17">
      <path clip-path="url(#p5953a8a57d)" d="M 125.932558 307.584 
L 125.932558 41.472 
" style="fill:none;stroke:#b0b0b0;stroke-linecap:square;stroke-width:0.8;"/>
     </g>
     <g id="line2d_18">
      <g>
       <use style="stroke:#000000;stroke-width:0.6;" x="125.932558" xlink:href="#m1dffc78345" y="307.584"/>
      </g>
     </g>
    </g>
    <g id="xtick_10">
     <g id="line2d_19">
      <path clip-path="url(#p5953a8a57d)" d="M 153.621213 307.584 
L 153.621213 41.472 
" style="fill:none;stroke:#b0b0b0;stroke-linecap:square;stroke-width:0.8;"/>
     </g>
     <g id="line2d_20">
      <g>
       <use style="stroke:#000000;stroke-width:0.6;" x="153.621213" xlink:href="#m1dffc78345" y="307.584"/>
      </g>
     </g>
    </g>
    <g id="xtick_11">
     <g id="line2d_21">
      <path clip-path="url(#p5953a8a57d)" d="M 167.465541 307.584 
L 167.465541 41.472 
" style="fill:none;stroke:#b0b0b0;stroke-linecap:square;stroke-width:0.8;"/>
     </g>
     <g id="line2d_22">
      <g>
       <use style="stroke:#000000;stroke-width:0.6;" x="167.465541" xlink:href="#m1dffc78345" y="307.584"/>
      </g>
     </g>
    </g>
    <g id="xtick_12">
     <g id="line2d_23">
      <path clip-path="url(#p5953a8a57d)" d="M 181.309868 307.584 
L 181.309868 41.472 
" style="fill:none;stroke:#b0b0b0;stroke-linecap:square;stroke-width:0.8;"/>
     </g>
     <g id="line2d_24">
      <g>
       <use style="stroke:#000000;stroke-width:0.6;" x="181.309868" xlink:href="#m1dffc78345" y="307.584"/>
      </g>
     </g>
    </g>
    <g id="xtick_13">
     <g id="line2d_25">
      <path clip-path="url(#p5953a8a57d)" d="M 195.154196 307.584 
L 195.154196 41.472 
" style="fill:none;stroke:#b0b0b0;stroke-linecap:square;stroke-width:0.8;"/>
     </g>
     <g id="line2d_26">
      <g>
       <use style="stroke:#000000;stroke-width:0.6;" x="195.154196" xlink:href="#m1dffc78345" y="307.584"/>
      </g>
     </g>
    </g>
    <g id="xtick_14">
     <g id="line2d_27">
      <path clip-path="url(#p5953a8a57d)" d="M 222.842851 307.584 
L 222.842851 41.472 
" style="fill:none;stroke:#b0b0b0;stroke-linecap:square;stroke-width:0.8;"/>
     </g>
     <g id="line2d_28">
      <g>
       <use style="stroke:#000000;stroke-width:0.6;" x="222.842851" xlink:href="#m1dffc78345" y="307.584"/>
      </g>
     </g>
    </g>
    <g id="xtick_15">
     <g id="line2d_29">
      <path clip-path="url(#p5953a8a57d)" d="M 236.687178 307.584 
L 236.687178 41.472 
" style="fill:none;stroke:#b0b0b0;stroke-linecap:square;stroke-width:0.8;"/>
     </g>
     <g id="line2d_30">
      <g>
       <use style="stroke:#000000;stroke-width:0.6;" x="236.687178" xlink:href="#m1dffc78345" y="307.584"/>
      </g>
     </g>
    </g>
    <g id="xtick_16">
     <g id="line2d_31">
      <path clip-path="url(#p5953a8a57d)" d="M 250.531506 307.584 
L 250.531506 41.472 
" style="fill:none;stroke:#b0b0b0;stroke-linecap:square;stroke-width:0.8;"/>
     </g>
     <g id="line2d_32">
      <g>
       <use style="stroke:#000000;stroke-width:0.6;" x="250.531506" xlink:href="#m1dffc78345" y="307.584"/>
      </g>
     </g>
    </g>
    <g id="xtick_17">
     <g id="line2d_33">
      <path clip-path="url(#p5953a8a57d)" d="M 264.375834 307.584 
L 264.375834 41.472 
" style="fill:none;stroke:#b0b0b0;stroke-linecap:square;stroke-width:0.8;"/>
     </g>
     <g id="line2d_34">
      <g>
       <use style="stroke:#000000;stroke-width:0.6;" x="264.375834" xlink:href="#m1dffc78345" y="307.584"/>
      </g>
     </g>
    </g>
    <g id="xtick_18">
     <g id="line2d_35">
      <path clip-path="url(#p5953a8a57d)" d="M 292.064489 307.584 
L 292.064489 41.472 
" style="fill:none;stroke:#b0b0b0;stroke-linecap:square;stroke-width:0.8;"/>
     </g>
     <g id="line2d_36">
      <g>
       <use style="stroke:#000000;stroke-width:0.6;" x="292.064489" xlink:href="#m1dffc78345" y="307.584"/>
      </g>
     </g>
    </g>
    <g id="xtick_19">
     <g id="line2d_37">
      <path clip-path="url(#p5953a8a57d)" d="M 305.908816 307.584 
L 305.908816 41.472 
" style="fill:none;stroke:#b0b0b0;stroke-linecap:square;stroke-width:0.8;"/>
     </g>
     <g id="line2d_38">
      <g>
       <use style="stroke:#000000;stroke-width:0.6;" x="305.908816" xlink:href="#m1dffc78345" y="307.584"/>
      </g>
     </g>
    </g>
    <g id="xtick_20">
     <g id="line2d_39">
      <path clip-path="url(#p5953a8a57d)" d="M 319.753144 307.584 
L 319.753144 41.472 
" style="fill:none;stroke:#b0b0b0;stroke-linecap:square;stroke-width:0.8;"/>
     </g>
     <g id="line2d_40">
      <g>
       <use style="stroke:#000000;stroke-width:0.6;" x="319.753144" xlink:href="#m1dffc78345" y="307.584"/>
      </g>
     </g>
    </g>
    <g id="xtick_21">
     <g id="line2d_41">
      <path clip-path="url(#p5953a8a57d)" d="M 333.597471 307.584 
L 333.597471 41.472 
" style="fill:none;stroke:#b0b0b0;stroke-linecap:square;stroke-width:0.8;"/>
     </g>
     <g id="line2d_42">
      <g>
       <use style="stroke:#000000;stroke-width:0.6;" x="333.597471" xlink:href="#m1dffc78345" y="307.584"/>
      </g>
     </g>
    </g>
    <g id="xtick_22">
     <g id="line2d_43">
      <path clip-path="url(#p5953a8a57d)" d="M 361.286127 307.584 
L 361.286127 41.472 
" style="fill:none;stroke:#b0b0b0;stroke-linecap:square;stroke-width:0.8;"/>
     </g>
     <g id="line2d_44">
      <g>
       <use style="stroke:#000000;stroke-width:0.6;" x="361.286127" xlink:href="#m1dffc78345" y="307.584"/>
      </g>
     </g>
    </g>
    <g id="xtick_23">
     <g id="line2d_45">
      <path clip-path="url(#p5953a8a57d)" d="M 375.130454 307.584 
L 375.130454 41.472 
" style="fill:none;stroke:#b0b0b0;stroke-linecap:square;stroke-width:0.8;"/>
     </g>
     <g id="line2d_46">
      <g>
       <use style="stroke:#000000;stroke-width:0.6;" x="375.130454" xlink:href="#m1dffc78345" y="307.584"/>
      </g>
     </g>
    </g>
    <g id="xtick_24">
     <g id="line2d_47">
      <path clip-path="url(#p5953a8a57d)" d="M 388.974782 307.584 
L 388.974782 41.472 
" style="fill:none;stroke:#b0b0b0;stroke-linecap:square;stroke-width:0.8;"/>
     </g>
     <g id="line2d_48">
      <g>
       <use style="stroke:#000000;stroke-width:0.6;" x="388.974782" xlink:href="#m1dffc78345" y="307.584"/>
      </g>
     </g>
    </g>
    <g id="xtick_25">
     <g id="line2d_49">
      <path clip-path="url(#p5953a8a57d)" d="M 402.819109 307.584 
L 402.819109 41.472 
" style="fill:none;stroke:#b0b0b0;stroke-linecap:square;stroke-width:0.8;"/>
     </g>
     <g id="line2d_50">
      <g>
       <use style="stroke:#000000;stroke-width:0.6;" x="402.819109" xlink:href="#m1dffc78345" y="307.584"/>
      </g>
     </g>
    </g>
    <g id="text_6">
     <!-- frame # [] -->
     <defs>
      <path d="M 37.109375 75.984375 
L 37.109375 68.5 
L 28.515625 68.5 
Q 23.6875 68.5 21.796875 66.546875 
Q 19.921875 64.59375 19.921875 59.515625 
L 19.921875 54.6875 
L 34.71875 54.6875 
L 34.71875 47.703125 
L 19.921875 47.703125 
L 19.921875 0 
L 10.890625 0 
L 10.890625 47.703125 
L 2.296875 47.703125 
L 2.296875 54.6875 
L 10.890625 54.6875 
L 10.890625 58.5 
Q 10.890625 67.625 15.140625 71.796875 
Q 19.390625 75.984375 28.609375 75.984375 
z
" id="DejaVuSans-66"/>
      <path d="M 41.109375 46.296875 
Q 39.59375 47.171875 37.8125 47.578125 
Q 36.03125 48 33.890625 48 
Q 26.265625 48 22.1875 43.046875 
Q 18.109375 38.09375 18.109375 28.8125 
L 18.109375 0 
L 9.078125 0 
L 9.078125 54.6875 
L 18.109375 54.6875 
L 18.109375 46.1875 
Q 20.953125 51.171875 25.484375 53.578125 
Q 30.03125 56 36.53125 56 
Q 37.453125 56 38.578125 55.875 
Q 39.703125 55.765625 41.0625 55.515625 
z
" id="DejaVuSans-72"/>
      <path d="M 34.28125 27.484375 
Q 23.390625 27.484375 19.1875 25 
Q 14.984375 22.515625 14.984375 16.5 
Q 14.984375 11.71875 18.140625 8.90625 
Q 21.296875 6.109375 26.703125 6.109375 
Q 34.1875 6.109375 38.703125 11.40625 
Q 43.21875 16.703125 43.21875 25.484375 
L 43.21875 27.484375 
z
M 52.203125 31.203125 
L 52.203125 0 
L 43.21875 0 
L 43.21875 8.296875 
Q 40.140625 3.328125 35.546875 0.953125 
Q 30.953125 -1.421875 24.3125 -1.421875 
Q 15.921875 -1.421875 10.953125 3.296875 
Q 6 8.015625 6 15.921875 
Q 6 25.140625 12.171875 29.828125 
Q 18.359375 34.515625 30.609375 34.515625 
L 43.21875 34.515625 
L 43.21875 35.40625 
Q 43.21875 41.609375 39.140625 45 
Q 35.0625 48.390625 27.6875 48.390625 
Q 23 48.390625 18.546875 47.265625 
Q 14.109375 46.140625 10.015625 43.890625 
L 10.015625 52.203125 
Q 14.9375 54.109375 19.578125 55.046875 
Q 24.21875 56 28.609375 56 
Q 40.484375 56 46.34375 49.84375 
Q 52.203125 43.703125 52.203125 31.203125 
z
" id="DejaVuSans-61"/>
      <path d="M 52 44.1875 
Q 55.375 50.25 60.0625 53.125 
Q 64.75 56 71.09375 56 
Q 79.640625 56 84.28125 50.015625 
Q 88.921875 44.046875 88.921875 33.015625 
L 88.921875 0 
L 79.890625 0 
L 79.890625 32.71875 
Q 79.890625 40.578125 77.09375 44.375 
Q 74.3125 48.1875 68.609375 48.1875 
Q 61.625 48.1875 57.5625 43.546875 
Q 53.515625 38.921875 53.515625 30.90625 
L 53.515625 0 
L 44.484375 0 
L 44.484375 32.71875 
Q 44.484375 40.625 41.703125 44.40625 
Q 38.921875 48.1875 33.109375 48.1875 
Q 26.21875 48.1875 22.15625 43.53125 
Q 18.109375 38.875 18.109375 30.90625 
L 18.109375 0 
L 9.078125 0 
L 9.078125 54.6875 
L 18.109375 54.6875 
L 18.109375 46.1875 
Q 21.1875 51.21875 25.484375 53.609375 
Q 29.78125 56 35.6875 56 
Q 41.65625 56 45.828125 52.96875 
Q 50 49.953125 52 44.1875 
z
" id="DejaVuSans-6d"/>
      <path d="M 56.203125 29.59375 
L 56.203125 25.203125 
L 14.890625 25.203125 
Q 15.484375 15.921875 20.484375 11.0625 
Q 25.484375 6.203125 34.421875 6.203125 
Q 39.59375 6.203125 44.453125 7.46875 
Q 49.3125 8.734375 54.109375 11.28125 
L 54.109375 2.78125 
Q 49.265625 0.734375 44.1875 -0.34375 
Q 39.109375 -1.421875 33.890625 -1.421875 
Q 20.796875 -1.421875 13.15625 6.1875 
Q 5.515625 13.8125 5.515625 26.8125 
Q 5.515625 40.234375 12.765625 48.109375 
Q 20.015625 56 32.328125 56 
Q 43.359375 56 49.78125 48.890625 
Q 56.203125 41.796875 56.203125 29.59375 
z
M 47.21875 32.234375 
Q 47.125 39.59375 43.09375 43.984375 
Q 39.0625 48.390625 32.421875 48.390625 
Q 24.90625 48.390625 20.390625 44.140625 
Q 15.875 39.890625 15.1875 32.171875 
z
" id="DejaVuSans-65"/>
      <path id="DejaVuSans-20"/>
      <path d="M 51.125 44 
L 36.921875 44 
L 32.8125 27.6875 
L 47.125 27.6875 
z
M 43.796875 71.78125 
L 38.71875 51.515625 
L 52.984375 51.515625 
L 58.109375 71.78125 
L 65.921875 71.78125 
L 60.890625 51.515625 
L 76.125 51.515625 
L 76.125 44 
L 58.984375 44 
L 54.984375 27.6875 
L 70.515625 27.6875 
L 70.515625 20.21875 
L 53.078125 20.21875 
L 48 0 
L 40.1875 0 
L 45.21875 20.21875 
L 30.90625 20.21875 
L 25.875 0 
L 18.015625 0 
L 23.09375 20.21875 
L 7.71875 20.21875 
L 7.71875 27.6875 
L 24.90625 27.6875 
L 29 44 
L 13.28125 44 
L 13.28125 51.515625 
L 30.90625 51.515625 
L 35.890625 71.78125 
z
" id="DejaVuSans-23"/>
      <path d="M 8.59375 75.984375 
L 29.296875 75.984375 
L 29.296875 69 
L 17.578125 69 
L 17.578125 -6.203125 
L 29.296875 -6.203125 
L 29.296875 -13.1875 
L 8.59375 -13.1875 
z
" id="DejaVuSans-5b"/>
      <path d="M 30.421875 75.984375 
L 30.421875 -13.1875 
L 9.71875 -13.1875 
L 9.71875 -6.203125 
L 21.390625 -6.203125 
L 21.390625 69 
L 9.71875 69 
L 9.71875 75.984375 
z
" id="DejaVuSans-5d"/>
     </defs>
     <g transform="translate(210.063906 335.860562)scale(0.1 -0.1)">
      <use xlink:href="#DejaVuSans-66"/>
      <use x="35.205078" xlink:href="#DejaVuSans-72"/>
      <use x="76.318359" xlink:href="#DejaVuSans-61"/>
      <use x="137.597656" xlink:href="#DejaVuSans-6d"/>
      <use x="235.009766" xlink:href="#DejaVuSans-65"/>
      <use x="296.533203" xlink:href="#DejaVuSans-20"/>
      <use x="328.320312" xlink:href="#DejaVuSans-23"/>
      <use x="412.109375" xlink:href="#DejaVuSans-20"/>
      <use x="443.896484" xlink:href="#DejaVuSans-5b"/>
      <use x="482.910156" xlink:href="#DejaVuSans-5d"/>
     </g>
    </g>
   </g>
   <g id="matplotlib.axis_2">
    <g id="ytick_1">
     <g id="line2d_51">
      <path clip-path="url(#p5953a8a57d)" d="M 57.6 285.450184 
L 414.72 285.450184 
" style="fill:none;stroke:#b0b0b0;stroke-linecap:square;stroke-width:0.8;"/>
     </g>
     <g id="line2d_52">
      <defs>
       <path d="M 0 0 
L -3.5 0 
" id="m14be0f3a56" style="stroke:#000000;stroke-width:0.8;"/>
      </defs>
      <g>
       <use style="stroke:#000000;stroke-width:0.8;" x="57.6" xlink:href="#m14be0f3a56" y="285.450184"/>
      </g>
     </g>
     <g id="text_7">
      <!-- −0.4 -->
      <defs>
       <path d="M 10.59375 35.5 
L 73.1875 35.5 
L 73.1875 27.203125 
L 10.59375 27.203125 
z
" id="DejaVuSans-2212"/>
       <path d="M 10.6875 12.40625 
L 21 12.40625 
L 21 0 
L 10.6875 0 
z
" id="DejaVuSans-2e"/>
      </defs>
      <g transform="translate(26.317187 289.249403)scale(0.1 -0.1)">
       <use xlink:href="#DejaVuSans-2212"/>
       <use x="83.789062" xlink:href="#DejaVuSans-30"/>
       <use x="147.412109" xlink:href="#DejaVuSans-2e"/>
       <use x="179.199219" xlink:href="#DejaVuSans-34"/>
      </g>
     </g>
    </g>
    <g id="ytick_2">
     <g id="line2d_53">
      <path clip-path="url(#p5953a8a57d)" d="M 57.6 230.925 
L 414.72 230.925 
" style="fill:none;stroke:#b0b0b0;stroke-linecap:square;stroke-width:0.8;"/>
     </g>
     <g id="line2d_54">
      <g>
       <use style="stroke:#000000;stroke-width:0.8;" x="57.6" xlink:href="#m14be0f3a56" y="230.925"/>
      </g>
     </g>
     <g id="text_8">
      <!-- −0.2 -->
      <g transform="translate(26.317187 234.724219)scale(0.1 -0.1)">
       <use xlink:href="#DejaVuSans-2212"/>
       <use x="83.789062" xlink:href="#DejaVuSans-30"/>
       <use x="147.412109" xlink:href="#DejaVuSans-2e"/>
       <use x="179.199219" xlink:href="#DejaVuSans-32"/>
      </g>
     </g>
    </g>
    <g id="ytick_3">
     <g id="line2d_55">
      <path clip-path="url(#p5953a8a57d)" d="M 57.6 176.399816 
L 414.72 176.399816 
" style="fill:none;stroke:#b0b0b0;stroke-linecap:square;stroke-width:0.8;"/>
     </g>
     <g id="line2d_56">
      <g>
       <use style="stroke:#000000;stroke-width:0.8;" x="57.6" xlink:href="#m14be0f3a56" y="176.399816"/>
      </g>
     </g>
     <g id="text_9">
      <!-- 0.0 -->
      <g transform="translate(34.696875 180.199034)scale(0.1 -0.1)">
       <use xlink:href="#DejaVuSans-30"/>
       <use x="63.623047" xlink:href="#DejaVuSans-2e"/>
       <use x="95.410156" xlink:href="#DejaVuSans-30"/>
      </g>
     </g>
    </g>
    <g id="ytick_4">
     <g id="line2d_57">
      <path clip-path="url(#p5953a8a57d)" d="M 57.6 121.874631 
L 414.72 121.874631 
" style="fill:none;stroke:#b0b0b0;stroke-linecap:square;stroke-width:0.8;"/>
     </g>
     <g id="line2d_58">
      <g>
       <use style="stroke:#000000;stroke-width:0.8;" x="57.6" xlink:href="#m14be0f3a56" y="121.874631"/>
      </g>
     </g>
     <g id="text_10">
      <!-- 0.2 -->
      <g transform="translate(34.696875 125.67385)scale(0.1 -0.1)">
       <use xlink:href="#DejaVuSans-30"/>
       <use x="63.623047" xlink:href="#DejaVuSans-2e"/>
       <use x="95.410156" xlink:href="#DejaVuSans-32"/>
      </g>
     </g>
    </g>
    <g id="ytick_5">
     <g id="line2d_59">
      <path clip-path="url(#p5953a8a57d)" d="M 57.6 67.349447 
L 414.72 67.349447 
" style="fill:none;stroke:#b0b0b0;stroke-linecap:square;stroke-width:0.8;"/>
     </g>
     <g id="line2d_60">
      <g>
       <use style="stroke:#000000;stroke-width:0.8;" x="57.6" xlink:href="#m14be0f3a56" y="67.349447"/>
      </g>
     </g>
     <g id="text_11">
      <!-- 0.4 -->
      <g transform="translate(34.696875 71.148666)scale(0.1 -0.1)">
       <use xlink:href="#DejaVuSans-30"/>
       <use x="63.623047" xlink:href="#DejaVuSans-2e"/>
       <use x="95.410156" xlink:href="#DejaVuSans-34"/>
      </g>
     </g>
    </g>
    <g id="ytick_6">
     <g id="line2d_61">
      <path clip-path="url(#p5953a8a57d)" d="M 57.6 299.08148 
L 414.72 299.08148 
" style="fill:none;stroke:#b0b0b0;stroke-linecap:square;stroke-width:0.8;"/>
     </g>
     <g id="line2d_62">
      <defs>
       <path d="M 0 0 
L -2 0 
" id="m317fa7f881" style="stroke:#000000;stroke-width:0.6;"/>
      </defs>
      <g>
       <use style="stroke:#000000;stroke-width:0.6;" x="57.6" xlink:href="#m317fa7f881" y="299.08148"/>
      </g>
     </g>
    </g>
    <g id="ytick_7">
     <g id="line2d_63">
      <path clip-path="url(#p5953a8a57d)" d="M 57.6 271.818888 
L 414.72 271.818888 
" style="fill:none;stroke:#b0b0b0;stroke-linecap:square;stroke-width:0.8;"/>
     </g>
     <g id="line2d_64">
      <g>
       <use style="stroke:#000000;stroke-width:0.6;" x="57.6" xlink:href="#m317fa7f881" y="271.818888"/>
      </g>
     </g>
    </g>
    <g id="ytick_8">
     <g id="line2d_65">
      <path clip-path="url(#p5953a8a57d)" d="M 57.6 258.187592 
L 414.72 258.187592 
" style="fill:none;stroke:#b0b0b0;stroke-linecap:square;stroke-width:0.8;"/>
     </g>
     <g id="line2d_66">
      <g>
       <use style="stroke:#000000;stroke-width:0.6;" x="57.6" xlink:href="#m317fa7f881" y="258.187592"/>
      </g>
     </g>
    </g>
    <g id="ytick_9">
     <g id="line2d_67">
      <path clip-path="url(#p5953a8a57d)" d="M 57.6 244.556296 
L 414.72 244.556296 
" style="fill:none;stroke:#b0b0b0;stroke-linecap:square;stroke-width:0.8;"/>
     </g>
     <g id="line2d_68">
      <g>
       <use style="stroke:#000000;stroke-width:0.6;" x="57.6" xlink:href="#m317fa7f881" y="244.556296"/>
      </g>
     </g>
    </g>
    <g id="ytick_10">
     <g id="line2d_69">
      <path clip-path="url(#p5953a8a57d)" d="M 57.6 230.925 
L 414.72 230.925 
" style="fill:none;stroke:#b0b0b0;stroke-linecap:square;stroke-width:0.8;"/>
     </g>
     <g id="line2d_70">
      <g>
       <use style="stroke:#000000;stroke-width:0.6;" x="57.6" xlink:href="#m317fa7f881" y="230.925"/>
      </g>
     </g>
    </g>
    <g id="ytick_11">
     <g id="line2d_71">
      <path clip-path="url(#p5953a8a57d)" d="M 57.6 217.293704 
L 414.72 217.293704 
" style="fill:none;stroke:#b0b0b0;stroke-linecap:square;stroke-width:0.8;"/>
     </g>
     <g id="line2d_72">
      <g>
       <use style="stroke:#000000;stroke-width:0.6;" x="57.6" xlink:href="#m317fa7f881" y="217.293704"/>
      </g>
     </g>
    </g>
    <g id="ytick_12">
     <g id="line2d_73">
      <path clip-path="url(#p5953a8a57d)" d="M 57.6 203.662408 
L 414.72 203.662408 
" style="fill:none;stroke:#b0b0b0;stroke-linecap:square;stroke-width:0.8;"/>
     </g>
     <g id="line2d_74">
      <g>
       <use style="stroke:#000000;stroke-width:0.6;" x="57.6" xlink:href="#m317fa7f881" y="203.662408"/>
      </g>
     </g>
    </g>
    <g id="ytick_13">
     <g id="line2d_75">
      <path clip-path="url(#p5953a8a57d)" d="M 57.6 190.031112 
L 414.72 190.031112 
" style="fill:none;stroke:#b0b0b0;stroke-linecap:square;stroke-width:0.8;"/>
     </g>
     <g id="line2d_76">
      <g>
       <use style="stroke:#000000;stroke-width:0.6;" x="57.6" xlink:href="#m317fa7f881" y="190.031112"/>
      </g>
     </g>
    </g>
    <g id="ytick_14">
     <g id="line2d_77">
      <path clip-path="url(#p5953a8a57d)" d="M 57.6 176.399816 
L 414.72 176.399816 
" style="fill:none;stroke:#b0b0b0;stroke-linecap:square;stroke-width:0.8;"/>
     </g>
     <g id="line2d_78">
      <g>
       <use style="stroke:#000000;stroke-width:0.6;" x="57.6" xlink:href="#m317fa7f881" y="176.399816"/>
      </g>
     </g>
    </g>
    <g id="ytick_15">
     <g id="line2d_79">
      <path clip-path="url(#p5953a8a57d)" d="M 57.6 162.768519 
L 414.72 162.768519 
" style="fill:none;stroke:#b0b0b0;stroke-linecap:square;stroke-width:0.8;"/>
     </g>
     <g id="line2d_80">
      <g>
       <use style="stroke:#000000;stroke-width:0.6;" x="57.6" xlink:href="#m317fa7f881" y="162.768519"/>
      </g>
     </g>
    </g>
    <g id="ytick_16">
     <g id="line2d_81">
      <path clip-path="url(#p5953a8a57d)" d="M 57.6 149.137223 
L 414.72 149.137223 
" style="fill:none;stroke:#b0b0b0;stroke-linecap:square;stroke-width:0.8;"/>
     </g>
     <g id="line2d_82">
      <g>
       <use style="stroke:#000000;stroke-width:0.6;" x="57.6" xlink:href="#m317fa7f881" y="149.137223"/>
      </g>
     </g>
    </g>
    <g id="ytick_17">
     <g id="line2d_83">
      <path clip-path="url(#p5953a8a57d)" d="M 57.6 135.505927 
L 414.72 135.505927 
" style="fill:none;stroke:#b0b0b0;stroke-linecap:square;stroke-width:0.8;"/>
     </g>
     <g id="line2d_84">
      <g>
       <use style="stroke:#000000;stroke-width:0.6;" x="57.6" xlink:href="#m317fa7f881" y="135.505927"/>
      </g>
     </g>
    </g>
    <g id="ytick_18">
     <g id="line2d_85">
      <path clip-path="url(#p5953a8a57d)" d="M 57.6 121.874631 
L 414.72 121.874631 
" style="fill:none;stroke:#b0b0b0;stroke-linecap:square;stroke-width:0.8;"/>
     </g>
     <g id="line2d_86">
      <g>
       <use style="stroke:#000000;stroke-width:0.6;" x="57.6" xlink:href="#m317fa7f881" y="121.874631"/>
      </g>
     </g>
    </g>
    <g id="ytick_19">
     <g id="line2d_87">
      <path clip-path="url(#p5953a8a57d)" d="M 57.6 108.243335 
L 414.72 108.243335 
" style="fill:none;stroke:#b0b0b0;stroke-linecap:square;stroke-width:0.8;"/>
     </g>
     <g id="line2d_88">
      <g>
       <use style="stroke:#000000;stroke-width:0.6;" x="57.6" xlink:href="#m317fa7f881" y="108.243335"/>
      </g>
     </g>
    </g>
    <g id="ytick_20">
     <g id="line2d_89">
      <path clip-path="url(#p5953a8a57d)" d="M 57.6 94.612039 
L 414.72 94.612039 
" style="fill:none;stroke:#b0b0b0;stroke-linecap:square;stroke-width:0.8;"/>
     </g>
     <g id="line2d_90">
      <g>
       <use style="stroke:#000000;stroke-width:0.6;" x="57.6" xlink:href="#m317fa7f881" y="94.612039"/>
      </g>
     </g>
    </g>
    <g id="ytick_21">
     <g id="line2d_91">
      <path clip-path="url(#p5953a8a57d)" d="M 57.6 80.980743 
L 414.72 80.980743 
" style="fill:none;stroke:#b0b0b0;stroke-linecap:square;stroke-width:0.8;"/>
     </g>
     <g id="line2d_92">
      <g>
       <use style="stroke:#000000;stroke-width:0.6;" x="57.6" xlink:href="#m317fa7f881" y="80.980743"/>
      </g>
     </g>
    </g>
    <g id="ytick_22">
     <g id="line2d_93">
      <path clip-path="url(#p5953a8a57d)" d="M 57.6 67.349447 
L 414.72 67.349447 
" style="fill:none;stroke:#b0b0b0;stroke-linecap:square;stroke-width:0.8;"/>
     </g>
     <g id="line2d_94">
      <g>
       <use style="stroke:#000000;stroke-width:0.6;" x="57.6" xlink:href="#m317fa7f881" y="67.349447"/>
      </g>
     </g>
    </g>
    <g id="ytick_23">
     <g id="line2d_95">
      <path clip-path="url(#p5953a8a57d)" d="M 57.6 53.718151 
L 414.72 53.718151 
" style="fill:none;stroke:#b0b0b0;stroke-linecap:square;stroke-width:0.8;"/>
     </g>
     <g id="line2d_96">
      <g>
       <use style="stroke:#000000;stroke-width:0.6;" x="57.6" xlink:href="#m317fa7f881" y="53.718151"/>
      </g>
     </g>
    </g>
    <g id="text_12">
     <!-- rot z -->
     <defs>
      <path d="M 30.609375 48.390625 
Q 23.390625 48.390625 19.1875 42.75 
Q 14.984375 37.109375 14.984375 27.296875 
Q 14.984375 17.484375 19.15625 11.84375 
Q 23.34375 6.203125 30.609375 6.203125 
Q 37.796875 6.203125 41.984375 11.859375 
Q 46.1875 17.53125 46.1875 27.296875 
Q 46.1875 37.015625 41.984375 42.703125 
Q 37.796875 48.390625 30.609375 48.390625 
z
M 30.609375 56 
Q 42.328125 56 49.015625 48.375 
Q 55.71875 40.765625 55.71875 27.296875 
Q 55.71875 13.875 49.015625 6.21875 
Q 42.328125 -1.421875 30.609375 -1.421875 
Q 18.84375 -1.421875 12.171875 6.21875 
Q 5.515625 13.875 5.515625 27.296875 
Q 5.515625 40.765625 12.171875 48.375 
Q 18.84375 56 30.609375 56 
z
" id="DejaVuSans-6f"/>
      <path d="M 18.3125 70.21875 
L 18.3125 54.6875 
L 36.8125 54.6875 
L 36.8125 47.703125 
L 18.3125 47.703125 
L 18.3125 18.015625 
Q 18.3125 11.328125 20.140625 9.421875 
Q 21.96875 7.515625 27.59375 7.515625 
L 36.8125 7.515625 
L 36.8125 0 
L 27.59375 0 
Q 17.1875 0 13.234375 3.875 
Q 9.28125 7.765625 9.28125 18.015625 
L 9.28125 47.703125 
L 2.6875 47.703125 
L 2.6875 54.6875 
L 9.28125 54.6875 
L 9.28125 70.21875 
z
" id="DejaVuSans-74"/>
      <path d="M 5.515625 54.6875 
L 48.1875 54.6875 
L 48.1875 46.484375 
L 14.40625 7.171875 
L 48.1875 7.171875 
L 48.1875 0 
L 4.296875 0 
L 4.296875 8.203125 
L 38.09375 47.515625 
L 5.515625 47.515625 
z
" id="DejaVuSans-7a"/>
     </defs>
     <g transform="translate(20.2375 185.814719)rotate(-90)scale(0.1 -0.1)">
      <use xlink:href="#DejaVuSans-72"/>
      <use x="41.082031" xlink:href="#DejaVuSans-6f"/>
      <use x="102.263672" xlink:href="#DejaVuSans-74"/>
      <use x="141.472656" xlink:href="#DejaVuSans-20"/>
      <use x="173.259766" xlink:href="#DejaVuSans-7a"/>
     </g>
    </g>
   </g>
   <g id="line2d_97">
    <path clip-path="url(#p5953a8a57d)" d="M 73.832727 181.095371 
L 74.524971 181.300555 
L 75.217208 183.693941 
L 75.90628 176.476443 
L 76.598517 181.641832 
L 77.290754 179.808392 
L 77.982991 177.413028 
L 78.6751 182.318512 
L 79.367337 188.705901 
L 80.059581 182.249799 
L 80.751818 174.708293 
L 81.446481 176.211143 
L 82.138725 179.671261 
L 82.830962 173.358474 
L 83.523199 176.372861 
L 84.216653 176.395154 
L 84.908883 176.152554 
L 85.601147 176.419204 
L 86.293364 175.884883 
L 86.985656 178.910106 
L 87.675135 181.112716 
L 88.367373 174.572163 
L 89.05961 171.289286 
L 89.751847 179.546019 
L 90.441987 183.178951 
L 91.13423 175.421787 
L 91.826467 169.946995 
L 92.518705 175.082203 
L 93.209773 171.131443 
L 93.902011 174.176763 
L 94.594254 189.438365 
L 95.286491 194.76332 
L 95.979336 187.416877 
L 96.671581 188.316513 
L 97.363819 188.245751 
L 98.056056 184.930187 
L 98.749362 172.632682 
L 99.44205 165.292392 
L 100.826074 149.059381 
L 101.516997 151.830653 
M 102.901478 167.691528 
L 104.284797 179.235427 
L 104.977035 173.108005 
L 105.669272 177.026059 
L 106.361509 192.153803 
L 107.05535 194.052161 
L 107.747587 191.944531 
L 108.439825 183.348054 
L 109.132062 176.943685 
L 109.824962 167.043427 
L 110.517208 161.566442 
L 111.209437 151.200796 
L 111.901674 146.88206 
L 112.593675 156.237352 
L 113.285912 173.768015 
L 113.978149 175.305177 
L 114.670387 179.478564 
L 115.361972 187.595555 
L 116.054209 182.72352 
L 116.746446 175.211485 
L 117.438683 171.849862 
L 118.130907 177.107503 
L 118.823151 172.90159 
L 119.515395 160.212097 
L 120.207625 155.114153 
L 120.899869 154.71572 
L 121.594579 164.719879 
L 122.286816 184.74733 
L 122.97906 193.685308 
L 123.67129 196.294973 
L 124.363909 206.68962 
L 125.748383 192.507781 
L 126.44062 194.210451 
L 127.129632 181.044475 
L 127.82187 173.23888 
L 128.514107 174.584757 
L 129.206344 166.190165 
L 129.89967 161.550398 
L 130.591908 158.888837 
L 131.284145 152.350978 
L 131.976389 167.455469 
L 132.670814 178.964465 
L 133.363058 184.508361 
L 134.055295 192.243222 
L 134.747532 193.896563 
L 135.437802 191.732573 
L 136.130039 187.035233 
L 136.822277 190.823954 
L 137.514514 188.276176 
L 138.204709 177.502475 
L 138.896947 179.66645 
L 139.589184 188.798691 
L 140.281421 185.281254 
L 140.976101 171.048576 
L 141.668336 169.17129 
L 142.360573 162.05005 
L 143.05281 157.561958 
L 144.436993 185.059311 
L 145.129236 188.341183 
L 145.821474 187.972948 
L 146.511257 189.388813 
L 147.203494 192.831171 
L 147.895731 184.541544 
L 149.281455 183.080815 
L 149.973692 187.177599 
L 150.665929 189.368328 
L 151.358166 183.876201 
L 152.743731 167.312084 
L 153.435969 157.022247 
L 154.128206 158.915591 
L 155.510224 171.18388 
L 156.20247 173.30066 
L 156.894699 178.976063 
M 158.279343 173.523796 
L 158.97158 168.283361 
L 159.663852 168.919734 
L 160.356055 177.039807 
L 161.051271 178.374789 
L 162.435745 170.01148 
L 163.127989 185.284758 
L 163.818557 187.809874 
L 164.510795 186.254359 
M 165.895269 185.995457 
L 166.586145 179.337327 
L 167.278382 187.326768 
L 167.970626 192.803989 
L 168.662863 183.730388 
L 169.356457 179.650714 
L 170.048694 192.547427 
L 170.740931 195.684789 
L 171.433168 181.265401 
L 172.125831 177.671945 
L 172.818048 163.00289 
L 173.510286 160.475959 
L 174.202529 160.876589 
L 174.892987 169.9327 
L 175.585225 168.35237 
L 176.277462 173.488957 
L 176.969699 162.594602 
L 177.662487 165.020535 
L 178.354724 169.67494 
L 179.046962 167.791172 
L 179.739205 179.794377 
L 180.434067 181.313467 
L 181.126297 163.618703 
L 181.818534 166.394704 
L 182.510778 176.226549 
L 183.200632 177.609195 
L 183.892876 190.593445 
L 184.585113 190.076376 
L 185.2776 190.931339 
L 185.969588 193.776193 
L 187.353692 189.048146 
L 188.045929 194.964179 
L 188.738167 183.930357 
M 191.509762 159.986736 
L 192.199235 171.074681 
L 192.891481 176.717099 
L 193.583718 179.572625 
L 194.275953 176.805051 
L 194.967935 163.099012 
L 195.660172 166.281985 
M 197.044646 163.890577 
L 197.738917 161.446999 
L 198.431154 155.472963 
L 199.123391 159.056155 
L 199.815628 182.355021 
L 200.508823 194.595328 
L 201.20106 195.832125 
L 201.893304 196.250164 
L 202.585541 190.949752 
L 203.275538 196.701287 
L 203.967776 197.785555 
L 204.660013 191.98141 
L 205.35225 172.532037 
L 206.044672 168.264149 
L 206.736909 174.818542 
L 207.429146 170.310076 
L 208.121383 169.826719 
L 208.815873 172.48468 
L 209.50811 172.990417 
L 210.200348 181.41171 
L 210.892585 192.396403 
L 211.583861 199.307246 
L 212.968342 186.132147 
L 213.66058 183.466962 
L 214.351919 186.547146 
L 215.044156 179.132935 
L 215.736393 195.545831 
L 216.428631 196.74013 
L 217.814995 181.629064 
L 220.58497 146.563314 
L 221.277214 151.888775 
L 221.969824 159.312333 
L 222.661681 164.813895 
L 223.354881 165.955835 
L 224.047124 168.662638 
L 225.431599 178.874517 
L 226.123329 175.095684 
L 226.815566 177.467974 
L 227.507804 180.592149 
L 228.200041 189.148859 
L 228.892598 190.255562 
L 229.584835 185.166519 
L 230.277072 176.33207 
L 230.96931 171.7478 
L 231.661953 165.225409 
L 233.046427 173.676024 
L 233.738664 177.44036 
L 234.434318 177.081502 
L 235.126562 168.873749 
L 235.818799 163.230168 
L 236.511036 163.271498 
L 237.205725 170.003654 
L 237.897963 177.972162 
L 238.5902 177.09339 
L 239.282437 173.802289 
M 240.658539 196.039068 
L 241.350776 181.915685 
L 242.043013 178.330491 
L 242.735331 178.840955 
L 243.427569 172.339007 
L 244.119806 168.526299 
L 244.812043 162.504089 
L 245.504977 164.085624 
L 246.197214 171.299476 
L 246.889449 177.289764 
L 247.581686 177.737195 
L 248.274878 176.089651 
L 248.967115 182.448665 
L 250.351589 192.051046 
L 251.043826 195.223268 
L 251.736771 197.857804 
L 252.429009 189.444013 
L 253.121246 184.136394 
L 253.81349 184.548887 
L 254.500718 175.924243 
L 255.192947 175.682948 
L 255.885192 183.498428 
L 256.577429 183.775089 
L 257.269926 174.363481 
L 257.962163 169.76236 
L 258.6544 160.648859 
L 259.346637 163.007264 
L 260.040695 169.939742 
L 260.732932 174.494495 
L 261.425169 168.374906 
L 262.117406 172.088849 
L 262.80931 170.190011 
L 263.501547 169.774769 
L 264.193784 175.850287 
L 264.886021 174.478077 
L 265.576308 163.99271 
L 266.268553 164.702179 
M 268.344813 156.382026 
L 269.03705 194.25885 
M 273.886626 240.614061 
L 274.578864 199.442361 
M 280.11432 143.597437 
L 280.806557 215.716758 
M 291.190092 139.460361 
L 291.882329 214.954778 
M 296.728311 193.718522 
L 297.420548 127.553541 
M 305.72952 228.600759 
L 307.114493 167.357315 
M 308.496983 90.437728 
L 309.18922 82.177498 
M 316.803859 145.958347 
L 317.496096 112.058606 
L 318.188333 106.094066 
L 318.880571 107.566112 
M 323.726858 236.845489 
L 324.419095 234.088058 
L 325.112821 221.754725 
L 326.497302 175.91035 
M 328.576974 118.939943 
L 329.269218 117.345052 
M 330.653469 178.479905 
L 332.037944 226.912246 
L 332.730181 233.700909 
L 333.422638 232.586487 
L 334.114875 245.370403 
L 334.807119 225.998181 
M 339.651661 182.267105 
L 340.343899 219.856687 
L 341.036136 242.546721 
L 341.726718 241.97014 
L 342.418955 230.038578 
L 343.111192 212.876416 
L 343.803429 190.397839 
M 345.877414 103.425133 
L 346.569651 94.052758 
M 354.184019 135.174262 
L 354.87625 81.23115 
M 357.647653 101.390332 
L 358.33989 140.921074 
L 359.721951 263.383185 
M 362.491511 261.984065 
L 363.183748 233.15267 
L 363.875985 166.035462 
M 366.6451 91.119113 
L 367.338052 96.517872 
M 368.722533 152.386796 
L 369.41477 207.810405 
L 370.107983 247.595307 
L 370.80022 270.629027 
L 371.492457 273.105877 
M 374.262395 178.202452 
L 374.95463 126.943318 
L 375.647823 102.328274 
L 376.34006 98.172015 
M 383.260573 214.208039 
L 383.952811 155.590542 
L 384.644637 121.686979 
M 388.104412 152.953118 
L 388.796657 194.250366 
L 389.488894 202.030375 
L 390.179932 191.027994 
L 390.872169 171.047438 
L 391.564426 175.666119 
L 391.564426 175.666119 
" style="fill:none;stroke:#ff0000;stroke-linecap:square;"/>
   </g>
   <g id="line2d_98">
    <path clip-path="url(#p5953a8a57d)" d="M 73.832727 180.992616 
L 74.524971 180.433483 
L 75.217208 186.034508 
L 75.90628 178.20777 
L 76.598517 179.919425 
L 77.290754 180.231012 
L 77.982991 175.610788 
L 79.367337 187.596806 
L 80.059581 184.517578 
L 80.751818 174.258187 
L 81.446481 176.487363 
L 82.138725 179.270384 
L 82.830962 173.509958 
L 83.523199 176.401406 
L 84.216653 175.039268 
L 84.908883 176.530533 
L 85.601147 176.742097 
L 86.293364 174.671784 
L 86.985656 178.196267 
L 87.675135 180.646387 
L 88.367373 175.987434 
L 89.05961 169.816435 
L 89.751847 178.585618 
L 90.441987 182.477121 
L 91.13423 176.982082 
L 91.826467 169.195317 
L 92.518705 174.091495 
L 93.209773 172.599127 
L 93.902011 172.100646 
L 94.594254 187.906262 
L 95.286491 195.058664 
L 95.979336 188.774742 
L 96.671581 188.087935 
L 97.363819 188.640758 
L 98.056056 185.979004 
L 98.749362 171.778434 
L 99.44205 166.071586 
L 100.826074 147.623781 
L 101.516997 147.613938 
M 102.901478 164.323642 
L 104.284797 178.733931 
L 104.977035 174.272062 
L 105.669272 173.6423 
L 106.361509 190.100534 
L 107.05535 193.822773 
L 107.747587 194.047148 
L 108.439825 182.453778 
L 109.132062 177.51932 
L 109.824962 166.377112 
L 110.517208 162.018265 
L 111.209437 152.05323 
L 111.901674 145.812495 
L 112.593675 153.748043 
L 113.285912 171.512483 
L 114.670387 179.004653 
L 115.361972 186.771339 
L 116.054209 182.782802 
L 116.746446 176.590617 
L 117.438683 172.834204 
L 118.130907 177.703006 
L 118.823151 173.97512 
L 119.515395 160.916282 
L 120.207625 154.514781 
L 120.899869 154.40442 
L 121.594579 162.218657 
L 122.286816 182.408057 
L 122.97906 193.139697 
L 123.67129 196.225012 
L 124.363909 207.802851 
L 125.748383 193.897994 
L 126.44062 193.569403 
L 127.129632 181.715444 
L 127.82187 173.79613 
L 128.514107 174.989453 
L 129.206344 166.001431 
L 129.89967 162.491777 
L 130.591908 160.604693 
L 131.284145 152.339565 
L 131.976389 166.75776 
L 132.670814 178.474671 
L 133.363058 183.698309 
L 134.055295 191.888936 
L 134.747532 195.412869 
L 135.437802 192.226938 
L 136.130039 187.78321 
L 136.822277 190.210351 
L 137.514514 189.097415 
L 138.204709 178.474344 
L 138.896947 179.597781 
L 139.589184 187.845145 
L 140.281421 186.052565 
L 140.976101 171.335985 
L 141.668336 166.581542 
L 142.360573 163.554904 
L 143.05281 156.984162 
L 143.744756 169.1242 
L 144.436993 183.475164 
L 145.129236 187.925287 
L 145.821474 188.085023 
L 146.511257 189.965316 
L 147.203494 192.708598 
L 147.895731 186.551471 
L 148.588378 184.694614 
L 149.281455 181.567957 
L 149.973692 186.705466 
L 150.665929 189.537505 
L 151.358166 184.242247 
L 152.05041 177.65212 
L 152.743731 167.349311 
L 153.435969 158.791072 
L 154.128206 158.630603 
L 154.820443 164.815707 
L 155.510224 169.330124 
L 156.20247 171.642162 
L 156.894699 177.192629 
M 158.279343 174.78786 
L 158.97158 173.918821 
L 159.663852 169.544757 
L 160.356055 174.153562 
L 161.051271 176.892179 
L 161.743508 173.820483 
L 162.435745 168.606246 
L 163.127989 184.049456 
L 163.818557 187.431042 
L 164.510795 186.313161 
M 165.895269 186.887185 
L 166.586145 178.874802 
L 167.278382 187.866857 
L 167.970626 191.68079 
L 168.662863 183.568838 
L 169.356457 178.862092 
L 170.048694 191.660972 
L 170.740931 196.371488 
L 171.433168 180.982814 
L 172.125831 178.179504 
L 172.818048 164.410856 
L 173.510286 160.204335 
L 174.202529 159.97367 
L 174.892987 168.952113 
L 175.585225 169.343377 
L 176.277462 173.78592 
L 176.969699 164.158455 
L 177.662487 164.371692 
L 178.354724 173.281097 
L 179.046962 168.706583 
L 179.739205 177.235542 
L 180.434067 180.099209 
L 181.126297 163.08699 
L 181.818534 164.425298 
L 182.510778 176.27707 
L 183.200632 175.665928 
L 183.892876 190.386848 
L 184.585113 191.597625 
L 185.2776 186.013668 
L 185.969588 195.836674 
L 186.661455 190.341063 
L 187.353692 189.364448 
L 188.045929 191.829367 
L 188.738167 198.309375 
M 191.509762 157.037605 
L 192.199235 172.076392 
L 192.891481 177.042389 
L 193.583718 178.968652 
L 194.275953 178.60004 
L 194.967935 163.848747 
L 195.660172 164.641486 
M 197.044646 163.950174 
L 198.431154 157.623541 
L 199.123391 157.334466 
L 199.815628 178.016908 
L 200.508823 192.807849 
L 201.20106 195.882289 
L 201.893304 195.850049 
L 202.585541 193.012093 
L 203.275538 195.321245 
L 203.967776 195.622992 
L 204.660013 193.334146 
L 205.35225 173.274612 
L 206.044672 168.70643 
L 206.736909 176.136453 
L 207.429146 169.900233 
L 208.121383 168.857086 
L 208.815873 171.311969 
L 209.50811 170.694734 
L 210.892585 191.191559 
L 211.583861 198.475529 
L 212.276099 194.610345 
L 212.968342 187.29665 
L 213.66058 183.381523 
L 214.351919 186.106497 
L 215.044156 181.003403 
L 215.736393 192.875503 
L 216.428631 197.728334 
L 220.58497 146.416498 
L 222.661681 163.755496 
L 223.354881 165.450379 
L 224.047124 167.822953 
L 224.739362 171.155921 
L 225.431599 179.798893 
L 226.123329 174.770437 
L 226.815566 177.163879 
L 227.507804 180.792122 
L 228.200041 187.969546 
L 228.892598 188.693278 
L 229.584835 184.757858 
L 230.96931 171.545577 
L 231.661953 166.406591 
L 232.35419 167.224073 
L 233.046427 171.905733 
L 234.434318 178.926482 
L 235.126562 168.793717 
L 235.818799 163.107505 
L 236.511036 162.511461 
L 237.205725 168.549341 
L 237.897963 177.218551 
L 238.5902 177.872277 
L 239.282437 173.063686 
M 240.658539 196.723326 
L 241.350776 182.905776 
L 242.043013 178.937477 
L 242.735331 180.155609 
L 243.427569 171.858726 
L 244.812043 163.178528 
L 245.504977 162.615313 
L 246.197214 172.034567 
L 246.889449 174.898797 
L 247.581686 178.408975 
L 248.274878 175.700358 
L 248.967115 182.319335 
L 249.659352 186.08186 
L 250.351589 191.86593 
L 251.043826 194.374397 
L 251.736771 199.036075 
L 253.121246 186.409773 
L 253.81349 184.309296 
L 254.500718 177.750462 
L 255.192947 174.372867 
L 255.885192 182.683272 
L 256.577429 184.249851 
L 257.269926 174.045673 
L 257.962163 171.244208 
L 258.6544 161.62853 
L 259.346637 162.190626 
L 260.040695 170.261103 
L 260.732932 175.162657 
L 261.425169 170.14961 
L 262.117406 172.428569 
L 262.80931 170.636287 
L 263.501547 170.321846 
L 264.193784 175.201816 
L 264.886021 176.593979 
L 265.576308 163.636928 
L 266.268553 165.007147 
M 268.344813 155.664128 
L 269.03705 183.333001 
M 273.886626 243.219966 
L 274.578864 206.512657 
M 280.11432 137.881828 
L 280.806557 207.201551 
M 291.190092 132.214503 
L 291.882329 206.116135 
M 296.728311 207.898222 
L 297.420548 137.535856 
M 305.72952 234.809974 
L 306.421757 208.286534 
L 307.114493 171.627729 
M 308.496983 92.869602 
L 309.18922 80.207185 
M 316.803859 150.687047 
L 317.496096 118.849805 
L 318.188333 103.021582 
L 318.880571 107.632053 
M 323.726858 235.975286 
L 324.419095 234.591932 
L 325.112821 224.247023 
L 326.497302 179.276275 
M 328.576974 116.922111 
L 329.269218 114.93534 
M 330.653469 174.687591 
L 332.037944 225.909882 
L 332.730181 235.087407 
L 333.422638 231.602933 
L 334.114875 246.483645 
L 334.807119 227.332024 
M 339.651661 178.662412 
L 341.036136 241.586813 
L 341.726718 242.388124 
L 342.418955 231.676281 
L 343.111192 218.634527 
L 343.803429 194.450518 
M 345.877414 105.923747 
L 346.569651 93.12753 
M 354.184019 139.481336 
L 354.87625 84.383642 
M 357.647653 97.861096 
L 358.33989 134.4944 
L 359.721951 260.028765 
M 362.491511 264.865912 
L 363.183748 239.115427 
L 363.875985 176.418197 
M 366.6451 88.99731 
L 367.338052 95.612961 
M 368.722533 147.835921 
L 369.41477 200.858949 
L 370.107983 244.352243 
L 370.80022 269.059629 
L 371.492457 274.607625 
M 374.262395 185.048613 
L 374.95463 127.954946 
L 375.647823 103.218176 
L 376.34006 97.065897 
M 383.260573 220.667558 
L 383.952811 161.520455 
L 384.644637 124.044372 
M 388.104412 147.683919 
L 388.796657 190.89787 
L 389.488894 201.97925 
L 390.179932 193.482817 
L 390.872169 175.67285 
L 391.564426 174.576254 
L 391.564426 174.576254 
" style="fill:none;stroke:#0000ff;stroke-linecap:square;"/>
   </g>
   <g id="line2d_99">
    <path clip-path="url(#p5953a8a57d)" d="M 266.960791 145.645416 
L 267.653028 143.311127 
M 269.729287 238.254356 
L 270.421524 262.800391 
L 271.116285 265.922311 
L 271.808522 271.379339 
L 272.500759 259.026784 
L 273.192996 256.95548 
M 275.271101 136.31259 
L 275.963338 77.346087 
L 276.655785 53.568 
L 277.348022 60.598081 
L 278.040266 74.772965 
L 278.732503 101.47516 
L 279.422083 112.154465 
M 281.498794 262.245846 
L 282.192431 284.015116 
L 282.885262 288.600519 
L 284.269143 265.514884 
L 284.961386 253.938583 
M 287.729008 75.835236 
L 288.421904 63.470622 
L 289.114148 58.425027 
L 289.806385 70.417755 
L 290.498622 85.214535 
M 292.574566 267.143523 
L 293.266803 293.212126 
L 293.961207 290.019502 
L 294.653451 290.428419 
L 295.345682 285.205735 
L 296.037925 267.591505 
M 299.500625 85.628859 
L 300.192862 106.645212 
L 300.885099 110.833072 
L 301.577343 132.667825 
M 302.959621 195.050523 
L 303.651864 230.788826 
L 304.344095 254.183338 
L 305.037283 258.972999 
M 309.881458 86.585056 
L 311.268039 177.134781 
L 311.960277 216.097609 
L 312.65252 241.606459 
L 313.343492 256.443936 
L 314.035729 266.076507 
L 314.727973 246.315741 
M 319.576584 115.721485 
L 320.961058 175.267616 
L 321.653295 198.219789 
L 322.342377 215.917903 
L 323.034614 226.857973 
M 327.189539 147.930817 
L 327.884744 123.125347 
M 335.499356 200.222252 
L 336.882856 99.824949 
L 337.575094 81.569552 
M 344.492933 158.498213 
L 345.18517 127.904351 
M 348.646226 180.638499 
L 349.338463 233.591061 
L 350.0307 255.266703 
L 350.722267 257.514687 
L 351.414505 254.34614 
L 352.106742 233.598438 
L 353.491776 178.423045 
M 355.569124 67.326638 
L 356.26317 76.297028 
L 356.955416 83.556938 
M 360.414189 287.65688 
L 361.106426 295.488 
L 361.799274 280.74096 
M 377.032291 99.269345 
L 377.724534 95.732393 
M 381.184476 276.446407 
L 382.568336 250.562292 
M 385.336874 105.742855 
L 386.029111 93.692578 
L 386.721348 102.189879 
L 387.412183 121.104925 
M 392.256643 179.111897 
L 392.948735 182.699454 
L 393.640972 185.617804 
L 394.333209 180.007669 
L 395.025447 178.590908 
L 395.717867 179.735508 
L 396.410104 174.901902 
L 397.102341 172.992516 
L 397.794578 173.69102 
L 398.487273 176.357824 
L 398.487273 176.357824 
" style="fill:none;stroke:#008000;stroke-linecap:square;"/>
   </g>
   <g id="patch_3">
    <path d="M 57.6 307.584 
L 57.6 41.472 
" style="fill:none;stroke:#000000;stroke-linecap:square;stroke-linejoin:miter;stroke-width:0.8;"/>
   </g>
   <g id="patch_4">
    <path d="M 414.72 307.584 
L 414.72 41.472 
" style="fill:none;stroke:#000000;stroke-linecap:square;stroke-linejoin:miter;stroke-width:0.8;"/>
   </g>
   <g id="patch_5">
    <path d="M 57.6 307.584 
L 414.72 307.584 
" style="fill:none;stroke:#000000;stroke-linecap:square;stroke-linejoin:miter;stroke-width:0.8;"/>
   </g>
   <g id="patch_6">
    <path d="M 57.6 41.472 
L 414.72 41.472 
" style="fill:none;stroke:#000000;stroke-linecap:square;stroke-linejoin:miter;stroke-width:0.8;"/>
   </g>
   <g id="text_13">
    <!-- Rel Gt Rot Z Plot -->
    <defs>
     <path d="M 44.390625 34.1875 
Q 47.5625 33.109375 50.5625 29.59375 
Q 53.5625 26.078125 56.59375 19.921875 
L 66.609375 0 
L 56 0 
L 46.6875 18.703125 
Q 43.0625 26.03125 39.671875 28.421875 
Q 36.28125 30.8125 30.421875 30.8125 
L 19.671875 30.8125 
L 19.671875 0 
L 9.8125 0 
L 9.8125 72.90625 
L 32.078125 72.90625 
Q 44.578125 72.90625 50.734375 67.671875 
Q 56.890625 62.453125 56.890625 51.90625 
Q 56.890625 45.015625 53.6875 40.46875 
Q 50.484375 35.9375 44.390625 34.1875 
z
M 19.671875 64.796875 
L 19.671875 38.921875 
L 32.078125 38.921875 
Q 39.203125 38.921875 42.84375 42.21875 
Q 46.484375 45.515625 46.484375 51.90625 
Q 46.484375 58.296875 42.84375 61.546875 
Q 39.203125 64.796875 32.078125 64.796875 
z
" id="DejaVuSans-52"/>
     <path d="M 9.421875 75.984375 
L 18.40625 75.984375 
L 18.40625 0 
L 9.421875 0 
z
" id="DejaVuSans-6c"/>
     <path d="M 59.515625 10.40625 
L 59.515625 29.984375 
L 43.40625 29.984375 
L 43.40625 38.09375 
L 69.28125 38.09375 
L 69.28125 6.78125 
Q 63.578125 2.734375 56.6875 0.65625 
Q 49.8125 -1.421875 42 -1.421875 
Q 24.90625 -1.421875 15.25 8.5625 
Q 5.609375 18.5625 5.609375 36.375 
Q 5.609375 54.25 15.25 64.234375 
Q 24.90625 74.21875 42 74.21875 
Q 49.125 74.21875 55.546875 72.453125 
Q 61.96875 70.703125 67.390625 67.28125 
L 67.390625 56.78125 
Q 61.921875 61.421875 55.765625 63.765625 
Q 49.609375 66.109375 42.828125 66.109375 
Q 29.4375 66.109375 22.71875 58.640625 
Q 16.015625 51.171875 16.015625 36.375 
Q 16.015625 21.625 22.71875 14.15625 
Q 29.4375 6.6875 42.828125 6.6875 
Q 48.046875 6.6875 52.140625 7.59375 
Q 56.25 8.5 59.515625 10.40625 
z
" id="DejaVuSans-47"/>
     <path d="M 5.609375 72.90625 
L 62.890625 72.90625 
L 62.890625 65.375 
L 16.796875 8.296875 
L 64.015625 8.296875 
L 64.015625 0 
L 4.5 0 
L 4.5 7.515625 
L 50.59375 64.59375 
L 5.609375 64.59375 
z
" id="DejaVuSans-5a"/>
     <path d="M 19.671875 64.796875 
L 19.671875 37.40625 
L 32.078125 37.40625 
Q 38.96875 37.40625 42.71875 40.96875 
Q 46.484375 44.53125 46.484375 51.125 
Q 46.484375 57.671875 42.71875 61.234375 
Q 38.96875 64.796875 32.078125 64.796875 
z
M 9.8125 72.90625 
L 32.078125 72.90625 
Q 44.34375 72.90625 50.609375 67.359375 
Q 56.890625 61.8125 56.890625 51.125 
Q 56.890625 40.328125 50.609375 34.8125 
Q 44.34375 29.296875 32.078125 29.296875 
L 19.671875 29.296875 
L 19.671875 0 
L 9.8125 0 
z
" id="DejaVuSans-50"/>
    </defs>
    <g transform="translate(186.400312 35.472)scale(0.12 -0.12)">
     <use xlink:href="#DejaVuSans-52"/>
     <use x="69.419922" xlink:href="#DejaVuSans-65"/>
     <use x="130.943359" xlink:href="#DejaVuSans-6c"/>
     <use x="158.726562" xlink:href="#DejaVuSans-20"/>
     <use x="190.513672" xlink:href="#DejaVuSans-47"/>
     <use x="268.003906" xlink:href="#DejaVuSans-74"/>
     <use x="307.212891" xlink:href="#DejaVuSans-20"/>
     <use x="339" xlink:href="#DejaVuSans-52"/>
     <use x="408.419922" xlink:href="#DejaVuSans-6f"/>
     <use x="469.601562" xlink:href="#DejaVuSans-74"/>
     <use x="508.810547" xlink:href="#DejaVuSans-20"/>
     <use x="540.597656" xlink:href="#DejaVuSans-5a"/>
     <use x="609.103516" xlink:href="#DejaVuSans-20"/>
     <use x="640.890625" xlink:href="#DejaVuSans-50"/>
     <use x="701.193359" xlink:href="#DejaVuSans-6c"/>
     <use x="728.976562" xlink:href="#DejaVuSans-6f"/>
     <use x="790.158203" xlink:href="#DejaVuSans-74"/>
    </g>
   </g>
  </g>
 </g>
 <defs>
  <clipPath id="p5953a8a57d">
   <rect height="266.112" width="357.12" x="57.6" y="41.472"/>
  </clipPath>
 </defs>
</svg>
