<?xml version="1.0" encoding="utf-8" standalone="no"?>
<!DOCTYPE svg PUBLIC "-//W3C//DTD SVG 1.1//EN"
  "http://www.w3.org/Graphics/SVG/1.1/DTD/svg11.dtd">
<!-- Created with matplotlib (http://matplotlib.org/) -->
<svg height="345.6pt" version="1.1" viewBox="0 0 460.8 345.6" width="460.8pt" xmlns="http://www.w3.org/2000/svg" xmlns:xlink="http://www.w3.org/1999/xlink">
 <defs>
  <style type="text/css">
*{stroke-linecap:butt;stroke-linejoin:round;}
  </style>
 </defs>
 <g id="figure_1">
  <g id="patch_1">
   <path d="M 0 345.6 
L 460.8 345.6 
L 460.8 0 
L 0 0 
z
" style="fill:#ffffff;"/>
  </g>
  <g id="axes_1">
   <g id="patch_2">
    <path d="M 57.6 307.584 
L 414.72 307.584 
L 414.72 41.472 
L 57.6 41.472 
z
" style="fill:#ffffff;"/>
   </g>
   <g id="matplotlib.axis_1">
    <g id="xtick_1">
     <g id="line2d_1">
      <path clip-path="url(#p41e5f862aa)" d="M 70.555248 307.584 
L 70.555248 41.472 
" style="fill:none;stroke:#b0b0b0;stroke-linecap:square;stroke-width:0.8;"/>
     </g>
     <g id="line2d_2">
      <defs>
       <path d="M 0 0 
L 0 3.5 
" id="m41e64d4470" style="stroke:#000000;stroke-width:0.8;"/>
      </defs>
      <g>
       <use style="stroke:#000000;stroke-width:0.8;" x="70.555248" xlink:href="#m41e64d4470" y="307.584"/>
      </g>
     </g>
     <g id="text_1">
      <!-- 0 -->
      <defs>
       <path d="M 31.78125 66.40625 
Q 24.171875 66.40625 20.328125 58.90625 
Q 16.5 51.421875 16.5 36.375 
Q 16.5 21.390625 20.328125 13.890625 
Q 24.171875 6.390625 31.78125 6.390625 
Q 39.453125 6.390625 43.28125 13.890625 
Q 47.125 21.390625 47.125 36.375 
Q 47.125 51.421875 43.28125 58.90625 
Q 39.453125 66.40625 31.78125 66.40625 
z
M 31.78125 74.21875 
Q 44.046875 74.21875 50.515625 64.515625 
Q 56.984375 54.828125 56.984375 36.375 
Q 56.984375 17.96875 50.515625 8.265625 
Q 44.046875 -1.421875 31.78125 -1.421875 
Q 19.53125 -1.421875 13.0625 8.265625 
Q 6.59375 17.96875 6.59375 36.375 
Q 6.59375 54.828125 13.0625 64.515625 
Q 19.53125 74.21875 31.78125 74.21875 
z
" id="DejaVuSans-30"/>
      </defs>
      <g transform="translate(67.373998 322.182437)scale(0.1 -0.1)">
       <use xlink:href="#DejaVuSans-30"/>
      </g>
     </g>
    </g>
    <g id="xtick_2">
     <g id="line2d_3">
      <path clip-path="url(#p41e5f862aa)" d="M 139.776886 307.584 
L 139.776886 41.472 
" style="fill:none;stroke:#b0b0b0;stroke-linecap:square;stroke-width:0.8;"/>
     </g>
     <g id="line2d_4">
      <g>
       <use style="stroke:#000000;stroke-width:0.8;" x="139.776886" xlink:href="#m41e64d4470" y="307.584"/>
      </g>
     </g>
     <g id="text_2">
      <!-- 10 -->
      <defs>
       <path d="M 12.40625 8.296875 
L 28.515625 8.296875 
L 28.515625 63.921875 
L 10.984375 60.40625 
L 10.984375 69.390625 
L 28.421875 72.90625 
L 38.28125 72.90625 
L 38.28125 8.296875 
L 54.390625 8.296875 
L 54.390625 0 
L 12.40625 0 
z
" id="DejaVuSans-31"/>
      </defs>
      <g transform="translate(133.414386 322.182437)scale(0.1 -0.1)">
       <use xlink:href="#DejaVuSans-31"/>
       <use x="63.623047" xlink:href="#DejaVuSans-30"/>
      </g>
     </g>
    </g>
    <g id="xtick_3">
     <g id="line2d_5">
      <path clip-path="url(#p41e5f862aa)" d="M 208.998523 307.584 
L 208.998523 41.472 
" style="fill:none;stroke:#b0b0b0;stroke-linecap:square;stroke-width:0.8;"/>
     </g>
     <g id="line2d_6">
      <g>
       <use style="stroke:#000000;stroke-width:0.8;" x="208.998523" xlink:href="#m41e64d4470" y="307.584"/>
      </g>
     </g>
     <g id="text_3">
      <!-- 20 -->
      <defs>
       <path d="M 19.1875 8.296875 
L 53.609375 8.296875 
L 53.609375 0 
L 7.328125 0 
L 7.328125 8.296875 
Q 12.9375 14.109375 22.625 23.890625 
Q 32.328125 33.6875 34.8125 36.53125 
Q 39.546875 41.84375 41.421875 45.53125 
Q 43.3125 49.21875 43.3125 52.78125 
Q 43.3125 58.59375 39.234375 62.25 
Q 35.15625 65.921875 28.609375 65.921875 
Q 23.96875 65.921875 18.8125 64.3125 
Q 13.671875 62.703125 7.8125 59.421875 
L 7.8125 69.390625 
Q 13.765625 71.78125 18.9375 73 
Q 24.125 74.21875 28.421875 74.21875 
Q 39.75 74.21875 46.484375 68.546875 
Q 53.21875 62.890625 53.21875 53.421875 
Q 53.21875 48.921875 51.53125 44.890625 
Q 49.859375 40.875 45.40625 35.40625 
Q 44.1875 33.984375 37.640625 27.21875 
Q 31.109375 20.453125 19.1875 8.296875 
z
" id="DejaVuSans-32"/>
      </defs>
      <g transform="translate(202.636023 322.182437)scale(0.1 -0.1)">
       <use xlink:href="#DejaVuSans-32"/>
       <use x="63.623047" xlink:href="#DejaVuSans-30"/>
      </g>
     </g>
    </g>
    <g id="xtick_4">
     <g id="line2d_7">
      <path clip-path="url(#p41e5f862aa)" d="M 278.220161 307.584 
L 278.220161 41.472 
" style="fill:none;stroke:#b0b0b0;stroke-linecap:square;stroke-width:0.8;"/>
     </g>
     <g id="line2d_8">
      <g>
       <use style="stroke:#000000;stroke-width:0.8;" x="278.220161" xlink:href="#m41e64d4470" y="307.584"/>
      </g>
     </g>
     <g id="text_4">
      <!-- 30 -->
      <defs>
       <path d="M 40.578125 39.3125 
Q 47.65625 37.796875 51.625 33 
Q 55.609375 28.21875 55.609375 21.1875 
Q 55.609375 10.40625 48.1875 4.484375 
Q 40.765625 -1.421875 27.09375 -1.421875 
Q 22.515625 -1.421875 17.65625 -0.515625 
Q 12.796875 0.390625 7.625 2.203125 
L 7.625 11.71875 
Q 11.71875 9.328125 16.59375 8.109375 
Q 21.484375 6.890625 26.8125 6.890625 
Q 36.078125 6.890625 40.9375 10.546875 
Q 45.796875 14.203125 45.796875 21.1875 
Q 45.796875 27.640625 41.28125 31.265625 
Q 36.765625 34.90625 28.71875 34.90625 
L 20.21875 34.90625 
L 20.21875 43.015625 
L 29.109375 43.015625 
Q 36.375 43.015625 40.234375 45.921875 
Q 44.09375 48.828125 44.09375 54.296875 
Q 44.09375 59.90625 40.109375 62.90625 
Q 36.140625 65.921875 28.71875 65.921875 
Q 24.65625 65.921875 20.015625 65.03125 
Q 15.375 64.15625 9.8125 62.3125 
L 9.8125 71.09375 
Q 15.4375 72.65625 20.34375 73.4375 
Q 25.25 74.21875 29.59375 74.21875 
Q 40.828125 74.21875 47.359375 69.109375 
Q 53.90625 64.015625 53.90625 55.328125 
Q 53.90625 49.265625 50.4375 45.09375 
Q 46.96875 40.921875 40.578125 39.3125 
z
" id="DejaVuSans-33"/>
      </defs>
      <g transform="translate(271.857661 322.182437)scale(0.1 -0.1)">
       <use xlink:href="#DejaVuSans-33"/>
       <use x="63.623047" xlink:href="#DejaVuSans-30"/>
      </g>
     </g>
    </g>
    <g id="xtick_5">
     <g id="line2d_9">
      <path clip-path="url(#p41e5f862aa)" d="M 347.441799 307.584 
L 347.441799 41.472 
" style="fill:none;stroke:#b0b0b0;stroke-linecap:square;stroke-width:0.8;"/>
     </g>
     <g id="line2d_10">
      <g>
       <use style="stroke:#000000;stroke-width:0.8;" x="347.441799" xlink:href="#m41e64d4470" y="307.584"/>
      </g>
     </g>
     <g id="text_5">
      <!-- 40 -->
      <defs>
       <path d="M 37.796875 64.3125 
L 12.890625 25.390625 
L 37.796875 25.390625 
z
M 35.203125 72.90625 
L 47.609375 72.90625 
L 47.609375 25.390625 
L 58.015625 25.390625 
L 58.015625 17.1875 
L 47.609375 17.1875 
L 47.609375 0 
L 37.796875 0 
L 37.796875 17.1875 
L 4.890625 17.1875 
L 4.890625 26.703125 
z
" id="DejaVuSans-34"/>
      </defs>
      <g transform="translate(341.079299 322.182437)scale(0.1 -0.1)">
       <use xlink:href="#DejaVuSans-34"/>
       <use x="63.623047" xlink:href="#DejaVuSans-30"/>
      </g>
     </g>
    </g>
    <g id="xtick_6">
     <g id="line2d_11">
      <path clip-path="url(#p41e5f862aa)" d="M 84.399575 307.584 
L 84.399575 41.472 
" style="fill:none;stroke:#b0b0b0;stroke-linecap:square;stroke-width:0.8;"/>
     </g>
     <g id="line2d_12">
      <defs>
       <path d="M 0 0 
L 0 2 
" id="m9c1b840c1b" style="stroke:#000000;stroke-width:0.6;"/>
      </defs>
      <g>
       <use style="stroke:#000000;stroke-width:0.6;" x="84.399575" xlink:href="#m9c1b840c1b" y="307.584"/>
      </g>
     </g>
    </g>
    <g id="xtick_7">
     <g id="line2d_13">
      <path clip-path="url(#p41e5f862aa)" d="M 98.243903 307.584 
L 98.243903 41.472 
" style="fill:none;stroke:#b0b0b0;stroke-linecap:square;stroke-width:0.8;"/>
     </g>
     <g id="line2d_14">
      <g>
       <use style="stroke:#000000;stroke-width:0.6;" x="98.243903" xlink:href="#m9c1b840c1b" y="307.584"/>
      </g>
     </g>
    </g>
    <g id="xtick_8">
     <g id="line2d_15">
      <path clip-path="url(#p41e5f862aa)" d="M 112.08823 307.584 
L 112.08823 41.472 
" style="fill:none;stroke:#b0b0b0;stroke-linecap:square;stroke-width:0.8;"/>
     </g>
     <g id="line2d_16">
      <g>
       <use style="stroke:#000000;stroke-width:0.6;" x="112.08823" xlink:href="#m9c1b840c1b" y="307.584"/>
      </g>
     </g>
    </g>
    <g id="xtick_9">
     <g id="line2d_17">
      <path clip-path="url(#p41e5f862aa)" d="M 125.932558 307.584 
L 125.932558 41.472 
" style="fill:none;stroke:#b0b0b0;stroke-linecap:square;stroke-width:0.8;"/>
     </g>
     <g id="line2d_18">
      <g>
       <use style="stroke:#000000;stroke-width:0.6;" x="125.932558" xlink:href="#m9c1b840c1b" y="307.584"/>
      </g>
     </g>
    </g>
    <g id="xtick_10">
     <g id="line2d_19">
      <path clip-path="url(#p41e5f862aa)" d="M 153.621213 307.584 
L 153.621213 41.472 
" style="fill:none;stroke:#b0b0b0;stroke-linecap:square;stroke-width:0.8;"/>
     </g>
     <g id="line2d_20">
      <g>
       <use style="stroke:#000000;stroke-width:0.6;" x="153.621213" xlink:href="#m9c1b840c1b" y="307.584"/>
      </g>
     </g>
    </g>
    <g id="xtick_11">
     <g id="line2d_21">
      <path clip-path="url(#p41e5f862aa)" d="M 167.465541 307.584 
L 167.465541 41.472 
" style="fill:none;stroke:#b0b0b0;stroke-linecap:square;stroke-width:0.8;"/>
     </g>
     <g id="line2d_22">
      <g>
       <use style="stroke:#000000;stroke-width:0.6;" x="167.465541" xlink:href="#m9c1b840c1b" y="307.584"/>
      </g>
     </g>
    </g>
    <g id="xtick_12">
     <g id="line2d_23">
      <path clip-path="url(#p41e5f862aa)" d="M 181.309868 307.584 
L 181.309868 41.472 
" style="fill:none;stroke:#b0b0b0;stroke-linecap:square;stroke-width:0.8;"/>
     </g>
     <g id="line2d_24">
      <g>
       <use style="stroke:#000000;stroke-width:0.6;" x="181.309868" xlink:href="#m9c1b840c1b" y="307.584"/>
      </g>
     </g>
    </g>
    <g id="xtick_13">
     <g id="line2d_25">
      <path clip-path="url(#p41e5f862aa)" d="M 195.154196 307.584 
L 195.154196 41.472 
" style="fill:none;stroke:#b0b0b0;stroke-linecap:square;stroke-width:0.8;"/>
     </g>
     <g id="line2d_26">
      <g>
       <use style="stroke:#000000;stroke-width:0.6;" x="195.154196" xlink:href="#m9c1b840c1b" y="307.584"/>
      </g>
     </g>
    </g>
    <g id="xtick_14">
     <g id="line2d_27">
      <path clip-path="url(#p41e5f862aa)" d="M 222.842851 307.584 
L 222.842851 41.472 
" style="fill:none;stroke:#b0b0b0;stroke-linecap:square;stroke-width:0.8;"/>
     </g>
     <g id="line2d_28">
      <g>
       <use style="stroke:#000000;stroke-width:0.6;" x="222.842851" xlink:href="#m9c1b840c1b" y="307.584"/>
      </g>
     </g>
    </g>
    <g id="xtick_15">
     <g id="line2d_29">
      <path clip-path="url(#p41e5f862aa)" d="M 236.687178 307.584 
L 236.687178 41.472 
" style="fill:none;stroke:#b0b0b0;stroke-linecap:square;stroke-width:0.8;"/>
     </g>
     <g id="line2d_30">
      <g>
       <use style="stroke:#000000;stroke-width:0.6;" x="236.687178" xlink:href="#m9c1b840c1b" y="307.584"/>
      </g>
     </g>
    </g>
    <g id="xtick_16">
     <g id="line2d_31">
      <path clip-path="url(#p41e5f862aa)" d="M 250.531506 307.584 
L 250.531506 41.472 
" style="fill:none;stroke:#b0b0b0;stroke-linecap:square;stroke-width:0.8;"/>
     </g>
     <g id="line2d_32">
      <g>
       <use style="stroke:#000000;stroke-width:0.6;" x="250.531506" xlink:href="#m9c1b840c1b" y="307.584"/>
      </g>
     </g>
    </g>
    <g id="xtick_17">
     <g id="line2d_33">
      <path clip-path="url(#p41e5f862aa)" d="M 264.375834 307.584 
L 264.375834 41.472 
" style="fill:none;stroke:#b0b0b0;stroke-linecap:square;stroke-width:0.8;"/>
     </g>
     <g id="line2d_34">
      <g>
       <use style="stroke:#000000;stroke-width:0.6;" x="264.375834" xlink:href="#m9c1b840c1b" y="307.584"/>
      </g>
     </g>
    </g>
    <g id="xtick_18">
     <g id="line2d_35">
      <path clip-path="url(#p41e5f862aa)" d="M 292.064489 307.584 
L 292.064489 41.472 
" style="fill:none;stroke:#b0b0b0;stroke-linecap:square;stroke-width:0.8;"/>
     </g>
     <g id="line2d_36">
      <g>
       <use style="stroke:#000000;stroke-width:0.6;" x="292.064489" xlink:href="#m9c1b840c1b" y="307.584"/>
      </g>
     </g>
    </g>
    <g id="xtick_19">
     <g id="line2d_37">
      <path clip-path="url(#p41e5f862aa)" d="M 305.908816 307.584 
L 305.908816 41.472 
" style="fill:none;stroke:#b0b0b0;stroke-linecap:square;stroke-width:0.8;"/>
     </g>
     <g id="line2d_38">
      <g>
       <use style="stroke:#000000;stroke-width:0.6;" x="305.908816" xlink:href="#m9c1b840c1b" y="307.584"/>
      </g>
     </g>
    </g>
    <g id="xtick_20">
     <g id="line2d_39">
      <path clip-path="url(#p41e5f862aa)" d="M 319.753144 307.584 
L 319.753144 41.472 
" style="fill:none;stroke:#b0b0b0;stroke-linecap:square;stroke-width:0.8;"/>
     </g>
     <g id="line2d_40">
      <g>
       <use style="stroke:#000000;stroke-width:0.6;" x="319.753144" xlink:href="#m9c1b840c1b" y="307.584"/>
      </g>
     </g>
    </g>
    <g id="xtick_21">
     <g id="line2d_41">
      <path clip-path="url(#p41e5f862aa)" d="M 333.597471 307.584 
L 333.597471 41.472 
" style="fill:none;stroke:#b0b0b0;stroke-linecap:square;stroke-width:0.8;"/>
     </g>
     <g id="line2d_42">
      <g>
       <use style="stroke:#000000;stroke-width:0.6;" x="333.597471" xlink:href="#m9c1b840c1b" y="307.584"/>
      </g>
     </g>
    </g>
    <g id="xtick_22">
     <g id="line2d_43">
      <path clip-path="url(#p41e5f862aa)" d="M 361.286127 307.584 
L 361.286127 41.472 
" style="fill:none;stroke:#b0b0b0;stroke-linecap:square;stroke-width:0.8;"/>
     </g>
     <g id="line2d_44">
      <g>
       <use style="stroke:#000000;stroke-width:0.6;" x="361.286127" xlink:href="#m9c1b840c1b" y="307.584"/>
      </g>
     </g>
    </g>
    <g id="xtick_23">
     <g id="line2d_45">
      <path clip-path="url(#p41e5f862aa)" d="M 375.130454 307.584 
L 375.130454 41.472 
" style="fill:none;stroke:#b0b0b0;stroke-linecap:square;stroke-width:0.8;"/>
     </g>
     <g id="line2d_46">
      <g>
       <use style="stroke:#000000;stroke-width:0.6;" x="375.130454" xlink:href="#m9c1b840c1b" y="307.584"/>
      </g>
     </g>
    </g>
    <g id="xtick_24">
     <g id="line2d_47">
      <path clip-path="url(#p41e5f862aa)" d="M 388.974782 307.584 
L 388.974782 41.472 
" style="fill:none;stroke:#b0b0b0;stroke-linecap:square;stroke-width:0.8;"/>
     </g>
     <g id="line2d_48">
      <g>
       <use style="stroke:#000000;stroke-width:0.6;" x="388.974782" xlink:href="#m9c1b840c1b" y="307.584"/>
      </g>
     </g>
    </g>
    <g id="xtick_25">
     <g id="line2d_49">
      <path clip-path="url(#p41e5f862aa)" d="M 402.819109 307.584 
L 402.819109 41.472 
" style="fill:none;stroke:#b0b0b0;stroke-linecap:square;stroke-width:0.8;"/>
     </g>
     <g id="line2d_50">
      <g>
       <use style="stroke:#000000;stroke-width:0.6;" x="402.819109" xlink:href="#m9c1b840c1b" y="307.584"/>
      </g>
     </g>
    </g>
    <g id="text_6">
     <!-- frame # [] -->
     <defs>
      <path d="M 37.109375 75.984375 
L 37.109375 68.5 
L 28.515625 68.5 
Q 23.6875 68.5 21.796875 66.546875 
Q 19.921875 64.59375 19.921875 59.515625 
L 19.921875 54.6875 
L 34.71875 54.6875 
L 34.71875 47.703125 
L 19.921875 47.703125 
L 19.921875 0 
L 10.890625 0 
L 10.890625 47.703125 
L 2.296875 47.703125 
L 2.296875 54.6875 
L 10.890625 54.6875 
L 10.890625 58.5 
Q 10.890625 67.625 15.140625 71.796875 
Q 19.390625 75.984375 28.609375 75.984375 
z
" id="DejaVuSans-66"/>
      <path d="M 41.109375 46.296875 
Q 39.59375 47.171875 37.8125 47.578125 
Q 36.03125 48 33.890625 48 
Q 26.265625 48 22.1875 43.046875 
Q 18.109375 38.09375 18.109375 28.8125 
L 18.109375 0 
L 9.078125 0 
L 9.078125 54.6875 
L 18.109375 54.6875 
L 18.109375 46.1875 
Q 20.953125 51.171875 25.484375 53.578125 
Q 30.03125 56 36.53125 56 
Q 37.453125 56 38.578125 55.875 
Q 39.703125 55.765625 41.0625 55.515625 
z
" id="DejaVuSans-72"/>
      <path d="M 34.28125 27.484375 
Q 23.390625 27.484375 19.1875 25 
Q 14.984375 22.515625 14.984375 16.5 
Q 14.984375 11.71875 18.140625 8.90625 
Q 21.296875 6.109375 26.703125 6.109375 
Q 34.1875 6.109375 38.703125 11.40625 
Q 43.21875 16.703125 43.21875 25.484375 
L 43.21875 27.484375 
z
M 52.203125 31.203125 
L 52.203125 0 
L 43.21875 0 
L 43.21875 8.296875 
Q 40.140625 3.328125 35.546875 0.953125 
Q 30.953125 -1.421875 24.3125 -1.421875 
Q 15.921875 -1.421875 10.953125 3.296875 
Q 6 8.015625 6 15.921875 
Q 6 25.140625 12.171875 29.828125 
Q 18.359375 34.515625 30.609375 34.515625 
L 43.21875 34.515625 
L 43.21875 35.40625 
Q 43.21875 41.609375 39.140625 45 
Q 35.0625 48.390625 27.6875 48.390625 
Q 23 48.390625 18.546875 47.265625 
Q 14.109375 46.140625 10.015625 43.890625 
L 10.015625 52.203125 
Q 14.9375 54.109375 19.578125 55.046875 
Q 24.21875 56 28.609375 56 
Q 40.484375 56 46.34375 49.84375 
Q 52.203125 43.703125 52.203125 31.203125 
z
" id="DejaVuSans-61"/>
      <path d="M 52 44.1875 
Q 55.375 50.25 60.0625 53.125 
Q 64.75 56 71.09375 56 
Q 79.640625 56 84.28125 50.015625 
Q 88.921875 44.046875 88.921875 33.015625 
L 88.921875 0 
L 79.890625 0 
L 79.890625 32.71875 
Q 79.890625 40.578125 77.09375 44.375 
Q 74.3125 48.1875 68.609375 48.1875 
Q 61.625 48.1875 57.5625 43.546875 
Q 53.515625 38.921875 53.515625 30.90625 
L 53.515625 0 
L 44.484375 0 
L 44.484375 32.71875 
Q 44.484375 40.625 41.703125 44.40625 
Q 38.921875 48.1875 33.109375 48.1875 
Q 26.21875 48.1875 22.15625 43.53125 
Q 18.109375 38.875 18.109375 30.90625 
L 18.109375 0 
L 9.078125 0 
L 9.078125 54.6875 
L 18.109375 54.6875 
L 18.109375 46.1875 
Q 21.1875 51.21875 25.484375 53.609375 
Q 29.78125 56 35.6875 56 
Q 41.65625 56 45.828125 52.96875 
Q 50 49.953125 52 44.1875 
z
" id="DejaVuSans-6d"/>
      <path d="M 56.203125 29.59375 
L 56.203125 25.203125 
L 14.890625 25.203125 
Q 15.484375 15.921875 20.484375 11.0625 
Q 25.484375 6.203125 34.421875 6.203125 
Q 39.59375 6.203125 44.453125 7.46875 
Q 49.3125 8.734375 54.109375 11.28125 
L 54.109375 2.78125 
Q 49.265625 0.734375 44.1875 -0.34375 
Q 39.109375 -1.421875 33.890625 -1.421875 
Q 20.796875 -1.421875 13.15625 6.1875 
Q 5.515625 13.8125 5.515625 26.8125 
Q 5.515625 40.234375 12.765625 48.109375 
Q 20.015625 56 32.328125 56 
Q 43.359375 56 49.78125 48.890625 
Q 56.203125 41.796875 56.203125 29.59375 
z
M 47.21875 32.234375 
Q 47.125 39.59375 43.09375 43.984375 
Q 39.0625 48.390625 32.421875 48.390625 
Q 24.90625 48.390625 20.390625 44.140625 
Q 15.875 39.890625 15.1875 32.171875 
z
" id="DejaVuSans-65"/>
      <path id="DejaVuSans-20"/>
      <path d="M 51.125 44 
L 36.921875 44 
L 32.8125 27.6875 
L 47.125 27.6875 
z
M 43.796875 71.78125 
L 38.71875 51.515625 
L 52.984375 51.515625 
L 58.109375 71.78125 
L 65.921875 71.78125 
L 60.890625 51.515625 
L 76.125 51.515625 
L 76.125 44 
L 58.984375 44 
L 54.984375 27.6875 
L 70.515625 27.6875 
L 70.515625 20.21875 
L 53.078125 20.21875 
L 48 0 
L 40.1875 0 
L 45.21875 20.21875 
L 30.90625 20.21875 
L 25.875 0 
L 18.015625 0 
L 23.09375 20.21875 
L 7.71875 20.21875 
L 7.71875 27.6875 
L 24.90625 27.6875 
L 29 44 
L 13.28125 44 
L 13.28125 51.515625 
L 30.90625 51.515625 
L 35.890625 71.78125 
z
" id="DejaVuSans-23"/>
      <path d="M 8.59375 75.984375 
L 29.296875 75.984375 
L 29.296875 69 
L 17.578125 69 
L 17.578125 -6.203125 
L 29.296875 -6.203125 
L 29.296875 -13.1875 
L 8.59375 -13.1875 
z
" id="DejaVuSans-5b"/>
      <path d="M 30.421875 75.984375 
L 30.421875 -13.1875 
L 9.71875 -13.1875 
L 9.71875 -6.203125 
L 21.390625 -6.203125 
L 21.390625 69 
L 9.71875 69 
L 9.71875 75.984375 
z
" id="DejaVuSans-5d"/>
     </defs>
     <g transform="translate(210.063906 335.860562)scale(0.1 -0.1)">
      <use xlink:href="#DejaVuSans-66"/>
      <use x="35.205078" xlink:href="#DejaVuSans-72"/>
      <use x="76.318359" xlink:href="#DejaVuSans-61"/>
      <use x="137.597656" xlink:href="#DejaVuSans-6d"/>
      <use x="235.009766" xlink:href="#DejaVuSans-65"/>
      <use x="296.533203" xlink:href="#DejaVuSans-20"/>
      <use x="328.320312" xlink:href="#DejaVuSans-23"/>
      <use x="412.109375" xlink:href="#DejaVuSans-20"/>
      <use x="443.896484" xlink:href="#DejaVuSans-5b"/>
      <use x="482.910156" xlink:href="#DejaVuSans-5d"/>
     </g>
    </g>
   </g>
   <g id="matplotlib.axis_2">
    <g id="ytick_1">
     <g id="line2d_51">
      <path clip-path="url(#p41e5f862aa)" d="M 57.6 304.444687 
L 414.72 304.444687 
" style="fill:none;stroke:#b0b0b0;stroke-linecap:square;stroke-width:0.8;"/>
     </g>
     <g id="line2d_52">
      <defs>
       <path d="M 0 0 
L -3.5 0 
" id="m5a9915045c" style="stroke:#000000;stroke-width:0.8;"/>
      </defs>
      <g>
       <use style="stroke:#000000;stroke-width:0.8;" x="57.6" xlink:href="#m5a9915045c" y="304.444687"/>
      </g>
     </g>
     <g id="text_7">
      <!-- −0.15 -->
      <defs>
       <path d="M 10.59375 35.5 
L 73.1875 35.5 
L 73.1875 27.203125 
L 10.59375 27.203125 
z
" id="DejaVuSans-2212"/>
       <path d="M 10.6875 12.40625 
L 21 12.40625 
L 21 0 
L 10.6875 0 
z
" id="DejaVuSans-2e"/>
       <path d="M 10.796875 72.90625 
L 49.515625 72.90625 
L 49.515625 64.59375 
L 19.828125 64.59375 
L 19.828125 46.734375 
Q 21.96875 47.46875 24.109375 47.828125 
Q 26.265625 48.1875 28.421875 48.1875 
Q 40.625 48.1875 47.75 41.5 
Q 54.890625 34.8125 54.890625 23.390625 
Q 54.890625 11.625 47.5625 5.09375 
Q 40.234375 -1.421875 26.90625 -1.421875 
Q 22.3125 -1.421875 17.546875 -0.640625 
Q 12.796875 0.140625 7.71875 1.703125 
L 7.71875 11.625 
Q 12.109375 9.234375 16.796875 8.0625 
Q 21.484375 6.890625 26.703125 6.890625 
Q 35.15625 6.890625 40.078125 11.328125 
Q 45.015625 15.765625 45.015625 23.390625 
Q 45.015625 31 40.078125 35.4375 
Q 35.15625 39.890625 26.703125 39.890625 
Q 22.75 39.890625 18.8125 39.015625 
Q 14.890625 38.140625 10.796875 36.28125 
z
" id="DejaVuSans-35"/>
      </defs>
      <g transform="translate(19.954687 308.243905)scale(0.1 -0.1)">
       <use xlink:href="#DejaVuSans-2212"/>
       <use x="83.789062" xlink:href="#DejaVuSans-30"/>
       <use x="147.412109" xlink:href="#DejaVuSans-2e"/>
       <use x="179.199219" xlink:href="#DejaVuSans-31"/>
       <use x="242.822266" xlink:href="#DejaVuSans-35"/>
      </g>
     </g>
    </g>
    <g id="ytick_2">
     <g id="line2d_53">
      <path clip-path="url(#p41e5f862aa)" d="M 57.6 264.111358 
L 414.72 264.111358 
" style="fill:none;stroke:#b0b0b0;stroke-linecap:square;stroke-width:0.8;"/>
     </g>
     <g id="line2d_54">
      <g>
       <use style="stroke:#000000;stroke-width:0.8;" x="57.6" xlink:href="#m5a9915045c" y="264.111358"/>
      </g>
     </g>
     <g id="text_8">
      <!-- −0.10 -->
      <g transform="translate(19.954687 267.910577)scale(0.1 -0.1)">
       <use xlink:href="#DejaVuSans-2212"/>
       <use x="83.789062" xlink:href="#DejaVuSans-30"/>
       <use x="147.412109" xlink:href="#DejaVuSans-2e"/>
       <use x="179.199219" xlink:href="#DejaVuSans-31"/>
       <use x="242.822266" xlink:href="#DejaVuSans-30"/>
      </g>
     </g>
    </g>
    <g id="ytick_3">
     <g id="line2d_55">
      <path clip-path="url(#p41e5f862aa)" d="M 57.6 223.778029 
L 414.72 223.778029 
" style="fill:none;stroke:#b0b0b0;stroke-linecap:square;stroke-width:0.8;"/>
     </g>
     <g id="line2d_56">
      <g>
       <use style="stroke:#000000;stroke-width:0.8;" x="57.6" xlink:href="#m5a9915045c" y="223.778029"/>
      </g>
     </g>
     <g id="text_9">
      <!-- −0.05 -->
      <g transform="translate(19.954687 227.577248)scale(0.1 -0.1)">
       <use xlink:href="#DejaVuSans-2212"/>
       <use x="83.789062" xlink:href="#DejaVuSans-30"/>
       <use x="147.412109" xlink:href="#DejaVuSans-2e"/>
       <use x="179.199219" xlink:href="#DejaVuSans-30"/>
       <use x="242.822266" xlink:href="#DejaVuSans-35"/>
      </g>
     </g>
    </g>
    <g id="ytick_4">
     <g id="line2d_57">
      <path clip-path="url(#p41e5f862aa)" d="M 57.6 183.4447 
L 414.72 183.4447 
" style="fill:none;stroke:#b0b0b0;stroke-linecap:square;stroke-width:0.8;"/>
     </g>
     <g id="line2d_58">
      <g>
       <use style="stroke:#000000;stroke-width:0.8;" x="57.6" xlink:href="#m5a9915045c" y="183.4447"/>
      </g>
     </g>
     <g id="text_10">
      <!-- 0.00 -->
      <g transform="translate(28.334375 187.243919)scale(0.1 -0.1)">
       <use xlink:href="#DejaVuSans-30"/>
       <use x="63.623047" xlink:href="#DejaVuSans-2e"/>
       <use x="95.410156" xlink:href="#DejaVuSans-30"/>
       <use x="159.033203" xlink:href="#DejaVuSans-30"/>
      </g>
     </g>
    </g>
    <g id="ytick_5">
     <g id="line2d_59">
      <path clip-path="url(#p41e5f862aa)" d="M 57.6 143.111372 
L 414.72 143.111372 
" style="fill:none;stroke:#b0b0b0;stroke-linecap:square;stroke-width:0.8;"/>
     </g>
     <g id="line2d_60">
      <g>
       <use style="stroke:#000000;stroke-width:0.8;" x="57.6" xlink:href="#m5a9915045c" y="143.111372"/>
      </g>
     </g>
     <g id="text_11">
      <!-- 0.05 -->
      <g transform="translate(28.334375 146.91059)scale(0.1 -0.1)">
       <use xlink:href="#DejaVuSans-30"/>
       <use x="63.623047" xlink:href="#DejaVuSans-2e"/>
       <use x="95.410156" xlink:href="#DejaVuSans-30"/>
       <use x="159.033203" xlink:href="#DejaVuSans-35"/>
      </g>
     </g>
    </g>
    <g id="ytick_6">
     <g id="line2d_61">
      <path clip-path="url(#p41e5f862aa)" d="M 57.6 102.778043 
L 414.72 102.778043 
" style="fill:none;stroke:#b0b0b0;stroke-linecap:square;stroke-width:0.8;"/>
     </g>
     <g id="line2d_62">
      <g>
       <use style="stroke:#000000;stroke-width:0.8;" x="57.6" xlink:href="#m5a9915045c" y="102.778043"/>
      </g>
     </g>
     <g id="text_12">
      <!-- 0.10 -->
      <g transform="translate(28.334375 106.577262)scale(0.1 -0.1)">
       <use xlink:href="#DejaVuSans-30"/>
       <use x="63.623047" xlink:href="#DejaVuSans-2e"/>
       <use x="95.410156" xlink:href="#DejaVuSans-31"/>
       <use x="159.033203" xlink:href="#DejaVuSans-30"/>
      </g>
     </g>
    </g>
    <g id="ytick_7">
     <g id="line2d_63">
      <path clip-path="url(#p41e5f862aa)" d="M 57.6 62.444714 
L 414.72 62.444714 
" style="fill:none;stroke:#b0b0b0;stroke-linecap:square;stroke-width:0.8;"/>
     </g>
     <g id="line2d_64">
      <g>
       <use style="stroke:#000000;stroke-width:0.8;" x="57.6" xlink:href="#m5a9915045c" y="62.444714"/>
      </g>
     </g>
     <g id="text_13">
      <!-- 0.15 -->
      <g transform="translate(28.334375 66.243933)scale(0.1 -0.1)">
       <use xlink:href="#DejaVuSans-30"/>
       <use x="63.623047" xlink:href="#DejaVuSans-2e"/>
       <use x="95.410156" xlink:href="#DejaVuSans-31"/>
       <use x="159.033203" xlink:href="#DejaVuSans-35"/>
      </g>
     </g>
    </g>
    <g id="ytick_8">
     <g id="line2d_65">
      <path clip-path="url(#p41e5f862aa)" d="M 57.6 296.378021 
L 414.72 296.378021 
" style="fill:none;stroke:#b0b0b0;stroke-linecap:square;stroke-width:0.8;"/>
     </g>
     <g id="line2d_66">
      <defs>
       <path d="M 0 0 
L -2 0 
" id="m45340edd34" style="stroke:#000000;stroke-width:0.6;"/>
      </defs>
      <g>
       <use style="stroke:#000000;stroke-width:0.6;" x="57.6" xlink:href="#m45340edd34" y="296.378021"/>
      </g>
     </g>
    </g>
    <g id="ytick_9">
     <g id="line2d_67">
      <path clip-path="url(#p41e5f862aa)" d="M 57.6 288.311355 
L 414.72 288.311355 
" style="fill:none;stroke:#b0b0b0;stroke-linecap:square;stroke-width:0.8;"/>
     </g>
     <g id="line2d_68">
      <g>
       <use style="stroke:#000000;stroke-width:0.6;" x="57.6" xlink:href="#m45340edd34" y="288.311355"/>
      </g>
     </g>
    </g>
    <g id="ytick_10">
     <g id="line2d_69">
      <path clip-path="url(#p41e5f862aa)" d="M 57.6 280.244689 
L 414.72 280.244689 
" style="fill:none;stroke:#b0b0b0;stroke-linecap:square;stroke-width:0.8;"/>
     </g>
     <g id="line2d_70">
      <g>
       <use style="stroke:#000000;stroke-width:0.6;" x="57.6" xlink:href="#m45340edd34" y="280.244689"/>
      </g>
     </g>
    </g>
    <g id="ytick_11">
     <g id="line2d_71">
      <path clip-path="url(#p41e5f862aa)" d="M 57.6 272.178024 
L 414.72 272.178024 
" style="fill:none;stroke:#b0b0b0;stroke-linecap:square;stroke-width:0.8;"/>
     </g>
     <g id="line2d_72">
      <g>
       <use style="stroke:#000000;stroke-width:0.6;" x="57.6" xlink:href="#m45340edd34" y="272.178024"/>
      </g>
     </g>
    </g>
    <g id="ytick_12">
     <g id="line2d_73">
      <path clip-path="url(#p41e5f862aa)" d="M 57.6 264.111358 
L 414.72 264.111358 
" style="fill:none;stroke:#b0b0b0;stroke-linecap:square;stroke-width:0.8;"/>
     </g>
     <g id="line2d_74">
      <g>
       <use style="stroke:#000000;stroke-width:0.6;" x="57.6" xlink:href="#m45340edd34" y="264.111358"/>
      </g>
     </g>
    </g>
    <g id="ytick_13">
     <g id="line2d_75">
      <path clip-path="url(#p41e5f862aa)" d="M 57.6 256.044692 
L 414.72 256.044692 
" style="fill:none;stroke:#b0b0b0;stroke-linecap:square;stroke-width:0.8;"/>
     </g>
     <g id="line2d_76">
      <g>
       <use style="stroke:#000000;stroke-width:0.6;" x="57.6" xlink:href="#m45340edd34" y="256.044692"/>
      </g>
     </g>
    </g>
    <g id="ytick_14">
     <g id="line2d_77">
      <path clip-path="url(#p41e5f862aa)" d="M 57.6 247.978026 
L 414.72 247.978026 
" style="fill:none;stroke:#b0b0b0;stroke-linecap:square;stroke-width:0.8;"/>
     </g>
     <g id="line2d_78">
      <g>
       <use style="stroke:#000000;stroke-width:0.6;" x="57.6" xlink:href="#m45340edd34" y="247.978026"/>
      </g>
     </g>
    </g>
    <g id="ytick_15">
     <g id="line2d_79">
      <path clip-path="url(#p41e5f862aa)" d="M 57.6 239.911361 
L 414.72 239.911361 
" style="fill:none;stroke:#b0b0b0;stroke-linecap:square;stroke-width:0.8;"/>
     </g>
     <g id="line2d_80">
      <g>
       <use style="stroke:#000000;stroke-width:0.6;" x="57.6" xlink:href="#m45340edd34" y="239.911361"/>
      </g>
     </g>
    </g>
    <g id="ytick_16">
     <g id="line2d_81">
      <path clip-path="url(#p41e5f862aa)" d="M 57.6 231.844695 
L 414.72 231.844695 
" style="fill:none;stroke:#b0b0b0;stroke-linecap:square;stroke-width:0.8;"/>
     </g>
     <g id="line2d_82">
      <g>
       <use style="stroke:#000000;stroke-width:0.6;" x="57.6" xlink:href="#m45340edd34" y="231.844695"/>
      </g>
     </g>
    </g>
    <g id="ytick_17">
     <g id="line2d_83">
      <path clip-path="url(#p41e5f862aa)" d="M 57.6 223.778029 
L 414.72 223.778029 
" style="fill:none;stroke:#b0b0b0;stroke-linecap:square;stroke-width:0.8;"/>
     </g>
     <g id="line2d_84">
      <g>
       <use style="stroke:#000000;stroke-width:0.6;" x="57.6" xlink:href="#m45340edd34" y="223.778029"/>
      </g>
     </g>
    </g>
    <g id="ytick_18">
     <g id="line2d_85">
      <path clip-path="url(#p41e5f862aa)" d="M 57.6 215.711363 
L 414.72 215.711363 
" style="fill:none;stroke:#b0b0b0;stroke-linecap:square;stroke-width:0.8;"/>
     </g>
     <g id="line2d_86">
      <g>
       <use style="stroke:#000000;stroke-width:0.6;" x="57.6" xlink:href="#m45340edd34" y="215.711363"/>
      </g>
     </g>
    </g>
    <g id="ytick_19">
     <g id="line2d_87">
      <path clip-path="url(#p41e5f862aa)" d="M 57.6 207.644698 
L 414.72 207.644698 
" style="fill:none;stroke:#b0b0b0;stroke-linecap:square;stroke-width:0.8;"/>
     </g>
     <g id="line2d_88">
      <g>
       <use style="stroke:#000000;stroke-width:0.6;" x="57.6" xlink:href="#m45340edd34" y="207.644698"/>
      </g>
     </g>
    </g>
    <g id="ytick_20">
     <g id="line2d_89">
      <path clip-path="url(#p41e5f862aa)" d="M 57.6 199.578032 
L 414.72 199.578032 
" style="fill:none;stroke:#b0b0b0;stroke-linecap:square;stroke-width:0.8;"/>
     </g>
     <g id="line2d_90">
      <g>
       <use style="stroke:#000000;stroke-width:0.6;" x="57.6" xlink:href="#m45340edd34" y="199.578032"/>
      </g>
     </g>
    </g>
    <g id="ytick_21">
     <g id="line2d_91">
      <path clip-path="url(#p41e5f862aa)" d="M 57.6 191.511366 
L 414.72 191.511366 
" style="fill:none;stroke:#b0b0b0;stroke-linecap:square;stroke-width:0.8;"/>
     </g>
     <g id="line2d_92">
      <g>
       <use style="stroke:#000000;stroke-width:0.6;" x="57.6" xlink:href="#m45340edd34" y="191.511366"/>
      </g>
     </g>
    </g>
    <g id="ytick_22">
     <g id="line2d_93">
      <path clip-path="url(#p41e5f862aa)" d="M 57.6 183.4447 
L 414.72 183.4447 
" style="fill:none;stroke:#b0b0b0;stroke-linecap:square;stroke-width:0.8;"/>
     </g>
     <g id="line2d_94">
      <g>
       <use style="stroke:#000000;stroke-width:0.6;" x="57.6" xlink:href="#m45340edd34" y="183.4447"/>
      </g>
     </g>
    </g>
    <g id="ytick_23">
     <g id="line2d_95">
      <path clip-path="url(#p41e5f862aa)" d="M 57.6 175.378035 
L 414.72 175.378035 
" style="fill:none;stroke:#b0b0b0;stroke-linecap:square;stroke-width:0.8;"/>
     </g>
     <g id="line2d_96">
      <g>
       <use style="stroke:#000000;stroke-width:0.6;" x="57.6" xlink:href="#m45340edd34" y="175.378035"/>
      </g>
     </g>
    </g>
    <g id="ytick_24">
     <g id="line2d_97">
      <path clip-path="url(#p41e5f862aa)" d="M 57.6 167.311369 
L 414.72 167.311369 
" style="fill:none;stroke:#b0b0b0;stroke-linecap:square;stroke-width:0.8;"/>
     </g>
     <g id="line2d_98">
      <g>
       <use style="stroke:#000000;stroke-width:0.6;" x="57.6" xlink:href="#m45340edd34" y="167.311369"/>
      </g>
     </g>
    </g>
    <g id="ytick_25">
     <g id="line2d_99">
      <path clip-path="url(#p41e5f862aa)" d="M 57.6 159.244703 
L 414.72 159.244703 
" style="fill:none;stroke:#b0b0b0;stroke-linecap:square;stroke-width:0.8;"/>
     </g>
     <g id="line2d_100">
      <g>
       <use style="stroke:#000000;stroke-width:0.6;" x="57.6" xlink:href="#m45340edd34" y="159.244703"/>
      </g>
     </g>
    </g>
    <g id="ytick_26">
     <g id="line2d_101">
      <path clip-path="url(#p41e5f862aa)" d="M 57.6 151.178037 
L 414.72 151.178037 
" style="fill:none;stroke:#b0b0b0;stroke-linecap:square;stroke-width:0.8;"/>
     </g>
     <g id="line2d_102">
      <g>
       <use style="stroke:#000000;stroke-width:0.6;" x="57.6" xlink:href="#m45340edd34" y="151.178037"/>
      </g>
     </g>
    </g>
    <g id="ytick_27">
     <g id="line2d_103">
      <path clip-path="url(#p41e5f862aa)" d="M 57.6 143.111372 
L 414.72 143.111372 
" style="fill:none;stroke:#b0b0b0;stroke-linecap:square;stroke-width:0.8;"/>
     </g>
     <g id="line2d_104">
      <g>
       <use style="stroke:#000000;stroke-width:0.6;" x="57.6" xlink:href="#m45340edd34" y="143.111372"/>
      </g>
     </g>
    </g>
    <g id="ytick_28">
     <g id="line2d_105">
      <path clip-path="url(#p41e5f862aa)" d="M 57.6 135.044706 
L 414.72 135.044706 
" style="fill:none;stroke:#b0b0b0;stroke-linecap:square;stroke-width:0.8;"/>
     </g>
     <g id="line2d_106">
      <g>
       <use style="stroke:#000000;stroke-width:0.6;" x="57.6" xlink:href="#m45340edd34" y="135.044706"/>
      </g>
     </g>
    </g>
    <g id="ytick_29">
     <g id="line2d_107">
      <path clip-path="url(#p41e5f862aa)" d="M 57.6 126.97804 
L 414.72 126.97804 
" style="fill:none;stroke:#b0b0b0;stroke-linecap:square;stroke-width:0.8;"/>
     </g>
     <g id="line2d_108">
      <g>
       <use style="stroke:#000000;stroke-width:0.6;" x="57.6" xlink:href="#m45340edd34" y="126.97804"/>
      </g>
     </g>
    </g>
    <g id="ytick_30">
     <g id="line2d_109">
      <path clip-path="url(#p41e5f862aa)" d="M 57.6 118.911374 
L 414.72 118.911374 
" style="fill:none;stroke:#b0b0b0;stroke-linecap:square;stroke-width:0.8;"/>
     </g>
     <g id="line2d_110">
      <g>
       <use style="stroke:#000000;stroke-width:0.6;" x="57.6" xlink:href="#m45340edd34" y="118.911374"/>
      </g>
     </g>
    </g>
    <g id="ytick_31">
     <g id="line2d_111">
      <path clip-path="url(#p41e5f862aa)" d="M 57.6 110.844709 
L 414.72 110.844709 
" style="fill:none;stroke:#b0b0b0;stroke-linecap:square;stroke-width:0.8;"/>
     </g>
     <g id="line2d_112">
      <g>
       <use style="stroke:#000000;stroke-width:0.6;" x="57.6" xlink:href="#m45340edd34" y="110.844709"/>
      </g>
     </g>
    </g>
    <g id="ytick_32">
     <g id="line2d_113">
      <path clip-path="url(#p41e5f862aa)" d="M 57.6 102.778043 
L 414.72 102.778043 
" style="fill:none;stroke:#b0b0b0;stroke-linecap:square;stroke-width:0.8;"/>
     </g>
     <g id="line2d_114">
      <g>
       <use style="stroke:#000000;stroke-width:0.6;" x="57.6" xlink:href="#m45340edd34" y="102.778043"/>
      </g>
     </g>
    </g>
    <g id="ytick_33">
     <g id="line2d_115">
      <path clip-path="url(#p41e5f862aa)" d="M 57.6 94.711377 
L 414.72 94.711377 
" style="fill:none;stroke:#b0b0b0;stroke-linecap:square;stroke-width:0.8;"/>
     </g>
     <g id="line2d_116">
      <g>
       <use style="stroke:#000000;stroke-width:0.6;" x="57.6" xlink:href="#m45340edd34" y="94.711377"/>
      </g>
     </g>
    </g>
    <g id="ytick_34">
     <g id="line2d_117">
      <path clip-path="url(#p41e5f862aa)" d="M 57.6 86.644711 
L 414.72 86.644711 
" style="fill:none;stroke:#b0b0b0;stroke-linecap:square;stroke-width:0.8;"/>
     </g>
     <g id="line2d_118">
      <g>
       <use style="stroke:#000000;stroke-width:0.6;" x="57.6" xlink:href="#m45340edd34" y="86.644711"/>
      </g>
     </g>
    </g>
    <g id="ytick_35">
     <g id="line2d_119">
      <path clip-path="url(#p41e5f862aa)" d="M 57.6 78.578046 
L 414.72 78.578046 
" style="fill:none;stroke:#b0b0b0;stroke-linecap:square;stroke-width:0.8;"/>
     </g>
     <g id="line2d_120">
      <g>
       <use style="stroke:#000000;stroke-width:0.6;" x="57.6" xlink:href="#m45340edd34" y="78.578046"/>
      </g>
     </g>
    </g>
    <g id="ytick_36">
     <g id="line2d_121">
      <path clip-path="url(#p41e5f862aa)" d="M 57.6 70.51138 
L 414.72 70.51138 
" style="fill:none;stroke:#b0b0b0;stroke-linecap:square;stroke-width:0.8;"/>
     </g>
     <g id="line2d_122">
      <g>
       <use style="stroke:#000000;stroke-width:0.6;" x="57.6" xlink:href="#m45340edd34" y="70.51138"/>
      </g>
     </g>
    </g>
    <g id="ytick_37">
     <g id="line2d_123">
      <path clip-path="url(#p41e5f862aa)" d="M 57.6 62.444714 
L 414.72 62.444714 
" style="fill:none;stroke:#b0b0b0;stroke-linecap:square;stroke-width:0.8;"/>
     </g>
     <g id="line2d_124">
      <g>
       <use style="stroke:#000000;stroke-width:0.6;" x="57.6" xlink:href="#m45340edd34" y="62.444714"/>
      </g>
     </g>
    </g>
    <g id="ytick_38">
     <g id="line2d_125">
      <path clip-path="url(#p41e5f862aa)" d="M 57.6 54.378048 
L 414.72 54.378048 
" style="fill:none;stroke:#b0b0b0;stroke-linecap:square;stroke-width:0.8;"/>
     </g>
     <g id="line2d_126">
      <g>
       <use style="stroke:#000000;stroke-width:0.6;" x="57.6" xlink:href="#m45340edd34" y="54.378048"/>
      </g>
     </g>
    </g>
    <g id="ytick_39">
     <g id="line2d_127">
      <path clip-path="url(#p41e5f862aa)" d="M 57.6 46.311383 
L 414.72 46.311383 
" style="fill:none;stroke:#b0b0b0;stroke-linecap:square;stroke-width:0.8;"/>
     </g>
     <g id="line2d_128">
      <g>
       <use style="stroke:#000000;stroke-width:0.6;" x="57.6" xlink:href="#m45340edd34" y="46.311383"/>
      </g>
     </g>
    </g>
    <g id="text_14">
     <!-- trans y -->
     <defs>
      <path d="M 18.3125 70.21875 
L 18.3125 54.6875 
L 36.8125 54.6875 
L 36.8125 47.703125 
L 18.3125 47.703125 
L 18.3125 18.015625 
Q 18.3125 11.328125 20.140625 9.421875 
Q 21.96875 7.515625 27.59375 7.515625 
L 36.8125 7.515625 
L 36.8125 0 
L 27.59375 0 
Q 17.1875 0 13.234375 3.875 
Q 9.28125 7.765625 9.28125 18.015625 
L 9.28125 47.703125 
L 2.6875 47.703125 
L 2.6875 54.6875 
L 9.28125 54.6875 
L 9.28125 70.21875 
z
" id="DejaVuSans-74"/>
      <path d="M 54.890625 33.015625 
L 54.890625 0 
L 45.90625 0 
L 45.90625 32.71875 
Q 45.90625 40.484375 42.875 44.328125 
Q 39.84375 48.1875 33.796875 48.1875 
Q 26.515625 48.1875 22.3125 43.546875 
Q 18.109375 38.921875 18.109375 30.90625 
L 18.109375 0 
L 9.078125 0 
L 9.078125 54.6875 
L 18.109375 54.6875 
L 18.109375 46.1875 
Q 21.34375 51.125 25.703125 53.5625 
Q 30.078125 56 35.796875 56 
Q 45.21875 56 50.046875 50.171875 
Q 54.890625 44.34375 54.890625 33.015625 
z
" id="DejaVuSans-6e"/>
      <path d="M 44.28125 53.078125 
L 44.28125 44.578125 
Q 40.484375 46.53125 36.375 47.5 
Q 32.28125 48.484375 27.875 48.484375 
Q 21.1875 48.484375 17.84375 46.4375 
Q 14.5 44.390625 14.5 40.28125 
Q 14.5 37.15625 16.890625 35.375 
Q 19.28125 33.59375 26.515625 31.984375 
L 29.59375 31.296875 
Q 39.15625 29.25 43.1875 25.515625 
Q 47.21875 21.78125 47.21875 15.09375 
Q 47.21875 7.46875 41.1875 3.015625 
Q 35.15625 -1.421875 24.609375 -1.421875 
Q 20.21875 -1.421875 15.453125 -0.5625 
Q 10.6875 0.296875 5.421875 2 
L 5.421875 11.28125 
Q 10.40625 8.6875 15.234375 7.390625 
Q 20.0625 6.109375 24.8125 6.109375 
Q 31.15625 6.109375 34.5625 8.28125 
Q 37.984375 10.453125 37.984375 14.40625 
Q 37.984375 18.0625 35.515625 20.015625 
Q 33.0625 21.96875 24.703125 23.78125 
L 21.578125 24.515625 
Q 13.234375 26.265625 9.515625 29.90625 
Q 5.8125 33.546875 5.8125 39.890625 
Q 5.8125 47.609375 11.28125 51.796875 
Q 16.75 56 26.8125 56 
Q 31.78125 56 36.171875 55.265625 
Q 40.578125 54.546875 44.28125 53.078125 
z
" id="DejaVuSans-73"/>
      <path d="M 32.171875 -5.078125 
Q 28.375 -14.84375 24.75 -17.8125 
Q 21.140625 -20.796875 15.09375 -20.796875 
L 7.90625 -20.796875 
L 7.90625 -13.28125 
L 13.1875 -13.28125 
Q 16.890625 -13.28125 18.9375 -11.515625 
Q 21 -9.765625 23.484375 -3.21875 
L 25.09375 0.875 
L 2.984375 54.6875 
L 12.5 54.6875 
L 29.59375 11.921875 
L 46.6875 54.6875 
L 56.203125 54.6875 
z
" id="DejaVuSans-79"/>
     </defs>
     <g transform="translate(13.875 191.929563)rotate(-90)scale(0.1 -0.1)">
      <use xlink:href="#DejaVuSans-74"/>
      <use x="39.208984" xlink:href="#DejaVuSans-72"/>
      <use x="80.322266" xlink:href="#DejaVuSans-61"/>
      <use x="141.601562" xlink:href="#DejaVuSans-6e"/>
      <use x="204.980469" xlink:href="#DejaVuSans-73"/>
      <use x="257.080078" xlink:href="#DejaVuSans-20"/>
      <use x="288.867188" xlink:href="#DejaVuSans-79"/>
     </g>
    </g>
   </g>
   <g id="line2d_129">
    <path clip-path="url(#p41e5f862aa)" d="M 73.832727 161.742219 
L 74.524971 162.403655 
L 75.217208 164.354628 
L 75.90628 195.289669 
L 76.598517 170.705451 
L 77.290754 166.495107 
L 77.982991 163.903855 
L 78.6751 153.915242 
L 79.367337 170.110291 
L 80.059581 194.924217 
L 81.446481 155.317318 
L 82.138725 155.449788 
L 82.830962 159.702667 
L 83.523199 162.410423 
L 84.216653 176.919439 
L 86.293364 160.988522 
L 87.675135 179.184599 
L 88.367373 184.157173 
L 89.05961 193.165725 
L 89.751847 176.363321 
L 90.441987 187.44994 
L 91.13423 153.281669 
L 91.826467 141.10098 
L 92.518705 137.066925 
L 93.209773 125.571266 
L 93.902011 160.474682 
L 94.594254 165.855696 
L 95.979336 220.522185 
L 96.671581 251.109874 
L 97.363819 250.578305 
L 98.056056 244.494241 
L 98.749362 242.290076 
L 99.44205 220.548009 
L 100.826074 124.038636 
L 101.516997 116.467537 
M 102.901478 90.550221 
L 103.593715 91.89451 
L 104.284797 110.678203 
L 104.977035 143.35903 
L 105.669272 140.685105 
L 106.361509 190.016495 
L 107.05535 197.881806 
L 107.747587 227.273681 
L 108.439825 267.820772 
L 109.132062 283.622097 
L 109.824962 281.281094 
L 110.517208 258.606461 
L 111.209437 254.27957 
L 111.901674 223.07992 
L 112.593675 172.142844 
L 113.285912 155.816363 
L 114.670387 103.265463 
L 115.361972 90.804583 
L 116.054209 104.802678 
L 116.746446 109.495963 
L 117.438683 166.053478 
L 118.823151 212.420897 
L 119.515395 217.12206 
L 120.207625 240.585518 
L 120.899869 255.924241 
L 121.594579 264.386887 
L 122.286816 235.137108 
L 122.97906 220.133533 
L 123.67129 173.758287 
L 125.056146 95.476074 
L 125.748383 75.822448 
L 126.44062 80.983885 
L 127.129632 110.072734 
L 127.82187 128.969037 
L 128.514107 164.364551 
L 129.206344 192.011747 
L 130.591908 263.688908 
L 131.284145 277.336766 
L 131.976389 278.081874 
L 132.670814 249.359492 
L 133.363058 214.346756 
L 134.055295 191.724252 
L 134.747532 158.021789 
L 136.130039 107.358207 
L 136.822277 94.834019 
L 137.514514 92.399967 
L 138.204709 96.785344 
L 138.896947 119.499808 
L 139.589184 132.513179 
L 140.281421 161.599281 
L 140.976101 198.019523 
L 141.668336 225.44438 
L 142.360573 272.215943 
L 143.05281 279.651449 
L 143.744756 282.964127 
L 144.436993 268.983523 
L 145.129236 224.563081 
L 145.821474 171.86824 
L 146.511257 137.040353 
L 147.203494 110.107133 
L 147.895731 120.979665 
L 148.588378 133.663086 
L 149.281455 156.980696 
L 151.358166 264.990519 
L 152.05041 276.16171 
L 152.743731 269.334237 
L 153.435969 250.325501 
L 154.128206 215.084963 
L 154.820443 172.350558 
L 155.510224 151.38001 
L 156.20247 103.566263 
L 156.894699 94.088711 
M 158.279343 121.912188 
L 158.97158 188.79086 
L 160.356055 229.65551 
L 161.051271 265.77309 
L 161.743508 279.933711 
L 162.435745 276.203189 
L 163.127989 249.755345 
L 163.818557 239.473666 
L 164.510795 170.722693 
M 165.895269 112.681103 
L 166.586145 102.304747 
L 167.278382 146.740242 
L 167.970626 137.329651 
L 168.662863 181.515986 
L 169.356457 200.363069 
L 170.740931 248.018124 
L 171.433168 268.119499 
L 172.125831 262.760636 
L 172.818048 236.362347 
L 174.202529 168.236379 
L 174.892987 125.493527 
L 175.585225 96.747144 
L 176.277462 107.615345 
L 176.969699 116.148983 
L 177.662487 132.999259 
L 178.354724 196.871452 
L 179.046962 199.359688 
L 179.739205 200.725422 
L 180.434067 226.184064 
L 181.126297 279.597733 
L 181.818534 263.621524 
L 182.510778 241.409336 
L 183.892876 147.684895 
L 184.585113 128.42419 
L 185.2776 90.821711 
L 185.969588 138.964328 
L 186.661455 135.268259 
L 187.353692 182.210179 
L 188.045929 216.239249 
L 188.738167 272.529304 
M 191.509762 200.796891 
L 192.199235 191.228198 
L 192.891481 127.173719 
L 193.583718 112.451214 
L 194.275953 124.681047 
L 194.967935 119.655861 
L 195.660172 137.208005 
M 197.044646 223.486399 
L 197.738917 239.506105 
L 198.431154 262.432981 
L 199.123391 259.963338 
L 199.815628 246.426413 
L 200.508823 205.130119 
L 201.20106 194.888631 
L 201.893304 145.916229 
L 202.585541 113.964528 
L 203.275538 93.290719 
L 203.967776 85.968186 
L 204.660013 111.634534 
L 205.35225 125.862483 
L 206.044672 182.840238 
L 207.429146 237.085761 
L 208.121383 244.128803 
L 208.815873 257.481096 
L 209.50811 242.622574 
L 210.200348 212.742992 
L 210.892585 191.266971 
L 211.583861 155.608811 
L 212.276099 131.392913 
L 212.968342 190.276854 
L 213.66058 162.795457 
L 214.351919 154.747908 
L 215.044156 183.853653 
L 215.736393 206.058535 
L 217.120874 264.007384 
L 217.814995 275.003317 
L 218.507232 279.361484 
L 219.199469 259.676434 
L 219.891706 235.178132 
L 220.58497 197.881248 
L 221.969824 113.075728 
L 222.661681 105.071299 
L 223.354881 119.182375 
L 224.047124 114.098083 
L 224.739362 118.383141 
L 225.431599 127.945646 
L 226.123329 150.326582 
L 227.507804 202.953459 
L 228.200041 218.179001 
L 228.892598 244.803238 
L 229.584835 280.903139 
L 230.277072 291.34717 
L 230.96931 287.699739 
L 231.661953 275.493364 
L 232.35419 269.912742 
L 233.046427 250.535865 
L 233.738664 226.058632 
L 234.434318 176.591668 
L 236.511036 100.479621 
L 237.205725 70.442085 
L 237.897963 53.568 
L 238.5902 56.576409 
L 239.282437 77.951461 
M 240.658539 112.02681 
L 241.350776 130.574388 
L 242.043013 172.645474 
L 242.735331 199.53609 
L 243.427569 218.368524 
L 244.812043 295.488 
L 245.504977 288.584193 
L 246.197214 268.321091 
L 246.889449 254.616479 
L 247.581686 251.916695 
L 248.274878 243.923752 
L 248.967115 233.457567 
L 249.659352 208.528021 
L 250.351589 187.890054 
L 252.429009 108.685887 
L 253.121246 103.88483 
L 253.81349 83.71291 
L 254.500718 83.99928 
L 255.192947 88.777328 
L 255.885192 96.93672 
L 257.269926 163.002241 
L 257.962163 160.542215 
L 258.6544 193.173065 
L 259.346637 197.91528 
L 261.425169 247.716055 
L 262.117406 253.562349 
L 262.80931 262.586053 
L 263.501547 280.116734 
L 264.193784 270.691823 
L 265.576308 212.693101 
L 266.268553 231.814357 
M 268.344813 176.190095 
L 269.03705 180.997871 
M 273.886626 160.257972 
L 274.578864 167.99588 
M 280.11432 219.005537 
L 280.806557 218.118284 
M 291.190092 221.01362 
L 291.882329 220.633053 
M 296.728311 203.457604 
L 297.420548 234.51964 
M 305.72952 214.293679 
L 306.421757 170.807213 
L 307.114493 228.52424 
M 308.496983 195.671798 
L 309.18922 206.253139 
M 316.803859 267.929268 
L 317.496096 281.178892 
L 318.188333 229.632841 
L 318.880571 209.721834 
M 323.726858 159.200406 
L 324.419095 151.919692 
L 325.112821 142.410257 
L 325.805058 156.067797 
L 326.497302 160.888296 
M 328.576974 228.835997 
L 329.269218 213.45238 
M 330.653469 199.569291 
L 331.346218 225.57355 
L 332.037944 213.317073 
L 332.730181 188.475087 
L 333.422638 174.080854 
L 334.114875 164.28204 
L 334.807119 161.66685 
M 339.651661 211.539871 
L 340.343899 165.649234 
L 341.036136 186.058533 
L 341.726718 190.266806 
L 342.418955 191.930248 
L 343.111192 209.395009 
L 343.803429 195.050166 
M 345.877414 197.154473 
L 346.569651 193.559607 
M 354.184019 218.417078 
L 354.87625 231.635638 
M 357.647653 163.441405 
L 358.33989 141.906904 
L 359.029714 172.034471 
L 359.721951 153.984487 
M 362.491511 175.464808 
L 363.183748 203.747548 
L 363.875985 200.194689 
M 366.6451 178.292544 
L 367.338052 203.177024 
M 368.722533 210.020567 
L 369.41477 201.658834 
L 370.107983 226.121984 
L 370.80022 180.586037 
L 371.492457 183.886782 
M 374.262395 156.791543 
L 374.95463 184.598208 
L 375.647823 169.05144 
L 376.34006 178.100401 
M 383.260573 160.194199 
L 383.952811 172.574955 
L 384.644637 179.953578 
M 388.104412 165.368335 
L 388.796657 165.466473 
L 389.488894 159.690935 
L 390.179932 162.02809 
L 390.872169 173.231809 
L 391.564426 167.325237 
L 391.564426 167.325237 
" style="fill:none;stroke:#ff0000;stroke-linecap:square;"/>
   </g>
   <g id="line2d_130">
    <path clip-path="url(#p41e5f862aa)" d="M 73.832727 165.004826 
L 74.524971 162.401459 
L 75.217208 164.2149 
L 75.90628 176.66693 
L 76.598517 176.17707 
L 77.290754 166.79891 
L 77.982991 162.489391 
L 78.6751 161.880068 
L 79.367337 169.344162 
L 80.059581 184.099191 
L 80.751818 175.579038 
L 81.446481 162.69493 
L 82.138725 156.591863 
L 82.830962 158.829688 
L 83.523199 164.281257 
L 84.216653 179.380572 
L 84.908883 173.166706 
L 85.601147 169.006483 
L 86.293364 166.72173 
L 86.985656 168.225443 
L 88.367373 184.434194 
L 89.05961 184.189514 
L 89.751847 180.766068 
L 90.441987 176.274824 
L 91.13423 160.570729 
L 91.826467 148.266099 
L 92.518705 132.457562 
L 93.209773 128.513233 
L 93.902011 139.082693 
L 94.594254 158.985926 
L 95.286491 187.830152 
L 95.979336 228.313669 
L 96.671581 252.990682 
L 97.363819 254.397449 
L 98.056056 249.214819 
L 98.749362 234.869184 
L 99.44205 212.409425 
L 100.133837 178.074862 
L 101.516997 101.495013 
M 102.901478 83.629994 
L 103.593715 93.18079 
L 104.977035 127.383358 
L 105.669272 147.862034 
L 107.747587 229.964446 
L 108.439825 262.542221 
L 109.132062 281.120467 
L 109.824962 283.040265 
L 110.517208 268.459126 
L 111.209437 248.473203 
L 111.901674 219.895011 
L 113.285912 149.657929 
L 114.670387 100.198638 
L 115.361972 89.661531 
L 116.054209 99.696724 
L 116.746446 118.38821 
L 117.438683 142.956042 
L 118.823151 205.725441 
L 119.515395 230.129509 
L 120.899869 256.969753 
L 121.594579 262.003336 
L 122.286816 247.096828 
L 122.97906 214.239775 
L 125.056146 97.05247 
L 125.748383 76.478532 
L 126.44062 79.716567 
L 127.129632 99.242897 
L 127.82187 124.983365 
L 129.89967 231.408554 
L 130.591908 256.799847 
L 131.284145 271.453334 
L 131.976389 259.686417 
L 132.670814 242.331563 
L 133.363058 219.571468 
L 134.747532 156.014364 
L 136.822277 94.996827 
L 137.514514 88.536776 
L 138.204709 96.992982 
L 139.589184 129.06521 
L 140.281421 158.02217 
L 141.668336 236.191478 
L 142.360573 271.023365 
L 143.05281 288.927914 
L 143.744756 284.945766 
L 144.436993 261.887336 
L 145.129236 222.236698 
L 145.821474 176.081954 
L 146.511257 138.907025 
L 147.203494 115.005136 
L 147.895731 103.715608 
L 148.588378 114.424212 
L 149.281455 148.719294 
L 150.665929 227.581433 
L 151.358166 259.816735 
L 152.05041 268.744464 
L 152.743731 259.549811 
L 153.435969 244.447549 
L 154.128206 216.900637 
L 155.510224 136.457558 
L 156.20247 104.585754 
L 156.894699 90.930415 
M 158.279343 114.499972 
L 158.97158 155.17112 
L 159.663852 202.718441 
L 160.356055 241.012769 
L 161.051271 268.011541 
L 161.743508 279.728614 
L 162.435745 273.847492 
L 163.127989 251.404791 
L 163.818557 221.23311 
L 164.510795 182.088466 
M 165.895269 111.071995 
L 166.586145 105.076214 
L 167.278382 112.557957 
L 167.970626 132.033682 
L 170.048694 233.465888 
L 171.433168 265.969369 
L 172.125831 258.666653 
L 172.818048 237.562246 
L 173.510286 207.813168 
L 174.892987 126.416428 
L 175.585225 99.48889 
L 176.277462 88.604639 
L 176.969699 95.607024 
L 177.662487 120.607382 
L 178.354724 155.734413 
L 179.046962 201.374849 
L 179.739205 237.764765 
L 180.434067 264.769267 
L 181.126297 278.299446 
L 181.818534 265.861556 
L 183.200632 212.825065 
L 184.585113 127.500991 
L 185.2776 109.906053 
L 185.969588 108.253731 
L 186.661455 134.002059 
L 188.738167 266.656267 
M 191.509762 208.952718 
L 192.199235 165.148691 
L 192.891481 128.886304 
L 193.583718 108.729655 
L 194.275953 99.881709 
L 194.967935 112.967447 
L 195.660172 140.805197 
M 197.044646 225.222517 
L 197.738917 251.920506 
L 198.431154 256.955383 
L 199.123391 260.584809 
L 199.815628 249.766657 
L 200.508823 220.192725 
L 201.893304 142.497141 
L 202.585541 111.611903 
L 203.275538 89.526015 
L 203.967776 82.871017 
L 204.660013 93.27936 
L 205.35225 124.350113 
L 207.429146 237.739372 
L 208.121383 258.863596 
L 208.815873 263.126031 
L 209.50811 247.146238 
L 212.276099 136.020995 
L 212.968342 123.218259 
L 213.66058 123.51103 
L 214.351919 137.169334 
L 215.736393 196.389101 
L 217.120874 263.274284 
L 217.814995 276.178139 
L 218.507232 279.42368 
L 219.199469 263.848946 
L 219.891706 236.482003 
L 221.969824 129.195259 
L 222.661681 111.775857 
L 223.354881 109.704374 
L 224.047124 111.800408 
L 224.739362 117.506038 
L 225.431599 125.412224 
L 226.123329 144.253185 
L 228.200041 222.111327 
L 228.892598 246.211593 
L 229.584835 276.296338 
L 230.277072 290.264934 
L 230.96931 289.466182 
L 232.35419 270.730039 
L 233.046427 253.656392 
L 233.738664 227.687613 
L 235.126562 161.241455 
L 236.511036 101.871337 
L 237.205725 70.302003 
L 237.897963 55.101024 
L 238.5902 56.835218 
L 239.282437 78.573662 
M 240.658539 105.595389 
L 242.043013 153.746156 
L 242.735331 187.462305 
L 244.119806 268.734306 
L 244.812043 292.205519 
L 245.504977 293.28192 
L 247.581686 252.729909 
L 248.274878 246.954678 
L 248.967115 233.119677 
L 250.351589 187.075979 
L 252.429009 103.634957 
L 253.81349 81.003845 
L 254.500718 80.759073 
L 255.192947 89.510383 
L 255.885192 99.897304 
L 256.577429 113.485635 
L 257.269926 142.987355 
L 258.6544 185.362931 
L 259.346637 198.908251 
L 260.040695 208.849006 
L 260.732932 220.469831 
L 262.117406 254.509982 
L 262.80931 264.858224 
L 263.501547 264.048637 
L 264.193784 257.814532 
L 264.886021 245.657273 
L 265.576308 221.049911 
L 266.268553 200.51985 
M 268.344813 183.60675 
L 269.03705 179.912571 
M 273.886626 160.365158 
L 274.578864 168.474957 
M 280.11432 218.00216 
L 280.806557 221.591902 
M 291.190092 213.402648 
L 291.882329 226.745934 
M 296.728311 215.205552 
L 297.420548 249.459722 
M 305.72952 208.335052 
L 306.421757 219.673619 
L 307.114493 228.872726 
M 308.496983 227.811142 
L 309.18922 204.538692 
M 316.803859 267.203604 
L 317.496096 262.838115 
L 318.880571 207.291348 
M 323.726858 159.845023 
L 325.112821 150.23693 
L 325.805058 155.727343 
L 326.497302 166.571828 
M 328.576974 229.802044 
L 329.269218 231.34167 
M 330.653469 217.060432 
L 331.346218 212.468324 
L 332.037944 206.300657 
L 332.730181 197.65666 
L 333.422638 191.034198 
L 334.114875 172.155292 
L 334.807119 163.709353 
M 339.651661 203.584523 
L 340.343899 196.437237 
L 341.036136 187.094574 
L 341.726718 185.526123 
L 342.418955 187.092275 
L 343.111192 187.301247 
L 343.803429 194.659747 
M 345.877414 198.035854 
L 346.569651 194.408828 
M 354.184019 251.102487 
L 354.87625 245.561746 
M 357.647653 162.134721 
L 358.33989 151.810174 
L 359.029714 149.011646 
L 359.721951 152.563754 
M 362.491511 181.737744 
L 363.875985 221.046917 
M 366.6451 196.761068 
L 367.338052 193.099811 
M 368.722533 205.333924 
L 369.41477 210.206885 
L 370.107983 211.229109 
L 371.492457 184.751201 
M 374.262395 157.933524 
L 374.95463 160.098081 
L 375.647823 168.953414 
L 376.34006 182.470791 
M 383.260573 158.867167 
L 383.952811 167.742188 
L 384.644637 174.48625 
M 388.104412 173.082895 
L 388.796657 161.864127 
L 389.488894 157.047732 
L 390.179932 159.221299 
L 390.872169 168.029449 
L 391.564426 171.668384 
L 391.564426 171.668384 
" style="fill:none;stroke:#0000ff;stroke-linecap:square;"/>
   </g>
   <g id="line2d_131">
    <path clip-path="url(#p41e5f862aa)" d="M 266.960791 188.871639 
L 267.653028 186.358122 
M 269.729287 178.347237 
L 270.421524 167.699872 
L 271.116285 165.581281 
L 271.808522 171.166104 
L 272.500759 172.487317 
L 273.192996 165.87907 
M 275.271101 187.259485 
L 275.963338 202.097732 
L 276.655785 214.537828 
L 278.040266 224.14835 
L 278.732503 218.650796 
L 279.422083 216.409036 
M 281.498794 222.006722 
L 282.192431 216.077942 
L 282.885262 189.981062 
L 283.576905 154.408164 
L 284.269143 134.578568 
L 284.961386 134.346533 
M 287.729008 180.596574 
L 288.421904 187.85269 
L 289.806385 200.017722 
L 290.498622 204.873762 
M 292.574566 228.104754 
L 293.961207 190.349427 
L 294.653451 175.361276 
L 295.345682 165.594414 
L 296.037925 178.033417 
M 299.500625 228.68673 
L 300.192862 196.780921 
L 300.885099 180.375296 
L 301.577343 173.530966 
M 302.959621 176.772578 
L 303.651864 183.101019 
L 304.344095 194.708088 
L 305.037283 199.247201 
M 309.881458 181.740243 
L 310.575802 166.782113 
L 311.268039 162.608353 
L 311.960277 163.128179 
L 312.65252 173.617194 
L 313.343492 189.268008 
L 314.035729 197.80114 
L 314.727973 212.471592 
M 319.576584 187.284196 
L 320.268821 175.835062 
L 320.961058 174.636948 
L 321.653295 175.866374 
L 322.342377 173.648594 
L 323.034614 166.041471 
M 327.189539 193.974719 
L 327.884744 219.096827 
M 335.499356 169.260931 
L 336.882856 201.317732 
L 337.575094 211.644909 
M 344.492933 197.935666 
L 345.18517 197.17977 
M 348.646226 164.934579 
L 349.338463 154.154375 
L 350.0307 158.679904 
L 350.722267 173.571461 
L 351.414505 180.574387 
L 352.106742 191.161784 
L 352.798979 218.537371 
L 353.491776 241.507356 
M 355.569124 218.673837 
L 356.26317 193.675263 
L 356.955416 174.824456 
M 360.414189 159.379703 
L 361.106426 164.808603 
L 361.799274 172.498022 
M 377.032291 186.532382 
L 377.724534 195.857765 
M 381.184476 168.904905 
L 381.876099 155.548886 
L 382.568336 153.113507 
M 385.336874 186.154683 
L 386.029111 192.430609 
L 386.721348 188.130122 
L 387.412183 182.428763 
M 392.256643 180.851894 
L 392.948735 175.84597 
L 393.640972 167.157045 
L 394.333209 166.039702 
L 395.025447 168.171093 
L 395.717867 168.428475 
L 397.102341 178.615986 
L 397.794578 182.278882 
L 398.487273 182.29238 
L 398.487273 182.29238 
" style="fill:none;stroke:#008000;stroke-linecap:square;"/>
   </g>
   <g id="patch_3">
    <path d="M 57.6 307.584 
L 57.6 41.472 
" style="fill:none;stroke:#000000;stroke-linecap:square;stroke-linejoin:miter;stroke-width:0.8;"/>
   </g>
   <g id="patch_4">
    <path d="M 414.72 307.584 
L 414.72 41.472 
" style="fill:none;stroke:#000000;stroke-linecap:square;stroke-linejoin:miter;stroke-width:0.8;"/>
   </g>
   <g id="patch_5">
    <path d="M 57.6 307.584 
L 414.72 307.584 
" style="fill:none;stroke:#000000;stroke-linecap:square;stroke-linejoin:miter;stroke-width:0.8;"/>
   </g>
   <g id="patch_6">
    <path d="M 57.6 41.472 
L 414.72 41.472 
" style="fill:none;stroke:#000000;stroke-linecap:square;stroke-linejoin:miter;stroke-width:0.8;"/>
   </g>
   <g id="text_15">
    <!-- Rel Gt Trans Y Plot -->
    <defs>
     <path d="M 44.390625 34.1875 
Q 47.5625 33.109375 50.5625 29.59375 
Q 53.5625 26.078125 56.59375 19.921875 
L 66.609375 0 
L 56 0 
L 46.6875 18.703125 
Q 43.0625 26.03125 39.671875 28.421875 
Q 36.28125 30.8125 30.421875 30.8125 
L 19.671875 30.8125 
L 19.671875 0 
L 9.8125 0 
L 9.8125 72.90625 
L 32.078125 72.90625 
Q 44.578125 72.90625 50.734375 67.671875 
Q 56.890625 62.453125 56.890625 51.90625 
Q 56.890625 45.015625 53.6875 40.46875 
Q 50.484375 35.9375 44.390625 34.1875 
z
M 19.671875 64.796875 
L 19.671875 38.921875 
L 32.078125 38.921875 
Q 39.203125 38.921875 42.84375 42.21875 
Q 46.484375 45.515625 46.484375 51.90625 
Q 46.484375 58.296875 42.84375 61.546875 
Q 39.203125 64.796875 32.078125 64.796875 
z
" id="DejaVuSans-52"/>
     <path d="M 9.421875 75.984375 
L 18.40625 75.984375 
L 18.40625 0 
L 9.421875 0 
z
" id="DejaVuSans-6c"/>
     <path d="M 59.515625 10.40625 
L 59.515625 29.984375 
L 43.40625 29.984375 
L 43.40625 38.09375 
L 69.28125 38.09375 
L 69.28125 6.78125 
Q 63.578125 2.734375 56.6875 0.65625 
Q 49.8125 -1.421875 42 -1.421875 
Q 24.90625 -1.421875 15.25 8.5625 
Q 5.609375 18.5625 5.609375 36.375 
Q 5.609375 54.25 15.25 64.234375 
Q 24.90625 74.21875 42 74.21875 
Q 49.125 74.21875 55.546875 72.453125 
Q 61.96875 70.703125 67.390625 67.28125 
L 67.390625 56.78125 
Q 61.921875 61.421875 55.765625 63.765625 
Q 49.609375 66.109375 42.828125 66.109375 
Q 29.4375 66.109375 22.71875 58.640625 
Q 16.015625 51.171875 16.015625 36.375 
Q 16.015625 21.625 22.71875 14.15625 
Q 29.4375 6.6875 42.828125 6.6875 
Q 48.046875 6.6875 52.140625 7.59375 
Q 56.25 8.5 59.515625 10.40625 
z
" id="DejaVuSans-47"/>
     <path d="M -0.296875 72.90625 
L 61.375 72.90625 
L 61.375 64.59375 
L 35.5 64.59375 
L 35.5 0 
L 25.59375 0 
L 25.59375 64.59375 
L -0.296875 64.59375 
z
" id="DejaVuSans-54"/>
     <path d="M -0.203125 72.90625 
L 10.40625 72.90625 
L 30.609375 42.921875 
L 50.6875 72.90625 
L 61.28125 72.90625 
L 35.5 34.71875 
L 35.5 0 
L 25.59375 0 
L 25.59375 34.71875 
z
" id="DejaVuSans-59"/>
     <path d="M 19.671875 64.796875 
L 19.671875 37.40625 
L 32.078125 37.40625 
Q 38.96875 37.40625 42.71875 40.96875 
Q 46.484375 44.53125 46.484375 51.125 
Q 46.484375 57.671875 42.71875 61.234375 
Q 38.96875 64.796875 32.078125 64.796875 
z
M 9.8125 72.90625 
L 32.078125 72.90625 
Q 44.34375 72.90625 50.609375 67.359375 
Q 56.890625 61.8125 56.890625 51.125 
Q 56.890625 40.328125 50.609375 34.8125 
Q 44.34375 29.296875 32.078125 29.296875 
L 19.671875 29.296875 
L 19.671875 0 
L 9.8125 0 
z
" id="DejaVuSans-50"/>
     <path d="M 30.609375 48.390625 
Q 23.390625 48.390625 19.1875 42.75 
Q 14.984375 37.109375 14.984375 27.296875 
Q 14.984375 17.484375 19.15625 11.84375 
Q 23.34375 6.203125 30.609375 6.203125 
Q 37.796875 6.203125 41.984375 11.859375 
Q 46.1875 17.53125 46.1875 27.296875 
Q 46.1875 37.015625 41.984375 42.703125 
Q 37.796875 48.390625 30.609375 48.390625 
z
M 30.609375 56 
Q 42.328125 56 49.015625 48.375 
Q 55.71875 40.765625 55.71875 27.296875 
Q 55.71875 13.875 49.015625 6.21875 
Q 42.328125 -1.421875 30.609375 -1.421875 
Q 18.84375 -1.421875 12.171875 6.21875 
Q 5.515625 13.875 5.515625 27.296875 
Q 5.515625 40.765625 12.171875 48.375 
Q 18.84375 56 30.609375 56 
z
" id="DejaVuSans-6f"/>
    </defs>
    <g transform="translate(180.31125 35.472)scale(0.12 -0.12)">
     <use xlink:href="#DejaVuSans-52"/>
     <use x="69.419922" xlink:href="#DejaVuSans-65"/>
     <use x="130.943359" xlink:href="#DejaVuSans-6c"/>
     <use x="158.726562" xlink:href="#DejaVuSans-20"/>
     <use x="190.513672" xlink:href="#DejaVuSans-47"/>
     <use x="268.003906" xlink:href="#DejaVuSans-74"/>
     <use x="307.212891" xlink:href="#DejaVuSans-20"/>
     <use x="339" xlink:href="#DejaVuSans-54"/>
     <use x="399.865234" xlink:href="#DejaVuSans-72"/>
     <use x="440.978516" xlink:href="#DejaVuSans-61"/>
     <use x="502.257812" xlink:href="#DejaVuSans-6e"/>
     <use x="565.636719" xlink:href="#DejaVuSans-73"/>
     <use x="617.736328" xlink:href="#DejaVuSans-20"/>
     <use x="649.523438" xlink:href="#DejaVuSans-59"/>
     <use x="710.607422" xlink:href="#DejaVuSans-20"/>
     <use x="742.394531" xlink:href="#DejaVuSans-50"/>
     <use x="802.697266" xlink:href="#DejaVuSans-6c"/>
     <use x="830.480469" xlink:href="#DejaVuSans-6f"/>
     <use x="891.662109" xlink:href="#DejaVuSans-74"/>
    </g>
   </g>
  </g>
 </g>
 <defs>
  <clipPath id="p41e5f862aa">
   <rect height="266.112" width="357.12" x="57.6" y="41.472"/>
  </clipPath>
 </defs>
</svg>
