<?xml version="1.0" encoding="utf-8" standalone="no"?>
<!DOCTYPE svg PUBLIC "-//W3C//DTD SVG 1.1//EN"
  "http://www.w3.org/Graphics/SVG/1.1/DTD/svg11.dtd">
<!-- Created with matplotlib (http://matplotlib.org/) -->
<svg height="345.6pt" version="1.1" viewBox="0 0 460.8 345.6" width="460.8pt" xmlns="http://www.w3.org/2000/svg" xmlns:xlink="http://www.w3.org/1999/xlink">
 <defs>
  <style type="text/css">
*{stroke-linecap:butt;stroke-linejoin:round;}
  </style>
 </defs>
 <g id="figure_1">
  <g id="patch_1">
   <path d="M 0 345.6 
L 460.8 345.6 
L 460.8 0 
L 0 0 
z
" style="fill:#ffffff;"/>
  </g>
  <g id="axes_1">
   <g id="patch_2">
    <path d="M 57.6 307.584 
L 414.72 307.584 
L 414.72 41.472 
L 57.6 41.472 
z
" style="fill:#ffffff;"/>
   </g>
   <g id="matplotlib.axis_1">
    <g id="xtick_1">
     <g id="line2d_1">
      <path clip-path="url(#p0a79499976)" d="M 70.555248 307.584 
L 70.555248 41.472 
" style="fill:none;stroke:#b0b0b0;stroke-linecap:square;stroke-width:0.8;"/>
     </g>
     <g id="line2d_2">
      <defs>
       <path d="M 0 0 
L 0 3.5 
" id="m6fca62cae3" style="stroke:#000000;stroke-width:0.8;"/>
      </defs>
      <g>
       <use style="stroke:#000000;stroke-width:0.8;" x="70.555248" xlink:href="#m6fca62cae3" y="307.584"/>
      </g>
     </g>
     <g id="text_1">
      <!-- 0 -->
      <defs>
       <path d="M 31.78125 66.40625 
Q 24.171875 66.40625 20.328125 58.90625 
Q 16.5 51.421875 16.5 36.375 
Q 16.5 21.390625 20.328125 13.890625 
Q 24.171875 6.390625 31.78125 6.390625 
Q 39.453125 6.390625 43.28125 13.890625 
Q 47.125 21.390625 47.125 36.375 
Q 47.125 51.421875 43.28125 58.90625 
Q 39.453125 66.40625 31.78125 66.40625 
z
M 31.78125 74.21875 
Q 44.046875 74.21875 50.515625 64.515625 
Q 56.984375 54.828125 56.984375 36.375 
Q 56.984375 17.96875 50.515625 8.265625 
Q 44.046875 -1.421875 31.78125 -1.421875 
Q 19.53125 -1.421875 13.0625 8.265625 
Q 6.59375 17.96875 6.59375 36.375 
Q 6.59375 54.828125 13.0625 64.515625 
Q 19.53125 74.21875 31.78125 74.21875 
z
" id="DejaVuSans-30"/>
      </defs>
      <g transform="translate(67.373998 322.182437)scale(0.1 -0.1)">
       <use xlink:href="#DejaVuSans-30"/>
      </g>
     </g>
    </g>
    <g id="xtick_2">
     <g id="line2d_3">
      <path clip-path="url(#p0a79499976)" d="M 139.776886 307.584 
L 139.776886 41.472 
" style="fill:none;stroke:#b0b0b0;stroke-linecap:square;stroke-width:0.8;"/>
     </g>
     <g id="line2d_4">
      <g>
       <use style="stroke:#000000;stroke-width:0.8;" x="139.776886" xlink:href="#m6fca62cae3" y="307.584"/>
      </g>
     </g>
     <g id="text_2">
      <!-- 10 -->
      <defs>
       <path d="M 12.40625 8.296875 
L 28.515625 8.296875 
L 28.515625 63.921875 
L 10.984375 60.40625 
L 10.984375 69.390625 
L 28.421875 72.90625 
L 38.28125 72.90625 
L 38.28125 8.296875 
L 54.390625 8.296875 
L 54.390625 0 
L 12.40625 0 
z
" id="DejaVuSans-31"/>
      </defs>
      <g transform="translate(133.414386 322.182437)scale(0.1 -0.1)">
       <use xlink:href="#DejaVuSans-31"/>
       <use x="63.623047" xlink:href="#DejaVuSans-30"/>
      </g>
     </g>
    </g>
    <g id="xtick_3">
     <g id="line2d_5">
      <path clip-path="url(#p0a79499976)" d="M 208.998523 307.584 
L 208.998523 41.472 
" style="fill:none;stroke:#b0b0b0;stroke-linecap:square;stroke-width:0.8;"/>
     </g>
     <g id="line2d_6">
      <g>
       <use style="stroke:#000000;stroke-width:0.8;" x="208.998523" xlink:href="#m6fca62cae3" y="307.584"/>
      </g>
     </g>
     <g id="text_3">
      <!-- 20 -->
      <defs>
       <path d="M 19.1875 8.296875 
L 53.609375 8.296875 
L 53.609375 0 
L 7.328125 0 
L 7.328125 8.296875 
Q 12.9375 14.109375 22.625 23.890625 
Q 32.328125 33.6875 34.8125 36.53125 
Q 39.546875 41.84375 41.421875 45.53125 
Q 43.3125 49.21875 43.3125 52.78125 
Q 43.3125 58.59375 39.234375 62.25 
Q 35.15625 65.921875 28.609375 65.921875 
Q 23.96875 65.921875 18.8125 64.3125 
Q 13.671875 62.703125 7.8125 59.421875 
L 7.8125 69.390625 
Q 13.765625 71.78125 18.9375 73 
Q 24.125 74.21875 28.421875 74.21875 
Q 39.75 74.21875 46.484375 68.546875 
Q 53.21875 62.890625 53.21875 53.421875 
Q 53.21875 48.921875 51.53125 44.890625 
Q 49.859375 40.875 45.40625 35.40625 
Q 44.1875 33.984375 37.640625 27.21875 
Q 31.109375 20.453125 19.1875 8.296875 
z
" id="DejaVuSans-32"/>
      </defs>
      <g transform="translate(202.636023 322.182437)scale(0.1 -0.1)">
       <use xlink:href="#DejaVuSans-32"/>
       <use x="63.623047" xlink:href="#DejaVuSans-30"/>
      </g>
     </g>
    </g>
    <g id="xtick_4">
     <g id="line2d_7">
      <path clip-path="url(#p0a79499976)" d="M 278.220161 307.584 
L 278.220161 41.472 
" style="fill:none;stroke:#b0b0b0;stroke-linecap:square;stroke-width:0.8;"/>
     </g>
     <g id="line2d_8">
      <g>
       <use style="stroke:#000000;stroke-width:0.8;" x="278.220161" xlink:href="#m6fca62cae3" y="307.584"/>
      </g>
     </g>
     <g id="text_4">
      <!-- 30 -->
      <defs>
       <path d="M 40.578125 39.3125 
Q 47.65625 37.796875 51.625 33 
Q 55.609375 28.21875 55.609375 21.1875 
Q 55.609375 10.40625 48.1875 4.484375 
Q 40.765625 -1.421875 27.09375 -1.421875 
Q 22.515625 -1.421875 17.65625 -0.515625 
Q 12.796875 0.390625 7.625 2.203125 
L 7.625 11.71875 
Q 11.71875 9.328125 16.59375 8.109375 
Q 21.484375 6.890625 26.8125 6.890625 
Q 36.078125 6.890625 40.9375 10.546875 
Q 45.796875 14.203125 45.796875 21.1875 
Q 45.796875 27.640625 41.28125 31.265625 
Q 36.765625 34.90625 28.71875 34.90625 
L 20.21875 34.90625 
L 20.21875 43.015625 
L 29.109375 43.015625 
Q 36.375 43.015625 40.234375 45.921875 
Q 44.09375 48.828125 44.09375 54.296875 
Q 44.09375 59.90625 40.109375 62.90625 
Q 36.140625 65.921875 28.71875 65.921875 
Q 24.65625 65.921875 20.015625 65.03125 
Q 15.375 64.15625 9.8125 62.3125 
L 9.8125 71.09375 
Q 15.4375 72.65625 20.34375 73.4375 
Q 25.25 74.21875 29.59375 74.21875 
Q 40.828125 74.21875 47.359375 69.109375 
Q 53.90625 64.015625 53.90625 55.328125 
Q 53.90625 49.265625 50.4375 45.09375 
Q 46.96875 40.921875 40.578125 39.3125 
z
" id="DejaVuSans-33"/>
      </defs>
      <g transform="translate(271.857661 322.182437)scale(0.1 -0.1)">
       <use xlink:href="#DejaVuSans-33"/>
       <use x="63.623047" xlink:href="#DejaVuSans-30"/>
      </g>
     </g>
    </g>
    <g id="xtick_5">
     <g id="line2d_9">
      <path clip-path="url(#p0a79499976)" d="M 347.441799 307.584 
L 347.441799 41.472 
" style="fill:none;stroke:#b0b0b0;stroke-linecap:square;stroke-width:0.8;"/>
     </g>
     <g id="line2d_10">
      <g>
       <use style="stroke:#000000;stroke-width:0.8;" x="347.441799" xlink:href="#m6fca62cae3" y="307.584"/>
      </g>
     </g>
     <g id="text_5">
      <!-- 40 -->
      <defs>
       <path d="M 37.796875 64.3125 
L 12.890625 25.390625 
L 37.796875 25.390625 
z
M 35.203125 72.90625 
L 47.609375 72.90625 
L 47.609375 25.390625 
L 58.015625 25.390625 
L 58.015625 17.1875 
L 47.609375 17.1875 
L 47.609375 0 
L 37.796875 0 
L 37.796875 17.1875 
L 4.890625 17.1875 
L 4.890625 26.703125 
z
" id="DejaVuSans-34"/>
      </defs>
      <g transform="translate(341.079299 322.182437)scale(0.1 -0.1)">
       <use xlink:href="#DejaVuSans-34"/>
       <use x="63.623047" xlink:href="#DejaVuSans-30"/>
      </g>
     </g>
    </g>
    <g id="xtick_6">
     <g id="line2d_11">
      <path clip-path="url(#p0a79499976)" d="M 84.399575 307.584 
L 84.399575 41.472 
" style="fill:none;stroke:#b0b0b0;stroke-linecap:square;stroke-width:0.8;"/>
     </g>
     <g id="line2d_12">
      <defs>
       <path d="M 0 0 
L 0 2 
" id="maab4eee115" style="stroke:#000000;stroke-width:0.6;"/>
      </defs>
      <g>
       <use style="stroke:#000000;stroke-width:0.6;" x="84.399575" xlink:href="#maab4eee115" y="307.584"/>
      </g>
     </g>
    </g>
    <g id="xtick_7">
     <g id="line2d_13">
      <path clip-path="url(#p0a79499976)" d="M 98.243903 307.584 
L 98.243903 41.472 
" style="fill:none;stroke:#b0b0b0;stroke-linecap:square;stroke-width:0.8;"/>
     </g>
     <g id="line2d_14">
      <g>
       <use style="stroke:#000000;stroke-width:0.6;" x="98.243903" xlink:href="#maab4eee115" y="307.584"/>
      </g>
     </g>
    </g>
    <g id="xtick_8">
     <g id="line2d_15">
      <path clip-path="url(#p0a79499976)" d="M 112.08823 307.584 
L 112.08823 41.472 
" style="fill:none;stroke:#b0b0b0;stroke-linecap:square;stroke-width:0.8;"/>
     </g>
     <g id="line2d_16">
      <g>
       <use style="stroke:#000000;stroke-width:0.6;" x="112.08823" xlink:href="#maab4eee115" y="307.584"/>
      </g>
     </g>
    </g>
    <g id="xtick_9">
     <g id="line2d_17">
      <path clip-path="url(#p0a79499976)" d="M 125.932558 307.584 
L 125.932558 41.472 
" style="fill:none;stroke:#b0b0b0;stroke-linecap:square;stroke-width:0.8;"/>
     </g>
     <g id="line2d_18">
      <g>
       <use style="stroke:#000000;stroke-width:0.6;" x="125.932558" xlink:href="#maab4eee115" y="307.584"/>
      </g>
     </g>
    </g>
    <g id="xtick_10">
     <g id="line2d_19">
      <path clip-path="url(#p0a79499976)" d="M 153.621213 307.584 
L 153.621213 41.472 
" style="fill:none;stroke:#b0b0b0;stroke-linecap:square;stroke-width:0.8;"/>
     </g>
     <g id="line2d_20">
      <g>
       <use style="stroke:#000000;stroke-width:0.6;" x="153.621213" xlink:href="#maab4eee115" y="307.584"/>
      </g>
     </g>
    </g>
    <g id="xtick_11">
     <g id="line2d_21">
      <path clip-path="url(#p0a79499976)" d="M 167.465541 307.584 
L 167.465541 41.472 
" style="fill:none;stroke:#b0b0b0;stroke-linecap:square;stroke-width:0.8;"/>
     </g>
     <g id="line2d_22">
      <g>
       <use style="stroke:#000000;stroke-width:0.6;" x="167.465541" xlink:href="#maab4eee115" y="307.584"/>
      </g>
     </g>
    </g>
    <g id="xtick_12">
     <g id="line2d_23">
      <path clip-path="url(#p0a79499976)" d="M 181.309868 307.584 
L 181.309868 41.472 
" style="fill:none;stroke:#b0b0b0;stroke-linecap:square;stroke-width:0.8;"/>
     </g>
     <g id="line2d_24">
      <g>
       <use style="stroke:#000000;stroke-width:0.6;" x="181.309868" xlink:href="#maab4eee115" y="307.584"/>
      </g>
     </g>
    </g>
    <g id="xtick_13">
     <g id="line2d_25">
      <path clip-path="url(#p0a79499976)" d="M 195.154196 307.584 
L 195.154196 41.472 
" style="fill:none;stroke:#b0b0b0;stroke-linecap:square;stroke-width:0.8;"/>
     </g>
     <g id="line2d_26">
      <g>
       <use style="stroke:#000000;stroke-width:0.6;" x="195.154196" xlink:href="#maab4eee115" y="307.584"/>
      </g>
     </g>
    </g>
    <g id="xtick_14">
     <g id="line2d_27">
      <path clip-path="url(#p0a79499976)" d="M 222.842851 307.584 
L 222.842851 41.472 
" style="fill:none;stroke:#b0b0b0;stroke-linecap:square;stroke-width:0.8;"/>
     </g>
     <g id="line2d_28">
      <g>
       <use style="stroke:#000000;stroke-width:0.6;" x="222.842851" xlink:href="#maab4eee115" y="307.584"/>
      </g>
     </g>
    </g>
    <g id="xtick_15">
     <g id="line2d_29">
      <path clip-path="url(#p0a79499976)" d="M 236.687178 307.584 
L 236.687178 41.472 
" style="fill:none;stroke:#b0b0b0;stroke-linecap:square;stroke-width:0.8;"/>
     </g>
     <g id="line2d_30">
      <g>
       <use style="stroke:#000000;stroke-width:0.6;" x="236.687178" xlink:href="#maab4eee115" y="307.584"/>
      </g>
     </g>
    </g>
    <g id="xtick_16">
     <g id="line2d_31">
      <path clip-path="url(#p0a79499976)" d="M 250.531506 307.584 
L 250.531506 41.472 
" style="fill:none;stroke:#b0b0b0;stroke-linecap:square;stroke-width:0.8;"/>
     </g>
     <g id="line2d_32">
      <g>
       <use style="stroke:#000000;stroke-width:0.6;" x="250.531506" xlink:href="#maab4eee115" y="307.584"/>
      </g>
     </g>
    </g>
    <g id="xtick_17">
     <g id="line2d_33">
      <path clip-path="url(#p0a79499976)" d="M 264.375834 307.584 
L 264.375834 41.472 
" style="fill:none;stroke:#b0b0b0;stroke-linecap:square;stroke-width:0.8;"/>
     </g>
     <g id="line2d_34">
      <g>
       <use style="stroke:#000000;stroke-width:0.6;" x="264.375834" xlink:href="#maab4eee115" y="307.584"/>
      </g>
     </g>
    </g>
    <g id="xtick_18">
     <g id="line2d_35">
      <path clip-path="url(#p0a79499976)" d="M 292.064489 307.584 
L 292.064489 41.472 
" style="fill:none;stroke:#b0b0b0;stroke-linecap:square;stroke-width:0.8;"/>
     </g>
     <g id="line2d_36">
      <g>
       <use style="stroke:#000000;stroke-width:0.6;" x="292.064489" xlink:href="#maab4eee115" y="307.584"/>
      </g>
     </g>
    </g>
    <g id="xtick_19">
     <g id="line2d_37">
      <path clip-path="url(#p0a79499976)" d="M 305.908816 307.584 
L 305.908816 41.472 
" style="fill:none;stroke:#b0b0b0;stroke-linecap:square;stroke-width:0.8;"/>
     </g>
     <g id="line2d_38">
      <g>
       <use style="stroke:#000000;stroke-width:0.6;" x="305.908816" xlink:href="#maab4eee115" y="307.584"/>
      </g>
     </g>
    </g>
    <g id="xtick_20">
     <g id="line2d_39">
      <path clip-path="url(#p0a79499976)" d="M 319.753144 307.584 
L 319.753144 41.472 
" style="fill:none;stroke:#b0b0b0;stroke-linecap:square;stroke-width:0.8;"/>
     </g>
     <g id="line2d_40">
      <g>
       <use style="stroke:#000000;stroke-width:0.6;" x="319.753144" xlink:href="#maab4eee115" y="307.584"/>
      </g>
     </g>
    </g>
    <g id="xtick_21">
     <g id="line2d_41">
      <path clip-path="url(#p0a79499976)" d="M 333.597471 307.584 
L 333.597471 41.472 
" style="fill:none;stroke:#b0b0b0;stroke-linecap:square;stroke-width:0.8;"/>
     </g>
     <g id="line2d_42">
      <g>
       <use style="stroke:#000000;stroke-width:0.6;" x="333.597471" xlink:href="#maab4eee115" y="307.584"/>
      </g>
     </g>
    </g>
    <g id="xtick_22">
     <g id="line2d_43">
      <path clip-path="url(#p0a79499976)" d="M 361.286127 307.584 
L 361.286127 41.472 
" style="fill:none;stroke:#b0b0b0;stroke-linecap:square;stroke-width:0.8;"/>
     </g>
     <g id="line2d_44">
      <g>
       <use style="stroke:#000000;stroke-width:0.6;" x="361.286127" xlink:href="#maab4eee115" y="307.584"/>
      </g>
     </g>
    </g>
    <g id="xtick_23">
     <g id="line2d_45">
      <path clip-path="url(#p0a79499976)" d="M 375.130454 307.584 
L 375.130454 41.472 
" style="fill:none;stroke:#b0b0b0;stroke-linecap:square;stroke-width:0.8;"/>
     </g>
     <g id="line2d_46">
      <g>
       <use style="stroke:#000000;stroke-width:0.6;" x="375.130454" xlink:href="#maab4eee115" y="307.584"/>
      </g>
     </g>
    </g>
    <g id="xtick_24">
     <g id="line2d_47">
      <path clip-path="url(#p0a79499976)" d="M 388.974782 307.584 
L 388.974782 41.472 
" style="fill:none;stroke:#b0b0b0;stroke-linecap:square;stroke-width:0.8;"/>
     </g>
     <g id="line2d_48">
      <g>
       <use style="stroke:#000000;stroke-width:0.6;" x="388.974782" xlink:href="#maab4eee115" y="307.584"/>
      </g>
     </g>
    </g>
    <g id="xtick_25">
     <g id="line2d_49">
      <path clip-path="url(#p0a79499976)" d="M 402.819109 307.584 
L 402.819109 41.472 
" style="fill:none;stroke:#b0b0b0;stroke-linecap:square;stroke-width:0.8;"/>
     </g>
     <g id="line2d_50">
      <g>
       <use style="stroke:#000000;stroke-width:0.6;" x="402.819109" xlink:href="#maab4eee115" y="307.584"/>
      </g>
     </g>
    </g>
    <g id="text_6">
     <!-- frame # [] -->
     <defs>
      <path d="M 37.109375 75.984375 
L 37.109375 68.5 
L 28.515625 68.5 
Q 23.6875 68.5 21.796875 66.546875 
Q 19.921875 64.59375 19.921875 59.515625 
L 19.921875 54.6875 
L 34.71875 54.6875 
L 34.71875 47.703125 
L 19.921875 47.703125 
L 19.921875 0 
L 10.890625 0 
L 10.890625 47.703125 
L 2.296875 47.703125 
L 2.296875 54.6875 
L 10.890625 54.6875 
L 10.890625 58.5 
Q 10.890625 67.625 15.140625 71.796875 
Q 19.390625 75.984375 28.609375 75.984375 
z
" id="DejaVuSans-66"/>
      <path d="M 41.109375 46.296875 
Q 39.59375 47.171875 37.8125 47.578125 
Q 36.03125 48 33.890625 48 
Q 26.265625 48 22.1875 43.046875 
Q 18.109375 38.09375 18.109375 28.8125 
L 18.109375 0 
L 9.078125 0 
L 9.078125 54.6875 
L 18.109375 54.6875 
L 18.109375 46.1875 
Q 20.953125 51.171875 25.484375 53.578125 
Q 30.03125 56 36.53125 56 
Q 37.453125 56 38.578125 55.875 
Q 39.703125 55.765625 41.0625 55.515625 
z
" id="DejaVuSans-72"/>
      <path d="M 34.28125 27.484375 
Q 23.390625 27.484375 19.1875 25 
Q 14.984375 22.515625 14.984375 16.5 
Q 14.984375 11.71875 18.140625 8.90625 
Q 21.296875 6.109375 26.703125 6.109375 
Q 34.1875 6.109375 38.703125 11.40625 
Q 43.21875 16.703125 43.21875 25.484375 
L 43.21875 27.484375 
z
M 52.203125 31.203125 
L 52.203125 0 
L 43.21875 0 
L 43.21875 8.296875 
Q 40.140625 3.328125 35.546875 0.953125 
Q 30.953125 -1.421875 24.3125 -1.421875 
Q 15.921875 -1.421875 10.953125 3.296875 
Q 6 8.015625 6 15.921875 
Q 6 25.140625 12.171875 29.828125 
Q 18.359375 34.515625 30.609375 34.515625 
L 43.21875 34.515625 
L 43.21875 35.40625 
Q 43.21875 41.609375 39.140625 45 
Q 35.0625 48.390625 27.6875 48.390625 
Q 23 48.390625 18.546875 47.265625 
Q 14.109375 46.140625 10.015625 43.890625 
L 10.015625 52.203125 
Q 14.9375 54.109375 19.578125 55.046875 
Q 24.21875 56 28.609375 56 
Q 40.484375 56 46.34375 49.84375 
Q 52.203125 43.703125 52.203125 31.203125 
z
" id="DejaVuSans-61"/>
      <path d="M 52 44.1875 
Q 55.375 50.25 60.0625 53.125 
Q 64.75 56 71.09375 56 
Q 79.640625 56 84.28125 50.015625 
Q 88.921875 44.046875 88.921875 33.015625 
L 88.921875 0 
L 79.890625 0 
L 79.890625 32.71875 
Q 79.890625 40.578125 77.09375 44.375 
Q 74.3125 48.1875 68.609375 48.1875 
Q 61.625 48.1875 57.5625 43.546875 
Q 53.515625 38.921875 53.515625 30.90625 
L 53.515625 0 
L 44.484375 0 
L 44.484375 32.71875 
Q 44.484375 40.625 41.703125 44.40625 
Q 38.921875 48.1875 33.109375 48.1875 
Q 26.21875 48.1875 22.15625 43.53125 
Q 18.109375 38.875 18.109375 30.90625 
L 18.109375 0 
L 9.078125 0 
L 9.078125 54.6875 
L 18.109375 54.6875 
L 18.109375 46.1875 
Q 21.1875 51.21875 25.484375 53.609375 
Q 29.78125 56 35.6875 56 
Q 41.65625 56 45.828125 52.96875 
Q 50 49.953125 52 44.1875 
z
" id="DejaVuSans-6d"/>
      <path d="M 56.203125 29.59375 
L 56.203125 25.203125 
L 14.890625 25.203125 
Q 15.484375 15.921875 20.484375 11.0625 
Q 25.484375 6.203125 34.421875 6.203125 
Q 39.59375 6.203125 44.453125 7.46875 
Q 49.3125 8.734375 54.109375 11.28125 
L 54.109375 2.78125 
Q 49.265625 0.734375 44.1875 -0.34375 
Q 39.109375 -1.421875 33.890625 -1.421875 
Q 20.796875 -1.421875 13.15625 6.1875 
Q 5.515625 13.8125 5.515625 26.8125 
Q 5.515625 40.234375 12.765625 48.109375 
Q 20.015625 56 32.328125 56 
Q 43.359375 56 49.78125 48.890625 
Q 56.203125 41.796875 56.203125 29.59375 
z
M 47.21875 32.234375 
Q 47.125 39.59375 43.09375 43.984375 
Q 39.0625 48.390625 32.421875 48.390625 
Q 24.90625 48.390625 20.390625 44.140625 
Q 15.875 39.890625 15.1875 32.171875 
z
" id="DejaVuSans-65"/>
      <path id="DejaVuSans-20"/>
      <path d="M 51.125 44 
L 36.921875 44 
L 32.8125 27.6875 
L 47.125 27.6875 
z
M 43.796875 71.78125 
L 38.71875 51.515625 
L 52.984375 51.515625 
L 58.109375 71.78125 
L 65.921875 71.78125 
L 60.890625 51.515625 
L 76.125 51.515625 
L 76.125 44 
L 58.984375 44 
L 54.984375 27.6875 
L 70.515625 27.6875 
L 70.515625 20.21875 
L 53.078125 20.21875 
L 48 0 
L 40.1875 0 
L 45.21875 20.21875 
L 30.90625 20.21875 
L 25.875 0 
L 18.015625 0 
L 23.09375 20.21875 
L 7.71875 20.21875 
L 7.71875 27.6875 
L 24.90625 27.6875 
L 29 44 
L 13.28125 44 
L 13.28125 51.515625 
L 30.90625 51.515625 
L 35.890625 71.78125 
z
" id="DejaVuSans-23"/>
      <path d="M 8.59375 75.984375 
L 29.296875 75.984375 
L 29.296875 69 
L 17.578125 69 
L 17.578125 -6.203125 
L 29.296875 -6.203125 
L 29.296875 -13.1875 
L 8.59375 -13.1875 
z
" id="DejaVuSans-5b"/>
      <path d="M 30.421875 75.984375 
L 30.421875 -13.1875 
L 9.71875 -13.1875 
L 9.71875 -6.203125 
L 21.390625 -6.203125 
L 21.390625 69 
L 9.71875 69 
L 9.71875 75.984375 
z
" id="DejaVuSans-5d"/>
     </defs>
     <g transform="translate(210.063906 335.860562)scale(0.1 -0.1)">
      <use xlink:href="#DejaVuSans-66"/>
      <use x="35.205078" xlink:href="#DejaVuSans-72"/>
      <use x="76.318359" xlink:href="#DejaVuSans-61"/>
      <use x="137.597656" xlink:href="#DejaVuSans-6d"/>
      <use x="235.009766" xlink:href="#DejaVuSans-65"/>
      <use x="296.533203" xlink:href="#DejaVuSans-20"/>
      <use x="328.320312" xlink:href="#DejaVuSans-23"/>
      <use x="412.109375" xlink:href="#DejaVuSans-20"/>
      <use x="443.896484" xlink:href="#DejaVuSans-5b"/>
      <use x="482.910156" xlink:href="#DejaVuSans-5d"/>
     </g>
    </g>
   </g>
   <g id="matplotlib.axis_2">
    <g id="ytick_1">
     <g id="line2d_51">
      <path clip-path="url(#p0a79499976)" d="M 57.6 295.652416 
L 414.72 295.652416 
" style="fill:none;stroke:#b0b0b0;stroke-linecap:square;stroke-width:0.8;"/>
     </g>
     <g id="line2d_52">
      <defs>
       <path d="M 0 0 
L -3.5 0 
" id="m9f5e792cd2" style="stroke:#000000;stroke-width:0.8;"/>
      </defs>
      <g>
       <use style="stroke:#000000;stroke-width:0.8;" x="57.6" xlink:href="#m9f5e792cd2" y="295.652416"/>
      </g>
     </g>
     <g id="text_7">
      <!-- −0.10 -->
      <defs>
       <path d="M 10.59375 35.5 
L 73.1875 35.5 
L 73.1875 27.203125 
L 10.59375 27.203125 
z
" id="DejaVuSans-2212"/>
       <path d="M 10.6875 12.40625 
L 21 12.40625 
L 21 0 
L 10.6875 0 
z
" id="DejaVuSans-2e"/>
      </defs>
      <g transform="translate(19.954687 299.451635)scale(0.1 -0.1)">
       <use xlink:href="#DejaVuSans-2212"/>
       <use x="83.789062" xlink:href="#DejaVuSans-30"/>
       <use x="147.412109" xlink:href="#DejaVuSans-2e"/>
       <use x="179.199219" xlink:href="#DejaVuSans-31"/>
       <use x="242.822266" xlink:href="#DejaVuSans-30"/>
      </g>
     </g>
    </g>
    <g id="ytick_2">
     <g id="line2d_53">
      <path clip-path="url(#p0a79499976)" d="M 57.6 240.884417 
L 414.72 240.884417 
" style="fill:none;stroke:#b0b0b0;stroke-linecap:square;stroke-width:0.8;"/>
     </g>
     <g id="line2d_54">
      <g>
       <use style="stroke:#000000;stroke-width:0.8;" x="57.6" xlink:href="#m9f5e792cd2" y="240.884417"/>
      </g>
     </g>
     <g id="text_8">
      <!-- −0.05 -->
      <defs>
       <path d="M 10.796875 72.90625 
L 49.515625 72.90625 
L 49.515625 64.59375 
L 19.828125 64.59375 
L 19.828125 46.734375 
Q 21.96875 47.46875 24.109375 47.828125 
Q 26.265625 48.1875 28.421875 48.1875 
Q 40.625 48.1875 47.75 41.5 
Q 54.890625 34.8125 54.890625 23.390625 
Q 54.890625 11.625 47.5625 5.09375 
Q 40.234375 -1.421875 26.90625 -1.421875 
Q 22.3125 -1.421875 17.546875 -0.640625 
Q 12.796875 0.140625 7.71875 1.703125 
L 7.71875 11.625 
Q 12.109375 9.234375 16.796875 8.0625 
Q 21.484375 6.890625 26.703125 6.890625 
Q 35.15625 6.890625 40.078125 11.328125 
Q 45.015625 15.765625 45.015625 23.390625 
Q 45.015625 31 40.078125 35.4375 
Q 35.15625 39.890625 26.703125 39.890625 
Q 22.75 39.890625 18.8125 39.015625 
Q 14.890625 38.140625 10.796875 36.28125 
z
" id="DejaVuSans-35"/>
      </defs>
      <g transform="translate(19.954687 244.683635)scale(0.1 -0.1)">
       <use xlink:href="#DejaVuSans-2212"/>
       <use x="83.789062" xlink:href="#DejaVuSans-30"/>
       <use x="147.412109" xlink:href="#DejaVuSans-2e"/>
       <use x="179.199219" xlink:href="#DejaVuSans-30"/>
       <use x="242.822266" xlink:href="#DejaVuSans-35"/>
      </g>
     </g>
    </g>
    <g id="ytick_3">
     <g id="line2d_55">
      <path clip-path="url(#p0a79499976)" d="M 57.6 186.116417 
L 414.72 186.116417 
" style="fill:none;stroke:#b0b0b0;stroke-linecap:square;stroke-width:0.8;"/>
     </g>
     <g id="line2d_56">
      <g>
       <use style="stroke:#000000;stroke-width:0.8;" x="57.6" xlink:href="#m9f5e792cd2" y="186.116417"/>
      </g>
     </g>
     <g id="text_9">
      <!-- 0.00 -->
      <g transform="translate(28.334375 189.915636)scale(0.1 -0.1)">
       <use xlink:href="#DejaVuSans-30"/>
       <use x="63.623047" xlink:href="#DejaVuSans-2e"/>
       <use x="95.410156" xlink:href="#DejaVuSans-30"/>
       <use x="159.033203" xlink:href="#DejaVuSans-30"/>
      </g>
     </g>
    </g>
    <g id="ytick_4">
     <g id="line2d_57">
      <path clip-path="url(#p0a79499976)" d="M 57.6 131.348417 
L 414.72 131.348417 
" style="fill:none;stroke:#b0b0b0;stroke-linecap:square;stroke-width:0.8;"/>
     </g>
     <g id="line2d_58">
      <g>
       <use style="stroke:#000000;stroke-width:0.8;" x="57.6" xlink:href="#m9f5e792cd2" y="131.348417"/>
      </g>
     </g>
     <g id="text_10">
      <!-- 0.05 -->
      <g transform="translate(28.334375 135.147636)scale(0.1 -0.1)">
       <use xlink:href="#DejaVuSans-30"/>
       <use x="63.623047" xlink:href="#DejaVuSans-2e"/>
       <use x="95.410156" xlink:href="#DejaVuSans-30"/>
       <use x="159.033203" xlink:href="#DejaVuSans-35"/>
      </g>
     </g>
    </g>
    <g id="ytick_5">
     <g id="line2d_59">
      <path clip-path="url(#p0a79499976)" d="M 57.6 76.580418 
L 414.72 76.580418 
" style="fill:none;stroke:#b0b0b0;stroke-linecap:square;stroke-width:0.8;"/>
     </g>
     <g id="line2d_60">
      <g>
       <use style="stroke:#000000;stroke-width:0.8;" x="57.6" xlink:href="#m9f5e792cd2" y="76.580418"/>
      </g>
     </g>
     <g id="text_11">
      <!-- 0.10 -->
      <g transform="translate(28.334375 80.379636)scale(0.1 -0.1)">
       <use xlink:href="#DejaVuSans-30"/>
       <use x="63.623047" xlink:href="#DejaVuSans-2e"/>
       <use x="95.410156" xlink:href="#DejaVuSans-31"/>
       <use x="159.033203" xlink:href="#DejaVuSans-30"/>
      </g>
     </g>
    </g>
    <g id="ytick_6">
     <g id="line2d_61">
      <path clip-path="url(#p0a79499976)" d="M 57.6 306.606016 
L 414.72 306.606016 
" style="fill:none;stroke:#b0b0b0;stroke-linecap:square;stroke-width:0.8;"/>
     </g>
     <g id="line2d_62">
      <defs>
       <path d="M 0 0 
L -2 0 
" id="m46a6c90bf8" style="stroke:#000000;stroke-width:0.6;"/>
      </defs>
      <g>
       <use style="stroke:#000000;stroke-width:0.6;" x="57.6" xlink:href="#m46a6c90bf8" y="306.606016"/>
      </g>
     </g>
    </g>
    <g id="ytick_7">
     <g id="line2d_63">
      <path clip-path="url(#p0a79499976)" d="M 57.6 284.698816 
L 414.72 284.698816 
" style="fill:none;stroke:#b0b0b0;stroke-linecap:square;stroke-width:0.8;"/>
     </g>
     <g id="line2d_64">
      <g>
       <use style="stroke:#000000;stroke-width:0.6;" x="57.6" xlink:href="#m46a6c90bf8" y="284.698816"/>
      </g>
     </g>
    </g>
    <g id="ytick_8">
     <g id="line2d_65">
      <path clip-path="url(#p0a79499976)" d="M 57.6 273.745216 
L 414.72 273.745216 
" style="fill:none;stroke:#b0b0b0;stroke-linecap:square;stroke-width:0.8;"/>
     </g>
     <g id="line2d_66">
      <g>
       <use style="stroke:#000000;stroke-width:0.6;" x="57.6" xlink:href="#m46a6c90bf8" y="273.745216"/>
      </g>
     </g>
    </g>
    <g id="ytick_9">
     <g id="line2d_67">
      <path clip-path="url(#p0a79499976)" d="M 57.6 262.791617 
L 414.72 262.791617 
" style="fill:none;stroke:#b0b0b0;stroke-linecap:square;stroke-width:0.8;"/>
     </g>
     <g id="line2d_68">
      <g>
       <use style="stroke:#000000;stroke-width:0.6;" x="57.6" xlink:href="#m46a6c90bf8" y="262.791617"/>
      </g>
     </g>
    </g>
    <g id="ytick_10">
     <g id="line2d_69">
      <path clip-path="url(#p0a79499976)" d="M 57.6 251.838017 
L 414.72 251.838017 
" style="fill:none;stroke:#b0b0b0;stroke-linecap:square;stroke-width:0.8;"/>
     </g>
     <g id="line2d_70">
      <g>
       <use style="stroke:#000000;stroke-width:0.6;" x="57.6" xlink:href="#m46a6c90bf8" y="251.838017"/>
      </g>
     </g>
    </g>
    <g id="ytick_11">
     <g id="line2d_71">
      <path clip-path="url(#p0a79499976)" d="M 57.6 229.930817 
L 414.72 229.930817 
" style="fill:none;stroke:#b0b0b0;stroke-linecap:square;stroke-width:0.8;"/>
     </g>
     <g id="line2d_72">
      <g>
       <use style="stroke:#000000;stroke-width:0.6;" x="57.6" xlink:href="#m46a6c90bf8" y="229.930817"/>
      </g>
     </g>
    </g>
    <g id="ytick_12">
     <g id="line2d_73">
      <path clip-path="url(#p0a79499976)" d="M 57.6 218.977217 
L 414.72 218.977217 
" style="fill:none;stroke:#b0b0b0;stroke-linecap:square;stroke-width:0.8;"/>
     </g>
     <g id="line2d_74">
      <g>
       <use style="stroke:#000000;stroke-width:0.6;" x="57.6" xlink:href="#m46a6c90bf8" y="218.977217"/>
      </g>
     </g>
    </g>
    <g id="ytick_13">
     <g id="line2d_75">
      <path clip-path="url(#p0a79499976)" d="M 57.6 208.023617 
L 414.72 208.023617 
" style="fill:none;stroke:#b0b0b0;stroke-linecap:square;stroke-width:0.8;"/>
     </g>
     <g id="line2d_76">
      <g>
       <use style="stroke:#000000;stroke-width:0.6;" x="57.6" xlink:href="#m46a6c90bf8" y="208.023617"/>
      </g>
     </g>
    </g>
    <g id="ytick_14">
     <g id="line2d_77">
      <path clip-path="url(#p0a79499976)" d="M 57.6 197.070017 
L 414.72 197.070017 
" style="fill:none;stroke:#b0b0b0;stroke-linecap:square;stroke-width:0.8;"/>
     </g>
     <g id="line2d_78">
      <g>
       <use style="stroke:#000000;stroke-width:0.6;" x="57.6" xlink:href="#m46a6c90bf8" y="197.070017"/>
      </g>
     </g>
    </g>
    <g id="ytick_15">
     <g id="line2d_79">
      <path clip-path="url(#p0a79499976)" d="M 57.6 175.162817 
L 414.72 175.162817 
" style="fill:none;stroke:#b0b0b0;stroke-linecap:square;stroke-width:0.8;"/>
     </g>
     <g id="line2d_80">
      <g>
       <use style="stroke:#000000;stroke-width:0.6;" x="57.6" xlink:href="#m46a6c90bf8" y="175.162817"/>
      </g>
     </g>
    </g>
    <g id="ytick_16">
     <g id="line2d_81">
      <path clip-path="url(#p0a79499976)" d="M 57.6 164.209217 
L 414.72 164.209217 
" style="fill:none;stroke:#b0b0b0;stroke-linecap:square;stroke-width:0.8;"/>
     </g>
     <g id="line2d_82">
      <g>
       <use style="stroke:#000000;stroke-width:0.6;" x="57.6" xlink:href="#m46a6c90bf8" y="164.209217"/>
      </g>
     </g>
    </g>
    <g id="ytick_17">
     <g id="line2d_83">
      <path clip-path="url(#p0a79499976)" d="M 57.6 153.255617 
L 414.72 153.255617 
" style="fill:none;stroke:#b0b0b0;stroke-linecap:square;stroke-width:0.8;"/>
     </g>
     <g id="line2d_84">
      <g>
       <use style="stroke:#000000;stroke-width:0.6;" x="57.6" xlink:href="#m46a6c90bf8" y="153.255617"/>
      </g>
     </g>
    </g>
    <g id="ytick_18">
     <g id="line2d_85">
      <path clip-path="url(#p0a79499976)" d="M 57.6 142.302017 
L 414.72 142.302017 
" style="fill:none;stroke:#b0b0b0;stroke-linecap:square;stroke-width:0.8;"/>
     </g>
     <g id="line2d_86">
      <g>
       <use style="stroke:#000000;stroke-width:0.6;" x="57.6" xlink:href="#m46a6c90bf8" y="142.302017"/>
      </g>
     </g>
    </g>
    <g id="ytick_19">
     <g id="line2d_87">
      <path clip-path="url(#p0a79499976)" d="M 57.6 120.394817 
L 414.72 120.394817 
" style="fill:none;stroke:#b0b0b0;stroke-linecap:square;stroke-width:0.8;"/>
     </g>
     <g id="line2d_88">
      <g>
       <use style="stroke:#000000;stroke-width:0.6;" x="57.6" xlink:href="#m46a6c90bf8" y="120.394817"/>
      </g>
     </g>
    </g>
    <g id="ytick_20">
     <g id="line2d_89">
      <path clip-path="url(#p0a79499976)" d="M 57.6 109.441217 
L 414.72 109.441217 
" style="fill:none;stroke:#b0b0b0;stroke-linecap:square;stroke-width:0.8;"/>
     </g>
     <g id="line2d_90">
      <g>
       <use style="stroke:#000000;stroke-width:0.6;" x="57.6" xlink:href="#m46a6c90bf8" y="109.441217"/>
      </g>
     </g>
    </g>
    <g id="ytick_21">
     <g id="line2d_91">
      <path clip-path="url(#p0a79499976)" d="M 57.6 98.487618 
L 414.72 98.487618 
" style="fill:none;stroke:#b0b0b0;stroke-linecap:square;stroke-width:0.8;"/>
     </g>
     <g id="line2d_92">
      <g>
       <use style="stroke:#000000;stroke-width:0.6;" x="57.6" xlink:href="#m46a6c90bf8" y="98.487618"/>
      </g>
     </g>
    </g>
    <g id="ytick_22">
     <g id="line2d_93">
      <path clip-path="url(#p0a79499976)" d="M 57.6 87.534018 
L 414.72 87.534018 
" style="fill:none;stroke:#b0b0b0;stroke-linecap:square;stroke-width:0.8;"/>
     </g>
     <g id="line2d_94">
      <g>
       <use style="stroke:#000000;stroke-width:0.6;" x="57.6" xlink:href="#m46a6c90bf8" y="87.534018"/>
      </g>
     </g>
    </g>
    <g id="ytick_23">
     <g id="line2d_95">
      <path clip-path="url(#p0a79499976)" d="M 57.6 65.626818 
L 414.72 65.626818 
" style="fill:none;stroke:#b0b0b0;stroke-linecap:square;stroke-width:0.8;"/>
     </g>
     <g id="line2d_96">
      <g>
       <use style="stroke:#000000;stroke-width:0.6;" x="57.6" xlink:href="#m46a6c90bf8" y="65.626818"/>
      </g>
     </g>
    </g>
    <g id="ytick_24">
     <g id="line2d_97">
      <path clip-path="url(#p0a79499976)" d="M 57.6 54.673218 
L 414.72 54.673218 
" style="fill:none;stroke:#b0b0b0;stroke-linecap:square;stroke-width:0.8;"/>
     </g>
     <g id="line2d_98">
      <g>
       <use style="stroke:#000000;stroke-width:0.6;" x="57.6" xlink:href="#m46a6c90bf8" y="54.673218"/>
      </g>
     </g>
    </g>
    <g id="ytick_25">
     <g id="line2d_99">
      <path clip-path="url(#p0a79499976)" d="M 57.6 43.719618 
L 414.72 43.719618 
" style="fill:none;stroke:#b0b0b0;stroke-linecap:square;stroke-width:0.8;"/>
     </g>
     <g id="line2d_100">
      <g>
       <use style="stroke:#000000;stroke-width:0.6;" x="57.6" xlink:href="#m46a6c90bf8" y="43.719618"/>
      </g>
     </g>
    </g>
    <g id="text_12">
     <!-- trans z -->
     <defs>
      <path d="M 18.3125 70.21875 
L 18.3125 54.6875 
L 36.8125 54.6875 
L 36.8125 47.703125 
L 18.3125 47.703125 
L 18.3125 18.015625 
Q 18.3125 11.328125 20.140625 9.421875 
Q 21.96875 7.515625 27.59375 7.515625 
L 36.8125 7.515625 
L 36.8125 0 
L 27.59375 0 
Q 17.1875 0 13.234375 3.875 
Q 9.28125 7.765625 9.28125 18.015625 
L 9.28125 47.703125 
L 2.6875 47.703125 
L 2.6875 54.6875 
L 9.28125 54.6875 
L 9.28125 70.21875 
z
" id="DejaVuSans-74"/>
      <path d="M 54.890625 33.015625 
L 54.890625 0 
L 45.90625 0 
L 45.90625 32.71875 
Q 45.90625 40.484375 42.875 44.328125 
Q 39.84375 48.1875 33.796875 48.1875 
Q 26.515625 48.1875 22.3125 43.546875 
Q 18.109375 38.921875 18.109375 30.90625 
L 18.109375 0 
L 9.078125 0 
L 9.078125 54.6875 
L 18.109375 54.6875 
L 18.109375 46.1875 
Q 21.34375 51.125 25.703125 53.5625 
Q 30.078125 56 35.796875 56 
Q 45.21875 56 50.046875 50.171875 
Q 54.890625 44.34375 54.890625 33.015625 
z
" id="DejaVuSans-6e"/>
      <path d="M 44.28125 53.078125 
L 44.28125 44.578125 
Q 40.484375 46.53125 36.375 47.5 
Q 32.28125 48.484375 27.875 48.484375 
Q 21.1875 48.484375 17.84375 46.4375 
Q 14.5 44.390625 14.5 40.28125 
Q 14.5 37.15625 16.890625 35.375 
Q 19.28125 33.59375 26.515625 31.984375 
L 29.59375 31.296875 
Q 39.15625 29.25 43.1875 25.515625 
Q 47.21875 21.78125 47.21875 15.09375 
Q 47.21875 7.46875 41.1875 3.015625 
Q 35.15625 -1.421875 24.609375 -1.421875 
Q 20.21875 -1.421875 15.453125 -0.5625 
Q 10.6875 0.296875 5.421875 2 
L 5.421875 11.28125 
Q 10.40625 8.6875 15.234375 7.390625 
Q 20.0625 6.109375 24.8125 6.109375 
Q 31.15625 6.109375 34.5625 8.28125 
Q 37.984375 10.453125 37.984375 14.40625 
Q 37.984375 18.0625 35.515625 20.015625 
Q 33.0625 21.96875 24.703125 23.78125 
L 21.578125 24.515625 
Q 13.234375 26.265625 9.515625 29.90625 
Q 5.8125 33.546875 5.8125 39.890625 
Q 5.8125 47.609375 11.28125 51.796875 
Q 16.75 56 26.8125 56 
Q 31.78125 56 36.171875 55.265625 
Q 40.578125 54.546875 44.28125 53.078125 
z
" id="DejaVuSans-73"/>
      <path d="M 5.515625 54.6875 
L 48.1875 54.6875 
L 48.1875 46.484375 
L 14.40625 7.171875 
L 48.1875 7.171875 
L 48.1875 0 
L 4.296875 0 
L 4.296875 8.203125 
L 38.09375 47.515625 
L 5.515625 47.515625 
z
" id="DejaVuSans-7a"/>
     </defs>
     <g transform="translate(13.875 191.594406)rotate(-90)scale(0.1 -0.1)">
      <use xlink:href="#DejaVuSans-74"/>
      <use x="39.208984" xlink:href="#DejaVuSans-72"/>
      <use x="80.322266" xlink:href="#DejaVuSans-61"/>
      <use x="141.601562" xlink:href="#DejaVuSans-6e"/>
      <use x="204.980469" xlink:href="#DejaVuSans-73"/>
      <use x="257.080078" xlink:href="#DejaVuSans-20"/>
      <use x="288.867188" xlink:href="#DejaVuSans-7a"/>
     </g>
    </g>
   </g>
   <g id="line2d_101">
    <path clip-path="url(#p0a79499976)" d="M 73.832727 63.324513 
L 74.524971 68.910338 
L 75.217208 85.893284 
L 75.90628 83.265783 
L 76.598517 90.987931 
L 77.290754 87.990976 
L 77.982991 82.71508 
L 78.6751 80.784903 
L 79.367337 71.344832 
L 80.059581 75.603993 
L 80.751818 81.758683 
L 81.446481 90.627211 
L 82.138725 77.004137 
L 82.830962 77.584844 
L 83.523199 81.951789 
L 84.216653 75.430234 
L 84.908883 87.038321 
L 85.601147 89.631463 
L 86.293364 79.549824 
L 86.985656 78.867946 
L 87.675135 89.851612 
L 88.367373 93.767375 
L 89.05961 82.459253 
L 89.751847 85.549574 
L 90.441987 88.039474 
L 91.13423 121.32536 
L 91.826467 165.408026 
L 92.518705 153.464032 
L 93.209773 144.009314 
L 93.902011 176.197544 
L 94.594254 161.949577 
L 95.286491 151.001203 
L 95.979336 152.754892 
L 96.671581 132.173087 
L 97.363819 83.353665 
L 98.056056 58.159754 
L 98.749362 59.807526 
L 99.44205 61.747903 
L 100.133837 78.446559 
L 100.826074 132.721615 
L 101.516997 203.814316 
M 102.901478 234.376126 
L 103.593715 228.108504 
L 104.284797 264.672838 
L 104.977035 289.246799 
L 105.669272 289.616886 
L 106.361509 245.53358 
L 107.05535 279.5477 
L 107.747587 220.81915 
L 108.439825 185.373501 
L 109.132062 170.857204 
L 109.824962 168.252302 
L 110.517208 151.368241 
L 111.209437 186.96192 
L 111.901674 212.370883 
L 112.593675 206.050031 
L 113.285912 249.323022 
L 113.978149 246.076038 
L 114.670387 246.448207 
L 115.361972 259.850978 
L 116.054209 252.657073 
L 116.746446 271.570113 
L 117.438683 281.421951 
L 118.130907 242.044901 
L 118.823151 216.763003 
L 119.515395 216.745069 
L 120.207625 152.553489 
L 122.286816 62.509845 
L 122.97906 71.056656 
L 123.67129 89.850717 
L 124.363909 127.703508 
L 125.056146 157.933411 
L 125.748383 196.004207 
L 126.44062 209.932345 
L 127.129632 229.945422 
L 127.82187 277.346605 
L 128.514107 233.455883 
L 129.206344 203.812646 
L 130.591908 168.049084 
L 131.284145 126.744076 
L 131.976389 128.330878 
L 132.670814 84.930206 
L 133.363058 65.531618 
L 134.055295 67.246611 
L 134.747532 79.805629 
L 135.437802 103.007423 
L 136.822277 208.671959 
L 137.514514 222.902714 
L 138.204709 186.989175 
L 138.896947 233.357667 
L 139.589184 219.643543 
L 140.281421 208.213354 
L 140.976101 200.035354 
L 141.668336 201.645227 
L 142.360573 184.36137 
L 143.05281 118.900285 
L 143.744756 155.598553 
L 144.436993 165.764577 
L 145.129236 177.807094 
L 145.821474 184.97465 
L 146.511257 200.622941 
L 147.203494 179.614665 
L 148.588378 115.979961 
L 149.281455 194.014075 
L 149.973692 212.281153 
L 150.665929 148.695524 
L 151.358166 116.671418 
L 152.05041 136.68524 
L 152.743731 134.364384 
L 153.435969 151.685503 
L 154.128206 157.566088 
L 154.820443 201.904399 
L 155.510224 228.565664 
L 156.20247 227.266877 
L 156.894699 239.646399 
M 158.279343 295.488 
L 158.97158 294.068097 
L 159.663852 214.378453 
L 160.356055 200.641248 
L 161.051271 222.220616 
L 161.743508 203.909272 
L 162.435745 190.969929 
L 163.127989 186.528262 
L 163.818557 172.963818 
L 164.510795 183.862622 
M 165.895269 204.860186 
L 166.586145 183.209586 
L 167.278382 200.810233 
L 167.970626 211.490275 
L 168.662863 158.005297 
L 169.356457 222.777504 
L 170.048694 194.142477 
L 170.740931 135.534422 
L 171.433168 114.354988 
L 172.125831 110.125203 
L 172.818048 121.162556 
L 173.510286 156.913114 
L 174.202529 186.785549 
L 174.892987 204.653085 
L 175.585225 193.923599 
L 176.277462 257.084962 
L 176.969699 242.619657 
L 178.354724 183.747294 
L 179.046962 224.504021 
L 179.739205 125.254812 
L 180.434067 90.053919 
L 181.126297 179.878987 
L 181.818534 185.529349 
L 182.510778 174.165137 
L 183.200632 207.21015 
L 183.892876 165.78882 
L 184.585113 267.098697 
L 185.2776 231.06973 
L 185.969588 222.072593 
L 186.661455 262.307431 
L 187.353692 179.984905 
L 188.045929 131.480077 
L 188.738167 165.033275 
M 191.509762 217.795892 
L 192.199235 229.195446 
L 192.891481 217.119396 
L 193.583718 240.558218 
L 194.275953 218.452593 
L 194.967935 229.57631 
L 195.660172 212.128911 
M 197.044646 200.784823 
L 197.738917 152.942519 
L 198.431154 149.402532 
L 199.123391 113.257413 
L 199.815628 88.574908 
L 200.508823 84.980652 
L 201.20106 116.905343 
L 201.893304 124.718259 
L 202.585541 183.556411 
L 203.275538 222.589291 
L 203.967776 149.526293 
L 204.660013 259.446709 
L 206.044672 196.250632 
L 206.736909 217.964796 
L 207.429146 178.808797 
L 208.121383 153.444382 
L 208.815873 133.096521 
L 209.50811 137.080749 
L 210.892585 197.551146 
L 211.583861 195.581257 
L 212.276099 219.134899 
L 212.968342 262.548299 
L 213.66058 263.900648 
L 214.351919 255.077633 
L 215.044156 225.926385 
L 215.736393 167.756865 
L 216.428631 150.872416 
L 217.120874 155.775431 
L 217.814995 131.893892 
L 218.507232 123.518537 
L 219.199469 145.94274 
L 219.891706 186.659716 
L 220.58497 217.998034 
L 221.277214 264.736219 
L 221.969824 233.646898 
L 222.661681 254.268015 
L 223.354881 244.110265 
L 224.047124 253.592405 
L 224.739362 250.428113 
L 225.431599 236.477006 
L 226.123329 230.28035 
L 226.815566 207.671779 
L 227.507804 175.499263 
L 228.200041 159.33245 
L 228.892598 124.339186 
L 229.584835 121.720823 
L 230.277072 86.417448 
L 230.96931 80.953025 
L 231.661953 84.457279 
L 232.35419 103.811626 
L 234.434318 153.612928 
L 235.126562 160.581872 
L 235.818799 158.073353 
L 236.511036 154.281485 
L 237.205725 169.105624 
L 237.897963 188.480633 
L 238.5902 156.221105 
L 239.282437 157.311934 
M 240.658539 185.446749 
L 241.350776 193.17798 
L 242.043013 221.604322 
L 243.427569 143.280215 
L 244.119806 153.020965 
L 244.812043 130.475818 
L 245.504977 99.739458 
L 246.197214 80.024368 
L 246.889449 86.775302 
L 247.581686 95.148304 
L 248.274878 94.50597 
L 248.967115 102.179511 
L 249.659352 114.912062 
L 250.351589 123.455497 
L 251.043826 122.537104 
L 251.736771 146.462151 
L 252.429009 217.084905 
L 253.121246 244.900966 
L 253.81349 209.968905 
L 254.500718 259.46464 
L 255.192947 200.464807 
L 255.885192 238.096053 
L 257.269926 154.679575 
L 257.962163 204.677945 
L 258.6544 192.082678 
L 259.346637 212.204694 
L 260.040695 183.276257 
L 260.732932 159.55044 
L 261.425169 128.631785 
L 262.117406 85.724276 
L 262.80931 78.880914 
L 263.501547 118.44581 
L 264.193784 120.860841 
L 264.886021 122.030923 
L 265.576308 134.663871 
L 266.268553 176.285974 
M 268.344813 175.558046 
L 269.03705 225.14802 
M 273.886626 234.571019 
L 274.578864 226.685163 
M 280.11432 185.101721 
L 280.806557 186.997796 
M 291.190092 185.444169 
L 291.882329 136.603313 
M 296.728311 256.641473 
L 297.420548 215.363023 
M 305.72952 204.295491 
L 306.421757 116.435094 
L 307.114493 126.253735 
M 308.496983 76.377803 
L 309.18922 121.779523 
M 316.803859 99.120195 
L 317.496096 110.602241 
L 318.188333 105.517274 
L 318.880571 109.941982 
M 323.726858 239.986748 
L 324.419095 203.358372 
L 325.112821 235.140038 
L 325.805058 243.634501 
L 326.497302 234.070357 
M 328.576974 148.327009 
L 329.269218 130.285974 
M 330.653469 156.308355 
L 332.037944 137.123777 
L 332.730181 118.474259 
L 333.422638 104.693574 
L 334.114875 124.763469 
L 334.807119 140.483981 
M 339.651661 105.419358 
L 340.343899 104.027801 
L 341.036136 102.364782 
L 341.726718 115.936779 
L 342.418955 120.316312 
L 343.111192 117.185561 
L 343.803429 151.885962 
M 345.877414 111.297419 
L 346.569651 95.531411 
M 354.184019 85.066079 
L 354.87625 104.448515 
M 357.647653 204.834422 
L 358.33989 206.11936 
L 359.029714 246.211492 
L 359.721951 229.032726 
M 362.491511 252.227737 
L 363.183748 257.291369 
L 363.875985 263.768917 
M 366.6451 222.206248 
L 367.338052 233.10805 
M 368.722533 221.394556 
L 369.41477 231.036387 
L 370.107983 215.994351 
L 370.80022 227.350975 
L 371.492457 218.943785 
M 374.262395 168.685265 
L 374.95463 146.777251 
L 375.647823 144.497963 
L 376.34006 196.122954 
M 383.260573 139.378491 
L 383.952811 119.738405 
L 384.644637 117.421098 
M 388.104412 151.136061 
L 388.796657 139.697796 
L 389.488894 141.959103 
L 390.179932 143.51054 
L 390.872169 140.628106 
L 391.564426 165.76209 
L 391.564426 165.76209 
" style="fill:none;stroke:#ff0000;stroke-linecap:square;"/>
   </g>
   <g id="line2d_102">
    <path clip-path="url(#p0a79499976)" d="M 73.832727 64.807555 
L 74.524971 68.445952 
L 75.217208 84.510957 
L 75.90628 85.088088 
L 76.598517 91.472135 
L 77.290754 89.938154 
L 77.982991 79.816171 
L 78.6751 75.384088 
L 79.367337 73.060522 
L 80.059581 73.167914 
L 80.751818 82.341053 
L 81.446481 81.505417 
L 82.138725 74.849068 
L 82.830962 77.87891 
L 83.523199 76.706597 
L 84.216653 78.747186 
L 84.908883 87.006533 
L 85.601147 86.194578 
L 86.293364 79.734112 
L 86.985656 81.772448 
L 88.367373 94.140842 
L 89.05961 88.13122 
L 89.751847 84.102919 
L 90.441987 98.39545 
L 91.826467 143.336752 
L 92.518705 160.618836 
L 93.209773 167.644617 
L 94.594254 175.232793 
L 95.286491 166.643647 
L 95.979336 147.8155 
L 98.056056 63.945437 
L 98.749362 53.63224 
L 99.44205 53.568 
L 100.133837 67.018793 
L 101.516997 140.060855 
M 102.901478 198.124501 
L 104.284797 260.86615 
L 104.977035 279.684287 
L 105.669272 284.31208 
L 106.361509 275.971001 
L 107.05535 263.824594 
L 109.132062 170.563483 
L 109.824962 157.247419 
L 110.517208 155.31347 
L 111.209437 161.735728 
L 111.901674 177.417466 
L 112.593675 200.450146 
L 113.978149 236.633792 
L 114.670387 248.836209 
L 115.361972 255.461866 
L 116.054209 257.582295 
L 116.746446 260.244055 
L 117.438683 260.700097 
L 118.130907 255.579497 
L 118.823151 234.144158 
L 120.207625 162.38205 
L 120.899869 121.723032 
L 121.594579 89.021736 
L 122.286816 73.098185 
L 122.97906 68.131578 
L 123.67129 85.351539 
L 124.363909 114.618401 
L 125.056146 149.809495 
L 126.44062 209.985961 
L 127.129632 238.80496 
L 127.82187 251.148881 
L 128.514107 241.076532 
L 129.89967 186.836622 
L 131.284145 120.467441 
L 131.976389 94.714637 
L 132.670814 76.778673 
L 133.363058 66.291312 
L 134.055295 65.949866 
L 134.747532 77.573185 
L 135.437802 99.201073 
L 136.822277 161.528026 
L 138.204709 194.688742 
L 138.896947 207.93003 
L 139.589184 215.848415 
L 140.281421 215.122613 
L 140.976101 206.24882 
L 141.668336 189.751752 
L 142.360573 168.658499 
L 143.05281 154.087137 
L 143.744756 151.168653 
L 144.436993 157.22728 
L 145.821474 187.290784 
L 146.511257 191.593345 
L 147.203494 188.162021 
L 147.895731 187.58864 
L 148.588378 184.834101 
L 152.05041 114.502662 
L 152.743731 115.092675 
L 154.128206 158.348626 
L 155.510224 215.362099 
L 156.20247 233.98434 
L 156.894699 241.744042 
M 158.279343 247.963207 
L 158.97158 244.658345 
L 159.663852 230.15483 
L 160.356055 218.387963 
L 161.743508 203.639223 
L 162.435745 195.739223 
L 163.127989 189.312189 
L 163.818557 192.211372 
L 164.510795 198.706545 
M 165.895269 205.873015 
L 166.586145 202.098763 
L 167.278382 199.946459 
L 167.970626 195.148113 
L 168.662863 188.980223 
L 169.356457 175.524774 
L 170.048694 149.535146 
L 171.433168 109.134016 
L 172.125831 105.234977 
L 172.818048 123.702818 
L 173.510286 151.618328 
L 174.892987 193.623884 
L 175.585225 207.393868 
L 176.277462 205.643323 
L 176.969699 203.529955 
L 177.662487 212.782876 
L 178.354724 214.593268 
L 179.046962 205.395835 
L 180.434067 176.219912 
L 181.126297 168.87035 
L 181.818534 172.073821 
L 182.510778 181.324162 
L 183.200632 199.329964 
L 183.892876 223.074899 
L 184.585113 234.340094 
L 185.2776 231.397086 
L 185.969588 224.114523 
L 186.661455 214.483223 
L 187.353692 202.314208 
L 188.045929 186.250336 
L 188.738167 174.245625 
M 191.509762 207.715297 
L 192.199235 226.033331 
L 192.891481 240.638347 
L 193.583718 246.21805 
L 194.275953 246.002834 
L 195.660172 226.88803 
M 197.044646 202.535132 
L 197.738917 180.020839 
L 199.815628 91.439477 
L 200.508823 92.382427 
L 201.20106 110.066564 
L 202.585541 167.353485 
L 203.275538 190.328351 
L 204.660013 225.336808 
L 205.35225 233.991448 
L 206.044672 224.383063 
L 206.736909 208.640567 
L 207.429146 185.105526 
L 208.121383 157.470911 
L 208.815873 141.945224 
L 209.50811 145.038502 
L 210.200348 165.250156 
L 211.583861 216.287589 
L 212.276099 236.282381 
L 212.968342 246.93504 
L 213.66058 249.750051 
L 214.351919 246.189179 
L 215.044156 232.124252 
L 216.428631 195.002724 
L 217.120874 163.607993 
L 217.814995 139.492466 
L 218.507232 128.433849 
L 219.199469 140.096926 
L 221.277214 239.597575 
L 221.969824 257.911588 
L 222.661681 262.337649 
L 223.354881 259.784933 
L 224.047124 255.93167 
L 224.739362 248.760435 
L 225.431599 240.046402 
L 226.123329 224.643429 
L 226.815566 205.178708 
L 227.507804 179.93932 
L 228.200041 161.071957 
L 229.584835 110.693292 
L 230.277072 98.332018 
L 230.96931 90.624705 
L 231.661953 92.664163 
L 232.35419 97.6375 
L 233.046427 109.789387 
L 234.434318 144.652798 
L 235.126562 156.157155 
L 235.818799 159.293523 
L 236.511036 163.794386 
L 237.205725 167.164608 
L 237.897963 162.318965 
L 238.5902 155.270304 
L 239.282437 155.785881 
M 240.658539 189.484544 
L 241.350776 198.995826 
L 242.043013 193.258398 
L 242.735331 172.500423 
L 243.427569 145.144359 
L 244.119806 122.182544 
L 244.812043 106.781245 
L 245.504977 104.740366 
L 246.197214 100.873296 
L 246.889449 97.810642 
L 247.581686 97.061663 
L 248.274878 97.823227 
L 248.967115 100.771665 
L 249.659352 109.714698 
L 250.351589 116.963071 
L 251.043826 126.570965 
L 251.736771 142.594941 
L 253.121246 185.028929 
L 253.81349 209.471283 
L 254.500718 221.417913 
L 255.192947 223.229657 
L 255.885192 218.746194 
L 256.577429 210.069114 
L 257.269926 205.257486 
L 257.962163 210.003974 
L 258.6544 208.269645 
L 259.346637 204.300674 
L 260.040695 189.300418 
L 262.117406 89.282318 
L 262.80931 81.161558 
L 263.501547 83.024064 
L 264.193784 95.103772 
L 266.268553 168.8545 
M 268.344813 199.024905 
L 269.03705 203.091151 
M 273.886626 235.661865 
L 274.578864 226.297775 
M 280.11432 170.750932 
L 280.806557 158.058476 
M 291.190092 164.948143 
L 291.882329 159.335355 
M 296.728311 230.15265 
L 297.420548 208.666668 
M 305.72952 180.227787 
L 306.421757 179.53445 
L 307.114493 158.914985 
M 308.496983 107.284158 
L 309.18922 99.828248 
M 316.803859 134.769464 
L 317.496096 106.21082 
L 318.188333 99.329602 
L 318.880571 109.5179 
M 323.726858 206.53309 
L 324.419095 215.275024 
L 325.112821 227.283825 
L 325.805058 236.272961 
L 326.497302 237.639267 
M 328.576974 166.36122 
L 329.269218 163.068291 
M 330.653469 152.753438 
L 331.346218 140.223489 
L 332.730181 110.311887 
L 333.422638 109.289388 
L 334.114875 123.672274 
L 334.807119 145.411519 
M 339.651661 99.285734 
L 340.343899 102.187189 
L 341.036136 103.703257 
L 341.726718 108.48302 
L 342.418955 117.809555 
L 343.111192 124.928086 
L 343.803429 126.065591 
M 345.877414 105.325996 
L 346.569651 97.179648 
M 354.184019 143.499876 
L 354.87625 128.380176 
M 357.647653 206.294649 
L 358.33989 225.151903 
L 359.029714 228.049074 
L 359.721951 230.454908 
M 362.491511 260.068443 
L 363.183748 257.571431 
L 363.875985 247.332869 
M 366.6451 237.562397 
L 367.338052 239.785024 
M 368.722533 232.888664 
L 370.107983 215.786623 
L 370.80022 209.89787 
L 371.492457 206.684043 
M 374.262395 167.894375 
L 374.95463 163.902921 
L 375.647823 164.924227 
L 376.34006 163.923918 
M 383.260573 138.992344 
L 383.952811 122.868903 
L 384.644637 118.148678 
M 388.104412 142.482728 
L 388.796657 143.989675 
L 389.488894 147.92224 
L 390.872169 158.401103 
L 391.564426 163.232701 
L 391.564426 163.232701 
" style="fill:none;stroke:#0000ff;stroke-linecap:square;"/>
   </g>
   <g id="line2d_103">
    <path clip-path="url(#p0a79499976)" d="M 266.960791 187.28081 
L 267.653028 195.747391 
M 269.729287 204.975074 
L 271.116285 218.02594 
L 271.808522 221.951878 
L 273.192996 232.57661 
M 275.271101 213.234087 
L 275.963338 200.041325 
L 276.655785 192.78068 
L 277.348022 190.954005 
L 278.040266 182.315949 
L 278.732503 178.945134 
L 279.422083 173.913682 
M 281.498794 143.204452 
L 282.192431 137.883472 
L 282.885262 145.190926 
L 283.576905 163.533145 
L 284.269143 173.443723 
L 284.961386 171.380134 
M 287.729008 165.045316 
L 288.421904 165.977932 
L 289.114148 164.449186 
L 289.806385 161.699081 
L 290.498622 163.048732 
M 292.574566 148.295464 
L 293.266803 158.021865 
L 293.961207 176.449613 
L 295.345682 223.362044 
L 296.037925 234.607571 
M 299.500625 137.845685 
L 300.192862 153.093178 
L 300.885099 172.407208 
L 301.577343 185.604263 
M 302.959621 185.697597 
L 303.651864 173.859701 
L 304.344095 164.03529 
L 305.037283 170.384659 
M 309.881458 115.13133 
L 311.268039 164.396222 
L 311.960277 177.474238 
L 312.65252 178.806419 
L 313.343492 173.170713 
L 314.035729 175.609803 
L 314.727973 178.575827 
M 319.576584 135.008631 
L 320.961058 190.030381 
L 321.653295 205.46449 
L 322.342377 207.263956 
L 323.034614 205.837215 
M 327.189539 218.824683 
L 327.884744 184.108787 
M 335.499356 158.260945 
L 336.190619 152.602805 
L 337.575094 124.374287 
M 344.492933 122.510637 
L 345.18517 114.221609 
M 348.646226 115.912598 
L 349.338463 142.649172 
L 350.0307 156.950066 
L 351.414505 171.282908 
L 352.106742 173.908667 
L 352.798979 170.802764 
L 353.491776 159.576351 
M 355.569124 133.719975 
L 356.26317 148.80758 
L 356.955416 176.993212 
M 360.414189 238.294377 
L 361.106426 249.946425 
L 361.799274 256.25519 
M 377.032291 164.510602 
L 377.724534 163.359937 
M 381.184476 145.737984 
L 381.876099 145.53422 
L 382.568336 144.472582 
M 385.336874 127.537585 
L 386.029111 134.348614 
L 386.721348 139.916347 
L 387.412183 141.66021 
M 392.256643 165.858596 
L 392.948735 174.381883 
L 394.333209 186.450376 
L 395.717867 191.196386 
L 396.410104 190.457219 
L 397.102341 189.457358 
L 397.794578 184.860454 
L 398.487273 182.001768 
L 398.487273 182.001768 
" style="fill:none;stroke:#008000;stroke-linecap:square;"/>
   </g>
   <g id="patch_3">
    <path d="M 57.6 307.584 
L 57.6 41.472 
" style="fill:none;stroke:#000000;stroke-linecap:square;stroke-linejoin:miter;stroke-width:0.8;"/>
   </g>
   <g id="patch_4">
    <path d="M 414.72 307.584 
L 414.72 41.472 
" style="fill:none;stroke:#000000;stroke-linecap:square;stroke-linejoin:miter;stroke-width:0.8;"/>
   </g>
   <g id="patch_5">
    <path d="M 57.6 307.584 
L 414.72 307.584 
" style="fill:none;stroke:#000000;stroke-linecap:square;stroke-linejoin:miter;stroke-width:0.8;"/>
   </g>
   <g id="patch_6">
    <path d="M 57.6 41.472 
L 414.72 41.472 
" style="fill:none;stroke:#000000;stroke-linecap:square;stroke-linejoin:miter;stroke-width:0.8;"/>
   </g>
   <g id="text_13">
    <!-- Rel Gt Trans Z Plot -->
    <defs>
     <path d="M 44.390625 34.1875 
Q 47.5625 33.109375 50.5625 29.59375 
Q 53.5625 26.078125 56.59375 19.921875 
L 66.609375 0 
L 56 0 
L 46.6875 18.703125 
Q 43.0625 26.03125 39.671875 28.421875 
Q 36.28125 30.8125 30.421875 30.8125 
L 19.671875 30.8125 
L 19.671875 0 
L 9.8125 0 
L 9.8125 72.90625 
L 32.078125 72.90625 
Q 44.578125 72.90625 50.734375 67.671875 
Q 56.890625 62.453125 56.890625 51.90625 
Q 56.890625 45.015625 53.6875 40.46875 
Q 50.484375 35.9375 44.390625 34.1875 
z
M 19.671875 64.796875 
L 19.671875 38.921875 
L 32.078125 38.921875 
Q 39.203125 38.921875 42.84375 42.21875 
Q 46.484375 45.515625 46.484375 51.90625 
Q 46.484375 58.296875 42.84375 61.546875 
Q 39.203125 64.796875 32.078125 64.796875 
z
" id="DejaVuSans-52"/>
     <path d="M 9.421875 75.984375 
L 18.40625 75.984375 
L 18.40625 0 
L 9.421875 0 
z
" id="DejaVuSans-6c"/>
     <path d="M 59.515625 10.40625 
L 59.515625 29.984375 
L 43.40625 29.984375 
L 43.40625 38.09375 
L 69.28125 38.09375 
L 69.28125 6.78125 
Q 63.578125 2.734375 56.6875 0.65625 
Q 49.8125 -1.421875 42 -1.421875 
Q 24.90625 -1.421875 15.25 8.5625 
Q 5.609375 18.5625 5.609375 36.375 
Q 5.609375 54.25 15.25 64.234375 
Q 24.90625 74.21875 42 74.21875 
Q 49.125 74.21875 55.546875 72.453125 
Q 61.96875 70.703125 67.390625 67.28125 
L 67.390625 56.78125 
Q 61.921875 61.421875 55.765625 63.765625 
Q 49.609375 66.109375 42.828125 66.109375 
Q 29.4375 66.109375 22.71875 58.640625 
Q 16.015625 51.171875 16.015625 36.375 
Q 16.015625 21.625 22.71875 14.15625 
Q 29.4375 6.6875 42.828125 6.6875 
Q 48.046875 6.6875 52.140625 7.59375 
Q 56.25 8.5 59.515625 10.40625 
z
" id="DejaVuSans-47"/>
     <path d="M -0.296875 72.90625 
L 61.375 72.90625 
L 61.375 64.59375 
L 35.5 64.59375 
L 35.5 0 
L 25.59375 0 
L 25.59375 64.59375 
L -0.296875 64.59375 
z
" id="DejaVuSans-54"/>
     <path d="M 5.609375 72.90625 
L 62.890625 72.90625 
L 62.890625 65.375 
L 16.796875 8.296875 
L 64.015625 8.296875 
L 64.015625 0 
L 4.5 0 
L 4.5 7.515625 
L 50.59375 64.59375 
L 5.609375 64.59375 
z
" id="DejaVuSans-5a"/>
     <path d="M 19.671875 64.796875 
L 19.671875 37.40625 
L 32.078125 37.40625 
Q 38.96875 37.40625 42.71875 40.96875 
Q 46.484375 44.53125 46.484375 51.125 
Q 46.484375 57.671875 42.71875 61.234375 
Q 38.96875 64.796875 32.078125 64.796875 
z
M 9.8125 72.90625 
L 32.078125 72.90625 
Q 44.34375 72.90625 50.609375 67.359375 
Q 56.890625 61.8125 56.890625 51.125 
Q 56.890625 40.328125 50.609375 34.8125 
Q 44.34375 29.296875 32.078125 29.296875 
L 19.671875 29.296875 
L 19.671875 0 
L 9.8125 0 
z
" id="DejaVuSans-50"/>
     <path d="M 30.609375 48.390625 
Q 23.390625 48.390625 19.1875 42.75 
Q 14.984375 37.109375 14.984375 27.296875 
Q 14.984375 17.484375 19.15625 11.84375 
Q 23.34375 6.203125 30.609375 6.203125 
Q 37.796875 6.203125 41.984375 11.859375 
Q 46.1875 17.53125 46.1875 27.296875 
Q 46.1875 37.015625 41.984375 42.703125 
Q 37.796875 48.390625 30.609375 48.390625 
z
M 30.609375 56 
Q 42.328125 56 49.015625 48.375 
Q 55.71875 40.765625 55.71875 27.296875 
Q 55.71875 13.875 49.015625 6.21875 
Q 42.328125 -1.421875 30.609375 -1.421875 
Q 18.84375 -1.421875 12.171875 6.21875 
Q 5.515625 13.875 5.515625 27.296875 
Q 5.515625 40.765625 12.171875 48.375 
Q 18.84375 56 30.609375 56 
z
" id="DejaVuSans-6f"/>
    </defs>
    <g transform="translate(179.865938 35.472)scale(0.12 -0.12)">
     <use xlink:href="#DejaVuSans-52"/>
     <use x="69.419922" xlink:href="#DejaVuSans-65"/>
     <use x="130.943359" xlink:href="#DejaVuSans-6c"/>
     <use x="158.726562" xlink:href="#DejaVuSans-20"/>
     <use x="190.513672" xlink:href="#DejaVuSans-47"/>
     <use x="268.003906" xlink:href="#DejaVuSans-74"/>
     <use x="307.212891" xlink:href="#DejaVuSans-20"/>
     <use x="339" xlink:href="#DejaVuSans-54"/>
     <use x="399.865234" xlink:href="#DejaVuSans-72"/>
     <use x="440.978516" xlink:href="#DejaVuSans-61"/>
     <use x="502.257812" xlink:href="#DejaVuSans-6e"/>
     <use x="565.636719" xlink:href="#DejaVuSans-73"/>
     <use x="617.736328" xlink:href="#DejaVuSans-20"/>
     <use x="649.523438" xlink:href="#DejaVuSans-5a"/>
     <use x="718.029297" xlink:href="#DejaVuSans-20"/>
     <use x="749.816406" xlink:href="#DejaVuSans-50"/>
     <use x="810.119141" xlink:href="#DejaVuSans-6c"/>
     <use x="837.902344" xlink:href="#DejaVuSans-6f"/>
     <use x="899.083984" xlink:href="#DejaVuSans-74"/>
    </g>
   </g>
  </g>
 </g>
 <defs>
  <clipPath id="p0a79499976">
   <rect height="266.112" width="357.12" x="57.6" y="41.472"/>
  </clipPath>
 </defs>
</svg>
