<?xml version="1.0" encoding="utf-8" standalone="no"?>
<!DOCTYPE svg PUBLIC "-//W3C//DTD SVG 1.1//EN"
  "http://www.w3.org/Graphics/SVG/1.1/DTD/svg11.dtd">
<!-- Created with matplotlib (http://matplotlib.org/) -->
<svg height="345.6pt" version="1.1" viewBox="0 0 460.8 345.6" width="460.8pt" xmlns="http://www.w3.org/2000/svg" xmlns:xlink="http://www.w3.org/1999/xlink">
 <defs>
  <style type="text/css">
*{stroke-linecap:butt;stroke-linejoin:round;}
  </style>
 </defs>
 <g id="figure_1">
  <g id="patch_1">
   <path d="M 0 345.6 
L 460.8 345.6 
L 460.8 0 
L 0 0 
z
" style="fill:#ffffff;"/>
  </g>
  <g id="axes_1">
   <g id="patch_2">
    <path d="M 57.6 307.584 
L 414.72 307.584 
L 414.72 41.472 
L 57.6 41.472 
z
" style="fill:#ffffff;"/>
   </g>
   <g id="matplotlib.axis_1">
    <g id="xtick_1">
     <g id="line2d_1">
      <path clip-path="url(#p053a4492a1)" d="M 70.555248 307.584 
L 70.555248 41.472 
" style="fill:none;stroke:#b0b0b0;stroke-linecap:square;stroke-width:0.8;"/>
     </g>
     <g id="line2d_2">
      <defs>
       <path d="M 0 0 
L 0 3.5 
" id="m83c573d42e" style="stroke:#000000;stroke-width:0.8;"/>
      </defs>
      <g>
       <use style="stroke:#000000;stroke-width:0.8;" x="70.555248" xlink:href="#m83c573d42e" y="307.584"/>
      </g>
     </g>
     <g id="text_1">
      <!-- 0 -->
      <defs>
       <path d="M 31.78125 66.40625 
Q 24.171875 66.40625 20.328125 58.90625 
Q 16.5 51.421875 16.5 36.375 
Q 16.5 21.390625 20.328125 13.890625 
Q 24.171875 6.390625 31.78125 6.390625 
Q 39.453125 6.390625 43.28125 13.890625 
Q 47.125 21.390625 47.125 36.375 
Q 47.125 51.421875 43.28125 58.90625 
Q 39.453125 66.40625 31.78125 66.40625 
z
M 31.78125 74.21875 
Q 44.046875 74.21875 50.515625 64.515625 
Q 56.984375 54.828125 56.984375 36.375 
Q 56.984375 17.96875 50.515625 8.265625 
Q 44.046875 -1.421875 31.78125 -1.421875 
Q 19.53125 -1.421875 13.0625 8.265625 
Q 6.59375 17.96875 6.59375 36.375 
Q 6.59375 54.828125 13.0625 64.515625 
Q 19.53125 74.21875 31.78125 74.21875 
z
" id="DejaVuSans-30"/>
      </defs>
      <g transform="translate(67.373998 322.182437)scale(0.1 -0.1)">
       <use xlink:href="#DejaVuSans-30"/>
      </g>
     </g>
    </g>
    <g id="xtick_2">
     <g id="line2d_3">
      <path clip-path="url(#p053a4492a1)" d="M 139.776886 307.584 
L 139.776886 41.472 
" style="fill:none;stroke:#b0b0b0;stroke-linecap:square;stroke-width:0.8;"/>
     </g>
     <g id="line2d_4">
      <g>
       <use style="stroke:#000000;stroke-width:0.8;" x="139.776886" xlink:href="#m83c573d42e" y="307.584"/>
      </g>
     </g>
     <g id="text_2">
      <!-- 10 -->
      <defs>
       <path d="M 12.40625 8.296875 
L 28.515625 8.296875 
L 28.515625 63.921875 
L 10.984375 60.40625 
L 10.984375 69.390625 
L 28.421875 72.90625 
L 38.28125 72.90625 
L 38.28125 8.296875 
L 54.390625 8.296875 
L 54.390625 0 
L 12.40625 0 
z
" id="DejaVuSans-31"/>
      </defs>
      <g transform="translate(133.414386 322.182437)scale(0.1 -0.1)">
       <use xlink:href="#DejaVuSans-31"/>
       <use x="63.623047" xlink:href="#DejaVuSans-30"/>
      </g>
     </g>
    </g>
    <g id="xtick_3">
     <g id="line2d_5">
      <path clip-path="url(#p053a4492a1)" d="M 208.998523 307.584 
L 208.998523 41.472 
" style="fill:none;stroke:#b0b0b0;stroke-linecap:square;stroke-width:0.8;"/>
     </g>
     <g id="line2d_6">
      <g>
       <use style="stroke:#000000;stroke-width:0.8;" x="208.998523" xlink:href="#m83c573d42e" y="307.584"/>
      </g>
     </g>
     <g id="text_3">
      <!-- 20 -->
      <defs>
       <path d="M 19.1875 8.296875 
L 53.609375 8.296875 
L 53.609375 0 
L 7.328125 0 
L 7.328125 8.296875 
Q 12.9375 14.109375 22.625 23.890625 
Q 32.328125 33.6875 34.8125 36.53125 
Q 39.546875 41.84375 41.421875 45.53125 
Q 43.3125 49.21875 43.3125 52.78125 
Q 43.3125 58.59375 39.234375 62.25 
Q 35.15625 65.921875 28.609375 65.921875 
Q 23.96875 65.921875 18.8125 64.3125 
Q 13.671875 62.703125 7.8125 59.421875 
L 7.8125 69.390625 
Q 13.765625 71.78125 18.9375 73 
Q 24.125 74.21875 28.421875 74.21875 
Q 39.75 74.21875 46.484375 68.546875 
Q 53.21875 62.890625 53.21875 53.421875 
Q 53.21875 48.921875 51.53125 44.890625 
Q 49.859375 40.875 45.40625 35.40625 
Q 44.1875 33.984375 37.640625 27.21875 
Q 31.109375 20.453125 19.1875 8.296875 
z
" id="DejaVuSans-32"/>
      </defs>
      <g transform="translate(202.636023 322.182437)scale(0.1 -0.1)">
       <use xlink:href="#DejaVuSans-32"/>
       <use x="63.623047" xlink:href="#DejaVuSans-30"/>
      </g>
     </g>
    </g>
    <g id="xtick_4">
     <g id="line2d_7">
      <path clip-path="url(#p053a4492a1)" d="M 278.220161 307.584 
L 278.220161 41.472 
" style="fill:none;stroke:#b0b0b0;stroke-linecap:square;stroke-width:0.8;"/>
     </g>
     <g id="line2d_8">
      <g>
       <use style="stroke:#000000;stroke-width:0.8;" x="278.220161" xlink:href="#m83c573d42e" y="307.584"/>
      </g>
     </g>
     <g id="text_4">
      <!-- 30 -->
      <defs>
       <path d="M 40.578125 39.3125 
Q 47.65625 37.796875 51.625 33 
Q 55.609375 28.21875 55.609375 21.1875 
Q 55.609375 10.40625 48.1875 4.484375 
Q 40.765625 -1.421875 27.09375 -1.421875 
Q 22.515625 -1.421875 17.65625 -0.515625 
Q 12.796875 0.390625 7.625 2.203125 
L 7.625 11.71875 
Q 11.71875 9.328125 16.59375 8.109375 
Q 21.484375 6.890625 26.8125 6.890625 
Q 36.078125 6.890625 40.9375 10.546875 
Q 45.796875 14.203125 45.796875 21.1875 
Q 45.796875 27.640625 41.28125 31.265625 
Q 36.765625 34.90625 28.71875 34.90625 
L 20.21875 34.90625 
L 20.21875 43.015625 
L 29.109375 43.015625 
Q 36.375 43.015625 40.234375 45.921875 
Q 44.09375 48.828125 44.09375 54.296875 
Q 44.09375 59.90625 40.109375 62.90625 
Q 36.140625 65.921875 28.71875 65.921875 
Q 24.65625 65.921875 20.015625 65.03125 
Q 15.375 64.15625 9.8125 62.3125 
L 9.8125 71.09375 
Q 15.4375 72.65625 20.34375 73.4375 
Q 25.25 74.21875 29.59375 74.21875 
Q 40.828125 74.21875 47.359375 69.109375 
Q 53.90625 64.015625 53.90625 55.328125 
Q 53.90625 49.265625 50.4375 45.09375 
Q 46.96875 40.921875 40.578125 39.3125 
z
" id="DejaVuSans-33"/>
      </defs>
      <g transform="translate(271.857661 322.182437)scale(0.1 -0.1)">
       <use xlink:href="#DejaVuSans-33"/>
       <use x="63.623047" xlink:href="#DejaVuSans-30"/>
      </g>
     </g>
    </g>
    <g id="xtick_5">
     <g id="line2d_9">
      <path clip-path="url(#p053a4492a1)" d="M 347.441799 307.584 
L 347.441799 41.472 
" style="fill:none;stroke:#b0b0b0;stroke-linecap:square;stroke-width:0.8;"/>
     </g>
     <g id="line2d_10">
      <g>
       <use style="stroke:#000000;stroke-width:0.8;" x="347.441799" xlink:href="#m83c573d42e" y="307.584"/>
      </g>
     </g>
     <g id="text_5">
      <!-- 40 -->
      <defs>
       <path d="M 37.796875 64.3125 
L 12.890625 25.390625 
L 37.796875 25.390625 
z
M 35.203125 72.90625 
L 47.609375 72.90625 
L 47.609375 25.390625 
L 58.015625 25.390625 
L 58.015625 17.1875 
L 47.609375 17.1875 
L 47.609375 0 
L 37.796875 0 
L 37.796875 17.1875 
L 4.890625 17.1875 
L 4.890625 26.703125 
z
" id="DejaVuSans-34"/>
      </defs>
      <g transform="translate(341.079299 322.182437)scale(0.1 -0.1)">
       <use xlink:href="#DejaVuSans-34"/>
       <use x="63.623047" xlink:href="#DejaVuSans-30"/>
      </g>
     </g>
    </g>
    <g id="xtick_6">
     <g id="line2d_11">
      <path clip-path="url(#p053a4492a1)" d="M 84.399575 307.584 
L 84.399575 41.472 
" style="fill:none;stroke:#b0b0b0;stroke-linecap:square;stroke-width:0.8;"/>
     </g>
     <g id="line2d_12">
      <defs>
       <path d="M 0 0 
L 0 2 
" id="mafc90359dd" style="stroke:#000000;stroke-width:0.6;"/>
      </defs>
      <g>
       <use style="stroke:#000000;stroke-width:0.6;" x="84.399575" xlink:href="#mafc90359dd" y="307.584"/>
      </g>
     </g>
    </g>
    <g id="xtick_7">
     <g id="line2d_13">
      <path clip-path="url(#p053a4492a1)" d="M 98.243903 307.584 
L 98.243903 41.472 
" style="fill:none;stroke:#b0b0b0;stroke-linecap:square;stroke-width:0.8;"/>
     </g>
     <g id="line2d_14">
      <g>
       <use style="stroke:#000000;stroke-width:0.6;" x="98.243903" xlink:href="#mafc90359dd" y="307.584"/>
      </g>
     </g>
    </g>
    <g id="xtick_8">
     <g id="line2d_15">
      <path clip-path="url(#p053a4492a1)" d="M 112.08823 307.584 
L 112.08823 41.472 
" style="fill:none;stroke:#b0b0b0;stroke-linecap:square;stroke-width:0.8;"/>
     </g>
     <g id="line2d_16">
      <g>
       <use style="stroke:#000000;stroke-width:0.6;" x="112.08823" xlink:href="#mafc90359dd" y="307.584"/>
      </g>
     </g>
    </g>
    <g id="xtick_9">
     <g id="line2d_17">
      <path clip-path="url(#p053a4492a1)" d="M 125.932558 307.584 
L 125.932558 41.472 
" style="fill:none;stroke:#b0b0b0;stroke-linecap:square;stroke-width:0.8;"/>
     </g>
     <g id="line2d_18">
      <g>
       <use style="stroke:#000000;stroke-width:0.6;" x="125.932558" xlink:href="#mafc90359dd" y="307.584"/>
      </g>
     </g>
    </g>
    <g id="xtick_10">
     <g id="line2d_19">
      <path clip-path="url(#p053a4492a1)" d="M 153.621213 307.584 
L 153.621213 41.472 
" style="fill:none;stroke:#b0b0b0;stroke-linecap:square;stroke-width:0.8;"/>
     </g>
     <g id="line2d_20">
      <g>
       <use style="stroke:#000000;stroke-width:0.6;" x="153.621213" xlink:href="#mafc90359dd" y="307.584"/>
      </g>
     </g>
    </g>
    <g id="xtick_11">
     <g id="line2d_21">
      <path clip-path="url(#p053a4492a1)" d="M 167.465541 307.584 
L 167.465541 41.472 
" style="fill:none;stroke:#b0b0b0;stroke-linecap:square;stroke-width:0.8;"/>
     </g>
     <g id="line2d_22">
      <g>
       <use style="stroke:#000000;stroke-width:0.6;" x="167.465541" xlink:href="#mafc90359dd" y="307.584"/>
      </g>
     </g>
    </g>
    <g id="xtick_12">
     <g id="line2d_23">
      <path clip-path="url(#p053a4492a1)" d="M 181.309868 307.584 
L 181.309868 41.472 
" style="fill:none;stroke:#b0b0b0;stroke-linecap:square;stroke-width:0.8;"/>
     </g>
     <g id="line2d_24">
      <g>
       <use style="stroke:#000000;stroke-width:0.6;" x="181.309868" xlink:href="#mafc90359dd" y="307.584"/>
      </g>
     </g>
    </g>
    <g id="xtick_13">
     <g id="line2d_25">
      <path clip-path="url(#p053a4492a1)" d="M 195.154196 307.584 
L 195.154196 41.472 
" style="fill:none;stroke:#b0b0b0;stroke-linecap:square;stroke-width:0.8;"/>
     </g>
     <g id="line2d_26">
      <g>
       <use style="stroke:#000000;stroke-width:0.6;" x="195.154196" xlink:href="#mafc90359dd" y="307.584"/>
      </g>
     </g>
    </g>
    <g id="xtick_14">
     <g id="line2d_27">
      <path clip-path="url(#p053a4492a1)" d="M 222.842851 307.584 
L 222.842851 41.472 
" style="fill:none;stroke:#b0b0b0;stroke-linecap:square;stroke-width:0.8;"/>
     </g>
     <g id="line2d_28">
      <g>
       <use style="stroke:#000000;stroke-width:0.6;" x="222.842851" xlink:href="#mafc90359dd" y="307.584"/>
      </g>
     </g>
    </g>
    <g id="xtick_15">
     <g id="line2d_29">
      <path clip-path="url(#p053a4492a1)" d="M 236.687178 307.584 
L 236.687178 41.472 
" style="fill:none;stroke:#b0b0b0;stroke-linecap:square;stroke-width:0.8;"/>
     </g>
     <g id="line2d_30">
      <g>
       <use style="stroke:#000000;stroke-width:0.6;" x="236.687178" xlink:href="#mafc90359dd" y="307.584"/>
      </g>
     </g>
    </g>
    <g id="xtick_16">
     <g id="line2d_31">
      <path clip-path="url(#p053a4492a1)" d="M 250.531506 307.584 
L 250.531506 41.472 
" style="fill:none;stroke:#b0b0b0;stroke-linecap:square;stroke-width:0.8;"/>
     </g>
     <g id="line2d_32">
      <g>
       <use style="stroke:#000000;stroke-width:0.6;" x="250.531506" xlink:href="#mafc90359dd" y="307.584"/>
      </g>
     </g>
    </g>
    <g id="xtick_17">
     <g id="line2d_33">
      <path clip-path="url(#p053a4492a1)" d="M 264.375834 307.584 
L 264.375834 41.472 
" style="fill:none;stroke:#b0b0b0;stroke-linecap:square;stroke-width:0.8;"/>
     </g>
     <g id="line2d_34">
      <g>
       <use style="stroke:#000000;stroke-width:0.6;" x="264.375834" xlink:href="#mafc90359dd" y="307.584"/>
      </g>
     </g>
    </g>
    <g id="xtick_18">
     <g id="line2d_35">
      <path clip-path="url(#p053a4492a1)" d="M 292.064489 307.584 
L 292.064489 41.472 
" style="fill:none;stroke:#b0b0b0;stroke-linecap:square;stroke-width:0.8;"/>
     </g>
     <g id="line2d_36">
      <g>
       <use style="stroke:#000000;stroke-width:0.6;" x="292.064489" xlink:href="#mafc90359dd" y="307.584"/>
      </g>
     </g>
    </g>
    <g id="xtick_19">
     <g id="line2d_37">
      <path clip-path="url(#p053a4492a1)" d="M 305.908816 307.584 
L 305.908816 41.472 
" style="fill:none;stroke:#b0b0b0;stroke-linecap:square;stroke-width:0.8;"/>
     </g>
     <g id="line2d_38">
      <g>
       <use style="stroke:#000000;stroke-width:0.6;" x="305.908816" xlink:href="#mafc90359dd" y="307.584"/>
      </g>
     </g>
    </g>
    <g id="xtick_20">
     <g id="line2d_39">
      <path clip-path="url(#p053a4492a1)" d="M 319.753144 307.584 
L 319.753144 41.472 
" style="fill:none;stroke:#b0b0b0;stroke-linecap:square;stroke-width:0.8;"/>
     </g>
     <g id="line2d_40">
      <g>
       <use style="stroke:#000000;stroke-width:0.6;" x="319.753144" xlink:href="#mafc90359dd" y="307.584"/>
      </g>
     </g>
    </g>
    <g id="xtick_21">
     <g id="line2d_41">
      <path clip-path="url(#p053a4492a1)" d="M 333.597471 307.584 
L 333.597471 41.472 
" style="fill:none;stroke:#b0b0b0;stroke-linecap:square;stroke-width:0.8;"/>
     </g>
     <g id="line2d_42">
      <g>
       <use style="stroke:#000000;stroke-width:0.6;" x="333.597471" xlink:href="#mafc90359dd" y="307.584"/>
      </g>
     </g>
    </g>
    <g id="xtick_22">
     <g id="line2d_43">
      <path clip-path="url(#p053a4492a1)" d="M 361.286127 307.584 
L 361.286127 41.472 
" style="fill:none;stroke:#b0b0b0;stroke-linecap:square;stroke-width:0.8;"/>
     </g>
     <g id="line2d_44">
      <g>
       <use style="stroke:#000000;stroke-width:0.6;" x="361.286127" xlink:href="#mafc90359dd" y="307.584"/>
      </g>
     </g>
    </g>
    <g id="xtick_23">
     <g id="line2d_45">
      <path clip-path="url(#p053a4492a1)" d="M 375.130454 307.584 
L 375.130454 41.472 
" style="fill:none;stroke:#b0b0b0;stroke-linecap:square;stroke-width:0.8;"/>
     </g>
     <g id="line2d_46">
      <g>
       <use style="stroke:#000000;stroke-width:0.6;" x="375.130454" xlink:href="#mafc90359dd" y="307.584"/>
      </g>
     </g>
    </g>
    <g id="xtick_24">
     <g id="line2d_47">
      <path clip-path="url(#p053a4492a1)" d="M 388.974782 307.584 
L 388.974782 41.472 
" style="fill:none;stroke:#b0b0b0;stroke-linecap:square;stroke-width:0.8;"/>
     </g>
     <g id="line2d_48">
      <g>
       <use style="stroke:#000000;stroke-width:0.6;" x="388.974782" xlink:href="#mafc90359dd" y="307.584"/>
      </g>
     </g>
    </g>
    <g id="xtick_25">
     <g id="line2d_49">
      <path clip-path="url(#p053a4492a1)" d="M 402.819109 307.584 
L 402.819109 41.472 
" style="fill:none;stroke:#b0b0b0;stroke-linecap:square;stroke-width:0.8;"/>
     </g>
     <g id="line2d_50">
      <g>
       <use style="stroke:#000000;stroke-width:0.6;" x="402.819109" xlink:href="#mafc90359dd" y="307.584"/>
      </g>
     </g>
    </g>
    <g id="text_6">
     <!-- frame # [] -->
     <defs>
      <path d="M 37.109375 75.984375 
L 37.109375 68.5 
L 28.515625 68.5 
Q 23.6875 68.5 21.796875 66.546875 
Q 19.921875 64.59375 19.921875 59.515625 
L 19.921875 54.6875 
L 34.71875 54.6875 
L 34.71875 47.703125 
L 19.921875 47.703125 
L 19.921875 0 
L 10.890625 0 
L 10.890625 47.703125 
L 2.296875 47.703125 
L 2.296875 54.6875 
L 10.890625 54.6875 
L 10.890625 58.5 
Q 10.890625 67.625 15.140625 71.796875 
Q 19.390625 75.984375 28.609375 75.984375 
z
" id="DejaVuSans-66"/>
      <path d="M 41.109375 46.296875 
Q 39.59375 47.171875 37.8125 47.578125 
Q 36.03125 48 33.890625 48 
Q 26.265625 48 22.1875 43.046875 
Q 18.109375 38.09375 18.109375 28.8125 
L 18.109375 0 
L 9.078125 0 
L 9.078125 54.6875 
L 18.109375 54.6875 
L 18.109375 46.1875 
Q 20.953125 51.171875 25.484375 53.578125 
Q 30.03125 56 36.53125 56 
Q 37.453125 56 38.578125 55.875 
Q 39.703125 55.765625 41.0625 55.515625 
z
" id="DejaVuSans-72"/>
      <path d="M 34.28125 27.484375 
Q 23.390625 27.484375 19.1875 25 
Q 14.984375 22.515625 14.984375 16.5 
Q 14.984375 11.71875 18.140625 8.90625 
Q 21.296875 6.109375 26.703125 6.109375 
Q 34.1875 6.109375 38.703125 11.40625 
Q 43.21875 16.703125 43.21875 25.484375 
L 43.21875 27.484375 
z
M 52.203125 31.203125 
L 52.203125 0 
L 43.21875 0 
L 43.21875 8.296875 
Q 40.140625 3.328125 35.546875 0.953125 
Q 30.953125 -1.421875 24.3125 -1.421875 
Q 15.921875 -1.421875 10.953125 3.296875 
Q 6 8.015625 6 15.921875 
Q 6 25.140625 12.171875 29.828125 
Q 18.359375 34.515625 30.609375 34.515625 
L 43.21875 34.515625 
L 43.21875 35.40625 
Q 43.21875 41.609375 39.140625 45 
Q 35.0625 48.390625 27.6875 48.390625 
Q 23 48.390625 18.546875 47.265625 
Q 14.109375 46.140625 10.015625 43.890625 
L 10.015625 52.203125 
Q 14.9375 54.109375 19.578125 55.046875 
Q 24.21875 56 28.609375 56 
Q 40.484375 56 46.34375 49.84375 
Q 52.203125 43.703125 52.203125 31.203125 
z
" id="DejaVuSans-61"/>
      <path d="M 52 44.1875 
Q 55.375 50.25 60.0625 53.125 
Q 64.75 56 71.09375 56 
Q 79.640625 56 84.28125 50.015625 
Q 88.921875 44.046875 88.921875 33.015625 
L 88.921875 0 
L 79.890625 0 
L 79.890625 32.71875 
Q 79.890625 40.578125 77.09375 44.375 
Q 74.3125 48.1875 68.609375 48.1875 
Q 61.625 48.1875 57.5625 43.546875 
Q 53.515625 38.921875 53.515625 30.90625 
L 53.515625 0 
L 44.484375 0 
L 44.484375 32.71875 
Q 44.484375 40.625 41.703125 44.40625 
Q 38.921875 48.1875 33.109375 48.1875 
Q 26.21875 48.1875 22.15625 43.53125 
Q 18.109375 38.875 18.109375 30.90625 
L 18.109375 0 
L 9.078125 0 
L 9.078125 54.6875 
L 18.109375 54.6875 
L 18.109375 46.1875 
Q 21.1875 51.21875 25.484375 53.609375 
Q 29.78125 56 35.6875 56 
Q 41.65625 56 45.828125 52.96875 
Q 50 49.953125 52 44.1875 
z
" id="DejaVuSans-6d"/>
      <path d="M 56.203125 29.59375 
L 56.203125 25.203125 
L 14.890625 25.203125 
Q 15.484375 15.921875 20.484375 11.0625 
Q 25.484375 6.203125 34.421875 6.203125 
Q 39.59375 6.203125 44.453125 7.46875 
Q 49.3125 8.734375 54.109375 11.28125 
L 54.109375 2.78125 
Q 49.265625 0.734375 44.1875 -0.34375 
Q 39.109375 -1.421875 33.890625 -1.421875 
Q 20.796875 -1.421875 13.15625 6.1875 
Q 5.515625 13.8125 5.515625 26.8125 
Q 5.515625 40.234375 12.765625 48.109375 
Q 20.015625 56 32.328125 56 
Q 43.359375 56 49.78125 48.890625 
Q 56.203125 41.796875 56.203125 29.59375 
z
M 47.21875 32.234375 
Q 47.125 39.59375 43.09375 43.984375 
Q 39.0625 48.390625 32.421875 48.390625 
Q 24.90625 48.390625 20.390625 44.140625 
Q 15.875 39.890625 15.1875 32.171875 
z
" id="DejaVuSans-65"/>
      <path id="DejaVuSans-20"/>
      <path d="M 51.125 44 
L 36.921875 44 
L 32.8125 27.6875 
L 47.125 27.6875 
z
M 43.796875 71.78125 
L 38.71875 51.515625 
L 52.984375 51.515625 
L 58.109375 71.78125 
L 65.921875 71.78125 
L 60.890625 51.515625 
L 76.125 51.515625 
L 76.125 44 
L 58.984375 44 
L 54.984375 27.6875 
L 70.515625 27.6875 
L 70.515625 20.21875 
L 53.078125 20.21875 
L 48 0 
L 40.1875 0 
L 45.21875 20.21875 
L 30.90625 20.21875 
L 25.875 0 
L 18.015625 0 
L 23.09375 20.21875 
L 7.71875 20.21875 
L 7.71875 27.6875 
L 24.90625 27.6875 
L 29 44 
L 13.28125 44 
L 13.28125 51.515625 
L 30.90625 51.515625 
L 35.890625 71.78125 
z
" id="DejaVuSans-23"/>
      <path d="M 8.59375 75.984375 
L 29.296875 75.984375 
L 29.296875 69 
L 17.578125 69 
L 17.578125 -6.203125 
L 29.296875 -6.203125 
L 29.296875 -13.1875 
L 8.59375 -13.1875 
z
" id="DejaVuSans-5b"/>
      <path d="M 30.421875 75.984375 
L 30.421875 -13.1875 
L 9.71875 -13.1875 
L 9.71875 -6.203125 
L 21.390625 -6.203125 
L 21.390625 69 
L 9.71875 69 
L 9.71875 75.984375 
z
" id="DejaVuSans-5d"/>
     </defs>
     <g transform="translate(210.063906 335.860562)scale(0.1 -0.1)">
      <use xlink:href="#DejaVuSans-66"/>
      <use x="35.205078" xlink:href="#DejaVuSans-72"/>
      <use x="76.318359" xlink:href="#DejaVuSans-61"/>
      <use x="137.597656" xlink:href="#DejaVuSans-6d"/>
      <use x="235.009766" xlink:href="#DejaVuSans-65"/>
      <use x="296.533203" xlink:href="#DejaVuSans-20"/>
      <use x="328.320312" xlink:href="#DejaVuSans-23"/>
      <use x="412.109375" xlink:href="#DejaVuSans-20"/>
      <use x="443.896484" xlink:href="#DejaVuSans-5b"/>
      <use x="482.910156" xlink:href="#DejaVuSans-5d"/>
     </g>
    </g>
   </g>
   <g id="matplotlib.axis_2">
    <g id="ytick_1">
     <g id="line2d_51">
      <path clip-path="url(#p053a4492a1)" d="M 57.6 275.628171 
L 414.72 275.628171 
" style="fill:none;stroke:#b0b0b0;stroke-linecap:square;stroke-width:0.8;"/>
     </g>
     <g id="line2d_52">
      <defs>
       <path d="M 0 0 
L -3.5 0 
" id="m8ea294b40d" style="stroke:#000000;stroke-width:0.8;"/>
      </defs>
      <g>
       <use style="stroke:#000000;stroke-width:0.8;" x="57.6" xlink:href="#m8ea294b40d" y="275.628171"/>
      </g>
     </g>
     <g id="text_7">
      <!-- −0.3 -->
      <defs>
       <path d="M 10.59375 35.5 
L 73.1875 35.5 
L 73.1875 27.203125 
L 10.59375 27.203125 
z
" id="DejaVuSans-2212"/>
       <path d="M 10.6875 12.40625 
L 21 12.40625 
L 21 0 
L 10.6875 0 
z
" id="DejaVuSans-2e"/>
      </defs>
      <g transform="translate(26.317187 279.42739)scale(0.1 -0.1)">
       <use xlink:href="#DejaVuSans-2212"/>
       <use x="83.789062" xlink:href="#DejaVuSans-30"/>
       <use x="147.412109" xlink:href="#DejaVuSans-2e"/>
       <use x="179.199219" xlink:href="#DejaVuSans-33"/>
      </g>
     </g>
    </g>
    <g id="ytick_2">
     <g id="line2d_53">
      <path clip-path="url(#p053a4492a1)" d="M 57.6 240.379804 
L 414.72 240.379804 
" style="fill:none;stroke:#b0b0b0;stroke-linecap:square;stroke-width:0.8;"/>
     </g>
     <g id="line2d_54">
      <g>
       <use style="stroke:#000000;stroke-width:0.8;" x="57.6" xlink:href="#m8ea294b40d" y="240.379804"/>
      </g>
     </g>
     <g id="text_8">
      <!-- −0.2 -->
      <g transform="translate(26.317187 244.179022)scale(0.1 -0.1)">
       <use xlink:href="#DejaVuSans-2212"/>
       <use x="83.789062" xlink:href="#DejaVuSans-30"/>
       <use x="147.412109" xlink:href="#DejaVuSans-2e"/>
       <use x="179.199219" xlink:href="#DejaVuSans-32"/>
      </g>
     </g>
    </g>
    <g id="ytick_3">
     <g id="line2d_55">
      <path clip-path="url(#p053a4492a1)" d="M 57.6 205.131436 
L 414.72 205.131436 
" style="fill:none;stroke:#b0b0b0;stroke-linecap:square;stroke-width:0.8;"/>
     </g>
     <g id="line2d_56">
      <g>
       <use style="stroke:#000000;stroke-width:0.8;" x="57.6" xlink:href="#m8ea294b40d" y="205.131436"/>
      </g>
     </g>
     <g id="text_9">
      <!-- −0.1 -->
      <g transform="translate(26.317187 208.930655)scale(0.1 -0.1)">
       <use xlink:href="#DejaVuSans-2212"/>
       <use x="83.789062" xlink:href="#DejaVuSans-30"/>
       <use x="147.412109" xlink:href="#DejaVuSans-2e"/>
       <use x="179.199219" xlink:href="#DejaVuSans-31"/>
      </g>
     </g>
    </g>
    <g id="ytick_4">
     <g id="line2d_57">
      <path clip-path="url(#p053a4492a1)" d="M 57.6 169.883068 
L 414.72 169.883068 
" style="fill:none;stroke:#b0b0b0;stroke-linecap:square;stroke-width:0.8;"/>
     </g>
     <g id="line2d_58">
      <g>
       <use style="stroke:#000000;stroke-width:0.8;" x="57.6" xlink:href="#m8ea294b40d" y="169.883068"/>
      </g>
     </g>
     <g id="text_10">
      <!-- 0.0 -->
      <g transform="translate(34.696875 173.682287)scale(0.1 -0.1)">
       <use xlink:href="#DejaVuSans-30"/>
       <use x="63.623047" xlink:href="#DejaVuSans-2e"/>
       <use x="95.410156" xlink:href="#DejaVuSans-30"/>
      </g>
     </g>
    </g>
    <g id="ytick_5">
     <g id="line2d_59">
      <path clip-path="url(#p053a4492a1)" d="M 57.6 134.6347 
L 414.72 134.6347 
" style="fill:none;stroke:#b0b0b0;stroke-linecap:square;stroke-width:0.8;"/>
     </g>
     <g id="line2d_60">
      <g>
       <use style="stroke:#000000;stroke-width:0.8;" x="57.6" xlink:href="#m8ea294b40d" y="134.6347"/>
      </g>
     </g>
     <g id="text_11">
      <!-- 0.1 -->
      <g transform="translate(34.696875 138.433919)scale(0.1 -0.1)">
       <use xlink:href="#DejaVuSans-30"/>
       <use x="63.623047" xlink:href="#DejaVuSans-2e"/>
       <use x="95.410156" xlink:href="#DejaVuSans-31"/>
      </g>
     </g>
    </g>
    <g id="ytick_6">
     <g id="line2d_61">
      <path clip-path="url(#p053a4492a1)" d="M 57.6 99.386333 
L 414.72 99.386333 
" style="fill:none;stroke:#b0b0b0;stroke-linecap:square;stroke-width:0.8;"/>
     </g>
     <g id="line2d_62">
      <g>
       <use style="stroke:#000000;stroke-width:0.8;" x="57.6" xlink:href="#m8ea294b40d" y="99.386333"/>
      </g>
     </g>
     <g id="text_12">
      <!-- 0.2 -->
      <g transform="translate(34.696875 103.185551)scale(0.1 -0.1)">
       <use xlink:href="#DejaVuSans-30"/>
       <use x="63.623047" xlink:href="#DejaVuSans-2e"/>
       <use x="95.410156" xlink:href="#DejaVuSans-32"/>
      </g>
     </g>
    </g>
    <g id="ytick_7">
     <g id="line2d_63">
      <path clip-path="url(#p053a4492a1)" d="M 57.6 64.137965 
L 414.72 64.137965 
" style="fill:none;stroke:#b0b0b0;stroke-linecap:square;stroke-width:0.8;"/>
     </g>
     <g id="line2d_64">
      <g>
       <use style="stroke:#000000;stroke-width:0.8;" x="57.6" xlink:href="#m8ea294b40d" y="64.137965"/>
      </g>
     </g>
     <g id="text_13">
      <!-- 0.3 -->
      <g transform="translate(34.696875 67.937184)scale(0.1 -0.1)">
       <use xlink:href="#DejaVuSans-30"/>
       <use x="63.623047" xlink:href="#DejaVuSans-2e"/>
       <use x="95.410156" xlink:href="#DejaVuSans-33"/>
      </g>
     </g>
    </g>
    <g id="ytick_8">
     <g id="line2d_65">
      <path clip-path="url(#p053a4492a1)" d="M 57.6 303.826866 
L 414.72 303.826866 
" style="fill:none;stroke:#b0b0b0;stroke-linecap:square;stroke-width:0.8;"/>
     </g>
     <g id="line2d_66">
      <defs>
       <path d="M 0 0 
L -2 0 
" id="m462c7482bf" style="stroke:#000000;stroke-width:0.6;"/>
      </defs>
      <g>
       <use style="stroke:#000000;stroke-width:0.6;" x="57.6" xlink:href="#m462c7482bf" y="303.826866"/>
      </g>
     </g>
    </g>
    <g id="ytick_9">
     <g id="line2d_67">
      <path clip-path="url(#p053a4492a1)" d="M 57.6 296.777192 
L 414.72 296.777192 
" style="fill:none;stroke:#b0b0b0;stroke-linecap:square;stroke-width:0.8;"/>
     </g>
     <g id="line2d_68">
      <g>
       <use style="stroke:#000000;stroke-width:0.6;" x="57.6" xlink:href="#m462c7482bf" y="296.777192"/>
      </g>
     </g>
    </g>
    <g id="ytick_10">
     <g id="line2d_69">
      <path clip-path="url(#p053a4492a1)" d="M 57.6 289.727519 
L 414.72 289.727519 
" style="fill:none;stroke:#b0b0b0;stroke-linecap:square;stroke-width:0.8;"/>
     </g>
     <g id="line2d_70">
      <g>
       <use style="stroke:#000000;stroke-width:0.6;" x="57.6" xlink:href="#m462c7482bf" y="289.727519"/>
      </g>
     </g>
    </g>
    <g id="ytick_11">
     <g id="line2d_71">
      <path clip-path="url(#p053a4492a1)" d="M 57.6 282.677845 
L 414.72 282.677845 
" style="fill:none;stroke:#b0b0b0;stroke-linecap:square;stroke-width:0.8;"/>
     </g>
     <g id="line2d_72">
      <g>
       <use style="stroke:#000000;stroke-width:0.6;" x="57.6" xlink:href="#m462c7482bf" y="282.677845"/>
      </g>
     </g>
    </g>
    <g id="ytick_12">
     <g id="line2d_73">
      <path clip-path="url(#p053a4492a1)" d="M 57.6 268.578498 
L 414.72 268.578498 
" style="fill:none;stroke:#b0b0b0;stroke-linecap:square;stroke-width:0.8;"/>
     </g>
     <g id="line2d_74">
      <g>
       <use style="stroke:#000000;stroke-width:0.6;" x="57.6" xlink:href="#m462c7482bf" y="268.578498"/>
      </g>
     </g>
    </g>
    <g id="ytick_13">
     <g id="line2d_75">
      <path clip-path="url(#p053a4492a1)" d="M 57.6 261.528824 
L 414.72 261.528824 
" style="fill:none;stroke:#b0b0b0;stroke-linecap:square;stroke-width:0.8;"/>
     </g>
     <g id="line2d_76">
      <g>
       <use style="stroke:#000000;stroke-width:0.6;" x="57.6" xlink:href="#m462c7482bf" y="261.528824"/>
      </g>
     </g>
    </g>
    <g id="ytick_14">
     <g id="line2d_77">
      <path clip-path="url(#p053a4492a1)" d="M 57.6 254.479151 
L 414.72 254.479151 
" style="fill:none;stroke:#b0b0b0;stroke-linecap:square;stroke-width:0.8;"/>
     </g>
     <g id="line2d_78">
      <g>
       <use style="stroke:#000000;stroke-width:0.6;" x="57.6" xlink:href="#m462c7482bf" y="254.479151"/>
      </g>
     </g>
    </g>
    <g id="ytick_15">
     <g id="line2d_79">
      <path clip-path="url(#p053a4492a1)" d="M 57.6 247.429477 
L 414.72 247.429477 
" style="fill:none;stroke:#b0b0b0;stroke-linecap:square;stroke-width:0.8;"/>
     </g>
     <g id="line2d_80">
      <g>
       <use style="stroke:#000000;stroke-width:0.6;" x="57.6" xlink:href="#m462c7482bf" y="247.429477"/>
      </g>
     </g>
    </g>
    <g id="ytick_16">
     <g id="line2d_81">
      <path clip-path="url(#p053a4492a1)" d="M 57.6 233.33013 
L 414.72 233.33013 
" style="fill:none;stroke:#b0b0b0;stroke-linecap:square;stroke-width:0.8;"/>
     </g>
     <g id="line2d_82">
      <g>
       <use style="stroke:#000000;stroke-width:0.6;" x="57.6" xlink:href="#m462c7482bf" y="233.33013"/>
      </g>
     </g>
    </g>
    <g id="ytick_17">
     <g id="line2d_83">
      <path clip-path="url(#p053a4492a1)" d="M 57.6 226.280457 
L 414.72 226.280457 
" style="fill:none;stroke:#b0b0b0;stroke-linecap:square;stroke-width:0.8;"/>
     </g>
     <g id="line2d_84">
      <g>
       <use style="stroke:#000000;stroke-width:0.6;" x="57.6" xlink:href="#m462c7482bf" y="226.280457"/>
      </g>
     </g>
    </g>
    <g id="ytick_18">
     <g id="line2d_85">
      <path clip-path="url(#p053a4492a1)" d="M 57.6 219.230783 
L 414.72 219.230783 
" style="fill:none;stroke:#b0b0b0;stroke-linecap:square;stroke-width:0.8;"/>
     </g>
     <g id="line2d_86">
      <g>
       <use style="stroke:#000000;stroke-width:0.6;" x="57.6" xlink:href="#m462c7482bf" y="219.230783"/>
      </g>
     </g>
    </g>
    <g id="ytick_19">
     <g id="line2d_87">
      <path clip-path="url(#p053a4492a1)" d="M 57.6 212.181109 
L 414.72 212.181109 
" style="fill:none;stroke:#b0b0b0;stroke-linecap:square;stroke-width:0.8;"/>
     </g>
     <g id="line2d_88">
      <g>
       <use style="stroke:#000000;stroke-width:0.6;" x="57.6" xlink:href="#m462c7482bf" y="212.181109"/>
      </g>
     </g>
    </g>
    <g id="ytick_20">
     <g id="line2d_89">
      <path clip-path="url(#p053a4492a1)" d="M 57.6 198.081762 
L 414.72 198.081762 
" style="fill:none;stroke:#b0b0b0;stroke-linecap:square;stroke-width:0.8;"/>
     </g>
     <g id="line2d_90">
      <g>
       <use style="stroke:#000000;stroke-width:0.6;" x="57.6" xlink:href="#m462c7482bf" y="198.081762"/>
      </g>
     </g>
    </g>
    <g id="ytick_21">
     <g id="line2d_91">
      <path clip-path="url(#p053a4492a1)" d="M 57.6 191.032089 
L 414.72 191.032089 
" style="fill:none;stroke:#b0b0b0;stroke-linecap:square;stroke-width:0.8;"/>
     </g>
     <g id="line2d_92">
      <g>
       <use style="stroke:#000000;stroke-width:0.6;" x="57.6" xlink:href="#m462c7482bf" y="191.032089"/>
      </g>
     </g>
    </g>
    <g id="ytick_22">
     <g id="line2d_93">
      <path clip-path="url(#p053a4492a1)" d="M 57.6 183.982415 
L 414.72 183.982415 
" style="fill:none;stroke:#b0b0b0;stroke-linecap:square;stroke-width:0.8;"/>
     </g>
     <g id="line2d_94">
      <g>
       <use style="stroke:#000000;stroke-width:0.6;" x="57.6" xlink:href="#m462c7482bf" y="183.982415"/>
      </g>
     </g>
    </g>
    <g id="ytick_23">
     <g id="line2d_95">
      <path clip-path="url(#p053a4492a1)" d="M 57.6 176.932742 
L 414.72 176.932742 
" style="fill:none;stroke:#b0b0b0;stroke-linecap:square;stroke-width:0.8;"/>
     </g>
     <g id="line2d_96">
      <g>
       <use style="stroke:#000000;stroke-width:0.6;" x="57.6" xlink:href="#m462c7482bf" y="176.932742"/>
      </g>
     </g>
    </g>
    <g id="ytick_24">
     <g id="line2d_97">
      <path clip-path="url(#p053a4492a1)" d="M 57.6 162.833395 
L 414.72 162.833395 
" style="fill:none;stroke:#b0b0b0;stroke-linecap:square;stroke-width:0.8;"/>
     </g>
     <g id="line2d_98">
      <g>
       <use style="stroke:#000000;stroke-width:0.6;" x="57.6" xlink:href="#m462c7482bf" y="162.833395"/>
      </g>
     </g>
    </g>
    <g id="ytick_25">
     <g id="line2d_99">
      <path clip-path="url(#p053a4492a1)" d="M 57.6 155.783721 
L 414.72 155.783721 
" style="fill:none;stroke:#b0b0b0;stroke-linecap:square;stroke-width:0.8;"/>
     </g>
     <g id="line2d_100">
      <g>
       <use style="stroke:#000000;stroke-width:0.6;" x="57.6" xlink:href="#m462c7482bf" y="155.783721"/>
      </g>
     </g>
    </g>
    <g id="ytick_26">
     <g id="line2d_101">
      <path clip-path="url(#p053a4492a1)" d="M 57.6 148.734047 
L 414.72 148.734047 
" style="fill:none;stroke:#b0b0b0;stroke-linecap:square;stroke-width:0.8;"/>
     </g>
     <g id="line2d_102">
      <g>
       <use style="stroke:#000000;stroke-width:0.6;" x="57.6" xlink:href="#m462c7482bf" y="148.734047"/>
      </g>
     </g>
    </g>
    <g id="ytick_27">
     <g id="line2d_103">
      <path clip-path="url(#p053a4492a1)" d="M 57.6 141.684374 
L 414.72 141.684374 
" style="fill:none;stroke:#b0b0b0;stroke-linecap:square;stroke-width:0.8;"/>
     </g>
     <g id="line2d_104">
      <g>
       <use style="stroke:#000000;stroke-width:0.6;" x="57.6" xlink:href="#m462c7482bf" y="141.684374"/>
      </g>
     </g>
    </g>
    <g id="ytick_28">
     <g id="line2d_105">
      <path clip-path="url(#p053a4492a1)" d="M 57.6 127.585027 
L 414.72 127.585027 
" style="fill:none;stroke:#b0b0b0;stroke-linecap:square;stroke-width:0.8;"/>
     </g>
     <g id="line2d_106">
      <g>
       <use style="stroke:#000000;stroke-width:0.6;" x="57.6" xlink:href="#m462c7482bf" y="127.585027"/>
      </g>
     </g>
    </g>
    <g id="ytick_29">
     <g id="line2d_107">
      <path clip-path="url(#p053a4492a1)" d="M 57.6 120.535353 
L 414.72 120.535353 
" style="fill:none;stroke:#b0b0b0;stroke-linecap:square;stroke-width:0.8;"/>
     </g>
     <g id="line2d_108">
      <g>
       <use style="stroke:#000000;stroke-width:0.6;" x="57.6" xlink:href="#m462c7482bf" y="120.535353"/>
      </g>
     </g>
    </g>
    <g id="ytick_30">
     <g id="line2d_109">
      <path clip-path="url(#p053a4492a1)" d="M 57.6 113.48568 
L 414.72 113.48568 
" style="fill:none;stroke:#b0b0b0;stroke-linecap:square;stroke-width:0.8;"/>
     </g>
     <g id="line2d_110">
      <g>
       <use style="stroke:#000000;stroke-width:0.6;" x="57.6" xlink:href="#m462c7482bf" y="113.48568"/>
      </g>
     </g>
    </g>
    <g id="ytick_31">
     <g id="line2d_111">
      <path clip-path="url(#p053a4492a1)" d="M 57.6 106.436006 
L 414.72 106.436006 
" style="fill:none;stroke:#b0b0b0;stroke-linecap:square;stroke-width:0.8;"/>
     </g>
     <g id="line2d_112">
      <g>
       <use style="stroke:#000000;stroke-width:0.6;" x="57.6" xlink:href="#m462c7482bf" y="106.436006"/>
      </g>
     </g>
    </g>
    <g id="ytick_32">
     <g id="line2d_113">
      <path clip-path="url(#p053a4492a1)" d="M 57.6 92.336659 
L 414.72 92.336659 
" style="fill:none;stroke:#b0b0b0;stroke-linecap:square;stroke-width:0.8;"/>
     </g>
     <g id="line2d_114">
      <g>
       <use style="stroke:#000000;stroke-width:0.6;" x="57.6" xlink:href="#m462c7482bf" y="92.336659"/>
      </g>
     </g>
    </g>
    <g id="ytick_33">
     <g id="line2d_115">
      <path clip-path="url(#p053a4492a1)" d="M 57.6 85.286985 
L 414.72 85.286985 
" style="fill:none;stroke:#b0b0b0;stroke-linecap:square;stroke-width:0.8;"/>
     </g>
     <g id="line2d_116">
      <g>
       <use style="stroke:#000000;stroke-width:0.6;" x="57.6" xlink:href="#m462c7482bf" y="85.286985"/>
      </g>
     </g>
    </g>
    <g id="ytick_34">
     <g id="line2d_117">
      <path clip-path="url(#p053a4492a1)" d="M 57.6 78.237312 
L 414.72 78.237312 
" style="fill:none;stroke:#b0b0b0;stroke-linecap:square;stroke-width:0.8;"/>
     </g>
     <g id="line2d_118">
      <g>
       <use style="stroke:#000000;stroke-width:0.6;" x="57.6" xlink:href="#m462c7482bf" y="78.237312"/>
      </g>
     </g>
    </g>
    <g id="ytick_35">
     <g id="line2d_119">
      <path clip-path="url(#p053a4492a1)" d="M 57.6 71.187638 
L 414.72 71.187638 
" style="fill:none;stroke:#b0b0b0;stroke-linecap:square;stroke-width:0.8;"/>
     </g>
     <g id="line2d_120">
      <g>
       <use style="stroke:#000000;stroke-width:0.6;" x="57.6" xlink:href="#m462c7482bf" y="71.187638"/>
      </g>
     </g>
    </g>
    <g id="ytick_36">
     <g id="line2d_121">
      <path clip-path="url(#p053a4492a1)" d="M 57.6 57.088291 
L 414.72 57.088291 
" style="fill:none;stroke:#b0b0b0;stroke-linecap:square;stroke-width:0.8;"/>
     </g>
     <g id="line2d_122">
      <g>
       <use style="stroke:#000000;stroke-width:0.6;" x="57.6" xlink:href="#m462c7482bf" y="57.088291"/>
      </g>
     </g>
    </g>
    <g id="ytick_37">
     <g id="line2d_123">
      <path clip-path="url(#p053a4492a1)" d="M 57.6 50.038618 
L 414.72 50.038618 
" style="fill:none;stroke:#b0b0b0;stroke-linecap:square;stroke-width:0.8;"/>
     </g>
     <g id="line2d_124">
      <g>
       <use style="stroke:#000000;stroke-width:0.6;" x="57.6" xlink:href="#m462c7482bf" y="50.038618"/>
      </g>
     </g>
    </g>
    <g id="ytick_38">
     <g id="line2d_125">
      <path clip-path="url(#p053a4492a1)" d="M 57.6 42.988944 
L 414.72 42.988944 
" style="fill:none;stroke:#b0b0b0;stroke-linecap:square;stroke-width:0.8;"/>
     </g>
     <g id="line2d_126">
      <g>
       <use style="stroke:#000000;stroke-width:0.6;" x="57.6" xlink:href="#m462c7482bf" y="42.988944"/>
      </g>
     </g>
    </g>
    <g id="text_14">
     <!-- rot y -->
     <defs>
      <path d="M 30.609375 48.390625 
Q 23.390625 48.390625 19.1875 42.75 
Q 14.984375 37.109375 14.984375 27.296875 
Q 14.984375 17.484375 19.15625 11.84375 
Q 23.34375 6.203125 30.609375 6.203125 
Q 37.796875 6.203125 41.984375 11.859375 
Q 46.1875 17.53125 46.1875 27.296875 
Q 46.1875 37.015625 41.984375 42.703125 
Q 37.796875 48.390625 30.609375 48.390625 
z
M 30.609375 56 
Q 42.328125 56 49.015625 48.375 
Q 55.71875 40.765625 55.71875 27.296875 
Q 55.71875 13.875 49.015625 6.21875 
Q 42.328125 -1.421875 30.609375 -1.421875 
Q 18.84375 -1.421875 12.171875 6.21875 
Q 5.515625 13.875 5.515625 27.296875 
Q 5.515625 40.765625 12.171875 48.375 
Q 18.84375 56 30.609375 56 
z
" id="DejaVuSans-6f"/>
      <path d="M 18.3125 70.21875 
L 18.3125 54.6875 
L 36.8125 54.6875 
L 36.8125 47.703125 
L 18.3125 47.703125 
L 18.3125 18.015625 
Q 18.3125 11.328125 20.140625 9.421875 
Q 21.96875 7.515625 27.59375 7.515625 
L 36.8125 7.515625 
L 36.8125 0 
L 27.59375 0 
Q 17.1875 0 13.234375 3.875 
Q 9.28125 7.765625 9.28125 18.015625 
L 9.28125 47.703125 
L 2.6875 47.703125 
L 2.6875 54.6875 
L 9.28125 54.6875 
L 9.28125 70.21875 
z
" id="DejaVuSans-74"/>
      <path d="M 32.171875 -5.078125 
Q 28.375 -14.84375 24.75 -17.8125 
Q 21.140625 -20.796875 15.09375 -20.796875 
L 7.90625 -20.796875 
L 7.90625 -13.28125 
L 13.1875 -13.28125 
Q 16.890625 -13.28125 18.9375 -11.515625 
Q 21 -9.765625 23.484375 -3.21875 
L 25.09375 0.875 
L 2.984375 54.6875 
L 12.5 54.6875 
L 29.59375 11.921875 
L 46.6875 54.6875 
L 56.203125 54.6875 
z
" id="DejaVuSans-79"/>
     </defs>
     <g transform="translate(20.2375 186.149875)rotate(-90)scale(0.1 -0.1)">
      <use xlink:href="#DejaVuSans-72"/>
      <use x="41.082031" xlink:href="#DejaVuSans-6f"/>
      <use x="102.263672" xlink:href="#DejaVuSans-74"/>
      <use x="141.472656" xlink:href="#DejaVuSans-20"/>
      <use x="173.259766" xlink:href="#DejaVuSans-79"/>
     </g>
    </g>
   </g>
   <g id="line2d_127">
    <path clip-path="url(#p053a4492a1)" d="M 73.832727 144.247563 
L 75.217208 156.468918 
L 75.90628 158.558472 
L 76.598517 159.964603 
L 77.290754 157.077171 
L 77.982991 152.869461 
L 78.6751 152.483864 
L 80.059581 156.397478 
L 80.751818 149.836711 
L 81.446481 153.57326 
L 82.830962 168.612242 
L 83.523199 172.970409 
L 84.216653 171.404501 
L 84.908883 167.010615 
L 85.601147 167.104936 
L 86.293364 160.390387 
L 86.985656 156.058824 
L 87.675135 161.020332 
L 88.367373 161.150276 
L 89.05961 165.400884 
L 89.751847 173.214787 
L 90.441987 182.533276 
L 91.13423 174.139488 
L 91.826467 174.914071 
L 92.518705 168.211083 
L 93.902011 149.108203 
L 94.594254 135.128079 
L 95.286491 125.148656 
L 95.979336 130.427261 
L 96.671581 153.274283 
L 97.363819 164.840044 
L 98.749362 198.547235 
L 99.44205 206.571444 
L 100.133837 200.289337 
L 100.826074 198.191029 
L 101.516997 192.272658 
M 102.901478 176.415691 
L 103.593715 173.205468 
L 104.284797 162.597611 
L 104.977035 143.476803 
L 105.669272 133.540421 
L 106.361509 142.406278 
L 107.05535 144.705959 
L 107.747587 137.812719 
L 108.439825 142.988414 
L 109.132062 161.295201 
L 109.824962 171.741316 
L 110.517208 172.2526 
L 111.209437 176.9006 
L 111.901674 179.695447 
L 112.593675 176.542027 
L 113.285912 175.686779 
L 113.978149 180.58243 
L 115.361972 191.639076 
L 116.054209 199.405749 
L 116.746446 219.183433 
L 117.438683 223.465823 
L 118.130907 213.921442 
L 118.823151 218.31366 
L 119.515395 210.101015 
L 120.207625 192.133828 
L 121.594579 163.719967 
L 122.286816 139.760507 
L 122.97906 121.406017 
L 123.67129 131.324094 
L 124.363909 145.795161 
L 125.056146 144.506407 
L 125.748383 159.919229 
L 126.44062 192.763312 
L 127.129632 199.132188 
L 127.82187 212.108459 
L 128.514107 217.430142 
L 129.206344 214.838601 
L 129.89967 206.468354 
L 130.591908 201.456768 
L 131.284145 177.735213 
L 131.976389 161.029109 
L 132.670814 148.490541 
L 133.363058 138.794 
L 134.055295 131.479535 
L 134.747532 136.375022 
L 135.437802 148.568653 
L 136.130039 154.6999 
L 136.822277 155.068868 
L 137.514514 160.276257 
L 138.204709 172.143873 
L 139.589184 189.608002 
L 140.281421 204.143863 
L 140.976101 209.593511 
L 141.668336 198.80705 
L 143.05281 167.298695 
L 143.744756 160.971831 
L 145.129236 141.428997 
L 145.821474 132.471497 
L 146.511257 130.861127 
L 147.203494 135.704974 
L 147.895731 139.263762 
L 149.973692 127.789245 
L 150.665929 135.041006 
L 152.05041 160.095447 
L 153.435969 197.691531 
L 154.128206 199.906522 
L 154.820443 198.797333 
L 155.510224 201.318817 
L 156.20247 201.252689 
L 156.894699 202.67048 
M 158.279343 216.690464 
L 158.97158 226.063105 
L 159.663852 211.435682 
L 160.356055 213.648835 
L 161.051271 201.540282 
L 161.743508 181.656948 
L 162.435745 158.207203 
L 163.127989 142.681969 
L 163.818557 132.596752 
L 164.510795 134.136312 
M 165.895269 138.497065 
L 166.586145 133.437328 
L 167.278382 130.608896 
L 167.970626 129.625797 
L 168.662863 120.811631 
L 169.356457 117.181179 
L 170.048694 135.031181 
L 170.740931 155.835245 
L 172.125831 168.655156 
L 173.510286 193.002585 
L 174.202529 191.591567 
L 174.892987 195.721462 
L 175.585225 206.875408 
L 176.277462 212.457419 
L 176.969699 207.188742 
L 177.662487 211.918273 
L 178.354724 212.714803 
L 179.046962 210.076732 
L 179.739205 202.492901 
L 180.434067 198.346174 
L 181.126297 181.042021 
L 181.818534 171.798944 
L 182.510778 153.052523 
L 183.200632 143.077115 
L 183.892876 131.355496 
L 184.585113 132.108159 
L 185.2776 120.93561 
L 185.969588 121.820999 
L 186.661455 121.961237 
L 188.045929 143.27041 
L 188.738167 143.938116 
M 191.509762 185.719798 
L 192.199235 193.692488 
L 192.891481 206.815399 
L 193.583718 214.351143 
L 194.275953 216.404046 
L 194.967935 209.84859 
L 195.660172 212.000112 
M 197.044646 226.575229 
L 197.738917 222.331302 
L 198.431154 196.288146 
L 199.123391 160.848455 
L 199.815628 138.970193 
L 200.508823 127.771278 
L 201.20106 126.635321 
L 201.893304 122.569808 
L 202.585541 132.033923 
L 203.275538 147.924558 
L 203.967776 171.668618 
L 204.660013 203.119262 
L 205.35225 218.829866 
L 206.044672 217.920841 
L 206.736909 228.597866 
L 207.429146 218.5351 
L 208.121383 190.727613 
L 208.815873 158.192378 
L 209.50811 136.686602 
L 210.892585 124.781995 
L 211.583861 121.121845 
L 212.276099 126.772621 
L 212.968342 123.096203 
L 213.66058 120.392062 
L 214.351919 120.618982 
L 215.044156 117.60644 
L 215.736393 131.02961 
L 216.428631 139.654809 
L 217.120874 142.39468 
L 217.814995 149.465356 
L 218.507232 159.185572 
L 219.199469 177.458421 
L 221.277214 215.890385 
L 221.969824 218.045581 
L 222.661681 213.281696 
L 223.354881 203.114328 
L 224.739362 169.349263 
L 225.431599 159.198584 
L 226.123329 145.490692 
L 226.815566 134.066492 
L 227.507804 129.243794 
L 228.200041 140.202546 
L 228.892598 139.160908 
L 229.584835 145.357359 
L 230.277072 154.086659 
L 230.96931 153.376164 
L 231.661953 158.34555 
L 233.046427 180.89797 
L 233.738664 188.77047 
L 234.434318 197.959411 
L 235.126562 199.920481 
L 235.818799 197.614625 
L 236.511036 191.920925 
L 237.897963 174.293899 
L 238.5902 175.964967 
L 239.282437 183.379806 
M 240.658539 187.359139 
L 241.350776 193.005869 
L 242.043013 201.01408 
L 242.735331 203.130185 
L 243.427569 202.485652 
L 244.119806 196.6555 
L 244.812043 189.734878 
L 245.504977 193.591959 
L 246.197214 186.274103 
L 246.889449 175.399444 
L 247.581686 171.720975 
L 248.274878 164.358314 
L 248.967115 146.872135 
L 249.659352 138.93468 
L 251.043826 126.05896 
L 251.736771 132.901094 
L 253.121246 144.248474 
L 253.81349 151.392171 
L 254.500718 165.890923 
L 255.192947 176.737671 
L 255.885192 182.827787 
L 256.577429 174.223509 
L 257.269926 185.721646 
L 257.962163 199.08057 
L 258.6544 201.705887 
L 259.346637 213.600377 
L 260.040695 216.753506 
L 261.425169 190.133963 
L 262.80931 154.456478 
L 263.501547 145.020217 
L 264.193784 145.346742 
L 264.886021 141.05808 
L 265.576308 133.592244 
L 266.268553 124.074391 
M 268.344813 130.482707 
L 269.03705 124.885099 
M 273.886626 186.460837 
L 274.578864 174.918296 
M 280.11432 152.06345 
L 280.806557 160.120345 
M 291.190092 157.624033 
L 291.882329 162.50836 
M 296.728311 237.959397 
L 297.420548 239.873512 
M 305.72952 264.120956 
L 306.421757 295.488 
L 307.114493 287.135159 
M 308.496983 205.598004 
L 309.18922 129.163016 
M 316.803859 264.374008 
L 317.496096 228.718122 
L 318.880571 118.993303 
M 323.726858 125.523347 
L 324.419095 165.52534 
L 325.805058 223.678933 
L 326.497302 246.310614 
M 328.576974 177.867213 
L 329.269218 133.413804 
M 330.653469 77.435928 
L 331.346218 85.8355 
L 332.037944 103.369887 
L 333.422638 182.490488 
L 334.114875 199.973185 
L 334.807119 235.739762 
M 339.651661 69.533052 
L 340.343899 95.038334 
L 341.036136 125.444604 
L 341.726718 169.106618 
L 343.111192 238.347363 
L 343.803429 263.991824 
M 345.877414 216.691579 
L 346.569651 171.440728 
M 354.184019 224.344783 
L 354.87625 179.944071 
M 357.647653 118.153678 
L 358.33989 141.688597 
L 359.721951 161.520155 
M 362.491511 190.627045 
L 363.183748 191.629062 
L 363.875985 180.926011 
M 366.6451 139.816193 
L 367.338052 156.669682 
M 368.722533 155.48468 
L 369.41477 149.286586 
L 370.107983 153.925932 
L 370.80022 176.418021 
L 371.492457 188.542971 
M 374.262395 167.864698 
L 375.647823 146.691007 
L 376.34006 138.694677 
M 383.260573 182.569463 
L 383.952811 163.792193 
L 384.644637 171.233229 
M 388.104412 164.815763 
L 388.796657 172.188289 
L 389.488894 184.282611 
L 390.179932 186.41093 
L 390.872169 176.089226 
L 391.564426 169.987581 
L 391.564426 169.987581 
" style="fill:none;stroke:#ff0000;stroke-linecap:square;"/>
   </g>
   <g id="line2d_128">
    <path clip-path="url(#p053a4492a1)" d="M 73.832727 145.192401 
L 74.524971 144.761841 
L 75.217208 160.230344 
L 75.90628 159.350617 
L 76.598517 159.381606 
L 77.290754 158.31875 
L 77.982991 153.137604 
L 78.6751 149.904713 
L 79.367337 154.744003 
L 80.059581 158.073723 
L 80.751818 149.279474 
L 81.446481 152.578618 
L 82.830962 168.147688 
L 83.523199 171.46303 
L 84.216653 173.945245 
L 84.908883 167.946709 
L 85.601147 166.461012 
L 86.293364 161.384107 
L 86.985656 158.112673 
L 87.675135 160.129369 
L 88.367373 161.31332 
L 89.05961 163.678175 
L 89.751847 172.227704 
L 90.441987 184.016359 
L 91.13423 175.427701 
L 91.826467 176.302756 
L 93.209773 159.665692 
L 93.902011 150.337591 
L 94.594254 136.759246 
L 95.286491 126.337122 
L 95.979336 127.09371 
L 96.671581 150.432757 
L 97.363819 162.914065 
L 98.056056 178.84545 
L 98.749362 199.736638 
L 99.44205 208.811324 
L 100.133837 204.220905 
L 100.826074 202.362093 
L 101.516997 197.984004 
M 102.901478 180.170929 
L 103.593715 174.262484 
L 104.284797 164.211073 
L 104.977035 145.648188 
L 105.669272 133.329272 
L 106.361509 141.163719 
L 107.05535 147.533703 
L 107.747587 137.518022 
L 108.439825 142.496184 
L 109.132062 161.407376 
L 109.824962 173.672256 
L 110.517208 177.768682 
L 111.209437 173.980588 
L 111.901674 176.634293 
L 112.593675 177.992693 
L 113.285912 171.791297 
L 114.670387 187.197603 
L 115.361972 191.657225 
L 116.054209 198.759862 
L 116.746446 217.020494 
L 117.438683 221.308132 
L 118.130907 214.355185 
L 118.823151 219.890879 
L 119.515395 214.137077 
L 120.207625 194.729842 
L 121.594579 166.12823 
L 122.97906 120.989438 
L 123.67129 127.422648 
L 124.363909 140.843791 
L 125.056146 144.375884 
L 125.748383 156.415368 
L 126.44062 189.898742 
L 127.129632 198.030782 
L 128.514107 217.829862 
L 129.206344 218.22988 
L 130.591908 201.971024 
L 131.284145 179.206889 
L 131.976389 161.359503 
L 132.670814 149.019005 
L 133.363058 138.763666 
L 134.055295 131.666282 
L 134.747532 134.110561 
L 135.437802 147.710911 
L 136.130039 153.140813 
L 136.822277 153.302154 
L 137.514514 158.710102 
L 138.204709 170.666442 
L 139.589184 188.055821 
L 140.281421 203.017434 
L 140.976101 212.025014 
L 141.668336 202.944634 
L 142.360573 184.285096 
L 143.05281 171.184299 
L 145.821474 133.010369 
L 146.511257 130.272017 
L 147.203494 135.638124 
L 147.895731 139.635403 
L 148.588378 139.409028 
L 149.281455 129.653102 
L 149.973692 131.894952 
L 150.665929 133.729875 
L 152.05041 157.298613 
L 153.435969 196.183927 
L 154.128206 200.539435 
L 154.820443 198.743821 
L 155.510224 202.032174 
L 156.20247 202.144752 
L 156.894699 202.859719 
M 158.279343 206.073324 
L 158.97158 211.622238 
L 159.663852 212.214916 
L 160.356055 219.292543 
L 161.051271 207.248127 
L 162.435745 161.62881 
L 163.127989 145.367049 
L 163.818557 134.357567 
L 164.510795 133.817032 
M 165.895269 136.091215 
L 166.586145 140.309633 
L 167.278382 133.778616 
L 167.970626 132.448464 
L 168.662863 120.203805 
L 169.356457 121.835244 
L 170.048694 133.238476 
L 170.740931 150.978708 
L 171.433168 161.175521 
L 172.125831 168.066437 
L 172.818048 179.812183 
L 173.510286 195.566231 
L 174.202529 191.859173 
L 174.892987 196.302517 
L 175.585225 205.855473 
L 176.277462 208.862351 
L 176.969699 209.212368 
L 177.662487 214.518041 
L 178.354724 217.875367 
L 179.046962 207.801112 
L 179.739205 201.485382 
L 180.434067 199.870634 
L 181.126297 184.103638 
L 181.818534 173.418431 
L 182.510778 155.994455 
L 183.200632 141.76748 
L 183.892876 136.058884 
L 184.585113 125.241392 
L 185.2776 123.545055 
L 185.969588 118.299484 
L 186.661455 124.408876 
L 187.353692 127.063224 
L 188.045929 137.591412 
L 188.738167 142.043559 
M 191.509762 185.330384 
L 192.199235 193.067753 
L 192.891481 206.141647 
L 193.583718 211.8142 
L 194.275953 219.510783 
L 194.967935 210.619738 
L 195.660172 212.466434 
M 197.044646 227.887298 
L 197.738917 227.084767 
L 198.431154 200.917258 
L 199.123391 164.324878 
L 199.815628 141.774882 
L 200.508823 126.994857 
L 201.20106 123.574444 
L 201.893304 123.951329 
L 202.585541 129.893729 
L 203.275538 143.768917 
L 205.35225 217.421382 
L 206.044672 220.05189 
L 206.736909 230.480851 
L 207.429146 222.943885 
L 208.121383 197.514866 
L 208.815873 163.780764 
L 209.50811 139.684454 
L 210.200348 129.805158 
L 210.892585 124.206747 
L 211.583861 122.161672 
L 212.276099 127.138983 
L 212.968342 126.793759 
L 213.66058 122.529566 
L 214.351919 120.436053 
L 215.044156 115.780082 
L 216.428631 139.302173 
L 217.120874 142.552188 
L 217.814995 147.450548 
L 219.199469 176.93736 
L 219.891706 191.911066 
L 220.58497 199.155235 
L 221.277214 211.355015 
L 221.969824 218.346459 
L 222.661681 216.674208 
L 223.354881 206.925635 
L 224.047124 189.285651 
L 224.739362 168.77061 
L 225.431599 160.457024 
L 226.815566 134.757912 
L 227.507804 128.757896 
L 228.200041 137.988346 
L 228.892598 140.782385 
L 229.584835 144.638913 
L 230.277072 153.473674 
L 231.661953 157.535581 
L 233.046427 181.527164 
L 233.738664 188.489468 
L 234.434318 193.593589 
L 235.126562 199.57334 
L 235.818799 197.254161 
L 236.511036 193.607167 
L 237.897963 175.041124 
L 238.5902 175.177598 
L 239.282437 181.290752 
M 240.658539 188.583872 
L 241.350776 191.519831 
L 242.043013 198.025971 
L 242.735331 203.402288 
L 243.427569 202.8863 
L 244.119806 200.14569 
L 244.812043 191.191784 
L 245.504977 195.221798 
L 246.197214 188.846813 
L 246.889449 177.035589 
L 247.581686 172.30201 
L 248.274878 165.126169 
L 248.967115 148.831099 
L 249.659352 138.225234 
L 251.043826 126.118072 
L 251.736771 128.986501 
L 252.429009 135.503346 
L 253.121246 140.735112 
L 253.81349 150.13615 
L 255.192947 174.706934 
L 255.885192 181.138285 
L 256.577429 173.429114 
L 257.269926 182.442564 
L 257.962163 198.005825 
L 258.6544 204.3011 
L 259.346637 213.334639 
L 260.040695 218.531898 
L 260.732932 206.153266 
L 262.117406 173.664864 
L 262.80931 157.533352 
L 263.501547 144.30356 
L 264.193784 144.061437 
L 264.886021 140.156517 
L 265.576308 128.897105 
L 266.268553 128.548304 
M 268.344813 135.773849 
L 269.03705 131.757359 
M 273.886626 186.70251 
L 274.578864 176.507936 
M 280.11432 150.633579 
L 280.806557 159.138104 
M 291.190092 157.132698 
L 291.882329 164.672256 
M 296.728311 234.922046 
L 297.420548 246.98909 
M 305.72952 256.490207 
L 306.421757 288.261278 
L 307.114493 293.788245 
M 308.496983 212.247183 
L 309.18922 139.375427 
M 316.803859 263.949772 
L 317.496096 228.40031 
L 318.188333 185.572554 
L 318.880571 125.905726 
M 323.726858 122.692337 
L 324.419095 160.046458 
L 325.805058 222.236039 
L 326.497302 242.942386 
M 328.576974 181.349013 
L 329.269218 140.9431 
M 330.653469 75.889118 
L 331.346218 82.816915 
L 332.037944 95.616404 
L 333.422638 180.01271 
L 334.114875 197.927104 
L 334.807119 232.55618 
M 339.651661 65.749677 
L 340.343899 90.747557 
L 341.036136 121.359998 
L 341.726718 166.030903 
L 343.803429 263.195822 
M 345.877414 224.198314 
L 346.569651 175.634595 
M 354.184019 229.709273 
L 354.87625 183.77643 
M 357.647653 117.525258 
L 358.33989 139.793484 
L 359.721951 157.589079 
M 362.491511 181.37577 
L 363.183748 190.787743 
L 363.875985 181.684239 
M 366.6451 142.398552 
L 367.338052 154.165334 
M 368.722533 155.069535 
L 369.41477 149.925181 
L 370.107983 151.555798 
L 371.492457 185.978681 
M 374.262395 169.123488 
L 374.95463 156.830796 
L 375.647823 151.084112 
L 376.34006 138.012491 
M 383.260573 186.234346 
L 383.952811 163.908523 
L 384.644637 170.996076 
M 388.104412 165.450444 
L 388.796657 169.67414 
L 389.488894 181.572844 
L 390.179932 184.148006 
L 390.872169 174.305087 
L 391.564426 169.517312 
L 391.564426 169.517312 
" style="fill:none;stroke:#0000ff;stroke-linecap:square;"/>
   </g>
   <g id="line2d_129">
    <path clip-path="url(#p053a4492a1)" d="M 266.960791 129.114641 
L 267.653028 132.016671 
M 269.729287 142.37487 
L 270.421524 162.229805 
L 271.116285 169.776333 
L 271.808522 172.079905 
L 273.192996 184.836049 
M 275.271101 166.48577 
L 275.963338 151.994656 
L 276.655785 154.049275 
L 277.348022 147.37354 
L 278.040266 130.498912 
L 278.732503 131.945561 
L 279.422083 135.685047 
M 281.498794 161.959658 
L 282.192431 181.212633 
L 282.885262 194.699842 
L 283.576905 201.285271 
L 284.269143 195.988516 
L 284.961386 194.132078 
M 287.729008 149.842836 
L 288.421904 138.955741 
L 289.806385 148.128409 
L 290.498622 148.759851 
M 292.574566 163.021398 
L 293.266803 169.241932 
L 294.653451 195.522714 
L 295.345682 203.405865 
L 296.037925 213.076427 
M 299.500625 134.861268 
L 300.192862 113.10888 
L 300.885099 98.077136 
L 301.577343 71.511118 
M 302.959621 77.825422 
L 303.651864 110.428004 
L 305.037283 205.61443 
M 309.881458 86.967902 
L 310.575802 57.829937 
L 311.268039 53.568 
L 311.960277 69.894818 
L 314.727973 232.611902 
M 319.576584 94.046746 
L 320.268821 61.122885 
L 320.961058 55.493496 
L 321.653295 72.971002 
L 322.342377 79.339159 
L 323.034614 90.212893 
M 327.189539 251.847247 
L 327.884744 222.790789 
M 335.499356 266.71709 
L 336.190619 266.587319 
L 336.882856 235.476936 
L 337.575094 181.429603 
M 344.492933 280.029974 
L 345.18517 263.338149 
M 348.646226 71.773627 
L 349.338463 101.54382 
L 351.414505 217.484045 
L 352.798979 252.167241 
L 353.491776 256.180589 
M 355.569124 145.107558 
L 356.26317 113.556567 
L 356.955416 106.094726 
M 360.414189 160.805754 
L 361.106426 165.602746 
L 361.799274 174.70421 
M 377.032291 140.181026 
L 377.724534 149.31527 
M 381.184476 186.852556 
L 381.876099 186.707318 
L 382.568336 192.012284 
M 385.336874 172.063487 
L 386.029111 160.729158 
L 386.721348 153.799826 
L 387.412183 157.39309 
M 392.256643 169.350544 
L 392.948735 165.657175 
L 393.640972 158.721021 
L 394.333209 162.688235 
L 395.025447 162.733434 
L 395.717867 165.285934 
L 396.410104 164.984346 
L 397.102341 168.395446 
L 397.794578 166.338885 
L 398.487273 165.255564 
L 398.487273 165.255564 
" style="fill:none;stroke:#008000;stroke-linecap:square;"/>
   </g>
   <g id="patch_3">
    <path d="M 57.6 307.584 
L 57.6 41.472 
" style="fill:none;stroke:#000000;stroke-linecap:square;stroke-linejoin:miter;stroke-width:0.8;"/>
   </g>
   <g id="patch_4">
    <path d="M 414.72 307.584 
L 414.72 41.472 
" style="fill:none;stroke:#000000;stroke-linecap:square;stroke-linejoin:miter;stroke-width:0.8;"/>
   </g>
   <g id="patch_5">
    <path d="M 57.6 307.584 
L 414.72 307.584 
" style="fill:none;stroke:#000000;stroke-linecap:square;stroke-linejoin:miter;stroke-width:0.8;"/>
   </g>
   <g id="patch_6">
    <path d="M 57.6 41.472 
L 414.72 41.472 
" style="fill:none;stroke:#000000;stroke-linecap:square;stroke-linejoin:miter;stroke-width:0.8;"/>
   </g>
   <g id="text_15">
    <!-- Rel Gt Rot Y Plot -->
    <defs>
     <path d="M 44.390625 34.1875 
Q 47.5625 33.109375 50.5625 29.59375 
Q 53.5625 26.078125 56.59375 19.921875 
L 66.609375 0 
L 56 0 
L 46.6875 18.703125 
Q 43.0625 26.03125 39.671875 28.421875 
Q 36.28125 30.8125 30.421875 30.8125 
L 19.671875 30.8125 
L 19.671875 0 
L 9.8125 0 
L 9.8125 72.90625 
L 32.078125 72.90625 
Q 44.578125 72.90625 50.734375 67.671875 
Q 56.890625 62.453125 56.890625 51.90625 
Q 56.890625 45.015625 53.6875 40.46875 
Q 50.484375 35.9375 44.390625 34.1875 
z
M 19.671875 64.796875 
L 19.671875 38.921875 
L 32.078125 38.921875 
Q 39.203125 38.921875 42.84375 42.21875 
Q 46.484375 45.515625 46.484375 51.90625 
Q 46.484375 58.296875 42.84375 61.546875 
Q 39.203125 64.796875 32.078125 64.796875 
z
" id="DejaVuSans-52"/>
     <path d="M 9.421875 75.984375 
L 18.40625 75.984375 
L 18.40625 0 
L 9.421875 0 
z
" id="DejaVuSans-6c"/>
     <path d="M 59.515625 10.40625 
L 59.515625 29.984375 
L 43.40625 29.984375 
L 43.40625 38.09375 
L 69.28125 38.09375 
L 69.28125 6.78125 
Q 63.578125 2.734375 56.6875 0.65625 
Q 49.8125 -1.421875 42 -1.421875 
Q 24.90625 -1.421875 15.25 8.5625 
Q 5.609375 18.5625 5.609375 36.375 
Q 5.609375 54.25 15.25 64.234375 
Q 24.90625 74.21875 42 74.21875 
Q 49.125 74.21875 55.546875 72.453125 
Q 61.96875 70.703125 67.390625 67.28125 
L 67.390625 56.78125 
Q 61.921875 61.421875 55.765625 63.765625 
Q 49.609375 66.109375 42.828125 66.109375 
Q 29.4375 66.109375 22.71875 58.640625 
Q 16.015625 51.171875 16.015625 36.375 
Q 16.015625 21.625 22.71875 14.15625 
Q 29.4375 6.6875 42.828125 6.6875 
Q 48.046875 6.6875 52.140625 7.59375 
Q 56.25 8.5 59.515625 10.40625 
z
" id="DejaVuSans-47"/>
     <path d="M -0.203125 72.90625 
L 10.40625 72.90625 
L 30.609375 42.921875 
L 50.6875 72.90625 
L 61.28125 72.90625 
L 35.5 34.71875 
L 35.5 0 
L 25.59375 0 
L 25.59375 34.71875 
z
" id="DejaVuSans-59"/>
     <path d="M 19.671875 64.796875 
L 19.671875 37.40625 
L 32.078125 37.40625 
Q 38.96875 37.40625 42.71875 40.96875 
Q 46.484375 44.53125 46.484375 51.125 
Q 46.484375 57.671875 42.71875 61.234375 
Q 38.96875 64.796875 32.078125 64.796875 
z
M 9.8125 72.90625 
L 32.078125 72.90625 
Q 44.34375 72.90625 50.609375 67.359375 
Q 56.890625 61.8125 56.890625 51.125 
Q 56.890625 40.328125 50.609375 34.8125 
Q 44.34375 29.296875 32.078125 29.296875 
L 19.671875 29.296875 
L 19.671875 0 
L 9.8125 0 
z
" id="DejaVuSans-50"/>
    </defs>
    <g transform="translate(186.845625 35.472)scale(0.12 -0.12)">
     <use xlink:href="#DejaVuSans-52"/>
     <use x="69.419922" xlink:href="#DejaVuSans-65"/>
     <use x="130.943359" xlink:href="#DejaVuSans-6c"/>
     <use x="158.726562" xlink:href="#DejaVuSans-20"/>
     <use x="190.513672" xlink:href="#DejaVuSans-47"/>
     <use x="268.003906" xlink:href="#DejaVuSans-74"/>
     <use x="307.212891" xlink:href="#DejaVuSans-20"/>
     <use x="339" xlink:href="#DejaVuSans-52"/>
     <use x="408.419922" xlink:href="#DejaVuSans-6f"/>
     <use x="469.601562" xlink:href="#DejaVuSans-74"/>
     <use x="508.810547" xlink:href="#DejaVuSans-20"/>
     <use x="540.597656" xlink:href="#DejaVuSans-59"/>
     <use x="601.681641" xlink:href="#DejaVuSans-20"/>
     <use x="633.46875" xlink:href="#DejaVuSans-50"/>
     <use x="693.771484" xlink:href="#DejaVuSans-6c"/>
     <use x="721.554688" xlink:href="#DejaVuSans-6f"/>
     <use x="782.736328" xlink:href="#DejaVuSans-74"/>
    </g>
   </g>
  </g>
 </g>
 <defs>
  <clipPath id="p053a4492a1">
   <rect height="266.112" width="357.12" x="57.6" y="41.472"/>
  </clipPath>
 </defs>
</svg>
