<?xml version="1.0" encoding="utf-8" standalone="no"?>
<!DOCTYPE svg PUBLIC "-//W3C//DTD SVG 1.1//EN"
  "http://www.w3.org/Graphics/SVG/1.1/DTD/svg11.dtd">
<!-- Created with matplotlib (http://matplotlib.org/) -->
<svg height="345.6pt" version="1.1" viewBox="0 0 460.8 345.6" width="460.8pt" xmlns="http://www.w3.org/2000/svg" xmlns:xlink="http://www.w3.org/1999/xlink">
 <defs>
  <style type="text/css">
*{stroke-linecap:butt;stroke-linejoin:round;}
  </style>
 </defs>
 <g id="figure_1">
  <g id="patch_1">
   <path d="M 0 345.6 
L 460.8 345.6 
L 460.8 0 
L 0 0 
z
" style="fill:#ffffff;"/>
  </g>
  <g id="axes_1">
   <g id="patch_2">
    <path d="M 57.6 307.584 
L 414.72 307.584 
L 414.72 41.472 
L 57.6 41.472 
z
" style="fill:#ffffff;"/>
   </g>
   <g id="matplotlib.axis_1">
    <g id="xtick_1">
     <g id="line2d_1">
      <path clip-path="url(#p26da7b5a82)" d="M 70.555248 307.584 
L 70.555248 41.472 
" style="fill:none;stroke:#b0b0b0;stroke-linecap:square;stroke-width:0.8;"/>
     </g>
     <g id="line2d_2">
      <defs>
       <path d="M 0 0 
L 0 3.5 
" id="m58e8e90220" style="stroke:#000000;stroke-width:0.8;"/>
      </defs>
      <g>
       <use style="stroke:#000000;stroke-width:0.8;" x="70.555248" xlink:href="#m58e8e90220" y="307.584"/>
      </g>
     </g>
     <g id="text_1">
      <!-- 0 -->
      <defs>
       <path d="M 31.78125 66.40625 
Q 24.171875 66.40625 20.328125 58.90625 
Q 16.5 51.421875 16.5 36.375 
Q 16.5 21.390625 20.328125 13.890625 
Q 24.171875 6.390625 31.78125 6.390625 
Q 39.453125 6.390625 43.28125 13.890625 
Q 47.125 21.390625 47.125 36.375 
Q 47.125 51.421875 43.28125 58.90625 
Q 39.453125 66.40625 31.78125 66.40625 
z
M 31.78125 74.21875 
Q 44.046875 74.21875 50.515625 64.515625 
Q 56.984375 54.828125 56.984375 36.375 
Q 56.984375 17.96875 50.515625 8.265625 
Q 44.046875 -1.421875 31.78125 -1.421875 
Q 19.53125 -1.421875 13.0625 8.265625 
Q 6.59375 17.96875 6.59375 36.375 
Q 6.59375 54.828125 13.0625 64.515625 
Q 19.53125 74.21875 31.78125 74.21875 
z
" id="DejaVuSans-30"/>
      </defs>
      <g transform="translate(67.373998 322.182437)scale(0.1 -0.1)">
       <use xlink:href="#DejaVuSans-30"/>
      </g>
     </g>
    </g>
    <g id="xtick_2">
     <g id="line2d_3">
      <path clip-path="url(#p26da7b5a82)" d="M 139.776886 307.584 
L 139.776886 41.472 
" style="fill:none;stroke:#b0b0b0;stroke-linecap:square;stroke-width:0.8;"/>
     </g>
     <g id="line2d_4">
      <g>
       <use style="stroke:#000000;stroke-width:0.8;" x="139.776886" xlink:href="#m58e8e90220" y="307.584"/>
      </g>
     </g>
     <g id="text_2">
      <!-- 10 -->
      <defs>
       <path d="M 12.40625 8.296875 
L 28.515625 8.296875 
L 28.515625 63.921875 
L 10.984375 60.40625 
L 10.984375 69.390625 
L 28.421875 72.90625 
L 38.28125 72.90625 
L 38.28125 8.296875 
L 54.390625 8.296875 
L 54.390625 0 
L 12.40625 0 
z
" id="DejaVuSans-31"/>
      </defs>
      <g transform="translate(133.414386 322.182437)scale(0.1 -0.1)">
       <use xlink:href="#DejaVuSans-31"/>
       <use x="63.623047" xlink:href="#DejaVuSans-30"/>
      </g>
     </g>
    </g>
    <g id="xtick_3">
     <g id="line2d_5">
      <path clip-path="url(#p26da7b5a82)" d="M 208.998523 307.584 
L 208.998523 41.472 
" style="fill:none;stroke:#b0b0b0;stroke-linecap:square;stroke-width:0.8;"/>
     </g>
     <g id="line2d_6">
      <g>
       <use style="stroke:#000000;stroke-width:0.8;" x="208.998523" xlink:href="#m58e8e90220" y="307.584"/>
      </g>
     </g>
     <g id="text_3">
      <!-- 20 -->
      <defs>
       <path d="M 19.1875 8.296875 
L 53.609375 8.296875 
L 53.609375 0 
L 7.328125 0 
L 7.328125 8.296875 
Q 12.9375 14.109375 22.625 23.890625 
Q 32.328125 33.6875 34.8125 36.53125 
Q 39.546875 41.84375 41.421875 45.53125 
Q 43.3125 49.21875 43.3125 52.78125 
Q 43.3125 58.59375 39.234375 62.25 
Q 35.15625 65.921875 28.609375 65.921875 
Q 23.96875 65.921875 18.8125 64.3125 
Q 13.671875 62.703125 7.8125 59.421875 
L 7.8125 69.390625 
Q 13.765625 71.78125 18.9375 73 
Q 24.125 74.21875 28.421875 74.21875 
Q 39.75 74.21875 46.484375 68.546875 
Q 53.21875 62.890625 53.21875 53.421875 
Q 53.21875 48.921875 51.53125 44.890625 
Q 49.859375 40.875 45.40625 35.40625 
Q 44.1875 33.984375 37.640625 27.21875 
Q 31.109375 20.453125 19.1875 8.296875 
z
" id="DejaVuSans-32"/>
      </defs>
      <g transform="translate(202.636023 322.182437)scale(0.1 -0.1)">
       <use xlink:href="#DejaVuSans-32"/>
       <use x="63.623047" xlink:href="#DejaVuSans-30"/>
      </g>
     </g>
    </g>
    <g id="xtick_4">
     <g id="line2d_7">
      <path clip-path="url(#p26da7b5a82)" d="M 278.220161 307.584 
L 278.220161 41.472 
" style="fill:none;stroke:#b0b0b0;stroke-linecap:square;stroke-width:0.8;"/>
     </g>
     <g id="line2d_8">
      <g>
       <use style="stroke:#000000;stroke-width:0.8;" x="278.220161" xlink:href="#m58e8e90220" y="307.584"/>
      </g>
     </g>
     <g id="text_4">
      <!-- 30 -->
      <defs>
       <path d="M 40.578125 39.3125 
Q 47.65625 37.796875 51.625 33 
Q 55.609375 28.21875 55.609375 21.1875 
Q 55.609375 10.40625 48.1875 4.484375 
Q 40.765625 -1.421875 27.09375 -1.421875 
Q 22.515625 -1.421875 17.65625 -0.515625 
Q 12.796875 0.390625 7.625 2.203125 
L 7.625 11.71875 
Q 11.71875 9.328125 16.59375 8.109375 
Q 21.484375 6.890625 26.8125 6.890625 
Q 36.078125 6.890625 40.9375 10.546875 
Q 45.796875 14.203125 45.796875 21.1875 
Q 45.796875 27.640625 41.28125 31.265625 
Q 36.765625 34.90625 28.71875 34.90625 
L 20.21875 34.90625 
L 20.21875 43.015625 
L 29.109375 43.015625 
Q 36.375 43.015625 40.234375 45.921875 
Q 44.09375 48.828125 44.09375 54.296875 
Q 44.09375 59.90625 40.109375 62.90625 
Q 36.140625 65.921875 28.71875 65.921875 
Q 24.65625 65.921875 20.015625 65.03125 
Q 15.375 64.15625 9.8125 62.3125 
L 9.8125 71.09375 
Q 15.4375 72.65625 20.34375 73.4375 
Q 25.25 74.21875 29.59375 74.21875 
Q 40.828125 74.21875 47.359375 69.109375 
Q 53.90625 64.015625 53.90625 55.328125 
Q 53.90625 49.265625 50.4375 45.09375 
Q 46.96875 40.921875 40.578125 39.3125 
z
" id="DejaVuSans-33"/>
      </defs>
      <g transform="translate(271.857661 322.182437)scale(0.1 -0.1)">
       <use xlink:href="#DejaVuSans-33"/>
       <use x="63.623047" xlink:href="#DejaVuSans-30"/>
      </g>
     </g>
    </g>
    <g id="xtick_5">
     <g id="line2d_9">
      <path clip-path="url(#p26da7b5a82)" d="M 347.441799 307.584 
L 347.441799 41.472 
" style="fill:none;stroke:#b0b0b0;stroke-linecap:square;stroke-width:0.8;"/>
     </g>
     <g id="line2d_10">
      <g>
       <use style="stroke:#000000;stroke-width:0.8;" x="347.441799" xlink:href="#m58e8e90220" y="307.584"/>
      </g>
     </g>
     <g id="text_5">
      <!-- 40 -->
      <defs>
       <path d="M 37.796875 64.3125 
L 12.890625 25.390625 
L 37.796875 25.390625 
z
M 35.203125 72.90625 
L 47.609375 72.90625 
L 47.609375 25.390625 
L 58.015625 25.390625 
L 58.015625 17.1875 
L 47.609375 17.1875 
L 47.609375 0 
L 37.796875 0 
L 37.796875 17.1875 
L 4.890625 17.1875 
L 4.890625 26.703125 
z
" id="DejaVuSans-34"/>
      </defs>
      <g transform="translate(341.079299 322.182437)scale(0.1 -0.1)">
       <use xlink:href="#DejaVuSans-34"/>
       <use x="63.623047" xlink:href="#DejaVuSans-30"/>
      </g>
     </g>
    </g>
    <g id="xtick_6">
     <g id="line2d_11">
      <path clip-path="url(#p26da7b5a82)" d="M 84.399575 307.584 
L 84.399575 41.472 
" style="fill:none;stroke:#b0b0b0;stroke-linecap:square;stroke-width:0.8;"/>
     </g>
     <g id="line2d_12">
      <defs>
       <path d="M 0 0 
L 0 2 
" id="m01b00e8a5f" style="stroke:#000000;stroke-width:0.6;"/>
      </defs>
      <g>
       <use style="stroke:#000000;stroke-width:0.6;" x="84.399575" xlink:href="#m01b00e8a5f" y="307.584"/>
      </g>
     </g>
    </g>
    <g id="xtick_7">
     <g id="line2d_13">
      <path clip-path="url(#p26da7b5a82)" d="M 98.243903 307.584 
L 98.243903 41.472 
" style="fill:none;stroke:#b0b0b0;stroke-linecap:square;stroke-width:0.8;"/>
     </g>
     <g id="line2d_14">
      <g>
       <use style="stroke:#000000;stroke-width:0.6;" x="98.243903" xlink:href="#m01b00e8a5f" y="307.584"/>
      </g>
     </g>
    </g>
    <g id="xtick_8">
     <g id="line2d_15">
      <path clip-path="url(#p26da7b5a82)" d="M 112.08823 307.584 
L 112.08823 41.472 
" style="fill:none;stroke:#b0b0b0;stroke-linecap:square;stroke-width:0.8;"/>
     </g>
     <g id="line2d_16">
      <g>
       <use style="stroke:#000000;stroke-width:0.6;" x="112.08823" xlink:href="#m01b00e8a5f" y="307.584"/>
      </g>
     </g>
    </g>
    <g id="xtick_9">
     <g id="line2d_17">
      <path clip-path="url(#p26da7b5a82)" d="M 125.932558 307.584 
L 125.932558 41.472 
" style="fill:none;stroke:#b0b0b0;stroke-linecap:square;stroke-width:0.8;"/>
     </g>
     <g id="line2d_18">
      <g>
       <use style="stroke:#000000;stroke-width:0.6;" x="125.932558" xlink:href="#m01b00e8a5f" y="307.584"/>
      </g>
     </g>
    </g>
    <g id="xtick_10">
     <g id="line2d_19">
      <path clip-path="url(#p26da7b5a82)" d="M 153.621213 307.584 
L 153.621213 41.472 
" style="fill:none;stroke:#b0b0b0;stroke-linecap:square;stroke-width:0.8;"/>
     </g>
     <g id="line2d_20">
      <g>
       <use style="stroke:#000000;stroke-width:0.6;" x="153.621213" xlink:href="#m01b00e8a5f" y="307.584"/>
      </g>
     </g>
    </g>
    <g id="xtick_11">
     <g id="line2d_21">
      <path clip-path="url(#p26da7b5a82)" d="M 167.465541 307.584 
L 167.465541 41.472 
" style="fill:none;stroke:#b0b0b0;stroke-linecap:square;stroke-width:0.8;"/>
     </g>
     <g id="line2d_22">
      <g>
       <use style="stroke:#000000;stroke-width:0.6;" x="167.465541" xlink:href="#m01b00e8a5f" y="307.584"/>
      </g>
     </g>
    </g>
    <g id="xtick_12">
     <g id="line2d_23">
      <path clip-path="url(#p26da7b5a82)" d="M 181.309868 307.584 
L 181.309868 41.472 
" style="fill:none;stroke:#b0b0b0;stroke-linecap:square;stroke-width:0.8;"/>
     </g>
     <g id="line2d_24">
      <g>
       <use style="stroke:#000000;stroke-width:0.6;" x="181.309868" xlink:href="#m01b00e8a5f" y="307.584"/>
      </g>
     </g>
    </g>
    <g id="xtick_13">
     <g id="line2d_25">
      <path clip-path="url(#p26da7b5a82)" d="M 195.154196 307.584 
L 195.154196 41.472 
" style="fill:none;stroke:#b0b0b0;stroke-linecap:square;stroke-width:0.8;"/>
     </g>
     <g id="line2d_26">
      <g>
       <use style="stroke:#000000;stroke-width:0.6;" x="195.154196" xlink:href="#m01b00e8a5f" y="307.584"/>
      </g>
     </g>
    </g>
    <g id="xtick_14">
     <g id="line2d_27">
      <path clip-path="url(#p26da7b5a82)" d="M 222.842851 307.584 
L 222.842851 41.472 
" style="fill:none;stroke:#b0b0b0;stroke-linecap:square;stroke-width:0.8;"/>
     </g>
     <g id="line2d_28">
      <g>
       <use style="stroke:#000000;stroke-width:0.6;" x="222.842851" xlink:href="#m01b00e8a5f" y="307.584"/>
      </g>
     </g>
    </g>
    <g id="xtick_15">
     <g id="line2d_29">
      <path clip-path="url(#p26da7b5a82)" d="M 236.687178 307.584 
L 236.687178 41.472 
" style="fill:none;stroke:#b0b0b0;stroke-linecap:square;stroke-width:0.8;"/>
     </g>
     <g id="line2d_30">
      <g>
       <use style="stroke:#000000;stroke-width:0.6;" x="236.687178" xlink:href="#m01b00e8a5f" y="307.584"/>
      </g>
     </g>
    </g>
    <g id="xtick_16">
     <g id="line2d_31">
      <path clip-path="url(#p26da7b5a82)" d="M 250.531506 307.584 
L 250.531506 41.472 
" style="fill:none;stroke:#b0b0b0;stroke-linecap:square;stroke-width:0.8;"/>
     </g>
     <g id="line2d_32">
      <g>
       <use style="stroke:#000000;stroke-width:0.6;" x="250.531506" xlink:href="#m01b00e8a5f" y="307.584"/>
      </g>
     </g>
    </g>
    <g id="xtick_17">
     <g id="line2d_33">
      <path clip-path="url(#p26da7b5a82)" d="M 264.375834 307.584 
L 264.375834 41.472 
" style="fill:none;stroke:#b0b0b0;stroke-linecap:square;stroke-width:0.8;"/>
     </g>
     <g id="line2d_34">
      <g>
       <use style="stroke:#000000;stroke-width:0.6;" x="264.375834" xlink:href="#m01b00e8a5f" y="307.584"/>
      </g>
     </g>
    </g>
    <g id="xtick_18">
     <g id="line2d_35">
      <path clip-path="url(#p26da7b5a82)" d="M 292.064489 307.584 
L 292.064489 41.472 
" style="fill:none;stroke:#b0b0b0;stroke-linecap:square;stroke-width:0.8;"/>
     </g>
     <g id="line2d_36">
      <g>
       <use style="stroke:#000000;stroke-width:0.6;" x="292.064489" xlink:href="#m01b00e8a5f" y="307.584"/>
      </g>
     </g>
    </g>
    <g id="xtick_19">
     <g id="line2d_37">
      <path clip-path="url(#p26da7b5a82)" d="M 305.908816 307.584 
L 305.908816 41.472 
" style="fill:none;stroke:#b0b0b0;stroke-linecap:square;stroke-width:0.8;"/>
     </g>
     <g id="line2d_38">
      <g>
       <use style="stroke:#000000;stroke-width:0.6;" x="305.908816" xlink:href="#m01b00e8a5f" y="307.584"/>
      </g>
     </g>
    </g>
    <g id="xtick_20">
     <g id="line2d_39">
      <path clip-path="url(#p26da7b5a82)" d="M 319.753144 307.584 
L 319.753144 41.472 
" style="fill:none;stroke:#b0b0b0;stroke-linecap:square;stroke-width:0.8;"/>
     </g>
     <g id="line2d_40">
      <g>
       <use style="stroke:#000000;stroke-width:0.6;" x="319.753144" xlink:href="#m01b00e8a5f" y="307.584"/>
      </g>
     </g>
    </g>
    <g id="xtick_21">
     <g id="line2d_41">
      <path clip-path="url(#p26da7b5a82)" d="M 333.597471 307.584 
L 333.597471 41.472 
" style="fill:none;stroke:#b0b0b0;stroke-linecap:square;stroke-width:0.8;"/>
     </g>
     <g id="line2d_42">
      <g>
       <use style="stroke:#000000;stroke-width:0.6;" x="333.597471" xlink:href="#m01b00e8a5f" y="307.584"/>
      </g>
     </g>
    </g>
    <g id="xtick_22">
     <g id="line2d_43">
      <path clip-path="url(#p26da7b5a82)" d="M 361.286127 307.584 
L 361.286127 41.472 
" style="fill:none;stroke:#b0b0b0;stroke-linecap:square;stroke-width:0.8;"/>
     </g>
     <g id="line2d_44">
      <g>
       <use style="stroke:#000000;stroke-width:0.6;" x="361.286127" xlink:href="#m01b00e8a5f" y="307.584"/>
      </g>
     </g>
    </g>
    <g id="xtick_23">
     <g id="line2d_45">
      <path clip-path="url(#p26da7b5a82)" d="M 375.130454 307.584 
L 375.130454 41.472 
" style="fill:none;stroke:#b0b0b0;stroke-linecap:square;stroke-width:0.8;"/>
     </g>
     <g id="line2d_46">
      <g>
       <use style="stroke:#000000;stroke-width:0.6;" x="375.130454" xlink:href="#m01b00e8a5f" y="307.584"/>
      </g>
     </g>
    </g>
    <g id="xtick_24">
     <g id="line2d_47">
      <path clip-path="url(#p26da7b5a82)" d="M 388.974782 307.584 
L 388.974782 41.472 
" style="fill:none;stroke:#b0b0b0;stroke-linecap:square;stroke-width:0.8;"/>
     </g>
     <g id="line2d_48">
      <g>
       <use style="stroke:#000000;stroke-width:0.6;" x="388.974782" xlink:href="#m01b00e8a5f" y="307.584"/>
      </g>
     </g>
    </g>
    <g id="xtick_25">
     <g id="line2d_49">
      <path clip-path="url(#p26da7b5a82)" d="M 402.819109 307.584 
L 402.819109 41.472 
" style="fill:none;stroke:#b0b0b0;stroke-linecap:square;stroke-width:0.8;"/>
     </g>
     <g id="line2d_50">
      <g>
       <use style="stroke:#000000;stroke-width:0.6;" x="402.819109" xlink:href="#m01b00e8a5f" y="307.584"/>
      </g>
     </g>
    </g>
    <g id="text_6">
     <!-- frame # [] -->
     <defs>
      <path d="M 37.109375 75.984375 
L 37.109375 68.5 
L 28.515625 68.5 
Q 23.6875 68.5 21.796875 66.546875 
Q 19.921875 64.59375 19.921875 59.515625 
L 19.921875 54.6875 
L 34.71875 54.6875 
L 34.71875 47.703125 
L 19.921875 47.703125 
L 19.921875 0 
L 10.890625 0 
L 10.890625 47.703125 
L 2.296875 47.703125 
L 2.296875 54.6875 
L 10.890625 54.6875 
L 10.890625 58.5 
Q 10.890625 67.625 15.140625 71.796875 
Q 19.390625 75.984375 28.609375 75.984375 
z
" id="DejaVuSans-66"/>
      <path d="M 41.109375 46.296875 
Q 39.59375 47.171875 37.8125 47.578125 
Q 36.03125 48 33.890625 48 
Q 26.265625 48 22.1875 43.046875 
Q 18.109375 38.09375 18.109375 28.8125 
L 18.109375 0 
L 9.078125 0 
L 9.078125 54.6875 
L 18.109375 54.6875 
L 18.109375 46.1875 
Q 20.953125 51.171875 25.484375 53.578125 
Q 30.03125 56 36.53125 56 
Q 37.453125 56 38.578125 55.875 
Q 39.703125 55.765625 41.0625 55.515625 
z
" id="DejaVuSans-72"/>
      <path d="M 34.28125 27.484375 
Q 23.390625 27.484375 19.1875 25 
Q 14.984375 22.515625 14.984375 16.5 
Q 14.984375 11.71875 18.140625 8.90625 
Q 21.296875 6.109375 26.703125 6.109375 
Q 34.1875 6.109375 38.703125 11.40625 
Q 43.21875 16.703125 43.21875 25.484375 
L 43.21875 27.484375 
z
M 52.203125 31.203125 
L 52.203125 0 
L 43.21875 0 
L 43.21875 8.296875 
Q 40.140625 3.328125 35.546875 0.953125 
Q 30.953125 -1.421875 24.3125 -1.421875 
Q 15.921875 -1.421875 10.953125 3.296875 
Q 6 8.015625 6 15.921875 
Q 6 25.140625 12.171875 29.828125 
Q 18.359375 34.515625 30.609375 34.515625 
L 43.21875 34.515625 
L 43.21875 35.40625 
Q 43.21875 41.609375 39.140625 45 
Q 35.0625 48.390625 27.6875 48.390625 
Q 23 48.390625 18.546875 47.265625 
Q 14.109375 46.140625 10.015625 43.890625 
L 10.015625 52.203125 
Q 14.9375 54.109375 19.578125 55.046875 
Q 24.21875 56 28.609375 56 
Q 40.484375 56 46.34375 49.84375 
Q 52.203125 43.703125 52.203125 31.203125 
z
" id="DejaVuSans-61"/>
      <path d="M 52 44.1875 
Q 55.375 50.25 60.0625 53.125 
Q 64.75 56 71.09375 56 
Q 79.640625 56 84.28125 50.015625 
Q 88.921875 44.046875 88.921875 33.015625 
L 88.921875 0 
L 79.890625 0 
L 79.890625 32.71875 
Q 79.890625 40.578125 77.09375 44.375 
Q 74.3125 48.1875 68.609375 48.1875 
Q 61.625 48.1875 57.5625 43.546875 
Q 53.515625 38.921875 53.515625 30.90625 
L 53.515625 0 
L 44.484375 0 
L 44.484375 32.71875 
Q 44.484375 40.625 41.703125 44.40625 
Q 38.921875 48.1875 33.109375 48.1875 
Q 26.21875 48.1875 22.15625 43.53125 
Q 18.109375 38.875 18.109375 30.90625 
L 18.109375 0 
L 9.078125 0 
L 9.078125 54.6875 
L 18.109375 54.6875 
L 18.109375 46.1875 
Q 21.1875 51.21875 25.484375 53.609375 
Q 29.78125 56 35.6875 56 
Q 41.65625 56 45.828125 52.96875 
Q 50 49.953125 52 44.1875 
z
" id="DejaVuSans-6d"/>
      <path d="M 56.203125 29.59375 
L 56.203125 25.203125 
L 14.890625 25.203125 
Q 15.484375 15.921875 20.484375 11.0625 
Q 25.484375 6.203125 34.421875 6.203125 
Q 39.59375 6.203125 44.453125 7.46875 
Q 49.3125 8.734375 54.109375 11.28125 
L 54.109375 2.78125 
Q 49.265625 0.734375 44.1875 -0.34375 
Q 39.109375 -1.421875 33.890625 -1.421875 
Q 20.796875 -1.421875 13.15625 6.1875 
Q 5.515625 13.8125 5.515625 26.8125 
Q 5.515625 40.234375 12.765625 48.109375 
Q 20.015625 56 32.328125 56 
Q 43.359375 56 49.78125 48.890625 
Q 56.203125 41.796875 56.203125 29.59375 
z
M 47.21875 32.234375 
Q 47.125 39.59375 43.09375 43.984375 
Q 39.0625 48.390625 32.421875 48.390625 
Q 24.90625 48.390625 20.390625 44.140625 
Q 15.875 39.890625 15.1875 32.171875 
z
" id="DejaVuSans-65"/>
      <path id="DejaVuSans-20"/>
      <path d="M 51.125 44 
L 36.921875 44 
L 32.8125 27.6875 
L 47.125 27.6875 
z
M 43.796875 71.78125 
L 38.71875 51.515625 
L 52.984375 51.515625 
L 58.109375 71.78125 
L 65.921875 71.78125 
L 60.890625 51.515625 
L 76.125 51.515625 
L 76.125 44 
L 58.984375 44 
L 54.984375 27.6875 
L 70.515625 27.6875 
L 70.515625 20.21875 
L 53.078125 20.21875 
L 48 0 
L 40.1875 0 
L 45.21875 20.21875 
L 30.90625 20.21875 
L 25.875 0 
L 18.015625 0 
L 23.09375 20.21875 
L 7.71875 20.21875 
L 7.71875 27.6875 
L 24.90625 27.6875 
L 29 44 
L 13.28125 44 
L 13.28125 51.515625 
L 30.90625 51.515625 
L 35.890625 71.78125 
z
" id="DejaVuSans-23"/>
      <path d="M 8.59375 75.984375 
L 29.296875 75.984375 
L 29.296875 69 
L 17.578125 69 
L 17.578125 -6.203125 
L 29.296875 -6.203125 
L 29.296875 -13.1875 
L 8.59375 -13.1875 
z
" id="DejaVuSans-5b"/>
      <path d="M 30.421875 75.984375 
L 30.421875 -13.1875 
L 9.71875 -13.1875 
L 9.71875 -6.203125 
L 21.390625 -6.203125 
L 21.390625 69 
L 9.71875 69 
L 9.71875 75.984375 
z
" id="DejaVuSans-5d"/>
     </defs>
     <g transform="translate(210.063906 335.860562)scale(0.1 -0.1)">
      <use xlink:href="#DejaVuSans-66"/>
      <use x="35.205078" xlink:href="#DejaVuSans-72"/>
      <use x="76.318359" xlink:href="#DejaVuSans-61"/>
      <use x="137.597656" xlink:href="#DejaVuSans-6d"/>
      <use x="235.009766" xlink:href="#DejaVuSans-65"/>
      <use x="296.533203" xlink:href="#DejaVuSans-20"/>
      <use x="328.320312" xlink:href="#DejaVuSans-23"/>
      <use x="412.109375" xlink:href="#DejaVuSans-20"/>
      <use x="443.896484" xlink:href="#DejaVuSans-5b"/>
      <use x="482.910156" xlink:href="#DejaVuSans-5d"/>
     </g>
    </g>
   </g>
   <g id="matplotlib.axis_2">
    <g id="ytick_1">
     <g id="line2d_51">
      <path clip-path="url(#p26da7b5a82)" d="M 57.6 307.15774 
L 414.72 307.15774 
" style="fill:none;stroke:#b0b0b0;stroke-linecap:square;stroke-width:0.8;"/>
     </g>
     <g id="line2d_52">
      <defs>
       <path d="M 0 0 
L -3.5 0 
" id="md4fae5467d" style="stroke:#000000;stroke-width:0.8;"/>
      </defs>
      <g>
       <use style="stroke:#000000;stroke-width:0.8;" x="57.6" xlink:href="#md4fae5467d" y="307.15774"/>
      </g>
     </g>
     <g id="text_7">
      <!-- −0.4 -->
      <defs>
       <path d="M 10.59375 35.5 
L 73.1875 35.5 
L 73.1875 27.203125 
L 10.59375 27.203125 
z
" id="DejaVuSans-2212"/>
       <path d="M 10.6875 12.40625 
L 21 12.40625 
L 21 0 
L 10.6875 0 
z
" id="DejaVuSans-2e"/>
      </defs>
      <g transform="translate(26.317187 310.956958)scale(0.1 -0.1)">
       <use xlink:href="#DejaVuSans-2212"/>
       <use x="83.789062" xlink:href="#DejaVuSans-30"/>
       <use x="147.412109" xlink:href="#DejaVuSans-2e"/>
       <use x="179.199219" xlink:href="#DejaVuSans-34"/>
      </g>
     </g>
    </g>
    <g id="ytick_2">
     <g id="line2d_53">
      <path clip-path="url(#p26da7b5a82)" d="M 57.6 272.418806 
L 414.72 272.418806 
" style="fill:none;stroke:#b0b0b0;stroke-linecap:square;stroke-width:0.8;"/>
     </g>
     <g id="line2d_54">
      <g>
       <use style="stroke:#000000;stroke-width:0.8;" x="57.6" xlink:href="#md4fae5467d" y="272.418806"/>
      </g>
     </g>
     <g id="text_8">
      <!-- −0.3 -->
      <g transform="translate(26.317187 276.218024)scale(0.1 -0.1)">
       <use xlink:href="#DejaVuSans-2212"/>
       <use x="83.789062" xlink:href="#DejaVuSans-30"/>
       <use x="147.412109" xlink:href="#DejaVuSans-2e"/>
       <use x="179.199219" xlink:href="#DejaVuSans-33"/>
      </g>
     </g>
    </g>
    <g id="ytick_3">
     <g id="line2d_55">
      <path clip-path="url(#p26da7b5a82)" d="M 57.6 237.679871 
L 414.72 237.679871 
" style="fill:none;stroke:#b0b0b0;stroke-linecap:square;stroke-width:0.8;"/>
     </g>
     <g id="line2d_56">
      <g>
       <use style="stroke:#000000;stroke-width:0.8;" x="57.6" xlink:href="#md4fae5467d" y="237.679871"/>
      </g>
     </g>
     <g id="text_9">
      <!-- −0.2 -->
      <g transform="translate(26.317187 241.47909)scale(0.1 -0.1)">
       <use xlink:href="#DejaVuSans-2212"/>
       <use x="83.789062" xlink:href="#DejaVuSans-30"/>
       <use x="147.412109" xlink:href="#DejaVuSans-2e"/>
       <use x="179.199219" xlink:href="#DejaVuSans-32"/>
      </g>
     </g>
    </g>
    <g id="ytick_4">
     <g id="line2d_57">
      <path clip-path="url(#p26da7b5a82)" d="M 57.6 202.940937 
L 414.72 202.940937 
" style="fill:none;stroke:#b0b0b0;stroke-linecap:square;stroke-width:0.8;"/>
     </g>
     <g id="line2d_58">
      <g>
       <use style="stroke:#000000;stroke-width:0.8;" x="57.6" xlink:href="#md4fae5467d" y="202.940937"/>
      </g>
     </g>
     <g id="text_10">
      <!-- −0.1 -->
      <g transform="translate(26.317187 206.740156)scale(0.1 -0.1)">
       <use xlink:href="#DejaVuSans-2212"/>
       <use x="83.789062" xlink:href="#DejaVuSans-30"/>
       <use x="147.412109" xlink:href="#DejaVuSans-2e"/>
       <use x="179.199219" xlink:href="#DejaVuSans-31"/>
      </g>
     </g>
    </g>
    <g id="ytick_5">
     <g id="line2d_59">
      <path clip-path="url(#p26da7b5a82)" d="M 57.6 168.202003 
L 414.72 168.202003 
" style="fill:none;stroke:#b0b0b0;stroke-linecap:square;stroke-width:0.8;"/>
     </g>
     <g id="line2d_60">
      <g>
       <use style="stroke:#000000;stroke-width:0.8;" x="57.6" xlink:href="#md4fae5467d" y="168.202003"/>
      </g>
     </g>
     <g id="text_11">
      <!-- 0.0 -->
      <g transform="translate(34.696875 172.001222)scale(0.1 -0.1)">
       <use xlink:href="#DejaVuSans-30"/>
       <use x="63.623047" xlink:href="#DejaVuSans-2e"/>
       <use x="95.410156" xlink:href="#DejaVuSans-30"/>
      </g>
     </g>
    </g>
    <g id="ytick_6">
     <g id="line2d_61">
      <path clip-path="url(#p26da7b5a82)" d="M 57.6 133.463069 
L 414.72 133.463069 
" style="fill:none;stroke:#b0b0b0;stroke-linecap:square;stroke-width:0.8;"/>
     </g>
     <g id="line2d_62">
      <g>
       <use style="stroke:#000000;stroke-width:0.8;" x="57.6" xlink:href="#md4fae5467d" y="133.463069"/>
      </g>
     </g>
     <g id="text_12">
      <!-- 0.1 -->
      <g transform="translate(34.696875 137.262288)scale(0.1 -0.1)">
       <use xlink:href="#DejaVuSans-30"/>
       <use x="63.623047" xlink:href="#DejaVuSans-2e"/>
       <use x="95.410156" xlink:href="#DejaVuSans-31"/>
      </g>
     </g>
    </g>
    <g id="ytick_7">
     <g id="line2d_63">
      <path clip-path="url(#p26da7b5a82)" d="M 57.6 98.724135 
L 414.72 98.724135 
" style="fill:none;stroke:#b0b0b0;stroke-linecap:square;stroke-width:0.8;"/>
     </g>
     <g id="line2d_64">
      <g>
       <use style="stroke:#000000;stroke-width:0.8;" x="57.6" xlink:href="#md4fae5467d" y="98.724135"/>
      </g>
     </g>
     <g id="text_13">
      <!-- 0.2 -->
      <g transform="translate(34.696875 102.523353)scale(0.1 -0.1)">
       <use xlink:href="#DejaVuSans-30"/>
       <use x="63.623047" xlink:href="#DejaVuSans-2e"/>
       <use x="95.410156" xlink:href="#DejaVuSans-32"/>
      </g>
     </g>
    </g>
    <g id="ytick_8">
     <g id="line2d_65">
      <path clip-path="url(#p26da7b5a82)" d="M 57.6 63.9852 
L 414.72 63.9852 
" style="fill:none;stroke:#b0b0b0;stroke-linecap:square;stroke-width:0.8;"/>
     </g>
     <g id="line2d_66">
      <g>
       <use style="stroke:#000000;stroke-width:0.8;" x="57.6" xlink:href="#md4fae5467d" y="63.9852"/>
      </g>
     </g>
     <g id="text_14">
      <!-- 0.3 -->
      <g transform="translate(34.696875 67.784419)scale(0.1 -0.1)">
       <use xlink:href="#DejaVuSans-30"/>
       <use x="63.623047" xlink:href="#DejaVuSans-2e"/>
       <use x="95.410156" xlink:href="#DejaVuSans-33"/>
      </g>
     </g>
    </g>
    <g id="ytick_9">
     <g id="line2d_67">
      <path clip-path="url(#p26da7b5a82)" d="M 57.6 300.209953 
L 414.72 300.209953 
" style="fill:none;stroke:#b0b0b0;stroke-linecap:square;stroke-width:0.8;"/>
     </g>
     <g id="line2d_68">
      <defs>
       <path d="M 0 0 
L -2 0 
" id="m7206e57b7f" style="stroke:#000000;stroke-width:0.6;"/>
      </defs>
      <g>
       <use style="stroke:#000000;stroke-width:0.6;" x="57.6" xlink:href="#m7206e57b7f" y="300.209953"/>
      </g>
     </g>
    </g>
    <g id="ytick_10">
     <g id="line2d_69">
      <path clip-path="url(#p26da7b5a82)" d="M 57.6 293.262166 
L 414.72 293.262166 
" style="fill:none;stroke:#b0b0b0;stroke-linecap:square;stroke-width:0.8;"/>
     </g>
     <g id="line2d_70">
      <g>
       <use style="stroke:#000000;stroke-width:0.6;" x="57.6" xlink:href="#m7206e57b7f" y="293.262166"/>
      </g>
     </g>
    </g>
    <g id="ytick_11">
     <g id="line2d_71">
      <path clip-path="url(#p26da7b5a82)" d="M 57.6 286.314379 
L 414.72 286.314379 
" style="fill:none;stroke:#b0b0b0;stroke-linecap:square;stroke-width:0.8;"/>
     </g>
     <g id="line2d_72">
      <g>
       <use style="stroke:#000000;stroke-width:0.6;" x="57.6" xlink:href="#m7206e57b7f" y="286.314379"/>
      </g>
     </g>
    </g>
    <g id="ytick_12">
     <g id="line2d_73">
      <path clip-path="url(#p26da7b5a82)" d="M 57.6 279.366592 
L 414.72 279.366592 
" style="fill:none;stroke:#b0b0b0;stroke-linecap:square;stroke-width:0.8;"/>
     </g>
     <g id="line2d_74">
      <g>
       <use style="stroke:#000000;stroke-width:0.6;" x="57.6" xlink:href="#m7206e57b7f" y="279.366592"/>
      </g>
     </g>
    </g>
    <g id="ytick_13">
     <g id="line2d_75">
      <path clip-path="url(#p26da7b5a82)" d="M 57.6 265.471019 
L 414.72 265.471019 
" style="fill:none;stroke:#b0b0b0;stroke-linecap:square;stroke-width:0.8;"/>
     </g>
     <g id="line2d_76">
      <g>
       <use style="stroke:#000000;stroke-width:0.6;" x="57.6" xlink:href="#m7206e57b7f" y="265.471019"/>
      </g>
     </g>
    </g>
    <g id="ytick_14">
     <g id="line2d_77">
      <path clip-path="url(#p26da7b5a82)" d="M 57.6 258.523232 
L 414.72 258.523232 
" style="fill:none;stroke:#b0b0b0;stroke-linecap:square;stroke-width:0.8;"/>
     </g>
     <g id="line2d_78">
      <g>
       <use style="stroke:#000000;stroke-width:0.6;" x="57.6" xlink:href="#m7206e57b7f" y="258.523232"/>
      </g>
     </g>
    </g>
    <g id="ytick_15">
     <g id="line2d_79">
      <path clip-path="url(#p26da7b5a82)" d="M 57.6 251.575445 
L 414.72 251.575445 
" style="fill:none;stroke:#b0b0b0;stroke-linecap:square;stroke-width:0.8;"/>
     </g>
     <g id="line2d_80">
      <g>
       <use style="stroke:#000000;stroke-width:0.6;" x="57.6" xlink:href="#m7206e57b7f" y="251.575445"/>
      </g>
     </g>
    </g>
    <g id="ytick_16">
     <g id="line2d_81">
      <path clip-path="url(#p26da7b5a82)" d="M 57.6 244.627658 
L 414.72 244.627658 
" style="fill:none;stroke:#b0b0b0;stroke-linecap:square;stroke-width:0.8;"/>
     </g>
     <g id="line2d_82">
      <g>
       <use style="stroke:#000000;stroke-width:0.6;" x="57.6" xlink:href="#m7206e57b7f" y="244.627658"/>
      </g>
     </g>
    </g>
    <g id="ytick_17">
     <g id="line2d_83">
      <path clip-path="url(#p26da7b5a82)" d="M 57.6 237.679871 
L 414.72 237.679871 
" style="fill:none;stroke:#b0b0b0;stroke-linecap:square;stroke-width:0.8;"/>
     </g>
     <g id="line2d_84">
      <g>
       <use style="stroke:#000000;stroke-width:0.6;" x="57.6" xlink:href="#m7206e57b7f" y="237.679871"/>
      </g>
     </g>
    </g>
    <g id="ytick_18">
     <g id="line2d_85">
      <path clip-path="url(#p26da7b5a82)" d="M 57.6 230.732085 
L 414.72 230.732085 
" style="fill:none;stroke:#b0b0b0;stroke-linecap:square;stroke-width:0.8;"/>
     </g>
     <g id="line2d_86">
      <g>
       <use style="stroke:#000000;stroke-width:0.6;" x="57.6" xlink:href="#m7206e57b7f" y="230.732085"/>
      </g>
     </g>
    </g>
    <g id="ytick_19">
     <g id="line2d_87">
      <path clip-path="url(#p26da7b5a82)" d="M 57.6 223.784298 
L 414.72 223.784298 
" style="fill:none;stroke:#b0b0b0;stroke-linecap:square;stroke-width:0.8;"/>
     </g>
     <g id="line2d_88">
      <g>
       <use style="stroke:#000000;stroke-width:0.6;" x="57.6" xlink:href="#m7206e57b7f" y="223.784298"/>
      </g>
     </g>
    </g>
    <g id="ytick_20">
     <g id="line2d_89">
      <path clip-path="url(#p26da7b5a82)" d="M 57.6 216.836511 
L 414.72 216.836511 
" style="fill:none;stroke:#b0b0b0;stroke-linecap:square;stroke-width:0.8;"/>
     </g>
     <g id="line2d_90">
      <g>
       <use style="stroke:#000000;stroke-width:0.6;" x="57.6" xlink:href="#m7206e57b7f" y="216.836511"/>
      </g>
     </g>
    </g>
    <g id="ytick_21">
     <g id="line2d_91">
      <path clip-path="url(#p26da7b5a82)" d="M 57.6 209.888724 
L 414.72 209.888724 
" style="fill:none;stroke:#b0b0b0;stroke-linecap:square;stroke-width:0.8;"/>
     </g>
     <g id="line2d_92">
      <g>
       <use style="stroke:#000000;stroke-width:0.6;" x="57.6" xlink:href="#m7206e57b7f" y="209.888724"/>
      </g>
     </g>
    </g>
    <g id="ytick_22">
     <g id="line2d_93">
      <path clip-path="url(#p26da7b5a82)" d="M 57.6 202.940937 
L 414.72 202.940937 
" style="fill:none;stroke:#b0b0b0;stroke-linecap:square;stroke-width:0.8;"/>
     </g>
     <g id="line2d_94">
      <g>
       <use style="stroke:#000000;stroke-width:0.6;" x="57.6" xlink:href="#m7206e57b7f" y="202.940937"/>
      </g>
     </g>
    </g>
    <g id="ytick_23">
     <g id="line2d_95">
      <path clip-path="url(#p26da7b5a82)" d="M 57.6 195.99315 
L 414.72 195.99315 
" style="fill:none;stroke:#b0b0b0;stroke-linecap:square;stroke-width:0.8;"/>
     </g>
     <g id="line2d_96">
      <g>
       <use style="stroke:#000000;stroke-width:0.6;" x="57.6" xlink:href="#m7206e57b7f" y="195.99315"/>
      </g>
     </g>
    </g>
    <g id="ytick_24">
     <g id="line2d_97">
      <path clip-path="url(#p26da7b5a82)" d="M 57.6 189.045363 
L 414.72 189.045363 
" style="fill:none;stroke:#b0b0b0;stroke-linecap:square;stroke-width:0.8;"/>
     </g>
     <g id="line2d_98">
      <g>
       <use style="stroke:#000000;stroke-width:0.6;" x="57.6" xlink:href="#m7206e57b7f" y="189.045363"/>
      </g>
     </g>
    </g>
    <g id="ytick_25">
     <g id="line2d_99">
      <path clip-path="url(#p26da7b5a82)" d="M 57.6 182.097577 
L 414.72 182.097577 
" style="fill:none;stroke:#b0b0b0;stroke-linecap:square;stroke-width:0.8;"/>
     </g>
     <g id="line2d_100">
      <g>
       <use style="stroke:#000000;stroke-width:0.6;" x="57.6" xlink:href="#m7206e57b7f" y="182.097577"/>
      </g>
     </g>
    </g>
    <g id="ytick_26">
     <g id="line2d_101">
      <path clip-path="url(#p26da7b5a82)" d="M 57.6 175.14979 
L 414.72 175.14979 
" style="fill:none;stroke:#b0b0b0;stroke-linecap:square;stroke-width:0.8;"/>
     </g>
     <g id="line2d_102">
      <g>
       <use style="stroke:#000000;stroke-width:0.6;" x="57.6" xlink:href="#m7206e57b7f" y="175.14979"/>
      </g>
     </g>
    </g>
    <g id="ytick_27">
     <g id="line2d_103">
      <path clip-path="url(#p26da7b5a82)" d="M 57.6 168.202003 
L 414.72 168.202003 
" style="fill:none;stroke:#b0b0b0;stroke-linecap:square;stroke-width:0.8;"/>
     </g>
     <g id="line2d_104">
      <g>
       <use style="stroke:#000000;stroke-width:0.6;" x="57.6" xlink:href="#m7206e57b7f" y="168.202003"/>
      </g>
     </g>
    </g>
    <g id="ytick_28">
     <g id="line2d_105">
      <path clip-path="url(#p26da7b5a82)" d="M 57.6 161.254216 
L 414.72 161.254216 
" style="fill:none;stroke:#b0b0b0;stroke-linecap:square;stroke-width:0.8;"/>
     </g>
     <g id="line2d_106">
      <g>
       <use style="stroke:#000000;stroke-width:0.6;" x="57.6" xlink:href="#m7206e57b7f" y="161.254216"/>
      </g>
     </g>
    </g>
    <g id="ytick_29">
     <g id="line2d_107">
      <path clip-path="url(#p26da7b5a82)" d="M 57.6 154.306429 
L 414.72 154.306429 
" style="fill:none;stroke:#b0b0b0;stroke-linecap:square;stroke-width:0.8;"/>
     </g>
     <g id="line2d_108">
      <g>
       <use style="stroke:#000000;stroke-width:0.6;" x="57.6" xlink:href="#m7206e57b7f" y="154.306429"/>
      </g>
     </g>
    </g>
    <g id="ytick_30">
     <g id="line2d_109">
      <path clip-path="url(#p26da7b5a82)" d="M 57.6 147.358642 
L 414.72 147.358642 
" style="fill:none;stroke:#b0b0b0;stroke-linecap:square;stroke-width:0.8;"/>
     </g>
     <g id="line2d_110">
      <g>
       <use style="stroke:#000000;stroke-width:0.6;" x="57.6" xlink:href="#m7206e57b7f" y="147.358642"/>
      </g>
     </g>
    </g>
    <g id="ytick_31">
     <g id="line2d_111">
      <path clip-path="url(#p26da7b5a82)" d="M 57.6 140.410856 
L 414.72 140.410856 
" style="fill:none;stroke:#b0b0b0;stroke-linecap:square;stroke-width:0.8;"/>
     </g>
     <g id="line2d_112">
      <g>
       <use style="stroke:#000000;stroke-width:0.6;" x="57.6" xlink:href="#m7206e57b7f" y="140.410856"/>
      </g>
     </g>
    </g>
    <g id="ytick_32">
     <g id="line2d_113">
      <path clip-path="url(#p26da7b5a82)" d="M 57.6 133.463069 
L 414.72 133.463069 
" style="fill:none;stroke:#b0b0b0;stroke-linecap:square;stroke-width:0.8;"/>
     </g>
     <g id="line2d_114">
      <g>
       <use style="stroke:#000000;stroke-width:0.6;" x="57.6" xlink:href="#m7206e57b7f" y="133.463069"/>
      </g>
     </g>
    </g>
    <g id="ytick_33">
     <g id="line2d_115">
      <path clip-path="url(#p26da7b5a82)" d="M 57.6 126.515282 
L 414.72 126.515282 
" style="fill:none;stroke:#b0b0b0;stroke-linecap:square;stroke-width:0.8;"/>
     </g>
     <g id="line2d_116">
      <g>
       <use style="stroke:#000000;stroke-width:0.6;" x="57.6" xlink:href="#m7206e57b7f" y="126.515282"/>
      </g>
     </g>
    </g>
    <g id="ytick_34">
     <g id="line2d_117">
      <path clip-path="url(#p26da7b5a82)" d="M 57.6 119.567495 
L 414.72 119.567495 
" style="fill:none;stroke:#b0b0b0;stroke-linecap:square;stroke-width:0.8;"/>
     </g>
     <g id="line2d_118">
      <g>
       <use style="stroke:#000000;stroke-width:0.6;" x="57.6" xlink:href="#m7206e57b7f" y="119.567495"/>
      </g>
     </g>
    </g>
    <g id="ytick_35">
     <g id="line2d_119">
      <path clip-path="url(#p26da7b5a82)" d="M 57.6 112.619708 
L 414.72 112.619708 
" style="fill:none;stroke:#b0b0b0;stroke-linecap:square;stroke-width:0.8;"/>
     </g>
     <g id="line2d_120">
      <g>
       <use style="stroke:#000000;stroke-width:0.6;" x="57.6" xlink:href="#m7206e57b7f" y="112.619708"/>
      </g>
     </g>
    </g>
    <g id="ytick_36">
     <g id="line2d_121">
      <path clip-path="url(#p26da7b5a82)" d="M 57.6 105.671921 
L 414.72 105.671921 
" style="fill:none;stroke:#b0b0b0;stroke-linecap:square;stroke-width:0.8;"/>
     </g>
     <g id="line2d_122">
      <g>
       <use style="stroke:#000000;stroke-width:0.6;" x="57.6" xlink:href="#m7206e57b7f" y="105.671921"/>
      </g>
     </g>
    </g>
    <g id="ytick_37">
     <g id="line2d_123">
      <path clip-path="url(#p26da7b5a82)" d="M 57.6 98.724135 
L 414.72 98.724135 
" style="fill:none;stroke:#b0b0b0;stroke-linecap:square;stroke-width:0.8;"/>
     </g>
     <g id="line2d_124">
      <g>
       <use style="stroke:#000000;stroke-width:0.6;" x="57.6" xlink:href="#m7206e57b7f" y="98.724135"/>
      </g>
     </g>
    </g>
    <g id="ytick_38">
     <g id="line2d_125">
      <path clip-path="url(#p26da7b5a82)" d="M 57.6 91.776348 
L 414.72 91.776348 
" style="fill:none;stroke:#b0b0b0;stroke-linecap:square;stroke-width:0.8;"/>
     </g>
     <g id="line2d_126">
      <g>
       <use style="stroke:#000000;stroke-width:0.6;" x="57.6" xlink:href="#m7206e57b7f" y="91.776348"/>
      </g>
     </g>
    </g>
    <g id="ytick_39">
     <g id="line2d_127">
      <path clip-path="url(#p26da7b5a82)" d="M 57.6 84.828561 
L 414.72 84.828561 
" style="fill:none;stroke:#b0b0b0;stroke-linecap:square;stroke-width:0.8;"/>
     </g>
     <g id="line2d_128">
      <g>
       <use style="stroke:#000000;stroke-width:0.6;" x="57.6" xlink:href="#m7206e57b7f" y="84.828561"/>
      </g>
     </g>
    </g>
    <g id="ytick_40">
     <g id="line2d_129">
      <path clip-path="url(#p26da7b5a82)" d="M 57.6 77.880774 
L 414.72 77.880774 
" style="fill:none;stroke:#b0b0b0;stroke-linecap:square;stroke-width:0.8;"/>
     </g>
     <g id="line2d_130">
      <g>
       <use style="stroke:#000000;stroke-width:0.6;" x="57.6" xlink:href="#m7206e57b7f" y="77.880774"/>
      </g>
     </g>
    </g>
    <g id="ytick_41">
     <g id="line2d_131">
      <path clip-path="url(#p26da7b5a82)" d="M 57.6 70.932987 
L 414.72 70.932987 
" style="fill:none;stroke:#b0b0b0;stroke-linecap:square;stroke-width:0.8;"/>
     </g>
     <g id="line2d_132">
      <g>
       <use style="stroke:#000000;stroke-width:0.6;" x="57.6" xlink:href="#m7206e57b7f" y="70.932987"/>
      </g>
     </g>
    </g>
    <g id="ytick_42">
     <g id="line2d_133">
      <path clip-path="url(#p26da7b5a82)" d="M 57.6 63.9852 
L 414.72 63.9852 
" style="fill:none;stroke:#b0b0b0;stroke-linecap:square;stroke-width:0.8;"/>
     </g>
     <g id="line2d_134">
      <g>
       <use style="stroke:#000000;stroke-width:0.6;" x="57.6" xlink:href="#m7206e57b7f" y="63.9852"/>
      </g>
     </g>
    </g>
    <g id="ytick_43">
     <g id="line2d_135">
      <path clip-path="url(#p26da7b5a82)" d="M 57.6 57.037414 
L 414.72 57.037414 
" style="fill:none;stroke:#b0b0b0;stroke-linecap:square;stroke-width:0.8;"/>
     </g>
     <g id="line2d_136">
      <g>
       <use style="stroke:#000000;stroke-width:0.6;" x="57.6" xlink:href="#m7206e57b7f" y="57.037414"/>
      </g>
     </g>
    </g>
    <g id="ytick_44">
     <g id="line2d_137">
      <path clip-path="url(#p26da7b5a82)" d="M 57.6 50.089627 
L 414.72 50.089627 
" style="fill:none;stroke:#b0b0b0;stroke-linecap:square;stroke-width:0.8;"/>
     </g>
     <g id="line2d_138">
      <g>
       <use style="stroke:#000000;stroke-width:0.6;" x="57.6" xlink:href="#m7206e57b7f" y="50.089627"/>
      </g>
     </g>
    </g>
    <g id="ytick_45">
     <g id="line2d_139">
      <path clip-path="url(#p26da7b5a82)" d="M 57.6 43.14184 
L 414.72 43.14184 
" style="fill:none;stroke:#b0b0b0;stroke-linecap:square;stroke-width:0.8;"/>
     </g>
     <g id="line2d_140">
      <g>
       <use style="stroke:#000000;stroke-width:0.6;" x="57.6" xlink:href="#m7206e57b7f" y="43.14184"/>
      </g>
     </g>
    </g>
    <g id="text_15">
     <!-- rot y -->
     <defs>
      <path d="M 30.609375 48.390625 
Q 23.390625 48.390625 19.1875 42.75 
Q 14.984375 37.109375 14.984375 27.296875 
Q 14.984375 17.484375 19.15625 11.84375 
Q 23.34375 6.203125 30.609375 6.203125 
Q 37.796875 6.203125 41.984375 11.859375 
Q 46.1875 17.53125 46.1875 27.296875 
Q 46.1875 37.015625 41.984375 42.703125 
Q 37.796875 48.390625 30.609375 48.390625 
z
M 30.609375 56 
Q 42.328125 56 49.015625 48.375 
Q 55.71875 40.765625 55.71875 27.296875 
Q 55.71875 13.875 49.015625 6.21875 
Q 42.328125 -1.421875 30.609375 -1.421875 
Q 18.84375 -1.421875 12.171875 6.21875 
Q 5.515625 13.875 5.515625 27.296875 
Q 5.515625 40.765625 12.171875 48.375 
Q 18.84375 56 30.609375 56 
z
" id="DejaVuSans-6f"/>
      <path d="M 18.3125 70.21875 
L 18.3125 54.6875 
L 36.8125 54.6875 
L 36.8125 47.703125 
L 18.3125 47.703125 
L 18.3125 18.015625 
Q 18.3125 11.328125 20.140625 9.421875 
Q 21.96875 7.515625 27.59375 7.515625 
L 36.8125 7.515625 
L 36.8125 0 
L 27.59375 0 
Q 17.1875 0 13.234375 3.875 
Q 9.28125 7.765625 9.28125 18.015625 
L 9.28125 47.703125 
L 2.6875 47.703125 
L 2.6875 54.6875 
L 9.28125 54.6875 
L 9.28125 70.21875 
z
" id="DejaVuSans-74"/>
      <path d="M 32.171875 -5.078125 
Q 28.375 -14.84375 24.75 -17.8125 
Q 21.140625 -20.796875 15.09375 -20.796875 
L 7.90625 -20.796875 
L 7.90625 -13.28125 
L 13.1875 -13.28125 
Q 16.890625 -13.28125 18.9375 -11.515625 
Q 21 -9.765625 23.484375 -3.21875 
L 25.09375 0.875 
L 2.984375 54.6875 
L 12.5 54.6875 
L 29.59375 11.921875 
L 46.6875 54.6875 
L 56.203125 54.6875 
z
" id="DejaVuSans-79"/>
     </defs>
     <g transform="translate(20.2375 186.149875)rotate(-90)scale(0.1 -0.1)">
      <use xlink:href="#DejaVuSans-72"/>
      <use x="41.082031" xlink:href="#DejaVuSans-6f"/>
      <use x="102.263672" xlink:href="#DejaVuSans-74"/>
      <use x="141.472656" xlink:href="#DejaVuSans-20"/>
      <use x="173.259766" xlink:href="#DejaVuSans-79"/>
     </g>
    </g>
   </g>
   <g id="line2d_141">
    <path clip-path="url(#p26da7b5a82)" d="M 73.832727 139.84704 
L 74.524971 146.638372 
L 75.217208 157.448586 
L 75.90628 157.957828 
L 76.598517 157.711615 
L 77.290754 153.083922 
L 77.982991 146.898832 
L 78.6751 123.644828 
L 79.367337 151.854395 
L 80.059581 152.624894 
L 80.751818 140.290629 
L 81.446481 146.338484 
L 82.138725 162.288212 
L 82.830962 158.253705 
L 83.523199 156.130156 
L 84.908883 169.537324 
L 85.601147 154.834345 
L 86.293364 164.43616 
L 86.985656 150.394651 
L 87.675135 144.21186 
L 88.367373 161.843706 
L 89.05961 159.696188 
L 89.751847 175.040531 
L 90.441987 174.974027 
L 91.13423 175.110562 
L 91.826467 170.30986 
L 92.518705 163.18719 
L 93.209773 94.451684 
L 93.902011 145.810667 
L 94.594254 127.454603 
L 95.286491 126.488585 
L 95.979336 130.066901 
L 97.363819 163.094965 
L 98.056056 194.035209 
L 98.749362 193.188436 
L 99.44205 193.120218 
L 100.133837 194.342156 
L 100.826074 204.677608 
M 102.901478 172.865056 
L 103.593715 172.036112 
M 104.977035 145.126937 
L 105.669272 119.664806 
L 106.361509 135.774682 
L 107.05535 144.459814 
L 107.747587 130.726896 
L 108.439825 146.423847 
L 109.132062 181.405781 
M 111.901674 177.907616 
L 112.593675 190.927475 
L 113.285912 176.43647 
L 114.670387 184.569666 
M 116.054209 198.956179 
L 116.746446 215.597905 
L 117.438683 206.603315 
L 118.130907 221.926466 
L 118.823151 216.102934 
L 119.515395 213.19777 
L 121.594579 161.656512 
L 122.286816 139.298732 
L 122.97906 107.150652 
M 125.748383 159.686987 
L 126.44062 241.183206 
L 127.129632 202.065406 
L 127.82187 223.631414 
L 128.514107 233.636215 
L 129.206344 229.743768 
L 129.89967 211.845348 
L 130.591908 199.943061 
L 131.284145 175.479625 
L 131.976389 166.438066 
L 132.670814 147.13607 
L 133.363058 137.47751 
L 134.055295 137.899916 
L 134.747532 135.569128 
L 135.437802 144.689375 
L 136.130039 149.232455 
L 136.822277 138.344437 
L 137.514514 147.696342 
L 138.204709 170.490642 
L 138.896947 182.791134 
M 142.360573 179.485346 
L 143.05281 176.706469 
L 143.744756 165.597343 
L 144.436993 165.079721 
M 149.973692 134.413694 
L 150.665929 98.512116 
M 152.05041 148.235587 
L 152.743731 176.38334 
L 153.435969 194.120227 
L 154.128206 195.015691 
L 154.820443 198.646369 
L 155.510224 188.853824 
M 158.279343 212.838899 
L 158.97158 215.046495 
M 161.743508 178.255994 
L 162.435745 156.479264 
L 163.127989 141.677577 
L 163.818557 131.841057 
L 164.510795 134.628052 
M 166.586145 129.419742 
L 167.278382 116.476655 
L 167.970626 143.408807 
M 170.048694 136.72093 
L 170.740931 153.885704 
L 173.510286 191.747862 
L 174.202529 190.456511 
L 174.892987 197.162827 
L 175.585225 224.943692 
L 176.277462 205.607099 
L 176.969699 204.163505 
L 177.662487 218.529339 
M 179.046962 206.882089 
L 179.739205 195.999917 
L 180.434067 195.865574 
L 181.126297 177.153254 
L 181.818534 171.686717 
L 182.510778 148.778371 
L 183.200632 141.13966 
L 183.892876 129.818877 
L 184.585113 112.773362 
M 185.969588 107.055187 
L 186.661455 125.614769 
M 191.509762 187.062172 
L 192.199235 203.36496 
L 192.891481 207.739544 
L 194.275953 215.117876 
M 199.123391 154.071715 
L 199.815628 138.379026 
L 200.508823 131.216357 
L 201.20106 116.027141 
L 201.893304 131.458238 
L 202.585541 132.252783 
L 203.275538 133.93965 
L 203.967776 197.092684 
M 205.35225 220.624191 
L 206.044672 218.883018 
L 206.736909 229.52166 
L 207.429146 226.126865 
L 209.50811 134.295821 
M 213.66058 107.525547 
L 214.351919 119.299838 
L 215.044156 99.86514 
L 215.736393 126.653699 
L 216.428631 136.824955 
L 217.120874 142.24507 
L 217.814995 181.662078 
L 218.507232 160.173352 
L 219.891706 186.844573 
L 220.58497 211.369684 
L 221.277214 211.691337 
L 221.969824 235.731304 
L 222.661681 214.200514 
L 223.354881 210.854183 
M 224.739362 175.924652 
L 225.431599 162.839124 
L 226.123329 141.045024 
L 226.815566 140.189325 
L 227.507804 110.698714 
L 228.200041 183.305876 
L 228.892598 137.306585 
L 229.584835 140.706617 
L 230.277072 151.971222 
M 231.661953 152.906947 
L 232.35419 177.678001 
L 233.738664 200.709876 
L 234.434318 195.135465 
L 235.126562 196.794687 
L 235.818799 200.579859 
L 236.511036 196.218881 
L 237.205725 181.27429 
L 238.5902 174.228033 
L 239.282437 179.875519 
M 240.658539 186.148717 
L 241.350776 200.663946 
L 242.043013 196.946741 
L 242.735331 214.186197 
L 243.427569 220.163695 
M 245.504977 195.767143 
L 246.197214 192.868398 
L 246.889449 177.83919 
L 247.581686 168.96962 
L 248.274878 162.580098 
L 248.967115 175.944591 
L 249.659352 137.197217 
L 250.351589 131.243041 
M 253.121246 142.15783 
L 253.81349 159.679104 
L 254.500718 163.768217 
L 255.192947 184.35595 
L 255.885192 191.907241 
L 256.577429 176.974697 
L 257.269926 198.398719 
L 257.962163 229.263107 
L 258.6544 234.349707 
L 259.346637 222.72392 
L 260.040695 224.116278 
L 260.732932 223.505417 
L 261.425169 193.225778 
L 262.117406 169.796415 
L 262.80931 151.685965 
M 264.193784 156.916994 
L 264.886021 126.755509 
M 272.500759 173.923232 
L 273.192996 183.02627 
L 273.886626 184.025396 
L 274.578864 173.173196 
L 275.271101 164.576112 
M 291.190092 156.02215 
L 291.882329 155.378515 
M 308.496983 208.150135 
L 309.18922 131.427816 
M 325.112821 194.772981 
L 325.805058 215.618683 
L 326.497302 241.16833 
M 329.961455 79.914629 
L 330.653469 64.329962 
L 332.037944 99.816384 
L 332.730181 129.608265 
L 333.422638 174.421635 
L 334.114875 187.353203 
M 338.959426 69.120951 
L 339.651661 78.312216 
L 340.343899 89.941605 
L 341.036136 125.635678 
L 341.726718 177.773548 
M 343.111192 238.869743 
L 343.803429 268.482439 
M 358.33989 150.865866 
L 359.029714 148.495544 
M 363.183748 186.699149 
L 363.875985 181.675106 
L 364.568397 172.900923 
L 365.260626 149.442502 
M 368.030296 153.70705 
L 368.722533 145.305945 
L 369.41477 147.747048 
L 370.107983 152.00297 
L 370.80022 129.942289 
M 383.260573 178.960226 
L 383.952811 156.415297 
L 384.644637 166.79411 
L 385.336874 162.57952 
M 387.412183 157.393494 
L 388.104412 165.075492 
L 388.796657 167.591605 
L 389.488894 177.599537 
L 390.179932 184.221217 
L 390.872169 171.455863 
M 395.025447 155.808544 
" style="fill:none;stroke:#ff0000;stroke-linecap:square;"/>
   </g>
   <g id="line2d_142">
    <path clip-path="url(#p26da7b5a82)" d="M 73.832727 143.868183 
L 74.524971 143.443846 
L 75.217208 158.688786 
L 75.90628 157.821774 
L 76.598517 157.852315 
L 77.290754 156.804821 
L 77.982991 151.698556 
L 78.6751 148.512389 
L 79.367337 153.281738 
L 80.059581 156.563334 
L 80.751818 147.896186 
L 81.446481 151.147649 
L 82.830962 166.491704 
L 83.523199 169.75913 
L 84.216653 172.20547 
L 84.908883 166.29363 
L 85.601147 164.829405 
L 86.293364 159.825874 
L 86.985656 156.601721 
L 87.675135 158.589271 
L 88.367373 159.756111 
L 89.05961 162.086787 
L 89.751847 170.512752 
L 90.441987 182.13103 
L 91.13423 173.666501 
L 91.826467 174.528909 
L 93.209773 158.132296 
L 93.902011 148.939011 
L 94.594254 135.556909 
L 95.286491 125.285412 
L 95.979336 126.031066 
L 96.671581 149.032801 
L 97.363819 161.33372 
L 98.056056 177.034854 
L 98.749362 197.624108 
L 99.44205 206.567641 
L 100.133837 202.043566 
L 100.826074 200.211618 
M 102.901478 178.341177 
L 103.593715 172.518124 
M 104.977035 144.317382 
L 105.669272 132.176507 
L 106.361509 139.897726 
L 107.05535 146.175646 
L 107.747587 136.304718 
L 108.439825 141.210933 
L 109.132062 159.848807 
M 111.901674 174.855655 
L 112.593675 176.194422 
L 113.285912 170.082653 
L 114.670387 185.266297 
M 116.054209 196.661449 
L 116.746446 214.658166 
L 117.438683 218.883836 
L 118.130907 212.031379 
L 118.823151 217.487067 
L 119.515395 211.816422 
L 120.207625 192.689674 
L 121.594579 164.501432 
L 122.97906 120.015017 
M 125.748383 154.928947 
L 126.44062 187.928397 
L 127.129632 195.942907 
L 128.514107 215.455837 
L 129.206344 215.850073 
L 130.591908 199.826202 
L 131.284145 177.39107 
L 131.976389 159.801627 
L 132.670814 147.639481 
L 133.363058 137.532359 
L 134.055295 130.537553 
L 134.747532 132.946505 
L 135.437802 146.350293 
L 136.130039 151.701718 
L 136.822277 151.860727 
L 137.514514 157.190516 
L 138.204709 168.974055 
L 138.896947 177.612177 
M 142.360573 182.395883 
L 143.05281 169.484428 
L 144.436993 151.34214 
M 149.973692 130.762917 
L 150.665929 132.571321 
M 152.05041 155.799427 
L 153.435969 194.122744 
L 154.128206 198.415303 
L 154.820443 196.64564 
L 155.510224 199.886468 
M 158.279343 203.869212 
L 158.97158 209.33793 
M 161.743508 182.139792 
L 162.435745 160.067041 
L 163.127989 144.040307 
L 163.818557 133.189941 
L 164.510795 132.657218 
M 166.586145 139.055983 
L 167.278382 132.619357 
L 167.970626 131.308429 
M 170.048694 132.087023 
L 170.740931 149.570861 
L 171.433168 159.620303 
L 172.125831 166.411627 
L 172.818048 177.987616 
L 173.510286 193.513976 
L 174.202529 189.860494 
L 174.892987 194.23962 
L 175.585225 203.65451 
L 176.277462 206.61793 
L 176.969699 206.962889 
L 177.662487 212.191881 
M 179.046962 205.572029 
L 179.739205 199.347578 
L 180.434067 197.756168 
L 181.126297 182.217047 
L 181.818534 171.686271 
L 182.510778 154.514117 
L 183.200632 140.49276 
L 183.892876 134.866669 
L 184.585113 124.205519 
M 185.969588 117.36394 
L 186.661455 123.385035 
M 191.509762 183.426064 
L 192.199235 191.051607 
L 192.891481 203.936548 
L 193.583718 209.527118 
L 194.275953 217.112464 
M 199.123391 162.724144 
L 199.815628 140.500056 
L 200.508823 125.933642 
L 201.20106 122.562663 
L 201.893304 122.934101 
L 202.585541 128.790617 
L 203.275538 142.465271 
L 203.967776 166.884082 
M 205.35225 215.053261 
L 206.044672 217.645751 
L 206.736909 227.923985 
L 207.429146 220.495948 
L 208.121383 195.434447 
L 208.815873 162.187894 
L 209.50811 138.43984 
M 213.66058 121.532886 
L 214.351919 119.46963 
L 215.044156 114.88095 
L 216.428631 138.063084 
L 217.120874 141.266127 
L 217.814995 146.093693 
L 219.199469 175.154341 
L 219.891706 189.911637 
L 220.58497 197.051108 
L 221.277214 209.074569 
L 221.969824 215.964967 
L 222.661681 214.316885 
L 223.354881 204.709205 
M 224.739362 167.105623 
L 225.431599 158.912191 
L 226.815566 133.584499 
L 227.507804 127.6712 
L 228.200041 136.768245 
L 228.892598 139.521903 
L 229.584835 143.322693 
L 230.277072 152.029768 
M 231.661953 156.03297 
L 233.046427 179.67781 
L 233.738664 186.53949 
L 234.434318 191.569843 
L 235.126562 197.463171 
L 235.818799 195.17751 
L 236.511036 191.583225 
L 237.897963 173.285511 
L 238.5902 173.420013 
L 239.282437 179.444815 
M 240.658539 186.63253 
L 241.350776 189.526057 
L 242.043013 195.938165 
L 242.735331 201.23678 
L 243.427569 200.72825 
M 245.504977 193.17452 
L 246.197214 186.891671 
L 246.889449 175.251151 
L 247.581686 170.585985 
L 248.274878 163.513853 
L 248.967115 147.454292 
L 249.659352 137.00171 
L 250.351589 130.699109 
M 253.121246 139.475314 
L 253.81349 148.740481 
L 255.192947 172.956151 
L 255.885192 179.294552 
L 256.577429 171.696799 
L 257.269926 180.57998 
L 257.962163 195.91831 
L 258.6544 202.122602 
L 259.346637 211.025582 
L 260.040695 216.147727 
L 260.732932 203.948 
L 262.117406 171.929141 
L 262.80931 156.030773 
M 264.193784 142.753564 
L 264.886021 138.90508 
M 272.500759 176.613521 
L 273.192996 182.939068 
L 273.886626 184.778359 
L 275.271101 164.853885 
M 291.190092 155.63591 
L 291.882329 163.066501 
M 308.496983 209.953843 
L 309.18922 138.135279 
M 325.112821 187.624106 
L 325.805058 219.798333 
L 326.497302 240.205418 
M 329.961455 84.635448 
L 330.653469 75.566518 
L 331.346218 82.39419 
L 332.037944 95.008692 
L 333.422638 178.185244 
L 334.114875 195.840727 
M 338.959426 77.354537 
L 339.651661 65.573619 
L 340.343899 90.210213 
L 341.036136 120.380222 
L 341.726718 164.405512 
M 343.111192 231.229754 
L 343.803429 260.166137 
M 358.33989 138.547294 
L 359.029714 147.774002 
M 363.183748 188.804549 
L 363.875985 179.832616 
L 365.260626 150.889129 
M 368.030296 157.37557 
L 368.722533 153.602565 
L 369.41477 148.532561 
L 370.107983 150.139611 
L 370.80022 167.970645 
M 383.260573 184.316961 
L 383.952811 162.313806 
L 384.644637 169.298925 
L 385.336874 170.351095 
M 387.412183 155.941279 
L 388.104412 163.833442 
L 388.796657 167.996095 
L 389.488894 179.72283 
L 390.179932 182.260774 
L 390.872169 172.560112 
M 395.025447 161.155604 
" style="fill:none;stroke:#0000ff;stroke-linecap:square;"/>
   </g>
   <g id="line2d_143">
    <path clip-path="url(#p26da7b5a82)" d="M 101.516997 195.944775 
L 102.209241 189.121561 
M 140.976101 209.602902 
L 141.668336 200.784608 
M 146.511257 129.033321 
L 147.203494 134.452975 
L 147.895731 138.39238 
L 148.588378 138.188035 
L 149.281455 128.580951 
M 156.20247 199.995888 
L 156.894699 200.701469 
L 157.586944 200.73003 
M 165.203032 129.121932 
L 165.895269 134.899875 
M 168.662863 119.242093 
L 169.356457 120.947741 
M 187.353692 126.002229 
L 188.045929 136.378173 
L 188.738167 140.765666 
M 194.967935 208.363537 
L 195.660172 210.168755 
L 196.352409 224.348039 
L 197.044646 225.366198 
M 244.119806 198.026299 
L 244.812043 189.201842 
M 265.576308 127.712268 
L 266.268553 127.466401 
L 266.960791 128.022789 
L 267.653028 130.882877 
L 268.344813 134.567903 
L 269.03705 130.628321 
L 269.729287 141.091372 
L 270.421524 160.65935 
L 271.116285 168.09681 
L 271.808522 170.36709 
M 275.963338 150.572127 
L 276.655785 152.597051 
L 277.348022 146.017798 
L 278.040266 129.387053 
L 278.732503 130.812794 
L 279.422083 134.498235 
L 280.11432 149.231487 
M 281.498794 160.393107 
L 282.192431 179.367825 
L 282.885262 192.660108 
L 283.576905 199.15036 
L 284.269143 193.930157 
L 284.961386 192.10055 
L 286.344534 155.150441 
L 287.036771 150.101769 
L 287.729008 148.451406 
L 288.421904 137.721659 
L 289.806385 146.761757 
L 290.498622 147.384073 
M 292.574566 161.439502 
L 293.266803 167.570133 
L 294.653451 193.471088 
L 295.345682 201.240306 
L 296.037925 210.771102 
L 296.728311 232.452958 
L 297.420548 244.191211 
L 298.112785 217.845542 
L 299.500625 133.686362 
L 300.192862 112.248354 
L 300.885099 97.433859 
M 302.26739 64.24213 
L 302.959621 77.474837 
L 303.651864 109.606224 
L 305.037283 203.416951 
L 305.72952 253.555347 
M 307.114493 290.22437 
L 307.804746 258.791637 
M 309.881458 86.485184 
L 310.575802 57.768341 
L 311.268039 53.568 
L 311.960277 69.658851 
L 314.727973 230.024237 
M 316.112447 275.572643 
L 316.803859 261.022217 
L 317.496096 225.870694 
L 318.188333 183.663368 
M 319.576584 93.46172 
L 320.268821 61.013697 
L 320.961058 55.465668 
L 321.653295 72.690577 
L 322.342377 78.966696 
L 323.034614 89.683276 
L 324.419095 158.508323 
M 328.576974 179.501427 
L 329.269218 139.680377 
M 336.190619 263.508618 
L 336.882856 232.847863 
L 338.267337 123.427738 
M 344.492933 276.75699 
L 345.18517 260.306407 
L 345.877414 221.729392 
L 347.953989 82.089878 
M 349.338463 100.85044 
L 351.414505 215.115018 
L 352.798979 249.296949 
L 353.491776 253.252293 
M 354.87625 181.893924 
L 355.569124 143.784566 
L 356.26317 112.689571 
L 356.955416 105.335574 
L 357.647653 116.602888 
M 359.721951 156.086234 
L 360.414189 159.255881 
L 361.106426 163.983543 
L 361.799274 172.953466 
L 362.491511 179.528243 
M 365.952863 142.05391 
L 366.6451 141.115588 
L 367.338052 152.737044 
M 372.877912 183.208655 
L 373.570157 177.850427 
M 376.34006 136.79303 
L 377.032291 138.929236 
L 377.724534 147.931464 
M 380.492239 180.241477 
L 381.184476 184.926236 
L 381.876099 184.783097 
L 382.568336 190.011392 
M 386.029111 159.180392 
L 386.721348 152.351207 
M 391.564426 167.841753 
L 392.256643 167.677176 
L 392.948735 164.037185 
M 395.717867 163.67131 
L 396.410104 163.374081 
L 397.102341 166.735881 
L 397.794578 164.709043 
L 398.487273 163.641378 
L 398.487273 163.641378 
" style="fill:none;stroke:#008000;stroke-linecap:square;"/>
   </g>
   <g id="patch_3">
    <path d="M 57.6 307.584 
L 57.6 41.472 
" style="fill:none;stroke:#000000;stroke-linecap:square;stroke-linejoin:miter;stroke-width:0.8;"/>
   </g>
   <g id="patch_4">
    <path d="M 414.72 307.584 
L 414.72 41.472 
" style="fill:none;stroke:#000000;stroke-linecap:square;stroke-linejoin:miter;stroke-width:0.8;"/>
   </g>
   <g id="patch_5">
    <path d="M 57.6 307.584 
L 414.72 307.584 
" style="fill:none;stroke:#000000;stroke-linecap:square;stroke-linejoin:miter;stroke-width:0.8;"/>
   </g>
   <g id="patch_6">
    <path d="M 57.6 41.472 
L 414.72 41.472 
" style="fill:none;stroke:#000000;stroke-linecap:square;stroke-linejoin:miter;stroke-width:0.8;"/>
   </g>
   <g id="text_16">
    <!-- Rel Gt Rot Y Plot -->
    <defs>
     <path d="M 44.390625 34.1875 
Q 47.5625 33.109375 50.5625 29.59375 
Q 53.5625 26.078125 56.59375 19.921875 
L 66.609375 0 
L 56 0 
L 46.6875 18.703125 
Q 43.0625 26.03125 39.671875 28.421875 
Q 36.28125 30.8125 30.421875 30.8125 
L 19.671875 30.8125 
L 19.671875 0 
L 9.8125 0 
L 9.8125 72.90625 
L 32.078125 72.90625 
Q 44.578125 72.90625 50.734375 67.671875 
Q 56.890625 62.453125 56.890625 51.90625 
Q 56.890625 45.015625 53.6875 40.46875 
Q 50.484375 35.9375 44.390625 34.1875 
z
M 19.671875 64.796875 
L 19.671875 38.921875 
L 32.078125 38.921875 
Q 39.203125 38.921875 42.84375 42.21875 
Q 46.484375 45.515625 46.484375 51.90625 
Q 46.484375 58.296875 42.84375 61.546875 
Q 39.203125 64.796875 32.078125 64.796875 
z
" id="DejaVuSans-52"/>
     <path d="M 9.421875 75.984375 
L 18.40625 75.984375 
L 18.40625 0 
L 9.421875 0 
z
" id="DejaVuSans-6c"/>
     <path d="M 59.515625 10.40625 
L 59.515625 29.984375 
L 43.40625 29.984375 
L 43.40625 38.09375 
L 69.28125 38.09375 
L 69.28125 6.78125 
Q 63.578125 2.734375 56.6875 0.65625 
Q 49.8125 -1.421875 42 -1.421875 
Q 24.90625 -1.421875 15.25 8.5625 
Q 5.609375 18.5625 5.609375 36.375 
Q 5.609375 54.25 15.25 64.234375 
Q 24.90625 74.21875 42 74.21875 
Q 49.125 74.21875 55.546875 72.453125 
Q 61.96875 70.703125 67.390625 67.28125 
L 67.390625 56.78125 
Q 61.921875 61.421875 55.765625 63.765625 
Q 49.609375 66.109375 42.828125 66.109375 
Q 29.4375 66.109375 22.71875 58.640625 
Q 16.015625 51.171875 16.015625 36.375 
Q 16.015625 21.625 22.71875 14.15625 
Q 29.4375 6.6875 42.828125 6.6875 
Q 48.046875 6.6875 52.140625 7.59375 
Q 56.25 8.5 59.515625 10.40625 
z
" id="DejaVuSans-47"/>
     <path d="M -0.203125 72.90625 
L 10.40625 72.90625 
L 30.609375 42.921875 
L 50.6875 72.90625 
L 61.28125 72.90625 
L 35.5 34.71875 
L 35.5 0 
L 25.59375 0 
L 25.59375 34.71875 
z
" id="DejaVuSans-59"/>
     <path d="M 19.671875 64.796875 
L 19.671875 37.40625 
L 32.078125 37.40625 
Q 38.96875 37.40625 42.71875 40.96875 
Q 46.484375 44.53125 46.484375 51.125 
Q 46.484375 57.671875 42.71875 61.234375 
Q 38.96875 64.796875 32.078125 64.796875 
z
M 9.8125 72.90625 
L 32.078125 72.90625 
Q 44.34375 72.90625 50.609375 67.359375 
Q 56.890625 61.8125 56.890625 51.125 
Q 56.890625 40.328125 50.609375 34.8125 
Q 44.34375 29.296875 32.078125 29.296875 
L 19.671875 29.296875 
L 19.671875 0 
L 9.8125 0 
z
" id="DejaVuSans-50"/>
    </defs>
    <g transform="translate(186.845625 35.472)scale(0.12 -0.12)">
     <use xlink:href="#DejaVuSans-52"/>
     <use x="69.419922" xlink:href="#DejaVuSans-65"/>
     <use x="130.943359" xlink:href="#DejaVuSans-6c"/>
     <use x="158.726562" xlink:href="#DejaVuSans-20"/>
     <use x="190.513672" xlink:href="#DejaVuSans-47"/>
     <use x="268.003906" xlink:href="#DejaVuSans-74"/>
     <use x="307.212891" xlink:href="#DejaVuSans-20"/>
     <use x="339" xlink:href="#DejaVuSans-52"/>
     <use x="408.419922" xlink:href="#DejaVuSans-6f"/>
     <use x="469.601562" xlink:href="#DejaVuSans-74"/>
     <use x="508.810547" xlink:href="#DejaVuSans-20"/>
     <use x="540.597656" xlink:href="#DejaVuSans-59"/>
     <use x="601.681641" xlink:href="#DejaVuSans-20"/>
     <use x="633.46875" xlink:href="#DejaVuSans-50"/>
     <use x="693.771484" xlink:href="#DejaVuSans-6c"/>
     <use x="721.554688" xlink:href="#DejaVuSans-6f"/>
     <use x="782.736328" xlink:href="#DejaVuSans-74"/>
    </g>
   </g>
  </g>
 </g>
 <defs>
  <clipPath id="p26da7b5a82">
   <rect height="266.112" width="357.12" x="57.6" y="41.472"/>
  </clipPath>
 </defs>
</svg>
