<?xml version="1.0" encoding="utf-8" standalone="no"?>
<!DOCTYPE svg PUBLIC "-//W3C//DTD SVG 1.1//EN"
  "http://www.w3.org/Graphics/SVG/1.1/DTD/svg11.dtd">
<!-- Created with matplotlib (http://matplotlib.org/) -->
<svg height="345.6pt" version="1.1" viewBox="0 0 460.8 345.6" width="460.8pt" xmlns="http://www.w3.org/2000/svg" xmlns:xlink="http://www.w3.org/1999/xlink">
 <defs>
  <style type="text/css">
*{stroke-linecap:butt;stroke-linejoin:round;}
  </style>
 </defs>
 <g id="figure_1">
  <g id="patch_1">
   <path d="M 0 345.6 
L 460.8 345.6 
L 460.8 0 
L 0 0 
z
" style="fill:#ffffff;"/>
  </g>
  <g id="axes_1">
   <g id="patch_2">
    <path d="M 57.6 307.584 
L 414.72 307.584 
L 414.72 41.472 
L 57.6 41.472 
z
" style="fill:#ffffff;"/>
   </g>
   <g id="matplotlib.axis_1">
    <g id="xtick_1">
     <g id="line2d_1">
      <path clip-path="url(#pf0aac6b66b)" d="M 70.555248 307.584 
L 70.555248 41.472 
" style="fill:none;stroke:#b0b0b0;stroke-linecap:square;stroke-width:0.8;"/>
     </g>
     <g id="line2d_2">
      <defs>
       <path d="M 0 0 
L 0 3.5 
" id="mc9e22b40b7" style="stroke:#000000;stroke-width:0.8;"/>
      </defs>
      <g>
       <use style="stroke:#000000;stroke-width:0.8;" x="70.555248" xlink:href="#mc9e22b40b7" y="307.584"/>
      </g>
     </g>
     <g id="text_1">
      <!-- 0 -->
      <defs>
       <path d="M 31.78125 66.40625 
Q 24.171875 66.40625 20.328125 58.90625 
Q 16.5 51.421875 16.5 36.375 
Q 16.5 21.390625 20.328125 13.890625 
Q 24.171875 6.390625 31.78125 6.390625 
Q 39.453125 6.390625 43.28125 13.890625 
Q 47.125 21.390625 47.125 36.375 
Q 47.125 51.421875 43.28125 58.90625 
Q 39.453125 66.40625 31.78125 66.40625 
z
M 31.78125 74.21875 
Q 44.046875 74.21875 50.515625 64.515625 
Q 56.984375 54.828125 56.984375 36.375 
Q 56.984375 17.96875 50.515625 8.265625 
Q 44.046875 -1.421875 31.78125 -1.421875 
Q 19.53125 -1.421875 13.0625 8.265625 
Q 6.59375 17.96875 6.59375 36.375 
Q 6.59375 54.828125 13.0625 64.515625 
Q 19.53125 74.21875 31.78125 74.21875 
z
" id="DejaVuSans-30"/>
      </defs>
      <g transform="translate(67.373998 322.182437)scale(0.1 -0.1)">
       <use xlink:href="#DejaVuSans-30"/>
      </g>
     </g>
    </g>
    <g id="xtick_2">
     <g id="line2d_3">
      <path clip-path="url(#pf0aac6b66b)" d="M 139.776886 307.584 
L 139.776886 41.472 
" style="fill:none;stroke:#b0b0b0;stroke-linecap:square;stroke-width:0.8;"/>
     </g>
     <g id="line2d_4">
      <g>
       <use style="stroke:#000000;stroke-width:0.8;" x="139.776886" xlink:href="#mc9e22b40b7" y="307.584"/>
      </g>
     </g>
     <g id="text_2">
      <!-- 10 -->
      <defs>
       <path d="M 12.40625 8.296875 
L 28.515625 8.296875 
L 28.515625 63.921875 
L 10.984375 60.40625 
L 10.984375 69.390625 
L 28.421875 72.90625 
L 38.28125 72.90625 
L 38.28125 8.296875 
L 54.390625 8.296875 
L 54.390625 0 
L 12.40625 0 
z
" id="DejaVuSans-31"/>
      </defs>
      <g transform="translate(133.414386 322.182437)scale(0.1 -0.1)">
       <use xlink:href="#DejaVuSans-31"/>
       <use x="63.623047" xlink:href="#DejaVuSans-30"/>
      </g>
     </g>
    </g>
    <g id="xtick_3">
     <g id="line2d_5">
      <path clip-path="url(#pf0aac6b66b)" d="M 208.998523 307.584 
L 208.998523 41.472 
" style="fill:none;stroke:#b0b0b0;stroke-linecap:square;stroke-width:0.8;"/>
     </g>
     <g id="line2d_6">
      <g>
       <use style="stroke:#000000;stroke-width:0.8;" x="208.998523" xlink:href="#mc9e22b40b7" y="307.584"/>
      </g>
     </g>
     <g id="text_3">
      <!-- 20 -->
      <defs>
       <path d="M 19.1875 8.296875 
L 53.609375 8.296875 
L 53.609375 0 
L 7.328125 0 
L 7.328125 8.296875 
Q 12.9375 14.109375 22.625 23.890625 
Q 32.328125 33.6875 34.8125 36.53125 
Q 39.546875 41.84375 41.421875 45.53125 
Q 43.3125 49.21875 43.3125 52.78125 
Q 43.3125 58.59375 39.234375 62.25 
Q 35.15625 65.921875 28.609375 65.921875 
Q 23.96875 65.921875 18.8125 64.3125 
Q 13.671875 62.703125 7.8125 59.421875 
L 7.8125 69.390625 
Q 13.765625 71.78125 18.9375 73 
Q 24.125 74.21875 28.421875 74.21875 
Q 39.75 74.21875 46.484375 68.546875 
Q 53.21875 62.890625 53.21875 53.421875 
Q 53.21875 48.921875 51.53125 44.890625 
Q 49.859375 40.875 45.40625 35.40625 
Q 44.1875 33.984375 37.640625 27.21875 
Q 31.109375 20.453125 19.1875 8.296875 
z
" id="DejaVuSans-32"/>
      </defs>
      <g transform="translate(202.636023 322.182437)scale(0.1 -0.1)">
       <use xlink:href="#DejaVuSans-32"/>
       <use x="63.623047" xlink:href="#DejaVuSans-30"/>
      </g>
     </g>
    </g>
    <g id="xtick_4">
     <g id="line2d_7">
      <path clip-path="url(#pf0aac6b66b)" d="M 278.220161 307.584 
L 278.220161 41.472 
" style="fill:none;stroke:#b0b0b0;stroke-linecap:square;stroke-width:0.8;"/>
     </g>
     <g id="line2d_8">
      <g>
       <use style="stroke:#000000;stroke-width:0.8;" x="278.220161" xlink:href="#mc9e22b40b7" y="307.584"/>
      </g>
     </g>
     <g id="text_4">
      <!-- 30 -->
      <defs>
       <path d="M 40.578125 39.3125 
Q 47.65625 37.796875 51.625 33 
Q 55.609375 28.21875 55.609375 21.1875 
Q 55.609375 10.40625 48.1875 4.484375 
Q 40.765625 -1.421875 27.09375 -1.421875 
Q 22.515625 -1.421875 17.65625 -0.515625 
Q 12.796875 0.390625 7.625 2.203125 
L 7.625 11.71875 
Q 11.71875 9.328125 16.59375 8.109375 
Q 21.484375 6.890625 26.8125 6.890625 
Q 36.078125 6.890625 40.9375 10.546875 
Q 45.796875 14.203125 45.796875 21.1875 
Q 45.796875 27.640625 41.28125 31.265625 
Q 36.765625 34.90625 28.71875 34.90625 
L 20.21875 34.90625 
L 20.21875 43.015625 
L 29.109375 43.015625 
Q 36.375 43.015625 40.234375 45.921875 
Q 44.09375 48.828125 44.09375 54.296875 
Q 44.09375 59.90625 40.109375 62.90625 
Q 36.140625 65.921875 28.71875 65.921875 
Q 24.65625 65.921875 20.015625 65.03125 
Q 15.375 64.15625 9.8125 62.3125 
L 9.8125 71.09375 
Q 15.4375 72.65625 20.34375 73.4375 
Q 25.25 74.21875 29.59375 74.21875 
Q 40.828125 74.21875 47.359375 69.109375 
Q 53.90625 64.015625 53.90625 55.328125 
Q 53.90625 49.265625 50.4375 45.09375 
Q 46.96875 40.921875 40.578125 39.3125 
z
" id="DejaVuSans-33"/>
      </defs>
      <g transform="translate(271.857661 322.182437)scale(0.1 -0.1)">
       <use xlink:href="#DejaVuSans-33"/>
       <use x="63.623047" xlink:href="#DejaVuSans-30"/>
      </g>
     </g>
    </g>
    <g id="xtick_5">
     <g id="line2d_9">
      <path clip-path="url(#pf0aac6b66b)" d="M 347.441799 307.584 
L 347.441799 41.472 
" style="fill:none;stroke:#b0b0b0;stroke-linecap:square;stroke-width:0.8;"/>
     </g>
     <g id="line2d_10">
      <g>
       <use style="stroke:#000000;stroke-width:0.8;" x="347.441799" xlink:href="#mc9e22b40b7" y="307.584"/>
      </g>
     </g>
     <g id="text_5">
      <!-- 40 -->
      <defs>
       <path d="M 37.796875 64.3125 
L 12.890625 25.390625 
L 37.796875 25.390625 
z
M 35.203125 72.90625 
L 47.609375 72.90625 
L 47.609375 25.390625 
L 58.015625 25.390625 
L 58.015625 17.1875 
L 47.609375 17.1875 
L 47.609375 0 
L 37.796875 0 
L 37.796875 17.1875 
L 4.890625 17.1875 
L 4.890625 26.703125 
z
" id="DejaVuSans-34"/>
      </defs>
      <g transform="translate(341.079299 322.182437)scale(0.1 -0.1)">
       <use xlink:href="#DejaVuSans-34"/>
       <use x="63.623047" xlink:href="#DejaVuSans-30"/>
      </g>
     </g>
    </g>
    <g id="xtick_6">
     <g id="line2d_11">
      <path clip-path="url(#pf0aac6b66b)" d="M 84.399575 307.584 
L 84.399575 41.472 
" style="fill:none;stroke:#b0b0b0;stroke-linecap:square;stroke-width:0.8;"/>
     </g>
     <g id="line2d_12">
      <defs>
       <path d="M 0 0 
L 0 2 
" id="ma74288ca08" style="stroke:#000000;stroke-width:0.6;"/>
      </defs>
      <g>
       <use style="stroke:#000000;stroke-width:0.6;" x="84.399575" xlink:href="#ma74288ca08" y="307.584"/>
      </g>
     </g>
    </g>
    <g id="xtick_7">
     <g id="line2d_13">
      <path clip-path="url(#pf0aac6b66b)" d="M 98.243903 307.584 
L 98.243903 41.472 
" style="fill:none;stroke:#b0b0b0;stroke-linecap:square;stroke-width:0.8;"/>
     </g>
     <g id="line2d_14">
      <g>
       <use style="stroke:#000000;stroke-width:0.6;" x="98.243903" xlink:href="#ma74288ca08" y="307.584"/>
      </g>
     </g>
    </g>
    <g id="xtick_8">
     <g id="line2d_15">
      <path clip-path="url(#pf0aac6b66b)" d="M 112.08823 307.584 
L 112.08823 41.472 
" style="fill:none;stroke:#b0b0b0;stroke-linecap:square;stroke-width:0.8;"/>
     </g>
     <g id="line2d_16">
      <g>
       <use style="stroke:#000000;stroke-width:0.6;" x="112.08823" xlink:href="#ma74288ca08" y="307.584"/>
      </g>
     </g>
    </g>
    <g id="xtick_9">
     <g id="line2d_17">
      <path clip-path="url(#pf0aac6b66b)" d="M 125.932558 307.584 
L 125.932558 41.472 
" style="fill:none;stroke:#b0b0b0;stroke-linecap:square;stroke-width:0.8;"/>
     </g>
     <g id="line2d_18">
      <g>
       <use style="stroke:#000000;stroke-width:0.6;" x="125.932558" xlink:href="#ma74288ca08" y="307.584"/>
      </g>
     </g>
    </g>
    <g id="xtick_10">
     <g id="line2d_19">
      <path clip-path="url(#pf0aac6b66b)" d="M 153.621213 307.584 
L 153.621213 41.472 
" style="fill:none;stroke:#b0b0b0;stroke-linecap:square;stroke-width:0.8;"/>
     </g>
     <g id="line2d_20">
      <g>
       <use style="stroke:#000000;stroke-width:0.6;" x="153.621213" xlink:href="#ma74288ca08" y="307.584"/>
      </g>
     </g>
    </g>
    <g id="xtick_11">
     <g id="line2d_21">
      <path clip-path="url(#pf0aac6b66b)" d="M 167.465541 307.584 
L 167.465541 41.472 
" style="fill:none;stroke:#b0b0b0;stroke-linecap:square;stroke-width:0.8;"/>
     </g>
     <g id="line2d_22">
      <g>
       <use style="stroke:#000000;stroke-width:0.6;" x="167.465541" xlink:href="#ma74288ca08" y="307.584"/>
      </g>
     </g>
    </g>
    <g id="xtick_12">
     <g id="line2d_23">
      <path clip-path="url(#pf0aac6b66b)" d="M 181.309868 307.584 
L 181.309868 41.472 
" style="fill:none;stroke:#b0b0b0;stroke-linecap:square;stroke-width:0.8;"/>
     </g>
     <g id="line2d_24">
      <g>
       <use style="stroke:#000000;stroke-width:0.6;" x="181.309868" xlink:href="#ma74288ca08" y="307.584"/>
      </g>
     </g>
    </g>
    <g id="xtick_13">
     <g id="line2d_25">
      <path clip-path="url(#pf0aac6b66b)" d="M 195.154196 307.584 
L 195.154196 41.472 
" style="fill:none;stroke:#b0b0b0;stroke-linecap:square;stroke-width:0.8;"/>
     </g>
     <g id="line2d_26">
      <g>
       <use style="stroke:#000000;stroke-width:0.6;" x="195.154196" xlink:href="#ma74288ca08" y="307.584"/>
      </g>
     </g>
    </g>
    <g id="xtick_14">
     <g id="line2d_27">
      <path clip-path="url(#pf0aac6b66b)" d="M 222.842851 307.584 
L 222.842851 41.472 
" style="fill:none;stroke:#b0b0b0;stroke-linecap:square;stroke-width:0.8;"/>
     </g>
     <g id="line2d_28">
      <g>
       <use style="stroke:#000000;stroke-width:0.6;" x="222.842851" xlink:href="#ma74288ca08" y="307.584"/>
      </g>
     </g>
    </g>
    <g id="xtick_15">
     <g id="line2d_29">
      <path clip-path="url(#pf0aac6b66b)" d="M 236.687178 307.584 
L 236.687178 41.472 
" style="fill:none;stroke:#b0b0b0;stroke-linecap:square;stroke-width:0.8;"/>
     </g>
     <g id="line2d_30">
      <g>
       <use style="stroke:#000000;stroke-width:0.6;" x="236.687178" xlink:href="#ma74288ca08" y="307.584"/>
      </g>
     </g>
    </g>
    <g id="xtick_16">
     <g id="line2d_31">
      <path clip-path="url(#pf0aac6b66b)" d="M 250.531506 307.584 
L 250.531506 41.472 
" style="fill:none;stroke:#b0b0b0;stroke-linecap:square;stroke-width:0.8;"/>
     </g>
     <g id="line2d_32">
      <g>
       <use style="stroke:#000000;stroke-width:0.6;" x="250.531506" xlink:href="#ma74288ca08" y="307.584"/>
      </g>
     </g>
    </g>
    <g id="xtick_17">
     <g id="line2d_33">
      <path clip-path="url(#pf0aac6b66b)" d="M 264.375834 307.584 
L 264.375834 41.472 
" style="fill:none;stroke:#b0b0b0;stroke-linecap:square;stroke-width:0.8;"/>
     </g>
     <g id="line2d_34">
      <g>
       <use style="stroke:#000000;stroke-width:0.6;" x="264.375834" xlink:href="#ma74288ca08" y="307.584"/>
      </g>
     </g>
    </g>
    <g id="xtick_18">
     <g id="line2d_35">
      <path clip-path="url(#pf0aac6b66b)" d="M 292.064489 307.584 
L 292.064489 41.472 
" style="fill:none;stroke:#b0b0b0;stroke-linecap:square;stroke-width:0.8;"/>
     </g>
     <g id="line2d_36">
      <g>
       <use style="stroke:#000000;stroke-width:0.6;" x="292.064489" xlink:href="#ma74288ca08" y="307.584"/>
      </g>
     </g>
    </g>
    <g id="xtick_19">
     <g id="line2d_37">
      <path clip-path="url(#pf0aac6b66b)" d="M 305.908816 307.584 
L 305.908816 41.472 
" style="fill:none;stroke:#b0b0b0;stroke-linecap:square;stroke-width:0.8;"/>
     </g>
     <g id="line2d_38">
      <g>
       <use style="stroke:#000000;stroke-width:0.6;" x="305.908816" xlink:href="#ma74288ca08" y="307.584"/>
      </g>
     </g>
    </g>
    <g id="xtick_20">
     <g id="line2d_39">
      <path clip-path="url(#pf0aac6b66b)" d="M 319.753144 307.584 
L 319.753144 41.472 
" style="fill:none;stroke:#b0b0b0;stroke-linecap:square;stroke-width:0.8;"/>
     </g>
     <g id="line2d_40">
      <g>
       <use style="stroke:#000000;stroke-width:0.6;" x="319.753144" xlink:href="#ma74288ca08" y="307.584"/>
      </g>
     </g>
    </g>
    <g id="xtick_21">
     <g id="line2d_41">
      <path clip-path="url(#pf0aac6b66b)" d="M 333.597471 307.584 
L 333.597471 41.472 
" style="fill:none;stroke:#b0b0b0;stroke-linecap:square;stroke-width:0.8;"/>
     </g>
     <g id="line2d_42">
      <g>
       <use style="stroke:#000000;stroke-width:0.6;" x="333.597471" xlink:href="#ma74288ca08" y="307.584"/>
      </g>
     </g>
    </g>
    <g id="xtick_22">
     <g id="line2d_43">
      <path clip-path="url(#pf0aac6b66b)" d="M 361.286127 307.584 
L 361.286127 41.472 
" style="fill:none;stroke:#b0b0b0;stroke-linecap:square;stroke-width:0.8;"/>
     </g>
     <g id="line2d_44">
      <g>
       <use style="stroke:#000000;stroke-width:0.6;" x="361.286127" xlink:href="#ma74288ca08" y="307.584"/>
      </g>
     </g>
    </g>
    <g id="xtick_23">
     <g id="line2d_45">
      <path clip-path="url(#pf0aac6b66b)" d="M 375.130454 307.584 
L 375.130454 41.472 
" style="fill:none;stroke:#b0b0b0;stroke-linecap:square;stroke-width:0.8;"/>
     </g>
     <g id="line2d_46">
      <g>
       <use style="stroke:#000000;stroke-width:0.6;" x="375.130454" xlink:href="#ma74288ca08" y="307.584"/>
      </g>
     </g>
    </g>
    <g id="xtick_24">
     <g id="line2d_47">
      <path clip-path="url(#pf0aac6b66b)" d="M 388.974782 307.584 
L 388.974782 41.472 
" style="fill:none;stroke:#b0b0b0;stroke-linecap:square;stroke-width:0.8;"/>
     </g>
     <g id="line2d_48">
      <g>
       <use style="stroke:#000000;stroke-width:0.6;" x="388.974782" xlink:href="#ma74288ca08" y="307.584"/>
      </g>
     </g>
    </g>
    <g id="xtick_25">
     <g id="line2d_49">
      <path clip-path="url(#pf0aac6b66b)" d="M 402.819109 307.584 
L 402.819109 41.472 
" style="fill:none;stroke:#b0b0b0;stroke-linecap:square;stroke-width:0.8;"/>
     </g>
     <g id="line2d_50">
      <g>
       <use style="stroke:#000000;stroke-width:0.6;" x="402.819109" xlink:href="#ma74288ca08" y="307.584"/>
      </g>
     </g>
    </g>
    <g id="text_6">
     <!-- frame # [] -->
     <defs>
      <path d="M 37.109375 75.984375 
L 37.109375 68.5 
L 28.515625 68.5 
Q 23.6875 68.5 21.796875 66.546875 
Q 19.921875 64.59375 19.921875 59.515625 
L 19.921875 54.6875 
L 34.71875 54.6875 
L 34.71875 47.703125 
L 19.921875 47.703125 
L 19.921875 0 
L 10.890625 0 
L 10.890625 47.703125 
L 2.296875 47.703125 
L 2.296875 54.6875 
L 10.890625 54.6875 
L 10.890625 58.5 
Q 10.890625 67.625 15.140625 71.796875 
Q 19.390625 75.984375 28.609375 75.984375 
z
" id="DejaVuSans-66"/>
      <path d="M 41.109375 46.296875 
Q 39.59375 47.171875 37.8125 47.578125 
Q 36.03125 48 33.890625 48 
Q 26.265625 48 22.1875 43.046875 
Q 18.109375 38.09375 18.109375 28.8125 
L 18.109375 0 
L 9.078125 0 
L 9.078125 54.6875 
L 18.109375 54.6875 
L 18.109375 46.1875 
Q 20.953125 51.171875 25.484375 53.578125 
Q 30.03125 56 36.53125 56 
Q 37.453125 56 38.578125 55.875 
Q 39.703125 55.765625 41.0625 55.515625 
z
" id="DejaVuSans-72"/>
      <path d="M 34.28125 27.484375 
Q 23.390625 27.484375 19.1875 25 
Q 14.984375 22.515625 14.984375 16.5 
Q 14.984375 11.71875 18.140625 8.90625 
Q 21.296875 6.109375 26.703125 6.109375 
Q 34.1875 6.109375 38.703125 11.40625 
Q 43.21875 16.703125 43.21875 25.484375 
L 43.21875 27.484375 
z
M 52.203125 31.203125 
L 52.203125 0 
L 43.21875 0 
L 43.21875 8.296875 
Q 40.140625 3.328125 35.546875 0.953125 
Q 30.953125 -1.421875 24.3125 -1.421875 
Q 15.921875 -1.421875 10.953125 3.296875 
Q 6 8.015625 6 15.921875 
Q 6 25.140625 12.171875 29.828125 
Q 18.359375 34.515625 30.609375 34.515625 
L 43.21875 34.515625 
L 43.21875 35.40625 
Q 43.21875 41.609375 39.140625 45 
Q 35.0625 48.390625 27.6875 48.390625 
Q 23 48.390625 18.546875 47.265625 
Q 14.109375 46.140625 10.015625 43.890625 
L 10.015625 52.203125 
Q 14.9375 54.109375 19.578125 55.046875 
Q 24.21875 56 28.609375 56 
Q 40.484375 56 46.34375 49.84375 
Q 52.203125 43.703125 52.203125 31.203125 
z
" id="DejaVuSans-61"/>
      <path d="M 52 44.1875 
Q 55.375 50.25 60.0625 53.125 
Q 64.75 56 71.09375 56 
Q 79.640625 56 84.28125 50.015625 
Q 88.921875 44.046875 88.921875 33.015625 
L 88.921875 0 
L 79.890625 0 
L 79.890625 32.71875 
Q 79.890625 40.578125 77.09375 44.375 
Q 74.3125 48.1875 68.609375 48.1875 
Q 61.625 48.1875 57.5625 43.546875 
Q 53.515625 38.921875 53.515625 30.90625 
L 53.515625 0 
L 44.484375 0 
L 44.484375 32.71875 
Q 44.484375 40.625 41.703125 44.40625 
Q 38.921875 48.1875 33.109375 48.1875 
Q 26.21875 48.1875 22.15625 43.53125 
Q 18.109375 38.875 18.109375 30.90625 
L 18.109375 0 
L 9.078125 0 
L 9.078125 54.6875 
L 18.109375 54.6875 
L 18.109375 46.1875 
Q 21.1875 51.21875 25.484375 53.609375 
Q 29.78125 56 35.6875 56 
Q 41.65625 56 45.828125 52.96875 
Q 50 49.953125 52 44.1875 
z
" id="DejaVuSans-6d"/>
      <path d="M 56.203125 29.59375 
L 56.203125 25.203125 
L 14.890625 25.203125 
Q 15.484375 15.921875 20.484375 11.0625 
Q 25.484375 6.203125 34.421875 6.203125 
Q 39.59375 6.203125 44.453125 7.46875 
Q 49.3125 8.734375 54.109375 11.28125 
L 54.109375 2.78125 
Q 49.265625 0.734375 44.1875 -0.34375 
Q 39.109375 -1.421875 33.890625 -1.421875 
Q 20.796875 -1.421875 13.15625 6.1875 
Q 5.515625 13.8125 5.515625 26.8125 
Q 5.515625 40.234375 12.765625 48.109375 
Q 20.015625 56 32.328125 56 
Q 43.359375 56 49.78125 48.890625 
Q 56.203125 41.796875 56.203125 29.59375 
z
M 47.21875 32.234375 
Q 47.125 39.59375 43.09375 43.984375 
Q 39.0625 48.390625 32.421875 48.390625 
Q 24.90625 48.390625 20.390625 44.140625 
Q 15.875 39.890625 15.1875 32.171875 
z
" id="DejaVuSans-65"/>
      <path id="DejaVuSans-20"/>
      <path d="M 51.125 44 
L 36.921875 44 
L 32.8125 27.6875 
L 47.125 27.6875 
z
M 43.796875 71.78125 
L 38.71875 51.515625 
L 52.984375 51.515625 
L 58.109375 71.78125 
L 65.921875 71.78125 
L 60.890625 51.515625 
L 76.125 51.515625 
L 76.125 44 
L 58.984375 44 
L 54.984375 27.6875 
L 70.515625 27.6875 
L 70.515625 20.21875 
L 53.078125 20.21875 
L 48 0 
L 40.1875 0 
L 45.21875 20.21875 
L 30.90625 20.21875 
L 25.875 0 
L 18.015625 0 
L 23.09375 20.21875 
L 7.71875 20.21875 
L 7.71875 27.6875 
L 24.90625 27.6875 
L 29 44 
L 13.28125 44 
L 13.28125 51.515625 
L 30.90625 51.515625 
L 35.890625 71.78125 
z
" id="DejaVuSans-23"/>
      <path d="M 8.59375 75.984375 
L 29.296875 75.984375 
L 29.296875 69 
L 17.578125 69 
L 17.578125 -6.203125 
L 29.296875 -6.203125 
L 29.296875 -13.1875 
L 8.59375 -13.1875 
z
" id="DejaVuSans-5b"/>
      <path d="M 30.421875 75.984375 
L 30.421875 -13.1875 
L 9.71875 -13.1875 
L 9.71875 -6.203125 
L 21.390625 -6.203125 
L 21.390625 69 
L 9.71875 69 
L 9.71875 75.984375 
z
" id="DejaVuSans-5d"/>
     </defs>
     <g transform="translate(210.063906 335.860562)scale(0.1 -0.1)">
      <use xlink:href="#DejaVuSans-66"/>
      <use x="35.205078" xlink:href="#DejaVuSans-72"/>
      <use x="76.318359" xlink:href="#DejaVuSans-61"/>
      <use x="137.597656" xlink:href="#DejaVuSans-6d"/>
      <use x="235.009766" xlink:href="#DejaVuSans-65"/>
      <use x="296.533203" xlink:href="#DejaVuSans-20"/>
      <use x="328.320312" xlink:href="#DejaVuSans-23"/>
      <use x="412.109375" xlink:href="#DejaVuSans-20"/>
      <use x="443.896484" xlink:href="#DejaVuSans-5b"/>
      <use x="482.910156" xlink:href="#DejaVuSans-5d"/>
     </g>
    </g>
   </g>
   <g id="matplotlib.axis_2">
    <g id="ytick_1">
     <g id="line2d_51">
      <path clip-path="url(#pf0aac6b66b)" d="M 57.6 302.59816 
L 414.72 302.59816 
" style="fill:none;stroke:#b0b0b0;stroke-linecap:square;stroke-width:0.8;"/>
     </g>
     <g id="line2d_52">
      <defs>
       <path d="M 0 0 
L -3.5 0 
" id="mb96709acf3" style="stroke:#000000;stroke-width:0.8;"/>
      </defs>
      <g>
       <use style="stroke:#000000;stroke-width:0.8;" x="57.6" xlink:href="#mb96709acf3" y="302.59816"/>
      </g>
     </g>
     <g id="text_7">
      <!-- −0.15 -->
      <defs>
       <path d="M 10.59375 35.5 
L 73.1875 35.5 
L 73.1875 27.203125 
L 10.59375 27.203125 
z
" id="DejaVuSans-2212"/>
       <path d="M 10.6875 12.40625 
L 21 12.40625 
L 21 0 
L 10.6875 0 
z
" id="DejaVuSans-2e"/>
       <path d="M 10.796875 72.90625 
L 49.515625 72.90625 
L 49.515625 64.59375 
L 19.828125 64.59375 
L 19.828125 46.734375 
Q 21.96875 47.46875 24.109375 47.828125 
Q 26.265625 48.1875 28.421875 48.1875 
Q 40.625 48.1875 47.75 41.5 
Q 54.890625 34.8125 54.890625 23.390625 
Q 54.890625 11.625 47.5625 5.09375 
Q 40.234375 -1.421875 26.90625 -1.421875 
Q 22.3125 -1.421875 17.546875 -0.640625 
Q 12.796875 0.140625 7.71875 1.703125 
L 7.71875 11.625 
Q 12.109375 9.234375 16.796875 8.0625 
Q 21.484375 6.890625 26.703125 6.890625 
Q 35.15625 6.890625 40.078125 11.328125 
Q 45.015625 15.765625 45.015625 23.390625 
Q 45.015625 31 40.078125 35.4375 
Q 35.15625 39.890625 26.703125 39.890625 
Q 22.75 39.890625 18.8125 39.015625 
Q 14.890625 38.140625 10.796875 36.28125 
z
" id="DejaVuSans-35"/>
      </defs>
      <g transform="translate(19.954687 306.397378)scale(0.1 -0.1)">
       <use xlink:href="#DejaVuSans-2212"/>
       <use x="83.789062" xlink:href="#DejaVuSans-30"/>
       <use x="147.412109" xlink:href="#DejaVuSans-2e"/>
       <use x="179.199219" xlink:href="#DejaVuSans-31"/>
       <use x="242.822266" xlink:href="#DejaVuSans-35"/>
      </g>
     </g>
    </g>
    <g id="ytick_2">
     <g id="line2d_53">
      <path clip-path="url(#pf0aac6b66b)" d="M 57.6 262.315542 
L 414.72 262.315542 
" style="fill:none;stroke:#b0b0b0;stroke-linecap:square;stroke-width:0.8;"/>
     </g>
     <g id="line2d_54">
      <g>
       <use style="stroke:#000000;stroke-width:0.8;" x="57.6" xlink:href="#mb96709acf3" y="262.315542"/>
      </g>
     </g>
     <g id="text_8">
      <!-- −0.10 -->
      <g transform="translate(19.954687 266.114761)scale(0.1 -0.1)">
       <use xlink:href="#DejaVuSans-2212"/>
       <use x="83.789062" xlink:href="#DejaVuSans-30"/>
       <use x="147.412109" xlink:href="#DejaVuSans-2e"/>
       <use x="179.199219" xlink:href="#DejaVuSans-31"/>
       <use x="242.822266" xlink:href="#DejaVuSans-30"/>
      </g>
     </g>
    </g>
    <g id="ytick_3">
     <g id="line2d_55">
      <path clip-path="url(#pf0aac6b66b)" d="M 57.6 222.032925 
L 414.72 222.032925 
" style="fill:none;stroke:#b0b0b0;stroke-linecap:square;stroke-width:0.8;"/>
     </g>
     <g id="line2d_56">
      <g>
       <use style="stroke:#000000;stroke-width:0.8;" x="57.6" xlink:href="#mb96709acf3" y="222.032925"/>
      </g>
     </g>
     <g id="text_9">
      <!-- −0.05 -->
      <g transform="translate(19.954687 225.832144)scale(0.1 -0.1)">
       <use xlink:href="#DejaVuSans-2212"/>
       <use x="83.789062" xlink:href="#DejaVuSans-30"/>
       <use x="147.412109" xlink:href="#DejaVuSans-2e"/>
       <use x="179.199219" xlink:href="#DejaVuSans-30"/>
       <use x="242.822266" xlink:href="#DejaVuSans-35"/>
      </g>
     </g>
    </g>
    <g id="ytick_4">
     <g id="line2d_57">
      <path clip-path="url(#pf0aac6b66b)" d="M 57.6 181.750308 
L 414.72 181.750308 
" style="fill:none;stroke:#b0b0b0;stroke-linecap:square;stroke-width:0.8;"/>
     </g>
     <g id="line2d_58">
      <g>
       <use style="stroke:#000000;stroke-width:0.8;" x="57.6" xlink:href="#mb96709acf3" y="181.750308"/>
      </g>
     </g>
     <g id="text_10">
      <!-- 0.00 -->
      <g transform="translate(28.334375 185.549527)scale(0.1 -0.1)">
       <use xlink:href="#DejaVuSans-30"/>
       <use x="63.623047" xlink:href="#DejaVuSans-2e"/>
       <use x="95.410156" xlink:href="#DejaVuSans-30"/>
       <use x="159.033203" xlink:href="#DejaVuSans-30"/>
      </g>
     </g>
    </g>
    <g id="ytick_5">
     <g id="line2d_59">
      <path clip-path="url(#pf0aac6b66b)" d="M 57.6 141.467691 
L 414.72 141.467691 
" style="fill:none;stroke:#b0b0b0;stroke-linecap:square;stroke-width:0.8;"/>
     </g>
     <g id="line2d_60">
      <g>
       <use style="stroke:#000000;stroke-width:0.8;" x="57.6" xlink:href="#mb96709acf3" y="141.467691"/>
      </g>
     </g>
     <g id="text_11">
      <!-- 0.05 -->
      <g transform="translate(28.334375 145.26691)scale(0.1 -0.1)">
       <use xlink:href="#DejaVuSans-30"/>
       <use x="63.623047" xlink:href="#DejaVuSans-2e"/>
       <use x="95.410156" xlink:href="#DejaVuSans-30"/>
       <use x="159.033203" xlink:href="#DejaVuSans-35"/>
      </g>
     </g>
    </g>
    <g id="ytick_6">
     <g id="line2d_61">
      <path clip-path="url(#pf0aac6b66b)" d="M 57.6 101.185074 
L 414.72 101.185074 
" style="fill:none;stroke:#b0b0b0;stroke-linecap:square;stroke-width:0.8;"/>
     </g>
     <g id="line2d_62">
      <g>
       <use style="stroke:#000000;stroke-width:0.8;" x="57.6" xlink:href="#mb96709acf3" y="101.185074"/>
      </g>
     </g>
     <g id="text_12">
      <!-- 0.10 -->
      <g transform="translate(28.334375 104.984292)scale(0.1 -0.1)">
       <use xlink:href="#DejaVuSans-30"/>
       <use x="63.623047" xlink:href="#DejaVuSans-2e"/>
       <use x="95.410156" xlink:href="#DejaVuSans-31"/>
       <use x="159.033203" xlink:href="#DejaVuSans-30"/>
      </g>
     </g>
    </g>
    <g id="ytick_7">
     <g id="line2d_63">
      <path clip-path="url(#pf0aac6b66b)" d="M 57.6 60.902456 
L 414.72 60.902456 
" style="fill:none;stroke:#b0b0b0;stroke-linecap:square;stroke-width:0.8;"/>
     </g>
     <g id="line2d_64">
      <g>
       <use style="stroke:#000000;stroke-width:0.8;" x="57.6" xlink:href="#mb96709acf3" y="60.902456"/>
      </g>
     </g>
     <g id="text_13">
      <!-- 0.15 -->
      <g transform="translate(28.334375 64.701675)scale(0.1 -0.1)">
       <use xlink:href="#DejaVuSans-30"/>
       <use x="63.623047" xlink:href="#DejaVuSans-2e"/>
       <use x="95.410156" xlink:href="#DejaVuSans-31"/>
       <use x="159.033203" xlink:href="#DejaVuSans-35"/>
      </g>
     </g>
    </g>
    <g id="ytick_8">
     <g id="line2d_65">
      <path clip-path="url(#pf0aac6b66b)" d="M 57.6 294.541636 
L 414.72 294.541636 
" style="fill:none;stroke:#b0b0b0;stroke-linecap:square;stroke-width:0.8;"/>
     </g>
     <g id="line2d_66">
      <defs>
       <path d="M 0 0 
L -2 0 
" id="me7ccf8478a" style="stroke:#000000;stroke-width:0.6;"/>
      </defs>
      <g>
       <use style="stroke:#000000;stroke-width:0.6;" x="57.6" xlink:href="#me7ccf8478a" y="294.541636"/>
      </g>
     </g>
    </g>
    <g id="ytick_9">
     <g id="line2d_67">
      <path clip-path="url(#pf0aac6b66b)" d="M 57.6 286.485113 
L 414.72 286.485113 
" style="fill:none;stroke:#b0b0b0;stroke-linecap:square;stroke-width:0.8;"/>
     </g>
     <g id="line2d_68">
      <g>
       <use style="stroke:#000000;stroke-width:0.6;" x="57.6" xlink:href="#me7ccf8478a" y="286.485113"/>
      </g>
     </g>
    </g>
    <g id="ytick_10">
     <g id="line2d_69">
      <path clip-path="url(#pf0aac6b66b)" d="M 57.6 278.428589 
L 414.72 278.428589 
" style="fill:none;stroke:#b0b0b0;stroke-linecap:square;stroke-width:0.8;"/>
     </g>
     <g id="line2d_70">
      <g>
       <use style="stroke:#000000;stroke-width:0.6;" x="57.6" xlink:href="#me7ccf8478a" y="278.428589"/>
      </g>
     </g>
    </g>
    <g id="ytick_11">
     <g id="line2d_71">
      <path clip-path="url(#pf0aac6b66b)" d="M 57.6 270.372066 
L 414.72 270.372066 
" style="fill:none;stroke:#b0b0b0;stroke-linecap:square;stroke-width:0.8;"/>
     </g>
     <g id="line2d_72">
      <g>
       <use style="stroke:#000000;stroke-width:0.6;" x="57.6" xlink:href="#me7ccf8478a" y="270.372066"/>
      </g>
     </g>
    </g>
    <g id="ytick_12">
     <g id="line2d_73">
      <path clip-path="url(#pf0aac6b66b)" d="M 57.6 262.315542 
L 414.72 262.315542 
" style="fill:none;stroke:#b0b0b0;stroke-linecap:square;stroke-width:0.8;"/>
     </g>
     <g id="line2d_74">
      <g>
       <use style="stroke:#000000;stroke-width:0.6;" x="57.6" xlink:href="#me7ccf8478a" y="262.315542"/>
      </g>
     </g>
    </g>
    <g id="ytick_13">
     <g id="line2d_75">
      <path clip-path="url(#pf0aac6b66b)" d="M 57.6 254.259019 
L 414.72 254.259019 
" style="fill:none;stroke:#b0b0b0;stroke-linecap:square;stroke-width:0.8;"/>
     </g>
     <g id="line2d_76">
      <g>
       <use style="stroke:#000000;stroke-width:0.6;" x="57.6" xlink:href="#me7ccf8478a" y="254.259019"/>
      </g>
     </g>
    </g>
    <g id="ytick_14">
     <g id="line2d_77">
      <path clip-path="url(#pf0aac6b66b)" d="M 57.6 246.202496 
L 414.72 246.202496 
" style="fill:none;stroke:#b0b0b0;stroke-linecap:square;stroke-width:0.8;"/>
     </g>
     <g id="line2d_78">
      <g>
       <use style="stroke:#000000;stroke-width:0.6;" x="57.6" xlink:href="#me7ccf8478a" y="246.202496"/>
      </g>
     </g>
    </g>
    <g id="ytick_15">
     <g id="line2d_79">
      <path clip-path="url(#pf0aac6b66b)" d="M 57.6 238.145972 
L 414.72 238.145972 
" style="fill:none;stroke:#b0b0b0;stroke-linecap:square;stroke-width:0.8;"/>
     </g>
     <g id="line2d_80">
      <g>
       <use style="stroke:#000000;stroke-width:0.6;" x="57.6" xlink:href="#me7ccf8478a" y="238.145972"/>
      </g>
     </g>
    </g>
    <g id="ytick_16">
     <g id="line2d_81">
      <path clip-path="url(#pf0aac6b66b)" d="M 57.6 230.089449 
L 414.72 230.089449 
" style="fill:none;stroke:#b0b0b0;stroke-linecap:square;stroke-width:0.8;"/>
     </g>
     <g id="line2d_82">
      <g>
       <use style="stroke:#000000;stroke-width:0.6;" x="57.6" xlink:href="#me7ccf8478a" y="230.089449"/>
      </g>
     </g>
    </g>
    <g id="ytick_17">
     <g id="line2d_83">
      <path clip-path="url(#pf0aac6b66b)" d="M 57.6 222.032925 
L 414.72 222.032925 
" style="fill:none;stroke:#b0b0b0;stroke-linecap:square;stroke-width:0.8;"/>
     </g>
     <g id="line2d_84">
      <g>
       <use style="stroke:#000000;stroke-width:0.6;" x="57.6" xlink:href="#me7ccf8478a" y="222.032925"/>
      </g>
     </g>
    </g>
    <g id="ytick_18">
     <g id="line2d_85">
      <path clip-path="url(#pf0aac6b66b)" d="M 57.6 213.976402 
L 414.72 213.976402 
" style="fill:none;stroke:#b0b0b0;stroke-linecap:square;stroke-width:0.8;"/>
     </g>
     <g id="line2d_86">
      <g>
       <use style="stroke:#000000;stroke-width:0.6;" x="57.6" xlink:href="#me7ccf8478a" y="213.976402"/>
      </g>
     </g>
    </g>
    <g id="ytick_19">
     <g id="line2d_87">
      <path clip-path="url(#pf0aac6b66b)" d="M 57.6 205.919878 
L 414.72 205.919878 
" style="fill:none;stroke:#b0b0b0;stroke-linecap:square;stroke-width:0.8;"/>
     </g>
     <g id="line2d_88">
      <g>
       <use style="stroke:#000000;stroke-width:0.6;" x="57.6" xlink:href="#me7ccf8478a" y="205.919878"/>
      </g>
     </g>
    </g>
    <g id="ytick_20">
     <g id="line2d_89">
      <path clip-path="url(#pf0aac6b66b)" d="M 57.6 197.863355 
L 414.72 197.863355 
" style="fill:none;stroke:#b0b0b0;stroke-linecap:square;stroke-width:0.8;"/>
     </g>
     <g id="line2d_90">
      <g>
       <use style="stroke:#000000;stroke-width:0.6;" x="57.6" xlink:href="#me7ccf8478a" y="197.863355"/>
      </g>
     </g>
    </g>
    <g id="ytick_21">
     <g id="line2d_91">
      <path clip-path="url(#pf0aac6b66b)" d="M 57.6 189.806831 
L 414.72 189.806831 
" style="fill:none;stroke:#b0b0b0;stroke-linecap:square;stroke-width:0.8;"/>
     </g>
     <g id="line2d_92">
      <g>
       <use style="stroke:#000000;stroke-width:0.6;" x="57.6" xlink:href="#me7ccf8478a" y="189.806831"/>
      </g>
     </g>
    </g>
    <g id="ytick_22">
     <g id="line2d_93">
      <path clip-path="url(#pf0aac6b66b)" d="M 57.6 181.750308 
L 414.72 181.750308 
" style="fill:none;stroke:#b0b0b0;stroke-linecap:square;stroke-width:0.8;"/>
     </g>
     <g id="line2d_94">
      <g>
       <use style="stroke:#000000;stroke-width:0.6;" x="57.6" xlink:href="#me7ccf8478a" y="181.750308"/>
      </g>
     </g>
    </g>
    <g id="ytick_23">
     <g id="line2d_95">
      <path clip-path="url(#pf0aac6b66b)" d="M 57.6 173.693785 
L 414.72 173.693785 
" style="fill:none;stroke:#b0b0b0;stroke-linecap:square;stroke-width:0.8;"/>
     </g>
     <g id="line2d_96">
      <g>
       <use style="stroke:#000000;stroke-width:0.6;" x="57.6" xlink:href="#me7ccf8478a" y="173.693785"/>
      </g>
     </g>
    </g>
    <g id="ytick_24">
     <g id="line2d_97">
      <path clip-path="url(#pf0aac6b66b)" d="M 57.6 165.637261 
L 414.72 165.637261 
" style="fill:none;stroke:#b0b0b0;stroke-linecap:square;stroke-width:0.8;"/>
     </g>
     <g id="line2d_98">
      <g>
       <use style="stroke:#000000;stroke-width:0.6;" x="57.6" xlink:href="#me7ccf8478a" y="165.637261"/>
      </g>
     </g>
    </g>
    <g id="ytick_25">
     <g id="line2d_99">
      <path clip-path="url(#pf0aac6b66b)" d="M 57.6 157.580738 
L 414.72 157.580738 
" style="fill:none;stroke:#b0b0b0;stroke-linecap:square;stroke-width:0.8;"/>
     </g>
     <g id="line2d_100">
      <g>
       <use style="stroke:#000000;stroke-width:0.6;" x="57.6" xlink:href="#me7ccf8478a" y="157.580738"/>
      </g>
     </g>
    </g>
    <g id="ytick_26">
     <g id="line2d_101">
      <path clip-path="url(#pf0aac6b66b)" d="M 57.6 149.524214 
L 414.72 149.524214 
" style="fill:none;stroke:#b0b0b0;stroke-linecap:square;stroke-width:0.8;"/>
     </g>
     <g id="line2d_102">
      <g>
       <use style="stroke:#000000;stroke-width:0.6;" x="57.6" xlink:href="#me7ccf8478a" y="149.524214"/>
      </g>
     </g>
    </g>
    <g id="ytick_27">
     <g id="line2d_103">
      <path clip-path="url(#pf0aac6b66b)" d="M 57.6 141.467691 
L 414.72 141.467691 
" style="fill:none;stroke:#b0b0b0;stroke-linecap:square;stroke-width:0.8;"/>
     </g>
     <g id="line2d_104">
      <g>
       <use style="stroke:#000000;stroke-width:0.6;" x="57.6" xlink:href="#me7ccf8478a" y="141.467691"/>
      </g>
     </g>
    </g>
    <g id="ytick_28">
     <g id="line2d_105">
      <path clip-path="url(#pf0aac6b66b)" d="M 57.6 133.411167 
L 414.72 133.411167 
" style="fill:none;stroke:#b0b0b0;stroke-linecap:square;stroke-width:0.8;"/>
     </g>
     <g id="line2d_106">
      <g>
       <use style="stroke:#000000;stroke-width:0.6;" x="57.6" xlink:href="#me7ccf8478a" y="133.411167"/>
      </g>
     </g>
    </g>
    <g id="ytick_29">
     <g id="line2d_107">
      <path clip-path="url(#pf0aac6b66b)" d="M 57.6 125.354644 
L 414.72 125.354644 
" style="fill:none;stroke:#b0b0b0;stroke-linecap:square;stroke-width:0.8;"/>
     </g>
     <g id="line2d_108">
      <g>
       <use style="stroke:#000000;stroke-width:0.6;" x="57.6" xlink:href="#me7ccf8478a" y="125.354644"/>
      </g>
     </g>
    </g>
    <g id="ytick_30">
     <g id="line2d_109">
      <path clip-path="url(#pf0aac6b66b)" d="M 57.6 117.298121 
L 414.72 117.298121 
" style="fill:none;stroke:#b0b0b0;stroke-linecap:square;stroke-width:0.8;"/>
     </g>
     <g id="line2d_110">
      <g>
       <use style="stroke:#000000;stroke-width:0.6;" x="57.6" xlink:href="#me7ccf8478a" y="117.298121"/>
      </g>
     </g>
    </g>
    <g id="ytick_31">
     <g id="line2d_111">
      <path clip-path="url(#pf0aac6b66b)" d="M 57.6 109.241597 
L 414.72 109.241597 
" style="fill:none;stroke:#b0b0b0;stroke-linecap:square;stroke-width:0.8;"/>
     </g>
     <g id="line2d_112">
      <g>
       <use style="stroke:#000000;stroke-width:0.6;" x="57.6" xlink:href="#me7ccf8478a" y="109.241597"/>
      </g>
     </g>
    </g>
    <g id="ytick_32">
     <g id="line2d_113">
      <path clip-path="url(#pf0aac6b66b)" d="M 57.6 101.185074 
L 414.72 101.185074 
" style="fill:none;stroke:#b0b0b0;stroke-linecap:square;stroke-width:0.8;"/>
     </g>
     <g id="line2d_114">
      <g>
       <use style="stroke:#000000;stroke-width:0.6;" x="57.6" xlink:href="#me7ccf8478a" y="101.185074"/>
      </g>
     </g>
    </g>
    <g id="ytick_33">
     <g id="line2d_115">
      <path clip-path="url(#pf0aac6b66b)" d="M 57.6 93.12855 
L 414.72 93.12855 
" style="fill:none;stroke:#b0b0b0;stroke-linecap:square;stroke-width:0.8;"/>
     </g>
     <g id="line2d_116">
      <g>
       <use style="stroke:#000000;stroke-width:0.6;" x="57.6" xlink:href="#me7ccf8478a" y="93.12855"/>
      </g>
     </g>
    </g>
    <g id="ytick_34">
     <g id="line2d_117">
      <path clip-path="url(#pf0aac6b66b)" d="M 57.6 85.072027 
L 414.72 85.072027 
" style="fill:none;stroke:#b0b0b0;stroke-linecap:square;stroke-width:0.8;"/>
     </g>
     <g id="line2d_118">
      <g>
       <use style="stroke:#000000;stroke-width:0.6;" x="57.6" xlink:href="#me7ccf8478a" y="85.072027"/>
      </g>
     </g>
    </g>
    <g id="ytick_35">
     <g id="line2d_119">
      <path clip-path="url(#pf0aac6b66b)" d="M 57.6 77.015503 
L 414.72 77.015503 
" style="fill:none;stroke:#b0b0b0;stroke-linecap:square;stroke-width:0.8;"/>
     </g>
     <g id="line2d_120">
      <g>
       <use style="stroke:#000000;stroke-width:0.6;" x="57.6" xlink:href="#me7ccf8478a" y="77.015503"/>
      </g>
     </g>
    </g>
    <g id="ytick_36">
     <g id="line2d_121">
      <path clip-path="url(#pf0aac6b66b)" d="M 57.6 68.95898 
L 414.72 68.95898 
" style="fill:none;stroke:#b0b0b0;stroke-linecap:square;stroke-width:0.8;"/>
     </g>
     <g id="line2d_122">
      <g>
       <use style="stroke:#000000;stroke-width:0.6;" x="57.6" xlink:href="#me7ccf8478a" y="68.95898"/>
      </g>
     </g>
    </g>
    <g id="ytick_37">
     <g id="line2d_123">
      <path clip-path="url(#pf0aac6b66b)" d="M 57.6 60.902456 
L 414.72 60.902456 
" style="fill:none;stroke:#b0b0b0;stroke-linecap:square;stroke-width:0.8;"/>
     </g>
     <g id="line2d_124">
      <g>
       <use style="stroke:#000000;stroke-width:0.6;" x="57.6" xlink:href="#me7ccf8478a" y="60.902456"/>
      </g>
     </g>
    </g>
    <g id="ytick_38">
     <g id="line2d_125">
      <path clip-path="url(#pf0aac6b66b)" d="M 57.6 52.845933 
L 414.72 52.845933 
" style="fill:none;stroke:#b0b0b0;stroke-linecap:square;stroke-width:0.8;"/>
     </g>
     <g id="line2d_126">
      <g>
       <use style="stroke:#000000;stroke-width:0.6;" x="57.6" xlink:href="#me7ccf8478a" y="52.845933"/>
      </g>
     </g>
    </g>
    <g id="ytick_39">
     <g id="line2d_127">
      <path clip-path="url(#pf0aac6b66b)" d="M 57.6 44.78941 
L 414.72 44.78941 
" style="fill:none;stroke:#b0b0b0;stroke-linecap:square;stroke-width:0.8;"/>
     </g>
     <g id="line2d_128">
      <g>
       <use style="stroke:#000000;stroke-width:0.6;" x="57.6" xlink:href="#me7ccf8478a" y="44.78941"/>
      </g>
     </g>
    </g>
    <g id="text_14">
     <!-- trans y -->
     <defs>
      <path d="M 18.3125 70.21875 
L 18.3125 54.6875 
L 36.8125 54.6875 
L 36.8125 47.703125 
L 18.3125 47.703125 
L 18.3125 18.015625 
Q 18.3125 11.328125 20.140625 9.421875 
Q 21.96875 7.515625 27.59375 7.515625 
L 36.8125 7.515625 
L 36.8125 0 
L 27.59375 0 
Q 17.1875 0 13.234375 3.875 
Q 9.28125 7.765625 9.28125 18.015625 
L 9.28125 47.703125 
L 2.6875 47.703125 
L 2.6875 54.6875 
L 9.28125 54.6875 
L 9.28125 70.21875 
z
" id="DejaVuSans-74"/>
      <path d="M 54.890625 33.015625 
L 54.890625 0 
L 45.90625 0 
L 45.90625 32.71875 
Q 45.90625 40.484375 42.875 44.328125 
Q 39.84375 48.1875 33.796875 48.1875 
Q 26.515625 48.1875 22.3125 43.546875 
Q 18.109375 38.921875 18.109375 30.90625 
L 18.109375 0 
L 9.078125 0 
L 9.078125 54.6875 
L 18.109375 54.6875 
L 18.109375 46.1875 
Q 21.34375 51.125 25.703125 53.5625 
Q 30.078125 56 35.796875 56 
Q 45.21875 56 50.046875 50.171875 
Q 54.890625 44.34375 54.890625 33.015625 
z
" id="DejaVuSans-6e"/>
      <path d="M 44.28125 53.078125 
L 44.28125 44.578125 
Q 40.484375 46.53125 36.375 47.5 
Q 32.28125 48.484375 27.875 48.484375 
Q 21.1875 48.484375 17.84375 46.4375 
Q 14.5 44.390625 14.5 40.28125 
Q 14.5 37.15625 16.890625 35.375 
Q 19.28125 33.59375 26.515625 31.984375 
L 29.59375 31.296875 
Q 39.15625 29.25 43.1875 25.515625 
Q 47.21875 21.78125 47.21875 15.09375 
Q 47.21875 7.46875 41.1875 3.015625 
Q 35.15625 -1.421875 24.609375 -1.421875 
Q 20.21875 -1.421875 15.453125 -0.5625 
Q 10.6875 0.296875 5.421875 2 
L 5.421875 11.28125 
Q 10.40625 8.6875 15.234375 7.390625 
Q 20.0625 6.109375 24.8125 6.109375 
Q 31.15625 6.109375 34.5625 8.28125 
Q 37.984375 10.453125 37.984375 14.40625 
Q 37.984375 18.0625 35.515625 20.015625 
Q 33.0625 21.96875 24.703125 23.78125 
L 21.578125 24.515625 
Q 13.234375 26.265625 9.515625 29.90625 
Q 5.8125 33.546875 5.8125 39.890625 
Q 5.8125 47.609375 11.28125 51.796875 
Q 16.75 56 26.8125 56 
Q 31.78125 56 36.171875 55.265625 
Q 40.578125 54.546875 44.28125 53.078125 
z
" id="DejaVuSans-73"/>
      <path d="M 32.171875 -5.078125 
Q 28.375 -14.84375 24.75 -17.8125 
Q 21.140625 -20.796875 15.09375 -20.796875 
L 7.90625 -20.796875 
L 7.90625 -13.28125 
L 13.1875 -13.28125 
Q 16.890625 -13.28125 18.9375 -11.515625 
Q 21 -9.765625 23.484375 -3.21875 
L 25.09375 0.875 
L 2.984375 54.6875 
L 12.5 54.6875 
L 29.59375 11.921875 
L 46.6875 54.6875 
L 56.203125 54.6875 
z
" id="DejaVuSans-79"/>
     </defs>
     <g transform="translate(13.875 191.929563)rotate(-90)scale(0.1 -0.1)">
      <use xlink:href="#DejaVuSans-74"/>
      <use x="39.208984" xlink:href="#DejaVuSans-72"/>
      <use x="80.322266" xlink:href="#DejaVuSans-61"/>
      <use x="141.601562" xlink:href="#DejaVuSans-6e"/>
      <use x="204.980469" xlink:href="#DejaVuSans-73"/>
      <use x="257.080078" xlink:href="#DejaVuSans-20"/>
      <use x="288.867188" xlink:href="#DejaVuSans-79"/>
     </g>
    </g>
   </g>
   <g id="line2d_129">
    <path clip-path="url(#pf0aac6b66b)" d="M 73.832727 124.438191 
L 74.524971 103.45031 
L 75.217208 225.220375 
L 75.90628 162.149256 
L 76.598517 218.882156 
L 77.290754 176.965021 
L 77.982991 213.68871 
L 78.6751 191.669378 
L 79.367337 206.171969 
L 80.059581 179.240624 
L 80.751818 132.379007 
L 81.446481 217.09344 
L 82.138725 238.483388 
L 82.830962 106.492303 
L 83.523199 149.989044 
L 84.216653 202.870672 
L 84.908883 199.80586 
L 85.601147 160.303092 
L 86.293364 157.119422 
L 86.985656 137.225838 
L 87.675135 136.323387 
L 88.367373 202.921367 
L 89.05961 181.837149 
L 89.751847 178.269152 
L 90.441987 222.139203 
L 91.13423 131.65217 
L 91.826467 116.026994 
L 92.518705 108.008918 
L 93.902011 172.215033 
L 94.594254 188.205885 
L 95.286491 194.280792 
L 96.671581 250.21051 
L 97.363819 249.998895 
L 98.056056 205.118697 
L 98.749362 103.900889 
L 99.44205 191.84965 
L 100.133837 162.61217 
L 100.826074 174.098921 
M 102.901478 139.221681 
L 103.593715 95.062331 
M 104.977035 233.118439 
L 105.669272 184.053397 
L 106.361509 174.017837 
L 107.05535 203.145118 
L 107.747587 111.219594 
L 108.439825 253.755506 
L 109.132062 249.383636 
M 111.901674 219.164211 
L 112.593675 202.082462 
L 113.285912 124.332498 
L 113.978149 114.389102 
L 114.670387 110.518565 
M 116.054209 95.521409 
L 116.746446 137.848023 
L 117.438683 133.357102 
L 118.130907 243.766843 
L 118.823151 205.894618 
L 119.515395 161.556829 
L 120.207625 167.225006 
L 120.899869 270.970081 
L 121.594579 278.74703 
L 122.286816 256.403735 
L 122.97906 185.46623 
M 125.748383 125.27119 
L 126.44062 190.660716 
L 127.129632 70.238543 
L 128.514107 206.302968 
L 129.206344 284.140312 
L 129.89967 161.611624 
L 130.591908 238.262194 
L 131.284145 271.784073 
L 131.976389 273.988923 
L 132.670814 255.565457 
L 133.363058 273.375233 
L 134.055295 149.816584 
L 134.747532 149.418284 
L 135.437802 199.200782 
L 136.130039 111.516894 
L 136.822277 133.258926 
L 137.514514 127.160078 
L 138.204709 94.532465 
L 138.896947 130.777843 
M 142.360573 159.551702 
L 143.05281 225.837084 
L 143.744756 270.019682 
L 144.436993 183.21149 
M 149.973692 191.242448 
L 150.665929 261.369759 
M 152.05041 157.801844 
L 152.743731 263.905997 
L 153.435969 138.986784 
L 154.128206 213.978165 
L 154.820443 185.296853 
L 155.510224 199.737111 
M 158.279343 105.215865 
L 158.97158 246.004182 
M 161.743508 276.222245 
L 162.435745 274.853444 
L 163.127989 244.119384 
L 163.818557 247.60591 
L 164.510795 199.65661 
M 166.586145 140.398205 
L 167.278382 129.990286 
L 167.970626 210.379294 
M 170.048694 230.443676 
L 171.433168 263.734735 
L 172.125831 248.968225 
L 172.818048 192.738956 
L 173.510286 200.450431 
L 174.202529 215.784455 
L 174.892987 125.214259 
L 175.585225 221.004663 
L 176.277462 97.556288 
L 176.969699 105.365487 
L 177.662487 155.207679 
M 179.046962 178.924283 
L 180.434067 262.118344 
L 181.126297 229.562573 
L 181.818534 263.460075 
L 182.510778 214.46695 
L 183.200632 220.542059 
L 183.892876 185.288272 
L 184.585113 185.088941 
M 185.969588 189.433223 
L 186.661455 144.242367 
M 191.509762 194.217853 
L 192.199235 113.891284 
L 192.891481 104.835797 
L 193.583718 146.574399 
L 194.275953 103.807327 
M 199.123391 154.67391 
L 199.815628 261.188013 
L 200.508823 206.888807 
L 201.20106 166.614018 
L 201.893304 191.819928 
L 202.585541 118.452388 
L 203.275538 165.132804 
L 203.967776 227.65294 
M 205.35225 147.335187 
L 206.044672 166.24626 
L 206.736909 190.2923 
L 207.429146 145.097725 
L 208.121383 276.677122 
L 208.815873 212.965479 
L 209.50811 237.043384 
M 213.66058 220.786048 
L 214.351919 271.638882 
L 215.044156 136.66772 
L 215.736393 187.169355 
L 216.428631 223.337247 
L 217.120874 251.335121 
L 217.814995 211.821379 
L 218.507232 283.676875 
L 219.199469 153.081112 
L 219.891706 224.933342 
L 220.58497 154.973292 
L 221.969824 222.617179 
L 222.661681 100.328548 
L 223.354881 158.976072 
M 224.739362 176.653844 
L 225.431599 231.618285 
L 226.123329 183.838085 
L 226.815566 214.19114 
L 227.507804 237.882902 
L 228.200041 204.703831 
L 228.892598 240.835868 
L 229.584835 283.028666 
L 230.277072 295.488 
M 231.661953 212.474205 
L 232.35419 288.094111 
L 233.046427 267.976876 
L 233.738664 179.222955 
L 234.434318 160.80638 
L 235.818799 176.683279 
L 236.511036 143.517466 
L 237.897963 267.355948 
L 238.5902 115.703046 
L 239.282437 77.077242 
M 240.658539 107.511066 
L 241.350776 215.561393 
L 242.043013 157.761907 
L 243.427569 139.318546 
M 245.504977 193.730629 
L 246.197214 186.0463 
L 246.889449 268.910976 
L 247.581686 250.138637 
L 248.274878 245.627545 
L 248.967115 260.835274 
L 250.351589 191.347581 
M 253.121246 96.220224 
L 253.81349 144.285676 
L 254.500718 73.627321 
L 255.192947 139.872611 
L 255.885192 129.958387 
L 256.577429 86.478829 
L 257.269926 133.423293 
L 257.962163 208.222312 
L 258.6544 212.626922 
L 259.346637 155.008689 
L 260.040695 119.704021 
L 260.732932 214.026764 
L 261.425169 218.639758 
L 262.117406 231.679632 
L 262.80931 268.927096 
M 264.193784 113.624977 
L 264.886021 254.690562 
M 272.500759 179.198876 
L 273.192996 197.028307 
L 273.886626 155.536642 
L 274.578864 177.90209 
L 275.271101 175.501078 
M 291.190092 220.125714 
L 291.882329 206.933862 
M 308.496983 169.454598 
L 309.18922 212.32018 
M 325.112821 219.455212 
L 325.805058 179.097588 
L 326.497302 171.804572 
M 329.961455 200.62949 
L 330.653469 129.951821 
L 331.346218 221.364774 
L 332.037944 196.129956 
L 332.730181 261.975146 
L 333.422638 197.725315 
L 334.114875 170.213273 
M 338.959426 210.718174 
L 339.651661 145.343434 
L 340.343899 132.684121 
L 341.036136 183.130419 
L 341.726718 183.60692 
M 343.111192 187.718834 
L 343.803429 214.512491 
M 358.33989 180.778082 
L 359.029714 143.100545 
M 363.183748 203.887919 
L 363.875985 228.831587 
L 364.568397 204.613484 
L 365.260626 197.367266 
M 368.030296 160.640964 
L 368.722533 197.522661 
L 369.41477 198.180668 
L 370.107983 214.826946 
L 370.80022 180.442017 
M 383.260573 176.790943 
L 383.952811 189.111746 
L 384.644637 224.559968 
L 385.336874 174.78255 
M 387.412183 170.866973 
L 388.104412 184.444876 
L 388.796657 151.801592 
L 389.488894 170.683929 
L 390.179932 158.903256 
L 390.872169 170.493213 
M 395.025447 173.228434 
" style="fill:none;stroke:#ff0000;stroke-linecap:square;"/>
   </g>
   <g id="line2d_130">
    <path clip-path="url(#pf0aac6b66b)" d="M 73.832727 163.333618 
L 74.524971 160.733525 
L 75.217208 162.544685 
L 75.90628 174.98106 
L 76.598517 174.491816 
L 77.290754 165.125447 
L 77.982991 160.821346 
L 78.6751 160.212789 
L 79.367337 167.667498 
L 80.059581 182.403975 
L 80.751818 173.894535 
L 81.446481 161.026627 
L 82.138725 154.931233 
L 82.830962 157.166244 
L 83.523199 162.610959 
L 84.216653 177.691289 
L 84.908883 171.485236 
L 85.601147 167.330244 
L 86.293364 165.048364 
L 86.985656 166.550185 
L 88.367373 182.738558 
L 89.05961 182.494185 
L 89.751847 179.075044 
L 90.441987 174.589446 
L 91.13423 158.905096 
L 91.826467 146.615937 
L 92.518705 130.827277 
L 93.209773 126.887907 
L 93.902011 137.444077 
L 94.594254 157.322286 
L 95.286491 186.130245 
L 95.979336 226.562863 
L 96.671581 251.208848 
L 97.363819 252.613847 
L 98.056056 247.437733 
L 98.749362 233.110135 
L 99.44205 210.678614 
L 100.133837 176.387221 
L 100.826074 135.561214 
M 102.901478 82.0611 
L 103.593715 91.599887 
M 104.977035 125.759452 
L 105.669272 146.21238 
L 107.747587 228.211564 
L 108.439825 260.748379 
L 109.132062 279.303266 
M 111.901674 218.154789 
L 113.285912 148.006017 
L 114.670387 98.608912 
M 116.054209 98.107629 
L 116.746446 116.775614 
L 117.438683 141.312556 
L 118.823151 204.003035 
L 119.515395 228.37642 
L 120.899869 255.182917 
L 121.594579 260.210171 
L 122.286816 245.322405 
L 122.97906 212.506664 
M 125.748383 74.91863 
L 126.44062 78.152593 
L 127.129632 97.654373 
L 127.82187 123.362477 
L 129.89967 229.653856 
L 130.591908 255.013225 
L 131.284145 269.648287 
L 131.976389 257.896165 
L 132.670814 240.563131 
L 133.363058 217.831653 
L 134.747532 154.35446 
L 136.822277 93.413641 
L 137.514514 86.961712 
L 138.204709 95.407287 
L 138.896947 111.392245 
M 142.360573 269.218859 
L 143.05281 287.100897 
L 143.744756 283.123755 
L 144.436993 260.094317 
M 149.973692 188.420115 
L 150.665929 225.831547 
M 152.05041 266.942823 
L 152.743731 257.759731 
L 153.435969 242.676457 
L 154.128206 215.164181 
L 155.510224 134.822243 
M 158.279343 112.892264 
L 158.97158 153.512276 
M 161.743508 277.913163 
L 162.435745 272.039436 
L 163.127989 249.624952 
L 163.818557 219.491206 
L 164.510795 180.395779 
M 166.586145 103.480355 
L 167.278382 110.952692 
L 167.970626 130.40393 
M 170.048694 231.708603 
L 171.433168 264.171218 
L 172.125831 256.877683 
L 172.818048 235.799811 
L 173.510286 206.088136 
L 174.892987 124.793738 
L 175.585225 97.900056 
L 176.277462 87.02949 
L 176.969699 94.023071 
L 177.662487 118.991996 
M 179.046962 199.657913 
L 179.739205 236.002075 
L 180.434067 262.972624 
L 181.126297 276.485791 
L 181.818534 264.06354 
L 183.200632 211.093732 
L 184.585113 125.876937 
M 185.969588 106.653877 
L 186.661455 132.369832 
M 191.509762 207.226254 
L 192.199235 163.477302 
L 192.891481 127.260509 
L 193.583718 107.129203 
L 194.275953 98.292382 
M 199.123391 258.793427 
L 199.815628 247.988878 
L 200.508823 218.452129 
L 201.893304 140.854233 
L 202.585541 110.007827 
L 203.275538 87.949708 
L 203.967776 81.303077 
M 205.35225 122.730021 
L 207.429146 235.976714 
L 208.121383 257.074379 
L 208.815873 261.331454 
L 209.50811 245.371753 
M 213.66058 121.891993 
L 214.351919 135.533124 
L 215.736393 194.678433 
L 217.120874 261.479521 
L 217.814995 274.367151 
L 218.507232 277.608613 
L 219.199469 262.053461 
L 219.891706 234.720926 
L 221.969824 127.569075 
L 222.661681 110.171575 
L 223.354881 108.102696 
M 224.739362 115.894551 
L 225.431599 123.790797 
L 226.123329 142.608069 
L 228.200041 220.368318 
L 228.892598 244.438283 
L 229.584835 274.485202 
L 230.277072 288.436235 
M 231.661953 277.651972 
L 232.35419 268.925902 
L 233.046427 251.873722 
L 233.738664 225.937593 
L 235.126562 159.574979 
L 236.511036 100.279507 
L 237.205725 68.749866 
L 237.897963 53.568 
L 238.5902 55.300014 
L 239.282437 77.011125 
M 240.658539 103.998877 
L 242.043013 152.089104 
L 242.735331 185.762861 
L 243.427569 226.574732 
M 245.504977 291.449428 
L 247.581686 250.948403 
L 248.274878 245.180434 
L 248.967115 231.362828 
L 250.351589 185.377021 
M 253.121246 91.555196 
L 253.81349 79.438253 
L 254.500718 79.193788 
L 255.192947 87.934095 
L 255.885192 98.307957 
L 256.577429 111.879203 
L 257.269926 141.34383 
L 258.6544 183.666127 
L 259.346637 197.194416 
L 260.040695 207.122672 
L 260.732932 218.728887 
L 262.117406 252.726238 
L 262.80931 263.06147 
M 264.193784 256.026634 
L 264.886021 243.88466 
M 272.500759 170.80637 
L 273.192996 164.206297 
L 273.886626 158.699784 
L 274.578864 166.799386 
L 275.271101 185.560108 
M 291.190092 211.670589 
L 291.882329 224.997099 
M 308.496983 226.060968 
L 309.18922 202.817778 
M 325.112821 148.58429 
L 325.805058 154.0678 
L 326.497302 164.89865 
M 329.961455 222.461715 
L 330.653469 215.323774 
L 331.346218 210.737439 
L 332.037944 204.577527 
L 332.730181 195.944399 
L 333.422638 189.330263 
L 334.114875 170.475093 
M 338.959426 205.594087 
L 339.651661 201.864809 
L 340.343899 194.726509 
L 341.036136 185.395593 
L 341.726718 183.829114 
M 343.111192 185.602006 
L 343.803429 192.951254 
M 358.33989 150.155556 
L 359.029714 147.360547 
M 363.183748 198.315237 
L 363.875985 219.305246 
L 364.568397 224.885854 
L 365.260626 217.153533 
M 368.030296 194.931056 
L 368.722533 203.61201 
L 369.41477 208.478845 
L 370.107983 209.499783 
L 370.80022 196.706838 
M 383.260573 157.203677 
L 383.952811 166.067539 
L 384.644637 172.803121 
L 385.336874 184.456765 
M 387.412183 180.731969 
L 388.104412 171.401531 
L 388.796657 160.196868 
L 389.488894 155.386528 
L 390.179932 157.557363 
L 390.872169 166.354438 
M 395.025447 166.495327 
" style="fill:none;stroke:#0000ff;stroke-linecap:square;"/>
   </g>
   <g id="line2d_131">
    <path clip-path="url(#pf0aac6b66b)" d="M 101.516997 99.779916 
L 102.209241 83.03807 
M 140.976101 196.9085 
L 141.668336 234.429788 
M 146.511257 137.166761 
L 147.203494 113.398658 
L 147.895731 102.123862 
L 148.588378 112.863634 
L 149.281455 147.137496 
M 156.20247 102.993281 
L 156.894699 89.354018 
L 157.586944 94.542375 
M 165.203032 138.446054 
L 165.895269 109.470451 
M 168.662863 163.147401 
L 169.356457 200.008271 
M 187.353692 176.056596 
L 188.045929 224.332126 
L 188.738167 264.855279 
M 194.967935 111.335961 
L 195.660172 139.166163 
L 197.044646 223.474938 
M 244.119806 266.930554 
L 244.812043 290.371384 
M 265.576308 219.451094 
L 266.268553 198.802878 
L 266.960791 187.170423 
L 268.344813 181.914248 
L 269.03705 178.222727 
L 269.729287 176.659254 
L 270.421524 166.025275 
L 271.116285 163.909348 
L 271.808522 169.48715 
M 275.963338 200.379887 
L 276.655785 212.804341 
L 278.040266 222.402781 
L 278.732503 216.912138 
L 279.422083 214.673197 
L 280.11432 216.263236 
M 281.498794 220.263845 
L 282.192431 214.342519 
L 282.885262 188.278451 
L 283.576905 152.750279 
L 284.269143 132.945616 
L 284.961386 132.713872 
L 285.652297 141.920783 
L 287.036771 163.079534 
L 287.729008 178.905762 
L 288.421904 186.152756 
L 289.806385 198.302492 
L 290.498622 203.152427 
M 292.574566 226.35421 
L 293.961207 188.646353 
L 294.653451 173.677047 
L 295.345682 163.922465 
L 296.037925 176.345828 
L 297.420548 247.680589 
L 298.112785 261.292822 
L 298.805022 255.037726 
L 300.192862 195.06976 
L 300.885099 178.684763 
M 302.26739 171.29737 
L 302.959621 175.086574 
L 303.651864 181.407058 
L 304.344095 192.999534 
L 305.037283 197.53294 
L 305.72952 206.609019 
M 307.114493 227.095501 
L 307.804746 234.799365 
M 309.881458 180.047994 
L 310.575802 165.10867 
L 311.268039 160.940158 
L 311.960277 161.459331 
L 312.65252 171.935158 
L 313.343492 187.566294 
L 314.035729 196.088697 
L 314.727973 210.740703 
M 316.112447 253.162235 
L 316.803859 265.495213 
L 317.496096 261.041155 
L 318.188333 232.752904 
M 319.576584 185.584976 
L 320.268821 174.150237 
L 320.961058 172.95363 
L 321.653295 174.18151 
L 322.342377 171.966518 
L 323.034614 164.36896 
L 323.726858 158.181234 
L 324.419095 153.733735 
M 328.576974 228.048521 
L 329.269218 229.585054 
M 336.190619 184.660282 
L 336.882856 199.600867 
L 337.575094 209.915061 
L 338.267337 211.52891 
M 344.492933 196.223054 
L 345.18517 195.468108 
L 345.877414 196.322361 
L 346.569651 192.700407 
L 347.953989 173.269454 
M 349.338463 152.49681 
L 350.0307 157.016649 
L 350.722267 171.889483 
L 351.414505 178.883603 
L 352.106742 189.457688 
L 352.798979 216.798856 
L 353.491776 239.739961 
M 354.87625 243.787782 
L 356.26317 191.968008 
L 356.955416 173.140902 
L 357.647653 160.467583 
M 359.721951 150.909218 
L 360.414189 157.715568 
L 361.106426 163.137642 
L 361.799274 170.817393 
L 362.491511 180.045835 
M 365.952863 205.438034 
L 366.6451 195.049416 
L 367.338052 191.383279 
M 372.877912 149.880885 
L 373.570157 152.150721 
M 376.34006 180.777748 
L 377.032291 184.834107 
L 377.724534 194.147766 
M 380.492239 186.898834 
L 381.184476 167.228793 
L 381.876099 153.889568 
L 382.568336 151.45725 
M 386.029111 190.724918 
L 386.721348 186.429839 
M 391.564426 169.989566 
L 392.256643 179.160762 
L 392.948735 174.161131 
M 395.717867 166.752963 
L 397.102341 176.927665 
L 397.794578 180.585955 
L 398.487273 180.599437 
L 398.487273 180.599437 
" style="fill:none;stroke:#008000;stroke-linecap:square;"/>
   </g>
   <g id="patch_3">
    <path d="M 57.6 307.584 
L 57.6 41.472 
" style="fill:none;stroke:#000000;stroke-linecap:square;stroke-linejoin:miter;stroke-width:0.8;"/>
   </g>
   <g id="patch_4">
    <path d="M 414.72 307.584 
L 414.72 41.472 
" style="fill:none;stroke:#000000;stroke-linecap:square;stroke-linejoin:miter;stroke-width:0.8;"/>
   </g>
   <g id="patch_5">
    <path d="M 57.6 307.584 
L 414.72 307.584 
" style="fill:none;stroke:#000000;stroke-linecap:square;stroke-linejoin:miter;stroke-width:0.8;"/>
   </g>
   <g id="patch_6">
    <path d="M 57.6 41.472 
L 414.72 41.472 
" style="fill:none;stroke:#000000;stroke-linecap:square;stroke-linejoin:miter;stroke-width:0.8;"/>
   </g>
   <g id="text_15">
    <!-- Rel Gt Trans Y Plot -->
    <defs>
     <path d="M 44.390625 34.1875 
Q 47.5625 33.109375 50.5625 29.59375 
Q 53.5625 26.078125 56.59375 19.921875 
L 66.609375 0 
L 56 0 
L 46.6875 18.703125 
Q 43.0625 26.03125 39.671875 28.421875 
Q 36.28125 30.8125 30.421875 30.8125 
L 19.671875 30.8125 
L 19.671875 0 
L 9.8125 0 
L 9.8125 72.90625 
L 32.078125 72.90625 
Q 44.578125 72.90625 50.734375 67.671875 
Q 56.890625 62.453125 56.890625 51.90625 
Q 56.890625 45.015625 53.6875 40.46875 
Q 50.484375 35.9375 44.390625 34.1875 
z
M 19.671875 64.796875 
L 19.671875 38.921875 
L 32.078125 38.921875 
Q 39.203125 38.921875 42.84375 42.21875 
Q 46.484375 45.515625 46.484375 51.90625 
Q 46.484375 58.296875 42.84375 61.546875 
Q 39.203125 64.796875 32.078125 64.796875 
z
" id="DejaVuSans-52"/>
     <path d="M 9.421875 75.984375 
L 18.40625 75.984375 
L 18.40625 0 
L 9.421875 0 
z
" id="DejaVuSans-6c"/>
     <path d="M 59.515625 10.40625 
L 59.515625 29.984375 
L 43.40625 29.984375 
L 43.40625 38.09375 
L 69.28125 38.09375 
L 69.28125 6.78125 
Q 63.578125 2.734375 56.6875 0.65625 
Q 49.8125 -1.421875 42 -1.421875 
Q 24.90625 -1.421875 15.25 8.5625 
Q 5.609375 18.5625 5.609375 36.375 
Q 5.609375 54.25 15.25 64.234375 
Q 24.90625 74.21875 42 74.21875 
Q 49.125 74.21875 55.546875 72.453125 
Q 61.96875 70.703125 67.390625 67.28125 
L 67.390625 56.78125 
Q 61.921875 61.421875 55.765625 63.765625 
Q 49.609375 66.109375 42.828125 66.109375 
Q 29.4375 66.109375 22.71875 58.640625 
Q 16.015625 51.171875 16.015625 36.375 
Q 16.015625 21.625 22.71875 14.15625 
Q 29.4375 6.6875 42.828125 6.6875 
Q 48.046875 6.6875 52.140625 7.59375 
Q 56.25 8.5 59.515625 10.40625 
z
" id="DejaVuSans-47"/>
     <path d="M -0.296875 72.90625 
L 61.375 72.90625 
L 61.375 64.59375 
L 35.5 64.59375 
L 35.5 0 
L 25.59375 0 
L 25.59375 64.59375 
L -0.296875 64.59375 
z
" id="DejaVuSans-54"/>
     <path d="M -0.203125 72.90625 
L 10.40625 72.90625 
L 30.609375 42.921875 
L 50.6875 72.90625 
L 61.28125 72.90625 
L 35.5 34.71875 
L 35.5 0 
L 25.59375 0 
L 25.59375 34.71875 
z
" id="DejaVuSans-59"/>
     <path d="M 19.671875 64.796875 
L 19.671875 37.40625 
L 32.078125 37.40625 
Q 38.96875 37.40625 42.71875 40.96875 
Q 46.484375 44.53125 46.484375 51.125 
Q 46.484375 57.671875 42.71875 61.234375 
Q 38.96875 64.796875 32.078125 64.796875 
z
M 9.8125 72.90625 
L 32.078125 72.90625 
Q 44.34375 72.90625 50.609375 67.359375 
Q 56.890625 61.8125 56.890625 51.125 
Q 56.890625 40.328125 50.609375 34.8125 
Q 44.34375 29.296875 32.078125 29.296875 
L 19.671875 29.296875 
L 19.671875 0 
L 9.8125 0 
z
" id="DejaVuSans-50"/>
     <path d="M 30.609375 48.390625 
Q 23.390625 48.390625 19.1875 42.75 
Q 14.984375 37.109375 14.984375 27.296875 
Q 14.984375 17.484375 19.15625 11.84375 
Q 23.34375 6.203125 30.609375 6.203125 
Q 37.796875 6.203125 41.984375 11.859375 
Q 46.1875 17.53125 46.1875 27.296875 
Q 46.1875 37.015625 41.984375 42.703125 
Q 37.796875 48.390625 30.609375 48.390625 
z
M 30.609375 56 
Q 42.328125 56 49.015625 48.375 
Q 55.71875 40.765625 55.71875 27.296875 
Q 55.71875 13.875 49.015625 6.21875 
Q 42.328125 -1.421875 30.609375 -1.421875 
Q 18.84375 -1.421875 12.171875 6.21875 
Q 5.515625 13.875 5.515625 27.296875 
Q 5.515625 40.765625 12.171875 48.375 
Q 18.84375 56 30.609375 56 
z
" id="DejaVuSans-6f"/>
    </defs>
    <g transform="translate(180.31125 35.472)scale(0.12 -0.12)">
     <use xlink:href="#DejaVuSans-52"/>
     <use x="69.419922" xlink:href="#DejaVuSans-65"/>
     <use x="130.943359" xlink:href="#DejaVuSans-6c"/>
     <use x="158.726562" xlink:href="#DejaVuSans-20"/>
     <use x="190.513672" xlink:href="#DejaVuSans-47"/>
     <use x="268.003906" xlink:href="#DejaVuSans-74"/>
     <use x="307.212891" xlink:href="#DejaVuSans-20"/>
     <use x="339" xlink:href="#DejaVuSans-54"/>
     <use x="399.865234" xlink:href="#DejaVuSans-72"/>
     <use x="440.978516" xlink:href="#DejaVuSans-61"/>
     <use x="502.257812" xlink:href="#DejaVuSans-6e"/>
     <use x="565.636719" xlink:href="#DejaVuSans-73"/>
     <use x="617.736328" xlink:href="#DejaVuSans-20"/>
     <use x="649.523438" xlink:href="#DejaVuSans-59"/>
     <use x="710.607422" xlink:href="#DejaVuSans-20"/>
     <use x="742.394531" xlink:href="#DejaVuSans-50"/>
     <use x="802.697266" xlink:href="#DejaVuSans-6c"/>
     <use x="830.480469" xlink:href="#DejaVuSans-6f"/>
     <use x="891.662109" xlink:href="#DejaVuSans-74"/>
    </g>
   </g>
  </g>
 </g>
 <defs>
  <clipPath id="pf0aac6b66b">
   <rect height="266.112" width="357.12" x="57.6" y="41.472"/>
  </clipPath>
 </defs>
</svg>
