<?xml version="1.0" encoding="utf-8" standalone="no"?>
<!DOCTYPE svg PUBLIC "-//W3C//DTD SVG 1.1//EN"
  "http://www.w3.org/Graphics/SVG/1.1/DTD/svg11.dtd">
<!-- Created with matplotlib (http://matplotlib.org/) -->
<svg height="345.6pt" version="1.1" viewBox="0 0 460.8 345.6" width="460.8pt" xmlns="http://www.w3.org/2000/svg" xmlns:xlink="http://www.w3.org/1999/xlink">
 <defs>
  <style type="text/css">
*{stroke-linecap:butt;stroke-linejoin:round;}
  </style>
 </defs>
 <g id="figure_1">
  <g id="patch_1">
   <path d="M 0 345.6 
L 460.8 345.6 
L 460.8 0 
L 0 0 
z
" style="fill:#ffffff;"/>
  </g>
  <g id="axes_1">
   <g id="patch_2">
    <path d="M 57.6 307.584 
L 414.72 307.584 
L 414.72 41.472 
L 57.6 41.472 
z
" style="fill:#ffffff;"/>
   </g>
   <g id="matplotlib.axis_1">
    <g id="xtick_1">
     <g id="line2d_1">
      <path clip-path="url(#pbdfee39993)" d="M 70.555248 307.584 
L 70.555248 41.472 
" style="fill:none;stroke:#b0b0b0;stroke-linecap:square;stroke-width:0.8;"/>
     </g>
     <g id="line2d_2">
      <defs>
       <path d="M 0 0 
L 0 3.5 
" id="m99e816aa1e" style="stroke:#000000;stroke-width:0.8;"/>
      </defs>
      <g>
       <use style="stroke:#000000;stroke-width:0.8;" x="70.555248" xlink:href="#m99e816aa1e" y="307.584"/>
      </g>
     </g>
     <g id="text_1">
      <!-- 0 -->
      <defs>
       <path d="M 31.78125 66.40625 
Q 24.171875 66.40625 20.328125 58.90625 
Q 16.5 51.421875 16.5 36.375 
Q 16.5 21.390625 20.328125 13.890625 
Q 24.171875 6.390625 31.78125 6.390625 
Q 39.453125 6.390625 43.28125 13.890625 
Q 47.125 21.390625 47.125 36.375 
Q 47.125 51.421875 43.28125 58.90625 
Q 39.453125 66.40625 31.78125 66.40625 
z
M 31.78125 74.21875 
Q 44.046875 74.21875 50.515625 64.515625 
Q 56.984375 54.828125 56.984375 36.375 
Q 56.984375 17.96875 50.515625 8.265625 
Q 44.046875 -1.421875 31.78125 -1.421875 
Q 19.53125 -1.421875 13.0625 8.265625 
Q 6.59375 17.96875 6.59375 36.375 
Q 6.59375 54.828125 13.0625 64.515625 
Q 19.53125 74.21875 31.78125 74.21875 
z
" id="DejaVuSans-30"/>
      </defs>
      <g transform="translate(67.373998 322.182437)scale(0.1 -0.1)">
       <use xlink:href="#DejaVuSans-30"/>
      </g>
     </g>
    </g>
    <g id="xtick_2">
     <g id="line2d_3">
      <path clip-path="url(#pbdfee39993)" d="M 139.776886 307.584 
L 139.776886 41.472 
" style="fill:none;stroke:#b0b0b0;stroke-linecap:square;stroke-width:0.8;"/>
     </g>
     <g id="line2d_4">
      <g>
       <use style="stroke:#000000;stroke-width:0.8;" x="139.776886" xlink:href="#m99e816aa1e" y="307.584"/>
      </g>
     </g>
     <g id="text_2">
      <!-- 10 -->
      <defs>
       <path d="M 12.40625 8.296875 
L 28.515625 8.296875 
L 28.515625 63.921875 
L 10.984375 60.40625 
L 10.984375 69.390625 
L 28.421875 72.90625 
L 38.28125 72.90625 
L 38.28125 8.296875 
L 54.390625 8.296875 
L 54.390625 0 
L 12.40625 0 
z
" id="DejaVuSans-31"/>
      </defs>
      <g transform="translate(133.414386 322.182437)scale(0.1 -0.1)">
       <use xlink:href="#DejaVuSans-31"/>
       <use x="63.623047" xlink:href="#DejaVuSans-30"/>
      </g>
     </g>
    </g>
    <g id="xtick_3">
     <g id="line2d_5">
      <path clip-path="url(#pbdfee39993)" d="M 208.998523 307.584 
L 208.998523 41.472 
" style="fill:none;stroke:#b0b0b0;stroke-linecap:square;stroke-width:0.8;"/>
     </g>
     <g id="line2d_6">
      <g>
       <use style="stroke:#000000;stroke-width:0.8;" x="208.998523" xlink:href="#m99e816aa1e" y="307.584"/>
      </g>
     </g>
     <g id="text_3">
      <!-- 20 -->
      <defs>
       <path d="M 19.1875 8.296875 
L 53.609375 8.296875 
L 53.609375 0 
L 7.328125 0 
L 7.328125 8.296875 
Q 12.9375 14.109375 22.625 23.890625 
Q 32.328125 33.6875 34.8125 36.53125 
Q 39.546875 41.84375 41.421875 45.53125 
Q 43.3125 49.21875 43.3125 52.78125 
Q 43.3125 58.59375 39.234375 62.25 
Q 35.15625 65.921875 28.609375 65.921875 
Q 23.96875 65.921875 18.8125 64.3125 
Q 13.671875 62.703125 7.8125 59.421875 
L 7.8125 69.390625 
Q 13.765625 71.78125 18.9375 73 
Q 24.125 74.21875 28.421875 74.21875 
Q 39.75 74.21875 46.484375 68.546875 
Q 53.21875 62.890625 53.21875 53.421875 
Q 53.21875 48.921875 51.53125 44.890625 
Q 49.859375 40.875 45.40625 35.40625 
Q 44.1875 33.984375 37.640625 27.21875 
Q 31.109375 20.453125 19.1875 8.296875 
z
" id="DejaVuSans-32"/>
      </defs>
      <g transform="translate(202.636023 322.182437)scale(0.1 -0.1)">
       <use xlink:href="#DejaVuSans-32"/>
       <use x="63.623047" xlink:href="#DejaVuSans-30"/>
      </g>
     </g>
    </g>
    <g id="xtick_4">
     <g id="line2d_7">
      <path clip-path="url(#pbdfee39993)" d="M 278.220161 307.584 
L 278.220161 41.472 
" style="fill:none;stroke:#b0b0b0;stroke-linecap:square;stroke-width:0.8;"/>
     </g>
     <g id="line2d_8">
      <g>
       <use style="stroke:#000000;stroke-width:0.8;" x="278.220161" xlink:href="#m99e816aa1e" y="307.584"/>
      </g>
     </g>
     <g id="text_4">
      <!-- 30 -->
      <defs>
       <path d="M 40.578125 39.3125 
Q 47.65625 37.796875 51.625 33 
Q 55.609375 28.21875 55.609375 21.1875 
Q 55.609375 10.40625 48.1875 4.484375 
Q 40.765625 -1.421875 27.09375 -1.421875 
Q 22.515625 -1.421875 17.65625 -0.515625 
Q 12.796875 0.390625 7.625 2.203125 
L 7.625 11.71875 
Q 11.71875 9.328125 16.59375 8.109375 
Q 21.484375 6.890625 26.8125 6.890625 
Q 36.078125 6.890625 40.9375 10.546875 
Q 45.796875 14.203125 45.796875 21.1875 
Q 45.796875 27.640625 41.28125 31.265625 
Q 36.765625 34.90625 28.71875 34.90625 
L 20.21875 34.90625 
L 20.21875 43.015625 
L 29.109375 43.015625 
Q 36.375 43.015625 40.234375 45.921875 
Q 44.09375 48.828125 44.09375 54.296875 
Q 44.09375 59.90625 40.109375 62.90625 
Q 36.140625 65.921875 28.71875 65.921875 
Q 24.65625 65.921875 20.015625 65.03125 
Q 15.375 64.15625 9.8125 62.3125 
L 9.8125 71.09375 
Q 15.4375 72.65625 20.34375 73.4375 
Q 25.25 74.21875 29.59375 74.21875 
Q 40.828125 74.21875 47.359375 69.109375 
Q 53.90625 64.015625 53.90625 55.328125 
Q 53.90625 49.265625 50.4375 45.09375 
Q 46.96875 40.921875 40.578125 39.3125 
z
" id="DejaVuSans-33"/>
      </defs>
      <g transform="translate(271.857661 322.182437)scale(0.1 -0.1)">
       <use xlink:href="#DejaVuSans-33"/>
       <use x="63.623047" xlink:href="#DejaVuSans-30"/>
      </g>
     </g>
    </g>
    <g id="xtick_5">
     <g id="line2d_9">
      <path clip-path="url(#pbdfee39993)" d="M 347.441799 307.584 
L 347.441799 41.472 
" style="fill:none;stroke:#b0b0b0;stroke-linecap:square;stroke-width:0.8;"/>
     </g>
     <g id="line2d_10">
      <g>
       <use style="stroke:#000000;stroke-width:0.8;" x="347.441799" xlink:href="#m99e816aa1e" y="307.584"/>
      </g>
     </g>
     <g id="text_5">
      <!-- 40 -->
      <defs>
       <path d="M 37.796875 64.3125 
L 12.890625 25.390625 
L 37.796875 25.390625 
z
M 35.203125 72.90625 
L 47.609375 72.90625 
L 47.609375 25.390625 
L 58.015625 25.390625 
L 58.015625 17.1875 
L 47.609375 17.1875 
L 47.609375 0 
L 37.796875 0 
L 37.796875 17.1875 
L 4.890625 17.1875 
L 4.890625 26.703125 
z
" id="DejaVuSans-34"/>
      </defs>
      <g transform="translate(341.079299 322.182437)scale(0.1 -0.1)">
       <use xlink:href="#DejaVuSans-34"/>
       <use x="63.623047" xlink:href="#DejaVuSans-30"/>
      </g>
     </g>
    </g>
    <g id="xtick_6">
     <g id="line2d_11">
      <path clip-path="url(#pbdfee39993)" d="M 84.399575 307.584 
L 84.399575 41.472 
" style="fill:none;stroke:#b0b0b0;stroke-linecap:square;stroke-width:0.8;"/>
     </g>
     <g id="line2d_12">
      <defs>
       <path d="M 0 0 
L 0 2 
" id="m62b932f8fb" style="stroke:#000000;stroke-width:0.6;"/>
      </defs>
      <g>
       <use style="stroke:#000000;stroke-width:0.6;" x="84.399575" xlink:href="#m62b932f8fb" y="307.584"/>
      </g>
     </g>
    </g>
    <g id="xtick_7">
     <g id="line2d_13">
      <path clip-path="url(#pbdfee39993)" d="M 98.243903 307.584 
L 98.243903 41.472 
" style="fill:none;stroke:#b0b0b0;stroke-linecap:square;stroke-width:0.8;"/>
     </g>
     <g id="line2d_14">
      <g>
       <use style="stroke:#000000;stroke-width:0.6;" x="98.243903" xlink:href="#m62b932f8fb" y="307.584"/>
      </g>
     </g>
    </g>
    <g id="xtick_8">
     <g id="line2d_15">
      <path clip-path="url(#pbdfee39993)" d="M 112.08823 307.584 
L 112.08823 41.472 
" style="fill:none;stroke:#b0b0b0;stroke-linecap:square;stroke-width:0.8;"/>
     </g>
     <g id="line2d_16">
      <g>
       <use style="stroke:#000000;stroke-width:0.6;" x="112.08823" xlink:href="#m62b932f8fb" y="307.584"/>
      </g>
     </g>
    </g>
    <g id="xtick_9">
     <g id="line2d_17">
      <path clip-path="url(#pbdfee39993)" d="M 125.932558 307.584 
L 125.932558 41.472 
" style="fill:none;stroke:#b0b0b0;stroke-linecap:square;stroke-width:0.8;"/>
     </g>
     <g id="line2d_18">
      <g>
       <use style="stroke:#000000;stroke-width:0.6;" x="125.932558" xlink:href="#m62b932f8fb" y="307.584"/>
      </g>
     </g>
    </g>
    <g id="xtick_10">
     <g id="line2d_19">
      <path clip-path="url(#pbdfee39993)" d="M 153.621213 307.584 
L 153.621213 41.472 
" style="fill:none;stroke:#b0b0b0;stroke-linecap:square;stroke-width:0.8;"/>
     </g>
     <g id="line2d_20">
      <g>
       <use style="stroke:#000000;stroke-width:0.6;" x="153.621213" xlink:href="#m62b932f8fb" y="307.584"/>
      </g>
     </g>
    </g>
    <g id="xtick_11">
     <g id="line2d_21">
      <path clip-path="url(#pbdfee39993)" d="M 167.465541 307.584 
L 167.465541 41.472 
" style="fill:none;stroke:#b0b0b0;stroke-linecap:square;stroke-width:0.8;"/>
     </g>
     <g id="line2d_22">
      <g>
       <use style="stroke:#000000;stroke-width:0.6;" x="167.465541" xlink:href="#m62b932f8fb" y="307.584"/>
      </g>
     </g>
    </g>
    <g id="xtick_12">
     <g id="line2d_23">
      <path clip-path="url(#pbdfee39993)" d="M 181.309868 307.584 
L 181.309868 41.472 
" style="fill:none;stroke:#b0b0b0;stroke-linecap:square;stroke-width:0.8;"/>
     </g>
     <g id="line2d_24">
      <g>
       <use style="stroke:#000000;stroke-width:0.6;" x="181.309868" xlink:href="#m62b932f8fb" y="307.584"/>
      </g>
     </g>
    </g>
    <g id="xtick_13">
     <g id="line2d_25">
      <path clip-path="url(#pbdfee39993)" d="M 195.154196 307.584 
L 195.154196 41.472 
" style="fill:none;stroke:#b0b0b0;stroke-linecap:square;stroke-width:0.8;"/>
     </g>
     <g id="line2d_26">
      <g>
       <use style="stroke:#000000;stroke-width:0.6;" x="195.154196" xlink:href="#m62b932f8fb" y="307.584"/>
      </g>
     </g>
    </g>
    <g id="xtick_14">
     <g id="line2d_27">
      <path clip-path="url(#pbdfee39993)" d="M 222.842851 307.584 
L 222.842851 41.472 
" style="fill:none;stroke:#b0b0b0;stroke-linecap:square;stroke-width:0.8;"/>
     </g>
     <g id="line2d_28">
      <g>
       <use style="stroke:#000000;stroke-width:0.6;" x="222.842851" xlink:href="#m62b932f8fb" y="307.584"/>
      </g>
     </g>
    </g>
    <g id="xtick_15">
     <g id="line2d_29">
      <path clip-path="url(#pbdfee39993)" d="M 236.687178 307.584 
L 236.687178 41.472 
" style="fill:none;stroke:#b0b0b0;stroke-linecap:square;stroke-width:0.8;"/>
     </g>
     <g id="line2d_30">
      <g>
       <use style="stroke:#000000;stroke-width:0.6;" x="236.687178" xlink:href="#m62b932f8fb" y="307.584"/>
      </g>
     </g>
    </g>
    <g id="xtick_16">
     <g id="line2d_31">
      <path clip-path="url(#pbdfee39993)" d="M 250.531506 307.584 
L 250.531506 41.472 
" style="fill:none;stroke:#b0b0b0;stroke-linecap:square;stroke-width:0.8;"/>
     </g>
     <g id="line2d_32">
      <g>
       <use style="stroke:#000000;stroke-width:0.6;" x="250.531506" xlink:href="#m62b932f8fb" y="307.584"/>
      </g>
     </g>
    </g>
    <g id="xtick_17">
     <g id="line2d_33">
      <path clip-path="url(#pbdfee39993)" d="M 264.375834 307.584 
L 264.375834 41.472 
" style="fill:none;stroke:#b0b0b0;stroke-linecap:square;stroke-width:0.8;"/>
     </g>
     <g id="line2d_34">
      <g>
       <use style="stroke:#000000;stroke-width:0.6;" x="264.375834" xlink:href="#m62b932f8fb" y="307.584"/>
      </g>
     </g>
    </g>
    <g id="xtick_18">
     <g id="line2d_35">
      <path clip-path="url(#pbdfee39993)" d="M 292.064489 307.584 
L 292.064489 41.472 
" style="fill:none;stroke:#b0b0b0;stroke-linecap:square;stroke-width:0.8;"/>
     </g>
     <g id="line2d_36">
      <g>
       <use style="stroke:#000000;stroke-width:0.6;" x="292.064489" xlink:href="#m62b932f8fb" y="307.584"/>
      </g>
     </g>
    </g>
    <g id="xtick_19">
     <g id="line2d_37">
      <path clip-path="url(#pbdfee39993)" d="M 305.908816 307.584 
L 305.908816 41.472 
" style="fill:none;stroke:#b0b0b0;stroke-linecap:square;stroke-width:0.8;"/>
     </g>
     <g id="line2d_38">
      <g>
       <use style="stroke:#000000;stroke-width:0.6;" x="305.908816" xlink:href="#m62b932f8fb" y="307.584"/>
      </g>
     </g>
    </g>
    <g id="xtick_20">
     <g id="line2d_39">
      <path clip-path="url(#pbdfee39993)" d="M 319.753144 307.584 
L 319.753144 41.472 
" style="fill:none;stroke:#b0b0b0;stroke-linecap:square;stroke-width:0.8;"/>
     </g>
     <g id="line2d_40">
      <g>
       <use style="stroke:#000000;stroke-width:0.6;" x="319.753144" xlink:href="#m62b932f8fb" y="307.584"/>
      </g>
     </g>
    </g>
    <g id="xtick_21">
     <g id="line2d_41">
      <path clip-path="url(#pbdfee39993)" d="M 333.597471 307.584 
L 333.597471 41.472 
" style="fill:none;stroke:#b0b0b0;stroke-linecap:square;stroke-width:0.8;"/>
     </g>
     <g id="line2d_42">
      <g>
       <use style="stroke:#000000;stroke-width:0.6;" x="333.597471" xlink:href="#m62b932f8fb" y="307.584"/>
      </g>
     </g>
    </g>
    <g id="xtick_22">
     <g id="line2d_43">
      <path clip-path="url(#pbdfee39993)" d="M 361.286127 307.584 
L 361.286127 41.472 
" style="fill:none;stroke:#b0b0b0;stroke-linecap:square;stroke-width:0.8;"/>
     </g>
     <g id="line2d_44">
      <g>
       <use style="stroke:#000000;stroke-width:0.6;" x="361.286127" xlink:href="#m62b932f8fb" y="307.584"/>
      </g>
     </g>
    </g>
    <g id="xtick_23">
     <g id="line2d_45">
      <path clip-path="url(#pbdfee39993)" d="M 375.130454 307.584 
L 375.130454 41.472 
" style="fill:none;stroke:#b0b0b0;stroke-linecap:square;stroke-width:0.8;"/>
     </g>
     <g id="line2d_46">
      <g>
       <use style="stroke:#000000;stroke-width:0.6;" x="375.130454" xlink:href="#m62b932f8fb" y="307.584"/>
      </g>
     </g>
    </g>
    <g id="xtick_24">
     <g id="line2d_47">
      <path clip-path="url(#pbdfee39993)" d="M 388.974782 307.584 
L 388.974782 41.472 
" style="fill:none;stroke:#b0b0b0;stroke-linecap:square;stroke-width:0.8;"/>
     </g>
     <g id="line2d_48">
      <g>
       <use style="stroke:#000000;stroke-width:0.6;" x="388.974782" xlink:href="#m62b932f8fb" y="307.584"/>
      </g>
     </g>
    </g>
    <g id="xtick_25">
     <g id="line2d_49">
      <path clip-path="url(#pbdfee39993)" d="M 402.819109 307.584 
L 402.819109 41.472 
" style="fill:none;stroke:#b0b0b0;stroke-linecap:square;stroke-width:0.8;"/>
     </g>
     <g id="line2d_50">
      <g>
       <use style="stroke:#000000;stroke-width:0.6;" x="402.819109" xlink:href="#m62b932f8fb" y="307.584"/>
      </g>
     </g>
    </g>
    <g id="text_6">
     <!-- frame # [] -->
     <defs>
      <path d="M 37.109375 75.984375 
L 37.109375 68.5 
L 28.515625 68.5 
Q 23.6875 68.5 21.796875 66.546875 
Q 19.921875 64.59375 19.921875 59.515625 
L 19.921875 54.6875 
L 34.71875 54.6875 
L 34.71875 47.703125 
L 19.921875 47.703125 
L 19.921875 0 
L 10.890625 0 
L 10.890625 47.703125 
L 2.296875 47.703125 
L 2.296875 54.6875 
L 10.890625 54.6875 
L 10.890625 58.5 
Q 10.890625 67.625 15.140625 71.796875 
Q 19.390625 75.984375 28.609375 75.984375 
z
" id="DejaVuSans-66"/>
      <path d="M 41.109375 46.296875 
Q 39.59375 47.171875 37.8125 47.578125 
Q 36.03125 48 33.890625 48 
Q 26.265625 48 22.1875 43.046875 
Q 18.109375 38.09375 18.109375 28.8125 
L 18.109375 0 
L 9.078125 0 
L 9.078125 54.6875 
L 18.109375 54.6875 
L 18.109375 46.1875 
Q 20.953125 51.171875 25.484375 53.578125 
Q 30.03125 56 36.53125 56 
Q 37.453125 56 38.578125 55.875 
Q 39.703125 55.765625 41.0625 55.515625 
z
" id="DejaVuSans-72"/>
      <path d="M 34.28125 27.484375 
Q 23.390625 27.484375 19.1875 25 
Q 14.984375 22.515625 14.984375 16.5 
Q 14.984375 11.71875 18.140625 8.90625 
Q 21.296875 6.109375 26.703125 6.109375 
Q 34.1875 6.109375 38.703125 11.40625 
Q 43.21875 16.703125 43.21875 25.484375 
L 43.21875 27.484375 
z
M 52.203125 31.203125 
L 52.203125 0 
L 43.21875 0 
L 43.21875 8.296875 
Q 40.140625 3.328125 35.546875 0.953125 
Q 30.953125 -1.421875 24.3125 -1.421875 
Q 15.921875 -1.421875 10.953125 3.296875 
Q 6 8.015625 6 15.921875 
Q 6 25.140625 12.171875 29.828125 
Q 18.359375 34.515625 30.609375 34.515625 
L 43.21875 34.515625 
L 43.21875 35.40625 
Q 43.21875 41.609375 39.140625 45 
Q 35.0625 48.390625 27.6875 48.390625 
Q 23 48.390625 18.546875 47.265625 
Q 14.109375 46.140625 10.015625 43.890625 
L 10.015625 52.203125 
Q 14.9375 54.109375 19.578125 55.046875 
Q 24.21875 56 28.609375 56 
Q 40.484375 56 46.34375 49.84375 
Q 52.203125 43.703125 52.203125 31.203125 
z
" id="DejaVuSans-61"/>
      <path d="M 52 44.1875 
Q 55.375 50.25 60.0625 53.125 
Q 64.75 56 71.09375 56 
Q 79.640625 56 84.28125 50.015625 
Q 88.921875 44.046875 88.921875 33.015625 
L 88.921875 0 
L 79.890625 0 
L 79.890625 32.71875 
Q 79.890625 40.578125 77.09375 44.375 
Q 74.3125 48.1875 68.609375 48.1875 
Q 61.625 48.1875 57.5625 43.546875 
Q 53.515625 38.921875 53.515625 30.90625 
L 53.515625 0 
L 44.484375 0 
L 44.484375 32.71875 
Q 44.484375 40.625 41.703125 44.40625 
Q 38.921875 48.1875 33.109375 48.1875 
Q 26.21875 48.1875 22.15625 43.53125 
Q 18.109375 38.875 18.109375 30.90625 
L 18.109375 0 
L 9.078125 0 
L 9.078125 54.6875 
L 18.109375 54.6875 
L 18.109375 46.1875 
Q 21.1875 51.21875 25.484375 53.609375 
Q 29.78125 56 35.6875 56 
Q 41.65625 56 45.828125 52.96875 
Q 50 49.953125 52 44.1875 
z
" id="DejaVuSans-6d"/>
      <path d="M 56.203125 29.59375 
L 56.203125 25.203125 
L 14.890625 25.203125 
Q 15.484375 15.921875 20.484375 11.0625 
Q 25.484375 6.203125 34.421875 6.203125 
Q 39.59375 6.203125 44.453125 7.46875 
Q 49.3125 8.734375 54.109375 11.28125 
L 54.109375 2.78125 
Q 49.265625 0.734375 44.1875 -0.34375 
Q 39.109375 -1.421875 33.890625 -1.421875 
Q 20.796875 -1.421875 13.15625 6.1875 
Q 5.515625 13.8125 5.515625 26.8125 
Q 5.515625 40.234375 12.765625 48.109375 
Q 20.015625 56 32.328125 56 
Q 43.359375 56 49.78125 48.890625 
Q 56.203125 41.796875 56.203125 29.59375 
z
M 47.21875 32.234375 
Q 47.125 39.59375 43.09375 43.984375 
Q 39.0625 48.390625 32.421875 48.390625 
Q 24.90625 48.390625 20.390625 44.140625 
Q 15.875 39.890625 15.1875 32.171875 
z
" id="DejaVuSans-65"/>
      <path id="DejaVuSans-20"/>
      <path d="M 51.125 44 
L 36.921875 44 
L 32.8125 27.6875 
L 47.125 27.6875 
z
M 43.796875 71.78125 
L 38.71875 51.515625 
L 52.984375 51.515625 
L 58.109375 71.78125 
L 65.921875 71.78125 
L 60.890625 51.515625 
L 76.125 51.515625 
L 76.125 44 
L 58.984375 44 
L 54.984375 27.6875 
L 70.515625 27.6875 
L 70.515625 20.21875 
L 53.078125 20.21875 
L 48 0 
L 40.1875 0 
L 45.21875 20.21875 
L 30.90625 20.21875 
L 25.875 0 
L 18.015625 0 
L 23.09375 20.21875 
L 7.71875 20.21875 
L 7.71875 27.6875 
L 24.90625 27.6875 
L 29 44 
L 13.28125 44 
L 13.28125 51.515625 
L 30.90625 51.515625 
L 35.890625 71.78125 
z
" id="DejaVuSans-23"/>
      <path d="M 8.59375 75.984375 
L 29.296875 75.984375 
L 29.296875 69 
L 17.578125 69 
L 17.578125 -6.203125 
L 29.296875 -6.203125 
L 29.296875 -13.1875 
L 8.59375 -13.1875 
z
" id="DejaVuSans-5b"/>
      <path d="M 30.421875 75.984375 
L 30.421875 -13.1875 
L 9.71875 -13.1875 
L 9.71875 -6.203125 
L 21.390625 -6.203125 
L 21.390625 69 
L 9.71875 69 
L 9.71875 75.984375 
z
" id="DejaVuSans-5d"/>
     </defs>
     <g transform="translate(210.063906 335.860562)scale(0.1 -0.1)">
      <use xlink:href="#DejaVuSans-66"/>
      <use x="35.205078" xlink:href="#DejaVuSans-72"/>
      <use x="76.318359" xlink:href="#DejaVuSans-61"/>
      <use x="137.597656" xlink:href="#DejaVuSans-6d"/>
      <use x="235.009766" xlink:href="#DejaVuSans-65"/>
      <use x="296.533203" xlink:href="#DejaVuSans-20"/>
      <use x="328.320312" xlink:href="#DejaVuSans-23"/>
      <use x="412.109375" xlink:href="#DejaVuSans-20"/>
      <use x="443.896484" xlink:href="#DejaVuSans-5b"/>
      <use x="482.910156" xlink:href="#DejaVuSans-5d"/>
     </g>
    </g>
   </g>
   <g id="matplotlib.axis_2">
    <g id="ytick_1">
     <g id="line2d_51">
      <path clip-path="url(#pbdfee39993)" d="M 57.6 292.982933 
L 414.72 292.982933 
" style="fill:none;stroke:#b0b0b0;stroke-linecap:square;stroke-width:0.8;"/>
     </g>
     <g id="line2d_52">
      <defs>
       <path d="M 0 0 
L -3.5 0 
" id="mf246a7964f" style="stroke:#000000;stroke-width:0.8;"/>
      </defs>
      <g>
       <use style="stroke:#000000;stroke-width:0.8;" x="57.6" xlink:href="#mf246a7964f" y="292.982933"/>
      </g>
     </g>
     <g id="text_7">
      <!-- −0.2 -->
      <defs>
       <path d="M 10.59375 35.5 
L 73.1875 35.5 
L 73.1875 27.203125 
L 10.59375 27.203125 
z
" id="DejaVuSans-2212"/>
       <path d="M 10.6875 12.40625 
L 21 12.40625 
L 21 0 
L 10.6875 0 
z
" id="DejaVuSans-2e"/>
      </defs>
      <g transform="translate(26.317187 296.782152)scale(0.1 -0.1)">
       <use xlink:href="#DejaVuSans-2212"/>
       <use x="83.789062" xlink:href="#DejaVuSans-30"/>
       <use x="147.412109" xlink:href="#DejaVuSans-2e"/>
       <use x="179.199219" xlink:href="#DejaVuSans-32"/>
      </g>
     </g>
    </g>
    <g id="ytick_2">
     <g id="line2d_53">
      <path clip-path="url(#pbdfee39993)" d="M 57.6 242.734483 
L 414.72 242.734483 
" style="fill:none;stroke:#b0b0b0;stroke-linecap:square;stroke-width:0.8;"/>
     </g>
     <g id="line2d_54">
      <g>
       <use style="stroke:#000000;stroke-width:0.8;" x="57.6" xlink:href="#mf246a7964f" y="242.734483"/>
      </g>
     </g>
     <g id="text_8">
      <!-- −0.1 -->
      <g transform="translate(26.317187 246.533702)scale(0.1 -0.1)">
       <use xlink:href="#DejaVuSans-2212"/>
       <use x="83.789062" xlink:href="#DejaVuSans-30"/>
       <use x="147.412109" xlink:href="#DejaVuSans-2e"/>
       <use x="179.199219" xlink:href="#DejaVuSans-31"/>
      </g>
     </g>
    </g>
    <g id="ytick_3">
     <g id="line2d_55">
      <path clip-path="url(#pbdfee39993)" d="M 57.6 192.486032 
L 414.72 192.486032 
" style="fill:none;stroke:#b0b0b0;stroke-linecap:square;stroke-width:0.8;"/>
     </g>
     <g id="line2d_56">
      <g>
       <use style="stroke:#000000;stroke-width:0.8;" x="57.6" xlink:href="#mf246a7964f" y="192.486032"/>
      </g>
     </g>
     <g id="text_9">
      <!-- 0.0 -->
      <g transform="translate(34.696875 196.285251)scale(0.1 -0.1)">
       <use xlink:href="#DejaVuSans-30"/>
       <use x="63.623047" xlink:href="#DejaVuSans-2e"/>
       <use x="95.410156" xlink:href="#DejaVuSans-30"/>
      </g>
     </g>
    </g>
    <g id="ytick_4">
     <g id="line2d_57">
      <path clip-path="url(#pbdfee39993)" d="M 57.6 142.237582 
L 414.72 142.237582 
" style="fill:none;stroke:#b0b0b0;stroke-linecap:square;stroke-width:0.8;"/>
     </g>
     <g id="line2d_58">
      <g>
       <use style="stroke:#000000;stroke-width:0.8;" x="57.6" xlink:href="#mf246a7964f" y="142.237582"/>
      </g>
     </g>
     <g id="text_10">
      <!-- 0.1 -->
      <g transform="translate(34.696875 146.036801)scale(0.1 -0.1)">
       <use xlink:href="#DejaVuSans-30"/>
       <use x="63.623047" xlink:href="#DejaVuSans-2e"/>
       <use x="95.410156" xlink:href="#DejaVuSans-31"/>
      </g>
     </g>
    </g>
    <g id="ytick_5">
     <g id="line2d_59">
      <path clip-path="url(#pbdfee39993)" d="M 57.6 91.989131 
L 414.72 91.989131 
" style="fill:none;stroke:#b0b0b0;stroke-linecap:square;stroke-width:0.8;"/>
     </g>
     <g id="line2d_60">
      <g>
       <use style="stroke:#000000;stroke-width:0.8;" x="57.6" xlink:href="#mf246a7964f" y="91.989131"/>
      </g>
     </g>
     <g id="text_11">
      <!-- 0.2 -->
      <g transform="translate(34.696875 95.78835)scale(0.1 -0.1)">
       <use xlink:href="#DejaVuSans-30"/>
       <use x="63.623047" xlink:href="#DejaVuSans-2e"/>
       <use x="95.410156" xlink:href="#DejaVuSans-32"/>
      </g>
     </g>
    </g>
    <g id="ytick_6">
     <g id="line2d_61">
      <path clip-path="url(#pbdfee39993)" d="M 57.6 41.740681 
L 414.72 41.740681 
" style="fill:none;stroke:#b0b0b0;stroke-linecap:square;stroke-width:0.8;"/>
     </g>
     <g id="line2d_62">
      <g>
       <use style="stroke:#000000;stroke-width:0.8;" x="57.6" xlink:href="#mf246a7964f" y="41.740681"/>
      </g>
     </g>
     <g id="text_12">
      <!-- 0.3 -->
      <g transform="translate(34.696875 45.5399)scale(0.1 -0.1)">
       <use xlink:href="#DejaVuSans-30"/>
       <use x="63.623047" xlink:href="#DejaVuSans-2e"/>
       <use x="95.410156" xlink:href="#DejaVuSans-33"/>
      </g>
     </g>
    </g>
    <g id="ytick_7">
     <g id="line2d_63">
      <path clip-path="url(#pbdfee39993)" d="M 57.6 303.032624 
L 414.72 303.032624 
" style="fill:none;stroke:#b0b0b0;stroke-linecap:square;stroke-width:0.8;"/>
     </g>
     <g id="line2d_64">
      <defs>
       <path d="M 0 0 
L -2 0 
" id="me85fddd79f" style="stroke:#000000;stroke-width:0.6;"/>
      </defs>
      <g>
       <use style="stroke:#000000;stroke-width:0.6;" x="57.6" xlink:href="#me85fddd79f" y="303.032624"/>
      </g>
     </g>
    </g>
    <g id="ytick_8">
     <g id="line2d_65">
      <path clip-path="url(#pbdfee39993)" d="M 57.6 282.933243 
L 414.72 282.933243 
" style="fill:none;stroke:#b0b0b0;stroke-linecap:square;stroke-width:0.8;"/>
     </g>
     <g id="line2d_66">
      <g>
       <use style="stroke:#000000;stroke-width:0.6;" x="57.6" xlink:href="#me85fddd79f" y="282.933243"/>
      </g>
     </g>
    </g>
    <g id="ytick_9">
     <g id="line2d_67">
      <path clip-path="url(#pbdfee39993)" d="M 57.6 272.883553 
L 414.72 272.883553 
" style="fill:none;stroke:#b0b0b0;stroke-linecap:square;stroke-width:0.8;"/>
     </g>
     <g id="line2d_68">
      <g>
       <use style="stroke:#000000;stroke-width:0.6;" x="57.6" xlink:href="#me85fddd79f" y="272.883553"/>
      </g>
     </g>
    </g>
    <g id="ytick_10">
     <g id="line2d_69">
      <path clip-path="url(#pbdfee39993)" d="M 57.6 262.833863 
L 414.72 262.833863 
" style="fill:none;stroke:#b0b0b0;stroke-linecap:square;stroke-width:0.8;"/>
     </g>
     <g id="line2d_70">
      <g>
       <use style="stroke:#000000;stroke-width:0.6;" x="57.6" xlink:href="#me85fddd79f" y="262.833863"/>
      </g>
     </g>
    </g>
    <g id="ytick_11">
     <g id="line2d_71">
      <path clip-path="url(#pbdfee39993)" d="M 57.6 252.784173 
L 414.72 252.784173 
" style="fill:none;stroke:#b0b0b0;stroke-linecap:square;stroke-width:0.8;"/>
     </g>
     <g id="line2d_72">
      <g>
       <use style="stroke:#000000;stroke-width:0.6;" x="57.6" xlink:href="#me85fddd79f" y="252.784173"/>
      </g>
     </g>
    </g>
    <g id="ytick_12">
     <g id="line2d_73">
      <path clip-path="url(#pbdfee39993)" d="M 57.6 232.684793 
L 414.72 232.684793 
" style="fill:none;stroke:#b0b0b0;stroke-linecap:square;stroke-width:0.8;"/>
     </g>
     <g id="line2d_74">
      <g>
       <use style="stroke:#000000;stroke-width:0.6;" x="57.6" xlink:href="#me85fddd79f" y="232.684793"/>
      </g>
     </g>
    </g>
    <g id="ytick_13">
     <g id="line2d_75">
      <path clip-path="url(#pbdfee39993)" d="M 57.6 222.635103 
L 414.72 222.635103 
" style="fill:none;stroke:#b0b0b0;stroke-linecap:square;stroke-width:0.8;"/>
     </g>
     <g id="line2d_76">
      <g>
       <use style="stroke:#000000;stroke-width:0.6;" x="57.6" xlink:href="#me85fddd79f" y="222.635103"/>
      </g>
     </g>
    </g>
    <g id="ytick_14">
     <g id="line2d_77">
      <path clip-path="url(#pbdfee39993)" d="M 57.6 212.585413 
L 414.72 212.585413 
" style="fill:none;stroke:#b0b0b0;stroke-linecap:square;stroke-width:0.8;"/>
     </g>
     <g id="line2d_78">
      <g>
       <use style="stroke:#000000;stroke-width:0.6;" x="57.6" xlink:href="#me85fddd79f" y="212.585413"/>
      </g>
     </g>
    </g>
    <g id="ytick_15">
     <g id="line2d_79">
      <path clip-path="url(#pbdfee39993)" d="M 57.6 202.535723 
L 414.72 202.535723 
" style="fill:none;stroke:#b0b0b0;stroke-linecap:square;stroke-width:0.8;"/>
     </g>
     <g id="line2d_80">
      <g>
       <use style="stroke:#000000;stroke-width:0.6;" x="57.6" xlink:href="#me85fddd79f" y="202.535723"/>
      </g>
     </g>
    </g>
    <g id="ytick_16">
     <g id="line2d_81">
      <path clip-path="url(#pbdfee39993)" d="M 57.6 182.436342 
L 414.72 182.436342 
" style="fill:none;stroke:#b0b0b0;stroke-linecap:square;stroke-width:0.8;"/>
     </g>
     <g id="line2d_82">
      <g>
       <use style="stroke:#000000;stroke-width:0.6;" x="57.6" xlink:href="#me85fddd79f" y="182.436342"/>
      </g>
     </g>
    </g>
    <g id="ytick_17">
     <g id="line2d_83">
      <path clip-path="url(#pbdfee39993)" d="M 57.6 172.386652 
L 414.72 172.386652 
" style="fill:none;stroke:#b0b0b0;stroke-linecap:square;stroke-width:0.8;"/>
     </g>
     <g id="line2d_84">
      <g>
       <use style="stroke:#000000;stroke-width:0.6;" x="57.6" xlink:href="#me85fddd79f" y="172.386652"/>
      </g>
     </g>
    </g>
    <g id="ytick_18">
     <g id="line2d_85">
      <path clip-path="url(#pbdfee39993)" d="M 57.6 162.336962 
L 414.72 162.336962 
" style="fill:none;stroke:#b0b0b0;stroke-linecap:square;stroke-width:0.8;"/>
     </g>
     <g id="line2d_86">
      <g>
       <use style="stroke:#000000;stroke-width:0.6;" x="57.6" xlink:href="#me85fddd79f" y="162.336962"/>
      </g>
     </g>
    </g>
    <g id="ytick_19">
     <g id="line2d_87">
      <path clip-path="url(#pbdfee39993)" d="M 57.6 152.287272 
L 414.72 152.287272 
" style="fill:none;stroke:#b0b0b0;stroke-linecap:square;stroke-width:0.8;"/>
     </g>
     <g id="line2d_88">
      <g>
       <use style="stroke:#000000;stroke-width:0.6;" x="57.6" xlink:href="#me85fddd79f" y="152.287272"/>
      </g>
     </g>
    </g>
    <g id="ytick_20">
     <g id="line2d_89">
      <path clip-path="url(#pbdfee39993)" d="M 57.6 132.187892 
L 414.72 132.187892 
" style="fill:none;stroke:#b0b0b0;stroke-linecap:square;stroke-width:0.8;"/>
     </g>
     <g id="line2d_90">
      <g>
       <use style="stroke:#000000;stroke-width:0.6;" x="57.6" xlink:href="#me85fddd79f" y="132.187892"/>
      </g>
     </g>
    </g>
    <g id="ytick_21">
     <g id="line2d_91">
      <path clip-path="url(#pbdfee39993)" d="M 57.6 122.138202 
L 414.72 122.138202 
" style="fill:none;stroke:#b0b0b0;stroke-linecap:square;stroke-width:0.8;"/>
     </g>
     <g id="line2d_92">
      <g>
       <use style="stroke:#000000;stroke-width:0.6;" x="57.6" xlink:href="#me85fddd79f" y="122.138202"/>
      </g>
     </g>
    </g>
    <g id="ytick_22">
     <g id="line2d_93">
      <path clip-path="url(#pbdfee39993)" d="M 57.6 112.088512 
L 414.72 112.088512 
" style="fill:none;stroke:#b0b0b0;stroke-linecap:square;stroke-width:0.8;"/>
     </g>
     <g id="line2d_94">
      <g>
       <use style="stroke:#000000;stroke-width:0.6;" x="57.6" xlink:href="#me85fddd79f" y="112.088512"/>
      </g>
     </g>
    </g>
    <g id="ytick_23">
     <g id="line2d_95">
      <path clip-path="url(#pbdfee39993)" d="M 57.6 102.038821 
L 414.72 102.038821 
" style="fill:none;stroke:#b0b0b0;stroke-linecap:square;stroke-width:0.8;"/>
     </g>
     <g id="line2d_96">
      <g>
       <use style="stroke:#000000;stroke-width:0.6;" x="57.6" xlink:href="#me85fddd79f" y="102.038821"/>
      </g>
     </g>
    </g>
    <g id="ytick_24">
     <g id="line2d_97">
      <path clip-path="url(#pbdfee39993)" d="M 57.6 81.939441 
L 414.72 81.939441 
" style="fill:none;stroke:#b0b0b0;stroke-linecap:square;stroke-width:0.8;"/>
     </g>
     <g id="line2d_98">
      <g>
       <use style="stroke:#000000;stroke-width:0.6;" x="57.6" xlink:href="#me85fddd79f" y="81.939441"/>
      </g>
     </g>
    </g>
    <g id="ytick_25">
     <g id="line2d_99">
      <path clip-path="url(#pbdfee39993)" d="M 57.6 71.889751 
L 414.72 71.889751 
" style="fill:none;stroke:#b0b0b0;stroke-linecap:square;stroke-width:0.8;"/>
     </g>
     <g id="line2d_100">
      <g>
       <use style="stroke:#000000;stroke-width:0.6;" x="57.6" xlink:href="#me85fddd79f" y="71.889751"/>
      </g>
     </g>
    </g>
    <g id="ytick_26">
     <g id="line2d_101">
      <path clip-path="url(#pbdfee39993)" d="M 57.6 61.840061 
L 414.72 61.840061 
" style="fill:none;stroke:#b0b0b0;stroke-linecap:square;stroke-width:0.8;"/>
     </g>
     <g id="line2d_102">
      <g>
       <use style="stroke:#000000;stroke-width:0.6;" x="57.6" xlink:href="#me85fddd79f" y="61.840061"/>
      </g>
     </g>
    </g>
    <g id="ytick_27">
     <g id="line2d_103">
      <path clip-path="url(#pbdfee39993)" d="M 57.6 51.790371 
L 414.72 51.790371 
" style="fill:none;stroke:#b0b0b0;stroke-linecap:square;stroke-width:0.8;"/>
     </g>
     <g id="line2d_104">
      <g>
       <use style="stroke:#000000;stroke-width:0.6;" x="57.6" xlink:href="#me85fddd79f" y="51.790371"/>
      </g>
     </g>
    </g>
    <g id="text_13">
     <!-- rot x -->
     <defs>
      <path d="M 30.609375 48.390625 
Q 23.390625 48.390625 19.1875 42.75 
Q 14.984375 37.109375 14.984375 27.296875 
Q 14.984375 17.484375 19.15625 11.84375 
Q 23.34375 6.203125 30.609375 6.203125 
Q 37.796875 6.203125 41.984375 11.859375 
Q 46.1875 17.53125 46.1875 27.296875 
Q 46.1875 37.015625 41.984375 42.703125 
Q 37.796875 48.390625 30.609375 48.390625 
z
M 30.609375 56 
Q 42.328125 56 49.015625 48.375 
Q 55.71875 40.765625 55.71875 27.296875 
Q 55.71875 13.875 49.015625 6.21875 
Q 42.328125 -1.421875 30.609375 -1.421875 
Q 18.84375 -1.421875 12.171875 6.21875 
Q 5.515625 13.875 5.515625 27.296875 
Q 5.515625 40.765625 12.171875 48.375 
Q 18.84375 56 30.609375 56 
z
" id="DejaVuSans-6f"/>
      <path d="M 18.3125 70.21875 
L 18.3125 54.6875 
L 36.8125 54.6875 
L 36.8125 47.703125 
L 18.3125 47.703125 
L 18.3125 18.015625 
Q 18.3125 11.328125 20.140625 9.421875 
Q 21.96875 7.515625 27.59375 7.515625 
L 36.8125 7.515625 
L 36.8125 0 
L 27.59375 0 
Q 17.1875 0 13.234375 3.875 
Q 9.28125 7.765625 9.28125 18.015625 
L 9.28125 47.703125 
L 2.6875 47.703125 
L 2.6875 54.6875 
L 9.28125 54.6875 
L 9.28125 70.21875 
z
" id="DejaVuSans-74"/>
      <path d="M 54.890625 54.6875 
L 35.109375 28.078125 
L 55.90625 0 
L 45.3125 0 
L 29.390625 21.484375 
L 13.484375 0 
L 2.875 0 
L 24.125 28.609375 
L 4.6875 54.6875 
L 15.28125 54.6875 
L 29.78125 35.203125 
L 44.28125 54.6875 
z
" id="DejaVuSans-78"/>
     </defs>
     <g transform="translate(20.2375 186.149875)rotate(-90)scale(0.1 -0.1)">
      <use xlink:href="#DejaVuSans-72"/>
      <use x="41.082031" xlink:href="#DejaVuSans-6f"/>
      <use x="102.263672" xlink:href="#DejaVuSans-74"/>
      <use x="141.472656" xlink:href="#DejaVuSans-20"/>
      <use x="173.259766" xlink:href="#DejaVuSans-78"/>
     </g>
    </g>
   </g>
   <g id="line2d_105">
    <path clip-path="url(#pbdfee39993)" d="M 73.832727 163.544827 
L 74.524971 175.059979 
L 75.217208 218.686553 
L 75.90628 177.466801 
L 76.598517 198.475576 
L 77.290754 196.118982 
L 78.6751 186.322385 
L 79.367337 207.054427 
L 80.059581 170.713333 
L 80.751818 194.518109 
L 81.446481 197.021466 
L 82.138725 197.442654 
L 82.830962 183.02624 
L 83.523199 204.61023 
L 84.216653 185.982762 
L 84.908883 206.248437 
L 85.601147 188.685647 
L 86.293364 181.297163 
L 86.985656 191.48639 
L 87.675135 187.758081 
L 88.367373 197.160745 
L 89.751847 166.964765 
L 90.441987 176.451414 
L 91.13423 201.578828 
L 91.826467 209.306036 
L 92.518705 227.733128 
L 93.209773 182.464732 
L 93.902011 213.377645 
L 94.594254 204.508257 
L 95.286491 212.427689 
L 95.979336 178.113179 
L 97.363819 155.348156 
L 98.056056 122.431283 
L 98.749362 114.562397 
L 99.44205 123.066497 
L 100.133837 145.239205 
L 100.826074 200.069008 
M 102.901478 255.253207 
L 103.593715 225.856459 
M 104.977035 269.862789 
L 106.361509 199.065225 
L 107.05535 210.043599 
L 107.747587 169.045675 
L 108.439825 155.390453 
L 109.132062 125.622167 
M 111.901674 179.007339 
L 112.593675 187.614516 
L 113.285912 192.151596 
L 113.978149 234.413962 
L 114.670387 247.824103 
M 116.054209 221.826322 
L 116.746446 228.834444 
L 117.438683 144.967774 
L 118.130907 228.233479 
L 118.823151 206.892954 
L 119.515395 189.913231 
L 120.207625 168.479624 
L 120.899869 131.551546 
L 121.594579 117.749479 
L 122.286816 118.658503 
L 122.97906 156.918277 
M 125.748383 265.024119 
L 126.44062 111.496773 
L 127.129632 246.899301 
L 127.82187 256.803769 
L 128.514107 227.288898 
L 129.206344 219.603888 
L 129.89967 159.909752 
L 130.591908 163.784244 
L 131.284145 134.61263 
L 131.976389 145.297713 
L 132.670814 147.415536 
L 133.363058 137.212995 
L 134.055295 152.475099 
L 134.747532 184.804618 
L 135.437802 199.77697 
L 136.130039 197.992392 
L 136.822277 269.256775 
L 137.514514 277.326342 
L 138.204709 241.132523 
L 138.896947 245.430936 
M 142.360573 113.364222 
L 143.05281 100.265439 
L 143.744756 125.941118 
L 144.436993 119.734552 
M 149.973692 234.218568 
L 150.665929 153.483379 
M 152.05041 107.927661 
L 152.743731 152.988266 
L 153.435969 122.350153 
L 154.128206 194.460811 
L 154.820443 213.910037 
L 155.510224 248.767124 
M 158.279343 243.204807 
L 158.97158 235.840845 
M 161.743508 130.403334 
L 162.435745 136.228547 
L 163.127989 148.086375 
L 163.818557 167.367199 
L 164.510795 196.146942 
M 166.586145 233.891927 
L 167.278382 237.270299 
L 167.970626 286.491982 
M 170.048694 162.771898 
L 170.740931 143.236511 
L 171.433168 111.897174 
L 172.125831 110.231825 
L 172.818048 160.082682 
L 173.510286 190.262335 
L 174.202529 215.431624 
L 174.892987 222.762826 
L 175.585225 263.954565 
L 176.277462 242.244328 
L 176.969699 243.327245 
L 177.662487 234.459213 
M 179.046962 186.551465 
L 179.739205 154.616208 
L 180.434067 141.342217 
L 181.126297 109.408926 
L 181.818534 153.178 
L 182.510778 153.368939 
L 183.200632 173.849955 
L 183.892876 215.299592 
L 184.585113 265.837252 
M 185.969588 260.593919 
L 186.661455 220.742247 
M 191.509762 181.413561 
L 192.199235 190.799223 
L 192.891481 214.009136 
L 193.583718 246.254026 
L 194.275953 253.863034 
M 199.123391 125.713447 
L 199.815628 105.872384 
L 200.508823 114.650292 
L 201.20106 139.622995 
L 201.893304 217.072453 
L 202.585541 218.605709 
L 203.275538 250.953825 
L 203.967776 295.488 
M 205.35225 250.441915 
L 206.044672 226.208276 
L 206.736909 179.416266 
L 207.429146 144.923806 
L 208.121383 156.069002 
L 208.815873 115.337517 
L 209.50811 126.218143 
M 213.66058 251.545445 
L 214.351919 261.509285 
L 215.044156 202.399492 
L 215.736393 189.43807 
L 217.120874 137.539575 
L 217.814995 154.617263 
L 218.507232 113.536937 
L 219.199469 126.0467 
L 219.891706 181.111736 
L 220.58497 173.316326 
L 221.969824 274.927037 
L 222.661681 251.607269 
L 223.354881 255.072387 
M 224.739362 226.119121 
L 225.431599 262.021451 
L 226.123329 245.903372 
L 226.815566 219.160373 
L 227.507804 166.093329 
L 228.200041 60.473827 
L 228.892598 161.490921 
L 229.584835 144.976906 
L 230.277072 149.039618 
M 231.661953 155.507764 
L 232.35419 155.193574 
L 233.046427 188.063554 
L 233.738664 182.421724 
L 234.434318 201.658439 
L 235.126562 209.779951 
L 235.818799 200.764195 
L 236.511036 220.285916 
L 237.205725 255.008731 
L 237.897963 280.510514 
L 238.5902 264.998417 
L 239.282437 206.70101 
M 240.658539 219.931511 
L 241.350776 239.346668 
L 242.043013 219.18592 
L 242.735331 161.240605 
L 243.427569 142.11237 
M 245.504977 146.914232 
L 246.197214 152.960496 
L 246.889449 181.028553 
L 247.581686 176.416116 
L 248.274878 167.322569 
L 248.967115 197.964017 
L 249.659352 177.024125 
L 250.351589 172.261896 
M 253.121246 213.145894 
L 253.81349 240.44895 
L 254.500718 224.743486 
L 255.192947 242.227305 
L 255.885192 242.625462 
L 256.577429 216.374127 
L 257.269926 202.730905 
L 257.962163 202.688452 
L 258.6544 186.254302 
L 259.346637 178.206831 
L 260.040695 190.738232 
L 260.732932 183.975951 
L 261.425169 153.029379 
L 262.117406 129.439002 
L 262.80931 126.302182 
M 264.193784 124.403511 
L 264.886021 150.828218 
M 272.500759 171.613421 
L 273.192996 189.091521 
L 273.886626 195.317538 
L 274.578864 183.080945 
L 275.271101 147.617745 
M 291.190092 237.061698 
L 291.882329 164.65834 
M 308.496983 116.126211 
L 309.18922 135.925216 
M 325.112821 193.686699 
L 325.805058 194.314031 
L 326.497302 197.337523 
M 329.961455 170.738564 
L 330.653469 156.566855 
L 331.346218 198.68962 
L 332.037944 187.834076 
L 332.730181 165.44174 
L 333.422638 119.253129 
L 334.114875 131.953819 
M 338.959426 181.355831 
L 339.651661 159.773239 
L 340.343899 151.979513 
L 341.036136 147.506604 
L 341.726718 102.514213 
M 343.111192 125.971656 
L 343.803429 144.044561 
M 358.33989 199.066589 
L 359.029714 175.96107 
M 363.183748 160.176898 
L 363.875985 153.699716 
L 364.568397 173.396082 
L 365.260626 179.166614 
M 368.030296 184.098829 
L 368.722533 180.164363 
L 369.41477 178.709851 
L 370.107983 170.531707 
L 370.80022 222.578565 
M 383.260573 184.964916 
L 383.952811 169.040708 
L 384.644637 160.600706 
L 385.336874 161.290106 
M 387.412183 182.907028 
L 388.104412 178.582364 
L 388.796657 167.577234 
L 389.488894 184.009959 
L 390.179932 203.125974 
L 390.872169 215.668552 
M 395.025447 201.324389 
" style="fill:none;stroke:#ff0000;stroke-linecap:square;"/>
   </g>
   <g id="line2d_106">
    <path clip-path="url(#pbdfee39993)" d="M 73.832727 174.712997 
L 74.524971 174.619087 
L 75.217208 202.287243 
L 75.90628 185.426133 
L 76.598517 193.79515 
L 77.290754 199.884312 
L 77.982991 188.457809 
L 78.6751 184.544299 
L 79.367337 201.956636 
L 80.059581 172.630108 
L 80.751818 197.115811 
L 81.446481 197.797096 
L 82.138725 181.142918 
L 82.830962 193.232228 
L 83.523199 212.685567 
L 84.216653 180.382193 
L 84.908883 198.461361 
L 85.601147 188.93471 
L 86.293364 181.751828 
L 86.985656 187.393547 
L 87.675135 198.19456 
L 88.367373 189.548084 
L 89.05961 187.308892 
L 89.751847 169.207036 
L 90.441987 167.338829 
L 91.13423 207.049899 
L 91.826467 215.292864 
L 92.518705 230.695158 
L 93.209773 223.72927 
L 93.902011 206.319741 
L 94.594254 202.807878 
L 95.286491 212.539737 
L 95.979336 182.578605 
L 96.671581 168.188621 
L 97.363819 158.126252 
L 98.056056 135.843225 
L 98.749362 129.022648 
L 99.44205 132.032882 
L 100.133837 141.070366 
L 100.826074 184.444466 
M 102.901478 222.479435 
L 103.593715 228.105504 
M 104.977035 242.12131 
L 105.669272 233.108623 
L 106.361509 200.253758 
L 107.05535 203.836475 
L 107.747587 196.116665 
L 109.132062 130.357635 
M 111.901674 177.208562 
L 112.593675 202.64151 
L 113.285912 214.442861 
L 113.978149 231.888544 
L 114.670387 244.230529 
M 116.054209 225.33562 
L 116.746446 222.850805 
L 117.438683 218.915132 
L 118.130907 214.275204 
L 118.823151 210.460657 
L 119.515395 196.19792 
L 120.207625 177.694847 
L 120.899869 147.941557 
L 121.594579 123.350742 
L 122.286816 119.873735 
L 122.97906 141.127247 
M 125.748383 238.216816 
L 126.44062 219.912584 
L 127.129632 241.01586 
L 127.82187 251.152398 
L 129.206344 199.277955 
L 130.591908 166.401239 
L 131.284145 140.92749 
L 131.976389 150.673484 
L 132.670814 140.833049 
L 133.363058 134.114861 
L 134.055295 155.424509 
L 134.747532 183.131546 
L 135.437802 183.410883 
L 136.130039 192.313708 
L 136.822277 233.321494 
L 137.514514 248.273431 
L 138.204709 243.9832 
L 138.896947 230.269209 
M 142.360573 136.793322 
L 143.05281 121.049597 
L 143.744756 126.888222 
L 144.436993 134.191274 
M 149.973692 183.791076 
L 150.665929 159.258786 
M 152.05041 124.444594 
L 152.743731 144.460126 
L 154.128206 174.298745 
L 154.820443 208.362262 
L 155.510224 231.428619 
M 158.279343 244.598008 
L 158.97158 222.545374 
M 161.743508 133.015897 
L 162.435745 137.742158 
L 163.818557 157.917519 
L 164.510795 186.679882 
M 166.586145 226.707802 
L 167.278382 228.524844 
L 167.970626 225.450279 
M 170.048694 161.411966 
L 170.740931 144.377135 
L 171.433168 114.719705 
L 172.125831 130.794393 
L 172.818048 174.906001 
L 173.510286 189.693125 
L 174.202529 198.316976 
L 174.892987 216.299217 
L 175.585225 242.147932 
L 176.277462 250.16256 
L 176.969699 244.985524 
L 177.662487 233.364869 
M 179.046962 197.96117 
L 179.739205 158.401752 
L 180.434067 131.223005 
L 181.126297 120.396565 
L 181.818534 146.050384 
L 182.510778 165.226011 
L 183.200632 158.480795 
L 184.585113 254.212245 
M 185.969588 241.709814 
L 186.661455 227.550963 
M 191.509762 186.655092 
L 192.199235 201.942588 
L 193.583718 226.473489 
L 194.275953 247.811646 
M 199.123391 146.574541 
L 199.815628 108.5559 
L 200.508823 113.188463 
L 201.20106 149.092096 
L 201.893304 196.184601 
L 202.585541 217.483091 
L 203.275538 230.588376 
L 203.967776 238.471304 
M 205.35225 243.50676 
L 206.044672 229.978384 
L 206.736909 186.094503 
L 208.121383 136.633348 
L 208.815873 121.912091 
L 209.50811 133.261844 
M 213.66058 234.970193 
L 214.351919 226.253766 
L 215.736393 194.645847 
L 216.428631 173.16273 
L 217.120874 136.860887 
L 217.814995 131.361843 
L 218.507232 112.430938 
L 219.199469 134.705908 
L 219.891706 176.598672 
L 221.277214 212.492679 
L 221.969824 240.761933 
L 222.661681 250.012651 
L 223.354881 244.458481 
M 224.739362 232.533318 
L 225.431599 227.270786 
L 226.123329 218.707553 
L 226.815566 200.78127 
L 227.507804 175.94715 
L 228.200041 168.02861 
L 228.892598 163.136654 
L 229.584835 139.523182 
L 230.277072 140.451967 
M 231.661953 176.213531 
L 232.35419 167.066567 
L 233.046427 173.987651 
L 233.738664 186.069887 
L 234.434318 202.981157 
L 235.126562 206.507119 
L 235.818799 194.363389 
L 236.511036 201.651528 
L 237.205725 228.604353 
L 237.897963 246.467445 
L 238.5902 243.555295 
L 239.282437 209.530382 
M 240.658539 220.248454 
L 241.350776 218.885977 
L 242.043013 223.513525 
L 242.735331 184.56954 
L 243.427569 162.314114 
M 245.504977 157.103755 
L 246.197214 165.873938 
L 246.889449 176.140268 
L 247.581686 174.487896 
L 248.274878 164.97003 
L 249.659352 176.54922 
L 250.351589 169.044485 
M 253.121246 200.912827 
L 253.81349 213.803896 
L 254.500718 220.570325 
L 255.192947 223.201737 
L 255.885192 223.383146 
L 256.577429 222.492687 
L 257.269926 200.745384 
L 257.962163 196.72876 
L 258.6544 187.987077 
L 259.346637 185.421571 
L 260.040695 199.350356 
L 260.732932 191.551237 
L 261.425169 161.692466 
L 262.117406 138.020448 
L 262.80931 130.601249 
M 264.193784 153.635862 
L 264.886021 150.693695 
M 272.500759 164.868021 
L 273.192996 176.92776 
L 273.886626 197.244417 
L 274.578864 181.971194 
L 275.271101 153.202208 
M 291.190092 228.326329 
L 291.882329 179.108167 
M 308.496983 122.086215 
L 309.18922 136.536942 
M 325.112821 180.034015 
L 325.805058 190.819485 
L 326.497302 197.314129 
M 329.961455 165.339307 
L 330.653469 199.725375 
L 331.346218 199.038946 
L 332.037944 186.711696 
L 332.730181 163.144536 
L 333.422638 120.333539 
L 334.114875 132.029644 
M 338.959426 173.137919 
L 339.651661 177.127587 
L 340.343899 167.634456 
L 341.036136 149.450442 
L 341.726718 112.766753 
M 343.111192 123.318558 
L 343.803429 134.090921 
M 358.33989 192.013994 
L 359.029714 183.200516 
M 363.183748 160.875824 
L 363.875985 150.607485 
L 364.568397 173.558481 
L 365.260626 184.18729 
M 368.030296 189.219543 
L 368.722533 181.050484 
L 369.41477 181.723021 
L 370.107983 169.760029 
L 370.80022 171.060542 
M 383.260573 181.867649 
L 383.952811 166.043051 
L 384.644637 162.017015 
L 385.336874 164.553727 
M 387.412183 185.712856 
L 388.104412 181.731248 
L 388.796657 173.428993 
L 389.488894 180.411144 
L 390.872169 213.469635 
M 395.025447 200.216511 
" style="fill:none;stroke:#0000ff;stroke-linecap:square;"/>
   </g>
   <g id="line2d_107">
    <path clip-path="url(#pbdfee39993)" d="M 101.516997 225.010535 
L 102.209241 223.470397 
M 140.976101 192.604182 
L 141.668336 179.056917 
M 146.511257 236.126117 
L 147.203494 221.592406 
L 147.895731 220.145287 
L 148.588378 228.96511 
L 149.281455 207.831986 
M 156.20247 253.254838 
L 156.894699 261.565881 
L 157.586944 245.3757 
M 165.203032 219.22317 
L 165.895269 230.394009 
M 168.662863 207.55758 
L 169.356457 197.665617 
M 187.353692 197.61847 
L 188.045929 155.394401 
L 188.738167 129.512173 
M 194.967935 243.349991 
L 195.660172 224.80165 
L 196.352409 210.476259 
L 197.044646 182.839222 
M 244.119806 156.937943 
L 244.812043 155.58645 
M 265.576308 171.77952 
L 266.268553 197.23045 
L 266.960791 227.810758 
L 267.653028 242.377023 
L 268.344813 234.017488 
L 269.03705 224.028555 
L 269.729287 194.356358 
L 270.421524 196.131387 
L 271.116285 198.393254 
L 271.808522 176.538792 
M 275.963338 141.981092 
L 276.655785 145.810022 
L 278.040266 185.872758 
L 278.732503 216.103805 
L 279.422083 230.92377 
L 280.11432 215.680967 
M 281.498794 131.23094 
L 282.192431 104.644084 
L 282.885262 136.211737 
L 283.576905 202.058442 
L 284.269143 228.728048 
L 285.652297 164.955548 
L 286.344534 151.572277 
L 287.036771 150.411994 
L 287.729008 163.297584 
L 288.421904 219.274857 
L 289.114148 239.410081 
L 289.806385 225.509573 
L 290.498622 228.930458 
M 292.574566 126.003158 
L 293.266803 142.447443 
L 293.961207 154.617272 
L 294.653451 151.188795 
L 295.345682 162.465749 
L 296.037925 147.644442 
L 296.728311 108.580043 
L 297.420548 86.2179 
L 298.112785 80.633471 
L 298.805022 89.480364 
L 299.500625 119.333841 
L 300.192862 164.459283 
L 300.885099 171.81421 
M 302.26739 176.789342 
L 302.959621 177.404345 
L 303.651864 142.141675 
L 304.344095 72.854153 
L 305.037283 59.848704 
L 305.72952 99.439501 
M 307.114493 155.165159 
L 307.804746 132.834931 
M 309.881458 139.274445 
L 310.575802 139.059314 
L 311.268039 155.001412 
L 311.960277 176.738951 
L 312.65252 155.86832 
L 313.343492 104.028422 
L 314.035729 100.643815 
L 314.727973 123.594969 
M 316.112447 132.15886 
L 317.496096 61.158305 
L 318.188333 91.723976 
M 319.576584 143.693949 
L 320.268821 167.578226 
L 320.961058 177.003723 
L 321.653295 179.377695 
L 322.342377 180.387738 
L 323.034614 195.451646 
L 323.726858 190.334591 
L 324.419095 172.354671 
M 328.576974 53.568 
L 329.269218 97.539101 
M 336.190619 134.744416 
L 336.882856 113.982728 
L 337.575094 104.589925 
L 338.267337 129.968238 
M 344.492933 153.416967 
L 345.18517 168.447794 
L 345.877414 153.073715 
L 346.569651 145.013893 
L 347.262064 144.26491 
L 347.953989 145.076463 
M 349.338463 185.913323 
L 350.0307 181.01991 
L 350.722267 128.811397 
L 351.414505 123.102313 
L 352.106742 160.438464 
L 352.798979 145.141915 
L 353.491776 122.059268 
M 354.87625 125.727184 
L 355.569124 163.508726 
L 356.26317 153.859672 
L 356.955416 149.176035 
L 357.647653 168.780861 
M 359.721951 159.782289 
L 360.414189 153.730504 
L 361.799274 190.428017 
L 362.491511 190.322607 
M 365.952863 192.82569 
L 366.6451 212.158267 
L 367.338052 206.171304 
M 372.877912 223.341451 
L 373.570157 182.6162 
M 376.34006 173.474362 
L 377.032291 210.294681 
L 377.724534 206.060891 
M 380.492239 186.2378 
L 381.184476 183.35893 
L 381.876099 197.862449 
L 382.568336 186.514028 
M 386.029111 178.610897 
L 386.721348 191.495194 
M 391.564426 220.226823 
L 392.256643 179.993449 
L 392.948735 188.439989 
M 395.717867 201.269452 
L 396.410104 199.168158 
L 397.794578 192.225386 
L 398.487273 193.175225 
L 398.487273 193.175225 
" style="fill:none;stroke:#008000;stroke-linecap:square;"/>
   </g>
   <g id="patch_3">
    <path d="M 57.6 307.584 
L 57.6 41.472 
" style="fill:none;stroke:#000000;stroke-linecap:square;stroke-linejoin:miter;stroke-width:0.8;"/>
   </g>
   <g id="patch_4">
    <path d="M 414.72 307.584 
L 414.72 41.472 
" style="fill:none;stroke:#000000;stroke-linecap:square;stroke-linejoin:miter;stroke-width:0.8;"/>
   </g>
   <g id="patch_5">
    <path d="M 57.6 307.584 
L 414.72 307.584 
" style="fill:none;stroke:#000000;stroke-linecap:square;stroke-linejoin:miter;stroke-width:0.8;"/>
   </g>
   <g id="patch_6">
    <path d="M 57.6 41.472 
L 414.72 41.472 
" style="fill:none;stroke:#000000;stroke-linecap:square;stroke-linejoin:miter;stroke-width:0.8;"/>
   </g>
   <g id="text_14">
    <!-- Rel Gt Rot X Plot -->
    <defs>
     <path d="M 44.390625 34.1875 
Q 47.5625 33.109375 50.5625 29.59375 
Q 53.5625 26.078125 56.59375 19.921875 
L 66.609375 0 
L 56 0 
L 46.6875 18.703125 
Q 43.0625 26.03125 39.671875 28.421875 
Q 36.28125 30.8125 30.421875 30.8125 
L 19.671875 30.8125 
L 19.671875 0 
L 9.8125 0 
L 9.8125 72.90625 
L 32.078125 72.90625 
Q 44.578125 72.90625 50.734375 67.671875 
Q 56.890625 62.453125 56.890625 51.90625 
Q 56.890625 45.015625 53.6875 40.46875 
Q 50.484375 35.9375 44.390625 34.1875 
z
M 19.671875 64.796875 
L 19.671875 38.921875 
L 32.078125 38.921875 
Q 39.203125 38.921875 42.84375 42.21875 
Q 46.484375 45.515625 46.484375 51.90625 
Q 46.484375 58.296875 42.84375 61.546875 
Q 39.203125 64.796875 32.078125 64.796875 
z
" id="DejaVuSans-52"/>
     <path d="M 9.421875 75.984375 
L 18.40625 75.984375 
L 18.40625 0 
L 9.421875 0 
z
" id="DejaVuSans-6c"/>
     <path d="M 59.515625 10.40625 
L 59.515625 29.984375 
L 43.40625 29.984375 
L 43.40625 38.09375 
L 69.28125 38.09375 
L 69.28125 6.78125 
Q 63.578125 2.734375 56.6875 0.65625 
Q 49.8125 -1.421875 42 -1.421875 
Q 24.90625 -1.421875 15.25 8.5625 
Q 5.609375 18.5625 5.609375 36.375 
Q 5.609375 54.25 15.25 64.234375 
Q 24.90625 74.21875 42 74.21875 
Q 49.125 74.21875 55.546875 72.453125 
Q 61.96875 70.703125 67.390625 67.28125 
L 67.390625 56.78125 
Q 61.921875 61.421875 55.765625 63.765625 
Q 49.609375 66.109375 42.828125 66.109375 
Q 29.4375 66.109375 22.71875 58.640625 
Q 16.015625 51.171875 16.015625 36.375 
Q 16.015625 21.625 22.71875 14.15625 
Q 29.4375 6.6875 42.828125 6.6875 
Q 48.046875 6.6875 52.140625 7.59375 
Q 56.25 8.5 59.515625 10.40625 
z
" id="DejaVuSans-47"/>
     <path d="M 6.296875 72.90625 
L 16.890625 72.90625 
L 35.015625 45.796875 
L 53.21875 72.90625 
L 63.8125 72.90625 
L 40.375 37.890625 
L 65.375 0 
L 54.78125 0 
L 34.28125 31 
L 13.625 0 
L 2.984375 0 
L 29 38.921875 
z
" id="DejaVuSans-58"/>
     <path d="M 19.671875 64.796875 
L 19.671875 37.40625 
L 32.078125 37.40625 
Q 38.96875 37.40625 42.71875 40.96875 
Q 46.484375 44.53125 46.484375 51.125 
Q 46.484375 57.671875 42.71875 61.234375 
Q 38.96875 64.796875 32.078125 64.796875 
z
M 9.8125 72.90625 
L 32.078125 72.90625 
Q 44.34375 72.90625 50.609375 67.359375 
Q 56.890625 61.8125 56.890625 51.125 
Q 56.890625 40.328125 50.609375 34.8125 
Q 44.34375 29.296875 32.078125 29.296875 
L 19.671875 29.296875 
L 19.671875 0 
L 9.8125 0 
z
" id="DejaVuSans-50"/>
    </defs>
    <g transform="translate(186.400312 35.472)scale(0.12 -0.12)">
     <use xlink:href="#DejaVuSans-52"/>
     <use x="69.419922" xlink:href="#DejaVuSans-65"/>
     <use x="130.943359" xlink:href="#DejaVuSans-6c"/>
     <use x="158.726562" xlink:href="#DejaVuSans-20"/>
     <use x="190.513672" xlink:href="#DejaVuSans-47"/>
     <use x="268.003906" xlink:href="#DejaVuSans-74"/>
     <use x="307.212891" xlink:href="#DejaVuSans-20"/>
     <use x="339" xlink:href="#DejaVuSans-52"/>
     <use x="408.419922" xlink:href="#DejaVuSans-6f"/>
     <use x="469.601562" xlink:href="#DejaVuSans-74"/>
     <use x="508.810547" xlink:href="#DejaVuSans-20"/>
     <use x="540.597656" xlink:href="#DejaVuSans-58"/>
     <use x="609.103516" xlink:href="#DejaVuSans-20"/>
     <use x="640.890625" xlink:href="#DejaVuSans-50"/>
     <use x="701.193359" xlink:href="#DejaVuSans-6c"/>
     <use x="728.976562" xlink:href="#DejaVuSans-6f"/>
     <use x="790.158203" xlink:href="#DejaVuSans-74"/>
    </g>
   </g>
  </g>
 </g>
 <defs>
  <clipPath id="pbdfee39993">
   <rect height="266.112" width="357.12" x="57.6" y="41.472"/>
  </clipPath>
 </defs>
</svg>
