<?xml version="1.0" encoding="utf-8" standalone="no"?>
<!DOCTYPE svg PUBLIC "-//W3C//DTD SVG 1.1//EN"
  "http://www.w3.org/Graphics/SVG/1.1/DTD/svg11.dtd">
<!-- Created with matplotlib (http://matplotlib.org/) -->
<svg height="345.6pt" version="1.1" viewBox="0 0 460.8 345.6" width="460.8pt" xmlns="http://www.w3.org/2000/svg" xmlns:xlink="http://www.w3.org/1999/xlink">
 <defs>
  <style type="text/css">
*{stroke-linecap:butt;stroke-linejoin:round;}
  </style>
 </defs>
 <g id="figure_1">
  <g id="patch_1">
   <path d="M 0 345.6 
L 460.8 345.6 
L 460.8 0 
L 0 0 
z
" style="fill:#ffffff;"/>
  </g>
  <g id="axes_1">
   <g id="patch_2">
    <path d="M 57.6 307.584 
L 414.72 307.584 
L 414.72 41.472 
L 57.6 41.472 
z
" style="fill:#ffffff;"/>
   </g>
   <g id="matplotlib.axis_1">
    <g id="xtick_1">
     <g id="line2d_1">
      <path clip-path="url(#p6881bdc73b)" d="M 70.555248 307.584 
L 70.555248 41.472 
" style="fill:none;stroke:#b0b0b0;stroke-linecap:square;stroke-width:0.8;"/>
     </g>
     <g id="line2d_2">
      <defs>
       <path d="M 0 0 
L 0 3.5 
" id="m5027ed31d9" style="stroke:#000000;stroke-width:0.8;"/>
      </defs>
      <g>
       <use style="stroke:#000000;stroke-width:0.8;" x="70.555248" xlink:href="#m5027ed31d9" y="307.584"/>
      </g>
     </g>
     <g id="text_1">
      <!-- 0 -->
      <defs>
       <path d="M 31.78125 66.40625 
Q 24.171875 66.40625 20.328125 58.90625 
Q 16.5 51.421875 16.5 36.375 
Q 16.5 21.390625 20.328125 13.890625 
Q 24.171875 6.390625 31.78125 6.390625 
Q 39.453125 6.390625 43.28125 13.890625 
Q 47.125 21.390625 47.125 36.375 
Q 47.125 51.421875 43.28125 58.90625 
Q 39.453125 66.40625 31.78125 66.40625 
z
M 31.78125 74.21875 
Q 44.046875 74.21875 50.515625 64.515625 
Q 56.984375 54.828125 56.984375 36.375 
Q 56.984375 17.96875 50.515625 8.265625 
Q 44.046875 -1.421875 31.78125 -1.421875 
Q 19.53125 -1.421875 13.0625 8.265625 
Q 6.59375 17.96875 6.59375 36.375 
Q 6.59375 54.828125 13.0625 64.515625 
Q 19.53125 74.21875 31.78125 74.21875 
z
" id="DejaVuSans-30"/>
      </defs>
      <g transform="translate(67.373998 322.182437)scale(0.1 -0.1)">
       <use xlink:href="#DejaVuSans-30"/>
      </g>
     </g>
    </g>
    <g id="xtick_2">
     <g id="line2d_3">
      <path clip-path="url(#p6881bdc73b)" d="M 139.776886 307.584 
L 139.776886 41.472 
" style="fill:none;stroke:#b0b0b0;stroke-linecap:square;stroke-width:0.8;"/>
     </g>
     <g id="line2d_4">
      <g>
       <use style="stroke:#000000;stroke-width:0.8;" x="139.776886" xlink:href="#m5027ed31d9" y="307.584"/>
      </g>
     </g>
     <g id="text_2">
      <!-- 10 -->
      <defs>
       <path d="M 12.40625 8.296875 
L 28.515625 8.296875 
L 28.515625 63.921875 
L 10.984375 60.40625 
L 10.984375 69.390625 
L 28.421875 72.90625 
L 38.28125 72.90625 
L 38.28125 8.296875 
L 54.390625 8.296875 
L 54.390625 0 
L 12.40625 0 
z
" id="DejaVuSans-31"/>
      </defs>
      <g transform="translate(133.414386 322.182437)scale(0.1 -0.1)">
       <use xlink:href="#DejaVuSans-31"/>
       <use x="63.623047" xlink:href="#DejaVuSans-30"/>
      </g>
     </g>
    </g>
    <g id="xtick_3">
     <g id="line2d_5">
      <path clip-path="url(#p6881bdc73b)" d="M 208.998523 307.584 
L 208.998523 41.472 
" style="fill:none;stroke:#b0b0b0;stroke-linecap:square;stroke-width:0.8;"/>
     </g>
     <g id="line2d_6">
      <g>
       <use style="stroke:#000000;stroke-width:0.8;" x="208.998523" xlink:href="#m5027ed31d9" y="307.584"/>
      </g>
     </g>
     <g id="text_3">
      <!-- 20 -->
      <defs>
       <path d="M 19.1875 8.296875 
L 53.609375 8.296875 
L 53.609375 0 
L 7.328125 0 
L 7.328125 8.296875 
Q 12.9375 14.109375 22.625 23.890625 
Q 32.328125 33.6875 34.8125 36.53125 
Q 39.546875 41.84375 41.421875 45.53125 
Q 43.3125 49.21875 43.3125 52.78125 
Q 43.3125 58.59375 39.234375 62.25 
Q 35.15625 65.921875 28.609375 65.921875 
Q 23.96875 65.921875 18.8125 64.3125 
Q 13.671875 62.703125 7.8125 59.421875 
L 7.8125 69.390625 
Q 13.765625 71.78125 18.9375 73 
Q 24.125 74.21875 28.421875 74.21875 
Q 39.75 74.21875 46.484375 68.546875 
Q 53.21875 62.890625 53.21875 53.421875 
Q 53.21875 48.921875 51.53125 44.890625 
Q 49.859375 40.875 45.40625 35.40625 
Q 44.1875 33.984375 37.640625 27.21875 
Q 31.109375 20.453125 19.1875 8.296875 
z
" id="DejaVuSans-32"/>
      </defs>
      <g transform="translate(202.636023 322.182437)scale(0.1 -0.1)">
       <use xlink:href="#DejaVuSans-32"/>
       <use x="63.623047" xlink:href="#DejaVuSans-30"/>
      </g>
     </g>
    </g>
    <g id="xtick_4">
     <g id="line2d_7">
      <path clip-path="url(#p6881bdc73b)" d="M 278.220161 307.584 
L 278.220161 41.472 
" style="fill:none;stroke:#b0b0b0;stroke-linecap:square;stroke-width:0.8;"/>
     </g>
     <g id="line2d_8">
      <g>
       <use style="stroke:#000000;stroke-width:0.8;" x="278.220161" xlink:href="#m5027ed31d9" y="307.584"/>
      </g>
     </g>
     <g id="text_4">
      <!-- 30 -->
      <defs>
       <path d="M 40.578125 39.3125 
Q 47.65625 37.796875 51.625 33 
Q 55.609375 28.21875 55.609375 21.1875 
Q 55.609375 10.40625 48.1875 4.484375 
Q 40.765625 -1.421875 27.09375 -1.421875 
Q 22.515625 -1.421875 17.65625 -0.515625 
Q 12.796875 0.390625 7.625 2.203125 
L 7.625 11.71875 
Q 11.71875 9.328125 16.59375 8.109375 
Q 21.484375 6.890625 26.8125 6.890625 
Q 36.078125 6.890625 40.9375 10.546875 
Q 45.796875 14.203125 45.796875 21.1875 
Q 45.796875 27.640625 41.28125 31.265625 
Q 36.765625 34.90625 28.71875 34.90625 
L 20.21875 34.90625 
L 20.21875 43.015625 
L 29.109375 43.015625 
Q 36.375 43.015625 40.234375 45.921875 
Q 44.09375 48.828125 44.09375 54.296875 
Q 44.09375 59.90625 40.109375 62.90625 
Q 36.140625 65.921875 28.71875 65.921875 
Q 24.65625 65.921875 20.015625 65.03125 
Q 15.375 64.15625 9.8125 62.3125 
L 9.8125 71.09375 
Q 15.4375 72.65625 20.34375 73.4375 
Q 25.25 74.21875 29.59375 74.21875 
Q 40.828125 74.21875 47.359375 69.109375 
Q 53.90625 64.015625 53.90625 55.328125 
Q 53.90625 49.265625 50.4375 45.09375 
Q 46.96875 40.921875 40.578125 39.3125 
z
" id="DejaVuSans-33"/>
      </defs>
      <g transform="translate(271.857661 322.182437)scale(0.1 -0.1)">
       <use xlink:href="#DejaVuSans-33"/>
       <use x="63.623047" xlink:href="#DejaVuSans-30"/>
      </g>
     </g>
    </g>
    <g id="xtick_5">
     <g id="line2d_9">
      <path clip-path="url(#p6881bdc73b)" d="M 347.441799 307.584 
L 347.441799 41.472 
" style="fill:none;stroke:#b0b0b0;stroke-linecap:square;stroke-width:0.8;"/>
     </g>
     <g id="line2d_10">
      <g>
       <use style="stroke:#000000;stroke-width:0.8;" x="347.441799" xlink:href="#m5027ed31d9" y="307.584"/>
      </g>
     </g>
     <g id="text_5">
      <!-- 40 -->
      <defs>
       <path d="M 37.796875 64.3125 
L 12.890625 25.390625 
L 37.796875 25.390625 
z
M 35.203125 72.90625 
L 47.609375 72.90625 
L 47.609375 25.390625 
L 58.015625 25.390625 
L 58.015625 17.1875 
L 47.609375 17.1875 
L 47.609375 0 
L 37.796875 0 
L 37.796875 17.1875 
L 4.890625 17.1875 
L 4.890625 26.703125 
z
" id="DejaVuSans-34"/>
      </defs>
      <g transform="translate(341.079299 322.182437)scale(0.1 -0.1)">
       <use xlink:href="#DejaVuSans-34"/>
       <use x="63.623047" xlink:href="#DejaVuSans-30"/>
      </g>
     </g>
    </g>
    <g id="xtick_6">
     <g id="line2d_11">
      <path clip-path="url(#p6881bdc73b)" d="M 84.399575 307.584 
L 84.399575 41.472 
" style="fill:none;stroke:#b0b0b0;stroke-linecap:square;stroke-width:0.8;"/>
     </g>
     <g id="line2d_12">
      <defs>
       <path d="M 0 0 
L 0 2 
" id="m132b9b4250" style="stroke:#000000;stroke-width:0.6;"/>
      </defs>
      <g>
       <use style="stroke:#000000;stroke-width:0.6;" x="84.399575" xlink:href="#m132b9b4250" y="307.584"/>
      </g>
     </g>
    </g>
    <g id="xtick_7">
     <g id="line2d_13">
      <path clip-path="url(#p6881bdc73b)" d="M 98.243903 307.584 
L 98.243903 41.472 
" style="fill:none;stroke:#b0b0b0;stroke-linecap:square;stroke-width:0.8;"/>
     </g>
     <g id="line2d_14">
      <g>
       <use style="stroke:#000000;stroke-width:0.6;" x="98.243903" xlink:href="#m132b9b4250" y="307.584"/>
      </g>
     </g>
    </g>
    <g id="xtick_8">
     <g id="line2d_15">
      <path clip-path="url(#p6881bdc73b)" d="M 112.08823 307.584 
L 112.08823 41.472 
" style="fill:none;stroke:#b0b0b0;stroke-linecap:square;stroke-width:0.8;"/>
     </g>
     <g id="line2d_16">
      <g>
       <use style="stroke:#000000;stroke-width:0.6;" x="112.08823" xlink:href="#m132b9b4250" y="307.584"/>
      </g>
     </g>
    </g>
    <g id="xtick_9">
     <g id="line2d_17">
      <path clip-path="url(#p6881bdc73b)" d="M 125.932558 307.584 
L 125.932558 41.472 
" style="fill:none;stroke:#b0b0b0;stroke-linecap:square;stroke-width:0.8;"/>
     </g>
     <g id="line2d_18">
      <g>
       <use style="stroke:#000000;stroke-width:0.6;" x="125.932558" xlink:href="#m132b9b4250" y="307.584"/>
      </g>
     </g>
    </g>
    <g id="xtick_10">
     <g id="line2d_19">
      <path clip-path="url(#p6881bdc73b)" d="M 153.621213 307.584 
L 153.621213 41.472 
" style="fill:none;stroke:#b0b0b0;stroke-linecap:square;stroke-width:0.8;"/>
     </g>
     <g id="line2d_20">
      <g>
       <use style="stroke:#000000;stroke-width:0.6;" x="153.621213" xlink:href="#m132b9b4250" y="307.584"/>
      </g>
     </g>
    </g>
    <g id="xtick_11">
     <g id="line2d_21">
      <path clip-path="url(#p6881bdc73b)" d="M 167.465541 307.584 
L 167.465541 41.472 
" style="fill:none;stroke:#b0b0b0;stroke-linecap:square;stroke-width:0.8;"/>
     </g>
     <g id="line2d_22">
      <g>
       <use style="stroke:#000000;stroke-width:0.6;" x="167.465541" xlink:href="#m132b9b4250" y="307.584"/>
      </g>
     </g>
    </g>
    <g id="xtick_12">
     <g id="line2d_23">
      <path clip-path="url(#p6881bdc73b)" d="M 181.309868 307.584 
L 181.309868 41.472 
" style="fill:none;stroke:#b0b0b0;stroke-linecap:square;stroke-width:0.8;"/>
     </g>
     <g id="line2d_24">
      <g>
       <use style="stroke:#000000;stroke-width:0.6;" x="181.309868" xlink:href="#m132b9b4250" y="307.584"/>
      </g>
     </g>
    </g>
    <g id="xtick_13">
     <g id="line2d_25">
      <path clip-path="url(#p6881bdc73b)" d="M 195.154196 307.584 
L 195.154196 41.472 
" style="fill:none;stroke:#b0b0b0;stroke-linecap:square;stroke-width:0.8;"/>
     </g>
     <g id="line2d_26">
      <g>
       <use style="stroke:#000000;stroke-width:0.6;" x="195.154196" xlink:href="#m132b9b4250" y="307.584"/>
      </g>
     </g>
    </g>
    <g id="xtick_14">
     <g id="line2d_27">
      <path clip-path="url(#p6881bdc73b)" d="M 222.842851 307.584 
L 222.842851 41.472 
" style="fill:none;stroke:#b0b0b0;stroke-linecap:square;stroke-width:0.8;"/>
     </g>
     <g id="line2d_28">
      <g>
       <use style="stroke:#000000;stroke-width:0.6;" x="222.842851" xlink:href="#m132b9b4250" y="307.584"/>
      </g>
     </g>
    </g>
    <g id="xtick_15">
     <g id="line2d_29">
      <path clip-path="url(#p6881bdc73b)" d="M 236.687178 307.584 
L 236.687178 41.472 
" style="fill:none;stroke:#b0b0b0;stroke-linecap:square;stroke-width:0.8;"/>
     </g>
     <g id="line2d_30">
      <g>
       <use style="stroke:#000000;stroke-width:0.6;" x="236.687178" xlink:href="#m132b9b4250" y="307.584"/>
      </g>
     </g>
    </g>
    <g id="xtick_16">
     <g id="line2d_31">
      <path clip-path="url(#p6881bdc73b)" d="M 250.531506 307.584 
L 250.531506 41.472 
" style="fill:none;stroke:#b0b0b0;stroke-linecap:square;stroke-width:0.8;"/>
     </g>
     <g id="line2d_32">
      <g>
       <use style="stroke:#000000;stroke-width:0.6;" x="250.531506" xlink:href="#m132b9b4250" y="307.584"/>
      </g>
     </g>
    </g>
    <g id="xtick_17">
     <g id="line2d_33">
      <path clip-path="url(#p6881bdc73b)" d="M 264.375834 307.584 
L 264.375834 41.472 
" style="fill:none;stroke:#b0b0b0;stroke-linecap:square;stroke-width:0.8;"/>
     </g>
     <g id="line2d_34">
      <g>
       <use style="stroke:#000000;stroke-width:0.6;" x="264.375834" xlink:href="#m132b9b4250" y="307.584"/>
      </g>
     </g>
    </g>
    <g id="xtick_18">
     <g id="line2d_35">
      <path clip-path="url(#p6881bdc73b)" d="M 292.064489 307.584 
L 292.064489 41.472 
" style="fill:none;stroke:#b0b0b0;stroke-linecap:square;stroke-width:0.8;"/>
     </g>
     <g id="line2d_36">
      <g>
       <use style="stroke:#000000;stroke-width:0.6;" x="292.064489" xlink:href="#m132b9b4250" y="307.584"/>
      </g>
     </g>
    </g>
    <g id="xtick_19">
     <g id="line2d_37">
      <path clip-path="url(#p6881bdc73b)" d="M 305.908816 307.584 
L 305.908816 41.472 
" style="fill:none;stroke:#b0b0b0;stroke-linecap:square;stroke-width:0.8;"/>
     </g>
     <g id="line2d_38">
      <g>
       <use style="stroke:#000000;stroke-width:0.6;" x="305.908816" xlink:href="#m132b9b4250" y="307.584"/>
      </g>
     </g>
    </g>
    <g id="xtick_20">
     <g id="line2d_39">
      <path clip-path="url(#p6881bdc73b)" d="M 319.753144 307.584 
L 319.753144 41.472 
" style="fill:none;stroke:#b0b0b0;stroke-linecap:square;stroke-width:0.8;"/>
     </g>
     <g id="line2d_40">
      <g>
       <use style="stroke:#000000;stroke-width:0.6;" x="319.753144" xlink:href="#m132b9b4250" y="307.584"/>
      </g>
     </g>
    </g>
    <g id="xtick_21">
     <g id="line2d_41">
      <path clip-path="url(#p6881bdc73b)" d="M 333.597471 307.584 
L 333.597471 41.472 
" style="fill:none;stroke:#b0b0b0;stroke-linecap:square;stroke-width:0.8;"/>
     </g>
     <g id="line2d_42">
      <g>
       <use style="stroke:#000000;stroke-width:0.6;" x="333.597471" xlink:href="#m132b9b4250" y="307.584"/>
      </g>
     </g>
    </g>
    <g id="xtick_22">
     <g id="line2d_43">
      <path clip-path="url(#p6881bdc73b)" d="M 361.286127 307.584 
L 361.286127 41.472 
" style="fill:none;stroke:#b0b0b0;stroke-linecap:square;stroke-width:0.8;"/>
     </g>
     <g id="line2d_44">
      <g>
       <use style="stroke:#000000;stroke-width:0.6;" x="361.286127" xlink:href="#m132b9b4250" y="307.584"/>
      </g>
     </g>
    </g>
    <g id="xtick_23">
     <g id="line2d_45">
      <path clip-path="url(#p6881bdc73b)" d="M 375.130454 307.584 
L 375.130454 41.472 
" style="fill:none;stroke:#b0b0b0;stroke-linecap:square;stroke-width:0.8;"/>
     </g>
     <g id="line2d_46">
      <g>
       <use style="stroke:#000000;stroke-width:0.6;" x="375.130454" xlink:href="#m132b9b4250" y="307.584"/>
      </g>
     </g>
    </g>
    <g id="xtick_24">
     <g id="line2d_47">
      <path clip-path="url(#p6881bdc73b)" d="M 388.974782 307.584 
L 388.974782 41.472 
" style="fill:none;stroke:#b0b0b0;stroke-linecap:square;stroke-width:0.8;"/>
     </g>
     <g id="line2d_48">
      <g>
       <use style="stroke:#000000;stroke-width:0.6;" x="388.974782" xlink:href="#m132b9b4250" y="307.584"/>
      </g>
     </g>
    </g>
    <g id="xtick_25">
     <g id="line2d_49">
      <path clip-path="url(#p6881bdc73b)" d="M 402.819109 307.584 
L 402.819109 41.472 
" style="fill:none;stroke:#b0b0b0;stroke-linecap:square;stroke-width:0.8;"/>
     </g>
     <g id="line2d_50">
      <g>
       <use style="stroke:#000000;stroke-width:0.6;" x="402.819109" xlink:href="#m132b9b4250" y="307.584"/>
      </g>
     </g>
    </g>
    <g id="text_6">
     <!-- frame # [] -->
     <defs>
      <path d="M 37.109375 75.984375 
L 37.109375 68.5 
L 28.515625 68.5 
Q 23.6875 68.5 21.796875 66.546875 
Q 19.921875 64.59375 19.921875 59.515625 
L 19.921875 54.6875 
L 34.71875 54.6875 
L 34.71875 47.703125 
L 19.921875 47.703125 
L 19.921875 0 
L 10.890625 0 
L 10.890625 47.703125 
L 2.296875 47.703125 
L 2.296875 54.6875 
L 10.890625 54.6875 
L 10.890625 58.5 
Q 10.890625 67.625 15.140625 71.796875 
Q 19.390625 75.984375 28.609375 75.984375 
z
" id="DejaVuSans-66"/>
      <path d="M 41.109375 46.296875 
Q 39.59375 47.171875 37.8125 47.578125 
Q 36.03125 48 33.890625 48 
Q 26.265625 48 22.1875 43.046875 
Q 18.109375 38.09375 18.109375 28.8125 
L 18.109375 0 
L 9.078125 0 
L 9.078125 54.6875 
L 18.109375 54.6875 
L 18.109375 46.1875 
Q 20.953125 51.171875 25.484375 53.578125 
Q 30.03125 56 36.53125 56 
Q 37.453125 56 38.578125 55.875 
Q 39.703125 55.765625 41.0625 55.515625 
z
" id="DejaVuSans-72"/>
      <path d="M 34.28125 27.484375 
Q 23.390625 27.484375 19.1875 25 
Q 14.984375 22.515625 14.984375 16.5 
Q 14.984375 11.71875 18.140625 8.90625 
Q 21.296875 6.109375 26.703125 6.109375 
Q 34.1875 6.109375 38.703125 11.40625 
Q 43.21875 16.703125 43.21875 25.484375 
L 43.21875 27.484375 
z
M 52.203125 31.203125 
L 52.203125 0 
L 43.21875 0 
L 43.21875 8.296875 
Q 40.140625 3.328125 35.546875 0.953125 
Q 30.953125 -1.421875 24.3125 -1.421875 
Q 15.921875 -1.421875 10.953125 3.296875 
Q 6 8.015625 6 15.921875 
Q 6 25.140625 12.171875 29.828125 
Q 18.359375 34.515625 30.609375 34.515625 
L 43.21875 34.515625 
L 43.21875 35.40625 
Q 43.21875 41.609375 39.140625 45 
Q 35.0625 48.390625 27.6875 48.390625 
Q 23 48.390625 18.546875 47.265625 
Q 14.109375 46.140625 10.015625 43.890625 
L 10.015625 52.203125 
Q 14.9375 54.109375 19.578125 55.046875 
Q 24.21875 56 28.609375 56 
Q 40.484375 56 46.34375 49.84375 
Q 52.203125 43.703125 52.203125 31.203125 
z
" id="DejaVuSans-61"/>
      <path d="M 52 44.1875 
Q 55.375 50.25 60.0625 53.125 
Q 64.75 56 71.09375 56 
Q 79.640625 56 84.28125 50.015625 
Q 88.921875 44.046875 88.921875 33.015625 
L 88.921875 0 
L 79.890625 0 
L 79.890625 32.71875 
Q 79.890625 40.578125 77.09375 44.375 
Q 74.3125 48.1875 68.609375 48.1875 
Q 61.625 48.1875 57.5625 43.546875 
Q 53.515625 38.921875 53.515625 30.90625 
L 53.515625 0 
L 44.484375 0 
L 44.484375 32.71875 
Q 44.484375 40.625 41.703125 44.40625 
Q 38.921875 48.1875 33.109375 48.1875 
Q 26.21875 48.1875 22.15625 43.53125 
Q 18.109375 38.875 18.109375 30.90625 
L 18.109375 0 
L 9.078125 0 
L 9.078125 54.6875 
L 18.109375 54.6875 
L 18.109375 46.1875 
Q 21.1875 51.21875 25.484375 53.609375 
Q 29.78125 56 35.6875 56 
Q 41.65625 56 45.828125 52.96875 
Q 50 49.953125 52 44.1875 
z
" id="DejaVuSans-6d"/>
      <path d="M 56.203125 29.59375 
L 56.203125 25.203125 
L 14.890625 25.203125 
Q 15.484375 15.921875 20.484375 11.0625 
Q 25.484375 6.203125 34.421875 6.203125 
Q 39.59375 6.203125 44.453125 7.46875 
Q 49.3125 8.734375 54.109375 11.28125 
L 54.109375 2.78125 
Q 49.265625 0.734375 44.1875 -0.34375 
Q 39.109375 -1.421875 33.890625 -1.421875 
Q 20.796875 -1.421875 13.15625 6.1875 
Q 5.515625 13.8125 5.515625 26.8125 
Q 5.515625 40.234375 12.765625 48.109375 
Q 20.015625 56 32.328125 56 
Q 43.359375 56 49.78125 48.890625 
Q 56.203125 41.796875 56.203125 29.59375 
z
M 47.21875 32.234375 
Q 47.125 39.59375 43.09375 43.984375 
Q 39.0625 48.390625 32.421875 48.390625 
Q 24.90625 48.390625 20.390625 44.140625 
Q 15.875 39.890625 15.1875 32.171875 
z
" id="DejaVuSans-65"/>
      <path id="DejaVuSans-20"/>
      <path d="M 51.125 44 
L 36.921875 44 
L 32.8125 27.6875 
L 47.125 27.6875 
z
M 43.796875 71.78125 
L 38.71875 51.515625 
L 52.984375 51.515625 
L 58.109375 71.78125 
L 65.921875 71.78125 
L 60.890625 51.515625 
L 76.125 51.515625 
L 76.125 44 
L 58.984375 44 
L 54.984375 27.6875 
L 70.515625 27.6875 
L 70.515625 20.21875 
L 53.078125 20.21875 
L 48 0 
L 40.1875 0 
L 45.21875 20.21875 
L 30.90625 20.21875 
L 25.875 0 
L 18.015625 0 
L 23.09375 20.21875 
L 7.71875 20.21875 
L 7.71875 27.6875 
L 24.90625 27.6875 
L 29 44 
L 13.28125 44 
L 13.28125 51.515625 
L 30.90625 51.515625 
L 35.890625 71.78125 
z
" id="DejaVuSans-23"/>
      <path d="M 8.59375 75.984375 
L 29.296875 75.984375 
L 29.296875 69 
L 17.578125 69 
L 17.578125 -6.203125 
L 29.296875 -6.203125 
L 29.296875 -13.1875 
L 8.59375 -13.1875 
z
" id="DejaVuSans-5b"/>
      <path d="M 30.421875 75.984375 
L 30.421875 -13.1875 
L 9.71875 -13.1875 
L 9.71875 -6.203125 
L 21.390625 -6.203125 
L 21.390625 69 
L 9.71875 69 
L 9.71875 75.984375 
z
" id="DejaVuSans-5d"/>
     </defs>
     <g transform="translate(210.063906 335.860562)scale(0.1 -0.1)">
      <use xlink:href="#DejaVuSans-66"/>
      <use x="35.205078" xlink:href="#DejaVuSans-72"/>
      <use x="76.318359" xlink:href="#DejaVuSans-61"/>
      <use x="137.597656" xlink:href="#DejaVuSans-6d"/>
      <use x="235.009766" xlink:href="#DejaVuSans-65"/>
      <use x="296.533203" xlink:href="#DejaVuSans-20"/>
      <use x="328.320312" xlink:href="#DejaVuSans-23"/>
      <use x="412.109375" xlink:href="#DejaVuSans-20"/>
      <use x="443.896484" xlink:href="#DejaVuSans-5b"/>
      <use x="482.910156" xlink:href="#DejaVuSans-5d"/>
     </g>
    </g>
   </g>
   <g id="matplotlib.axis_2">
    <g id="ytick_1">
     <g id="line2d_51">
      <path clip-path="url(#p6881bdc73b)" d="M 57.6 307.306521 
L 414.72 307.306521 
" style="fill:none;stroke:#b0b0b0;stroke-linecap:square;stroke-width:0.8;"/>
     </g>
     <g id="line2d_52">
      <defs>
       <path d="M 0 0 
L -3.5 0 
" id="mce182ff138" style="stroke:#000000;stroke-width:0.8;"/>
      </defs>
      <g>
       <use style="stroke:#000000;stroke-width:0.8;" x="57.6" xlink:href="#mce182ff138" y="307.306521"/>
      </g>
     </g>
     <g id="text_7">
      <!-- −0.10 -->
      <defs>
       <path d="M 10.59375 35.5 
L 73.1875 35.5 
L 73.1875 27.203125 
L 10.59375 27.203125 
z
" id="DejaVuSans-2212"/>
       <path d="M 10.6875 12.40625 
L 21 12.40625 
L 21 0 
L 10.6875 0 
z
" id="DejaVuSans-2e"/>
      </defs>
      <g transform="translate(19.954687 311.10574)scale(0.1 -0.1)">
       <use xlink:href="#DejaVuSans-2212"/>
       <use x="83.789062" xlink:href="#DejaVuSans-30"/>
       <use x="147.412109" xlink:href="#DejaVuSans-2e"/>
       <use x="179.199219" xlink:href="#DejaVuSans-31"/>
       <use x="242.822266" xlink:href="#DejaVuSans-30"/>
      </g>
     </g>
    </g>
    <g id="ytick_2">
     <g id="line2d_53">
      <path clip-path="url(#p6881bdc73b)" d="M 57.6 250.244233 
L 414.72 250.244233 
" style="fill:none;stroke:#b0b0b0;stroke-linecap:square;stroke-width:0.8;"/>
     </g>
     <g id="line2d_54">
      <g>
       <use style="stroke:#000000;stroke-width:0.8;" x="57.6" xlink:href="#mce182ff138" y="250.244233"/>
      </g>
     </g>
     <g id="text_8">
      <!-- −0.05 -->
      <defs>
       <path d="M 10.796875 72.90625 
L 49.515625 72.90625 
L 49.515625 64.59375 
L 19.828125 64.59375 
L 19.828125 46.734375 
Q 21.96875 47.46875 24.109375 47.828125 
Q 26.265625 48.1875 28.421875 48.1875 
Q 40.625 48.1875 47.75 41.5 
Q 54.890625 34.8125 54.890625 23.390625 
Q 54.890625 11.625 47.5625 5.09375 
Q 40.234375 -1.421875 26.90625 -1.421875 
Q 22.3125 -1.421875 17.546875 -0.640625 
Q 12.796875 0.140625 7.71875 1.703125 
L 7.71875 11.625 
Q 12.109375 9.234375 16.796875 8.0625 
Q 21.484375 6.890625 26.703125 6.890625 
Q 35.15625 6.890625 40.078125 11.328125 
Q 45.015625 15.765625 45.015625 23.390625 
Q 45.015625 31 40.078125 35.4375 
Q 35.15625 39.890625 26.703125 39.890625 
Q 22.75 39.890625 18.8125 39.015625 
Q 14.890625 38.140625 10.796875 36.28125 
z
" id="DejaVuSans-35"/>
      </defs>
      <g transform="translate(19.954687 254.043452)scale(0.1 -0.1)">
       <use xlink:href="#DejaVuSans-2212"/>
       <use x="83.789062" xlink:href="#DejaVuSans-30"/>
       <use x="147.412109" xlink:href="#DejaVuSans-2e"/>
       <use x="179.199219" xlink:href="#DejaVuSans-30"/>
       <use x="242.822266" xlink:href="#DejaVuSans-35"/>
      </g>
     </g>
    </g>
    <g id="ytick_3">
     <g id="line2d_55">
      <path clip-path="url(#p6881bdc73b)" d="M 57.6 193.181945 
L 414.72 193.181945 
" style="fill:none;stroke:#b0b0b0;stroke-linecap:square;stroke-width:0.8;"/>
     </g>
     <g id="line2d_56">
      <g>
       <use style="stroke:#000000;stroke-width:0.8;" x="57.6" xlink:href="#mce182ff138" y="193.181945"/>
      </g>
     </g>
     <g id="text_9">
      <!-- 0.00 -->
      <g transform="translate(28.334375 196.981164)scale(0.1 -0.1)">
       <use xlink:href="#DejaVuSans-30"/>
       <use x="63.623047" xlink:href="#DejaVuSans-2e"/>
       <use x="95.410156" xlink:href="#DejaVuSans-30"/>
       <use x="159.033203" xlink:href="#DejaVuSans-30"/>
      </g>
     </g>
    </g>
    <g id="ytick_4">
     <g id="line2d_57">
      <path clip-path="url(#p6881bdc73b)" d="M 57.6 136.119658 
L 414.72 136.119658 
" style="fill:none;stroke:#b0b0b0;stroke-linecap:square;stroke-width:0.8;"/>
     </g>
     <g id="line2d_58">
      <g>
       <use style="stroke:#000000;stroke-width:0.8;" x="57.6" xlink:href="#mce182ff138" y="136.119658"/>
      </g>
     </g>
     <g id="text_10">
      <!-- 0.05 -->
      <g transform="translate(28.334375 139.918876)scale(0.1 -0.1)">
       <use xlink:href="#DejaVuSans-30"/>
       <use x="63.623047" xlink:href="#DejaVuSans-2e"/>
       <use x="95.410156" xlink:href="#DejaVuSans-30"/>
       <use x="159.033203" xlink:href="#DejaVuSans-35"/>
      </g>
     </g>
    </g>
    <g id="ytick_5">
     <g id="line2d_59">
      <path clip-path="url(#p6881bdc73b)" d="M 57.6 79.05737 
L 414.72 79.05737 
" style="fill:none;stroke:#b0b0b0;stroke-linecap:square;stroke-width:0.8;"/>
     </g>
     <g id="line2d_60">
      <g>
       <use style="stroke:#000000;stroke-width:0.8;" x="57.6" xlink:href="#mce182ff138" y="79.05737"/>
      </g>
     </g>
     <g id="text_11">
      <!-- 0.10 -->
      <g transform="translate(28.334375 82.856589)scale(0.1 -0.1)">
       <use xlink:href="#DejaVuSans-30"/>
       <use x="63.623047" xlink:href="#DejaVuSans-2e"/>
       <use x="95.410156" xlink:href="#DejaVuSans-31"/>
       <use x="159.033203" xlink:href="#DejaVuSans-30"/>
      </g>
     </g>
    </g>
    <g id="ytick_6">
     <g id="line2d_61">
      <path clip-path="url(#p6881bdc73b)" d="M 57.6 295.894063 
L 414.72 295.894063 
" style="fill:none;stroke:#b0b0b0;stroke-linecap:square;stroke-width:0.8;"/>
     </g>
     <g id="line2d_62">
      <defs>
       <path d="M 0 0 
L -2 0 
" id="md33d756206" style="stroke:#000000;stroke-width:0.6;"/>
      </defs>
      <g>
       <use style="stroke:#000000;stroke-width:0.6;" x="57.6" xlink:href="#md33d756206" y="295.894063"/>
      </g>
     </g>
    </g>
    <g id="ytick_7">
     <g id="line2d_63">
      <path clip-path="url(#p6881bdc73b)" d="M 57.6 284.481606 
L 414.72 284.481606 
" style="fill:none;stroke:#b0b0b0;stroke-linecap:square;stroke-width:0.8;"/>
     </g>
     <g id="line2d_64">
      <g>
       <use style="stroke:#000000;stroke-width:0.6;" x="57.6" xlink:href="#md33d756206" y="284.481606"/>
      </g>
     </g>
    </g>
    <g id="ytick_8">
     <g id="line2d_65">
      <path clip-path="url(#p6881bdc73b)" d="M 57.6 273.069148 
L 414.72 273.069148 
" style="fill:none;stroke:#b0b0b0;stroke-linecap:square;stroke-width:0.8;"/>
     </g>
     <g id="line2d_66">
      <g>
       <use style="stroke:#000000;stroke-width:0.6;" x="57.6" xlink:href="#md33d756206" y="273.069148"/>
      </g>
     </g>
    </g>
    <g id="ytick_9">
     <g id="line2d_67">
      <path clip-path="url(#p6881bdc73b)" d="M 57.6 261.656691 
L 414.72 261.656691 
" style="fill:none;stroke:#b0b0b0;stroke-linecap:square;stroke-width:0.8;"/>
     </g>
     <g id="line2d_68">
      <g>
       <use style="stroke:#000000;stroke-width:0.6;" x="57.6" xlink:href="#md33d756206" y="261.656691"/>
      </g>
     </g>
    </g>
    <g id="ytick_10">
     <g id="line2d_69">
      <path clip-path="url(#p6881bdc73b)" d="M 57.6 238.831775 
L 414.72 238.831775 
" style="fill:none;stroke:#b0b0b0;stroke-linecap:square;stroke-width:0.8;"/>
     </g>
     <g id="line2d_70">
      <g>
       <use style="stroke:#000000;stroke-width:0.6;" x="57.6" xlink:href="#md33d756206" y="238.831775"/>
      </g>
     </g>
    </g>
    <g id="ytick_11">
     <g id="line2d_71">
      <path clip-path="url(#p6881bdc73b)" d="M 57.6 227.419318 
L 414.72 227.419318 
" style="fill:none;stroke:#b0b0b0;stroke-linecap:square;stroke-width:0.8;"/>
     </g>
     <g id="line2d_72">
      <g>
       <use style="stroke:#000000;stroke-width:0.6;" x="57.6" xlink:href="#md33d756206" y="227.419318"/>
      </g>
     </g>
    </g>
    <g id="ytick_12">
     <g id="line2d_73">
      <path clip-path="url(#p6881bdc73b)" d="M 57.6 216.00686 
L 414.72 216.00686 
" style="fill:none;stroke:#b0b0b0;stroke-linecap:square;stroke-width:0.8;"/>
     </g>
     <g id="line2d_74">
      <g>
       <use style="stroke:#000000;stroke-width:0.6;" x="57.6" xlink:href="#md33d756206" y="216.00686"/>
      </g>
     </g>
    </g>
    <g id="ytick_13">
     <g id="line2d_75">
      <path clip-path="url(#p6881bdc73b)" d="M 57.6 204.594403 
L 414.72 204.594403 
" style="fill:none;stroke:#b0b0b0;stroke-linecap:square;stroke-width:0.8;"/>
     </g>
     <g id="line2d_76">
      <g>
       <use style="stroke:#000000;stroke-width:0.6;" x="57.6" xlink:href="#md33d756206" y="204.594403"/>
      </g>
     </g>
    </g>
    <g id="ytick_14">
     <g id="line2d_77">
      <path clip-path="url(#p6881bdc73b)" d="M 57.6 181.769488 
L 414.72 181.769488 
" style="fill:none;stroke:#b0b0b0;stroke-linecap:square;stroke-width:0.8;"/>
     </g>
     <g id="line2d_78">
      <g>
       <use style="stroke:#000000;stroke-width:0.6;" x="57.6" xlink:href="#md33d756206" y="181.769488"/>
      </g>
     </g>
    </g>
    <g id="ytick_15">
     <g id="line2d_79">
      <path clip-path="url(#p6881bdc73b)" d="M 57.6 170.35703 
L 414.72 170.35703 
" style="fill:none;stroke:#b0b0b0;stroke-linecap:square;stroke-width:0.8;"/>
     </g>
     <g id="line2d_80">
      <g>
       <use style="stroke:#000000;stroke-width:0.6;" x="57.6" xlink:href="#md33d756206" y="170.35703"/>
      </g>
     </g>
    </g>
    <g id="ytick_16">
     <g id="line2d_81">
      <path clip-path="url(#p6881bdc73b)" d="M 57.6 158.944573 
L 414.72 158.944573 
" style="fill:none;stroke:#b0b0b0;stroke-linecap:square;stroke-width:0.8;"/>
     </g>
     <g id="line2d_82">
      <g>
       <use style="stroke:#000000;stroke-width:0.6;" x="57.6" xlink:href="#md33d756206" y="158.944573"/>
      </g>
     </g>
    </g>
    <g id="ytick_17">
     <g id="line2d_83">
      <path clip-path="url(#p6881bdc73b)" d="M 57.6 147.532115 
L 414.72 147.532115 
" style="fill:none;stroke:#b0b0b0;stroke-linecap:square;stroke-width:0.8;"/>
     </g>
     <g id="line2d_84">
      <g>
       <use style="stroke:#000000;stroke-width:0.6;" x="57.6" xlink:href="#md33d756206" y="147.532115"/>
      </g>
     </g>
    </g>
    <g id="ytick_18">
     <g id="line2d_85">
      <path clip-path="url(#p6881bdc73b)" d="M 57.6 124.7072 
L 414.72 124.7072 
" style="fill:none;stroke:#b0b0b0;stroke-linecap:square;stroke-width:0.8;"/>
     </g>
     <g id="line2d_86">
      <g>
       <use style="stroke:#000000;stroke-width:0.6;" x="57.6" xlink:href="#md33d756206" y="124.7072"/>
      </g>
     </g>
    </g>
    <g id="ytick_19">
     <g id="line2d_87">
      <path clip-path="url(#p6881bdc73b)" d="M 57.6 113.294742 
L 414.72 113.294742 
" style="fill:none;stroke:#b0b0b0;stroke-linecap:square;stroke-width:0.8;"/>
     </g>
     <g id="line2d_88">
      <g>
       <use style="stroke:#000000;stroke-width:0.6;" x="57.6" xlink:href="#md33d756206" y="113.294742"/>
      </g>
     </g>
    </g>
    <g id="ytick_20">
     <g id="line2d_89">
      <path clip-path="url(#p6881bdc73b)" d="M 57.6 101.882285 
L 414.72 101.882285 
" style="fill:none;stroke:#b0b0b0;stroke-linecap:square;stroke-width:0.8;"/>
     </g>
     <g id="line2d_90">
      <g>
       <use style="stroke:#000000;stroke-width:0.6;" x="57.6" xlink:href="#md33d756206" y="101.882285"/>
      </g>
     </g>
    </g>
    <g id="ytick_21">
     <g id="line2d_91">
      <path clip-path="url(#p6881bdc73b)" d="M 57.6 90.469827 
L 414.72 90.469827 
" style="fill:none;stroke:#b0b0b0;stroke-linecap:square;stroke-width:0.8;"/>
     </g>
     <g id="line2d_92">
      <g>
       <use style="stroke:#000000;stroke-width:0.6;" x="57.6" xlink:href="#md33d756206" y="90.469827"/>
      </g>
     </g>
    </g>
    <g id="ytick_22">
     <g id="line2d_93">
      <path clip-path="url(#p6881bdc73b)" d="M 57.6 67.644912 
L 414.72 67.644912 
" style="fill:none;stroke:#b0b0b0;stroke-linecap:square;stroke-width:0.8;"/>
     </g>
     <g id="line2d_94">
      <g>
       <use style="stroke:#000000;stroke-width:0.6;" x="57.6" xlink:href="#md33d756206" y="67.644912"/>
      </g>
     </g>
    </g>
    <g id="ytick_23">
     <g id="line2d_95">
      <path clip-path="url(#p6881bdc73b)" d="M 57.6 56.232455 
L 414.72 56.232455 
" style="fill:none;stroke:#b0b0b0;stroke-linecap:square;stroke-width:0.8;"/>
     </g>
     <g id="line2d_96">
      <g>
       <use style="stroke:#000000;stroke-width:0.6;" x="57.6" xlink:href="#md33d756206" y="56.232455"/>
      </g>
     </g>
    </g>
    <g id="ytick_24">
     <g id="line2d_97">
      <path clip-path="url(#p6881bdc73b)" d="M 57.6 44.819997 
L 414.72 44.819997 
" style="fill:none;stroke:#b0b0b0;stroke-linecap:square;stroke-width:0.8;"/>
     </g>
     <g id="line2d_98">
      <g>
       <use style="stroke:#000000;stroke-width:0.6;" x="57.6" xlink:href="#md33d756206" y="44.819997"/>
      </g>
     </g>
    </g>
    <g id="text_12">
     <!-- trans z -->
     <defs>
      <path d="M 18.3125 70.21875 
L 18.3125 54.6875 
L 36.8125 54.6875 
L 36.8125 47.703125 
L 18.3125 47.703125 
L 18.3125 18.015625 
Q 18.3125 11.328125 20.140625 9.421875 
Q 21.96875 7.515625 27.59375 7.515625 
L 36.8125 7.515625 
L 36.8125 0 
L 27.59375 0 
Q 17.1875 0 13.234375 3.875 
Q 9.28125 7.765625 9.28125 18.015625 
L 9.28125 47.703125 
L 2.6875 47.703125 
L 2.6875 54.6875 
L 9.28125 54.6875 
L 9.28125 70.21875 
z
" id="DejaVuSans-74"/>
      <path d="M 54.890625 33.015625 
L 54.890625 0 
L 45.90625 0 
L 45.90625 32.71875 
Q 45.90625 40.484375 42.875 44.328125 
Q 39.84375 48.1875 33.796875 48.1875 
Q 26.515625 48.1875 22.3125 43.546875 
Q 18.109375 38.921875 18.109375 30.90625 
L 18.109375 0 
L 9.078125 0 
L 9.078125 54.6875 
L 18.109375 54.6875 
L 18.109375 46.1875 
Q 21.34375 51.125 25.703125 53.5625 
Q 30.078125 56 35.796875 56 
Q 45.21875 56 50.046875 50.171875 
Q 54.890625 44.34375 54.890625 33.015625 
z
" id="DejaVuSans-6e"/>
      <path d="M 44.28125 53.078125 
L 44.28125 44.578125 
Q 40.484375 46.53125 36.375 47.5 
Q 32.28125 48.484375 27.875 48.484375 
Q 21.1875 48.484375 17.84375 46.4375 
Q 14.5 44.390625 14.5 40.28125 
Q 14.5 37.15625 16.890625 35.375 
Q 19.28125 33.59375 26.515625 31.984375 
L 29.59375 31.296875 
Q 39.15625 29.25 43.1875 25.515625 
Q 47.21875 21.78125 47.21875 15.09375 
Q 47.21875 7.46875 41.1875 3.015625 
Q 35.15625 -1.421875 24.609375 -1.421875 
Q 20.21875 -1.421875 15.453125 -0.5625 
Q 10.6875 0.296875 5.421875 2 
L 5.421875 11.28125 
Q 10.40625 8.6875 15.234375 7.390625 
Q 20.0625 6.109375 24.8125 6.109375 
Q 31.15625 6.109375 34.5625 8.28125 
Q 37.984375 10.453125 37.984375 14.40625 
Q 37.984375 18.0625 35.515625 20.015625 
Q 33.0625 21.96875 24.703125 23.78125 
L 21.578125 24.515625 
Q 13.234375 26.265625 9.515625 29.90625 
Q 5.8125 33.546875 5.8125 39.890625 
Q 5.8125 47.609375 11.28125 51.796875 
Q 16.75 56 26.8125 56 
Q 31.78125 56 36.171875 55.265625 
Q 40.578125 54.546875 44.28125 53.078125 
z
" id="DejaVuSans-73"/>
      <path d="M 5.515625 54.6875 
L 48.1875 54.6875 
L 48.1875 46.484375 
L 14.40625 7.171875 
L 48.1875 7.171875 
L 48.1875 0 
L 4.296875 0 
L 4.296875 8.203125 
L 38.09375 47.515625 
L 5.515625 47.515625 
z
" id="DejaVuSans-7a"/>
     </defs>
     <g transform="translate(13.875 191.594406)rotate(-90)scale(0.1 -0.1)">
      <use xlink:href="#DejaVuSans-74"/>
      <use x="39.208984" xlink:href="#DejaVuSans-72"/>
      <use x="80.322266" xlink:href="#DejaVuSans-61"/>
      <use x="141.601562" xlink:href="#DejaVuSans-6e"/>
      <use x="204.980469" xlink:href="#DejaVuSans-73"/>
      <use x="257.080078" xlink:href="#DejaVuSans-20"/>
      <use x="288.867188" xlink:href="#DejaVuSans-7a"/>
     </g>
    </g>
   </g>
   <g id="line2d_99">
    <path clip-path="url(#p6881bdc73b)" d="M 73.832727 65.077999 
L 74.524971 70.436985 
L 75.217208 86.276233 
L 75.90628 84.803433 
L 76.598517 95.232026 
L 77.290754 95.184569 
L 77.982991 80.181992 
L 78.6751 82.551566 
L 79.367337 75.093844 
L 80.059581 76.37732 
L 80.751818 81.911035 
L 81.446481 90.961248 
L 82.138725 76.722732 
L 82.830962 76.380371 
L 83.523199 75.200866 
L 84.216653 80.302502 
L 84.908883 90.533025 
L 85.601147 106.361661 
L 86.293364 86.273062 
L 86.985656 83.455953 
L 87.675135 90.043062 
L 88.367373 98.563833 
L 89.05961 88.601736 
L 89.751847 120.886362 
L 90.441987 107.852527 
L 91.13423 141.629877 
L 91.826467 195.254298 
L 92.518705 157.429083 
L 93.209773 194.387944 
L 93.902011 175.255433 
L 94.594254 193.350426 
L 95.286491 167.692444 
L 95.979336 157.262677 
L 96.671581 84.62556 
L 97.363819 72.779281 
L 98.056056 76.126943 
L 98.749362 53.568 
L 99.44205 65.030784 
M 102.901478 213.82608 
L 103.593715 213.660332 
L 104.284797 286.164864 
L 104.977035 269.500097 
M 108.439825 198.652774 
L 109.132062 165.624995 
L 109.824962 166.138259 
L 110.517208 147.993211 
L 111.209437 219.139824 
L 111.901674 209.785576 
L 112.593675 241.689644 
L 113.285912 252.20947 
L 113.978149 248.192957 
L 114.670387 238.485105 
M 116.054209 193.204637 
L 116.746446 285.906012 
L 117.438683 275.968333 
L 118.130907 255.394203 
L 119.515395 187.560757 
L 120.207625 112.619623 
L 120.899869 119.937037 
L 122.286816 79.729123 
L 122.97906 65.276497 
L 123.67129 87.534606 
L 124.363909 122.091292 
M 125.748383 149.144395 
L 126.44062 211.484314 
L 127.129632 236.967395 
L 127.82187 275.238709 
L 128.514107 213.247552 
L 129.206344 201.457603 
L 129.89967 195.363752 
L 130.591908 155.769051 
L 131.284145 127.726083 
L 131.976389 114.358279 
L 132.670814 90.431669 
L 133.363058 71.253951 
L 134.055295 67.115993 
L 135.437802 106.95297 
L 136.130039 150.412881 
L 136.822277 170.431849 
L 137.514514 236.61025 
L 138.204709 201.761885 
L 138.896947 243.323931 
L 139.589184 226.516406 
L 140.281421 236.637558 
L 140.976101 240.733488 
M 142.360573 160.395729 
L 143.05281 105.952555 
L 143.744756 154.635881 
M 152.05041 127.46075 
L 152.743731 129.128963 
L 153.435969 143.184519 
L 154.128206 172.991536 
L 154.820443 212.104608 
M 158.97158 235.824653 
L 159.663852 264.985576 
L 160.356055 223.349865 
L 161.051271 202.76536 
L 161.743508 188.235462 
L 162.435745 194.45039 
L 163.127989 184.002191 
L 163.818557 210.364349 
M 170.740931 136.620055 
L 171.433168 105.025843 
L 172.125831 109.831968 
L 172.818048 128.598065 
L 173.510286 166.195947 
M 174.892987 210.78002 
L 175.585225 229.999331 
L 176.277462 206.080357 
L 176.969699 232.17816 
L 177.662487 227.526304 
M 179.046962 168.70117 
L 179.739205 203.173155 
M 181.126297 170.711007 
L 181.818534 166.699083 
L 182.510778 175.004132 
L 183.200632 211.072086 
L 183.892876 227.493119 
M 197.738917 162.244851 
L 198.431154 151.018731 
L 199.123391 114.59594 
L 199.815628 93.654417 
L 200.508823 84.209451 
L 201.20106 129.360814 
L 201.893304 146.790936 
L 202.585541 187.630938 
L 203.275538 217.750081 
L 203.967776 201.458546 
L 204.660013 268.40906 
L 205.35225 152.125475 
L 206.044672 202.863239 
L 206.736909 224.648451 
L 207.429146 208.53695 
L 208.121383 160.130104 
L 208.815873 146.854069 
L 209.50811 149.949972 
M 210.892585 191.291098 
L 211.583861 243.978357 
L 212.276099 256.75982 
L 212.968342 262.940599 
L 213.66058 256.063219 
L 214.351919 183.75123 
L 215.044156 269.79063 
M 216.428631 193.449126 
L 217.120874 150.822633 
L 217.814995 146.970412 
L 218.507232 134.010823 
L 219.199469 158.900787 
L 219.891706 178.38356 
L 220.58497 213.711321 
L 221.277214 267.406022 
L 221.969824 245.83441 
L 222.661681 229.384407 
L 223.354881 257.443263 
L 224.047124 242.883382 
L 224.739362 269.303115 
L 226.123329 233.512496 
L 226.815566 227.35663 
L 227.507804 191.572879 
L 228.200041 176.102822 
L 228.892598 127.635993 
L 229.584835 110.334458 
L 230.277072 98.294134 
L 230.96931 91.991901 
L 231.661953 104.476614 
L 232.35419 137.015271 
L 233.046427 113.027989 
L 233.738664 132.544662 
L 234.434318 160.935921 
L 235.126562 151.418494 
L 235.818799 156.535027 
L 236.511036 139.912141 
L 237.205725 176.765752 
L 237.897963 238.700641 
L 238.5902 175.597212 
L 239.282437 168.102747 
M 240.658539 181.109054 
L 241.350776 204.196342 
L 242.735331 170.761403 
L 244.119806 123.96113 
L 244.812043 90.258748 
L 245.504977 106.419574 
L 246.197214 76.073737 
L 246.889449 102.117373 
L 248.274878 97.870098 
L 248.967115 100.664839 
L 250.351589 120.931802 
L 251.043826 136.956965 
L 251.736771 166.788935 
M 253.121246 162.822648 
L 253.81349 187.990126 
M 256.577429 250.091183 
L 257.269926 270.295128 
L 257.962163 162.089135 
L 258.6544 165.540688 
L 259.346637 179.691676 
L 260.040695 88.06309 
L 260.732932 161.364336 
L 261.425169 119.608549 
L 262.117406 90.985406 
L 262.80931 78.516442 
L 263.501547 97.470021 
L 264.193784 141.572804 
L 264.886021 131.932668 
M 320.268821 175.004149 
L 320.961058 209.540696 
M 324.419095 201.978697 
L 325.112821 234.382819 
L 325.805058 229.426271 
L 326.497302 245.694858 
M 327.884744 190.65517 
L 328.576974 147.24105 
L 329.269218 191.732119 
L 329.961455 147.813765 
M 331.346218 149.236198 
L 332.037944 156.500655 
L 332.730181 119.291218 
L 333.422638 106.12517 
L 334.114875 121.891841 
M 339.651661 91.722386 
L 340.343899 104.505118 
L 341.036136 105.619748 
L 341.726718 116.073342 
L 342.418955 120.838902 
L 343.111192 124.495636 
L 343.803429 157.129784 
M 368.030296 248.987538 
L 368.722533 231.802034 
L 369.41477 233.931465 
L 370.107983 208.187275 
M 374.95463 151.087202 
L 375.647823 161.826849 
M 383.260573 144.082956 
L 383.952811 125.742998 
L 384.644637 123.433571 
M 388.104412 155.196007 
L 388.796657 143.024098 
M 390.179932 155.010992 
L 390.872169 160.20691 
L 391.564426 172.331504 
L 391.564426 172.331504 
" style="fill:none;stroke:#ff0000;stroke-linecap:square;"/>
   </g>
   <g id="line2d_100">
    <path clip-path="url(#p6881bdc73b)" d="M 73.832727 66.79133 
L 74.524971 70.582143 
L 75.217208 87.320128 
L 75.90628 87.921435 
L 76.598517 94.572916 
L 77.290754 92.974676 
L 77.982991 82.428672 
L 78.6751 77.810925 
L 79.367337 75.390022 
L 80.059581 75.501913 
L 80.751818 85.059324 
L 81.446481 84.188682 
L 82.138725 77.253492 
L 82.830962 80.410257 
L 83.523199 79.188835 
L 84.216653 81.314907 
L 84.908883 89.920246 
L 85.601147 89.074278 
L 86.293364 82.343176 
L 86.985656 84.466899 
L 88.367373 97.353419 
L 89.05961 91.092047 
L 89.751847 86.894997 
L 90.441987 101.786256 
L 91.826467 148.610196 
L 92.518705 166.616245 
L 93.209773 173.936342 
L 94.594254 181.842395 
L 95.286491 172.893441 
L 95.979336 153.276563 
L 98.056056 65.893096 
L 98.749362 55.147869 
L 99.44205 55.080938 
M 102.901478 205.69306 
L 104.284797 271.063022 
L 104.977035 290.66947 
M 108.439825 205.075479 
L 109.132062 176.977483 
L 109.824962 163.103596 
L 110.517208 161.088631 
L 111.209437 167.779924 
L 111.901674 184.118586 
L 112.593675 208.116129 
L 113.978149 245.815545 
L 114.670387 258.529135 
M 116.054209 267.641603 
L 116.746446 270.414867 
L 117.438683 270.890013 
L 118.130907 265.554905 
L 118.823151 243.221618 
L 120.207625 168.453321 
L 120.899869 126.091055 
L 121.594579 92.019868 
L 122.286816 75.429262 
L 122.97906 70.2546 
L 123.67129 88.195922 
L 124.363909 118.688803 
M 125.748383 184.393579 
L 127.129632 248.077665 
L 127.82187 260.938686 
L 128.514107 250.444397 
L 129.89967 193.93232 
L 131.284145 124.782866 
L 131.976389 97.95125 
L 132.670814 79.26393 
L 133.363058 68.337243 
L 134.055295 67.981494 
L 134.747532 80.091725 
L 135.437802 102.625628 
L 136.822277 167.563522 
L 138.204709 202.113373 
L 138.896947 215.909353 
L 139.589184 224.159447 
L 140.281421 223.403241 
L 140.976101 214.157715 
M 142.360573 174.992697 
L 143.05281 159.810926 
L 143.744756 156.770183 
M 152.05041 118.568216 
L 152.743731 119.182945 
L 154.128206 164.250933 
L 154.820443 195.721619 
M 158.97158 254.176255 
L 159.663852 239.065173 
L 160.356055 226.80538 
L 161.743508 211.4388 
L 162.435745 203.207861 
L 163.127989 196.511591 
L 163.818557 199.532224 
M 170.740931 132.947149 
L 171.433168 112.974672 
L 172.125831 108.912298 
L 172.818048 128.153776 
L 173.510286 157.238695 
M 174.892987 201.003908 
L 175.585225 215.350731 
L 176.277462 213.526853 
L 176.969699 211.324955 
L 177.662487 220.96549 
M 179.046962 213.268998 
L 179.739205 197.977453 
M 181.126297 175.213423 
L 181.818534 178.55109 
L 182.510778 188.188938 
L 183.200632 206.949022 
L 183.892876 231.688656 
M 197.738917 186.831018 
L 199.815628 94.538891 
L 200.508823 95.521342 
L 201.20106 113.946285 
L 202.585541 173.633015 
L 203.275538 197.570322 
L 204.660013 234.045319 
L 205.35225 243.062511 
L 206.044672 233.051621 
L 206.736909 216.649655 
L 207.429146 192.128707 
L 208.121383 163.336449 
L 208.815873 147.160375 
L 209.50811 150.383234 
M 210.892585 199.365018 
L 211.583861 224.617019 
L 212.276099 245.449414 
L 212.968342 256.548324 
L 213.66058 259.481258 
L 214.351919 255.771218 
L 215.044156 241.117096 
M 216.428631 202.440508 
L 217.120874 169.73062 
L 217.814995 144.604869 
L 218.507232 133.082994 
L 219.199469 145.234651 
L 221.277214 248.903484 
L 221.969824 267.98469 
L 222.661681 272.596164 
L 223.354881 269.936512 
L 224.047124 265.921831 
L 224.739362 258.450186 
L 225.431599 249.371113 
L 226.123329 233.322893 
L 226.815566 213.042775 
L 227.507804 186.746083 
L 228.200041 167.088347 
L 229.584835 114.599268 
L 230.277072 101.720167 
L 230.96931 93.689987 
L 231.661953 95.81488 
L 232.35419 100.996555 
L 233.046427 113.657498 
L 234.434318 149.981372 
L 235.126562 161.967659 
L 235.818799 165.235412 
L 236.511036 169.924821 
L 237.205725 173.436225 
L 237.897963 168.387594 
L 238.5902 161.043657 
L 239.282437 161.580832 
M 240.658539 196.691166 
L 241.350776 206.600886 
L 242.043013 200.623111 
L 242.735331 178.995563 
L 243.427569 150.493526 
L 244.119806 126.569816 
L 244.812043 110.523341 
L 245.504977 108.396968 
L 246.197214 104.367902 
L 246.889449 101.17695 
L 247.581686 100.396595 
L 248.274878 101.190062 
L 248.967115 104.262013 
L 249.659352 113.57968 
L 250.351589 121.131694 
L 251.043826 131.142073 
L 251.736771 147.837309 
M 253.121246 192.048902 
L 253.81349 217.515171 
M 256.577429 218.138045 
L 257.269926 213.124854 
L 257.962163 218.070176 
L 258.6544 216.263195 
L 259.346637 212.12796 
L 260.040695 196.499327 
L 262.117406 92.291366 
L 262.80931 83.830419 
L 263.501547 85.770947 
L 264.193784 98.356686 
L 264.886021 123.441855 
M 320.268821 167.985512 
L 320.961058 197.259671 
M 324.419095 223.562037 
L 325.112821 236.073899 
L 325.805058 245.439599 
L 326.497302 246.863141 
M 327.884744 191.122743 
L 328.576974 172.599182 
L 329.269218 169.168309 
L 329.961455 166.852323 
M 331.346218 145.366515 
L 332.730181 114.201886 
L 333.422638 113.136553 
L 334.114875 128.121953 
M 339.651661 102.713835 
L 340.343899 105.736836 
L 341.036136 107.316413 
L 341.726718 112.296405 
L 342.418955 122.013638 
L 343.111192 129.430372 
L 343.803429 130.615529 
M 368.030296 246.530419 
L 368.722533 241.91353 
L 370.107983 224.095067 
M 374.95463 170.037903 
L 375.647823 171.101992 
M 383.260573 144.083796 
L 383.952811 127.284928 
L 384.644637 122.366968 
M 388.104412 147.720396 
L 388.796657 149.290471 
M 390.179932 159.260302 
L 391.564426 169.339606 
L 391.564426 169.339606 
" style="fill:none;stroke:#0000ff;stroke-linecap:square;"/>
   </g>
   <g id="line2d_101">
    <path clip-path="url(#p6881bdc73b)" d="M 101.516997 145.065957 
L 102.209241 175.341943 
M 107.05535 273.925889 
L 107.747587 241.647761 
M 144.436993 163.083751 
L 145.821474 194.405735 
L 146.511257 198.909945 
L 147.203494 195.313087 
L 147.895731 194.715775 
L 148.588378 191.849732 
L 149.281455 177.265695 
M 150.665929 147.207555 
L 151.358166 131.265774 
M 155.510224 223.713475 
L 156.20247 243.053334 
L 156.894699 251.13876 
L 157.586944 253.67651 
L 158.279343 257.602557 
M 164.510795 206.299154 
L 165.203032 212.77432 
M 169.356457 182.14946 
L 170.048694 155.069051 
M 184.585113 243.424153 
L 185.2776 240.342703 
L 185.969588 232.793024 
M 187.353692 210.057567 
L 188.045929 193.321249 
L 188.738167 180.814098 
M 192.199235 234.893832 
L 192.891481 249.985535 
L 193.583718 255.799511 
M 194.967935 244.921443 
L 195.660172 235.660338 
L 196.352409 230.959 
L 197.044646 210.287654 
M 265.576308 151.260506 
L 266.268553 175.198041 
L 266.960791 194.395116 
L 267.653028 203.216371 
L 268.344813 206.639712 
L 269.03705 210.86736 
L 269.729287 212.830611 
L 271.116285 226.428192 
L 271.808522 230.518591 
L 273.192996 241.588404 
L 273.886626 244.699053 
M 275.271101 221.435603 
L 275.963338 207.690182 
L 276.655785 200.125381 
L 277.348022 198.222185 
L 278.040266 189.222272 
L 278.732503 185.710249 
L 279.422083 180.468025 
L 280.11432 177.173254 
M 281.498794 148.472353 
L 282.192431 142.928472 
L 282.885262 150.542043 
L 283.576905 169.652637 
L 284.269143 179.978379 
L 284.961386 177.828344 
L 285.652297 173.192119 
L 287.036771 171.480358 
L 287.729008 171.228154 
L 288.421904 172.199838 
L 289.114148 170.607051 
L 289.806385 167.741742 
L 290.498622 169.147931 
L 291.190092 171.103502 
L 291.882329 165.279744 
L 292.574566 153.776633 
L 293.266803 163.910484 
L 293.961207 183.110188 
L 295.345682 231.98783 
L 296.037925 243.704443 
L 296.728311 239.205665 
L 297.420548 216.675746 
L 298.112785 176.437398 
L 298.805022 149.475024 
L 299.500625 142.889103 
L 300.192862 158.775329 
L 300.885099 178.898444 
L 301.577343 192.648336 
L 302.26739 198.259471 
L 302.959621 192.74558 
L 303.651864 180.411783 
L 304.344095 170.175817 
L 305.037283 176.791168 
L 305.72952 187.046693 
L 306.421757 186.324464 
L 307.114493 164.848663 
L 308.496983 111.049561 
L 309.18922 103.281834 
L 309.881458 119.223219 
L 311.268039 170.551869 
L 311.960277 184.177736 
L 312.65252 185.565724 
L 313.343492 179.693932 
L 314.035729 182.235199 
L 314.727973 185.325472 
L 315.42021 183.405994 
L 316.112447 166.647356 
L 317.496096 109.931162 
L 318.188333 102.762251 
L 318.880571 113.377436 
L 319.576584 139.933202 
M 321.653295 213.340529 
L 322.342377 215.215377 
L 323.034614 213.728868 
L 323.726858 214.452923 
M 334.807119 150.77414 
L 335.499356 164.159579 
L 336.190619 158.264414 
L 338.267337 116.233408 
L 338.959426 106.080436 
M 344.492933 126.911654 
L 346.569651 100.522081 
L 347.262064 94.348215 
L 347.953989 99.989139 
L 348.646226 120.037216 
L 349.338463 147.893813 
L 350.0307 162.793786 
L 351.414505 177.727045 
L 352.106742 180.4628 
L 352.798979 177.226787 
L 353.491776 165.530089 
M 354.87625 133.028251 
L 355.569124 138.590562 
L 356.26317 154.310203 
L 357.647653 214.205311 
M 360.414189 247.545694 
L 361.106426 259.685858 
L 361.799274 266.258904 
L 362.491511 270.229463 
L 363.183748 267.62806 
L 363.875985 256.960649 
M 365.260626 246.797663 
L 365.952863 244.004317 
L 366.6451 246.78144 
L 367.338052 249.039065 
M 370.80022 217.958698 
L 371.492457 214.610547 
L 372.184694 209.991832 
L 372.877912 203.56477 
L 374.262395 174.196705 
M 376.34006 170.060527 
L 377.032291 170.671041 
M 380.492239 149.032425 
L 381.184476 151.112018 
L 381.876099 150.899718 
L 382.568336 149.793607 
M 385.336874 132.149186 
L 386.029111 139.245536 
L 386.721348 145.046507 
L 387.412183 146.863421 
M 392.256643 172.075503 
L 392.948735 180.95584 
L 394.333209 193.529894 
L 395.717867 198.474719 
L 396.410104 197.704588 
L 397.102341 196.662842 
L 397.794578 191.873368 
L 398.487273 188.894929 
L 398.487273 188.894929 
" style="fill:none;stroke:#008000;stroke-linecap:square;"/>
   </g>
   <g id="patch_3">
    <path d="M 57.6 307.584 
L 57.6 41.472 
" style="fill:none;stroke:#000000;stroke-linecap:square;stroke-linejoin:miter;stroke-width:0.8;"/>
   </g>
   <g id="patch_4">
    <path d="M 414.72 307.584 
L 414.72 41.472 
" style="fill:none;stroke:#000000;stroke-linecap:square;stroke-linejoin:miter;stroke-width:0.8;"/>
   </g>
   <g id="patch_5">
    <path d="M 57.6 307.584 
L 414.72 307.584 
" style="fill:none;stroke:#000000;stroke-linecap:square;stroke-linejoin:miter;stroke-width:0.8;"/>
   </g>
   <g id="patch_6">
    <path d="M 57.6 41.472 
L 414.72 41.472 
" style="fill:none;stroke:#000000;stroke-linecap:square;stroke-linejoin:miter;stroke-width:0.8;"/>
   </g>
   <g id="text_13">
    <!-- Rel Gt Trans Z Plot -->
    <defs>
     <path d="M 44.390625 34.1875 
Q 47.5625 33.109375 50.5625 29.59375 
Q 53.5625 26.078125 56.59375 19.921875 
L 66.609375 0 
L 56 0 
L 46.6875 18.703125 
Q 43.0625 26.03125 39.671875 28.421875 
Q 36.28125 30.8125 30.421875 30.8125 
L 19.671875 30.8125 
L 19.671875 0 
L 9.8125 0 
L 9.8125 72.90625 
L 32.078125 72.90625 
Q 44.578125 72.90625 50.734375 67.671875 
Q 56.890625 62.453125 56.890625 51.90625 
Q 56.890625 45.015625 53.6875 40.46875 
Q 50.484375 35.9375 44.390625 34.1875 
z
M 19.671875 64.796875 
L 19.671875 38.921875 
L 32.078125 38.921875 
Q 39.203125 38.921875 42.84375 42.21875 
Q 46.484375 45.515625 46.484375 51.90625 
Q 46.484375 58.296875 42.84375 61.546875 
Q 39.203125 64.796875 32.078125 64.796875 
z
" id="DejaVuSans-52"/>
     <path d="M 9.421875 75.984375 
L 18.40625 75.984375 
L 18.40625 0 
L 9.421875 0 
z
" id="DejaVuSans-6c"/>
     <path d="M 59.515625 10.40625 
L 59.515625 29.984375 
L 43.40625 29.984375 
L 43.40625 38.09375 
L 69.28125 38.09375 
L 69.28125 6.78125 
Q 63.578125 2.734375 56.6875 0.65625 
Q 49.8125 -1.421875 42 -1.421875 
Q 24.90625 -1.421875 15.25 8.5625 
Q 5.609375 18.5625 5.609375 36.375 
Q 5.609375 54.25 15.25 64.234375 
Q 24.90625 74.21875 42 74.21875 
Q 49.125 74.21875 55.546875 72.453125 
Q 61.96875 70.703125 67.390625 67.28125 
L 67.390625 56.78125 
Q 61.921875 61.421875 55.765625 63.765625 
Q 49.609375 66.109375 42.828125 66.109375 
Q 29.4375 66.109375 22.71875 58.640625 
Q 16.015625 51.171875 16.015625 36.375 
Q 16.015625 21.625 22.71875 14.15625 
Q 29.4375 6.6875 42.828125 6.6875 
Q 48.046875 6.6875 52.140625 7.59375 
Q 56.25 8.5 59.515625 10.40625 
z
" id="DejaVuSans-47"/>
     <path d="M -0.296875 72.90625 
L 61.375 72.90625 
L 61.375 64.59375 
L 35.5 64.59375 
L 35.5 0 
L 25.59375 0 
L 25.59375 64.59375 
L -0.296875 64.59375 
z
" id="DejaVuSans-54"/>
     <path d="M 5.609375 72.90625 
L 62.890625 72.90625 
L 62.890625 65.375 
L 16.796875 8.296875 
L 64.015625 8.296875 
L 64.015625 0 
L 4.5 0 
L 4.5 7.515625 
L 50.59375 64.59375 
L 5.609375 64.59375 
z
" id="DejaVuSans-5a"/>
     <path d="M 19.671875 64.796875 
L 19.671875 37.40625 
L 32.078125 37.40625 
Q 38.96875 37.40625 42.71875 40.96875 
Q 46.484375 44.53125 46.484375 51.125 
Q 46.484375 57.671875 42.71875 61.234375 
Q 38.96875 64.796875 32.078125 64.796875 
z
M 9.8125 72.90625 
L 32.078125 72.90625 
Q 44.34375 72.90625 50.609375 67.359375 
Q 56.890625 61.8125 56.890625 51.125 
Q 56.890625 40.328125 50.609375 34.8125 
Q 44.34375 29.296875 32.078125 29.296875 
L 19.671875 29.296875 
L 19.671875 0 
L 9.8125 0 
z
" id="DejaVuSans-50"/>
     <path d="M 30.609375 48.390625 
Q 23.390625 48.390625 19.1875 42.75 
Q 14.984375 37.109375 14.984375 27.296875 
Q 14.984375 17.484375 19.15625 11.84375 
Q 23.34375 6.203125 30.609375 6.203125 
Q 37.796875 6.203125 41.984375 11.859375 
Q 46.1875 17.53125 46.1875 27.296875 
Q 46.1875 37.015625 41.984375 42.703125 
Q 37.796875 48.390625 30.609375 48.390625 
z
M 30.609375 56 
Q 42.328125 56 49.015625 48.375 
Q 55.71875 40.765625 55.71875 27.296875 
Q 55.71875 13.875 49.015625 6.21875 
Q 42.328125 -1.421875 30.609375 -1.421875 
Q 18.84375 -1.421875 12.171875 6.21875 
Q 5.515625 13.875 5.515625 27.296875 
Q 5.515625 40.765625 12.171875 48.375 
Q 18.84375 56 30.609375 56 
z
" id="DejaVuSans-6f"/>
    </defs>
    <g transform="translate(179.865938 35.472)scale(0.12 -0.12)">
     <use xlink:href="#DejaVuSans-52"/>
     <use x="69.419922" xlink:href="#DejaVuSans-65"/>
     <use x="130.943359" xlink:href="#DejaVuSans-6c"/>
     <use x="158.726562" xlink:href="#DejaVuSans-20"/>
     <use x="190.513672" xlink:href="#DejaVuSans-47"/>
     <use x="268.003906" xlink:href="#DejaVuSans-74"/>
     <use x="307.212891" xlink:href="#DejaVuSans-20"/>
     <use x="339" xlink:href="#DejaVuSans-54"/>
     <use x="399.865234" xlink:href="#DejaVuSans-72"/>
     <use x="440.978516" xlink:href="#DejaVuSans-61"/>
     <use x="502.257812" xlink:href="#DejaVuSans-6e"/>
     <use x="565.636719" xlink:href="#DejaVuSans-73"/>
     <use x="617.736328" xlink:href="#DejaVuSans-20"/>
     <use x="649.523438" xlink:href="#DejaVuSans-5a"/>
     <use x="718.029297" xlink:href="#DejaVuSans-20"/>
     <use x="749.816406" xlink:href="#DejaVuSans-50"/>
     <use x="810.119141" xlink:href="#DejaVuSans-6c"/>
     <use x="837.902344" xlink:href="#DejaVuSans-6f"/>
     <use x="899.083984" xlink:href="#DejaVuSans-74"/>
    </g>
   </g>
  </g>
 </g>
 <defs>
  <clipPath id="p6881bdc73b">
   <rect height="266.112" width="357.12" x="57.6" y="41.472"/>
  </clipPath>
 </defs>
</svg>
