<?xml version="1.0" encoding="utf-8" standalone="no"?>
<!DOCTYPE svg PUBLIC "-//W3C//DTD SVG 1.1//EN"
  "http://www.w3.org/Graphics/SVG/1.1/DTD/svg11.dtd">
<!-- Created with matplotlib (http://matplotlib.org/) -->
<svg height="345.6pt" version="1.1" viewBox="0 0 460.8 345.6" width="460.8pt" xmlns="http://www.w3.org/2000/svg" xmlns:xlink="http://www.w3.org/1999/xlink">
 <defs>
  <style type="text/css">
*{stroke-linecap:butt;stroke-linejoin:round;}
  </style>
 </defs>
 <g id="figure_1">
  <g id="patch_1">
   <path d="M 0 345.6 
L 460.8 345.6 
L 460.8 0 
L 0 0 
z
" style="fill:#ffffff;"/>
  </g>
  <g id="axes_1">
   <g id="patch_2">
    <path d="M 57.6 307.584 
L 414.72 307.584 
L 414.72 41.472 
L 57.6 41.472 
z
" style="fill:#ffffff;"/>
   </g>
   <g id="matplotlib.axis_1">
    <g id="xtick_1">
     <g id="line2d_1">
      <path clip-path="url(#p83961ed160)" d="M 70.555248 307.584 
L 70.555248 41.472 
" style="fill:none;stroke:#b0b0b0;stroke-linecap:square;stroke-width:0.8;"/>
     </g>
     <g id="line2d_2">
      <defs>
       <path d="M 0 0 
L 0 3.5 
" id="m45d9946e99" style="stroke:#000000;stroke-width:0.8;"/>
      </defs>
      <g>
       <use style="stroke:#000000;stroke-width:0.8;" x="70.555248" xlink:href="#m45d9946e99" y="307.584"/>
      </g>
     </g>
     <g id="text_1">
      <!-- 0 -->
      <defs>
       <path d="M 31.78125 66.40625 
Q 24.171875 66.40625 20.328125 58.90625 
Q 16.5 51.421875 16.5 36.375 
Q 16.5 21.390625 20.328125 13.890625 
Q 24.171875 6.390625 31.78125 6.390625 
Q 39.453125 6.390625 43.28125 13.890625 
Q 47.125 21.390625 47.125 36.375 
Q 47.125 51.421875 43.28125 58.90625 
Q 39.453125 66.40625 31.78125 66.40625 
z
M 31.78125 74.21875 
Q 44.046875 74.21875 50.515625 64.515625 
Q 56.984375 54.828125 56.984375 36.375 
Q 56.984375 17.96875 50.515625 8.265625 
Q 44.046875 -1.421875 31.78125 -1.421875 
Q 19.53125 -1.421875 13.0625 8.265625 
Q 6.59375 17.96875 6.59375 36.375 
Q 6.59375 54.828125 13.0625 64.515625 
Q 19.53125 74.21875 31.78125 74.21875 
z
" id="DejaVuSans-30"/>
      </defs>
      <g transform="translate(67.373998 322.182437)scale(0.1 -0.1)">
       <use xlink:href="#DejaVuSans-30"/>
      </g>
     </g>
    </g>
    <g id="xtick_2">
     <g id="line2d_3">
      <path clip-path="url(#p83961ed160)" d="M 139.776886 307.584 
L 139.776886 41.472 
" style="fill:none;stroke:#b0b0b0;stroke-linecap:square;stroke-width:0.8;"/>
     </g>
     <g id="line2d_4">
      <g>
       <use style="stroke:#000000;stroke-width:0.8;" x="139.776886" xlink:href="#m45d9946e99" y="307.584"/>
      </g>
     </g>
     <g id="text_2">
      <!-- 10 -->
      <defs>
       <path d="M 12.40625 8.296875 
L 28.515625 8.296875 
L 28.515625 63.921875 
L 10.984375 60.40625 
L 10.984375 69.390625 
L 28.421875 72.90625 
L 38.28125 72.90625 
L 38.28125 8.296875 
L 54.390625 8.296875 
L 54.390625 0 
L 12.40625 0 
z
" id="DejaVuSans-31"/>
      </defs>
      <g transform="translate(133.414386 322.182437)scale(0.1 -0.1)">
       <use xlink:href="#DejaVuSans-31"/>
       <use x="63.623047" xlink:href="#DejaVuSans-30"/>
      </g>
     </g>
    </g>
    <g id="xtick_3">
     <g id="line2d_5">
      <path clip-path="url(#p83961ed160)" d="M 208.998523 307.584 
L 208.998523 41.472 
" style="fill:none;stroke:#b0b0b0;stroke-linecap:square;stroke-width:0.8;"/>
     </g>
     <g id="line2d_6">
      <g>
       <use style="stroke:#000000;stroke-width:0.8;" x="208.998523" xlink:href="#m45d9946e99" y="307.584"/>
      </g>
     </g>
     <g id="text_3">
      <!-- 20 -->
      <defs>
       <path d="M 19.1875 8.296875 
L 53.609375 8.296875 
L 53.609375 0 
L 7.328125 0 
L 7.328125 8.296875 
Q 12.9375 14.109375 22.625 23.890625 
Q 32.328125 33.6875 34.8125 36.53125 
Q 39.546875 41.84375 41.421875 45.53125 
Q 43.3125 49.21875 43.3125 52.78125 
Q 43.3125 58.59375 39.234375 62.25 
Q 35.15625 65.921875 28.609375 65.921875 
Q 23.96875 65.921875 18.8125 64.3125 
Q 13.671875 62.703125 7.8125 59.421875 
L 7.8125 69.390625 
Q 13.765625 71.78125 18.9375 73 
Q 24.125 74.21875 28.421875 74.21875 
Q 39.75 74.21875 46.484375 68.546875 
Q 53.21875 62.890625 53.21875 53.421875 
Q 53.21875 48.921875 51.53125 44.890625 
Q 49.859375 40.875 45.40625 35.40625 
Q 44.1875 33.984375 37.640625 27.21875 
Q 31.109375 20.453125 19.1875 8.296875 
z
" id="DejaVuSans-32"/>
      </defs>
      <g transform="translate(202.636023 322.182437)scale(0.1 -0.1)">
       <use xlink:href="#DejaVuSans-32"/>
       <use x="63.623047" xlink:href="#DejaVuSans-30"/>
      </g>
     </g>
    </g>
    <g id="xtick_4">
     <g id="line2d_7">
      <path clip-path="url(#p83961ed160)" d="M 278.220161 307.584 
L 278.220161 41.472 
" style="fill:none;stroke:#b0b0b0;stroke-linecap:square;stroke-width:0.8;"/>
     </g>
     <g id="line2d_8">
      <g>
       <use style="stroke:#000000;stroke-width:0.8;" x="278.220161" xlink:href="#m45d9946e99" y="307.584"/>
      </g>
     </g>
     <g id="text_4">
      <!-- 30 -->
      <defs>
       <path d="M 40.578125 39.3125 
Q 47.65625 37.796875 51.625 33 
Q 55.609375 28.21875 55.609375 21.1875 
Q 55.609375 10.40625 48.1875 4.484375 
Q 40.765625 -1.421875 27.09375 -1.421875 
Q 22.515625 -1.421875 17.65625 -0.515625 
Q 12.796875 0.390625 7.625 2.203125 
L 7.625 11.71875 
Q 11.71875 9.328125 16.59375 8.109375 
Q 21.484375 6.890625 26.8125 6.890625 
Q 36.078125 6.890625 40.9375 10.546875 
Q 45.796875 14.203125 45.796875 21.1875 
Q 45.796875 27.640625 41.28125 31.265625 
Q 36.765625 34.90625 28.71875 34.90625 
L 20.21875 34.90625 
L 20.21875 43.015625 
L 29.109375 43.015625 
Q 36.375 43.015625 40.234375 45.921875 
Q 44.09375 48.828125 44.09375 54.296875 
Q 44.09375 59.90625 40.109375 62.90625 
Q 36.140625 65.921875 28.71875 65.921875 
Q 24.65625 65.921875 20.015625 65.03125 
Q 15.375 64.15625 9.8125 62.3125 
L 9.8125 71.09375 
Q 15.4375 72.65625 20.34375 73.4375 
Q 25.25 74.21875 29.59375 74.21875 
Q 40.828125 74.21875 47.359375 69.109375 
Q 53.90625 64.015625 53.90625 55.328125 
Q 53.90625 49.265625 50.4375 45.09375 
Q 46.96875 40.921875 40.578125 39.3125 
z
" id="DejaVuSans-33"/>
      </defs>
      <g transform="translate(271.857661 322.182437)scale(0.1 -0.1)">
       <use xlink:href="#DejaVuSans-33"/>
       <use x="63.623047" xlink:href="#DejaVuSans-30"/>
      </g>
     </g>
    </g>
    <g id="xtick_5">
     <g id="line2d_9">
      <path clip-path="url(#p83961ed160)" d="M 347.441799 307.584 
L 347.441799 41.472 
" style="fill:none;stroke:#b0b0b0;stroke-linecap:square;stroke-width:0.8;"/>
     </g>
     <g id="line2d_10">
      <g>
       <use style="stroke:#000000;stroke-width:0.8;" x="347.441799" xlink:href="#m45d9946e99" y="307.584"/>
      </g>
     </g>
     <g id="text_5">
      <!-- 40 -->
      <defs>
       <path d="M 37.796875 64.3125 
L 12.890625 25.390625 
L 37.796875 25.390625 
z
M 35.203125 72.90625 
L 47.609375 72.90625 
L 47.609375 25.390625 
L 58.015625 25.390625 
L 58.015625 17.1875 
L 47.609375 17.1875 
L 47.609375 0 
L 37.796875 0 
L 37.796875 17.1875 
L 4.890625 17.1875 
L 4.890625 26.703125 
z
" id="DejaVuSans-34"/>
      </defs>
      <g transform="translate(341.079299 322.182437)scale(0.1 -0.1)">
       <use xlink:href="#DejaVuSans-34"/>
       <use x="63.623047" xlink:href="#DejaVuSans-30"/>
      </g>
     </g>
    </g>
    <g id="xtick_6">
     <g id="line2d_11">
      <path clip-path="url(#p83961ed160)" d="M 84.399575 307.584 
L 84.399575 41.472 
" style="fill:none;stroke:#b0b0b0;stroke-linecap:square;stroke-width:0.8;"/>
     </g>
     <g id="line2d_12">
      <defs>
       <path d="M 0 0 
L 0 2 
" id="m757f64feac" style="stroke:#000000;stroke-width:0.6;"/>
      </defs>
      <g>
       <use style="stroke:#000000;stroke-width:0.6;" x="84.399575" xlink:href="#m757f64feac" y="307.584"/>
      </g>
     </g>
    </g>
    <g id="xtick_7">
     <g id="line2d_13">
      <path clip-path="url(#p83961ed160)" d="M 98.243903 307.584 
L 98.243903 41.472 
" style="fill:none;stroke:#b0b0b0;stroke-linecap:square;stroke-width:0.8;"/>
     </g>
     <g id="line2d_14">
      <g>
       <use style="stroke:#000000;stroke-width:0.6;" x="98.243903" xlink:href="#m757f64feac" y="307.584"/>
      </g>
     </g>
    </g>
    <g id="xtick_8">
     <g id="line2d_15">
      <path clip-path="url(#p83961ed160)" d="M 112.08823 307.584 
L 112.08823 41.472 
" style="fill:none;stroke:#b0b0b0;stroke-linecap:square;stroke-width:0.8;"/>
     </g>
     <g id="line2d_16">
      <g>
       <use style="stroke:#000000;stroke-width:0.6;" x="112.08823" xlink:href="#m757f64feac" y="307.584"/>
      </g>
     </g>
    </g>
    <g id="xtick_9">
     <g id="line2d_17">
      <path clip-path="url(#p83961ed160)" d="M 125.932558 307.584 
L 125.932558 41.472 
" style="fill:none;stroke:#b0b0b0;stroke-linecap:square;stroke-width:0.8;"/>
     </g>
     <g id="line2d_18">
      <g>
       <use style="stroke:#000000;stroke-width:0.6;" x="125.932558" xlink:href="#m757f64feac" y="307.584"/>
      </g>
     </g>
    </g>
    <g id="xtick_10">
     <g id="line2d_19">
      <path clip-path="url(#p83961ed160)" d="M 153.621213 307.584 
L 153.621213 41.472 
" style="fill:none;stroke:#b0b0b0;stroke-linecap:square;stroke-width:0.8;"/>
     </g>
     <g id="line2d_20">
      <g>
       <use style="stroke:#000000;stroke-width:0.6;" x="153.621213" xlink:href="#m757f64feac" y="307.584"/>
      </g>
     </g>
    </g>
    <g id="xtick_11">
     <g id="line2d_21">
      <path clip-path="url(#p83961ed160)" d="M 167.465541 307.584 
L 167.465541 41.472 
" style="fill:none;stroke:#b0b0b0;stroke-linecap:square;stroke-width:0.8;"/>
     </g>
     <g id="line2d_22">
      <g>
       <use style="stroke:#000000;stroke-width:0.6;" x="167.465541" xlink:href="#m757f64feac" y="307.584"/>
      </g>
     </g>
    </g>
    <g id="xtick_12">
     <g id="line2d_23">
      <path clip-path="url(#p83961ed160)" d="M 181.309868 307.584 
L 181.309868 41.472 
" style="fill:none;stroke:#b0b0b0;stroke-linecap:square;stroke-width:0.8;"/>
     </g>
     <g id="line2d_24">
      <g>
       <use style="stroke:#000000;stroke-width:0.6;" x="181.309868" xlink:href="#m757f64feac" y="307.584"/>
      </g>
     </g>
    </g>
    <g id="xtick_13">
     <g id="line2d_25">
      <path clip-path="url(#p83961ed160)" d="M 195.154196 307.584 
L 195.154196 41.472 
" style="fill:none;stroke:#b0b0b0;stroke-linecap:square;stroke-width:0.8;"/>
     </g>
     <g id="line2d_26">
      <g>
       <use style="stroke:#000000;stroke-width:0.6;" x="195.154196" xlink:href="#m757f64feac" y="307.584"/>
      </g>
     </g>
    </g>
    <g id="xtick_14">
     <g id="line2d_27">
      <path clip-path="url(#p83961ed160)" d="M 222.842851 307.584 
L 222.842851 41.472 
" style="fill:none;stroke:#b0b0b0;stroke-linecap:square;stroke-width:0.8;"/>
     </g>
     <g id="line2d_28">
      <g>
       <use style="stroke:#000000;stroke-width:0.6;" x="222.842851" xlink:href="#m757f64feac" y="307.584"/>
      </g>
     </g>
    </g>
    <g id="xtick_15">
     <g id="line2d_29">
      <path clip-path="url(#p83961ed160)" d="M 236.687178 307.584 
L 236.687178 41.472 
" style="fill:none;stroke:#b0b0b0;stroke-linecap:square;stroke-width:0.8;"/>
     </g>
     <g id="line2d_30">
      <g>
       <use style="stroke:#000000;stroke-width:0.6;" x="236.687178" xlink:href="#m757f64feac" y="307.584"/>
      </g>
     </g>
    </g>
    <g id="xtick_16">
     <g id="line2d_31">
      <path clip-path="url(#p83961ed160)" d="M 250.531506 307.584 
L 250.531506 41.472 
" style="fill:none;stroke:#b0b0b0;stroke-linecap:square;stroke-width:0.8;"/>
     </g>
     <g id="line2d_32">
      <g>
       <use style="stroke:#000000;stroke-width:0.6;" x="250.531506" xlink:href="#m757f64feac" y="307.584"/>
      </g>
     </g>
    </g>
    <g id="xtick_17">
     <g id="line2d_33">
      <path clip-path="url(#p83961ed160)" d="M 264.375834 307.584 
L 264.375834 41.472 
" style="fill:none;stroke:#b0b0b0;stroke-linecap:square;stroke-width:0.8;"/>
     </g>
     <g id="line2d_34">
      <g>
       <use style="stroke:#000000;stroke-width:0.6;" x="264.375834" xlink:href="#m757f64feac" y="307.584"/>
      </g>
     </g>
    </g>
    <g id="xtick_18">
     <g id="line2d_35">
      <path clip-path="url(#p83961ed160)" d="M 292.064489 307.584 
L 292.064489 41.472 
" style="fill:none;stroke:#b0b0b0;stroke-linecap:square;stroke-width:0.8;"/>
     </g>
     <g id="line2d_36">
      <g>
       <use style="stroke:#000000;stroke-width:0.6;" x="292.064489" xlink:href="#m757f64feac" y="307.584"/>
      </g>
     </g>
    </g>
    <g id="xtick_19">
     <g id="line2d_37">
      <path clip-path="url(#p83961ed160)" d="M 305.908816 307.584 
L 305.908816 41.472 
" style="fill:none;stroke:#b0b0b0;stroke-linecap:square;stroke-width:0.8;"/>
     </g>
     <g id="line2d_38">
      <g>
       <use style="stroke:#000000;stroke-width:0.6;" x="305.908816" xlink:href="#m757f64feac" y="307.584"/>
      </g>
     </g>
    </g>
    <g id="xtick_20">
     <g id="line2d_39">
      <path clip-path="url(#p83961ed160)" d="M 319.753144 307.584 
L 319.753144 41.472 
" style="fill:none;stroke:#b0b0b0;stroke-linecap:square;stroke-width:0.8;"/>
     </g>
     <g id="line2d_40">
      <g>
       <use style="stroke:#000000;stroke-width:0.6;" x="319.753144" xlink:href="#m757f64feac" y="307.584"/>
      </g>
     </g>
    </g>
    <g id="xtick_21">
     <g id="line2d_41">
      <path clip-path="url(#p83961ed160)" d="M 333.597471 307.584 
L 333.597471 41.472 
" style="fill:none;stroke:#b0b0b0;stroke-linecap:square;stroke-width:0.8;"/>
     </g>
     <g id="line2d_42">
      <g>
       <use style="stroke:#000000;stroke-width:0.6;" x="333.597471" xlink:href="#m757f64feac" y="307.584"/>
      </g>
     </g>
    </g>
    <g id="xtick_22">
     <g id="line2d_43">
      <path clip-path="url(#p83961ed160)" d="M 361.286127 307.584 
L 361.286127 41.472 
" style="fill:none;stroke:#b0b0b0;stroke-linecap:square;stroke-width:0.8;"/>
     </g>
     <g id="line2d_44">
      <g>
       <use style="stroke:#000000;stroke-width:0.6;" x="361.286127" xlink:href="#m757f64feac" y="307.584"/>
      </g>
     </g>
    </g>
    <g id="xtick_23">
     <g id="line2d_45">
      <path clip-path="url(#p83961ed160)" d="M 375.130454 307.584 
L 375.130454 41.472 
" style="fill:none;stroke:#b0b0b0;stroke-linecap:square;stroke-width:0.8;"/>
     </g>
     <g id="line2d_46">
      <g>
       <use style="stroke:#000000;stroke-width:0.6;" x="375.130454" xlink:href="#m757f64feac" y="307.584"/>
      </g>
     </g>
    </g>
    <g id="xtick_24">
     <g id="line2d_47">
      <path clip-path="url(#p83961ed160)" d="M 388.974782 307.584 
L 388.974782 41.472 
" style="fill:none;stroke:#b0b0b0;stroke-linecap:square;stroke-width:0.8;"/>
     </g>
     <g id="line2d_48">
      <g>
       <use style="stroke:#000000;stroke-width:0.6;" x="388.974782" xlink:href="#m757f64feac" y="307.584"/>
      </g>
     </g>
    </g>
    <g id="xtick_25">
     <g id="line2d_49">
      <path clip-path="url(#p83961ed160)" d="M 402.819109 307.584 
L 402.819109 41.472 
" style="fill:none;stroke:#b0b0b0;stroke-linecap:square;stroke-width:0.8;"/>
     </g>
     <g id="line2d_50">
      <g>
       <use style="stroke:#000000;stroke-width:0.6;" x="402.819109" xlink:href="#m757f64feac" y="307.584"/>
      </g>
     </g>
    </g>
    <g id="text_6">
     <!-- frame # [] -->
     <defs>
      <path d="M 37.109375 75.984375 
L 37.109375 68.5 
L 28.515625 68.5 
Q 23.6875 68.5 21.796875 66.546875 
Q 19.921875 64.59375 19.921875 59.515625 
L 19.921875 54.6875 
L 34.71875 54.6875 
L 34.71875 47.703125 
L 19.921875 47.703125 
L 19.921875 0 
L 10.890625 0 
L 10.890625 47.703125 
L 2.296875 47.703125 
L 2.296875 54.6875 
L 10.890625 54.6875 
L 10.890625 58.5 
Q 10.890625 67.625 15.140625 71.796875 
Q 19.390625 75.984375 28.609375 75.984375 
z
" id="DejaVuSans-66"/>
      <path d="M 41.109375 46.296875 
Q 39.59375 47.171875 37.8125 47.578125 
Q 36.03125 48 33.890625 48 
Q 26.265625 48 22.1875 43.046875 
Q 18.109375 38.09375 18.109375 28.8125 
L 18.109375 0 
L 9.078125 0 
L 9.078125 54.6875 
L 18.109375 54.6875 
L 18.109375 46.1875 
Q 20.953125 51.171875 25.484375 53.578125 
Q 30.03125 56 36.53125 56 
Q 37.453125 56 38.578125 55.875 
Q 39.703125 55.765625 41.0625 55.515625 
z
" id="DejaVuSans-72"/>
      <path d="M 34.28125 27.484375 
Q 23.390625 27.484375 19.1875 25 
Q 14.984375 22.515625 14.984375 16.5 
Q 14.984375 11.71875 18.140625 8.90625 
Q 21.296875 6.109375 26.703125 6.109375 
Q 34.1875 6.109375 38.703125 11.40625 
Q 43.21875 16.703125 43.21875 25.484375 
L 43.21875 27.484375 
z
M 52.203125 31.203125 
L 52.203125 0 
L 43.21875 0 
L 43.21875 8.296875 
Q 40.140625 3.328125 35.546875 0.953125 
Q 30.953125 -1.421875 24.3125 -1.421875 
Q 15.921875 -1.421875 10.953125 3.296875 
Q 6 8.015625 6 15.921875 
Q 6 25.140625 12.171875 29.828125 
Q 18.359375 34.515625 30.609375 34.515625 
L 43.21875 34.515625 
L 43.21875 35.40625 
Q 43.21875 41.609375 39.140625 45 
Q 35.0625 48.390625 27.6875 48.390625 
Q 23 48.390625 18.546875 47.265625 
Q 14.109375 46.140625 10.015625 43.890625 
L 10.015625 52.203125 
Q 14.9375 54.109375 19.578125 55.046875 
Q 24.21875 56 28.609375 56 
Q 40.484375 56 46.34375 49.84375 
Q 52.203125 43.703125 52.203125 31.203125 
z
" id="DejaVuSans-61"/>
      <path d="M 52 44.1875 
Q 55.375 50.25 60.0625 53.125 
Q 64.75 56 71.09375 56 
Q 79.640625 56 84.28125 50.015625 
Q 88.921875 44.046875 88.921875 33.015625 
L 88.921875 0 
L 79.890625 0 
L 79.890625 32.71875 
Q 79.890625 40.578125 77.09375 44.375 
Q 74.3125 48.1875 68.609375 48.1875 
Q 61.625 48.1875 57.5625 43.546875 
Q 53.515625 38.921875 53.515625 30.90625 
L 53.515625 0 
L 44.484375 0 
L 44.484375 32.71875 
Q 44.484375 40.625 41.703125 44.40625 
Q 38.921875 48.1875 33.109375 48.1875 
Q 26.21875 48.1875 22.15625 43.53125 
Q 18.109375 38.875 18.109375 30.90625 
L 18.109375 0 
L 9.078125 0 
L 9.078125 54.6875 
L 18.109375 54.6875 
L 18.109375 46.1875 
Q 21.1875 51.21875 25.484375 53.609375 
Q 29.78125 56 35.6875 56 
Q 41.65625 56 45.828125 52.96875 
Q 50 49.953125 52 44.1875 
z
" id="DejaVuSans-6d"/>
      <path d="M 56.203125 29.59375 
L 56.203125 25.203125 
L 14.890625 25.203125 
Q 15.484375 15.921875 20.484375 11.0625 
Q 25.484375 6.203125 34.421875 6.203125 
Q 39.59375 6.203125 44.453125 7.46875 
Q 49.3125 8.734375 54.109375 11.28125 
L 54.109375 2.78125 
Q 49.265625 0.734375 44.1875 -0.34375 
Q 39.109375 -1.421875 33.890625 -1.421875 
Q 20.796875 -1.421875 13.15625 6.1875 
Q 5.515625 13.8125 5.515625 26.8125 
Q 5.515625 40.234375 12.765625 48.109375 
Q 20.015625 56 32.328125 56 
Q 43.359375 56 49.78125 48.890625 
Q 56.203125 41.796875 56.203125 29.59375 
z
M 47.21875 32.234375 
Q 47.125 39.59375 43.09375 43.984375 
Q 39.0625 48.390625 32.421875 48.390625 
Q 24.90625 48.390625 20.390625 44.140625 
Q 15.875 39.890625 15.1875 32.171875 
z
" id="DejaVuSans-65"/>
      <path id="DejaVuSans-20"/>
      <path d="M 51.125 44 
L 36.921875 44 
L 32.8125 27.6875 
L 47.125 27.6875 
z
M 43.796875 71.78125 
L 38.71875 51.515625 
L 52.984375 51.515625 
L 58.109375 71.78125 
L 65.921875 71.78125 
L 60.890625 51.515625 
L 76.125 51.515625 
L 76.125 44 
L 58.984375 44 
L 54.984375 27.6875 
L 70.515625 27.6875 
L 70.515625 20.21875 
L 53.078125 20.21875 
L 48 0 
L 40.1875 0 
L 45.21875 20.21875 
L 30.90625 20.21875 
L 25.875 0 
L 18.015625 0 
L 23.09375 20.21875 
L 7.71875 20.21875 
L 7.71875 27.6875 
L 24.90625 27.6875 
L 29 44 
L 13.28125 44 
L 13.28125 51.515625 
L 30.90625 51.515625 
L 35.890625 71.78125 
z
" id="DejaVuSans-23"/>
      <path d="M 8.59375 75.984375 
L 29.296875 75.984375 
L 29.296875 69 
L 17.578125 69 
L 17.578125 -6.203125 
L 29.296875 -6.203125 
L 29.296875 -13.1875 
L 8.59375 -13.1875 
z
" id="DejaVuSans-5b"/>
      <path d="M 30.421875 75.984375 
L 30.421875 -13.1875 
L 9.71875 -13.1875 
L 9.71875 -6.203125 
L 21.390625 -6.203125 
L 21.390625 69 
L 9.71875 69 
L 9.71875 75.984375 
z
" id="DejaVuSans-5d"/>
     </defs>
     <g transform="translate(210.063906 335.860562)scale(0.1 -0.1)">
      <use xlink:href="#DejaVuSans-66"/>
      <use x="35.205078" xlink:href="#DejaVuSans-72"/>
      <use x="76.318359" xlink:href="#DejaVuSans-61"/>
      <use x="137.597656" xlink:href="#DejaVuSans-6d"/>
      <use x="235.009766" xlink:href="#DejaVuSans-65"/>
      <use x="296.533203" xlink:href="#DejaVuSans-20"/>
      <use x="328.320312" xlink:href="#DejaVuSans-23"/>
      <use x="412.109375" xlink:href="#DejaVuSans-20"/>
      <use x="443.896484" xlink:href="#DejaVuSans-5b"/>
      <use x="482.910156" xlink:href="#DejaVuSans-5d"/>
     </g>
    </g>
   </g>
   <g id="matplotlib.axis_2">
    <g id="ytick_1">
     <g id="line2d_51">
      <path clip-path="url(#p83961ed160)" d="M 57.6 273.585684 
L 414.72 273.585684 
" style="fill:none;stroke:#b0b0b0;stroke-linecap:square;stroke-width:0.8;"/>
     </g>
     <g id="line2d_52">
      <defs>
       <path d="M 0 0 
L -3.5 0 
" id="m8ccb11b5d3" style="stroke:#000000;stroke-width:0.8;"/>
      </defs>
      <g>
       <use style="stroke:#000000;stroke-width:0.8;" x="57.6" xlink:href="#m8ccb11b5d3" y="273.585684"/>
      </g>
     </g>
     <g id="text_7">
      <!-- −0.1 -->
      <defs>
       <path d="M 10.59375 35.5 
L 73.1875 35.5 
L 73.1875 27.203125 
L 10.59375 27.203125 
z
" id="DejaVuSans-2212"/>
       <path d="M 10.6875 12.40625 
L 21 12.40625 
L 21 0 
L 10.6875 0 
z
" id="DejaVuSans-2e"/>
      </defs>
      <g transform="translate(26.317187 277.384903)scale(0.1 -0.1)">
       <use xlink:href="#DejaVuSans-2212"/>
       <use x="83.789062" xlink:href="#DejaVuSans-30"/>
       <use x="147.412109" xlink:href="#DejaVuSans-2e"/>
       <use x="179.199219" xlink:href="#DejaVuSans-31"/>
      </g>
     </g>
    </g>
    <g id="ytick_2">
     <g id="line2d_53">
      <path clip-path="url(#p83961ed160)" d="M 57.6 215.142999 
L 414.72 215.142999 
" style="fill:none;stroke:#b0b0b0;stroke-linecap:square;stroke-width:0.8;"/>
     </g>
     <g id="line2d_54">
      <g>
       <use style="stroke:#000000;stroke-width:0.8;" x="57.6" xlink:href="#m8ccb11b5d3" y="215.142999"/>
      </g>
     </g>
     <g id="text_8">
      <!-- 0.0 -->
      <g transform="translate(34.696875 218.942218)scale(0.1 -0.1)">
       <use xlink:href="#DejaVuSans-30"/>
       <use x="63.623047" xlink:href="#DejaVuSans-2e"/>
       <use x="95.410156" xlink:href="#DejaVuSans-30"/>
      </g>
     </g>
    </g>
    <g id="ytick_3">
     <g id="line2d_55">
      <path clip-path="url(#p83961ed160)" d="M 57.6 156.700314 
L 414.72 156.700314 
" style="fill:none;stroke:#b0b0b0;stroke-linecap:square;stroke-width:0.8;"/>
     </g>
     <g id="line2d_56">
      <g>
       <use style="stroke:#000000;stroke-width:0.8;" x="57.6" xlink:href="#m8ccb11b5d3" y="156.700314"/>
      </g>
     </g>
     <g id="text_9">
      <!-- 0.1 -->
      <g transform="translate(34.696875 160.499532)scale(0.1 -0.1)">
       <use xlink:href="#DejaVuSans-30"/>
       <use x="63.623047" xlink:href="#DejaVuSans-2e"/>
       <use x="95.410156" xlink:href="#DejaVuSans-31"/>
      </g>
     </g>
    </g>
    <g id="ytick_4">
     <g id="line2d_57">
      <path clip-path="url(#p83961ed160)" d="M 57.6 98.257629 
L 414.72 98.257629 
" style="fill:none;stroke:#b0b0b0;stroke-linecap:square;stroke-width:0.8;"/>
     </g>
     <g id="line2d_58">
      <g>
       <use style="stroke:#000000;stroke-width:0.8;" x="57.6" xlink:href="#m8ccb11b5d3" y="98.257629"/>
      </g>
     </g>
     <g id="text_10">
      <!-- 0.2 -->
      <g transform="translate(34.696875 102.056847)scale(0.1 -0.1)">
       <use xlink:href="#DejaVuSans-30"/>
       <use x="63.623047" xlink:href="#DejaVuSans-2e"/>
       <use x="95.410156" xlink:href="#DejaVuSans-32"/>
      </g>
     </g>
    </g>
    <g id="ytick_5">
     <g id="line2d_59">
      <path clip-path="url(#p83961ed160)" d="M 57.6 296.962758 
L 414.72 296.962758 
" style="fill:none;stroke:#b0b0b0;stroke-linecap:square;stroke-width:0.8;"/>
     </g>
     <g id="line2d_60">
      <defs>
       <path d="M 0 0 
L -2 0 
" id="m0f63eb60e4" style="stroke:#000000;stroke-width:0.6;"/>
      </defs>
      <g>
       <use style="stroke:#000000;stroke-width:0.6;" x="57.6" xlink:href="#m0f63eb60e4" y="296.962758"/>
      </g>
     </g>
    </g>
    <g id="ytick_6">
     <g id="line2d_61">
      <path clip-path="url(#p83961ed160)" d="M 57.6 285.274221 
L 414.72 285.274221 
" style="fill:none;stroke:#b0b0b0;stroke-linecap:square;stroke-width:0.8;"/>
     </g>
     <g id="line2d_62">
      <g>
       <use style="stroke:#000000;stroke-width:0.6;" x="57.6" xlink:href="#m0f63eb60e4" y="285.274221"/>
      </g>
     </g>
    </g>
    <g id="ytick_7">
     <g id="line2d_63">
      <path clip-path="url(#p83961ed160)" d="M 57.6 261.897147 
L 414.72 261.897147 
" style="fill:none;stroke:#b0b0b0;stroke-linecap:square;stroke-width:0.8;"/>
     </g>
     <g id="line2d_64">
      <g>
       <use style="stroke:#000000;stroke-width:0.6;" x="57.6" xlink:href="#m0f63eb60e4" y="261.897147"/>
      </g>
     </g>
    </g>
    <g id="ytick_8">
     <g id="line2d_65">
      <path clip-path="url(#p83961ed160)" d="M 57.6 250.20861 
L 414.72 250.20861 
" style="fill:none;stroke:#b0b0b0;stroke-linecap:square;stroke-width:0.8;"/>
     </g>
     <g id="line2d_66">
      <g>
       <use style="stroke:#000000;stroke-width:0.6;" x="57.6" xlink:href="#m0f63eb60e4" y="250.20861"/>
      </g>
     </g>
    </g>
    <g id="ytick_9">
     <g id="line2d_67">
      <path clip-path="url(#p83961ed160)" d="M 57.6 238.520073 
L 414.72 238.520073 
" style="fill:none;stroke:#b0b0b0;stroke-linecap:square;stroke-width:0.8;"/>
     </g>
     <g id="line2d_68">
      <g>
       <use style="stroke:#000000;stroke-width:0.6;" x="57.6" xlink:href="#m0f63eb60e4" y="238.520073"/>
      </g>
     </g>
    </g>
    <g id="ytick_10">
     <g id="line2d_69">
      <path clip-path="url(#p83961ed160)" d="M 57.6 226.831536 
L 414.72 226.831536 
" style="fill:none;stroke:#b0b0b0;stroke-linecap:square;stroke-width:0.8;"/>
     </g>
     <g id="line2d_70">
      <g>
       <use style="stroke:#000000;stroke-width:0.6;" x="57.6" xlink:href="#m0f63eb60e4" y="226.831536"/>
      </g>
     </g>
    </g>
    <g id="ytick_11">
     <g id="line2d_71">
      <path clip-path="url(#p83961ed160)" d="M 57.6 203.454462 
L 414.72 203.454462 
" style="fill:none;stroke:#b0b0b0;stroke-linecap:square;stroke-width:0.8;"/>
     </g>
     <g id="line2d_72">
      <g>
       <use style="stroke:#000000;stroke-width:0.6;" x="57.6" xlink:href="#m0f63eb60e4" y="203.454462"/>
      </g>
     </g>
    </g>
    <g id="ytick_12">
     <g id="line2d_73">
      <path clip-path="url(#p83961ed160)" d="M 57.6 191.765925 
L 414.72 191.765925 
" style="fill:none;stroke:#b0b0b0;stroke-linecap:square;stroke-width:0.8;"/>
     </g>
     <g id="line2d_74">
      <g>
       <use style="stroke:#000000;stroke-width:0.6;" x="57.6" xlink:href="#m0f63eb60e4" y="191.765925"/>
      </g>
     </g>
    </g>
    <g id="ytick_13">
     <g id="line2d_75">
      <path clip-path="url(#p83961ed160)" d="M 57.6 180.077388 
L 414.72 180.077388 
" style="fill:none;stroke:#b0b0b0;stroke-linecap:square;stroke-width:0.8;"/>
     </g>
     <g id="line2d_76">
      <g>
       <use style="stroke:#000000;stroke-width:0.6;" x="57.6" xlink:href="#m0f63eb60e4" y="180.077388"/>
      </g>
     </g>
    </g>
    <g id="ytick_14">
     <g id="line2d_77">
      <path clip-path="url(#p83961ed160)" d="M 57.6 168.388851 
L 414.72 168.388851 
" style="fill:none;stroke:#b0b0b0;stroke-linecap:square;stroke-width:0.8;"/>
     </g>
     <g id="line2d_78">
      <g>
       <use style="stroke:#000000;stroke-width:0.6;" x="57.6" xlink:href="#m0f63eb60e4" y="168.388851"/>
      </g>
     </g>
    </g>
    <g id="ytick_15">
     <g id="line2d_79">
      <path clip-path="url(#p83961ed160)" d="M 57.6 145.011777 
L 414.72 145.011777 
" style="fill:none;stroke:#b0b0b0;stroke-linecap:square;stroke-width:0.8;"/>
     </g>
     <g id="line2d_80">
      <g>
       <use style="stroke:#000000;stroke-width:0.6;" x="57.6" xlink:href="#m0f63eb60e4" y="145.011777"/>
      </g>
     </g>
    </g>
    <g id="ytick_16">
     <g id="line2d_81">
      <path clip-path="url(#p83961ed160)" d="M 57.6 133.32324 
L 414.72 133.32324 
" style="fill:none;stroke:#b0b0b0;stroke-linecap:square;stroke-width:0.8;"/>
     </g>
     <g id="line2d_82">
      <g>
       <use style="stroke:#000000;stroke-width:0.6;" x="57.6" xlink:href="#m0f63eb60e4" y="133.32324"/>
      </g>
     </g>
    </g>
    <g id="ytick_17">
     <g id="line2d_83">
      <path clip-path="url(#p83961ed160)" d="M 57.6 121.634703 
L 414.72 121.634703 
" style="fill:none;stroke:#b0b0b0;stroke-linecap:square;stroke-width:0.8;"/>
     </g>
     <g id="line2d_84">
      <g>
       <use style="stroke:#000000;stroke-width:0.6;" x="57.6" xlink:href="#m0f63eb60e4" y="121.634703"/>
      </g>
     </g>
    </g>
    <g id="ytick_18">
     <g id="line2d_85">
      <path clip-path="url(#p83961ed160)" d="M 57.6 109.946166 
L 414.72 109.946166 
" style="fill:none;stroke:#b0b0b0;stroke-linecap:square;stroke-width:0.8;"/>
     </g>
     <g id="line2d_86">
      <g>
       <use style="stroke:#000000;stroke-width:0.6;" x="57.6" xlink:href="#m0f63eb60e4" y="109.946166"/>
      </g>
     </g>
    </g>
    <g id="ytick_19">
     <g id="line2d_87">
      <path clip-path="url(#p83961ed160)" d="M 57.6 86.569091 
L 414.72 86.569091 
" style="fill:none;stroke:#b0b0b0;stroke-linecap:square;stroke-width:0.8;"/>
     </g>
     <g id="line2d_88">
      <g>
       <use style="stroke:#000000;stroke-width:0.6;" x="57.6" xlink:href="#m0f63eb60e4" y="86.569091"/>
      </g>
     </g>
    </g>
    <g id="ytick_20">
     <g id="line2d_89">
      <path clip-path="url(#p83961ed160)" d="M 57.6 74.880554 
L 414.72 74.880554 
" style="fill:none;stroke:#b0b0b0;stroke-linecap:square;stroke-width:0.8;"/>
     </g>
     <g id="line2d_90">
      <g>
       <use style="stroke:#000000;stroke-width:0.6;" x="57.6" xlink:href="#m0f63eb60e4" y="74.880554"/>
      </g>
     </g>
    </g>
    <g id="ytick_21">
     <g id="line2d_91">
      <path clip-path="url(#p83961ed160)" d="M 57.6 63.192017 
L 414.72 63.192017 
" style="fill:none;stroke:#b0b0b0;stroke-linecap:square;stroke-width:0.8;"/>
     </g>
     <g id="line2d_92">
      <g>
       <use style="stroke:#000000;stroke-width:0.6;" x="57.6" xlink:href="#m0f63eb60e4" y="63.192017"/>
      </g>
     </g>
    </g>
    <g id="ytick_22">
     <g id="line2d_93">
      <path clip-path="url(#p83961ed160)" d="M 57.6 51.50348 
L 414.72 51.50348 
" style="fill:none;stroke:#b0b0b0;stroke-linecap:square;stroke-width:0.8;"/>
     </g>
     <g id="line2d_94">
      <g>
       <use style="stroke:#000000;stroke-width:0.6;" x="57.6" xlink:href="#m0f63eb60e4" y="51.50348"/>
      </g>
     </g>
    </g>
    <g id="text_11">
     <!-- rot x -->
     <defs>
      <path d="M 30.609375 48.390625 
Q 23.390625 48.390625 19.1875 42.75 
Q 14.984375 37.109375 14.984375 27.296875 
Q 14.984375 17.484375 19.15625 11.84375 
Q 23.34375 6.203125 30.609375 6.203125 
Q 37.796875 6.203125 41.984375 11.859375 
Q 46.1875 17.53125 46.1875 27.296875 
Q 46.1875 37.015625 41.984375 42.703125 
Q 37.796875 48.390625 30.609375 48.390625 
z
M 30.609375 56 
Q 42.328125 56 49.015625 48.375 
Q 55.71875 40.765625 55.71875 27.296875 
Q 55.71875 13.875 49.015625 6.21875 
Q 42.328125 -1.421875 30.609375 -1.421875 
Q 18.84375 -1.421875 12.171875 6.21875 
Q 5.515625 13.875 5.515625 27.296875 
Q 5.515625 40.765625 12.171875 48.375 
Q 18.84375 56 30.609375 56 
z
" id="DejaVuSans-6f"/>
      <path d="M 18.3125 70.21875 
L 18.3125 54.6875 
L 36.8125 54.6875 
L 36.8125 47.703125 
L 18.3125 47.703125 
L 18.3125 18.015625 
Q 18.3125 11.328125 20.140625 9.421875 
Q 21.96875 7.515625 27.59375 7.515625 
L 36.8125 7.515625 
L 36.8125 0 
L 27.59375 0 
Q 17.1875 0 13.234375 3.875 
Q 9.28125 7.765625 9.28125 18.015625 
L 9.28125 47.703125 
L 2.6875 47.703125 
L 2.6875 54.6875 
L 9.28125 54.6875 
L 9.28125 70.21875 
z
" id="DejaVuSans-74"/>
      <path d="M 54.890625 54.6875 
L 35.109375 28.078125 
L 55.90625 0 
L 45.3125 0 
L 29.390625 21.484375 
L 13.484375 0 
L 2.875 0 
L 24.125 28.609375 
L 4.6875 54.6875 
L 15.28125 54.6875 
L 29.78125 35.203125 
L 44.28125 54.6875 
z
" id="DejaVuSans-78"/>
     </defs>
     <g transform="translate(20.2375 186.149875)rotate(-90)scale(0.1 -0.1)">
      <use xlink:href="#DejaVuSans-72"/>
      <use x="41.082031" xlink:href="#DejaVuSans-6f"/>
      <use x="102.263672" xlink:href="#DejaVuSans-74"/>
      <use x="141.472656" xlink:href="#DejaVuSans-20"/>
      <use x="173.259766" xlink:href="#DejaVuSans-78"/>
     </g>
    </g>
   </g>
   <g id="line2d_95">
    <path clip-path="url(#p83961ed160)" d="M 73.832727 192.417793 
L 74.524971 203.507382 
L 75.217208 236.428019 
L 75.90628 202.412989 
L 76.598517 219.572853 
L 77.290754 216.69876 
L 77.982991 205.343602 
L 78.6751 208.318324 
L 79.367337 223.019795 
L 80.059581 192.740054 
L 80.751818 224.240631 
L 81.446481 220.845351 
L 82.138725 202.351755 
L 82.830962 220.960142 
L 83.523199 234.199028 
L 84.216653 202.28726 
L 84.908883 220.733344 
L 85.601147 208.542529 
L 86.293364 206.16491 
L 87.675135 216.283453 
L 88.367373 214.47752 
L 89.05961 205.670927 
L 89.751847 182.972665 
L 90.441987 193.022166 
L 91.13423 236.591554 
L 91.826467 239.988576 
L 92.518705 259.146507 
L 93.209773 248.716981 
L 93.902011 236.189345 
L 94.594254 228.081219 
L 95.286491 238.336644 
L 95.979336 199.625514 
L 96.671581 187.391869 
L 97.363819 172.827356 
L 98.056056 148.277846 
L 98.749362 142.190252 
L 99.44205 146.811379 
M 102.901478 257.900099 
L 103.593715 259.732873 
L 104.284797 256.427452 
L 104.977035 272.174441 
M 108.439825 173.962273 
L 109.132062 145.254416 
L 109.824962 137.502969 
L 111.209437 176.07786 
L 113.285912 252.366541 
L 113.978149 261.692551 
L 114.670387 273.071673 
M 116.054209 254.849755 
L 116.746446 254.515077 
L 117.438683 246.91152 
L 118.130907 243.771791 
L 118.823151 234.767643 
L 120.207625 197.66551 
L 120.899869 159.489383 
L 121.594579 138.32999 
L 122.286816 132.839853 
L 123.67129 185.739599 
L 124.363909 209.268411 
M 125.748383 274.56806 
L 126.44062 245.727005 
L 127.129632 280.267584 
L 127.82187 280.742014 
L 128.514107 256.605714 
L 129.206344 219.222615 
L 129.89967 203.135786 
L 130.591908 181.480015 
L 131.284145 155.125078 
L 131.976389 169.91623 
L 132.670814 158.097066 
L 133.363058 152.395937 
L 134.055295 173.210688 
L 134.747532 207.381343 
L 135.437802 204.054329 
L 136.130039 215.231219 
L 136.822277 267.248012 
L 137.514514 276.036197 
L 138.204709 270.911393 
L 138.896947 257.699534 
L 139.589184 251.060199 
L 140.281421 238.568956 
L 140.976101 210.67184 
M 142.360573 159.072334 
L 143.05281 131.743084 
L 143.744756 139.909126 
M 152.05041 137.913677 
L 152.743731 169.543281 
L 153.435969 175.112321 
L 154.128206 197.419359 
L 154.820443 233.987756 
M 158.97158 251.551551 
L 159.663852 205.766556 
L 160.356055 177.134718 
L 161.051271 166.411208 
L 161.743508 151.355151 
L 162.435745 154.806878 
L 163.127989 163.898195 
L 163.818557 175.434868 
M 170.740931 157.814164 
L 171.433168 123.418288 
L 172.125831 150.771931 
L 172.818048 197.881997 
L 173.510286 212.071419 
M 174.892987 245.159024 
L 175.585225 260.706017 
L 176.277462 279.382097 
L 176.969699 273.30283 
L 177.662487 256.381268 
M 179.046962 212.602707 
L 179.739205 170.451408 
M 181.126297 131.608333 
L 181.818534 167.046713 
L 182.510778 186.346551 
L 183.200632 185.731011 
L 183.892876 242.266949 
M 197.738917 209.815255 
L 198.431154 205.169967 
L 199.815628 115.317371 
L 200.508823 124.748471 
L 201.893304 225.090669 
L 202.585541 244.200776 
L 203.967776 277.014925 
L 204.660013 268.599516 
L 205.35225 286.37203 
L 206.044672 251.470882 
L 206.736909 204.345431 
L 208.121383 147.395253 
L 208.815873 135.421652 
L 209.50811 156.129993 
M 210.892585 201.552172 
L 211.583861 224.745549 
L 212.276099 262.362121 
L 212.968342 271.738565 
L 213.66058 272.223343 
L 214.351919 256.413491 
L 215.044156 229.571925 
M 216.428631 185.650293 
L 217.120874 149.212162 
L 217.814995 145.584518 
L 218.507232 122.570466 
L 219.199469 152.601257 
L 219.891706 203.45085 
L 220.58497 217.168056 
L 221.969824 272.270003 
L 222.661681 274.888537 
L 224.047124 271.343122 
L 224.739362 262.431821 
L 225.431599 255.656248 
L 226.123329 243.616204 
L 226.815566 222.635574 
L 227.507804 192.116046 
L 228.200041 183.575399 
L 228.892598 177.706027 
L 229.584835 152.954411 
L 230.277072 158.410723 
L 230.96931 178.310133 
L 231.661953 195.025202 
L 232.35419 180.542314 
L 234.434318 230.164316 
L 235.126562 229.798602 
L 235.818799 216.664769 
L 236.511036 233.715767 
L 237.205725 260.987608 
L 237.897963 276.665642 
L 238.5902 270.034527 
L 239.282437 232.015746 
M 240.658539 245.555653 
L 241.350776 250.026869 
L 242.043013 247.274449 
L 242.735331 208.363709 
L 243.427569 179.878444 
L 244.119806 169.253769 
L 244.812043 172.919249 
L 245.504977 177.507948 
L 246.197214 185.104276 
L 246.889449 196.923953 
L 247.581686 192.649312 
L 248.274878 182.659522 
L 249.659352 198.338789 
L 250.351589 190.681803 
L 251.043826 205.805246 
L 251.736771 235.645055 
M 253.121246 233.696792 
L 253.81349 247.833226 
M 256.577429 249.388177 
L 257.269926 220.468044 
L 257.962163 224.20113 
L 258.6544 210.200067 
L 259.346637 207.862143 
L 260.040695 220.386884 
L 260.732932 214.45001 
L 261.425169 171.654534 
L 262.117406 149.755073 
L 262.80931 148.269285 
L 263.501547 167.513871 
L 264.193784 167.990813 
L 264.886021 170.511111 
M 320.268821 186.19697 
L 320.961058 187.838204 
M 324.419095 191.55474 
L 325.112821 198.818445 
L 325.805058 216.550494 
L 326.497302 218.515415 
M 327.884744 74.212213 
L 328.576974 58.749925 
L 329.269218 116.56051 
L 329.961455 188.943253 
M 331.346218 224.771444 
L 332.730181 174.871709 
L 333.422638 127.28307 
L 334.114875 150.462948 
M 339.651661 191.489503 
L 340.343899 182.745951 
L 341.036136 161.869975 
L 341.726718 124.707178 
L 342.418955 108.962146 
L 343.111192 138.109334 
L 343.803429 147.654074 
M 368.030296 207.594936 
L 368.722533 202.878995 
L 369.41477 199.895896 
L 370.107983 187.238383 
M 374.95463 190.696466 
L 375.647823 184.700503 
M 383.260573 200.776592 
L 383.952811 184.579943 
L 384.644637 180.736987 
M 388.104412 199.600393 
L 388.796657 196.543357 
M 390.179932 226.273591 
L 390.872169 241.208555 
L 391.564426 242.212763 
L 391.564426 242.212763 
" style="fill:none;stroke:#ff0000;stroke-linecap:square;"/>
   </g>
   <g id="line2d_96">
    <path clip-path="url(#p83961ed160)" d="M 73.832727 194.471637 
L 74.524971 194.362412 
L 75.217208 226.542536 
L 75.90628 206.93181 
L 76.598517 216.6656 
L 77.290754 223.747749 
L 77.982991 210.457875 
L 78.6751 205.906172 
L 79.367337 226.158015 
L 80.059581 192.049082 
L 80.751818 220.527776 
L 81.446481 221.320161 
L 82.138725 201.950114 
L 82.830962 216.01088 
L 83.523199 238.636561 
L 84.216653 201.065333 
L 84.908883 222.092751 
L 85.601147 211.012547 
L 86.293364 202.65832 
L 86.985656 209.220059 
L 87.675135 221.782441 
L 88.367373 211.725946 
L 89.05961 209.1216 
L 89.751847 188.067794 
L 90.441987 185.894931 
L 91.13423 232.081859 
L 91.826467 241.66904 
L 92.518705 259.583054 
L 93.209773 251.481208 
L 93.902011 231.232631 
L 94.594254 227.148073 
L 95.286491 238.466949 
L 95.979336 203.619924 
L 96.671581 186.883302 
L 97.363819 175.180018 
L 98.056056 149.263201 
L 98.749362 141.330363 
L 99.44205 144.831489 
M 102.901478 250.027557 
L 103.593715 256.571093 
L 104.284797 255.379106 
L 104.977035 272.872518 
M 108.439825 180.293514 
L 109.132062 142.883052 
L 109.824962 132.735594 
L 111.209437 179.650974 
L 111.901674 197.374165 
L 112.593675 226.954575 
L 113.285912 240.680424 
L 113.978149 260.971051 
L 114.670387 275.325697 
M 116.054209 253.349513 
L 116.746446 250.459488 
L 117.438683 245.882008 
L 118.130907 240.485425 
L 118.823151 236.048824 
L 119.515395 219.4602 
L 120.207625 197.93975 
L 120.899869 163.334461 
L 121.594579 134.733514 
L 122.286816 130.689496 
L 124.363909 203.058641 
M 125.748383 268.331302 
L 126.44062 247.042118 
L 127.129632 271.586798 
L 127.82187 283.376345 
L 129.206344 223.04251 
L 130.591908 184.804444 
L 131.284145 155.176579 
L 131.976389 166.511895 
L 132.670814 155.066737 
L 133.363058 147.252985 
L 134.055295 172.037691 
L 134.747532 204.263035 
L 135.437802 204.587925 
L 136.130039 214.942572 
L 136.822277 262.637678 
L 137.514514 280.027893 
L 138.204709 275.038035 
L 138.896947 259.087644 
L 140.281421 241.331565 
L 140.976101 215.335371 
M 142.360573 150.368234 
L 143.05281 132.057111 
L 143.744756 138.847867 
M 152.05041 136.005746 
L 152.743731 159.285298 
L 154.128206 193.989831 
L 154.820443 233.608234 
M 158.97158 250.104248 
L 160.356055 176.553844 
L 161.051271 155.682006 
L 161.743508 145.974808 
L 162.435745 151.471801 
L 163.818557 174.937246 
M 170.740931 159.188773 
L 171.433168 124.694976 
L 172.125831 143.391034 
L 172.818048 194.696115 
L 173.510286 211.89464 
M 174.892987 242.839504 
L 175.585225 272.903482 
L 176.277462 282.22509 
L 176.969699 276.203813 
L 177.662487 262.688126 
M 179.046962 221.510991 
L 179.739205 175.500446 
M 181.126297 131.297586 
L 181.818534 161.134886 
L 182.510778 183.437566 
L 183.200632 175.592379 
L 183.892876 230.265443 
M 197.738917 201.196266 
L 198.431154 207.982073 
L 199.815628 117.526012 
L 200.508823 122.914027 
L 201.20106 164.672624 
L 201.893304 219.444709 
L 202.585541 244.216437 
L 203.275538 259.458858 
L 203.967776 268.62729 
L 205.35225 274.483899 
L 206.044672 258.749392 
L 206.736909 207.709174 
L 208.121383 150.182173 
L 208.815873 133.060256 
L 209.50811 146.260863 
M 210.892585 199.021485 
L 211.583861 223.912846 
L 212.276099 255.117215 
L 212.968342 273.910783 
L 214.351919 254.417384 
L 215.044156 235.63192 
M 216.428631 192.668561 
L 217.120874 150.446818 
L 217.814995 144.05102 
L 218.507232 122.032971 
L 219.199469 147.940416 
L 219.891706 196.664817 
L 221.277214 238.412217 
L 221.969824 271.291462 
L 222.661681 282.050735 
L 223.354881 275.590822 
L 224.047124 273.100945 
L 224.739362 261.72097 
L 225.431599 255.600254 
L 226.123329 245.640577 
L 226.815566 224.790977 
L 227.507804 195.907048 
L 228.200041 186.697198 
L 228.892598 181.007489 
L 229.584835 153.543265 
L 230.277072 154.623511 
L 231.661953 196.21687 
L 232.35419 185.57827 
L 233.046427 193.628006 
L 233.738664 207.680545 
L 234.434318 227.349609 
L 235.126562 231.450565 
L 235.818799 217.326504 
L 236.511036 225.803152 
L 237.205725 257.151292 
L 237.897963 277.927397 
L 238.5902 274.540349 
L 239.282437 234.966845 
M 240.658539 247.43276 
L 241.350776 245.848098 
L 242.043013 251.23028 
L 242.735331 205.93553 
L 243.427569 180.050814 
L 244.119806 173.796838 
L 244.812043 172.224716 
L 245.504977 173.990778 
L 246.197214 184.191154 
L 246.889449 196.131659 
L 247.581686 194.209828 
L 248.274878 183.139842 
L 249.659352 196.607301 
L 250.351589 187.878736 
L 251.043826 203.191771 
L 251.736771 224.819827 
M 253.121246 224.943988 
L 253.81349 239.93726 
M 256.577429 250.04297 
L 257.269926 224.749239 
L 257.962163 220.077607 
L 258.6544 209.910379 
L 259.346637 206.926505 
L 260.040695 223.126718 
L 260.732932 214.055763 
L 261.425169 179.32779 
L 262.117406 151.795473 
L 262.80931 143.166393 
L 263.501547 158.072876 
L 264.193784 169.957361 
L 264.886021 166.535402 
M 320.268821 186.172161 
L 320.961058 197.135381 
M 324.419095 191.728371 
L 325.112821 200.660377 
L 325.805058 213.204681 
L 326.497302 220.758434 
M 327.884744 81.751841 
L 328.576974 53.568 
L 329.269218 104.706692 
L 329.961455 183.569339 
M 331.346218 222.764524 
L 332.037944 208.427016 
L 332.730181 181.016656 
L 333.422638 131.224282 
L 334.114875 144.827723 
M 339.651661 197.279984 
L 340.343899 186.238767 
L 341.036136 165.089407 
L 341.726718 122.423548 
L 342.418955 104.823046 
L 343.111192 134.696081 
L 343.803429 147.225141 
M 368.030296 211.343828 
L 368.722533 201.842606 
L 369.41477 202.624816 
L 370.107983 188.710967 
M 374.95463 186.951833 
L 375.647823 186.755116 
M 383.260573 202.79303 
L 383.952811 184.387845 
L 384.644637 179.705266 
M 388.104412 202.634384 
L 388.796657 192.978245 
M 390.179932 221.086478 
L 390.872169 239.548489 
L 391.564426 247.409143 
L 391.564426 247.409143 
" style="fill:none;stroke:#0000ff;stroke-linecap:square;"/>
   </g>
   <g id="line2d_97">
    <path clip-path="url(#p83961ed160)" d="M 101.516997 252.971414 
L 102.209241 251.180119 
M 107.05535 228.289675 
L 107.747587 219.364744 
M 144.436993 147.344212 
L 145.129236 185.790656 
L 145.821474 241.257223 
L 146.511257 265.899663 
L 147.203494 248.995876 
L 147.895731 247.31277 
L 148.588378 257.570879 
L 149.281455 232.991484 
M 150.665929 176.497944 
L 151.358166 139.04108 
M 155.510224 260.556244 
L 156.20247 285.821639 
L 156.894699 295.488 
L 157.586944 276.657615 
L 158.279343 275.735612 
M 164.510795 208.390734 
L 165.203032 246.240279 
M 169.356457 221.167241 
L 170.048694 179.002212 
M 184.585113 286.932547 
L 185.2776 283.47955 
L 185.969588 272.437011 
M 187.353692 221.112405 
L 188.045929 172.002673 
L 188.738167 141.899716 
M 192.199235 226.168737 
L 193.583718 254.672262 
M 194.967935 274.301566 
L 195.660172 252.728466 
L 196.352409 236.06697 
L 197.044646 203.923041 
M 265.576308 191.059785 
L 266.268553 220.66111 
L 266.960791 256.228282 
L 267.653028 273.169932 
L 268.344813 263.447171 
L 269.03705 251.829298 
L 269.729287 217.318327 
L 270.421524 219.382817 
L 271.116285 222.013537 
L 271.808522 196.595172 
L 272.500759 183.02248 
L 273.192996 197.048023 
L 273.886626 220.694404 
M 275.271101 169.453505 
L 275.963338 156.401997 
L 276.655785 160.855327 
L 278.040266 207.451269 
L 278.732503 242.612225 
L 279.422083 259.848947 
L 280.11432 242.120433 
M 281.498794 143.89877 
L 282.192431 112.976279 
L 282.885262 149.691808 
L 283.576905 226.276423 
L 284.269143 257.295158 
L 285.652297 183.122998 
L 286.344534 167.557258 
L 287.036771 166.207763 
L 287.729008 181.194662 
L 288.421904 246.300395 
L 289.114148 269.719157 
L 289.806385 253.551833 
L 290.498622 257.530577 
L 291.190092 256.872224 
L 292.574566 137.818472 
L 293.266803 156.944398 
L 293.961207 171.098814 
L 294.653451 167.11124 
L 295.345682 180.227177 
L 296.037925 162.988894 
L 296.728311 117.554092 
L 297.420548 91.545258 
L 298.112785 85.050151 
L 298.805022 95.339746 
L 299.500625 130.06156 
L 300.192862 182.545805 
L 300.885099 191.100132 
L 301.577343 179.645489 
L 302.26739 196.88658 
L 302.959621 197.601875 
L 303.651864 156.588767 
L 304.344095 76.002225 
L 305.037283 60.875921 
L 306.421757 156.978208 
L 307.114493 171.736048 
L 307.804746 145.764331 
L 308.496983 133.266095 
L 309.18922 150.071609 
L 309.881458 153.253965 
L 310.575802 153.003751 
L 311.268039 171.545597 
L 311.960277 196.827972 
L 312.65252 172.553876 
L 313.343492 112.260219 
L 314.035729 108.323669 
L 314.727973 135.017569 
L 315.42021 149.732463 
L 316.112447 144.978011 
L 317.496096 62.399084 
L 318.880571 133.282812 
L 319.576584 158.394177 
M 321.653295 199.897028 
L 322.342377 201.071783 
L 323.034614 218.592228 
L 323.726858 212.640712 
M 334.807119 181.780584 
L 335.499356 178.940077 
L 336.190619 147.985204 
L 336.882856 123.837817 
L 337.575094 112.913289 
L 338.267337 142.430154 
L 338.959426 192.633738 
M 344.492933 169.70277 
L 345.18517 187.18474 
L 345.877414 169.303543 
L 346.569651 159.92937 
L 347.262064 159.058247 
L 347.953989 160.002143 
L 348.646226 170.939669 
L 349.338463 207.498449 
L 350.0307 201.807045 
L 350.722267 141.084662 
L 351.414505 134.444573 
L 352.106742 177.869293 
L 352.798979 160.078269 
L 353.491776 133.231434 
M 354.87625 137.497492 
L 355.569124 181.440237 
L 356.26317 170.217669 
L 356.955416 164.770251 
L 357.647653 187.572122 
M 360.414189 170.067436 
L 361.799274 212.749374 
L 362.491511 212.626774 
L 363.183748 178.379189 
L 363.875985 166.436877 
M 365.260626 205.491197 
L 365.952863 215.538046 
L 366.6451 238.02327 
L 367.338052 231.059988 
M 370.80022 190.224224 
L 371.492457 190.491568 
L 372.184694 215.956297 
L 372.877912 251.030146 
L 373.570157 203.663649 
L 374.262395 178.80208 
M 376.34006 193.031012 
L 377.032291 235.855781 
M 380.492239 207.87584 
L 381.184476 204.5275 
L 381.876099 221.396171 
L 382.568336 208.197113 
M 385.336874 182.656834 
L 386.721348 213.99058 
L 387.412183 207.246315 
M 392.256643 200.613195 
L 392.948735 210.437149 
L 393.640972 229.768408 
L 394.333209 232.196211 
L 395.025447 224.133282 
L 395.717867 225.358769 
L 396.410104 222.914808 
L 397.794578 214.839848 
L 398.487273 215.944581 
L 398.487273 215.944581 
" style="fill:none;stroke:#008000;stroke-linecap:square;"/>
   </g>
   <g id="patch_3">
    <path d="M 57.6 307.584 
L 57.6 41.472 
" style="fill:none;stroke:#000000;stroke-linecap:square;stroke-linejoin:miter;stroke-width:0.8;"/>
   </g>
   <g id="patch_4">
    <path d="M 414.72 307.584 
L 414.72 41.472 
" style="fill:none;stroke:#000000;stroke-linecap:square;stroke-linejoin:miter;stroke-width:0.8;"/>
   </g>
   <g id="patch_5">
    <path d="M 57.6 307.584 
L 414.72 307.584 
" style="fill:none;stroke:#000000;stroke-linecap:square;stroke-linejoin:miter;stroke-width:0.8;"/>
   </g>
   <g id="patch_6">
    <path d="M 57.6 41.472 
L 414.72 41.472 
" style="fill:none;stroke:#000000;stroke-linecap:square;stroke-linejoin:miter;stroke-width:0.8;"/>
   </g>
   <g id="text_12">
    <!-- Rel Gt Rot X Plot -->
    <defs>
     <path d="M 44.390625 34.1875 
Q 47.5625 33.109375 50.5625 29.59375 
Q 53.5625 26.078125 56.59375 19.921875 
L 66.609375 0 
L 56 0 
L 46.6875 18.703125 
Q 43.0625 26.03125 39.671875 28.421875 
Q 36.28125 30.8125 30.421875 30.8125 
L 19.671875 30.8125 
L 19.671875 0 
L 9.8125 0 
L 9.8125 72.90625 
L 32.078125 72.90625 
Q 44.578125 72.90625 50.734375 67.671875 
Q 56.890625 62.453125 56.890625 51.90625 
Q 56.890625 45.015625 53.6875 40.46875 
Q 50.484375 35.9375 44.390625 34.1875 
z
M 19.671875 64.796875 
L 19.671875 38.921875 
L 32.078125 38.921875 
Q 39.203125 38.921875 42.84375 42.21875 
Q 46.484375 45.515625 46.484375 51.90625 
Q 46.484375 58.296875 42.84375 61.546875 
Q 39.203125 64.796875 32.078125 64.796875 
z
" id="DejaVuSans-52"/>
     <path d="M 9.421875 75.984375 
L 18.40625 75.984375 
L 18.40625 0 
L 9.421875 0 
z
" id="DejaVuSans-6c"/>
     <path d="M 59.515625 10.40625 
L 59.515625 29.984375 
L 43.40625 29.984375 
L 43.40625 38.09375 
L 69.28125 38.09375 
L 69.28125 6.78125 
Q 63.578125 2.734375 56.6875 0.65625 
Q 49.8125 -1.421875 42 -1.421875 
Q 24.90625 -1.421875 15.25 8.5625 
Q 5.609375 18.5625 5.609375 36.375 
Q 5.609375 54.25 15.25 64.234375 
Q 24.90625 74.21875 42 74.21875 
Q 49.125 74.21875 55.546875 72.453125 
Q 61.96875 70.703125 67.390625 67.28125 
L 67.390625 56.78125 
Q 61.921875 61.421875 55.765625 63.765625 
Q 49.609375 66.109375 42.828125 66.109375 
Q 29.4375 66.109375 22.71875 58.640625 
Q 16.015625 51.171875 16.015625 36.375 
Q 16.015625 21.625 22.71875 14.15625 
Q 29.4375 6.6875 42.828125 6.6875 
Q 48.046875 6.6875 52.140625 7.59375 
Q 56.25 8.5 59.515625 10.40625 
z
" id="DejaVuSans-47"/>
     <path d="M 6.296875 72.90625 
L 16.890625 72.90625 
L 35.015625 45.796875 
L 53.21875 72.90625 
L 63.8125 72.90625 
L 40.375 37.890625 
L 65.375 0 
L 54.78125 0 
L 34.28125 31 
L 13.625 0 
L 2.984375 0 
L 29 38.921875 
z
" id="DejaVuSans-58"/>
     <path d="M 19.671875 64.796875 
L 19.671875 37.40625 
L 32.078125 37.40625 
Q 38.96875 37.40625 42.71875 40.96875 
Q 46.484375 44.53125 46.484375 51.125 
Q 46.484375 57.671875 42.71875 61.234375 
Q 38.96875 64.796875 32.078125 64.796875 
z
M 9.8125 72.90625 
L 32.078125 72.90625 
Q 44.34375 72.90625 50.609375 67.359375 
Q 56.890625 61.8125 56.890625 51.125 
Q 56.890625 40.328125 50.609375 34.8125 
Q 44.34375 29.296875 32.078125 29.296875 
L 19.671875 29.296875 
L 19.671875 0 
L 9.8125 0 
z
" id="DejaVuSans-50"/>
    </defs>
    <g transform="translate(186.400312 35.472)scale(0.12 -0.12)">
     <use xlink:href="#DejaVuSans-52"/>
     <use x="69.419922" xlink:href="#DejaVuSans-65"/>
     <use x="130.943359" xlink:href="#DejaVuSans-6c"/>
     <use x="158.726562" xlink:href="#DejaVuSans-20"/>
     <use x="190.513672" xlink:href="#DejaVuSans-47"/>
     <use x="268.003906" xlink:href="#DejaVuSans-74"/>
     <use x="307.212891" xlink:href="#DejaVuSans-20"/>
     <use x="339" xlink:href="#DejaVuSans-52"/>
     <use x="408.419922" xlink:href="#DejaVuSans-6f"/>
     <use x="469.601562" xlink:href="#DejaVuSans-74"/>
     <use x="508.810547" xlink:href="#DejaVuSans-20"/>
     <use x="540.597656" xlink:href="#DejaVuSans-58"/>
     <use x="609.103516" xlink:href="#DejaVuSans-20"/>
     <use x="640.890625" xlink:href="#DejaVuSans-50"/>
     <use x="701.193359" xlink:href="#DejaVuSans-6c"/>
     <use x="728.976562" xlink:href="#DejaVuSans-6f"/>
     <use x="790.158203" xlink:href="#DejaVuSans-74"/>
    </g>
   </g>
  </g>
 </g>
 <defs>
  <clipPath id="p83961ed160">
   <rect height="266.112" width="357.12" x="57.6" y="41.472"/>
  </clipPath>
 </defs>
</svg>
