<?xml version="1.0" encoding="utf-8" standalone="no"?>
<!DOCTYPE svg PUBLIC "-//W3C//DTD SVG 1.1//EN"
  "http://www.w3.org/Graphics/SVG/1.1/DTD/svg11.dtd">
<!-- Created with matplotlib (http://matplotlib.org/) -->
<svg height="345.6pt" version="1.1" viewBox="0 0 460.8 345.6" width="460.8pt" xmlns="http://www.w3.org/2000/svg" xmlns:xlink="http://www.w3.org/1999/xlink">
 <defs>
  <style type="text/css">
*{stroke-linecap:butt;stroke-linejoin:round;}
  </style>
 </defs>
 <g id="figure_1">
  <g id="patch_1">
   <path d="M 0 345.6 
L 460.8 345.6 
L 460.8 0 
L 0 0 
z
" style="fill:#ffffff;"/>
  </g>
  <g id="axes_1">
   <g id="patch_2">
    <path d="M 57.6 307.584 
L 414.72 307.584 
L 414.72 41.472 
L 57.6 41.472 
z
" style="fill:#ffffff;"/>
   </g>
   <g id="matplotlib.axis_1">
    <g id="xtick_1">
     <g id="line2d_1">
      <path clip-path="url(#p3ddbb1ddab)" d="M 70.555248 307.584 
L 70.555248 41.472 
" style="fill:none;stroke:#b0b0b0;stroke-linecap:square;stroke-width:0.8;"/>
     </g>
     <g id="line2d_2">
      <defs>
       <path d="M 0 0 
L 0 3.5 
" id="m02ab0520cc" style="stroke:#000000;stroke-width:0.8;"/>
      </defs>
      <g>
       <use style="stroke:#000000;stroke-width:0.8;" x="70.555248" xlink:href="#m02ab0520cc" y="307.584"/>
      </g>
     </g>
     <g id="text_1">
      <!-- 0 -->
      <defs>
       <path d="M 31.78125 66.40625 
Q 24.171875 66.40625 20.328125 58.90625 
Q 16.5 51.421875 16.5 36.375 
Q 16.5 21.390625 20.328125 13.890625 
Q 24.171875 6.390625 31.78125 6.390625 
Q 39.453125 6.390625 43.28125 13.890625 
Q 47.125 21.390625 47.125 36.375 
Q 47.125 51.421875 43.28125 58.90625 
Q 39.453125 66.40625 31.78125 66.40625 
z
M 31.78125 74.21875 
Q 44.046875 74.21875 50.515625 64.515625 
Q 56.984375 54.828125 56.984375 36.375 
Q 56.984375 17.96875 50.515625 8.265625 
Q 44.046875 -1.421875 31.78125 -1.421875 
Q 19.53125 -1.421875 13.0625 8.265625 
Q 6.59375 17.96875 6.59375 36.375 
Q 6.59375 54.828125 13.0625 64.515625 
Q 19.53125 74.21875 31.78125 74.21875 
z
" id="DejaVuSans-30"/>
      </defs>
      <g transform="translate(67.373998 322.182437)scale(0.1 -0.1)">
       <use xlink:href="#DejaVuSans-30"/>
      </g>
     </g>
    </g>
    <g id="xtick_2">
     <g id="line2d_3">
      <path clip-path="url(#p3ddbb1ddab)" d="M 139.776886 307.584 
L 139.776886 41.472 
" style="fill:none;stroke:#b0b0b0;stroke-linecap:square;stroke-width:0.8;"/>
     </g>
     <g id="line2d_4">
      <g>
       <use style="stroke:#000000;stroke-width:0.8;" x="139.776886" xlink:href="#m02ab0520cc" y="307.584"/>
      </g>
     </g>
     <g id="text_2">
      <!-- 10 -->
      <defs>
       <path d="M 12.40625 8.296875 
L 28.515625 8.296875 
L 28.515625 63.921875 
L 10.984375 60.40625 
L 10.984375 69.390625 
L 28.421875 72.90625 
L 38.28125 72.90625 
L 38.28125 8.296875 
L 54.390625 8.296875 
L 54.390625 0 
L 12.40625 0 
z
" id="DejaVuSans-31"/>
      </defs>
      <g transform="translate(133.414386 322.182437)scale(0.1 -0.1)">
       <use xlink:href="#DejaVuSans-31"/>
       <use x="63.623047" xlink:href="#DejaVuSans-30"/>
      </g>
     </g>
    </g>
    <g id="xtick_3">
     <g id="line2d_5">
      <path clip-path="url(#p3ddbb1ddab)" d="M 208.998523 307.584 
L 208.998523 41.472 
" style="fill:none;stroke:#b0b0b0;stroke-linecap:square;stroke-width:0.8;"/>
     </g>
     <g id="line2d_6">
      <g>
       <use style="stroke:#000000;stroke-width:0.8;" x="208.998523" xlink:href="#m02ab0520cc" y="307.584"/>
      </g>
     </g>
     <g id="text_3">
      <!-- 20 -->
      <defs>
       <path d="M 19.1875 8.296875 
L 53.609375 8.296875 
L 53.609375 0 
L 7.328125 0 
L 7.328125 8.296875 
Q 12.9375 14.109375 22.625 23.890625 
Q 32.328125 33.6875 34.8125 36.53125 
Q 39.546875 41.84375 41.421875 45.53125 
Q 43.3125 49.21875 43.3125 52.78125 
Q 43.3125 58.59375 39.234375 62.25 
Q 35.15625 65.921875 28.609375 65.921875 
Q 23.96875 65.921875 18.8125 64.3125 
Q 13.671875 62.703125 7.8125 59.421875 
L 7.8125 69.390625 
Q 13.765625 71.78125 18.9375 73 
Q 24.125 74.21875 28.421875 74.21875 
Q 39.75 74.21875 46.484375 68.546875 
Q 53.21875 62.890625 53.21875 53.421875 
Q 53.21875 48.921875 51.53125 44.890625 
Q 49.859375 40.875 45.40625 35.40625 
Q 44.1875 33.984375 37.640625 27.21875 
Q 31.109375 20.453125 19.1875 8.296875 
z
" id="DejaVuSans-32"/>
      </defs>
      <g transform="translate(202.636023 322.182437)scale(0.1 -0.1)">
       <use xlink:href="#DejaVuSans-32"/>
       <use x="63.623047" xlink:href="#DejaVuSans-30"/>
      </g>
     </g>
    </g>
    <g id="xtick_4">
     <g id="line2d_7">
      <path clip-path="url(#p3ddbb1ddab)" d="M 278.220161 307.584 
L 278.220161 41.472 
" style="fill:none;stroke:#b0b0b0;stroke-linecap:square;stroke-width:0.8;"/>
     </g>
     <g id="line2d_8">
      <g>
       <use style="stroke:#000000;stroke-width:0.8;" x="278.220161" xlink:href="#m02ab0520cc" y="307.584"/>
      </g>
     </g>
     <g id="text_4">
      <!-- 30 -->
      <defs>
       <path d="M 40.578125 39.3125 
Q 47.65625 37.796875 51.625 33 
Q 55.609375 28.21875 55.609375 21.1875 
Q 55.609375 10.40625 48.1875 4.484375 
Q 40.765625 -1.421875 27.09375 -1.421875 
Q 22.515625 -1.421875 17.65625 -0.515625 
Q 12.796875 0.390625 7.625 2.203125 
L 7.625 11.71875 
Q 11.71875 9.328125 16.59375 8.109375 
Q 21.484375 6.890625 26.8125 6.890625 
Q 36.078125 6.890625 40.9375 10.546875 
Q 45.796875 14.203125 45.796875 21.1875 
Q 45.796875 27.640625 41.28125 31.265625 
Q 36.765625 34.90625 28.71875 34.90625 
L 20.21875 34.90625 
L 20.21875 43.015625 
L 29.109375 43.015625 
Q 36.375 43.015625 40.234375 45.921875 
Q 44.09375 48.828125 44.09375 54.296875 
Q 44.09375 59.90625 40.109375 62.90625 
Q 36.140625 65.921875 28.71875 65.921875 
Q 24.65625 65.921875 20.015625 65.03125 
Q 15.375 64.15625 9.8125 62.3125 
L 9.8125 71.09375 
Q 15.4375 72.65625 20.34375 73.4375 
Q 25.25 74.21875 29.59375 74.21875 
Q 40.828125 74.21875 47.359375 69.109375 
Q 53.90625 64.015625 53.90625 55.328125 
Q 53.90625 49.265625 50.4375 45.09375 
Q 46.96875 40.921875 40.578125 39.3125 
z
" id="DejaVuSans-33"/>
      </defs>
      <g transform="translate(271.857661 322.182437)scale(0.1 -0.1)">
       <use xlink:href="#DejaVuSans-33"/>
       <use x="63.623047" xlink:href="#DejaVuSans-30"/>
      </g>
     </g>
    </g>
    <g id="xtick_5">
     <g id="line2d_9">
      <path clip-path="url(#p3ddbb1ddab)" d="M 347.441799 307.584 
L 347.441799 41.472 
" style="fill:none;stroke:#b0b0b0;stroke-linecap:square;stroke-width:0.8;"/>
     </g>
     <g id="line2d_10">
      <g>
       <use style="stroke:#000000;stroke-width:0.8;" x="347.441799" xlink:href="#m02ab0520cc" y="307.584"/>
      </g>
     </g>
     <g id="text_5">
      <!-- 40 -->
      <defs>
       <path d="M 37.796875 64.3125 
L 12.890625 25.390625 
L 37.796875 25.390625 
z
M 35.203125 72.90625 
L 47.609375 72.90625 
L 47.609375 25.390625 
L 58.015625 25.390625 
L 58.015625 17.1875 
L 47.609375 17.1875 
L 47.609375 0 
L 37.796875 0 
L 37.796875 17.1875 
L 4.890625 17.1875 
L 4.890625 26.703125 
z
" id="DejaVuSans-34"/>
      </defs>
      <g transform="translate(341.079299 322.182437)scale(0.1 -0.1)">
       <use xlink:href="#DejaVuSans-34"/>
       <use x="63.623047" xlink:href="#DejaVuSans-30"/>
      </g>
     </g>
    </g>
    <g id="xtick_6">
     <g id="line2d_11">
      <path clip-path="url(#p3ddbb1ddab)" d="M 84.399575 307.584 
L 84.399575 41.472 
" style="fill:none;stroke:#b0b0b0;stroke-linecap:square;stroke-width:0.8;"/>
     </g>
     <g id="line2d_12">
      <defs>
       <path d="M 0 0 
L 0 2 
" id="md2f592323b" style="stroke:#000000;stroke-width:0.6;"/>
      </defs>
      <g>
       <use style="stroke:#000000;stroke-width:0.6;" x="84.399575" xlink:href="#md2f592323b" y="307.584"/>
      </g>
     </g>
    </g>
    <g id="xtick_7">
     <g id="line2d_13">
      <path clip-path="url(#p3ddbb1ddab)" d="M 98.243903 307.584 
L 98.243903 41.472 
" style="fill:none;stroke:#b0b0b0;stroke-linecap:square;stroke-width:0.8;"/>
     </g>
     <g id="line2d_14">
      <g>
       <use style="stroke:#000000;stroke-width:0.6;" x="98.243903" xlink:href="#md2f592323b" y="307.584"/>
      </g>
     </g>
    </g>
    <g id="xtick_8">
     <g id="line2d_15">
      <path clip-path="url(#p3ddbb1ddab)" d="M 112.08823 307.584 
L 112.08823 41.472 
" style="fill:none;stroke:#b0b0b0;stroke-linecap:square;stroke-width:0.8;"/>
     </g>
     <g id="line2d_16">
      <g>
       <use style="stroke:#000000;stroke-width:0.6;" x="112.08823" xlink:href="#md2f592323b" y="307.584"/>
      </g>
     </g>
    </g>
    <g id="xtick_9">
     <g id="line2d_17">
      <path clip-path="url(#p3ddbb1ddab)" d="M 125.932558 307.584 
L 125.932558 41.472 
" style="fill:none;stroke:#b0b0b0;stroke-linecap:square;stroke-width:0.8;"/>
     </g>
     <g id="line2d_18">
      <g>
       <use style="stroke:#000000;stroke-width:0.6;" x="125.932558" xlink:href="#md2f592323b" y="307.584"/>
      </g>
     </g>
    </g>
    <g id="xtick_10">
     <g id="line2d_19">
      <path clip-path="url(#p3ddbb1ddab)" d="M 153.621213 307.584 
L 153.621213 41.472 
" style="fill:none;stroke:#b0b0b0;stroke-linecap:square;stroke-width:0.8;"/>
     </g>
     <g id="line2d_20">
      <g>
       <use style="stroke:#000000;stroke-width:0.6;" x="153.621213" xlink:href="#md2f592323b" y="307.584"/>
      </g>
     </g>
    </g>
    <g id="xtick_11">
     <g id="line2d_21">
      <path clip-path="url(#p3ddbb1ddab)" d="M 167.465541 307.584 
L 167.465541 41.472 
" style="fill:none;stroke:#b0b0b0;stroke-linecap:square;stroke-width:0.8;"/>
     </g>
     <g id="line2d_22">
      <g>
       <use style="stroke:#000000;stroke-width:0.6;" x="167.465541" xlink:href="#md2f592323b" y="307.584"/>
      </g>
     </g>
    </g>
    <g id="xtick_12">
     <g id="line2d_23">
      <path clip-path="url(#p3ddbb1ddab)" d="M 181.309868 307.584 
L 181.309868 41.472 
" style="fill:none;stroke:#b0b0b0;stroke-linecap:square;stroke-width:0.8;"/>
     </g>
     <g id="line2d_24">
      <g>
       <use style="stroke:#000000;stroke-width:0.6;" x="181.309868" xlink:href="#md2f592323b" y="307.584"/>
      </g>
     </g>
    </g>
    <g id="xtick_13">
     <g id="line2d_25">
      <path clip-path="url(#p3ddbb1ddab)" d="M 195.154196 307.584 
L 195.154196 41.472 
" style="fill:none;stroke:#b0b0b0;stroke-linecap:square;stroke-width:0.8;"/>
     </g>
     <g id="line2d_26">
      <g>
       <use style="stroke:#000000;stroke-width:0.6;" x="195.154196" xlink:href="#md2f592323b" y="307.584"/>
      </g>
     </g>
    </g>
    <g id="xtick_14">
     <g id="line2d_27">
      <path clip-path="url(#p3ddbb1ddab)" d="M 222.842851 307.584 
L 222.842851 41.472 
" style="fill:none;stroke:#b0b0b0;stroke-linecap:square;stroke-width:0.8;"/>
     </g>
     <g id="line2d_28">
      <g>
       <use style="stroke:#000000;stroke-width:0.6;" x="222.842851" xlink:href="#md2f592323b" y="307.584"/>
      </g>
     </g>
    </g>
    <g id="xtick_15">
     <g id="line2d_29">
      <path clip-path="url(#p3ddbb1ddab)" d="M 236.687178 307.584 
L 236.687178 41.472 
" style="fill:none;stroke:#b0b0b0;stroke-linecap:square;stroke-width:0.8;"/>
     </g>
     <g id="line2d_30">
      <g>
       <use style="stroke:#000000;stroke-width:0.6;" x="236.687178" xlink:href="#md2f592323b" y="307.584"/>
      </g>
     </g>
    </g>
    <g id="xtick_16">
     <g id="line2d_31">
      <path clip-path="url(#p3ddbb1ddab)" d="M 250.531506 307.584 
L 250.531506 41.472 
" style="fill:none;stroke:#b0b0b0;stroke-linecap:square;stroke-width:0.8;"/>
     </g>
     <g id="line2d_32">
      <g>
       <use style="stroke:#000000;stroke-width:0.6;" x="250.531506" xlink:href="#md2f592323b" y="307.584"/>
      </g>
     </g>
    </g>
    <g id="xtick_17">
     <g id="line2d_33">
      <path clip-path="url(#p3ddbb1ddab)" d="M 264.375834 307.584 
L 264.375834 41.472 
" style="fill:none;stroke:#b0b0b0;stroke-linecap:square;stroke-width:0.8;"/>
     </g>
     <g id="line2d_34">
      <g>
       <use style="stroke:#000000;stroke-width:0.6;" x="264.375834" xlink:href="#md2f592323b" y="307.584"/>
      </g>
     </g>
    </g>
    <g id="xtick_18">
     <g id="line2d_35">
      <path clip-path="url(#p3ddbb1ddab)" d="M 292.064489 307.584 
L 292.064489 41.472 
" style="fill:none;stroke:#b0b0b0;stroke-linecap:square;stroke-width:0.8;"/>
     </g>
     <g id="line2d_36">
      <g>
       <use style="stroke:#000000;stroke-width:0.6;" x="292.064489" xlink:href="#md2f592323b" y="307.584"/>
      </g>
     </g>
    </g>
    <g id="xtick_19">
     <g id="line2d_37">
      <path clip-path="url(#p3ddbb1ddab)" d="M 305.908816 307.584 
L 305.908816 41.472 
" style="fill:none;stroke:#b0b0b0;stroke-linecap:square;stroke-width:0.8;"/>
     </g>
     <g id="line2d_38">
      <g>
       <use style="stroke:#000000;stroke-width:0.6;" x="305.908816" xlink:href="#md2f592323b" y="307.584"/>
      </g>
     </g>
    </g>
    <g id="xtick_20">
     <g id="line2d_39">
      <path clip-path="url(#p3ddbb1ddab)" d="M 319.753144 307.584 
L 319.753144 41.472 
" style="fill:none;stroke:#b0b0b0;stroke-linecap:square;stroke-width:0.8;"/>
     </g>
     <g id="line2d_40">
      <g>
       <use style="stroke:#000000;stroke-width:0.6;" x="319.753144" xlink:href="#md2f592323b" y="307.584"/>
      </g>
     </g>
    </g>
    <g id="xtick_21">
     <g id="line2d_41">
      <path clip-path="url(#p3ddbb1ddab)" d="M 333.597471 307.584 
L 333.597471 41.472 
" style="fill:none;stroke:#b0b0b0;stroke-linecap:square;stroke-width:0.8;"/>
     </g>
     <g id="line2d_42">
      <g>
       <use style="stroke:#000000;stroke-width:0.6;" x="333.597471" xlink:href="#md2f592323b" y="307.584"/>
      </g>
     </g>
    </g>
    <g id="xtick_22">
     <g id="line2d_43">
      <path clip-path="url(#p3ddbb1ddab)" d="M 361.286127 307.584 
L 361.286127 41.472 
" style="fill:none;stroke:#b0b0b0;stroke-linecap:square;stroke-width:0.8;"/>
     </g>
     <g id="line2d_44">
      <g>
       <use style="stroke:#000000;stroke-width:0.6;" x="361.286127" xlink:href="#md2f592323b" y="307.584"/>
      </g>
     </g>
    </g>
    <g id="xtick_23">
     <g id="line2d_45">
      <path clip-path="url(#p3ddbb1ddab)" d="M 375.130454 307.584 
L 375.130454 41.472 
" style="fill:none;stroke:#b0b0b0;stroke-linecap:square;stroke-width:0.8;"/>
     </g>
     <g id="line2d_46">
      <g>
       <use style="stroke:#000000;stroke-width:0.6;" x="375.130454" xlink:href="#md2f592323b" y="307.584"/>
      </g>
     </g>
    </g>
    <g id="xtick_24">
     <g id="line2d_47">
      <path clip-path="url(#p3ddbb1ddab)" d="M 388.974782 307.584 
L 388.974782 41.472 
" style="fill:none;stroke:#b0b0b0;stroke-linecap:square;stroke-width:0.8;"/>
     </g>
     <g id="line2d_48">
      <g>
       <use style="stroke:#000000;stroke-width:0.6;" x="388.974782" xlink:href="#md2f592323b" y="307.584"/>
      </g>
     </g>
    </g>
    <g id="xtick_25">
     <g id="line2d_49">
      <path clip-path="url(#p3ddbb1ddab)" d="M 402.819109 307.584 
L 402.819109 41.472 
" style="fill:none;stroke:#b0b0b0;stroke-linecap:square;stroke-width:0.8;"/>
     </g>
     <g id="line2d_50">
      <g>
       <use style="stroke:#000000;stroke-width:0.6;" x="402.819109" xlink:href="#md2f592323b" y="307.584"/>
      </g>
     </g>
    </g>
    <g id="text_6">
     <!-- frame # [] -->
     <defs>
      <path d="M 37.109375 75.984375 
L 37.109375 68.5 
L 28.515625 68.5 
Q 23.6875 68.5 21.796875 66.546875 
Q 19.921875 64.59375 19.921875 59.515625 
L 19.921875 54.6875 
L 34.71875 54.6875 
L 34.71875 47.703125 
L 19.921875 47.703125 
L 19.921875 0 
L 10.890625 0 
L 10.890625 47.703125 
L 2.296875 47.703125 
L 2.296875 54.6875 
L 10.890625 54.6875 
L 10.890625 58.5 
Q 10.890625 67.625 15.140625 71.796875 
Q 19.390625 75.984375 28.609375 75.984375 
z
" id="DejaVuSans-66"/>
      <path d="M 41.109375 46.296875 
Q 39.59375 47.171875 37.8125 47.578125 
Q 36.03125 48 33.890625 48 
Q 26.265625 48 22.1875 43.046875 
Q 18.109375 38.09375 18.109375 28.8125 
L 18.109375 0 
L 9.078125 0 
L 9.078125 54.6875 
L 18.109375 54.6875 
L 18.109375 46.1875 
Q 20.953125 51.171875 25.484375 53.578125 
Q 30.03125 56 36.53125 56 
Q 37.453125 56 38.578125 55.875 
Q 39.703125 55.765625 41.0625 55.515625 
z
" id="DejaVuSans-72"/>
      <path d="M 34.28125 27.484375 
Q 23.390625 27.484375 19.1875 25 
Q 14.984375 22.515625 14.984375 16.5 
Q 14.984375 11.71875 18.140625 8.90625 
Q 21.296875 6.109375 26.703125 6.109375 
Q 34.1875 6.109375 38.703125 11.40625 
Q 43.21875 16.703125 43.21875 25.484375 
L 43.21875 27.484375 
z
M 52.203125 31.203125 
L 52.203125 0 
L 43.21875 0 
L 43.21875 8.296875 
Q 40.140625 3.328125 35.546875 0.953125 
Q 30.953125 -1.421875 24.3125 -1.421875 
Q 15.921875 -1.421875 10.953125 3.296875 
Q 6 8.015625 6 15.921875 
Q 6 25.140625 12.171875 29.828125 
Q 18.359375 34.515625 30.609375 34.515625 
L 43.21875 34.515625 
L 43.21875 35.40625 
Q 43.21875 41.609375 39.140625 45 
Q 35.0625 48.390625 27.6875 48.390625 
Q 23 48.390625 18.546875 47.265625 
Q 14.109375 46.140625 10.015625 43.890625 
L 10.015625 52.203125 
Q 14.9375 54.109375 19.578125 55.046875 
Q 24.21875 56 28.609375 56 
Q 40.484375 56 46.34375 49.84375 
Q 52.203125 43.703125 52.203125 31.203125 
z
" id="DejaVuSans-61"/>
      <path d="M 52 44.1875 
Q 55.375 50.25 60.0625 53.125 
Q 64.75 56 71.09375 56 
Q 79.640625 56 84.28125 50.015625 
Q 88.921875 44.046875 88.921875 33.015625 
L 88.921875 0 
L 79.890625 0 
L 79.890625 32.71875 
Q 79.890625 40.578125 77.09375 44.375 
Q 74.3125 48.1875 68.609375 48.1875 
Q 61.625 48.1875 57.5625 43.546875 
Q 53.515625 38.921875 53.515625 30.90625 
L 53.515625 0 
L 44.484375 0 
L 44.484375 32.71875 
Q 44.484375 40.625 41.703125 44.40625 
Q 38.921875 48.1875 33.109375 48.1875 
Q 26.21875 48.1875 22.15625 43.53125 
Q 18.109375 38.875 18.109375 30.90625 
L 18.109375 0 
L 9.078125 0 
L 9.078125 54.6875 
L 18.109375 54.6875 
L 18.109375 46.1875 
Q 21.1875 51.21875 25.484375 53.609375 
Q 29.78125 56 35.6875 56 
Q 41.65625 56 45.828125 52.96875 
Q 50 49.953125 52 44.1875 
z
" id="DejaVuSans-6d"/>
      <path d="M 56.203125 29.59375 
L 56.203125 25.203125 
L 14.890625 25.203125 
Q 15.484375 15.921875 20.484375 11.0625 
Q 25.484375 6.203125 34.421875 6.203125 
Q 39.59375 6.203125 44.453125 7.46875 
Q 49.3125 8.734375 54.109375 11.28125 
L 54.109375 2.78125 
Q 49.265625 0.734375 44.1875 -0.34375 
Q 39.109375 -1.421875 33.890625 -1.421875 
Q 20.796875 -1.421875 13.15625 6.1875 
Q 5.515625 13.8125 5.515625 26.8125 
Q 5.515625 40.234375 12.765625 48.109375 
Q 20.015625 56 32.328125 56 
Q 43.359375 56 49.78125 48.890625 
Q 56.203125 41.796875 56.203125 29.59375 
z
M 47.21875 32.234375 
Q 47.125 39.59375 43.09375 43.984375 
Q 39.0625 48.390625 32.421875 48.390625 
Q 24.90625 48.390625 20.390625 44.140625 
Q 15.875 39.890625 15.1875 32.171875 
z
" id="DejaVuSans-65"/>
      <path id="DejaVuSans-20"/>
      <path d="M 51.125 44 
L 36.921875 44 
L 32.8125 27.6875 
L 47.125 27.6875 
z
M 43.796875 71.78125 
L 38.71875 51.515625 
L 52.984375 51.515625 
L 58.109375 71.78125 
L 65.921875 71.78125 
L 60.890625 51.515625 
L 76.125 51.515625 
L 76.125 44 
L 58.984375 44 
L 54.984375 27.6875 
L 70.515625 27.6875 
L 70.515625 20.21875 
L 53.078125 20.21875 
L 48 0 
L 40.1875 0 
L 45.21875 20.21875 
L 30.90625 20.21875 
L 25.875 0 
L 18.015625 0 
L 23.09375 20.21875 
L 7.71875 20.21875 
L 7.71875 27.6875 
L 24.90625 27.6875 
L 29 44 
L 13.28125 44 
L 13.28125 51.515625 
L 30.90625 51.515625 
L 35.890625 71.78125 
z
" id="DejaVuSans-23"/>
      <path d="M 8.59375 75.984375 
L 29.296875 75.984375 
L 29.296875 69 
L 17.578125 69 
L 17.578125 -6.203125 
L 29.296875 -6.203125 
L 29.296875 -13.1875 
L 8.59375 -13.1875 
z
" id="DejaVuSans-5b"/>
      <path d="M 30.421875 75.984375 
L 30.421875 -13.1875 
L 9.71875 -13.1875 
L 9.71875 -6.203125 
L 21.390625 -6.203125 
L 21.390625 69 
L 9.71875 69 
L 9.71875 75.984375 
z
" id="DejaVuSans-5d"/>
     </defs>
     <g transform="translate(210.063906 335.860562)scale(0.1 -0.1)">
      <use xlink:href="#DejaVuSans-66"/>
      <use x="35.205078" xlink:href="#DejaVuSans-72"/>
      <use x="76.318359" xlink:href="#DejaVuSans-61"/>
      <use x="137.597656" xlink:href="#DejaVuSans-6d"/>
      <use x="235.009766" xlink:href="#DejaVuSans-65"/>
      <use x="296.533203" xlink:href="#DejaVuSans-20"/>
      <use x="328.320312" xlink:href="#DejaVuSans-23"/>
      <use x="412.109375" xlink:href="#DejaVuSans-20"/>
      <use x="443.896484" xlink:href="#DejaVuSans-5b"/>
      <use x="482.910156" xlink:href="#DejaVuSans-5d"/>
     </g>
    </g>
   </g>
   <g id="matplotlib.axis_2">
    <g id="ytick_1">
     <g id="line2d_51">
      <path clip-path="url(#p3ddbb1ddab)" d="M 57.6 286.584095 
L 414.72 286.584095 
" style="fill:none;stroke:#b0b0b0;stroke-linecap:square;stroke-width:0.8;"/>
     </g>
     <g id="line2d_52">
      <defs>
       <path d="M 0 0 
L -3.5 0 
" id="m5b84597eb8" style="stroke:#000000;stroke-width:0.8;"/>
      </defs>
      <g>
       <use style="stroke:#000000;stroke-width:0.8;" x="57.6" xlink:href="#m5b84597eb8" y="286.584095"/>
      </g>
     </g>
     <g id="text_7">
      <!-- −0.15 -->
      <defs>
       <path d="M 10.59375 35.5 
L 73.1875 35.5 
L 73.1875 27.203125 
L 10.59375 27.203125 
z
" id="DejaVuSans-2212"/>
       <path d="M 10.6875 12.40625 
L 21 12.40625 
L 21 0 
L 10.6875 0 
z
" id="DejaVuSans-2e"/>
       <path d="M 10.796875 72.90625 
L 49.515625 72.90625 
L 49.515625 64.59375 
L 19.828125 64.59375 
L 19.828125 46.734375 
Q 21.96875 47.46875 24.109375 47.828125 
Q 26.265625 48.1875 28.421875 48.1875 
Q 40.625 48.1875 47.75 41.5 
Q 54.890625 34.8125 54.890625 23.390625 
Q 54.890625 11.625 47.5625 5.09375 
Q 40.234375 -1.421875 26.90625 -1.421875 
Q 22.3125 -1.421875 17.546875 -0.640625 
Q 12.796875 0.140625 7.71875 1.703125 
L 7.71875 11.625 
Q 12.109375 9.234375 16.796875 8.0625 
Q 21.484375 6.890625 26.703125 6.890625 
Q 35.15625 6.890625 40.078125 11.328125 
Q 45.015625 15.765625 45.015625 23.390625 
Q 45.015625 31 40.078125 35.4375 
Q 35.15625 39.890625 26.703125 39.890625 
Q 22.75 39.890625 18.8125 39.015625 
Q 14.890625 38.140625 10.796875 36.28125 
z
" id="DejaVuSans-35"/>
      </defs>
      <g transform="translate(19.954687 290.383313)scale(0.1 -0.1)">
       <use xlink:href="#DejaVuSans-2212"/>
       <use x="83.789062" xlink:href="#DejaVuSans-30"/>
       <use x="147.412109" xlink:href="#DejaVuSans-2e"/>
       <use x="179.199219" xlink:href="#DejaVuSans-31"/>
       <use x="242.822266" xlink:href="#DejaVuSans-35"/>
      </g>
     </g>
    </g>
    <g id="ytick_2">
     <g id="line2d_53">
      <path clip-path="url(#p3ddbb1ddab)" d="M 57.6 253.272708 
L 414.72 253.272708 
" style="fill:none;stroke:#b0b0b0;stroke-linecap:square;stroke-width:0.8;"/>
     </g>
     <g id="line2d_54">
      <g>
       <use style="stroke:#000000;stroke-width:0.8;" x="57.6" xlink:href="#m5b84597eb8" y="253.272708"/>
      </g>
     </g>
     <g id="text_8">
      <!-- −0.10 -->
      <g transform="translate(19.954687 257.071926)scale(0.1 -0.1)">
       <use xlink:href="#DejaVuSans-2212"/>
       <use x="83.789062" xlink:href="#DejaVuSans-30"/>
       <use x="147.412109" xlink:href="#DejaVuSans-2e"/>
       <use x="179.199219" xlink:href="#DejaVuSans-31"/>
       <use x="242.822266" xlink:href="#DejaVuSans-30"/>
      </g>
     </g>
    </g>
    <g id="ytick_3">
     <g id="line2d_55">
      <path clip-path="url(#p3ddbb1ddab)" d="M 57.6 219.961321 
L 414.72 219.961321 
" style="fill:none;stroke:#b0b0b0;stroke-linecap:square;stroke-width:0.8;"/>
     </g>
     <g id="line2d_56">
      <g>
       <use style="stroke:#000000;stroke-width:0.8;" x="57.6" xlink:href="#m5b84597eb8" y="219.961321"/>
      </g>
     </g>
     <g id="text_9">
      <!-- −0.05 -->
      <g transform="translate(19.954687 223.760539)scale(0.1 -0.1)">
       <use xlink:href="#DejaVuSans-2212"/>
       <use x="83.789062" xlink:href="#DejaVuSans-30"/>
       <use x="147.412109" xlink:href="#DejaVuSans-2e"/>
       <use x="179.199219" xlink:href="#DejaVuSans-30"/>
       <use x="242.822266" xlink:href="#DejaVuSans-35"/>
      </g>
     </g>
    </g>
    <g id="ytick_4">
     <g id="line2d_57">
      <path clip-path="url(#p3ddbb1ddab)" d="M 57.6 186.649934 
L 414.72 186.649934 
" style="fill:none;stroke:#b0b0b0;stroke-linecap:square;stroke-width:0.8;"/>
     </g>
     <g id="line2d_58">
      <g>
       <use style="stroke:#000000;stroke-width:0.8;" x="57.6" xlink:href="#m5b84597eb8" y="186.649934"/>
      </g>
     </g>
     <g id="text_10">
      <!-- 0.00 -->
      <g transform="translate(28.334375 190.449152)scale(0.1 -0.1)">
       <use xlink:href="#DejaVuSans-30"/>
       <use x="63.623047" xlink:href="#DejaVuSans-2e"/>
       <use x="95.410156" xlink:href="#DejaVuSans-30"/>
       <use x="159.033203" xlink:href="#DejaVuSans-30"/>
      </g>
     </g>
    </g>
    <g id="ytick_5">
     <g id="line2d_59">
      <path clip-path="url(#p3ddbb1ddab)" d="M 57.6 153.338547 
L 414.72 153.338547 
" style="fill:none;stroke:#b0b0b0;stroke-linecap:square;stroke-width:0.8;"/>
     </g>
     <g id="line2d_60">
      <g>
       <use style="stroke:#000000;stroke-width:0.8;" x="57.6" xlink:href="#m5b84597eb8" y="153.338547"/>
      </g>
     </g>
     <g id="text_11">
      <!-- 0.05 -->
      <g transform="translate(28.334375 157.137765)scale(0.1 -0.1)">
       <use xlink:href="#DejaVuSans-30"/>
       <use x="63.623047" xlink:href="#DejaVuSans-2e"/>
       <use x="95.410156" xlink:href="#DejaVuSans-30"/>
       <use x="159.033203" xlink:href="#DejaVuSans-35"/>
      </g>
     </g>
    </g>
    <g id="ytick_6">
     <g id="line2d_61">
      <path clip-path="url(#p3ddbb1ddab)" d="M 57.6 120.02716 
L 414.72 120.02716 
" style="fill:none;stroke:#b0b0b0;stroke-linecap:square;stroke-width:0.8;"/>
     </g>
     <g id="line2d_62">
      <g>
       <use style="stroke:#000000;stroke-width:0.8;" x="57.6" xlink:href="#m5b84597eb8" y="120.02716"/>
      </g>
     </g>
     <g id="text_12">
      <!-- 0.10 -->
      <g transform="translate(28.334375 123.826378)scale(0.1 -0.1)">
       <use xlink:href="#DejaVuSans-30"/>
       <use x="63.623047" xlink:href="#DejaVuSans-2e"/>
       <use x="95.410156" xlink:href="#DejaVuSans-31"/>
       <use x="159.033203" xlink:href="#DejaVuSans-30"/>
      </g>
     </g>
    </g>
    <g id="ytick_7">
     <g id="line2d_63">
      <path clip-path="url(#p3ddbb1ddab)" d="M 57.6 86.715773 
L 414.72 86.715773 
" style="fill:none;stroke:#b0b0b0;stroke-linecap:square;stroke-width:0.8;"/>
     </g>
     <g id="line2d_64">
      <g>
       <use style="stroke:#000000;stroke-width:0.8;" x="57.6" xlink:href="#m5b84597eb8" y="86.715773"/>
      </g>
     </g>
     <g id="text_13">
      <!-- 0.15 -->
      <g transform="translate(28.334375 90.514991)scale(0.1 -0.1)">
       <use xlink:href="#DejaVuSans-30"/>
       <use x="63.623047" xlink:href="#DejaVuSans-2e"/>
       <use x="95.410156" xlink:href="#DejaVuSans-31"/>
       <use x="159.033203" xlink:href="#DejaVuSans-35"/>
      </g>
     </g>
    </g>
    <g id="ytick_8">
     <g id="line2d_65">
      <path clip-path="url(#p3ddbb1ddab)" d="M 57.6 53.404386 
L 414.72 53.404386 
" style="fill:none;stroke:#b0b0b0;stroke-linecap:square;stroke-width:0.8;"/>
     </g>
     <g id="line2d_66">
      <g>
       <use style="stroke:#000000;stroke-width:0.8;" x="57.6" xlink:href="#m5b84597eb8" y="53.404386"/>
      </g>
     </g>
     <g id="text_14">
      <!-- 0.20 -->
      <g transform="translate(28.334375 57.203604)scale(0.1 -0.1)">
       <use xlink:href="#DejaVuSans-30"/>
       <use x="63.623047" xlink:href="#DejaVuSans-2e"/>
       <use x="95.410156" xlink:href="#DejaVuSans-32"/>
       <use x="159.033203" xlink:href="#DejaVuSans-30"/>
      </g>
     </g>
    </g>
    <g id="ytick_9">
     <g id="line2d_67">
      <path clip-path="url(#p3ddbb1ddab)" d="M 57.6 306.570927 
L 414.72 306.570927 
" style="fill:none;stroke:#b0b0b0;stroke-linecap:square;stroke-width:0.8;"/>
     </g>
     <g id="line2d_68">
      <defs>
       <path d="M 0 0 
L -2 0 
" id="m57f401f597" style="stroke:#000000;stroke-width:0.6;"/>
      </defs>
      <g>
       <use style="stroke:#000000;stroke-width:0.6;" x="57.6" xlink:href="#m57f401f597" y="306.570927"/>
      </g>
     </g>
    </g>
    <g id="ytick_10">
     <g id="line2d_69">
      <path clip-path="url(#p3ddbb1ddab)" d="M 57.6 299.908649 
L 414.72 299.908649 
" style="fill:none;stroke:#b0b0b0;stroke-linecap:square;stroke-width:0.8;"/>
     </g>
     <g id="line2d_70">
      <g>
       <use style="stroke:#000000;stroke-width:0.6;" x="57.6" xlink:href="#m57f401f597" y="299.908649"/>
      </g>
     </g>
    </g>
    <g id="ytick_11">
     <g id="line2d_71">
      <path clip-path="url(#p3ddbb1ddab)" d="M 57.6 293.246372 
L 414.72 293.246372 
" style="fill:none;stroke:#b0b0b0;stroke-linecap:square;stroke-width:0.8;"/>
     </g>
     <g id="line2d_72">
      <g>
       <use style="stroke:#000000;stroke-width:0.6;" x="57.6" xlink:href="#m57f401f597" y="293.246372"/>
      </g>
     </g>
    </g>
    <g id="ytick_12">
     <g id="line2d_73">
      <path clip-path="url(#p3ddbb1ddab)" d="M 57.6 279.921817 
L 414.72 279.921817 
" style="fill:none;stroke:#b0b0b0;stroke-linecap:square;stroke-width:0.8;"/>
     </g>
     <g id="line2d_74">
      <g>
       <use style="stroke:#000000;stroke-width:0.6;" x="57.6" xlink:href="#m57f401f597" y="279.921817"/>
      </g>
     </g>
    </g>
    <g id="ytick_13">
     <g id="line2d_75">
      <path clip-path="url(#p3ddbb1ddab)" d="M 57.6 273.25954 
L 414.72 273.25954 
" style="fill:none;stroke:#b0b0b0;stroke-linecap:square;stroke-width:0.8;"/>
     </g>
     <g id="line2d_76">
      <g>
       <use style="stroke:#000000;stroke-width:0.6;" x="57.6" xlink:href="#m57f401f597" y="273.25954"/>
      </g>
     </g>
    </g>
    <g id="ytick_14">
     <g id="line2d_77">
      <path clip-path="url(#p3ddbb1ddab)" d="M 57.6 266.597262 
L 414.72 266.597262 
" style="fill:none;stroke:#b0b0b0;stroke-linecap:square;stroke-width:0.8;"/>
     </g>
     <g id="line2d_78">
      <g>
       <use style="stroke:#000000;stroke-width:0.6;" x="57.6" xlink:href="#m57f401f597" y="266.597262"/>
      </g>
     </g>
    </g>
    <g id="ytick_15">
     <g id="line2d_79">
      <path clip-path="url(#p3ddbb1ddab)" d="M 57.6 259.934985 
L 414.72 259.934985 
" style="fill:none;stroke:#b0b0b0;stroke-linecap:square;stroke-width:0.8;"/>
     </g>
     <g id="line2d_80">
      <g>
       <use style="stroke:#000000;stroke-width:0.6;" x="57.6" xlink:href="#m57f401f597" y="259.934985"/>
      </g>
     </g>
    </g>
    <g id="ytick_16">
     <g id="line2d_81">
      <path clip-path="url(#p3ddbb1ddab)" d="M 57.6 246.61043 
L 414.72 246.61043 
" style="fill:none;stroke:#b0b0b0;stroke-linecap:square;stroke-width:0.8;"/>
     </g>
     <g id="line2d_82">
      <g>
       <use style="stroke:#000000;stroke-width:0.6;" x="57.6" xlink:href="#m57f401f597" y="246.61043"/>
      </g>
     </g>
    </g>
    <g id="ytick_17">
     <g id="line2d_83">
      <path clip-path="url(#p3ddbb1ddab)" d="M 57.6 239.948153 
L 414.72 239.948153 
" style="fill:none;stroke:#b0b0b0;stroke-linecap:square;stroke-width:0.8;"/>
     </g>
     <g id="line2d_84">
      <g>
       <use style="stroke:#000000;stroke-width:0.6;" x="57.6" xlink:href="#m57f401f597" y="239.948153"/>
      </g>
     </g>
    </g>
    <g id="ytick_18">
     <g id="line2d_85">
      <path clip-path="url(#p3ddbb1ddab)" d="M 57.6 233.285875 
L 414.72 233.285875 
" style="fill:none;stroke:#b0b0b0;stroke-linecap:square;stroke-width:0.8;"/>
     </g>
     <g id="line2d_86">
      <g>
       <use style="stroke:#000000;stroke-width:0.6;" x="57.6" xlink:href="#m57f401f597" y="233.285875"/>
      </g>
     </g>
    </g>
    <g id="ytick_19">
     <g id="line2d_87">
      <path clip-path="url(#p3ddbb1ddab)" d="M 57.6 226.623598 
L 414.72 226.623598 
" style="fill:none;stroke:#b0b0b0;stroke-linecap:square;stroke-width:0.8;"/>
     </g>
     <g id="line2d_88">
      <g>
       <use style="stroke:#000000;stroke-width:0.6;" x="57.6" xlink:href="#m57f401f597" y="226.623598"/>
      </g>
     </g>
    </g>
    <g id="ytick_20">
     <g id="line2d_89">
      <path clip-path="url(#p3ddbb1ddab)" d="M 57.6 213.299043 
L 414.72 213.299043 
" style="fill:none;stroke:#b0b0b0;stroke-linecap:square;stroke-width:0.8;"/>
     </g>
     <g id="line2d_90">
      <g>
       <use style="stroke:#000000;stroke-width:0.6;" x="57.6" xlink:href="#m57f401f597" y="213.299043"/>
      </g>
     </g>
    </g>
    <g id="ytick_21">
     <g id="line2d_91">
      <path clip-path="url(#p3ddbb1ddab)" d="M 57.6 206.636766 
L 414.72 206.636766 
" style="fill:none;stroke:#b0b0b0;stroke-linecap:square;stroke-width:0.8;"/>
     </g>
     <g id="line2d_92">
      <g>
       <use style="stroke:#000000;stroke-width:0.6;" x="57.6" xlink:href="#m57f401f597" y="206.636766"/>
      </g>
     </g>
    </g>
    <g id="ytick_22">
     <g id="line2d_93">
      <path clip-path="url(#p3ddbb1ddab)" d="M 57.6 199.974488 
L 414.72 199.974488 
" style="fill:none;stroke:#b0b0b0;stroke-linecap:square;stroke-width:0.8;"/>
     </g>
     <g id="line2d_94">
      <g>
       <use style="stroke:#000000;stroke-width:0.6;" x="57.6" xlink:href="#m57f401f597" y="199.974488"/>
      </g>
     </g>
    </g>
    <g id="ytick_23">
     <g id="line2d_95">
      <path clip-path="url(#p3ddbb1ddab)" d="M 57.6 193.312211 
L 414.72 193.312211 
" style="fill:none;stroke:#b0b0b0;stroke-linecap:square;stroke-width:0.8;"/>
     </g>
     <g id="line2d_96">
      <g>
       <use style="stroke:#000000;stroke-width:0.6;" x="57.6" xlink:href="#m57f401f597" y="193.312211"/>
      </g>
     </g>
    </g>
    <g id="ytick_24">
     <g id="line2d_97">
      <path clip-path="url(#p3ddbb1ddab)" d="M 57.6 179.987656 
L 414.72 179.987656 
" style="fill:none;stroke:#b0b0b0;stroke-linecap:square;stroke-width:0.8;"/>
     </g>
     <g id="line2d_98">
      <g>
       <use style="stroke:#000000;stroke-width:0.6;" x="57.6" xlink:href="#m57f401f597" y="179.987656"/>
      </g>
     </g>
    </g>
    <g id="ytick_25">
     <g id="line2d_99">
      <path clip-path="url(#p3ddbb1ddab)" d="M 57.6 173.325379 
L 414.72 173.325379 
" style="fill:none;stroke:#b0b0b0;stroke-linecap:square;stroke-width:0.8;"/>
     </g>
     <g id="line2d_100">
      <g>
       <use style="stroke:#000000;stroke-width:0.6;" x="57.6" xlink:href="#m57f401f597" y="173.325379"/>
      </g>
     </g>
    </g>
    <g id="ytick_26">
     <g id="line2d_101">
      <path clip-path="url(#p3ddbb1ddab)" d="M 57.6 166.663101 
L 414.72 166.663101 
" style="fill:none;stroke:#b0b0b0;stroke-linecap:square;stroke-width:0.8;"/>
     </g>
     <g id="line2d_102">
      <g>
       <use style="stroke:#000000;stroke-width:0.6;" x="57.6" xlink:href="#m57f401f597" y="166.663101"/>
      </g>
     </g>
    </g>
    <g id="ytick_27">
     <g id="line2d_103">
      <path clip-path="url(#p3ddbb1ddab)" d="M 57.6 160.000824 
L 414.72 160.000824 
" style="fill:none;stroke:#b0b0b0;stroke-linecap:square;stroke-width:0.8;"/>
     </g>
     <g id="line2d_104">
      <g>
       <use style="stroke:#000000;stroke-width:0.6;" x="57.6" xlink:href="#m57f401f597" y="160.000824"/>
      </g>
     </g>
    </g>
    <g id="ytick_28">
     <g id="line2d_105">
      <path clip-path="url(#p3ddbb1ddab)" d="M 57.6 146.676269 
L 414.72 146.676269 
" style="fill:none;stroke:#b0b0b0;stroke-linecap:square;stroke-width:0.8;"/>
     </g>
     <g id="line2d_106">
      <g>
       <use style="stroke:#000000;stroke-width:0.6;" x="57.6" xlink:href="#m57f401f597" y="146.676269"/>
      </g>
     </g>
    </g>
    <g id="ytick_29">
     <g id="line2d_107">
      <path clip-path="url(#p3ddbb1ddab)" d="M 57.6 140.013992 
L 414.72 140.013992 
" style="fill:none;stroke:#b0b0b0;stroke-linecap:square;stroke-width:0.8;"/>
     </g>
     <g id="line2d_108">
      <g>
       <use style="stroke:#000000;stroke-width:0.6;" x="57.6" xlink:href="#m57f401f597" y="140.013992"/>
      </g>
     </g>
    </g>
    <g id="ytick_30">
     <g id="line2d_109">
      <path clip-path="url(#p3ddbb1ddab)" d="M 57.6 133.351714 
L 414.72 133.351714 
" style="fill:none;stroke:#b0b0b0;stroke-linecap:square;stroke-width:0.8;"/>
     </g>
     <g id="line2d_110">
      <g>
       <use style="stroke:#000000;stroke-width:0.6;" x="57.6" xlink:href="#m57f401f597" y="133.351714"/>
      </g>
     </g>
    </g>
    <g id="ytick_31">
     <g id="line2d_111">
      <path clip-path="url(#p3ddbb1ddab)" d="M 57.6 126.689437 
L 414.72 126.689437 
" style="fill:none;stroke:#b0b0b0;stroke-linecap:square;stroke-width:0.8;"/>
     </g>
     <g id="line2d_112">
      <g>
       <use style="stroke:#000000;stroke-width:0.6;" x="57.6" xlink:href="#m57f401f597" y="126.689437"/>
      </g>
     </g>
    </g>
    <g id="ytick_32">
     <g id="line2d_113">
      <path clip-path="url(#p3ddbb1ddab)" d="M 57.6 113.364882 
L 414.72 113.364882 
" style="fill:none;stroke:#b0b0b0;stroke-linecap:square;stroke-width:0.8;"/>
     </g>
     <g id="line2d_114">
      <g>
       <use style="stroke:#000000;stroke-width:0.6;" x="57.6" xlink:href="#m57f401f597" y="113.364882"/>
      </g>
     </g>
    </g>
    <g id="ytick_33">
     <g id="line2d_115">
      <path clip-path="url(#p3ddbb1ddab)" d="M 57.6 106.702605 
L 414.72 106.702605 
" style="fill:none;stroke:#b0b0b0;stroke-linecap:square;stroke-width:0.8;"/>
     </g>
     <g id="line2d_116">
      <g>
       <use style="stroke:#000000;stroke-width:0.6;" x="57.6" xlink:href="#m57f401f597" y="106.702605"/>
      </g>
     </g>
    </g>
    <g id="ytick_34">
     <g id="line2d_117">
      <path clip-path="url(#p3ddbb1ddab)" d="M 57.6 100.040327 
L 414.72 100.040327 
" style="fill:none;stroke:#b0b0b0;stroke-linecap:square;stroke-width:0.8;"/>
     </g>
     <g id="line2d_118">
      <g>
       <use style="stroke:#000000;stroke-width:0.6;" x="57.6" xlink:href="#m57f401f597" y="100.040327"/>
      </g>
     </g>
    </g>
    <g id="ytick_35">
     <g id="line2d_119">
      <path clip-path="url(#p3ddbb1ddab)" d="M 57.6 93.37805 
L 414.72 93.37805 
" style="fill:none;stroke:#b0b0b0;stroke-linecap:square;stroke-width:0.8;"/>
     </g>
     <g id="line2d_120">
      <g>
       <use style="stroke:#000000;stroke-width:0.6;" x="57.6" xlink:href="#m57f401f597" y="93.37805"/>
      </g>
     </g>
    </g>
    <g id="ytick_36">
     <g id="line2d_121">
      <path clip-path="url(#p3ddbb1ddab)" d="M 57.6 80.053495 
L 414.72 80.053495 
" style="fill:none;stroke:#b0b0b0;stroke-linecap:square;stroke-width:0.8;"/>
     </g>
     <g id="line2d_122">
      <g>
       <use style="stroke:#000000;stroke-width:0.6;" x="57.6" xlink:href="#m57f401f597" y="80.053495"/>
      </g>
     </g>
    </g>
    <g id="ytick_37">
     <g id="line2d_123">
      <path clip-path="url(#p3ddbb1ddab)" d="M 57.6 73.391218 
L 414.72 73.391218 
" style="fill:none;stroke:#b0b0b0;stroke-linecap:square;stroke-width:0.8;"/>
     </g>
     <g id="line2d_124">
      <g>
       <use style="stroke:#000000;stroke-width:0.6;" x="57.6" xlink:href="#m57f401f597" y="73.391218"/>
      </g>
     </g>
    </g>
    <g id="ytick_38">
     <g id="line2d_125">
      <path clip-path="url(#p3ddbb1ddab)" d="M 57.6 66.72894 
L 414.72 66.72894 
" style="fill:none;stroke:#b0b0b0;stroke-linecap:square;stroke-width:0.8;"/>
     </g>
     <g id="line2d_126">
      <g>
       <use style="stroke:#000000;stroke-width:0.6;" x="57.6" xlink:href="#m57f401f597" y="66.72894"/>
      </g>
     </g>
    </g>
    <g id="ytick_39">
     <g id="line2d_127">
      <path clip-path="url(#p3ddbb1ddab)" d="M 57.6 60.066663 
L 414.72 60.066663 
" style="fill:none;stroke:#b0b0b0;stroke-linecap:square;stroke-width:0.8;"/>
     </g>
     <g id="line2d_128">
      <g>
       <use style="stroke:#000000;stroke-width:0.6;" x="57.6" xlink:href="#m57f401f597" y="60.066663"/>
      </g>
     </g>
    </g>
    <g id="ytick_40">
     <g id="line2d_129">
      <path clip-path="url(#p3ddbb1ddab)" d="M 57.6 46.742108 
L 414.72 46.742108 
" style="fill:none;stroke:#b0b0b0;stroke-linecap:square;stroke-width:0.8;"/>
     </g>
     <g id="line2d_130">
      <g>
       <use style="stroke:#000000;stroke-width:0.6;" x="57.6" xlink:href="#m57f401f597" y="46.742108"/>
      </g>
     </g>
    </g>
    <g id="text_15">
     <!-- trans x -->
     <defs>
      <path d="M 18.3125 70.21875 
L 18.3125 54.6875 
L 36.8125 54.6875 
L 36.8125 47.703125 
L 18.3125 47.703125 
L 18.3125 18.015625 
Q 18.3125 11.328125 20.140625 9.421875 
Q 21.96875 7.515625 27.59375 7.515625 
L 36.8125 7.515625 
L 36.8125 0 
L 27.59375 0 
Q 17.1875 0 13.234375 3.875 
Q 9.28125 7.765625 9.28125 18.015625 
L 9.28125 47.703125 
L 2.6875 47.703125 
L 2.6875 54.6875 
L 9.28125 54.6875 
L 9.28125 70.21875 
z
" id="DejaVuSans-74"/>
      <path d="M 54.890625 33.015625 
L 54.890625 0 
L 45.90625 0 
L 45.90625 32.71875 
Q 45.90625 40.484375 42.875 44.328125 
Q 39.84375 48.1875 33.796875 48.1875 
Q 26.515625 48.1875 22.3125 43.546875 
Q 18.109375 38.921875 18.109375 30.90625 
L 18.109375 0 
L 9.078125 0 
L 9.078125 54.6875 
L 18.109375 54.6875 
L 18.109375 46.1875 
Q 21.34375 51.125 25.703125 53.5625 
Q 30.078125 56 35.796875 56 
Q 45.21875 56 50.046875 50.171875 
Q 54.890625 44.34375 54.890625 33.015625 
z
" id="DejaVuSans-6e"/>
      <path d="M 44.28125 53.078125 
L 44.28125 44.578125 
Q 40.484375 46.53125 36.375 47.5 
Q 32.28125 48.484375 27.875 48.484375 
Q 21.1875 48.484375 17.84375 46.4375 
Q 14.5 44.390625 14.5 40.28125 
Q 14.5 37.15625 16.890625 35.375 
Q 19.28125 33.59375 26.515625 31.984375 
L 29.59375 31.296875 
Q 39.15625 29.25 43.1875 25.515625 
Q 47.21875 21.78125 47.21875 15.09375 
Q 47.21875 7.46875 41.1875 3.015625 
Q 35.15625 -1.421875 24.609375 -1.421875 
Q 20.21875 -1.421875 15.453125 -0.5625 
Q 10.6875 0.296875 5.421875 2 
L 5.421875 11.28125 
Q 10.40625 8.6875 15.234375 7.390625 
Q 20.0625 6.109375 24.8125 6.109375 
Q 31.15625 6.109375 34.5625 8.28125 
Q 37.984375 10.453125 37.984375 14.40625 
Q 37.984375 18.0625 35.515625 20.015625 
Q 33.0625 21.96875 24.703125 23.78125 
L 21.578125 24.515625 
Q 13.234375 26.265625 9.515625 29.90625 
Q 5.8125 33.546875 5.8125 39.890625 
Q 5.8125 47.609375 11.28125 51.796875 
Q 16.75 56 26.8125 56 
Q 31.78125 56 36.171875 55.265625 
Q 40.578125 54.546875 44.28125 53.078125 
z
" id="DejaVuSans-73"/>
      <path d="M 54.890625 54.6875 
L 35.109375 28.078125 
L 55.90625 0 
L 45.3125 0 
L 29.390625 21.484375 
L 13.484375 0 
L 2.875 0 
L 24.125 28.609375 
L 4.6875 54.6875 
L 15.28125 54.6875 
L 29.78125 35.203125 
L 44.28125 54.6875 
z
" id="DejaVuSans-78"/>
     </defs>
     <g transform="translate(13.875 191.929563)rotate(-90)scale(0.1 -0.1)">
      <use xlink:href="#DejaVuSans-74"/>
      <use x="39.208984" xlink:href="#DejaVuSans-72"/>
      <use x="80.322266" xlink:href="#DejaVuSans-61"/>
      <use x="141.601562" xlink:href="#DejaVuSans-6e"/>
      <use x="204.980469" xlink:href="#DejaVuSans-73"/>
      <use x="257.080078" xlink:href="#DejaVuSans-20"/>
      <use x="288.867188" xlink:href="#DejaVuSans-78"/>
     </g>
    </g>
   </g>
   <g id="line2d_131">
    <path clip-path="url(#p3ddbb1ddab)" d="M 73.832727 164.706364 
L 74.524971 165.292246 
L 75.217208 161.673103 
L 75.90628 162.625161 
L 76.598517 156.40714 
L 77.290754 151.197684 
L 77.982991 151.221773 
L 78.6751 147.967338 
L 79.367337 149.554286 
L 80.059581 144.945021 
L 80.751818 149.210746 
L 81.446481 137.593234 
L 82.138725 145.056705 
L 82.830962 148.484196 
L 83.523199 147.338347 
L 84.216653 145.315332 
L 84.908883 143.951535 
L 85.601147 129.815671 
L 86.985656 135.021921 
L 87.675135 134.681846 
L 88.367373 131.859164 
L 89.05961 134.631202 
L 89.751847 116.165146 
L 90.441987 130.543818 
L 91.13423 126.179763 
L 91.826467 130.258403 
L 92.518705 140.839207 
L 93.209773 108.579644 
L 93.902011 86.976804 
L 94.594254 84.309881 
L 95.286491 81.200313 
L 95.979336 86.455338 
L 96.671581 125.899836 
L 97.363819 143.097641 
L 98.056056 165.042996 
L 98.749362 174.523688 
L 99.44205 214.350306 
M 102.901478 171.928913 
L 103.593715 164.333529 
L 104.284797 146.51964 
L 104.977035 116.764184 
M 108.439825 127.370896 
L 109.824962 209.268607 
L 110.517208 236.552145 
L 111.901674 267.216361 
L 112.593675 267.538048 
L 113.285912 261.629576 
L 113.978149 262.098677 
L 114.670387 266.018972 
M 116.054209 251.504858 
L 116.746446 275.112035 
L 117.438683 276.196886 
L 118.130907 276.260119 
L 118.823151 275.471766 
L 119.515395 272.071374 
L 120.207625 230.901084 
L 120.899869 231.588845 
L 121.594579 215.483461 
L 122.286816 183.816685 
L 122.97906 179.552121 
L 123.67129 166.422249 
L 124.363909 163.099799 
M 125.748383 197.34515 
L 127.129632 259.422035 
L 127.82187 271.062907 
L 128.514107 294.777968 
L 129.206344 295.488 
L 129.89967 283.535543 
L 130.591908 264.977543 
L 131.284145 236.235424 
L 133.363058 169.933009 
L 134.747532 149.976521 
L 135.437802 170.313894 
L 136.130039 164.28404 
L 136.822277 172.332623 
L 137.514514 182.308417 
L 138.204709 194.774208 
L 138.896947 201.620405 
L 139.589184 223.909234 
L 140.281421 228.185507 
L 140.976101 220.530987 
M 142.360573 183.960512 
L 143.05281 187.275186 
L 143.744756 144.986867 
M 152.05041 145.560635 
L 152.743731 181.567749 
L 154.128206 217.821137 
L 154.820443 219.17529 
M 158.97158 248.049529 
L 159.663852 223.652445 
L 160.356055 209.723614 
L 161.051271 182.855623 
L 162.435745 145.868384 
L 163.127989 121.241961 
L 163.818557 109.77772 
M 170.740931 106.970553 
L 171.433168 129.342135 
L 172.125831 161.502708 
L 172.818048 188.150092 
L 173.510286 209.824252 
M 174.892987 217.479205 
L 175.585225 230.98975 
L 176.277462 214.926482 
L 176.969699 235.274486 
L 177.662487 234.116947 
M 179.046962 223.475706 
L 179.739205 217.369911 
M 181.126297 180.016176 
L 181.818534 169.135233 
L 182.510778 145.466411 
L 183.200632 138.575987 
L 183.892876 117.939474 
M 197.738917 266.214166 
L 199.123391 210.50688 
L 199.815628 185.305125 
L 200.508823 171.347276 
L 201.20106 149.524847 
L 201.893304 161.12823 
L 202.585541 155.672457 
L 203.275538 179.133187 
L 203.967776 216.673915 
L 204.660013 225.808992 
L 205.35225 267.648056 
L 206.044672 280.07009 
L 206.736909 278.777766 
L 207.429146 271.02957 
L 208.121383 248.427098 
L 208.815873 217.427934 
L 209.50811 192.966497 
M 210.892585 147.220014 
L 211.583861 135.081668 
L 212.276099 119.939686 
L 212.968342 109.808844 
L 213.66058 81.247872 
L 214.351919 75.835029 
L 215.044156 60.655155 
M 216.428631 69.852335 
L 217.120874 102.773462 
L 217.814995 127.890278 
L 219.199469 227.000815 
L 220.58497 269.582815 
L 221.969824 275.762004 
L 222.661681 265.796124 
L 223.354881 251.923943 
L 224.047124 233.779263 
L 224.739362 186.095209 
L 226.815566 91.102142 
L 227.507804 67.280512 
L 228.200041 62.945091 
L 228.892598 78.217818 
L 229.584835 100.747964 
L 230.277072 129.112373 
L 230.96931 162.456136 
L 231.661953 185.30068 
L 233.046427 215.206202 
L 234.434318 235.457519 
L 235.126562 235.69871 
L 235.818799 235.575763 
L 236.511036 221.208801 
L 237.205725 216.324852 
L 237.897963 183.31793 
L 238.5902 192.149798 
L 239.282437 198.350236 
M 240.658539 214.590377 
L 241.350776 239.708452 
L 242.735331 277.165905 
L 243.427569 286.326329 
L 244.119806 288.052413 
L 244.812043 260.595808 
L 245.504977 245.911833 
L 246.197214 238.999031 
L 246.889449 215.067445 
L 248.274878 173.641239 
L 248.967115 161.864115 
L 249.659352 157.714902 
L 250.351589 151.196367 
L 251.043826 150.756176 
L 251.736771 130.765514 
M 253.121246 186.108393 
L 253.81349 217.177194 
M 256.577429 255.0388 
L 257.269926 256.019158 
L 257.962163 280.276554 
L 258.6544 286.648603 
L 259.346637 285.601855 
L 260.040695 253.077457 
L 260.732932 256.114912 
L 261.425169 230.130947 
L 262.117406 221.033517 
L 263.501547 173.131603 
L 264.193784 140.736388 
L 264.886021 134.079971 
M 320.268821 170.639347 
L 320.961058 153.411892 
M 324.419095 110.016879 
L 325.805058 141.64184 
L 326.497302 168.461698 
M 327.884744 178.965475 
L 329.961455 134.790967 
M 331.346218 126.788043 
L 332.037944 116.056621 
L 332.730181 126.371328 
L 333.422638 142.804423 
L 334.114875 150.08313 
M 339.651661 158.918296 
L 340.343899 162.317817 
L 341.036136 183.48128 
L 342.418955 212.897912 
L 343.111192 226.304681 
L 343.803429 244.887985 
M 368.030296 180.989956 
L 368.722533 159.214038 
L 369.41477 150.555627 
L 370.107983 133.06195 
M 374.95463 166.740694 
L 375.647823 150.834942 
M 383.260573 175.887964 
L 383.952811 178.869905 
L 384.644637 173.875547 
M 388.104412 199.526884 
L 388.796657 191.02019 
M 390.179932 203.800879 
L 390.872169 204.592677 
L 391.564426 200.588779 
L 391.564426 200.588779 
" style="fill:none;stroke:#ff0000;stroke-linecap:square;"/>
   </g>
   <g id="line2d_132">
    <path clip-path="url(#p3ddbb1ddab)" d="M 73.832727 162.057194 
L 74.524971 162.585025 
L 75.217208 162.258262 
L 75.90628 158.694228 
L 76.598517 157.204564 
L 77.982991 152.001131 
L 78.6751 151.242918 
L 79.367337 149.034841 
L 80.059581 145.718185 
L 80.751818 145.126462 
L 82.138725 145.537556 
L 82.830962 145.243939 
L 83.523199 143.20555 
L 84.216653 144.321239 
L 84.908883 142.837127 
L 85.601147 140.566096 
L 86.293364 136.851676 
L 86.985656 134.206362 
L 87.675135 133.781189 
L 88.367373 132.582322 
L 89.05961 132.967527 
L 89.751847 132.062011 
L 90.441987 134.136357 
L 91.13423 132.753893 
L 91.826467 133.39916 
L 92.518705 124.22325 
L 93.902011 92.930533 
L 94.594254 84.987285 
L 95.286491 80.363167 
L 95.979336 88.719685 
L 97.363819 134.625517 
L 99.44205 198.669182 
M 102.901478 179.547087 
L 104.284797 150.692712 
L 104.977035 129.662823 
M 108.439825 126.087532 
L 109.824962 197.661176 
L 111.209437 248.47222 
L 111.901674 266.506587 
L 112.593675 272.050091 
L 113.285912 264.745581 
L 113.978149 261.170524 
L 114.670387 260.145387 
M 116.054209 265.264702 
L 116.746446 273.297281 
L 117.438683 276.315091 
L 118.130907 273.366718 
L 118.823151 273.046318 
L 119.515395 267.931969 
L 120.207625 253.791431 
L 121.594579 212.082709 
L 122.286816 186.229864 
L 122.97906 169.050902 
L 123.67129 164.45877 
L 124.363909 167.617697 
M 125.748383 203.417677 
L 126.44062 231.104242 
L 127.82187 272.445346 
L 128.514107 288.448599 
L 129.206344 293.683111 
L 129.89967 283.313336 
L 130.591908 264.711424 
L 132.670814 185.349764 
L 133.363058 168.279669 
L 134.055295 157.760373 
L 134.747532 155.708234 
L 135.437802 162.411595 
L 137.514514 186.622205 
L 138.204709 199.166812 
L 140.281421 230.208995 
L 140.976101 230.753691 
M 142.360573 194.924326 
L 143.744756 146.807061 
M 152.05041 138.290795 
L 153.435969 196.98204 
L 154.128206 213.133528 
L 154.820443 221.991774 
M 158.97158 238.896258 
L 159.663852 234.782248 
L 160.356055 221.04517 
L 162.435745 145.225141 
L 163.127989 124.970565 
L 163.818557 111.052618 
M 170.740931 106.095537 
L 173.510286 202.114862 
M 174.892987 221.454178 
L 175.585225 226.341419 
L 176.277462 227.691991 
L 176.969699 226.81665 
L 177.662487 225.519578 
M 179.046962 223.429029 
L 179.739205 214.317376 
M 181.126297 177.727701 
L 183.200632 131.659231 
L 183.892876 119.332684 
M 197.738917 263.840672 
L 198.431154 240.93081 
L 199.815628 188.893096 
L 200.508823 169.430003 
L 201.20106 161.185029 
L 201.893304 159.729593 
L 202.585541 168.114326 
L 203.275538 182.806072 
L 203.967776 205.612671 
L 205.35225 261.910261 
L 206.044672 277.217614 
L 206.736909 280.446385 
L 207.429146 269.333031 
L 208.121383 245.584003 
L 209.50811 191.238141 
M 210.892585 147.094186 
L 211.583861 132.357479 
L 212.276099 122.556147 
L 212.968342 108.734642 
L 215.044156 53.568 
M 216.428631 70.671272 
L 217.120874 98.023909 
L 217.814995 131.205125 
L 219.891706 245.605098 
L 220.58497 267.857658 
L 221.277214 276.46271 
L 221.969824 275.671151 
L 222.661681 267.102315 
L 223.354881 248.839831 
L 224.739362 186.395395 
L 226.815566 90.272968 
L 227.507804 67.320422 
L 228.200041 63.271532 
L 228.892598 77.9097 
L 229.584835 99.42589 
L 231.661953 176.30881 
L 232.35419 197.139429 
L 233.046427 212.628884 
L 233.738664 223.626699 
L 235.126562 240.560347 
L 235.818799 240.618902 
L 236.511036 231.390398 
L 237.897963 203.541266 
L 238.5902 197.356036 
L 239.282437 197.902068 
M 240.658539 212.998191 
L 241.350776 232.252577 
L 242.735331 278.901718 
L 243.427569 288.503042 
L 244.119806 283.835241 
L 245.504977 248.222292 
L 247.581686 194.291174 
L 248.967115 165.212949 
L 249.659352 155.953694 
L 250.351589 151.180882 
L 251.043826 151.157574 
L 251.736771 160.264779 
M 253.121246 195.984737 
L 253.81349 212.202366 
M 256.577429 254.836327 
L 257.962163 280.532268 
L 258.6544 287.05557 
L 259.346637 284.928855 
L 260.040695 275.336815 
L 261.425169 240.641699 
L 263.501547 180.068475 
L 264.886021 144.30975 
M 320.268821 174.758698 
L 320.961058 148.957255 
M 324.419095 111.021983 
L 325.112821 126.088787 
L 325.805058 149.528347 
L 326.497302 168.077469 
M 327.884744 176.122254 
L 329.269218 151.378554 
L 329.961455 134.878637 
M 331.346218 126.731254 
L 332.037944 124.641495 
L 332.730181 129.312798 
L 333.422638 138.482942 
L 334.114875 145.785956 
M 339.651661 151.749534 
L 341.036136 176.217329 
L 341.726718 198.404244 
L 342.418955 216.405527 
L 343.111192 229.621765 
L 343.803429 236.858067 
M 368.030296 180.243715 
L 370.107983 134.681429 
M 374.95463 161.467494 
L 375.647823 150.448131 
M 383.260573 176.122652 
L 383.952811 176.990837 
L 384.644637 179.014777 
M 388.104412 193.324719 
L 388.796657 195.175236 
M 390.179932 206.316843 
L 390.872169 206.623989 
L 391.564426 205.484278 
L 391.564426 205.484278 
" style="fill:none;stroke:#0000ff;stroke-linecap:square;"/>
   </g>
   <g id="line2d_133">
    <path clip-path="url(#p3ddbb1ddab)" d="M 101.516997 207.693601 
L 102.209241 194.43824 
M 107.05535 89.726359 
L 107.747587 98.582551 
M 144.436993 121.33845 
L 145.129236 103.789434 
L 145.821474 95.374852 
L 146.511257 95.141172 
L 147.203494 100.206126 
L 147.895731 102.474349 
L 148.588378 96.102184 
L 149.281455 86.392968 
M 150.665929 90.723711 
L 151.358166 111.630774 
M 155.510224 226.274215 
L 156.20247 227.500285 
L 156.894699 228.161722 
L 157.586944 231.477705 
L 158.279343 236.757709 
M 164.510795 105.913886 
L 165.203032 103.411501 
M 169.356457 79.80605 
L 170.048694 89.503769 
M 184.585113 111.357737 
L 185.2776 109.920418 
L 185.969588 105.39599 
M 187.353692 118.312326 
L 188.738167 155.090535 
M 192.199235 264.913244 
L 192.891481 266.12648 
L 193.583718 269.921627 
M 194.967935 283.571806 
L 195.660172 289.109878 
L 196.352409 290.552285 
L 197.044646 281.34642 
M 265.576308 128.134394 
L 266.268553 112.500908 
L 266.960791 102.641103 
L 267.653028 96.985619 
L 268.344813 92.955905 
L 269.03705 89.754736 
L 269.729287 94.376598 
L 271.116285 121.462266 
L 271.808522 130.164287 
L 273.192996 153.100404 
L 273.886626 166.924738 
M 275.271101 174.974161 
L 275.963338 171.566198 
L 278.040266 156.900922 
L 278.732503 156.182822 
L 279.422083 157.399104 
L 280.11432 156.807465 
M 281.498794 138.694763 
L 282.192431 133.791701 
L 282.885262 129.955112 
L 283.576905 137.809292 
L 285.652297 174.753134 
L 286.344534 176.217131 
L 287.036771 169.140129 
L 287.729008 163.797772 
L 288.421904 163.104175 
L 289.114148 171.285914 
L 289.806385 175.564007 
L 290.498622 173.259073 
L 291.190092 169.637578 
L 291.882329 164.635036 
L 292.574566 152.653865 
L 293.266803 143.568909 
L 293.961207 146.852404 
L 294.653451 155.542512 
L 295.345682 172.605137 
L 297.420548 235.188471 
L 298.112785 238.03805 
L 298.805022 235.767012 
L 300.192862 223.579341 
L 300.885099 215.51655 
L 302.26739 173.791814 
L 302.959621 163.980295 
L 303.651864 168.585648 
L 304.344095 180.924717 
L 305.037283 204.286332 
L 305.72952 232.901952 
L 306.421757 249.732704 
L 307.114493 255.826547 
L 307.804746 250.015429 
L 308.496983 242.744128 
L 309.18922 228.453895 
L 309.881458 216.650767 
L 311.268039 183.045654 
L 311.960277 174.636026 
L 312.65252 179.414279 
L 314.035729 206.15726 
L 314.727973 227.249172 
L 315.42021 243.17737 
L 316.112447 248.805531 
L 316.803859 248.509275 
L 317.496096 243.900087 
L 318.188333 236.431304 
L 319.576584 203.332144 
M 321.653295 128.532711 
L 322.342377 111.442296 
L 323.034614 101.157247 
L 323.726858 101.566095 
M 334.807119 166.026838 
L 335.499356 181.952779 
L 336.190619 188.927235 
L 336.882856 182.851315 
L 338.267337 151.81133 
L 338.959426 146.906065 
M 344.492933 239.022426 
L 345.18517 230.023362 
L 346.569651 203.06857 
L 347.262064 192.498222 
L 347.953989 187.753792 
L 348.646226 188.41266 
L 349.338463 193.075443 
L 350.0307 202.861986 
L 351.414505 227.328614 
L 352.106742 236.100438 
L 352.798979 242.463146 
L 353.491776 242.283265 
M 354.87625 238.973577 
L 355.569124 240.619506 
L 356.26317 235.351892 
L 356.955416 225.01916 
L 357.647653 211.619623 
M 360.414189 178.987941 
L 361.106426 179.796972 
L 362.491511 190.316394 
L 363.875985 205.552423 
M 365.260626 217.156098 
L 365.952863 210.77252 
L 366.6451 199.260192 
L 367.338052 191.074959 
M 370.80022 130.134628 
L 371.492457 135.010912 
L 373.570157 160.757814 
L 374.262395 164.533444 
M 376.34006 141.721215 
L 377.032291 142.822944 
M 380.492239 129.203136 
L 381.184476 137.350438 
L 381.876099 150.244002 
L 382.568336 165.975595 
M 385.336874 177.769074 
L 386.029111 180.914881 
L 386.721348 188.905838 
L 387.412183 192.569641 
M 392.256643 204.008022 
L 392.948735 201.343731 
L 393.640972 197.122825 
L 394.333209 197.502738 
L 395.025447 197.45482 
L 395.717867 196.916696 
L 396.410104 195.528737 
L 397.102341 194.495616 
L 397.794578 191.121499 
L 398.487273 188.692687 
L 398.487273 188.692687 
" style="fill:none;stroke:#008000;stroke-linecap:square;"/>
   </g>
   <g id="patch_3">
    <path d="M 57.6 307.584 
L 57.6 41.472 
" style="fill:none;stroke:#000000;stroke-linecap:square;stroke-linejoin:miter;stroke-width:0.8;"/>
   </g>
   <g id="patch_4">
    <path d="M 414.72 307.584 
L 414.72 41.472 
" style="fill:none;stroke:#000000;stroke-linecap:square;stroke-linejoin:miter;stroke-width:0.8;"/>
   </g>
   <g id="patch_5">
    <path d="M 57.6 307.584 
L 414.72 307.584 
" style="fill:none;stroke:#000000;stroke-linecap:square;stroke-linejoin:miter;stroke-width:0.8;"/>
   </g>
   <g id="patch_6">
    <path d="M 57.6 41.472 
L 414.72 41.472 
" style="fill:none;stroke:#000000;stroke-linecap:square;stroke-linejoin:miter;stroke-width:0.8;"/>
   </g>
   <g id="text_16">
    <!-- Rel Gt Trans X Plot -->
    <defs>
     <path d="M 44.390625 34.1875 
Q 47.5625 33.109375 50.5625 29.59375 
Q 53.5625 26.078125 56.59375 19.921875 
L 66.609375 0 
L 56 0 
L 46.6875 18.703125 
Q 43.0625 26.03125 39.671875 28.421875 
Q 36.28125 30.8125 30.421875 30.8125 
L 19.671875 30.8125 
L 19.671875 0 
L 9.8125 0 
L 9.8125 72.90625 
L 32.078125 72.90625 
Q 44.578125 72.90625 50.734375 67.671875 
Q 56.890625 62.453125 56.890625 51.90625 
Q 56.890625 45.015625 53.6875 40.46875 
Q 50.484375 35.9375 44.390625 34.1875 
z
M 19.671875 64.796875 
L 19.671875 38.921875 
L 32.078125 38.921875 
Q 39.203125 38.921875 42.84375 42.21875 
Q 46.484375 45.515625 46.484375 51.90625 
Q 46.484375 58.296875 42.84375 61.546875 
Q 39.203125 64.796875 32.078125 64.796875 
z
" id="DejaVuSans-52"/>
     <path d="M 9.421875 75.984375 
L 18.40625 75.984375 
L 18.40625 0 
L 9.421875 0 
z
" id="DejaVuSans-6c"/>
     <path d="M 59.515625 10.40625 
L 59.515625 29.984375 
L 43.40625 29.984375 
L 43.40625 38.09375 
L 69.28125 38.09375 
L 69.28125 6.78125 
Q 63.578125 2.734375 56.6875 0.65625 
Q 49.8125 -1.421875 42 -1.421875 
Q 24.90625 -1.421875 15.25 8.5625 
Q 5.609375 18.5625 5.609375 36.375 
Q 5.609375 54.25 15.25 64.234375 
Q 24.90625 74.21875 42 74.21875 
Q 49.125 74.21875 55.546875 72.453125 
Q 61.96875 70.703125 67.390625 67.28125 
L 67.390625 56.78125 
Q 61.921875 61.421875 55.765625 63.765625 
Q 49.609375 66.109375 42.828125 66.109375 
Q 29.4375 66.109375 22.71875 58.640625 
Q 16.015625 51.171875 16.015625 36.375 
Q 16.015625 21.625 22.71875 14.15625 
Q 29.4375 6.6875 42.828125 6.6875 
Q 48.046875 6.6875 52.140625 7.59375 
Q 56.25 8.5 59.515625 10.40625 
z
" id="DejaVuSans-47"/>
     <path d="M -0.296875 72.90625 
L 61.375 72.90625 
L 61.375 64.59375 
L 35.5 64.59375 
L 35.5 0 
L 25.59375 0 
L 25.59375 64.59375 
L -0.296875 64.59375 
z
" id="DejaVuSans-54"/>
     <path d="M 6.296875 72.90625 
L 16.890625 72.90625 
L 35.015625 45.796875 
L 53.21875 72.90625 
L 63.8125 72.90625 
L 40.375 37.890625 
L 65.375 0 
L 54.78125 0 
L 34.28125 31 
L 13.625 0 
L 2.984375 0 
L 29 38.921875 
z
" id="DejaVuSans-58"/>
     <path d="M 19.671875 64.796875 
L 19.671875 37.40625 
L 32.078125 37.40625 
Q 38.96875 37.40625 42.71875 40.96875 
Q 46.484375 44.53125 46.484375 51.125 
Q 46.484375 57.671875 42.71875 61.234375 
Q 38.96875 64.796875 32.078125 64.796875 
z
M 9.8125 72.90625 
L 32.078125 72.90625 
Q 44.34375 72.90625 50.609375 67.359375 
Q 56.890625 61.8125 56.890625 51.125 
Q 56.890625 40.328125 50.609375 34.8125 
Q 44.34375 29.296875 32.078125 29.296875 
L 19.671875 29.296875 
L 19.671875 0 
L 9.8125 0 
z
" id="DejaVuSans-50"/>
     <path d="M 30.609375 48.390625 
Q 23.390625 48.390625 19.1875 42.75 
Q 14.984375 37.109375 14.984375 27.296875 
Q 14.984375 17.484375 19.15625 11.84375 
Q 23.34375 6.203125 30.609375 6.203125 
Q 37.796875 6.203125 41.984375 11.859375 
Q 46.1875 17.53125 46.1875 27.296875 
Q 46.1875 37.015625 41.984375 42.703125 
Q 37.796875 48.390625 30.609375 48.390625 
z
M 30.609375 56 
Q 42.328125 56 49.015625 48.375 
Q 55.71875 40.765625 55.71875 27.296875 
Q 55.71875 13.875 49.015625 6.21875 
Q 42.328125 -1.421875 30.609375 -1.421875 
Q 18.84375 -1.421875 12.171875 6.21875 
Q 5.515625 13.875 5.515625 27.296875 
Q 5.515625 40.765625 12.171875 48.375 
Q 18.84375 56 30.609375 56 
z
" id="DejaVuSans-6f"/>
    </defs>
    <g transform="translate(179.865938 35.472)scale(0.12 -0.12)">
     <use xlink:href="#DejaVuSans-52"/>
     <use x="69.419922" xlink:href="#DejaVuSans-65"/>
     <use x="130.943359" xlink:href="#DejaVuSans-6c"/>
     <use x="158.726562" xlink:href="#DejaVuSans-20"/>
     <use x="190.513672" xlink:href="#DejaVuSans-47"/>
     <use x="268.003906" xlink:href="#DejaVuSans-74"/>
     <use x="307.212891" xlink:href="#DejaVuSans-20"/>
     <use x="339" xlink:href="#DejaVuSans-54"/>
     <use x="399.865234" xlink:href="#DejaVuSans-72"/>
     <use x="440.978516" xlink:href="#DejaVuSans-61"/>
     <use x="502.257812" xlink:href="#DejaVuSans-6e"/>
     <use x="565.636719" xlink:href="#DejaVuSans-73"/>
     <use x="617.736328" xlink:href="#DejaVuSans-20"/>
     <use x="649.523438" xlink:href="#DejaVuSans-58"/>
     <use x="718.029297" xlink:href="#DejaVuSans-20"/>
     <use x="749.816406" xlink:href="#DejaVuSans-50"/>
     <use x="810.119141" xlink:href="#DejaVuSans-6c"/>
     <use x="837.902344" xlink:href="#DejaVuSans-6f"/>
     <use x="899.083984" xlink:href="#DejaVuSans-74"/>
    </g>
   </g>
  </g>
 </g>
 <defs>
  <clipPath id="p3ddbb1ddab">
   <rect height="266.112" width="357.12" x="57.6" y="41.472"/>
  </clipPath>
 </defs>
</svg>
