<?xml version="1.0" encoding="utf-8" standalone="no"?>
<!DOCTYPE svg PUBLIC "-//W3C//DTD SVG 1.1//EN"
  "http://www.w3.org/Graphics/SVG/1.1/DTD/svg11.dtd">
<!-- Created with matplotlib (http://matplotlib.org/) -->
<svg height="345.6pt" version="1.1" viewBox="0 0 460.8 345.6" width="460.8pt" xmlns="http://www.w3.org/2000/svg" xmlns:xlink="http://www.w3.org/1999/xlink">
 <defs>
  <style type="text/css">
*{stroke-linecap:butt;stroke-linejoin:round;}
  </style>
 </defs>
 <g id="figure_1">
  <g id="patch_1">
   <path d="M 0 345.6 
L 460.8 345.6 
L 460.8 0 
L 0 0 
z
" style="fill:#ffffff;"/>
  </g>
  <g id="axes_1">
   <g id="patch_2">
    <path d="M 57.6 307.584 
L 414.72 307.584 
L 414.72 41.472 
L 57.6 41.472 
z
" style="fill:#ffffff;"/>
   </g>
   <g id="matplotlib.axis_1">
    <g id="xtick_1">
     <g id="line2d_1">
      <path clip-path="url(#p8baa8d5bec)" d="M 69.226844 307.584 
L 69.226844 41.472 
" style="fill:none;stroke:#b0b0b0;stroke-linecap:square;stroke-width:0.8;"/>
     </g>
     <g id="line2d_2">
      <defs>
       <path d="M 0 0 
L 0 3.5 
" id="m7fa7ae551e" style="stroke:#000000;stroke-width:0.8;"/>
      </defs>
      <g>
       <use style="stroke:#000000;stroke-width:0.8;" x="69.226844" xlink:href="#m7fa7ae551e" y="307.584"/>
      </g>
     </g>
     <g id="text_1">
      <!-- 99540 -->
      <defs>
       <path d="M 10.984375 1.515625 
L 10.984375 10.5 
Q 14.703125 8.734375 18.5 7.8125 
Q 22.3125 6.890625 25.984375 6.890625 
Q 35.75 6.890625 40.890625 13.453125 
Q 46.046875 20.015625 46.78125 33.40625 
Q 43.953125 29.203125 39.59375 26.953125 
Q 35.25 24.703125 29.984375 24.703125 
Q 19.046875 24.703125 12.671875 31.3125 
Q 6.296875 37.9375 6.296875 49.421875 
Q 6.296875 60.640625 12.9375 67.421875 
Q 19.578125 74.21875 30.609375 74.21875 
Q 43.265625 74.21875 49.921875 64.515625 
Q 56.59375 54.828125 56.59375 36.375 
Q 56.59375 19.140625 48.40625 8.859375 
Q 40.234375 -1.421875 26.421875 -1.421875 
Q 22.703125 -1.421875 18.890625 -0.6875 
Q 15.09375 0.046875 10.984375 1.515625 
z
M 30.609375 32.421875 
Q 37.25 32.421875 41.125 36.953125 
Q 45.015625 41.5 45.015625 49.421875 
Q 45.015625 57.28125 41.125 61.84375 
Q 37.25 66.40625 30.609375 66.40625 
Q 23.96875 66.40625 20.09375 61.84375 
Q 16.21875 57.28125 16.21875 49.421875 
Q 16.21875 41.5 20.09375 36.953125 
Q 23.96875 32.421875 30.609375 32.421875 
z
" id="DejaVuSans-39"/>
       <path d="M 10.796875 72.90625 
L 49.515625 72.90625 
L 49.515625 64.59375 
L 19.828125 64.59375 
L 19.828125 46.734375 
Q 21.96875 47.46875 24.109375 47.828125 
Q 26.265625 48.1875 28.421875 48.1875 
Q 40.625 48.1875 47.75 41.5 
Q 54.890625 34.8125 54.890625 23.390625 
Q 54.890625 11.625 47.5625 5.09375 
Q 40.234375 -1.421875 26.90625 -1.421875 
Q 22.3125 -1.421875 17.546875 -0.640625 
Q 12.796875 0.140625 7.71875 1.703125 
L 7.71875 11.625 
Q 12.109375 9.234375 16.796875 8.0625 
Q 21.484375 6.890625 26.703125 6.890625 
Q 35.15625 6.890625 40.078125 11.328125 
Q 45.015625 15.765625 45.015625 23.390625 
Q 45.015625 31 40.078125 35.4375 
Q 35.15625 39.890625 26.703125 39.890625 
Q 22.75 39.890625 18.8125 39.015625 
Q 14.890625 38.140625 10.796875 36.28125 
z
" id="DejaVuSans-35"/>
       <path d="M 37.796875 64.3125 
L 12.890625 25.390625 
L 37.796875 25.390625 
z
M 35.203125 72.90625 
L 47.609375 72.90625 
L 47.609375 25.390625 
L 58.015625 25.390625 
L 58.015625 17.1875 
L 47.609375 17.1875 
L 47.609375 0 
L 37.796875 0 
L 37.796875 17.1875 
L 4.890625 17.1875 
L 4.890625 26.703125 
z
" id="DejaVuSans-34"/>
       <path d="M 31.78125 66.40625 
Q 24.171875 66.40625 20.328125 58.90625 
Q 16.5 51.421875 16.5 36.375 
Q 16.5 21.390625 20.328125 13.890625 
Q 24.171875 6.390625 31.78125 6.390625 
Q 39.453125 6.390625 43.28125 13.890625 
Q 47.125 21.390625 47.125 36.375 
Q 47.125 51.421875 43.28125 58.90625 
Q 39.453125 66.40625 31.78125 66.40625 
z
M 31.78125 74.21875 
Q 44.046875 74.21875 50.515625 64.515625 
Q 56.984375 54.828125 56.984375 36.375 
Q 56.984375 17.96875 50.515625 8.265625 
Q 44.046875 -1.421875 31.78125 -1.421875 
Q 19.53125 -1.421875 13.0625 8.265625 
Q 6.59375 17.96875 6.59375 36.375 
Q 6.59375 54.828125 13.0625 64.515625 
Q 19.53125 74.21875 31.78125 74.21875 
z
" id="DejaVuSans-30"/>
      </defs>
      <g transform="translate(53.320594 322.182437)scale(0.1 -0.1)">
       <use xlink:href="#DejaVuSans-39"/>
       <use x="63.623047" xlink:href="#DejaVuSans-39"/>
       <use x="127.246094" xlink:href="#DejaVuSans-35"/>
       <use x="190.869141" xlink:href="#DejaVuSans-34"/>
       <use x="254.492188" xlink:href="#DejaVuSans-30"/>
      </g>
     </g>
    </g>
    <g id="xtick_2">
     <g id="line2d_3">
      <path clip-path="url(#p8baa8d5bec)" d="M 115.406699 307.584 
L 115.406699 41.472 
" style="fill:none;stroke:#b0b0b0;stroke-linecap:square;stroke-width:0.8;"/>
     </g>
     <g id="line2d_4">
      <g>
       <use style="stroke:#000000;stroke-width:0.8;" x="115.406699" xlink:href="#m7fa7ae551e" y="307.584"/>
      </g>
     </g>
     <g id="text_2">
      <!-- 99560 -->
      <defs>
       <path d="M 33.015625 40.375 
Q 26.375 40.375 22.484375 35.828125 
Q 18.609375 31.296875 18.609375 23.390625 
Q 18.609375 15.53125 22.484375 10.953125 
Q 26.375 6.390625 33.015625 6.390625 
Q 39.65625 6.390625 43.53125 10.953125 
Q 47.40625 15.53125 47.40625 23.390625 
Q 47.40625 31.296875 43.53125 35.828125 
Q 39.65625 40.375 33.015625 40.375 
z
M 52.59375 71.296875 
L 52.59375 62.3125 
Q 48.875 64.0625 45.09375 64.984375 
Q 41.3125 65.921875 37.59375 65.921875 
Q 27.828125 65.921875 22.671875 59.328125 
Q 17.53125 52.734375 16.796875 39.40625 
Q 19.671875 43.65625 24.015625 45.921875 
Q 28.375 48.1875 33.59375 48.1875 
Q 44.578125 48.1875 50.953125 41.515625 
Q 57.328125 34.859375 57.328125 23.390625 
Q 57.328125 12.15625 50.6875 5.359375 
Q 44.046875 -1.421875 33.015625 -1.421875 
Q 20.359375 -1.421875 13.671875 8.265625 
Q 6.984375 17.96875 6.984375 36.375 
Q 6.984375 53.65625 15.1875 63.9375 
Q 23.390625 74.21875 37.203125 74.21875 
Q 40.921875 74.21875 44.703125 73.484375 
Q 48.484375 72.75 52.59375 71.296875 
z
" id="DejaVuSans-36"/>
      </defs>
      <g transform="translate(99.500449 322.182437)scale(0.1 -0.1)">
       <use xlink:href="#DejaVuSans-39"/>
       <use x="63.623047" xlink:href="#DejaVuSans-39"/>
       <use x="127.246094" xlink:href="#DejaVuSans-35"/>
       <use x="190.869141" xlink:href="#DejaVuSans-36"/>
       <use x="254.492188" xlink:href="#DejaVuSans-30"/>
      </g>
     </g>
    </g>
    <g id="xtick_3">
     <g id="line2d_5">
      <path clip-path="url(#p8baa8d5bec)" d="M 161.586554 307.584 
L 161.586554 41.472 
" style="fill:none;stroke:#b0b0b0;stroke-linecap:square;stroke-width:0.8;"/>
     </g>
     <g id="line2d_6">
      <g>
       <use style="stroke:#000000;stroke-width:0.8;" x="161.586554" xlink:href="#m7fa7ae551e" y="307.584"/>
      </g>
     </g>
     <g id="text_3">
      <!-- 99580 -->
      <defs>
       <path d="M 31.78125 34.625 
Q 24.75 34.625 20.71875 30.859375 
Q 16.703125 27.09375 16.703125 20.515625 
Q 16.703125 13.921875 20.71875 10.15625 
Q 24.75 6.390625 31.78125 6.390625 
Q 38.8125 6.390625 42.859375 10.171875 
Q 46.921875 13.96875 46.921875 20.515625 
Q 46.921875 27.09375 42.890625 30.859375 
Q 38.875 34.625 31.78125 34.625 
z
M 21.921875 38.8125 
Q 15.578125 40.375 12.03125 44.71875 
Q 8.5 49.078125 8.5 55.328125 
Q 8.5 64.0625 14.71875 69.140625 
Q 20.953125 74.21875 31.78125 74.21875 
Q 42.671875 74.21875 48.875 69.140625 
Q 55.078125 64.0625 55.078125 55.328125 
Q 55.078125 49.078125 51.53125 44.71875 
Q 48 40.375 41.703125 38.8125 
Q 48.828125 37.15625 52.796875 32.3125 
Q 56.78125 27.484375 56.78125 20.515625 
Q 56.78125 9.90625 50.3125 4.234375 
Q 43.84375 -1.421875 31.78125 -1.421875 
Q 19.734375 -1.421875 13.25 4.234375 
Q 6.78125 9.90625 6.78125 20.515625 
Q 6.78125 27.484375 10.78125 32.3125 
Q 14.796875 37.15625 21.921875 38.8125 
z
M 18.3125 54.390625 
Q 18.3125 48.734375 21.84375 45.5625 
Q 25.390625 42.390625 31.78125 42.390625 
Q 38.140625 42.390625 41.71875 45.5625 
Q 45.3125 48.734375 45.3125 54.390625 
Q 45.3125 60.0625 41.71875 63.234375 
Q 38.140625 66.40625 31.78125 66.40625 
Q 25.390625 66.40625 21.84375 63.234375 
Q 18.3125 60.0625 18.3125 54.390625 
z
" id="DejaVuSans-38"/>
      </defs>
      <g transform="translate(145.680304 322.182437)scale(0.1 -0.1)">
       <use xlink:href="#DejaVuSans-39"/>
       <use x="63.623047" xlink:href="#DejaVuSans-39"/>
       <use x="127.246094" xlink:href="#DejaVuSans-35"/>
       <use x="190.869141" xlink:href="#DejaVuSans-38"/>
       <use x="254.492188" xlink:href="#DejaVuSans-30"/>
      </g>
     </g>
    </g>
    <g id="xtick_4">
     <g id="line2d_7">
      <path clip-path="url(#p8baa8d5bec)" d="M 207.766409 307.584 
L 207.766409 41.472 
" style="fill:none;stroke:#b0b0b0;stroke-linecap:square;stroke-width:0.8;"/>
     </g>
     <g id="line2d_8">
      <g>
       <use style="stroke:#000000;stroke-width:0.8;" x="207.766409" xlink:href="#m7fa7ae551e" y="307.584"/>
      </g>
     </g>
     <g id="text_4">
      <!-- 99600 -->
      <g transform="translate(191.860159 322.182437)scale(0.1 -0.1)">
       <use xlink:href="#DejaVuSans-39"/>
       <use x="63.623047" xlink:href="#DejaVuSans-39"/>
       <use x="127.246094" xlink:href="#DejaVuSans-36"/>
       <use x="190.869141" xlink:href="#DejaVuSans-30"/>
       <use x="254.492188" xlink:href="#DejaVuSans-30"/>
      </g>
     </g>
    </g>
    <g id="xtick_5">
     <g id="line2d_9">
      <path clip-path="url(#p8baa8d5bec)" d="M 253.946264 307.584 
L 253.946264 41.472 
" style="fill:none;stroke:#b0b0b0;stroke-linecap:square;stroke-width:0.8;"/>
     </g>
     <g id="line2d_10">
      <g>
       <use style="stroke:#000000;stroke-width:0.8;" x="253.946264" xlink:href="#m7fa7ae551e" y="307.584"/>
      </g>
     </g>
     <g id="text_5">
      <!-- 99620 -->
      <defs>
       <path d="M 19.1875 8.296875 
L 53.609375 8.296875 
L 53.609375 0 
L 7.328125 0 
L 7.328125 8.296875 
Q 12.9375 14.109375 22.625 23.890625 
Q 32.328125 33.6875 34.8125 36.53125 
Q 39.546875 41.84375 41.421875 45.53125 
Q 43.3125 49.21875 43.3125 52.78125 
Q 43.3125 58.59375 39.234375 62.25 
Q 35.15625 65.921875 28.609375 65.921875 
Q 23.96875 65.921875 18.8125 64.3125 
Q 13.671875 62.703125 7.8125 59.421875 
L 7.8125 69.390625 
Q 13.765625 71.78125 18.9375 73 
Q 24.125 74.21875 28.421875 74.21875 
Q 39.75 74.21875 46.484375 68.546875 
Q 53.21875 62.890625 53.21875 53.421875 
Q 53.21875 48.921875 51.53125 44.890625 
Q 49.859375 40.875 45.40625 35.40625 
Q 44.1875 33.984375 37.640625 27.21875 
Q 31.109375 20.453125 19.1875 8.296875 
z
" id="DejaVuSans-32"/>
      </defs>
      <g transform="translate(238.040014 322.182437)scale(0.1 -0.1)">
       <use xlink:href="#DejaVuSans-39"/>
       <use x="63.623047" xlink:href="#DejaVuSans-39"/>
       <use x="127.246094" xlink:href="#DejaVuSans-36"/>
       <use x="190.869141" xlink:href="#DejaVuSans-32"/>
       <use x="254.492188" xlink:href="#DejaVuSans-30"/>
      </g>
     </g>
    </g>
    <g id="xtick_6">
     <g id="line2d_11">
      <path clip-path="url(#p8baa8d5bec)" d="M 300.126119 307.584 
L 300.126119 41.472 
" style="fill:none;stroke:#b0b0b0;stroke-linecap:square;stroke-width:0.8;"/>
     </g>
     <g id="line2d_12">
      <g>
       <use style="stroke:#000000;stroke-width:0.8;" x="300.126119" xlink:href="#m7fa7ae551e" y="307.584"/>
      </g>
     </g>
     <g id="text_6">
      <!-- 99640 -->
      <g transform="translate(284.219869 322.182437)scale(0.1 -0.1)">
       <use xlink:href="#DejaVuSans-39"/>
       <use x="63.623047" xlink:href="#DejaVuSans-39"/>
       <use x="127.246094" xlink:href="#DejaVuSans-36"/>
       <use x="190.869141" xlink:href="#DejaVuSans-34"/>
       <use x="254.492188" xlink:href="#DejaVuSans-30"/>
      </g>
     </g>
    </g>
    <g id="xtick_7">
     <g id="line2d_13">
      <path clip-path="url(#p8baa8d5bec)" d="M 346.305974 307.584 
L 346.305974 41.472 
" style="fill:none;stroke:#b0b0b0;stroke-linecap:square;stroke-width:0.8;"/>
     </g>
     <g id="line2d_14">
      <g>
       <use style="stroke:#000000;stroke-width:0.8;" x="346.305974" xlink:href="#m7fa7ae551e" y="307.584"/>
      </g>
     </g>
     <g id="text_7">
      <!-- 99660 -->
      <g transform="translate(330.399724 322.182437)scale(0.1 -0.1)">
       <use xlink:href="#DejaVuSans-39"/>
       <use x="63.623047" xlink:href="#DejaVuSans-39"/>
       <use x="127.246094" xlink:href="#DejaVuSans-36"/>
       <use x="190.869141" xlink:href="#DejaVuSans-36"/>
       <use x="254.492188" xlink:href="#DejaVuSans-30"/>
      </g>
     </g>
    </g>
    <g id="xtick_8">
     <g id="line2d_15">
      <path clip-path="url(#p8baa8d5bec)" d="M 392.485828 307.584 
L 392.485828 41.472 
" style="fill:none;stroke:#b0b0b0;stroke-linecap:square;stroke-width:0.8;"/>
     </g>
     <g id="line2d_16">
      <g>
       <use style="stroke:#000000;stroke-width:0.8;" x="392.485828" xlink:href="#m7fa7ae551e" y="307.584"/>
      </g>
     </g>
     <g id="text_8">
      <!-- 99680 -->
      <g transform="translate(376.579578 322.182437)scale(0.1 -0.1)">
       <use xlink:href="#DejaVuSans-39"/>
       <use x="63.623047" xlink:href="#DejaVuSans-39"/>
       <use x="127.246094" xlink:href="#DejaVuSans-36"/>
       <use x="190.869141" xlink:href="#DejaVuSans-38"/>
       <use x="254.492188" xlink:href="#DejaVuSans-30"/>
      </g>
     </g>
    </g>
    <g id="xtick_9">
     <g id="line2d_17">
      <path clip-path="url(#p8baa8d5bec)" d="M 57.68188 307.584 
L 57.68188 41.472 
" style="fill:none;stroke:#b0b0b0;stroke-linecap:square;stroke-width:0.8;"/>
     </g>
     <g id="line2d_18">
      <defs>
       <path d="M 0 0 
L 0 2 
" id="med3dadc372" style="stroke:#000000;stroke-width:0.6;"/>
      </defs>
      <g>
       <use style="stroke:#000000;stroke-width:0.6;" x="57.68188" xlink:href="#med3dadc372" y="307.584"/>
      </g>
     </g>
    </g>
    <g id="xtick_10">
     <g id="line2d_19">
      <path clip-path="url(#p8baa8d5bec)" d="M 80.771808 307.584 
L 80.771808 41.472 
" style="fill:none;stroke:#b0b0b0;stroke-linecap:square;stroke-width:0.8;"/>
     </g>
     <g id="line2d_20">
      <g>
       <use style="stroke:#000000;stroke-width:0.6;" x="80.771808" xlink:href="#med3dadc372" y="307.584"/>
      </g>
     </g>
    </g>
    <g id="xtick_11">
     <g id="line2d_21">
      <path clip-path="url(#p8baa8d5bec)" d="M 92.316772 307.584 
L 92.316772 41.472 
" style="fill:none;stroke:#b0b0b0;stroke-linecap:square;stroke-width:0.8;"/>
     </g>
     <g id="line2d_22">
      <g>
       <use style="stroke:#000000;stroke-width:0.6;" x="92.316772" xlink:href="#med3dadc372" y="307.584"/>
      </g>
     </g>
    </g>
    <g id="xtick_12">
     <g id="line2d_23">
      <path clip-path="url(#p8baa8d5bec)" d="M 103.861735 307.584 
L 103.861735 41.472 
" style="fill:none;stroke:#b0b0b0;stroke-linecap:square;stroke-width:0.8;"/>
     </g>
     <g id="line2d_24">
      <g>
       <use style="stroke:#000000;stroke-width:0.6;" x="103.861735" xlink:href="#med3dadc372" y="307.584"/>
      </g>
     </g>
    </g>
    <g id="xtick_13">
     <g id="line2d_25">
      <path clip-path="url(#p8baa8d5bec)" d="M 126.951663 307.584 
L 126.951663 41.472 
" style="fill:none;stroke:#b0b0b0;stroke-linecap:square;stroke-width:0.8;"/>
     </g>
     <g id="line2d_26">
      <g>
       <use style="stroke:#000000;stroke-width:0.6;" x="126.951663" xlink:href="#med3dadc372" y="307.584"/>
      </g>
     </g>
    </g>
    <g id="xtick_14">
     <g id="line2d_27">
      <path clip-path="url(#p8baa8d5bec)" d="M 138.496626 307.584 
L 138.496626 41.472 
" style="fill:none;stroke:#b0b0b0;stroke-linecap:square;stroke-width:0.8;"/>
     </g>
     <g id="line2d_28">
      <g>
       <use style="stroke:#000000;stroke-width:0.6;" x="138.496626" xlink:href="#med3dadc372" y="307.584"/>
      </g>
     </g>
    </g>
    <g id="xtick_15">
     <g id="line2d_29">
      <path clip-path="url(#p8baa8d5bec)" d="M 150.04159 307.584 
L 150.04159 41.472 
" style="fill:none;stroke:#b0b0b0;stroke-linecap:square;stroke-width:0.8;"/>
     </g>
     <g id="line2d_30">
      <g>
       <use style="stroke:#000000;stroke-width:0.6;" x="150.04159" xlink:href="#med3dadc372" y="307.584"/>
      </g>
     </g>
    </g>
    <g id="xtick_16">
     <g id="line2d_31">
      <path clip-path="url(#p8baa8d5bec)" d="M 173.131518 307.584 
L 173.131518 41.472 
" style="fill:none;stroke:#b0b0b0;stroke-linecap:square;stroke-width:0.8;"/>
     </g>
     <g id="line2d_32">
      <g>
       <use style="stroke:#000000;stroke-width:0.6;" x="173.131518" xlink:href="#med3dadc372" y="307.584"/>
      </g>
     </g>
    </g>
    <g id="xtick_17">
     <g id="line2d_33">
      <path clip-path="url(#p8baa8d5bec)" d="M 184.676481 307.584 
L 184.676481 41.472 
" style="fill:none;stroke:#b0b0b0;stroke-linecap:square;stroke-width:0.8;"/>
     </g>
     <g id="line2d_34">
      <g>
       <use style="stroke:#000000;stroke-width:0.6;" x="184.676481" xlink:href="#med3dadc372" y="307.584"/>
      </g>
     </g>
    </g>
    <g id="xtick_18">
     <g id="line2d_35">
      <path clip-path="url(#p8baa8d5bec)" d="M 196.221445 307.584 
L 196.221445 41.472 
" style="fill:none;stroke:#b0b0b0;stroke-linecap:square;stroke-width:0.8;"/>
     </g>
     <g id="line2d_36">
      <g>
       <use style="stroke:#000000;stroke-width:0.6;" x="196.221445" xlink:href="#med3dadc372" y="307.584"/>
      </g>
     </g>
    </g>
    <g id="xtick_19">
     <g id="line2d_37">
      <path clip-path="url(#p8baa8d5bec)" d="M 219.311373 307.584 
L 219.311373 41.472 
" style="fill:none;stroke:#b0b0b0;stroke-linecap:square;stroke-width:0.8;"/>
     </g>
     <g id="line2d_38">
      <g>
       <use style="stroke:#000000;stroke-width:0.6;" x="219.311373" xlink:href="#med3dadc372" y="307.584"/>
      </g>
     </g>
    </g>
    <g id="xtick_20">
     <g id="line2d_39">
      <path clip-path="url(#p8baa8d5bec)" d="M 230.856336 307.584 
L 230.856336 41.472 
" style="fill:none;stroke:#b0b0b0;stroke-linecap:square;stroke-width:0.8;"/>
     </g>
     <g id="line2d_40">
      <g>
       <use style="stroke:#000000;stroke-width:0.6;" x="230.856336" xlink:href="#med3dadc372" y="307.584"/>
      </g>
     </g>
    </g>
    <g id="xtick_21">
     <g id="line2d_41">
      <path clip-path="url(#p8baa8d5bec)" d="M 242.4013 307.584 
L 242.4013 41.472 
" style="fill:none;stroke:#b0b0b0;stroke-linecap:square;stroke-width:0.8;"/>
     </g>
     <g id="line2d_42">
      <g>
       <use style="stroke:#000000;stroke-width:0.6;" x="242.4013" xlink:href="#med3dadc372" y="307.584"/>
      </g>
     </g>
    </g>
    <g id="xtick_22">
     <g id="line2d_43">
      <path clip-path="url(#p8baa8d5bec)" d="M 265.491227 307.584 
L 265.491227 41.472 
" style="fill:none;stroke:#b0b0b0;stroke-linecap:square;stroke-width:0.8;"/>
     </g>
     <g id="line2d_44">
      <g>
       <use style="stroke:#000000;stroke-width:0.6;" x="265.491227" xlink:href="#med3dadc372" y="307.584"/>
      </g>
     </g>
    </g>
    <g id="xtick_23">
     <g id="line2d_45">
      <path clip-path="url(#p8baa8d5bec)" d="M 277.036191 307.584 
L 277.036191 41.472 
" style="fill:none;stroke:#b0b0b0;stroke-linecap:square;stroke-width:0.8;"/>
     </g>
     <g id="line2d_46">
      <g>
       <use style="stroke:#000000;stroke-width:0.6;" x="277.036191" xlink:href="#med3dadc372" y="307.584"/>
      </g>
     </g>
    </g>
    <g id="xtick_24">
     <g id="line2d_47">
      <path clip-path="url(#p8baa8d5bec)" d="M 288.581155 307.584 
L 288.581155 41.472 
" style="fill:none;stroke:#b0b0b0;stroke-linecap:square;stroke-width:0.8;"/>
     </g>
     <g id="line2d_48">
      <g>
       <use style="stroke:#000000;stroke-width:0.6;" x="288.581155" xlink:href="#med3dadc372" y="307.584"/>
      </g>
     </g>
    </g>
    <g id="xtick_25">
     <g id="line2d_49">
      <path clip-path="url(#p8baa8d5bec)" d="M 311.671082 307.584 
L 311.671082 41.472 
" style="fill:none;stroke:#b0b0b0;stroke-linecap:square;stroke-width:0.8;"/>
     </g>
     <g id="line2d_50">
      <g>
       <use style="stroke:#000000;stroke-width:0.6;" x="311.671082" xlink:href="#med3dadc372" y="307.584"/>
      </g>
     </g>
    </g>
    <g id="xtick_26">
     <g id="line2d_51">
      <path clip-path="url(#p8baa8d5bec)" d="M 323.216046 307.584 
L 323.216046 41.472 
" style="fill:none;stroke:#b0b0b0;stroke-linecap:square;stroke-width:0.8;"/>
     </g>
     <g id="line2d_52">
      <g>
       <use style="stroke:#000000;stroke-width:0.6;" x="323.216046" xlink:href="#med3dadc372" y="307.584"/>
      </g>
     </g>
    </g>
    <g id="xtick_27">
     <g id="line2d_53">
      <path clip-path="url(#p8baa8d5bec)" d="M 334.76101 307.584 
L 334.76101 41.472 
" style="fill:none;stroke:#b0b0b0;stroke-linecap:square;stroke-width:0.8;"/>
     </g>
     <g id="line2d_54">
      <g>
       <use style="stroke:#000000;stroke-width:0.6;" x="334.76101" xlink:href="#med3dadc372" y="307.584"/>
      </g>
     </g>
    </g>
    <g id="xtick_28">
     <g id="line2d_55">
      <path clip-path="url(#p8baa8d5bec)" d="M 357.850937 307.584 
L 357.850937 41.472 
" style="fill:none;stroke:#b0b0b0;stroke-linecap:square;stroke-width:0.8;"/>
     </g>
     <g id="line2d_56">
      <g>
       <use style="stroke:#000000;stroke-width:0.6;" x="357.850937" xlink:href="#med3dadc372" y="307.584"/>
      </g>
     </g>
    </g>
    <g id="xtick_29">
     <g id="line2d_57">
      <path clip-path="url(#p8baa8d5bec)" d="M 369.395901 307.584 
L 369.395901 41.472 
" style="fill:none;stroke:#b0b0b0;stroke-linecap:square;stroke-width:0.8;"/>
     </g>
     <g id="line2d_58">
      <g>
       <use style="stroke:#000000;stroke-width:0.6;" x="369.395901" xlink:href="#med3dadc372" y="307.584"/>
      </g>
     </g>
    </g>
    <g id="xtick_30">
     <g id="line2d_59">
      <path clip-path="url(#p8baa8d5bec)" d="M 380.940865 307.584 
L 380.940865 41.472 
" style="fill:none;stroke:#b0b0b0;stroke-linecap:square;stroke-width:0.8;"/>
     </g>
     <g id="line2d_60">
      <g>
       <use style="stroke:#000000;stroke-width:0.6;" x="380.940865" xlink:href="#med3dadc372" y="307.584"/>
      </g>
     </g>
    </g>
    <g id="xtick_31">
     <g id="line2d_61">
      <path clip-path="url(#p8baa8d5bec)" d="M 404.030792 307.584 
L 404.030792 41.472 
" style="fill:none;stroke:#b0b0b0;stroke-linecap:square;stroke-width:0.8;"/>
     </g>
     <g id="line2d_62">
      <g>
       <use style="stroke:#000000;stroke-width:0.6;" x="404.030792" xlink:href="#med3dadc372" y="307.584"/>
      </g>
     </g>
    </g>
    <g id="text_9">
     <!-- frame # [] -->
     <defs>
      <path d="M 37.109375 75.984375 
L 37.109375 68.5 
L 28.515625 68.5 
Q 23.6875 68.5 21.796875 66.546875 
Q 19.921875 64.59375 19.921875 59.515625 
L 19.921875 54.6875 
L 34.71875 54.6875 
L 34.71875 47.703125 
L 19.921875 47.703125 
L 19.921875 0 
L 10.890625 0 
L 10.890625 47.703125 
L 2.296875 47.703125 
L 2.296875 54.6875 
L 10.890625 54.6875 
L 10.890625 58.5 
Q 10.890625 67.625 15.140625 71.796875 
Q 19.390625 75.984375 28.609375 75.984375 
z
" id="DejaVuSans-66"/>
      <path d="M 41.109375 46.296875 
Q 39.59375 47.171875 37.8125 47.578125 
Q 36.03125 48 33.890625 48 
Q 26.265625 48 22.1875 43.046875 
Q 18.109375 38.09375 18.109375 28.8125 
L 18.109375 0 
L 9.078125 0 
L 9.078125 54.6875 
L 18.109375 54.6875 
L 18.109375 46.1875 
Q 20.953125 51.171875 25.484375 53.578125 
Q 30.03125 56 36.53125 56 
Q 37.453125 56 38.578125 55.875 
Q 39.703125 55.765625 41.0625 55.515625 
z
" id="DejaVuSans-72"/>
      <path d="M 34.28125 27.484375 
Q 23.390625 27.484375 19.1875 25 
Q 14.984375 22.515625 14.984375 16.5 
Q 14.984375 11.71875 18.140625 8.90625 
Q 21.296875 6.109375 26.703125 6.109375 
Q 34.1875 6.109375 38.703125 11.40625 
Q 43.21875 16.703125 43.21875 25.484375 
L 43.21875 27.484375 
z
M 52.203125 31.203125 
L 52.203125 0 
L 43.21875 0 
L 43.21875 8.296875 
Q 40.140625 3.328125 35.546875 0.953125 
Q 30.953125 -1.421875 24.3125 -1.421875 
Q 15.921875 -1.421875 10.953125 3.296875 
Q 6 8.015625 6 15.921875 
Q 6 25.140625 12.171875 29.828125 
Q 18.359375 34.515625 30.609375 34.515625 
L 43.21875 34.515625 
L 43.21875 35.40625 
Q 43.21875 41.609375 39.140625 45 
Q 35.0625 48.390625 27.6875 48.390625 
Q 23 48.390625 18.546875 47.265625 
Q 14.109375 46.140625 10.015625 43.890625 
L 10.015625 52.203125 
Q 14.9375 54.109375 19.578125 55.046875 
Q 24.21875 56 28.609375 56 
Q 40.484375 56 46.34375 49.84375 
Q 52.203125 43.703125 52.203125 31.203125 
z
" id="DejaVuSans-61"/>
      <path d="M 52 44.1875 
Q 55.375 50.25 60.0625 53.125 
Q 64.75 56 71.09375 56 
Q 79.640625 56 84.28125 50.015625 
Q 88.921875 44.046875 88.921875 33.015625 
L 88.921875 0 
L 79.890625 0 
L 79.890625 32.71875 
Q 79.890625 40.578125 77.09375 44.375 
Q 74.3125 48.1875 68.609375 48.1875 
Q 61.625 48.1875 57.5625 43.546875 
Q 53.515625 38.921875 53.515625 30.90625 
L 53.515625 0 
L 44.484375 0 
L 44.484375 32.71875 
Q 44.484375 40.625 41.703125 44.40625 
Q 38.921875 48.1875 33.109375 48.1875 
Q 26.21875 48.1875 22.15625 43.53125 
Q 18.109375 38.875 18.109375 30.90625 
L 18.109375 0 
L 9.078125 0 
L 9.078125 54.6875 
L 18.109375 54.6875 
L 18.109375 46.1875 
Q 21.1875 51.21875 25.484375 53.609375 
Q 29.78125 56 35.6875 56 
Q 41.65625 56 45.828125 52.96875 
Q 50 49.953125 52 44.1875 
z
" id="DejaVuSans-6d"/>
      <path d="M 56.203125 29.59375 
L 56.203125 25.203125 
L 14.890625 25.203125 
Q 15.484375 15.921875 20.484375 11.0625 
Q 25.484375 6.203125 34.421875 6.203125 
Q 39.59375 6.203125 44.453125 7.46875 
Q 49.3125 8.734375 54.109375 11.28125 
L 54.109375 2.78125 
Q 49.265625 0.734375 44.1875 -0.34375 
Q 39.109375 -1.421875 33.890625 -1.421875 
Q 20.796875 -1.421875 13.15625 6.1875 
Q 5.515625 13.8125 5.515625 26.8125 
Q 5.515625 40.234375 12.765625 48.109375 
Q 20.015625 56 32.328125 56 
Q 43.359375 56 49.78125 48.890625 
Q 56.203125 41.796875 56.203125 29.59375 
z
M 47.21875 32.234375 
Q 47.125 39.59375 43.09375 43.984375 
Q 39.0625 48.390625 32.421875 48.390625 
Q 24.90625 48.390625 20.390625 44.140625 
Q 15.875 39.890625 15.1875 32.171875 
z
" id="DejaVuSans-65"/>
      <path id="DejaVuSans-20"/>
      <path d="M 51.125 44 
L 36.921875 44 
L 32.8125 27.6875 
L 47.125 27.6875 
z
M 43.796875 71.78125 
L 38.71875 51.515625 
L 52.984375 51.515625 
L 58.109375 71.78125 
L 65.921875 71.78125 
L 60.890625 51.515625 
L 76.125 51.515625 
L 76.125 44 
L 58.984375 44 
L 54.984375 27.6875 
L 70.515625 27.6875 
L 70.515625 20.21875 
L 53.078125 20.21875 
L 48 0 
L 40.1875 0 
L 45.21875 20.21875 
L 30.90625 20.21875 
L 25.875 0 
L 18.015625 0 
L 23.09375 20.21875 
L 7.71875 20.21875 
L 7.71875 27.6875 
L 24.90625 27.6875 
L 29 44 
L 13.28125 44 
L 13.28125 51.515625 
L 30.90625 51.515625 
L 35.890625 71.78125 
z
" id="DejaVuSans-23"/>
      <path d="M 8.59375 75.984375 
L 29.296875 75.984375 
L 29.296875 69 
L 17.578125 69 
L 17.578125 -6.203125 
L 29.296875 -6.203125 
L 29.296875 -13.1875 
L 8.59375 -13.1875 
z
" id="DejaVuSans-5b"/>
      <path d="M 30.421875 75.984375 
L 30.421875 -13.1875 
L 9.71875 -13.1875 
L 9.71875 -6.203125 
L 21.390625 -6.203125 
L 21.390625 69 
L 9.71875 69 
L 9.71875 75.984375 
z
" id="DejaVuSans-5d"/>
     </defs>
     <g transform="translate(210.063906 335.860562)scale(0.1 -0.1)">
      <use xlink:href="#DejaVuSans-66"/>
      <use x="35.205078" xlink:href="#DejaVuSans-72"/>
      <use x="76.318359" xlink:href="#DejaVuSans-61"/>
      <use x="137.597656" xlink:href="#DejaVuSans-6d"/>
      <use x="235.009766" xlink:href="#DejaVuSans-65"/>
      <use x="296.533203" xlink:href="#DejaVuSans-20"/>
      <use x="328.320312" xlink:href="#DejaVuSans-23"/>
      <use x="412.109375" xlink:href="#DejaVuSans-20"/>
      <use x="443.896484" xlink:href="#DejaVuSans-5b"/>
      <use x="482.910156" xlink:href="#DejaVuSans-5d"/>
     </g>
    </g>
   </g>
   <g id="matplotlib.axis_2">
    <g id="ytick_1">
     <g id="line2d_63">
      <path clip-path="url(#p8baa8d5bec)" d="M 57.6 268.760844 
L 414.72 268.760844 
" style="fill:none;stroke:#b0b0b0;stroke-linecap:square;stroke-width:0.8;"/>
     </g>
     <g id="line2d_64">
      <defs>
       <path d="M 0 0 
L -3.5 0 
" id="md9db684e6d" style="stroke:#000000;stroke-width:0.8;"/>
      </defs>
      <g>
       <use style="stroke:#000000;stroke-width:0.8;" x="57.6" xlink:href="#md9db684e6d" y="268.760844"/>
      </g>
     </g>
     <g id="text_10">
      <!-- −0.2 -->
      <defs>
       <path d="M 10.59375 35.5 
L 73.1875 35.5 
L 73.1875 27.203125 
L 10.59375 27.203125 
z
" id="DejaVuSans-2212"/>
       <path d="M 10.6875 12.40625 
L 21 12.40625 
L 21 0 
L 10.6875 0 
z
" id="DejaVuSans-2e"/>
      </defs>
      <g transform="translate(26.317187 272.560063)scale(0.1 -0.1)">
       <use xlink:href="#DejaVuSans-2212"/>
       <use x="83.789062" xlink:href="#DejaVuSans-30"/>
       <use x="147.412109" xlink:href="#DejaVuSans-2e"/>
       <use x="179.199219" xlink:href="#DejaVuSans-32"/>
      </g>
     </g>
    </g>
    <g id="ytick_2">
     <g id="line2d_65">
      <path clip-path="url(#p8baa8d5bec)" d="M 57.6 216.559534 
L 414.72 216.559534 
" style="fill:none;stroke:#b0b0b0;stroke-linecap:square;stroke-width:0.8;"/>
     </g>
     <g id="line2d_66">
      <g>
       <use style="stroke:#000000;stroke-width:0.8;" x="57.6" xlink:href="#md9db684e6d" y="216.559534"/>
      </g>
     </g>
     <g id="text_11">
      <!-- −0.1 -->
      <defs>
       <path d="M 12.40625 8.296875 
L 28.515625 8.296875 
L 28.515625 63.921875 
L 10.984375 60.40625 
L 10.984375 69.390625 
L 28.421875 72.90625 
L 38.28125 72.90625 
L 38.28125 8.296875 
L 54.390625 8.296875 
L 54.390625 0 
L 12.40625 0 
z
" id="DejaVuSans-31"/>
      </defs>
      <g transform="translate(26.317187 220.358753)scale(0.1 -0.1)">
       <use xlink:href="#DejaVuSans-2212"/>
       <use x="83.789062" xlink:href="#DejaVuSans-30"/>
       <use x="147.412109" xlink:href="#DejaVuSans-2e"/>
       <use x="179.199219" xlink:href="#DejaVuSans-31"/>
      </g>
     </g>
    </g>
    <g id="ytick_3">
     <g id="line2d_67">
      <path clip-path="url(#p8baa8d5bec)" d="M 57.6 164.358225 
L 414.72 164.358225 
" style="fill:none;stroke:#b0b0b0;stroke-linecap:square;stroke-width:0.8;"/>
     </g>
     <g id="line2d_68">
      <g>
       <use style="stroke:#000000;stroke-width:0.8;" x="57.6" xlink:href="#md9db684e6d" y="164.358225"/>
      </g>
     </g>
     <g id="text_12">
      <!-- 0.0 -->
      <g transform="translate(34.696875 168.157443)scale(0.1 -0.1)">
       <use xlink:href="#DejaVuSans-30"/>
       <use x="63.623047" xlink:href="#DejaVuSans-2e"/>
       <use x="95.410156" xlink:href="#DejaVuSans-30"/>
      </g>
     </g>
    </g>
    <g id="ytick_4">
     <g id="line2d_69">
      <path clip-path="url(#p8baa8d5bec)" d="M 57.6 112.156915 
L 414.72 112.156915 
" style="fill:none;stroke:#b0b0b0;stroke-linecap:square;stroke-width:0.8;"/>
     </g>
     <g id="line2d_70">
      <g>
       <use style="stroke:#000000;stroke-width:0.8;" x="57.6" xlink:href="#md9db684e6d" y="112.156915"/>
      </g>
     </g>
     <g id="text_13">
      <!-- 0.1 -->
      <g transform="translate(34.696875 115.956133)scale(0.1 -0.1)">
       <use xlink:href="#DejaVuSans-30"/>
       <use x="63.623047" xlink:href="#DejaVuSans-2e"/>
       <use x="95.410156" xlink:href="#DejaVuSans-31"/>
      </g>
     </g>
    </g>
    <g id="ytick_5">
     <g id="line2d_71">
      <path clip-path="url(#p8baa8d5bec)" d="M 57.6 59.955605 
L 414.72 59.955605 
" style="fill:none;stroke:#b0b0b0;stroke-linecap:square;stroke-width:0.8;"/>
     </g>
     <g id="line2d_72">
      <g>
       <use style="stroke:#000000;stroke-width:0.8;" x="57.6" xlink:href="#md9db684e6d" y="59.955605"/>
      </g>
     </g>
     <g id="text_14">
      <!-- 0.2 -->
      <g transform="translate(34.696875 63.754824)scale(0.1 -0.1)">
       <use xlink:href="#DejaVuSans-30"/>
       <use x="63.623047" xlink:href="#DejaVuSans-2e"/>
       <use x="95.410156" xlink:href="#DejaVuSans-32"/>
      </g>
     </g>
    </g>
    <g id="ytick_6">
     <g id="line2d_73">
      <path clip-path="url(#p8baa8d5bec)" d="M 57.6 300.08163 
L 414.72 300.08163 
" style="fill:none;stroke:#b0b0b0;stroke-linecap:square;stroke-width:0.8;"/>
     </g>
     <g id="line2d_74">
      <defs>
       <path d="M 0 0 
L -2 0 
" id="m374c1637dc" style="stroke:#000000;stroke-width:0.6;"/>
      </defs>
      <g>
       <use style="stroke:#000000;stroke-width:0.6;" x="57.6" xlink:href="#m374c1637dc" y="300.08163"/>
      </g>
     </g>
    </g>
    <g id="ytick_7">
     <g id="line2d_75">
      <path clip-path="url(#p8baa8d5bec)" d="M 57.6 289.641368 
L 414.72 289.641368 
" style="fill:none;stroke:#b0b0b0;stroke-linecap:square;stroke-width:0.8;"/>
     </g>
     <g id="line2d_76">
      <g>
       <use style="stroke:#000000;stroke-width:0.6;" x="57.6" xlink:href="#m374c1637dc" y="289.641368"/>
      </g>
     </g>
    </g>
    <g id="ytick_8">
     <g id="line2d_77">
      <path clip-path="url(#p8baa8d5bec)" d="M 57.6 279.201106 
L 414.72 279.201106 
" style="fill:none;stroke:#b0b0b0;stroke-linecap:square;stroke-width:0.8;"/>
     </g>
     <g id="line2d_78">
      <g>
       <use style="stroke:#000000;stroke-width:0.6;" x="57.6" xlink:href="#m374c1637dc" y="279.201106"/>
      </g>
     </g>
    </g>
    <g id="ytick_9">
     <g id="line2d_79">
      <path clip-path="url(#p8baa8d5bec)" d="M 57.6 268.760844 
L 414.72 268.760844 
" style="fill:none;stroke:#b0b0b0;stroke-linecap:square;stroke-width:0.8;"/>
     </g>
     <g id="line2d_80">
      <g>
       <use style="stroke:#000000;stroke-width:0.6;" x="57.6" xlink:href="#m374c1637dc" y="268.760844"/>
      </g>
     </g>
    </g>
    <g id="ytick_10">
     <g id="line2d_81">
      <path clip-path="url(#p8baa8d5bec)" d="M 57.6 258.320582 
L 414.72 258.320582 
" style="fill:none;stroke:#b0b0b0;stroke-linecap:square;stroke-width:0.8;"/>
     </g>
     <g id="line2d_82">
      <g>
       <use style="stroke:#000000;stroke-width:0.6;" x="57.6" xlink:href="#m374c1637dc" y="258.320582"/>
      </g>
     </g>
    </g>
    <g id="ytick_11">
     <g id="line2d_83">
      <path clip-path="url(#p8baa8d5bec)" d="M 57.6 247.88032 
L 414.72 247.88032 
" style="fill:none;stroke:#b0b0b0;stroke-linecap:square;stroke-width:0.8;"/>
     </g>
     <g id="line2d_84">
      <g>
       <use style="stroke:#000000;stroke-width:0.6;" x="57.6" xlink:href="#m374c1637dc" y="247.88032"/>
      </g>
     </g>
    </g>
    <g id="ytick_12">
     <g id="line2d_85">
      <path clip-path="url(#p8baa8d5bec)" d="M 57.6 237.440058 
L 414.72 237.440058 
" style="fill:none;stroke:#b0b0b0;stroke-linecap:square;stroke-width:0.8;"/>
     </g>
     <g id="line2d_86">
      <g>
       <use style="stroke:#000000;stroke-width:0.6;" x="57.6" xlink:href="#m374c1637dc" y="237.440058"/>
      </g>
     </g>
    </g>
    <g id="ytick_13">
     <g id="line2d_87">
      <path clip-path="url(#p8baa8d5bec)" d="M 57.6 226.999796 
L 414.72 226.999796 
" style="fill:none;stroke:#b0b0b0;stroke-linecap:square;stroke-width:0.8;"/>
     </g>
     <g id="line2d_88">
      <g>
       <use style="stroke:#000000;stroke-width:0.6;" x="57.6" xlink:href="#m374c1637dc" y="226.999796"/>
      </g>
     </g>
    </g>
    <g id="ytick_14">
     <g id="line2d_89">
      <path clip-path="url(#p8baa8d5bec)" d="M 57.6 216.559534 
L 414.72 216.559534 
" style="fill:none;stroke:#b0b0b0;stroke-linecap:square;stroke-width:0.8;"/>
     </g>
     <g id="line2d_90">
      <g>
       <use style="stroke:#000000;stroke-width:0.6;" x="57.6" xlink:href="#m374c1637dc" y="216.559534"/>
      </g>
     </g>
    </g>
    <g id="ytick_15">
     <g id="line2d_91">
      <path clip-path="url(#p8baa8d5bec)" d="M 57.6 206.119272 
L 414.72 206.119272 
" style="fill:none;stroke:#b0b0b0;stroke-linecap:square;stroke-width:0.8;"/>
     </g>
     <g id="line2d_92">
      <g>
       <use style="stroke:#000000;stroke-width:0.6;" x="57.6" xlink:href="#m374c1637dc" y="206.119272"/>
      </g>
     </g>
    </g>
    <g id="ytick_16">
     <g id="line2d_93">
      <path clip-path="url(#p8baa8d5bec)" d="M 57.6 195.67901 
L 414.72 195.67901 
" style="fill:none;stroke:#b0b0b0;stroke-linecap:square;stroke-width:0.8;"/>
     </g>
     <g id="line2d_94">
      <g>
       <use style="stroke:#000000;stroke-width:0.6;" x="57.6" xlink:href="#m374c1637dc" y="195.67901"/>
      </g>
     </g>
    </g>
    <g id="ytick_17">
     <g id="line2d_95">
      <path clip-path="url(#p8baa8d5bec)" d="M 57.6 185.238748 
L 414.72 185.238748 
" style="fill:none;stroke:#b0b0b0;stroke-linecap:square;stroke-width:0.8;"/>
     </g>
     <g id="line2d_96">
      <g>
       <use style="stroke:#000000;stroke-width:0.6;" x="57.6" xlink:href="#m374c1637dc" y="185.238748"/>
      </g>
     </g>
    </g>
    <g id="ytick_18">
     <g id="line2d_97">
      <path clip-path="url(#p8baa8d5bec)" d="M 57.6 174.798486 
L 414.72 174.798486 
" style="fill:none;stroke:#b0b0b0;stroke-linecap:square;stroke-width:0.8;"/>
     </g>
     <g id="line2d_98">
      <g>
       <use style="stroke:#000000;stroke-width:0.6;" x="57.6" xlink:href="#m374c1637dc" y="174.798486"/>
      </g>
     </g>
    </g>
    <g id="ytick_19">
     <g id="line2d_99">
      <path clip-path="url(#p8baa8d5bec)" d="M 57.6 164.358225 
L 414.72 164.358225 
" style="fill:none;stroke:#b0b0b0;stroke-linecap:square;stroke-width:0.8;"/>
     </g>
     <g id="line2d_100">
      <g>
       <use style="stroke:#000000;stroke-width:0.6;" x="57.6" xlink:href="#m374c1637dc" y="164.358225"/>
      </g>
     </g>
    </g>
    <g id="ytick_20">
     <g id="line2d_101">
      <path clip-path="url(#p8baa8d5bec)" d="M 57.6 153.917963 
L 414.72 153.917963 
" style="fill:none;stroke:#b0b0b0;stroke-linecap:square;stroke-width:0.8;"/>
     </g>
     <g id="line2d_102">
      <g>
       <use style="stroke:#000000;stroke-width:0.6;" x="57.6" xlink:href="#m374c1637dc" y="153.917963"/>
      </g>
     </g>
    </g>
    <g id="ytick_21">
     <g id="line2d_103">
      <path clip-path="url(#p8baa8d5bec)" d="M 57.6 143.477701 
L 414.72 143.477701 
" style="fill:none;stroke:#b0b0b0;stroke-linecap:square;stroke-width:0.8;"/>
     </g>
     <g id="line2d_104">
      <g>
       <use style="stroke:#000000;stroke-width:0.6;" x="57.6" xlink:href="#m374c1637dc" y="143.477701"/>
      </g>
     </g>
    </g>
    <g id="ytick_22">
     <g id="line2d_105">
      <path clip-path="url(#p8baa8d5bec)" d="M 57.6 133.037439 
L 414.72 133.037439 
" style="fill:none;stroke:#b0b0b0;stroke-linecap:square;stroke-width:0.8;"/>
     </g>
     <g id="line2d_106">
      <g>
       <use style="stroke:#000000;stroke-width:0.6;" x="57.6" xlink:href="#m374c1637dc" y="133.037439"/>
      </g>
     </g>
    </g>
    <g id="ytick_23">
     <g id="line2d_107">
      <path clip-path="url(#p8baa8d5bec)" d="M 57.6 122.597177 
L 414.72 122.597177 
" style="fill:none;stroke:#b0b0b0;stroke-linecap:square;stroke-width:0.8;"/>
     </g>
     <g id="line2d_108">
      <g>
       <use style="stroke:#000000;stroke-width:0.6;" x="57.6" xlink:href="#m374c1637dc" y="122.597177"/>
      </g>
     </g>
    </g>
    <g id="ytick_24">
     <g id="line2d_109">
      <path clip-path="url(#p8baa8d5bec)" d="M 57.6 112.156915 
L 414.72 112.156915 
" style="fill:none;stroke:#b0b0b0;stroke-linecap:square;stroke-width:0.8;"/>
     </g>
     <g id="line2d_110">
      <g>
       <use style="stroke:#000000;stroke-width:0.6;" x="57.6" xlink:href="#m374c1637dc" y="112.156915"/>
      </g>
     </g>
    </g>
    <g id="ytick_25">
     <g id="line2d_111">
      <path clip-path="url(#p8baa8d5bec)" d="M 57.6 101.716653 
L 414.72 101.716653 
" style="fill:none;stroke:#b0b0b0;stroke-linecap:square;stroke-width:0.8;"/>
     </g>
     <g id="line2d_112">
      <g>
       <use style="stroke:#000000;stroke-width:0.6;" x="57.6" xlink:href="#m374c1637dc" y="101.716653"/>
      </g>
     </g>
    </g>
    <g id="ytick_26">
     <g id="line2d_113">
      <path clip-path="url(#p8baa8d5bec)" d="M 57.6 91.276391 
L 414.72 91.276391 
" style="fill:none;stroke:#b0b0b0;stroke-linecap:square;stroke-width:0.8;"/>
     </g>
     <g id="line2d_114">
      <g>
       <use style="stroke:#000000;stroke-width:0.6;" x="57.6" xlink:href="#m374c1637dc" y="91.276391"/>
      </g>
     </g>
    </g>
    <g id="ytick_27">
     <g id="line2d_115">
      <path clip-path="url(#p8baa8d5bec)" d="M 57.6 80.836129 
L 414.72 80.836129 
" style="fill:none;stroke:#b0b0b0;stroke-linecap:square;stroke-width:0.8;"/>
     </g>
     <g id="line2d_116">
      <g>
       <use style="stroke:#000000;stroke-width:0.6;" x="57.6" xlink:href="#m374c1637dc" y="80.836129"/>
      </g>
     </g>
    </g>
    <g id="ytick_28">
     <g id="line2d_117">
      <path clip-path="url(#p8baa8d5bec)" d="M 57.6 70.395867 
L 414.72 70.395867 
" style="fill:none;stroke:#b0b0b0;stroke-linecap:square;stroke-width:0.8;"/>
     </g>
     <g id="line2d_118">
      <g>
       <use style="stroke:#000000;stroke-width:0.6;" x="57.6" xlink:href="#m374c1637dc" y="70.395867"/>
      </g>
     </g>
    </g>
    <g id="ytick_29">
     <g id="line2d_119">
      <path clip-path="url(#p8baa8d5bec)" d="M 57.6 59.955605 
L 414.72 59.955605 
" style="fill:none;stroke:#b0b0b0;stroke-linecap:square;stroke-width:0.8;"/>
     </g>
     <g id="line2d_120">
      <g>
       <use style="stroke:#000000;stroke-width:0.6;" x="57.6" xlink:href="#m374c1637dc" y="59.955605"/>
      </g>
     </g>
    </g>
    <g id="ytick_30">
     <g id="line2d_121">
      <path clip-path="url(#p8baa8d5bec)" d="M 57.6 49.515343 
L 414.72 49.515343 
" style="fill:none;stroke:#b0b0b0;stroke-linecap:square;stroke-width:0.8;"/>
     </g>
     <g id="line2d_122">
      <g>
       <use style="stroke:#000000;stroke-width:0.6;" x="57.6" xlink:href="#m374c1637dc" y="49.515343"/>
      </g>
     </g>
    </g>
    <g id="text_15">
     <!-- rot z -->
     <defs>
      <path d="M 30.609375 48.390625 
Q 23.390625 48.390625 19.1875 42.75 
Q 14.984375 37.109375 14.984375 27.296875 
Q 14.984375 17.484375 19.15625 11.84375 
Q 23.34375 6.203125 30.609375 6.203125 
Q 37.796875 6.203125 41.984375 11.859375 
Q 46.1875 17.53125 46.1875 27.296875 
Q 46.1875 37.015625 41.984375 42.703125 
Q 37.796875 48.390625 30.609375 48.390625 
z
M 30.609375 56 
Q 42.328125 56 49.015625 48.375 
Q 55.71875 40.765625 55.71875 27.296875 
Q 55.71875 13.875 49.015625 6.21875 
Q 42.328125 -1.421875 30.609375 -1.421875 
Q 18.84375 -1.421875 12.171875 6.21875 
Q 5.515625 13.875 5.515625 27.296875 
Q 5.515625 40.765625 12.171875 48.375 
Q 18.84375 56 30.609375 56 
z
" id="DejaVuSans-6f"/>
      <path d="M 18.3125 70.21875 
L 18.3125 54.6875 
L 36.8125 54.6875 
L 36.8125 47.703125 
L 18.3125 47.703125 
L 18.3125 18.015625 
Q 18.3125 11.328125 20.140625 9.421875 
Q 21.96875 7.515625 27.59375 7.515625 
L 36.8125 7.515625 
L 36.8125 0 
L 27.59375 0 
Q 17.1875 0 13.234375 3.875 
Q 9.28125 7.765625 9.28125 18.015625 
L 9.28125 47.703125 
L 2.6875 47.703125 
L 2.6875 54.6875 
L 9.28125 54.6875 
L 9.28125 70.21875 
z
" id="DejaVuSans-74"/>
      <path d="M 5.515625 54.6875 
L 48.1875 54.6875 
L 48.1875 46.484375 
L 14.40625 7.171875 
L 48.1875 7.171875 
L 48.1875 0 
L 4.296875 0 
L 4.296875 8.203125 
L 38.09375 47.515625 
L 5.515625 47.515625 
z
" id="DejaVuSans-7a"/>
     </defs>
     <g transform="translate(20.2375 185.814719)rotate(-90)scale(0.1 -0.1)">
      <use xlink:href="#DejaVuSans-72"/>
      <use x="41.082031" xlink:href="#DejaVuSans-6f"/>
      <use x="102.263672" xlink:href="#DejaVuSans-74"/>
      <use x="141.472656" xlink:href="#DejaVuSans-20"/>
      <use x="173.259766" xlink:href="#DejaVuSans-7a"/>
     </g>
    </g>
   </g>
   <g id="line2d_123">
    <path clip-path="url(#p8baa8d5bec)" d="M 87.225493 165.09753 
L 87.687304 160.212038 
L 87.91821 165.341861 
L 88.380021 156.106414 
L 88.610985 155.500225 
L 88.841891 150.744035 
L 89.072797 163.288037 
M 89.765083 164.609279 
L 89.995989 162.980196 
L 90.226895 163.784584 
L 90.457778 169.049768 
L 90.688685 169.932129 
L 90.919591 175.237124 
L 91.382724 157.838165 
L 91.844536 169.815861 
L 92.07544 166.145212 
L 92.306444 166.92768 
L 92.537352 163.534788 
L 92.999165 170.114789 
L 93.459785 160.207662 
L 93.690692 161.340057 
L 93.921598 159.603138 
L 94.383316 139.045867 
L 94.614225 152.025575 
L 95.077144 186.274805 
L 95.769864 165.791336 
L 96.002079 171.091786 
L 96.232874 169.834831 
L 96.46378 172.111965 
L 96.694687 168.629559 
L 96.925593 169.0679 
L 97.156003 169.145735 
L 97.386909 167.180162 
L 97.848722 142.586663 
L 98.07819 155.168001 
L 98.309098 158.580175 
L 98.540002 156.716763 
L 98.770911 159.554886 
L 99.232408 173.447167 
L 99.463314 187.561072 
L 99.694449 190.004524 
L 100.388087 154.344213 
L 100.618993 152.620385 
L 100.850008 160.473096 
L 101.080914 162.708194 
L 101.31182 169.069197 
L 101.772379 152.776996 
L 102.003285 158.420868 
L 102.234191 149.052504 
L 102.465097 151.167277 
L 102.92658 169.844333 
L 103.388394 178.89611 
L 103.619539 166.827966 
L 104.081351 161.173975 
L 104.543819 154.644186 
L 105.005631 167.094968 
L 105.467542 169.791335 
L 105.698448 172.025834 
L 105.929357 170.21669 
L 106.160261 156.589684 
L 106.390716 157.180718 
L 106.852531 169.983421 
L 107.083437 173.281382 
L 107.314343 180.031367 
L 107.545334 164.003305 
L 107.77624 163.845785 
L 108.238053 154.483084 
L 108.70046 175.055588 
L 108.931369 171.078457 
L 109.162275 159.7262 
L 109.392708 154.490752 
L 109.623614 157.858312 
L 110.085427 172.829824 
L 110.315741 173.417565 
L 110.777551 158.838429 
L 111.00846 165.206689 
L 111.239592 163.007447 
L 111.470499 172.454823 
L 111.701405 163.084977 
L 111.932311 163.134005 
L 112.165029 166.902312 
L 112.395936 168.248182 
L 112.626844 161.733487 
L 112.85775 168.702109 
L 113.088849 166.614539 
L 113.319757 154.278623 
L 113.550661 152.064251 
L 114.011587 161.614946 
L 114.242505 164.193196 
L 114.473402 164.16833 
L 114.704308 171.807615 
L 114.934407 165.986692 
L 115.165313 169.45346 
L 115.39622 169.173505 
L 115.627126 163.943451 
L 115.858517 171.563838 
L 116.089423 164.534574 
L 116.55124 187.156846 
L 116.782124 186.83413 
L 117.243936 146.783203 
L 117.704934 162.299481 
L 117.935864 161.123038 
L 118.166747 156.630441 
L 118.628559 142.05197 
L 118.859873 135.467138 
L 119.552592 172.900263 
L 119.783599 175.449753 
L 120.014508 182.359482 
L 120.245416 197.486859 
L 120.47632 204.038981 
L 120.706618 202.524066 
L 121.168431 159.818225 
L 121.399339 154.395264 
L 122.091933 114.992536 
M 123.246561 148.361085 
L 123.477581 183.507461 
L 123.708487 238.365391 
L 123.939393 249.344664 
L 124.402623 292.402575 
M 125.095344 212.298387 
L 125.786852 111.789369 
L 126.017758 96.620185 
L 126.249697 71.749936 
M 127.172703 94.797139 
L 128.096088 238.371878 
L 128.557901 257.730481 
L 128.788807 257.299923 
L 129.019713 247.622119 
L 129.250806 232.044815 
L 129.712622 190.994224 
L 130.17367 116.133102 
L 130.404577 100.768421 
L 130.635485 110.491693 
L 130.866389 115.454639 
L 131.098293 103.73523 
M 131.560105 139.195992 
L 132.021734 163.690198 
L 132.483548 228.436498 
L 132.714452 235.178481 
L 132.944582 180.423529 
M 134.09878 170.46715 
L 134.329686 167.315942 
M 135.255227 159.448895 
L 135.486133 162.339925 
M 137.100793 164.865001 
L 137.3317 183.706466 
L 137.562473 192.380837 
L 137.793379 184.434515 
L 138.255192 133.28106 
L 138.487004 120.224176 
L 138.717913 128.997839 
L 139.179723 169.020615 
L 139.410629 175.030125 
L 139.871662 177.293994 
L 140.102568 183.921541 
L 140.333477 179.172015 
L 140.795361 166.247771 
L 141.026267 168.173369 
L 141.257173 190.748935 
L 141.489325 173.866898 
L 141.720231 172.700424 
L 141.95114 175.943477 
L 142.182044 169.245946 
L 142.41204 170.796151 
L 142.642946 174.94694 
L 142.873852 149.407835 
L 143.104758 143.126638 
L 143.335148 145.093768 
L 143.79696 166.810865 
L 144.027866 166.706061 
L 144.260357 176.512087 
L 144.491263 178.916266 
L 144.722169 191.045591 
L 145.185636 157.691895 
L 145.416542 150.844201 
L 145.647448 147.908045 
L 146.107776 160.75299 
L 146.338682 155.037596 
L 146.569589 196.141249 
L 147.029847 188.410516 
L 147.260755 187.483303 
L 147.722566 191.193361 
L 147.953332 191.826676 
L 148.184238 186.989859 
L 148.415144 174.62438 
L 148.646051 177.308325 
L 148.877915 182.822754 
L 149.108821 177.57952 
L 149.339728 164.153447 
M 149.801542 153.199562 
L 150.032273 160.368737 
M 151.186382 171.026055 
L 151.417288 169.596575 
L 151.648197 153.772992 
L 151.879377 158.043699 
L 152.110283 155.934835 
L 152.341189 149.5413 
L 152.572095 165.027387 
L 152.802903 172.630488 
L 153.033811 152.563647 
L 153.264718 146.558881 
L 153.495624 159.918029 
L 153.727629 151.051081 
L 153.958535 160.319293 
L 154.189443 159.022274 
L 154.420352 171.17857 
L 154.652017 174.348232 
L 154.882759 162.986872 
L 155.113666 165.553961 
L 155.344574 147.465534 
L 155.575444 144.090689 
L 155.80635 143.581206 
L 156.037256 155.831892 
L 156.268163 159.653275 
L 156.499057 144.691178 
L 156.729965 161.129164 
L 156.960871 166.962918 
L 157.191777 156.331583 
L 157.42318 154.525162 
L 157.654086 164.521357 
L 157.884992 149.854307 
L 158.115898 150.214762 
L 158.34726 145.165214 
L 158.577926 154.394232 
L 158.808832 149.872469 
L 159.039741 152.475186 
L 159.269354 170.436127 
L 159.50026 159.998987 
L 159.731167 162.383422 
L 159.962073 153.959316 
L 160.192874 155.485121 
L 160.424501 139.681809 
L 160.655408 146.946598 
L 161.117222 164.9099 
L 161.347871 164.678072 
L 161.578775 162.424457 
L 161.809681 164.74162 
L 162.040588 163.945664 
L 162.271855 179.584951 
L 162.502761 183.126779 
L 162.964576 145.606642 
L 163.426027 165.366012 
L 163.656933 168.183925 
L 163.887839 149.271804 
L 164.118298 153.110681 
L 164.349204 160.062235 
L 164.58011 160.943888 
L 164.811016 152.181423 
L 165.041765 155.364769 
L 165.272674 154.980344 
L 165.503578 145.521954 
L 165.734484 149.324527 
L 165.965945 172.166573 
L 166.196852 163.089136 
L 166.658666 162.22398 
L 166.889307 151.415779 
M 168.043329 144.621551 
L 168.274235 153.400391 
L 168.505141 179.987379 
L 168.735624 164.46113 
L 168.966542 157.444503 
L 169.197437 158.896429 
L 169.428343 148.891912 
L 169.660241 167.226114 
L 169.891147 169.507115 
L 170.122056 145.425548 
L 170.352962 146.326521 
L 170.584158 156.580547 
L 170.815064 172.819555 
L 171.04597 166.689117 
L 171.276876 163.63205 
L 171.507783 165.227702 
L 171.738788 158.925724 
L 171.969694 171.545781 
L 172.2006 172.306392 
L 172.431506 158.37942 
L 172.662633 156.404808 
L 172.893539 157.601713 
L 173.355352 176.025107 
L 173.586267 151.114798 
L 173.817176 169.277125 
L 174.048082 169.36115 
L 174.278988 165.080454 
L 174.510119 176.299879 
L 174.741025 157.405833 
L 174.971931 150.338784 
L 175.20284 147.791974 
L 175.432941 151.068877 
L 175.663847 177.388245 
L 175.894753 160.206784 
L 176.12566 155.660271 
L 176.35568 160.7946 
L 176.586586 155.108918 
L 176.817492 179.537939 
L 177.048399 170.539815 
L 177.279967 138.673589 
L 177.510873 135.017626 
L 177.741779 138.769369 
L 177.972685 164.297785 
L 178.204344 164.56462 
L 178.43525 146.512834 
L 178.666156 163.021511 
L 178.897063 161.394964 
L 179.359218 182.290664 
L 179.82103 145.992863 
L 180.05121 149.456976 
L 180.282112 144.22843 
L 180.513016 167.832956 
L 180.974266 163.382231 
L 181.205172 167.149258 
L 181.436078 164.255631 
L 181.666984 167.971931 
L 181.89789 166.612665 
L 182.359782 152.159137 
L 182.590691 147.186281 
L 182.821597 158.181618 
L 183.052761 176.575848 
L 183.283667 172.549579 
L 183.514573 170.882477 
M 184.668716 151.400857 
L 184.899265 159.501244 
L 185.130172 156.668557 
L 185.361078 168.278054 
L 185.591984 156.838013 
L 186.053582 167.130166 
L 186.284489 175.301814 
L 186.515397 174.416582 
L 186.747442 172.646147 
L 186.978348 157.418226 
L 187.440161 153.993001 
L 187.670867 170.384294 
L 187.901708 178.78745 
L 188.132615 163.123687 
L 188.594556 173.543403 
L 188.825462 172.244874 
L 189.056368 166.744195 
L 189.287275 166.48493 
L 189.518553 163.138216 
L 189.749459 155.618913 
L 190.211274 173.927371 
L 190.442167 153.11118 
L 191.134886 176.228824 
L 191.366026 174.053648 
L 191.596814 176.291079 
L 192.058629 145.118028 
L 192.289535 148.829403 
L 192.520312 166.33462 
L 192.751218 168.752761 
L 192.982124 164.675217 
L 193.44273 177.784667 
L 193.673638 174.330707 
L 193.904544 177.560861 
L 194.135451 174.673722 
L 194.365549 175.357358 
L 194.596455 181.875165 
M 195.05844 164.830176 
L 195.289296 160.234295 
M 196.676199 146.550338 
L 196.907105 150.482822 
L 197.138559 164.44514 
L 197.369465 167.411352 
L 197.600372 172.660978 
L 197.831278 166.762928 
L 198.061422 166.152849 
L 198.75436 141.936996 
L 198.98442 141.112431 
L 199.215326 141.176582 
L 199.446232 153.716583 
L 199.908677 141.37534 
L 200.37049 157.417317 
L 200.601396 150.891936 
L 201.063401 165.054754 
L 201.294307 166.432742 
L 201.525213 157.441377 
L 201.756172 158.952967 
L 201.987081 166.474845 
M 202.448891 150.971739 
L 202.679797 164.44448 
L 202.910839 164.586132 
L 203.141747 135.620784 
L 203.372654 130.204516 
L 203.60356 130.862957 
L 203.835645 140.077351 
L 204.066551 154.954517 
L 204.297458 162.483235 
L 204.528364 153.67403 
L 204.758014 161.758818 
L 204.988921 149.42036 
L 205.219827 149.968207 
L 205.450733 162.04679 
L 205.680898 150.838061 
L 205.911804 146.418805 
L 206.142711 144.646612 
L 206.373617 144.211547 
L 206.605354 140.273364 
L 206.83626 144.701409 
L 207.067168 144.651493 
L 207.298075 154.200629 
L 207.529443 158.430142 
L 207.760349 172.502972 
L 207.991255 177.696858 
L 208.222164 177.339058 
L 208.453142 173.495644 
L 208.684048 163.627887 
L 208.914954 173.548463 
L 209.14586 176.437186 
L 209.377602 183.19751 
L 209.608509 170.571792 
L 210.070321 169.319702 
L 210.300563 161.520414 
L 210.993285 117.976181 
L 211.454743 125.76732 
L 211.685649 143.637641 
L 211.916558 149.490143 
L 212.147259 158.570063 
L 212.378165 156.148871 
L 212.609072 178.246425 
L 212.839978 184.918629 
M 213.762052 193.849176 
L 213.992958 189.321388 
L 214.455082 164.124923 
L 214.685988 166.717005 
L 214.916894 161.079914 
L 215.148604 169.698647 
L 215.610419 170.712594 
L 215.841325 181.639044 
L 216.303182 214.471384 
L 216.764994 192.128994 
L 216.995763 200.642447 
L 217.22667 187.965456 
L 217.688482 130.358446 
L 217.919495 111.04453 
L 218.150404 81.011374 
L 218.38131 77.913962 
L 218.612216 114.766839 
L 218.843114 109.275909 
L 219.07402 91.086732 
L 219.304929 108.408223 
L 219.535835 145.86046 
L 219.766728 165.145538 
L 219.997637 173.741478 
L 220.228543 194.705781 
L 220.459449 202.145651 
M 220.921223 189.659713 
L 221.152129 178.429517 
L 221.383035 191.084169 
L 221.613917 181.898911 
L 221.844826 161.493882 
M 224.383582 184.101488 
L 224.614747 197.497038 
L 224.845653 196.823965 
L 225.307465 179.10991 
L 225.539201 176.367418 
L 225.770107 179.691597 
L 226.23192 150.514221 
L 226.463844 154.59588 
L 226.694753 148.127178 
L 226.92566 145.74855 
L 227.387524 162.265205 
L 227.618431 172.989455 
L 227.849346 167.989727 
L 228.080243 146.672012 
L 228.31059 140.76608 
L 228.541497 128.661843 
L 228.772403 126.27117 
L 229.003309 154.187456 
L 229.234291 165.346097 
L 229.465197 163.526362 
L 229.696103 174.018648 
L 229.927009 178.059277 
L 230.157175 193.111642 
L 230.388083 190.750687 
L 230.849895 165.786076 
L 231.082419 166.523462 
L 231.313325 153.179862 
L 231.544231 154.975868 
L 231.775138 154.775053 
L 232.006558 151.634736 
L 232.237464 161.125894 
L 232.46837 193.573933 
L 232.699276 188.878342 
L 232.927434 159.712514 
M 234.773937 127.982865 
L 235.466865 180.096124 
L 235.697771 186.046944 
M 236.161164 221.224731 
L 236.392071 217.617533 
L 236.622979 225.366459 
L 236.853719 238.984945 
L 237.084625 231.619487 
L 237.776625 136.805702 
L 238.238437 80.458928 
L 238.469343 78.083191 
L 238.700163 78.866435 
L 238.931069 77.289962 
L 239.161976 86.077683 
L 239.624532 120.94305 
L 239.855438 139.065298 
L 240.086344 178.918961 
L 240.54807 191.167143 
L 240.778976 175.075239 
L 241.009882 182.544264 
L 241.240788 184.5115 
L 241.471465 174.349765 
L 241.702372 175.962874 
L 241.933278 175.960991 
L 242.164184 188.530115 
L 242.395558 191.786505 
L 242.626464 196.660688 
L 243.088277 227.333706 
L 243.319317 220.915271 
L 244.242513 129.31509 
L 244.47342 121.681826 
L 244.704326 99.440017 
L 245.166138 84.081594 
L 245.39721 112.651695 
L 245.859023 140.062678 
L 246.089929 169.122115 
L 246.320722 177.176992 
L 246.551628 202.889712 
L 246.782534 211.846784 
L 247.01344 210.545626 
L 247.244928 210.770459 
L 247.706743 188.353236 
L 248.399568 164.811781 
L 248.630474 147.435747 
L 249.092034 91.81212 
L 249.322941 106.489766 
L 249.784753 163.377708 
L 250.247517 274.551795 
L 250.709329 250.001761 
L 251.632574 137.585975 
L 251.862946 140.81629 
L 252.093852 132.820968 
L 252.324758 136.215975 
L 252.555667 131.547754 
L 253.017582 145.42171 
L 253.248488 141.158465 
L 253.479394 134.645654 
L 253.710767 173.13709 
L 254.172579 204.22857 
L 254.403486 190.66254 
L 254.865079 186.4926 
L 255.095985 191.736958 
L 256.019423 177.585644 
L 256.250329 152.003049 
L 256.481237 147.645666 
L 256.711766 162.939796 
L 256.942679 160.277145 
L 257.173579 162.432033 
L 257.63545 181.450409 
L 258.097262 151.985525 
L 258.328168 152.703885 
L 258.559873 156.591033 
L 258.790779 157.318851 
L 259.021686 159.426197 
L 259.252592 185.667513 
L 259.482041 193.108716 
L 259.712948 193.457348 
L 259.943856 191.65729 
L 260.174762 173.916756 
L 260.407257 177.452092 
L 260.869069 159.924166 
L 261.099982 152.58766 
M 261.562839 175.491523 
L 261.793745 155.903709 
L 262.024651 156.22866 
L 262.253603 164.521247 
L 262.484509 167.34079 
L 262.715415 199.838163 
L 262.946322 212.74112 
L 263.178944 215.286441 
L 263.409851 212.64306 
L 263.871665 169.168282 
L 264.102668 164.228512 
L 264.333577 152.39919 
L 264.564481 148.601531 
L 264.795387 153.458705 
L 265.254756 179.118631 
L 265.485662 184.44856 
L 265.716569 162.983347 
L 265.947659 164.484081 
L 266.178565 164.470859 
L 266.409471 165.454918 
L 266.640377 158.231679 
L 267.334722 175.430335 
L 267.565628 171.186045 
L 267.796534 182.855996 
L 268.025316 179.691508 
L 268.256223 182.378157 
M 269.17963 176.275183 
L 269.410536 172.255423 
L 269.641445 171.649809 
L 269.874097 172.157411 
L 270.105003 147.100902 
M 271.028685 156.599313 
L 271.259589 161.293477 
L 271.490498 177.735848 
L 271.719545 176.164923 
L 271.950452 166.700196 
L 272.412264 174.025667 
L 272.644781 185.705112 
L 273.106594 193.23907 
L 273.3375 183.397582 
M 273.801258 164.82846 
L 274.032164 172.335861 
L 274.263071 167.957367 
L 274.491579 150.909156 
L 274.722488 145.768495 
L 274.953394 152.252679 
L 275.1843 150.491029 
L 275.416038 154.946921 
L 275.646944 172.328248 
L 276.108757 148.227008 
L 276.570903 165.295627 
L 276.80181 152.409578 
L 277.032716 148.47353 
L 277.263624 151.51769 
L 277.956102 174.736398 
L 278.187009 175.937301 
L 278.417049 176.403325 
L 278.647956 177.805533 
L 278.878862 162.125794 
L 279.339543 145.486149 
L 279.801356 121.678051 
L 280.263787 151.32661 
L 280.725599 183.530716 
L 280.956507 183.66003 
L 281.420094 159.303137 
L 281.651 177.079123 
L 282.112452 190.861891 
L 282.343358 187.728231 
L 282.574264 181.67689 
L 282.80517 188.008342 
M 283.264893 149.524808 
L 283.495799 136.189674 
L 283.726705 136.283045 
M 284.420957 189.595209 
L 284.651866 173.970794 
L 284.883362 173.194012 
L 285.114269 174.383197 
M 285.576081 135.891461 
L 285.805157 138.909351 
M 286.266971 134.258687 
L 286.497878 134.605214 
L 286.728286 140.212997 
L 287.190098 162.090395 
L 287.651911 169.768354 
M 288.114762 156.053967 
L 288.34567 167.298802 
L 288.576576 156.644205 
L 289.039013 164.06363 
L 289.500825 147.670374 
L 290.19177 173.57606 
L 290.422676 170.788127 
L 290.654214 176.148234 
L 291.11625 147.047897 
L 291.346932 151.226777 
M 292.041585 162.409064 
L 292.272492 168.23233 
M 292.733161 190.274361 
L 292.964067 182.967575 
L 293.194975 179.184922 
M 294.579915 162.036634 
L 295.041727 172.940067 
L 295.273454 172.207148 
L 295.504361 169.040087 
L 295.73527 172.48648 
L 295.966176 169.305247 
L 296.195966 160.593903 
L 296.657778 125.076328 
L 297.118836 156.519611 
M 298.505452 165.150324 
L 298.736224 178.093774 
L 298.96713 172.524682 
L 299.1998 142.647322 
M 299.661615 152.109841 
L 299.892521 156.119707 
M 302.894051 98.774797 
L 303.355865 150.681994 
L 303.586772 160.756955 
L 304.048767 145.059965 
L 304.510582 161.068319 
L 304.740929 165.935972 
L 304.971835 164.965754 
L 305.433647 159.342801 
L 305.663381 150.961001 
L 305.894308 154.175048 
L 306.125193 155.358508 
L 306.356099 142.246819 
L 306.587033 138.057926 
L 306.817942 149.710492 
L 307.048848 153.528021 
L 307.279754 150.907972 
L 307.510058 145.713764 
L 307.740964 146.056044 
L 307.971871 147.907076 
L 308.202779 160.651785 
L 308.434968 163.800691 
L 308.665874 173.129535 
L 308.896787 191.976951 
L 309.127687 188.208721 
L 309.358593 187.524244 
L 309.590973 183.456468 
L 309.82188 165.583187 
L 310.052786 173.174488 
L 310.283692 165.973584 
L 310.513517 166.539513 
L 310.744423 153.55096 
L 310.975329 152.207095 
L 311.206236 152.516418 
L 311.436167 155.805575 
L 311.667074 153.490285 
L 311.897982 159.610857 
L 312.128888 152.116298 
L 312.359528 154.30049 
L 312.590434 148.620774 
L 312.82134 145.710515 
L 313.284302 160.581688 
L 313.515208 156.412228 
L 313.746114 154.447197 
L 313.97702 156.144018 
L 314.439296 140.106916 
L 314.670202 131.23364 
L 314.901108 137.063307 
L 315.130553 130.275015 
L 315.36146 116.358585 
L 315.592368 114.697611 
L 315.823274 108.095689 
L 316.515805 182.166136 
L 316.977974 187.935819 
L 317.20888 177.878334 
L 317.439787 174.161953 
L 317.901081 144.291744 
L 318.131987 144.482333 
L 318.362893 144.1374 
L 319.286055 199.392673 
L 319.516962 182.898047 
L 319.747868 184.485806 
L 319.979872 188.227282 
L 320.441685 174.606697 
L 320.672591 161.435099 
L 320.903174 156.553401 
L 321.13408 157.956943 
L 321.364986 153.451296 
L 321.595895 139.257737 
L 322.058357 181.947416 
L 322.289263 178.484075 
L 322.751078 167.875556 
L 322.981987 172.783871 
L 323.443799 160.728531 
L 323.67444 157.285447 
L 324.136252 119.576854 
L 325.060075 161.557655 
M 325.522073 169.890713 
L 325.752979 179.021324 
L 325.983885 180.402878 
L 326.214791 174.923799 
L 326.676555 202.294993 
L 326.907464 189.654925 
L 327.13837 198.711603 
L 327.600097 170.998845 
L 327.831003 167.184058 
L 328.061909 149.757589 
L 328.292583 159.615376 
L 328.523489 161.899318 
L 328.985304 108.673995 
L 329.216619 131.52695 
L 329.447526 141.68476 
L 329.678432 139.305901 
L 329.909338 131.248183 
L 330.371574 162.775173 
L 330.60248 166.157601 
L 330.833388 176.308843 
L 331.064292 177.584899 
L 331.525771 219.376349 
L 331.756677 218.164977 
L 332.218696 175.93194 
L 332.680511 157.872727 
L 332.911417 163.085679 
L 333.141503 165.682709 
L 333.603315 153.807832 
L 333.834221 146.482881 
L 334.065269 126.982633 
L 334.296176 128.452808 
L 334.527082 135.133781 
L 334.757988 136.388437 
L 334.989286 138.974174 
L 335.220192 152.375864 
L 335.451096 156.335039 
L 335.682168 172.221164 
L 335.912557 175.807612 
L 336.143466 184.144343 
L 336.374372 184.756462 
L 336.605278 187.149962 
L 336.835976 199.173122 
L 337.066882 197.147525 
L 337.297788 191.009047 
L 337.990911 146.037827 
L 338.221817 145.169829 
L 338.452724 149.433715 
L 338.682989 150.605602 
L 338.913895 145.008794 
L 339.144801 142.934378 
L 339.375785 141.87478 
L 339.605818 139.160777 
L 339.836724 143.177245 
L 340.298539 164.095249 
L 340.529338 170.512134 
L 340.760942 171.990497 
L 340.991848 175.257716 
L 341.222754 169.161212 
L 341.45366 159.073178 
M 342.149743 168.58127 
L 342.380649 158.931508 
L 342.839322 178.098434 
L 343.07023 179.050885 
L 343.301134 174.769649 
L 343.532839 173.012269 
L 343.763745 166.868424 
L 343.994651 132.995317 
L 344.225557 125.97634 
L 344.456303 154.558411 
L 344.918116 147.645474 
L 345.149022 169.111633 
L 345.379435 172.942717 
M 346.303207 173.335937 
L 346.534113 144.587809 
L 346.765022 172.62343 
L 346.995926 171.420203 
L 347.45782 143.647505 
L 347.688727 138.572212 
L 347.919633 154.97411 
L 348.150497 161.414169 
L 348.61231 165.779743 
M 349.074291 156.968795 
L 349.305197 155.69846 
L 349.76701 195.81966 
L 349.997559 191.993263 
L 350.228465 198.145283 
L 350.690277 187.714686 
L 350.920962 187.079116 
M 353.461103 165.987219 
L 353.692009 165.554493 
L 353.923056 169.299505 
L 354.153955 166.710509 
L 354.384861 165.604931 
L 354.615768 168.349591 
L 354.846007 157.224525 
L 355.076913 158.239934 
L 355.30782 163.684415 
L 355.538726 163.232575 
L 355.770026 164.019986 
L 356.000934 155.901154 
L 356.231838 157.61475 
L 356.462746 163.934033 
L 356.924921 168.182582 
M 359.00262 166.036109 
L 359.695709 180.592893 
L 360.618962 153.326157 
L 360.849868 160.212363 
L 361.080774 160.253149 
L 361.311982 154.269909 
L 361.542888 157.697491 
L 361.773792 175.370589 
L 362.004701 162.748818 
L 362.235607 170.892624 
L 362.697627 178.003204 
L 362.928533 172.655259 
L 363.38994 156.175669 
L 363.620846 160.914764 
L 363.851752 154.769399 
L 364.313189 160.704938 
L 364.544093 154.362622 
L 364.775 153.531518 
M 365.929913 156.996406 
L 366.161116 149.693176 
L 366.392022 155.055397 
L 366.622929 148.16249 
L 367.085381 169.486289 
L 367.316287 158.386764 
L 367.547194 167.021831 
L 367.7781 168.576341 
L 368.008394 171.097629 
L 368.239301 156.386045 
L 368.701113 151.127581 
L 369.163222 159.421798 
M 369.624991 163.653834 
L 369.856042 163.514406 
L 370.086948 171.385493 
L 370.317854 188.297947 
M 371.009396 146.861973 
L 371.240302 136.653326 
M 371.933771 145.584493 
L 372.164677 145.109575 
L 372.858779 126.918693 
L 373.551494 150.837296 
M 374.011293 181.206075 
L 374.473106 163.490162 
L 374.705759 191.361811 
L 374.936665 200.746603 
L 375.629964 142.497142 
L 376.091777 161.334294 
L 376.55246 160.303791 
M 377.014274 160.839171 
L 377.245181 160.019471 
M 377.706784 153.524107 
L 377.937691 156.355435 
L 378.168597 157.255753 
L 378.399189 161.699316 
L 378.861004 151.828627 
L 379.322543 164.461984 
L 379.55345 155.869262 
L 379.784353 159.200628 
L 380.015269 155.215531 
L 380.477087 139.071471 
L 380.938899 152.597704 
L 381.170226 166.453589 
L 381.632038 178.844497 
L 381.862944 188.643762 
L 382.0937 182.068983 
L 382.324609 167.462793 
L 382.555517 165.540672 
L 383.016568 151.525992 
L 383.247474 156.707221 
L 383.478382 168.712323 
L 383.709286 165.169332 
L 383.940192 159.648051 
M 384.634411 150.238712 
L 384.865317 135.821 
L 385.096404 135.250724 
L 385.789124 164.835102 
L 386.018952 166.98483 
L 386.480769 183.224789 
L 387.174354 165.991184 
L 387.405263 148.1956 
L 387.636169 146.706495 
L 387.86903 141.042396 
L 388.099706 141.589618 
L 388.791932 181.285801 
L 389.022839 176.900895 
L 389.253745 162.504128 
L 389.484651 157.845662 
M 390.174872 136.072966 
L 391.098141 169.53217 
L 391.32905 174.962458 
M 391.793484 173.748207 
L 392.02439 172.243885 
L 392.255296 169.456553 
L 392.485907 161.809185 
L 392.94772 177.851177 
L 393.178626 179.563491 
L 393.408458 184.027584 
L 393.639367 179.070412 
L 393.870273 180.565455 
L 394.101179 184.991881 
L 394.562481 166.391245 
M 395.024293 161.818247 
" style="fill:none;stroke:#ff0000;stroke-linecap:square;"/>
   </g>
   <g id="line2d_124">
    <path clip-path="url(#p8baa8d5bec)" d="M 87.225493 163.29078 
L 87.456399 161.243546 
L 87.687304 161.132206 
L 87.91821 166.074279 
L 88.149117 158.564593 
L 88.380021 157.205029 
L 88.610985 156.834739 
L 88.841891 150.887916 
L 89.072797 163.802178 
M 89.765083 165.503206 
L 89.995989 162.744832 
L 90.226895 163.355622 
L 90.457778 167.855069 
L 90.688685 174.672387 
L 91.150497 166.404354 
L 91.382724 158.982482 
L 91.61363 162.889528 
L 91.844536 169.477175 
L 92.07544 166.368261 
L 92.306444 166.558687 
L 92.537352 164.122428 
L 92.999165 170.215922 
L 93.459785 157.886785 
L 93.690692 161.940299 
L 93.921598 158.609526 
L 94.383316 139.40878 
L 94.614225 151.948786 
L 94.845131 175.267586 
L 95.077144 184.781356 
L 95.30805 179.646318 
L 95.769864 165.845179 
L 96.002079 170.11504 
L 96.232874 168.942725 
L 96.46378 172.654967 
L 96.694687 169.570244 
L 96.925593 168.824373 
L 97.156003 168.543779 
L 97.386909 167.288204 
L 97.848722 142.196182 
L 98.07819 155.292564 
L 98.309098 157.209969 
L 98.540002 155.224463 
L 99.232408 172.673942 
L 99.463314 186.532594 
L 99.694449 189.785914 
L 100.15718 170.758398 
L 100.388087 154.043805 
L 100.618993 152.539873 
L 100.850008 160.773658 
L 101.080914 162.665156 
L 101.31182 168.074464 
L 101.772379 156.674887 
L 102.003285 156.109658 
L 102.234191 149.781478 
L 102.465097 149.890268 
L 102.695673 162.908729 
L 103.388394 178.757622 
L 103.619539 165.170641 
L 103.850445 163.944511 
L 104.543819 154.376751 
L 105.005631 166.602703 
L 105.23654 169.745617 
L 105.467542 170.365636 
L 105.698448 172.787991 
L 105.929357 170.646726 
L 106.160261 156.472163 
L 106.390716 157.408979 
L 107.314343 180.883957 
L 107.545334 164.663465 
L 107.77624 164.420422 
L 108.238053 154.28292 
L 108.70046 175.782471 
L 108.931369 171.678081 
L 109.392708 154.224986 
L 109.623614 157.188193 
L 110.085427 173.022216 
L 110.315741 173.023245 
L 110.546647 168.50687 
L 110.777551 158.7675 
L 111.00846 166.04993 
L 111.239592 164.143999 
L 111.470499 171.756722 
L 111.701405 162.212962 
L 111.932311 162.256675 
L 112.165029 166.488962 
L 112.395936 167.380912 
L 112.626844 161.317934 
L 112.85775 167.618936 
L 113.088849 165.272168 
L 113.319757 154.913279 
L 113.550661 151.737175 
L 114.011587 162.062267 
L 114.242505 163.921873 
L 114.473402 164.787701 
L 114.704308 171.419694 
L 114.934407 165.220018 
L 115.165313 169.529595 
L 115.39622 169.127357 
L 115.627126 163.423531 
L 115.858517 172.049824 
L 116.089423 164.877443 
L 116.55124 186.851906 
L 116.782124 186.424807 
L 117.243936 145.435909 
L 117.704934 162.995093 
L 117.935864 161.041467 
L 118.166747 155.400042 
L 118.628559 141.884733 
L 118.859873 133.286237 
L 119.552592 172.956399 
L 119.783599 175.551114 
L 120.014508 181.691354 
L 120.245416 197.667768 
L 120.47632 204.779871 
L 120.706618 203.545756 
L 121.168431 160.139512 
L 121.399339 152.377732 
L 122.091933 115.85802 
M 123.246561 147.855478 
L 123.477581 183.52925 
L 123.708487 238.537855 
L 123.939393 249.524245 
L 124.402623 295.488 
M 125.095344 211.753694 
L 125.786852 110.433235 
L 126.249697 71.277444 
M 127.172703 95.07914 
L 128.096088 235.877472 
L 128.326994 244.521836 
L 128.557901 258.635961 
L 128.788807 258.452221 
L 129.019713 247.997949 
L 129.712622 191.162399 
L 130.17367 114.693895 
L 130.404577 99.579954 
L 130.635485 109.226256 
L 130.866389 111.782382 
L 131.098293 103.814749 
M 131.560105 139.528527 
L 132.021734 164.862504 
L 132.483548 228.60213 
L 132.714452 234.531656 
L 132.944582 180.839633 
M 134.09878 168.389318 
L 134.329686 166.869637 
M 135.255227 158.535654 
L 135.486133 161.197218 
M 137.100793 163.130349 
L 137.3317 184.159987 
L 137.562473 190.99362 
L 137.793379 184.617816 
L 138.487004 118.316927 
L 138.717913 126.28212 
L 139.179723 169.167568 
L 139.410629 175.192357 
L 139.640756 177.210383 
L 139.871662 178.04994 
L 140.102568 185.271969 
L 140.333477 181.096602 
L 140.564454 168.68843 
L 140.795361 166.605901 
L 141.026267 170.229713 
L 141.257173 190.48855 
L 141.489325 175.752229 
L 141.720231 173.017151 
L 141.95114 176.081126 
L 142.182044 166.745397 
L 142.41204 172.161021 
L 142.642946 174.024238 
L 142.873852 148.04647 
L 143.104758 144.925234 
L 143.335148 144.677569 
L 143.79696 167.231349 
L 144.027866 167.489449 
L 144.260357 177.357961 
L 144.491263 181.287465 
L 144.722169 192.497967 
L 145.185636 155.107746 
L 145.647448 146.736852 
L 146.107776 163.484805 
L 146.338682 153.903436 
L 146.569589 197.545903 
L 147.029847 185.338864 
L 147.260755 187.165663 
L 147.491659 190.880189 
L 147.722566 191.893346 
L 147.953332 193.676615 
L 148.184238 187.153978 
L 148.415144 174.857004 
L 148.877915 180.609601 
L 149.108821 179.604645 
L 149.339728 164.605532 
M 149.801542 153.063811 
L 150.032273 160.07464 
M 151.186382 170.269388 
L 151.417288 168.723732 
L 151.648197 154.507908 
L 151.879377 158.751354 
L 152.110283 155.588215 
L 152.341189 150.148947 
L 152.572095 164.921243 
L 152.802903 171.378984 
L 153.033811 152.682731 
L 153.264718 146.525822 
L 153.495624 161.103134 
L 153.727629 150.809764 
L 153.958535 160.540209 
L 154.189443 159.249091 
L 154.420352 171.365343 
L 154.652017 174.287719 
L 154.882759 165.305585 
L 155.113666 163.025606 
L 155.344574 146.481865 
L 155.575444 145.384936 
L 155.80635 143.236068 
L 156.037256 154.433222 
L 156.268163 160.217165 
L 156.499057 144.849321 
L 156.960871 168.233035 
L 157.191777 157.396185 
L 157.42318 156.175667 
L 157.654086 161.475285 
L 157.884992 148.959801 
L 158.115898 149.103687 
L 158.34726 144.467793 
L 158.577926 153.879305 
L 158.808832 149.401971 
L 159.039741 151.998155 
L 159.269354 170.922014 
L 159.50026 158.298982 
L 159.731167 162.254011 
L 159.962073 152.362068 
L 160.192874 155.498199 
L 160.424501 141.199647 
L 160.655408 147.626956 
L 161.117222 164.704906 
L 161.578775 162.314018 
L 162.040588 165.257607 
L 162.271855 178.010034 
L 162.502761 182.453937 
L 162.964576 144.266966 
L 163.426027 165.77279 
L 163.656933 166.922925 
L 163.887839 148.197632 
L 164.58011 161.655753 
L 164.811016 154.789065 
L 165.041765 154.322532 
L 165.272674 155.726753 
L 165.503578 146.094671 
L 165.734484 148.021891 
L 165.965945 154.451517 
L 166.196852 182.248271 
L 166.42776 161.424321 
L 166.658666 164.125846 
L 166.889307 147.969576 
M 168.043329 147.160988 
L 168.274235 144.352334 
L 168.505141 181.342567 
L 168.735624 166.133447 
L 168.966542 158.294018 
L 169.197437 159.518541 
L 169.428343 148.099616 
L 169.660241 174.905113 
L 170.122056 145.543171 
L 170.352962 149.998388 
L 170.584158 156.66674 
L 170.815064 171.740623 
L 171.04597 163.930249 
L 171.276876 165.337224 
L 171.507783 165.753719 
L 171.738788 156.179875 
L 171.969694 170.373824 
L 172.2006 172.388872 
L 172.431506 156.344642 
L 172.662633 157.301563 
L 172.893539 154.868509 
L 173.355352 178.342928 
L 173.586267 152.115068 
L 173.817176 169.261676 
L 174.048082 168.78024 
L 174.278988 166.006671 
L 174.510119 172.715852 
L 174.971931 149.865404 
L 175.20284 147.094713 
L 175.432941 151.396016 
L 175.663847 176.9311 
L 175.894753 159.901606 
L 176.12566 153.639419 
L 176.35568 160.515047 
L 176.586586 155.007001 
L 176.817492 179.969637 
L 177.048399 168.314578 
L 177.279967 139.454583 
L 177.510873 136.157649 
L 177.741779 137.804129 
L 177.972685 163.884699 
L 178.204344 163.392235 
L 178.43525 146.226103 
L 178.666156 163.815536 
L 178.897063 161.218147 
L 179.359218 181.720703 
L 179.82103 146.547426 
L 180.05121 148.151202 
L 180.282112 143.726767 
L 180.513016 167.134338 
L 180.743922 165.320393 
L 180.974266 162.203853 
L 181.205172 167.959256 
L 181.436078 164.964026 
L 181.666984 167.78581 
L 181.89789 166.486647 
L 182.128876 157.584111 
L 182.359782 156.962674 
L 182.590691 143.188889 
L 183.052761 179.428527 
L 183.283667 169.890017 
L 183.514573 172.167175 
M 184.668716 143.374434 
L 184.899265 163.299306 
L 185.130172 160.212829 
L 185.361078 161.152185 
L 185.591984 157.659991 
L 185.822676 159.730502 
L 186.284489 174.296506 
L 186.515397 173.65207 
L 186.747442 172.501232 
L 186.978348 157.880817 
L 187.209255 157.599981 
L 187.440161 154.244633 
L 187.901708 179.568537 
L 188.132615 164.898334 
L 188.363523 165.426113 
L 188.594556 176.346314 
L 189.056368 166.107191 
L 189.287275 164.175531 
L 189.518553 163.781779 
L 189.749459 158.242978 
L 189.980367 162.983997 
L 190.211274 172.613161 
L 190.442167 152.787083 
L 190.90398 164.99596 
L 191.134886 178.790771 
L 191.366026 174.092476 
L 191.596814 177.204707 
L 192.058629 142.129429 
L 192.289535 148.330431 
L 192.520312 166.109735 
L 192.751218 165.110507 
L 192.982124 165.319351 
L 193.44273 177.207546 
L 193.673638 173.89739 
L 193.904544 177.669208 
L 194.135451 175.720487 
L 194.365549 177.680341 
L 194.596455 182.819235 
M 195.05844 162.395861 
L 195.289296 159.830007 
M 196.676199 146.39956 
L 196.907105 150.345561 
L 197.138559 164.223741 
L 197.600372 173.044862 
L 197.831278 167.187891 
L 198.061422 166.48237 
L 198.523234 152.5399 
L 198.75436 140.404678 
L 198.98442 138.338058 
L 199.215326 141.662392 
L 199.446232 155.766488 
L 199.908677 140.934987 
L 200.139583 151.505282 
L 200.37049 156.952104 
L 200.601396 150.777806 
L 200.832495 161.922081 
L 201.063401 160.912087 
L 201.294307 174.982683 
L 201.525213 159.147251 
L 201.756172 151.456977 
L 201.987081 166.497619 
M 202.448891 155.52162 
L 202.679797 162.274492 
L 202.910839 156.910682 
L 203.141747 137.777329 
L 203.372654 128.96239 
L 203.60356 132.813992 
L 203.835645 142.251159 
L 204.066551 156.956299 
L 204.297458 162.391408 
L 204.528364 154.821465 
L 204.758014 160.963391 
L 204.988921 146.780895 
L 205.219827 149.566834 
L 205.450733 162.079242 
L 205.680898 149.852254 
L 206.142711 144.746327 
L 206.373617 143.363318 
L 206.83626 147.912469 
L 207.067168 142.885765 
L 207.298075 154.508162 
L 207.529443 157.365777 
L 207.760349 172.818858 
L 207.991255 176.29219 
L 208.222164 177.820693 
L 208.453142 173.514005 
L 208.684048 164.188972 
L 208.914954 174.308973 
L 209.14586 175.535131 
L 209.377602 182.925118 
L 209.608509 170.499264 
L 209.839415 170.591365 
L 210.070321 171.398011 
L 210.300563 161.952848 
L 210.993285 116.53947 
L 211.223837 120.396738 
L 211.454743 127.262402 
L 211.916558 151.031913 
L 212.147259 159.617276 
L 212.378165 158.252832 
L 212.609072 177.80572 
L 212.839978 180.532007 
M 213.762052 191.792205 
L 213.992958 187.766592 
L 214.455082 164.35277 
L 214.685988 166.33583 
L 214.916894 161.072355 
L 215.148604 170.268061 
L 215.37951 169.77113 
L 215.610419 170.080658 
L 216.072276 198.099938 
L 216.303182 214.625841 
L 216.764994 191.229481 
L 216.995763 201.156472 
L 217.22667 187.943406 
L 217.688482 129.012583 
L 217.919495 110.368992 
L 218.150404 80.175228 
L 218.38131 77.707431 
L 218.612216 114.06014 
L 218.843114 109.776615 
L 219.07402 91.738264 
L 219.304929 109.495449 
L 219.766728 166.19036 
L 219.997637 171.920583 
L 220.228543 196.217662 
L 220.459449 201.129185 
M 220.921223 189.81253 
L 221.152129 178.305948 
L 221.383035 191.133681 
L 221.613917 181.570777 
L 221.844826 164.728042 
M 224.383582 182.168452 
L 224.614747 194.241874 
L 224.845653 194.676954 
L 225.076559 192.133761 
L 225.307465 178.78135 
L 225.539201 176.468328 
L 225.770107 183.74939 
L 226.001014 160.451326 
L 226.23192 150.924434 
L 226.463844 154.832455 
L 226.694753 146.835946 
L 226.92566 146.350464 
L 227.618431 171.953233 
L 227.849346 167.181172 
L 228.080243 148.691291 
L 228.772403 125.229416 
L 229.003309 153.496844 
L 229.234291 165.195901 
L 229.465197 165.162685 
L 229.927009 180.433432 
L 230.157175 191.91188 
L 230.388083 191.53016 
L 230.849895 156.719691 
L 231.082419 160.150873 
L 231.313325 153.71281 
L 231.544231 155.90398 
L 231.775138 152.238801 
L 232.006558 152.135032 
L 232.237464 162.19039 
L 232.46837 193.312153 
L 232.699276 189.448721 
L 232.927434 161.015745 
M 234.773937 126.181526 
L 235.466865 181.145111 
L 235.697771 187.793353 
M 236.161164 221.126408 
L 236.392071 217.833245 
L 236.622979 223.22933 
L 236.853719 242.688221 
L 237.084625 233.264734 
L 237.776625 136.388399 
L 238.238437 79.644982 
L 238.469343 79.889849 
L 238.700163 76.088718 
L 238.931069 76.814967 
L 239.161976 84.390869 
L 239.624532 126.359583 
L 239.855438 143.31348 
L 240.317253 194.080634 
L 240.54807 185.381639 
L 240.778976 171.345734 
L 241.009882 182.014281 
L 241.240788 186.772495 
L 241.471465 175.144103 
L 241.702372 178.137949 
L 241.933278 174.432526 
L 242.164184 189.370977 
L 242.395558 191.480577 
L 242.626464 197.211703 
L 243.088277 226.755924 
L 243.319317 221.414351 
L 244.704326 98.929015 
L 245.166138 84.009011 
L 245.39721 113.246682 
L 245.859023 141.342978 
L 246.089929 168.764723 
L 246.320722 176.33047 
L 246.551628 203.458535 
L 246.782534 213.103824 
L 247.01344 210.499748 
L 247.244928 210.241482 
L 247.706743 188.16856 
L 247.937649 181.42652 
L 248.630474 146.550282 
L 249.092034 91.209345 
L 249.322941 103.541629 
L 249.784753 161.796642 
L 250.247517 274.296078 
L 250.709329 251.89245 
L 251.632574 136.784376 
L 251.862946 141.068008 
L 252.093852 131.930497 
L 252.324758 136.866714 
L 252.555667 128.809347 
L 252.786676 139.330328 
L 253.017582 144.616719 
L 253.479394 133.754568 
L 253.710767 171.460065 
L 254.172579 206.613021 
L 254.403486 191.997885 
L 254.63417 190.550048 
L 254.865079 183.487107 
L 255.095985 191.790705 
L 255.326891 186.658552 
L 255.55761 187.157202 
L 255.788516 181.592112 
L 256.019423 170.968289 
L 256.250329 152.09175 
L 256.481237 151.411211 
L 256.711766 161.653502 
L 256.942679 160.054015 
L 257.404485 167.378466 
L 257.63545 187.523914 
L 258.097262 152.894926 
L 258.328168 151.827031 
L 258.559873 153.476505 
L 258.790779 156.701243 
L 259.021686 156.907554 
L 259.252592 182.717874 
L 259.482041 194.598988 
L 259.712948 197.165852 
L 259.943856 195.354167 
L 260.174762 177.703368 
L 260.407257 175.169439 
L 260.869069 153.39919 
L 261.099982 158.369616 
M 261.562839 174.834736 
L 261.793745 156.999351 
L 262.024651 156.703221 
L 262.484509 172.624711 
L 262.715415 198.976148 
L 262.946322 212.451025 
L 263.178944 215.865059 
L 263.871665 171.134155 
L 264.102668 164.884402 
L 264.333577 152.129649 
L 264.564481 147.475889 
L 264.795387 154.094103 
L 265.02385 170.979735 
L 265.485662 183.302809 
L 265.716569 164.394064 
L 265.947659 164.354175 
L 266.178565 163.894466 
L 266.409471 166.328078 
L 266.640377 157.631425 
L 266.871284 161.399445 
L 267.334722 176.695461 
L 267.565628 169.571681 
L 267.796534 182.922723 
L 268.025316 183.029224 
L 268.256223 180.222384 
M 269.17963 174.656298 
L 269.410536 171.199439 
L 269.641445 174.116902 
L 269.874097 174.757115 
L 270.105003 151.956832 
M 271.028685 156.208837 
L 271.259589 162.571644 
L 271.490498 176.098986 
L 271.719545 175.699786 
L 271.950452 166.726362 
L 272.412264 174.05738 
L 272.644781 186.644654 
L 273.106594 193.372579 
L 273.3375 182.82161 
M 273.801258 165.341903 
L 274.032164 172.370749 
L 274.263071 167.060988 
L 274.722488 143.802469 
L 274.953394 151.987807 
L 275.1843 152.153416 
L 275.416038 153.959903 
L 275.646944 172.247067 
L 276.108757 148.472806 
L 276.339997 161.188091 
L 276.570903 163.773767 
L 276.80181 151.683801 
L 277.032716 148.483404 
L 277.263624 147.781817 
L 277.725196 168.332412 
L 278.187009 175.196785 
L 278.417049 174.718693 
L 278.647956 176.465636 
L 279.109768 153.188397 
L 279.339543 144.925416 
L 279.57045 129.453717 
L 279.801356 122.717249 
L 280.494693 168.043708 
L 280.725599 187.442844 
L 280.956507 189.135141 
L 281.189188 160.792476 
L 282.112452 190.102902 
L 282.343358 187.468412 
L 282.574264 180.541053 
L 282.80517 189.406579 
M 283.264893 150.04095 
L 283.495799 140.119044 
L 283.726705 135.345926 
M 284.420957 189.330746 
L 284.651866 173.754086 
L 284.883362 174.807148 
L 285.114269 177.495519 
M 285.576081 136.754708 
L 285.805157 139.503332 
M 286.266971 137.614568 
L 286.497878 133.760921 
L 286.728286 138.748552 
L 287.190098 161.438975 
L 287.651911 171.007204 
M 288.114762 156.54233 
L 288.34567 164.993791 
L 288.576576 157.684438 
L 289.039013 163.941613 
L 289.269919 152.151436 
L 289.500825 146.736171 
L 290.19177 176.390847 
L 290.422676 169.493036 
L 290.654214 177.501338 
L 291.11625 147.485643 
L 291.346932 149.591481 
M 292.041585 165.007811 
L 292.272492 171.769059 
M 292.733161 190.320374 
L 292.964067 182.624376 
L 293.194975 181.191671 
M 294.579915 162.581842 
L 294.811001 166.929173 
L 295.041727 173.948402 
L 295.273454 174.491153 
L 295.504361 169.31844 
L 295.73527 174.387228 
L 295.966176 168.195403 
L 296.426872 145.015505 
L 296.657778 124.124502 
L 297.118836 157.846866 
M 298.505452 164.024863 
L 298.736224 171.813839 
L 298.96713 168.77222 
L 299.1998 137.432838 
M 299.661615 153.182627 
L 299.892521 157.108262 
M 302.894051 101.998903 
L 303.355865 151.636929 
L 303.586772 160.068366 
L 304.048767 144.498438 
L 304.740929 165.314035 
L 304.971835 165.600048 
L 305.433647 160.450805 
L 305.663381 152.889971 
L 305.894308 151.938719 
L 306.125193 154.37641 
L 306.356099 141.714647 
L 306.587033 138.538461 
L 306.817942 150.242917 
L 307.048848 155.040263 
L 307.510058 145.043817 
L 307.971871 149.341144 
L 308.202779 162.249837 
L 308.434968 160.856985 
L 308.665874 173.025562 
L 308.896787 191.444845 
L 309.127687 189.377634 
L 309.358593 186.024338 
L 309.590973 185.863772 
L 309.82188 163.038791 
L 310.052786 173.957457 
L 310.283692 168.487093 
L 310.513517 167.285445 
L 310.744423 153.502381 
L 310.975329 151.544444 
L 311.206236 152.652798 
L 311.436167 155.317085 
L 311.667074 153.58429 
L 311.897982 156.041502 
L 312.128888 152.92193 
L 312.359528 155.441432 
L 312.590434 148.359354 
L 312.82134 145.394434 
L 313.284302 163.00562 
L 313.515208 155.409691 
L 313.746114 156.253595 
L 313.97702 154.232906 
L 314.670202 130.91508 
L 314.901108 134.66171 
L 315.130553 129.927752 
L 315.36146 114.835679 
L 315.592368 116.032329 
L 315.823274 111.6274 
L 316.284898 149.55518 
L 316.515805 180.003033 
L 316.746711 185.962705 
L 316.977974 188.711649 
L 317.20888 177.790032 
L 317.439787 175.127753 
L 317.901081 142.113987 
L 318.131987 141.257422 
L 318.362893 143.981244 
L 319.055147 187.840799 
L 319.286055 198.313384 
L 319.516962 184.463731 
L 319.747868 183.112956 
L 319.979872 190.636443 
L 320.903174 154.929581 
L 321.13408 156.88335 
L 321.364986 154.002745 
L 321.595895 140.651213 
L 322.058357 180.845863 
L 322.289263 179.029778 
L 322.520169 168.980578 
L 322.751078 172.070277 
L 322.981987 170.748488 
L 323.443799 159.125066 
L 323.67444 157.404609 
L 324.136252 120.264402 
L 325.060075 159.598573 
M 325.522073 169.490366 
L 325.752979 177.924305 
L 325.983885 179.537504 
L 326.214791 174.412631 
L 326.676555 202.539742 
L 326.907464 189.535211 
L 327.13837 197.494023 
L 328.061909 152.674743 
L 328.523489 162.381218 
L 328.985304 109.49974 
L 329.447526 145.211399 
L 329.909338 130.38951 
L 330.371574 162.43185 
L 330.60248 166.644029 
L 330.833388 177.217889 
L 331.064292 177.216848 
L 331.525771 220.385053 
L 331.756677 215.447772 
L 332.218696 177.187884 
L 332.680511 158.329249 
L 332.911417 163.361552 
L 333.141503 165.899217 
L 333.372409 157.275527 
L 333.834221 147.034586 
L 334.065269 127.392597 
L 334.296176 129.602338 
L 334.757988 136.96224 
L 334.989286 137.163822 
L 335.220192 151.113505 
L 335.451096 156.194846 
L 335.682168 172.927556 
L 335.912557 175.748298 
L 336.143466 183.768727 
L 336.374372 185.532029 
L 336.605278 189.269765 
L 336.835976 199.129031 
L 337.066882 199.367529 
L 337.297788 189.419356 
L 337.760002 154.806972 
L 337.990911 146.140331 
L 338.221817 145.338614 
L 338.452724 150.734476 
L 338.682989 148.238514 
L 338.913895 143.012384 
L 339.144801 142.525548 
L 339.605818 138.17467 
L 339.836724 140.963004 
L 340.298539 166.414388 
L 340.529338 172.665397 
L 340.760942 173.887908 
L 340.991848 174.445063 
L 341.222754 169.620553 
L 341.45366 157.073548 
M 342.149743 168.311997 
L 342.380649 159.76768 
L 342.839322 177.725314 
L 343.07023 177.582831 
L 343.301134 174.564113 
L 343.532839 173.60681 
L 343.763745 166.124689 
L 343.994651 133.143332 
L 344.225557 124.389172 
L 344.456303 154.655239 
L 344.68721 155.575123 
L 344.918116 147.6713 
L 345.149022 168.222161 
L 345.379435 174.709206 
M 346.303207 173.751866 
L 346.534113 144.598087 
L 346.765022 169.357047 
L 346.995926 171.407708 
L 347.226912 151.449888 
L 347.688727 138.281446 
L 347.919633 154.786136 
L 348.381403 166.909604 
L 348.61231 164.807513 
M 349.074291 158.963863 
L 349.305197 153.562698 
L 349.76701 196.908686 
L 349.997559 190.815217 
L 350.228465 195.310428 
L 350.459373 191.787926 
L 350.690277 190.735913 
L 350.920962 185.293154 
M 353.461103 163.84317 
L 353.692009 163.291124 
L 353.923056 171.724523 
L 354.153955 169.198059 
L 354.384861 161.822047 
L 354.615768 167.783325 
L 354.846007 156.285431 
L 355.076913 159.730682 
L 355.30782 165.436226 
L 355.538726 161.578814 
L 355.770026 162.578692 
L 356.000934 155.047889 
L 356.231838 158.167177 
L 356.694014 166.936677 
L 356.924921 170.626284 
M 359.00262 166.023279 
L 359.695709 178.010715 
L 360.388056 156.084563 
L 360.618962 155.897267 
L 360.849868 162.364434 
L 361.311982 156.18421 
L 361.542888 156.121688 
L 361.773792 174.170785 
L 362.004701 162.851965 
L 362.466721 175.92509 
L 362.697627 178.459137 
L 362.928533 172.730706 
L 363.38994 157.62738 
L 363.620846 160.602133 
L 363.851752 156.041313 
L 364.313189 159.10821 
L 364.544093 154.311544 
L 364.775 154.081773 
M 365.929913 151.080955 
L 366.161116 149.830074 
L 366.392022 154.717685 
L 366.622929 149.095509 
L 367.085381 169.671921 
L 367.316287 161.769554 
L 367.547194 166.420915 
L 367.7781 166.366045 
L 368.008394 170.336922 
L 368.239301 157.689099 
L 368.470207 152.118609 
L 368.701113 150.691924 
L 369.163222 158.200696 
M 369.624991 164.139298 
L 369.856042 164.515733 
L 370.086948 173.654588 
L 370.317854 188.617362 
M 371.009396 149.163201 
L 371.240302 137.76803 
M 371.933771 143.819306 
L 372.164677 145.419851 
L 372.395583 141.031009 
L 372.858779 125.739478 
L 373.320588 144.941606 
L 373.551494 150.583416 
M 374.011293 181.920705 
L 374.473106 162.57144 
L 374.705759 191.398955 
L 374.936665 198.36364 
L 375.629964 143.506221 
L 376.091777 160.787759 
L 376.322685 160.848791 
L 376.55246 160.537479 
M 377.014274 162.127448 
L 377.245181 161.895586 
M 377.706784 153.476908 
L 377.937691 156.113449 
L 378.168597 156.673238 
L 378.399189 162.44943 
L 378.861004 150.325738 
L 379.322543 161.004243 
L 379.55345 157.219942 
L 379.784353 159.490178 
L 380.015269 157.401791 
L 380.246181 144.495491 
L 380.477087 139.219401 
L 380.707993 142.953488 
L 381.401132 173.164706 
L 381.862944 188.032071 
L 382.0937 181.682755 
L 382.324609 169.130474 
L 382.786421 158.937332 
L 383.016568 153.546245 
L 383.247474 158.632688 
L 383.478382 168.266704 
L 383.709286 167.196177 
L 383.940192 160.876127 
M 384.634411 149.84736 
L 384.865317 135.372025 
L 385.096404 135.114125 
L 385.32731 145.122023 
L 385.558216 160.444657 
L 385.789124 163.691945 
L 386.018952 161.529387 
L 386.24986 178.837281 
L 386.480769 184.040466 
L 386.711673 173.960479 
L 386.943448 174.837234 
L 387.405263 148.703906 
L 387.636169 147.342022 
L 387.86903 141.142611 
L 388.099706 140.280171 
L 388.330612 159.250655 
L 388.791932 180.226487 
L 389.022839 179.25752 
L 389.484651 154.870991 
M 390.174872 131.551955 
L 390.405778 145.083989 
L 390.636329 150.174493 
L 390.867237 158.288715 
L 391.098141 171.279595 
L 391.32905 176.835675 
M 391.793484 172.649561 
L 392.02439 174.043917 
L 392.485907 160.588345 
L 392.94772 178.620932 
L 393.408458 182.036219 
L 393.639367 179.327787 
L 393.870273 181.344404 
L 394.101179 186.797177 
L 394.562481 166.89082 
M 395.024293 161.469675 
" style="fill:none;stroke:#0000ff;stroke-linecap:square;"/>
   </g>
   <g id="line2d_125">
    <path clip-path="url(#p8baa8d5bec)" d="M 73.832727 167.980452 
L 74.063737 169.878709 
L 74.525551 155.973286 
L 74.756457 160.978739 
L 74.987363 162.218413 
L 75.218261 161.629752 
L 75.449197 158.932611 
L 75.680104 159.791882 
L 75.911012 164.19526 
L 76.141918 166.406451 
L 76.37283 161.666816 
L 76.603736 167.12138 
L 76.834642 165.996326 
L 77.065549 168.287153 
L 77.527391 165.820997 
L 77.758526 163.81888 
L 77.989204 165.019232 
L 78.220088 165.573867 
L 78.450995 165.595332 
L 78.681901 164.436412 
L 78.912807 165.457237 
L 79.143744 163.380257 
L 79.37465 164.321537 
L 79.605559 167.87866 
L 80.067389 159.833284 
L 80.298298 165.217881 
L 80.529202 162.365987 
L 80.991093 165.25322 
L 81.222 162.835877 
L 81.914693 165.717582 
L 82.1456 162.649522 
L 82.376506 165.287081 
L 82.607412 165.263691 
L 82.838271 164.688846 
L 83.069177 161.462288 
L 83.761885 166.131634 
L 83.992794 165.739877 
L 84.223698 166.435445 
L 84.454604 168.752934 
L 84.68552 164.623539 
L 84.916426 164.214042 
L 85.147335 164.49478 
L 85.378241 165.20961 
L 85.609138 165.471458 
L 85.840045 164.221586 
L 86.070951 165.497611 
L 86.301857 165.869663 
L 86.532763 166.455426 
L 86.76368 168.106548 
L 86.994587 168.090376 
M 89.303703 162.457844 
L 89.534177 164.415475 
M 122.322839 109.453784 
L 122.553839 93.218793 
L 122.784745 93.135517 
L 123.015652 114.835688 
M 124.633529 270.662031 
L 124.864436 236.594599 
M 126.480603 59.956091 
L 126.71151 53.568 
L 126.942416 55.173714 
M 133.175488 154.325999 
L 133.406394 164.650436 
L 133.6373 166.895271 
L 133.867874 165.641033 
M 134.560592 161.194023 
L 134.793415 156.403612 
L 135.024321 156.311992 
M 136.180045 160.041695 
L 136.410951 160.484834 
L 136.638981 157.715226 
L 136.869887 164.228315 
M 150.263179 160.912234 
L 150.494085 161.190301 
L 150.724992 166.814995 
L 150.955557 176.487169 
M 195.520202 163.469142 
L 195.751108 159.637118 
M 196.214387 172.060301 
L 196.445293 156.595794 
M 213.069333 187.250455 
L 213.300239 190.839628 
L 213.531146 178.351989 
M 233.620153 58.235728 
L 233.85031 60.505472 
L 234.081219 56.265456 
L 234.312125 71.469994 
L 234.543031 106.799666 
M 268.487129 181.409779 
L 268.948724 161.872514 
M 270.335909 131.50181 
L 270.566816 146.982984 
L 270.797777 154.189414 
M 283.959145 162.623802 
L 284.190051 185.382466 
M 291.57977 158.281145 
L 291.810676 159.605147 
M 293.424278 184.18119 
L 293.655184 184.754983 
M 294.116997 144.648926 
L 294.349009 156.478966 
M 297.349744 156.735495 
L 297.58065 165.440095 
L 297.811556 166.805985 
L 298.043505 173.347124 
L 298.274412 167.368248 
M 341.687931 155.89395 
L 341.918837 162.966497 
M 352.306351 142.951795 
L 352.537258 167.053442 
L 352.768166 177.071408 
L 352.99929 175.345174 
L 353.230197 165.81338 
M 357.155827 175.390783 
L 357.386735 170.378266 
L 357.617297 172.114927 
L 357.848203 168.339062 
L 358.07911 167.929528 
L 358.310016 161.329965 
L 358.540808 162.306624 
L 358.771714 173.622271 
M 365.005906 162.907393 
L 365.237194 154.697525 
L 365.468243 160.370801 
L 365.699004 161.758147 
M 370.54876 185.87547 
L 370.77849 164.964775 
M 371.471214 142.352523 
L 371.702865 129.252449 
M 384.172597 165.055034 
L 384.403505 159.917143 
M 389.713057 158.425565 
L 389.943966 151.323392 
M 395.255218 173.68645 
L 395.716866 187.247568 
L 396.409124 164.650963 
L 396.64003 167.775319 
L 396.870936 161.337072 
L 397.101843 168.63645 
L 397.332826 163.036647 
L 397.563733 173.121384 
L 398.025547 162.768681 
L 398.256364 163.753047 
L 398.487273 159.612889 
L 398.487273 159.612889 
" style="fill:none;stroke:#008000;stroke-linecap:square;"/>
   </g>
   <g id="patch_3">
    <path d="M 57.6 307.584 
L 57.6 41.472 
" style="fill:none;stroke:#000000;stroke-linecap:square;stroke-linejoin:miter;stroke-width:0.8;"/>
   </g>
   <g id="patch_4">
    <path d="M 414.72 307.584 
L 414.72 41.472 
" style="fill:none;stroke:#000000;stroke-linecap:square;stroke-linejoin:miter;stroke-width:0.8;"/>
   </g>
   <g id="patch_5">
    <path d="M 57.6 307.584 
L 414.72 307.584 
" style="fill:none;stroke:#000000;stroke-linecap:square;stroke-linejoin:miter;stroke-width:0.8;"/>
   </g>
   <g id="patch_6">
    <path d="M 57.6 41.472 
L 414.72 41.472 
" style="fill:none;stroke:#000000;stroke-linecap:square;stroke-linejoin:miter;stroke-width:0.8;"/>
   </g>
   <g id="text_16">
    <!-- Rel Gt Rot Z Plot -->
    <defs>
     <path d="M 44.390625 34.1875 
Q 47.5625 33.109375 50.5625 29.59375 
Q 53.5625 26.078125 56.59375 19.921875 
L 66.609375 0 
L 56 0 
L 46.6875 18.703125 
Q 43.0625 26.03125 39.671875 28.421875 
Q 36.28125 30.8125 30.421875 30.8125 
L 19.671875 30.8125 
L 19.671875 0 
L 9.8125 0 
L 9.8125 72.90625 
L 32.078125 72.90625 
Q 44.578125 72.90625 50.734375 67.671875 
Q 56.890625 62.453125 56.890625 51.90625 
Q 56.890625 45.015625 53.6875 40.46875 
Q 50.484375 35.9375 44.390625 34.1875 
z
M 19.671875 64.796875 
L 19.671875 38.921875 
L 32.078125 38.921875 
Q 39.203125 38.921875 42.84375 42.21875 
Q 46.484375 45.515625 46.484375 51.90625 
Q 46.484375 58.296875 42.84375 61.546875 
Q 39.203125 64.796875 32.078125 64.796875 
z
" id="DejaVuSans-52"/>
     <path d="M 9.421875 75.984375 
L 18.40625 75.984375 
L 18.40625 0 
L 9.421875 0 
z
" id="DejaVuSans-6c"/>
     <path d="M 59.515625 10.40625 
L 59.515625 29.984375 
L 43.40625 29.984375 
L 43.40625 38.09375 
L 69.28125 38.09375 
L 69.28125 6.78125 
Q 63.578125 2.734375 56.6875 0.65625 
Q 49.8125 -1.421875 42 -1.421875 
Q 24.90625 -1.421875 15.25 8.5625 
Q 5.609375 18.5625 5.609375 36.375 
Q 5.609375 54.25 15.25 64.234375 
Q 24.90625 74.21875 42 74.21875 
Q 49.125 74.21875 55.546875 72.453125 
Q 61.96875 70.703125 67.390625 67.28125 
L 67.390625 56.78125 
Q 61.921875 61.421875 55.765625 63.765625 
Q 49.609375 66.109375 42.828125 66.109375 
Q 29.4375 66.109375 22.71875 58.640625 
Q 16.015625 51.171875 16.015625 36.375 
Q 16.015625 21.625 22.71875 14.15625 
Q 29.4375 6.6875 42.828125 6.6875 
Q 48.046875 6.6875 52.140625 7.59375 
Q 56.25 8.5 59.515625 10.40625 
z
" id="DejaVuSans-47"/>
     <path d="M 5.609375 72.90625 
L 62.890625 72.90625 
L 62.890625 65.375 
L 16.796875 8.296875 
L 64.015625 8.296875 
L 64.015625 0 
L 4.5 0 
L 4.5 7.515625 
L 50.59375 64.59375 
L 5.609375 64.59375 
z
" id="DejaVuSans-5a"/>
     <path d="M 19.671875 64.796875 
L 19.671875 37.40625 
L 32.078125 37.40625 
Q 38.96875 37.40625 42.71875 40.96875 
Q 46.484375 44.53125 46.484375 51.125 
Q 46.484375 57.671875 42.71875 61.234375 
Q 38.96875 64.796875 32.078125 64.796875 
z
M 9.8125 72.90625 
L 32.078125 72.90625 
Q 44.34375 72.90625 50.609375 67.359375 
Q 56.890625 61.8125 56.890625 51.125 
Q 56.890625 40.328125 50.609375 34.8125 
Q 44.34375 29.296875 32.078125 29.296875 
L 19.671875 29.296875 
L 19.671875 0 
L 9.8125 0 
z
" id="DejaVuSans-50"/>
    </defs>
    <g transform="translate(186.400312 35.472)scale(0.12 -0.12)">
     <use xlink:href="#DejaVuSans-52"/>
     <use x="69.419922" xlink:href="#DejaVuSans-65"/>
     <use x="130.943359" xlink:href="#DejaVuSans-6c"/>
     <use x="158.726562" xlink:href="#DejaVuSans-20"/>
     <use x="190.513672" xlink:href="#DejaVuSans-47"/>
     <use x="268.003906" xlink:href="#DejaVuSans-74"/>
     <use x="307.212891" xlink:href="#DejaVuSans-20"/>
     <use x="339" xlink:href="#DejaVuSans-52"/>
     <use x="408.419922" xlink:href="#DejaVuSans-6f"/>
     <use x="469.601562" xlink:href="#DejaVuSans-74"/>
     <use x="508.810547" xlink:href="#DejaVuSans-20"/>
     <use x="540.597656" xlink:href="#DejaVuSans-5a"/>
     <use x="609.103516" xlink:href="#DejaVuSans-20"/>
     <use x="640.890625" xlink:href="#DejaVuSans-50"/>
     <use x="701.193359" xlink:href="#DejaVuSans-6c"/>
     <use x="728.976562" xlink:href="#DejaVuSans-6f"/>
     <use x="790.158203" xlink:href="#DejaVuSans-74"/>
    </g>
   </g>
  </g>
 </g>
 <defs>
  <clipPath id="p8baa8d5bec">
   <rect height="266.112" width="357.12" x="57.6" y="41.472"/>
  </clipPath>
 </defs>
</svg>
