<?xml version="1.0" encoding="utf-8" standalone="no"?>
<!DOCTYPE svg PUBLIC "-//W3C//DTD SVG 1.1//EN"
  "http://www.w3.org/Graphics/SVG/1.1/DTD/svg11.dtd">
<!-- Created with matplotlib (http://matplotlib.org/) -->
<svg height="345.6pt" version="1.1" viewBox="0 0 460.8 345.6" width="460.8pt" xmlns="http://www.w3.org/2000/svg" xmlns:xlink="http://www.w3.org/1999/xlink">
 <defs>
  <style type="text/css">
*{stroke-linecap:butt;stroke-linejoin:round;}
  </style>
 </defs>
 <g id="figure_1">
  <g id="patch_1">
   <path d="M 0 345.6 
L 460.8 345.6 
L 460.8 0 
L 0 0 
z
" style="fill:#ffffff;"/>
  </g>
  <g id="axes_1">
   <g id="patch_2">
    <path d="M 57.6 307.584 
L 414.72 307.584 
L 414.72 41.472 
L 57.6 41.472 
z
" style="fill:#ffffff;"/>
   </g>
   <g id="matplotlib.axis_1">
    <g id="xtick_1">
     <g id="line2d_1">
      <path clip-path="url(#pe9e3846d13)" d="M 69.226844 307.584 
L 69.226844 41.472 
" style="fill:none;stroke:#b0b0b0;stroke-linecap:square;stroke-width:0.8;"/>
     </g>
     <g id="line2d_2">
      <defs>
       <path d="M 0 0 
L 0 3.5 
" id="m03f5fea06e" style="stroke:#000000;stroke-width:0.8;"/>
      </defs>
      <g>
       <use style="stroke:#000000;stroke-width:0.8;" x="69.226844" xlink:href="#m03f5fea06e" y="307.584"/>
      </g>
     </g>
     <g id="text_1">
      <!-- 99540 -->
      <defs>
       <path d="M 10.984375 1.515625 
L 10.984375 10.5 
Q 14.703125 8.734375 18.5 7.8125 
Q 22.3125 6.890625 25.984375 6.890625 
Q 35.75 6.890625 40.890625 13.453125 
Q 46.046875 20.015625 46.78125 33.40625 
Q 43.953125 29.203125 39.59375 26.953125 
Q 35.25 24.703125 29.984375 24.703125 
Q 19.046875 24.703125 12.671875 31.3125 
Q 6.296875 37.9375 6.296875 49.421875 
Q 6.296875 60.640625 12.9375 67.421875 
Q 19.578125 74.21875 30.609375 74.21875 
Q 43.265625 74.21875 49.921875 64.515625 
Q 56.59375 54.828125 56.59375 36.375 
Q 56.59375 19.140625 48.40625 8.859375 
Q 40.234375 -1.421875 26.421875 -1.421875 
Q 22.703125 -1.421875 18.890625 -0.6875 
Q 15.09375 0.046875 10.984375 1.515625 
z
M 30.609375 32.421875 
Q 37.25 32.421875 41.125 36.953125 
Q 45.015625 41.5 45.015625 49.421875 
Q 45.015625 57.28125 41.125 61.84375 
Q 37.25 66.40625 30.609375 66.40625 
Q 23.96875 66.40625 20.09375 61.84375 
Q 16.21875 57.28125 16.21875 49.421875 
Q 16.21875 41.5 20.09375 36.953125 
Q 23.96875 32.421875 30.609375 32.421875 
z
" id="DejaVuSans-39"/>
       <path d="M 10.796875 72.90625 
L 49.515625 72.90625 
L 49.515625 64.59375 
L 19.828125 64.59375 
L 19.828125 46.734375 
Q 21.96875 47.46875 24.109375 47.828125 
Q 26.265625 48.1875 28.421875 48.1875 
Q 40.625 48.1875 47.75 41.5 
Q 54.890625 34.8125 54.890625 23.390625 
Q 54.890625 11.625 47.5625 5.09375 
Q 40.234375 -1.421875 26.90625 -1.421875 
Q 22.3125 -1.421875 17.546875 -0.640625 
Q 12.796875 0.140625 7.71875 1.703125 
L 7.71875 11.625 
Q 12.109375 9.234375 16.796875 8.0625 
Q 21.484375 6.890625 26.703125 6.890625 
Q 35.15625 6.890625 40.078125 11.328125 
Q 45.015625 15.765625 45.015625 23.390625 
Q 45.015625 31 40.078125 35.4375 
Q 35.15625 39.890625 26.703125 39.890625 
Q 22.75 39.890625 18.8125 39.015625 
Q 14.890625 38.140625 10.796875 36.28125 
z
" id="DejaVuSans-35"/>
       <path d="M 37.796875 64.3125 
L 12.890625 25.390625 
L 37.796875 25.390625 
z
M 35.203125 72.90625 
L 47.609375 72.90625 
L 47.609375 25.390625 
L 58.015625 25.390625 
L 58.015625 17.1875 
L 47.609375 17.1875 
L 47.609375 0 
L 37.796875 0 
L 37.796875 17.1875 
L 4.890625 17.1875 
L 4.890625 26.703125 
z
" id="DejaVuSans-34"/>
       <path d="M 31.78125 66.40625 
Q 24.171875 66.40625 20.328125 58.90625 
Q 16.5 51.421875 16.5 36.375 
Q 16.5 21.390625 20.328125 13.890625 
Q 24.171875 6.390625 31.78125 6.390625 
Q 39.453125 6.390625 43.28125 13.890625 
Q 47.125 21.390625 47.125 36.375 
Q 47.125 51.421875 43.28125 58.90625 
Q 39.453125 66.40625 31.78125 66.40625 
z
M 31.78125 74.21875 
Q 44.046875 74.21875 50.515625 64.515625 
Q 56.984375 54.828125 56.984375 36.375 
Q 56.984375 17.96875 50.515625 8.265625 
Q 44.046875 -1.421875 31.78125 -1.421875 
Q 19.53125 -1.421875 13.0625 8.265625 
Q 6.59375 17.96875 6.59375 36.375 
Q 6.59375 54.828125 13.0625 64.515625 
Q 19.53125 74.21875 31.78125 74.21875 
z
" id="DejaVuSans-30"/>
      </defs>
      <g transform="translate(53.320594 322.182437)scale(0.1 -0.1)">
       <use xlink:href="#DejaVuSans-39"/>
       <use x="63.623047" xlink:href="#DejaVuSans-39"/>
       <use x="127.246094" xlink:href="#DejaVuSans-35"/>
       <use x="190.869141" xlink:href="#DejaVuSans-34"/>
       <use x="254.492188" xlink:href="#DejaVuSans-30"/>
      </g>
     </g>
    </g>
    <g id="xtick_2">
     <g id="line2d_3">
      <path clip-path="url(#pe9e3846d13)" d="M 115.406699 307.584 
L 115.406699 41.472 
" style="fill:none;stroke:#b0b0b0;stroke-linecap:square;stroke-width:0.8;"/>
     </g>
     <g id="line2d_4">
      <g>
       <use style="stroke:#000000;stroke-width:0.8;" x="115.406699" xlink:href="#m03f5fea06e" y="307.584"/>
      </g>
     </g>
     <g id="text_2">
      <!-- 99560 -->
      <defs>
       <path d="M 33.015625 40.375 
Q 26.375 40.375 22.484375 35.828125 
Q 18.609375 31.296875 18.609375 23.390625 
Q 18.609375 15.53125 22.484375 10.953125 
Q 26.375 6.390625 33.015625 6.390625 
Q 39.65625 6.390625 43.53125 10.953125 
Q 47.40625 15.53125 47.40625 23.390625 
Q 47.40625 31.296875 43.53125 35.828125 
Q 39.65625 40.375 33.015625 40.375 
z
M 52.59375 71.296875 
L 52.59375 62.3125 
Q 48.875 64.0625 45.09375 64.984375 
Q 41.3125 65.921875 37.59375 65.921875 
Q 27.828125 65.921875 22.671875 59.328125 
Q 17.53125 52.734375 16.796875 39.40625 
Q 19.671875 43.65625 24.015625 45.921875 
Q 28.375 48.1875 33.59375 48.1875 
Q 44.578125 48.1875 50.953125 41.515625 
Q 57.328125 34.859375 57.328125 23.390625 
Q 57.328125 12.15625 50.6875 5.359375 
Q 44.046875 -1.421875 33.015625 -1.421875 
Q 20.359375 -1.421875 13.671875 8.265625 
Q 6.984375 17.96875 6.984375 36.375 
Q 6.984375 53.65625 15.1875 63.9375 
Q 23.390625 74.21875 37.203125 74.21875 
Q 40.921875 74.21875 44.703125 73.484375 
Q 48.484375 72.75 52.59375 71.296875 
z
" id="DejaVuSans-36"/>
      </defs>
      <g transform="translate(99.500449 322.182437)scale(0.1 -0.1)">
       <use xlink:href="#DejaVuSans-39"/>
       <use x="63.623047" xlink:href="#DejaVuSans-39"/>
       <use x="127.246094" xlink:href="#DejaVuSans-35"/>
       <use x="190.869141" xlink:href="#DejaVuSans-36"/>
       <use x="254.492188" xlink:href="#DejaVuSans-30"/>
      </g>
     </g>
    </g>
    <g id="xtick_3">
     <g id="line2d_5">
      <path clip-path="url(#pe9e3846d13)" d="M 161.586554 307.584 
L 161.586554 41.472 
" style="fill:none;stroke:#b0b0b0;stroke-linecap:square;stroke-width:0.8;"/>
     </g>
     <g id="line2d_6">
      <g>
       <use style="stroke:#000000;stroke-width:0.8;" x="161.586554" xlink:href="#m03f5fea06e" y="307.584"/>
      </g>
     </g>
     <g id="text_3">
      <!-- 99580 -->
      <defs>
       <path d="M 31.78125 34.625 
Q 24.75 34.625 20.71875 30.859375 
Q 16.703125 27.09375 16.703125 20.515625 
Q 16.703125 13.921875 20.71875 10.15625 
Q 24.75 6.390625 31.78125 6.390625 
Q 38.8125 6.390625 42.859375 10.171875 
Q 46.921875 13.96875 46.921875 20.515625 
Q 46.921875 27.09375 42.890625 30.859375 
Q 38.875 34.625 31.78125 34.625 
z
M 21.921875 38.8125 
Q 15.578125 40.375 12.03125 44.71875 
Q 8.5 49.078125 8.5 55.328125 
Q 8.5 64.0625 14.71875 69.140625 
Q 20.953125 74.21875 31.78125 74.21875 
Q 42.671875 74.21875 48.875 69.140625 
Q 55.078125 64.0625 55.078125 55.328125 
Q 55.078125 49.078125 51.53125 44.71875 
Q 48 40.375 41.703125 38.8125 
Q 48.828125 37.15625 52.796875 32.3125 
Q 56.78125 27.484375 56.78125 20.515625 
Q 56.78125 9.90625 50.3125 4.234375 
Q 43.84375 -1.421875 31.78125 -1.421875 
Q 19.734375 -1.421875 13.25 4.234375 
Q 6.78125 9.90625 6.78125 20.515625 
Q 6.78125 27.484375 10.78125 32.3125 
Q 14.796875 37.15625 21.921875 38.8125 
z
M 18.3125 54.390625 
Q 18.3125 48.734375 21.84375 45.5625 
Q 25.390625 42.390625 31.78125 42.390625 
Q 38.140625 42.390625 41.71875 45.5625 
Q 45.3125 48.734375 45.3125 54.390625 
Q 45.3125 60.0625 41.71875 63.234375 
Q 38.140625 66.40625 31.78125 66.40625 
Q 25.390625 66.40625 21.84375 63.234375 
Q 18.3125 60.0625 18.3125 54.390625 
z
" id="DejaVuSans-38"/>
      </defs>
      <g transform="translate(145.680304 322.182437)scale(0.1 -0.1)">
       <use xlink:href="#DejaVuSans-39"/>
       <use x="63.623047" xlink:href="#DejaVuSans-39"/>
       <use x="127.246094" xlink:href="#DejaVuSans-35"/>
       <use x="190.869141" xlink:href="#DejaVuSans-38"/>
       <use x="254.492188" xlink:href="#DejaVuSans-30"/>
      </g>
     </g>
    </g>
    <g id="xtick_4">
     <g id="line2d_7">
      <path clip-path="url(#pe9e3846d13)" d="M 207.766409 307.584 
L 207.766409 41.472 
" style="fill:none;stroke:#b0b0b0;stroke-linecap:square;stroke-width:0.8;"/>
     </g>
     <g id="line2d_8">
      <g>
       <use style="stroke:#000000;stroke-width:0.8;" x="207.766409" xlink:href="#m03f5fea06e" y="307.584"/>
      </g>
     </g>
     <g id="text_4">
      <!-- 99600 -->
      <g transform="translate(191.860159 322.182437)scale(0.1 -0.1)">
       <use xlink:href="#DejaVuSans-39"/>
       <use x="63.623047" xlink:href="#DejaVuSans-39"/>
       <use x="127.246094" xlink:href="#DejaVuSans-36"/>
       <use x="190.869141" xlink:href="#DejaVuSans-30"/>
       <use x="254.492188" xlink:href="#DejaVuSans-30"/>
      </g>
     </g>
    </g>
    <g id="xtick_5">
     <g id="line2d_9">
      <path clip-path="url(#pe9e3846d13)" d="M 253.946264 307.584 
L 253.946264 41.472 
" style="fill:none;stroke:#b0b0b0;stroke-linecap:square;stroke-width:0.8;"/>
     </g>
     <g id="line2d_10">
      <g>
       <use style="stroke:#000000;stroke-width:0.8;" x="253.946264" xlink:href="#m03f5fea06e" y="307.584"/>
      </g>
     </g>
     <g id="text_5">
      <!-- 99620 -->
      <defs>
       <path d="M 19.1875 8.296875 
L 53.609375 8.296875 
L 53.609375 0 
L 7.328125 0 
L 7.328125 8.296875 
Q 12.9375 14.109375 22.625 23.890625 
Q 32.328125 33.6875 34.8125 36.53125 
Q 39.546875 41.84375 41.421875 45.53125 
Q 43.3125 49.21875 43.3125 52.78125 
Q 43.3125 58.59375 39.234375 62.25 
Q 35.15625 65.921875 28.609375 65.921875 
Q 23.96875 65.921875 18.8125 64.3125 
Q 13.671875 62.703125 7.8125 59.421875 
L 7.8125 69.390625 
Q 13.765625 71.78125 18.9375 73 
Q 24.125 74.21875 28.421875 74.21875 
Q 39.75 74.21875 46.484375 68.546875 
Q 53.21875 62.890625 53.21875 53.421875 
Q 53.21875 48.921875 51.53125 44.890625 
Q 49.859375 40.875 45.40625 35.40625 
Q 44.1875 33.984375 37.640625 27.21875 
Q 31.109375 20.453125 19.1875 8.296875 
z
" id="DejaVuSans-32"/>
      </defs>
      <g transform="translate(238.040014 322.182437)scale(0.1 -0.1)">
       <use xlink:href="#DejaVuSans-39"/>
       <use x="63.623047" xlink:href="#DejaVuSans-39"/>
       <use x="127.246094" xlink:href="#DejaVuSans-36"/>
       <use x="190.869141" xlink:href="#DejaVuSans-32"/>
       <use x="254.492188" xlink:href="#DejaVuSans-30"/>
      </g>
     </g>
    </g>
    <g id="xtick_6">
     <g id="line2d_11">
      <path clip-path="url(#pe9e3846d13)" d="M 300.126119 307.584 
L 300.126119 41.472 
" style="fill:none;stroke:#b0b0b0;stroke-linecap:square;stroke-width:0.8;"/>
     </g>
     <g id="line2d_12">
      <g>
       <use style="stroke:#000000;stroke-width:0.8;" x="300.126119" xlink:href="#m03f5fea06e" y="307.584"/>
      </g>
     </g>
     <g id="text_6">
      <!-- 99640 -->
      <g transform="translate(284.219869 322.182437)scale(0.1 -0.1)">
       <use xlink:href="#DejaVuSans-39"/>
       <use x="63.623047" xlink:href="#DejaVuSans-39"/>
       <use x="127.246094" xlink:href="#DejaVuSans-36"/>
       <use x="190.869141" xlink:href="#DejaVuSans-34"/>
       <use x="254.492188" xlink:href="#DejaVuSans-30"/>
      </g>
     </g>
    </g>
    <g id="xtick_7">
     <g id="line2d_13">
      <path clip-path="url(#pe9e3846d13)" d="M 346.305974 307.584 
L 346.305974 41.472 
" style="fill:none;stroke:#b0b0b0;stroke-linecap:square;stroke-width:0.8;"/>
     </g>
     <g id="line2d_14">
      <g>
       <use style="stroke:#000000;stroke-width:0.8;" x="346.305974" xlink:href="#m03f5fea06e" y="307.584"/>
      </g>
     </g>
     <g id="text_7">
      <!-- 99660 -->
      <g transform="translate(330.399724 322.182437)scale(0.1 -0.1)">
       <use xlink:href="#DejaVuSans-39"/>
       <use x="63.623047" xlink:href="#DejaVuSans-39"/>
       <use x="127.246094" xlink:href="#DejaVuSans-36"/>
       <use x="190.869141" xlink:href="#DejaVuSans-36"/>
       <use x="254.492188" xlink:href="#DejaVuSans-30"/>
      </g>
     </g>
    </g>
    <g id="xtick_8">
     <g id="line2d_15">
      <path clip-path="url(#pe9e3846d13)" d="M 392.485828 307.584 
L 392.485828 41.472 
" style="fill:none;stroke:#b0b0b0;stroke-linecap:square;stroke-width:0.8;"/>
     </g>
     <g id="line2d_16">
      <g>
       <use style="stroke:#000000;stroke-width:0.8;" x="392.485828" xlink:href="#m03f5fea06e" y="307.584"/>
      </g>
     </g>
     <g id="text_8">
      <!-- 99680 -->
      <g transform="translate(376.579578 322.182437)scale(0.1 -0.1)">
       <use xlink:href="#DejaVuSans-39"/>
       <use x="63.623047" xlink:href="#DejaVuSans-39"/>
       <use x="127.246094" xlink:href="#DejaVuSans-36"/>
       <use x="190.869141" xlink:href="#DejaVuSans-38"/>
       <use x="254.492188" xlink:href="#DejaVuSans-30"/>
      </g>
     </g>
    </g>
    <g id="xtick_9">
     <g id="line2d_17">
      <path clip-path="url(#pe9e3846d13)" d="M 57.68188 307.584 
L 57.68188 41.472 
" style="fill:none;stroke:#b0b0b0;stroke-linecap:square;stroke-width:0.8;"/>
     </g>
     <g id="line2d_18">
      <defs>
       <path d="M 0 0 
L 0 2 
" id="m1e7de0e3f5" style="stroke:#000000;stroke-width:0.6;"/>
      </defs>
      <g>
       <use style="stroke:#000000;stroke-width:0.6;" x="57.68188" xlink:href="#m1e7de0e3f5" y="307.584"/>
      </g>
     </g>
    </g>
    <g id="xtick_10">
     <g id="line2d_19">
      <path clip-path="url(#pe9e3846d13)" d="M 80.771808 307.584 
L 80.771808 41.472 
" style="fill:none;stroke:#b0b0b0;stroke-linecap:square;stroke-width:0.8;"/>
     </g>
     <g id="line2d_20">
      <g>
       <use style="stroke:#000000;stroke-width:0.6;" x="80.771808" xlink:href="#m1e7de0e3f5" y="307.584"/>
      </g>
     </g>
    </g>
    <g id="xtick_11">
     <g id="line2d_21">
      <path clip-path="url(#pe9e3846d13)" d="M 92.316772 307.584 
L 92.316772 41.472 
" style="fill:none;stroke:#b0b0b0;stroke-linecap:square;stroke-width:0.8;"/>
     </g>
     <g id="line2d_22">
      <g>
       <use style="stroke:#000000;stroke-width:0.6;" x="92.316772" xlink:href="#m1e7de0e3f5" y="307.584"/>
      </g>
     </g>
    </g>
    <g id="xtick_12">
     <g id="line2d_23">
      <path clip-path="url(#pe9e3846d13)" d="M 103.861735 307.584 
L 103.861735 41.472 
" style="fill:none;stroke:#b0b0b0;stroke-linecap:square;stroke-width:0.8;"/>
     </g>
     <g id="line2d_24">
      <g>
       <use style="stroke:#000000;stroke-width:0.6;" x="103.861735" xlink:href="#m1e7de0e3f5" y="307.584"/>
      </g>
     </g>
    </g>
    <g id="xtick_13">
     <g id="line2d_25">
      <path clip-path="url(#pe9e3846d13)" d="M 126.951663 307.584 
L 126.951663 41.472 
" style="fill:none;stroke:#b0b0b0;stroke-linecap:square;stroke-width:0.8;"/>
     </g>
     <g id="line2d_26">
      <g>
       <use style="stroke:#000000;stroke-width:0.6;" x="126.951663" xlink:href="#m1e7de0e3f5" y="307.584"/>
      </g>
     </g>
    </g>
    <g id="xtick_14">
     <g id="line2d_27">
      <path clip-path="url(#pe9e3846d13)" d="M 138.496626 307.584 
L 138.496626 41.472 
" style="fill:none;stroke:#b0b0b0;stroke-linecap:square;stroke-width:0.8;"/>
     </g>
     <g id="line2d_28">
      <g>
       <use style="stroke:#000000;stroke-width:0.6;" x="138.496626" xlink:href="#m1e7de0e3f5" y="307.584"/>
      </g>
     </g>
    </g>
    <g id="xtick_15">
     <g id="line2d_29">
      <path clip-path="url(#pe9e3846d13)" d="M 150.04159 307.584 
L 150.04159 41.472 
" style="fill:none;stroke:#b0b0b0;stroke-linecap:square;stroke-width:0.8;"/>
     </g>
     <g id="line2d_30">
      <g>
       <use style="stroke:#000000;stroke-width:0.6;" x="150.04159" xlink:href="#m1e7de0e3f5" y="307.584"/>
      </g>
     </g>
    </g>
    <g id="xtick_16">
     <g id="line2d_31">
      <path clip-path="url(#pe9e3846d13)" d="M 173.131518 307.584 
L 173.131518 41.472 
" style="fill:none;stroke:#b0b0b0;stroke-linecap:square;stroke-width:0.8;"/>
     </g>
     <g id="line2d_32">
      <g>
       <use style="stroke:#000000;stroke-width:0.6;" x="173.131518" xlink:href="#m1e7de0e3f5" y="307.584"/>
      </g>
     </g>
    </g>
    <g id="xtick_17">
     <g id="line2d_33">
      <path clip-path="url(#pe9e3846d13)" d="M 184.676481 307.584 
L 184.676481 41.472 
" style="fill:none;stroke:#b0b0b0;stroke-linecap:square;stroke-width:0.8;"/>
     </g>
     <g id="line2d_34">
      <g>
       <use style="stroke:#000000;stroke-width:0.6;" x="184.676481" xlink:href="#m1e7de0e3f5" y="307.584"/>
      </g>
     </g>
    </g>
    <g id="xtick_18">
     <g id="line2d_35">
      <path clip-path="url(#pe9e3846d13)" d="M 196.221445 307.584 
L 196.221445 41.472 
" style="fill:none;stroke:#b0b0b0;stroke-linecap:square;stroke-width:0.8;"/>
     </g>
     <g id="line2d_36">
      <g>
       <use style="stroke:#000000;stroke-width:0.6;" x="196.221445" xlink:href="#m1e7de0e3f5" y="307.584"/>
      </g>
     </g>
    </g>
    <g id="xtick_19">
     <g id="line2d_37">
      <path clip-path="url(#pe9e3846d13)" d="M 219.311373 307.584 
L 219.311373 41.472 
" style="fill:none;stroke:#b0b0b0;stroke-linecap:square;stroke-width:0.8;"/>
     </g>
     <g id="line2d_38">
      <g>
       <use style="stroke:#000000;stroke-width:0.6;" x="219.311373" xlink:href="#m1e7de0e3f5" y="307.584"/>
      </g>
     </g>
    </g>
    <g id="xtick_20">
     <g id="line2d_39">
      <path clip-path="url(#pe9e3846d13)" d="M 230.856336 307.584 
L 230.856336 41.472 
" style="fill:none;stroke:#b0b0b0;stroke-linecap:square;stroke-width:0.8;"/>
     </g>
     <g id="line2d_40">
      <g>
       <use style="stroke:#000000;stroke-width:0.6;" x="230.856336" xlink:href="#m1e7de0e3f5" y="307.584"/>
      </g>
     </g>
    </g>
    <g id="xtick_21">
     <g id="line2d_41">
      <path clip-path="url(#pe9e3846d13)" d="M 242.4013 307.584 
L 242.4013 41.472 
" style="fill:none;stroke:#b0b0b0;stroke-linecap:square;stroke-width:0.8;"/>
     </g>
     <g id="line2d_42">
      <g>
       <use style="stroke:#000000;stroke-width:0.6;" x="242.4013" xlink:href="#m1e7de0e3f5" y="307.584"/>
      </g>
     </g>
    </g>
    <g id="xtick_22">
     <g id="line2d_43">
      <path clip-path="url(#pe9e3846d13)" d="M 265.491227 307.584 
L 265.491227 41.472 
" style="fill:none;stroke:#b0b0b0;stroke-linecap:square;stroke-width:0.8;"/>
     </g>
     <g id="line2d_44">
      <g>
       <use style="stroke:#000000;stroke-width:0.6;" x="265.491227" xlink:href="#m1e7de0e3f5" y="307.584"/>
      </g>
     </g>
    </g>
    <g id="xtick_23">
     <g id="line2d_45">
      <path clip-path="url(#pe9e3846d13)" d="M 277.036191 307.584 
L 277.036191 41.472 
" style="fill:none;stroke:#b0b0b0;stroke-linecap:square;stroke-width:0.8;"/>
     </g>
     <g id="line2d_46">
      <g>
       <use style="stroke:#000000;stroke-width:0.6;" x="277.036191" xlink:href="#m1e7de0e3f5" y="307.584"/>
      </g>
     </g>
    </g>
    <g id="xtick_24">
     <g id="line2d_47">
      <path clip-path="url(#pe9e3846d13)" d="M 288.581155 307.584 
L 288.581155 41.472 
" style="fill:none;stroke:#b0b0b0;stroke-linecap:square;stroke-width:0.8;"/>
     </g>
     <g id="line2d_48">
      <g>
       <use style="stroke:#000000;stroke-width:0.6;" x="288.581155" xlink:href="#m1e7de0e3f5" y="307.584"/>
      </g>
     </g>
    </g>
    <g id="xtick_25">
     <g id="line2d_49">
      <path clip-path="url(#pe9e3846d13)" d="M 311.671082 307.584 
L 311.671082 41.472 
" style="fill:none;stroke:#b0b0b0;stroke-linecap:square;stroke-width:0.8;"/>
     </g>
     <g id="line2d_50">
      <g>
       <use style="stroke:#000000;stroke-width:0.6;" x="311.671082" xlink:href="#m1e7de0e3f5" y="307.584"/>
      </g>
     </g>
    </g>
    <g id="xtick_26">
     <g id="line2d_51">
      <path clip-path="url(#pe9e3846d13)" d="M 323.216046 307.584 
L 323.216046 41.472 
" style="fill:none;stroke:#b0b0b0;stroke-linecap:square;stroke-width:0.8;"/>
     </g>
     <g id="line2d_52">
      <g>
       <use style="stroke:#000000;stroke-width:0.6;" x="323.216046" xlink:href="#m1e7de0e3f5" y="307.584"/>
      </g>
     </g>
    </g>
    <g id="xtick_27">
     <g id="line2d_53">
      <path clip-path="url(#pe9e3846d13)" d="M 334.76101 307.584 
L 334.76101 41.472 
" style="fill:none;stroke:#b0b0b0;stroke-linecap:square;stroke-width:0.8;"/>
     </g>
     <g id="line2d_54">
      <g>
       <use style="stroke:#000000;stroke-width:0.6;" x="334.76101" xlink:href="#m1e7de0e3f5" y="307.584"/>
      </g>
     </g>
    </g>
    <g id="xtick_28">
     <g id="line2d_55">
      <path clip-path="url(#pe9e3846d13)" d="M 357.850937 307.584 
L 357.850937 41.472 
" style="fill:none;stroke:#b0b0b0;stroke-linecap:square;stroke-width:0.8;"/>
     </g>
     <g id="line2d_56">
      <g>
       <use style="stroke:#000000;stroke-width:0.6;" x="357.850937" xlink:href="#m1e7de0e3f5" y="307.584"/>
      </g>
     </g>
    </g>
    <g id="xtick_29">
     <g id="line2d_57">
      <path clip-path="url(#pe9e3846d13)" d="M 369.395901 307.584 
L 369.395901 41.472 
" style="fill:none;stroke:#b0b0b0;stroke-linecap:square;stroke-width:0.8;"/>
     </g>
     <g id="line2d_58">
      <g>
       <use style="stroke:#000000;stroke-width:0.6;" x="369.395901" xlink:href="#m1e7de0e3f5" y="307.584"/>
      </g>
     </g>
    </g>
    <g id="xtick_30">
     <g id="line2d_59">
      <path clip-path="url(#pe9e3846d13)" d="M 380.940865 307.584 
L 380.940865 41.472 
" style="fill:none;stroke:#b0b0b0;stroke-linecap:square;stroke-width:0.8;"/>
     </g>
     <g id="line2d_60">
      <g>
       <use style="stroke:#000000;stroke-width:0.6;" x="380.940865" xlink:href="#m1e7de0e3f5" y="307.584"/>
      </g>
     </g>
    </g>
    <g id="xtick_31">
     <g id="line2d_61">
      <path clip-path="url(#pe9e3846d13)" d="M 404.030792 307.584 
L 404.030792 41.472 
" style="fill:none;stroke:#b0b0b0;stroke-linecap:square;stroke-width:0.8;"/>
     </g>
     <g id="line2d_62">
      <g>
       <use style="stroke:#000000;stroke-width:0.6;" x="404.030792" xlink:href="#m1e7de0e3f5" y="307.584"/>
      </g>
     </g>
    </g>
    <g id="text_9">
     <!-- frame # [] -->
     <defs>
      <path d="M 37.109375 75.984375 
L 37.109375 68.5 
L 28.515625 68.5 
Q 23.6875 68.5 21.796875 66.546875 
Q 19.921875 64.59375 19.921875 59.515625 
L 19.921875 54.6875 
L 34.71875 54.6875 
L 34.71875 47.703125 
L 19.921875 47.703125 
L 19.921875 0 
L 10.890625 0 
L 10.890625 47.703125 
L 2.296875 47.703125 
L 2.296875 54.6875 
L 10.890625 54.6875 
L 10.890625 58.5 
Q 10.890625 67.625 15.140625 71.796875 
Q 19.390625 75.984375 28.609375 75.984375 
z
" id="DejaVuSans-66"/>
      <path d="M 41.109375 46.296875 
Q 39.59375 47.171875 37.8125 47.578125 
Q 36.03125 48 33.890625 48 
Q 26.265625 48 22.1875 43.046875 
Q 18.109375 38.09375 18.109375 28.8125 
L 18.109375 0 
L 9.078125 0 
L 9.078125 54.6875 
L 18.109375 54.6875 
L 18.109375 46.1875 
Q 20.953125 51.171875 25.484375 53.578125 
Q 30.03125 56 36.53125 56 
Q 37.453125 56 38.578125 55.875 
Q 39.703125 55.765625 41.0625 55.515625 
z
" id="DejaVuSans-72"/>
      <path d="M 34.28125 27.484375 
Q 23.390625 27.484375 19.1875 25 
Q 14.984375 22.515625 14.984375 16.5 
Q 14.984375 11.71875 18.140625 8.90625 
Q 21.296875 6.109375 26.703125 6.109375 
Q 34.1875 6.109375 38.703125 11.40625 
Q 43.21875 16.703125 43.21875 25.484375 
L 43.21875 27.484375 
z
M 52.203125 31.203125 
L 52.203125 0 
L 43.21875 0 
L 43.21875 8.296875 
Q 40.140625 3.328125 35.546875 0.953125 
Q 30.953125 -1.421875 24.3125 -1.421875 
Q 15.921875 -1.421875 10.953125 3.296875 
Q 6 8.015625 6 15.921875 
Q 6 25.140625 12.171875 29.828125 
Q 18.359375 34.515625 30.609375 34.515625 
L 43.21875 34.515625 
L 43.21875 35.40625 
Q 43.21875 41.609375 39.140625 45 
Q 35.0625 48.390625 27.6875 48.390625 
Q 23 48.390625 18.546875 47.265625 
Q 14.109375 46.140625 10.015625 43.890625 
L 10.015625 52.203125 
Q 14.9375 54.109375 19.578125 55.046875 
Q 24.21875 56 28.609375 56 
Q 40.484375 56 46.34375 49.84375 
Q 52.203125 43.703125 52.203125 31.203125 
z
" id="DejaVuSans-61"/>
      <path d="M 52 44.1875 
Q 55.375 50.25 60.0625 53.125 
Q 64.75 56 71.09375 56 
Q 79.640625 56 84.28125 50.015625 
Q 88.921875 44.046875 88.921875 33.015625 
L 88.921875 0 
L 79.890625 0 
L 79.890625 32.71875 
Q 79.890625 40.578125 77.09375 44.375 
Q 74.3125 48.1875 68.609375 48.1875 
Q 61.625 48.1875 57.5625 43.546875 
Q 53.515625 38.921875 53.515625 30.90625 
L 53.515625 0 
L 44.484375 0 
L 44.484375 32.71875 
Q 44.484375 40.625 41.703125 44.40625 
Q 38.921875 48.1875 33.109375 48.1875 
Q 26.21875 48.1875 22.15625 43.53125 
Q 18.109375 38.875 18.109375 30.90625 
L 18.109375 0 
L 9.078125 0 
L 9.078125 54.6875 
L 18.109375 54.6875 
L 18.109375 46.1875 
Q 21.1875 51.21875 25.484375 53.609375 
Q 29.78125 56 35.6875 56 
Q 41.65625 56 45.828125 52.96875 
Q 50 49.953125 52 44.1875 
z
" id="DejaVuSans-6d"/>
      <path d="M 56.203125 29.59375 
L 56.203125 25.203125 
L 14.890625 25.203125 
Q 15.484375 15.921875 20.484375 11.0625 
Q 25.484375 6.203125 34.421875 6.203125 
Q 39.59375 6.203125 44.453125 7.46875 
Q 49.3125 8.734375 54.109375 11.28125 
L 54.109375 2.78125 
Q 49.265625 0.734375 44.1875 -0.34375 
Q 39.109375 -1.421875 33.890625 -1.421875 
Q 20.796875 -1.421875 13.15625 6.1875 
Q 5.515625 13.8125 5.515625 26.8125 
Q 5.515625 40.234375 12.765625 48.109375 
Q 20.015625 56 32.328125 56 
Q 43.359375 56 49.78125 48.890625 
Q 56.203125 41.796875 56.203125 29.59375 
z
M 47.21875 32.234375 
Q 47.125 39.59375 43.09375 43.984375 
Q 39.0625 48.390625 32.421875 48.390625 
Q 24.90625 48.390625 20.390625 44.140625 
Q 15.875 39.890625 15.1875 32.171875 
z
" id="DejaVuSans-65"/>
      <path id="DejaVuSans-20"/>
      <path d="M 51.125 44 
L 36.921875 44 
L 32.8125 27.6875 
L 47.125 27.6875 
z
M 43.796875 71.78125 
L 38.71875 51.515625 
L 52.984375 51.515625 
L 58.109375 71.78125 
L 65.921875 71.78125 
L 60.890625 51.515625 
L 76.125 51.515625 
L 76.125 44 
L 58.984375 44 
L 54.984375 27.6875 
L 70.515625 27.6875 
L 70.515625 20.21875 
L 53.078125 20.21875 
L 48 0 
L 40.1875 0 
L 45.21875 20.21875 
L 30.90625 20.21875 
L 25.875 0 
L 18.015625 0 
L 23.09375 20.21875 
L 7.71875 20.21875 
L 7.71875 27.6875 
L 24.90625 27.6875 
L 29 44 
L 13.28125 44 
L 13.28125 51.515625 
L 30.90625 51.515625 
L 35.890625 71.78125 
z
" id="DejaVuSans-23"/>
      <path d="M 8.59375 75.984375 
L 29.296875 75.984375 
L 29.296875 69 
L 17.578125 69 
L 17.578125 -6.203125 
L 29.296875 -6.203125 
L 29.296875 -13.1875 
L 8.59375 -13.1875 
z
" id="DejaVuSans-5b"/>
      <path d="M 30.421875 75.984375 
L 30.421875 -13.1875 
L 9.71875 -13.1875 
L 9.71875 -6.203125 
L 21.390625 -6.203125 
L 21.390625 69 
L 9.71875 69 
L 9.71875 75.984375 
z
" id="DejaVuSans-5d"/>
     </defs>
     <g transform="translate(210.063906 335.860562)scale(0.1 -0.1)">
      <use xlink:href="#DejaVuSans-66"/>
      <use x="35.205078" xlink:href="#DejaVuSans-72"/>
      <use x="76.318359" xlink:href="#DejaVuSans-61"/>
      <use x="137.597656" xlink:href="#DejaVuSans-6d"/>
      <use x="235.009766" xlink:href="#DejaVuSans-65"/>
      <use x="296.533203" xlink:href="#DejaVuSans-20"/>
      <use x="328.320312" xlink:href="#DejaVuSans-23"/>
      <use x="412.109375" xlink:href="#DejaVuSans-20"/>
      <use x="443.896484" xlink:href="#DejaVuSans-5b"/>
      <use x="482.910156" xlink:href="#DejaVuSans-5d"/>
     </g>
    </g>
   </g>
   <g id="matplotlib.axis_2">
    <g id="ytick_1">
     <g id="line2d_63">
      <path clip-path="url(#pe9e3846d13)" d="M 57.6 271.233005 
L 414.72 271.233005 
" style="fill:none;stroke:#b0b0b0;stroke-linecap:square;stroke-width:0.8;"/>
     </g>
     <g id="line2d_64">
      <defs>
       <path d="M 0 0 
L -3.5 0 
" id="m575bde8ffc" style="stroke:#000000;stroke-width:0.8;"/>
      </defs>
      <g>
       <use style="stroke:#000000;stroke-width:0.8;" x="57.6" xlink:href="#m575bde8ffc" y="271.233005"/>
      </g>
     </g>
     <g id="text_10">
      <!-- −0.2 -->
      <defs>
       <path d="M 10.59375 35.5 
L 73.1875 35.5 
L 73.1875 27.203125 
L 10.59375 27.203125 
z
" id="DejaVuSans-2212"/>
       <path d="M 10.6875 12.40625 
L 21 12.40625 
L 21 0 
L 10.6875 0 
z
" id="DejaVuSans-2e"/>
      </defs>
      <g transform="translate(26.317187 275.032224)scale(0.1 -0.1)">
       <use xlink:href="#DejaVuSans-2212"/>
       <use x="83.789062" xlink:href="#DejaVuSans-30"/>
       <use x="147.412109" xlink:href="#DejaVuSans-2e"/>
       <use x="179.199219" xlink:href="#DejaVuSans-32"/>
      </g>
     </g>
    </g>
    <g id="ytick_2">
     <g id="line2d_65">
      <path clip-path="url(#pe9e3846d13)" d="M 57.6 224.185763 
L 414.72 224.185763 
" style="fill:none;stroke:#b0b0b0;stroke-linecap:square;stroke-width:0.8;"/>
     </g>
     <g id="line2d_66">
      <g>
       <use style="stroke:#000000;stroke-width:0.8;" x="57.6" xlink:href="#m575bde8ffc" y="224.185763"/>
      </g>
     </g>
     <g id="text_11">
      <!-- −0.1 -->
      <defs>
       <path d="M 12.40625 8.296875 
L 28.515625 8.296875 
L 28.515625 63.921875 
L 10.984375 60.40625 
L 10.984375 69.390625 
L 28.421875 72.90625 
L 38.28125 72.90625 
L 38.28125 8.296875 
L 54.390625 8.296875 
L 54.390625 0 
L 12.40625 0 
z
" id="DejaVuSans-31"/>
      </defs>
      <g transform="translate(26.317187 227.984982)scale(0.1 -0.1)">
       <use xlink:href="#DejaVuSans-2212"/>
       <use x="83.789062" xlink:href="#DejaVuSans-30"/>
       <use x="147.412109" xlink:href="#DejaVuSans-2e"/>
       <use x="179.199219" xlink:href="#DejaVuSans-31"/>
      </g>
     </g>
    </g>
    <g id="ytick_3">
     <g id="line2d_67">
      <path clip-path="url(#pe9e3846d13)" d="M 57.6 177.13852 
L 414.72 177.13852 
" style="fill:none;stroke:#b0b0b0;stroke-linecap:square;stroke-width:0.8;"/>
     </g>
     <g id="line2d_68">
      <g>
       <use style="stroke:#000000;stroke-width:0.8;" x="57.6" xlink:href="#m575bde8ffc" y="177.13852"/>
      </g>
     </g>
     <g id="text_12">
      <!-- 0.0 -->
      <g transform="translate(34.696875 180.937739)scale(0.1 -0.1)">
       <use xlink:href="#DejaVuSans-30"/>
       <use x="63.623047" xlink:href="#DejaVuSans-2e"/>
       <use x="95.410156" xlink:href="#DejaVuSans-30"/>
      </g>
     </g>
    </g>
    <g id="ytick_4">
     <g id="line2d_69">
      <path clip-path="url(#pe9e3846d13)" d="M 57.6 130.091278 
L 414.72 130.091278 
" style="fill:none;stroke:#b0b0b0;stroke-linecap:square;stroke-width:0.8;"/>
     </g>
     <g id="line2d_70">
      <g>
       <use style="stroke:#000000;stroke-width:0.8;" x="57.6" xlink:href="#m575bde8ffc" y="130.091278"/>
      </g>
     </g>
     <g id="text_13">
      <!-- 0.1 -->
      <g transform="translate(34.696875 133.890497)scale(0.1 -0.1)">
       <use xlink:href="#DejaVuSans-30"/>
       <use x="63.623047" xlink:href="#DejaVuSans-2e"/>
       <use x="95.410156" xlink:href="#DejaVuSans-31"/>
      </g>
     </g>
    </g>
    <g id="ytick_5">
     <g id="line2d_71">
      <path clip-path="url(#pe9e3846d13)" d="M 57.6 83.044035 
L 414.72 83.044035 
" style="fill:none;stroke:#b0b0b0;stroke-linecap:square;stroke-width:0.8;"/>
     </g>
     <g id="line2d_72">
      <g>
       <use style="stroke:#000000;stroke-width:0.8;" x="57.6" xlink:href="#m575bde8ffc" y="83.044035"/>
      </g>
     </g>
     <g id="text_14">
      <!-- 0.2 -->
      <g transform="translate(34.696875 86.843254)scale(0.1 -0.1)">
       <use xlink:href="#DejaVuSans-30"/>
       <use x="63.623047" xlink:href="#DejaVuSans-2e"/>
       <use x="95.410156" xlink:href="#DejaVuSans-32"/>
      </g>
     </g>
    </g>
    <g id="ytick_6">
     <g id="line2d_73">
      <path clip-path="url(#pe9e3846d13)" d="M 57.6 299.461351 
L 414.72 299.461351 
" style="fill:none;stroke:#b0b0b0;stroke-linecap:square;stroke-width:0.8;"/>
     </g>
     <g id="line2d_74">
      <defs>
       <path d="M 0 0 
L -2 0 
" id="mc219cd376a" style="stroke:#000000;stroke-width:0.6;"/>
      </defs>
      <g>
       <use style="stroke:#000000;stroke-width:0.6;" x="57.6" xlink:href="#mc219cd376a" y="299.461351"/>
      </g>
     </g>
    </g>
    <g id="ytick_7">
     <g id="line2d_75">
      <path clip-path="url(#pe9e3846d13)" d="M 57.6 290.051902 
L 414.72 290.051902 
" style="fill:none;stroke:#b0b0b0;stroke-linecap:square;stroke-width:0.8;"/>
     </g>
     <g id="line2d_76">
      <g>
       <use style="stroke:#000000;stroke-width:0.6;" x="57.6" xlink:href="#mc219cd376a" y="290.051902"/>
      </g>
     </g>
    </g>
    <g id="ytick_8">
     <g id="line2d_77">
      <path clip-path="url(#pe9e3846d13)" d="M 57.6 280.642454 
L 414.72 280.642454 
" style="fill:none;stroke:#b0b0b0;stroke-linecap:square;stroke-width:0.8;"/>
     </g>
     <g id="line2d_78">
      <g>
       <use style="stroke:#000000;stroke-width:0.6;" x="57.6" xlink:href="#mc219cd376a" y="280.642454"/>
      </g>
     </g>
    </g>
    <g id="ytick_9">
     <g id="line2d_79">
      <path clip-path="url(#pe9e3846d13)" d="M 57.6 271.233005 
L 414.72 271.233005 
" style="fill:none;stroke:#b0b0b0;stroke-linecap:square;stroke-width:0.8;"/>
     </g>
     <g id="line2d_80">
      <g>
       <use style="stroke:#000000;stroke-width:0.6;" x="57.6" xlink:href="#mc219cd376a" y="271.233005"/>
      </g>
     </g>
    </g>
    <g id="ytick_10">
     <g id="line2d_81">
      <path clip-path="url(#pe9e3846d13)" d="M 57.6 261.823557 
L 414.72 261.823557 
" style="fill:none;stroke:#b0b0b0;stroke-linecap:square;stroke-width:0.8;"/>
     </g>
     <g id="line2d_82">
      <g>
       <use style="stroke:#000000;stroke-width:0.6;" x="57.6" xlink:href="#mc219cd376a" y="261.823557"/>
      </g>
     </g>
    </g>
    <g id="ytick_11">
     <g id="line2d_83">
      <path clip-path="url(#pe9e3846d13)" d="M 57.6 252.414108 
L 414.72 252.414108 
" style="fill:none;stroke:#b0b0b0;stroke-linecap:square;stroke-width:0.8;"/>
     </g>
     <g id="line2d_84">
      <g>
       <use style="stroke:#000000;stroke-width:0.6;" x="57.6" xlink:href="#mc219cd376a" y="252.414108"/>
      </g>
     </g>
    </g>
    <g id="ytick_12">
     <g id="line2d_85">
      <path clip-path="url(#pe9e3846d13)" d="M 57.6 243.00466 
L 414.72 243.00466 
" style="fill:none;stroke:#b0b0b0;stroke-linecap:square;stroke-width:0.8;"/>
     </g>
     <g id="line2d_86">
      <g>
       <use style="stroke:#000000;stroke-width:0.6;" x="57.6" xlink:href="#mc219cd376a" y="243.00466"/>
      </g>
     </g>
    </g>
    <g id="ytick_13">
     <g id="line2d_87">
      <path clip-path="url(#pe9e3846d13)" d="M 57.6 233.595211 
L 414.72 233.595211 
" style="fill:none;stroke:#b0b0b0;stroke-linecap:square;stroke-width:0.8;"/>
     </g>
     <g id="line2d_88">
      <g>
       <use style="stroke:#000000;stroke-width:0.6;" x="57.6" xlink:href="#mc219cd376a" y="233.595211"/>
      </g>
     </g>
    </g>
    <g id="ytick_14">
     <g id="line2d_89">
      <path clip-path="url(#pe9e3846d13)" d="M 57.6 224.185763 
L 414.72 224.185763 
" style="fill:none;stroke:#b0b0b0;stroke-linecap:square;stroke-width:0.8;"/>
     </g>
     <g id="line2d_90">
      <g>
       <use style="stroke:#000000;stroke-width:0.6;" x="57.6" xlink:href="#mc219cd376a" y="224.185763"/>
      </g>
     </g>
    </g>
    <g id="ytick_15">
     <g id="line2d_91">
      <path clip-path="url(#pe9e3846d13)" d="M 57.6 214.776314 
L 414.72 214.776314 
" style="fill:none;stroke:#b0b0b0;stroke-linecap:square;stroke-width:0.8;"/>
     </g>
     <g id="line2d_92">
      <g>
       <use style="stroke:#000000;stroke-width:0.6;" x="57.6" xlink:href="#mc219cd376a" y="214.776314"/>
      </g>
     </g>
    </g>
    <g id="ytick_16">
     <g id="line2d_93">
      <path clip-path="url(#pe9e3846d13)" d="M 57.6 205.366866 
L 414.72 205.366866 
" style="fill:none;stroke:#b0b0b0;stroke-linecap:square;stroke-width:0.8;"/>
     </g>
     <g id="line2d_94">
      <g>
       <use style="stroke:#000000;stroke-width:0.6;" x="57.6" xlink:href="#mc219cd376a" y="205.366866"/>
      </g>
     </g>
    </g>
    <g id="ytick_17">
     <g id="line2d_95">
      <path clip-path="url(#pe9e3846d13)" d="M 57.6 195.957417 
L 414.72 195.957417 
" style="fill:none;stroke:#b0b0b0;stroke-linecap:square;stroke-width:0.8;"/>
     </g>
     <g id="line2d_96">
      <g>
       <use style="stroke:#000000;stroke-width:0.6;" x="57.6" xlink:href="#mc219cd376a" y="195.957417"/>
      </g>
     </g>
    </g>
    <g id="ytick_18">
     <g id="line2d_97">
      <path clip-path="url(#pe9e3846d13)" d="M 57.6 186.547969 
L 414.72 186.547969 
" style="fill:none;stroke:#b0b0b0;stroke-linecap:square;stroke-width:0.8;"/>
     </g>
     <g id="line2d_98">
      <g>
       <use style="stroke:#000000;stroke-width:0.6;" x="57.6" xlink:href="#mc219cd376a" y="186.547969"/>
      </g>
     </g>
    </g>
    <g id="ytick_19">
     <g id="line2d_99">
      <path clip-path="url(#pe9e3846d13)" d="M 57.6 177.13852 
L 414.72 177.13852 
" style="fill:none;stroke:#b0b0b0;stroke-linecap:square;stroke-width:0.8;"/>
     </g>
     <g id="line2d_100">
      <g>
       <use style="stroke:#000000;stroke-width:0.6;" x="57.6" xlink:href="#mc219cd376a" y="177.13852"/>
      </g>
     </g>
    </g>
    <g id="ytick_20">
     <g id="line2d_101">
      <path clip-path="url(#pe9e3846d13)" d="M 57.6 167.729072 
L 414.72 167.729072 
" style="fill:none;stroke:#b0b0b0;stroke-linecap:square;stroke-width:0.8;"/>
     </g>
     <g id="line2d_102">
      <g>
       <use style="stroke:#000000;stroke-width:0.6;" x="57.6" xlink:href="#mc219cd376a" y="167.729072"/>
      </g>
     </g>
    </g>
    <g id="ytick_21">
     <g id="line2d_103">
      <path clip-path="url(#pe9e3846d13)" d="M 57.6 158.319623 
L 414.72 158.319623 
" style="fill:none;stroke:#b0b0b0;stroke-linecap:square;stroke-width:0.8;"/>
     </g>
     <g id="line2d_104">
      <g>
       <use style="stroke:#000000;stroke-width:0.6;" x="57.6" xlink:href="#mc219cd376a" y="158.319623"/>
      </g>
     </g>
    </g>
    <g id="ytick_22">
     <g id="line2d_105">
      <path clip-path="url(#pe9e3846d13)" d="M 57.6 148.910175 
L 414.72 148.910175 
" style="fill:none;stroke:#b0b0b0;stroke-linecap:square;stroke-width:0.8;"/>
     </g>
     <g id="line2d_106">
      <g>
       <use style="stroke:#000000;stroke-width:0.6;" x="57.6" xlink:href="#mc219cd376a" y="148.910175"/>
      </g>
     </g>
    </g>
    <g id="ytick_23">
     <g id="line2d_107">
      <path clip-path="url(#pe9e3846d13)" d="M 57.6 139.500726 
L 414.72 139.500726 
" style="fill:none;stroke:#b0b0b0;stroke-linecap:square;stroke-width:0.8;"/>
     </g>
     <g id="line2d_108">
      <g>
       <use style="stroke:#000000;stroke-width:0.6;" x="57.6" xlink:href="#mc219cd376a" y="139.500726"/>
      </g>
     </g>
    </g>
    <g id="ytick_24">
     <g id="line2d_109">
      <path clip-path="url(#pe9e3846d13)" d="M 57.6 130.091278 
L 414.72 130.091278 
" style="fill:none;stroke:#b0b0b0;stroke-linecap:square;stroke-width:0.8;"/>
     </g>
     <g id="line2d_110">
      <g>
       <use style="stroke:#000000;stroke-width:0.6;" x="57.6" xlink:href="#mc219cd376a" y="130.091278"/>
      </g>
     </g>
    </g>
    <g id="ytick_25">
     <g id="line2d_111">
      <path clip-path="url(#pe9e3846d13)" d="M 57.6 120.681829 
L 414.72 120.681829 
" style="fill:none;stroke:#b0b0b0;stroke-linecap:square;stroke-width:0.8;"/>
     </g>
     <g id="line2d_112">
      <g>
       <use style="stroke:#000000;stroke-width:0.6;" x="57.6" xlink:href="#mc219cd376a" y="120.681829"/>
      </g>
     </g>
    </g>
    <g id="ytick_26">
     <g id="line2d_113">
      <path clip-path="url(#pe9e3846d13)" d="M 57.6 111.272381 
L 414.72 111.272381 
" style="fill:none;stroke:#b0b0b0;stroke-linecap:square;stroke-width:0.8;"/>
     </g>
     <g id="line2d_114">
      <g>
       <use style="stroke:#000000;stroke-width:0.6;" x="57.6" xlink:href="#mc219cd376a" y="111.272381"/>
      </g>
     </g>
    </g>
    <g id="ytick_27">
     <g id="line2d_115">
      <path clip-path="url(#pe9e3846d13)" d="M 57.6 101.862932 
L 414.72 101.862932 
" style="fill:none;stroke:#b0b0b0;stroke-linecap:square;stroke-width:0.8;"/>
     </g>
     <g id="line2d_116">
      <g>
       <use style="stroke:#000000;stroke-width:0.6;" x="57.6" xlink:href="#mc219cd376a" y="101.862932"/>
      </g>
     </g>
    </g>
    <g id="ytick_28">
     <g id="line2d_117">
      <path clip-path="url(#pe9e3846d13)" d="M 57.6 92.453484 
L 414.72 92.453484 
" style="fill:none;stroke:#b0b0b0;stroke-linecap:square;stroke-width:0.8;"/>
     </g>
     <g id="line2d_118">
      <g>
       <use style="stroke:#000000;stroke-width:0.6;" x="57.6" xlink:href="#mc219cd376a" y="92.453484"/>
      </g>
     </g>
    </g>
    <g id="ytick_29">
     <g id="line2d_119">
      <path clip-path="url(#pe9e3846d13)" d="M 57.6 83.044035 
L 414.72 83.044035 
" style="fill:none;stroke:#b0b0b0;stroke-linecap:square;stroke-width:0.8;"/>
     </g>
     <g id="line2d_120">
      <g>
       <use style="stroke:#000000;stroke-width:0.6;" x="57.6" xlink:href="#mc219cd376a" y="83.044035"/>
      </g>
     </g>
    </g>
    <g id="ytick_30">
     <g id="line2d_121">
      <path clip-path="url(#pe9e3846d13)" d="M 57.6 73.634587 
L 414.72 73.634587 
" style="fill:none;stroke:#b0b0b0;stroke-linecap:square;stroke-width:0.8;"/>
     </g>
     <g id="line2d_122">
      <g>
       <use style="stroke:#000000;stroke-width:0.6;" x="57.6" xlink:href="#mc219cd376a" y="73.634587"/>
      </g>
     </g>
    </g>
    <g id="ytick_31">
     <g id="line2d_123">
      <path clip-path="url(#pe9e3846d13)" d="M 57.6 64.225138 
L 414.72 64.225138 
" style="fill:none;stroke:#b0b0b0;stroke-linecap:square;stroke-width:0.8;"/>
     </g>
     <g id="line2d_124">
      <g>
       <use style="stroke:#000000;stroke-width:0.6;" x="57.6" xlink:href="#mc219cd376a" y="64.225138"/>
      </g>
     </g>
    </g>
    <g id="ytick_32">
     <g id="line2d_125">
      <path clip-path="url(#pe9e3846d13)" d="M 57.6 54.81569 
L 414.72 54.81569 
" style="fill:none;stroke:#b0b0b0;stroke-linecap:square;stroke-width:0.8;"/>
     </g>
     <g id="line2d_126">
      <g>
       <use style="stroke:#000000;stroke-width:0.6;" x="57.6" xlink:href="#mc219cd376a" y="54.81569"/>
      </g>
     </g>
    </g>
    <g id="ytick_33">
     <g id="line2d_127">
      <path clip-path="url(#pe9e3846d13)" d="M 57.6 45.406241 
L 414.72 45.406241 
" style="fill:none;stroke:#b0b0b0;stroke-linecap:square;stroke-width:0.8;"/>
     </g>
     <g id="line2d_128">
      <g>
       <use style="stroke:#000000;stroke-width:0.6;" x="57.6" xlink:href="#mc219cd376a" y="45.406241"/>
      </g>
     </g>
    </g>
    <g id="text_15">
     <!-- trans x -->
     <defs>
      <path d="M 18.3125 70.21875 
L 18.3125 54.6875 
L 36.8125 54.6875 
L 36.8125 47.703125 
L 18.3125 47.703125 
L 18.3125 18.015625 
Q 18.3125 11.328125 20.140625 9.421875 
Q 21.96875 7.515625 27.59375 7.515625 
L 36.8125 7.515625 
L 36.8125 0 
L 27.59375 0 
Q 17.1875 0 13.234375 3.875 
Q 9.28125 7.765625 9.28125 18.015625 
L 9.28125 47.703125 
L 2.6875 47.703125 
L 2.6875 54.6875 
L 9.28125 54.6875 
L 9.28125 70.21875 
z
" id="DejaVuSans-74"/>
      <path d="M 54.890625 33.015625 
L 54.890625 0 
L 45.90625 0 
L 45.90625 32.71875 
Q 45.90625 40.484375 42.875 44.328125 
Q 39.84375 48.1875 33.796875 48.1875 
Q 26.515625 48.1875 22.3125 43.546875 
Q 18.109375 38.921875 18.109375 30.90625 
L 18.109375 0 
L 9.078125 0 
L 9.078125 54.6875 
L 18.109375 54.6875 
L 18.109375 46.1875 
Q 21.34375 51.125 25.703125 53.5625 
Q 30.078125 56 35.796875 56 
Q 45.21875 56 50.046875 50.171875 
Q 54.890625 44.34375 54.890625 33.015625 
z
" id="DejaVuSans-6e"/>
      <path d="M 44.28125 53.078125 
L 44.28125 44.578125 
Q 40.484375 46.53125 36.375 47.5 
Q 32.28125 48.484375 27.875 48.484375 
Q 21.1875 48.484375 17.84375 46.4375 
Q 14.5 44.390625 14.5 40.28125 
Q 14.5 37.15625 16.890625 35.375 
Q 19.28125 33.59375 26.515625 31.984375 
L 29.59375 31.296875 
Q 39.15625 29.25 43.1875 25.515625 
Q 47.21875 21.78125 47.21875 15.09375 
Q 47.21875 7.46875 41.1875 3.015625 
Q 35.15625 -1.421875 24.609375 -1.421875 
Q 20.21875 -1.421875 15.453125 -0.5625 
Q 10.6875 0.296875 5.421875 2 
L 5.421875 11.28125 
Q 10.40625 8.6875 15.234375 7.390625 
Q 20.0625 6.109375 24.8125 6.109375 
Q 31.15625 6.109375 34.5625 8.28125 
Q 37.984375 10.453125 37.984375 14.40625 
Q 37.984375 18.0625 35.515625 20.015625 
Q 33.0625 21.96875 24.703125 23.78125 
L 21.578125 24.515625 
Q 13.234375 26.265625 9.515625 29.90625 
Q 5.8125 33.546875 5.8125 39.890625 
Q 5.8125 47.609375 11.28125 51.796875 
Q 16.75 56 26.8125 56 
Q 31.78125 56 36.171875 55.265625 
Q 40.578125 54.546875 44.28125 53.078125 
z
" id="DejaVuSans-73"/>
      <path d="M 54.890625 54.6875 
L 35.109375 28.078125 
L 55.90625 0 
L 45.3125 0 
L 29.390625 21.484375 
L 13.484375 0 
L 2.875 0 
L 24.125 28.609375 
L 4.6875 54.6875 
L 15.28125 54.6875 
L 29.78125 35.203125 
L 44.28125 54.6875 
z
" id="DejaVuSans-78"/>
     </defs>
     <g transform="translate(20.2375 191.929563)rotate(-90)scale(0.1 -0.1)">
      <use xlink:href="#DejaVuSans-74"/>
      <use x="39.208984" xlink:href="#DejaVuSans-72"/>
      <use x="80.322266" xlink:href="#DejaVuSans-61"/>
      <use x="141.601562" xlink:href="#DejaVuSans-6e"/>
      <use x="204.980469" xlink:href="#DejaVuSans-73"/>
      <use x="257.080078" xlink:href="#DejaVuSans-20"/>
      <use x="288.867188" xlink:href="#DejaVuSans-78"/>
     </g>
    </g>
   </g>
   <g id="line2d_129">
    <path clip-path="url(#pe9e3846d13)" d="M 87.225493 191.047835 
L 87.687304 198.349724 
L 87.91821 198.085793 
L 88.149117 204.587049 
L 88.380021 202.604162 
L 88.610985 190.136983 
L 88.841891 196.856888 
L 89.072797 185.765954 
M 89.765083 167.600905 
L 89.995989 164.923266 
L 90.226895 157.344725 
L 90.457778 158.326852 
L 90.688685 142.325699 
L 90.919591 134.766479 
L 91.150497 137.469012 
L 91.382724 137.261283 
L 91.61363 139.4672 
L 91.844536 138.632003 
L 92.07544 139.945083 
L 92.537352 145.735453 
L 92.768259 142.953269 
L 92.999165 141.938715 
L 93.228879 143.373638 
L 93.459785 148.238779 
L 93.690692 141.374393 
L 93.921598 140.498064 
L 94.152408 145.750881 
L 94.383316 142.802926 
L 94.614225 132.015089 
L 94.845131 131.462363 
L 95.077144 129.970547 
L 95.30805 129.460206 
L 95.769864 133.417405 
L 96.002079 140.031138 
L 96.694687 169.372011 
L 97.386909 198.264607 
L 97.848722 216.590111 
L 98.07819 220.442733 
L 98.309098 221.122083 
L 98.540002 227.463806 
L 98.770911 223.135778 
L 99.0015 235.725832 
L 99.232408 225.170477 
L 99.463314 221.853798 
L 99.926274 227.382203 
L 100.388087 218.654676 
L 100.850008 208.128061 
L 101.080914 207.901355 
L 101.31182 205.031584 
L 101.542729 205.82452 
L 101.772379 205.995885 
L 102.003285 213.200164 
L 102.234191 212.067028 
L 102.465097 205.520183 
L 102.695673 194.969476 
L 102.92658 204.780798 
L 103.157488 189.160794 
L 103.388394 191.050186 
L 103.619539 181.11959 
L 103.850445 183.5742 
L 104.081351 190.188454 
L 104.312257 183.685918 
L 104.543819 182.784056 
L 104.774725 178.482762 
L 105.005631 178.076381 
L 105.23654 173.941707 
L 105.467542 163.065954 
L 105.698448 158.948142 
L 105.929357 152.644957 
L 106.160261 154.401112 
L 106.621624 141.23478 
L 106.852531 142.008369 
L 107.314343 135.112626 
L 107.545334 135.087746 
L 107.77624 140.670441 
L 108.007147 143.515116 
L 108.238053 142.2187 
L 108.469554 146.225258 
L 108.70046 144.154419 
L 108.931369 147.759383 
L 109.162275 146.595286 
L 109.392708 148.056326 
L 109.623614 144.567595 
L 109.854521 146.05069 
L 110.315741 143.82323 
L 110.546647 140.52564 
L 110.777551 154.917165 
L 111.00846 146.34753 
L 111.239592 145.812168 
L 111.470499 150.595332 
L 111.701405 151.595297 
L 111.932311 151.568132 
L 112.165029 154.385939 
L 112.395936 154.675738 
L 113.088849 162.507389 
L 113.781567 172.897376 
L 114.242505 173.440241 
L 114.473402 177.238758 
L 114.704308 176.596192 
L 114.934407 180.671523 
L 115.165313 179.771403 
L 115.39622 176.801601 
L 115.627126 177.055041 
L 115.858517 178.026249 
L 116.320329 189.218974 
L 117.243936 228.957472 
L 117.704934 236.750682 
L 117.935864 238.211928 
L 118.397653 230.950607 
L 118.628559 207.064217 
L 118.859873 205.172942 
L 119.321686 170.679157 
L 119.783599 147.073606 
L 120.014508 141.664671 
L 120.245416 152.273424 
L 120.47632 155.581289 
L 120.706618 165.019975 
L 120.937527 189.654809 
L 121.168431 193.115339 
L 121.399339 198.323519 
L 121.630234 200.911391 
L 121.861027 200.650861 
L 122.091933 197.294173 
M 123.246561 147.598078 
L 123.708487 131.535891 
L 123.939393 132.726392 
L 124.170299 136.348793 
L 124.402623 151.021118 
M 125.095344 202.284505 
L 125.555945 224.544511 
L 125.786852 227.739479 
L 126.249697 208.694244 
M 127.172703 148.035038 
L 127.403611 141.831169 
L 127.634517 131.443484 
L 127.865424 130.407611 
L 128.096088 136.435837 
L 128.326994 147.164927 
L 128.557901 152.304612 
L 128.788807 163.360717 
L 129.481715 214.15676 
L 129.712622 211.61598 
L 129.943528 227.209171 
L 130.17367 227.845488 
L 130.404577 224.177226 
L 131.098293 187.242659 
M 131.560105 176.258302 
L 131.791011 157.648275 
L 132.25264 136.680533 
L 132.483548 134.548668 
L 132.714452 144.936816 
L 132.944582 162.177385 
M 134.09878 183.287999 
L 134.329686 178.802672 
M 135.255227 175.629145 
L 135.486133 180.837469 
M 137.100793 191.687575 
L 137.3317 188.324489 
L 137.793379 205.345607 
L 138.024286 209.304202 
L 138.255192 211.338292 
L 138.487004 207.044944 
L 138.717913 187.573893 
L 138.948817 156.435156 
L 139.871662 109.76888 
L 140.102568 110.682966 
L 140.564454 122.310693 
L 140.795361 120.911981 
L 141.026267 125.887325 
L 142.182044 207.559997 
L 142.41204 208.34513 
L 142.873852 229.107051 
L 143.104758 230.343045 
L 143.335148 230.336158 
L 143.566059 230.74293 
L 143.79696 237.136202 
L 144.027866 238.87152 
L 144.260357 239.583558 
L 144.491263 241.240002 
L 144.953076 230.81233 
L 145.185636 223.592158 
L 146.107776 165.628257 
L 146.569589 154.945253 
L 146.800495 140.107119 
L 147.491659 117.606832 
L 147.722566 124.23708 
L 147.953332 125.26585 
L 148.184238 126.950248 
L 148.415144 131.685609 
L 149.108821 161.044164 
L 149.339728 187.530818 
M 149.801542 198.910324 
L 150.032273 195.598773 
M 151.186382 185.419119 
L 151.417288 190.846406 
L 151.648197 186.957848 
L 151.879377 185.713921 
L 152.110283 186.591665 
L 152.341189 180.592527 
L 152.802903 177.723642 
L 153.033811 178.456254 
L 153.264718 176.845423 
L 153.727629 171.875279 
L 153.958535 164.982108 
L 154.420352 169.557486 
L 154.652017 175.831089 
L 154.882759 173.976394 
L 155.113666 163.735038 
L 155.575444 163.835496 
L 155.80635 171.010443 
L 156.037256 173.19134 
L 156.268163 173.269492 
L 156.499057 174.016914 
L 156.729965 173.129432 
L 156.960871 171.26349 
L 157.191777 176.452158 
L 157.42318 176.960715 
L 157.654086 176.296502 
L 157.884992 176.911884 
L 158.115898 178.562549 
L 158.577926 182.919665 
L 158.808832 182.36122 
L 159.039741 177.37541 
L 159.269354 175.889 
L 159.50026 169.597085 
L 159.962073 169.890734 
L 160.192874 175.421228 
L 160.424501 166.945143 
L 160.886316 175.699246 
L 161.347871 179.953634 
L 161.578775 175.766154 
L 161.809681 175.720524 
L 162.271855 171.865944 
L 162.502761 166.704537 
L 162.73367 168.343654 
L 163.19512 178.102868 
L 163.426027 180.255101 
L 163.656933 181.340263 
L 163.887839 179.63293 
L 164.118298 176.874879 
L 164.349204 170.519971 
L 164.58011 170.080495 
L 164.811016 184.312081 
L 165.041765 159.443973 
L 165.272674 158.286833 
L 165.503578 161.490346 
L 165.734484 168.578038 
L 165.965945 166.269318 
L 166.196852 168.54834 
L 166.42776 167.140978 
L 166.658666 164.266377 
L 166.889307 158.433152 
M 168.043329 160.323631 
L 168.274235 168.107807 
L 168.505141 166.393671 
L 168.735624 170.872312 
L 168.966542 158.737851 
L 169.197437 158.388751 
L 169.428343 159.607028 
L 169.660241 161.556242 
L 169.891147 156.999081 
L 170.122056 156.793229 
L 170.584158 164.81623 
L 170.815064 170.758605 
L 171.04597 171.190651 
L 171.276876 175.1439 
L 171.507783 172.414037 
L 171.738788 175.408951 
L 171.969694 170.262822 
L 172.2006 170.62901 
L 172.431506 167.328681 
L 172.662633 170.858524 
L 173.124445 185.778103 
L 173.355352 184.454859 
L 173.586267 188.356594 
L 173.817176 182.451991 
L 174.048082 181.95923 
L 174.278988 176.891476 
L 174.510119 177.842267 
L 174.741025 176.248147 
L 174.971931 173.763483 
L 175.20284 175.541574 
L 175.432941 179.664009 
L 175.663847 175.84237 
L 176.12566 173.68792 
L 176.817492 163.462817 
L 177.048399 167.645572 
L 177.279967 163.130655 
L 177.510873 165.552006 
L 177.741779 173.323337 
L 178.204344 172.249471 
L 178.43525 171.855487 
L 178.897063 165.537395 
L 179.128312 163.863147 
L 179.359218 163.873291 
L 179.590124 162.357928 
L 179.82103 163.903018 
L 180.282112 175.236868 
L 180.513016 174.662012 
L 180.743922 176.595119 
L 180.974266 174.151067 
L 181.205172 168.85352 
L 181.436078 166.718953 
L 181.666984 168.011649 
L 182.128876 165.040811 
L 182.590691 171.128 
L 182.821597 168.023632 
L 183.052761 168.867657 
L 183.283667 163.745026 
L 183.514573 165.754882 
M 184.668716 154.564187 
L 184.899265 159.573304 
L 185.130172 161.619217 
L 185.361078 162.579468 
L 185.591984 166.245842 
L 186.053582 161.797287 
L 186.284489 158.444226 
L 186.747442 162.68538 
L 186.978348 159.230733 
L 187.209255 160.726888 
L 187.440161 163.637913 
L 187.670867 168.553708 
L 187.901708 169.262 
L 188.132615 169.490482 
L 188.363523 171.500725 
L 188.594556 169.694684 
L 188.825462 169.741756 
L 189.056368 172.963396 
L 189.287275 168.429022 
L 189.518553 166.542752 
L 189.749459 168.435135 
L 190.211274 165.576188 
L 190.442167 166.966648 
L 191.134886 161.991084 
L 191.366026 166.139084 
L 191.596814 168.187057 
L 191.82772 168.522439 
L 192.058629 168.270488 
L 192.520312 162.064104 
L 192.751218 172.583756 
L 193.21303 159.030474 
L 193.44273 162.351359 
L 193.673638 157.363803 
L 193.904544 149.625958 
L 194.135451 154.240581 
L 194.365549 152.177459 
L 194.596455 153.63885 
M 195.05844 154.065627 
L 195.289296 162.749305 
M 196.676199 149.843994 
L 196.907105 153.369789 
L 197.600372 190.185466 
L 198.523234 228.331635 
L 198.75436 229.545753 
L 198.98442 224.209899 
L 200.832495 144.683437 
L 201.063401 139.731614 
L 201.294307 140.679639 
L 201.525213 140.124307 
L 201.756172 138.98108 
L 201.987081 145.503746 
M 202.448891 130.11916 
L 202.679797 128.725051 
L 202.910839 129.666241 
L 203.141747 149.846855 
L 203.372654 143.435455 
L 203.60356 149.68201 
L 204.066551 180.084664 
L 204.988921 224.034943 
L 205.219827 227.518026 
L 205.450733 228.383856 
L 205.911804 216.694093 
L 206.83626 172.003073 
L 207.298075 145.445873 
L 207.529443 138.978025 
L 207.760349 136.814509 
L 207.991255 133.414672 
L 208.222164 135.732989 
L 208.453142 135.83472 
L 208.684048 137.646497 
L 208.914954 143.862239 
L 210.300563 212.814418 
L 210.531469 221.639766 
L 210.762378 225.393672 
L 210.993285 226.115515 
L 211.916558 178.298689 
L 212.378165 147.268462 
L 212.609072 139.23434 
L 212.839978 153.697221 
M 213.762052 165.888465 
L 213.992958 166.538715 
L 214.224174 174.78121 
L 214.455082 196.20574 
L 214.916894 189.205629 
L 215.148604 199.549753 
L 215.37951 202.915258 
L 215.610419 204.312247 
L 216.303182 210.741399 
L 216.534088 212.655018 
L 216.764994 213.240012 
L 216.995763 215.495911 
L 217.22667 215.376248 
L 217.457576 219.631081 
L 217.688482 219.922352 
L 217.919495 223.995635 
L 218.150404 224.580871 
L 218.38131 218.458881 
L 218.612216 217.540973 
L 218.843114 211.04167 
L 219.07402 212.912193 
L 219.304929 208.489981 
L 219.766728 194.703176 
L 219.997637 194.194311 
L 220.228543 188.441411 
L 220.459449 189.077942 
M 220.921223 206.987728 
L 221.383035 223.599169 
L 221.844826 232.672759 
M 224.383582 177.294531 
L 224.614747 179.771137 
L 224.845653 186.937687 
L 225.076559 183.295369 
L 225.539201 184.961334 
L 225.770107 183.342479 
L 226.92566 232.832169 
L 227.156566 234.9642 
L 227.387524 238.45427 
L 227.618431 235.728798 
L 227.849346 230.162992 
L 229.234291 154.474624 
L 229.465197 153.429528 
L 229.927009 146.936444 
L 230.388083 153.55601 
L 230.618989 157.086814 
L 230.849895 177.743864 
L 231.082419 149.760828 
L 231.313325 138.18618 
L 231.544231 144.518436 
L 231.775138 163.133943 
L 232.006558 163.668831 
L 232.237464 169.858081 
L 232.699276 193.301969 
L 232.927434 207.025054 
M 234.773937 139.891186 
L 235.005052 136.759575 
L 235.235958 141.646297 
L 235.466865 132.12104 
L 235.697771 146.370036 
M 236.161164 169.180835 
L 236.622979 191.478518 
L 236.853719 189.494113 
L 237.084625 210.821452 
L 237.546438 228.689154 
L 237.776625 232.590242 
L 238.007531 234.236088 
L 238.469343 212.825793 
L 238.931069 182.769268 
L 239.161976 165.782775 
L 239.392882 161.122105 
L 240.086344 127.837931 
L 240.317253 174.940075 
L 240.54807 115.1555 
L 240.778976 110.885072 
L 241.240788 130.302428 
L 241.471465 126.474701 
L 241.702372 131.860464 
L 241.933278 140.005454 
L 242.164184 143.06312 
L 242.395558 157.04224 
L 243.550223 191.659765 
L 243.781129 201.270281 
L 244.242513 194.198917 
L 245.166138 162.891678 
L 245.628116 139.341473 
L 246.089929 132.068064 
L 246.320722 133.058966 
L 246.551628 130.390282 
L 246.782534 135.715413 
L 247.937649 189.484379 
L 248.168662 195.772738 
L 248.399568 197.656464 
L 248.630474 202.341557 
L 248.861382 210.286407 
L 249.092034 207.523911 
L 249.322941 215.206235 
L 249.553847 204.249295 
L 249.784753 200.48715 
L 250.247517 185.334947 
L 250.709329 190.17187 
L 251.170762 208.30331 
L 251.632574 227.200495 
L 251.862946 228.059702 
L 252.093852 226.426671 
L 252.555667 214.246305 
L 253.941673 135.116284 
L 254.172579 127.947807 
L 254.63417 130.532483 
L 256.250329 219.628777 
L 256.481237 227.181422 
L 256.711766 226.779537 
L 256.942679 232.276549 
L 257.173579 231.314382 
L 257.404485 233.557033 
L 257.866356 224.767914 
L 258.328168 184.962959 
L 259.021686 145.25166 
L 259.252592 146.041759 
L 259.482041 140.693114 
L 259.943856 151.133322 
L 260.638163 189.780228 
L 260.869069 216.815343 
L 261.099982 216.453541 
M 261.562839 250.171263 
L 261.793745 246.864148 
L 262.253603 237.892282 
L 262.484509 226.372545 
L 262.715415 225.751695 
L 263.178944 203.974085 
L 263.409851 214.68768 
L 263.640759 182.650621 
L 264.102668 163.605002 
L 264.333577 164.373302 
L 264.564481 163.585451 
L 264.795387 155.232606 
L 265.02385 154.139896 
L 265.485662 166.368915 
L 265.716569 163.84086 
L 265.947659 166.149116 
L 266.178565 166.717499 
L 266.409471 168.4439 
L 266.640377 172.704935 
L 267.103813 164.161182 
L 267.334722 171.812375 
L 267.565628 166.702207 
L 267.796534 172.139702 
L 268.025316 165.17097 
L 268.256223 176.95965 
M 269.17963 180.428419 
L 269.410536 182.204468 
L 269.641445 187.226671 
L 269.874097 197.666333 
L 270.105003 190.84424 
M 271.028685 183.100376 
L 271.259589 182.684606 
L 271.490498 181.80237 
L 271.719545 187.362683 
L 272.181358 179.496848 
L 272.644781 195.801124 
L 272.875687 199.916777 
L 273.3375 223.296076 
M 273.801258 227.992151 
L 274.263071 229.321818 
L 274.491579 224.131838 
L 274.722488 223.011034 
L 275.1843 194.630543 
L 275.416038 164.30277 
L 275.877851 137.506084 
L 276.570903 113.7981 
L 277.032716 100.678947 
L 277.263624 102.23005 
L 277.49429 108.289748 
L 277.956102 137.916091 
L 278.417049 180.823516 
L 279.109768 244.625791 
L 279.57045 272.890439 
L 279.801356 274.048262 
L 280.032262 270.22994 
L 280.494693 253.347472 
L 281.189188 200.900286 
L 281.651 145.979322 
L 281.881906 131.06213 
L 282.112452 106.463166 
L 282.343358 102.694638 
L 282.574264 94.04268 
L 282.80517 89.761397 
M 283.264893 83.747831 
L 283.495799 83.218139 
L 283.726705 87.622566 
M 284.420957 132.250237 
L 284.883362 179.023047 
L 285.114269 173.691671 
M 285.576081 222.867317 
L 285.805157 234.423047 
M 286.266971 243.104378 
L 286.497878 245.79283 
L 286.728286 236.258192 
L 286.959192 231.551631 
L 287.190098 230.314785 
L 287.421004 240.959479 
L 287.651911 239.645933 
M 288.114762 235.059811 
L 288.576576 220.36187 
L 288.808106 215.452641 
L 289.039013 228.194923 
L 289.269919 227.025033 
L 289.960864 254.824637 
L 290.422676 275.221802 
L 290.654214 279.063229 
L 291.11625 260.320263 
L 291.346932 241.379541 
M 292.041585 175.564171 
L 292.272492 152.66024 
M 292.733161 113.788018 
L 292.964067 106.212874 
L 293.194975 102.714335 
M 294.579915 113.461897 
L 294.811001 119.637162 
L 295.504361 180.027721 
L 295.966176 211.288416 
L 296.195966 235.111467 
L 296.426872 233.745982 
L 296.657778 245.648722 
L 296.888684 243.861791 
L 297.118836 248.382845 
M 298.505452 250.609899 
L 298.96713 226.060977 
L 299.1998 212.847369 
M 299.661615 183.154514 
L 299.892521 163.081002 
M 302.894051 61.244162 
L 303.124959 53.568 
L 303.817861 93.47386 
L 304.740929 153.451285 
L 305.433647 189.431486 
L 305.663381 197.114156 
L 305.894308 213.419408 
L 306.587033 233.725298 
L 306.817942 235.07425 
L 307.048848 240.058541 
L 307.279754 249.408142 
L 307.510058 249.479812 
L 307.740964 257.949971 
L 307.971871 249.394636 
L 308.202779 257.021595 
L 308.434968 252.652516 
L 308.665874 263.955936 
L 309.127687 262.321432 
L 309.358593 256.710843 
L 310.283692 202.600622 
L 310.513517 196.87452 
L 311.667074 123.654884 
L 311.897982 115.997886 
L 312.128888 92.344892 
L 312.359528 87.910125 
L 312.590434 80.567662 
L 312.82134 79.369384 
L 313.052247 88.681453 
L 313.515208 126.636155 
L 313.746114 145.617906 
L 314.439296 224.145624 
L 314.901108 255.1689 
L 315.130553 258.558425 
L 315.36146 264.07533 
L 315.823274 240.864807 
L 316.053992 238.782725 
L 316.515805 207.989282 
L 316.746711 195.280924 
L 316.977974 189.376163 
L 317.20888 188.046777 
L 317.439787 183.191896 
L 317.670693 183.670483 
L 317.901081 189.199868 
L 318.131987 185.755886 
L 318.362893 165.686008 
L 319.055147 135.522253 
L 319.516962 128.635104 
L 319.979872 137.429008 
L 320.210778 143.538001 
L 320.672591 167.366828 
L 320.903174 173.863784 
L 321.13408 167.896828 
L 321.827451 130.233832 
L 322.058357 132.999003 
L 322.289263 145.174475 
L 323.212893 230.161455 
L 323.67444 282.025583 
L 323.905346 295.488 
L 324.136252 294.325201 
L 324.598261 257.173317 
L 325.060075 206.537593 
M 325.522073 151.996827 
L 325.983885 112.192573 
L 326.445649 90.095283 
L 326.676555 86.080017 
L 326.907464 91.398342 
L 327.13837 106.192449 
L 328.754398 269.701924 
L 328.985304 276.113428 
L 329.216619 267.792507 
L 330.140244 185.05374 
L 331.064292 82.408141 
L 331.294865 63.913996 
L 331.525771 61.067814 
L 331.756677 71.420478 
L 332.218696 115.473939 
L 333.141503 214.130496 
L 333.834221 274.301366 
L 334.065269 284.588894 
L 334.296176 283.337255 
L 334.527082 271.864719 
L 336.374372 103.354119 
L 336.605278 91.288943 
L 336.835976 85.6713 
L 337.066882 87.72169 
L 337.297788 98.908466 
L 337.760002 137.757142 
L 338.221817 181.906047 
L 338.682989 202.97591 
L 339.144801 195.683171 
L 339.375785 200.209898 
L 339.605818 201.031387 
L 339.836724 202.66808 
L 340.067633 196.964104 
L 340.298539 197.692331 
L 340.529338 192.0016 
L 340.760942 178.073475 
L 340.991848 182.587351 
L 341.222754 173.460217 
L 341.45366 176.37787 
M 342.149743 175.207221 
L 342.380649 177.115945 
L 342.608418 179.975355 
L 342.839322 176.646275 
L 343.07023 176.70491 
L 343.532839 159.443005 
L 343.763745 158.747303 
L 343.994651 162.491163 
L 344.456303 201.109602 
L 344.68721 210.959904 
L 344.918116 214.794617 
L 345.379435 182.408112 
M 346.303207 149.223912 
L 347.226912 229.209102 
L 347.45782 231.817341 
L 347.688727 231.596634 
L 347.919633 227.341265 
L 348.381403 206.640786 
L 348.61231 192.168497 
M 349.074291 150.039681 
L 349.76701 82.862572 
L 349.997559 74.092149 
L 350.228465 87.266129 
L 350.459373 73.426705 
L 350.690277 85.269052 
L 350.920962 106.690864 
M 353.461103 96.446369 
L 353.692009 97.413609 
L 354.153955 86.051239 
L 354.384861 87.418796 
L 354.615768 82.849638 
L 354.846007 89.16111 
L 355.076913 89.24056 
L 355.538726 105.529796 
L 355.770026 124.392093 
L 356.000934 122.08033 
L 356.231838 130.278738 
L 356.462746 132.036222 
L 356.694014 130.981128 
L 356.924921 128.146272 
M 359.00262 96.995165 
L 359.233526 93.997397 
L 359.464801 95.947132 
L 359.695709 99.164933 
L 360.157519 113.81878 
L 360.849868 137.707362 
L 361.080774 141.362055 
L 361.311982 136.814569 
L 361.542888 142.598925 
L 361.773792 130.100979 
L 362.004701 128.65836 
L 362.466721 121.182895 
L 362.697627 112.001173 
L 363.159439 105.534411 
L 363.38994 108.12218 
L 364.082661 86.766522 
L 364.544093 78.185997 
L 364.775 78.840258 
M 365.929913 146.873348 
L 366.161116 149.718718 
L 366.392022 149.084334 
L 366.622929 146.441368 
L 367.316287 107.428012 
L 367.547194 100.415022 
L 367.7781 98.988591 
L 368.008394 98.545919 
L 368.239301 100.121574 
L 368.470207 106.431123 
L 368.93227 134.978251 
L 369.163222 153.733157 
M 369.624991 199.498535 
L 370.317854 242.72079 
M 371.009396 259.813294 
L 371.240302 261.510051 
M 371.933771 224.359048 
L 372.627875 171.241432 
L 372.858779 157.455685 
L 373.089682 129.44255 
L 373.320588 118.956461 
L 373.551494 114.055497 
M 374.011293 112.966447 
L 374.242199 132.349197 
L 375.167571 172.050617 
L 375.629964 191.046533 
L 375.860873 193.564037 
L 376.322685 186.590984 
L 376.55246 178.979425 
M 377.014274 167.185919 
L 377.245181 165.193342 
M 377.706784 162.013108 
L 378.399189 143.732735 
L 378.630096 141.426115 
L 378.861004 140.904318 
L 379.09191 138.914136 
L 379.322543 138.833044 
L 379.784353 133.552345 
L 380.015269 131.933047 
L 380.246181 132.742744 
L 380.477087 134.267604 
L 380.707993 137.643045 
L 380.938899 138.589247 
L 381.170226 145.114593 
L 381.862944 191.408378 
L 382.786421 223.262894 
L 383.247474 228.282907 
L 383.478382 226.923877 
L 383.709286 222.547963 
L 383.940192 210.928222 
M 384.634411 177.313179 
L 384.865317 170.456752 
L 385.096404 159.892548 
L 385.32731 154.799333 
L 385.789124 139.811442 
L 386.018952 138.831405 
L 386.24986 129.536051 
L 386.480769 126.535054 
L 386.711673 131.213327 
L 386.943448 115.621355 
L 387.174354 116.269471 
L 387.405263 110.639953 
L 387.636169 108.689245 
L 387.86903 110.096528 
L 388.561518 131.444291 
L 389.253745 180.791264 
L 389.484651 211.165542 
M 390.174872 261.099549 
L 390.405778 253.737662 
L 390.636329 282.10744 
L 390.867237 280.244627 
L 391.32905 247.571375 
M 391.793484 206.816 
L 392.485907 153.715365 
L 392.94772 131.751951 
L 393.178626 132.733541 
L 393.408458 133.045505 
L 393.639367 135.750479 
L 393.870273 137.011603 
L 394.101179 141.045376 
L 394.562481 158.461379 
M 395.024293 177.593723 
" style="fill:none;stroke:#ff0000;stroke-linecap:square;"/>
   </g>
   <g id="line2d_130">
    <path clip-path="url(#pe9e3846d13)" d="M 87.225493 191.213513 
L 87.91821 201.602021 
L 88.149117 202.37153 
L 88.380021 200.028917 
L 89.072797 185.888919 
M 89.765083 169.14271 
L 90.226895 156.317639 
L 90.688685 142.107195 
L 90.919591 137.38469 
L 91.150497 137.196321 
L 91.61363 139.895088 
L 91.844536 140.469828 
L 92.306444 144.220715 
L 92.537352 145.664065 
L 92.768259 143.417867 
L 92.999165 142.394325 
L 93.690692 147.479649 
L 93.921598 148.294125 
L 94.152408 146.985108 
L 94.383316 144.200777 
L 94.845131 134.449462 
L 95.077144 132.568035 
L 95.30805 132.84204 
L 95.538958 132.432995 
L 95.769864 133.447592 
L 96.002079 139.445614 
L 97.156003 190.980352 
L 97.848722 217.143267 
L 98.309098 223.367753 
L 98.540002 223.861019 
L 99.0015 221.388809 
L 99.232408 221.542235 
L 99.463314 221.888731 
L 99.694449 223.950399 
L 99.926274 227.19952 
L 100.15718 225.29483 
L 100.850008 207.682279 
L 101.080914 204.711357 
L 101.31182 205.186931 
L 102.003285 214.108061 
L 102.234191 211.786566 
L 102.465097 206.365406 
L 102.92658 192.751059 
L 103.157488 190.42393 
L 103.388394 189.528579 
L 103.619539 189.273388 
L 103.850445 187.323527 
L 104.312257 185.382807 
L 104.543819 183.471897 
L 105.005631 176.795679 
L 105.929357 155.82008 
L 106.160261 153.739428 
L 106.852531 140.514035 
L 107.083437 139.476239 
L 107.314343 140.279642 
L 107.545334 142.499288 
L 107.77624 142.499346 
L 108.007147 143.069429 
L 108.469554 146.900117 
L 108.70046 147.610187 
L 108.931369 147.084743 
L 109.162275 147.018676 
L 109.392708 147.158236 
L 109.623614 146.167832 
L 109.854521 145.974209 
L 110.085427 145.393117 
L 110.546647 149.736036 
L 110.777551 150.805175 
L 111.00846 150.092269 
L 111.470499 150.853889 
L 112.395936 155.117341 
L 113.088849 161.124264 
L 114.011587 171.51088 
L 114.704308 176.316073 
L 114.934407 177.430569 
L 115.165313 176.072661 
L 115.39622 175.522365 
L 115.627126 176.069355 
L 115.858517 177.4738 
L 116.320329 189.526956 
L 116.782124 209.069495 
L 117.243936 229.234579 
L 117.935864 239.517988 
L 118.166747 238.895609 
L 118.397653 229.413634 
L 119.09078 183.25727 
L 119.552592 157.682768 
L 119.783599 152.115597 
L 120.014508 152.683322 
L 120.245416 156.72978 
L 120.47632 164.598764 
L 121.168431 195.46271 
L 121.861027 201.296085 
L 122.091933 197.233835 
M 123.246561 146.55631 
L 123.708487 132.113284 
L 123.939393 133.284035 
L 124.170299 137.53193 
L 124.402623 147.461751 
M 125.095344 202.101207 
L 125.555945 227.55502 
L 125.786852 226.985026 
L 126.249697 210.147336 
M 127.172703 155.477749 
L 127.634517 131.935672 
L 127.865424 128.354343 
L 128.096088 133.429885 
L 128.557901 152.058227 
L 129.481715 210.288571 
L 129.943528 227.843025 
L 130.17367 229.498074 
L 130.404577 224.173434 
L 131.098293 191.308708 
M 131.560105 175.276861 
L 132.021734 147.538573 
L 132.25264 139.77357 
L 132.483548 138.236092 
L 132.714452 148.468319 
L 132.944582 164.89178 
M 134.09878 177.94242 
L 134.329686 176.495845 
M 135.255227 174.180236 
L 135.486133 174.872486 
M 137.100793 187.291122 
L 137.3317 191.024166 
L 138.024286 211.851489 
L 138.255192 209.289533 
L 138.717913 178.648348 
L 139.410629 129.312142 
L 139.871662 115.333438 
L 140.102568 112.852012 
L 140.564454 117.592363 
L 140.795361 121.056522 
L 141.026267 129.761094 
L 141.489325 163.455089 
L 142.182044 207.340817 
L 143.104758 232.383778 
L 143.335148 232.871631 
L 143.566059 232.745038 
L 143.79696 231.984622 
L 144.491263 235.837276 
L 144.722169 235.228374 
L 144.953076 230.81935 
L 145.416542 209.246939 
L 146.107776 164.266567 
L 146.338682 159.35304 
L 147.260755 123.926509 
L 147.491659 121.051644 
L 147.722566 121.658197 
L 147.953332 124.509265 
L 148.415144 134.056211 
L 148.646051 140.462082 
L 149.108821 167.35464 
L 149.339728 181.960525 
M 149.801542 196.124176 
L 150.032273 194.907856 
M 151.186382 183.935307 
L 151.417288 184.334704 
L 151.648197 186.349899 
L 151.879377 185.449161 
L 152.341189 181.0161 
L 152.802903 177.215962 
L 153.033811 177.898991 
L 153.264718 177.132771 
L 153.727629 170.988455 
L 154.189443 167.469363 
L 154.420352 169.45834 
L 154.652017 173.495425 
L 154.882759 172.771514 
L 155.113666 164.59207 
L 155.344574 162.95119 
L 155.575444 164.975781 
L 155.80635 170.484145 
L 156.037256 172.200142 
L 156.499057 173.448112 
L 156.729965 171.623401 
L 156.960871 171.216595 
L 157.42318 178.426744 
L 157.654086 173.50371 
L 157.884992 173.311793 
L 158.115898 175.963747 
L 158.34726 181.045662 
L 158.577926 180.715416 
L 158.808832 181.074792 
L 159.039741 177.335851 
L 159.269354 171.527802 
L 159.50026 171.755839 
L 159.731167 169.8119 
L 159.962073 168.95711 
L 160.192874 165.08289 
L 160.886316 176.299864 
L 161.117222 177.792261 
L 162.040588 172.317364 
L 162.502761 166.731573 
L 162.73367 166.566536 
L 163.19512 176.537569 
L 163.426027 178.746587 
L 163.656933 178.829559 
L 163.887839 179.435329 
L 164.118298 176.676904 
L 164.58011 166.418455 
L 165.272674 160.891633 
L 165.965945 169.346121 
L 166.196852 160.754691 
L 166.42776 164.063845 
L 166.658666 161.178532 
L 166.889307 161.129615 
M 168.043329 160.882971 
L 168.505141 166.044461 
L 168.966542 161.779825 
L 169.197437 159.414801 
L 169.428343 160.069802 
L 169.660241 157.945497 
L 169.891147 158.413563 
L 170.122056 158.028978 
L 171.276876 173.707245 
L 171.507783 172.880416 
L 171.738788 174.097018 
L 172.431506 167.298425 
L 172.662633 170.37284 
L 173.124445 182.253829 
L 173.586267 187.983095 
L 174.048082 179.376269 
L 174.278988 176.616207 
L 174.510119 175.889779 
L 174.971931 173.065965 
L 175.20284 173.350942 
L 175.432941 175.971558 
L 175.663847 174.552065 
L 175.894753 174.233057 
L 176.12566 172.428541 
L 176.35568 169.311474 
L 176.586586 168.388968 
L 176.817492 166.53113 
L 177.048399 165.619293 
L 177.279967 163.837991 
L 177.510873 166.076638 
L 177.741779 170.745948 
L 177.972685 172.178171 
L 178.43525 170.524257 
L 178.897063 165.611998 
L 179.128312 163.769102 
L 179.359218 163.416737 
L 179.590124 161.669019 
L 179.82103 164.238659 
L 180.282112 174.388427 
L 180.743922 175.904477 
L 180.974266 174.280428 
L 181.436078 166.880248 
L 181.666984 164.611431 
L 182.128876 163.534861 
L 182.359782 165.546295 
L 182.590691 171.067123 
L 183.283667 166.362887 
L 183.514573 162.367041 
M 184.668716 157.923123 
L 184.899265 159.520256 
L 185.130172 162.355085 
L 185.361078 163.652775 
L 185.591984 163.730219 
L 186.515397 159.283423 
L 186.747442 160.158691 
L 186.978348 158.601248 
L 187.209255 159.813059 
L 187.670867 167.133342 
L 188.132615 169.53703 
L 188.363523 170.247286 
L 188.594556 168.43219 
L 189.056368 171.597496 
L 189.518553 167.281971 
L 190.211274 166.597797 
L 190.442167 166.645143 
L 190.90398 163.142587 
L 191.134886 163.774411 
L 191.366026 166.31408 
L 191.596814 166.398749 
L 191.82772 165.464192 
L 192.058629 165.365611 
L 192.520312 163.743214 
L 192.751218 164.18546 
L 192.982124 162.868119 
L 193.21303 159.885177 
L 193.44273 159.942821 
L 193.673638 161.273787 
L 193.904544 160.847298 
L 194.365549 156.391069 
L 194.596455 156.066261 
M 195.05844 156.769369 
L 195.289296 156.374036 
M 196.676199 151.039382 
L 196.907105 156.052532 
L 197.369465 177.288765 
L 198.061422 211.683901 
L 198.523234 227.949668 
L 198.75436 226.89151 
L 199.677141 195.030047 
L 201.063401 141.840123 
L 201.294307 140.529291 
L 201.525213 139.943996 
L 201.756172 136.99298 
L 201.987081 131.23027 
M 202.448891 130.366575 
L 202.679797 131.301968 
L 202.910839 133.913982 
L 203.372654 144.15396 
L 203.835645 168.575744 
L 204.528364 204.114716 
L 204.988921 221.476403 
L 205.219827 226.358325 
L 205.450733 225.564914 
L 205.680898 222.639268 
L 206.142711 206.677805 
L 206.605354 190.764969 
L 207.298075 145.583163 
L 207.529443 139.024592 
L 207.760349 135.715541 
L 207.991255 134.157826 
L 208.222164 134.667574 
L 208.453142 136.714195 
L 208.914954 144.059117 
L 209.839415 190.42587 
L 210.300563 213.55612 
L 210.531469 221.268993 
L 210.762378 223.122214 
L 210.993285 223.05474 
L 211.454743 202.452898 
L 211.916558 180.734776 
L 212.378165 148.075012 
L 212.609072 139.594383 
L 212.839978 140.766187 
M 213.762052 167.69122 
L 213.992958 173.683288 
L 214.455082 198.028497 
L 214.685988 196.18153 
L 214.916894 191.22158 
L 215.841325 207.367489 
L 216.303182 209.901856 
L 216.764994 214.176962 
L 216.995763 213.799357 
L 217.22667 214.187166 
L 217.688482 219.801913 
L 218.150404 224.956969 
L 218.843114 214.996747 
L 219.07402 213.70552 
L 219.304929 209.785939 
L 219.766728 198.070008 
L 220.228543 189.73379 
L 220.459449 188.88459 
M 220.921223 207.781607 
L 221.383035 223.802215 
L 221.844826 236.63277 
M 224.383582 181.282034 
L 224.614747 181.025689 
L 225.076559 189.540121 
L 225.539201 184.025039 
L 225.770107 184.201956 
L 226.23192 205.33408 
L 226.694753 226.186789 
L 226.92566 232.72074 
L 227.387524 237.827845 
L 227.618431 235.781987 
L 227.849346 229.991 
L 228.541497 192.932352 
L 229.234291 155.195989 
L 229.465197 154.847934 
L 229.696103 150.941782 
L 229.927009 149.979168 
L 230.157175 150.754961 
L 230.388083 154.17945 
L 230.618989 154.504786 
L 230.849895 151.775516 
L 231.082419 146.714727 
L 231.313325 146.948969 
L 231.544231 150.12308 
L 231.775138 155.478787 
L 232.46837 181.602277 
L 232.927434 208.482701 
M 234.773937 139.858947 
L 235.235958 137.049255 
L 235.466865 139.237683 
L 235.697771 147.149586 
M 236.161164 171.025465 
L 237.546438 229.425877 
L 237.776625 234.092873 
L 238.007531 233.633037 
L 238.469343 214.202483 
L 239.161976 173.545849 
L 239.855438 142.422013 
L 240.317253 130.665039 
L 240.54807 128.604343 
L 241.009882 122.395183 
L 241.933278 137.95899 
L 242.857371 170.658352 
L 243.088277 174.687556 
L 243.550223 192.771939 
L 243.781129 197.731723 
L 244.012038 196.964334 
L 244.242513 193.532172 
L 245.166138 163.069289 
L 245.628116 140.301457 
L 246.089929 133.136689 
L 246.320722 131.934371 
L 246.551628 131.775615 
L 246.782534 137.96662 
L 247.937649 189.016622 
L 248.861382 208.900476 
L 249.092034 209.167144 
L 249.784753 198.978576 
L 250.247517 187.106153 
L 250.709329 189.733452 
L 250.939853 196.139334 
L 251.632574 226.380013 
L 251.862946 226.365185 
L 252.093852 225.396577 
L 252.555667 212.005071 
L 253.479394 160.610521 
L 253.941673 133.187724 
L 254.172579 129.126857 
L 254.403486 129.772822 
L 254.63417 132.231766 
L 254.865079 138.884206 
L 256.481237 226.478229 
L 256.942679 230.799025 
L 257.173579 231.748222 
L 257.404485 234.382029 
L 257.866356 219.977378 
L 259.021686 142.085567 
L 259.252592 137.31431 
L 259.482041 139.573052 
L 259.943856 152.20185 
L 260.407257 177.244325 
L 261.099982 229.602045 
M 261.562839 242.516042 
L 261.793745 246.603079 
L 262.946322 215.313395 
L 264.102668 167.749215 
L 264.564481 161.420532 
L 265.254756 154.713703 
L 265.716569 164.732742 
L 266.178565 166.086298 
L 266.640377 170.511126 
L 266.871284 168.604891 
L 267.103813 168.982823 
L 267.334722 170.307359 
L 267.565628 170.218834 
L 267.796534 168.399221 
L 268.025316 171.638039 
L 268.256223 177.283128 
M 269.17963 176.487287 
L 269.874097 198.726643 
L 270.105003 198.367252 
M 271.028685 185.271126 
L 271.259589 185.246534 
L 271.490498 184.492709 
L 271.719545 184.478139 
L 271.950452 185.589899 
L 272.181358 185.774488 
L 272.644781 197.625062 
L 273.3375 219.766882 
M 273.801258 227.147633 
L 274.032164 228.456981 
L 274.263071 229.00912 
L 274.491579 227.934764 
L 274.722488 223.976177 
L 274.953394 211.572995 
L 275.877851 138.410009 
L 276.570903 112.988991 
L 277.032716 101.717857 
L 277.263624 102.357182 
L 277.49429 108.82148 
L 277.956102 136.896387 
L 278.647956 201.614258 
L 279.339543 259.472281 
L 279.57045 270.977912 
L 279.801356 273.616078 
L 280.263787 266.130083 
L 280.725599 237.683626 
L 282.343358 101.960381 
L 282.80517 89.235224 
M 283.264893 85.428529 
L 283.495799 82.663244 
L 283.726705 85.508555 
M 284.420957 128.8555 
L 285.114269 191.743923 
M 285.576081 224.755085 
L 285.805157 233.965499 
M 286.266971 245.131755 
L 286.497878 243.886259 
L 286.959192 234.126505 
L 287.190098 233.930784 
L 287.651911 241.80254 
M 288.114762 234.869779 
L 288.34567 226.740729 
L 288.576576 222.736411 
L 288.808106 221.974699 
L 289.039013 222.150557 
L 289.960864 251.119917 
L 290.422676 275.305888 
L 290.654214 279.452616 
L 290.88512 274.931371 
L 291.346932 237.181121 
M 292.041585 171.793128 
L 292.272492 153.643084 
M 292.733161 117.430371 
L 293.194975 98.473767 
M 294.579915 109.860739 
L 295.041727 139.525834 
L 295.73527 196.194506 
L 296.426872 235.849574 
L 296.657778 242.753575 
L 297.118836 248.559712 
M 298.505452 248.458327 
L 298.736224 239.92172 
L 299.1998 213.397638 
M 299.661615 176.891725 
L 299.892521 161.883946 
M 302.894051 53.934098 
L 303.124959 56.609588 
L 303.586772 78.183239 
L 305.433647 190.22572 
L 306.125193 218.320964 
L 306.587033 232.512691 
L 307.048848 242.40867 
L 307.510058 254.384567 
L 307.740964 255.507925 
L 307.971871 254.742422 
L 308.202779 258.766974 
L 308.434968 267.571387 
L 308.665874 268.113817 
L 308.896787 263.365456 
L 309.127687 261.777314 
L 309.358593 257.181473 
L 310.975329 166.058871 
L 312.128888 98.003143 
L 312.590434 82.479908 
L 312.82134 82.005102 
L 313.052247 91.021773 
L 313.515208 125.969562 
L 314.901108 255.521863 
L 315.130553 262.763164 
L 315.36146 263.591829 
L 315.823274 244.941324 
L 316.746711 195.656868 
L 317.20888 187.918845 
L 317.439787 185.372197 
L 317.670693 184.801594 
L 317.901081 183.152393 
L 318.131987 178.59755 
L 318.362893 170.096473 
L 319.055147 135.992339 
L 319.286055 128.592254 
L 319.516962 128.052493 
L 319.747868 131.099642 
L 319.979872 137.472441 
L 320.672591 166.315314 
L 320.903174 170.883443 
L 321.13408 165.340105 
L 321.827451 130.402407 
L 322.058357 132.874585 
L 322.289263 145.702461 
L 323.212893 229.319335 
L 323.67444 280.8257 
L 323.905346 294.410334 
L 324.136252 294.450494 
L 324.598261 257.203727 
L 325.060075 206.680846 
M 325.522073 151.961364 
L 325.983885 112.393008 
L 326.445649 89.678564 
L 326.676555 86.042981 
L 326.907464 91.534663 
L 327.13837 106.316298 
L 328.754398 269.318124 
L 328.985304 275.24389 
L 329.216619 267.640744 
L 329.909338 207.091963 
L 331.294865 63.839521 
L 331.525771 60.594761 
L 331.756677 71.515837 
L 332.218696 115.992095 
L 333.372409 236.083571 
L 333.834221 273.909395 
L 334.065269 283.82564 
L 334.296176 283.141577 
L 334.527082 271.422568 
L 336.605278 91.578193 
L 336.835976 85.822989 
L 337.066882 87.573553 
L 337.297788 98.388298 
L 337.760002 139.248185 
L 338.221817 182.728182 
L 338.452724 193.257811 
L 338.682989 197.91373 
L 338.913895 198.706879 
L 339.144801 198.065412 
L 339.375785 198.666328 
L 339.605818 199.693044 
L 339.836724 201.549117 
L 340.067633 200.718658 
L 340.298539 198.605604 
L 341.45366 172.886859 
M 342.149743 174.649155 
L 342.380649 177.780442 
L 342.608418 178.008146 
L 343.07023 173.524617 
L 343.301134 169.619421 
L 343.763745 155.612899 
L 343.994651 163.388681 
L 344.68721 210.115472 
L 344.918116 214.442637 
L 345.379435 182.805836 
M 346.303207 149.139352 
L 347.45782 232.830857 
L 347.688727 233.09107 
L 348.150497 218.364706 
L 348.381403 207.545532 
L 348.61231 191.334496 
M 349.074291 149.965353 
L 349.76701 81.456152 
L 349.997559 70.116558 
L 350.228465 68.431434 
L 350.459373 75.123013 
L 350.920962 109.428316 
M 353.461103 100.095241 
L 353.692009 96.439081 
L 354.153955 83.078115 
L 354.384861 80.459977 
L 354.615768 80.340974 
L 355.076913 92.083703 
L 356.000934 125.576172 
L 356.231838 128.71271 
L 356.924921 132.511186 
M 359.00262 98.927687 
L 359.233526 94.395148 
L 359.464801 94.000215 
L 359.695709 97.651041 
L 360.388056 120.939207 
L 360.849868 137.556771 
L 361.080774 140.909866 
L 361.311982 140.42766 
L 361.542888 138.174919 
L 362.004701 129.66997 
L 362.235607 126.698664 
L 362.928533 109.430971 
L 363.159439 108.730137 
L 363.38994 106.897062 
L 363.851752 94.67939 
L 364.313189 80.344024 
L 364.544093 77.230489 
L 364.775 79.653944 
M 365.929913 140.436322 
L 366.161116 146.263747 
L 366.392022 146.125574 
L 366.622929 141.124881 
L 367.547194 102.027743 
L 368.008394 98.472731 
L 368.239301 99.898339 
L 368.470207 106.461607 
L 368.93227 134.910861 
L 369.163222 154.492643 
M 369.624991 197.987631 
L 370.086948 232.287596 
L 370.317854 240.805802 
M 371.009396 262.084926 
L 371.240302 260.97016 
M 371.933771 223.141597 
L 373.551494 113.94088 
M 374.011293 120.024514 
L 375.629964 190.799416 
L 375.860873 193.446919 
L 376.322685 185.929276 
L 376.55246 180.904189 
M 377.014274 168.176531 
L 377.245181 165.159895 
M 377.706784 162.335799 
L 378.399189 143.780196 
L 378.630096 141.011248 
L 378.861004 140.241879 
L 380.015269 131.998845 
L 380.246181 132.319706 
L 380.707993 136.533767 
L 380.938899 141.493192 
L 381.401132 163.699173 
L 382.0937 201.713653 
L 383.016568 227.448282 
L 383.247474 228.904973 
L 383.478382 226.942621 
L 383.709286 221.653317 
L 383.940192 212.518122 
M 384.634411 179.555024 
L 385.789124 138.793681 
L 386.24986 129.958093 
L 386.711673 121.019219 
L 387.174354 110.940135 
L 387.405263 109.987558 
L 387.636169 108.34461 
L 387.86903 110.016745 
L 388.330612 122.12857 
L 388.561518 131.857074 
L 389.022839 166.011974 
L 389.484651 209.096726 
M 390.174872 260.217938 
L 390.636329 281.179977 
L 390.867237 278.462562 
L 391.32905 247.01634 
M 391.793484 207.106126 
L 392.485907 153.18815 
L 392.716813 139.321294 
L 392.94772 132.803157 
L 393.178626 132.996843 
L 393.408458 133.418634 
L 393.639367 134.766758 
L 394.101179 142.229353 
L 394.562481 159.437129 
M 395.024293 179.675634 
" style="fill:none;stroke:#0000ff;stroke-linecap:square;"/>
   </g>
   <g id="line2d_131">
    <path clip-path="url(#pe9e3846d13)" d="M 73.832727 175.367665 
L 74.063737 175.965907 
L 74.294644 177.816236 
L 74.525551 178.161931 
L 74.756457 178.102597 
L 74.987363 177.731403 
L 75.218261 178.343959 
L 75.680104 178.440402 
L 75.911012 178.260151 
L 76.141918 178.250505 
L 76.603736 178.598454 
L 77.296483 176.812864 
L 77.527391 176.699925 
L 77.758526 177.203933 
L 77.989204 177.359958 
L 78.220088 177.088682 
L 78.450995 177.045496 
L 78.681901 177.183503 
L 79.143744 176.874121 
L 79.605559 176.369219 
L 80.067389 178.06013 
L 80.298298 177.182653 
L 80.76011 177.231535 
L 80.991093 177.301936 
L 81.222 177.613492 
L 81.452906 177.68515 
L 81.683812 177.562567 
L 81.914693 177.309598 
L 82.1456 177.238117 
L 82.838271 176.782201 
L 83.300086 177.595064 
L 83.530992 177.98764 
L 83.761885 178.160488 
L 84.223698 179.004247 
L 84.454604 178.794962 
L 84.68552 179.32141 
L 84.916426 179.222695 
L 85.147335 178.871917 
L 85.378241 179.13485 
L 86.070951 180.701616 
L 86.301857 181.652608 
L 86.994587 188.189866 
M 89.303703 181.328809 
L 89.534177 175.32432 
M 122.322839 186.192569 
L 123.015652 158.972222 
M 124.633529 164.713525 
L 124.864436 184.091433 
M 126.480603 197.927696 
L 126.942416 171.201916 
M 133.175488 174.050335 
L 133.406394 177.050871 
L 133.6373 178.170138 
L 133.867874 178.452903 
M 134.560592 173.711177 
L 134.793415 173.17536 
L 135.024321 173.830921 
M 136.180045 179.651761 
L 136.869887 181.973828 
M 150.263179 191.857344 
L 150.955557 183.703153 
M 195.520202 154.269404 
L 195.751108 154.910212 
M 196.214387 158.069704 
L 196.445293 154.008383 
M 213.069333 142.40351 
L 213.300239 147.672093 
L 213.531146 160.985373 
M 233.620153 202.599264 
L 234.543031 147.719415 
M 268.487129 177.932906 
L 268.718035 177.606612 
L 268.948724 175.852881 
M 270.335909 194.395736 
L 270.797777 185.026094 
M 283.959145 93.859434 
L 284.190051 108.254269 
M 291.57977 212.998793 
L 291.810676 190.658111 
M 293.424278 96.137841 
L 293.655184 95.401178 
M 294.116997 98.111652 
L 294.349009 101.733461 
M 297.349744 248.126573 
L 297.58065 245.638846 
L 298.043505 251.299516 
L 298.274412 251.601913 
M 341.687931 170.84295 
L 341.918837 171.865283 
M 352.306351 132.228604 
L 352.768166 110.785446 
L 353.230197 104.051409 
M 357.155827 134.50719 
L 357.386735 136.744747 
L 357.617297 135.915434 
L 357.848203 132.984805 
L 358.310016 119.345412 
L 358.771714 103.954424 
M 365.005906 89.311561 
L 365.699004 128.728525 
M 370.54876 250.299784 
L 370.77849 258.178558 
M 371.471214 253.670842 
L 371.702865 241.168564 
M 384.172597 200.577552 
L 384.403505 189.08365 
M 389.713057 226.37128 
L 389.943966 244.038819 
M 395.255218 184.202211 
L 395.48596 186.068852 
L 395.947772 183.982592 
L 396.64003 177.963389 
L 396.870936 177.393511 
L 397.101843 175.59757 
L 397.332826 175.633255 
L 397.563733 175.796406 
L 397.794641 175.33143 
L 398.256364 176.353814 
L 398.487273 176.550648 
L 398.487273 176.550648 
" style="fill:none;stroke:#008000;stroke-linecap:square;"/>
   </g>
   <g id="patch_3">
    <path d="M 57.6 307.584 
L 57.6 41.472 
" style="fill:none;stroke:#000000;stroke-linecap:square;stroke-linejoin:miter;stroke-width:0.8;"/>
   </g>
   <g id="patch_4">
    <path d="M 414.72 307.584 
L 414.72 41.472 
" style="fill:none;stroke:#000000;stroke-linecap:square;stroke-linejoin:miter;stroke-width:0.8;"/>
   </g>
   <g id="patch_5">
    <path d="M 57.6 307.584 
L 414.72 307.584 
" style="fill:none;stroke:#000000;stroke-linecap:square;stroke-linejoin:miter;stroke-width:0.8;"/>
   </g>
   <g id="patch_6">
    <path d="M 57.6 41.472 
L 414.72 41.472 
" style="fill:none;stroke:#000000;stroke-linecap:square;stroke-linejoin:miter;stroke-width:0.8;"/>
   </g>
   <g id="text_16">
    <!-- Rel Gt Trans X Plot -->
    <defs>
     <path d="M 44.390625 34.1875 
Q 47.5625 33.109375 50.5625 29.59375 
Q 53.5625 26.078125 56.59375 19.921875 
L 66.609375 0 
L 56 0 
L 46.6875 18.703125 
Q 43.0625 26.03125 39.671875 28.421875 
Q 36.28125 30.8125 30.421875 30.8125 
L 19.671875 30.8125 
L 19.671875 0 
L 9.8125 0 
L 9.8125 72.90625 
L 32.078125 72.90625 
Q 44.578125 72.90625 50.734375 67.671875 
Q 56.890625 62.453125 56.890625 51.90625 
Q 56.890625 45.015625 53.6875 40.46875 
Q 50.484375 35.9375 44.390625 34.1875 
z
M 19.671875 64.796875 
L 19.671875 38.921875 
L 32.078125 38.921875 
Q 39.203125 38.921875 42.84375 42.21875 
Q 46.484375 45.515625 46.484375 51.90625 
Q 46.484375 58.296875 42.84375 61.546875 
Q 39.203125 64.796875 32.078125 64.796875 
z
" id="DejaVuSans-52"/>
     <path d="M 9.421875 75.984375 
L 18.40625 75.984375 
L 18.40625 0 
L 9.421875 0 
z
" id="DejaVuSans-6c"/>
     <path d="M 59.515625 10.40625 
L 59.515625 29.984375 
L 43.40625 29.984375 
L 43.40625 38.09375 
L 69.28125 38.09375 
L 69.28125 6.78125 
Q 63.578125 2.734375 56.6875 0.65625 
Q 49.8125 -1.421875 42 -1.421875 
Q 24.90625 -1.421875 15.25 8.5625 
Q 5.609375 18.5625 5.609375 36.375 
Q 5.609375 54.25 15.25 64.234375 
Q 24.90625 74.21875 42 74.21875 
Q 49.125 74.21875 55.546875 72.453125 
Q 61.96875 70.703125 67.390625 67.28125 
L 67.390625 56.78125 
Q 61.921875 61.421875 55.765625 63.765625 
Q 49.609375 66.109375 42.828125 66.109375 
Q 29.4375 66.109375 22.71875 58.640625 
Q 16.015625 51.171875 16.015625 36.375 
Q 16.015625 21.625 22.71875 14.15625 
Q 29.4375 6.6875 42.828125 6.6875 
Q 48.046875 6.6875 52.140625 7.59375 
Q 56.25 8.5 59.515625 10.40625 
z
" id="DejaVuSans-47"/>
     <path d="M -0.296875 72.90625 
L 61.375 72.90625 
L 61.375 64.59375 
L 35.5 64.59375 
L 35.5 0 
L 25.59375 0 
L 25.59375 64.59375 
L -0.296875 64.59375 
z
" id="DejaVuSans-54"/>
     <path d="M 6.296875 72.90625 
L 16.890625 72.90625 
L 35.015625 45.796875 
L 53.21875 72.90625 
L 63.8125 72.90625 
L 40.375 37.890625 
L 65.375 0 
L 54.78125 0 
L 34.28125 31 
L 13.625 0 
L 2.984375 0 
L 29 38.921875 
z
" id="DejaVuSans-58"/>
     <path d="M 19.671875 64.796875 
L 19.671875 37.40625 
L 32.078125 37.40625 
Q 38.96875 37.40625 42.71875 40.96875 
Q 46.484375 44.53125 46.484375 51.125 
Q 46.484375 57.671875 42.71875 61.234375 
Q 38.96875 64.796875 32.078125 64.796875 
z
M 9.8125 72.90625 
L 32.078125 72.90625 
Q 44.34375 72.90625 50.609375 67.359375 
Q 56.890625 61.8125 56.890625 51.125 
Q 56.890625 40.328125 50.609375 34.8125 
Q 44.34375 29.296875 32.078125 29.296875 
L 19.671875 29.296875 
L 19.671875 0 
L 9.8125 0 
z
" id="DejaVuSans-50"/>
     <path d="M 30.609375 48.390625 
Q 23.390625 48.390625 19.1875 42.75 
Q 14.984375 37.109375 14.984375 27.296875 
Q 14.984375 17.484375 19.15625 11.84375 
Q 23.34375 6.203125 30.609375 6.203125 
Q 37.796875 6.203125 41.984375 11.859375 
Q 46.1875 17.53125 46.1875 27.296875 
Q 46.1875 37.015625 41.984375 42.703125 
Q 37.796875 48.390625 30.609375 48.390625 
z
M 30.609375 56 
Q 42.328125 56 49.015625 48.375 
Q 55.71875 40.765625 55.71875 27.296875 
Q 55.71875 13.875 49.015625 6.21875 
Q 42.328125 -1.421875 30.609375 -1.421875 
Q 18.84375 -1.421875 12.171875 6.21875 
Q 5.515625 13.875 5.515625 27.296875 
Q 5.515625 40.765625 12.171875 48.375 
Q 18.84375 56 30.609375 56 
z
" id="DejaVuSans-6f"/>
    </defs>
    <g transform="translate(179.865938 35.472)scale(0.12 -0.12)">
     <use xlink:href="#DejaVuSans-52"/>
     <use x="69.419922" xlink:href="#DejaVuSans-65"/>
     <use x="130.943359" xlink:href="#DejaVuSans-6c"/>
     <use x="158.726562" xlink:href="#DejaVuSans-20"/>
     <use x="190.513672" xlink:href="#DejaVuSans-47"/>
     <use x="268.003906" xlink:href="#DejaVuSans-74"/>
     <use x="307.212891" xlink:href="#DejaVuSans-20"/>
     <use x="339" xlink:href="#DejaVuSans-54"/>
     <use x="399.865234" xlink:href="#DejaVuSans-72"/>
     <use x="440.978516" xlink:href="#DejaVuSans-61"/>
     <use x="502.257812" xlink:href="#DejaVuSans-6e"/>
     <use x="565.636719" xlink:href="#DejaVuSans-73"/>
     <use x="617.736328" xlink:href="#DejaVuSans-20"/>
     <use x="649.523438" xlink:href="#DejaVuSans-58"/>
     <use x="718.029297" xlink:href="#DejaVuSans-20"/>
     <use x="749.816406" xlink:href="#DejaVuSans-50"/>
     <use x="810.119141" xlink:href="#DejaVuSans-6c"/>
     <use x="837.902344" xlink:href="#DejaVuSans-6f"/>
     <use x="899.083984" xlink:href="#DejaVuSans-74"/>
    </g>
   </g>
  </g>
 </g>
 <defs>
  <clipPath id="pe9e3846d13">
   <rect height="266.112" width="357.12" x="57.6" y="41.472"/>
  </clipPath>
 </defs>
</svg>
